<?xml version="1.0" encoding="utf-8" standalone="no"?>
<!DOCTYPE svg PUBLIC "-//W3C//DTD SVG 1.1//EN"
  "http://www.w3.org/Graphics/SVG/1.1/DTD/svg11.dtd">
<!-- Created with matplotlib (http://matplotlib.org/) -->
<svg height="345.6pt" version="1.1" viewBox="0 0 460.8 345.6" width="460.8pt" xmlns="http://www.w3.org/2000/svg" xmlns:xlink="http://www.w3.org/1999/xlink">
 <defs>
  <style type="text/css">
*{stroke-linecap:butt;stroke-linejoin:round;}
  </style>
 </defs>
 <g id="figure_1">
  <g id="patch_1">
   <path d="M 0 345.6 
L 460.8 345.6 
L 460.8 0 
L 0 0 
z
" style="fill:#ffffff;"/>
  </g>
  <g id="axes_1">
   <g id="patch_2">
    <path d="M 92.16 276.48 
L 437.76 276.48 
L 437.76 27.648 
L 92.16 27.648 
z
" style="fill:#ffffff;"/>
   </g>
   <g id="matplotlib.axis_1">
    <g id="xtick_1">
     <g id="line2d_1">
      <defs>
       <path d="M 0 0 
L 0 3.5 
" id="mfacc99e236" style="stroke:#262626;stroke-width:0.8;"/>
      </defs>
      <g>
       <use style="fill:#262626;stroke:#262626;stroke-width:0.8;" x="101.76" xlink:href="#mfacc99e236" y="276.48"/>
      </g>
     </g>
     <g id="text_1">
      <text style="fill:#262626;font-family:DejaVu Sans;font-size:20px;font-style:normal;font-weight:normal;text-anchor:middle;" transform="rotate(-0, 101.76, 298.676875)" x="101.76" y="298.676875">0</text>
     </g>
    </g>
    <g id="xtick_2">
     <g id="line2d_2">
      <g>
       <use style="fill:#262626;stroke:#262626;stroke-width:0.8;" x="197.76" xlink:href="#mfacc99e236" y="276.48"/>
      </g>
     </g>
     <g id="text_2">
      <text style="fill:#262626;font-family:DejaVu Sans;font-size:20px;font-style:normal;font-weight:normal;text-anchor:middle;" transform="rotate(-0, 197.76, 298.676875)" x="197.76" y="298.676875">5</text>
     </g>
    </g>
    <g id="xtick_3">
     <g id="line2d_3">
      <g>
       <use style="fill:#262626;stroke:#262626;stroke-width:0.8;" x="293.76" xlink:href="#mfacc99e236" y="276.48"/>
      </g>
     </g>
     <g id="text_3">
      <text style="fill:#262626;font-family:DejaVu Sans;font-size:20px;font-style:normal;font-weight:normal;text-anchor:middle;" transform="rotate(-0, 293.76, 298.676875)" x="293.76" y="298.676875">10</text>
     </g>
    </g>
    <g id="xtick_4">
     <g id="line2d_4">
      <g>
       <use style="fill:#262626;stroke:#262626;stroke-width:0.8;" x="389.76" xlink:href="#mfacc99e236" y="276.48"/>
      </g>
     </g>
     <g id="text_4">
      <text style="fill:#262626;font-family:DejaVu Sans;font-size:20px;font-style:normal;font-weight:normal;text-anchor:middle;" transform="rotate(-0, 389.76, 298.676875)" x="389.76" y="298.676875">15</text>
     </g>
    </g>
    <g id="text_5">
     <text style="fill:#262626;font-family:DejaVu Sans;font-size:20px;font-style:normal;font-weight:normal;text-anchor:middle;" transform="rotate(-0, 264.96, 322.033125)" x="264.96" y="322.033125">J 5' deletion</text>
    </g>
   </g>
   <g id="matplotlib.axis_2">
    <g id="ytick_1">
     <g id="line2d_5">
      <defs>
       <path d="M 0 0 
L -3.5 0 
" id="mce5a53596f" style="stroke:#262626;stroke-width:0.8;"/>
      </defs>
      <g>
       <use style="fill:#262626;stroke:#262626;stroke-width:0.8;" x="92.16" xlink:href="#mce5a53596f" y="270.153763"/>
      </g>
     </g>
     <g id="text_6">
      <text style="fill:#262626;font-family:DejaVu Sans;font-size:20px;font-style:normal;font-weight:normal;text-anchor:end;" transform="rotate(-0, 85.16, 277.7522)" x="85.16" y="277.7522">0</text>
     </g>
    </g>
    <g id="ytick_2">
     <g id="line2d_6">
      <g>
       <use style="fill:#262626;stroke:#262626;stroke-width:0.8;" x="92.16" xlink:href="#mce5a53596f" y="197.936442"/>
      </g>
     </g>
     <g id="text_7">
      <text style="fill:#262626;font-family:DejaVu Sans;font-size:20px;font-style:normal;font-weight:normal;text-anchor:end;" transform="rotate(-0, 85.16, 205.53488)" x="85.16" y="205.53488">200</text>
     </g>
    </g>
    <g id="ytick_3">
     <g id="line2d_7">
      <g>
       <use style="fill:#262626;stroke:#262626;stroke-width:0.8;" x="92.16" xlink:href="#mce5a53596f" y="125.719121"/>
      </g>
     </g>
     <g id="text_8">
      <text style="fill:#262626;font-family:DejaVu Sans;font-size:20px;font-style:normal;font-weight:normal;text-anchor:end;" transform="rotate(-0, 85.16, 133.317559)" x="85.16" y="133.317559">400</text>
     </g>
    </g>
    <g id="ytick_4">
     <g id="line2d_8">
      <g>
       <use style="fill:#262626;stroke:#262626;stroke-width:0.8;" x="92.16" xlink:href="#mce5a53596f" y="53.501801"/>
      </g>
     </g>
     <g id="text_9">
      <text style="fill:#262626;font-family:DejaVu Sans;font-size:20px;font-style:normal;font-weight:normal;text-anchor:end;" transform="rotate(-0, 85.16, 61.100238)" x="85.16" y="61.100238">600</text>
     </g>
    </g>
    <g id="text_10">
     <text style="fill:#262626;font-family:DejaVu Sans;font-size:20px;font-style:normal;font-weight:normal;text-anchor:middle;" transform="rotate(-90, 38.825625, 152.064)" x="38.825625" y="152.064">counts</text>
    </g>
   </g>
   <g id="LineCollection_1">
    <path clip-path="url(#paf04b21fce)" d="M 101.76 264.867057 
L 101.76 261.719177 
" style="fill:none;stroke:#4169e1;stroke-width:3;"/>
    <path clip-path="url(#paf04b21fce)" d="M 120.96 68.005238 
L 120.96 50.553134 
" style="fill:none;stroke:#4169e1;stroke-width:3;"/>
    <path clip-path="url(#paf04b21fce)" d="M 140.16 269.695923 
L 140.16 268.445083 
" style="fill:none;stroke:#4169e1;stroke-width:3;"/>
    <path clip-path="url(#paf04b21fce)" d="M 159.36 267.071564 
L 159.36 264.569883 
" style="fill:none;stroke:#4169e1;stroke-width:3;"/>
    <path clip-path="url(#paf04b21fce)" d="M 178.56 269.695923 
L 178.56 268.445083 
" style="fill:none;stroke:#4169e1;stroke-width:3;"/>
    <path clip-path="url(#paf04b21fce)" d="M 197.76 260.641606 
L 197.76 256.556377 
" style="fill:none;stroke:#4169e1;stroke-width:3;"/>
    <path clip-path="url(#paf04b21fce)" d="M 216.96 269.942243 
L 216.96 268.920936 
" style="fill:none;stroke:#4169e1;stroke-width:3;"/>
    <path clip-path="url(#paf04b21fce)" d="M 236.16 268.581502 
L 236.16 266.670811 
" style="fill:none;stroke:#4169e1;stroke-width:3;"/>
    <path clip-path="url(#paf04b21fce)" d="M 255.36 260.312189 
L 255.36 256.16362 
" style="fill:none;stroke:#4169e1;stroke-width:3;"/>
    <path clip-path="url(#paf04b21fce)" d="M 274.56 270.153763 
L 274.56 270.153763 
" style="fill:none;stroke:#4169e1;stroke-width:3;"/>
    <path clip-path="url(#paf04b21fce)" d="M 293.76 256.66113 
L 293.76 251.870775 
" style="fill:none;stroke:#4169e1;stroke-width:3;"/>
    <path clip-path="url(#paf04b21fce)" d="M 312.96 269.695923 
L 312.96 268.445083 
" style="fill:none;stroke:#4169e1;stroke-width:3;"/>
    <path clip-path="url(#paf04b21fce)" d="M 332.16 269.695923 
L 332.16 268.445083 
" style="fill:none;stroke:#4169e1;stroke-width:3;"/>
    <path clip-path="url(#paf04b21fce)" d="M 351.36 270.153763 
L 351.36 269.43159 
" style="fill:none;stroke:#4169e1;stroke-width:3;"/>
    <path clip-path="url(#paf04b21fce)" d="M 370.56 270.153763 
L 370.56 270.153763 
" style="fill:none;stroke:#4169e1;stroke-width:3;"/>
    <path clip-path="url(#paf04b21fce)" d="M 389.76 269.695923 
L 389.76 268.445083 
" style="fill:none;stroke:#4169e1;stroke-width:3;"/>
    <path clip-path="url(#paf04b21fce)" d="M 408.96 270.153763 
L 408.96 270.153763 
" style="fill:none;stroke:#4169e1;stroke-width:3;"/>
    <path clip-path="url(#paf04b21fce)" d="M 428.16 270.153763 
L 428.16 269.43159 
" style="fill:none;stroke:#4169e1;stroke-width:3;"/>
   </g>
   <g id="line2d_9">
    <path clip-path="url(#paf04b21fce)" d="M 101.76 263.293117 
L 120.96 59.279186 
L 140.16 269.070503 
L 159.36 265.820723 
L 178.56 269.070503 
L 197.76 258.598991 
L 216.96 269.43159 
L 236.16 267.626156 
L 255.36 258.237905 
L 274.56 270.153763 
L 293.76 254.265952 
L 312.96 269.070503 
L 332.16 269.070503 
L 351.36 269.792676 
L 370.56 270.153763 
L 389.76 269.070503 
L 408.96 270.153763 
L 428.16 269.792676 
" style="fill:none;stroke:#4169e1;stroke-linecap:round;stroke-width:3;"/>
    <defs>
     <path d="M 0 3.25 
C 0.86191 3.25 1.688635 2.907559 2.298097 2.298097 
C 2.907559 1.688635 3.25 0.86191 3.25 0 
C 3.25 -0.86191 2.907559 -1.688635 2.298097 -2.298097 
C 1.688635 -2.907559 0.86191 -3.25 0 -3.25 
C -0.86191 -3.25 -1.688635 -2.907559 -2.298097 -2.298097 
C -2.907559 -1.688635 -3.25 -0.86191 -3.25 0 
C -3.25 0.86191 -2.907559 1.688635 -2.298097 2.298097 
C -1.688635 2.907559 -0.86191 3.25 0 3.25 
z
" id="m11ccdbc205" style="stroke:#4169e1;"/>
    </defs>
    <g clip-path="url(#paf04b21fce)">
     <use style="fill:#4169e1;stroke:#4169e1;" x="101.76" xlink:href="#m11ccdbc205" y="263.293117"/>
     <use style="fill:#4169e1;stroke:#4169e1;" x="120.96" xlink:href="#m11ccdbc205" y="59.279186"/>
     <use style="fill:#4169e1;stroke:#4169e1;" x="140.16" xlink:href="#m11ccdbc205" y="269.070503"/>
     <use style="fill:#4169e1;stroke:#4169e1;" x="159.36" xlink:href="#m11ccdbc205" y="265.820723"/>
     <use style="fill:#4169e1;stroke:#4169e1;" x="178.56" xlink:href="#m11ccdbc205" y="269.070503"/>
     <use style="fill:#4169e1;stroke:#4169e1;" x="197.76" xlink:href="#m11ccdbc205" y="258.598991"/>
     <use style="fill:#4169e1;stroke:#4169e1;" x="216.96" xlink:href="#m11ccdbc205" y="269.43159"/>
     <use style="fill:#4169e1;stroke:#4169e1;" x="236.16" xlink:href="#m11ccdbc205" y="267.626156"/>
     <use style="fill:#4169e1;stroke:#4169e1;" x="255.36" xlink:href="#m11ccdbc205" y="258.237905"/>
     <use style="fill:#4169e1;stroke:#4169e1;" x="274.56" xlink:href="#m11ccdbc205" y="270.153763"/>
     <use style="fill:#4169e1;stroke:#4169e1;" x="293.76" xlink:href="#m11ccdbc205" y="254.265952"/>
     <use style="fill:#4169e1;stroke:#4169e1;" x="312.96" xlink:href="#m11ccdbc205" y="269.070503"/>
     <use style="fill:#4169e1;stroke:#4169e1;" x="332.16" xlink:href="#m11ccdbc205" y="269.070503"/>
     <use style="fill:#4169e1;stroke:#4169e1;" x="351.36" xlink:href="#m11ccdbc205" y="269.792676"/>
     <use style="fill:#4169e1;stroke:#4169e1;" x="370.56" xlink:href="#m11ccdbc205" y="270.153763"/>
     <use style="fill:#4169e1;stroke:#4169e1;" x="389.76" xlink:href="#m11ccdbc205" y="269.070503"/>
     <use style="fill:#4169e1;stroke:#4169e1;" x="408.96" xlink:href="#m11ccdbc205" y="270.153763"/>
     <use style="fill:#4169e1;stroke:#4169e1;" x="428.16" xlink:href="#m11ccdbc205" y="269.792676"/>
    </g>
   </g>
   <g id="patch_3">
    <path d="M 92.16 276.48 
L 92.16 27.648 
" style="fill:none;stroke:#262626;stroke-linecap:square;stroke-linejoin:miter;stroke-width:0.8;"/>
   </g>
   <g id="patch_4">
    <path d="M 92.16 276.48 
L 437.76 276.48 
" style="fill:none;stroke:#262626;stroke-linecap:square;stroke-linejoin:miter;stroke-width:0.8;"/>
   </g>
   <g id="text_11">
    <text style="fill:#262626;font-family:DejaVu Sans;font-size:20px;font-style:normal;font-weight:bold;text-anchor:middle;" transform="rotate(-0, 264.96, 21.648)" x="264.96" y="21.648">IGHJ2*01</text>
   </g>
  </g>
 </g>
 <defs>
  <clipPath id="paf04b21fce">
   <rect height="248.832" width="345.6" x="92.16" y="27.648"/>
  </clipPath>
 </defs>
</svg>
