<?xml version="1.0" encoding="utf-8" standalone="no"?>
<!DOCTYPE svg PUBLIC "-//W3C//DTD SVG 1.1//EN"
  "http://www.w3.org/Graphics/SVG/1.1/DTD/svg11.dtd">
<!-- Created with matplotlib (http://matplotlib.org/) -->
<svg height="345.6pt" version="1.1" viewBox="0 0 460.8 345.6" width="460.8pt" xmlns="http://www.w3.org/2000/svg" xmlns:xlink="http://www.w3.org/1999/xlink">
 <defs>
  <style type="text/css">
*{stroke-linecap:butt;stroke-linejoin:round;}
  </style>
 </defs>
 <g id="figure_1">
  <g id="patch_1">
   <path d="M 0 345.6 
L 460.8 345.6 
L 460.8 0 
L 0 0 
z
" style="fill:#ffffff;"/>
  </g>
  <g id="axes_1">
   <g id="patch_2">
    <path d="M 92.16 276.48 
L 437.76 276.48 
L 437.76 27.648 
L 92.16 27.648 
z
" style="fill:#ffffff;"/>
   </g>
   <g id="matplotlib.axis_1">
    <g id="xtick_1">
     <g id="line2d_1">
      <defs>
       <path d="M 0 0 
L 0 3.5 
" id="mf684beeb51" style="stroke:#262626;stroke-width:0.8;"/>
      </defs>
      <g>
       <use style="fill:#262626;stroke:#262626;stroke-width:0.8;" x="100.8" xlink:href="#mf684beeb51" y="276.48"/>
      </g>
     </g>
     <g id="text_1">
      <text style="fill:#262626;font-family:DejaVu Sans;font-size:20px;font-style:normal;font-weight:normal;text-anchor:middle;" transform="rotate(-0, 100.8, 298.676875)" x="100.8" y="298.676875">0</text>
     </g>
    </g>
    <g id="xtick_2">
     <g id="line2d_2">
      <g>
       <use style="fill:#262626;stroke:#262626;stroke-width:0.8;" x="187.2" xlink:href="#mf684beeb51" y="276.48"/>
      </g>
     </g>
     <g id="text_2">
      <text style="fill:#262626;font-family:DejaVu Sans;font-size:20px;font-style:normal;font-weight:normal;text-anchor:middle;" transform="rotate(-0, 187.2, 298.676875)" x="187.2" y="298.676875">5</text>
     </g>
    </g>
    <g id="xtick_3">
     <g id="line2d_3">
      <g>
       <use style="fill:#262626;stroke:#262626;stroke-width:0.8;" x="273.6" xlink:href="#mf684beeb51" y="276.48"/>
      </g>
     </g>
     <g id="text_3">
      <text style="fill:#262626;font-family:DejaVu Sans;font-size:20px;font-style:normal;font-weight:normal;text-anchor:middle;" transform="rotate(-0, 273.6, 298.676875)" x="273.6" y="298.676875">10</text>
     </g>
    </g>
    <g id="xtick_4">
     <g id="line2d_4">
      <g>
       <use style="fill:#262626;stroke:#262626;stroke-width:0.8;" x="360" xlink:href="#mf684beeb51" y="276.48"/>
      </g>
     </g>
     <g id="text_4">
      <text style="fill:#262626;font-family:DejaVu Sans;font-size:20px;font-style:normal;font-weight:normal;text-anchor:middle;" transform="rotate(-0, 360, 298.676875)" x="360" y="298.676875">15</text>
     </g>
    </g>
    <g id="text_5">
     <text style="fill:#262626;font-family:DejaVu Sans;font-size:20px;font-style:normal;font-weight:normal;text-anchor:middle;" transform="rotate(-0, 264.96, 322.033125)" x="264.96" y="322.033125">J 5' deletion</text>
    </g>
   </g>
   <g id="matplotlib.axis_2">
    <g id="ytick_1">
     <g id="line2d_5">
      <defs>
       <path d="M 0 0 
L -3.5 0 
" id="m381ac23e0c" style="stroke:#262626;stroke-width:0.8;"/>
      </defs>
      <g>
       <use style="fill:#262626;stroke:#262626;stroke-width:0.8;" x="92.16" xlink:href="#m381ac23e0c" y="270.153763"/>
      </g>
     </g>
     <g id="text_6">
      <text style="fill:#262626;font-family:DejaVu Sans;font-size:20px;font-style:normal;font-weight:normal;text-anchor:end;" transform="rotate(-0, 85.16, 277.7522)" x="85.16" y="277.7522">0</text>
     </g>
    </g>
    <g id="ytick_2">
     <g id="line2d_6">
      <g>
       <use style="fill:#262626;stroke:#262626;stroke-width:0.8;" x="92.16" xlink:href="#m381ac23e0c" y="226.941759"/>
      </g>
     </g>
     <g id="text_7">
      <text style="fill:#262626;font-family:DejaVu Sans;font-size:20px;font-style:normal;font-weight:normal;text-anchor:end;" transform="rotate(-0, 85.16, 234.540197)" x="85.16" y="234.540197">25</text>
     </g>
    </g>
    <g id="ytick_3">
     <g id="line2d_7">
      <g>
       <use style="fill:#262626;stroke:#262626;stroke-width:0.8;" x="92.16" xlink:href="#m381ac23e0c" y="183.729756"/>
      </g>
     </g>
     <g id="text_8">
      <text style="fill:#262626;font-family:DejaVu Sans;font-size:20px;font-style:normal;font-weight:normal;text-anchor:end;" transform="rotate(-0, 85.16, 191.328194)" x="85.16" y="191.328194">50</text>
     </g>
    </g>
    <g id="ytick_4">
     <g id="line2d_8">
      <g>
       <use style="fill:#262626;stroke:#262626;stroke-width:0.8;" x="92.16" xlink:href="#m381ac23e0c" y="140.517753"/>
      </g>
     </g>
     <g id="text_9">
      <text style="fill:#262626;font-family:DejaVu Sans;font-size:20px;font-style:normal;font-weight:normal;text-anchor:end;" transform="rotate(-0, 85.16, 148.11619)" x="85.16" y="148.11619">75</text>
     </g>
    </g>
    <g id="ytick_5">
     <g id="line2d_9">
      <g>
       <use style="fill:#262626;stroke:#262626;stroke-width:0.8;" x="92.16" xlink:href="#m381ac23e0c" y="97.305749"/>
      </g>
     </g>
     <g id="text_10">
      <text style="fill:#262626;font-family:DejaVu Sans;font-size:20px;font-style:normal;font-weight:normal;text-anchor:end;" transform="rotate(-0, 85.16, 104.904187)" x="85.16" y="104.904187">100</text>
     </g>
    </g>
    <g id="ytick_6">
     <g id="line2d_10">
      <g>
       <use style="fill:#262626;stroke:#262626;stroke-width:0.8;" x="92.16" xlink:href="#m381ac23e0c" y="54.093746"/>
      </g>
     </g>
     <g id="text_11">
      <text style="fill:#262626;font-family:DejaVu Sans;font-size:20px;font-style:normal;font-weight:normal;text-anchor:end;" transform="rotate(-0, 85.16, 61.692184)" x="85.16" y="61.692184">125</text>
     </g>
    </g>
    <g id="text_12">
     <text style="fill:#262626;font-family:DejaVu Sans;font-size:20px;font-style:normal;font-weight:normal;text-anchor:middle;" transform="rotate(-90, 38.825625, 152.064)" x="38.825625" y="152.064">counts</text>
    </g>
   </g>
   <g id="LineCollection_1">
    <path clip-path="url(#pb97df50983)" d="M 100.8 269.141242 
L 100.8 264.252362 
" style="fill:none;stroke:#4169e1;stroke-width:3;"/>
    <path clip-path="url(#pb97df50983)" d="M 118.08 266.696802 
L 118.08 259.782882 
" style="fill:none;stroke:#4169e1;stroke-width:3;"/>
    <path clip-path="url(#pb97df50983)" d="M 135.36 78.370874 
L 135.36 40.187499 
" style="fill:none;stroke:#4169e1;stroke-width:3;"/>
    <path clip-path="url(#pb97df50983)" d="M 152.64 243.314158 
L 152.64 227.854162 
" style="fill:none;stroke:#4169e1;stroke-width:3;"/>
    <path clip-path="url(#pb97df50983)" d="M 169.92 258.334895 
L 169.92 247.403027 
" style="fill:none;stroke:#4169e1;stroke-width:3;"/>
    <path clip-path="url(#pb97df50983)" d="M 187.2 270.153763 
L 187.2 270.153763 
" style="fill:none;stroke:#4169e1;stroke-width:3;"/>
    <path clip-path="url(#pb97df50983)" d="M 204.48 270.153763 
L 204.48 270.153763 
" style="fill:none;stroke:#4169e1;stroke-width:3;"/>
    <path clip-path="url(#pb97df50983)" d="M 221.76 270.153763 
L 221.76 270.153763 
" style="fill:none;stroke:#4169e1;stroke-width:3;"/>
    <path clip-path="url(#pb97df50983)" d="M 239.04 270.153763 
L 239.04 270.153763 
" style="fill:none;stroke:#4169e1;stroke-width:3;"/>
    <path clip-path="url(#pb97df50983)" d="M 256.32 270.153763 
L 256.32 270.153763 
" style="fill:none;stroke:#4169e1;stroke-width:3;"/>
    <path clip-path="url(#pb97df50983)" d="M 273.6 270.153763 
L 273.6 270.153763 
" style="fill:none;stroke:#4169e1;stroke-width:3;"/>
    <path clip-path="url(#pb97df50983)" d="M 290.88 270.153763 
L 290.88 270.153763 
" style="fill:none;stroke:#4169e1;stroke-width:3;"/>
    <path clip-path="url(#pb97df50983)" d="M 308.16 270.153763 
L 308.16 270.153763 
" style="fill:none;stroke:#4169e1;stroke-width:3;"/>
    <path clip-path="url(#pb97df50983)" d="M 325.44 270.153763 
L 325.44 270.153763 
" style="fill:none;stroke:#4169e1;stroke-width:3;"/>
    <path clip-path="url(#pb97df50983)" d="M 342.72 270.153763 
L 342.72 270.153763 
" style="fill:none;stroke:#4169e1;stroke-width:3;"/>
    <path clip-path="url(#pb97df50983)" d="M 360 270.153763 
L 360 270.153763 
" style="fill:none;stroke:#4169e1;stroke-width:3;"/>
    <path clip-path="url(#pb97df50983)" d="M 377.28 270.153763 
L 377.28 270.153763 
" style="fill:none;stroke:#4169e1;stroke-width:3;"/>
    <path clip-path="url(#pb97df50983)" d="M 394.56 270.153763 
L 394.56 270.153763 
" style="fill:none;stroke:#4169e1;stroke-width:3;"/>
    <path clip-path="url(#pb97df50983)" d="M 411.84 270.153763 
L 411.84 270.153763 
" style="fill:none;stroke:#4169e1;stroke-width:3;"/>
    <path clip-path="url(#pb97df50983)" d="M 429.12 270.153763 
L 429.12 266.696802 
" style="fill:none;stroke:#4169e1;stroke-width:3;"/>
   </g>
   <g id="line2d_11">
    <path clip-path="url(#pb97df50983)" d="M 100.8 266.696802 
L 118.08 263.239842 
L 135.36 59.279186 
L 152.64 235.58416 
L 169.92 252.868961 
L 187.2 270.153763 
L 204.48 270.153763 
L 221.76 270.153763 
L 239.04 270.153763 
L 256.32 270.153763 
L 273.6 270.153763 
L 290.88 270.153763 
L 308.16 270.153763 
L 325.44 270.153763 
L 342.72 270.153763 
L 360 270.153763 
L 377.28 270.153763 
L 394.56 270.153763 
L 411.84 270.153763 
L 429.12 268.425283 
" style="fill:none;stroke:#4169e1;stroke-linecap:round;stroke-width:3;"/>
    <defs>
     <path d="M 0 3.25 
C 0.86191 3.25 1.688635 2.907559 2.298097 2.298097 
C 2.907559 1.688635 3.25 0.86191 3.25 0 
C 3.25 -0.86191 2.907559 -1.688635 2.298097 -2.298097 
C 1.688635 -2.907559 0.86191 -3.25 0 -3.25 
C -0.86191 -3.25 -1.688635 -2.907559 -2.298097 -2.298097 
C -2.907559 -1.688635 -3.25 -0.86191 -3.25 0 
C -3.25 0.86191 -2.907559 1.688635 -2.298097 2.298097 
C -1.688635 2.907559 -0.86191 3.25 0 3.25 
z
" id="me032d18440" style="stroke:#4169e1;"/>
    </defs>
    <g clip-path="url(#pb97df50983)">
     <use style="fill:#4169e1;stroke:#4169e1;" x="100.8" xlink:href="#me032d18440" y="266.696802"/>
     <use style="fill:#4169e1;stroke:#4169e1;" x="118.08" xlink:href="#me032d18440" y="263.239842"/>
     <use style="fill:#4169e1;stroke:#4169e1;" x="135.36" xlink:href="#me032d18440" y="59.279186"/>
     <use style="fill:#4169e1;stroke:#4169e1;" x="152.64" xlink:href="#me032d18440" y="235.58416"/>
     <use style="fill:#4169e1;stroke:#4169e1;" x="169.92" xlink:href="#me032d18440" y="252.868961"/>
     <use style="fill:#4169e1;stroke:#4169e1;" x="187.2" xlink:href="#me032d18440" y="270.153763"/>
     <use style="fill:#4169e1;stroke:#4169e1;" x="204.48" xlink:href="#me032d18440" y="270.153763"/>
     <use style="fill:#4169e1;stroke:#4169e1;" x="221.76" xlink:href="#me032d18440" y="270.153763"/>
     <use style="fill:#4169e1;stroke:#4169e1;" x="239.04" xlink:href="#me032d18440" y="270.153763"/>
     <use style="fill:#4169e1;stroke:#4169e1;" x="256.32" xlink:href="#me032d18440" y="270.153763"/>
     <use style="fill:#4169e1;stroke:#4169e1;" x="273.6" xlink:href="#me032d18440" y="270.153763"/>
     <use style="fill:#4169e1;stroke:#4169e1;" x="290.88" xlink:href="#me032d18440" y="270.153763"/>
     <use style="fill:#4169e1;stroke:#4169e1;" x="308.16" xlink:href="#me032d18440" y="270.153763"/>
     <use style="fill:#4169e1;stroke:#4169e1;" x="325.44" xlink:href="#me032d18440" y="270.153763"/>
     <use style="fill:#4169e1;stroke:#4169e1;" x="342.72" xlink:href="#me032d18440" y="270.153763"/>
     <use style="fill:#4169e1;stroke:#4169e1;" x="360" xlink:href="#me032d18440" y="270.153763"/>
     <use style="fill:#4169e1;stroke:#4169e1;" x="377.28" xlink:href="#me032d18440" y="270.153763"/>
     <use style="fill:#4169e1;stroke:#4169e1;" x="394.56" xlink:href="#me032d18440" y="270.153763"/>
     <use style="fill:#4169e1;stroke:#4169e1;" x="411.84" xlink:href="#me032d18440" y="270.153763"/>
     <use style="fill:#4169e1;stroke:#4169e1;" x="429.12" xlink:href="#me032d18440" y="268.425283"/>
    </g>
   </g>
   <g id="patch_3">
    <path d="M 92.16 276.48 
L 92.16 27.648 
" style="fill:none;stroke:#262626;stroke-linecap:square;stroke-linejoin:miter;stroke-width:0.8;"/>
   </g>
   <g id="patch_4">
    <path d="M 92.16 276.48 
L 437.76 276.48 
" style="fill:none;stroke:#262626;stroke-linecap:square;stroke-linejoin:miter;stroke-width:0.8;"/>
   </g>
   <g id="text_13">
    <text style="fill:#262626;font-family:DejaVu Sans;font-size:20px;font-style:normal;font-weight:bold;text-anchor:middle;" transform="rotate(-0, 264.96, 21.648)" x="264.96" y="21.648">IGHJ6*02</text>
   </g>
  </g>
 </g>
 <defs>
  <clipPath id="pb97df50983">
   <rect height="248.832" width="345.6" x="92.16" y="27.648"/>
  </clipPath>
 </defs>
</svg>
