<?xml version="1.0" encoding="utf-8" standalone="no"?>
<!DOCTYPE svg PUBLIC "-//W3C//DTD SVG 1.1//EN"
  "http://www.w3.org/Graphics/SVG/1.1/DTD/svg11.dtd">
<!-- Created with matplotlib (http://matplotlib.org/) -->
<svg height="345.6pt" version="1.1" viewBox="0 0 460.8 345.6" width="460.8pt" xmlns="http://www.w3.org/2000/svg" xmlns:xlink="http://www.w3.org/1999/xlink">
 <defs>
  <style type="text/css">
*{stroke-linecap:butt;stroke-linejoin:round;}
  </style>
 </defs>
 <g id="figure_1">
  <g id="patch_1">
   <path d="M 0 345.6 
L 460.8 345.6 
L 460.8 0 
L 0 0 
z
" style="fill:#ffffff;"/>
  </g>
  <g id="axes_1">
   <g id="patch_2">
    <path d="M 92.16 276.48 
L 437.76 276.48 
L 437.76 27.648 
L 92.16 27.648 
z
" style="fill:#ffffff;"/>
   </g>
   <g id="matplotlib.axis_1">
    <g id="xtick_1">
     <g id="line2d_1">
      <defs>
       <path d="M 0 0 
L 0 3.5 
" id="mfa104b8c1e" style="stroke:#262626;stroke-width:0.8;"/>
      </defs>
      <g>
       <use style="fill:#262626;stroke:#262626;stroke-width:0.8;" x="103.68" xlink:href="#mfa104b8c1e" y="276.48"/>
      </g>
     </g>
     <g id="text_1">
      <text style="fill:#262626;font-family:DejaVu Sans;font-size:20px;font-style:normal;font-weight:normal;text-anchor:middle;" transform="rotate(-0, 103.68, 298.676875)" x="103.68" y="298.676875">0</text>
     </g>
    </g>
    <g id="xtick_2">
     <g id="line2d_2">
      <g>
       <use style="fill:#262626;stroke:#262626;stroke-width:0.8;" x="218.88" xlink:href="#mfa104b8c1e" y="276.48"/>
      </g>
     </g>
     <g id="text_2">
      <text style="fill:#262626;font-family:DejaVu Sans;font-size:20px;font-style:normal;font-weight:normal;text-anchor:middle;" transform="rotate(-0, 218.88, 298.676875)" x="218.88" y="298.676875">5</text>
     </g>
    </g>
    <g id="xtick_3">
     <g id="line2d_3">
      <g>
       <use style="fill:#262626;stroke:#262626;stroke-width:0.8;" x="334.08" xlink:href="#mfa104b8c1e" y="276.48"/>
      </g>
     </g>
     <g id="text_3">
      <text style="fill:#262626;font-family:DejaVu Sans;font-size:20px;font-style:normal;font-weight:normal;text-anchor:middle;" transform="rotate(-0, 334.08, 298.676875)" x="334.08" y="298.676875">10</text>
     </g>
    </g>
    <g id="text_4">
     <text style="fill:#262626;font-family:DejaVu Sans;font-size:20px;font-style:normal;font-weight:normal;text-anchor:middle;" transform="rotate(-0, 264.96, 322.033125)" x="264.96" y="322.033125">J 5' deletion</text>
    </g>
   </g>
   <g id="matplotlib.axis_2">
    <g id="ytick_1">
     <g id="line2d_4">
      <defs>
       <path d="M 0 0 
L -3.5 0 
" id="ma057ee17fa" style="stroke:#262626;stroke-width:0.8;"/>
      </defs>
      <g>
       <use style="fill:#262626;stroke:#262626;stroke-width:0.8;" x="92.16" xlink:href="#ma057ee17fa" y="270.153763"/>
      </g>
     </g>
     <g id="text_5">
      <text style="fill:#262626;font-family:DejaVu Sans;font-size:20px;font-style:normal;font-weight:normal;text-anchor:end;" transform="rotate(-0, 85.16, 277.7522)" x="85.16" y="277.7522">0</text>
     </g>
    </g>
    <g id="ytick_2">
     <g id="line2d_5">
      <g>
       <use style="fill:#262626;stroke:#262626;stroke-width:0.8;" x="92.16" xlink:href="#ma057ee17fa" y="205.862733"/>
      </g>
     </g>
     <g id="text_6">
      <text style="fill:#262626;font-family:DejaVu Sans;font-size:20px;font-style:normal;font-weight:normal;text-anchor:end;" transform="rotate(-0, 85.16, 213.461171)" x="85.16" y="213.461171">50</text>
     </g>
    </g>
    <g id="ytick_3">
     <g id="line2d_6">
      <g>
       <use style="fill:#262626;stroke:#262626;stroke-width:0.8;" x="92.16" xlink:href="#ma057ee17fa" y="141.571704"/>
      </g>
     </g>
     <g id="text_7">
      <text style="fill:#262626;font-family:DejaVu Sans;font-size:20px;font-style:normal;font-weight:normal;text-anchor:end;" transform="rotate(-0, 85.16, 149.170142)" x="85.16" y="149.170142">100</text>
     </g>
    </g>
    <g id="ytick_4">
     <g id="line2d_7">
      <g>
       <use style="fill:#262626;stroke:#262626;stroke-width:0.8;" x="92.16" xlink:href="#ma057ee17fa" y="77.280675"/>
      </g>
     </g>
     <g id="text_8">
      <text style="fill:#262626;font-family:DejaVu Sans;font-size:20px;font-style:normal;font-weight:normal;text-anchor:end;" transform="rotate(-0, 85.16, 84.879112)" x="85.16" y="84.879112">150</text>
     </g>
    </g>
    <g id="text_9">
     <text style="fill:#262626;font-family:DejaVu Sans;font-size:20px;font-style:normal;font-weight:normal;text-anchor:middle;" transform="rotate(-90, 38.825625, 152.064)" x="38.825625" y="152.064">counts</text>
    </g>
   </g>
   <g id="LineCollection_1">
    <path clip-path="url(#pfb55f191f9)" d="M 103.68 266.599842 
L 103.68 260.849478 
" style="fill:none;stroke:#4169e1;stroke-width:3;"/>
    <path clip-path="url(#pfb55f191f9)" d="M 126.72 75.745724 
L 126.72 42.812649 
" style="fill:none;stroke:#4169e1;stroke-width:3;"/>
    <path clip-path="url(#pfb55f191f9)" d="M 149.76 261.361679 
L 149.76 253.229435 
" style="fill:none;stroke:#4169e1;stroke-width:3;"/>
    <path clip-path="url(#pfb55f191f9)" d="M 172.8 268.523408 
L 172.8 264.069194 
" style="fill:none;stroke:#4169e1;stroke-width:3;"/>
    <path clip-path="url(#pfb55f191f9)" d="M 195.84 269.400546 
L 195.84 265.763697 
" style="fill:none;stroke:#4169e1;stroke-width:3;"/>
    <path clip-path="url(#pfb55f191f9)" d="M 218.88 268.523408 
L 218.88 264.069194 
" style="fill:none;stroke:#4169e1;stroke-width:3;"/>
    <path clip-path="url(#pfb55f191f9)" d="M 241.92 270.153763 
L 241.92 270.153763 
" style="fill:none;stroke:#4169e1;stroke-width:3;"/>
    <path clip-path="url(#pfb55f191f9)" d="M 264.96 270.153763 
L 264.96 270.153763 
" style="fill:none;stroke:#4169e1;stroke-width:3;"/>
    <path clip-path="url(#pfb55f191f9)" d="M 288 270.153763 
L 288 270.153763 
" style="fill:none;stroke:#4169e1;stroke-width:3;"/>
    <path clip-path="url(#pfb55f191f9)" d="M 311.04 269.400546 
L 311.04 265.763697 
" style="fill:none;stroke:#4169e1;stroke-width:3;"/>
    <path clip-path="url(#pfb55f191f9)" d="M 334.08 270.153763 
L 334.08 270.153763 
" style="fill:none;stroke:#4169e1;stroke-width:3;"/>
    <path clip-path="url(#pfb55f191f9)" d="M 357.12 270.153763 
L 357.12 270.153763 
" style="fill:none;stroke:#4169e1;stroke-width:3;"/>
    <path clip-path="url(#pfb55f191f9)" d="M 380.16 270.153763 
L 380.16 270.153763 
" style="fill:none;stroke:#4169e1;stroke-width:3;"/>
    <path clip-path="url(#pfb55f191f9)" d="M 403.2 269.400546 
L 403.2 265.763697 
" style="fill:none;stroke:#4169e1;stroke-width:3;"/>
    <path clip-path="url(#pfb55f191f9)" d="M 426.24 269.400546 
L 426.24 265.763697 
" style="fill:none;stroke:#4169e1;stroke-width:3;"/>
   </g>
   <g id="line2d_8">
    <path clip-path="url(#pfb55f191f9)" d="M 103.68 263.72466 
L 126.72 59.279186 
L 149.76 257.295557 
L 172.8 266.296301 
L 195.84 267.582122 
L 218.88 266.296301 
L 241.92 270.153763 
L 264.96 270.153763 
L 288 270.153763 
L 311.04 267.582122 
L 334.08 270.153763 
L 357.12 270.153763 
L 380.16 270.153763 
L 403.2 267.582122 
L 426.24 267.582122 
" style="fill:none;stroke:#4169e1;stroke-linecap:round;stroke-width:3;"/>
    <defs>
     <path d="M 0 3.25 
C 0.86191 3.25 1.688635 2.907559 2.298097 2.298097 
C 2.907559 1.688635 3.25 0.86191 3.25 0 
C 3.25 -0.86191 2.907559 -1.688635 2.298097 -2.298097 
C 1.688635 -2.907559 0.86191 -3.25 0 -3.25 
C -0.86191 -3.25 -1.688635 -2.907559 -2.298097 -2.298097 
C -2.907559 -1.688635 -3.25 -0.86191 -3.25 0 
C -3.25 0.86191 -2.907559 1.688635 -2.298097 2.298097 
C -1.688635 2.907559 -0.86191 3.25 0 3.25 
z
" id="m9fc45b16e5" style="stroke:#4169e1;"/>
    </defs>
    <g clip-path="url(#pfb55f191f9)">
     <use style="fill:#4169e1;stroke:#4169e1;" x="103.68" xlink:href="#m9fc45b16e5" y="263.72466"/>
     <use style="fill:#4169e1;stroke:#4169e1;" x="126.72" xlink:href="#m9fc45b16e5" y="59.279186"/>
     <use style="fill:#4169e1;stroke:#4169e1;" x="149.76" xlink:href="#m9fc45b16e5" y="257.295557"/>
     <use style="fill:#4169e1;stroke:#4169e1;" x="172.8" xlink:href="#m9fc45b16e5" y="266.296301"/>
     <use style="fill:#4169e1;stroke:#4169e1;" x="195.84" xlink:href="#m9fc45b16e5" y="267.582122"/>
     <use style="fill:#4169e1;stroke:#4169e1;" x="218.88" xlink:href="#m9fc45b16e5" y="266.296301"/>
     <use style="fill:#4169e1;stroke:#4169e1;" x="241.92" xlink:href="#m9fc45b16e5" y="270.153763"/>
     <use style="fill:#4169e1;stroke:#4169e1;" x="264.96" xlink:href="#m9fc45b16e5" y="270.153763"/>
     <use style="fill:#4169e1;stroke:#4169e1;" x="288" xlink:href="#m9fc45b16e5" y="270.153763"/>
     <use style="fill:#4169e1;stroke:#4169e1;" x="311.04" xlink:href="#m9fc45b16e5" y="267.582122"/>
     <use style="fill:#4169e1;stroke:#4169e1;" x="334.08" xlink:href="#m9fc45b16e5" y="270.153763"/>
     <use style="fill:#4169e1;stroke:#4169e1;" x="357.12" xlink:href="#m9fc45b16e5" y="270.153763"/>
     <use style="fill:#4169e1;stroke:#4169e1;" x="380.16" xlink:href="#m9fc45b16e5" y="270.153763"/>
     <use style="fill:#4169e1;stroke:#4169e1;" x="403.2" xlink:href="#m9fc45b16e5" y="267.582122"/>
     <use style="fill:#4169e1;stroke:#4169e1;" x="426.24" xlink:href="#m9fc45b16e5" y="267.582122"/>
    </g>
   </g>
   <g id="patch_3">
    <path d="M 92.16 276.48 
L 92.16 27.648 
" style="fill:none;stroke:#262626;stroke-linecap:square;stroke-linejoin:miter;stroke-width:0.8;"/>
   </g>
   <g id="patch_4">
    <path d="M 92.16 276.48 
L 437.76 276.48 
" style="fill:none;stroke:#262626;stroke-linecap:square;stroke-linejoin:miter;stroke-width:0.8;"/>
   </g>
   <g id="text_10">
    <text style="fill:#262626;font-family:DejaVu Sans;font-size:20px;font-style:normal;font-weight:bold;text-anchor:middle;" transform="rotate(-0, 264.96, 21.648)" x="264.96" y="21.648">IGHJ3*01</text>
   </g>
  </g>
 </g>
 <defs>
  <clipPath id="pfb55f191f9">
   <rect height="248.832" width="345.6" x="92.16" y="27.648"/>
  </clipPath>
 </defs>
</svg>
