<?xml version="1.0" encoding="utf-8" standalone="no"?>
<!DOCTYPE svg PUBLIC "-//W3C//DTD SVG 1.1//EN"
  "http://www.w3.org/Graphics/SVG/1.1/DTD/svg11.dtd">
<!-- Created with matplotlib (http://matplotlib.org/) -->
<svg height="345.6pt" version="1.1" viewBox="0 0 460.8 345.6" width="460.8pt" xmlns="http://www.w3.org/2000/svg" xmlns:xlink="http://www.w3.org/1999/xlink">
 <defs>
  <style type="text/css">
*{stroke-linecap:butt;stroke-linejoin:round;}
  </style>
 </defs>
 <g id="figure_1">
  <g id="patch_1">
   <path d="M 0 345.6 
L 460.8 345.6 
L 460.8 0 
L 0 0 
z
" style="fill:#ffffff;"/>
  </g>
  <g id="axes_1">
   <g id="patch_2">
    <path d="M 92.16 276.48 
L 437.76 276.48 
L 437.76 27.648 
L 92.16 27.648 
z
" style="fill:#ffffff;"/>
   </g>
   <g id="matplotlib.axis_1">
    <g id="xtick_1">
     <g id="line2d_1">
      <defs>
       <path d="M 0 0 
L 0 3.5 
" id="m9146b64aab" style="stroke:#262626;stroke-width:0.8;"/>
      </defs>
      <g>
       <use style="fill:#262626;stroke:#262626;stroke-width:0.8;" x="105.452308" xlink:href="#m9146b64aab" y="276.48"/>
      </g>
     </g>
     <g id="text_1">
      <text style="fill:#262626;font-family:DejaVu Sans;font-size:20px;font-style:normal;font-weight:normal;text-anchor:middle;" transform="rotate(-0, 105.452308, 298.676875)" x="105.452308" y="298.676875">0</text>
     </g>
    </g>
    <g id="xtick_2">
     <g id="line2d_2">
      <g>
       <use style="fill:#262626;stroke:#262626;stroke-width:0.8;" x="238.375385" xlink:href="#m9146b64aab" y="276.48"/>
      </g>
     </g>
     <g id="text_2">
      <text style="fill:#262626;font-family:DejaVu Sans;font-size:20px;font-style:normal;font-weight:normal;text-anchor:middle;" transform="rotate(-0, 238.375385, 298.676875)" x="238.375385" y="298.676875">5</text>
     </g>
    </g>
    <g id="xtick_3">
     <g id="line2d_3">
      <g>
       <use style="fill:#262626;stroke:#262626;stroke-width:0.8;" x="371.298462" xlink:href="#m9146b64aab" y="276.48"/>
      </g>
     </g>
     <g id="text_3">
      <text style="fill:#262626;font-family:DejaVu Sans;font-size:20px;font-style:normal;font-weight:normal;text-anchor:middle;" transform="rotate(-0, 371.298462, 298.676875)" x="371.298462" y="298.676875">10</text>
     </g>
    </g>
    <g id="text_4">
     <text style="fill:#262626;font-family:DejaVu Sans;font-size:20px;font-style:normal;font-weight:normal;text-anchor:middle;" transform="rotate(-0, 264.96, 322.033125)" x="264.96" y="322.033125">bases</text>
    </g>
   </g>
   <g id="matplotlib.axis_2">
    <g id="ytick_1">
     <g id="line2d_4">
      <defs>
       <path d="M 0 0 
L -3.5 0 
" id="md4ef1a7d81" style="stroke:#262626;stroke-width:0.8;"/>
      </defs>
      <g>
       <use style="fill:#262626;stroke:#262626;stroke-width:0.8;" x="92.16" xlink:href="#md4ef1a7d81" y="270.153763"/>
      </g>
     </g>
     <g id="text_5">
      <text style="fill:#262626;font-family:DejaVu Sans;font-size:20px;font-style:normal;font-weight:normal;text-anchor:end;" transform="rotate(-0, 85.16, 277.7522)" x="85.16" y="277.7522">0.0</text>
     </g>
    </g>
    <g id="ytick_2">
     <g id="line2d_5">
      <g>
       <use style="fill:#262626;stroke:#262626;stroke-width:0.8;" x="92.16" xlink:href="#md4ef1a7d81" y="220.06479"/>
      </g>
     </g>
     <g id="text_6">
      <text style="fill:#262626;font-family:DejaVu Sans;font-size:20px;font-style:normal;font-weight:normal;text-anchor:end;" transform="rotate(-0, 85.16, 227.663227)" x="85.16" y="227.663227">0.2</text>
     </g>
    </g>
    <g id="ytick_3">
     <g id="line2d_6">
      <g>
       <use style="fill:#262626;stroke:#262626;stroke-width:0.8;" x="92.16" xlink:href="#md4ef1a7d81" y="169.975817"/>
      </g>
     </g>
     <g id="text_7">
      <text style="fill:#262626;font-family:DejaVu Sans;font-size:20px;font-style:normal;font-weight:normal;text-anchor:end;" transform="rotate(-0, 85.16, 177.574254)" x="85.16" y="177.574254">0.4</text>
     </g>
    </g>
    <g id="ytick_4">
     <g id="line2d_7">
      <g>
       <use style="fill:#262626;stroke:#262626;stroke-width:0.8;" x="92.16" xlink:href="#md4ef1a7d81" y="119.886844"/>
      </g>
     </g>
     <g id="text_8">
      <text style="fill:#262626;font-family:DejaVu Sans;font-size:20px;font-style:normal;font-weight:normal;text-anchor:end;" transform="rotate(-0, 85.16, 127.485281)" x="85.16" y="127.485281">0.6</text>
     </g>
    </g>
    <g id="ytick_5">
     <g id="line2d_8">
      <g>
       <use style="fill:#262626;stroke:#262626;stroke-width:0.8;" x="92.16" xlink:href="#md4ef1a7d81" y="69.797871"/>
      </g>
     </g>
     <g id="text_9">
      <text style="fill:#262626;font-family:DejaVu Sans;font-size:20px;font-style:normal;font-weight:normal;text-anchor:end;" transform="rotate(-0, 85.16, 77.396308)" x="85.16" y="77.396308">0.8</text>
     </g>
    </g>
    <g id="text_10">
     <text style="fill:#262626;font-family:DejaVu Sans;font-size:20px;font-style:normal;font-weight:normal;text-anchor:middle;" transform="rotate(-90, 45.194375, 152.064)" x="45.194375" y="152.064">freq (3000 total)</text>
    </g>
   </g>
   <g id="LineCollection_1">
    <path clip-path="url(#p81eb88f11c)" d="M 105.452308 259.534051 
L 105.452308 257.565583 
" style="fill:none;stroke:#4169e1;stroke-width:3;"/>
    <path clip-path="url(#p81eb88f11c)" d="M 132.036923 63.474917 
L 132.036923 55.083456 
" style="fill:none;stroke:#4169e1;stroke-width:3;"/>
    <path clip-path="url(#p81eb88f11c)" d="M 158.621538 267.802165 
L 158.621538 266.82861 
" style="fill:none;stroke:#4169e1;stroke-width:3;"/>
    <path clip-path="url(#p81eb88f11c)" d="M 185.206154 269.224861 
L 185.206154 268.578215 
" style="fill:none;stroke:#4169e1;stroke-width:3;"/>
    <path clip-path="url(#p81eb88f11c)" d="M 211.790769 258.81408 
L 211.790769 256.782885 
" style="fill:none;stroke:#4169e1;stroke-width:3;"/>
    <path clip-path="url(#p81eb88f11c)" d="M 238.375385 270.047912 
L 238.375385 269.758723 
" style="fill:none;stroke:#4169e1;stroke-width:3;"/>
    <path clip-path="url(#p81eb88f11c)" d="M 264.96 270.153763 
L 264.96 269.986799 
" style="fill:none;stroke:#4169e1;stroke-width:3;"/>
    <path clip-path="url(#p81eb88f11c)" d="M 291.544615 260.332802 
L 291.544615 258.436465 
" style="fill:none;stroke:#4169e1;stroke-width:3;"/>
    <path clip-path="url(#p81eb88f11c)" d="M 318.129231 270.153763 
L 318.129231 270.153763 
" style="fill:none;stroke:#4169e1;stroke-width:3;"/>
    <path clip-path="url(#p81eb88f11c)" d="M 344.713846 269.986799 
L 344.713846 269.652873 
" style="fill:none;stroke:#4169e1;stroke-width:3;"/>
    <path clip-path="url(#p81eb88f11c)" d="M 371.298462 270.153763 
L 371.298462 270.153763 
" style="fill:none;stroke:#4169e1;stroke-width:3;"/>
    <path clip-path="url(#p81eb88f11c)" d="M 397.883077 270.153763 
L 397.883077 270.153763 
" style="fill:none;stroke:#4169e1;stroke-width:3;"/>
    <path clip-path="url(#p81eb88f11c)" d="M 424.467692 270.153763 
L 424.467692 269.986799 
" style="fill:none;stroke:#4169e1;stroke-width:3;"/>
   </g>
   <g id="line2d_9">
    <path clip-path="url(#p81eb88f11c)" d="M 105.452308 258.549817 
L 132.036923 59.279186 
L 158.621538 267.315388 
L 185.206154 268.901538 
L 211.790769 257.798483 
L 238.375385 269.903318 
L 264.96 270.070281 
L 291.544615 259.384634 
L 318.129231 270.153763 
L 344.713846 269.819836 
L 371.298462 270.153763 
L 397.883077 270.153763 
L 424.467692 270.070281 
" style="fill:none;stroke:#4169e1;stroke-linecap:round;stroke-width:3;"/>
    <defs>
     <path d="M 0 3.25 
C 0.86191 3.25 1.688635 2.907559 2.298097 2.298097 
C 2.907559 1.688635 3.25 0.86191 3.25 0 
C 3.25 -0.86191 2.907559 -1.688635 2.298097 -2.298097 
C 1.688635 -2.907559 0.86191 -3.25 0 -3.25 
C -0.86191 -3.25 -1.688635 -2.907559 -2.298097 -2.298097 
C -2.907559 -1.688635 -3.25 -0.86191 -3.25 0 
C -3.25 0.86191 -2.907559 1.688635 -2.298097 2.298097 
C -1.688635 2.907559 -0.86191 3.25 0 3.25 
z
" id="m8cc7800529" style="stroke:#4169e1;"/>
    </defs>
    <g clip-path="url(#p81eb88f11c)">
     <use style="fill:#4169e1;stroke:#4169e1;" x="105.452308" xlink:href="#m8cc7800529" y="258.549817"/>
     <use style="fill:#4169e1;stroke:#4169e1;" x="132.036923" xlink:href="#m8cc7800529" y="59.279186"/>
     <use style="fill:#4169e1;stroke:#4169e1;" x="158.621538" xlink:href="#m8cc7800529" y="267.315388"/>
     <use style="fill:#4169e1;stroke:#4169e1;" x="185.206154" xlink:href="#m8cc7800529" y="268.901538"/>
     <use style="fill:#4169e1;stroke:#4169e1;" x="211.790769" xlink:href="#m8cc7800529" y="257.798483"/>
     <use style="fill:#4169e1;stroke:#4169e1;" x="238.375385" xlink:href="#m8cc7800529" y="269.903318"/>
     <use style="fill:#4169e1;stroke:#4169e1;" x="264.96" xlink:href="#m8cc7800529" y="270.070281"/>
     <use style="fill:#4169e1;stroke:#4169e1;" x="291.544615" xlink:href="#m8cc7800529" y="259.384634"/>
     <use style="fill:#4169e1;stroke:#4169e1;" x="318.129231" xlink:href="#m8cc7800529" y="270.153763"/>
     <use style="fill:#4169e1;stroke:#4169e1;" x="344.713846" xlink:href="#m8cc7800529" y="269.819836"/>
     <use style="fill:#4169e1;stroke:#4169e1;" x="371.298462" xlink:href="#m8cc7800529" y="270.153763"/>
     <use style="fill:#4169e1;stroke:#4169e1;" x="397.883077" xlink:href="#m8cc7800529" y="270.153763"/>
     <use style="fill:#4169e1;stroke:#4169e1;" x="424.467692" xlink:href="#m8cc7800529" y="270.070281"/>
    </g>
   </g>
   <g id="patch_3">
    <path d="M 92.16 276.48 
L 92.16 27.648 
" style="fill:none;stroke:#262626;stroke-linecap:square;stroke-linejoin:miter;stroke-width:0.8;"/>
   </g>
   <g id="patch_4">
    <path d="M 92.16 276.48 
L 437.76 276.48 
" style="fill:none;stroke:#262626;stroke-linecap:square;stroke-linejoin:miter;stroke-width:0.8;"/>
   </g>
   <g id="text_11">
    <text style="fill:#262626;font-family:DejaVu Sans;font-size:20px;font-style:normal;font-weight:bold;text-anchor:middle;" transform="rotate(-0, 264.96, 21.648)" x="264.96" y="21.648">DJ N length</text>
   </g>
  </g>
 </g>
 <defs>
  <clipPath id="p81eb88f11c">
   <rect height="248.832" width="345.6" x="92.16" y="27.648"/>
  </clipPath>
 </defs>
</svg>
