<?xml version="1.0" encoding="utf-8" standalone="no"?>
<!DOCTYPE svg PUBLIC "-//W3C//DTD SVG 1.1//EN"
  "http://www.w3.org/Graphics/SVG/1.1/DTD/svg11.dtd">
<!-- Created with matplotlib (http://matplotlib.org/) -->
<svg height="345.6pt" version="1.1" viewBox="0 0 460.8 345.6" width="460.8pt" xmlns="http://www.w3.org/2000/svg" xmlns:xlink="http://www.w3.org/1999/xlink">
 <defs>
  <style type="text/css">
*{stroke-linecap:butt;stroke-linejoin:round;}
  </style>
 </defs>
 <g id="figure_1">
  <g id="patch_1">
   <path d="M 0 345.6 
L 460.8 345.6 
L 460.8 0 
L 0 0 
z
" style="fill:#ffffff;"/>
  </g>
  <g id="axes_1">
   <g id="patch_2">
    <path d="M 92.16 276.48 
L 437.76 276.48 
L 437.76 27.648 
L 92.16 27.648 
z
" style="fill:#ffffff;"/>
   </g>
   <g id="matplotlib.axis_1">
    <g id="xtick_1">
     <g id="line2d_1">
      <defs>
       <path d="M 0 0 
L 0 3.5 
" id="mf5ba98eff5" style="stroke:#262626;stroke-width:0.8;"/>
      </defs>
      <g>
       <use style="fill:#262626;stroke:#262626;stroke-width:0.8;" x="132.602553" xlink:href="#mf5ba98eff5" y="276.48"/>
      </g>
     </g>
     <g id="text_1">
      <text style="fill:#262626;font-family:DejaVu Sans;font-size:20px;font-style:normal;font-weight:normal;text-anchor:middle;" transform="rotate(-0, 132.602553, 298.676875)" x="132.602553" y="298.676875">10</text>
     </g>
    </g>
    <g id="xtick_2">
     <g id="line2d_2">
      <g>
       <use style="fill:#262626;stroke:#262626;stroke-width:0.8;" x="206.134468" xlink:href="#mf5ba98eff5" y="276.48"/>
      </g>
     </g>
     <g id="text_2">
      <text style="fill:#262626;font-family:DejaVu Sans;font-size:20px;font-style:normal;font-weight:normal;text-anchor:middle;" transform="rotate(-0, 206.134468, 298.676875)" x="206.134468" y="298.676875">20</text>
     </g>
    </g>
    <g id="xtick_3">
     <g id="line2d_3">
      <g>
       <use style="fill:#262626;stroke:#262626;stroke-width:0.8;" x="279.666383" xlink:href="#mf5ba98eff5" y="276.48"/>
      </g>
     </g>
     <g id="text_3">
      <text style="fill:#262626;font-family:DejaVu Sans;font-size:20px;font-style:normal;font-weight:normal;text-anchor:middle;" transform="rotate(-0, 279.666383, 298.676875)" x="279.666383" y="298.676875">30</text>
     </g>
    </g>
    <g id="xtick_4">
     <g id="line2d_4">
      <g>
       <use style="fill:#262626;stroke:#262626;stroke-width:0.8;" x="353.198298" xlink:href="#mf5ba98eff5" y="276.48"/>
      </g>
     </g>
     <g id="text_4">
      <text style="fill:#262626;font-family:DejaVu Sans;font-size:20px;font-style:normal;font-weight:normal;text-anchor:middle;" transform="rotate(-0, 353.198298, 298.676875)" x="353.198298" y="298.676875">40</text>
     </g>
    </g>
    <g id="xtick_5">
     <g id="line2d_5">
      <g>
       <use style="fill:#262626;stroke:#262626;stroke-width:0.8;" x="426.730213" xlink:href="#mf5ba98eff5" y="276.48"/>
      </g>
     </g>
     <g id="text_5">
      <text style="fill:#262626;font-family:DejaVu Sans;font-size:20px;font-style:normal;font-weight:normal;text-anchor:middle;" transform="rotate(-0, 426.730213, 298.676875)" x="426.730213" y="298.676875">50</text>
     </g>
    </g>
    <g id="text_6">
     <text style="fill:#262626;font-family:DejaVu Sans;font-size:20px;font-style:normal;font-weight:normal;text-anchor:middle;" transform="rotate(-0, 264.96, 322.033125)" x="264.96" y="322.033125">bases</text>
    </g>
   </g>
   <g id="matplotlib.axis_2">
    <g id="ytick_1">
     <g id="line2d_6">
      <defs>
       <path d="M 0 0 
L -3.5 0 
" id="m3be2428940" style="stroke:#262626;stroke-width:0.8;"/>
      </defs>
      <g>
       <use style="fill:#262626;stroke:#262626;stroke-width:0.8;" x="92.16" xlink:href="#m3be2428940" y="270.153763"/>
      </g>
     </g>
     <g id="text_7">
      <text style="fill:#262626;font-family:DejaVu Sans;font-size:20px;font-style:normal;font-weight:normal;text-anchor:end;" transform="rotate(-0, 85.16, 277.7522)" x="85.16" y="277.7522">0.0</text>
     </g>
    </g>
    <g id="ytick_2">
     <g id="line2d_7">
      <g>
       <use style="fill:#262626;stroke:#262626;stroke-width:0.8;" x="92.16" xlink:href="#m3be2428940" y="197.646745"/>
      </g>
     </g>
     <g id="text_8">
      <text style="fill:#262626;font-family:DejaVu Sans;font-size:20px;font-style:normal;font-weight:normal;text-anchor:end;" transform="rotate(-0, 85.16, 205.245183)" x="85.16" y="205.245183">0.2</text>
     </g>
    </g>
    <g id="ytick_3">
     <g id="line2d_8">
      <g>
       <use style="fill:#262626;stroke:#262626;stroke-width:0.8;" x="92.16" xlink:href="#m3be2428940" y="125.139727"/>
      </g>
     </g>
     <g id="text_9">
      <text style="fill:#262626;font-family:DejaVu Sans;font-size:20px;font-style:normal;font-weight:normal;text-anchor:end;" transform="rotate(-0, 85.16, 132.738165)" x="85.16" y="132.738165">0.4</text>
     </g>
    </g>
    <g id="ytick_4">
     <g id="line2d_9">
      <g>
       <use style="fill:#262626;stroke:#262626;stroke-width:0.8;" x="92.16" xlink:href="#m3be2428940" y="52.63271"/>
      </g>
     </g>
     <g id="text_10">
      <text style="fill:#262626;font-family:DejaVu Sans;font-size:20px;font-style:normal;font-weight:normal;text-anchor:end;" transform="rotate(-0, 85.16, 60.231147)" x="85.16" y="60.231147">0.6</text>
     </g>
    </g>
    <g id="text_11">
     <text style="fill:#262626;font-family:DejaVu Sans;font-size:20px;font-style:normal;font-weight:normal;text-anchor:middle;" transform="rotate(-90, 45.194375, 152.064)" x="45.194375" y="152.064">freq (3000 total)</text>
    </g>
   </g>
   <g id="LineCollection_1">
    <path clip-path="url(#p6a1a096daf)" d="M 95.836596 270.153763 
L 95.836596 269.912073 
" style="fill:none;stroke:#4169e1;stroke-width:3;"/>
    <path clip-path="url(#p6a1a096daf)" d="M 103.189787 269.327458 
L 103.189787 268.563167 
" style="fill:none;stroke:#4169e1;stroke-width:3;"/>
    <path clip-path="url(#p6a1a096daf)" d="M 110.542979 270.153763 
L 110.542979 270.153763 
" style="fill:none;stroke:#4169e1;stroke-width:3;"/>
    <path clip-path="url(#p6a1a096daf)" d="M 117.89617 270.153763 
L 117.89617 270.153763 
" style="fill:none;stroke:#4169e1;stroke-width:3;"/>
    <path clip-path="url(#p6a1a096daf)" d="M 125.249362 270.153763 
L 125.249362 270.153763 
" style="fill:none;stroke:#4169e1;stroke-width:3;"/>
    <path clip-path="url(#p6a1a096daf)" d="M 132.602553 270.153763 
L 132.602553 270.153763 
" style="fill:none;stroke:#4169e1;stroke-width:3;"/>
    <path clip-path="url(#p6a1a096daf)" d="M 139.955745 270.153763 
L 139.955745 270.153763 
" style="fill:none;stroke:#4169e1;stroke-width:3;"/>
    <path clip-path="url(#p6a1a096daf)" d="M 147.308936 270.082973 
L 147.308936 269.741172 
" style="fill:none;stroke:#4169e1;stroke-width:3;"/>
    <path clip-path="url(#p6a1a096daf)" d="M 154.662128 262.592024 
L 154.662128 260.555507 
" style="fill:none;stroke:#4169e1;stroke-width:3;"/>
    <path clip-path="url(#p6a1a096daf)" d="M 162.015319 269.627573 
L 162.015319 268.988122 
" style="fill:none;stroke:#4169e1;stroke-width:3;"/>
    <path clip-path="url(#p6a1a096daf)" d="M 169.368511 270.153763 
L 169.368511 269.912073 
" style="fill:none;stroke:#4169e1;stroke-width:3;"/>
    <path clip-path="url(#p6a1a096daf)" d="M 176.721702 267.627983 
L 176.721702 266.395601 
" style="fill:none;stroke:#4169e1;stroke-width:3;"/>
    <path clip-path="url(#p6a1a096daf)" d="M 184.074894 270.000537 
L 184.074894 269.581918 
" style="fill:none;stroke:#4169e1;stroke-width:3;"/>
    <path clip-path="url(#p6a1a096daf)" d="M 191.428085 269.912073 
L 191.428085 269.428693 
" style="fill:none;stroke:#4169e1;stroke-width:3;"/>
    <path clip-path="url(#p6a1a096daf)" d="M 198.781277 268.384458 
L 198.781277 267.330956 
" style="fill:none;stroke:#4169e1;stroke-width:3;"/>
    <path clip-path="url(#p6a1a096daf)" d="M 206.134468 270.082973 
L 206.134468 269.741172 
" style="fill:none;stroke:#4169e1;stroke-width:3;"/>
    <path clip-path="url(#p6a1a096daf)" d="M 213.48766 261.110343 
L 213.48766 258.895217 
" style="fill:none;stroke:#4169e1;stroke-width:3;"/>
    <path clip-path="url(#p6a1a096daf)" d="M 220.840851 267.518876 
L 220.840851 266.263018 
" style="fill:none;stroke:#4169e1;stroke-width:3;"/>
    <path clip-path="url(#p6a1a096daf)" d="M 228.194043 262.81927 
L 228.194043 260.811641 
" style="fill:none;stroke:#4169e1;stroke-width:3;"/>
    <path clip-path="url(#p6a1a096daf)" d="M 235.547234 269.819755 
L 235.547234 269.27932 
" style="fill:none;stroke:#4169e1;stroke-width:3;"/>
    <path clip-path="url(#p6a1a096daf)" d="M 242.900426 64.32727 
L 242.900426 54.231103 
" style="fill:none;stroke:#4169e1;stroke-width:3;"/>
    <path clip-path="url(#p6a1a096daf)" d="M 250.253617 270.153763 
L 250.253617 269.912073 
" style="fill:none;stroke:#4169e1;stroke-width:3;"/>
    <path clip-path="url(#p6a1a096daf)" d="M 257.606809 267.409554 
L 257.606809 266.13065 
" style="fill:none;stroke:#4169e1;stroke-width:3;"/>
    <path clip-path="url(#p6a1a096daf)" d="M 264.96 269.528804 
L 264.96 268.845201 
" style="fill:none;stroke:#4169e1;stroke-width:3;"/>
    <path clip-path="url(#p6a1a096daf)" d="M 272.313191 267.300027 
L 272.313191 265.998486 
" style="fill:none;stroke:#4169e1;stroke-width:3;"/>
    <path clip-path="url(#p6a1a096daf)" d="M 279.666383 270.000537 
L 279.666383 269.581918 
" style="fill:none;stroke:#4169e1;stroke-width:3;"/>
    <path clip-path="url(#p6a1a096daf)" d="M 287.019574 255.93729 
L 287.019574 253.192218 
" style="fill:none;stroke:#4169e1;stroke-width:3;"/>
    <path clip-path="url(#p6a1a096daf)" d="M 294.372766 269.724701 
L 294.372766 269.132684 
" style="fill:none;stroke:#4169e1;stroke-width:3;"/>
    <path clip-path="url(#p6a1a096daf)" d="M 301.725957 268.384458 
L 301.725957 267.330956 
" style="fill:none;stroke:#4169e1;stroke-width:3;"/>
    <path clip-path="url(#p6a1a096daf)" d="M 309.079149 262.023043 
L 309.079149 259.916038 
" style="fill:none;stroke:#4169e1;stroke-width:3;"/>
    <path clip-path="url(#p6a1a096daf)" d="M 316.43234 269.724701 
L 316.43234 269.132684 
" style="fill:none;stroke:#4169e1;stroke-width:3;"/>
    <path clip-path="url(#p6a1a096daf)" d="M 323.785532 269.01849 
L 323.785532 268.147064 
" style="fill:none;stroke:#4169e1;stroke-width:3;"/>
    <path clip-path="url(#p6a1a096daf)" d="M 331.138723 270.153763 
L 331.138723 269.912073 
" style="fill:none;stroke:#4169e1;stroke-width:3;"/>
    <path clip-path="url(#p6a1a096daf)" d="M 338.491915 269.912073 
L 338.491915 269.428693 
" style="fill:none;stroke:#4169e1;stroke-width:3;"/>
    <path clip-path="url(#p6a1a096daf)" d="M 345.845106 270.082973 
L 345.845106 269.741172 
" style="fill:none;stroke:#4169e1;stroke-width:3;"/>
    <path clip-path="url(#p6a1a096daf)" d="M 353.198298 270.153763 
L 353.198298 270.153763 
" style="fill:none;stroke:#4169e1;stroke-width:3;"/>
    <path clip-path="url(#p6a1a096daf)" d="M 360.551489 202.027222 
L 360.551489 196.166549 
" style="fill:none;stroke:#4169e1;stroke-width:3;"/>
    <path clip-path="url(#p6a1a096daf)" d="M 367.904681 270.153763 
L 367.904681 270.153763 
" style="fill:none;stroke:#4169e1;stroke-width:3;"/>
    <path clip-path="url(#p6a1a096daf)" d="M 375.257872 270.153763 
L 375.257872 270.153763 
" style="fill:none;stroke:#4169e1;stroke-width:3;"/>
    <path clip-path="url(#p6a1a096daf)" d="M 382.611064 270.082973 
L 382.611064 269.741172 
" style="fill:none;stroke:#4169e1;stroke-width:3;"/>
    <path clip-path="url(#p6a1a096daf)" d="M 389.964255 269.912073 
L 389.964255 269.428693 
" style="fill:none;stroke:#4169e1;stroke-width:3;"/>
    <path clip-path="url(#p6a1a096daf)" d="M 397.317447 269.912073 
L 397.317447 269.428693 
" style="fill:none;stroke:#4169e1;stroke-width:3;"/>
    <path clip-path="url(#p6a1a096daf)" d="M 404.670638 270.153763 
L 404.670638 270.153763 
" style="fill:none;stroke:#4169e1;stroke-width:3;"/>
    <path clip-path="url(#p6a1a096daf)" d="M 412.02383 270.153763 
L 412.02383 270.153763 
" style="fill:none;stroke:#4169e1;stroke-width:3;"/>
    <path clip-path="url(#p6a1a096daf)" d="M 419.377021 270.153763 
L 419.377021 270.153763 
" style="fill:none;stroke:#4169e1;stroke-width:3;"/>
    <path clip-path="url(#p6a1a096daf)" d="M 426.730213 270.153763 
L 426.730213 270.153763 
" style="fill:none;stroke:#4169e1;stroke-width:3;"/>
    <path clip-path="url(#p6a1a096daf)" d="M 434.083404 270.153763 
L 434.083404 269.912073 
" style="fill:none;stroke:#4169e1;stroke-width:3;"/>
   </g>
   <g id="line2d_10">
    <path clip-path="url(#p6a1a096daf)" d="M 95.836596 270.032918 
L 103.189787 268.945312 
L 110.542979 270.153763 
L 117.89617 270.153763 
L 125.249362 270.153763 
L 132.602553 270.153763 
L 139.955745 270.153763 
L 147.308936 269.912073 
L 154.662128 261.573766 
L 162.015319 269.307848 
L 169.368511 270.032918 
L 176.721702 267.011792 
L 184.074894 269.791228 
L 191.428085 269.670383 
L 198.781277 267.857707 
L 206.134468 269.912073 
L 213.48766 260.00278 
L 220.840851 266.890947 
L 228.194043 261.815456 
L 235.547234 269.549538 
L 242.900426 59.279186 
L 250.253617 270.032918 
L 257.606809 266.770102 
L 264.96 269.187002 
L 272.313191 266.649257 
L 279.666383 269.791228 
L 287.019574 254.564754 
L 294.372766 269.428693 
L 301.725957 267.857707 
L 309.079149 260.96954 
L 316.43234 269.428693 
L 323.785532 268.582777 
L 331.138723 270.032918 
L 338.491915 269.670383 
L 345.845106 269.912073 
L 353.198298 270.153763 
L 360.551489 199.096885 
L 367.904681 270.153763 
L 375.257872 270.153763 
L 382.611064 269.912073 
L 389.964255 269.670383 
L 397.317447 269.670383 
L 404.670638 270.153763 
L 412.02383 270.153763 
L 419.377021 270.153763 
L 426.730213 270.153763 
L 434.083404 270.032918 
" style="fill:none;stroke:#4169e1;stroke-linecap:round;stroke-width:3;"/>
    <defs>
     <path d="M 0 3.25 
C 0.86191 3.25 1.688635 2.907559 2.298097 2.298097 
C 2.907559 1.688635 3.25 0.86191 3.25 0 
C 3.25 -0.86191 2.907559 -1.688635 2.298097 -2.298097 
C 1.688635 -2.907559 0.86191 -3.25 0 -3.25 
C -0.86191 -3.25 -1.688635 -2.907559 -2.298097 -2.298097 
C -2.907559 -1.688635 -3.25 -0.86191 -3.25 0 
C -3.25 0.86191 -2.907559 1.688635 -2.298097 2.298097 
C -1.688635 2.907559 -0.86191 3.25 0 3.25 
z
" id="m0913f39b51" style="stroke:#4169e1;"/>
    </defs>
    <g clip-path="url(#p6a1a096daf)">
     <use style="fill:#4169e1;stroke:#4169e1;" x="95.836596" xlink:href="#m0913f39b51" y="270.032918"/>
     <use style="fill:#4169e1;stroke:#4169e1;" x="103.189787" xlink:href="#m0913f39b51" y="268.945312"/>
     <use style="fill:#4169e1;stroke:#4169e1;" x="110.542979" xlink:href="#m0913f39b51" y="270.153763"/>
     <use style="fill:#4169e1;stroke:#4169e1;" x="117.89617" xlink:href="#m0913f39b51" y="270.153763"/>
     <use style="fill:#4169e1;stroke:#4169e1;" x="125.249362" xlink:href="#m0913f39b51" y="270.153763"/>
     <use style="fill:#4169e1;stroke:#4169e1;" x="132.602553" xlink:href="#m0913f39b51" y="270.153763"/>
     <use style="fill:#4169e1;stroke:#4169e1;" x="139.955745" xlink:href="#m0913f39b51" y="270.153763"/>
     <use style="fill:#4169e1;stroke:#4169e1;" x="147.308936" xlink:href="#m0913f39b51" y="269.912073"/>
     <use style="fill:#4169e1;stroke:#4169e1;" x="154.662128" xlink:href="#m0913f39b51" y="261.573766"/>
     <use style="fill:#4169e1;stroke:#4169e1;" x="162.015319" xlink:href="#m0913f39b51" y="269.307848"/>
     <use style="fill:#4169e1;stroke:#4169e1;" x="169.368511" xlink:href="#m0913f39b51" y="270.032918"/>
     <use style="fill:#4169e1;stroke:#4169e1;" x="176.721702" xlink:href="#m0913f39b51" y="267.011792"/>
     <use style="fill:#4169e1;stroke:#4169e1;" x="184.074894" xlink:href="#m0913f39b51" y="269.791228"/>
     <use style="fill:#4169e1;stroke:#4169e1;" x="191.428085" xlink:href="#m0913f39b51" y="269.670383"/>
     <use style="fill:#4169e1;stroke:#4169e1;" x="198.781277" xlink:href="#m0913f39b51" y="267.857707"/>
     <use style="fill:#4169e1;stroke:#4169e1;" x="206.134468" xlink:href="#m0913f39b51" y="269.912073"/>
     <use style="fill:#4169e1;stroke:#4169e1;" x="213.48766" xlink:href="#m0913f39b51" y="260.00278"/>
     <use style="fill:#4169e1;stroke:#4169e1;" x="220.840851" xlink:href="#m0913f39b51" y="266.890947"/>
     <use style="fill:#4169e1;stroke:#4169e1;" x="228.194043" xlink:href="#m0913f39b51" y="261.815456"/>
     <use style="fill:#4169e1;stroke:#4169e1;" x="235.547234" xlink:href="#m0913f39b51" y="269.549538"/>
     <use style="fill:#4169e1;stroke:#4169e1;" x="242.900426" xlink:href="#m0913f39b51" y="59.279186"/>
     <use style="fill:#4169e1;stroke:#4169e1;" x="250.253617" xlink:href="#m0913f39b51" y="270.032918"/>
     <use style="fill:#4169e1;stroke:#4169e1;" x="257.606809" xlink:href="#m0913f39b51" y="266.770102"/>
     <use style="fill:#4169e1;stroke:#4169e1;" x="264.96" xlink:href="#m0913f39b51" y="269.187002"/>
     <use style="fill:#4169e1;stroke:#4169e1;" x="272.313191" xlink:href="#m0913f39b51" y="266.649257"/>
     <use style="fill:#4169e1;stroke:#4169e1;" x="279.666383" xlink:href="#m0913f39b51" y="269.791228"/>
     <use style="fill:#4169e1;stroke:#4169e1;" x="287.019574" xlink:href="#m0913f39b51" y="254.564754"/>
     <use style="fill:#4169e1;stroke:#4169e1;" x="294.372766" xlink:href="#m0913f39b51" y="269.428693"/>
     <use style="fill:#4169e1;stroke:#4169e1;" x="301.725957" xlink:href="#m0913f39b51" y="267.857707"/>
     <use style="fill:#4169e1;stroke:#4169e1;" x="309.079149" xlink:href="#m0913f39b51" y="260.96954"/>
     <use style="fill:#4169e1;stroke:#4169e1;" x="316.43234" xlink:href="#m0913f39b51" y="269.428693"/>
     <use style="fill:#4169e1;stroke:#4169e1;" x="323.785532" xlink:href="#m0913f39b51" y="268.582777"/>
     <use style="fill:#4169e1;stroke:#4169e1;" x="331.138723" xlink:href="#m0913f39b51" y="270.032918"/>
     <use style="fill:#4169e1;stroke:#4169e1;" x="338.491915" xlink:href="#m0913f39b51" y="269.670383"/>
     <use style="fill:#4169e1;stroke:#4169e1;" x="345.845106" xlink:href="#m0913f39b51" y="269.912073"/>
     <use style="fill:#4169e1;stroke:#4169e1;" x="353.198298" xlink:href="#m0913f39b51" y="270.153763"/>
     <use style="fill:#4169e1;stroke:#4169e1;" x="360.551489" xlink:href="#m0913f39b51" y="199.096885"/>
     <use style="fill:#4169e1;stroke:#4169e1;" x="367.904681" xlink:href="#m0913f39b51" y="270.153763"/>
     <use style="fill:#4169e1;stroke:#4169e1;" x="375.257872" xlink:href="#m0913f39b51" y="270.153763"/>
     <use style="fill:#4169e1;stroke:#4169e1;" x="382.611064" xlink:href="#m0913f39b51" y="269.912073"/>
     <use style="fill:#4169e1;stroke:#4169e1;" x="389.964255" xlink:href="#m0913f39b51" y="269.670383"/>
     <use style="fill:#4169e1;stroke:#4169e1;" x="397.317447" xlink:href="#m0913f39b51" y="269.670383"/>
     <use style="fill:#4169e1;stroke:#4169e1;" x="404.670638" xlink:href="#m0913f39b51" y="270.153763"/>
     <use style="fill:#4169e1;stroke:#4169e1;" x="412.02383" xlink:href="#m0913f39b51" y="270.153763"/>
     <use style="fill:#4169e1;stroke:#4169e1;" x="419.377021" xlink:href="#m0913f39b51" y="270.153763"/>
     <use style="fill:#4169e1;stroke:#4169e1;" x="426.730213" xlink:href="#m0913f39b51" y="270.153763"/>
     <use style="fill:#4169e1;stroke:#4169e1;" x="434.083404" xlink:href="#m0913f39b51" y="270.032918"/>
    </g>
   </g>
   <g id="patch_3">
    <path d="M 92.16 276.48 
L 92.16 27.648 
" style="fill:none;stroke:#262626;stroke-linecap:square;stroke-linejoin:miter;stroke-width:0.8;"/>
   </g>
   <g id="patch_4">
    <path d="M 92.16 276.48 
L 437.76 276.48 
" style="fill:none;stroke:#262626;stroke-linecap:square;stroke-linejoin:miter;stroke-width:0.8;"/>
   </g>
   <g id="text_12">
    <text style="fill:#262626;font-family:DejaVu Sans;font-size:15px;font-style:normal;font-weight:bold;text-anchor:middle;" transform="rotate(-0, 264.96, 21.648)" x="264.96" y="21.648">non-VJ length (inserts [+D]) (mean 28.2)</text>
   </g>
  </g>
 </g>
 <defs>
  <clipPath id="p6a1a096daf">
   <rect height="248.832" width="345.6" x="92.16" y="27.648"/>
  </clipPath>
 </defs>
</svg>
