<?xml version="1.0" encoding="utf-8" standalone="no"?>
<!DOCTYPE svg PUBLIC "-//W3C//DTD SVG 1.1//EN"
  "http://www.w3.org/Graphics/SVG/1.1/DTD/svg11.dtd">
<!-- Created with matplotlib (http://matplotlib.org/) -->
<svg height="345.6pt" version="1.1" viewBox="0 0 460.8 345.6" width="460.8pt" xmlns="http://www.w3.org/2000/svg" xmlns:xlink="http://www.w3.org/1999/xlink">
 <defs>
  <style type="text/css">
*{stroke-linecap:butt;stroke-linejoin:round;}
  </style>
 </defs>
 <g id="figure_1">
  <g id="patch_1">
   <path d="M 0 345.6 
L 460.8 345.6 
L 460.8 0 
L 0 0 
z
" style="fill:#ffffff;"/>
  </g>
  <g id="axes_1">
   <g id="patch_2">
    <path d="M 92.16 276.48 
L 437.76 276.48 
L 437.76 27.648 
L 92.16 27.648 
z
" style="fill:#ffffff;"/>
   </g>
   <g id="matplotlib.axis_1">
    <g id="xtick_1">
     <g id="line2d_1">
      <defs>
       <path d="M 0 0 
L 0 3.5 
" id="m4c27ca8349" style="stroke:#262626;stroke-width:0.8;"/>
      </defs>
      <g>
       <use style="fill:#262626;stroke:#262626;stroke-width:0.8;" x="100.388571" xlink:href="#m4c27ca8349" y="276.48"/>
      </g>
     </g>
     <g id="text_1">
      <text style="fill:#262626;font-family:DejaVu Sans;font-size:20px;font-style:normal;font-weight:normal;text-anchor:middle;" transform="rotate(-0, 100.388571, 298.676875)" x="100.388571" y="298.676875">0</text>
     </g>
    </g>
    <g id="xtick_2">
     <g id="line2d_2">
      <g>
       <use style="fill:#262626;stroke:#262626;stroke-width:0.8;" x="182.674286" xlink:href="#m4c27ca8349" y="276.48"/>
      </g>
     </g>
     <g id="text_2">
      <text style="fill:#262626;font-family:DejaVu Sans;font-size:20px;font-style:normal;font-weight:normal;text-anchor:middle;" transform="rotate(-0, 182.674286, 298.676875)" x="182.674286" y="298.676875">5</text>
     </g>
    </g>
    <g id="xtick_3">
     <g id="line2d_3">
      <g>
       <use style="fill:#262626;stroke:#262626;stroke-width:0.8;" x="264.96" xlink:href="#m4c27ca8349" y="276.48"/>
      </g>
     </g>
     <g id="text_3">
      <text style="fill:#262626;font-family:DejaVu Sans;font-size:20px;font-style:normal;font-weight:normal;text-anchor:middle;" transform="rotate(-0, 264.96, 298.676875)" x="264.96" y="298.676875">10</text>
     </g>
    </g>
    <g id="xtick_4">
     <g id="line2d_4">
      <g>
       <use style="fill:#262626;stroke:#262626;stroke-width:0.8;" x="347.245714" xlink:href="#m4c27ca8349" y="276.48"/>
      </g>
     </g>
     <g id="text_4">
      <text style="fill:#262626;font-family:DejaVu Sans;font-size:20px;font-style:normal;font-weight:normal;text-anchor:middle;" transform="rotate(-0, 347.245714, 298.676875)" x="347.245714" y="298.676875">15</text>
     </g>
    </g>
    <g id="xtick_5">
     <g id="line2d_5">
      <g>
       <use style="fill:#262626;stroke:#262626;stroke-width:0.8;" x="429.531429" xlink:href="#m4c27ca8349" y="276.48"/>
      </g>
     </g>
     <g id="text_5">
      <text style="fill:#262626;font-family:DejaVu Sans;font-size:20px;font-style:normal;font-weight:normal;text-anchor:middle;" transform="rotate(-0, 429.531429, 298.676875)" x="429.531429" y="298.676875">20</text>
     </g>
    </g>
    <g id="text_6">
     <text style="fill:#262626;font-family:DejaVu Sans;font-size:20px;font-style:normal;font-weight:normal;text-anchor:middle;" transform="rotate(-0, 264.96, 322.033125)" x="264.96" y="322.033125">bases</text>
    </g>
   </g>
   <g id="matplotlib.axis_2">
    <g id="ytick_1">
     <g id="line2d_6">
      <defs>
       <path d="M 0 0 
L -3.5 0 
" id="m4de6782619" style="stroke:#262626;stroke-width:0.8;"/>
      </defs>
      <g>
       <use style="fill:#262626;stroke:#262626;stroke-width:0.8;" x="92.16" xlink:href="#m4de6782619" y="270.153763"/>
      </g>
     </g>
     <g id="text_7">
      <text style="fill:#262626;font-family:DejaVu Sans;font-size:20px;font-style:normal;font-weight:normal;text-anchor:end;" transform="rotate(-0, 85.16, 277.7522)" x="85.16" y="277.7522">0.0</text>
     </g>
    </g>
    <g id="ytick_2">
     <g id="line2d_7">
      <g>
       <use style="fill:#262626;stroke:#262626;stroke-width:0.8;" x="92.16" xlink:href="#m4de6782619" y="198.346302"/>
      </g>
     </g>
     <g id="text_8">
      <text style="fill:#262626;font-family:DejaVu Sans;font-size:20px;font-style:normal;font-weight:normal;text-anchor:end;" transform="rotate(-0, 85.16, 205.94474)" x="85.16" y="205.94474">0.2</text>
     </g>
    </g>
    <g id="ytick_3">
     <g id="line2d_8">
      <g>
       <use style="fill:#262626;stroke:#262626;stroke-width:0.8;" x="92.16" xlink:href="#m4de6782619" y="126.538841"/>
      </g>
     </g>
     <g id="text_9">
      <text style="fill:#262626;font-family:DejaVu Sans;font-size:20px;font-style:normal;font-weight:normal;text-anchor:end;" transform="rotate(-0, 85.16, 134.137279)" x="85.16" y="134.137279">0.4</text>
     </g>
    </g>
    <g id="ytick_4">
     <g id="line2d_9">
      <g>
       <use style="fill:#262626;stroke:#262626;stroke-width:0.8;" x="92.16" xlink:href="#m4de6782619" y="54.731381"/>
      </g>
     </g>
     <g id="text_10">
      <text style="fill:#262626;font-family:DejaVu Sans;font-size:20px;font-style:normal;font-weight:normal;text-anchor:end;" transform="rotate(-0, 85.16, 62.329818)" x="85.16" y="62.329818">0.6</text>
     </g>
    </g>
    <g id="text_11">
     <text style="fill:#262626;font-family:DejaVu Sans;font-size:20px;font-style:normal;font-weight:normal;text-anchor:middle;" transform="rotate(-90, 45.194375, 152.064)" x="45.194375" y="152.064">freq (3000 total)</text>
    </g>
   </g>
   <g id="LineCollection_1">
    <path clip-path="url(#pd61d1d884d)" d="M 100.388571 249.064396 
L 100.388571 245.765071 
" style="fill:none;stroke:#4169e1;stroke-width:3;"/>
    <path clip-path="url(#pd61d1d884d)" d="M 116.845714 251.483823 
L 116.845714 248.372166 
" style="fill:none;stroke:#4169e1;stroke-width:3;"/>
    <path clip-path="url(#pd61d1d884d)" d="M 133.302857 260.744691 
L 133.302857 258.499312 
" style="fill:none;stroke:#4169e1;stroke-width:3;"/>
    <path clip-path="url(#pd61d1d884d)" d="M 149.76 254.70012 
L 149.76 251.857899 
" style="fill:none;stroke:#4169e1;stroke-width:3;"/>
    <path clip-path="url(#pd61d1d884d)" d="M 166.217143 64.302858 
L 166.217143 54.255515 
" style="fill:none;stroke:#4169e1;stroke-width:3;"/>
    <path clip-path="url(#pd61d1d884d)" d="M 182.674286 268.822091 
L 182.674286 267.895061 
" style="fill:none;stroke:#4169e1;stroke-width:3;"/>
    <path clip-path="url(#pd61d1d884d)" d="M 199.131429 268.717613 
L 199.131429 267.760181 
" style="fill:none;stroke:#4169e1;stroke-width:3;"/>
    <path clip-path="url(#pd61d1d884d)" d="M 215.588571 269.822978 
L 215.588571 269.287757 
" style="fill:none;stroke:#4169e1;stroke-width:3;"/>
    <path clip-path="url(#pd61d1d884d)" d="M 232.045714 269.822978 
L 232.045714 269.287757 
" style="fill:none;stroke:#4169e1;stroke-width:3;"/>
    <path clip-path="url(#pd61d1d884d)" d="M 248.502857 270.153763 
L 248.502857 269.914405 
" style="fill:none;stroke:#4169e1;stroke-width:3;"/>
    <path clip-path="url(#pd61d1d884d)" d="M 264.96 203.270546 
L 264.96 197.491148 
" style="fill:none;stroke:#4169e1;stroke-width:3;"/>
    <path clip-path="url(#pd61d1d884d)" d="M 281.417143 270.153763 
L 281.417143 270.153763 
" style="fill:none;stroke:#4169e1;stroke-width:3;"/>
    <path clip-path="url(#pd61d1d884d)" d="M 297.874286 269.234223 
L 297.874286 268.440362 
" style="fill:none;stroke:#4169e1;stroke-width:3;"/>
    <path clip-path="url(#pd61d1d884d)" d="M 314.331429 270.083656 
L 314.331429 269.745153 
" style="fill:none;stroke:#4169e1;stroke-width:3;"/>
    <path clip-path="url(#pd61d1d884d)" d="M 330.788571 270.153763 
L 330.788571 270.153763 
" style="fill:none;stroke:#4169e1;stroke-width:3;"/>
    <path clip-path="url(#pd61d1d884d)" d="M 347.245714 270.153763 
L 347.245714 270.153763 
" style="fill:none;stroke:#4169e1;stroke-width:3;"/>
    <path clip-path="url(#pd61d1d884d)" d="M 363.702857 270.153763 
L 363.702857 270.153763 
" style="fill:none;stroke:#4169e1;stroke-width:3;"/>
    <path clip-path="url(#pd61d1d884d)" d="M 380.16 270.153763 
L 380.16 270.153763 
" style="fill:none;stroke:#4169e1;stroke-width:3;"/>
    <path clip-path="url(#pd61d1d884d)" d="M 396.617143 269.63265 
L 396.617143 268.999368 
" style="fill:none;stroke:#4169e1;stroke-width:3;"/>
    <path clip-path="url(#pd61d1d884d)" d="M 413.074286 270.153763 
L 413.074286 269.914405 
" style="fill:none;stroke:#4169e1;stroke-width:3;"/>
    <path clip-path="url(#pd61d1d884d)" d="M 429.531429 269.914405 
L 429.531429 269.435688 
" style="fill:none;stroke:#4169e1;stroke-width:3;"/>
   </g>
   <g id="line2d_10">
    <path clip-path="url(#pd61d1d884d)" d="M 100.388571 247.414733 
L 116.845714 249.927995 
L 133.302857 259.622002 
L 149.76 253.279009 
L 166.217143 59.279186 
L 182.674286 268.358576 
L 199.131429 268.238897 
L 215.588571 269.555367 
L 232.045714 269.555367 
L 248.502857 270.034084 
L 264.96 200.380847 
L 281.417143 270.153763 
L 297.874286 268.837293 
L 314.331429 269.914405 
L 330.788571 270.153763 
L 347.245714 270.153763 
L 363.702857 270.153763 
L 380.16 270.153763 
L 396.617143 269.316009 
L 413.074286 270.034084 
L 429.531429 269.675046 
" style="fill:none;stroke:#4169e1;stroke-linecap:round;stroke-width:3;"/>
    <defs>
     <path d="M 0 3.25 
C 0.86191 3.25 1.688635 2.907559 2.298097 2.298097 
C 2.907559 1.688635 3.25 0.86191 3.25 0 
C 3.25 -0.86191 2.907559 -1.688635 2.298097 -2.298097 
C 1.688635 -2.907559 0.86191 -3.25 0 -3.25 
C -0.86191 -3.25 -1.688635 -2.907559 -2.298097 -2.298097 
C -2.907559 -1.688635 -3.25 -0.86191 -3.25 0 
C -3.25 0.86191 -2.907559 1.688635 -2.298097 2.298097 
C -1.688635 2.907559 -0.86191 3.25 0 3.25 
z
" id="m8065c41c91" style="stroke:#4169e1;"/>
    </defs>
    <g clip-path="url(#pd61d1d884d)">
     <use style="fill:#4169e1;stroke:#4169e1;" x="100.388571" xlink:href="#m8065c41c91" y="247.414733"/>
     <use style="fill:#4169e1;stroke:#4169e1;" x="116.845714" xlink:href="#m8065c41c91" y="249.927995"/>
     <use style="fill:#4169e1;stroke:#4169e1;" x="133.302857" xlink:href="#m8065c41c91" y="259.622002"/>
     <use style="fill:#4169e1;stroke:#4169e1;" x="149.76" xlink:href="#m8065c41c91" y="253.279009"/>
     <use style="fill:#4169e1;stroke:#4169e1;" x="166.217143" xlink:href="#m8065c41c91" y="59.279186"/>
     <use style="fill:#4169e1;stroke:#4169e1;" x="182.674286" xlink:href="#m8065c41c91" y="268.358576"/>
     <use style="fill:#4169e1;stroke:#4169e1;" x="199.131429" xlink:href="#m8065c41c91" y="268.238897"/>
     <use style="fill:#4169e1;stroke:#4169e1;" x="215.588571" xlink:href="#m8065c41c91" y="269.555367"/>
     <use style="fill:#4169e1;stroke:#4169e1;" x="232.045714" xlink:href="#m8065c41c91" y="269.555367"/>
     <use style="fill:#4169e1;stroke:#4169e1;" x="248.502857" xlink:href="#m8065c41c91" y="270.034084"/>
     <use style="fill:#4169e1;stroke:#4169e1;" x="264.96" xlink:href="#m8065c41c91" y="200.380847"/>
     <use style="fill:#4169e1;stroke:#4169e1;" x="281.417143" xlink:href="#m8065c41c91" y="270.153763"/>
     <use style="fill:#4169e1;stroke:#4169e1;" x="297.874286" xlink:href="#m8065c41c91" y="268.837293"/>
     <use style="fill:#4169e1;stroke:#4169e1;" x="314.331429" xlink:href="#m8065c41c91" y="269.914405"/>
     <use style="fill:#4169e1;stroke:#4169e1;" x="330.788571" xlink:href="#m8065c41c91" y="270.153763"/>
     <use style="fill:#4169e1;stroke:#4169e1;" x="347.245714" xlink:href="#m8065c41c91" y="270.153763"/>
     <use style="fill:#4169e1;stroke:#4169e1;" x="363.702857" xlink:href="#m8065c41c91" y="270.153763"/>
     <use style="fill:#4169e1;stroke:#4169e1;" x="380.16" xlink:href="#m8065c41c91" y="270.153763"/>
     <use style="fill:#4169e1;stroke:#4169e1;" x="396.617143" xlink:href="#m8065c41c91" y="269.316009"/>
     <use style="fill:#4169e1;stroke:#4169e1;" x="413.074286" xlink:href="#m8065c41c91" y="270.034084"/>
     <use style="fill:#4169e1;stroke:#4169e1;" x="429.531429" xlink:href="#m8065c41c91" y="269.675046"/>
    </g>
   </g>
   <g id="patch_3">
    <path d="M 92.16 276.48 
L 92.16 27.648 
" style="fill:none;stroke:#262626;stroke-linecap:square;stroke-linejoin:miter;stroke-width:0.8;"/>
   </g>
   <g id="patch_4">
    <path d="M 92.16 276.48 
L 437.76 276.48 
" style="fill:none;stroke:#262626;stroke-linecap:square;stroke-linejoin:miter;stroke-width:0.8;"/>
   </g>
   <g id="text_12">
    <text style="fill:#262626;font-family:DejaVu Sans;font-size:20px;font-style:normal;font-weight:bold;text-anchor:middle;" transform="rotate(-0, 264.96, 21.648)" x="264.96" y="21.648">VD N length</text>
   </g>
  </g>
 </g>
 <defs>
  <clipPath id="pd61d1d884d">
   <rect height="248.832" width="345.6" x="92.16" y="27.648"/>
  </clipPath>
 </defs>
</svg>
