<?xml version="1.0" encoding="utf-8" standalone="no"?>
<!DOCTYPE svg PUBLIC "-//W3C//DTD SVG 1.1//EN"
  "http://www.w3.org/Graphics/SVG/1.1/DTD/svg11.dtd">
<!-- Created with matplotlib (http://matplotlib.org/) -->
<svg height="345.6pt" version="1.1" viewBox="0 0 460.8 345.6" width="460.8pt" xmlns="http://www.w3.org/2000/svg" xmlns:xlink="http://www.w3.org/1999/xlink">
 <defs>
  <style type="text/css">
*{stroke-linecap:butt;stroke-linejoin:round;}
  </style>
 </defs>
 <g id="figure_1">
  <g id="patch_1">
   <path d="M 0 345.6 
L 460.8 345.6 
L 460.8 0 
L 0 0 
z
" style="fill:#ffffff;"/>
  </g>
  <g id="axes_1">
   <g id="patch_2">
    <path d="M 92.16 276.48 
L 437.76 276.48 
L 437.76 27.648 
L 92.16 27.648 
z
" style="fill:#ffffff;"/>
   </g>
   <g id="matplotlib.axis_1">
    <g id="xtick_1">
     <g id="line2d_1">
      <defs>
       <path d="M 0 0 
L 0 3.5 
" id="mab240da663" style="stroke:#262626;stroke-width:0.8;"/>
      </defs>
      <g>
       <use style="fill:#262626;stroke:#262626;stroke-width:0.8;" x="102.324706" xlink:href="#mab240da663" y="276.48"/>
      </g>
     </g>
     <g id="text_1">
      <text style="fill:#262626;font-family:DejaVu Sans;font-size:20px;font-style:normal;font-weight:normal;text-anchor:middle;" transform="rotate(-0, 102.324706, 298.676875)" x="102.324706" y="298.676875">0</text>
     </g>
    </g>
    <g id="xtick_2">
     <g id="line2d_2">
      <g>
       <use style="fill:#262626;stroke:#262626;stroke-width:0.8;" x="203.971765" xlink:href="#mab240da663" y="276.48"/>
      </g>
     </g>
     <g id="text_2">
      <text style="fill:#262626;font-family:DejaVu Sans;font-size:20px;font-style:normal;font-weight:normal;text-anchor:middle;" transform="rotate(-0, 203.971765, 298.676875)" x="203.971765" y="298.676875">5</text>
     </g>
    </g>
    <g id="xtick_3">
     <g id="line2d_3">
      <g>
       <use style="fill:#262626;stroke:#262626;stroke-width:0.8;" x="305.618824" xlink:href="#mab240da663" y="276.48"/>
      </g>
     </g>
     <g id="text_3">
      <text style="fill:#262626;font-family:DejaVu Sans;font-size:20px;font-style:normal;font-weight:normal;text-anchor:middle;" transform="rotate(-0, 305.618824, 298.676875)" x="305.618824" y="298.676875">10</text>
     </g>
    </g>
    <g id="xtick_4">
     <g id="line2d_4">
      <g>
       <use style="fill:#262626;stroke:#262626;stroke-width:0.8;" x="407.265882" xlink:href="#mab240da663" y="276.48"/>
      </g>
     </g>
     <g id="text_4">
      <text style="fill:#262626;font-family:DejaVu Sans;font-size:20px;font-style:normal;font-weight:normal;text-anchor:middle;" transform="rotate(-0, 407.265882, 298.676875)" x="407.265882" y="298.676875">15</text>
     </g>
    </g>
    <g id="text_5">
     <text style="fill:#262626;font-family:DejaVu Sans;font-size:20px;font-style:normal;font-weight:normal;text-anchor:middle;" transform="rotate(-0, 264.96, 322.033125)" x="264.96" y="322.033125">D 3' deletion</text>
    </g>
   </g>
   <g id="matplotlib.axis_2">
    <g id="ytick_1">
     <g id="line2d_5">
      <defs>
       <path d="M 0 0 
L -3.5 0 
" id="md468a92d74" style="stroke:#262626;stroke-width:0.8;"/>
      </defs>
      <g>
       <use style="fill:#262626;stroke:#262626;stroke-width:0.8;" x="92.16" xlink:href="#md468a92d74" y="270.153763"/>
      </g>
     </g>
     <g id="text_6">
      <text style="fill:#262626;font-family:DejaVu Sans;font-size:20px;font-style:normal;font-weight:normal;text-anchor:end;" transform="rotate(-0, 85.16, 277.7522)" x="85.16" y="277.7522">0.0</text>
     </g>
    </g>
    <g id="ytick_2">
     <g id="line2d_6">
      <g>
       <use style="fill:#262626;stroke:#262626;stroke-width:0.8;" x="92.16" xlink:href="#md468a92d74" y="217.435119"/>
      </g>
     </g>
     <g id="text_7">
      <text style="fill:#262626;font-family:DejaVu Sans;font-size:20px;font-style:normal;font-weight:normal;text-anchor:end;" transform="rotate(-0, 85.16, 225.033556)" x="85.16" y="225.033556">0.5</text>
     </g>
    </g>
    <g id="ytick_3">
     <g id="line2d_7">
      <g>
       <use style="fill:#262626;stroke:#262626;stroke-width:0.8;" x="92.16" xlink:href="#md468a92d74" y="164.716475"/>
      </g>
     </g>
     <g id="text_8">
      <text style="fill:#262626;font-family:DejaVu Sans;font-size:20px;font-style:normal;font-weight:normal;text-anchor:end;" transform="rotate(-0, 85.16, 172.314912)" x="85.16" y="172.314912">1.0</text>
     </g>
    </g>
    <g id="ytick_4">
     <g id="line2d_8">
      <g>
       <use style="fill:#262626;stroke:#262626;stroke-width:0.8;" x="92.16" xlink:href="#md468a92d74" y="111.997831"/>
      </g>
     </g>
     <g id="text_9">
      <text style="fill:#262626;font-family:DejaVu Sans;font-size:20px;font-style:normal;font-weight:normal;text-anchor:end;" transform="rotate(-0, 85.16, 119.596268)" x="85.16" y="119.596268">1.5</text>
     </g>
    </g>
    <g id="ytick_5">
     <g id="line2d_9">
      <g>
       <use style="fill:#262626;stroke:#262626;stroke-width:0.8;" x="92.16" xlink:href="#md468a92d74" y="59.279186"/>
      </g>
     </g>
     <g id="text_10">
      <text style="fill:#262626;font-family:DejaVu Sans;font-size:20px;font-style:normal;font-weight:normal;text-anchor:end;" transform="rotate(-0, 85.16, 66.877624)" x="85.16" y="66.877624">2.0</text>
     </g>
    </g>
    <g id="text_11">
     <text style="fill:#262626;font-family:DejaVu Sans;font-size:20px;font-style:normal;font-weight:normal;text-anchor:middle;" transform="rotate(-90, 45.194375, 152.064)" x="45.194375" y="152.064">counts</text>
    </g>
   </g>
   <g id="LineCollection_1">
    <path clip-path="url(#pd98538987f)" d="M 102.324706 208.390029 
L 102.324706 -1 
" style="fill:none;stroke:#4169e1;stroke-width:3;"/>
    <path clip-path="url(#pd98538987f)" d="M 122.654118 270.153763 
L 122.654118 270.153763 
" style="fill:none;stroke:#4169e1;stroke-width:3;"/>
    <path clip-path="url(#pd98538987f)" d="M 142.983529 270.153763 
L 142.983529 270.153763 
" style="fill:none;stroke:#4169e1;stroke-width:3;"/>
    <path clip-path="url(#pd98538987f)" d="M 163.312941 270.153763 
L 163.312941 270.153763 
" style="fill:none;stroke:#4169e1;stroke-width:3;"/>
    <path clip-path="url(#pd98538987f)" d="M 183.642353 270.153763 
L 183.642353 270.153763 
" style="fill:none;stroke:#4169e1;stroke-width:3;"/>
    <path clip-path="url(#pd98538987f)" d="M 203.971765 270.153763 
L 203.971765 270.153763 
" style="fill:none;stroke:#4169e1;stroke-width:3;"/>
    <path clip-path="url(#pd98538987f)" d="M 224.301176 270.153763 
L 224.301176 270.153763 
" style="fill:none;stroke:#4169e1;stroke-width:3;"/>
    <path clip-path="url(#pd98538987f)" d="M 244.630588 270.153763 
L 244.630588 270.153763 
" style="fill:none;stroke:#4169e1;stroke-width:3;"/>
    <path clip-path="url(#pd98538987f)" d="M 264.96 270.153763 
L 264.96 270.153763 
" style="fill:none;stroke:#4169e1;stroke-width:3;"/>
    <path clip-path="url(#pd98538987f)" d="M 285.289412 270.153763 
L 285.289412 270.153763 
" style="fill:none;stroke:#4169e1;stroke-width:3;"/>
    <path clip-path="url(#pd98538987f)" d="M 305.618824 270.153763 
L 305.618824 59.279186 
" style="fill:none;stroke:#4169e1;stroke-width:3;"/>
    <path clip-path="url(#pd98538987f)" d="M 325.948235 270.153763 
L 325.948235 270.153763 
" style="fill:none;stroke:#4169e1;stroke-width:3;"/>
    <path clip-path="url(#pd98538987f)" d="M 346.277647 270.153763 
L 346.277647 270.153763 
" style="fill:none;stroke:#4169e1;stroke-width:3;"/>
    <path clip-path="url(#pd98538987f)" d="M 366.607059 270.153763 
L 366.607059 270.153763 
" style="fill:none;stroke:#4169e1;stroke-width:3;"/>
    <path clip-path="url(#pd98538987f)" d="M 386.936471 270.153763 
L 386.936471 270.153763 
" style="fill:none;stroke:#4169e1;stroke-width:3;"/>
    <path clip-path="url(#pd98538987f)" d="M 407.265882 270.153763 
L 407.265882 270.153763 
" style="fill:none;stroke:#4169e1;stroke-width:3;"/>
    <path clip-path="url(#pd98538987f)" d="M 427.595294 270.153763 
L 427.595294 59.279186 
" style="fill:none;stroke:#4169e1;stroke-width:3;"/>
   </g>
   <g id="line2d_10">
    <path clip-path="url(#pd98538987f)" d="M 102.324706 59.279186 
L 122.654118 270.153763 
L 142.983529 270.153763 
L 163.312941 270.153763 
L 183.642353 270.153763 
L 203.971765 270.153763 
L 224.301176 270.153763 
L 244.630588 270.153763 
L 264.96 270.153763 
L 285.289412 270.153763 
L 305.618824 164.716475 
L 325.948235 270.153763 
L 346.277647 270.153763 
L 366.607059 270.153763 
L 386.936471 270.153763 
L 407.265882 270.153763 
L 427.595294 164.716475 
" style="fill:none;stroke:#4169e1;stroke-linecap:round;stroke-width:3;"/>
    <defs>
     <path d="M 0 3.25 
C 0.86191 3.25 1.688635 2.907559 2.298097 2.298097 
C 2.907559 1.688635 3.25 0.86191 3.25 0 
C 3.25 -0.86191 2.907559 -1.688635 2.298097 -2.298097 
C 1.688635 -2.907559 0.86191 -3.25 0 -3.25 
C -0.86191 -3.25 -1.688635 -2.907559 -2.298097 -2.298097 
C -2.907559 -1.688635 -3.25 -0.86191 -3.25 0 
C -3.25 0.86191 -2.907559 1.688635 -2.298097 2.298097 
C -1.688635 2.907559 -0.86191 3.25 0 3.25 
z
" id="m01a6410a8d" style="stroke:#4169e1;"/>
    </defs>
    <g clip-path="url(#pd98538987f)">
     <use style="fill:#4169e1;stroke:#4169e1;" x="102.324706" xlink:href="#m01a6410a8d" y="59.279186"/>
     <use style="fill:#4169e1;stroke:#4169e1;" x="122.654118" xlink:href="#m01a6410a8d" y="270.153763"/>
     <use style="fill:#4169e1;stroke:#4169e1;" x="142.983529" xlink:href="#m01a6410a8d" y="270.153763"/>
     <use style="fill:#4169e1;stroke:#4169e1;" x="163.312941" xlink:href="#m01a6410a8d" y="270.153763"/>
     <use style="fill:#4169e1;stroke:#4169e1;" x="183.642353" xlink:href="#m01a6410a8d" y="270.153763"/>
     <use style="fill:#4169e1;stroke:#4169e1;" x="203.971765" xlink:href="#m01a6410a8d" y="270.153763"/>
     <use style="fill:#4169e1;stroke:#4169e1;" x="224.301176" xlink:href="#m01a6410a8d" y="270.153763"/>
     <use style="fill:#4169e1;stroke:#4169e1;" x="244.630588" xlink:href="#m01a6410a8d" y="270.153763"/>
     <use style="fill:#4169e1;stroke:#4169e1;" x="264.96" xlink:href="#m01a6410a8d" y="270.153763"/>
     <use style="fill:#4169e1;stroke:#4169e1;" x="285.289412" xlink:href="#m01a6410a8d" y="270.153763"/>
     <use style="fill:#4169e1;stroke:#4169e1;" x="305.618824" xlink:href="#m01a6410a8d" y="164.716475"/>
     <use style="fill:#4169e1;stroke:#4169e1;" x="325.948235" xlink:href="#m01a6410a8d" y="270.153763"/>
     <use style="fill:#4169e1;stroke:#4169e1;" x="346.277647" xlink:href="#m01a6410a8d" y="270.153763"/>
     <use style="fill:#4169e1;stroke:#4169e1;" x="366.607059" xlink:href="#m01a6410a8d" y="270.153763"/>
     <use style="fill:#4169e1;stroke:#4169e1;" x="386.936471" xlink:href="#m01a6410a8d" y="270.153763"/>
     <use style="fill:#4169e1;stroke:#4169e1;" x="407.265882" xlink:href="#m01a6410a8d" y="270.153763"/>
     <use style="fill:#4169e1;stroke:#4169e1;" x="427.595294" xlink:href="#m01a6410a8d" y="164.716475"/>
    </g>
   </g>
   <g id="patch_3">
    <path d="M 92.16 276.48 
L 92.16 27.648 
" style="fill:none;stroke:#262626;stroke-linecap:square;stroke-linejoin:miter;stroke-width:0.8;"/>
   </g>
   <g id="patch_4">
    <path d="M 92.16 276.48 
L 437.76 276.48 
" style="fill:none;stroke:#262626;stroke-linecap:square;stroke-linejoin:miter;stroke-width:0.8;"/>
   </g>
   <g id="text_12">
    <text style="fill:#262626;font-family:DejaVu Sans;font-size:20px;font-style:normal;font-weight:bold;text-anchor:middle;" transform="rotate(-0, 264.96, 21.648)" x="264.96" y="21.648">IGHD2-15*01</text>
   </g>
  </g>
 </g>
 <defs>
  <clipPath id="pd98538987f">
   <rect height="248.832" width="345.6" x="92.16" y="27.648"/>
  </clipPath>
 </defs>
</svg>
