<?xml version="1.0" encoding="utf-8" standalone="no"?>
<!DOCTYPE svg PUBLIC "-//W3C//DTD SVG 1.1//EN"
  "http://www.w3.org/Graphics/SVG/1.1/DTD/svg11.dtd">
<!-- Created with matplotlib (http://matplotlib.org/) -->
<svg height="345.6pt" version="1.1" viewBox="0 0 460.8 345.6" width="460.8pt" xmlns="http://www.w3.org/2000/svg" xmlns:xlink="http://www.w3.org/1999/xlink">
 <defs>
  <style type="text/css">
*{stroke-linecap:butt;stroke-linejoin:round;}
  </style>
 </defs>
 <g id="figure_1">
  <g id="patch_1">
   <path d="M 0 345.6 
L 460.8 345.6 
L 460.8 0 
L 0 0 
z
" style="fill:#ffffff;"/>
  </g>
  <g id="axes_1">
   <g id="patch_2">
    <path d="M 92.16 276.48 
L 437.76 276.48 
L 437.76 27.648 
L 92.16 27.648 
z
" style="fill:#ffffff;"/>
   </g>
   <g id="matplotlib.axis_1">
    <g id="xtick_1">
     <g id="line2d_1">
      <defs>
       <path d="M 0 0 
L 0 3.5 
" id="m0ada56cf65" style="stroke:#262626;stroke-width:0.8;"/>
      </defs>
      <g>
       <use style="fill:#262626;stroke:#262626;stroke-width:0.8;" x="100.8" xlink:href="#m0ada56cf65" y="276.48"/>
      </g>
     </g>
     <g id="text_1">
      <text style="fill:#262626;font-family:DejaVu Sans;font-size:20px;font-style:normal;font-weight:normal;text-anchor:middle;" transform="rotate(-0, 100.8, 298.676875)" x="100.8" y="298.676875">10</text>
     </g>
    </g>
    <g id="xtick_2">
     <g id="line2d_2">
      <g>
       <use style="fill:#262626;stroke:#262626;stroke-width:0.8;" x="187.2" xlink:href="#m0ada56cf65" y="276.48"/>
      </g>
     </g>
     <g id="text_2">
      <text style="fill:#262626;font-family:DejaVu Sans;font-size:20px;font-style:normal;font-weight:normal;text-anchor:middle;" transform="rotate(-0, 187.2, 298.676875)" x="187.2" y="298.676875">15</text>
     </g>
    </g>
    <g id="xtick_3">
     <g id="line2d_3">
      <g>
       <use style="fill:#262626;stroke:#262626;stroke-width:0.8;" x="273.6" xlink:href="#m0ada56cf65" y="276.48"/>
      </g>
     </g>
     <g id="text_3">
      <text style="fill:#262626;font-family:DejaVu Sans;font-size:20px;font-style:normal;font-weight:normal;text-anchor:middle;" transform="rotate(-0, 273.6, 298.676875)" x="273.6" y="298.676875">20</text>
     </g>
    </g>
    <g id="xtick_4">
     <g id="line2d_4">
      <g>
       <use style="fill:#262626;stroke:#262626;stroke-width:0.8;" x="360" xlink:href="#m0ada56cf65" y="276.48"/>
      </g>
     </g>
     <g id="text_4">
      <text style="fill:#262626;font-family:DejaVu Sans;font-size:20px;font-style:normal;font-weight:normal;text-anchor:middle;" transform="rotate(-0, 360, 298.676875)" x="360" y="298.676875">25</text>
     </g>
    </g>
    <g id="text_5">
     <text style="fill:#262626;font-family:DejaVu Sans;font-size:20px;font-style:normal;font-weight:normal;text-anchor:middle;" transform="rotate(-0, 264.96, 322.033125)" x="264.96" y="322.033125">amino acids</text>
    </g>
   </g>
   <g id="matplotlib.axis_2">
    <g id="ytick_1">
     <g id="line2d_5">
      <defs>
       <path d="M 0 0 
L -3.5 0 
" id="m20850d8f9f" style="stroke:#262626;stroke-width:0.8;"/>
      </defs>
      <g>
       <use style="fill:#262626;stroke:#262626;stroke-width:0.8;" x="92.16" xlink:href="#m20850d8f9f" y="270.153763"/>
      </g>
     </g>
     <g id="text_6">
      <text style="fill:#262626;font-family:DejaVu Sans;font-size:20px;font-style:normal;font-weight:normal;text-anchor:end;" transform="rotate(-0, 85.16, 277.7522)" x="85.16" y="277.7522">0.00</text>
     </g>
    </g>
    <g id="ytick_2">
     <g id="line2d_6">
      <g>
       <use style="fill:#262626;stroke:#262626;stroke-width:0.8;" x="92.16" xlink:href="#m20850d8f9f" y="215.175748"/>
      </g>
     </g>
     <g id="text_7">
      <text style="fill:#262626;font-family:DejaVu Sans;font-size:20px;font-style:normal;font-weight:normal;text-anchor:end;" transform="rotate(-0, 85.16, 222.774186)" x="85.16" y="222.774186">0.05</text>
     </g>
    </g>
    <g id="ytick_3">
     <g id="line2d_7">
      <g>
       <use style="fill:#262626;stroke:#262626;stroke-width:0.8;" x="92.16" xlink:href="#m20850d8f9f" y="160.197734"/>
      </g>
     </g>
     <g id="text_8">
      <text style="fill:#262626;font-family:DejaVu Sans;font-size:20px;font-style:normal;font-weight:normal;text-anchor:end;" transform="rotate(-0, 85.16, 167.796171)" x="85.16" y="167.796171">0.10</text>
     </g>
    </g>
    <g id="ytick_4">
     <g id="line2d_8">
      <g>
       <use style="fill:#262626;stroke:#262626;stroke-width:0.8;" x="92.16" xlink:href="#m20850d8f9f" y="105.219719"/>
      </g>
     </g>
     <g id="text_9">
      <text style="fill:#262626;font-family:DejaVu Sans;font-size:20px;font-style:normal;font-weight:normal;text-anchor:end;" transform="rotate(-0, 85.16, 112.818157)" x="85.16" y="112.818157">0.15</text>
     </g>
    </g>
    <g id="ytick_5">
     <g id="line2d_9">
      <g>
       <use style="fill:#262626;stroke:#262626;stroke-width:0.8;" x="92.16" xlink:href="#m20850d8f9f" y="50.241705"/>
      </g>
     </g>
     <g id="text_10">
      <text style="fill:#262626;font-family:DejaVu Sans;font-size:20px;font-style:normal;font-weight:normal;text-anchor:end;" transform="rotate(-0, 85.16, 57.840142)" x="85.16" y="57.840142">0.20</text>
     </g>
    </g>
    <g id="text_11">
     <text style="fill:#262626;font-family:DejaVu Sans;font-size:20px;font-style:normal;font-weight:normal;text-anchor:middle;" transform="rotate(-90, 32.469375, 152.064)" x="32.469375" y="152.064">freq (73 total)</text>
    </g>
   </g>
   <g id="LineCollection_1">
    <path clip-path="url(#p71dec114ff)" d="M 100.8 270.153763 
L 100.8 240.028823 
" style="fill:none;stroke:#4169e1;stroke-width:3;"/>
    <path clip-path="url(#p71dec114ff)" d="M 118.08 270.153763 
L 118.08 270.153763 
" style="fill:none;stroke:#4169e1;stroke-width:3;"/>
    <path clip-path="url(#p71dec114ff)" d="M 135.36 251.055316 
L 135.36 198.877391 
" style="fill:none;stroke:#4169e1;stroke-width:3;"/>
    <path clip-path="url(#p71dec114ff)" d="M 152.64 270.153763 
L 152.64 240.028823 
" style="fill:none;stroke:#4169e1;stroke-width:3;"/>
    <path clip-path="url(#p71dec114ff)" d="M 169.92 240.028823 
L 169.92 179.778944 
" style="fill:none;stroke:#4169e1;stroke-width:3;"/>
    <path clip-path="url(#p71dec114ff)" d="M 187.2 228.52212 
L 187.2 161.160708 
" style="fill:none;stroke:#4169e1;stroke-width:3;"/>
    <path clip-path="url(#p71dec114ff)" d="M 204.48 179.778944 
L 204.48 89.404126 
" style="fill:none;stroke:#4169e1;stroke-width:3;"/>
    <path clip-path="url(#p71dec114ff)" d="M 221.76 251.055316 
L 221.76 198.877391 
" style="fill:none;stroke:#4169e1;stroke-width:3;"/>
    <path clip-path="url(#p71dec114ff)" d="M 239.04 179.778944 
L 239.04 89.404126 
" style="fill:none;stroke:#4169e1;stroke-width:3;"/>
    <path clip-path="url(#p71dec114ff)" d="M 256.32 115.637788 
L 256.32 2.920585 
" style="fill:none;stroke:#4169e1;stroke-width:3;"/>
    <path clip-path="url(#p71dec114ff)" d="M 273.6 216.674309 
L 273.6 142.883579 
" style="fill:none;stroke:#4169e1;stroke-width:3;"/>
    <path clip-path="url(#p71dec114ff)" d="M 290.88 228.52212 
L 290.88 161.160708 
" style="fill:none;stroke:#4169e1;stroke-width:3;"/>
    <path clip-path="url(#p71dec114ff)" d="M 308.16 240.028823 
L 308.16 179.778944 
" style="fill:none;stroke:#4169e1;stroke-width:3;"/>
    <path clip-path="url(#p71dec114ff)" d="M 325.44 261.330372 
L 325.44 218.727274 
" style="fill:none;stroke:#4169e1;stroke-width:3;"/>
    <path clip-path="url(#p71dec114ff)" d="M 342.72 251.055316 
L 342.72 198.877391 
" style="fill:none;stroke:#4169e1;stroke-width:3;"/>
    <path clip-path="url(#p71dec114ff)" d="M 360 261.330372 
L 360 218.727274 
" style="fill:none;stroke:#4169e1;stroke-width:3;"/>
    <path clip-path="url(#p71dec114ff)" d="M 377.28 270.153763 
L 377.28 270.153763 
" style="fill:none;stroke:#4169e1;stroke-width:3;"/>
    <path clip-path="url(#p71dec114ff)" d="M 394.56 270.153763 
L 394.56 240.028823 
" style="fill:none;stroke:#4169e1;stroke-width:3;"/>
    <path clip-path="url(#p71dec114ff)" d="M 411.84 270.153763 
L 411.84 270.153763 
" style="fill:none;stroke:#4169e1;stroke-width:3;"/>
    <path clip-path="url(#p71dec114ff)" d="M 429.12 270.153763 
L 429.12 240.028823 
" style="fill:none;stroke:#4169e1;stroke-width:3;"/>
   </g>
   <g id="line2d_10">
    <path clip-path="url(#p71dec114ff)" d="M 100.8 255.091293 
L 118.08 270.153763 
L 135.36 224.966354 
L 152.64 255.091293 
L 169.92 209.903884 
L 187.2 194.841414 
L 204.48 134.591535 
L 221.76 224.966354 
L 239.04 134.591535 
L 256.32 59.279186 
L 273.6 179.778944 
L 290.88 194.841414 
L 308.16 209.903884 
L 325.44 240.028823 
L 342.72 224.966354 
L 360 240.028823 
L 377.28 270.153763 
L 394.56 255.091293 
L 411.84 270.153763 
L 429.12 255.091293 
" style="fill:none;stroke:#4169e1;stroke-linecap:round;stroke-width:3;"/>
    <defs>
     <path d="M 0 3.25 
C 0.86191 3.25 1.688635 2.907559 2.298097 2.298097 
C 2.907559 1.688635 3.25 0.86191 3.25 0 
C 3.25 -0.86191 2.907559 -1.688635 2.298097 -2.298097 
C 1.688635 -2.907559 0.86191 -3.25 0 -3.25 
C -0.86191 -3.25 -1.688635 -2.907559 -2.298097 -2.298097 
C -2.907559 -1.688635 -3.25 -0.86191 -3.25 0 
C -3.25 0.86191 -2.907559 1.688635 -2.298097 2.298097 
C -1.688635 2.907559 -0.86191 3.25 0 3.25 
z
" id="m1a94d5e9d1" style="stroke:#4169e1;"/>
    </defs>
    <g clip-path="url(#p71dec114ff)">
     <use style="fill:#4169e1;stroke:#4169e1;" x="100.8" xlink:href="#m1a94d5e9d1" y="255.091293"/>
     <use style="fill:#4169e1;stroke:#4169e1;" x="118.08" xlink:href="#m1a94d5e9d1" y="270.153763"/>
     <use style="fill:#4169e1;stroke:#4169e1;" x="135.36" xlink:href="#m1a94d5e9d1" y="224.966354"/>
     <use style="fill:#4169e1;stroke:#4169e1;" x="152.64" xlink:href="#m1a94d5e9d1" y="255.091293"/>
     <use style="fill:#4169e1;stroke:#4169e1;" x="169.92" xlink:href="#m1a94d5e9d1" y="209.903884"/>
     <use style="fill:#4169e1;stroke:#4169e1;" x="187.2" xlink:href="#m1a94d5e9d1" y="194.841414"/>
     <use style="fill:#4169e1;stroke:#4169e1;" x="204.48" xlink:href="#m1a94d5e9d1" y="134.591535"/>
     <use style="fill:#4169e1;stroke:#4169e1;" x="221.76" xlink:href="#m1a94d5e9d1" y="224.966354"/>
     <use style="fill:#4169e1;stroke:#4169e1;" x="239.04" xlink:href="#m1a94d5e9d1" y="134.591535"/>
     <use style="fill:#4169e1;stroke:#4169e1;" x="256.32" xlink:href="#m1a94d5e9d1" y="59.279186"/>
     <use style="fill:#4169e1;stroke:#4169e1;" x="273.6" xlink:href="#m1a94d5e9d1" y="179.778944"/>
     <use style="fill:#4169e1;stroke:#4169e1;" x="290.88" xlink:href="#m1a94d5e9d1" y="194.841414"/>
     <use style="fill:#4169e1;stroke:#4169e1;" x="308.16" xlink:href="#m1a94d5e9d1" y="209.903884"/>
     <use style="fill:#4169e1;stroke:#4169e1;" x="325.44" xlink:href="#m1a94d5e9d1" y="240.028823"/>
     <use style="fill:#4169e1;stroke:#4169e1;" x="342.72" xlink:href="#m1a94d5e9d1" y="224.966354"/>
     <use style="fill:#4169e1;stroke:#4169e1;" x="360" xlink:href="#m1a94d5e9d1" y="240.028823"/>
     <use style="fill:#4169e1;stroke:#4169e1;" x="377.28" xlink:href="#m1a94d5e9d1" y="270.153763"/>
     <use style="fill:#4169e1;stroke:#4169e1;" x="394.56" xlink:href="#m1a94d5e9d1" y="255.091293"/>
     <use style="fill:#4169e1;stroke:#4169e1;" x="411.84" xlink:href="#m1a94d5e9d1" y="270.153763"/>
     <use style="fill:#4169e1;stroke:#4169e1;" x="429.12" xlink:href="#m1a94d5e9d1" y="255.091293"/>
    </g>
   </g>
   <g id="patch_3">
    <path d="M 92.16 276.48 
L 92.16 27.648 
" style="fill:none;stroke:#262626;stroke-linecap:square;stroke-linejoin:miter;stroke-width:0.8;"/>
   </g>
   <g id="patch_4">
    <path d="M 92.16 276.48 
L 437.76 276.48 
" style="fill:none;stroke:#262626;stroke-linecap:square;stroke-linejoin:miter;stroke-width:0.8;"/>
   </g>
   <g id="text_12">
    <text style="fill:#262626;font-family:DejaVu Sans;font-size:15px;font-style:normal;font-weight:bold;text-anchor:middle;" transform="rotate(-0, 264.96, 21.648)" x="264.96" y="21.648">AA CDR3 length (mean 18.5)</text>
   </g>
  </g>
 </g>
 <defs>
  <clipPath id="p71dec114ff">
   <rect height="248.832" width="345.6" x="92.16" y="27.648"/>
  </clipPath>
 </defs>
</svg>
