<?xml version="1.0" encoding="utf-8" standalone="no"?>
<!DOCTYPE svg PUBLIC "-//W3C//DTD SVG 1.1//EN"
  "http://www.w3.org/Graphics/SVG/1.1/DTD/svg11.dtd">
<!-- Created with matplotlib (http://matplotlib.org/) -->
<svg height="345.6pt" version="1.1" viewBox="0 0 460.8 345.6" width="460.8pt" xmlns="http://www.w3.org/2000/svg" xmlns:xlink="http://www.w3.org/1999/xlink">
 <defs>
  <style type="text/css">
*{stroke-linecap:butt;stroke-linejoin:round;}
  </style>
 </defs>
 <g id="figure_1">
  <g id="patch_1">
   <path d="M 0 345.6 
L 460.8 345.6 
L 460.8 0 
L 0 0 
z
" style="fill:#ffffff;"/>
  </g>
  <g id="axes_1">
   <g id="patch_2">
    <path d="M 92.16 276.48 
L 437.76 276.48 
L 437.76 27.648 
L 92.16 27.648 
z
" style="fill:#ffffff;"/>
   </g>
   <g id="matplotlib.axis_1">
    <g id="xtick_1">
     <g id="line2d_1">
      <defs>
       <path d="M 0 0 
L 0 3.5 
" id="m5f923c5933" style="stroke:#262626;stroke-width:0.8;"/>
      </defs>
      <g>
       <use style="fill:#262626;stroke:#262626;stroke-width:0.8;" x="102.324706" xlink:href="#m5f923c5933" y="276.48"/>
      </g>
     </g>
     <g id="text_1">
      <text style="fill:#262626;font-family:DejaVu Sans;font-size:20px;font-style:normal;font-weight:normal;text-anchor:middle;" transform="rotate(-0, 102.324706, 298.676875)" x="102.324706" y="298.676875">0</text>
     </g>
    </g>
    <g id="xtick_2">
     <g id="line2d_2">
      <g>
       <use style="fill:#262626;stroke:#262626;stroke-width:0.8;" x="203.971765" xlink:href="#m5f923c5933" y="276.48"/>
      </g>
     </g>
     <g id="text_2">
      <text style="fill:#262626;font-family:DejaVu Sans;font-size:20px;font-style:normal;font-weight:normal;text-anchor:middle;" transform="rotate(-0, 203.971765, 298.676875)" x="203.971765" y="298.676875">5</text>
     </g>
    </g>
    <g id="xtick_3">
     <g id="line2d_3">
      <g>
       <use style="fill:#262626;stroke:#262626;stroke-width:0.8;" x="305.618824" xlink:href="#m5f923c5933" y="276.48"/>
      </g>
     </g>
     <g id="text_3">
      <text style="fill:#262626;font-family:DejaVu Sans;font-size:20px;font-style:normal;font-weight:normal;text-anchor:middle;" transform="rotate(-0, 305.618824, 298.676875)" x="305.618824" y="298.676875">10</text>
     </g>
    </g>
    <g id="xtick_4">
     <g id="line2d_4">
      <g>
       <use style="fill:#262626;stroke:#262626;stroke-width:0.8;" x="407.265882" xlink:href="#m5f923c5933" y="276.48"/>
      </g>
     </g>
     <g id="text_4">
      <text style="fill:#262626;font-family:DejaVu Sans;font-size:20px;font-style:normal;font-weight:normal;text-anchor:middle;" transform="rotate(-0, 407.265882, 298.676875)" x="407.265882" y="298.676875">15</text>
     </g>
    </g>
    <g id="text_5">
     <text style="fill:#262626;font-family:DejaVu Sans;font-size:20px;font-style:normal;font-weight:normal;text-anchor:middle;" transform="rotate(-0, 264.96, 322.033125)" x="264.96" y="322.033125">bases</text>
    </g>
   </g>
   <g id="matplotlib.axis_2">
    <g id="ytick_1">
     <g id="line2d_5">
      <defs>
       <path d="M 0 0 
L -3.5 0 
" id="m383351b63b" style="stroke:#262626;stroke-width:0.8;"/>
      </defs>
      <g>
       <use style="fill:#262626;stroke:#262626;stroke-width:0.8;" x="92.16" xlink:href="#m383351b63b" y="270.153763"/>
      </g>
     </g>
     <g id="text_6">
      <text style="fill:#262626;font-family:DejaVu Sans;font-size:20px;font-style:normal;font-weight:normal;text-anchor:end;" transform="rotate(-0, 85.16, 277.7522)" x="85.16" y="277.7522">0.0</text>
     </g>
    </g>
    <g id="ytick_2">
     <g id="line2d_6">
      <g>
       <use style="fill:#262626;stroke:#262626;stroke-width:0.8;" x="92.16" xlink:href="#m383351b63b" y="208.578386"/>
      </g>
     </g>
     <g id="text_7">
      <text style="fill:#262626;font-family:DejaVu Sans;font-size:20px;font-style:normal;font-weight:normal;text-anchor:end;" transform="rotate(-0, 85.16, 216.176824)" x="85.16" y="216.176824">0.1</text>
     </g>
    </g>
    <g id="ytick_3">
     <g id="line2d_7">
      <g>
       <use style="fill:#262626;stroke:#262626;stroke-width:0.8;" x="92.16" xlink:href="#m383351b63b" y="147.00301"/>
      </g>
     </g>
     <g id="text_8">
      <text style="fill:#262626;font-family:DejaVu Sans;font-size:20px;font-style:normal;font-weight:normal;text-anchor:end;" transform="rotate(-0, 85.16, 154.601448)" x="85.16" y="154.601448">0.2</text>
     </g>
    </g>
    <g id="ytick_4">
     <g id="line2d_8">
      <g>
       <use style="fill:#262626;stroke:#262626;stroke-width:0.8;" x="92.16" xlink:href="#m383351b63b" y="85.427634"/>
      </g>
     </g>
     <g id="text_9">
      <text style="fill:#262626;font-family:DejaVu Sans;font-size:20px;font-style:normal;font-weight:normal;text-anchor:end;" transform="rotate(-0, 85.16, 93.026071)" x="85.16" y="93.026071">0.3</text>
     </g>
    </g>
    <g id="text_10">
     <text style="fill:#262626;font-family:DejaVu Sans;font-size:20px;font-style:normal;font-weight:normal;text-anchor:middle;" transform="rotate(-90, 45.194375, 152.064)" x="45.194375" y="152.064">freq (73 total)</text>
    </g>
   </g>
   <g id="LineCollection_1">
    <path clip-path="url(#p39459953c4)" d="M 102.324706 101.454102 
L 102.324706 17.104271 
" style="fill:none;stroke:#4169e1;stroke-width:3;"/>
    <path clip-path="url(#p39459953c4)" d="M 122.654118 176.297566 
L 122.654118 110.960468 
" style="fill:none;stroke:#4169e1;stroke-width:3;"/>
    <path clip-path="url(#p39459953c4)" d="M 142.983529 226.531633 
L 142.983529 178.816163 
" style="fill:none;stroke:#4169e1;stroke-width:3;"/>
    <path clip-path="url(#p39459953c4)" d="M 163.312941 253.283797 
L 163.312941 219.543864 
" style="fill:none;stroke:#4169e1;stroke-width:3;"/>
    <path clip-path="url(#p39459953c4)" d="M 183.642353 233.425749 
L 183.642353 188.792014 
" style="fill:none;stroke:#4169e1;stroke-width:3;"/>
    <path clip-path="url(#p39459953c4)" d="M 203.971765 265.212664 
L 203.971765 241.354929 
" style="fill:none;stroke:#4169e1;stroke-width:3;"/>
    <path clip-path="url(#p39459953c4)" d="M 224.301176 265.212664 
L 224.301176 241.354929 
" style="fill:none;stroke:#4169e1;stroke-width:3;"/>
    <path clip-path="url(#p39459953c4)" d="M 244.630588 270.153763 
L 244.630588 270.153763 
" style="fill:none;stroke:#4169e1;stroke-width:3;"/>
    <path clip-path="url(#p39459953c4)" d="M 264.96 270.153763 
L 264.96 253.283797 
" style="fill:none;stroke:#4169e1;stroke-width:3;"/>
    <path clip-path="url(#p39459953c4)" d="M 285.289412 270.153763 
L 285.289412 253.283797 
" style="fill:none;stroke:#4169e1;stroke-width:3;"/>
    <path clip-path="url(#p39459953c4)" d="M 305.618824 259.458633 
L 305.618824 230.238994 
" style="fill:none;stroke:#4169e1;stroke-width:3;"/>
    <path clip-path="url(#p39459953c4)" d="M 325.948235 270.153763 
L 325.948235 270.153763 
" style="fill:none;stroke:#4169e1;stroke-width:3;"/>
    <path clip-path="url(#p39459953c4)" d="M 346.277647 270.153763 
L 346.277647 270.153763 
" style="fill:none;stroke:#4169e1;stroke-width:3;"/>
    <path clip-path="url(#p39459953c4)" d="M 366.607059 270.153763 
L 366.607059 253.283797 
" style="fill:none;stroke:#4169e1;stroke-width:3;"/>
    <path clip-path="url(#p39459953c4)" d="M 386.936471 270.153763 
L 386.936471 253.283797 
" style="fill:none;stroke:#4169e1;stroke-width:3;"/>
    <path clip-path="url(#p39459953c4)" d="M 407.265882 265.212664 
L 407.265882 241.354929 
" style="fill:none;stroke:#4169e1;stroke-width:3;"/>
    <path clip-path="url(#p39459953c4)" d="M 427.595294 270.153763 
L 427.595294 253.283797 
" style="fill:none;stroke:#4169e1;stroke-width:3;"/>
   </g>
   <g id="line2d_9">
    <path clip-path="url(#p39459953c4)" d="M 102.324706 59.279186 
L 122.654118 143.629017 
L 142.983529 202.673898 
L 163.312941 236.413831 
L 183.642353 211.108881 
L 203.971765 253.283797 
L 224.301176 253.283797 
L 244.630588 270.153763 
L 264.96 261.71878 
L 285.289412 261.71878 
L 305.618824 244.848814 
L 325.948235 270.153763 
L 346.277647 270.153763 
L 366.607059 261.71878 
L 386.936471 261.71878 
L 407.265882 253.283797 
L 427.595294 261.71878 
" style="fill:none;stroke:#4169e1;stroke-linecap:round;stroke-width:3;"/>
    <defs>
     <path d="M 0 3.25 
C 0.86191 3.25 1.688635 2.907559 2.298097 2.298097 
C 2.907559 1.688635 3.25 0.86191 3.25 0 
C 3.25 -0.86191 2.907559 -1.688635 2.298097 -2.298097 
C 1.688635 -2.907559 0.86191 -3.25 0 -3.25 
C -0.86191 -3.25 -1.688635 -2.907559 -2.298097 -2.298097 
C -2.907559 -1.688635 -3.25 -0.86191 -3.25 0 
C -3.25 0.86191 -2.907559 1.688635 -2.298097 2.298097 
C -1.688635 2.907559 -0.86191 3.25 0 3.25 
z
" id="m857e78bd5f" style="stroke:#4169e1;"/>
    </defs>
    <g clip-path="url(#p39459953c4)">
     <use style="fill:#4169e1;stroke:#4169e1;" x="102.324706" xlink:href="#m857e78bd5f" y="59.279186"/>
     <use style="fill:#4169e1;stroke:#4169e1;" x="122.654118" xlink:href="#m857e78bd5f" y="143.629017"/>
     <use style="fill:#4169e1;stroke:#4169e1;" x="142.983529" xlink:href="#m857e78bd5f" y="202.673898"/>
     <use style="fill:#4169e1;stroke:#4169e1;" x="163.312941" xlink:href="#m857e78bd5f" y="236.413831"/>
     <use style="fill:#4169e1;stroke:#4169e1;" x="183.642353" xlink:href="#m857e78bd5f" y="211.108881"/>
     <use style="fill:#4169e1;stroke:#4169e1;" x="203.971765" xlink:href="#m857e78bd5f" y="253.283797"/>
     <use style="fill:#4169e1;stroke:#4169e1;" x="224.301176" xlink:href="#m857e78bd5f" y="253.283797"/>
     <use style="fill:#4169e1;stroke:#4169e1;" x="244.630588" xlink:href="#m857e78bd5f" y="270.153763"/>
     <use style="fill:#4169e1;stroke:#4169e1;" x="264.96" xlink:href="#m857e78bd5f" y="261.71878"/>
     <use style="fill:#4169e1;stroke:#4169e1;" x="285.289412" xlink:href="#m857e78bd5f" y="261.71878"/>
     <use style="fill:#4169e1;stroke:#4169e1;" x="305.618824" xlink:href="#m857e78bd5f" y="244.848814"/>
     <use style="fill:#4169e1;stroke:#4169e1;" x="325.948235" xlink:href="#m857e78bd5f" y="270.153763"/>
     <use style="fill:#4169e1;stroke:#4169e1;" x="346.277647" xlink:href="#m857e78bd5f" y="270.153763"/>
     <use style="fill:#4169e1;stroke:#4169e1;" x="366.607059" xlink:href="#m857e78bd5f" y="261.71878"/>
     <use style="fill:#4169e1;stroke:#4169e1;" x="386.936471" xlink:href="#m857e78bd5f" y="261.71878"/>
     <use style="fill:#4169e1;stroke:#4169e1;" x="407.265882" xlink:href="#m857e78bd5f" y="253.283797"/>
     <use style="fill:#4169e1;stroke:#4169e1;" x="427.595294" xlink:href="#m857e78bd5f" y="261.71878"/>
    </g>
   </g>
   <g id="patch_3">
    <path d="M 92.16 276.48 
L 92.16 27.648 
" style="fill:none;stroke:#262626;stroke-linecap:square;stroke-linejoin:miter;stroke-width:0.8;"/>
   </g>
   <g id="patch_4">
    <path d="M 92.16 276.48 
L 437.76 276.48 
" style="fill:none;stroke:#262626;stroke-linecap:square;stroke-linejoin:miter;stroke-width:0.8;"/>
   </g>
   <g id="text_11">
    <text style="fill:#262626;font-family:DejaVu Sans;font-size:20px;font-style:normal;font-weight:bold;text-anchor:middle;" transform="rotate(-0, 264.96, 21.648)" x="264.96" y="21.648">D 3' deletion</text>
   </g>
  </g>
 </g>
 <defs>
  <clipPath id="p39459953c4">
   <rect height="248.832" width="345.6" x="92.16" y="27.648"/>
  </clipPath>
 </defs>
</svg>
