<?xml version="1.0" encoding="utf-8" standalone="no"?>
<!DOCTYPE svg PUBLIC "-//W3C//DTD SVG 1.1//EN"
  "http://www.w3.org/Graphics/SVG/1.1/DTD/svg11.dtd">
<!-- Created with matplotlib (http://matplotlib.org/) -->
<svg height="345.6pt" version="1.1" viewBox="0 0 460.8 345.6" width="460.8pt" xmlns="http://www.w3.org/2000/svg" xmlns:xlink="http://www.w3.org/1999/xlink">
 <defs>
  <style type="text/css">
*{stroke-linecap:butt;stroke-linejoin:round;}
  </style>
 </defs>
 <g id="figure_1">
  <g id="patch_1">
   <path d="M 0 345.6 
L 460.8 345.6 
L 460.8 0 
L 0 0 
z
" style="fill:#ffffff;"/>
  </g>
  <g id="axes_1">
   <g id="patch_2">
    <path d="M 92.16 276.48 
L 437.76 276.48 
L 437.76 27.648 
L 92.16 27.648 
z
" style="fill:#ffffff;"/>
   </g>
   <g id="matplotlib.axis_1">
    <g id="xtick_1">
     <g id="line2d_1">
      <defs>
       <path d="M 0 0 
L 0 3.5 
" id="m00a5df22ad" style="stroke:#262626;stroke-width:0.8;"/>
      </defs>
      <g>
       <use style="fill:#262626;stroke:#262626;stroke-width:0.8;" x="104.502857" xlink:href="#m00a5df22ad" y="276.48"/>
      </g>
     </g>
     <g id="text_1">
      <text style="fill:#262626;font-family:DejaVu Sans;font-size:20px;font-style:normal;font-weight:normal;text-anchor:middle;" transform="rotate(-0, 104.502857, 298.676875)" x="104.502857" y="298.676875">0</text>
     </g>
    </g>
    <g id="xtick_2">
     <g id="line2d_2">
      <g>
       <use style="fill:#262626;stroke:#262626;stroke-width:0.8;" x="227.931429" xlink:href="#m00a5df22ad" y="276.48"/>
      </g>
     </g>
     <g id="text_2">
      <text style="fill:#262626;font-family:DejaVu Sans;font-size:20px;font-style:normal;font-weight:normal;text-anchor:middle;" transform="rotate(-0, 227.931429, 298.676875)" x="227.931429" y="298.676875">5</text>
     </g>
    </g>
    <g id="xtick_3">
     <g id="line2d_3">
      <g>
       <use style="fill:#262626;stroke:#262626;stroke-width:0.8;" x="351.36" xlink:href="#m00a5df22ad" y="276.48"/>
      </g>
     </g>
     <g id="text_3">
      <text style="fill:#262626;font-family:DejaVu Sans;font-size:20px;font-style:normal;font-weight:normal;text-anchor:middle;" transform="rotate(-0, 351.36, 298.676875)" x="351.36" y="298.676875">10</text>
     </g>
    </g>
    <g id="text_4">
     <text style="fill:#262626;font-family:DejaVu Sans;font-size:20px;font-style:normal;font-weight:normal;text-anchor:middle;" transform="rotate(-0, 264.96, 322.033125)" x="264.96" y="322.033125">bases</text>
    </g>
   </g>
   <g id="matplotlib.axis_2">
    <g id="ytick_1">
     <g id="line2d_4">
      <defs>
       <path d="M 0 0 
L -3.5 0 
" id="m7ba2773daa" style="stroke:#262626;stroke-width:0.8;"/>
      </defs>
      <g>
       <use style="fill:#262626;stroke:#262626;stroke-width:0.8;" x="92.16" xlink:href="#m7ba2773daa" y="270.153763"/>
      </g>
     </g>
     <g id="text_5">
      <text style="fill:#262626;font-family:DejaVu Sans;font-size:20px;font-style:normal;font-weight:normal;text-anchor:end;" transform="rotate(-0, 85.16, 277.7522)" x="85.16" y="277.7522">0.0</text>
     </g>
    </g>
    <g id="ytick_2">
     <g id="line2d_5">
      <g>
       <use style="fill:#262626;stroke:#262626;stroke-width:0.8;" x="92.16" xlink:href="#m7ba2773daa" y="193.184542"/>
      </g>
     </g>
     <g id="text_6">
      <text style="fill:#262626;font-family:DejaVu Sans;font-size:20px;font-style:normal;font-weight:normal;text-anchor:end;" transform="rotate(-0, 85.16, 200.78298)" x="85.16" y="200.78298">0.1</text>
     </g>
    </g>
    <g id="ytick_3">
     <g id="line2d_6">
      <g>
       <use style="fill:#262626;stroke:#262626;stroke-width:0.8;" x="92.16" xlink:href="#m7ba2773daa" y="116.215322"/>
      </g>
     </g>
     <g id="text_7">
      <text style="fill:#262626;font-family:DejaVu Sans;font-size:20px;font-style:normal;font-weight:normal;text-anchor:end;" transform="rotate(-0, 85.16, 123.81376)" x="85.16" y="123.81376">0.2</text>
     </g>
    </g>
    <g id="ytick_4">
     <g id="line2d_7">
      <g>
       <use style="fill:#262626;stroke:#262626;stroke-width:0.8;" x="92.16" xlink:href="#m7ba2773daa" y="39.246102"/>
      </g>
     </g>
     <g id="text_8">
      <text style="fill:#262626;font-family:DejaVu Sans;font-size:20px;font-style:normal;font-weight:normal;text-anchor:end;" transform="rotate(-0, 85.16, 46.844539)" x="85.16" y="46.844539">0.3</text>
     </g>
    </g>
    <g id="text_9">
     <text style="fill:#262626;font-family:DejaVu Sans;font-size:20px;font-style:normal;font-weight:normal;text-anchor:middle;" transform="rotate(-90, 45.194375, 152.064)" x="45.194375" y="152.064">freq (73 total)</text>
    </g>
   </g>
   <g id="LineCollection_1">
    <path clip-path="url(#pba14040ffa)" d="M 104.502857 106.432175 
L 104.502857 12.126198 
" style="fill:none;stroke:#4169e1;stroke-width:3;"/>
    <path clip-path="url(#pba14040ffa)" d="M 129.188571 180.153565 
L 129.188571 107.104469 
" style="fill:none;stroke:#4169e1;stroke-width:3;"/>
    <path clip-path="url(#pba14040ffa)" d="M 153.874286 171.101243 
L 153.874286 95.069333 
" style="fill:none;stroke:#4169e1;stroke-width:3;"/>
    <path clip-path="url(#pba14040ffa)" d="M 178.56 249.066305 
L 178.56 206.89139 
" style="fill:none;stroke:#4169e1;stroke-width:3;"/>
    <path clip-path="url(#pba14040ffa)" d="M 203.245714 232.718145 
L 203.245714 181.064634 
" style="fill:none;stroke:#4169e1;stroke-width:3;"/>
    <path clip-path="url(#pba14040ffa)" d="M 227.931429 263.977389 
L 227.931429 234.155221 
" style="fill:none;stroke:#4169e1;stroke-width:3;"/>
    <path clip-path="url(#pba14040ffa)" d="M 252.617143 249.066305 
L 252.617143 206.89139 
" style="fill:none;stroke:#4169e1;stroke-width:3;"/>
    <path clip-path="url(#pba14040ffa)" d="M 277.302857 232.718145 
L 277.302857 181.064634 
" style="fill:none;stroke:#4169e1;stroke-width:3;"/>
    <path clip-path="url(#pba14040ffa)" d="M 301.988571 263.977389 
L 301.988571 234.155221 
" style="fill:none;stroke:#4169e1;stroke-width:3;"/>
    <path clip-path="url(#pba14040ffa)" d="M 326.674286 270.153763 
L 326.674286 249.066305 
" style="fill:none;stroke:#4169e1;stroke-width:3;"/>
    <path clip-path="url(#pba14040ffa)" d="M 351.36 270.153763 
L 351.36 270.153763 
" style="fill:none;stroke:#4169e1;stroke-width:3;"/>
    <path clip-path="url(#pba14040ffa)" d="M 376.045714 270.153763 
L 376.045714 249.066305 
" style="fill:none;stroke:#4169e1;stroke-width:3;"/>
    <path clip-path="url(#pba14040ffa)" d="M 400.731429 270.153763 
L 400.731429 249.066305 
" style="fill:none;stroke:#4169e1;stroke-width:3;"/>
    <path clip-path="url(#pba14040ffa)" d="M 425.417143 270.153763 
L 425.417143 249.066305 
" style="fill:none;stroke:#4169e1;stroke-width:3;"/>
   </g>
   <g id="line2d_8">
    <path clip-path="url(#pba14040ffa)" d="M 104.502857 59.279186 
L 129.188571 143.629017 
L 153.874286 133.085288 
L 178.56 227.978847 
L 203.245714 206.89139 
L 227.931429 249.066305 
L 252.617143 227.978847 
L 277.302857 206.89139 
L 301.988571 249.066305 
L 326.674286 259.610034 
L 351.36 270.153763 
L 376.045714 259.610034 
L 400.731429 259.610034 
L 425.417143 259.610034 
" style="fill:none;stroke:#4169e1;stroke-linecap:round;stroke-width:3;"/>
    <defs>
     <path d="M 0 3.25 
C 0.86191 3.25 1.688635 2.907559 2.298097 2.298097 
C 2.907559 1.688635 3.25 0.86191 3.25 0 
C 3.25 -0.86191 2.907559 -1.688635 2.298097 -2.298097 
C 1.688635 -2.907559 0.86191 -3.25 0 -3.25 
C -0.86191 -3.25 -1.688635 -2.907559 -2.298097 -2.298097 
C -2.907559 -1.688635 -3.25 -0.86191 -3.25 0 
C -3.25 0.86191 -2.907559 1.688635 -2.298097 2.298097 
C -1.688635 2.907559 -0.86191 3.25 0 3.25 
z
" id="m596ca0621c" style="stroke:#4169e1;"/>
    </defs>
    <g clip-path="url(#pba14040ffa)">
     <use style="fill:#4169e1;stroke:#4169e1;" x="104.502857" xlink:href="#m596ca0621c" y="59.279186"/>
     <use style="fill:#4169e1;stroke:#4169e1;" x="129.188571" xlink:href="#m596ca0621c" y="143.629017"/>
     <use style="fill:#4169e1;stroke:#4169e1;" x="153.874286" xlink:href="#m596ca0621c" y="133.085288"/>
     <use style="fill:#4169e1;stroke:#4169e1;" x="178.56" xlink:href="#m596ca0621c" y="227.978847"/>
     <use style="fill:#4169e1;stroke:#4169e1;" x="203.245714" xlink:href="#m596ca0621c" y="206.89139"/>
     <use style="fill:#4169e1;stroke:#4169e1;" x="227.931429" xlink:href="#m596ca0621c" y="249.066305"/>
     <use style="fill:#4169e1;stroke:#4169e1;" x="252.617143" xlink:href="#m596ca0621c" y="227.978847"/>
     <use style="fill:#4169e1;stroke:#4169e1;" x="277.302857" xlink:href="#m596ca0621c" y="206.89139"/>
     <use style="fill:#4169e1;stroke:#4169e1;" x="301.988571" xlink:href="#m596ca0621c" y="249.066305"/>
     <use style="fill:#4169e1;stroke:#4169e1;" x="326.674286" xlink:href="#m596ca0621c" y="259.610034"/>
     <use style="fill:#4169e1;stroke:#4169e1;" x="351.36" xlink:href="#m596ca0621c" y="270.153763"/>
     <use style="fill:#4169e1;stroke:#4169e1;" x="376.045714" xlink:href="#m596ca0621c" y="259.610034"/>
     <use style="fill:#4169e1;stroke:#4169e1;" x="400.731429" xlink:href="#m596ca0621c" y="259.610034"/>
     <use style="fill:#4169e1;stroke:#4169e1;" x="425.417143" xlink:href="#m596ca0621c" y="259.610034"/>
    </g>
   </g>
   <g id="patch_3">
    <path d="M 92.16 276.48 
L 92.16 27.648 
" style="fill:none;stroke:#262626;stroke-linecap:square;stroke-linejoin:miter;stroke-width:0.8;"/>
   </g>
   <g id="patch_4">
    <path d="M 92.16 276.48 
L 437.76 276.48 
" style="fill:none;stroke:#262626;stroke-linecap:square;stroke-linejoin:miter;stroke-width:0.8;"/>
   </g>
   <g id="text_10">
    <text style="fill:#262626;font-family:DejaVu Sans;font-size:20px;font-style:normal;font-weight:bold;text-anchor:middle;" transform="rotate(-0, 264.96, 21.648)" x="264.96" y="21.648">D 5' deletion</text>
   </g>
  </g>
 </g>
 <defs>
  <clipPath id="pba14040ffa">
   <rect height="248.832" width="345.6" x="92.16" y="27.648"/>
  </clipPath>
 </defs>
</svg>
