<?xml version="1.0" encoding="utf-8" standalone="no"?>
<!DOCTYPE svg PUBLIC "-//W3C//DTD SVG 1.1//EN"
  "http://www.w3.org/Graphics/SVG/1.1/DTD/svg11.dtd">
<!-- Created with matplotlib (http://matplotlib.org/) -->
<svg height="345.6pt" version="1.1" viewBox="0 0 460.8 345.6" width="460.8pt" xmlns="http://www.w3.org/2000/svg" xmlns:xlink="http://www.w3.org/1999/xlink">
 <defs>
  <style type="text/css">
*{stroke-linecap:butt;stroke-linejoin:round;}
  </style>
 </defs>
 <g id="figure_1">
  <g id="patch_1">
   <path d="M 0 345.6 
L 460.8 345.6 
L 460.8 0 
L 0 0 
z
" style="fill:#ffffff;"/>
  </g>
  <g id="axes_1">
   <g id="patch_2">
    <path d="M 92.16 276.48 
L 437.76 276.48 
L 437.76 27.648 
L 92.16 27.648 
z
" style="fill:#ffffff;"/>
   </g>
   <g id="matplotlib.axis_1">
    <g id="xtick_1">
     <g id="line2d_1">
      <defs>
       <path d="M 0 0 
L 0 3.5 
" id="m06ed9dcd03" style="stroke:#262626;stroke-width:0.8;"/>
      </defs>
      <g>
       <use style="fill:#262626;stroke:#262626;stroke-width:0.8;" x="100.8" xlink:href="#m06ed9dcd03" y="276.48"/>
      </g>
     </g>
     <g id="text_1">
      <text style="fill:#262626;font-family:DejaVu Sans;font-size:20px;font-style:normal;font-weight:normal;text-anchor:middle;" transform="rotate(-0, 100.8, 298.676875)" x="100.8" y="298.676875">0</text>
     </g>
    </g>
    <g id="xtick_2">
     <g id="line2d_2">
      <g>
       <use style="fill:#262626;stroke:#262626;stroke-width:0.8;" x="187.2" xlink:href="#m06ed9dcd03" y="276.48"/>
      </g>
     </g>
     <g id="text_2">
      <text style="fill:#262626;font-family:DejaVu Sans;font-size:20px;font-style:normal;font-weight:normal;text-anchor:middle;" transform="rotate(-0, 187.2, 298.676875)" x="187.2" y="298.676875">5</text>
     </g>
    </g>
    <g id="xtick_3">
     <g id="line2d_3">
      <g>
       <use style="fill:#262626;stroke:#262626;stroke-width:0.8;" x="273.6" xlink:href="#m06ed9dcd03" y="276.48"/>
      </g>
     </g>
     <g id="text_3">
      <text style="fill:#262626;font-family:DejaVu Sans;font-size:20px;font-style:normal;font-weight:normal;text-anchor:middle;" transform="rotate(-0, 273.6, 298.676875)" x="273.6" y="298.676875">10</text>
     </g>
    </g>
    <g id="xtick_4">
     <g id="line2d_4">
      <g>
       <use style="fill:#262626;stroke:#262626;stroke-width:0.8;" x="360" xlink:href="#m06ed9dcd03" y="276.48"/>
      </g>
     </g>
     <g id="text_4">
      <text style="fill:#262626;font-family:DejaVu Sans;font-size:20px;font-style:normal;font-weight:normal;text-anchor:middle;" transform="rotate(-0, 360, 298.676875)" x="360" y="298.676875">15</text>
     </g>
    </g>
    <g id="text_5">
     <text style="fill:#262626;font-family:DejaVu Sans;font-size:20px;font-style:normal;font-weight:normal;text-anchor:middle;" transform="rotate(-0, 264.96, 322.033125)" x="264.96" y="322.033125">bases</text>
    </g>
   </g>
   <g id="matplotlib.axis_2">
    <g id="ytick_1">
     <g id="line2d_5">
      <defs>
       <path d="M 0 0 
L -3.5 0 
" id="m6706022e05" style="stroke:#262626;stroke-width:0.8;"/>
      </defs>
      <g>
       <use style="fill:#262626;stroke:#262626;stroke-width:0.8;" x="92.16" xlink:href="#m6706022e05" y="270.153763"/>
      </g>
     </g>
     <g id="text_6">
      <text style="fill:#262626;font-family:DejaVu Sans;font-size:20px;font-style:normal;font-weight:normal;text-anchor:end;" transform="rotate(-0, 85.16, 277.7522)" x="85.16" y="277.7522">0.0</text>
     </g>
    </g>
    <g id="ytick_2">
     <g id="line2d_6">
      <g>
       <use style="fill:#262626;stroke:#262626;stroke-width:0.8;" x="92.16" xlink:href="#m6706022e05" y="200.181744"/>
      </g>
     </g>
     <g id="text_7">
      <text style="fill:#262626;font-family:DejaVu Sans;font-size:20px;font-style:normal;font-weight:normal;text-anchor:end;" transform="rotate(-0, 85.16, 207.780182)" x="85.16" y="207.780182">0.1</text>
     </g>
    </g>
    <g id="ytick_3">
     <g id="line2d_7">
      <g>
       <use style="fill:#262626;stroke:#262626;stroke-width:0.8;" x="92.16" xlink:href="#m6706022e05" y="130.209726"/>
      </g>
     </g>
     <g id="text_8">
      <text style="fill:#262626;font-family:DejaVu Sans;font-size:20px;font-style:normal;font-weight:normal;text-anchor:end;" transform="rotate(-0, 85.16, 137.808163)" x="85.16" y="137.808163">0.2</text>
     </g>
    </g>
    <g id="ytick_4">
     <g id="line2d_8">
      <g>
       <use style="fill:#262626;stroke:#262626;stroke-width:0.8;" x="92.16" xlink:href="#m6706022e05" y="60.237707"/>
      </g>
     </g>
     <g id="text_9">
      <text style="fill:#262626;font-family:DejaVu Sans;font-size:20px;font-style:normal;font-weight:normal;text-anchor:end;" transform="rotate(-0, 85.16, 67.836145)" x="85.16" y="67.836145">0.3</text>
     </g>
    </g>
    <g id="text_10">
     <text style="fill:#262626;font-family:DejaVu Sans;font-size:20px;font-style:normal;font-weight:normal;text-anchor:middle;" transform="rotate(-90, 45.194375, 152.064)" x="45.194375" y="152.064">freq (73 total)</text>
    </g>
   </g>
   <g id="LineCollection_1">
    <path clip-path="url(#pcaa683ab39)" d="M 100.8 236.121383 
L 100.8 189.163646 
" style="fill:none;stroke:#4169e1;stroke-width:3;"/>
    <path clip-path="url(#pcaa683ab39)" d="M 118.08 104.237797 
L 118.08 14.320576 
" style="fill:none;stroke:#4169e1;stroke-width:3;"/>
    <path clip-path="url(#pcaa683ab39)" d="M 135.36 188.335401 
L 135.36 121.927132 
" style="fill:none;stroke:#4169e1;stroke-width:3;"/>
    <path clip-path="url(#pcaa683ab39)" d="M 152.64 220.583161 
L 152.64 166.361036 
" style="fill:none;stroke:#4169e1;stroke-width:3;"/>
    <path clip-path="url(#pcaa683ab39)" d="M 169.92 220.583161 
L 169.92 166.361036 
" style="fill:none;stroke:#4169e1;stroke-width:3;"/>
    <path clip-path="url(#pcaa683ab39)" d="M 187.2 270.153763 
L 187.2 250.983347 
" style="fill:none;stroke:#4169e1;stroke-width:3;"/>
    <path clip-path="url(#pcaa683ab39)" d="M 204.48 250.983347 
L 204.48 212.642515 
" style="fill:none;stroke:#4169e1;stroke-width:3;"/>
    <path clip-path="url(#pcaa683ab39)" d="M 221.76 270.153763 
L 221.76 270.153763 
" style="fill:none;stroke:#4169e1;stroke-width:3;"/>
    <path clip-path="url(#pcaa683ab39)" d="M 239.04 270.153763 
L 239.04 270.153763 
" style="fill:none;stroke:#4169e1;stroke-width:3;"/>
    <path clip-path="url(#pcaa683ab39)" d="M 256.32 250.983347 
L 256.32 212.642515 
" style="fill:none;stroke:#4169e1;stroke-width:3;"/>
    <path clip-path="url(#pcaa683ab39)" d="M 273.6 264.538878 
L 273.6 237.427816 
" style="fill:none;stroke:#4169e1;stroke-width:3;"/>
    <path clip-path="url(#pcaa683ab39)" d="M 290.88 270.153763 
L 290.88 270.153763 
" style="fill:none;stroke:#4169e1;stroke-width:3;"/>
    <path clip-path="url(#pcaa683ab39)" d="M 308.16 270.153763 
L 308.16 270.153763 
" style="fill:none;stroke:#4169e1;stroke-width:3;"/>
    <path clip-path="url(#pcaa683ab39)" d="M 325.44 270.153763 
L 325.44 250.983347 
" style="fill:none;stroke:#4169e1;stroke-width:3;"/>
    <path clip-path="url(#pcaa683ab39)" d="M 342.72 270.153763 
L 342.72 250.983347 
" style="fill:none;stroke:#4169e1;stroke-width:3;"/>
    <path clip-path="url(#pcaa683ab39)" d="M 360 264.538878 
L 360 237.427816 
" style="fill:none;stroke:#4169e1;stroke-width:3;"/>
    <path clip-path="url(#pcaa683ab39)" d="M 377.28 270.153763 
L 377.28 250.983347 
" style="fill:none;stroke:#4169e1;stroke-width:3;"/>
    <path clip-path="url(#pcaa683ab39)" d="M 394.56 270.153763 
L 394.56 270.153763 
" style="fill:none;stroke:#4169e1;stroke-width:3;"/>
    <path clip-path="url(#pcaa683ab39)" d="M 411.84 270.153763 
L 411.84 270.153763 
" style="fill:none;stroke:#4169e1;stroke-width:3;"/>
    <path clip-path="url(#pcaa683ab39)" d="M 429.12 270.153763 
L 429.12 250.983347 
" style="fill:none;stroke:#4169e1;stroke-width:3;"/>
   </g>
   <g id="line2d_9">
    <path clip-path="url(#pcaa683ab39)" d="M 100.8 212.642515 
L 118.08 59.279186 
L 135.36 155.131267 
L 152.64 193.472099 
L 169.92 193.472099 
L 187.2 260.568555 
L 204.48 231.812931 
L 221.76 270.153763 
L 239.04 270.153763 
L 256.32 231.812931 
L 273.6 250.983347 
L 290.88 270.153763 
L 308.16 270.153763 
L 325.44 260.568555 
L 342.72 260.568555 
L 360 250.983347 
L 377.28 260.568555 
L 394.56 270.153763 
L 411.84 270.153763 
L 429.12 260.568555 
" style="fill:none;stroke:#4169e1;stroke-linecap:round;stroke-width:3;"/>
    <defs>
     <path d="M 0 3.25 
C 0.86191 3.25 1.688635 2.907559 2.298097 2.298097 
C 2.907559 1.688635 3.25 0.86191 3.25 0 
C 3.25 -0.86191 2.907559 -1.688635 2.298097 -2.298097 
C 1.688635 -2.907559 0.86191 -3.25 0 -3.25 
C -0.86191 -3.25 -1.688635 -2.907559 -2.298097 -2.298097 
C -2.907559 -1.688635 -3.25 -0.86191 -3.25 0 
C -3.25 0.86191 -2.907559 1.688635 -2.298097 2.298097 
C -1.688635 2.907559 -0.86191 3.25 0 3.25 
z
" id="m4020d3d536" style="stroke:#4169e1;"/>
    </defs>
    <g clip-path="url(#pcaa683ab39)">
     <use style="fill:#4169e1;stroke:#4169e1;" x="100.8" xlink:href="#m4020d3d536" y="212.642515"/>
     <use style="fill:#4169e1;stroke:#4169e1;" x="118.08" xlink:href="#m4020d3d536" y="59.279186"/>
     <use style="fill:#4169e1;stroke:#4169e1;" x="135.36" xlink:href="#m4020d3d536" y="155.131267"/>
     <use style="fill:#4169e1;stroke:#4169e1;" x="152.64" xlink:href="#m4020d3d536" y="193.472099"/>
     <use style="fill:#4169e1;stroke:#4169e1;" x="169.92" xlink:href="#m4020d3d536" y="193.472099"/>
     <use style="fill:#4169e1;stroke:#4169e1;" x="187.2" xlink:href="#m4020d3d536" y="260.568555"/>
     <use style="fill:#4169e1;stroke:#4169e1;" x="204.48" xlink:href="#m4020d3d536" y="231.812931"/>
     <use style="fill:#4169e1;stroke:#4169e1;" x="221.76" xlink:href="#m4020d3d536" y="270.153763"/>
     <use style="fill:#4169e1;stroke:#4169e1;" x="239.04" xlink:href="#m4020d3d536" y="270.153763"/>
     <use style="fill:#4169e1;stroke:#4169e1;" x="256.32" xlink:href="#m4020d3d536" y="231.812931"/>
     <use style="fill:#4169e1;stroke:#4169e1;" x="273.6" xlink:href="#m4020d3d536" y="250.983347"/>
     <use style="fill:#4169e1;stroke:#4169e1;" x="290.88" xlink:href="#m4020d3d536" y="270.153763"/>
     <use style="fill:#4169e1;stroke:#4169e1;" x="308.16" xlink:href="#m4020d3d536" y="270.153763"/>
     <use style="fill:#4169e1;stroke:#4169e1;" x="325.44" xlink:href="#m4020d3d536" y="260.568555"/>
     <use style="fill:#4169e1;stroke:#4169e1;" x="342.72" xlink:href="#m4020d3d536" y="260.568555"/>
     <use style="fill:#4169e1;stroke:#4169e1;" x="360" xlink:href="#m4020d3d536" y="250.983347"/>
     <use style="fill:#4169e1;stroke:#4169e1;" x="377.28" xlink:href="#m4020d3d536" y="260.568555"/>
     <use style="fill:#4169e1;stroke:#4169e1;" x="394.56" xlink:href="#m4020d3d536" y="270.153763"/>
     <use style="fill:#4169e1;stroke:#4169e1;" x="411.84" xlink:href="#m4020d3d536" y="270.153763"/>
     <use style="fill:#4169e1;stroke:#4169e1;" x="429.12" xlink:href="#m4020d3d536" y="260.568555"/>
    </g>
   </g>
   <g id="patch_3">
    <path d="M 92.16 276.48 
L 92.16 27.648 
" style="fill:none;stroke:#262626;stroke-linecap:square;stroke-linejoin:miter;stroke-width:0.8;"/>
   </g>
   <g id="patch_4">
    <path d="M 92.16 276.48 
L 437.76 276.48 
" style="fill:none;stroke:#262626;stroke-linecap:square;stroke-linejoin:miter;stroke-width:0.8;"/>
   </g>
   <g id="text_11">
    <text style="fill:#262626;font-family:DejaVu Sans;font-size:20px;font-style:normal;font-weight:bold;text-anchor:middle;" transform="rotate(-0, 264.96, 21.648)" x="264.96" y="21.648">J 5' deletion</text>
   </g>
  </g>
 </g>
 <defs>
  <clipPath id="pcaa683ab39">
   <rect height="248.832" width="345.6" x="92.16" y="27.648"/>
  </clipPath>
 </defs>
</svg>
