<?xml version="1.0" encoding="utf-8" standalone="no"?>
<!DOCTYPE svg PUBLIC "-//W3C//DTD SVG 1.1//EN"
  "http://www.w3.org/Graphics/SVG/1.1/DTD/svg11.dtd">
<!-- Created with matplotlib (http://matplotlib.org/) -->
<svg height="345.6pt" version="1.1" viewBox="0 0 460.8 345.6" width="460.8pt" xmlns="http://www.w3.org/2000/svg" xmlns:xlink="http://www.w3.org/1999/xlink">
 <defs>
  <style type="text/css">
*{stroke-linecap:butt;stroke-linejoin:round;}
  </style>
 </defs>
 <g id="figure_1">
  <g id="patch_1">
   <path d="M 0 345.6 
L 460.8 345.6 
L 460.8 0 
L 0 0 
z
" style="fill:#ffffff;"/>
  </g>
  <g id="axes_1">
   <g id="patch_2">
    <path d="M 92.16 276.48 
L 437.76 276.48 
L 437.76 27.648 
L 92.16 27.648 
z
" style="fill:#ffffff;"/>
   </g>
   <g id="matplotlib.axis_1">
    <g id="xtick_1">
     <g id="line2d_1">
      <defs>
       <path d="M 0 0 
L 0 3.5 
" id="m55c03c9ce0" style="stroke:#262626;stroke-width:0.8;"/>
      </defs>
      <g>
       <use style="fill:#262626;stroke:#262626;stroke-width:0.8;" x="165.6" xlink:href="#m55c03c9ce0" y="276.48"/>
      </g>
     </g>
     <g id="text_1">
      <text style="fill:#262626;font-family:DejaVu Sans;font-size:20px;font-style:normal;font-weight:normal;text-anchor:middle;" transform="rotate(-0, 165.6, 298.676875)" x="165.6" y="298.676875">20</text>
     </g>
    </g>
    <g id="xtick_2">
     <g id="line2d_2">
      <g>
       <use style="fill:#262626;stroke:#262626;stroke-width:0.8;" x="252" xlink:href="#m55c03c9ce0" y="276.48"/>
      </g>
     </g>
     <g id="text_2">
      <text style="fill:#262626;font-family:DejaVu Sans;font-size:20px;font-style:normal;font-weight:normal;text-anchor:middle;" transform="rotate(-0, 252, 298.676875)" x="252" y="298.676875">30</text>
     </g>
    </g>
    <g id="xtick_3">
     <g id="line2d_3">
      <g>
       <use style="fill:#262626;stroke:#262626;stroke-width:0.8;" x="338.4" xlink:href="#m55c03c9ce0" y="276.48"/>
      </g>
     </g>
     <g id="text_3">
      <text style="fill:#262626;font-family:DejaVu Sans;font-size:20px;font-style:normal;font-weight:normal;text-anchor:middle;" transform="rotate(-0, 338.4, 298.676875)" x="338.4" y="298.676875">40</text>
     </g>
    </g>
    <g id="xtick_4">
     <g id="line2d_4">
      <g>
       <use style="fill:#262626;stroke:#262626;stroke-width:0.8;" x="424.8" xlink:href="#m55c03c9ce0" y="276.48"/>
      </g>
     </g>
     <g id="text_4">
      <text style="fill:#262626;font-family:DejaVu Sans;font-size:20px;font-style:normal;font-weight:normal;text-anchor:middle;" transform="rotate(-0, 424.8, 298.676875)" x="424.8" y="298.676875">50</text>
     </g>
    </g>
    <g id="text_5">
     <text style="fill:#262626;font-family:DejaVu Sans;font-size:20px;font-style:normal;font-weight:normal;text-anchor:middle;" transform="rotate(-0, 264.96, 322.033125)" x="264.96" y="322.033125">bases</text>
    </g>
   </g>
   <g id="matplotlib.axis_2">
    <g id="ytick_1">
     <g id="line2d_5">
      <defs>
       <path d="M 0 0 
L -3.5 0 
" id="m258a034bba" style="stroke:#262626;stroke-width:0.8;"/>
      </defs>
      <g>
       <use style="fill:#262626;stroke:#262626;stroke-width:0.8;" x="92.16" xlink:href="#m258a034bba" y="270.153763"/>
      </g>
     </g>
     <g id="text_6">
      <text style="fill:#262626;font-family:DejaVu Sans;font-size:20px;font-style:normal;font-weight:normal;text-anchor:end;" transform="rotate(-0, 85.16, 277.7522)" x="85.16" y="277.7522">0.000</text>
     </g>
    </g>
    <g id="ytick_2">
     <g id="line2d_6">
      <g>
       <use style="fill:#262626;stroke:#262626;stroke-width:0.8;" x="92.16" xlink:href="#m258a034bba" y="222.048"/>
      </g>
     </g>
     <g id="text_7">
      <text style="fill:#262626;font-family:DejaVu Sans;font-size:20px;font-style:normal;font-weight:normal;text-anchor:end;" transform="rotate(-0, 85.16, 229.646437)" x="85.16" y="229.646437">0.025</text>
     </g>
    </g>
    <g id="ytick_3">
     <g id="line2d_7">
      <g>
       <use style="fill:#262626;stroke:#262626;stroke-width:0.8;" x="92.16" xlink:href="#m258a034bba" y="173.942237"/>
      </g>
     </g>
     <g id="text_8">
      <text style="fill:#262626;font-family:DejaVu Sans;font-size:20px;font-style:normal;font-weight:normal;text-anchor:end;" transform="rotate(-0, 85.16, 181.540675)" x="85.16" y="181.540675">0.050</text>
     </g>
    </g>
    <g id="ytick_4">
     <g id="line2d_8">
      <g>
       <use style="fill:#262626;stroke:#262626;stroke-width:0.8;" x="92.16" xlink:href="#m258a034bba" y="125.836475"/>
      </g>
     </g>
     <g id="text_9">
      <text style="fill:#262626;font-family:DejaVu Sans;font-size:20px;font-style:normal;font-weight:normal;text-anchor:end;" transform="rotate(-0, 85.16, 133.434912)" x="85.16" y="133.434912">0.075</text>
     </g>
    </g>
    <g id="ytick_5">
     <g id="line2d_9">
      <g>
       <use style="fill:#262626;stroke:#262626;stroke-width:0.8;" x="92.16" xlink:href="#m258a034bba" y="77.730712"/>
      </g>
     </g>
     <g id="text_10">
      <text style="fill:#262626;font-family:DejaVu Sans;font-size:20px;font-style:normal;font-weight:normal;text-anchor:end;" transform="rotate(-0, 85.16, 85.329149)" x="85.16" y="85.329149">0.100</text>
     </g>
    </g>
    <g id="ytick_6">
     <g id="line2d_10">
      <g>
       <use style="fill:#262626;stroke:#262626;stroke-width:0.8;" x="92.16" xlink:href="#m258a034bba" y="29.624949"/>
      </g>
     </g>
     <g id="text_11">
      <text style="fill:#262626;font-family:DejaVu Sans;font-size:20px;font-style:normal;font-weight:normal;text-anchor:end;" transform="rotate(-0, 85.16, 37.223387)" x="85.16" y="37.223387">0.125</text>
     </g>
    </g>
    <g id="text_12">
     <text style="fill:#262626;font-family:DejaVu Sans;font-size:20px;font-style:normal;font-weight:normal;text-anchor:middle;" transform="rotate(-90, 19.744375, 152.064)" x="19.744375" y="152.064">freq (73 total)</text>
    </g>
   </g>
   <g id="LineCollection_1">
    <path clip-path="url(#pa0b22135fd)" d="M 96.48 254.712829 
L 96.48 180.157408 
" style="fill:none;stroke:#4169e1;stroke-width:3;"/>
    <path clip-path="url(#pa0b22135fd)" d="M 105.12 270.153763 
L 105.12 217.435119 
" style="fill:none;stroke:#4169e1;stroke-width:3;"/>
    <path clip-path="url(#pa0b22135fd)" d="M 113.76 236.731482 
L 113.76 145.420112 
" style="fill:none;stroke:#4169e1;stroke-width:3;"/>
    <path clip-path="url(#pa0b22135fd)" d="M 122.4 270.153763 
L 122.4 217.435119 
" style="fill:none;stroke:#4169e1;stroke-width:3;"/>
    <path clip-path="url(#pa0b22135fd)" d="M 131.04 254.712829 
L 131.04 180.157408 
" style="fill:none;stroke:#4169e1;stroke-width:3;"/>
    <path clip-path="url(#pa0b22135fd)" d="M 139.68 270.153763 
L 139.68 270.153763 
" style="fill:none;stroke:#4169e1;stroke-width:3;"/>
    <path clip-path="url(#pa0b22135fd)" d="M 148.32 270.153763 
L 148.32 270.153763 
" style="fill:none;stroke:#4169e1;stroke-width:3;"/>
    <path clip-path="url(#pa0b22135fd)" d="M 156.96 270.153763 
L 156.96 217.435119 
" style="fill:none;stroke:#4169e1;stroke-width:3;"/>
    <path clip-path="url(#pa0b22135fd)" d="M 165.6 270.153763 
L 165.6 270.153763 
" style="fill:none;stroke:#4169e1;stroke-width:3;"/>
    <path clip-path="url(#pa0b22135fd)" d="M 174.24 217.435119 
L 174.24 111.997831 
" style="fill:none;stroke:#4169e1;stroke-width:3;"/>
    <path clip-path="url(#pa0b22135fd)" d="M 182.88 176.564719 
L 182.88 47.430942 
" style="fill:none;stroke:#4169e1;stroke-width:3;"/>
    <path clip-path="url(#pa0b22135fd)" d="M 191.52 270.153763 
L 191.52 217.435119 
" style="fill:none;stroke:#4169e1;stroke-width:3;"/>
    <path clip-path="url(#pa0b22135fd)" d="M 200.16 254.712829 
L 200.16 180.157408 
" style="fill:none;stroke:#4169e1;stroke-width:3;"/>
    <path clip-path="url(#pa0b22135fd)" d="M 208.8 133.834608 
L 208.8 -1 
" style="fill:none;stroke:#4169e1;stroke-width:3;"/>
    <path clip-path="url(#pa0b22135fd)" d="M 217.44 270.153763 
L 217.44 217.435119 
" style="fill:none;stroke:#4169e1;stroke-width:3;"/>
    <path clip-path="url(#pa0b22135fd)" d="M 226.08 197.298388 
L 226.08 79.415917 
" style="fill:none;stroke:#4169e1;stroke-width:3;"/>
    <path clip-path="url(#pa0b22135fd)" d="M 234.72 270.153763 
L 234.72 217.435119 
" style="fill:none;stroke:#4169e1;stroke-width:3;"/>
    <path clip-path="url(#pa0b22135fd)" d="M 243.36 217.435119 
L 243.36 111.997831 
" style="fill:none;stroke:#4169e1;stroke-width:3;"/>
    <path clip-path="url(#pa0b22135fd)" d="M 252 270.153763 
L 252 217.435119 
" style="fill:none;stroke:#4169e1;stroke-width:3;"/>
    <path clip-path="url(#pa0b22135fd)" d="M 260.64 155.378719 
L 260.64 15.898298 
" style="fill:none;stroke:#4169e1;stroke-width:3;"/>
    <path clip-path="url(#pa0b22135fd)" d="M 269.28 217.435119 
L 269.28 111.997831 
" style="fill:none;stroke:#4169e1;stroke-width:3;"/>
    <path clip-path="url(#pa0b22135fd)" d="M 277.92 254.712829 
L 277.92 180.157408 
" style="fill:none;stroke:#4169e1;stroke-width:3;"/>
    <path clip-path="url(#pa0b22135fd)" d="M 286.56 217.435119 
L 286.56 111.997831 
" style="fill:none;stroke:#4169e1;stroke-width:3;"/>
    <path clip-path="url(#pa0b22135fd)" d="M 295.2 254.712829 
L 295.2 180.157408 
" style="fill:none;stroke:#4169e1;stroke-width:3;"/>
    <path clip-path="url(#pa0b22135fd)" d="M 303.84 254.712829 
L 303.84 180.157408 
" style="fill:none;stroke:#4169e1;stroke-width:3;"/>
    <path clip-path="url(#pa0b22135fd)" d="M 312.48 270.153763 
L 312.48 217.435119 
" style="fill:none;stroke:#4169e1;stroke-width:3;"/>
    <path clip-path="url(#pa0b22135fd)" d="M 321.12 254.712829 
L 321.12 180.157408 
" style="fill:none;stroke:#4169e1;stroke-width:3;"/>
    <path clip-path="url(#pa0b22135fd)" d="M 329.76 270.153763 
L 329.76 217.435119 
" style="fill:none;stroke:#4169e1;stroke-width:3;"/>
    <path clip-path="url(#pa0b22135fd)" d="M 338.4 270.153763 
L 338.4 270.153763 
" style="fill:none;stroke:#4169e1;stroke-width:3;"/>
    <path clip-path="url(#pa0b22135fd)" d="M 347.04 270.153763 
L 347.04 217.435119 
" style="fill:none;stroke:#4169e1;stroke-width:3;"/>
    <path clip-path="url(#pa0b22135fd)" d="M 355.68 270.153763 
L 355.68 270.153763 
" style="fill:none;stroke:#4169e1;stroke-width:3;"/>
    <path clip-path="url(#pa0b22135fd)" d="M 364.32 270.153763 
L 364.32 270.153763 
" style="fill:none;stroke:#4169e1;stroke-width:3;"/>
    <path clip-path="url(#pa0b22135fd)" d="M 372.96 270.153763 
L 372.96 217.435119 
" style="fill:none;stroke:#4169e1;stroke-width:3;"/>
    <path clip-path="url(#pa0b22135fd)" d="M 381.6 270.153763 
L 381.6 217.435119 
" style="fill:none;stroke:#4169e1;stroke-width:3;"/>
    <path clip-path="url(#pa0b22135fd)" d="M 390.24 270.153763 
L 390.24 217.435119 
" style="fill:none;stroke:#4169e1;stroke-width:3;"/>
    <path clip-path="url(#pa0b22135fd)" d="M 398.88 270.153763 
L 398.88 270.153763 
" style="fill:none;stroke:#4169e1;stroke-width:3;"/>
    <path clip-path="url(#pa0b22135fd)" d="M 407.52 270.153763 
L 407.52 270.153763 
" style="fill:none;stroke:#4169e1;stroke-width:3;"/>
    <path clip-path="url(#pa0b22135fd)" d="M 416.16 270.153763 
L 416.16 270.153763 
" style="fill:none;stroke:#4169e1;stroke-width:3;"/>
    <path clip-path="url(#pa0b22135fd)" d="M 424.8 270.153763 
L 424.8 270.153763 
" style="fill:none;stroke:#4169e1;stroke-width:3;"/>
    <path clip-path="url(#pa0b22135fd)" d="M 433.44 270.153763 
L 433.44 217.435119 
" style="fill:none;stroke:#4169e1;stroke-width:3;"/>
   </g>
   <g id="line2d_11">
    <path clip-path="url(#pa0b22135fd)" d="M 96.48 217.435119 
L 105.12 243.794441 
L 113.76 191.075797 
L 122.4 243.794441 
L 131.04 217.435119 
L 139.68 270.153763 
L 148.32 270.153763 
L 156.96 243.794441 
L 165.6 270.153763 
L 174.24 164.716475 
L 182.88 111.997831 
L 191.52 243.794441 
L 200.16 217.435119 
L 208.8 59.279186 
L 217.44 243.794441 
L 226.08 138.357153 
L 234.72 243.794441 
L 243.36 164.716475 
L 252 243.794441 
L 260.64 85.638508 
L 269.28 164.716475 
L 277.92 217.435119 
L 286.56 164.716475 
L 295.2 217.435119 
L 303.84 217.435119 
L 312.48 243.794441 
L 321.12 217.435119 
L 329.76 243.794441 
L 338.4 270.153763 
L 347.04 243.794441 
L 355.68 270.153763 
L 364.32 270.153763 
L 372.96 243.794441 
L 381.6 243.794441 
L 390.24 243.794441 
L 398.88 270.153763 
L 407.52 270.153763 
L 416.16 270.153763 
L 424.8 270.153763 
L 433.44 243.794441 
" style="fill:none;stroke:#4169e1;stroke-linecap:round;stroke-width:3;"/>
    <defs>
     <path d="M 0 3.25 
C 0.86191 3.25 1.688635 2.907559 2.298097 2.298097 
C 2.907559 1.688635 3.25 0.86191 3.25 0 
C 3.25 -0.86191 2.907559 -1.688635 2.298097 -2.298097 
C 1.688635 -2.907559 0.86191 -3.25 0 -3.25 
C -0.86191 -3.25 -1.688635 -2.907559 -2.298097 -2.298097 
C -2.907559 -1.688635 -3.25 -0.86191 -3.25 0 
C -3.25 0.86191 -2.907559 1.688635 -2.298097 2.298097 
C -1.688635 2.907559 -0.86191 3.25 0 3.25 
z
" id="m7c1619c929" style="stroke:#4169e1;"/>
    </defs>
    <g clip-path="url(#pa0b22135fd)">
     <use style="fill:#4169e1;stroke:#4169e1;" x="96.48" xlink:href="#m7c1619c929" y="217.435119"/>
     <use style="fill:#4169e1;stroke:#4169e1;" x="105.12" xlink:href="#m7c1619c929" y="243.794441"/>
     <use style="fill:#4169e1;stroke:#4169e1;" x="113.76" xlink:href="#m7c1619c929" y="191.075797"/>
     <use style="fill:#4169e1;stroke:#4169e1;" x="122.4" xlink:href="#m7c1619c929" y="243.794441"/>
     <use style="fill:#4169e1;stroke:#4169e1;" x="131.04" xlink:href="#m7c1619c929" y="217.435119"/>
     <use style="fill:#4169e1;stroke:#4169e1;" x="139.68" xlink:href="#m7c1619c929" y="270.153763"/>
     <use style="fill:#4169e1;stroke:#4169e1;" x="148.32" xlink:href="#m7c1619c929" y="270.153763"/>
     <use style="fill:#4169e1;stroke:#4169e1;" x="156.96" xlink:href="#m7c1619c929" y="243.794441"/>
     <use style="fill:#4169e1;stroke:#4169e1;" x="165.6" xlink:href="#m7c1619c929" y="270.153763"/>
     <use style="fill:#4169e1;stroke:#4169e1;" x="174.24" xlink:href="#m7c1619c929" y="164.716475"/>
     <use style="fill:#4169e1;stroke:#4169e1;" x="182.88" xlink:href="#m7c1619c929" y="111.997831"/>
     <use style="fill:#4169e1;stroke:#4169e1;" x="191.52" xlink:href="#m7c1619c929" y="243.794441"/>
     <use style="fill:#4169e1;stroke:#4169e1;" x="200.16" xlink:href="#m7c1619c929" y="217.435119"/>
     <use style="fill:#4169e1;stroke:#4169e1;" x="208.8" xlink:href="#m7c1619c929" y="59.279186"/>
     <use style="fill:#4169e1;stroke:#4169e1;" x="217.44" xlink:href="#m7c1619c929" y="243.794441"/>
     <use style="fill:#4169e1;stroke:#4169e1;" x="226.08" xlink:href="#m7c1619c929" y="138.357153"/>
     <use style="fill:#4169e1;stroke:#4169e1;" x="234.72" xlink:href="#m7c1619c929" y="243.794441"/>
     <use style="fill:#4169e1;stroke:#4169e1;" x="243.36" xlink:href="#m7c1619c929" y="164.716475"/>
     <use style="fill:#4169e1;stroke:#4169e1;" x="252" xlink:href="#m7c1619c929" y="243.794441"/>
     <use style="fill:#4169e1;stroke:#4169e1;" x="260.64" xlink:href="#m7c1619c929" y="85.638508"/>
     <use style="fill:#4169e1;stroke:#4169e1;" x="269.28" xlink:href="#m7c1619c929" y="164.716475"/>
     <use style="fill:#4169e1;stroke:#4169e1;" x="277.92" xlink:href="#m7c1619c929" y="217.435119"/>
     <use style="fill:#4169e1;stroke:#4169e1;" x="286.56" xlink:href="#m7c1619c929" y="164.716475"/>
     <use style="fill:#4169e1;stroke:#4169e1;" x="295.2" xlink:href="#m7c1619c929" y="217.435119"/>
     <use style="fill:#4169e1;stroke:#4169e1;" x="303.84" xlink:href="#m7c1619c929" y="217.435119"/>
     <use style="fill:#4169e1;stroke:#4169e1;" x="312.48" xlink:href="#m7c1619c929" y="243.794441"/>
     <use style="fill:#4169e1;stroke:#4169e1;" x="321.12" xlink:href="#m7c1619c929" y="217.435119"/>
     <use style="fill:#4169e1;stroke:#4169e1;" x="329.76" xlink:href="#m7c1619c929" y="243.794441"/>
     <use style="fill:#4169e1;stroke:#4169e1;" x="338.4" xlink:href="#m7c1619c929" y="270.153763"/>
     <use style="fill:#4169e1;stroke:#4169e1;" x="347.04" xlink:href="#m7c1619c929" y="243.794441"/>
     <use style="fill:#4169e1;stroke:#4169e1;" x="355.68" xlink:href="#m7c1619c929" y="270.153763"/>
     <use style="fill:#4169e1;stroke:#4169e1;" x="364.32" xlink:href="#m7c1619c929" y="270.153763"/>
     <use style="fill:#4169e1;stroke:#4169e1;" x="372.96" xlink:href="#m7c1619c929" y="243.794441"/>
     <use style="fill:#4169e1;stroke:#4169e1;" x="381.6" xlink:href="#m7c1619c929" y="243.794441"/>
     <use style="fill:#4169e1;stroke:#4169e1;" x="390.24" xlink:href="#m7c1619c929" y="243.794441"/>
     <use style="fill:#4169e1;stroke:#4169e1;" x="398.88" xlink:href="#m7c1619c929" y="270.153763"/>
     <use style="fill:#4169e1;stroke:#4169e1;" x="407.52" xlink:href="#m7c1619c929" y="270.153763"/>
     <use style="fill:#4169e1;stroke:#4169e1;" x="416.16" xlink:href="#m7c1619c929" y="270.153763"/>
     <use style="fill:#4169e1;stroke:#4169e1;" x="424.8" xlink:href="#m7c1619c929" y="270.153763"/>
     <use style="fill:#4169e1;stroke:#4169e1;" x="433.44" xlink:href="#m7c1619c929" y="243.794441"/>
    </g>
   </g>
   <g id="patch_3">
    <path d="M 92.16 276.48 
L 92.16 27.648 
" style="fill:none;stroke:#262626;stroke-linecap:square;stroke-linejoin:miter;stroke-width:0.8;"/>
   </g>
   <g id="patch_4">
    <path d="M 92.16 276.48 
L 437.76 276.48 
" style="fill:none;stroke:#262626;stroke-linecap:square;stroke-linejoin:miter;stroke-width:0.8;"/>
   </g>
   <g id="text_13">
    <text style="fill:#262626;font-family:DejaVu Sans;font-size:15px;font-style:normal;font-weight:bold;text-anchor:middle;" transform="rotate(-0, 264.96, 21.648)" x="264.96" y="21.648">non-VJ length (inserts [+D]) (mean 27.9)</text>
   </g>
  </g>
 </g>
 <defs>
  <clipPath id="pa0b22135fd">
   <rect height="248.832" width="345.6" x="92.16" y="27.648"/>
  </clipPath>
 </defs>
</svg>
