<?xml version="1.0" encoding="utf-8" standalone="no"?>
<!DOCTYPE svg PUBLIC "-//W3C//DTD SVG 1.1//EN"
  "http://www.w3.org/Graphics/SVG/1.1/DTD/svg11.dtd">
<!-- Created with matplotlib (http://matplotlib.org/) -->
<svg height="345.6pt" version="1.1" viewBox="0 0 460.8 345.6" width="460.8pt" xmlns="http://www.w3.org/2000/svg" xmlns:xlink="http://www.w3.org/1999/xlink">
 <defs>
  <style type="text/css">
*{stroke-linecap:butt;stroke-linejoin:round;}
  </style>
 </defs>
 <g id="figure_1">
  <g id="patch_1">
   <path d="M 0 345.6 
L 460.8 345.6 
L 460.8 0 
L 0 0 
z
" style="fill:#ffffff;"/>
  </g>
  <g id="axes_1">
   <g id="patch_2">
    <path d="M 92.16 276.48 
L 437.76 276.48 
L 437.76 27.648 
L 92.16 27.648 
z
" style="fill:#ffffff;"/>
   </g>
   <g id="matplotlib.axis_1">
    <g id="xtick_1">
     <g id="line2d_1">
      <defs>
       <path d="M 0 0 
L 0 3.5 
" id="madabf3f2be" style="stroke:#262626;stroke-width:0.8;"/>
      </defs>
      <g>
       <use style="fill:#262626;stroke:#262626;stroke-width:0.8;" x="113.76" xlink:href="#madabf3f2be" y="276.48"/>
      </g>
     </g>
     <g id="text_1">
      <text style="fill:#262626;font-family:DejaVu Sans;font-size:20px;font-style:normal;font-weight:normal;text-anchor:middle;" transform="rotate(-0, 113.76, 298.676875)" x="113.76" y="298.676875">0</text>
     </g>
    </g>
    <g id="xtick_2">
     <g id="line2d_2">
      <g>
       <use style="fill:#262626;stroke:#262626;stroke-width:0.8;" x="200.16" xlink:href="#madabf3f2be" y="276.48"/>
      </g>
     </g>
     <g id="text_2">
      <text style="fill:#262626;font-family:DejaVu Sans;font-size:20px;font-style:normal;font-weight:normal;text-anchor:middle;" transform="rotate(-0, 200.16, 298.676875)" x="200.16" y="298.676875">2</text>
     </g>
    </g>
    <g id="xtick_3">
     <g id="line2d_3">
      <g>
       <use style="fill:#262626;stroke:#262626;stroke-width:0.8;" x="286.56" xlink:href="#madabf3f2be" y="276.48"/>
      </g>
     </g>
     <g id="text_3">
      <text style="fill:#262626;font-family:DejaVu Sans;font-size:20px;font-style:normal;font-weight:normal;text-anchor:middle;" transform="rotate(-0, 286.56, 298.676875)" x="286.56" y="298.676875">4</text>
     </g>
    </g>
    <g id="xtick_4">
     <g id="line2d_4">
      <g>
       <use style="fill:#262626;stroke:#262626;stroke-width:0.8;" x="372.96" xlink:href="#madabf3f2be" y="276.48"/>
      </g>
     </g>
     <g id="text_4">
      <text style="fill:#262626;font-family:DejaVu Sans;font-size:20px;font-style:normal;font-weight:normal;text-anchor:middle;" transform="rotate(-0, 372.96, 298.676875)" x="372.96" y="298.676875">6</text>
     </g>
    </g>
    <g id="text_5">
     <text style="fill:#262626;font-family:DejaVu Sans;font-size:20px;font-style:normal;font-weight:normal;text-anchor:middle;" transform="rotate(-0, 264.96, 322.033125)" x="264.96" y="322.033125">bases</text>
    </g>
   </g>
   <g id="matplotlib.axis_2">
    <g id="ytick_1">
     <g id="line2d_5">
      <defs>
       <path d="M 0 0 
L -3.5 0 
" id="m0478cde5a7" style="stroke:#262626;stroke-width:0.8;"/>
      </defs>
      <g>
       <use style="fill:#262626;stroke:#262626;stroke-width:0.8;" x="92.16" xlink:href="#m0478cde5a7" y="270.153763"/>
      </g>
     </g>
     <g id="text_6">
      <text style="fill:#262626;font-family:DejaVu Sans;font-size:20px;font-style:normal;font-weight:normal;text-anchor:end;" transform="rotate(-0, 85.16, 277.7522)" x="85.16" y="277.7522">0.0</text>
     </g>
    </g>
    <g id="ytick_2">
     <g id="line2d_6">
      <g>
       <use style="fill:#262626;stroke:#262626;stroke-width:0.8;" x="92.16" xlink:href="#m0478cde5a7" y="214.176148"/>
      </g>
     </g>
     <g id="text_7">
      <text style="fill:#262626;font-family:DejaVu Sans;font-size:20px;font-style:normal;font-weight:normal;text-anchor:end;" transform="rotate(-0, 85.16, 221.774585)" x="85.16" y="221.774585">0.2</text>
     </g>
    </g>
    <g id="ytick_3">
     <g id="line2d_7">
      <g>
       <use style="fill:#262626;stroke:#262626;stroke-width:0.8;" x="92.16" xlink:href="#m0478cde5a7" y="158.198533"/>
      </g>
     </g>
     <g id="text_8">
      <text style="fill:#262626;font-family:DejaVu Sans;font-size:20px;font-style:normal;font-weight:normal;text-anchor:end;" transform="rotate(-0, 85.16, 165.796971)" x="85.16" y="165.796971">0.4</text>
     </g>
    </g>
    <g id="ytick_4">
     <g id="line2d_8">
      <g>
       <use style="fill:#262626;stroke:#262626;stroke-width:0.8;" x="92.16" xlink:href="#m0478cde5a7" y="102.220918"/>
      </g>
     </g>
     <g id="text_9">
      <text style="fill:#262626;font-family:DejaVu Sans;font-size:20px;font-style:normal;font-weight:normal;text-anchor:end;" transform="rotate(-0, 85.16, 109.819356)" x="85.16" y="109.819356">0.6</text>
     </g>
    </g>
    <g id="ytick_5">
     <g id="line2d_9">
      <g>
       <use style="fill:#262626;stroke:#262626;stroke-width:0.8;" x="92.16" xlink:href="#m0478cde5a7" y="46.243304"/>
      </g>
     </g>
     <g id="text_10">
      <text style="fill:#262626;font-family:DejaVu Sans;font-size:20px;font-style:normal;font-weight:normal;text-anchor:end;" transform="rotate(-0, 85.16, 53.841741)" x="85.16" y="53.841741">0.8</text>
     </g>
    </g>
    <g id="text_11">
     <text style="fill:#262626;font-family:DejaVu Sans;font-size:20px;font-style:normal;font-weight:normal;text-anchor:middle;" transform="rotate(-90, 45.194375, 152.064)" x="45.194375" y="152.064">freq (73 total)</text>
    </g>
   </g>
   <g id="LineCollection_1">
    <path clip-path="url(#pcab06ebd21)" d="M 113.76 87.713509 
L 113.76 30.844864 
" style="fill:none;stroke:#4169e1;stroke-width:3;"/>
    <path clip-path="url(#pcab06ebd21)" d="M 156.96 247.149263 
L 156.96 224.144764 
" style="fill:none;stroke:#4169e1;stroke-width:3;"/>
    <path clip-path="url(#pcab06ebd21)" d="M 200.16 265.29234 
L 200.16 252.010686 
" style="fill:none;stroke:#4169e1;stroke-width:3;"/>
    <path clip-path="url(#pcab06ebd21)" d="M 243.36 265.29234 
L 243.36 252.010686 
" style="fill:none;stroke:#4169e1;stroke-width:3;"/>
    <path clip-path="url(#pcab06ebd21)" d="M 286.56 270.153763 
L 286.56 262.485596 
" style="fill:none;stroke:#4169e1;stroke-width:3;"/>
    <path clip-path="url(#pcab06ebd21)" d="M 329.76 270.153763 
L 329.76 270.153763 
" style="fill:none;stroke:#4169e1;stroke-width:3;"/>
    <path clip-path="url(#pcab06ebd21)" d="M 372.96 270.153763 
L 372.96 262.485596 
" style="fill:none;stroke:#4169e1;stroke-width:3;"/>
    <path clip-path="url(#pcab06ebd21)" d="M 416.16 270.153763 
L 416.16 262.485596 
" style="fill:none;stroke:#4169e1;stroke-width:3;"/>
   </g>
   <g id="line2d_10">
    <path clip-path="url(#pcab06ebd21)" d="M 113.76 59.279186 
L 156.96 235.647014 
L 200.16 258.651513 
L 243.36 258.651513 
L 286.56 266.31968 
L 329.76 270.153763 
L 372.96 266.31968 
L 416.16 266.31968 
" style="fill:none;stroke:#4169e1;stroke-linecap:round;stroke-width:3;"/>
    <defs>
     <path d="M 0 3.25 
C 0.86191 3.25 1.688635 2.907559 2.298097 2.298097 
C 2.907559 1.688635 3.25 0.86191 3.25 0 
C 3.25 -0.86191 2.907559 -1.688635 2.298097 -2.298097 
C 1.688635 -2.907559 0.86191 -3.25 0 -3.25 
C -0.86191 -3.25 -1.688635 -2.907559 -2.298097 -2.298097 
C -2.907559 -1.688635 -3.25 -0.86191 -3.25 0 
C -3.25 0.86191 -2.907559 1.688635 -2.298097 2.298097 
C -1.688635 2.907559 -0.86191 3.25 0 3.25 
z
" id="ma605b7d701" style="stroke:#4169e1;"/>
    </defs>
    <g clip-path="url(#pcab06ebd21)">
     <use style="fill:#4169e1;stroke:#4169e1;" x="113.76" xlink:href="#ma605b7d701" y="59.279186"/>
     <use style="fill:#4169e1;stroke:#4169e1;" x="156.96" xlink:href="#ma605b7d701" y="235.647014"/>
     <use style="fill:#4169e1;stroke:#4169e1;" x="200.16" xlink:href="#ma605b7d701" y="258.651513"/>
     <use style="fill:#4169e1;stroke:#4169e1;" x="243.36" xlink:href="#ma605b7d701" y="258.651513"/>
     <use style="fill:#4169e1;stroke:#4169e1;" x="286.56" xlink:href="#ma605b7d701" y="266.31968"/>
     <use style="fill:#4169e1;stroke:#4169e1;" x="329.76" xlink:href="#ma605b7d701" y="270.153763"/>
     <use style="fill:#4169e1;stroke:#4169e1;" x="372.96" xlink:href="#ma605b7d701" y="266.31968"/>
     <use style="fill:#4169e1;stroke:#4169e1;" x="416.16" xlink:href="#ma605b7d701" y="266.31968"/>
    </g>
   </g>
   <g id="patch_3">
    <path d="M 92.16 276.48 
L 92.16 27.648 
" style="fill:none;stroke:#262626;stroke-linecap:square;stroke-linejoin:miter;stroke-width:0.8;"/>
   </g>
   <g id="patch_4">
    <path d="M 92.16 276.48 
L 437.76 276.48 
" style="fill:none;stroke:#262626;stroke-linecap:square;stroke-linejoin:miter;stroke-width:0.8;"/>
   </g>
   <g id="text_12">
    <text style="fill:#262626;font-family:DejaVu Sans;font-size:20px;font-style:normal;font-weight:bold;text-anchor:middle;" transform="rotate(-0, 264.96, 21.648)" x="264.96" y="21.648">V 3' deletion</text>
   </g>
  </g>
 </g>
 <defs>
  <clipPath id="pcab06ebd21">
   <rect height="248.832" width="345.6" x="92.16" y="27.648"/>
  </clipPath>
 </defs>
</svg>
