<?xml version="1.0" encoding="utf-8" standalone="no"?>
<!DOCTYPE svg PUBLIC "-//W3C//DTD SVG 1.1//EN"
  "http://www.w3.org/Graphics/SVG/1.1/DTD/svg11.dtd">
<!-- Created with matplotlib (http://matplotlib.org/) -->
<svg height="345.6pt" version="1.1" viewBox="0 0 460.8 345.6" width="460.8pt" xmlns="http://www.w3.org/2000/svg" xmlns:xlink="http://www.w3.org/1999/xlink">
 <defs>
  <style type="text/css">
*{stroke-linecap:butt;stroke-linejoin:round;}
  </style>
 </defs>
 <g id="figure_1">
  <g id="patch_1">
   <path d="M 0 345.6 
L 460.8 345.6 
L 460.8 0 
L 0 0 
z
" style="fill:#ffffff;"/>
  </g>
  <g id="axes_1">
   <g id="patch_2">
    <path d="M 92.16 276.48 
L 437.76 276.48 
L 437.76 27.648 
L 92.16 27.648 
z
" style="fill:#ffffff;"/>
   </g>
   <g id="matplotlib.axis_1">
    <g id="xtick_1">
     <g id="line2d_1">
      <defs>
       <path d="M 0 0 
L 0 3.5 
" id="m2a11b1c5d9" style="stroke:#262626;stroke-width:0.8;"/>
      </defs>
      <g>
       <use style="fill:#262626;stroke:#262626;stroke-width:0.8;" x="100.388571" xlink:href="#m2a11b1c5d9" y="276.48"/>
      </g>
     </g>
     <g id="text_1">
      <text style="fill:#262626;font-family:DejaVu Sans;font-size:20px;font-style:normal;font-weight:normal;text-anchor:middle;" transform="rotate(-0, 100.388571, 298.676875)" x="100.388571" y="298.676875">0</text>
     </g>
    </g>
    <g id="xtick_2">
     <g id="line2d_2">
      <g>
       <use style="fill:#262626;stroke:#262626;stroke-width:0.8;" x="182.674286" xlink:href="#m2a11b1c5d9" y="276.48"/>
      </g>
     </g>
     <g id="text_2">
      <text style="fill:#262626;font-family:DejaVu Sans;font-size:20px;font-style:normal;font-weight:normal;text-anchor:middle;" transform="rotate(-0, 182.674286, 298.676875)" x="182.674286" y="298.676875">5</text>
     </g>
    </g>
    <g id="xtick_3">
     <g id="line2d_3">
      <g>
       <use style="fill:#262626;stroke:#262626;stroke-width:0.8;" x="264.96" xlink:href="#m2a11b1c5d9" y="276.48"/>
      </g>
     </g>
     <g id="text_3">
      <text style="fill:#262626;font-family:DejaVu Sans;font-size:20px;font-style:normal;font-weight:normal;text-anchor:middle;" transform="rotate(-0, 264.96, 298.676875)" x="264.96" y="298.676875">10</text>
     </g>
    </g>
    <g id="xtick_4">
     <g id="line2d_4">
      <g>
       <use style="fill:#262626;stroke:#262626;stroke-width:0.8;" x="347.245714" xlink:href="#m2a11b1c5d9" y="276.48"/>
      </g>
     </g>
     <g id="text_4">
      <text style="fill:#262626;font-family:DejaVu Sans;font-size:20px;font-style:normal;font-weight:normal;text-anchor:middle;" transform="rotate(-0, 347.245714, 298.676875)" x="347.245714" y="298.676875">15</text>
     </g>
    </g>
    <g id="xtick_5">
     <g id="line2d_5">
      <g>
       <use style="fill:#262626;stroke:#262626;stroke-width:0.8;" x="429.531429" xlink:href="#m2a11b1c5d9" y="276.48"/>
      </g>
     </g>
     <g id="text_5">
      <text style="fill:#262626;font-family:DejaVu Sans;font-size:20px;font-style:normal;font-weight:normal;text-anchor:middle;" transform="rotate(-0, 429.531429, 298.676875)" x="429.531429" y="298.676875">20</text>
     </g>
    </g>
    <g id="text_6">
     <text style="fill:#262626;font-family:DejaVu Sans;font-size:20px;font-style:normal;font-weight:normal;text-anchor:middle;" transform="rotate(-0, 264.96, 322.033125)" x="264.96" y="322.033125">bases</text>
    </g>
   </g>
   <g id="matplotlib.axis_2">
    <g id="ytick_1">
     <g id="line2d_6">
      <defs>
       <path d="M 0 0 
L -3.5 0 
" id="m6f72b50fde" style="stroke:#262626;stroke-width:0.8;"/>
      </defs>
      <g>
       <use style="fill:#262626;stroke:#262626;stroke-width:0.8;" x="92.16" xlink:href="#m6f72b50fde" y="270.153763"/>
      </g>
     </g>
     <g id="text_7">
      <text style="fill:#262626;font-family:DejaVu Sans;font-size:20px;font-style:normal;font-weight:normal;text-anchor:end;" transform="rotate(-0, 85.16, 277.7522)" x="85.16" y="277.7522">0.0</text>
     </g>
    </g>
    <g id="ytick_2">
     <g id="line2d_7">
      <g>
       <use style="fill:#262626;stroke:#262626;stroke-width:0.8;" x="92.16" xlink:href="#m6f72b50fde" y="189.133531"/>
      </g>
     </g>
     <g id="text_8">
      <text style="fill:#262626;font-family:DejaVu Sans;font-size:20px;font-style:normal;font-weight:normal;text-anchor:end;" transform="rotate(-0, 85.16, 196.731968)" x="85.16" y="196.731968">0.1</text>
     </g>
    </g>
    <g id="ytick_3">
     <g id="line2d_8">
      <g>
       <use style="fill:#262626;stroke:#262626;stroke-width:0.8;" x="92.16" xlink:href="#m6f72b50fde" y="108.113299"/>
      </g>
     </g>
     <g id="text_9">
      <text style="fill:#262626;font-family:DejaVu Sans;font-size:20px;font-style:normal;font-weight:normal;text-anchor:end;" transform="rotate(-0, 85.16, 115.711736)" x="85.16" y="115.711736">0.2</text>
     </g>
    </g>
    <g id="text_10">
     <text style="fill:#262626;font-family:DejaVu Sans;font-size:20px;font-style:normal;font-weight:normal;text-anchor:middle;" transform="rotate(-90, 45.194375, 152.064)" x="45.194375" y="152.064">freq (73 total)</text>
    </g>
   </g>
   <g id="LineCollection_1">
    <path clip-path="url(#pcd593ed0d0)" d="M 100.388571 107.657132 
L 100.388571 10.901241 
" style="fill:none;stroke:#4169e1;stroke-width:3;"/>
    <path clip-path="url(#pcd593ed0d0)" d="M 116.845714 136.96982 
L 116.845714 48.180525 
" style="fill:none;stroke:#4169e1;stroke-width:3;"/>
    <path clip-path="url(#pcd593ed0d0)" d="M 133.302857 230.74785 
L 133.302857 176.375733 
" style="fill:none;stroke:#4169e1;stroke-width:3;"/>
    <path clip-path="url(#pcd593ed0d0)" d="M 149.76 239.477816 
L 149.76 189.843091 
" style="fill:none;stroke:#4169e1;stroke-width:3;"/>
    <path clip-path="url(#pcd593ed0d0)" d="M 166.217143 203.561791 
L 166.217143 136.96982 
" style="fill:none;stroke:#4169e1;stroke-width:3;"/>
    <path clip-path="url(#pcd593ed0d0)" d="M 182.674286 247.956439 
L 182.674286 203.561791 
" style="fill:none;stroke:#4169e1;stroke-width:3;"/>
    <path clip-path="url(#pcd593ed0d0)" d="M 199.131429 270.153763 
L 199.131429 247.956439 
" style="fill:none;stroke:#4169e1;stroke-width:3;"/>
    <path clip-path="url(#pcd593ed0d0)" d="M 215.588571 256.081223 
L 215.588571 217.634331 
" style="fill:none;stroke:#4169e1;stroke-width:3;"/>
    <path clip-path="url(#pcd593ed0d0)" d="M 232.045714 270.153763 
L 232.045714 247.956439 
" style="fill:none;stroke:#4169e1;stroke-width:3;"/>
    <path clip-path="url(#pcd593ed0d0)" d="M 248.502857 270.153763 
L 248.502857 270.153763 
" style="fill:none;stroke:#4169e1;stroke-width:3;"/>
    <path clip-path="url(#pcd593ed0d0)" d="M 264.96 256.081223 
L 264.96 217.634331 
" style="fill:none;stroke:#4169e1;stroke-width:3;"/>
    <path clip-path="url(#pcd593ed0d0)" d="M 281.417143 270.153763 
L 281.417143 247.956439 
" style="fill:none;stroke:#4169e1;stroke-width:3;"/>
    <path clip-path="url(#pcd593ed0d0)" d="M 297.874286 270.153763 
L 297.874286 270.153763 
" style="fill:none;stroke:#4169e1;stroke-width:3;"/>
    <path clip-path="url(#pcd593ed0d0)" d="M 314.331429 270.153763 
L 314.331429 247.956439 
" style="fill:none;stroke:#4169e1;stroke-width:3;"/>
    <path clip-path="url(#pcd593ed0d0)" d="M 330.788571 270.153763 
L 330.788571 270.153763 
" style="fill:none;stroke:#4169e1;stroke-width:3;"/>
    <path clip-path="url(#pcd593ed0d0)" d="M 347.245714 270.153763 
L 347.245714 270.153763 
" style="fill:none;stroke:#4169e1;stroke-width:3;"/>
    <path clip-path="url(#pcd593ed0d0)" d="M 363.702857 270.153763 
L 363.702857 270.153763 
" style="fill:none;stroke:#4169e1;stroke-width:3;"/>
    <path clip-path="url(#pcd593ed0d0)" d="M 380.16 270.153763 
L 380.16 270.153763 
" style="fill:none;stroke:#4169e1;stroke-width:3;"/>
    <path clip-path="url(#pcd593ed0d0)" d="M 396.617143 263.652317 
L 396.617143 232.260561 
" style="fill:none;stroke:#4169e1;stroke-width:3;"/>
    <path clip-path="url(#pcd593ed0d0)" d="M 413.074286 270.153763 
L 413.074286 247.956439 
" style="fill:none;stroke:#4169e1;stroke-width:3;"/>
    <path clip-path="url(#pcd593ed0d0)" d="M 429.531429 270.153763 
L 429.531429 247.956439 
" style="fill:none;stroke:#4169e1;stroke-width:3;"/>
   </g>
   <g id="line2d_9">
    <path clip-path="url(#pcd593ed0d0)" d="M 100.388571 59.279186 
L 116.845714 92.575172 
L 133.302857 203.561791 
L 149.76 214.660453 
L 166.217143 170.265806 
L 182.674286 225.759115 
L 199.131429 259.055101 
L 215.588571 236.857777 
L 232.045714 259.055101 
L 248.502857 270.153763 
L 264.96 236.857777 
L 281.417143 259.055101 
L 297.874286 270.153763 
L 314.331429 259.055101 
L 330.788571 270.153763 
L 347.245714 270.153763 
L 363.702857 270.153763 
L 380.16 270.153763 
L 396.617143 247.956439 
L 413.074286 259.055101 
L 429.531429 259.055101 
" style="fill:none;stroke:#4169e1;stroke-linecap:round;stroke-width:3;"/>
    <defs>
     <path d="M 0 3.25 
C 0.86191 3.25 1.688635 2.907559 2.298097 2.298097 
C 2.907559 1.688635 3.25 0.86191 3.25 0 
C 3.25 -0.86191 2.907559 -1.688635 2.298097 -2.298097 
C 1.688635 -2.907559 0.86191 -3.25 0 -3.25 
C -0.86191 -3.25 -1.688635 -2.907559 -2.298097 -2.298097 
C -2.907559 -1.688635 -3.25 -0.86191 -3.25 0 
C -3.25 0.86191 -2.907559 1.688635 -2.298097 2.298097 
C -1.688635 2.907559 -0.86191 3.25 0 3.25 
z
" id="mea1f95544c" style="stroke:#4169e1;"/>
    </defs>
    <g clip-path="url(#pcd593ed0d0)">
     <use style="fill:#4169e1;stroke:#4169e1;" x="100.388571" xlink:href="#mea1f95544c" y="59.279186"/>
     <use style="fill:#4169e1;stroke:#4169e1;" x="116.845714" xlink:href="#mea1f95544c" y="92.575172"/>
     <use style="fill:#4169e1;stroke:#4169e1;" x="133.302857" xlink:href="#mea1f95544c" y="203.561791"/>
     <use style="fill:#4169e1;stroke:#4169e1;" x="149.76" xlink:href="#mea1f95544c" y="214.660453"/>
     <use style="fill:#4169e1;stroke:#4169e1;" x="166.217143" xlink:href="#mea1f95544c" y="170.265806"/>
     <use style="fill:#4169e1;stroke:#4169e1;" x="182.674286" xlink:href="#mea1f95544c" y="225.759115"/>
     <use style="fill:#4169e1;stroke:#4169e1;" x="199.131429" xlink:href="#mea1f95544c" y="259.055101"/>
     <use style="fill:#4169e1;stroke:#4169e1;" x="215.588571" xlink:href="#mea1f95544c" y="236.857777"/>
     <use style="fill:#4169e1;stroke:#4169e1;" x="232.045714" xlink:href="#mea1f95544c" y="259.055101"/>
     <use style="fill:#4169e1;stroke:#4169e1;" x="248.502857" xlink:href="#mea1f95544c" y="270.153763"/>
     <use style="fill:#4169e1;stroke:#4169e1;" x="264.96" xlink:href="#mea1f95544c" y="236.857777"/>
     <use style="fill:#4169e1;stroke:#4169e1;" x="281.417143" xlink:href="#mea1f95544c" y="259.055101"/>
     <use style="fill:#4169e1;stroke:#4169e1;" x="297.874286" xlink:href="#mea1f95544c" y="270.153763"/>
     <use style="fill:#4169e1;stroke:#4169e1;" x="314.331429" xlink:href="#mea1f95544c" y="259.055101"/>
     <use style="fill:#4169e1;stroke:#4169e1;" x="330.788571" xlink:href="#mea1f95544c" y="270.153763"/>
     <use style="fill:#4169e1;stroke:#4169e1;" x="347.245714" xlink:href="#mea1f95544c" y="270.153763"/>
     <use style="fill:#4169e1;stroke:#4169e1;" x="363.702857" xlink:href="#mea1f95544c" y="270.153763"/>
     <use style="fill:#4169e1;stroke:#4169e1;" x="380.16" xlink:href="#mea1f95544c" y="270.153763"/>
     <use style="fill:#4169e1;stroke:#4169e1;" x="396.617143" xlink:href="#mea1f95544c" y="247.956439"/>
     <use style="fill:#4169e1;stroke:#4169e1;" x="413.074286" xlink:href="#mea1f95544c" y="259.055101"/>
     <use style="fill:#4169e1;stroke:#4169e1;" x="429.531429" xlink:href="#mea1f95544c" y="259.055101"/>
    </g>
   </g>
   <g id="patch_3">
    <path d="M 92.16 276.48 
L 92.16 27.648 
" style="fill:none;stroke:#262626;stroke-linecap:square;stroke-linejoin:miter;stroke-width:0.8;"/>
   </g>
   <g id="patch_4">
    <path d="M 92.16 276.48 
L 437.76 276.48 
" style="fill:none;stroke:#262626;stroke-linecap:square;stroke-linejoin:miter;stroke-width:0.8;"/>
   </g>
   <g id="text_11">
    <text style="fill:#262626;font-family:DejaVu Sans;font-size:20px;font-style:normal;font-weight:bold;text-anchor:middle;" transform="rotate(-0, 264.96, 21.648)" x="264.96" y="21.648">VD N length</text>
   </g>
  </g>
 </g>
 <defs>
  <clipPath id="pcd593ed0d0">
   <rect height="248.832" width="345.6" x="92.16" y="27.648"/>
  </clipPath>
 </defs>
</svg>
