<?xml version="1.0" encoding="utf-8" standalone="no"?>
<!DOCTYPE svg PUBLIC "-//W3C//DTD SVG 1.1//EN"
  "http://www.w3.org/Graphics/SVG/1.1/DTD/svg11.dtd">
<!-- Created with matplotlib (http://matplotlib.org/) -->
<svg height="345.6pt" version="1.1" viewBox="0 0 460.8 345.6" width="460.8pt" xmlns="http://www.w3.org/2000/svg" xmlns:xlink="http://www.w3.org/1999/xlink">
 <defs>
  <style type="text/css">
*{stroke-linecap:butt;stroke-linejoin:round;}
  </style>
 </defs>
 <g id="figure_1">
  <g id="patch_1">
   <path d="M 0 345.6 
L 460.8 345.6 
L 460.8 0 
L 0 0 
z
" style="fill:#ffffff;"/>
  </g>
  <g id="axes_1">
   <g id="patch_2">
    <path d="M 128.271875 280.292969 
L 426.15 280.292969 
L 426.15 38.744531 
L 128.271875 38.744531 
z
" style="fill:#ffffff;"/>
   </g>
   <g id="matplotlib.axis_1">
    <g id="xtick_1">
     <g id="line2d_1">
      <defs>
       <path d="M 0 0 
L 0 3.5 
" id="mcdee0faf9d" style="stroke:#262626;stroke-width:0.8;"/>
      </defs>
      <g>
       <use style="fill:#262626;stroke:#262626;stroke-width:0.8;" x="128.271875" xlink:href="#mcdee0faf9d" y="280.292969"/>
      </g>
     </g>
     <g id="text_1">
      <text style="fill:#262626;font-family:Lato;font-size:15px;font-style:normal;font-weight:600;text-anchor:middle;" transform="rotate(-0, 128.271875, 298.4375)" x="128.271875" y="298.4375">90</text>
     </g>
    </g>
    <g id="xtick_2">
     <g id="line2d_2">
      <g>
       <use style="fill:#262626;stroke:#262626;stroke-width:0.8;" x="187.8475" xlink:href="#mcdee0faf9d" y="280.292969"/>
      </g>
     </g>
     <g id="text_2">
      <text style="fill:#262626;font-family:Lato;font-size:15px;font-style:normal;font-weight:600;text-anchor:middle;" transform="rotate(-0, 187.8475, 298.4375)" x="187.8475" y="298.4375">92</text>
     </g>
    </g>
    <g id="xtick_3">
     <g id="line2d_3">
      <g>
       <use style="fill:#262626;stroke:#262626;stroke-width:0.8;" x="247.423125" xlink:href="#mcdee0faf9d" y="280.292969"/>
      </g>
     </g>
     <g id="text_3">
      <text style="fill:#262626;font-family:Lato;font-size:15px;font-style:normal;font-weight:600;text-anchor:middle;" transform="rotate(-0, 247.423125, 298.4375)" x="247.423125" y="298.4375">94</text>
     </g>
    </g>
    <g id="xtick_4">
     <g id="line2d_4">
      <g>
       <use style="fill:#262626;stroke:#262626;stroke-width:0.8;" x="306.99875" xlink:href="#mcdee0faf9d" y="280.292969"/>
      </g>
     </g>
     <g id="text_4">
      <text style="fill:#262626;font-family:Lato;font-size:15px;font-style:normal;font-weight:600;text-anchor:middle;" transform="rotate(-0, 306.99875, 298.4375)" x="306.99875" y="298.4375">96</text>
     </g>
    </g>
    <g id="xtick_5">
     <g id="line2d_5">
      <g>
       <use style="fill:#262626;stroke:#262626;stroke-width:0.8;" x="366.574375" xlink:href="#mcdee0faf9d" y="280.292969"/>
      </g>
     </g>
     <g id="text_5">
      <text style="fill:#262626;font-family:Lato;font-size:15px;font-style:normal;font-weight:600;text-anchor:middle;" transform="rotate(-0, 366.574375, 298.4375)" x="366.574375" y="298.4375">98</text>
     </g>
    </g>
    <g id="xtick_6">
     <g id="line2d_6">
      <g>
       <use style="fill:#262626;stroke:#262626;stroke-width:0.8;" x="426.15" xlink:href="#mcdee0faf9d" y="280.292969"/>
      </g>
     </g>
     <g id="text_6">
      <text style="fill:#262626;font-family:Lato;font-size:15px;font-style:normal;font-weight:600;text-anchor:middle;" transform="rotate(-0, 426.15, 298.4375)" x="426.15" y="298.4375">100</text>
     </g>
    </g>
    <g id="text_7">
     <text style="fill:#262626;font-family:Lato;font-size:20px;font-style:normal;font-weight:600;text-anchor:middle;" transform="rotate(-0, 277.210938, 320.65)" x="277.210938" y="320.65">AA lb ratio threshold (percentile)</text>
    </g>
   </g>
   <g id="matplotlib.axis_2">
    <g id="ytick_1">
     <g id="line2d_7">
      <defs>
       <path d="M 0 0 
L -3.5 0 
" id="m546f43d0ae" style="stroke:#262626;stroke-width:0.8;"/>
      </defs>
      <g>
       <use style="fill:#262626;stroke:#262626;stroke-width:0.8;" x="128.271875" xlink:href="#m546f43d0ae" y="250.992905"/>
      </g>
     </g>
     <g id="text_8">
      <text style="fill:#262626;font-family:Lato;font-size:15px;font-style:normal;font-weight:600;text-anchor:end;" transform="rotate(-0, 121.271875, 256.565171)" x="121.271875" y="256.565171">−0.0010</text>
     </g>
    </g>
    <g id="ytick_2">
     <g id="line2d_8">
      <g>
       <use style="fill:#262626;stroke:#262626;stroke-width:0.8;" x="128.271875" xlink:href="#m546f43d0ae" y="205.255828"/>
      </g>
     </g>
     <g id="text_9">
      <text style="fill:#262626;font-family:Lato;font-size:15px;font-style:normal;font-weight:600;text-anchor:end;" transform="rotate(-0, 121.271875, 210.828093)" x="121.271875" y="210.828093">−0.0005</text>
     </g>
    </g>
    <g id="ytick_3">
     <g id="line2d_9">
      <g>
       <use style="fill:#262626;stroke:#262626;stroke-width:0.8;" x="128.271875" xlink:href="#m546f43d0ae" y="159.51875"/>
      </g>
     </g>
     <g id="text_10">
      <text style="fill:#262626;font-family:Lato;font-size:15px;font-style:normal;font-weight:600;text-anchor:end;" transform="rotate(-0, 121.271875, 165.091016)" x="121.271875" y="165.091016">0.0000</text>
     </g>
    </g>
    <g id="ytick_4">
     <g id="line2d_10">
      <g>
       <use style="fill:#262626;stroke:#262626;stroke-width:0.8;" x="128.271875" xlink:href="#m546f43d0ae" y="113.781672"/>
      </g>
     </g>
     <g id="text_11">
      <text style="fill:#262626;font-family:Lato;font-size:15px;font-style:normal;font-weight:600;text-anchor:end;" transform="rotate(-0, 121.271875, 119.353938)" x="121.271875" y="119.353938">0.0005</text>
     </g>
    </g>
    <g id="ytick_5">
     <g id="line2d_11">
      <g>
       <use style="fill:#262626;stroke:#262626;stroke-width:0.8;" x="128.271875" xlink:href="#m546f43d0ae" y="68.044595"/>
      </g>
     </g>
     <g id="text_12">
      <text style="fill:#262626;font-family:Lato;font-size:15px;font-style:normal;font-weight:600;text-anchor:end;" transform="rotate(-0, 121.271875, 73.616861)" x="121.271875" y="73.616861">0.0010</text>
     </g>
    </g>
    <g id="text_13">
     <text style="fill:#262626;font-family:Lato;font-size:20px;font-style:normal;font-weight:600;" transform="translate(36.71875 252.564062)rotate(-90)">mean affinity change</text>
     <text style="fill:#262626;font-family:Lato;font-size:20px;font-style:normal;font-weight:600;" transform="translate(58.159375 212.565625)rotate(-90)">from parent</text>
    </g>
   </g>
   <g id="line2d_12">
    <path clip-path="url(#p204ec845a7)" d="M 128.271875 159.51875 
L 134.229438 159.51875 
L 140.187 159.51875 
L 146.144563 159.51875 
L 152.102125 159.51875 
L 158.059688 159.51875 
L 164.01725 159.51875 
L 169.974813 159.51875 
L 175.932375 159.51875 
L 181.889938 159.51875 
L 187.8475 159.51875 
L 193.805063 159.51875 
L 199.762625 159.51875 
L 205.720188 159.51875 
L 211.67775 159.51875 
L 217.635313 159.51875 
L 223.592875 159.51875 
L 229.550438 159.51875 
L 235.508 159.51875 
L 241.465563 159.51875 
L 247.423125 159.51875 
L 253.380688 159.51875 
L 259.33825 159.51875 
L 265.295813 159.51875 
L 271.253375 159.51875 
L 277.210938 159.51875 
L 283.1685 159.51875 
L 289.126063 159.51875 
L 295.083625 214.416122 
L 301.041188 214.416122 
L 306.99875 214.416122 
L 312.956313 214.416122 
L 318.913875 214.416122 
L 324.871438 214.416122 
L 330.829 214.416122 
L 336.786563 214.416122 
L 342.744125 214.416122 
L 348.701688 214.416122 
L 354.65925 214.416122 
L 360.616813 214.416122 
L 366.574375 214.416122 
L 372.531938 214.416122 
L 378.4895 214.416122 
L 384.447063 269.313494 
L 390.404625 269.313494 
L 396.362188 269.313494 
L 402.31975 269.313494 
L 408.277313 269.313494 
L 414.234875 269.313494 
L 420.192438 269.313494 
" style="fill:none;stroke:#1f77b4;stroke-linecap:round;stroke-opacity:0.7;stroke-width:3;"/>
   </g>
   <g id="line2d_13">
    <path clip-path="url(#p204ec845a7)" d="M 113.675847 208.885521 
L 434.788466 208.885521 
" style="fill:none;stroke:#8b0000;stroke-dasharray:11.1,4.8;stroke-dashoffset:0;stroke-opacity:0.7;stroke-width:3;"/>
   </g>
   <g id="line2d_14">
    <path clip-path="url(#p204ec845a7)" d="M 128.271875 54.373403 
L 134.229438 54.373403 
L 140.187 54.373403 
L 146.144563 54.373403 
L 152.102125 54.373403 
L 158.059688 54.373403 
L 164.01725 54.373403 
L 169.974813 54.373403 
L 175.932375 54.373403 
L 181.889938 54.373403 
L 187.8475 54.373403 
L 193.805063 54.373403 
L 199.762625 54.373403 
L 205.720188 54.373403 
L 211.67775 49.724006 
L 217.635313 49.724006 
L 223.592875 49.724006 
L 229.550438 49.724006 
L 235.508 49.724006 
L 241.465563 49.724006 
L 247.423125 49.724006 
L 253.380688 49.724006 
L 259.33825 49.724006 
L 265.295813 49.724006 
L 271.253375 49.724006 
L 277.210938 49.724006 
L 283.1685 49.724006 
L 289.126063 49.724006 
L 295.083625 49.724006 
L 301.041188 49.724006 
L 306.99875 49.724006 
L 312.956313 49.724006 
L 318.913875 49.724006 
L 324.871438 49.724006 
L 330.829 49.724006 
L 336.786563 49.724006 
L 342.744125 49.724006 
L 348.701688 49.724006 
L 354.65925 49.724006 
L 360.616813 49.724006 
L 366.574375 49.724006 
L 372.531938 49.724006 
L 378.4895 49.724006 
L 384.447063 49.724006 
L 390.404625 49.724006 
L 396.362188 49.724006 
L 402.31975 49.724006 
L 408.277313 49.724006 
L 414.234875 49.724006 
L 420.192438 49.724006 
" style="fill:none;stroke:#006400;stroke-dasharray:11.1,4.8;stroke-dashoffset:0;stroke-opacity:0.7;stroke-width:3;"/>
   </g>
   <g id="line2d_15">
    <path clip-path="url(#p204ec845a7)" d="M 113.675847 159.51875 
L 434.788466 159.51875 
" style="fill:none;stroke:#808080;stroke-dasharray:5.55,2.4;stroke-dashoffset:0;stroke-opacity:0.7;stroke-width:1.5;"/>
   </g>
   <g id="patch_3">
    <path d="M 128.271875 280.292969 
L 128.271875 38.744531 
" style="fill:none;stroke:#262626;stroke-linecap:square;stroke-linejoin:miter;stroke-width:0.8;"/>
   </g>
   <g id="patch_4">
    <path d="M 128.271875 280.292969 
L 426.15 280.292969 
" style="fill:none;stroke:#262626;stroke-linecap:square;stroke-linejoin:miter;stroke-width:0.8;"/>
   </g>
   <g id="text_14">
    <text style="fill:#262626;font-family:Lato;font-size:15px;font-style:normal;font-weight:bold;text-anchor:middle;" transform="rotate(-0, 277.210938, 32.744531)" x="277.210938" y="32.744531">affinity change, iclust 0</text>
   </g>
   <g id="legend_1">
    <g id="patch_5">
     <path d="M 145.965781 130.532938 
L 307.265469 130.532938 
Q 310.065469 130.532938 310.065469 127.732937 
L 310.065469 69.89325 
Q 310.065469 67.09325 307.265469 67.09325 
L 145.965781 67.09325 
Q 143.165781 67.09325 143.165781 69.89325 
L 143.165781 127.732937 
Q 143.165781 130.532938 145.965781 130.532938 
z
" style="fill:#ffffff;opacity:0.8;stroke:#cccccc;stroke-linejoin:miter;"/>
    </g>
    <g id="line2d_16">
     <path d="M 148.765781 78.194812 
L 176.765781 78.194812 
" style="fill:none;stroke:#8b0000;stroke-dasharray:11.1,4.8;stroke-dashoffset:0;stroke-opacity:0.7;stroke-width:3;"/>
    </g>
    <g id="line2d_17"/>
    <g id="text_15">
     <text style="fill:#262626;font-family:Lato;font-size:14px;font-style:normal;font-weight:600;text-anchor:start;" transform="rotate(-0, 187.965781, 83.094812)" x="187.965781" y="83.094812">no correlation</text>
    </g>
    <g id="line2d_18">
     <path d="M 148.765781 97.941375 
L 176.765781 97.941375 
" style="fill:none;stroke:#006400;stroke-dasharray:11.1,4.8;stroke-dashoffset:0;stroke-opacity:0.7;stroke-width:3;"/>
    </g>
    <g id="line2d_19"/>
    <g id="text_16">
     <text style="fill:#262626;font-family:Lato;font-size:14px;font-style:normal;font-weight:600;text-anchor:start;" transform="rotate(-0, 187.965781, 102.841375)" x="187.965781" y="102.841375">perfect correlation</text>
    </g>
    <g id="line2d_20">
     <path d="M 148.765781 117.687937 
L 176.765781 117.687937 
" style="fill:none;stroke:#808080;stroke-dasharray:5.55,2.4;stroke-dashoffset:0;stroke-opacity:0.7;stroke-width:1.5;"/>
    </g>
    <g id="line2d_21"/>
    <g id="text_17">
     <text style="fill:#262626;font-family:Lato;font-size:14px;font-style:normal;font-weight:600;text-anchor:start;" transform="rotate(-0, 187.965781, 122.587937)" x="187.965781" y="122.587937">zero</text>
    </g>
   </g>
  </g>
 </g>
 <defs>
  <clipPath id="p204ec845a7">
   <rect height="241.548437" width="297.878125" x="128.271875" y="38.744531"/>
  </clipPath>
 </defs>
</svg>
