<?xml version="1.0" encoding="utf-8" standalone="no"?>
<!DOCTYPE svg PUBLIC "-//W3C//DTD SVG 1.1//EN"
  "http://www.w3.org/Graphics/SVG/1.1/DTD/svg11.dtd">
<!-- Created with matplotlib (http://matplotlib.org/) -->
<svg height="360pt" version="1.1" viewBox="0 0 720 360" width="720pt" xmlns="http://www.w3.org/2000/svg" xmlns:xlink="http://www.w3.org/1999/xlink">
 <defs>
  <style type="text/css">
*{stroke-linecap:butt;stroke-linejoin:round;}
  </style>
 </defs>
 <g id="figure_1">
  <g id="patch_1">
   <path d="M 0 360 
L 720 360 
L 720 0 
L 0 0 
z
" style="fill:#ffffff;"/>
  </g>
  <g id="axes_1">
   <g id="patch_2">
    <path d="M 144 288 
L 684 288 
L 684 28.8 
L 144 28.8 
z
" style="fill:#ffffff;"/>
   </g>
   <g id="matplotlib.axis_1">
    <g id="xtick_1">
     <g id="line2d_1">
      <defs>
       <path d="M 0 0 
L 0 3.5 
" id="m9ff7e46c9b" style="stroke:#262626;stroke-width:0.8;"/>
      </defs>
      <g>
       <use style="fill:#262626;stroke:#262626;stroke-width:0.8;" x="144" xlink:href="#m9ff7e46c9b" y="288"/>
      </g>
     </g>
    </g>
    <g id="xtick_2">
     <g id="line2d_2">
      <g>
       <use style="fill:#262626;stroke:#262626;stroke-width:0.8;" x="166.5" xlink:href="#m9ff7e46c9b" y="288"/>
      </g>
     </g>
     <g id="text_1">
      <text style="fill:#262626;font-family:DejaVu Sans;font-size:8px;font-style:normal;font-weight:normal;" transform="translate(168.7075 342.98125)rotate(-90)">IGHD1-1*01</text>
     </g>
    </g>
    <g id="xtick_3">
     <g id="line2d_3">
      <g>
       <use style="fill:#262626;stroke:#262626;stroke-width:0.8;" x="189" xlink:href="#m9ff7e46c9b" y="288"/>
      </g>
     </g>
     <g id="text_2">
      <text style="fill:#262626;font-family:DejaVu Sans;font-size:8px;font-style:normal;font-weight:normal;" transform="translate(191.2075 348.07125)rotate(-90)">IGHD1-20*01</text>
     </g>
    </g>
    <g id="xtick_4">
     <g id="line2d_4">
      <g>
       <use style="fill:#262626;stroke:#262626;stroke-width:0.8;" x="211.5" xlink:href="#m9ff7e46c9b" y="288"/>
      </g>
     </g>
     <g id="text_3">
      <text style="fill:#262626;font-family:DejaVu Sans;font-size:8px;font-style:normal;font-weight:normal;" transform="translate(213.7075 348.07125)rotate(-90)">IGHD1-26*01</text>
     </g>
    </g>
    <g id="xtick_5">
     <g id="line2d_5">
      <g>
       <use style="fill:#262626;stroke:#262626;stroke-width:0.8;" x="234" xlink:href="#m9ff7e46c9b" y="288"/>
      </g>
     </g>
     <g id="text_4">
      <text style="fill:#262626;font-family:DejaVu Sans;font-size:8px;font-style:normal;font-weight:normal;" transform="translate(236.2075 342.98125)rotate(-90)">IGHD1-7*01</text>
     </g>
    </g>
    <g id="xtick_6">
     <g id="line2d_6">
      <g>
       <use style="fill:#262626;stroke:#262626;stroke-width:0.8;" x="256.5" xlink:href="#m9ff7e46c9b" y="288"/>
      </g>
     </g>
     <g id="text_5">
      <text style="fill:#262626;font-family:DejaVu Sans;font-size:8px;font-style:normal;font-weight:normal;" transform="translate(258.7075 348.07125)rotate(-90)">IGHD2-15*01</text>
     </g>
    </g>
    <g id="xtick_7">
     <g id="line2d_7">
      <g>
       <use style="fill:#262626;stroke:#262626;stroke-width:0.8;" x="279" xlink:href="#m9ff7e46c9b" y="288"/>
      </g>
     </g>
     <g id="text_6">
      <text style="fill:#262626;font-family:DejaVu Sans;font-size:8px;font-style:normal;font-weight:normal;" transform="translate(281.2075 342.98125)rotate(-90)">IGHD2-2*01</text>
     </g>
    </g>
    <g id="xtick_8">
     <g id="line2d_8">
      <g>
       <use style="fill:#262626;stroke:#262626;stroke-width:0.8;" x="301.5" xlink:href="#m9ff7e46c9b" y="288"/>
      </g>
     </g>
     <g id="text_7">
      <text style="fill:#262626;font-family:DejaVu Sans;font-size:8px;font-style:normal;font-weight:normal;" transform="translate(303.7075 342.98125)rotate(-90)">IGHD2-2*02</text>
     </g>
    </g>
    <g id="xtick_9">
     <g id="line2d_9">
      <g>
       <use style="fill:#262626;stroke:#262626;stroke-width:0.8;" x="324" xlink:href="#m9ff7e46c9b" y="288"/>
      </g>
     </g>
     <g id="text_8">
      <text style="fill:#262626;font-family:DejaVu Sans;font-size:8px;font-style:normal;font-weight:normal;" transform="translate(326.2075 342.98125)rotate(-90)">IGHD2-2*03</text>
     </g>
    </g>
    <g id="xtick_10">
     <g id="line2d_10">
      <g>
       <use style="fill:#262626;stroke:#262626;stroke-width:0.8;" x="346.5" xlink:href="#m9ff7e46c9b" y="288"/>
      </g>
     </g>
     <g id="text_9">
      <text style="fill:#262626;font-family:DejaVu Sans;font-size:8px;font-style:normal;font-weight:normal;" transform="translate(348.7075 348.07125)rotate(-90)">IGHD2-21*01</text>
     </g>
    </g>
    <g id="xtick_11">
     <g id="line2d_11">
      <g>
       <use style="fill:#262626;stroke:#262626;stroke-width:0.8;" x="369" xlink:href="#m9ff7e46c9b" y="288"/>
      </g>
     </g>
     <g id="text_10">
      <text style="fill:#262626;font-family:DejaVu Sans;font-size:8px;font-style:normal;font-weight:normal;" transform="translate(371.2075 348.07125)rotate(-90)">IGHD2-21*02</text>
     </g>
    </g>
    <g id="xtick_12">
     <g id="line2d_12">
      <g>
       <use style="fill:#262626;stroke:#262626;stroke-width:0.8;" x="391.5" xlink:href="#m9ff7e46c9b" y="288"/>
      </g>
     </g>
     <g id="text_11">
      <text style="fill:#262626;font-family:DejaVu Sans;font-size:8px;font-style:normal;font-weight:normal;" transform="translate(393.7075 342.98125)rotate(-90)">IGHD2-8*01</text>
     </g>
    </g>
    <g id="xtick_13">
     <g id="line2d_13">
      <g>
       <use style="fill:#262626;stroke:#262626;stroke-width:0.8;" x="414" xlink:href="#m9ff7e46c9b" y="288"/>
      </g>
     </g>
     <g id="text_12">
      <text style="fill:#262626;font-family:DejaVu Sans;font-size:8px;font-style:normal;font-weight:normal;" transform="translate(416.2075 342.98125)rotate(-90)">IGHD2-8*02</text>
     </g>
    </g>
    <g id="xtick_14">
     <g id="line2d_14">
      <g>
       <use style="fill:#262626;stroke:#262626;stroke-width:0.8;" x="436.5" xlink:href="#m9ff7e46c9b" y="288"/>
      </g>
     </g>
     <g id="text_13">
      <text style="fill:#262626;font-family:DejaVu Sans;font-size:8px;font-style:normal;font-weight:normal;" transform="translate(438.7075 348.07125)rotate(-90)">IGHD3-10*01</text>
     </g>
    </g>
    <g id="xtick_15">
     <g id="line2d_15">
      <g>
       <use style="fill:#262626;stroke:#262626;stroke-width:0.8;" x="459" xlink:href="#m9ff7e46c9b" y="288"/>
      </g>
     </g>
     <g id="text_14">
      <text style="fill:#262626;font-family:DejaVu Sans;font-size:8px;font-style:normal;font-weight:normal;" transform="translate(461.2075 348.07125)rotate(-90)">IGHD3-10*02</text>
     </g>
    </g>
    <g id="xtick_16">
     <g id="line2d_16">
      <g>
       <use style="fill:#262626;stroke:#262626;stroke-width:0.8;" x="481.5" xlink:href="#m9ff7e46c9b" y="288"/>
      </g>
     </g>
     <g id="text_15">
      <text style="fill:#262626;font-family:DejaVu Sans;font-size:8px;font-style:normal;font-weight:normal;" transform="translate(483.7075 348.07125)rotate(-90)">IGHD3-16*01</text>
     </g>
    </g>
    <g id="xtick_17">
     <g id="line2d_17">
      <g>
       <use style="fill:#262626;stroke:#262626;stroke-width:0.8;" x="504" xlink:href="#m9ff7e46c9b" y="288"/>
      </g>
     </g>
     <g id="text_16">
      <text style="fill:#262626;font-family:DejaVu Sans;font-size:8px;font-style:normal;font-weight:normal;" transform="translate(506.2075 348.07125)rotate(-90)">IGHD3-16*02</text>
     </g>
    </g>
    <g id="xtick_18">
     <g id="line2d_18">
      <g>
       <use style="fill:#262626;stroke:#262626;stroke-width:0.8;" x="526.5" xlink:href="#m9ff7e46c9b" y="288"/>
      </g>
     </g>
     <g id="text_17">
      <text style="fill:#262626;font-family:DejaVu Sans;font-size:8px;font-style:normal;font-weight:normal;" transform="translate(528.7075 348.07125)rotate(-90)">IGHD3-22*01</text>
     </g>
    </g>
    <g id="xtick_19">
     <g id="line2d_19">
      <g>
       <use style="fill:#262626;stroke:#262626;stroke-width:0.8;" x="549" xlink:href="#m9ff7e46c9b" y="288"/>
      </g>
     </g>
     <g id="text_18">
      <text style="fill:#262626;font-family:DejaVu Sans;font-size:8px;font-style:normal;font-weight:normal;" transform="translate(551.2075 342.98125)rotate(-90)">IGHD3-3*01</text>
     </g>
    </g>
    <g id="xtick_20">
     <g id="line2d_20">
      <g>
       <use style="fill:#262626;stroke:#262626;stroke-width:0.8;" x="571.5" xlink:href="#m9ff7e46c9b" y="288"/>
      </g>
     </g>
     <g id="text_19">
      <text style="fill:#262626;font-family:DejaVu Sans;font-size:8px;font-style:normal;font-weight:normal;" transform="translate(573.7075 342.98125)rotate(-90)">IGHD3-3*02</text>
     </g>
    </g>
    <g id="xtick_21">
     <g id="line2d_21">
      <g>
       <use style="fill:#262626;stroke:#262626;stroke-width:0.8;" x="594" xlink:href="#m9ff7e46c9b" y="288"/>
      </g>
     </g>
     <g id="text_20">
      <text style="fill:#262626;font-family:DejaVu Sans;font-size:8px;font-style:normal;font-weight:normal;" transform="translate(596.2075 342.98125)rotate(-90)">IGHD3-9*01</text>
     </g>
    </g>
    <g id="xtick_22">
     <g id="line2d_22">
      <g>
       <use style="fill:#262626;stroke:#262626;stroke-width:0.8;" x="616.5" xlink:href="#m9ff7e46c9b" y="288"/>
      </g>
     </g>
     <g id="text_21">
      <text style="fill:#262626;font-family:DejaVu Sans;font-size:8px;font-style:normal;font-weight:normal;" transform="translate(618.7075 348.07125)rotate(-90)">IGHD4-17*01</text>
     </g>
    </g>
    <g id="xtick_23">
     <g id="line2d_23">
      <g>
       <use style="fill:#262626;stroke:#262626;stroke-width:0.8;" x="639" xlink:href="#m9ff7e46c9b" y="288"/>
      </g>
     </g>
     <g id="text_22">
      <text style="fill:#262626;font-family:DejaVu Sans;font-size:8px;font-style:normal;font-weight:normal;" transform="translate(641.2075 348.07125)rotate(-90)">IGHD5-12*01</text>
     </g>
    </g>
    <g id="xtick_24">
     <g id="line2d_24">
      <g>
       <use style="fill:#262626;stroke:#262626;stroke-width:0.8;" x="661.5" xlink:href="#m9ff7e46c9b" y="288"/>
      </g>
     </g>
     <g id="text_23">
      <text style="fill:#262626;font-family:DejaVu Sans;font-size:8px;font-style:normal;font-weight:normal;" transform="translate(663.7075 348.07125)rotate(-90)">IGHD6-13*01</text>
     </g>
    </g>
    <g id="xtick_25">
     <g id="line2d_25">
      <g>
       <use style="fill:#262626;stroke:#262626;stroke-width:0.8;" x="684" xlink:href="#m9ff7e46c9b" y="288"/>
      </g>
     </g>
    </g>
    <g id="text_24">
     <text style="fill:#262626;font-family:DejaVu Sans;font-size:20px;font-style:normal;font-weight:normal;text-anchor:middle;" transform="rotate(-0, 414, 367.268125)" x="414" y="367.268125">allele</text>
    </g>
   </g>
   <g id="matplotlib.axis_2">
    <g id="ytick_1">
     <g id="line2d_26">
      <defs>
       <path d="M 0 0 
L -3.5 0 
" id="m2f0679d8c6" style="stroke:#262626;stroke-width:0.8;"/>
      </defs>
      <g>
       <use style="fill:#262626;stroke:#262626;stroke-width:0.8;" x="144" xlink:href="#m2f0679d8c6" y="281.410169"/>
      </g>
     </g>
     <g id="text_25">
      <text style="fill:#262626;font-family:DejaVu Sans;font-size:20px;font-style:normal;font-weight:normal;text-anchor:end;" transform="rotate(-0, 137, 289.008607)" x="137" y="289.008607">0.0</text>
     </g>
    </g>
    <g id="ytick_2">
     <g id="line2d_27">
      <g>
       <use style="fill:#262626;stroke:#262626;stroke-width:0.8;" x="144" xlink:href="#m2f0679d8c6" y="199.447103"/>
      </g>
     </g>
     <g id="text_26">
      <text style="fill:#262626;font-family:DejaVu Sans;font-size:20px;font-style:normal;font-weight:normal;text-anchor:end;" transform="rotate(-0, 137, 207.045541)" x="137" y="207.045541">0.2</text>
     </g>
    </g>
    <g id="ytick_3">
     <g id="line2d_28">
      <g>
       <use style="fill:#262626;stroke:#262626;stroke-width:0.8;" x="144" xlink:href="#m2f0679d8c6" y="117.484037"/>
      </g>
     </g>
     <g id="text_27">
      <text style="fill:#262626;font-family:DejaVu Sans;font-size:20px;font-style:normal;font-weight:normal;text-anchor:end;" transform="rotate(-0, 137, 125.082475)" x="137" y="125.082475">0.4</text>
     </g>
    </g>
    <g id="ytick_4">
     <g id="line2d_29">
      <g>
       <use style="fill:#262626;stroke:#262626;stroke-width:0.8;" x="144" xlink:href="#m2f0679d8c6" y="35.520971"/>
      </g>
     </g>
     <g id="text_28">
      <text style="fill:#262626;font-family:DejaVu Sans;font-size:20px;font-style:normal;font-weight:normal;text-anchor:end;" transform="rotate(-0, 137, 43.119409)" x="137" y="43.119409">0.6</text>
     </g>
    </g>
    <g id="text_29">
     <text style="fill:#262626;font-family:DejaVu Sans;font-size:20px;font-style:normal;font-weight:normal;text-anchor:middle;" transform="rotate(-90, 97.034375, 158.4)" x="97.034375" y="158.4">frequency</text>
    </g>
   </g>
   <g id="LineCollection_1">
    <path clip-path="url(#p4d73ebb213)" d="M 166.5 280.476102 
L 166.5 279.612135 
" style="fill:none;stroke:#006600;stroke-opacity:0.6;"/>
    <path clip-path="url(#p4d73ebb213)" d="M 189 281.032602 
L 189 280.421686 
" style="fill:none;stroke:#006600;stroke-opacity:0.6;"/>
    <path clip-path="url(#p4d73ebb213)" d="M 211.5 278.678067 
L 211.5 277.312016 
" style="fill:none;stroke:#006600;stroke-opacity:0.6;"/>
    <path clip-path="url(#p4d73ebb213)" d="M 234 271.961435 
L 234 269.548507 
" style="fill:none;stroke:#006600;stroke-opacity:0.6;"/>
    <path clip-path="url(#p4d73ebb213)" d="M 256.5 280.815357 
L 256.5 280.092511 
" style="fill:none;stroke:#006600;stroke-opacity:0.6;"/>
    <path clip-path="url(#p4d73ebb213)" d="M 279 280.12684 
L 279 279.141766 
" style="fill:none;stroke:#006600;stroke-opacity:0.6;"/>
    <path clip-path="url(#p4d73ebb213)" d="M 301.5 281.410169 
L 301.5 281.136959 
" style="fill:none;stroke:#006600;stroke-opacity:0.6;"/>
    <path clip-path="url(#p4d73ebb213)" d="M 324 281.330148 
L 324 280.94377 
" style="fill:none;stroke:#006600;stroke-opacity:0.6;"/>
    <path clip-path="url(#p4d73ebb213)" d="M 346.5 270.023266 
L 346.5 267.388522 
" style="fill:none;stroke:#006600;stroke-opacity:0.6;"/>
    <path clip-path="url(#p4d73ebb213)" d="M 369 268.336464 
L 369 265.523592 
" style="fill:none;stroke:#006600;stroke-opacity:0.6;"/>
    <path clip-path="url(#p4d73ebb213)" d="M 391.5 281.410169 
L 391.5 281.136959 
" style="fill:none;stroke:#006600;stroke-opacity:0.6;"/>
    <path clip-path="url(#p4d73ebb213)" d="M 414 199.848713 
L 414 193.034869 
" style="fill:none;stroke:#006600;stroke-opacity:0.6;"/>
    <path clip-path="url(#p4d73ebb213)" d="M 436.5 262.46143 
L 436.5 259.104166 
" style="fill:none;stroke:#006600;stroke-opacity:0.6;"/>
    <path clip-path="url(#p4d73ebb213)" d="M 459 279.288984 
L 459 278.067151 
" style="fill:none;stroke:#006600;stroke-opacity:0.6;"/>
    <path clip-path="url(#p4d73ebb213)" d="M 481.5 72.218 
L 481.5 61.389083 
" style="fill:none;stroke:#006600;stroke-opacity:0.6;"/>
    <path clip-path="url(#p4d73ebb213)" d="M 504 256.284562 
L 504 252.440153 
" style="fill:none;stroke:#006600;stroke-opacity:0.6;"/>
    <path clip-path="url(#p4d73ebb213)" d="M 526.5 281.236961 
L 526.5 280.763747 
" style="fill:none;stroke:#006600;stroke-opacity:0.6;"/>
    <path clip-path="url(#p4d73ebb213)" d="M 549 272.476513 
L 549 270.12627 
" style="fill:none;stroke:#006600;stroke-opacity:0.6;"/>
    <path clip-path="url(#p4d73ebb213)" d="M 571.5 281.330148 
L 571.5 280.94377 
" style="fill:none;stroke:#006600;stroke-opacity:0.6;"/>
    <path clip-path="url(#p4d73ebb213)" d="M 594 281.410169 
L 594 281.136959 
" style="fill:none;stroke:#006600;stroke-opacity:0.6;"/>
    <path clip-path="url(#p4d73ebb213)" d="M 616.5 280.244122 
L 616.5 279.297694 
" style="fill:none;stroke:#006600;stroke-opacity:0.6;"/>
    <path clip-path="url(#p4d73ebb213)" d="M 639 281.410169 
L 639 281.136959 
" style="fill:none;stroke:#006600;stroke-opacity:0.6;"/>
    <path clip-path="url(#p4d73ebb213)" d="M 661.5 281.136959 
L 661.5 280.590539 
" style="fill:none;stroke:#006600;stroke-opacity:0.6;"/>
   </g>
   <g id="LineCollection_2">
    <path clip-path="url(#p4d73ebb213)" d="M 166.5 281.236961 
L 166.5 280.763747 
" style="fill:none;stroke:#990012;stroke-opacity:0.6;"/>
    <path clip-path="url(#p4d73ebb213)" d="M 189 280.925152 
L 189 280.255926 
" style="fill:none;stroke:#990012;stroke-opacity:0.6;"/>
    <path clip-path="url(#p4d73ebb213)" d="M 211.5 278.554989 
L 211.5 277.161885 
" style="fill:none;stroke:#990012;stroke-opacity:0.6;"/>
    <path clip-path="url(#p4d73ebb213)" d="M 234 271.832539 
L 234 269.404193 
" style="fill:none;stroke:#990012;stroke-opacity:0.6;"/>
    <path clip-path="url(#p4d73ebb213)" d="M 256.5 280.12684 
L 256.5 279.141766 
" style="fill:none;stroke:#990012;stroke-opacity:0.6;"/>
    <path clip-path="url(#p4d73ebb213)" d="M 279 279.890162 
L 279 278.832024 
" style="fill:none;stroke:#990012;stroke-opacity:0.6;"/>
    <path clip-path="url(#p4d73ebb213)" d="M 301.5 281.410169 
L 301.5 281.410169 
" style="fill:none;stroke:#990012;stroke-opacity:0.6;"/>
    <path clip-path="url(#p4d73ebb213)" d="M 324 281.410169 
L 324 281.410169 
" style="fill:none;stroke:#990012;stroke-opacity:0.6;"/>
    <path clip-path="url(#p4d73ebb213)" d="M 346.5 266.253199 
L 346.5 263.235493 
" style="fill:none;stroke:#990012;stroke-opacity:0.6;"/>
    <path clip-path="url(#p4d73ebb213)" d="M 369 271.832539 
L 369 269.404193 
" style="fill:none;stroke:#990012;stroke-opacity:0.6;"/>
    <path clip-path="url(#p4d73ebb213)" d="M 391.5 281.410169 
L 391.5 281.410169 
" style="fill:none;stroke:#990012;stroke-opacity:0.6;"/>
    <path clip-path="url(#p4d73ebb213)" d="M 414 199.580975 
L 414 192.756186 
" style="fill:none;stroke:#990012;stroke-opacity:0.6;"/>
    <path clip-path="url(#p4d73ebb213)" d="M 436.5 261.937097 
L 436.5 258.535658 
" style="fill:none;stroke:#990012;stroke-opacity:0.6;"/>
    <path clip-path="url(#p4d73ebb213)" d="M 459 279.530844 
L 459 278.371711 
" style="fill:none;stroke:#990012;stroke-opacity:0.6;"/>
    <path clip-path="url(#p4d73ebb213)" d="M 481.5 67.227 
L 481.5 56.271305 
" style="fill:none;stroke:#990012;stroke-opacity:0.6;"/>
    <path clip-path="url(#p4d73ebb213)" d="M 504 261.150071 
L 504 257.683422 
" style="fill:none;stroke:#990012;stroke-opacity:0.6;"/>
    <path clip-path="url(#p4d73ebb213)" d="M 526.5 281.410169 
L 526.5 281.410169 
" style="fill:none;stroke:#990012;stroke-opacity:0.6;"/>
    <path clip-path="url(#p4d73ebb213)" d="M 549 272.090281 
L 549 269.692871 
" style="fill:none;stroke:#990012;stroke-opacity:0.6;"/>
    <path clip-path="url(#p4d73ebb213)" d="M 571.5 281.410169 
L 571.5 281.410169 
" style="fill:none;stroke:#990012;stroke-opacity:0.6;"/>
    <path clip-path="url(#p4d73ebb213)" d="M 594 281.410169 
L 594 281.410169 
" style="fill:none;stroke:#990012;stroke-opacity:0.6;"/>
    <path clip-path="url(#p4d73ebb213)" d="M 616.5 280.476102 
L 616.5 279.612135 
" style="fill:none;stroke:#990012;stroke-opacity:0.6;"/>
    <path clip-path="url(#p4d73ebb213)" d="M 639 281.410169 
L 639 281.410169 
" style="fill:none;stroke:#990012;stroke-opacity:0.6;"/>
    <path clip-path="url(#p4d73ebb213)" d="M 661.5 281.136959 
L 661.5 280.590539 
" style="fill:none;stroke:#990012;stroke-opacity:0.6;"/>
   </g>
   <g id="LineCollection_3">
    <path clip-path="url(#p4d73ebb213)" d="M 166.5 281.410169 
L 166.5 281.410169 
" style="fill:none;stroke:#2b65ec;stroke-opacity:0.6;"/>
    <path clip-path="url(#p4d73ebb213)" d="M 189 278.121618 
L 189 262.243087 
" style="fill:none;stroke:#2b65ec;stroke-opacity:0.6;"/>
    <path clip-path="url(#p4d73ebb213)" d="M 211.5 256.965815 
L 211.5 227.259803 
" style="fill:none;stroke:#2b65ec;stroke-opacity:0.6;"/>
    <path clip-path="url(#p4d73ebb213)" d="M 234 274.292019 
L 234 254.844869 
" style="fill:none;stroke:#2b65ec;stroke-opacity:0.6;"/>
    <path clip-path="url(#p4d73ebb213)" d="M 256.5 270.182352 
L 256.5 247.726718 
" style="fill:none;stroke:#2b65ec;stroke-opacity:0.6;"/>
    <path clip-path="url(#p4d73ebb213)" d="M 279 274.292019 
L 279 254.844869 
" style="fill:none;stroke:#2b65ec;stroke-opacity:0.6;"/>
    <path clip-path="url(#p4d73ebb213)" d="M 301.5 281.410169 
L 301.5 281.410169 
" style="fill:none;stroke:#2b65ec;stroke-opacity:0.6;"/>
    <path clip-path="url(#p4d73ebb213)" d="M 324 281.410169 
L 324 281.410169 
" style="fill:none;stroke:#2b65ec;stroke-opacity:0.6;"/>
    <path clip-path="url(#p4d73ebb213)" d="M 346.5 281.410169 
L 346.5 270.182352 
" style="fill:none;stroke:#2b65ec;stroke-opacity:0.6;"/>
    <path clip-path="url(#p4d73ebb213)" d="M 369 261.477929 
L 369 233.975506 
" style="fill:none;stroke:#2b65ec;stroke-opacity:0.6;"/>
    <path clip-path="url(#p4d73ebb213)" d="M 391.5 281.410169 
L 391.5 281.410169 
" style="fill:none;stroke:#2b65ec;stroke-opacity:0.6;"/>
    <path clip-path="url(#p4d73ebb213)" d="M 414 261.477929 
L 414 233.975506 
" style="fill:none;stroke:#2b65ec;stroke-opacity:0.6;"/>
    <path clip-path="url(#p4d73ebb213)" d="M 436.5 233.490416 
L 436.5 194.596116 
" style="fill:none;stroke:#2b65ec;stroke-opacity:0.6;"/>
    <path clip-path="url(#p4d73ebb213)" d="M 459 265.893708 
L 459 240.787545 
" style="fill:none;stroke:#2b65ec;stroke-opacity:0.6;"/>
    <path clip-path="url(#p4d73ebb213)" d="M 481.5 252.377432 
L 481.5 220.620369 
" style="fill:none;stroke:#2b65ec;stroke-opacity:0.6;"/>
    <path clip-path="url(#p4d73ebb213)" d="M 504 274.292019 
L 504 254.844869 
" style="fill:none;stroke:#2b65ec;stroke-opacity:0.6;"/>
    <path clip-path="url(#p4d73ebb213)" d="M 526.5 281.410169 
L 526.5 281.410169 
" style="fill:none;stroke:#2b65ec;stroke-opacity:0.6;"/>
    <path clip-path="url(#p4d73ebb213)" d="M 549 265.893708 
L 549 240.787545 
" style="fill:none;stroke:#2b65ec;stroke-opacity:0.6;"/>
    <path clip-path="url(#p4d73ebb213)" d="M 571.5 281.410169 
L 571.5 281.410169 
" style="fill:none;stroke:#2b65ec;stroke-opacity:0.6;"/>
    <path clip-path="url(#p4d73ebb213)" d="M 594 281.410169 
L 594 281.410169 
" style="fill:none;stroke:#2b65ec;stroke-opacity:0.6;"/>
    <path clip-path="url(#p4d73ebb213)" d="M 616.5 261.477929 
L 616.5 233.975506 
" style="fill:none;stroke:#2b65ec;stroke-opacity:0.6;"/>
    <path clip-path="url(#p4d73ebb213)" d="M 639 281.410169 
L 639 281.410169 
" style="fill:none;stroke:#2b65ec;stroke-opacity:0.6;"/>
    <path clip-path="url(#p4d73ebb213)" d="M 661.5 278.121618 
L 661.5 262.243087 
" style="fill:none;stroke:#2b65ec;stroke-opacity:0.6;"/>
   </g>
   <g id="line2d_30">
    <path clip-path="url(#p4d73ebb213)" d="M 166.5 280.044118 
L 189 280.727144 
L 211.5 277.995042 
L 234 270.754971 
L 256.5 280.453934 
L 279 279.634303 
L 301.5 281.273564 
L 324 281.136959 
L 346.5 268.705894 
L 369 266.930028 
L 391.5 281.273564 
L 414 196.441791 
L 436.5 260.782798 
L 459 278.678067 
L 481.5 66.803542 
L 504 254.362358 
L 526.5 281.000354 
L 549 271.301391 
L 571.5 281.136959 
L 594 281.273564 
L 616.5 279.770908 
L 639 281.273564 
L 661.5 280.863749 
" style="fill:none;stroke:#006600;stroke-linecap:round;stroke-opacity:0.6;"/>
    <defs>
     <path d="M 0 3.25 
C 0.86191 3.25 1.688635 2.907559 2.298097 2.298097 
C 2.907559 1.688635 3.25 0.86191 3.25 0 
C 3.25 -0.86191 2.907559 -1.688635 2.298097 -2.298097 
C 1.688635 -2.907559 0.86191 -3.25 0 -3.25 
C -0.86191 -3.25 -1.688635 -2.907559 -2.298097 -2.298097 
C -2.907559 -1.688635 -3.25 -0.86191 -3.25 0 
C -3.25 0.86191 -2.907559 1.688635 -2.298097 2.298097 
C -1.688635 2.907559 -0.86191 3.25 0 3.25 
z
" id="m0ebbd4551e" style="stroke:#006600;stroke-opacity:0.6;"/>
    </defs>
    <g clip-path="url(#p4d73ebb213)">
     <use style="fill:#006600;fill-opacity:0.6;stroke:#006600;stroke-opacity:0.6;" x="166.5" xlink:href="#m0ebbd4551e" y="280.044118"/>
     <use style="fill:#006600;fill-opacity:0.6;stroke:#006600;stroke-opacity:0.6;" x="189" xlink:href="#m0ebbd4551e" y="280.727144"/>
     <use style="fill:#006600;fill-opacity:0.6;stroke:#006600;stroke-opacity:0.6;" x="211.5" xlink:href="#m0ebbd4551e" y="277.995042"/>
     <use style="fill:#006600;fill-opacity:0.6;stroke:#006600;stroke-opacity:0.6;" x="234" xlink:href="#m0ebbd4551e" y="270.754971"/>
     <use style="fill:#006600;fill-opacity:0.6;stroke:#006600;stroke-opacity:0.6;" x="256.5" xlink:href="#m0ebbd4551e" y="280.453934"/>
     <use style="fill:#006600;fill-opacity:0.6;stroke:#006600;stroke-opacity:0.6;" x="279" xlink:href="#m0ebbd4551e" y="279.634303"/>
     <use style="fill:#006600;fill-opacity:0.6;stroke:#006600;stroke-opacity:0.6;" x="301.5" xlink:href="#m0ebbd4551e" y="281.273564"/>
     <use style="fill:#006600;fill-opacity:0.6;stroke:#006600;stroke-opacity:0.6;" x="324" xlink:href="#m0ebbd4551e" y="281.136959"/>
     <use style="fill:#006600;fill-opacity:0.6;stroke:#006600;stroke-opacity:0.6;" x="346.5" xlink:href="#m0ebbd4551e" y="268.705894"/>
     <use style="fill:#006600;fill-opacity:0.6;stroke:#006600;stroke-opacity:0.6;" x="369" xlink:href="#m0ebbd4551e" y="266.930028"/>
     <use style="fill:#006600;fill-opacity:0.6;stroke:#006600;stroke-opacity:0.6;" x="391.5" xlink:href="#m0ebbd4551e" y="281.273564"/>
     <use style="fill:#006600;fill-opacity:0.6;stroke:#006600;stroke-opacity:0.6;" x="414" xlink:href="#m0ebbd4551e" y="196.441791"/>
     <use style="fill:#006600;fill-opacity:0.6;stroke:#006600;stroke-opacity:0.6;" x="436.5" xlink:href="#m0ebbd4551e" y="260.782798"/>
     <use style="fill:#006600;fill-opacity:0.6;stroke:#006600;stroke-opacity:0.6;" x="459" xlink:href="#m0ebbd4551e" y="278.678067"/>
     <use style="fill:#006600;fill-opacity:0.6;stroke:#006600;stroke-opacity:0.6;" x="481.5" xlink:href="#m0ebbd4551e" y="66.803542"/>
     <use style="fill:#006600;fill-opacity:0.6;stroke:#006600;stroke-opacity:0.6;" x="504" xlink:href="#m0ebbd4551e" y="254.362358"/>
     <use style="fill:#006600;fill-opacity:0.6;stroke:#006600;stroke-opacity:0.6;" x="526.5" xlink:href="#m0ebbd4551e" y="281.000354"/>
     <use style="fill:#006600;fill-opacity:0.6;stroke:#006600;stroke-opacity:0.6;" x="549" xlink:href="#m0ebbd4551e" y="271.301391"/>
     <use style="fill:#006600;fill-opacity:0.6;stroke:#006600;stroke-opacity:0.6;" x="571.5" xlink:href="#m0ebbd4551e" y="281.136959"/>
     <use style="fill:#006600;fill-opacity:0.6;stroke:#006600;stroke-opacity:0.6;" x="594" xlink:href="#m0ebbd4551e" y="281.273564"/>
     <use style="fill:#006600;fill-opacity:0.6;stroke:#006600;stroke-opacity:0.6;" x="616.5" xlink:href="#m0ebbd4551e" y="279.770908"/>
     <use style="fill:#006600;fill-opacity:0.6;stroke:#006600;stroke-opacity:0.6;" x="639" xlink:href="#m0ebbd4551e" y="281.273564"/>
     <use style="fill:#006600;fill-opacity:0.6;stroke:#006600;stroke-opacity:0.6;" x="661.5" xlink:href="#m0ebbd4551e" y="280.863749"/>
    </g>
   </g>
   <g id="line2d_31">
    <path clip-path="url(#p4d73ebb213)" d="M 166.5 281.000354 
L 189 280.590539 
L 211.5 277.858437 
L 234 270.618366 
L 256.5 279.634303 
L 279 279.361093 
L 301.5 281.410169 
L 324 281.410169 
L 346.5 264.744346 
L 369 270.618366 
L 391.5 281.410169 
L 414 196.168581 
L 436.5 260.236377 
L 459 278.951278 
L 481.5 61.749153 
L 504 259.416747 
L 526.5 281.410169 
L 549 270.891576 
L 571.5 281.410169 
L 594 281.410169 
L 616.5 280.044118 
L 639 281.410169 
L 661.5 280.863749 
" style="fill:none;stroke:#990012;stroke-linecap:round;stroke-opacity:0.6;"/>
    <defs>
     <path d="M 0 3.25 
C 0.86191 3.25 1.688635 2.907559 2.298097 2.298097 
C 2.907559 1.688635 3.25 0.86191 3.25 0 
C 3.25 -0.86191 2.907559 -1.688635 2.298097 -2.298097 
C 1.688635 -2.907559 0.86191 -3.25 0 -3.25 
C -0.86191 -3.25 -1.688635 -2.907559 -2.298097 -2.298097 
C -2.907559 -1.688635 -3.25 -0.86191 -3.25 0 
C -3.25 0.86191 -2.907559 1.688635 -2.298097 2.298097 
C -1.688635 2.907559 -0.86191 3.25 0 3.25 
z
" id="md9225e921a" style="stroke:#990012;stroke-opacity:0.6;"/>
    </defs>
    <g clip-path="url(#p4d73ebb213)">
     <use style="fill:#990012;fill-opacity:0.6;stroke:#990012;stroke-opacity:0.6;" x="166.5" xlink:href="#md9225e921a" y="281.000354"/>
     <use style="fill:#990012;fill-opacity:0.6;stroke:#990012;stroke-opacity:0.6;" x="189" xlink:href="#md9225e921a" y="280.590539"/>
     <use style="fill:#990012;fill-opacity:0.6;stroke:#990012;stroke-opacity:0.6;" x="211.5" xlink:href="#md9225e921a" y="277.858437"/>
     <use style="fill:#990012;fill-opacity:0.6;stroke:#990012;stroke-opacity:0.6;" x="234" xlink:href="#md9225e921a" y="270.618366"/>
     <use style="fill:#990012;fill-opacity:0.6;stroke:#990012;stroke-opacity:0.6;" x="256.5" xlink:href="#md9225e921a" y="279.634303"/>
     <use style="fill:#990012;fill-opacity:0.6;stroke:#990012;stroke-opacity:0.6;" x="279" xlink:href="#md9225e921a" y="279.361093"/>
     <use style="fill:#990012;fill-opacity:0.6;stroke:#990012;stroke-opacity:0.6;" x="301.5" xlink:href="#md9225e921a" y="281.410169"/>
     <use style="fill:#990012;fill-opacity:0.6;stroke:#990012;stroke-opacity:0.6;" x="324" xlink:href="#md9225e921a" y="281.410169"/>
     <use style="fill:#990012;fill-opacity:0.6;stroke:#990012;stroke-opacity:0.6;" x="346.5" xlink:href="#md9225e921a" y="264.744346"/>
     <use style="fill:#990012;fill-opacity:0.6;stroke:#990012;stroke-opacity:0.6;" x="369" xlink:href="#md9225e921a" y="270.618366"/>
     <use style="fill:#990012;fill-opacity:0.6;stroke:#990012;stroke-opacity:0.6;" x="391.5" xlink:href="#md9225e921a" y="281.410169"/>
     <use style="fill:#990012;fill-opacity:0.6;stroke:#990012;stroke-opacity:0.6;" x="414" xlink:href="#md9225e921a" y="196.168581"/>
     <use style="fill:#990012;fill-opacity:0.6;stroke:#990012;stroke-opacity:0.6;" x="436.5" xlink:href="#md9225e921a" y="260.236377"/>
     <use style="fill:#990012;fill-opacity:0.6;stroke:#990012;stroke-opacity:0.6;" x="459" xlink:href="#md9225e921a" y="278.951278"/>
     <use style="fill:#990012;fill-opacity:0.6;stroke:#990012;stroke-opacity:0.6;" x="481.5" xlink:href="#md9225e921a" y="61.749153"/>
     <use style="fill:#990012;fill-opacity:0.6;stroke:#990012;stroke-opacity:0.6;" x="504" xlink:href="#md9225e921a" y="259.416747"/>
     <use style="fill:#990012;fill-opacity:0.6;stroke:#990012;stroke-opacity:0.6;" x="526.5" xlink:href="#md9225e921a" y="281.410169"/>
     <use style="fill:#990012;fill-opacity:0.6;stroke:#990012;stroke-opacity:0.6;" x="549" xlink:href="#md9225e921a" y="270.891576"/>
     <use style="fill:#990012;fill-opacity:0.6;stroke:#990012;stroke-opacity:0.6;" x="571.5" xlink:href="#md9225e921a" y="281.410169"/>
     <use style="fill:#990012;fill-opacity:0.6;stroke:#990012;stroke-opacity:0.6;" x="594" xlink:href="#md9225e921a" y="281.410169"/>
     <use style="fill:#990012;fill-opacity:0.6;stroke:#990012;stroke-opacity:0.6;" x="616.5" xlink:href="#md9225e921a" y="280.044118"/>
     <use style="fill:#990012;fill-opacity:0.6;stroke:#990012;stroke-opacity:0.6;" x="639" xlink:href="#md9225e921a" y="281.410169"/>
     <use style="fill:#990012;fill-opacity:0.6;stroke:#990012;stroke-opacity:0.6;" x="661.5" xlink:href="#md9225e921a" y="280.863749"/>
    </g>
   </g>
   <g id="line2d_32">
    <path clip-path="url(#p4d73ebb213)" d="M 166.5 281.410169 
L 189 270.182352 
L 211.5 242.112809 
L 234 264.568444 
L 256.5 258.954535 
L 279 264.568444 
L 301.5 281.410169 
L 324 281.410169 
L 346.5 275.796261 
L 369 247.726718 
L 391.5 281.410169 
L 414 247.726718 
L 436.5 214.043266 
L 459 253.340626 
L 481.5 236.4989 
L 504 264.568444 
L 526.5 281.410169 
L 549 253.340626 
L 571.5 281.410169 
L 594 281.410169 
L 616.5 247.726718 
L 639 281.410169 
L 661.5 270.182352 
" style="fill:none;stroke:#2b65ec;stroke-linecap:round;stroke-opacity:0.6;"/>
    <defs>
     <path d="M 0 3.25 
C 0.86191 3.25 1.688635 2.907559 2.298097 2.298097 
C 2.907559 1.688635 3.25 0.86191 3.25 0 
C 3.25 -0.86191 2.907559 -1.688635 2.298097 -2.298097 
C 1.688635 -2.907559 0.86191 -3.25 0 -3.25 
C -0.86191 -3.25 -1.688635 -2.907559 -2.298097 -2.298097 
C -2.907559 -1.688635 -3.25 -0.86191 -3.25 0 
C -3.25 0.86191 -2.907559 1.688635 -2.298097 2.298097 
C -1.688635 2.907559 -0.86191 3.25 0 3.25 
z
" id="m9d6a78a6fe" style="stroke:#2b65ec;stroke-opacity:0.6;"/>
    </defs>
    <g clip-path="url(#p4d73ebb213)">
     <use style="fill:#2b65ec;fill-opacity:0.6;stroke:#2b65ec;stroke-opacity:0.6;" x="166.5" xlink:href="#m9d6a78a6fe" y="281.410169"/>
     <use style="fill:#2b65ec;fill-opacity:0.6;stroke:#2b65ec;stroke-opacity:0.6;" x="189" xlink:href="#m9d6a78a6fe" y="270.182352"/>
     <use style="fill:#2b65ec;fill-opacity:0.6;stroke:#2b65ec;stroke-opacity:0.6;" x="211.5" xlink:href="#m9d6a78a6fe" y="242.112809"/>
     <use style="fill:#2b65ec;fill-opacity:0.6;stroke:#2b65ec;stroke-opacity:0.6;" x="234" xlink:href="#m9d6a78a6fe" y="264.568444"/>
     <use style="fill:#2b65ec;fill-opacity:0.6;stroke:#2b65ec;stroke-opacity:0.6;" x="256.5" xlink:href="#m9d6a78a6fe" y="258.954535"/>
     <use style="fill:#2b65ec;fill-opacity:0.6;stroke:#2b65ec;stroke-opacity:0.6;" x="279" xlink:href="#m9d6a78a6fe" y="264.568444"/>
     <use style="fill:#2b65ec;fill-opacity:0.6;stroke:#2b65ec;stroke-opacity:0.6;" x="301.5" xlink:href="#m9d6a78a6fe" y="281.410169"/>
     <use style="fill:#2b65ec;fill-opacity:0.6;stroke:#2b65ec;stroke-opacity:0.6;" x="324" xlink:href="#m9d6a78a6fe" y="281.410169"/>
     <use style="fill:#2b65ec;fill-opacity:0.6;stroke:#2b65ec;stroke-opacity:0.6;" x="346.5" xlink:href="#m9d6a78a6fe" y="275.796261"/>
     <use style="fill:#2b65ec;fill-opacity:0.6;stroke:#2b65ec;stroke-opacity:0.6;" x="369" xlink:href="#m9d6a78a6fe" y="247.726718"/>
     <use style="fill:#2b65ec;fill-opacity:0.6;stroke:#2b65ec;stroke-opacity:0.6;" x="391.5" xlink:href="#m9d6a78a6fe" y="281.410169"/>
     <use style="fill:#2b65ec;fill-opacity:0.6;stroke:#2b65ec;stroke-opacity:0.6;" x="414" xlink:href="#m9d6a78a6fe" y="247.726718"/>
     <use style="fill:#2b65ec;fill-opacity:0.6;stroke:#2b65ec;stroke-opacity:0.6;" x="436.5" xlink:href="#m9d6a78a6fe" y="214.043266"/>
     <use style="fill:#2b65ec;fill-opacity:0.6;stroke:#2b65ec;stroke-opacity:0.6;" x="459" xlink:href="#m9d6a78a6fe" y="253.340626"/>
     <use style="fill:#2b65ec;fill-opacity:0.6;stroke:#2b65ec;stroke-opacity:0.6;" x="481.5" xlink:href="#m9d6a78a6fe" y="236.4989"/>
     <use style="fill:#2b65ec;fill-opacity:0.6;stroke:#2b65ec;stroke-opacity:0.6;" x="504" xlink:href="#m9d6a78a6fe" y="264.568444"/>
     <use style="fill:#2b65ec;fill-opacity:0.6;stroke:#2b65ec;stroke-opacity:0.6;" x="526.5" xlink:href="#m9d6a78a6fe" y="281.410169"/>
     <use style="fill:#2b65ec;fill-opacity:0.6;stroke:#2b65ec;stroke-opacity:0.6;" x="549" xlink:href="#m9d6a78a6fe" y="253.340626"/>
     <use style="fill:#2b65ec;fill-opacity:0.6;stroke:#2b65ec;stroke-opacity:0.6;" x="571.5" xlink:href="#m9d6a78a6fe" y="281.410169"/>
     <use style="fill:#2b65ec;fill-opacity:0.6;stroke:#2b65ec;stroke-opacity:0.6;" x="594" xlink:href="#m9d6a78a6fe" y="281.410169"/>
     <use style="fill:#2b65ec;fill-opacity:0.6;stroke:#2b65ec;stroke-opacity:0.6;" x="616.5" xlink:href="#m9d6a78a6fe" y="247.726718"/>
     <use style="fill:#2b65ec;fill-opacity:0.6;stroke:#2b65ec;stroke-opacity:0.6;" x="639" xlink:href="#m9d6a78a6fe" y="281.410169"/>
     <use style="fill:#2b65ec;fill-opacity:0.6;stroke:#2b65ec;stroke-opacity:0.6;" x="661.5" xlink:href="#m9d6a78a6fe" y="270.182352"/>
    </g>
   </g>
   <g id="patch_3">
    <path d="M 144 288 
L 144 28.8 
" style="fill:none;stroke:#262626;stroke-linecap:square;stroke-linejoin:miter;stroke-width:0.8;"/>
   </g>
   <g id="patch_4">
    <path d="M 144 288 
L 684 288 
" style="fill:none;stroke:#262626;stroke-linecap:square;stroke-linejoin:miter;stroke-width:0.8;"/>
   </g>
   <g id="text_30">
    <text style="fill:#262626;font-family:DejaVu Sans;font-size:20px;font-style:normal;font-weight:bold;text-anchor:middle;" transform="rotate(-0, 414, 22.8)" x="414" y="22.8">D gene</text>
   </g>
   <g id="legend_1">
    <g id="patch_5">
     <path d="M 535.8 158.4 
L 666.271875 158.4 
Q 669.271875 158.4 669.271875 155.4 
L 669.271875 90.848438 
Q 669.271875 87.848438 666.271875 87.848438 
L 535.8 87.848438 
Q 532.8 87.848438 532.8 90.848438 
L 532.8 155.4 
Q 532.8 158.4 535.8 158.4 
z
" style="fill:#ffffff;opacity:0.8;stroke:#cccccc;stroke-linejoin:miter;"/>
    </g>
    <g id="LineCollection_4">
     <path d="M 553.8 107.496094 
L 553.8 92.496094 
" style="fill:none;stroke:#006600;stroke-opacity:0.6;"/>
    </g>
    <g id="line2d_33">
     <path d="M 538.8 99.996094 
L 568.8 99.996094 
" style="fill:none;stroke:#006600;stroke-linecap:round;stroke-opacity:0.6;"/>
    </g>
    <g id="line2d_34">
     <g>
      <use style="fill:#006600;fill-opacity:0.6;stroke:#006600;stroke-opacity:0.6;" x="553.8" xlink:href="#m0ebbd4551e" y="99.996094"/>
     </g>
    </g>
    <g id="text_31">
     <text style="fill:#262626;font-family:DejaVu Sans;font-size:15px;font-style:normal;font-weight:normal;text-anchor:start;" transform="rotate(-0, 580.8, 105.246094)" x="580.8" y="105.246094">sw</text>
    </g>
    <g id="LineCollection_5">
     <path d="M 553.8 129.513281 
L 553.8 114.513281 
" style="fill:none;stroke:#990012;stroke-opacity:0.6;"/>
    </g>
    <g id="line2d_35">
     <path d="M 538.8 122.013281 
L 568.8 122.013281 
" style="fill:none;stroke:#990012;stroke-linecap:round;stroke-opacity:0.6;"/>
    </g>
    <g id="line2d_36">
     <g>
      <use style="fill:#990012;fill-opacity:0.6;stroke:#990012;stroke-opacity:0.6;" x="553.8" xlink:href="#md9225e921a" y="122.013281"/>
     </g>
    </g>
    <g id="text_32">
     <text style="fill:#262626;font-family:DejaVu Sans;font-size:15px;font-style:normal;font-weight:normal;text-anchor:start;" transform="rotate(-0, 580.8, 127.263281)" x="580.8" y="127.263281">hmm</text>
    </g>
    <g id="LineCollection_6">
     <path d="M 553.8 151.530469 
L 553.8 136.530469 
" style="fill:none;stroke:#2b65ec;stroke-opacity:0.6;"/>
    </g>
    <g id="line2d_37">
     <path d="M 538.8 144.030469 
L 568.8 144.030469 
" style="fill:none;stroke:#2b65ec;stroke-linecap:round;stroke-opacity:0.6;"/>
    </g>
    <g id="line2d_38">
     <g>
      <use style="fill:#2b65ec;fill-opacity:0.6;stroke:#2b65ec;stroke-opacity:0.6;" x="553.8" xlink:href="#m9d6a78a6fe" y="144.030469"/>
     </g>
    </g>
    <g id="text_33">
     <text style="fill:#262626;font-family:DejaVu Sans;font-size:15px;font-style:normal;font-weight:normal;text-anchor:start;" transform="rotate(-0, 580.8, 149.280469)" x="580.8" y="149.280469">multi-hmm</text>
    </g>
   </g>
  </g>
 </g>
 <defs>
  <clipPath id="p4d73ebb213">
   <rect height="259.2" width="540" x="144" y="28.8"/>
  </clipPath>
 </defs>
</svg>
