<?xml version="1.0" encoding="utf-8" standalone="no"?>
<!DOCTYPE svg PUBLIC "-//W3C//DTD SVG 1.1//EN"
  "http://www.w3.org/Graphics/SVG/1.1/DTD/svg11.dtd">
<!-- Created with matplotlib (http://matplotlib.org/) -->
<svg height="345.6pt" version="1.1" viewBox="0 0 460.8 345.6" width="460.8pt" xmlns="http://www.w3.org/2000/svg" xmlns:xlink="http://www.w3.org/1999/xlink">
 <defs>
  <style type="text/css">
*{stroke-linecap:butt;stroke-linejoin:round;}
  </style>
 </defs>
 <g id="figure_1">
  <g id="patch_1">
   <path d="M 0 345.6 
L 460.8 345.6 
L 460.8 0 
L 0 0 
z
" style="fill:#ffffff;"/>
  </g>
  <g id="axes_1">
   <g id="patch_2">
    <path d="M 92.16 276.48 
L 437.76 276.48 
L 437.76 27.648 
L 92.16 27.648 
z
" style="fill:#ffffff;"/>
   </g>
   <g id="matplotlib.axis_1">
    <g id="xtick_1">
     <g id="line2d_1">
      <defs>
       <path d="M 0 0 
L 0 3.5 
" id="macce1e6abc" style="stroke:#262626;stroke-width:0.8;"/>
      </defs>
      <g>
       <use style="fill:#262626;stroke:#262626;stroke-width:0.8;" x="116.845714" xlink:href="#macce1e6abc" y="276.48"/>
      </g>
     </g>
     <g id="text_1">
      <text style="fill:#262626;font-family:DejaVu Sans;font-size:20px;font-style:normal;font-weight:normal;text-anchor:middle;" transform="rotate(-0, 116.845714, 298.676875)" x="116.845714" y="298.676875">0</text>
     </g>
    </g>
    <g id="xtick_2">
     <g id="line2d_2">
      <g>
       <use style="fill:#262626;stroke:#262626;stroke-width:0.8;" x="240.274286" xlink:href="#macce1e6abc" y="276.48"/>
      </g>
     </g>
     <g id="text_2">
      <text style="fill:#262626;font-family:DejaVu Sans;font-size:20px;font-style:normal;font-weight:normal;text-anchor:middle;" transform="rotate(-0, 240.274286, 298.676875)" x="240.274286" y="298.676875">5</text>
     </g>
    </g>
    <g id="xtick_3">
     <g id="line2d_3">
      <g>
       <use style="fill:#262626;stroke:#262626;stroke-width:0.8;" x="363.702857" xlink:href="#macce1e6abc" y="276.48"/>
      </g>
     </g>
     <g id="text_3">
      <text style="fill:#262626;font-family:DejaVu Sans;font-size:20px;font-style:normal;font-weight:normal;text-anchor:middle;" transform="rotate(-0, 363.702857, 298.676875)" x="363.702857" y="298.676875">10</text>
     </g>
    </g>
    <g id="text_4">
     <text style="fill:#262626;font-family:DejaVu Sans;font-size:20px;font-style:normal;font-weight:normal;text-anchor:middle;" transform="rotate(-0, 264.96, 322.033125)" x="264.96" y="322.033125">bases</text>
    </g>
   </g>
   <g id="matplotlib.axis_2">
    <g id="ytick_1">
     <g id="line2d_4">
      <defs>
       <path d="M 0 0 
L -3.5 0 
" id="m07e168cd15" style="stroke:#262626;stroke-width:0.8;"/>
      </defs>
      <g>
       <use style="fill:#262626;stroke:#262626;stroke-width:0.8;" x="92.16" xlink:href="#m07e168cd15" y="270.153763"/>
      </g>
     </g>
     <g id="text_5">
      <text style="fill:#262626;font-family:DejaVu Sans;font-size:20px;font-style:normal;font-weight:normal;text-anchor:end;" transform="rotate(-0, 85.16, 277.7522)" x="85.16" y="277.7522">0.0</text>
     </g>
    </g>
    <g id="ytick_2">
     <g id="line2d_5">
      <g>
       <use style="fill:#262626;stroke:#262626;stroke-width:0.8;" x="92.16" xlink:href="#m07e168cd15" y="220.06479"/>
      </g>
     </g>
     <g id="text_6">
      <text style="fill:#262626;font-family:DejaVu Sans;font-size:20px;font-style:normal;font-weight:normal;text-anchor:end;" transform="rotate(-0, 85.16, 227.663227)" x="85.16" y="227.663227">0.2</text>
     </g>
    </g>
    <g id="ytick_3">
     <g id="line2d_6">
      <g>
       <use style="fill:#262626;stroke:#262626;stroke-width:0.8;" x="92.16" xlink:href="#m07e168cd15" y="169.975817"/>
      </g>
     </g>
     <g id="text_7">
      <text style="fill:#262626;font-family:DejaVu Sans;font-size:20px;font-style:normal;font-weight:normal;text-anchor:end;" transform="rotate(-0, 85.16, 177.574254)" x="85.16" y="177.574254">0.4</text>
     </g>
    </g>
    <g id="ytick_4">
     <g id="line2d_7">
      <g>
       <use style="fill:#262626;stroke:#262626;stroke-width:0.8;" x="92.16" xlink:href="#m07e168cd15" y="119.886844"/>
      </g>
     </g>
     <g id="text_8">
      <text style="fill:#262626;font-family:DejaVu Sans;font-size:20px;font-style:normal;font-weight:normal;text-anchor:end;" transform="rotate(-0, 85.16, 127.485281)" x="85.16" y="127.485281">0.6</text>
     </g>
    </g>
    <g id="ytick_5">
     <g id="line2d_8">
      <g>
       <use style="fill:#262626;stroke:#262626;stroke-width:0.8;" x="92.16" xlink:href="#m07e168cd15" y="69.797871"/>
      </g>
     </g>
     <g id="text_9">
      <text style="fill:#262626;font-family:DejaVu Sans;font-size:20px;font-style:normal;font-weight:normal;text-anchor:end;" transform="rotate(-0, 85.16, 77.396308)" x="85.16" y="77.396308">0.8</text>
     </g>
    </g>
    <g id="text_10">
     <text style="fill:#262626;font-family:DejaVu Sans;font-size:20px;font-style:normal;font-weight:normal;text-anchor:middle;" transform="rotate(-90, 45.194375, 152.064)" x="45.194375" y="152.064">frequency</text>
    </g>
   </g>
   <g id="LineCollection_1">
    <path clip-path="url(#p433b0a2966)" d="M 116.845714 254.638047 
L 116.845714 252.27683 
" style="fill:none;stroke:#006600;stroke-opacity:0.6;stroke-width:5;"/>
    <path clip-path="url(#p433b0a2966)" d="M 141.531429 82.975774 
L 141.531429 74.985924 
" style="fill:none;stroke:#006600;stroke-opacity:0.6;stroke-width:5;"/>
    <path clip-path="url(#p433b0a2966)" d="M 166.217143 267.954594 
L 166.217143 267.010107 
" style="fill:none;stroke:#006600;stroke-opacity:0.6;stroke-width:5;"/>
    <path clip-path="url(#p433b0a2966)" d="M 190.902857 258.894125 
L 190.902857 256.869803 
" style="fill:none;stroke:#006600;stroke-opacity:0.6;stroke-width:5;"/>
    <path clip-path="url(#p433b0a2966)" d="M 215.588571 258.413685 
L 215.588571 256.348464 
" style="fill:none;stroke:#006600;stroke-opacity:0.6;stroke-width:5;"/>
    <path clip-path="url(#p433b0a2966)" d="M 240.274286 269.005276 
L 240.274286 268.296911 
" style="fill:none;stroke:#006600;stroke-opacity:0.6;stroke-width:5;"/>
    <path clip-path="url(#p433b0a2966)" d="M 264.96 269.722031 
L 264.96 269.249788 
" style="fill:none;stroke:#006600;stroke-opacity:0.6;stroke-width:5;"/>
    <path clip-path="url(#p433b0a2966)" d="M 289.645714 259.693908 
L 289.645714 257.739653 
" style="fill:none;stroke:#006600;stroke-opacity:0.6;stroke-width:5;"/>
    <path clip-path="url(#p433b0a2966)" d="M 314.331429 269.85736 
L 314.331429 269.448386 
" style="fill:none;stroke:#006600;stroke-opacity:0.6;stroke-width:5;"/>
    <path clip-path="url(#p433b0a2966)" d="M 339.017143 269.986799 
L 339.017143 269.652873 
" style="fill:none;stroke:#006600;stroke-opacity:0.6;stroke-width:5;"/>
    <path clip-path="url(#p433b0a2966)" d="M 363.702857 270.153763 
L 363.702857 270.153763 
" style="fill:none;stroke:#006600;stroke-opacity:0.6;stroke-width:5;"/>
    <path clip-path="url(#p433b0a2966)" d="M 388.388571 270.153763 
L 388.388571 270.153763 
" style="fill:none;stroke:#006600;stroke-opacity:0.6;stroke-width:5;"/>
    <path clip-path="url(#p433b0a2966)" d="M 413.074286 269.923025 
L 413.074286 269.549684 
" style="fill:none;stroke:#006600;stroke-opacity:0.6;stroke-width:5;"/>
    <path clip-path="url(#p433b0a2966)" d="M 437.76 270.153763 
L 437.76 270.153763 
" style="fill:none;stroke:#006600;stroke-opacity:0.6;stroke-width:5;"/>
    <path clip-path="url(#p433b0a2966)" style="fill:none;stroke:#006600;stroke-opacity:0.6;stroke-width:5;"/>
    <path clip-path="url(#p433b0a2966)" style="fill:none;stroke:#006600;stroke-opacity:0.6;stroke-width:5;"/>
    <path clip-path="url(#p433b0a2966)" style="fill:none;stroke:#006600;stroke-opacity:0.6;stroke-width:5;"/>
    <path clip-path="url(#p433b0a2966)" style="fill:none;stroke:#006600;stroke-opacity:0.6;stroke-width:5;"/>
   </g>
   <g id="LineCollection_2">
    <path clip-path="url(#p433b0a2966)" d="M 116.845714 259.534051 
L 116.845714 257.565583 
" style="fill:none;stroke:#990012;stroke-opacity:0.6;stroke-width:3;"/>
    <path clip-path="url(#p433b0a2966)" d="M 141.531429 63.474917 
L 141.531429 55.083456 
" style="fill:none;stroke:#990012;stroke-opacity:0.6;stroke-width:3;"/>
    <path clip-path="url(#p433b0a2966)" d="M 166.217143 267.802165 
L 166.217143 266.82861 
" style="fill:none;stroke:#990012;stroke-opacity:0.6;stroke-width:3;"/>
    <path clip-path="url(#p433b0a2966)" d="M 190.902857 269.224861 
L 190.902857 268.578215 
" style="fill:none;stroke:#990012;stroke-opacity:0.6;stroke-width:3;"/>
    <path clip-path="url(#p433b0a2966)" d="M 215.588571 258.81408 
L 215.588571 256.782885 
" style="fill:none;stroke:#990012;stroke-opacity:0.6;stroke-width:3;"/>
    <path clip-path="url(#p433b0a2966)" d="M 240.274286 270.047912 
L 240.274286 269.758723 
" style="fill:none;stroke:#990012;stroke-opacity:0.6;stroke-width:3;"/>
    <path clip-path="url(#p433b0a2966)" d="M 264.96 270.153763 
L 264.96 269.986799 
" style="fill:none;stroke:#990012;stroke-opacity:0.6;stroke-width:3;"/>
    <path clip-path="url(#p433b0a2966)" d="M 289.645714 260.332802 
L 289.645714 258.436465 
" style="fill:none;stroke:#990012;stroke-opacity:0.6;stroke-width:3;"/>
    <path clip-path="url(#p433b0a2966)" d="M 314.331429 270.153763 
L 314.331429 270.153763 
" style="fill:none;stroke:#990012;stroke-opacity:0.6;stroke-width:3;"/>
    <path clip-path="url(#p433b0a2966)" d="M 339.017143 269.986799 
L 339.017143 269.652873 
" style="fill:none;stroke:#990012;stroke-opacity:0.6;stroke-width:3;"/>
    <path clip-path="url(#p433b0a2966)" d="M 363.702857 270.153763 
L 363.702857 270.153763 
" style="fill:none;stroke:#990012;stroke-opacity:0.6;stroke-width:3;"/>
    <path clip-path="url(#p433b0a2966)" d="M 388.388571 270.153763 
L 388.388571 270.153763 
" style="fill:none;stroke:#990012;stroke-opacity:0.6;stroke-width:3;"/>
    <path clip-path="url(#p433b0a2966)" d="M 413.074286 270.153763 
L 413.074286 269.986799 
" style="fill:none;stroke:#990012;stroke-opacity:0.6;stroke-width:3;"/>
   </g>
   <g id="LineCollection_3">
    <path clip-path="url(#p433b0a2966)" d="M 116.845714 216.881519 
L 116.845714 186.195944 
" style="fill:none;stroke:#2b65ec;stroke-opacity:0.6;stroke-width:2;"/>
    <path clip-path="url(#p433b0a2966)" d="M 141.531429 201.538731 
L 141.531429 167.231215 
" style="fill:none;stroke:#2b65ec;stroke-opacity:0.6;stroke-width:2;"/>
    <path clip-path="url(#p433b0a2966)" d="M 166.217143 249.569253 
L 166.217143 228.984744 
" style="fill:none;stroke:#2b65ec;stroke-opacity:0.6;stroke-width:2;"/>
    <path clip-path="url(#p433b0a2966)" d="M 190.902857 265.803744 
L 190.902857 253.919272 
" style="fill:none;stroke:#2b65ec;stroke-opacity:0.6;stroke-width:2;"/>
    <path clip-path="url(#p433b0a2966)" d="M 215.588571 255.215417 
L 215.588571 237.061586 
" style="fill:none;stroke:#2b65ec;stroke-opacity:0.6;stroke-width:2;"/>
    <path clip-path="url(#p433b0a2966)" d="M 240.274286 270.153763 
L 240.274286 263.29226 
" style="fill:none;stroke:#2b65ec;stroke-opacity:0.6;stroke-width:2;"/>
    <path clip-path="url(#p433b0a2966)" d="M 264.96 270.153763 
L 264.96 270.153763 
" style="fill:none;stroke:#2b65ec;stroke-opacity:0.6;stroke-width:2;"/>
    <path clip-path="url(#p433b0a2966)" d="M 289.645714 260.671399 
L 289.645714 245.328611 
" style="fill:none;stroke:#2b65ec;stroke-opacity:0.6;stroke-width:2;"/>
    <path clip-path="url(#p433b0a2966)" d="M 314.331429 270.153763 
L 314.331429 263.29226 
" style="fill:none;stroke:#2b65ec;stroke-opacity:0.6;stroke-width:2;"/>
    <path clip-path="url(#p433b0a2966)" d="M 339.017143 270.153763 
L 339.017143 270.153763 
" style="fill:none;stroke:#2b65ec;stroke-opacity:0.6;stroke-width:2;"/>
    <path clip-path="url(#p433b0a2966)" d="M 363.702857 270.153763 
L 363.702857 263.29226 
" style="fill:none;stroke:#2b65ec;stroke-opacity:0.6;stroke-width:2;"/>
    <path clip-path="url(#p433b0a2966)" d="M 388.388571 270.153763 
L 388.388571 270.153763 
" style="fill:none;stroke:#2b65ec;stroke-opacity:0.6;stroke-width:2;"/>
    <path clip-path="url(#p433b0a2966)" d="M 413.074286 270.153763 
L 413.074286 263.29226 
" style="fill:none;stroke:#2b65ec;stroke-opacity:0.6;stroke-width:2;"/>
   </g>
   <g id="line2d_9">
    <path clip-path="url(#p433b0a2966)" d="M 116.845714 253.457438 
L 141.531429 78.980849 
L 166.217143 267.482351 
L 190.902857 257.881964 
L 215.588571 257.381075 
L 240.274286 268.651094 
L 264.96 269.48591 
L 289.645714 258.716781 
L 314.331429 269.652873 
L 339.017143 269.819836 
L 363.702857 270.153763 
L 388.388571 270.153763 
L 413.074286 269.736355 
L 437.76 270.153763 
L 461.8 270.153763 
" style="fill:none;stroke:#006600;stroke-linecap:round;stroke-opacity:0.6;stroke-width:5;"/>
    <defs>
     <path d="M 0 3.25 
C 0.86191 3.25 1.688635 2.907559 2.298097 2.298097 
C 2.907559 1.688635 3.25 0.86191 3.25 0 
C 3.25 -0.86191 2.907559 -1.688635 2.298097 -2.298097 
C 1.688635 -2.907559 0.86191 -3.25 0 -3.25 
C -0.86191 -3.25 -1.688635 -2.907559 -2.298097 -2.298097 
C -2.907559 -1.688635 -3.25 -0.86191 -3.25 0 
C -3.25 0.86191 -2.907559 1.688635 -2.298097 2.298097 
C -1.688635 2.907559 -0.86191 3.25 0 3.25 
z
" id="m37d5eca982" style="stroke:#006600;stroke-opacity:0.6;"/>
    </defs>
    <g clip-path="url(#p433b0a2966)">
     <use style="fill:#006600;fill-opacity:0.6;stroke:#006600;stroke-opacity:0.6;" x="116.845714" xlink:href="#m37d5eca982" y="253.457438"/>
     <use style="fill:#006600;fill-opacity:0.6;stroke:#006600;stroke-opacity:0.6;" x="141.531429" xlink:href="#m37d5eca982" y="78.980849"/>
     <use style="fill:#006600;fill-opacity:0.6;stroke:#006600;stroke-opacity:0.6;" x="166.217143" xlink:href="#m37d5eca982" y="267.482351"/>
     <use style="fill:#006600;fill-opacity:0.6;stroke:#006600;stroke-opacity:0.6;" x="190.902857" xlink:href="#m37d5eca982" y="257.881964"/>
     <use style="fill:#006600;fill-opacity:0.6;stroke:#006600;stroke-opacity:0.6;" x="215.588571" xlink:href="#m37d5eca982" y="257.381075"/>
     <use style="fill:#006600;fill-opacity:0.6;stroke:#006600;stroke-opacity:0.6;" x="240.274286" xlink:href="#m37d5eca982" y="268.651094"/>
     <use style="fill:#006600;fill-opacity:0.6;stroke:#006600;stroke-opacity:0.6;" x="264.96" xlink:href="#m37d5eca982" y="269.48591"/>
     <use style="fill:#006600;fill-opacity:0.6;stroke:#006600;stroke-opacity:0.6;" x="289.645714" xlink:href="#m37d5eca982" y="258.716781"/>
     <use style="fill:#006600;fill-opacity:0.6;stroke:#006600;stroke-opacity:0.6;" x="314.331429" xlink:href="#m37d5eca982" y="269.652873"/>
     <use style="fill:#006600;fill-opacity:0.6;stroke:#006600;stroke-opacity:0.6;" x="339.017143" xlink:href="#m37d5eca982" y="269.819836"/>
     <use style="fill:#006600;fill-opacity:0.6;stroke:#006600;stroke-opacity:0.6;" x="363.702857" xlink:href="#m37d5eca982" y="270.153763"/>
     <use style="fill:#006600;fill-opacity:0.6;stroke:#006600;stroke-opacity:0.6;" x="388.388571" xlink:href="#m37d5eca982" y="270.153763"/>
     <use style="fill:#006600;fill-opacity:0.6;stroke:#006600;stroke-opacity:0.6;" x="413.074286" xlink:href="#m37d5eca982" y="269.736355"/>
     <use style="fill:#006600;fill-opacity:0.6;stroke:#006600;stroke-opacity:0.6;" x="437.76" xlink:href="#m37d5eca982" y="270.153763"/>
     <use style="fill:#006600;fill-opacity:0.6;stroke:#006600;stroke-opacity:0.6;" x="462.445714" xlink:href="#m37d5eca982" y="270.153763"/>
     <use style="fill:#006600;fill-opacity:0.6;stroke:#006600;stroke-opacity:0.6;" x="487.131429" xlink:href="#m37d5eca982" y="270.153763"/>
     <use style="fill:#006600;fill-opacity:0.6;stroke:#006600;stroke-opacity:0.6;" x="511.817143" xlink:href="#m37d5eca982" y="270.153763"/>
     <use style="fill:#006600;fill-opacity:0.6;stroke:#006600;stroke-opacity:0.6;" x="536.502857" xlink:href="#m37d5eca982" y="270.153763"/>
    </g>
   </g>
   <g id="line2d_10">
    <path clip-path="url(#p433b0a2966)" d="M 116.845714 258.549817 
L 141.531429 59.279186 
L 166.217143 267.315388 
L 190.902857 268.901538 
L 215.588571 257.798483 
L 240.274286 269.903318 
L 264.96 270.070281 
L 289.645714 259.384634 
L 314.331429 270.153763 
L 339.017143 269.819836 
L 363.702857 270.153763 
L 388.388571 270.153763 
L 413.074286 270.070281 
" style="fill:none;stroke:#990012;stroke-linecap:round;stroke-opacity:0.6;stroke-width:3;"/>
    <defs>
     <path d="M 0 3.25 
C 0.86191 3.25 1.688635 2.907559 2.298097 2.298097 
C 2.907559 1.688635 3.25 0.86191 3.25 0 
C 3.25 -0.86191 2.907559 -1.688635 2.298097 -2.298097 
C 1.688635 -2.907559 0.86191 -3.25 0 -3.25 
C -0.86191 -3.25 -1.688635 -2.907559 -2.298097 -2.298097 
C -2.907559 -1.688635 -3.25 -0.86191 -3.25 0 
C -3.25 0.86191 -2.907559 1.688635 -2.298097 2.298097 
C -1.688635 2.907559 -0.86191 3.25 0 3.25 
z
" id="mf81d827cc8" style="stroke:#990012;stroke-opacity:0.6;"/>
    </defs>
    <g clip-path="url(#p433b0a2966)">
     <use style="fill:#990012;fill-opacity:0.6;stroke:#990012;stroke-opacity:0.6;" x="116.845714" xlink:href="#mf81d827cc8" y="258.549817"/>
     <use style="fill:#990012;fill-opacity:0.6;stroke:#990012;stroke-opacity:0.6;" x="141.531429" xlink:href="#mf81d827cc8" y="59.279186"/>
     <use style="fill:#990012;fill-opacity:0.6;stroke:#990012;stroke-opacity:0.6;" x="166.217143" xlink:href="#mf81d827cc8" y="267.315388"/>
     <use style="fill:#990012;fill-opacity:0.6;stroke:#990012;stroke-opacity:0.6;" x="190.902857" xlink:href="#mf81d827cc8" y="268.901538"/>
     <use style="fill:#990012;fill-opacity:0.6;stroke:#990012;stroke-opacity:0.6;" x="215.588571" xlink:href="#mf81d827cc8" y="257.798483"/>
     <use style="fill:#990012;fill-opacity:0.6;stroke:#990012;stroke-opacity:0.6;" x="240.274286" xlink:href="#mf81d827cc8" y="269.903318"/>
     <use style="fill:#990012;fill-opacity:0.6;stroke:#990012;stroke-opacity:0.6;" x="264.96" xlink:href="#mf81d827cc8" y="270.070281"/>
     <use style="fill:#990012;fill-opacity:0.6;stroke:#990012;stroke-opacity:0.6;" x="289.645714" xlink:href="#mf81d827cc8" y="259.384634"/>
     <use style="fill:#990012;fill-opacity:0.6;stroke:#990012;stroke-opacity:0.6;" x="314.331429" xlink:href="#mf81d827cc8" y="270.153763"/>
     <use style="fill:#990012;fill-opacity:0.6;stroke:#990012;stroke-opacity:0.6;" x="339.017143" xlink:href="#mf81d827cc8" y="269.819836"/>
     <use style="fill:#990012;fill-opacity:0.6;stroke:#990012;stroke-opacity:0.6;" x="363.702857" xlink:href="#mf81d827cc8" y="270.153763"/>
     <use style="fill:#990012;fill-opacity:0.6;stroke:#990012;stroke-opacity:0.6;" x="388.388571" xlink:href="#mf81d827cc8" y="270.153763"/>
     <use style="fill:#990012;fill-opacity:0.6;stroke:#990012;stroke-opacity:0.6;" x="413.074286" xlink:href="#mf81d827cc8" y="270.070281"/>
    </g>
   </g>
   <g id="line2d_11">
    <path clip-path="url(#p433b0a2966)" d="M 116.845714 201.538731 
L 141.531429 184.384973 
L 166.217143 239.276999 
L 190.902857 259.861508 
L 215.588571 246.138502 
L 240.274286 266.723011 
L 264.96 270.153763 
L 289.645714 253.000005 
L 314.331429 266.723011 
L 339.017143 270.153763 
L 363.702857 266.723011 
L 388.388571 270.153763 
L 413.074286 266.723011 
" style="fill:none;stroke:#2b65ec;stroke-linecap:round;stroke-opacity:0.6;stroke-width:2;"/>
    <defs>
     <path d="M 0 3.25 
C 0.86191 3.25 1.688635 2.907559 2.298097 2.298097 
C 2.907559 1.688635 3.25 0.86191 3.25 0 
C 3.25 -0.86191 2.907559 -1.688635 2.298097 -2.298097 
C 1.688635 -2.907559 0.86191 -3.25 0 -3.25 
C -0.86191 -3.25 -1.688635 -2.907559 -2.298097 -2.298097 
C -2.907559 -1.688635 -3.25 -0.86191 -3.25 0 
C -3.25 0.86191 -2.907559 1.688635 -2.298097 2.298097 
C -1.688635 2.907559 -0.86191 3.25 0 3.25 
z
" id="madb039fbd7" style="stroke:#2b65ec;stroke-opacity:0.6;"/>
    </defs>
    <g clip-path="url(#p433b0a2966)">
     <use style="fill:#2b65ec;fill-opacity:0.6;stroke:#2b65ec;stroke-opacity:0.6;" x="116.845714" xlink:href="#madb039fbd7" y="201.538731"/>
     <use style="fill:#2b65ec;fill-opacity:0.6;stroke:#2b65ec;stroke-opacity:0.6;" x="141.531429" xlink:href="#madb039fbd7" y="184.384973"/>
     <use style="fill:#2b65ec;fill-opacity:0.6;stroke:#2b65ec;stroke-opacity:0.6;" x="166.217143" xlink:href="#madb039fbd7" y="239.276999"/>
     <use style="fill:#2b65ec;fill-opacity:0.6;stroke:#2b65ec;stroke-opacity:0.6;" x="190.902857" xlink:href="#madb039fbd7" y="259.861508"/>
     <use style="fill:#2b65ec;fill-opacity:0.6;stroke:#2b65ec;stroke-opacity:0.6;" x="215.588571" xlink:href="#madb039fbd7" y="246.138502"/>
     <use style="fill:#2b65ec;fill-opacity:0.6;stroke:#2b65ec;stroke-opacity:0.6;" x="240.274286" xlink:href="#madb039fbd7" y="266.723011"/>
     <use style="fill:#2b65ec;fill-opacity:0.6;stroke:#2b65ec;stroke-opacity:0.6;" x="264.96" xlink:href="#madb039fbd7" y="270.153763"/>
     <use style="fill:#2b65ec;fill-opacity:0.6;stroke:#2b65ec;stroke-opacity:0.6;" x="289.645714" xlink:href="#madb039fbd7" y="253.000005"/>
     <use style="fill:#2b65ec;fill-opacity:0.6;stroke:#2b65ec;stroke-opacity:0.6;" x="314.331429" xlink:href="#madb039fbd7" y="266.723011"/>
     <use style="fill:#2b65ec;fill-opacity:0.6;stroke:#2b65ec;stroke-opacity:0.6;" x="339.017143" xlink:href="#madb039fbd7" y="270.153763"/>
     <use style="fill:#2b65ec;fill-opacity:0.6;stroke:#2b65ec;stroke-opacity:0.6;" x="363.702857" xlink:href="#madb039fbd7" y="266.723011"/>
     <use style="fill:#2b65ec;fill-opacity:0.6;stroke:#2b65ec;stroke-opacity:0.6;" x="388.388571" xlink:href="#madb039fbd7" y="270.153763"/>
     <use style="fill:#2b65ec;fill-opacity:0.6;stroke:#2b65ec;stroke-opacity:0.6;" x="413.074286" xlink:href="#madb039fbd7" y="266.723011"/>
    </g>
   </g>
   <g id="patch_3">
    <path d="M 92.16 276.48 
L 92.16 27.648 
" style="fill:none;stroke:#262626;stroke-linecap:square;stroke-linejoin:miter;stroke-width:0.8;"/>
   </g>
   <g id="patch_4">
    <path d="M 92.16 276.48 
L 437.76 276.48 
" style="fill:none;stroke:#262626;stroke-linecap:square;stroke-linejoin:miter;stroke-width:0.8;"/>
   </g>
   <g id="text_11">
    <text style="fill:#262626;font-family:DejaVu Sans;font-size:20px;font-style:normal;font-weight:bold;text-anchor:middle;" transform="rotate(-0, 264.96, 21.648)" x="264.96" y="21.648">DJ N length</text>
   </g>
   <g id="legend_1">
    <g id="patch_5">
     <path d="M 343.992 152.064 
L 474.463875 152.064 
Q 477.463875 152.064 477.463875 149.064 
L 477.463875 84.512437 
Q 477.463875 81.512437 474.463875 81.512437 
L 343.992 81.512437 
Q 340.992 81.512437 340.992 84.512437 
L 340.992 149.064 
Q 340.992 152.064 343.992 152.064 
z
" style="fill:#ffffff;opacity:0.8;stroke:#cccccc;stroke-linejoin:miter;"/>
    </g>
    <g id="LineCollection_4">
     <path d="M 361.992 101.160094 
L 361.992 86.160094 
" style="fill:none;stroke:#006600;stroke-opacity:0.6;stroke-width:5;"/>
    </g>
    <g id="line2d_12">
     <path d="M 346.992 93.660094 
L 376.992 93.660094 
" style="fill:none;stroke:#006600;stroke-linecap:round;stroke-opacity:0.6;stroke-width:5;"/>
    </g>
    <g id="line2d_13">
     <g>
      <use style="fill:#006600;fill-opacity:0.6;stroke:#006600;stroke-opacity:0.6;" x="361.992" xlink:href="#m37d5eca982" y="93.660094"/>
     </g>
    </g>
    <g id="text_12">
     <text style="fill:#262626;font-family:DejaVu Sans;font-size:15px;font-style:normal;font-weight:normal;text-anchor:start;" transform="rotate(-0, 388.992, 98.910094)" x="388.992" y="98.910094">sw</text>
    </g>
    <g id="LineCollection_5">
     <path d="M 361.992 123.177281 
L 361.992 108.177281 
" style="fill:none;stroke:#990012;stroke-opacity:0.6;stroke-width:3;"/>
    </g>
    <g id="line2d_14">
     <path d="M 346.992 115.677281 
L 376.992 115.677281 
" style="fill:none;stroke:#990012;stroke-linecap:round;stroke-opacity:0.6;stroke-width:3;"/>
    </g>
    <g id="line2d_15">
     <g>
      <use style="fill:#990012;fill-opacity:0.6;stroke:#990012;stroke-opacity:0.6;" x="361.992" xlink:href="#mf81d827cc8" y="115.677281"/>
     </g>
    </g>
    <g id="text_13">
     <text style="fill:#262626;font-family:DejaVu Sans;font-size:15px;font-style:normal;font-weight:normal;text-anchor:start;" transform="rotate(-0, 388.992, 120.927281)" x="388.992" y="120.927281">hmm</text>
    </g>
    <g id="LineCollection_6">
     <path d="M 361.992 145.194469 
L 361.992 130.194469 
" style="fill:none;stroke:#2b65ec;stroke-opacity:0.6;stroke-width:2;"/>
    </g>
    <g id="line2d_16">
     <path d="M 346.992 137.694469 
L 376.992 137.694469 
" style="fill:none;stroke:#2b65ec;stroke-linecap:round;stroke-opacity:0.6;stroke-width:2;"/>
    </g>
    <g id="line2d_17">
     <g>
      <use style="fill:#2b65ec;fill-opacity:0.6;stroke:#2b65ec;stroke-opacity:0.6;" x="361.992" xlink:href="#madb039fbd7" y="137.694469"/>
     </g>
    </g>
    <g id="text_14">
     <text style="fill:#262626;font-family:DejaVu Sans;font-size:15px;font-style:normal;font-weight:normal;text-anchor:start;" transform="rotate(-0, 388.992, 142.944469)" x="388.992" y="142.944469">multi-hmm</text>
    </g>
   </g>
  </g>
 </g>
 <defs>
  <clipPath id="p433b0a2966">
   <rect height="248.832" width="345.6" x="92.16" y="27.648"/>
  </clipPath>
 </defs>
</svg>
