<?xml version="1.0" encoding="utf-8" standalone="no"?>
<!DOCTYPE svg PUBLIC "-//W3C//DTD SVG 1.1//EN"
  "http://www.w3.org/Graphics/SVG/1.1/DTD/svg11.dtd">
<!-- Created with matplotlib (http://matplotlib.org/) -->
<svg height="345.6pt" version="1.1" viewBox="0 0 460.8 345.6" width="460.8pt" xmlns="http://www.w3.org/2000/svg" xmlns:xlink="http://www.w3.org/1999/xlink">
 <defs>
  <style type="text/css">
*{stroke-linecap:butt;stroke-linejoin:round;}
  </style>
 </defs>
 <g id="figure_1">
  <g id="patch_1">
   <path d="M 0 345.6 
L 460.8 345.6 
L 460.8 0 
L 0 0 
z
" style="fill:#ffffff;"/>
  </g>
  <g id="axes_1">
   <g id="patch_2">
    <path d="M 92.16 276.48 
L 437.76 276.48 
L 437.76 27.648 
L 92.16 27.648 
z
" style="fill:#ffffff;"/>
   </g>
   <g id="matplotlib.axis_1">
    <g id="xtick_1">
     <g id="line2d_1">
      <defs>
       <path d="M 0 0 
L 0 3.5 
" id="m38464ff15f" style="stroke:#262626;stroke-width:0.8;"/>
      </defs>
      <g>
       <use style="fill:#262626;stroke:#262626;stroke-width:0.8;" x="92.16" xlink:href="#m38464ff15f" y="276.48"/>
      </g>
     </g>
    </g>
    <g id="xtick_2">
     <g id="line2d_2">
      <g>
       <use style="fill:#262626;stroke:#262626;stroke-width:0.8;" x="126.72" xlink:href="#m38464ff15f" y="276.48"/>
      </g>
     </g>
     <g id="text_1">
      <text style="fill:#262626;font-family:DejaVu Sans;font-size:8px;font-style:normal;font-weight:normal;" transform="translate(128.9275 319.685)rotate(-90)">IGHJ1*01</text>
     </g>
    </g>
    <g id="xtick_3">
     <g id="line2d_3">
      <g>
       <use style="fill:#262626;stroke:#262626;stroke-width:0.8;" x="161.28" xlink:href="#m38464ff15f" y="276.48"/>
      </g>
     </g>
     <g id="text_2">
      <text style="fill:#262626;font-family:DejaVu Sans;font-size:8px;font-style:normal;font-weight:normal;" transform="translate(163.4875 319.685)rotate(-90)">IGHJ2*01</text>
     </g>
    </g>
    <g id="xtick_4">
     <g id="line2d_4">
      <g>
       <use style="fill:#262626;stroke:#262626;stroke-width:0.8;" x="195.84" xlink:href="#m38464ff15f" y="276.48"/>
      </g>
     </g>
     <g id="text_3">
      <text style="fill:#262626;font-family:DejaVu Sans;font-size:8px;font-style:normal;font-weight:normal;" transform="translate(198.0475 319.685)rotate(-90)">IGHJ3*01</text>
     </g>
    </g>
    <g id="xtick_5">
     <g id="line2d_5">
      <g>
       <use style="fill:#262626;stroke:#262626;stroke-width:0.8;" x="230.4" xlink:href="#m38464ff15f" y="276.48"/>
      </g>
     </g>
     <g id="text_4">
      <text style="fill:#262626;font-family:DejaVu Sans;font-size:8px;font-style:normal;font-weight:normal;" transform="translate(232.6075 319.685)rotate(-90)">IGHJ3*02</text>
     </g>
    </g>
    <g id="xtick_6">
     <g id="line2d_6">
      <g>
       <use style="fill:#262626;stroke:#262626;stroke-width:0.8;" x="264.96" xlink:href="#m38464ff15f" y="276.48"/>
      </g>
     </g>
     <g id="text_5">
      <text style="fill:#262626;font-family:DejaVu Sans;font-size:8px;font-style:normal;font-weight:normal;" transform="translate(267.1675 319.685)rotate(-90)">IGHJ4*01</text>
     </g>
    </g>
    <g id="xtick_7">
     <g id="line2d_7">
      <g>
       <use style="fill:#262626;stroke:#262626;stroke-width:0.8;" x="299.52" xlink:href="#m38464ff15f" y="276.48"/>
      </g>
     </g>
     <g id="text_6">
      <text style="fill:#262626;font-family:DejaVu Sans;font-size:8px;font-style:normal;font-weight:normal;" transform="translate(301.7275 319.685)rotate(-90)">IGHJ4*02</text>
     </g>
    </g>
    <g id="xtick_8">
     <g id="line2d_8">
      <g>
       <use style="fill:#262626;stroke:#262626;stroke-width:0.8;" x="334.08" xlink:href="#m38464ff15f" y="276.48"/>
      </g>
     </g>
     <g id="text_7">
      <text style="fill:#262626;font-family:DejaVu Sans;font-size:8px;font-style:normal;font-weight:normal;" transform="translate(336.2875 319.685)rotate(-90)">IGHJ5*01</text>
     </g>
    </g>
    <g id="xtick_9">
     <g id="line2d_9">
      <g>
       <use style="fill:#262626;stroke:#262626;stroke-width:0.8;" x="368.64" xlink:href="#m38464ff15f" y="276.48"/>
      </g>
     </g>
     <g id="text_8">
      <text style="fill:#262626;font-family:DejaVu Sans;font-size:8px;font-style:normal;font-weight:normal;" transform="translate(370.8475 319.685)rotate(-90)">IGHJ6*02</text>
     </g>
    </g>
    <g id="xtick_10">
     <g id="line2d_10">
      <g>
       <use style="fill:#262626;stroke:#262626;stroke-width:0.8;" x="403.2" xlink:href="#m38464ff15f" y="276.48"/>
      </g>
     </g>
     <g id="text_9">
      <text style="fill:#262626;font-family:DejaVu Sans;font-size:8px;font-style:normal;font-weight:normal;" transform="translate(405.4075 319.685)rotate(-90)">IGHJ6*03</text>
     </g>
    </g>
    <g id="xtick_11">
     <g id="line2d_11">
      <g>
       <use style="fill:#262626;stroke:#262626;stroke-width:0.8;" x="437.76" xlink:href="#m38464ff15f" y="276.48"/>
      </g>
     </g>
    </g>
    <g id="text_10">
     <text style="fill:#262626;font-family:DejaVu Sans;font-size:20px;font-style:normal;font-weight:normal;text-anchor:middle;" transform="rotate(-0, 264.96, 338.881875)" x="264.96" y="338.881875">allele</text>
    </g>
   </g>
   <g id="matplotlib.axis_2">
    <g id="ytick_1">
     <g id="line2d_12">
      <defs>
       <path d="M 0 0 
L -3.5 0 
" id="m978eedb7af" style="stroke:#262626;stroke-width:0.8;"/>
      </defs>
      <g>
       <use style="fill:#262626;stroke:#262626;stroke-width:0.8;" x="92.16" xlink:href="#m978eedb7af" y="270.153763"/>
      </g>
     </g>
     <g id="text_11">
      <text style="fill:#262626;font-family:DejaVu Sans;font-size:20px;font-style:normal;font-weight:normal;text-anchor:end;" transform="rotate(-0, 85.16, 277.7522)" x="85.16" y="277.7522">0.0</text>
     </g>
    </g>
    <g id="ytick_2">
     <g id="line2d_13">
      <g>
       <use style="fill:#262626;stroke:#262626;stroke-width:0.8;" x="92.16" xlink:href="#m978eedb7af" y="197.895199"/>
      </g>
     </g>
     <g id="text_12">
      <text style="fill:#262626;font-family:DejaVu Sans;font-size:20px;font-style:normal;font-weight:normal;text-anchor:end;" transform="rotate(-0, 85.16, 205.493636)" x="85.16" y="205.493636">0.2</text>
     </g>
    </g>
    <g id="ytick_3">
     <g id="line2d_14">
      <g>
       <use style="fill:#262626;stroke:#262626;stroke-width:0.8;" x="92.16" xlink:href="#m978eedb7af" y="125.636634"/>
      </g>
     </g>
     <g id="text_13">
      <text style="fill:#262626;font-family:DejaVu Sans;font-size:20px;font-style:normal;font-weight:normal;text-anchor:end;" transform="rotate(-0, 85.16, 133.235072)" x="85.16" y="133.235072">0.4</text>
     </g>
    </g>
    <g id="ytick_4">
     <g id="line2d_15">
      <g>
       <use style="fill:#262626;stroke:#262626;stroke-width:0.8;" x="92.16" xlink:href="#m978eedb7af" y="53.37807"/>
      </g>
     </g>
     <g id="text_14">
      <text style="fill:#262626;font-family:DejaVu Sans;font-size:20px;font-style:normal;font-weight:normal;text-anchor:end;" transform="rotate(-0, 85.16, 60.976508)" x="85.16" y="60.976508">0.6</text>
     </g>
    </g>
    <g id="text_15">
     <text style="fill:#262626;font-family:DejaVu Sans;font-size:20px;font-style:normal;font-weight:normal;text-anchor:middle;" transform="rotate(-90, 45.194375, 152.064)" x="45.194375" y="152.064">frequency</text>
    </g>
   </g>
   <g id="LineCollection_1">
    <path clip-path="url(#pf0ff531ee1)" d="M 126.72 267.636638 
L 126.72 266.408479 
" style="fill:none;stroke:#006600;stroke-opacity:0.6;"/>
    <path clip-path="url(#pf0ff531ee1)" d="M 161.28 183.128695 
L 161.28 176.53242 
" style="fill:none;stroke:#006600;stroke-opacity:0.6;"/>
    <path clip-path="url(#pf0ff531ee1)" d="M 195.84 248.583671 
L 195.84 245.237511 
" style="fill:none;stroke:#006600;stroke-opacity:0.6;"/>
    <path clip-path="url(#pf0ff531ee1)" d="M 230.4 268.918341 
L 230.4 268.017118 
" style="fill:none;stroke:#006600;stroke-opacity:0.6;"/>
    <path clip-path="url(#pf0ff531ee1)" d="M 264.96 260.000876 
L 264.96 257.665633 
" style="fill:none;stroke:#006600;stroke-opacity:0.6;"/>
    <path clip-path="url(#pf0ff531ee1)" d="M 299.52 269.228447 
L 299.52 268.429598 
" style="fill:none;stroke:#006600;stroke-opacity:0.6;"/>
    <path clip-path="url(#pf0ff531ee1)" d="M 334.08 64.318613 
L 334.08 54.23976 
" style="fill:none;stroke:#006600;stroke-opacity:0.6;"/>
    <path clip-path="url(#pf0ff531ee1)" d="M 368.64 252.52382 
L 368.64 249.486667 
" style="fill:none;stroke:#006600;stroke-opacity:0.6;"/>
    <path clip-path="url(#pf0ff531ee1)" d="M 403.2 270.083216 
L 403.2 269.742586 
" style="fill:none;stroke:#006600;stroke-opacity:0.6;"/>
   </g>
   <g id="LineCollection_2">
    <path clip-path="url(#pf0ff531ee1)" d="M 126.72 267.527905 
L 126.72 266.27635 
" style="fill:none;stroke:#990012;stroke-opacity:0.6;"/>
    <path clip-path="url(#pf0ff531ee1)" d="M 161.28 183.128695 
L 161.28 176.53242 
" style="fill:none;stroke:#990012;stroke-opacity:0.6;"/>
    <path clip-path="url(#pf0ff531ee1)" d="M 195.84 248.583671 
L 195.84 245.237511 
" style="fill:none;stroke:#990012;stroke-opacity:0.6;"/>
    <path clip-path="url(#pf0ff531ee1)" d="M 230.4 268.918341 
L 230.4 268.017118 
" style="fill:none;stroke:#990012;stroke-opacity:0.6;"/>
    <path clip-path="url(#pf0ff531ee1)" d="M 264.96 258.857104 
L 264.96 256.400786 
" style="fill:none;stroke:#990012;stroke-opacity:0.6;"/>
    <path clip-path="url(#pf0ff531ee1)" d="M 299.52 270.153763 
L 299.52 270.153763 
" style="fill:none;stroke:#990012;stroke-opacity:0.6;"/>
    <path clip-path="url(#pf0ff531ee1)" d="M 334.08 64.318613 
L 334.08 54.23976 
" style="fill:none;stroke:#990012;stroke-opacity:0.6;"/>
    <path clip-path="url(#pf0ff531ee1)" d="M 368.64 252.292479 
L 368.64 249.236284 
" style="fill:none;stroke:#990012;stroke-opacity:0.6;"/>
    <path clip-path="url(#pf0ff531ee1)" d="M 403.2 270.153763 
L 403.2 270.153763 
" style="fill:none;stroke:#990012;stroke-opacity:0.6;"/>
   </g>
   <g id="LineCollection_3">
    <path clip-path="url(#pf0ff531ee1)" d="M 126.72 232.127074 
L 126.72 199.297684 
" style="fill:none;stroke:#2b65ec;stroke-opacity:0.6;"/>
    <path clip-path="url(#pf0ff531ee1)" d="M 161.28 202.06561 
L 161.28 160.070114 
" style="fill:none;stroke:#2b65ec;stroke-opacity:0.6;"/>
    <path clip-path="url(#pf0ff531ee1)" d="M 195.84 219.383002 
L 195.84 182.346455 
" style="fill:none;stroke:#2b65ec;stroke-opacity:0.6;"/>
    <path clip-path="url(#pf0ff531ee1)" d="M 230.4 267.254579 
L 230.4 253.25608 
" style="fill:none;stroke:#2b65ec;stroke-opacity:0.6;"/>
    <path clip-path="url(#pf0ff531ee1)" d="M 264.96 219.383002 
L 264.96 182.346455 
" style="fill:none;stroke:#2b65ec;stroke-opacity:0.6;"/>
    <path clip-path="url(#pf0ff531ee1)" d="M 299.52 270.153763 
L 299.52 270.153763 
" style="fill:none;stroke:#2b65ec;stroke-opacity:0.6;"/>
    <path clip-path="url(#pf0ff531ee1)" d="M 334.08 252.581518 
L 334.08 228.335407 
" style="fill:none;stroke:#2b65ec;stroke-opacity:0.6;"/>
    <path clip-path="url(#pf0ff531ee1)" d="M 368.64 244.558528 
L 368.64 216.56153 
" style="fill:none;stroke:#2b65ec;stroke-opacity:0.6;"/>
    <path clip-path="url(#pf0ff531ee1)" d="M 403.2 270.153763 
L 403.2 270.153763 
" style="fill:none;stroke:#2b65ec;stroke-opacity:0.6;"/>
   </g>
   <g id="line2d_16">
    <path clip-path="url(#pf0ff531ee1)" d="M 126.72 267.022558 
L 161.28 179.830558 
L 195.84 246.910591 
L 230.4 268.46773 
L 264.96 258.833254 
L 299.52 268.829022 
L 334.08 59.279186 
L 368.64 251.005243 
L 403.2 269.912901 
" style="fill:none;stroke:#006600;stroke-linecap:round;stroke-opacity:0.6;"/>
    <defs>
     <path d="M 0 3.25 
C 0.86191 3.25 1.688635 2.907559 2.298097 2.298097 
C 2.907559 1.688635 3.25 0.86191 3.25 0 
C 3.25 -0.86191 2.907559 -1.688635 2.298097 -2.298097 
C 1.688635 -2.907559 0.86191 -3.25 0 -3.25 
C -0.86191 -3.25 -1.688635 -2.907559 -2.298097 -2.298097 
C -2.907559 -1.688635 -3.25 -0.86191 -3.25 0 
C -3.25 0.86191 -2.907559 1.688635 -2.298097 2.298097 
C -1.688635 2.907559 -0.86191 3.25 0 3.25 
z
" id="ma4955a267c" style="stroke:#006600;stroke-opacity:0.6;"/>
    </defs>
    <g clip-path="url(#pf0ff531ee1)">
     <use style="fill:#006600;fill-opacity:0.6;stroke:#006600;stroke-opacity:0.6;" x="126.72" xlink:href="#ma4955a267c" y="267.022558"/>
     <use style="fill:#006600;fill-opacity:0.6;stroke:#006600;stroke-opacity:0.6;" x="161.28" xlink:href="#ma4955a267c" y="179.830558"/>
     <use style="fill:#006600;fill-opacity:0.6;stroke:#006600;stroke-opacity:0.6;" x="195.84" xlink:href="#ma4955a267c" y="246.910591"/>
     <use style="fill:#006600;fill-opacity:0.6;stroke:#006600;stroke-opacity:0.6;" x="230.4" xlink:href="#ma4955a267c" y="268.46773"/>
     <use style="fill:#006600;fill-opacity:0.6;stroke:#006600;stroke-opacity:0.6;" x="264.96" xlink:href="#ma4955a267c" y="258.833254"/>
     <use style="fill:#006600;fill-opacity:0.6;stroke:#006600;stroke-opacity:0.6;" x="299.52" xlink:href="#ma4955a267c" y="268.829022"/>
     <use style="fill:#006600;fill-opacity:0.6;stroke:#006600;stroke-opacity:0.6;" x="334.08" xlink:href="#ma4955a267c" y="59.279186"/>
     <use style="fill:#006600;fill-opacity:0.6;stroke:#006600;stroke-opacity:0.6;" x="368.64" xlink:href="#ma4955a267c" y="251.005243"/>
     <use style="fill:#006600;fill-opacity:0.6;stroke:#006600;stroke-opacity:0.6;" x="403.2" xlink:href="#ma4955a267c" y="269.912901"/>
    </g>
   </g>
   <g id="line2d_17">
    <path clip-path="url(#pf0ff531ee1)" d="M 126.72 266.902127 
L 161.28 179.830558 
L 195.84 246.910591 
L 230.4 268.46773 
L 264.96 257.628945 
L 299.52 270.153763 
L 334.08 59.279186 
L 368.64 250.764381 
L 403.2 270.153763 
" style="fill:none;stroke:#990012;stroke-linecap:round;stroke-opacity:0.6;"/>
    <defs>
     <path d="M 0 3.25 
C 0.86191 3.25 1.688635 2.907559 2.298097 2.298097 
C 2.907559 1.688635 3.25 0.86191 3.25 0 
C 3.25 -0.86191 2.907559 -1.688635 2.298097 -2.298097 
C 1.688635 -2.907559 0.86191 -3.25 0 -3.25 
C -0.86191 -3.25 -1.688635 -2.907559 -2.298097 -2.298097 
C -2.907559 -1.688635 -3.25 -0.86191 -3.25 0 
C -3.25 0.86191 -2.907559 1.688635 -2.298097 2.298097 
C -1.688635 2.907559 -0.86191 3.25 0 3.25 
z
" id="mdf7736b5bf" style="stroke:#990012;stroke-opacity:0.6;"/>
    </defs>
    <g clip-path="url(#pf0ff531ee1)">
     <use style="fill:#990012;fill-opacity:0.6;stroke:#990012;stroke-opacity:0.6;" x="126.72" xlink:href="#mdf7736b5bf" y="266.902127"/>
     <use style="fill:#990012;fill-opacity:0.6;stroke:#990012;stroke-opacity:0.6;" x="161.28" xlink:href="#mdf7736b5bf" y="179.830558"/>
     <use style="fill:#990012;fill-opacity:0.6;stroke:#990012;stroke-opacity:0.6;" x="195.84" xlink:href="#mdf7736b5bf" y="246.910591"/>
     <use style="fill:#990012;fill-opacity:0.6;stroke:#990012;stroke-opacity:0.6;" x="230.4" xlink:href="#mdf7736b5bf" y="268.46773"/>
     <use style="fill:#990012;fill-opacity:0.6;stroke:#990012;stroke-opacity:0.6;" x="264.96" xlink:href="#mdf7736b5bf" y="257.628945"/>
     <use style="fill:#990012;fill-opacity:0.6;stroke:#990012;stroke-opacity:0.6;" x="299.52" xlink:href="#mdf7736b5bf" y="270.153763"/>
     <use style="fill:#990012;fill-opacity:0.6;stroke:#990012;stroke-opacity:0.6;" x="334.08" xlink:href="#mdf7736b5bf" y="59.279186"/>
     <use style="fill:#990012;fill-opacity:0.6;stroke:#990012;stroke-opacity:0.6;" x="368.64" xlink:href="#mdf7736b5bf" y="250.764381"/>
     <use style="fill:#990012;fill-opacity:0.6;stroke:#990012;stroke-opacity:0.6;" x="403.2" xlink:href="#mdf7736b5bf" y="270.153763"/>
    </g>
   </g>
   <g id="line2d_18">
    <path clip-path="url(#pf0ff531ee1)" d="M 126.72 215.712379 
L 161.28 181.067862 
L 195.84 200.864729 
L 230.4 260.255329 
L 264.96 200.864729 
L 299.52 270.153763 
L 334.08 240.458462 
L 368.64 230.560029 
L 403.2 270.153763 
" style="fill:none;stroke:#2b65ec;stroke-linecap:round;stroke-opacity:0.6;"/>
    <defs>
     <path d="M 0 3.25 
C 0.86191 3.25 1.688635 2.907559 2.298097 2.298097 
C 2.907559 1.688635 3.25 0.86191 3.25 0 
C 3.25 -0.86191 2.907559 -1.688635 2.298097 -2.298097 
C 1.688635 -2.907559 0.86191 -3.25 0 -3.25 
C -0.86191 -3.25 -1.688635 -2.907559 -2.298097 -2.298097 
C -2.907559 -1.688635 -3.25 -0.86191 -3.25 0 
C -3.25 0.86191 -2.907559 1.688635 -2.298097 2.298097 
C -1.688635 2.907559 -0.86191 3.25 0 3.25 
z
" id="m4edfac06a0" style="stroke:#2b65ec;stroke-opacity:0.6;"/>
    </defs>
    <g clip-path="url(#pf0ff531ee1)">
     <use style="fill:#2b65ec;fill-opacity:0.6;stroke:#2b65ec;stroke-opacity:0.6;" x="126.72" xlink:href="#m4edfac06a0" y="215.712379"/>
     <use style="fill:#2b65ec;fill-opacity:0.6;stroke:#2b65ec;stroke-opacity:0.6;" x="161.28" xlink:href="#m4edfac06a0" y="181.067862"/>
     <use style="fill:#2b65ec;fill-opacity:0.6;stroke:#2b65ec;stroke-opacity:0.6;" x="195.84" xlink:href="#m4edfac06a0" y="200.864729"/>
     <use style="fill:#2b65ec;fill-opacity:0.6;stroke:#2b65ec;stroke-opacity:0.6;" x="230.4" xlink:href="#m4edfac06a0" y="260.255329"/>
     <use style="fill:#2b65ec;fill-opacity:0.6;stroke:#2b65ec;stroke-opacity:0.6;" x="264.96" xlink:href="#m4edfac06a0" y="200.864729"/>
     <use style="fill:#2b65ec;fill-opacity:0.6;stroke:#2b65ec;stroke-opacity:0.6;" x="299.52" xlink:href="#m4edfac06a0" y="270.153763"/>
     <use style="fill:#2b65ec;fill-opacity:0.6;stroke:#2b65ec;stroke-opacity:0.6;" x="334.08" xlink:href="#m4edfac06a0" y="240.458462"/>
     <use style="fill:#2b65ec;fill-opacity:0.6;stroke:#2b65ec;stroke-opacity:0.6;" x="368.64" xlink:href="#m4edfac06a0" y="230.560029"/>
     <use style="fill:#2b65ec;fill-opacity:0.6;stroke:#2b65ec;stroke-opacity:0.6;" x="403.2" xlink:href="#m4edfac06a0" y="270.153763"/>
    </g>
   </g>
   <g id="patch_3">
    <path d="M 92.16 276.48 
L 92.16 27.648 
" style="fill:none;stroke:#262626;stroke-linecap:square;stroke-linejoin:miter;stroke-width:0.8;"/>
   </g>
   <g id="patch_4">
    <path d="M 92.16 276.48 
L 437.76 276.48 
" style="fill:none;stroke:#262626;stroke-linecap:square;stroke-linejoin:miter;stroke-width:0.8;"/>
   </g>
   <g id="text_16">
    <text style="fill:#262626;font-family:DejaVu Sans;font-size:20px;font-style:normal;font-weight:bold;text-anchor:middle;" transform="rotate(-0, 264.96, 21.648)" x="264.96" y="21.648">J gene</text>
   </g>
   <g id="legend_1">
    <g id="patch_5">
     <path d="M 343.992 152.064 
L 474.463875 152.064 
Q 477.463875 152.064 477.463875 149.064 
L 477.463875 84.512437 
Q 477.463875 81.512437 474.463875 81.512437 
L 343.992 81.512437 
Q 340.992 81.512437 340.992 84.512437 
L 340.992 149.064 
Q 340.992 152.064 343.992 152.064 
z
" style="fill:#ffffff;opacity:0.8;stroke:#cccccc;stroke-linejoin:miter;"/>
    </g>
    <g id="LineCollection_4">
     <path d="M 361.992 101.160094 
L 361.992 86.160094 
" style="fill:none;stroke:#006600;stroke-opacity:0.6;"/>
    </g>
    <g id="line2d_19">
     <path d="M 346.992 93.660094 
L 376.992 93.660094 
" style="fill:none;stroke:#006600;stroke-linecap:round;stroke-opacity:0.6;"/>
    </g>
    <g id="line2d_20">
     <g>
      <use style="fill:#006600;fill-opacity:0.6;stroke:#006600;stroke-opacity:0.6;" x="361.992" xlink:href="#ma4955a267c" y="93.660094"/>
     </g>
    </g>
    <g id="text_17">
     <text style="fill:#262626;font-family:DejaVu Sans;font-size:15px;font-style:normal;font-weight:normal;text-anchor:start;" transform="rotate(-0, 388.992, 98.910094)" x="388.992" y="98.910094">sw</text>
    </g>
    <g id="LineCollection_5">
     <path d="M 361.992 123.177281 
L 361.992 108.177281 
" style="fill:none;stroke:#990012;stroke-opacity:0.6;"/>
    </g>
    <g id="line2d_21">
     <path d="M 346.992 115.677281 
L 376.992 115.677281 
" style="fill:none;stroke:#990012;stroke-linecap:round;stroke-opacity:0.6;"/>
    </g>
    <g id="line2d_22">
     <g>
      <use style="fill:#990012;fill-opacity:0.6;stroke:#990012;stroke-opacity:0.6;" x="361.992" xlink:href="#mdf7736b5bf" y="115.677281"/>
     </g>
    </g>
    <g id="text_18">
     <text style="fill:#262626;font-family:DejaVu Sans;font-size:15px;font-style:normal;font-weight:normal;text-anchor:start;" transform="rotate(-0, 388.992, 120.927281)" x="388.992" y="120.927281">hmm</text>
    </g>
    <g id="LineCollection_6">
     <path d="M 361.992 145.194469 
L 361.992 130.194469 
" style="fill:none;stroke:#2b65ec;stroke-opacity:0.6;"/>
    </g>
    <g id="line2d_23">
     <path d="M 346.992 137.694469 
L 376.992 137.694469 
" style="fill:none;stroke:#2b65ec;stroke-linecap:round;stroke-opacity:0.6;"/>
    </g>
    <g id="line2d_24">
     <g>
      <use style="fill:#2b65ec;fill-opacity:0.6;stroke:#2b65ec;stroke-opacity:0.6;" x="361.992" xlink:href="#m4edfac06a0" y="137.694469"/>
     </g>
    </g>
    <g id="text_19">
     <text style="fill:#262626;font-family:DejaVu Sans;font-size:15px;font-style:normal;font-weight:normal;text-anchor:start;" transform="rotate(-0, 388.992, 142.944469)" x="388.992" y="142.944469">multi-hmm</text>
    </g>
   </g>
  </g>
 </g>
 <defs>
  <clipPath id="pf0ff531ee1">
   <rect height="248.832" width="345.6" x="92.16" y="27.648"/>
  </clipPath>
 </defs>
</svg>
