<?xml version="1.0" encoding="utf-8" standalone="no"?>
<!DOCTYPE svg PUBLIC "-//W3C//DTD SVG 1.1//EN"
  "http://www.w3.org/Graphics/SVG/1.1/DTD/svg11.dtd">
<!-- Created with matplotlib (http://matplotlib.org/) -->
<svg height="345.6pt" version="1.1" viewBox="0 0 460.8 345.6" width="460.8pt" xmlns="http://www.w3.org/2000/svg" xmlns:xlink="http://www.w3.org/1999/xlink">
 <defs>
  <style type="text/css">
*{stroke-linecap:butt;stroke-linejoin:round;}
  </style>
 </defs>
 <g id="figure_1">
  <g id="patch_1">
   <path d="M 0 345.6 
L 460.8 345.6 
L 460.8 0 
L 0 0 
z
" style="fill:#ffffff;"/>
  </g>
  <g id="axes_1">
   <g id="patch_2">
    <path d="M 92.16 276.48 
L 437.76 276.48 
L 437.76 27.648 
L 92.16 27.648 
z
" style="fill:#ffffff;"/>
   </g>
   <g id="matplotlib.axis_1">
    <g id="xtick_1">
     <g id="line2d_1">
      <defs>
       <path d="M 0 0 
L 0 3.5 
" id="m6f2ea135ac" style="stroke:#262626;stroke-width:0.8;"/>
      </defs>
      <g>
       <use style="fill:#262626;stroke:#262626;stroke-width:0.8;" x="126.72" xlink:href="#m6f2ea135ac" y="276.48"/>
      </g>
     </g>
     <g id="text_1">
      <text style="fill:#262626;font-family:DejaVu Sans;font-size:20px;font-style:normal;font-weight:normal;text-anchor:middle;" transform="rotate(-0, 126.72, 298.676875)" x="126.72" y="298.676875">−0.4</text>
     </g>
    </g>
    <g id="xtick_2">
     <g id="line2d_2">
      <g>
       <use style="fill:#262626;stroke:#262626;stroke-width:0.8;" x="195.84" xlink:href="#m6f2ea135ac" y="276.48"/>
      </g>
     </g>
     <g id="text_2">
      <text style="fill:#262626;font-family:DejaVu Sans;font-size:20px;font-style:normal;font-weight:normal;text-anchor:middle;" transform="rotate(-0, 195.84, 298.676875)" x="195.84" y="298.676875">−0.2</text>
     </g>
    </g>
    <g id="xtick_3">
     <g id="line2d_3">
      <g>
       <use style="fill:#262626;stroke:#262626;stroke-width:0.8;" x="264.96" xlink:href="#m6f2ea135ac" y="276.48"/>
      </g>
     </g>
     <g id="text_3">
      <text style="fill:#262626;font-family:DejaVu Sans;font-size:20px;font-style:normal;font-weight:normal;text-anchor:middle;" transform="rotate(-0, 264.96, 298.676875)" x="264.96" y="298.676875">0.0</text>
     </g>
    </g>
    <g id="xtick_4">
     <g id="line2d_4">
      <g>
       <use style="fill:#262626;stroke:#262626;stroke-width:0.8;" x="334.08" xlink:href="#m6f2ea135ac" y="276.48"/>
      </g>
     </g>
     <g id="text_4">
      <text style="fill:#262626;font-family:DejaVu Sans;font-size:20px;font-style:normal;font-weight:normal;text-anchor:middle;" transform="rotate(-0, 334.08, 298.676875)" x="334.08" y="298.676875">0.2</text>
     </g>
    </g>
    <g id="xtick_5">
     <g id="line2d_5">
      <g>
       <use style="fill:#262626;stroke:#262626;stroke-width:0.8;" x="403.2" xlink:href="#m6f2ea135ac" y="276.48"/>
      </g>
     </g>
     <g id="text_5">
      <text style="fill:#262626;font-family:DejaVu Sans;font-size:20px;font-style:normal;font-weight:normal;text-anchor:middle;" transform="rotate(-0, 403.2, 298.676875)" x="403.2" y="298.676875">0.4</text>
     </g>
    </g>
    <g id="text_6">
     <text style="fill:#262626;font-family:DejaVu Sans;font-size:20px;font-style:normal;font-weight:normal;text-anchor:middle;" transform="rotate(-0, 264.96, 322.033125)" x="264.96" y="322.033125">bases</text>
    </g>
   </g>
   <g id="matplotlib.axis_2">
    <g id="ytick_1">
     <g id="line2d_6">
      <defs>
       <path d="M 0 0 
L -3.5 0 
" id="mfafed2b160" style="stroke:#262626;stroke-width:0.8;"/>
      </defs>
      <g>
       <use style="fill:#262626;stroke:#262626;stroke-width:0.8;" x="92.16" xlink:href="#mfafed2b160" y="270.153763"/>
      </g>
     </g>
     <g id="text_7">
      <text style="fill:#262626;font-family:DejaVu Sans;font-size:20px;font-style:normal;font-weight:normal;text-anchor:end;" transform="rotate(-0, 85.16, 277.7522)" x="85.16" y="277.7522">0.0</text>
     </g>
    </g>
    <g id="ytick_2">
     <g id="line2d_7">
      <g>
       <use style="fill:#262626;stroke:#262626;stroke-width:0.8;" x="92.16" xlink:href="#mfafed2b160" y="227.978847"/>
      </g>
     </g>
     <g id="text_8">
      <text style="fill:#262626;font-family:DejaVu Sans;font-size:20px;font-style:normal;font-weight:normal;text-anchor:end;" transform="rotate(-0, 85.16, 235.577285)" x="85.16" y="235.577285">0.2</text>
     </g>
    </g>
    <g id="ytick_3">
     <g id="line2d_8">
      <g>
       <use style="fill:#262626;stroke:#262626;stroke-width:0.8;" x="92.16" xlink:href="#mfafed2b160" y="185.803932"/>
      </g>
     </g>
     <g id="text_9">
      <text style="fill:#262626;font-family:DejaVu Sans;font-size:20px;font-style:normal;font-weight:normal;text-anchor:end;" transform="rotate(-0, 85.16, 193.40237)" x="85.16" y="193.40237">0.4</text>
     </g>
    </g>
    <g id="ytick_4">
     <g id="line2d_9">
      <g>
       <use style="fill:#262626;stroke:#262626;stroke-width:0.8;" x="92.16" xlink:href="#mfafed2b160" y="143.629017"/>
      </g>
     </g>
     <g id="text_10">
      <text style="fill:#262626;font-family:DejaVu Sans;font-size:20px;font-style:normal;font-weight:normal;text-anchor:end;" transform="rotate(-0, 85.16, 151.227454)" x="85.16" y="151.227454">0.6</text>
     </g>
    </g>
    <g id="ytick_5">
     <g id="line2d_10">
      <g>
       <use style="fill:#262626;stroke:#262626;stroke-width:0.8;" x="92.16" xlink:href="#mfafed2b160" y="101.454102"/>
      </g>
     </g>
     <g id="text_11">
      <text style="fill:#262626;font-family:DejaVu Sans;font-size:20px;font-style:normal;font-weight:normal;text-anchor:end;" transform="rotate(-0, 85.16, 109.052539)" x="85.16" y="109.052539">0.8</text>
     </g>
    </g>
    <g id="ytick_6">
     <g id="line2d_11">
      <g>
       <use style="fill:#262626;stroke:#262626;stroke-width:0.8;" x="92.16" xlink:href="#mfafed2b160" y="59.279186"/>
      </g>
     </g>
     <g id="text_12">
      <text style="fill:#262626;font-family:DejaVu Sans;font-size:20px;font-style:normal;font-weight:normal;text-anchor:end;" transform="rotate(-0, 85.16, 66.877624)" x="85.16" y="66.877624">1.0</text>
     </g>
    </g>
    <g id="text_13">
     <text style="fill:#262626;font-family:DejaVu Sans;font-size:20px;font-style:normal;font-weight:normal;text-anchor:middle;" transform="rotate(-90, 45.194375, 152.064)" x="45.194375" y="152.064">frequency</text>
    </g>
   </g>
   <g id="LineCollection_1">
    <path clip-path="url(#pe9e49dcbda)" d="M 264.96 63.129212 
L 264.96 55.429161 
" style="fill:none;stroke:#006600;stroke-opacity:0.6;stroke-width:5;"/>
   </g>
   <g id="LineCollection_2">
    <path clip-path="url(#pe9e49dcbda)" d="M 264.96 63.129212 
L 264.96 55.429161 
" style="fill:none;stroke:#990012;stroke-opacity:0.6;stroke-width:3;"/>
   </g>
   <g id="LineCollection_3">
    <path clip-path="url(#pe9e49dcbda)" d="M 264.96 83.960189 
L 264.96 34.598184 
" style="fill:none;stroke:#2b65ec;stroke-opacity:0.6;stroke-width:2;"/>
   </g>
   <g id="line2d_12">
    <path clip-path="url(#pe9e49dcbda)" d="M 264.96 59.279186 
" style="fill:none;stroke:#006600;stroke-linecap:round;stroke-opacity:0.6;stroke-width:5;"/>
    <defs>
     <path d="M 0 3.25 
C 0.86191 3.25 1.688635 2.907559 2.298097 2.298097 
C 2.907559 1.688635 3.25 0.86191 3.25 0 
C 3.25 -0.86191 2.907559 -1.688635 2.298097 -2.298097 
C 1.688635 -2.907559 0.86191 -3.25 0 -3.25 
C -0.86191 -3.25 -1.688635 -2.907559 -2.298097 -2.298097 
C -2.907559 -1.688635 -3.25 -0.86191 -3.25 0 
C -3.25 0.86191 -2.907559 1.688635 -2.298097 2.298097 
C -1.688635 2.907559 -0.86191 3.25 0 3.25 
z
" id="m338be4ca12" style="stroke:#006600;stroke-opacity:0.6;"/>
    </defs>
    <g clip-path="url(#pe9e49dcbda)">
     <use style="fill:#006600;fill-opacity:0.6;stroke:#006600;stroke-opacity:0.6;" x="264.96" xlink:href="#m338be4ca12" y="59.279186"/>
    </g>
   </g>
   <g id="line2d_13">
    <path clip-path="url(#pe9e49dcbda)" d="M 264.96 59.279186 
" style="fill:none;stroke:#990012;stroke-linecap:round;stroke-opacity:0.6;stroke-width:3;"/>
    <defs>
     <path d="M 0 3.25 
C 0.86191 3.25 1.688635 2.907559 2.298097 2.298097 
C 2.907559 1.688635 3.25 0.86191 3.25 0 
C 3.25 -0.86191 2.907559 -1.688635 2.298097 -2.298097 
C 1.688635 -2.907559 0.86191 -3.25 0 -3.25 
C -0.86191 -3.25 -1.688635 -2.907559 -2.298097 -2.298097 
C -2.907559 -1.688635 -3.25 -0.86191 -3.25 0 
C -3.25 0.86191 -2.907559 1.688635 -2.298097 2.298097 
C -1.688635 2.907559 -0.86191 3.25 0 3.25 
z
" id="m7cfbb87f26" style="stroke:#990012;stroke-opacity:0.6;"/>
    </defs>
    <g clip-path="url(#pe9e49dcbda)">
     <use style="fill:#990012;fill-opacity:0.6;stroke:#990012;stroke-opacity:0.6;" x="264.96" xlink:href="#m7cfbb87f26" y="59.279186"/>
    </g>
   </g>
   <g id="line2d_14">
    <path clip-path="url(#pe9e49dcbda)" d="M 264.96 59.279186 
" style="fill:none;stroke:#2b65ec;stroke-linecap:round;stroke-opacity:0.6;stroke-width:2;"/>
    <defs>
     <path d="M 0 3.25 
C 0.86191 3.25 1.688635 2.907559 2.298097 2.298097 
C 2.907559 1.688635 3.25 0.86191 3.25 0 
C 3.25 -0.86191 2.907559 -1.688635 2.298097 -2.298097 
C 1.688635 -2.907559 0.86191 -3.25 0 -3.25 
C -0.86191 -3.25 -1.688635 -2.907559 -2.298097 -2.298097 
C -2.907559 -1.688635 -3.25 -0.86191 -3.25 0 
C -3.25 0.86191 -2.907559 1.688635 -2.298097 2.298097 
C -1.688635 2.907559 -0.86191 3.25 0 3.25 
z
" id="me79272673e" style="stroke:#2b65ec;stroke-opacity:0.6;"/>
    </defs>
    <g clip-path="url(#pe9e49dcbda)">
     <use style="fill:#2b65ec;fill-opacity:0.6;stroke:#2b65ec;stroke-opacity:0.6;" x="264.96" xlink:href="#me79272673e" y="59.279186"/>
    </g>
   </g>
   <g id="patch_3">
    <path d="M 92.16 276.48 
L 92.16 27.648 
" style="fill:none;stroke:#262626;stroke-linecap:square;stroke-linejoin:miter;stroke-width:0.8;"/>
   </g>
   <g id="patch_4">
    <path d="M 92.16 276.48 
L 437.76 276.48 
" style="fill:none;stroke:#262626;stroke-linecap:square;stroke-linejoin:miter;stroke-width:0.8;"/>
   </g>
   <g id="text_14">
    <text style="fill:#262626;font-family:DejaVu Sans;font-size:20px;font-style:normal;font-weight:bold;text-anchor:middle;" transform="rotate(-0, 264.96, 21.648)" x="264.96" y="21.648">V 5' deletion</text>
   </g>
   <g id="legend_1">
    <g id="patch_5">
     <path d="M 343.992 152.064 
L 474.463875 152.064 
Q 477.463875 152.064 477.463875 149.064 
L 477.463875 84.512437 
Q 477.463875 81.512437 474.463875 81.512437 
L 343.992 81.512437 
Q 340.992 81.512437 340.992 84.512437 
L 340.992 149.064 
Q 340.992 152.064 343.992 152.064 
z
" style="fill:#ffffff;opacity:0.8;stroke:#cccccc;stroke-linejoin:miter;"/>
    </g>
    <g id="LineCollection_4">
     <path d="M 361.992 101.160094 
L 361.992 86.160094 
" style="fill:none;stroke:#006600;stroke-opacity:0.6;stroke-width:5;"/>
    </g>
    <g id="line2d_15">
     <path d="M 346.992 93.660094 
L 376.992 93.660094 
" style="fill:none;stroke:#006600;stroke-linecap:round;stroke-opacity:0.6;stroke-width:5;"/>
    </g>
    <g id="line2d_16">
     <g>
      <use style="fill:#006600;fill-opacity:0.6;stroke:#006600;stroke-opacity:0.6;" x="361.992" xlink:href="#m338be4ca12" y="93.660094"/>
     </g>
    </g>
    <g id="text_15">
     <text style="fill:#262626;font-family:DejaVu Sans;font-size:15px;font-style:normal;font-weight:normal;text-anchor:start;" transform="rotate(-0, 388.992, 98.910094)" x="388.992" y="98.910094">sw</text>
    </g>
    <g id="LineCollection_5">
     <path d="M 361.992 123.177281 
L 361.992 108.177281 
" style="fill:none;stroke:#990012;stroke-opacity:0.6;stroke-width:3;"/>
    </g>
    <g id="line2d_17">
     <path d="M 346.992 115.677281 
L 376.992 115.677281 
" style="fill:none;stroke:#990012;stroke-linecap:round;stroke-opacity:0.6;stroke-width:3;"/>
    </g>
    <g id="line2d_18">
     <g>
      <use style="fill:#990012;fill-opacity:0.6;stroke:#990012;stroke-opacity:0.6;" x="361.992" xlink:href="#m7cfbb87f26" y="115.677281"/>
     </g>
    </g>
    <g id="text_16">
     <text style="fill:#262626;font-family:DejaVu Sans;font-size:15px;font-style:normal;font-weight:normal;text-anchor:start;" transform="rotate(-0, 388.992, 120.927281)" x="388.992" y="120.927281">hmm</text>
    </g>
    <g id="LineCollection_6">
     <path d="M 361.992 145.194469 
L 361.992 130.194469 
" style="fill:none;stroke:#2b65ec;stroke-opacity:0.6;stroke-width:2;"/>
    </g>
    <g id="line2d_19">
     <path d="M 346.992 137.694469 
L 376.992 137.694469 
" style="fill:none;stroke:#2b65ec;stroke-linecap:round;stroke-opacity:0.6;stroke-width:2;"/>
    </g>
    <g id="line2d_20">
     <g>
      <use style="fill:#2b65ec;fill-opacity:0.6;stroke:#2b65ec;stroke-opacity:0.6;" x="361.992" xlink:href="#me79272673e" y="137.694469"/>
     </g>
    </g>
    <g id="text_17">
     <text style="fill:#262626;font-family:DejaVu Sans;font-size:15px;font-style:normal;font-weight:normal;text-anchor:start;" transform="rotate(-0, 388.992, 142.944469)" x="388.992" y="142.944469">multi-hmm</text>
    </g>
   </g>
  </g>
 </g>
 <defs>
  <clipPath id="pe9e49dcbda">
   <rect height="248.832" width="345.6" x="92.16" y="27.648"/>
  </clipPath>
 </defs>
</svg>
