<?xml version="1.0" encoding="utf-8" standalone="no"?>
<!DOCTYPE svg PUBLIC "-//W3C//DTD SVG 1.1//EN"
  "http://www.w3.org/Graphics/SVG/1.1/DTD/svg11.dtd">
<!-- Created with matplotlib (http://matplotlib.org/) -->
<svg height="345.6pt" version="1.1" viewBox="0 0 460.8 345.6" width="460.8pt" xmlns="http://www.w3.org/2000/svg" xmlns:xlink="http://www.w3.org/1999/xlink">
 <defs>
  <style type="text/css">
*{stroke-linecap:butt;stroke-linejoin:round;}
  </style>
 </defs>
 <g id="figure_1">
  <g id="patch_1">
   <path d="M 0 345.6 
L 460.8 345.6 
L 460.8 0 
L 0 0 
z
" style="fill:#ffffff;"/>
  </g>
  <g id="axes_1">
   <g id="patch_2">
    <path d="M 92.16 276.48 
L 437.76 276.48 
L 437.76 27.648 
L 92.16 27.648 
z
" style="fill:#ffffff;"/>
   </g>
   <g id="matplotlib.axis_1">
    <g id="xtick_1">
     <g id="line2d_1">
      <defs>
       <path d="M 0 0 
L 0 3.5 
" id="m4c3a6f01ee" style="stroke:#262626;stroke-width:0.8;"/>
      </defs>
      <g>
       <use style="fill:#262626;stroke:#262626;stroke-width:0.8;" x="113.76" xlink:href="#m4c3a6f01ee" y="276.48"/>
      </g>
     </g>
     <g id="text_1">
      <text style="fill:#262626;font-family:DejaVu Sans;font-size:20px;font-style:normal;font-weight:normal;text-anchor:middle;" transform="rotate(-0, 113.76, 298.676875)" x="113.76" y="298.676875">0</text>
     </g>
    </g>
    <g id="xtick_2">
     <g id="line2d_2">
      <g>
       <use style="fill:#262626;stroke:#262626;stroke-width:0.8;" x="221.76" xlink:href="#m4c3a6f01ee" y="276.48"/>
      </g>
     </g>
     <g id="text_2">
      <text style="fill:#262626;font-family:DejaVu Sans;font-size:20px;font-style:normal;font-weight:normal;text-anchor:middle;" transform="rotate(-0, 221.76, 298.676875)" x="221.76" y="298.676875">5</text>
     </g>
    </g>
    <g id="xtick_3">
     <g id="line2d_3">
      <g>
       <use style="fill:#262626;stroke:#262626;stroke-width:0.8;" x="329.76" xlink:href="#m4c3a6f01ee" y="276.48"/>
      </g>
     </g>
     <g id="text_3">
      <text style="fill:#262626;font-family:DejaVu Sans;font-size:20px;font-style:normal;font-weight:normal;text-anchor:middle;" transform="rotate(-0, 329.76, 298.676875)" x="329.76" y="298.676875">10</text>
     </g>
    </g>
    <g id="xtick_4">
     <g id="line2d_4">
      <g>
       <use style="fill:#262626;stroke:#262626;stroke-width:0.8;" x="437.76" xlink:href="#m4c3a6f01ee" y="276.48"/>
      </g>
     </g>
     <g id="text_4">
      <text style="fill:#262626;font-family:DejaVu Sans;font-size:20px;font-style:normal;font-weight:normal;text-anchor:middle;" transform="rotate(-0, 437.76, 298.676875)" x="437.76" y="298.676875">15</text>
     </g>
    </g>
    <g id="text_5">
     <text style="fill:#262626;font-family:DejaVu Sans;font-size:20px;font-style:normal;font-weight:normal;text-anchor:middle;" transform="rotate(-0, 264.96, 322.033125)" x="264.96" y="322.033125">bases</text>
    </g>
   </g>
   <g id="matplotlib.axis_2">
    <g id="ytick_1">
     <g id="line2d_5">
      <defs>
       <path d="M 0 0 
L -3.5 0 
" id="m333d9bc2b6" style="stroke:#262626;stroke-width:0.8;"/>
      </defs>
      <g>
       <use style="fill:#262626;stroke:#262626;stroke-width:0.8;" x="92.16" xlink:href="#m333d9bc2b6" y="270.153763"/>
      </g>
     </g>
     <g id="text_6">
      <text style="fill:#262626;font-family:DejaVu Sans;font-size:20px;font-style:normal;font-weight:normal;text-anchor:end;" transform="rotate(-0, 85.16, 277.7522)" x="85.16" y="277.7522">0.0</text>
     </g>
    </g>
    <g id="ytick_2">
     <g id="line2d_6">
      <g>
       <use style="fill:#262626;stroke:#262626;stroke-width:0.8;" x="92.16" xlink:href="#m333d9bc2b6" y="198.346302"/>
      </g>
     </g>
     <g id="text_7">
      <text style="fill:#262626;font-family:DejaVu Sans;font-size:20px;font-style:normal;font-weight:normal;text-anchor:end;" transform="rotate(-0, 85.16, 205.94474)" x="85.16" y="205.94474">0.2</text>
     </g>
    </g>
    <g id="ytick_3">
     <g id="line2d_7">
      <g>
       <use style="fill:#262626;stroke:#262626;stroke-width:0.8;" x="92.16" xlink:href="#m333d9bc2b6" y="126.538841"/>
      </g>
     </g>
     <g id="text_8">
      <text style="fill:#262626;font-family:DejaVu Sans;font-size:20px;font-style:normal;font-weight:normal;text-anchor:end;" transform="rotate(-0, 85.16, 134.137279)" x="85.16" y="134.137279">0.4</text>
     </g>
    </g>
    <g id="ytick_4">
     <g id="line2d_8">
      <g>
       <use style="fill:#262626;stroke:#262626;stroke-width:0.8;" x="92.16" xlink:href="#m333d9bc2b6" y="54.731381"/>
      </g>
     </g>
     <g id="text_9">
      <text style="fill:#262626;font-family:DejaVu Sans;font-size:20px;font-style:normal;font-weight:normal;text-anchor:end;" transform="rotate(-0, 85.16, 62.329818)" x="85.16" y="62.329818">0.6</text>
     </g>
    </g>
    <g id="text_10">
     <text style="fill:#262626;font-family:DejaVu Sans;font-size:20px;font-style:normal;font-weight:normal;text-anchor:middle;" transform="rotate(-90, 45.194375, 152.064)" x="45.194375" y="152.064">frequency</text>
    </g>
   </g>
   <g id="LineCollection_1">
    <path clip-path="url(#pda2c3c4ccf)" d="M 113.76 247.333091 
L 113.76 243.906003 
" style="fill:none;stroke:#006600;stroke-opacity:0.6;stroke-width:5;"/>
    <path clip-path="url(#pda2c3c4ccf)" d="M 135.36 256.074452 
L 135.36 253.355865 
" style="fill:none;stroke:#006600;stroke-opacity:0.6;stroke-width:5;"/>
    <path clip-path="url(#pda2c3c4ccf)" d="M 156.96 259.950736 
L 156.96 257.617761 
" style="fill:none;stroke:#006600;stroke-opacity:0.6;stroke-width:5;"/>
    <path clip-path="url(#pda2c3c4ccf)" d="M 178.56 251.483823 
L 178.56 248.372166 
" style="fill:none;stroke:#006600;stroke-opacity:0.6;stroke-width:5;"/>
    <path clip-path="url(#pda2c3c4ccf)" d="M 200.16 66.549602 
L 200.16 56.556576 
" style="fill:none;stroke:#006600;stroke-opacity:0.6;stroke-width:5;"/>
    <path clip-path="url(#pda2c3c4ccf)" d="M 221.76 268.822091 
L 221.76 267.895061 
" style="fill:none;stroke:#006600;stroke-opacity:0.6;stroke-width:5;"/>
    <path clip-path="url(#pda2c3c4ccf)" d="M 243.36 269.132194 
L 243.36 268.303033 
" style="fill:none;stroke:#006600;stroke-opacity:0.6;stroke-width:5;"/>
    <path clip-path="url(#pda2c3c4ccf)" d="M 264.96 269.029444 
L 264.96 268.166425 
" style="fill:none;stroke:#006600;stroke-opacity:0.6;stroke-width:5;"/>
    <path clip-path="url(#pda2c3c4ccf)" d="M 286.56 269.534834 
L 286.56 268.857826 
" style="fill:none;stroke:#006600;stroke-opacity:0.6;stroke-width:5;"/>
    <path clip-path="url(#pda2c3c4ccf)" d="M 308.16 270.083656 
L 308.16 269.745153 
" style="fill:none;stroke:#006600;stroke-opacity:0.6;stroke-width:5;"/>
    <path clip-path="url(#pda2c3c4ccf)" d="M 329.76 208.425242 
L 329.76 202.868212 
" style="fill:none;stroke:#006600;stroke-opacity:0.6;stroke-width:5;"/>
    <path clip-path="url(#pda2c3c4ccf)" d="M 351.36 269.63265 
L 351.36 268.999368 
" style="fill:none;stroke:#006600;stroke-opacity:0.6;stroke-width:5;"/>
    <path clip-path="url(#pda2c3c4ccf)" d="M 372.96 264.904808 
L 372.96 263.195449 
" style="fill:none;stroke:#006600;stroke-opacity:0.6;stroke-width:5;"/>
    <path clip-path="url(#pda2c3c4ccf)" d="M 394.56 270.153763 
L 394.56 270.153763 
" style="fill:none;stroke:#006600;stroke-opacity:0.6;stroke-width:5;"/>
    <path clip-path="url(#pda2c3c4ccf)" d="M 416.16 269.132194 
L 416.16 268.303033 
" style="fill:none;stroke:#006600;stroke-opacity:0.6;stroke-width:5;"/>
    <path clip-path="url(#pda2c3c4ccf)" d="M 437.76 270.153763 
L 437.76 270.153763 
" style="fill:none;stroke:#006600;stroke-opacity:0.6;stroke-width:5;"/>
    <path clip-path="url(#pda2c3c4ccf)" d="M 459.36 270.153763 
L 459.36 270.153763 
" style="fill:none;stroke:#006600;stroke-opacity:0.6;stroke-width:5;"/>
    <path clip-path="url(#pda2c3c4ccf)" style="fill:none;stroke:#006600;stroke-opacity:0.6;stroke-width:5;"/>
    <path clip-path="url(#pda2c3c4ccf)" style="fill:none;stroke:#006600;stroke-opacity:0.6;stroke-width:5;"/>
    <path clip-path="url(#pda2c3c4ccf)" style="fill:none;stroke:#006600;stroke-opacity:0.6;stroke-width:5;"/>
   </g>
   <g id="LineCollection_2">
    <path clip-path="url(#pda2c3c4ccf)" d="M 113.76 249.064396 
L 113.76 245.765071 
" style="fill:none;stroke:#990012;stroke-opacity:0.6;stroke-width:3;"/>
    <path clip-path="url(#pda2c3c4ccf)" d="M 135.36 251.483823 
L 135.36 248.372166 
" style="fill:none;stroke:#990012;stroke-opacity:0.6;stroke-width:3;"/>
    <path clip-path="url(#pda2c3c4ccf)" d="M 156.96 260.744691 
L 156.96 258.499312 
" style="fill:none;stroke:#990012;stroke-opacity:0.6;stroke-width:3;"/>
    <path clip-path="url(#pda2c3c4ccf)" d="M 178.56 254.70012 
L 178.56 251.857899 
" style="fill:none;stroke:#990012;stroke-opacity:0.6;stroke-width:3;"/>
    <path clip-path="url(#pda2c3c4ccf)" d="M 200.16 64.302858 
L 200.16 54.255515 
" style="fill:none;stroke:#990012;stroke-opacity:0.6;stroke-width:3;"/>
    <path clip-path="url(#pda2c3c4ccf)" d="M 221.76 268.822091 
L 221.76 267.895061 
" style="fill:none;stroke:#990012;stroke-opacity:0.6;stroke-width:3;"/>
    <path clip-path="url(#pda2c3c4ccf)" d="M 243.36 268.717613 
L 243.36 267.760181 
" style="fill:none;stroke:#990012;stroke-opacity:0.6;stroke-width:3;"/>
    <path clip-path="url(#pda2c3c4ccf)" d="M 264.96 269.822978 
L 264.96 269.287757 
" style="fill:none;stroke:#990012;stroke-opacity:0.6;stroke-width:3;"/>
    <path clip-path="url(#pda2c3c4ccf)" d="M 286.56 269.822978 
L 286.56 269.287757 
" style="fill:none;stroke:#990012;stroke-opacity:0.6;stroke-width:3;"/>
    <path clip-path="url(#pda2c3c4ccf)" d="M 308.16 270.153763 
L 308.16 269.914405 
" style="fill:none;stroke:#990012;stroke-opacity:0.6;stroke-width:3;"/>
    <path clip-path="url(#pda2c3c4ccf)" d="M 329.76 203.270546 
L 329.76 197.491148 
" style="fill:none;stroke:#990012;stroke-opacity:0.6;stroke-width:3;"/>
    <path clip-path="url(#pda2c3c4ccf)" d="M 351.36 270.153763 
L 351.36 270.153763 
" style="fill:none;stroke:#990012;stroke-opacity:0.6;stroke-width:3;"/>
    <path clip-path="url(#pda2c3c4ccf)" d="M 372.96 269.234223 
L 372.96 268.440362 
" style="fill:none;stroke:#990012;stroke-opacity:0.6;stroke-width:3;"/>
    <path clip-path="url(#pda2c3c4ccf)" d="M 394.56 270.083656 
L 394.56 269.745153 
" style="fill:none;stroke:#990012;stroke-opacity:0.6;stroke-width:3;"/>
    <path clip-path="url(#pda2c3c4ccf)" d="M 416.16 269.132194 
L 416.16 268.303033 
" style="fill:none;stroke:#990012;stroke-opacity:0.6;stroke-width:3;"/>
    <path clip-path="url(#pda2c3c4ccf)" d="M 437.76 270.153763 
L 437.76 270.153763 
" style="fill:none;stroke:#990012;stroke-opacity:0.6;stroke-width:3;"/>
    <path clip-path="url(#pda2c3c4ccf)" d="M 459.36 270.153763 
L 459.36 270.153763 
" style="fill:none;stroke:#990012;stroke-opacity:0.6;stroke-width:3;"/>
    <path clip-path="url(#pda2c3c4ccf)" style="fill:none;stroke:#990012;stroke-opacity:0.6;stroke-width:3;"/>
    <path clip-path="url(#pda2c3c4ccf)" style="fill:none;stroke:#990012;stroke-opacity:0.6;stroke-width:3;"/>
    <path clip-path="url(#pda2c3c4ccf)" style="fill:none;stroke:#990012;stroke-opacity:0.6;stroke-width:3;"/>
    <path clip-path="url(#pda2c3c4ccf)" style="fill:none;stroke:#990012;stroke-opacity:0.6;stroke-width:3;"/>
   </g>
   <g id="LineCollection_3">
    <path clip-path="url(#pda2c3c4ccf)" d="M 113.76 198.144154 
L 113.76 155.267241 
" style="fill:none;stroke:#2b65ec;stroke-opacity:0.6;stroke-width:2;"/>
    <path clip-path="url(#pda2c3c4ccf)" d="M 135.36 211.133932 
L 135.36 171.787378 
" style="fill:none;stroke:#2b65ec;stroke-opacity:0.6;stroke-width:2;"/>
    <path clip-path="url(#pda2c3c4ccf)" d="M 156.96 252.69122 
L 156.96 228.596475 
" style="fill:none;stroke:#2b65ec;stroke-opacity:0.6;stroke-width:2;"/>
    <path clip-path="url(#pda2c3c4ccf)" d="M 178.56 256.559863 
L 178.56 234.56447 
" style="fill:none;stroke:#2b65ec;stroke-opacity:0.6;stroke-width:2;"/>
    <path clip-path="url(#pda2c3c4ccf)" d="M 200.16 240.643847 
L 200.16 211.133932 
" style="fill:none;stroke:#2b65ec;stroke-opacity:0.6;stroke-width:2;"/>
    <path clip-path="url(#pda2c3c4ccf)" d="M 221.76 260.317124 
L 221.76 240.643847 
" style="fill:none;stroke:#2b65ec;stroke-opacity:0.6;stroke-width:2;"/>
    <path clip-path="url(#pda2c3c4ccf)" d="M 243.36 270.153763 
L 243.36 260.317124 
" style="fill:none;stroke:#2b65ec;stroke-opacity:0.6;stroke-width:2;"/>
    <path clip-path="url(#pda2c3c4ccf)" d="M 264.96 263.917584 
L 264.96 246.880026 
" style="fill:none;stroke:#2b65ec;stroke-opacity:0.6;stroke-width:2;"/>
    <path clip-path="url(#pda2c3c4ccf)" d="M 286.56 270.153763 
L 286.56 260.317124 
" style="fill:none;stroke:#2b65ec;stroke-opacity:0.6;stroke-width:2;"/>
    <path clip-path="url(#pda2c3c4ccf)" d="M 308.16 270.153763 
L 308.16 270.153763 
" style="fill:none;stroke:#2b65ec;stroke-opacity:0.6;stroke-width:2;"/>
    <path clip-path="url(#pda2c3c4ccf)" d="M 329.76 263.917584 
L 329.76 246.880026 
" style="fill:none;stroke:#2b65ec;stroke-opacity:0.6;stroke-width:2;"/>
    <path clip-path="url(#pda2c3c4ccf)" d="M 351.36 270.153763 
L 351.36 260.317124 
" style="fill:none;stroke:#2b65ec;stroke-opacity:0.6;stroke-width:2;"/>
    <path clip-path="url(#pda2c3c4ccf)" d="M 372.96 270.153763 
L 372.96 270.153763 
" style="fill:none;stroke:#2b65ec;stroke-opacity:0.6;stroke-width:2;"/>
    <path clip-path="url(#pda2c3c4ccf)" d="M 394.56 270.153763 
L 394.56 260.317124 
" style="fill:none;stroke:#2b65ec;stroke-opacity:0.6;stroke-width:2;"/>
    <path clip-path="url(#pda2c3c4ccf)" d="M 416.16 260.317124 
L 416.16 240.643847 
" style="fill:none;stroke:#2b65ec;stroke-opacity:0.6;stroke-width:2;"/>
    <path clip-path="url(#pda2c3c4ccf)" d="M 437.76 270.153763 
L 437.76 270.153763 
" style="fill:none;stroke:#2b65ec;stroke-opacity:0.6;stroke-width:2;"/>
    <path clip-path="url(#pda2c3c4ccf)" d="M 459.36 270.153763 
L 459.36 270.153763 
" style="fill:none;stroke:#2b65ec;stroke-opacity:0.6;stroke-width:2;"/>
    <path clip-path="url(#pda2c3c4ccf)" style="fill:none;stroke:#2b65ec;stroke-opacity:0.6;stroke-width:2;"/>
    <path clip-path="url(#pda2c3c4ccf)" style="fill:none;stroke:#2b65ec;stroke-opacity:0.6;stroke-width:2;"/>
    <path clip-path="url(#pda2c3c4ccf)" style="fill:none;stroke:#2b65ec;stroke-opacity:0.6;stroke-width:2;"/>
    <path clip-path="url(#pda2c3c4ccf)" style="fill:none;stroke:#2b65ec;stroke-opacity:0.6;stroke-width:2;"/>
   </g>
   <g id="line2d_9">
    <path clip-path="url(#pda2c3c4ccf)" d="M 113.76 245.619547 
L 135.36 254.715159 
L 156.96 258.784248 
L 178.56 249.927995 
L 200.16 61.553089 
L 221.76 268.358576 
L 243.36 268.717613 
L 264.96 268.597934 
L 286.56 269.19633 
L 308.16 269.914405 
L 329.76 205.646727 
L 351.36 269.316009 
L 372.96 264.050129 
L 394.56 270.153763 
L 416.16 268.717613 
L 437.76 270.153763 
L 459.36 270.153763 
L 461.8 270.153763 
" style="fill:none;stroke:#006600;stroke-linecap:round;stroke-opacity:0.6;stroke-width:5;"/>
    <defs>
     <path d="M 0 3.25 
C 0.86191 3.25 1.688635 2.907559 2.298097 2.298097 
C 2.907559 1.688635 3.25 0.86191 3.25 0 
C 3.25 -0.86191 2.907559 -1.688635 2.298097 -2.298097 
C 1.688635 -2.907559 0.86191 -3.25 0 -3.25 
C -0.86191 -3.25 -1.688635 -2.907559 -2.298097 -2.298097 
C -2.907559 -1.688635 -3.25 -0.86191 -3.25 0 
C -3.25 0.86191 -2.907559 1.688635 -2.298097 2.298097 
C -1.688635 2.907559 -0.86191 3.25 0 3.25 
z
" id="m13c9ae4158" style="stroke:#006600;stroke-opacity:0.6;"/>
    </defs>
    <g clip-path="url(#pda2c3c4ccf)">
     <use style="fill:#006600;fill-opacity:0.6;stroke:#006600;stroke-opacity:0.6;" x="113.76" xlink:href="#m13c9ae4158" y="245.619547"/>
     <use style="fill:#006600;fill-opacity:0.6;stroke:#006600;stroke-opacity:0.6;" x="135.36" xlink:href="#m13c9ae4158" y="254.715159"/>
     <use style="fill:#006600;fill-opacity:0.6;stroke:#006600;stroke-opacity:0.6;" x="156.96" xlink:href="#m13c9ae4158" y="258.784248"/>
     <use style="fill:#006600;fill-opacity:0.6;stroke:#006600;stroke-opacity:0.6;" x="178.56" xlink:href="#m13c9ae4158" y="249.927995"/>
     <use style="fill:#006600;fill-opacity:0.6;stroke:#006600;stroke-opacity:0.6;" x="200.16" xlink:href="#m13c9ae4158" y="61.553089"/>
     <use style="fill:#006600;fill-opacity:0.6;stroke:#006600;stroke-opacity:0.6;" x="221.76" xlink:href="#m13c9ae4158" y="268.358576"/>
     <use style="fill:#006600;fill-opacity:0.6;stroke:#006600;stroke-opacity:0.6;" x="243.36" xlink:href="#m13c9ae4158" y="268.717613"/>
     <use style="fill:#006600;fill-opacity:0.6;stroke:#006600;stroke-opacity:0.6;" x="264.96" xlink:href="#m13c9ae4158" y="268.597934"/>
     <use style="fill:#006600;fill-opacity:0.6;stroke:#006600;stroke-opacity:0.6;" x="286.56" xlink:href="#m13c9ae4158" y="269.19633"/>
     <use style="fill:#006600;fill-opacity:0.6;stroke:#006600;stroke-opacity:0.6;" x="308.16" xlink:href="#m13c9ae4158" y="269.914405"/>
     <use style="fill:#006600;fill-opacity:0.6;stroke:#006600;stroke-opacity:0.6;" x="329.76" xlink:href="#m13c9ae4158" y="205.646727"/>
     <use style="fill:#006600;fill-opacity:0.6;stroke:#006600;stroke-opacity:0.6;" x="351.36" xlink:href="#m13c9ae4158" y="269.316009"/>
     <use style="fill:#006600;fill-opacity:0.6;stroke:#006600;stroke-opacity:0.6;" x="372.96" xlink:href="#m13c9ae4158" y="264.050129"/>
     <use style="fill:#006600;fill-opacity:0.6;stroke:#006600;stroke-opacity:0.6;" x="394.56" xlink:href="#m13c9ae4158" y="270.153763"/>
     <use style="fill:#006600;fill-opacity:0.6;stroke:#006600;stroke-opacity:0.6;" x="416.16" xlink:href="#m13c9ae4158" y="268.717613"/>
     <use style="fill:#006600;fill-opacity:0.6;stroke:#006600;stroke-opacity:0.6;" x="437.76" xlink:href="#m13c9ae4158" y="270.153763"/>
     <use style="fill:#006600;fill-opacity:0.6;stroke:#006600;stroke-opacity:0.6;" x="459.36" xlink:href="#m13c9ae4158" y="270.153763"/>
     <use style="fill:#006600;fill-opacity:0.6;stroke:#006600;stroke-opacity:0.6;" x="480.96" xlink:href="#m13c9ae4158" y="270.153763"/>
     <use style="fill:#006600;fill-opacity:0.6;stroke:#006600;stroke-opacity:0.6;" x="502.56" xlink:href="#m13c9ae4158" y="270.153763"/>
     <use style="fill:#006600;fill-opacity:0.6;stroke:#006600;stroke-opacity:0.6;" x="524.16" xlink:href="#m13c9ae4158" y="270.153763"/>
    </g>
   </g>
   <g id="line2d_10">
    <path clip-path="url(#pda2c3c4ccf)" d="M 113.76 247.414733 
L 135.36 249.927995 
L 156.96 259.622002 
L 178.56 253.279009 
L 200.16 59.279186 
L 221.76 268.358576 
L 243.36 268.238897 
L 264.96 269.555367 
L 286.56 269.555367 
L 308.16 270.034084 
L 329.76 200.380847 
L 351.36 270.153763 
L 372.96 268.837293 
L 394.56 269.914405 
L 416.16 268.717613 
L 437.76 270.153763 
L 459.36 270.153763 
L 461.8 270.153763 
" style="fill:none;stroke:#990012;stroke-linecap:round;stroke-opacity:0.6;stroke-width:3;"/>
    <defs>
     <path d="M 0 3.25 
C 0.86191 3.25 1.688635 2.907559 2.298097 2.298097 
C 2.907559 1.688635 3.25 0.86191 3.25 0 
C 3.25 -0.86191 2.907559 -1.688635 2.298097 -2.298097 
C 1.688635 -2.907559 0.86191 -3.25 0 -3.25 
C -0.86191 -3.25 -1.688635 -2.907559 -2.298097 -2.298097 
C -2.907559 -1.688635 -3.25 -0.86191 -3.25 0 
C -3.25 0.86191 -2.907559 1.688635 -2.298097 2.298097 
C -1.688635 2.907559 -0.86191 3.25 0 3.25 
z
" id="m6065b26900" style="stroke:#990012;stroke-opacity:0.6;"/>
    </defs>
    <g clip-path="url(#pda2c3c4ccf)">
     <use style="fill:#990012;fill-opacity:0.6;stroke:#990012;stroke-opacity:0.6;" x="113.76" xlink:href="#m6065b26900" y="247.414733"/>
     <use style="fill:#990012;fill-opacity:0.6;stroke:#990012;stroke-opacity:0.6;" x="135.36" xlink:href="#m6065b26900" y="249.927995"/>
     <use style="fill:#990012;fill-opacity:0.6;stroke:#990012;stroke-opacity:0.6;" x="156.96" xlink:href="#m6065b26900" y="259.622002"/>
     <use style="fill:#990012;fill-opacity:0.6;stroke:#990012;stroke-opacity:0.6;" x="178.56" xlink:href="#m6065b26900" y="253.279009"/>
     <use style="fill:#990012;fill-opacity:0.6;stroke:#990012;stroke-opacity:0.6;" x="200.16" xlink:href="#m6065b26900" y="59.279186"/>
     <use style="fill:#990012;fill-opacity:0.6;stroke:#990012;stroke-opacity:0.6;" x="221.76" xlink:href="#m6065b26900" y="268.358576"/>
     <use style="fill:#990012;fill-opacity:0.6;stroke:#990012;stroke-opacity:0.6;" x="243.36" xlink:href="#m6065b26900" y="268.238897"/>
     <use style="fill:#990012;fill-opacity:0.6;stroke:#990012;stroke-opacity:0.6;" x="264.96" xlink:href="#m6065b26900" y="269.555367"/>
     <use style="fill:#990012;fill-opacity:0.6;stroke:#990012;stroke-opacity:0.6;" x="286.56" xlink:href="#m6065b26900" y="269.555367"/>
     <use style="fill:#990012;fill-opacity:0.6;stroke:#990012;stroke-opacity:0.6;" x="308.16" xlink:href="#m6065b26900" y="270.034084"/>
     <use style="fill:#990012;fill-opacity:0.6;stroke:#990012;stroke-opacity:0.6;" x="329.76" xlink:href="#m6065b26900" y="200.380847"/>
     <use style="fill:#990012;fill-opacity:0.6;stroke:#990012;stroke-opacity:0.6;" x="351.36" xlink:href="#m6065b26900" y="270.153763"/>
     <use style="fill:#990012;fill-opacity:0.6;stroke:#990012;stroke-opacity:0.6;" x="372.96" xlink:href="#m6065b26900" y="268.837293"/>
     <use style="fill:#990012;fill-opacity:0.6;stroke:#990012;stroke-opacity:0.6;" x="394.56" xlink:href="#m6065b26900" y="269.914405"/>
     <use style="fill:#990012;fill-opacity:0.6;stroke:#990012;stroke-opacity:0.6;" x="416.16" xlink:href="#m6065b26900" y="268.717613"/>
     <use style="fill:#990012;fill-opacity:0.6;stroke:#990012;stroke-opacity:0.6;" x="437.76" xlink:href="#m6065b26900" y="270.153763"/>
     <use style="fill:#990012;fill-opacity:0.6;stroke:#990012;stroke-opacity:0.6;" x="459.36" xlink:href="#m6065b26900" y="270.153763"/>
     <use style="fill:#990012;fill-opacity:0.6;stroke:#990012;stroke-opacity:0.6;" x="480.96" xlink:href="#m6065b26900" y="270.153763"/>
     <use style="fill:#990012;fill-opacity:0.6;stroke:#990012;stroke-opacity:0.6;" x="502.56" xlink:href="#m6065b26900" y="270.153763"/>
     <use style="fill:#990012;fill-opacity:0.6;stroke:#990012;stroke-opacity:0.6;" x="524.16" xlink:href="#m6065b26900" y="270.153763"/>
     <use style="fill:#990012;fill-opacity:0.6;stroke:#990012;stroke-opacity:0.6;" x="545.76" xlink:href="#m6065b26900" y="270.153763"/>
    </g>
   </g>
   <g id="line2d_11">
    <path clip-path="url(#pda2c3c4ccf)" d="M 113.76 176.705697 
L 135.36 191.460655 
L 156.96 240.643847 
L 178.56 245.562167 
L 200.16 225.88889 
L 221.76 250.480486 
L 243.36 265.235443 
L 264.96 255.398805 
L 286.56 265.235443 
L 308.16 270.153763 
L 329.76 255.398805 
L 351.36 265.235443 
L 372.96 270.153763 
L 394.56 265.235443 
L 416.16 250.480486 
L 437.76 270.153763 
L 459.36 270.153763 
L 461.8 270.153763 
" style="fill:none;stroke:#2b65ec;stroke-linecap:round;stroke-opacity:0.6;stroke-width:2;"/>
    <defs>
     <path d="M 0 3.25 
C 0.86191 3.25 1.688635 2.907559 2.298097 2.298097 
C 2.907559 1.688635 3.25 0.86191 3.25 0 
C 3.25 -0.86191 2.907559 -1.688635 2.298097 -2.298097 
C 1.688635 -2.907559 0.86191 -3.25 0 -3.25 
C -0.86191 -3.25 -1.688635 -2.907559 -2.298097 -2.298097 
C -2.907559 -1.688635 -3.25 -0.86191 -3.25 0 
C -3.25 0.86191 -2.907559 1.688635 -2.298097 2.298097 
C -1.688635 2.907559 -0.86191 3.25 0 3.25 
z
" id="mcbde1ffcba" style="stroke:#2b65ec;stroke-opacity:0.6;"/>
    </defs>
    <g clip-path="url(#pda2c3c4ccf)">
     <use style="fill:#2b65ec;fill-opacity:0.6;stroke:#2b65ec;stroke-opacity:0.6;" x="113.76" xlink:href="#mcbde1ffcba" y="176.705697"/>
     <use style="fill:#2b65ec;fill-opacity:0.6;stroke:#2b65ec;stroke-opacity:0.6;" x="135.36" xlink:href="#mcbde1ffcba" y="191.460655"/>
     <use style="fill:#2b65ec;fill-opacity:0.6;stroke:#2b65ec;stroke-opacity:0.6;" x="156.96" xlink:href="#mcbde1ffcba" y="240.643847"/>
     <use style="fill:#2b65ec;fill-opacity:0.6;stroke:#2b65ec;stroke-opacity:0.6;" x="178.56" xlink:href="#mcbde1ffcba" y="245.562167"/>
     <use style="fill:#2b65ec;fill-opacity:0.6;stroke:#2b65ec;stroke-opacity:0.6;" x="200.16" xlink:href="#mcbde1ffcba" y="225.88889"/>
     <use style="fill:#2b65ec;fill-opacity:0.6;stroke:#2b65ec;stroke-opacity:0.6;" x="221.76" xlink:href="#mcbde1ffcba" y="250.480486"/>
     <use style="fill:#2b65ec;fill-opacity:0.6;stroke:#2b65ec;stroke-opacity:0.6;" x="243.36" xlink:href="#mcbde1ffcba" y="265.235443"/>
     <use style="fill:#2b65ec;fill-opacity:0.6;stroke:#2b65ec;stroke-opacity:0.6;" x="264.96" xlink:href="#mcbde1ffcba" y="255.398805"/>
     <use style="fill:#2b65ec;fill-opacity:0.6;stroke:#2b65ec;stroke-opacity:0.6;" x="286.56" xlink:href="#mcbde1ffcba" y="265.235443"/>
     <use style="fill:#2b65ec;fill-opacity:0.6;stroke:#2b65ec;stroke-opacity:0.6;" x="308.16" xlink:href="#mcbde1ffcba" y="270.153763"/>
     <use style="fill:#2b65ec;fill-opacity:0.6;stroke:#2b65ec;stroke-opacity:0.6;" x="329.76" xlink:href="#mcbde1ffcba" y="255.398805"/>
     <use style="fill:#2b65ec;fill-opacity:0.6;stroke:#2b65ec;stroke-opacity:0.6;" x="351.36" xlink:href="#mcbde1ffcba" y="265.235443"/>
     <use style="fill:#2b65ec;fill-opacity:0.6;stroke:#2b65ec;stroke-opacity:0.6;" x="372.96" xlink:href="#mcbde1ffcba" y="270.153763"/>
     <use style="fill:#2b65ec;fill-opacity:0.6;stroke:#2b65ec;stroke-opacity:0.6;" x="394.56" xlink:href="#mcbde1ffcba" y="265.235443"/>
     <use style="fill:#2b65ec;fill-opacity:0.6;stroke:#2b65ec;stroke-opacity:0.6;" x="416.16" xlink:href="#mcbde1ffcba" y="250.480486"/>
     <use style="fill:#2b65ec;fill-opacity:0.6;stroke:#2b65ec;stroke-opacity:0.6;" x="437.76" xlink:href="#mcbde1ffcba" y="270.153763"/>
     <use style="fill:#2b65ec;fill-opacity:0.6;stroke:#2b65ec;stroke-opacity:0.6;" x="459.36" xlink:href="#mcbde1ffcba" y="270.153763"/>
     <use style="fill:#2b65ec;fill-opacity:0.6;stroke:#2b65ec;stroke-opacity:0.6;" x="480.96" xlink:href="#mcbde1ffcba" y="270.153763"/>
     <use style="fill:#2b65ec;fill-opacity:0.6;stroke:#2b65ec;stroke-opacity:0.6;" x="502.56" xlink:href="#mcbde1ffcba" y="270.153763"/>
     <use style="fill:#2b65ec;fill-opacity:0.6;stroke:#2b65ec;stroke-opacity:0.6;" x="524.16" xlink:href="#mcbde1ffcba" y="270.153763"/>
     <use style="fill:#2b65ec;fill-opacity:0.6;stroke:#2b65ec;stroke-opacity:0.6;" x="545.76" xlink:href="#mcbde1ffcba" y="270.153763"/>
    </g>
   </g>
   <g id="patch_3">
    <path d="M 92.16 276.48 
L 92.16 27.648 
" style="fill:none;stroke:#262626;stroke-linecap:square;stroke-linejoin:miter;stroke-width:0.8;"/>
   </g>
   <g id="patch_4">
    <path d="M 92.16 276.48 
L 437.76 276.48 
" style="fill:none;stroke:#262626;stroke-linecap:square;stroke-linejoin:miter;stroke-width:0.8;"/>
   </g>
   <g id="text_11">
    <text style="fill:#262626;font-family:DejaVu Sans;font-size:20px;font-style:normal;font-weight:bold;text-anchor:middle;" transform="rotate(-0, 264.96, 21.648)" x="264.96" y="21.648">VD N length</text>
   </g>
   <g id="legend_1">
    <g id="patch_5">
     <path d="M 343.992 152.064 
L 474.463875 152.064 
Q 477.463875 152.064 477.463875 149.064 
L 477.463875 84.512437 
Q 477.463875 81.512437 474.463875 81.512437 
L 343.992 81.512437 
Q 340.992 81.512437 340.992 84.512437 
L 340.992 149.064 
Q 340.992 152.064 343.992 152.064 
z
" style="fill:#ffffff;opacity:0.8;stroke:#cccccc;stroke-linejoin:miter;"/>
    </g>
    <g id="LineCollection_4">
     <path d="M 361.992 101.160094 
L 361.992 86.160094 
" style="fill:none;stroke:#006600;stroke-opacity:0.6;stroke-width:5;"/>
    </g>
    <g id="line2d_12">
     <path d="M 346.992 93.660094 
L 376.992 93.660094 
" style="fill:none;stroke:#006600;stroke-linecap:round;stroke-opacity:0.6;stroke-width:5;"/>
    </g>
    <g id="line2d_13">
     <g>
      <use style="fill:#006600;fill-opacity:0.6;stroke:#006600;stroke-opacity:0.6;" x="361.992" xlink:href="#m13c9ae4158" y="93.660094"/>
     </g>
    </g>
    <g id="text_12">
     <text style="fill:#262626;font-family:DejaVu Sans;font-size:15px;font-style:normal;font-weight:normal;text-anchor:start;" transform="rotate(-0, 388.992, 98.910094)" x="388.992" y="98.910094">sw</text>
    </g>
    <g id="LineCollection_5">
     <path d="M 361.992 123.177281 
L 361.992 108.177281 
" style="fill:none;stroke:#990012;stroke-opacity:0.6;stroke-width:3;"/>
    </g>
    <g id="line2d_14">
     <path d="M 346.992 115.677281 
L 376.992 115.677281 
" style="fill:none;stroke:#990012;stroke-linecap:round;stroke-opacity:0.6;stroke-width:3;"/>
    </g>
    <g id="line2d_15">
     <g>
      <use style="fill:#990012;fill-opacity:0.6;stroke:#990012;stroke-opacity:0.6;" x="361.992" xlink:href="#m6065b26900" y="115.677281"/>
     </g>
    </g>
    <g id="text_13">
     <text style="fill:#262626;font-family:DejaVu Sans;font-size:15px;font-style:normal;font-weight:normal;text-anchor:start;" transform="rotate(-0, 388.992, 120.927281)" x="388.992" y="120.927281">hmm</text>
    </g>
    <g id="LineCollection_6">
     <path d="M 361.992 145.194469 
L 361.992 130.194469 
" style="fill:none;stroke:#2b65ec;stroke-opacity:0.6;stroke-width:2;"/>
    </g>
    <g id="line2d_16">
     <path d="M 346.992 137.694469 
L 376.992 137.694469 
" style="fill:none;stroke:#2b65ec;stroke-linecap:round;stroke-opacity:0.6;stroke-width:2;"/>
    </g>
    <g id="line2d_17">
     <g>
      <use style="fill:#2b65ec;fill-opacity:0.6;stroke:#2b65ec;stroke-opacity:0.6;" x="361.992" xlink:href="#mcbde1ffcba" y="137.694469"/>
     </g>
    </g>
    <g id="text_14">
     <text style="fill:#262626;font-family:DejaVu Sans;font-size:15px;font-style:normal;font-weight:normal;text-anchor:start;" transform="rotate(-0, 388.992, 142.944469)" x="388.992" y="142.944469">multi-hmm</text>
    </g>
   </g>
  </g>
 </g>
 <defs>
  <clipPath id="pda2c3c4ccf">
   <rect height="248.832" width="345.6" x="92.16" y="27.648"/>
  </clipPath>
 </defs>
</svg>
