<?xml version="1.0" encoding="utf-8" standalone="no"?>
<!DOCTYPE svg PUBLIC "-//W3C//DTD SVG 1.1//EN"
  "http://www.w3.org/Graphics/SVG/1.1/DTD/svg11.dtd">
<!-- Created with matplotlib (http://matplotlib.org/) -->
<svg height="345.6pt" version="1.1" viewBox="0 0 460.8 345.6" width="460.8pt" xmlns="http://www.w3.org/2000/svg" xmlns:xlink="http://www.w3.org/1999/xlink">
 <defs>
  <style type="text/css">
*{stroke-linecap:butt;stroke-linejoin:round;}
  </style>
 </defs>
 <g id="figure_1">
  <g id="patch_1">
   <path d="M 0 345.6 
L 460.8 345.6 
L 460.8 0 
L 0 0 
z
" style="fill:#ffffff;"/>
  </g>
  <g id="axes_1">
   <g id="patch_2">
    <path d="M 59.509375 281.133594 
L 422.394563 281.133594 
L 422.394563 39.232031 
L 59.509375 39.232031 
z
" style="fill:#ffffff;"/>
   </g>
   <g id="matplotlib.axis_1">
    <g id="xtick_1">
     <g id="line2d_1">
      <defs>
       <path d="M 0 0 
L 0 3.5 
" id="m6fb5883072" style="stroke:#262626;stroke-width:0.8;"/>
      </defs>
      <g>
       <use style="fill:#262626;stroke:#262626;stroke-width:0.8;" x="59.509375" xlink:href="#m6fb5883072" y="281.133594"/>
      </g>
     </g>
     <g id="text_1">
      <text style="fill:#262626;font-family:Lato;font-size:15px;font-style:normal;font-weight:600;text-anchor:middle;" transform="rotate(-0, 59.509375, 299.278125)" x="59.509375" y="299.278125">0</text>
     </g>
    </g>
    <g id="xtick_2">
     <g id="line2d_2">
      <g>
       <use style="fill:#262626;stroke:#262626;stroke-width:0.8;" x="131.330007" xlink:href="#m6fb5883072" y="281.133594"/>
      </g>
     </g>
     <g id="text_2">
      <text style="fill:#262626;font-family:Lato;font-size:15px;font-style:normal;font-weight:600;text-anchor:middle;" transform="rotate(-0, 131.330007, 299.278125)" x="131.330007" y="299.278125">2</text>
     </g>
    </g>
    <g id="xtick_3">
     <g id="line2d_3">
      <g>
       <use style="fill:#262626;stroke:#262626;stroke-width:0.8;" x="203.15064" xlink:href="#m6fb5883072" y="281.133594"/>
      </g>
     </g>
     <g id="text_3">
      <text style="fill:#262626;font-family:Lato;font-size:15px;font-style:normal;font-weight:600;text-anchor:middle;" transform="rotate(-0, 203.15064, 299.278125)" x="203.15064" y="299.278125">4</text>
     </g>
    </g>
    <g id="xtick_4">
     <g id="line2d_4">
      <g>
       <use style="fill:#262626;stroke:#262626;stroke-width:0.8;" x="274.971272" xlink:href="#m6fb5883072" y="281.133594"/>
      </g>
     </g>
     <g id="text_4">
      <text style="fill:#262626;font-family:Lato;font-size:15px;font-style:normal;font-weight:600;text-anchor:middle;" transform="rotate(-0, 274.971272, 299.278125)" x="274.971272" y="299.278125">6</text>
     </g>
    </g>
    <g id="xtick_5">
     <g id="line2d_5">
      <g>
       <use style="fill:#262626;stroke:#262626;stroke-width:0.8;" x="346.791904" xlink:href="#m6fb5883072" y="281.133594"/>
      </g>
     </g>
     <g id="text_5">
      <text style="fill:#262626;font-family:Lato;font-size:15px;font-style:normal;font-weight:600;text-anchor:middle;" transform="rotate(-0, 346.791904, 299.278125)" x="346.791904" y="299.278125">8</text>
     </g>
    </g>
    <g id="xtick_6">
     <g id="line2d_6">
      <g>
       <use style="fill:#262626;stroke:#262626;stroke-width:0.8;" x="418.612536" xlink:href="#m6fb5883072" y="281.133594"/>
      </g>
     </g>
     <g id="text_6">
      <text style="fill:#262626;font-family:Lato;font-size:15px;font-style:normal;font-weight:600;text-anchor:middle;" transform="rotate(-0, 418.612536, 299.278125)" x="418.612536" y="299.278125">10</text>
     </g>
    </g>
    <g id="text_7">
     <text style="fill:#262626;font-family:Lato;font-size:20px;font-style:normal;font-weight:600;text-anchor:middle;" transform="rotate(-0, 240.951969, 320.65)" x="240.951969" y="320.65">AA lb ratio</text>
    </g>
   </g>
   <g id="matplotlib.axis_2">
    <g id="ytick_1">
     <g id="line2d_7">
      <defs>
       <path d="M 0 0 
L -3.5 0 
" id="m9dfd6c63de" style="stroke:#262626;stroke-width:0.8;"/>
      </defs>
      <g>
       <use style="fill:#262626;stroke:#262626;stroke-width:0.8;" x="59.509375" xlink:href="#m9dfd6c63de" y="281.133594"/>
      </g>
     </g>
     <g id="text_8">
      <text style="fill:#262626;font-family:Lato;font-size:15px;font-style:normal;font-weight:600;text-anchor:end;" transform="rotate(-0, 52.509375, 286.705859)" x="52.509375" y="286.705859">0</text>
     </g>
    </g>
    <g id="ytick_2">
     <g id="line2d_8">
      <g>
       <use style="fill:#262626;stroke:#262626;stroke-width:0.8;" x="59.509375" xlink:href="#m9dfd6c63de" y="221.033827"/>
      </g>
     </g>
     <g id="text_9">
      <text style="fill:#262626;font-family:Lato;font-size:15px;font-style:normal;font-weight:600;text-anchor:end;" transform="rotate(-0, 52.509375, 226.606092)" x="52.509375" y="226.606092">2</text>
     </g>
    </g>
    <g id="ytick_3">
     <g id="line2d_9">
      <g>
       <use style="fill:#262626;stroke:#262626;stroke-width:0.8;" x="59.509375" xlink:href="#m9dfd6c63de" y="160.93406"/>
      </g>
     </g>
     <g id="text_10">
      <text style="fill:#262626;font-family:Lato;font-size:15px;font-style:normal;font-weight:600;text-anchor:end;" transform="rotate(-0, 52.509375, 166.506325)" x="52.509375" y="166.506325">4</text>
     </g>
    </g>
    <g id="ytick_4">
     <g id="line2d_10">
      <g>
       <use style="fill:#262626;stroke:#262626;stroke-width:0.8;" x="59.509375" xlink:href="#m9dfd6c63de" y="100.834293"/>
      </g>
     </g>
     <g id="text_11">
      <text style="fill:#262626;font-family:Lato;font-size:15px;font-style:normal;font-weight:600;text-anchor:end;" transform="rotate(-0, 52.509375, 106.406558)" x="52.509375" y="106.406558">6</text>
     </g>
    </g>
    <g id="ytick_5">
     <g id="line2d_11">
      <g>
       <use style="fill:#262626;stroke:#262626;stroke-width:0.8;" x="59.509375" xlink:href="#m9dfd6c63de" y="40.734525"/>
      </g>
     </g>
     <g id="text_12">
      <text style="fill:#262626;font-family:Lato;font-size:15px;font-style:normal;font-weight:600;text-anchor:end;" transform="rotate(-0, 52.509375, 46.306791)" x="52.509375" y="46.306791">8</text>
     </g>
    </g>
    <g id="text_13">
     <text style="fill:#262626;font-family:Lato;font-size:20px;font-style:normal;font-weight:600;text-anchor:middle;" transform="rotate(-90, 36.459375, 160.182813)" x="36.459375" y="160.182813">counts</text>
    </g>
   </g>
   <g id="LineCollection_1">
    <path clip-path="url(#p40237f6fa2)" d="M 65.557461 221.033827 
L 65.557461 100.834293 
" style="fill:none;stroke:#808080;stroke-opacity:0.7;stroke-width:5;"/>
    <path clip-path="url(#p40237f6fa2)" d="M 77.653634 281.133594 
L 77.653634 281.133594 
" style="fill:none;stroke:#808080;stroke-opacity:0.7;stroke-width:5;"/>
    <path clip-path="url(#p40237f6fa2)" d="M 89.749807 281.133594 
L 89.749807 221.033827 
" style="fill:none;stroke:#808080;stroke-opacity:0.7;stroke-width:5;"/>
    <path clip-path="url(#p40237f6fa2)" d="M 101.84598 281.133594 
L 101.84598 281.133594 
" style="fill:none;stroke:#808080;stroke-opacity:0.7;stroke-width:5;"/>
    <path clip-path="url(#p40237f6fa2)" d="M 113.942153 281.133594 
L 113.942153 221.033827 
" style="fill:none;stroke:#808080;stroke-opacity:0.7;stroke-width:5;"/>
    <path clip-path="url(#p40237f6fa2)" d="M 126.038326 281.133594 
L 126.038326 221.033827 
" style="fill:none;stroke:#808080;stroke-opacity:0.7;stroke-width:5;"/>
    <path clip-path="url(#p40237f6fa2)" d="M 138.134499 263.53078 
L 138.134499 178.536874 
" style="fill:none;stroke:#808080;stroke-opacity:0.7;stroke-width:5;"/>
    <path clip-path="url(#p40237f6fa2)" d="M 150.230672 281.133594 
L 150.230672 281.133594 
" style="fill:none;stroke:#808080;stroke-opacity:0.7;stroke-width:5;"/>
    <path clip-path="url(#p40237f6fa2)" d="M 162.326845 281.133594 
L 162.326845 281.133594 
" style="fill:none;stroke:#808080;stroke-opacity:0.7;stroke-width:5;"/>
    <path clip-path="url(#p40237f6fa2)" d="M 174.423018 281.133594 
L 174.423018 281.133594 
" style="fill:none;stroke:#808080;stroke-opacity:0.7;stroke-width:5;"/>
    <path clip-path="url(#p40237f6fa2)" d="M 186.519191 281.133594 
L 186.519191 281.133594 
" style="fill:none;stroke:#808080;stroke-opacity:0.7;stroke-width:5;"/>
    <path clip-path="url(#p40237f6fa2)" d="M 198.615364 281.133594 
L 198.615364 281.133594 
" style="fill:none;stroke:#808080;stroke-opacity:0.7;stroke-width:5;"/>
    <path clip-path="url(#p40237f6fa2)" d="M 210.711536 281.133594 
L 210.711536 221.033827 
" style="fill:none;stroke:#808080;stroke-opacity:0.7;stroke-width:5;"/>
    <path clip-path="url(#p40237f6fa2)" d="M 222.807709 281.133594 
L 222.807709 281.133594 
" style="fill:none;stroke:#808080;stroke-opacity:0.7;stroke-width:5;"/>
    <path clip-path="url(#p40237f6fa2)" d="M 234.903882 281.133594 
L 234.903882 281.133594 
" style="fill:none;stroke:#808080;stroke-opacity:0.7;stroke-width:5;"/>
    <path clip-path="url(#p40237f6fa2)" d="M 247.000055 281.133594 
L 247.000055 221.033827 
" style="fill:none;stroke:#808080;stroke-opacity:0.7;stroke-width:5;"/>
    <path clip-path="url(#p40237f6fa2)" d="M 259.096228 281.133594 
L 259.096228 281.133594 
" style="fill:none;stroke:#808080;stroke-opacity:0.7;stroke-width:5;"/>
    <path clip-path="url(#p40237f6fa2)" d="M 271.192401 281.133594 
L 271.192401 221.033827 
" style="fill:none;stroke:#808080;stroke-opacity:0.7;stroke-width:5;"/>
    <path clip-path="url(#p40237f6fa2)" d="M 283.288574 281.133594 
L 283.288574 281.133594 
" style="fill:none;stroke:#808080;stroke-opacity:0.7;stroke-width:5;"/>
    <path clip-path="url(#p40237f6fa2)" d="M 295.384747 281.133594 
L 295.384747 281.133594 
" style="fill:none;stroke:#808080;stroke-opacity:0.7;stroke-width:5;"/>
    <path clip-path="url(#p40237f6fa2)" d="M 307.48092 281.133594 
L 307.48092 281.133594 
" style="fill:none;stroke:#808080;stroke-opacity:0.7;stroke-width:5;"/>
    <path clip-path="url(#p40237f6fa2)" d="M 319.577093 281.133594 
L 319.577093 281.133594 
" style="fill:none;stroke:#808080;stroke-opacity:0.7;stroke-width:5;"/>
    <path clip-path="url(#p40237f6fa2)" d="M 331.673266 281.133594 
L 331.673266 281.133594 
" style="fill:none;stroke:#808080;stroke-opacity:0.7;stroke-width:5;"/>
    <path clip-path="url(#p40237f6fa2)" d="M 343.769439 281.133594 
L 343.769439 281.133594 
" style="fill:none;stroke:#808080;stroke-opacity:0.7;stroke-width:5;"/>
    <path clip-path="url(#p40237f6fa2)" d="M 355.865611 281.133594 
L 355.865611 281.133594 
" style="fill:none;stroke:#808080;stroke-opacity:0.7;stroke-width:5;"/>
    <path clip-path="url(#p40237f6fa2)" d="M 367.961784 281.133594 
L 367.961784 281.133594 
" style="fill:none;stroke:#808080;stroke-opacity:0.7;stroke-width:5;"/>
    <path clip-path="url(#p40237f6fa2)" d="M 380.057957 281.133594 
L 380.057957 281.133594 
" style="fill:none;stroke:#808080;stroke-opacity:0.7;stroke-width:5;"/>
    <path clip-path="url(#p40237f6fa2)" d="M 392.15413 281.133594 
L 392.15413 281.133594 
" style="fill:none;stroke:#808080;stroke-opacity:0.7;stroke-width:5;"/>
    <path clip-path="url(#p40237f6fa2)" d="M 404.250303 281.133594 
L 404.250303 281.133594 
" style="fill:none;stroke:#808080;stroke-opacity:0.7;stroke-width:5;"/>
    <path clip-path="url(#p40237f6fa2)" d="M 416.346476 281.133594 
L 416.346476 281.133594 
" style="fill:none;stroke:#808080;stroke-opacity:0.7;stroke-width:5;"/>
   </g>
   <g id="LineCollection_2">
    <path clip-path="url(#p40237f6fa2)" d="M 65.557461 281.133594 
L 65.557461 281.133594 
" style="fill:none;stroke:#ff0000;stroke-opacity:0.7;stroke-width:3;"/>
    <path clip-path="url(#p40237f6fa2)" d="M 77.653634 281.133594 
L 77.653634 221.033827 
" style="fill:none;stroke:#ff0000;stroke-opacity:0.7;stroke-width:3;"/>
    <path clip-path="url(#p40237f6fa2)" d="M 89.749807 263.53078 
L 89.749807 178.536874 
" style="fill:none;stroke:#ff0000;stroke-opacity:0.7;stroke-width:3;"/>
    <path clip-path="url(#p40237f6fa2)" d="M 101.84598 281.133594 
L 101.84598 281.133594 
" style="fill:none;stroke:#ff0000;stroke-opacity:0.7;stroke-width:3;"/>
    <path clip-path="url(#p40237f6fa2)" d="M 113.942153 281.133594 
L 113.942153 221.033827 
" style="fill:none;stroke:#ff0000;stroke-opacity:0.7;stroke-width:3;"/>
    <path clip-path="url(#p40237f6fa2)" d="M 126.038326 150.288928 
L 126.038326 -1 
" style="fill:none;stroke:#ff0000;stroke-opacity:0.7;stroke-width:3;"/>
    <path clip-path="url(#p40237f6fa2)" d="M 138.134499 263.53078 
L 138.134499 178.536874 
" style="fill:none;stroke:#ff0000;stroke-opacity:0.7;stroke-width:3;"/>
    <path clip-path="url(#p40237f6fa2)" d="M 150.230672 281.133594 
L 150.230672 281.133594 
" style="fill:none;stroke:#ff0000;stroke-opacity:0.7;stroke-width:3;"/>
    <path clip-path="url(#p40237f6fa2)" d="M 162.326845 263.53078 
L 162.326845 178.536874 
" style="fill:none;stroke:#ff0000;stroke-opacity:0.7;stroke-width:3;"/>
    <path clip-path="url(#p40237f6fa2)" d="M 174.423018 281.133594 
L 174.423018 221.033827 
" style="fill:none;stroke:#ff0000;stroke-opacity:0.7;stroke-width:3;"/>
    <path clip-path="url(#p40237f6fa2)" d="M 186.519191 281.133594 
L 186.519191 281.133594 
" style="fill:none;stroke:#ff0000;stroke-opacity:0.7;stroke-width:3;"/>
    <path clip-path="url(#p40237f6fa2)" d="M 198.615364 281.133594 
L 198.615364 221.033827 
" style="fill:none;stroke:#ff0000;stroke-opacity:0.7;stroke-width:3;"/>
    <path clip-path="url(#p40237f6fa2)" d="M 210.711536 281.133594 
L 210.711536 221.033827 
" style="fill:none;stroke:#ff0000;stroke-opacity:0.7;stroke-width:3;"/>
    <path clip-path="url(#p40237f6fa2)" d="M 222.807709 281.133594 
L 222.807709 281.133594 
" style="fill:none;stroke:#ff0000;stroke-opacity:0.7;stroke-width:3;"/>
    <path clip-path="url(#p40237f6fa2)" d="M 234.903882 281.133594 
L 234.903882 281.133594 
" style="fill:none;stroke:#ff0000;stroke-opacity:0.7;stroke-width:3;"/>
    <path clip-path="url(#p40237f6fa2)" d="M 247.000055 281.133594 
L 247.000055 281.133594 
" style="fill:none;stroke:#ff0000;stroke-opacity:0.7;stroke-width:3;"/>
    <path clip-path="url(#p40237f6fa2)" d="M 259.096228 281.133594 
L 259.096228 281.133594 
" style="fill:none;stroke:#ff0000;stroke-opacity:0.7;stroke-width:3;"/>
    <path clip-path="url(#p40237f6fa2)" d="M 271.192401 281.133594 
L 271.192401 281.133594 
" style="fill:none;stroke:#ff0000;stroke-opacity:0.7;stroke-width:3;"/>
    <path clip-path="url(#p40237f6fa2)" d="M 283.288574 281.133594 
L 283.288574 281.133594 
" style="fill:none;stroke:#ff0000;stroke-opacity:0.7;stroke-width:3;"/>
    <path clip-path="url(#p40237f6fa2)" d="M 295.384747 281.133594 
L 295.384747 281.133594 
" style="fill:none;stroke:#ff0000;stroke-opacity:0.7;stroke-width:3;"/>
    <path clip-path="url(#p40237f6fa2)" d="M 307.48092 281.133594 
L 307.48092 281.133594 
" style="fill:none;stroke:#ff0000;stroke-opacity:0.7;stroke-width:3;"/>
    <path clip-path="url(#p40237f6fa2)" d="M 319.577093 281.133594 
L 319.577093 281.133594 
" style="fill:none;stroke:#ff0000;stroke-opacity:0.7;stroke-width:3;"/>
    <path clip-path="url(#p40237f6fa2)" d="M 331.673266 281.133594 
L 331.673266 281.133594 
" style="fill:none;stroke:#ff0000;stroke-opacity:0.7;stroke-width:3;"/>
    <path clip-path="url(#p40237f6fa2)" d="M 343.769439 281.133594 
L 343.769439 281.133594 
" style="fill:none;stroke:#ff0000;stroke-opacity:0.7;stroke-width:3;"/>
    <path clip-path="url(#p40237f6fa2)" d="M 355.865611 281.133594 
L 355.865611 281.133594 
" style="fill:none;stroke:#ff0000;stroke-opacity:0.7;stroke-width:3;"/>
    <path clip-path="url(#p40237f6fa2)" d="M 367.961784 281.133594 
L 367.961784 281.133594 
" style="fill:none;stroke:#ff0000;stroke-opacity:0.7;stroke-width:3;"/>
    <path clip-path="url(#p40237f6fa2)" d="M 380.057957 281.133594 
L 380.057957 281.133594 
" style="fill:none;stroke:#ff0000;stroke-opacity:0.7;stroke-width:3;"/>
    <path clip-path="url(#p40237f6fa2)" d="M 392.15413 281.133594 
L 392.15413 281.133594 
" style="fill:none;stroke:#ff0000;stroke-opacity:0.7;stroke-width:3;"/>
    <path clip-path="url(#p40237f6fa2)" d="M 404.250303 281.133594 
L 404.250303 281.133594 
" style="fill:none;stroke:#ff0000;stroke-opacity:0.7;stroke-width:3;"/>
    <path clip-path="url(#p40237f6fa2)" d="M 416.346476 281.133594 
L 416.346476 221.033827 
" style="fill:none;stroke:#ff0000;stroke-opacity:0.7;stroke-width:3;"/>
   </g>
   <g id="LineCollection_3">
    <path clip-path="url(#p40237f6fa2)" d="M 65.557461 281.133594 
L 65.557461 281.133594 
" style="fill:none;stroke:#0000ff;stroke-opacity:0.7;stroke-width:2;"/>
    <path clip-path="url(#p40237f6fa2)" d="M 77.653634 281.133594 
L 77.653634 281.133594 
" style="fill:none;stroke:#0000ff;stroke-opacity:0.7;stroke-width:2;"/>
    <path clip-path="url(#p40237f6fa2)" d="M 89.749807 281.133594 
L 89.749807 281.133594 
" style="fill:none;stroke:#0000ff;stroke-opacity:0.7;stroke-width:2;"/>
    <path clip-path="url(#p40237f6fa2)" d="M 101.84598 281.133594 
L 101.84598 281.133594 
" style="fill:none;stroke:#0000ff;stroke-opacity:0.7;stroke-width:2;"/>
    <path clip-path="url(#p40237f6fa2)" d="M 113.942153 281.133594 
L 113.942153 281.133594 
" style="fill:none;stroke:#0000ff;stroke-opacity:0.7;stroke-width:2;"/>
    <path clip-path="url(#p40237f6fa2)" d="M 126.038326 243.031868 
L 126.038326 138.936018 
" style="fill:none;stroke:#0000ff;stroke-opacity:0.7;stroke-width:2;"/>
    <path clip-path="url(#p40237f6fa2)" d="M 138.134499 281.133594 
L 138.134499 281.133594 
" style="fill:none;stroke:#0000ff;stroke-opacity:0.7;stroke-width:2;"/>
    <path clip-path="url(#p40237f6fa2)" d="M 150.230672 281.133594 
L 150.230672 281.133594 
" style="fill:none;stroke:#0000ff;stroke-opacity:0.7;stroke-width:2;"/>
    <path clip-path="url(#p40237f6fa2)" d="M 162.326845 281.133594 
L 162.326845 281.133594 
" style="fill:none;stroke:#0000ff;stroke-opacity:0.7;stroke-width:2;"/>
    <path clip-path="url(#p40237f6fa2)" d="M 174.423018 281.133594 
L 174.423018 281.133594 
" style="fill:none;stroke:#0000ff;stroke-opacity:0.7;stroke-width:2;"/>
    <path clip-path="url(#p40237f6fa2)" d="M 186.519191 281.133594 
L 186.519191 281.133594 
" style="fill:none;stroke:#0000ff;stroke-opacity:0.7;stroke-width:2;"/>
    <path clip-path="url(#p40237f6fa2)" d="M 198.615364 281.133594 
L 198.615364 281.133594 
" style="fill:none;stroke:#0000ff;stroke-opacity:0.7;stroke-width:2;"/>
    <path clip-path="url(#p40237f6fa2)" d="M 210.711536 281.133594 
L 210.711536 281.133594 
" style="fill:none;stroke:#0000ff;stroke-opacity:0.7;stroke-width:2;"/>
    <path clip-path="url(#p40237f6fa2)" d="M 222.807709 281.133594 
L 222.807709 281.133594 
" style="fill:none;stroke:#0000ff;stroke-opacity:0.7;stroke-width:2;"/>
    <path clip-path="url(#p40237f6fa2)" d="M 234.903882 281.133594 
L 234.903882 281.133594 
" style="fill:none;stroke:#0000ff;stroke-opacity:0.7;stroke-width:2;"/>
    <path clip-path="url(#p40237f6fa2)" d="M 247.000055 281.133594 
L 247.000055 281.133594 
" style="fill:none;stroke:#0000ff;stroke-opacity:0.7;stroke-width:2;"/>
    <path clip-path="url(#p40237f6fa2)" d="M 259.096228 281.133594 
L 259.096228 221.033827 
" style="fill:none;stroke:#0000ff;stroke-opacity:0.7;stroke-width:2;"/>
    <path clip-path="url(#p40237f6fa2)" d="M 271.192401 281.133594 
L 271.192401 281.133594 
" style="fill:none;stroke:#0000ff;stroke-opacity:0.7;stroke-width:2;"/>
    <path clip-path="url(#p40237f6fa2)" d="M 283.288574 281.133594 
L 283.288574 281.133594 
" style="fill:none;stroke:#0000ff;stroke-opacity:0.7;stroke-width:2;"/>
    <path clip-path="url(#p40237f6fa2)" d="M 295.384747 281.133594 
L 295.384747 281.133594 
" style="fill:none;stroke:#0000ff;stroke-opacity:0.7;stroke-width:2;"/>
    <path clip-path="url(#p40237f6fa2)" d="M 307.48092 281.133594 
L 307.48092 281.133594 
" style="fill:none;stroke:#0000ff;stroke-opacity:0.7;stroke-width:2;"/>
    <path clip-path="url(#p40237f6fa2)" d="M 319.577093 281.133594 
L 319.577093 281.133594 
" style="fill:none;stroke:#0000ff;stroke-opacity:0.7;stroke-width:2;"/>
    <path clip-path="url(#p40237f6fa2)" d="M 331.673266 281.133594 
L 331.673266 281.133594 
" style="fill:none;stroke:#0000ff;stroke-opacity:0.7;stroke-width:2;"/>
    <path clip-path="url(#p40237f6fa2)" d="M 343.769439 281.133594 
L 343.769439 281.133594 
" style="fill:none;stroke:#0000ff;stroke-opacity:0.7;stroke-width:2;"/>
    <path clip-path="url(#p40237f6fa2)" d="M 355.865611 281.133594 
L 355.865611 281.133594 
" style="fill:none;stroke:#0000ff;stroke-opacity:0.7;stroke-width:2;"/>
    <path clip-path="url(#p40237f6fa2)" d="M 367.961784 281.133594 
L 367.961784 281.133594 
" style="fill:none;stroke:#0000ff;stroke-opacity:0.7;stroke-width:2;"/>
    <path clip-path="url(#p40237f6fa2)" d="M 380.057957 281.133594 
L 380.057957 281.133594 
" style="fill:none;stroke:#0000ff;stroke-opacity:0.7;stroke-width:2;"/>
    <path clip-path="url(#p40237f6fa2)" d="M 392.15413 281.133594 
L 392.15413 281.133594 
" style="fill:none;stroke:#0000ff;stroke-opacity:0.7;stroke-width:2;"/>
    <path clip-path="url(#p40237f6fa2)" d="M 404.250303 281.133594 
L 404.250303 281.133594 
" style="fill:none;stroke:#0000ff;stroke-opacity:0.7;stroke-width:2;"/>
    <path clip-path="url(#p40237f6fa2)" d="M 416.346476 281.133594 
L 416.346476 281.133594 
" style="fill:none;stroke:#0000ff;stroke-opacity:0.7;stroke-width:2;"/>
   </g>
   <g id="line2d_12">
    <path clip-path="url(#p40237f6fa2)" d="M 65.557461 160.93406 
L 77.653634 281.133594 
L 89.749807 251.08371 
L 101.84598 281.133594 
L 113.942153 251.08371 
L 126.038326 251.08371 
L 138.134499 221.033827 
L 150.230672 281.133594 
L 162.326845 281.133594 
L 174.423018 281.133594 
L 186.519191 281.133594 
L 198.615364 281.133594 
L 210.711536 251.08371 
L 222.807709 281.133594 
L 234.903882 281.133594 
L 247.000055 251.08371 
L 259.096228 281.133594 
L 271.192401 251.08371 
L 283.288574 281.133594 
L 295.384747 281.133594 
L 307.48092 281.133594 
L 319.577093 281.133594 
L 331.673266 281.133594 
L 343.769439 281.133594 
L 355.865611 281.133594 
L 367.961784 281.133594 
L 380.057957 281.133594 
L 392.15413 281.133594 
L 404.250303 281.133594 
L 416.346476 281.133594 
" style="fill:none;stroke:#808080;stroke-linecap:round;stroke-opacity:0.7;stroke-width:5;"/>
    <defs>
     <path d="M 0 3.25 
C 0.86191 3.25 1.688635 2.907559 2.298097 2.298097 
C 2.907559 1.688635 3.25 0.86191 3.25 0 
C 3.25 -0.86191 2.907559 -1.688635 2.298097 -2.298097 
C 1.688635 -2.907559 0.86191 -3.25 0 -3.25 
C -0.86191 -3.25 -1.688635 -2.907559 -2.298097 -2.298097 
C -2.907559 -1.688635 -3.25 -0.86191 -3.25 0 
C -3.25 0.86191 -2.907559 1.688635 -2.298097 2.298097 
C -1.688635 2.907559 -0.86191 3.25 0 3.25 
z
" id="m93a62ed6ab" style="stroke:#808080;stroke-opacity:0.7;"/>
    </defs>
    <g clip-path="url(#p40237f6fa2)">
     <use style="fill:#808080;fill-opacity:0.7;stroke:#808080;stroke-opacity:0.7;" x="65.557461" xlink:href="#m93a62ed6ab" y="160.93406"/>
     <use style="fill:#808080;fill-opacity:0.7;stroke:#808080;stroke-opacity:0.7;" x="77.653634" xlink:href="#m93a62ed6ab" y="281.133594"/>
     <use style="fill:#808080;fill-opacity:0.7;stroke:#808080;stroke-opacity:0.7;" x="89.749807" xlink:href="#m93a62ed6ab" y="251.08371"/>
     <use style="fill:#808080;fill-opacity:0.7;stroke:#808080;stroke-opacity:0.7;" x="101.84598" xlink:href="#m93a62ed6ab" y="281.133594"/>
     <use style="fill:#808080;fill-opacity:0.7;stroke:#808080;stroke-opacity:0.7;" x="113.942153" xlink:href="#m93a62ed6ab" y="251.08371"/>
     <use style="fill:#808080;fill-opacity:0.7;stroke:#808080;stroke-opacity:0.7;" x="126.038326" xlink:href="#m93a62ed6ab" y="251.08371"/>
     <use style="fill:#808080;fill-opacity:0.7;stroke:#808080;stroke-opacity:0.7;" x="138.134499" xlink:href="#m93a62ed6ab" y="221.033827"/>
     <use style="fill:#808080;fill-opacity:0.7;stroke:#808080;stroke-opacity:0.7;" x="150.230672" xlink:href="#m93a62ed6ab" y="281.133594"/>
     <use style="fill:#808080;fill-opacity:0.7;stroke:#808080;stroke-opacity:0.7;" x="162.326845" xlink:href="#m93a62ed6ab" y="281.133594"/>
     <use style="fill:#808080;fill-opacity:0.7;stroke:#808080;stroke-opacity:0.7;" x="174.423018" xlink:href="#m93a62ed6ab" y="281.133594"/>
     <use style="fill:#808080;fill-opacity:0.7;stroke:#808080;stroke-opacity:0.7;" x="186.519191" xlink:href="#m93a62ed6ab" y="281.133594"/>
     <use style="fill:#808080;fill-opacity:0.7;stroke:#808080;stroke-opacity:0.7;" x="198.615364" xlink:href="#m93a62ed6ab" y="281.133594"/>
     <use style="fill:#808080;fill-opacity:0.7;stroke:#808080;stroke-opacity:0.7;" x="210.711536" xlink:href="#m93a62ed6ab" y="251.08371"/>
     <use style="fill:#808080;fill-opacity:0.7;stroke:#808080;stroke-opacity:0.7;" x="222.807709" xlink:href="#m93a62ed6ab" y="281.133594"/>
     <use style="fill:#808080;fill-opacity:0.7;stroke:#808080;stroke-opacity:0.7;" x="234.903882" xlink:href="#m93a62ed6ab" y="281.133594"/>
     <use style="fill:#808080;fill-opacity:0.7;stroke:#808080;stroke-opacity:0.7;" x="247.000055" xlink:href="#m93a62ed6ab" y="251.08371"/>
     <use style="fill:#808080;fill-opacity:0.7;stroke:#808080;stroke-opacity:0.7;" x="259.096228" xlink:href="#m93a62ed6ab" y="281.133594"/>
     <use style="fill:#808080;fill-opacity:0.7;stroke:#808080;stroke-opacity:0.7;" x="271.192401" xlink:href="#m93a62ed6ab" y="251.08371"/>
     <use style="fill:#808080;fill-opacity:0.7;stroke:#808080;stroke-opacity:0.7;" x="283.288574" xlink:href="#m93a62ed6ab" y="281.133594"/>
     <use style="fill:#808080;fill-opacity:0.7;stroke:#808080;stroke-opacity:0.7;" x="295.384747" xlink:href="#m93a62ed6ab" y="281.133594"/>
     <use style="fill:#808080;fill-opacity:0.7;stroke:#808080;stroke-opacity:0.7;" x="307.48092" xlink:href="#m93a62ed6ab" y="281.133594"/>
     <use style="fill:#808080;fill-opacity:0.7;stroke:#808080;stroke-opacity:0.7;" x="319.577093" xlink:href="#m93a62ed6ab" y="281.133594"/>
     <use style="fill:#808080;fill-opacity:0.7;stroke:#808080;stroke-opacity:0.7;" x="331.673266" xlink:href="#m93a62ed6ab" y="281.133594"/>
     <use style="fill:#808080;fill-opacity:0.7;stroke:#808080;stroke-opacity:0.7;" x="343.769439" xlink:href="#m93a62ed6ab" y="281.133594"/>
     <use style="fill:#808080;fill-opacity:0.7;stroke:#808080;stroke-opacity:0.7;" x="355.865611" xlink:href="#m93a62ed6ab" y="281.133594"/>
     <use style="fill:#808080;fill-opacity:0.7;stroke:#808080;stroke-opacity:0.7;" x="367.961784" xlink:href="#m93a62ed6ab" y="281.133594"/>
     <use style="fill:#808080;fill-opacity:0.7;stroke:#808080;stroke-opacity:0.7;" x="380.057957" xlink:href="#m93a62ed6ab" y="281.133594"/>
     <use style="fill:#808080;fill-opacity:0.7;stroke:#808080;stroke-opacity:0.7;" x="392.15413" xlink:href="#m93a62ed6ab" y="281.133594"/>
     <use style="fill:#808080;fill-opacity:0.7;stroke:#808080;stroke-opacity:0.7;" x="404.250303" xlink:href="#m93a62ed6ab" y="281.133594"/>
     <use style="fill:#808080;fill-opacity:0.7;stroke:#808080;stroke-opacity:0.7;" x="416.346476" xlink:href="#m93a62ed6ab" y="281.133594"/>
    </g>
   </g>
   <g id="line2d_13">
    <path clip-path="url(#p40237f6fa2)" d="M 65.557461 281.133594 
L 77.653634 251.08371 
L 89.749807 221.033827 
L 101.84598 281.133594 
L 113.942153 251.08371 
L 126.038326 70.784409 
L 138.134499 221.033827 
L 150.230672 281.133594 
L 162.326845 221.033827 
L 174.423018 251.08371 
L 186.519191 281.133594 
L 198.615364 251.08371 
L 210.711536 251.08371 
L 222.807709 281.133594 
L 234.903882 281.133594 
L 247.000055 281.133594 
L 259.096228 281.133594 
L 271.192401 281.133594 
L 283.288574 281.133594 
L 295.384747 281.133594 
L 307.48092 281.133594 
L 319.577093 281.133594 
L 331.673266 281.133594 
L 343.769439 281.133594 
L 355.865611 281.133594 
L 367.961784 281.133594 
L 380.057957 281.133594 
L 392.15413 281.133594 
L 404.250303 281.133594 
L 416.346476 251.08371 
" style="fill:none;stroke:#ff0000;stroke-linecap:round;stroke-opacity:0.7;stroke-width:3;"/>
    <defs>
     <path d="M 0 3.25 
C 0.86191 3.25 1.688635 2.907559 2.298097 2.298097 
C 2.907559 1.688635 3.25 0.86191 3.25 0 
C 3.25 -0.86191 2.907559 -1.688635 2.298097 -2.298097 
C 1.688635 -2.907559 0.86191 -3.25 0 -3.25 
C -0.86191 -3.25 -1.688635 -2.907559 -2.298097 -2.298097 
C -2.907559 -1.688635 -3.25 -0.86191 -3.25 0 
C -3.25 0.86191 -2.907559 1.688635 -2.298097 2.298097 
C -1.688635 2.907559 -0.86191 3.25 0 3.25 
z
" id="m8a58f2a37a" style="stroke:#ff0000;stroke-opacity:0.7;"/>
    </defs>
    <g clip-path="url(#p40237f6fa2)">
     <use style="fill:#ff0000;fill-opacity:0.7;stroke:#ff0000;stroke-opacity:0.7;" x="65.557461" xlink:href="#m8a58f2a37a" y="281.133594"/>
     <use style="fill:#ff0000;fill-opacity:0.7;stroke:#ff0000;stroke-opacity:0.7;" x="77.653634" xlink:href="#m8a58f2a37a" y="251.08371"/>
     <use style="fill:#ff0000;fill-opacity:0.7;stroke:#ff0000;stroke-opacity:0.7;" x="89.749807" xlink:href="#m8a58f2a37a" y="221.033827"/>
     <use style="fill:#ff0000;fill-opacity:0.7;stroke:#ff0000;stroke-opacity:0.7;" x="101.84598" xlink:href="#m8a58f2a37a" y="281.133594"/>
     <use style="fill:#ff0000;fill-opacity:0.7;stroke:#ff0000;stroke-opacity:0.7;" x="113.942153" xlink:href="#m8a58f2a37a" y="251.08371"/>
     <use style="fill:#ff0000;fill-opacity:0.7;stroke:#ff0000;stroke-opacity:0.7;" x="126.038326" xlink:href="#m8a58f2a37a" y="70.784409"/>
     <use style="fill:#ff0000;fill-opacity:0.7;stroke:#ff0000;stroke-opacity:0.7;" x="138.134499" xlink:href="#m8a58f2a37a" y="221.033827"/>
     <use style="fill:#ff0000;fill-opacity:0.7;stroke:#ff0000;stroke-opacity:0.7;" x="150.230672" xlink:href="#m8a58f2a37a" y="281.133594"/>
     <use style="fill:#ff0000;fill-opacity:0.7;stroke:#ff0000;stroke-opacity:0.7;" x="162.326845" xlink:href="#m8a58f2a37a" y="221.033827"/>
     <use style="fill:#ff0000;fill-opacity:0.7;stroke:#ff0000;stroke-opacity:0.7;" x="174.423018" xlink:href="#m8a58f2a37a" y="251.08371"/>
     <use style="fill:#ff0000;fill-opacity:0.7;stroke:#ff0000;stroke-opacity:0.7;" x="186.519191" xlink:href="#m8a58f2a37a" y="281.133594"/>
     <use style="fill:#ff0000;fill-opacity:0.7;stroke:#ff0000;stroke-opacity:0.7;" x="198.615364" xlink:href="#m8a58f2a37a" y="251.08371"/>
     <use style="fill:#ff0000;fill-opacity:0.7;stroke:#ff0000;stroke-opacity:0.7;" x="210.711536" xlink:href="#m8a58f2a37a" y="251.08371"/>
     <use style="fill:#ff0000;fill-opacity:0.7;stroke:#ff0000;stroke-opacity:0.7;" x="222.807709" xlink:href="#m8a58f2a37a" y="281.133594"/>
     <use style="fill:#ff0000;fill-opacity:0.7;stroke:#ff0000;stroke-opacity:0.7;" x="234.903882" xlink:href="#m8a58f2a37a" y="281.133594"/>
     <use style="fill:#ff0000;fill-opacity:0.7;stroke:#ff0000;stroke-opacity:0.7;" x="247.000055" xlink:href="#m8a58f2a37a" y="281.133594"/>
     <use style="fill:#ff0000;fill-opacity:0.7;stroke:#ff0000;stroke-opacity:0.7;" x="259.096228" xlink:href="#m8a58f2a37a" y="281.133594"/>
     <use style="fill:#ff0000;fill-opacity:0.7;stroke:#ff0000;stroke-opacity:0.7;" x="271.192401" xlink:href="#m8a58f2a37a" y="281.133594"/>
     <use style="fill:#ff0000;fill-opacity:0.7;stroke:#ff0000;stroke-opacity:0.7;" x="283.288574" xlink:href="#m8a58f2a37a" y="281.133594"/>
     <use style="fill:#ff0000;fill-opacity:0.7;stroke:#ff0000;stroke-opacity:0.7;" x="295.384747" xlink:href="#m8a58f2a37a" y="281.133594"/>
     <use style="fill:#ff0000;fill-opacity:0.7;stroke:#ff0000;stroke-opacity:0.7;" x="307.48092" xlink:href="#m8a58f2a37a" y="281.133594"/>
     <use style="fill:#ff0000;fill-opacity:0.7;stroke:#ff0000;stroke-opacity:0.7;" x="319.577093" xlink:href="#m8a58f2a37a" y="281.133594"/>
     <use style="fill:#ff0000;fill-opacity:0.7;stroke:#ff0000;stroke-opacity:0.7;" x="331.673266" xlink:href="#m8a58f2a37a" y="281.133594"/>
     <use style="fill:#ff0000;fill-opacity:0.7;stroke:#ff0000;stroke-opacity:0.7;" x="343.769439" xlink:href="#m8a58f2a37a" y="281.133594"/>
     <use style="fill:#ff0000;fill-opacity:0.7;stroke:#ff0000;stroke-opacity:0.7;" x="355.865611" xlink:href="#m8a58f2a37a" y="281.133594"/>
     <use style="fill:#ff0000;fill-opacity:0.7;stroke:#ff0000;stroke-opacity:0.7;" x="367.961784" xlink:href="#m8a58f2a37a" y="281.133594"/>
     <use style="fill:#ff0000;fill-opacity:0.7;stroke:#ff0000;stroke-opacity:0.7;" x="380.057957" xlink:href="#m8a58f2a37a" y="281.133594"/>
     <use style="fill:#ff0000;fill-opacity:0.7;stroke:#ff0000;stroke-opacity:0.7;" x="392.15413" xlink:href="#m8a58f2a37a" y="281.133594"/>
     <use style="fill:#ff0000;fill-opacity:0.7;stroke:#ff0000;stroke-opacity:0.7;" x="404.250303" xlink:href="#m8a58f2a37a" y="281.133594"/>
     <use style="fill:#ff0000;fill-opacity:0.7;stroke:#ff0000;stroke-opacity:0.7;" x="416.346476" xlink:href="#m8a58f2a37a" y="251.08371"/>
    </g>
   </g>
   <g id="line2d_14">
    <path clip-path="url(#p40237f6fa2)" d="M 65.557461 281.133594 
L 77.653634 281.133594 
L 89.749807 281.133594 
L 101.84598 281.133594 
L 113.942153 281.133594 
L 126.038326 190.983943 
L 138.134499 281.133594 
L 150.230672 281.133594 
L 162.326845 281.133594 
L 174.423018 281.133594 
L 186.519191 281.133594 
L 198.615364 281.133594 
L 210.711536 281.133594 
L 222.807709 281.133594 
L 234.903882 281.133594 
L 247.000055 281.133594 
L 259.096228 251.08371 
L 271.192401 281.133594 
L 283.288574 281.133594 
L 295.384747 281.133594 
L 307.48092 281.133594 
L 319.577093 281.133594 
L 331.673266 281.133594 
L 343.769439 281.133594 
L 355.865611 281.133594 
L 367.961784 281.133594 
L 380.057957 281.133594 
L 392.15413 281.133594 
L 404.250303 281.133594 
L 416.346476 281.133594 
" style="fill:none;stroke:#0000ff;stroke-linecap:round;stroke-opacity:0.7;stroke-width:2;"/>
    <defs>
     <path d="M 0 3.25 
C 0.86191 3.25 1.688635 2.907559 2.298097 2.298097 
C 2.907559 1.688635 3.25 0.86191 3.25 0 
C 3.25 -0.86191 2.907559 -1.688635 2.298097 -2.298097 
C 1.688635 -2.907559 0.86191 -3.25 0 -3.25 
C -0.86191 -3.25 -1.688635 -2.907559 -2.298097 -2.298097 
C -2.907559 -1.688635 -3.25 -0.86191 -3.25 0 
C -3.25 0.86191 -2.907559 1.688635 -2.298097 2.298097 
C -1.688635 2.907559 -0.86191 3.25 0 3.25 
z
" id="m9ff6ef312f" style="stroke:#0000ff;stroke-opacity:0.7;"/>
    </defs>
    <g clip-path="url(#p40237f6fa2)">
     <use style="fill:#0000ff;fill-opacity:0.7;stroke:#0000ff;stroke-opacity:0.7;" x="65.557461" xlink:href="#m9ff6ef312f" y="281.133594"/>
     <use style="fill:#0000ff;fill-opacity:0.7;stroke:#0000ff;stroke-opacity:0.7;" x="77.653634" xlink:href="#m9ff6ef312f" y="281.133594"/>
     <use style="fill:#0000ff;fill-opacity:0.7;stroke:#0000ff;stroke-opacity:0.7;" x="89.749807" xlink:href="#m9ff6ef312f" y="281.133594"/>
     <use style="fill:#0000ff;fill-opacity:0.7;stroke:#0000ff;stroke-opacity:0.7;" x="101.84598" xlink:href="#m9ff6ef312f" y="281.133594"/>
     <use style="fill:#0000ff;fill-opacity:0.7;stroke:#0000ff;stroke-opacity:0.7;" x="113.942153" xlink:href="#m9ff6ef312f" y="281.133594"/>
     <use style="fill:#0000ff;fill-opacity:0.7;stroke:#0000ff;stroke-opacity:0.7;" x="126.038326" xlink:href="#m9ff6ef312f" y="190.983943"/>
     <use style="fill:#0000ff;fill-opacity:0.7;stroke:#0000ff;stroke-opacity:0.7;" x="138.134499" xlink:href="#m9ff6ef312f" y="281.133594"/>
     <use style="fill:#0000ff;fill-opacity:0.7;stroke:#0000ff;stroke-opacity:0.7;" x="150.230672" xlink:href="#m9ff6ef312f" y="281.133594"/>
     <use style="fill:#0000ff;fill-opacity:0.7;stroke:#0000ff;stroke-opacity:0.7;" x="162.326845" xlink:href="#m9ff6ef312f" y="281.133594"/>
     <use style="fill:#0000ff;fill-opacity:0.7;stroke:#0000ff;stroke-opacity:0.7;" x="174.423018" xlink:href="#m9ff6ef312f" y="281.133594"/>
     <use style="fill:#0000ff;fill-opacity:0.7;stroke:#0000ff;stroke-opacity:0.7;" x="186.519191" xlink:href="#m9ff6ef312f" y="281.133594"/>
     <use style="fill:#0000ff;fill-opacity:0.7;stroke:#0000ff;stroke-opacity:0.7;" x="198.615364" xlink:href="#m9ff6ef312f" y="281.133594"/>
     <use style="fill:#0000ff;fill-opacity:0.7;stroke:#0000ff;stroke-opacity:0.7;" x="210.711536" xlink:href="#m9ff6ef312f" y="281.133594"/>
     <use style="fill:#0000ff;fill-opacity:0.7;stroke:#0000ff;stroke-opacity:0.7;" x="222.807709" xlink:href="#m9ff6ef312f" y="281.133594"/>
     <use style="fill:#0000ff;fill-opacity:0.7;stroke:#0000ff;stroke-opacity:0.7;" x="234.903882" xlink:href="#m9ff6ef312f" y="281.133594"/>
     <use style="fill:#0000ff;fill-opacity:0.7;stroke:#0000ff;stroke-opacity:0.7;" x="247.000055" xlink:href="#m9ff6ef312f" y="281.133594"/>
     <use style="fill:#0000ff;fill-opacity:0.7;stroke:#0000ff;stroke-opacity:0.7;" x="259.096228" xlink:href="#m9ff6ef312f" y="251.08371"/>
     <use style="fill:#0000ff;fill-opacity:0.7;stroke:#0000ff;stroke-opacity:0.7;" x="271.192401" xlink:href="#m9ff6ef312f" y="281.133594"/>
     <use style="fill:#0000ff;fill-opacity:0.7;stroke:#0000ff;stroke-opacity:0.7;" x="283.288574" xlink:href="#m9ff6ef312f" y="281.133594"/>
     <use style="fill:#0000ff;fill-opacity:0.7;stroke:#0000ff;stroke-opacity:0.7;" x="295.384747" xlink:href="#m9ff6ef312f" y="281.133594"/>
     <use style="fill:#0000ff;fill-opacity:0.7;stroke:#0000ff;stroke-opacity:0.7;" x="307.48092" xlink:href="#m9ff6ef312f" y="281.133594"/>
     <use style="fill:#0000ff;fill-opacity:0.7;stroke:#0000ff;stroke-opacity:0.7;" x="319.577093" xlink:href="#m9ff6ef312f" y="281.133594"/>
     <use style="fill:#0000ff;fill-opacity:0.7;stroke:#0000ff;stroke-opacity:0.7;" x="331.673266" xlink:href="#m9ff6ef312f" y="281.133594"/>
     <use style="fill:#0000ff;fill-opacity:0.7;stroke:#0000ff;stroke-opacity:0.7;" x="343.769439" xlink:href="#m9ff6ef312f" y="281.133594"/>
     <use style="fill:#0000ff;fill-opacity:0.7;stroke:#0000ff;stroke-opacity:0.7;" x="355.865611" xlink:href="#m9ff6ef312f" y="281.133594"/>
     <use style="fill:#0000ff;fill-opacity:0.7;stroke:#0000ff;stroke-opacity:0.7;" x="367.961784" xlink:href="#m9ff6ef312f" y="281.133594"/>
     <use style="fill:#0000ff;fill-opacity:0.7;stroke:#0000ff;stroke-opacity:0.7;" x="380.057957" xlink:href="#m9ff6ef312f" y="281.133594"/>
     <use style="fill:#0000ff;fill-opacity:0.7;stroke:#0000ff;stroke-opacity:0.7;" x="392.15413" xlink:href="#m9ff6ef312f" y="281.133594"/>
     <use style="fill:#0000ff;fill-opacity:0.7;stroke:#0000ff;stroke-opacity:0.7;" x="404.250303" xlink:href="#m9ff6ef312f" y="281.133594"/>
     <use style="fill:#0000ff;fill-opacity:0.7;stroke:#0000ff;stroke-opacity:0.7;" x="416.346476" xlink:href="#m9ff6ef312f" y="281.133594"/>
    </g>
   </g>
   <g id="patch_3">
    <path d="M 59.509375 281.133594 
L 59.509375 39.232031 
" style="fill:none;stroke:#262626;stroke-linecap:square;stroke-linejoin:miter;stroke-width:0.8;"/>
   </g>
   <g id="patch_4">
    <path d="M 59.509375 281.133594 
L 422.394563 281.133594 
" style="fill:none;stroke:#262626;stroke-linecap:square;stroke-linejoin:miter;stroke-width:0.8;"/>
   </g>
   <g id="text_14">
    <text style="fill:#262626;font-family:Lato;font-size:15px;font-style:normal;font-weight:bold;text-anchor:middle;" transform="rotate(-0, 240.951969, 33.232031)" x="240.951969" y="33.232031">AA lb ratio on true tree (cluster 0)</text>
   </g>
   <g id="legend_1">
    <g id="patch_5">
     <path d="M 323.78671 135.992656 
L 431.360147 135.992656 
Q 434.360147 135.992656 434.360147 132.992656 
L 434.360147 45.312188 
Q 434.360147 42.312188 431.360147 42.312188 
L 323.78671 42.312188 
Q 320.78671 42.312188 320.78671 45.312188 
L 320.78671 132.992656 
Q 320.78671 135.992656 323.78671 135.992656 
z
" style="fill:#ffffff;opacity:0.8;stroke:#cccccc;stroke-linejoin:miter;"/>
    </g>
    <g id="text_15">
     <text style="fill:#262626;font-family:Lato;font-size:20px;font-style:normal;font-weight:600;text-anchor:start;" transform="rotate(-0, 345.612491, 63.171563)" x="345.612491" y="63.171563">affinity</text>
    </g>
    <g id="LineCollection_4">
     <path d="M 341.78671 87.416094 
L 341.78671 72.416094 
" style="fill:none;stroke:#808080;stroke-opacity:0.7;stroke-width:5;"/>
    </g>
    <g id="line2d_15">
     <path d="M 326.78671 79.916094 
L 356.78671 79.916094 
" style="fill:none;stroke:#808080;stroke-linecap:round;stroke-opacity:0.7;stroke-width:5;"/>
    </g>
    <g id="line2d_16">
     <g>
      <use style="fill:#808080;fill-opacity:0.7;stroke:#808080;stroke-opacity:0.7;" x="341.78671" xlink:href="#m93a62ed6ab" y="79.916094"/>
     </g>
    </g>
    <g id="text_16">
     <text style="fill:#262626;font-family:Lato;font-size:15px;font-style:normal;font-weight:600;text-anchor:start;" transform="rotate(-0, 368.78671, 85.166094)" x="368.78671" y="85.166094">constant</text>
    </g>
    <g id="LineCollection_5">
     <path d="M 341.78671 108.573125 
L 341.78671 93.573125 
" style="fill:none;stroke:#ff0000;stroke-opacity:0.7;stroke-width:3;"/>
    </g>
    <g id="line2d_17">
     <path d="M 326.78671 101.073125 
L 356.78671 101.073125 
" style="fill:none;stroke:#ff0000;stroke-linecap:round;stroke-opacity:0.7;stroke-width:3;"/>
    </g>
    <g id="line2d_18">
     <g>
      <use style="fill:#ff0000;fill-opacity:0.7;stroke:#ff0000;stroke-opacity:0.7;" x="341.78671" xlink:href="#m8a58f2a37a" y="101.073125"/>
     </g>
    </g>
    <g id="text_17">
     <text style="fill:#262626;font-family:Lato;font-size:15px;font-style:normal;font-weight:600;text-anchor:start;" transform="rotate(-0, 368.78671, 106.323125)" x="368.78671" y="106.323125">decrease</text>
    </g>
    <g id="LineCollection_6">
     <path d="M 341.78671 129.730156 
L 341.78671 114.730156 
" style="fill:none;stroke:#0000ff;stroke-opacity:0.7;stroke-width:2;"/>
    </g>
    <g id="line2d_19">
     <path d="M 326.78671 122.230156 
L 356.78671 122.230156 
" style="fill:none;stroke:#0000ff;stroke-linecap:round;stroke-opacity:0.7;stroke-width:2;"/>
    </g>
    <g id="line2d_20">
     <g>
      <use style="fill:#0000ff;fill-opacity:0.7;stroke:#0000ff;stroke-opacity:0.7;" x="341.78671" xlink:href="#m9ff6ef312f" y="122.230156"/>
     </g>
    </g>
    <g id="text_18">
     <text style="fill:#262626;font-family:Lato;font-size:15px;font-style:normal;font-weight:600;text-anchor:start;" transform="rotate(-0, 368.78671, 127.480156)" x="368.78671" y="127.480156">increase</text>
    </g>
   </g>
  </g>
 </g>
 <defs>
  <clipPath id="p40237f6fa2">
   <rect height="241.901562" width="362.885188" x="59.509375" y="39.232031"/>
  </clipPath>
 </defs>
</svg>
