<?xml version="1.0" encoding="utf-8" standalone="no"?>
<!DOCTYPE svg PUBLIC "-//W3C//DTD SVG 1.1//EN"
  "http://www.w3.org/Graphics/SVG/1.1/DTD/svg11.dtd">
<!-- Created with matplotlib (http://matplotlib.org/) -->
<svg height="345.6pt" version="1.1" viewBox="0 0 460.8 345.6" width="460.8pt" xmlns="http://www.w3.org/2000/svg" xmlns:xlink="http://www.w3.org/1999/xlink">
 <defs>
  <style type="text/css">
*{stroke-linecap:butt;stroke-linejoin:round;}
  </style>
 </defs>
 <g id="figure_1">
  <g id="patch_1">
   <path d="M 0 345.6 
L 460.8 345.6 
L 460.8 0 
L 0 0 
z
" style="fill:#ffffff;"/>
  </g>
  <g id="axes_1">
   <g id="patch_2">
    <path d="M 59.509375 281.133594 
L 416.114875 281.133594 
L 416.114875 39.232031 
L 59.509375 39.232031 
z
" style="fill:#ffffff;"/>
   </g>
   <g id="matplotlib.axis_1">
    <g id="xtick_1">
     <g id="line2d_1">
      <defs>
       <path d="M 0 0 
L 0 3.5 
" id="m5faebf5188" style="stroke:#262626;stroke-width:0.8;"/>
      </defs>
      <g>
       <use style="fill:#262626;stroke:#262626;stroke-width:0.8;" x="59.509375" xlink:href="#m5faebf5188" y="281.133594"/>
      </g>
     </g>
     <g id="text_1">
      <text style="fill:#262626;font-family:Lato;font-size:15px;font-style:normal;font-weight:600;text-anchor:middle;" transform="rotate(-0, 59.509375, 299.278125)" x="59.509375" y="299.278125">0</text>
     </g>
    </g>
    <g id="xtick_2">
     <g id="line2d_2">
      <g>
       <use style="fill:#262626;stroke:#262626;stroke-width:0.8;" x="130.087159" xlink:href="#m5faebf5188" y="281.133594"/>
      </g>
     </g>
     <g id="text_2">
      <text style="fill:#262626;font-family:Lato;font-size:15px;font-style:normal;font-weight:600;text-anchor:middle;" transform="rotate(-0, 130.087159, 299.278125)" x="130.087159" y="299.278125">2</text>
     </g>
    </g>
    <g id="xtick_3">
     <g id="line2d_3">
      <g>
       <use style="fill:#262626;stroke:#262626;stroke-width:0.8;" x="200.664944" xlink:href="#m5faebf5188" y="281.133594"/>
      </g>
     </g>
     <g id="text_3">
      <text style="fill:#262626;font-family:Lato;font-size:15px;font-style:normal;font-weight:600;text-anchor:middle;" transform="rotate(-0, 200.664944, 299.278125)" x="200.664944" y="299.278125">4</text>
     </g>
    </g>
    <g id="xtick_4">
     <g id="line2d_4">
      <g>
       <use style="fill:#262626;stroke:#262626;stroke-width:0.8;" x="271.242728" xlink:href="#m5faebf5188" y="281.133594"/>
      </g>
     </g>
     <g id="text_4">
      <text style="fill:#262626;font-family:Lato;font-size:15px;font-style:normal;font-weight:600;text-anchor:middle;" transform="rotate(-0, 271.242728, 299.278125)" x="271.242728" y="299.278125">6</text>
     </g>
    </g>
    <g id="xtick_5">
     <g id="line2d_5">
      <g>
       <use style="fill:#262626;stroke:#262626;stroke-width:0.8;" x="341.820512" xlink:href="#m5faebf5188" y="281.133594"/>
      </g>
     </g>
     <g id="text_5">
      <text style="fill:#262626;font-family:Lato;font-size:15px;font-style:normal;font-weight:600;text-anchor:middle;" transform="rotate(-0, 341.820512, 299.278125)" x="341.820512" y="299.278125">8</text>
     </g>
    </g>
    <g id="xtick_6">
     <g id="line2d_6">
      <g>
       <use style="fill:#262626;stroke:#262626;stroke-width:0.8;" x="412.398296" xlink:href="#m5faebf5188" y="281.133594"/>
      </g>
     </g>
     <g id="text_6">
      <text style="fill:#262626;font-family:Lato;font-size:15px;font-style:normal;font-weight:600;text-anchor:middle;" transform="rotate(-0, 412.398296, 299.278125)" x="412.398296" y="299.278125">10</text>
     </g>
    </g>
    <g id="text_7">
     <text style="fill:#262626;font-family:Lato;font-size:20px;font-style:normal;font-weight:600;text-anchor:middle;" transform="rotate(-0, 237.812125, 320.65)" x="237.812125" y="320.65">AA lb ratio</text>
    </g>
   </g>
   <g id="matplotlib.axis_2">
    <g id="ytick_1">
     <g id="line2d_7">
      <defs>
       <path d="M 0 0 
L -3.5 0 
" id="m4522adf48f" style="stroke:#262626;stroke-width:0.8;"/>
      </defs>
      <g>
       <use style="fill:#262626;stroke:#262626;stroke-width:0.8;" x="59.509375" xlink:href="#m4522adf48f" y="281.133594"/>
      </g>
     </g>
     <g id="text_8">
      <text style="fill:#262626;font-family:Lato;font-size:15px;font-style:normal;font-weight:600;text-anchor:end;" transform="rotate(-0, 52.509375, 286.705859)" x="52.509375" y="286.705859">0</text>
     </g>
    </g>
    <g id="ytick_2">
     <g id="line2d_8">
      <g>
       <use style="fill:#262626;stroke:#262626;stroke-width:0.8;" x="59.509375" xlink:href="#m4522adf48f" y="228.546298"/>
      </g>
     </g>
     <g id="text_9">
      <text style="fill:#262626;font-family:Lato;font-size:15px;font-style:normal;font-weight:600;text-anchor:end;" transform="rotate(-0, 52.509375, 234.118563)" x="52.509375" y="234.118563">2</text>
     </g>
    </g>
    <g id="ytick_3">
     <g id="line2d_9">
      <g>
       <use style="fill:#262626;stroke:#262626;stroke-width:0.8;" x="59.509375" xlink:href="#m4522adf48f" y="175.959001"/>
      </g>
     </g>
     <g id="text_10">
      <text style="fill:#262626;font-family:Lato;font-size:15px;font-style:normal;font-weight:600;text-anchor:end;" transform="rotate(-0, 52.509375, 181.531267)" x="52.509375" y="181.531267">4</text>
     </g>
    </g>
    <g id="ytick_4">
     <g id="line2d_10">
      <g>
       <use style="fill:#262626;stroke:#262626;stroke-width:0.8;" x="59.509375" xlink:href="#m4522adf48f" y="123.371705"/>
      </g>
     </g>
     <g id="text_11">
      <text style="fill:#262626;font-family:Lato;font-size:15px;font-style:normal;font-weight:600;text-anchor:end;" transform="rotate(-0, 52.509375, 128.943971)" x="52.509375" y="128.943971">6</text>
     </g>
    </g>
    <g id="ytick_5">
     <g id="line2d_11">
      <g>
       <use style="fill:#262626;stroke:#262626;stroke-width:0.8;" x="59.509375" xlink:href="#m4522adf48f" y="70.784409"/>
      </g>
     </g>
     <g id="text_12">
      <text style="fill:#262626;font-family:Lato;font-size:15px;font-style:normal;font-weight:600;text-anchor:end;" transform="rotate(-0, 52.509375, 76.356675)" x="52.509375" y="76.356675">8</text>
     </g>
    </g>
    <g id="text_13">
     <text style="fill:#262626;font-family:Lato;font-size:20px;font-style:normal;font-weight:600;text-anchor:middle;" transform="rotate(-90, 36.459375, 160.182813)" x="36.459375" y="160.182813">counts</text>
    </g>
   </g>
   <g id="LineCollection_1">
    <path clip-path="url(#p44c9f02025)" d="M 65.4528 228.546298 
L 65.4528 123.371705 
" style="fill:none;stroke:#006600;stroke-opacity:0.7;stroke-width:5;"/>
    <path clip-path="url(#p44c9f02025)" d="M 77.33965 281.133594 
L 77.33965 228.546298 
" style="fill:none;stroke:#006600;stroke-opacity:0.7;stroke-width:5;"/>
    <path clip-path="url(#p44c9f02025)" d="M 89.2265 247.794584 
L 89.2265 156.710715 
" style="fill:none;stroke:#006600;stroke-opacity:0.7;stroke-width:5;"/>
    <path clip-path="url(#p44c9f02025)" d="M 101.11335 281.133594 
L 101.11335 281.133594 
" style="fill:none;stroke:#006600;stroke-opacity:0.7;stroke-width:5;"/>
    <path clip-path="url(#p44c9f02025)" d="M 113.0002 265.731131 
L 113.0002 191.361464 
" style="fill:none;stroke:#006600;stroke-opacity:0.7;stroke-width:5;"/>
    <path clip-path="url(#p44c9f02025)" d="M 124.88705 145.154076 
L 124.88705 -1 
" style="fill:none;stroke:#006600;stroke-opacity:0.7;stroke-width:5;"/>
    <path clip-path="url(#p44c9f02025)" d="M 136.7739 228.546298 
L 136.7739 123.371705 
" style="fill:none;stroke:#006600;stroke-opacity:0.7;stroke-width:5;"/>
    <path clip-path="url(#p44c9f02025)" d="M 148.66075 281.133594 
L 148.66075 281.133594 
" style="fill:none;stroke:#006600;stroke-opacity:0.7;stroke-width:5;"/>
    <path clip-path="url(#p44c9f02025)" d="M 160.5476 265.731131 
L 160.5476 191.361464 
" style="fill:none;stroke:#006600;stroke-opacity:0.7;stroke-width:5;"/>
    <path clip-path="url(#p44c9f02025)" d="M 172.43445 281.133594 
L 172.43445 228.546298 
" style="fill:none;stroke:#006600;stroke-opacity:0.7;stroke-width:5;"/>
    <path clip-path="url(#p44c9f02025)" d="M 184.3213 281.133594 
L 184.3213 281.133594 
" style="fill:none;stroke:#006600;stroke-opacity:0.7;stroke-width:5;"/>
    <path clip-path="url(#p44c9f02025)" d="M 196.20815 281.133594 
L 196.20815 228.546298 
" style="fill:none;stroke:#006600;stroke-opacity:0.7;stroke-width:5;"/>
    <path clip-path="url(#p44c9f02025)" d="M 208.095 265.731131 
L 208.095 191.361464 
" style="fill:none;stroke:#006600;stroke-opacity:0.7;stroke-width:5;"/>
    <path clip-path="url(#p44c9f02025)" d="M 219.98185 281.133594 
L 219.98185 281.133594 
" style="fill:none;stroke:#006600;stroke-opacity:0.7;stroke-width:5;"/>
    <path clip-path="url(#p44c9f02025)" d="M 231.8687 281.133594 
L 231.8687 281.133594 
" style="fill:none;stroke:#006600;stroke-opacity:0.7;stroke-width:5;"/>
    <path clip-path="url(#p44c9f02025)" d="M 243.75555 281.133594 
L 243.75555 228.546298 
" style="fill:none;stroke:#006600;stroke-opacity:0.7;stroke-width:5;"/>
    <path clip-path="url(#p44c9f02025)" d="M 255.6424 281.133594 
L 255.6424 281.133594 
" style="fill:none;stroke:#006600;stroke-opacity:0.7;stroke-width:5;"/>
    <path clip-path="url(#p44c9f02025)" d="M 267.52925 281.133594 
L 267.52925 228.546298 
" style="fill:none;stroke:#006600;stroke-opacity:0.7;stroke-width:5;"/>
    <path clip-path="url(#p44c9f02025)" d="M 279.4161 281.133594 
L 279.4161 281.133594 
" style="fill:none;stroke:#006600;stroke-opacity:0.7;stroke-width:5;"/>
    <path clip-path="url(#p44c9f02025)" d="M 291.30295 281.133594 
L 291.30295 281.133594 
" style="fill:none;stroke:#006600;stroke-opacity:0.7;stroke-width:5;"/>
    <path clip-path="url(#p44c9f02025)" d="M 303.1898 281.133594 
L 303.1898 281.133594 
" style="fill:none;stroke:#006600;stroke-opacity:0.7;stroke-width:5;"/>
    <path clip-path="url(#p44c9f02025)" d="M 315.07665 281.133594 
L 315.07665 281.133594 
" style="fill:none;stroke:#006600;stroke-opacity:0.7;stroke-width:5;"/>
    <path clip-path="url(#p44c9f02025)" d="M 326.9635 281.133594 
L 326.9635 281.133594 
" style="fill:none;stroke:#006600;stroke-opacity:0.7;stroke-width:5;"/>
    <path clip-path="url(#p44c9f02025)" d="M 338.85035 281.133594 
L 338.85035 281.133594 
" style="fill:none;stroke:#006600;stroke-opacity:0.7;stroke-width:5;"/>
    <path clip-path="url(#p44c9f02025)" d="M 350.7372 281.133594 
L 350.7372 281.133594 
" style="fill:none;stroke:#006600;stroke-opacity:0.7;stroke-width:5;"/>
    <path clip-path="url(#p44c9f02025)" d="M 362.62405 281.133594 
L 362.62405 281.133594 
" style="fill:none;stroke:#006600;stroke-opacity:0.7;stroke-width:5;"/>
    <path clip-path="url(#p44c9f02025)" d="M 374.5109 281.133594 
L 374.5109 281.133594 
" style="fill:none;stroke:#006600;stroke-opacity:0.7;stroke-width:5;"/>
    <path clip-path="url(#p44c9f02025)" d="M 386.39775 281.133594 
L 386.39775 281.133594 
" style="fill:none;stroke:#006600;stroke-opacity:0.7;stroke-width:5;"/>
    <path clip-path="url(#p44c9f02025)" d="M 398.2846 281.133594 
L 398.2846 281.133594 
" style="fill:none;stroke:#006600;stroke-opacity:0.7;stroke-width:5;"/>
    <path clip-path="url(#p44c9f02025)" d="M 410.17145 281.133594 
L 410.17145 228.546298 
" style="fill:none;stroke:#006600;stroke-opacity:0.7;stroke-width:5;"/>
   </g>
   <g id="LineCollection_2">
    <path clip-path="url(#p44c9f02025)" d="M 65.4528 281.133594 
L 65.4528 281.133594 
" style="fill:none;stroke:#8b0000;stroke-opacity:0.7;stroke-width:3;"/>
    <path clip-path="url(#p44c9f02025)" d="M 77.33965 281.133594 
L 77.33965 281.133594 
" style="fill:none;stroke:#8b0000;stroke-opacity:0.7;stroke-width:3;"/>
    <path clip-path="url(#p44c9f02025)" d="M 89.2265 281.133594 
L 89.2265 281.133594 
" style="fill:none;stroke:#8b0000;stroke-opacity:0.7;stroke-width:3;"/>
    <path clip-path="url(#p44c9f02025)" d="M 101.11335 281.133594 
L 101.11335 281.133594 
" style="fill:none;stroke:#8b0000;stroke-opacity:0.7;stroke-width:3;"/>
    <path clip-path="url(#p44c9f02025)" d="M 113.0002 281.133594 
L 113.0002 281.133594 
" style="fill:none;stroke:#8b0000;stroke-opacity:0.7;stroke-width:3;"/>
    <path clip-path="url(#p44c9f02025)" d="M 124.88705 247.794584 
L 124.88705 156.710715 
" style="fill:none;stroke:#8b0000;stroke-opacity:0.7;stroke-width:3;"/>
    <path clip-path="url(#p44c9f02025)" d="M 136.7739 281.133594 
L 136.7739 281.133594 
" style="fill:none;stroke:#8b0000;stroke-opacity:0.7;stroke-width:3;"/>
    <path clip-path="url(#p44c9f02025)" d="M 148.66075 281.133594 
L 148.66075 281.133594 
" style="fill:none;stroke:#8b0000;stroke-opacity:0.7;stroke-width:3;"/>
    <path clip-path="url(#p44c9f02025)" d="M 160.5476 281.133594 
L 160.5476 281.133594 
" style="fill:none;stroke:#8b0000;stroke-opacity:0.7;stroke-width:3;"/>
    <path clip-path="url(#p44c9f02025)" d="M 172.43445 281.133594 
L 172.43445 281.133594 
" style="fill:none;stroke:#8b0000;stroke-opacity:0.7;stroke-width:3;"/>
    <path clip-path="url(#p44c9f02025)" d="M 184.3213 281.133594 
L 184.3213 281.133594 
" style="fill:none;stroke:#8b0000;stroke-opacity:0.7;stroke-width:3;"/>
    <path clip-path="url(#p44c9f02025)" d="M 196.20815 281.133594 
L 196.20815 281.133594 
" style="fill:none;stroke:#8b0000;stroke-opacity:0.7;stroke-width:3;"/>
    <path clip-path="url(#p44c9f02025)" d="M 208.095 281.133594 
L 208.095 281.133594 
" style="fill:none;stroke:#8b0000;stroke-opacity:0.7;stroke-width:3;"/>
    <path clip-path="url(#p44c9f02025)" d="M 219.98185 281.133594 
L 219.98185 281.133594 
" style="fill:none;stroke:#8b0000;stroke-opacity:0.7;stroke-width:3;"/>
    <path clip-path="url(#p44c9f02025)" d="M 231.8687 281.133594 
L 231.8687 281.133594 
" style="fill:none;stroke:#8b0000;stroke-opacity:0.7;stroke-width:3;"/>
    <path clip-path="url(#p44c9f02025)" d="M 243.75555 281.133594 
L 243.75555 281.133594 
" style="fill:none;stroke:#8b0000;stroke-opacity:0.7;stroke-width:3;"/>
    <path clip-path="url(#p44c9f02025)" d="M 255.6424 281.133594 
L 255.6424 228.546298 
" style="fill:none;stroke:#8b0000;stroke-opacity:0.7;stroke-width:3;"/>
    <path clip-path="url(#p44c9f02025)" d="M 267.52925 281.133594 
L 267.52925 281.133594 
" style="fill:none;stroke:#8b0000;stroke-opacity:0.7;stroke-width:3;"/>
    <path clip-path="url(#p44c9f02025)" d="M 279.4161 281.133594 
L 279.4161 281.133594 
" style="fill:none;stroke:#8b0000;stroke-opacity:0.7;stroke-width:3;"/>
    <path clip-path="url(#p44c9f02025)" d="M 291.30295 281.133594 
L 291.30295 281.133594 
" style="fill:none;stroke:#8b0000;stroke-opacity:0.7;stroke-width:3;"/>
    <path clip-path="url(#p44c9f02025)" d="M 303.1898 281.133594 
L 303.1898 281.133594 
" style="fill:none;stroke:#8b0000;stroke-opacity:0.7;stroke-width:3;"/>
    <path clip-path="url(#p44c9f02025)" d="M 315.07665 281.133594 
L 315.07665 281.133594 
" style="fill:none;stroke:#8b0000;stroke-opacity:0.7;stroke-width:3;"/>
    <path clip-path="url(#p44c9f02025)" d="M 326.9635 281.133594 
L 326.9635 281.133594 
" style="fill:none;stroke:#8b0000;stroke-opacity:0.7;stroke-width:3;"/>
    <path clip-path="url(#p44c9f02025)" d="M 338.85035 281.133594 
L 338.85035 281.133594 
" style="fill:none;stroke:#8b0000;stroke-opacity:0.7;stroke-width:3;"/>
    <path clip-path="url(#p44c9f02025)" d="M 350.7372 281.133594 
L 350.7372 281.133594 
" style="fill:none;stroke:#8b0000;stroke-opacity:0.7;stroke-width:3;"/>
    <path clip-path="url(#p44c9f02025)" d="M 362.62405 281.133594 
L 362.62405 281.133594 
" style="fill:none;stroke:#8b0000;stroke-opacity:0.7;stroke-width:3;"/>
    <path clip-path="url(#p44c9f02025)" d="M 374.5109 281.133594 
L 374.5109 281.133594 
" style="fill:none;stroke:#8b0000;stroke-opacity:0.7;stroke-width:3;"/>
    <path clip-path="url(#p44c9f02025)" d="M 386.39775 281.133594 
L 386.39775 281.133594 
" style="fill:none;stroke:#8b0000;stroke-opacity:0.7;stroke-width:3;"/>
    <path clip-path="url(#p44c9f02025)" d="M 398.2846 281.133594 
L 398.2846 281.133594 
" style="fill:none;stroke:#8b0000;stroke-opacity:0.7;stroke-width:3;"/>
    <path clip-path="url(#p44c9f02025)" d="M 410.17145 281.133594 
L 410.17145 281.133594 
" style="fill:none;stroke:#8b0000;stroke-opacity:0.7;stroke-width:3;"/>
   </g>
   <g id="line2d_12">
    <path clip-path="url(#p44c9f02025)" d="M 65.4528 175.959001 
L 77.33965 254.839946 
L 89.2265 202.252649 
L 101.11335 281.133594 
L 113.0002 228.546298 
L 124.88705 70.784409 
L 136.7739 175.959001 
L 148.66075 281.133594 
L 160.5476 228.546298 
L 172.43445 254.839946 
L 184.3213 281.133594 
L 196.20815 254.839946 
L 208.095 228.546298 
L 219.98185 281.133594 
L 231.8687 281.133594 
L 243.75555 254.839946 
L 255.6424 281.133594 
L 267.52925 254.839946 
L 279.4161 281.133594 
L 291.30295 281.133594 
L 303.1898 281.133594 
L 315.07665 281.133594 
L 326.9635 281.133594 
L 338.85035 281.133594 
L 350.7372 281.133594 
L 362.62405 281.133594 
L 374.5109 281.133594 
L 386.39775 281.133594 
L 398.2846 281.133594 
L 410.17145 254.839946 
" style="fill:none;stroke:#006600;stroke-linecap:round;stroke-opacity:0.7;stroke-width:5;"/>
    <defs>
     <path d="M 0 3.25 
C 0.86191 3.25 1.688635 2.907559 2.298097 2.298097 
C 2.907559 1.688635 3.25 0.86191 3.25 0 
C 3.25 -0.86191 2.907559 -1.688635 2.298097 -2.298097 
C 1.688635 -2.907559 0.86191 -3.25 0 -3.25 
C -0.86191 -3.25 -1.688635 -2.907559 -2.298097 -2.298097 
C -2.907559 -1.688635 -3.25 -0.86191 -3.25 0 
C -3.25 0.86191 -2.907559 1.688635 -2.298097 2.298097 
C -1.688635 2.907559 -0.86191 3.25 0 3.25 
z
" id="m9354f08a4e" style="stroke:#006600;stroke-opacity:0.7;"/>
    </defs>
    <g clip-path="url(#p44c9f02025)">
     <use style="fill:#006600;fill-opacity:0.7;stroke:#006600;stroke-opacity:0.7;" x="65.4528" xlink:href="#m9354f08a4e" y="175.959001"/>
     <use style="fill:#006600;fill-opacity:0.7;stroke:#006600;stroke-opacity:0.7;" x="77.33965" xlink:href="#m9354f08a4e" y="254.839946"/>
     <use style="fill:#006600;fill-opacity:0.7;stroke:#006600;stroke-opacity:0.7;" x="89.2265" xlink:href="#m9354f08a4e" y="202.252649"/>
     <use style="fill:#006600;fill-opacity:0.7;stroke:#006600;stroke-opacity:0.7;" x="101.11335" xlink:href="#m9354f08a4e" y="281.133594"/>
     <use style="fill:#006600;fill-opacity:0.7;stroke:#006600;stroke-opacity:0.7;" x="113.0002" xlink:href="#m9354f08a4e" y="228.546298"/>
     <use style="fill:#006600;fill-opacity:0.7;stroke:#006600;stroke-opacity:0.7;" x="124.88705" xlink:href="#m9354f08a4e" y="70.784409"/>
     <use style="fill:#006600;fill-opacity:0.7;stroke:#006600;stroke-opacity:0.7;" x="136.7739" xlink:href="#m9354f08a4e" y="175.959001"/>
     <use style="fill:#006600;fill-opacity:0.7;stroke:#006600;stroke-opacity:0.7;" x="148.66075" xlink:href="#m9354f08a4e" y="281.133594"/>
     <use style="fill:#006600;fill-opacity:0.7;stroke:#006600;stroke-opacity:0.7;" x="160.5476" xlink:href="#m9354f08a4e" y="228.546298"/>
     <use style="fill:#006600;fill-opacity:0.7;stroke:#006600;stroke-opacity:0.7;" x="172.43445" xlink:href="#m9354f08a4e" y="254.839946"/>
     <use style="fill:#006600;fill-opacity:0.7;stroke:#006600;stroke-opacity:0.7;" x="184.3213" xlink:href="#m9354f08a4e" y="281.133594"/>
     <use style="fill:#006600;fill-opacity:0.7;stroke:#006600;stroke-opacity:0.7;" x="196.20815" xlink:href="#m9354f08a4e" y="254.839946"/>
     <use style="fill:#006600;fill-opacity:0.7;stroke:#006600;stroke-opacity:0.7;" x="208.095" xlink:href="#m9354f08a4e" y="228.546298"/>
     <use style="fill:#006600;fill-opacity:0.7;stroke:#006600;stroke-opacity:0.7;" x="219.98185" xlink:href="#m9354f08a4e" y="281.133594"/>
     <use style="fill:#006600;fill-opacity:0.7;stroke:#006600;stroke-opacity:0.7;" x="231.8687" xlink:href="#m9354f08a4e" y="281.133594"/>
     <use style="fill:#006600;fill-opacity:0.7;stroke:#006600;stroke-opacity:0.7;" x="243.75555" xlink:href="#m9354f08a4e" y="254.839946"/>
     <use style="fill:#006600;fill-opacity:0.7;stroke:#006600;stroke-opacity:0.7;" x="255.6424" xlink:href="#m9354f08a4e" y="281.133594"/>
     <use style="fill:#006600;fill-opacity:0.7;stroke:#006600;stroke-opacity:0.7;" x="267.52925" xlink:href="#m9354f08a4e" y="254.839946"/>
     <use style="fill:#006600;fill-opacity:0.7;stroke:#006600;stroke-opacity:0.7;" x="279.4161" xlink:href="#m9354f08a4e" y="281.133594"/>
     <use style="fill:#006600;fill-opacity:0.7;stroke:#006600;stroke-opacity:0.7;" x="291.30295" xlink:href="#m9354f08a4e" y="281.133594"/>
     <use style="fill:#006600;fill-opacity:0.7;stroke:#006600;stroke-opacity:0.7;" x="303.1898" xlink:href="#m9354f08a4e" y="281.133594"/>
     <use style="fill:#006600;fill-opacity:0.7;stroke:#006600;stroke-opacity:0.7;" x="315.07665" xlink:href="#m9354f08a4e" y="281.133594"/>
     <use style="fill:#006600;fill-opacity:0.7;stroke:#006600;stroke-opacity:0.7;" x="326.9635" xlink:href="#m9354f08a4e" y="281.133594"/>
     <use style="fill:#006600;fill-opacity:0.7;stroke:#006600;stroke-opacity:0.7;" x="338.85035" xlink:href="#m9354f08a4e" y="281.133594"/>
     <use style="fill:#006600;fill-opacity:0.7;stroke:#006600;stroke-opacity:0.7;" x="350.7372" xlink:href="#m9354f08a4e" y="281.133594"/>
     <use style="fill:#006600;fill-opacity:0.7;stroke:#006600;stroke-opacity:0.7;" x="362.62405" xlink:href="#m9354f08a4e" y="281.133594"/>
     <use style="fill:#006600;fill-opacity:0.7;stroke:#006600;stroke-opacity:0.7;" x="374.5109" xlink:href="#m9354f08a4e" y="281.133594"/>
     <use style="fill:#006600;fill-opacity:0.7;stroke:#006600;stroke-opacity:0.7;" x="386.39775" xlink:href="#m9354f08a4e" y="281.133594"/>
     <use style="fill:#006600;fill-opacity:0.7;stroke:#006600;stroke-opacity:0.7;" x="398.2846" xlink:href="#m9354f08a4e" y="281.133594"/>
     <use style="fill:#006600;fill-opacity:0.7;stroke:#006600;stroke-opacity:0.7;" x="410.17145" xlink:href="#m9354f08a4e" y="254.839946"/>
    </g>
   </g>
   <g id="line2d_13">
    <path clip-path="url(#p44c9f02025)" d="M 65.4528 281.133594 
L 77.33965 281.133594 
L 89.2265 281.133594 
L 101.11335 281.133594 
L 113.0002 281.133594 
L 124.88705 202.252649 
L 136.7739 281.133594 
L 148.66075 281.133594 
L 160.5476 281.133594 
L 172.43445 281.133594 
L 184.3213 281.133594 
L 196.20815 281.133594 
L 208.095 281.133594 
L 219.98185 281.133594 
L 231.8687 281.133594 
L 243.75555 281.133594 
L 255.6424 254.839946 
L 267.52925 281.133594 
L 279.4161 281.133594 
L 291.30295 281.133594 
L 303.1898 281.133594 
L 315.07665 281.133594 
L 326.9635 281.133594 
L 338.85035 281.133594 
L 350.7372 281.133594 
L 362.62405 281.133594 
L 374.5109 281.133594 
L 386.39775 281.133594 
L 398.2846 281.133594 
L 410.17145 281.133594 
" style="fill:none;stroke:#8b0000;stroke-linecap:round;stroke-opacity:0.7;stroke-width:3;"/>
    <defs>
     <path d="M 0 3.25 
C 0.86191 3.25 1.688635 2.907559 2.298097 2.298097 
C 2.907559 1.688635 3.25 0.86191 3.25 0 
C 3.25 -0.86191 2.907559 -1.688635 2.298097 -2.298097 
C 1.688635 -2.907559 0.86191 -3.25 0 -3.25 
C -0.86191 -3.25 -1.688635 -2.907559 -2.298097 -2.298097 
C -2.907559 -1.688635 -3.25 -0.86191 -3.25 0 
C -3.25 0.86191 -2.907559 1.688635 -2.298097 2.298097 
C -1.688635 2.907559 -0.86191 3.25 0 3.25 
z
" id="m50300f76c1" style="stroke:#8b0000;stroke-opacity:0.7;"/>
    </defs>
    <g clip-path="url(#p44c9f02025)">
     <use style="fill:#8b0000;fill-opacity:0.7;stroke:#8b0000;stroke-opacity:0.7;" x="65.4528" xlink:href="#m50300f76c1" y="281.133594"/>
     <use style="fill:#8b0000;fill-opacity:0.7;stroke:#8b0000;stroke-opacity:0.7;" x="77.33965" xlink:href="#m50300f76c1" y="281.133594"/>
     <use style="fill:#8b0000;fill-opacity:0.7;stroke:#8b0000;stroke-opacity:0.7;" x="89.2265" xlink:href="#m50300f76c1" y="281.133594"/>
     <use style="fill:#8b0000;fill-opacity:0.7;stroke:#8b0000;stroke-opacity:0.7;" x="101.11335" xlink:href="#m50300f76c1" y="281.133594"/>
     <use style="fill:#8b0000;fill-opacity:0.7;stroke:#8b0000;stroke-opacity:0.7;" x="113.0002" xlink:href="#m50300f76c1" y="281.133594"/>
     <use style="fill:#8b0000;fill-opacity:0.7;stroke:#8b0000;stroke-opacity:0.7;" x="124.88705" xlink:href="#m50300f76c1" y="202.252649"/>
     <use style="fill:#8b0000;fill-opacity:0.7;stroke:#8b0000;stroke-opacity:0.7;" x="136.7739" xlink:href="#m50300f76c1" y="281.133594"/>
     <use style="fill:#8b0000;fill-opacity:0.7;stroke:#8b0000;stroke-opacity:0.7;" x="148.66075" xlink:href="#m50300f76c1" y="281.133594"/>
     <use style="fill:#8b0000;fill-opacity:0.7;stroke:#8b0000;stroke-opacity:0.7;" x="160.5476" xlink:href="#m50300f76c1" y="281.133594"/>
     <use style="fill:#8b0000;fill-opacity:0.7;stroke:#8b0000;stroke-opacity:0.7;" x="172.43445" xlink:href="#m50300f76c1" y="281.133594"/>
     <use style="fill:#8b0000;fill-opacity:0.7;stroke:#8b0000;stroke-opacity:0.7;" x="184.3213" xlink:href="#m50300f76c1" y="281.133594"/>
     <use style="fill:#8b0000;fill-opacity:0.7;stroke:#8b0000;stroke-opacity:0.7;" x="196.20815" xlink:href="#m50300f76c1" y="281.133594"/>
     <use style="fill:#8b0000;fill-opacity:0.7;stroke:#8b0000;stroke-opacity:0.7;" x="208.095" xlink:href="#m50300f76c1" y="281.133594"/>
     <use style="fill:#8b0000;fill-opacity:0.7;stroke:#8b0000;stroke-opacity:0.7;" x="219.98185" xlink:href="#m50300f76c1" y="281.133594"/>
     <use style="fill:#8b0000;fill-opacity:0.7;stroke:#8b0000;stroke-opacity:0.7;" x="231.8687" xlink:href="#m50300f76c1" y="281.133594"/>
     <use style="fill:#8b0000;fill-opacity:0.7;stroke:#8b0000;stroke-opacity:0.7;" x="243.75555" xlink:href="#m50300f76c1" y="281.133594"/>
     <use style="fill:#8b0000;fill-opacity:0.7;stroke:#8b0000;stroke-opacity:0.7;" x="255.6424" xlink:href="#m50300f76c1" y="254.839946"/>
     <use style="fill:#8b0000;fill-opacity:0.7;stroke:#8b0000;stroke-opacity:0.7;" x="267.52925" xlink:href="#m50300f76c1" y="281.133594"/>
     <use style="fill:#8b0000;fill-opacity:0.7;stroke:#8b0000;stroke-opacity:0.7;" x="279.4161" xlink:href="#m50300f76c1" y="281.133594"/>
     <use style="fill:#8b0000;fill-opacity:0.7;stroke:#8b0000;stroke-opacity:0.7;" x="291.30295" xlink:href="#m50300f76c1" y="281.133594"/>
     <use style="fill:#8b0000;fill-opacity:0.7;stroke:#8b0000;stroke-opacity:0.7;" x="303.1898" xlink:href="#m50300f76c1" y="281.133594"/>
     <use style="fill:#8b0000;fill-opacity:0.7;stroke:#8b0000;stroke-opacity:0.7;" x="315.07665" xlink:href="#m50300f76c1" y="281.133594"/>
     <use style="fill:#8b0000;fill-opacity:0.7;stroke:#8b0000;stroke-opacity:0.7;" x="326.9635" xlink:href="#m50300f76c1" y="281.133594"/>
     <use style="fill:#8b0000;fill-opacity:0.7;stroke:#8b0000;stroke-opacity:0.7;" x="338.85035" xlink:href="#m50300f76c1" y="281.133594"/>
     <use style="fill:#8b0000;fill-opacity:0.7;stroke:#8b0000;stroke-opacity:0.7;" x="350.7372" xlink:href="#m50300f76c1" y="281.133594"/>
     <use style="fill:#8b0000;fill-opacity:0.7;stroke:#8b0000;stroke-opacity:0.7;" x="362.62405" xlink:href="#m50300f76c1" y="281.133594"/>
     <use style="fill:#8b0000;fill-opacity:0.7;stroke:#8b0000;stroke-opacity:0.7;" x="374.5109" xlink:href="#m50300f76c1" y="281.133594"/>
     <use style="fill:#8b0000;fill-opacity:0.7;stroke:#8b0000;stroke-opacity:0.7;" x="386.39775" xlink:href="#m50300f76c1" y="281.133594"/>
     <use style="fill:#8b0000;fill-opacity:0.7;stroke:#8b0000;stroke-opacity:0.7;" x="398.2846" xlink:href="#m50300f76c1" y="281.133594"/>
     <use style="fill:#8b0000;fill-opacity:0.7;stroke:#8b0000;stroke-opacity:0.7;" x="410.17145" xlink:href="#m50300f76c1" y="281.133594"/>
    </g>
   </g>
   <g id="patch_3">
    <path d="M 59.509375 281.133594 
L 59.509375 39.232031 
" style="fill:none;stroke:#262626;stroke-linecap:square;stroke-linejoin:miter;stroke-width:0.8;"/>
   </g>
   <g id="patch_4">
    <path d="M 59.509375 281.133594 
L 416.114875 281.133594 
" style="fill:none;stroke:#262626;stroke-linecap:square;stroke-linejoin:miter;stroke-width:0.8;"/>
   </g>
   <g id="text_14">
    <text style="fill:#262626;font-family:Lato;font-size:15px;font-style:normal;font-weight:bold;text-anchor:middle;" transform="rotate(-0, 237.812125, 33.232031)" x="237.812125" y="33.232031">AA lb ratio on true tree (cluster 0)</text>
   </g>
   <g id="legend_1">
    <g id="patch_5">
     <path d="M 319.265335 135.992656 
L 433.11846 135.992656 
Q 436.11846 135.992656 436.11846 132.992656 
L 436.11846 45.287969 
Q 436.11846 42.287969 433.11846 42.287969 
L 319.265335 42.287969 
Q 316.265335 42.287969 316.265335 45.287969 
L 316.265335 132.992656 
Q 316.265335 135.992656 319.265335 135.992656 
z
" style="fill:#ffffff;opacity:0.8;stroke:#cccccc;stroke-linejoin:miter;"/>
    </g>
    <g id="text_15">
     <text style="fill:#262626;font-family:Lato;font-size:20px;font-style:normal;font-weight:600;" transform="translate(322.265335 63.147344)">N steps to</text>
     <text style="fill:#262626;font-family:Lato;font-size:20px;font-style:normal;font-weight:600;" transform="translate(322.265335 84.328594)">aff. increase</text>
    </g>
    <g id="LineCollection_3">
     <path d="M 352.691116 108.573125 
L 352.691116 93.573125 
" style="fill:none;stroke:#006600;stroke-opacity:0.7;stroke-width:5;"/>
    </g>
    <g id="line2d_14">
     <path d="M 337.691116 101.073125 
L 367.691116 101.073125 
" style="fill:none;stroke:#006600;stroke-linecap:round;stroke-opacity:0.7;stroke-width:5;"/>
    </g>
    <g id="line2d_15">
     <g>
      <use style="fill:#006600;fill-opacity:0.7;stroke:#006600;stroke-opacity:0.7;" x="352.691116" xlink:href="#m9354f08a4e" y="101.073125"/>
     </g>
    </g>
    <g id="text_16">
     <text style="fill:#262626;font-family:Lato;font-size:15px;font-style:normal;font-weight:600;text-anchor:start;" transform="rotate(-0, 379.691116, 106.323125)" x="379.691116" y="106.323125">not 0</text>
    </g>
    <g id="LineCollection_4">
     <path d="M 352.691116 129.730156 
L 352.691116 114.730156 
" style="fill:none;stroke:#8b0000;stroke-opacity:0.7;stroke-width:3;"/>
    </g>
    <g id="line2d_16">
     <path d="M 337.691116 122.230156 
L 367.691116 122.230156 
" style="fill:none;stroke:#8b0000;stroke-linecap:round;stroke-opacity:0.7;stroke-width:3;"/>
    </g>
    <g id="line2d_17">
     <g>
      <use style="fill:#8b0000;fill-opacity:0.7;stroke:#8b0000;stroke-opacity:0.7;" x="352.691116" xlink:href="#m50300f76c1" y="122.230156"/>
     </g>
    </g>
    <g id="text_17">
     <text style="fill:#262626;font-family:Lato;font-size:15px;font-style:normal;font-weight:600;text-anchor:start;" transform="rotate(-0, 379.691116, 127.480156)" x="379.691116" y="127.480156">zero</text>
    </g>
   </g>
  </g>
 </g>
 <defs>
  <clipPath id="p44c9f02025">
   <rect height="241.901562" width="356.6055" x="59.509375" y="39.232031"/>
  </clipPath>
 </defs>
</svg>
