<?xml version="1.0" encoding="utf-8" standalone="no"?>
<!DOCTYPE svg PUBLIC "-//W3C//DTD SVG 1.1//EN"
  "http://www.w3.org/Graphics/SVG/1.1/DTD/svg11.dtd">
<!-- Created with matplotlib (http://matplotlib.org/) -->
<svg height="345.6pt" version="1.1" viewBox="0 0 460.8 345.6" width="460.8pt" xmlns="http://www.w3.org/2000/svg" xmlns:xlink="http://www.w3.org/1999/xlink">
 <defs>
  <style type="text/css">
*{stroke-linecap:butt;stroke-linejoin:round;}
  </style>
 </defs>
 <g id="figure_1">
  <g id="patch_1">
   <path d="M 0 345.6 
L 460.8 345.6 
L 460.8 0 
L 0 0 
z
" style="fill:#ffffff;"/>
  </g>
  <g id="axes_1">
   <g id="patch_2">
    <path d="M 92.16 276.48 
L 437.76 276.48 
L 437.76 27.648 
L 92.16 27.648 
z
" style="fill:#ffffff;"/>
   </g>
   <g id="matplotlib.axis_1">
    <g id="xtick_1">
     <g id="line2d_1">
      <defs>
       <path d="M 0 0 
L 0 3.5 
" id="mefb07e070e" style="stroke:#262626;stroke-width:0.8;"/>
      </defs>
      <g>
       <use style="fill:#262626;stroke:#262626;stroke-width:0.8;" x="100.388571" xlink:href="#mefb07e070e" y="276.48"/>
      </g>
     </g>
     <g id="text_1">
      <text style="fill:#262626;font-family:DejaVu Sans;font-size:20px;font-style:normal;font-weight:normal;text-anchor:middle;" transform="rotate(-0, 100.388571, 298.676875)" x="100.388571" y="298.676875">0</text>
     </g>
    </g>
    <g id="xtick_2">
     <g id="line2d_2">
      <g>
       <use style="fill:#262626;stroke:#262626;stroke-width:0.8;" x="182.674286" xlink:href="#mefb07e070e" y="276.48"/>
      </g>
     </g>
     <g id="text_2">
      <text style="fill:#262626;font-family:DejaVu Sans;font-size:20px;font-style:normal;font-weight:normal;text-anchor:middle;" transform="rotate(-0, 182.674286, 298.676875)" x="182.674286" y="298.676875">5</text>
     </g>
    </g>
    <g id="xtick_3">
     <g id="line2d_3">
      <g>
       <use style="fill:#262626;stroke:#262626;stroke-width:0.8;" x="264.96" xlink:href="#mefb07e070e" y="276.48"/>
      </g>
     </g>
     <g id="text_3">
      <text style="fill:#262626;font-family:DejaVu Sans;font-size:20px;font-style:normal;font-weight:normal;text-anchor:middle;" transform="rotate(-0, 264.96, 298.676875)" x="264.96" y="298.676875">10</text>
     </g>
    </g>
    <g id="xtick_4">
     <g id="line2d_4">
      <g>
       <use style="fill:#262626;stroke:#262626;stroke-width:0.8;" x="347.245714" xlink:href="#mefb07e070e" y="276.48"/>
      </g>
     </g>
     <g id="text_4">
      <text style="fill:#262626;font-family:DejaVu Sans;font-size:20px;font-style:normal;font-weight:normal;text-anchor:middle;" transform="rotate(-0, 347.245714, 298.676875)" x="347.245714" y="298.676875">15</text>
     </g>
    </g>
    <g id="xtick_5">
     <g id="line2d_5">
      <g>
       <use style="fill:#262626;stroke:#262626;stroke-width:0.8;" x="429.531429" xlink:href="#mefb07e070e" y="276.48"/>
      </g>
     </g>
     <g id="text_5">
      <text style="fill:#262626;font-family:DejaVu Sans;font-size:20px;font-style:normal;font-weight:normal;text-anchor:middle;" transform="rotate(-0, 429.531429, 298.676875)" x="429.531429" y="298.676875">20</text>
     </g>
    </g>
    <g id="text_6">
     <text style="fill:#262626;font-family:DejaVu Sans;font-size:20px;font-style:normal;font-weight:normal;text-anchor:middle;" transform="rotate(-0, 264.96, 322.033125)" x="264.96" y="322.033125">n mutated</text>
    </g>
   </g>
   <g id="matplotlib.axis_2">
    <g id="ytick_1">
     <g id="line2d_6">
      <defs>
       <path d="M 0 0 
L -3.5 0 
" id="m17b421554d" style="stroke:#262626;stroke-width:0.8;"/>
      </defs>
      <g>
       <use style="fill:#262626;stroke:#262626;stroke-width:0.8;" x="92.16" xlink:href="#m17b421554d" y="270.153763"/>
      </g>
     </g>
     <g id="text_7">
      <text style="fill:#262626;font-family:DejaVu Sans;font-size:20px;font-style:normal;font-weight:normal;text-anchor:end;" transform="rotate(-0, 85.16, 277.7522)" x="85.16" y="277.7522">0</text>
     </g>
    </g>
    <g id="ytick_2">
     <g id="line2d_7">
      <g>
       <use style="fill:#262626;stroke:#262626;stroke-width:0.8;" x="92.16" xlink:href="#m17b421554d" y="202.085791"/>
      </g>
     </g>
     <g id="text_8">
      <text style="fill:#262626;font-family:DejaVu Sans;font-size:20px;font-style:normal;font-weight:normal;text-anchor:end;" transform="rotate(-0, 85.16, 209.684229)" x="85.16" y="209.684229">500</text>
     </g>
    </g>
    <g id="ytick_3">
     <g id="line2d_8">
      <g>
       <use style="fill:#262626;stroke:#262626;stroke-width:0.8;" x="92.16" xlink:href="#m17b421554d" y="134.017819"/>
      </g>
     </g>
     <g id="text_9">
      <text style="fill:#262626;font-family:DejaVu Sans;font-size:20px;font-style:normal;font-weight:normal;text-anchor:end;" transform="rotate(-0, 85.16, 141.616257)" x="85.16" y="141.616257">1000</text>
     </g>
    </g>
    <g id="ytick_4">
     <g id="line2d_9">
      <g>
       <use style="fill:#262626;stroke:#262626;stroke-width:0.8;" x="92.16" xlink:href="#m17b421554d" y="65.949848"/>
      </g>
     </g>
     <g id="text_10">
      <text style="fill:#262626;font-family:DejaVu Sans;font-size:20px;font-style:normal;font-weight:normal;text-anchor:end;" transform="rotate(-0, 85.16, 73.548285)" x="85.16" y="73.548285">1500</text>
     </g>
    </g>
    <g id="text_11">
     <text style="fill:#262626;font-family:DejaVu Sans;font-size:20px;font-style:normal;font-weight:normal;text-anchor:middle;" transform="rotate(-90, 26.100625, 152.064)" x="26.100625" y="152.064">counts</text>
    </g>
   </g>
   <g id="line2d_10">
    <path clip-path="url(#p6b9a2dcc5a)" d="M 100.388571 59.279186 
L 116.845714 142.04984 
L 133.302857 232.98865 
L 149.76 257.629256 
L 166.217143 263.891509 
L 182.674286 265.661277 
L 199.131429 266.750364 
L 215.588571 268.383995 
L 232.045714 268.928539 
L 248.502857 269.473083 
L 264.96 270.153763 
L 281.417143 269.881491 
L 297.874286 269.609219 
L 314.331429 269.881491 
L 330.788571 269.881491 
L 347.245714 270.153763 
L 363.702857 270.017627 
L 380.16 270.153763 
L 396.617143 270.153763 
L 413.074286 270.017627 
L 429.531429 269.881491 
" style="fill:none;stroke:#4169e1;stroke-linecap:round;stroke-width:3;"/>
    <defs>
     <path d="M 0 3.25 
C 0.86191 3.25 1.688635 2.907559 2.298097 2.298097 
C 2.907559 1.688635 3.25 0.86191 3.25 0 
C 3.25 -0.86191 2.907559 -1.688635 2.298097 -2.298097 
C 1.688635 -2.907559 0.86191 -3.25 0 -3.25 
C -0.86191 -3.25 -1.688635 -2.907559 -2.298097 -2.298097 
C -2.907559 -1.688635 -3.25 -0.86191 -3.25 0 
C -3.25 0.86191 -2.907559 1.688635 -2.298097 2.298097 
C -1.688635 2.907559 -0.86191 3.25 0 3.25 
z
" id="m0a8e9ab691" style="stroke:#4169e1;"/>
    </defs>
    <g clip-path="url(#p6b9a2dcc5a)">
     <use style="fill:#4169e1;stroke:#4169e1;" x="100.388571" xlink:href="#m0a8e9ab691" y="59.279186"/>
     <use style="fill:#4169e1;stroke:#4169e1;" x="116.845714" xlink:href="#m0a8e9ab691" y="142.04984"/>
     <use style="fill:#4169e1;stroke:#4169e1;" x="133.302857" xlink:href="#m0a8e9ab691" y="232.98865"/>
     <use style="fill:#4169e1;stroke:#4169e1;" x="149.76" xlink:href="#m0a8e9ab691" y="257.629256"/>
     <use style="fill:#4169e1;stroke:#4169e1;" x="166.217143" xlink:href="#m0a8e9ab691" y="263.891509"/>
     <use style="fill:#4169e1;stroke:#4169e1;" x="182.674286" xlink:href="#m0a8e9ab691" y="265.661277"/>
     <use style="fill:#4169e1;stroke:#4169e1;" x="199.131429" xlink:href="#m0a8e9ab691" y="266.750364"/>
     <use style="fill:#4169e1;stroke:#4169e1;" x="215.588571" xlink:href="#m0a8e9ab691" y="268.383995"/>
     <use style="fill:#4169e1;stroke:#4169e1;" x="232.045714" xlink:href="#m0a8e9ab691" y="268.928539"/>
     <use style="fill:#4169e1;stroke:#4169e1;" x="248.502857" xlink:href="#m0a8e9ab691" y="269.473083"/>
     <use style="fill:#4169e1;stroke:#4169e1;" x="264.96" xlink:href="#m0a8e9ab691" y="270.153763"/>
     <use style="fill:#4169e1;stroke:#4169e1;" x="281.417143" xlink:href="#m0a8e9ab691" y="269.881491"/>
     <use style="fill:#4169e1;stroke:#4169e1;" x="297.874286" xlink:href="#m0a8e9ab691" y="269.609219"/>
     <use style="fill:#4169e1;stroke:#4169e1;" x="314.331429" xlink:href="#m0a8e9ab691" y="269.881491"/>
     <use style="fill:#4169e1;stroke:#4169e1;" x="330.788571" xlink:href="#m0a8e9ab691" y="269.881491"/>
     <use style="fill:#4169e1;stroke:#4169e1;" x="347.245714" xlink:href="#m0a8e9ab691" y="270.153763"/>
     <use style="fill:#4169e1;stroke:#4169e1;" x="363.702857" xlink:href="#m0a8e9ab691" y="270.017627"/>
     <use style="fill:#4169e1;stroke:#4169e1;" x="380.16" xlink:href="#m0a8e9ab691" y="270.153763"/>
     <use style="fill:#4169e1;stroke:#4169e1;" x="396.617143" xlink:href="#m0a8e9ab691" y="270.153763"/>
     <use style="fill:#4169e1;stroke:#4169e1;" x="413.074286" xlink:href="#m0a8e9ab691" y="270.017627"/>
     <use style="fill:#4169e1;stroke:#4169e1;" x="429.531429" xlink:href="#m0a8e9ab691" y="269.881491"/>
    </g>
   </g>
   <g id="patch_3">
    <path d="M 92.16 276.48 
L 92.16 27.648 
" style="fill:none;stroke:#262626;stroke-linecap:square;stroke-linejoin:miter;stroke-width:0.8;"/>
   </g>
   <g id="patch_4">
    <path d="M 92.16 276.48 
L 437.76 276.48 
" style="fill:none;stroke:#262626;stroke-linecap:square;stroke-linejoin:miter;stroke-width:0.8;"/>
   </g>
   <g id="text_12">
    <text style="fill:#262626;font-family:DejaVu Sans;font-size:20px;font-style:normal;font-weight:bold;text-anchor:middle;" transform="rotate(-0, 264.96, 21.648)" x="264.96" y="21.648">CDR3 (mean 0.890)</text>
   </g>
  </g>
 </g>
 <defs>
  <clipPath id="p6b9a2dcc5a">
   <rect height="248.832" width="345.6" x="92.16" y="27.648"/>
  </clipPath>
 </defs>
</svg>
