<?xml version="1.0" encoding="utf-8" standalone="no"?>
<!DOCTYPE svg PUBLIC "-//W3C//DTD SVG 1.1//EN"
  "http://www.w3.org/Graphics/SVG/1.1/DTD/svg11.dtd">
<!-- Created with matplotlib (http://matplotlib.org/) -->
<svg height="345.6pt" version="1.1" viewBox="0 0 460.8 345.6" width="460.8pt" xmlns="http://www.w3.org/2000/svg" xmlns:xlink="http://www.w3.org/1999/xlink">
 <defs>
  <style type="text/css">
*{stroke-linecap:butt;stroke-linejoin:round;}
  </style>
 </defs>
 <g id="figure_1">
  <g id="patch_1">
   <path d="M 0 345.6 
L 460.8 345.6 
L 460.8 0 
L 0 0 
z
" style="fill:#ffffff;"/>
  </g>
  <g id="axes_1">
   <g id="patch_2">
    <path d="M 59.509375 281.133594 
L 416.114875 281.133594 
L 416.114875 39.232031 
L 59.509375 39.232031 
z
" style="fill:#ffffff;"/>
   </g>
   <g id="matplotlib.axis_1">
    <g id="xtick_1">
     <g id="line2d_1">
      <defs>
       <path d="M 0 0 
L 0 3.5 
" id="m0461422727" style="stroke:#262626;stroke-width:0.8;"/>
      </defs>
      <g>
       <use style="fill:#262626;stroke:#262626;stroke-width:0.8;" x="101.136807" xlink:href="#m0461422727" y="281.133594"/>
      </g>
     </g>
     <g id="text_1">
      <text style="fill:#262626;font-family:Lato;font-size:15px;font-style:normal;font-weight:600;text-anchor:middle;" transform="rotate(-0, 101.136807, 299.278125)" x="101.136807" y="299.278125">1</text>
     </g>
    </g>
    <g id="xtick_2">
     <g id="line2d_2">
      <g>
       <use style="fill:#262626;stroke:#262626;stroke-width:0.8;" x="168.23606" xlink:href="#m0461422727" y="281.133594"/>
      </g>
     </g>
     <g id="text_2">
      <text style="fill:#262626;font-family:Lato;font-size:15px;font-style:normal;font-weight:600;text-anchor:middle;" transform="rotate(-0, 168.23606, 299.278125)" x="168.23606" y="299.278125">2</text>
     </g>
    </g>
    <g id="xtick_3">
     <g id="line2d_3">
      <g>
       <use style="fill:#262626;stroke:#262626;stroke-width:0.8;" x="235.335313" xlink:href="#m0461422727" y="281.133594"/>
      </g>
     </g>
     <g id="text_3">
      <text style="fill:#262626;font-family:Lato;font-size:15px;font-style:normal;font-weight:600;text-anchor:middle;" transform="rotate(-0, 235.335313, 299.278125)" x="235.335313" y="299.278125">3</text>
     </g>
    </g>
    <g id="xtick_4">
     <g id="line2d_4">
      <g>
       <use style="fill:#262626;stroke:#262626;stroke-width:0.8;" x="302.434566" xlink:href="#m0461422727" y="281.133594"/>
      </g>
     </g>
     <g id="text_4">
      <text style="fill:#262626;font-family:Lato;font-size:15px;font-style:normal;font-weight:600;text-anchor:middle;" transform="rotate(-0, 302.434566, 299.278125)" x="302.434566" y="299.278125">4</text>
     </g>
    </g>
    <g id="xtick_5">
     <g id="line2d_5">
      <g>
       <use style="fill:#262626;stroke:#262626;stroke-width:0.8;" x="369.533819" xlink:href="#m0461422727" y="281.133594"/>
      </g>
     </g>
     <g id="text_5">
      <text style="fill:#262626;font-family:Lato;font-size:15px;font-style:normal;font-weight:600;text-anchor:middle;" transform="rotate(-0, 369.533819, 299.278125)" x="369.533819" y="299.278125">5</text>
     </g>
    </g>
    <g id="text_6">
     <text style="fill:#262626;font-family:Lato;font-size:20px;font-style:normal;font-weight:600;text-anchor:middle;" transform="rotate(-0, 237.812125, 320.65)" x="237.812125" y="320.65">lb ratio</text>
    </g>
   </g>
   <g id="matplotlib.axis_2">
    <g id="ytick_1">
     <g id="line2d_6">
      <defs>
       <path d="M 0 0 
L -3.5 0 
" id="me85224476a" style="stroke:#262626;stroke-width:0.8;"/>
      </defs>
      <g>
       <use style="fill:#262626;stroke:#262626;stroke-width:0.8;" x="59.509375" xlink:href="#me85224476a" y="281.133594"/>
      </g>
     </g>
     <g id="text_7">
      <text style="fill:#262626;font-family:Lato;font-size:15px;font-style:normal;font-weight:600;text-anchor:end;" transform="rotate(-0, 52.509375, 286.705859)" x="52.509375" y="286.705859">0</text>
     </g>
    </g>
    <g id="ytick_2">
     <g id="line2d_7">
      <g>
       <use style="fill:#262626;stroke:#262626;stroke-width:0.8;" x="59.509375" xlink:href="#me85224476a" y="228.546298"/>
      </g>
     </g>
     <g id="text_8">
      <text style="fill:#262626;font-family:Lato;font-size:15px;font-style:normal;font-weight:600;text-anchor:end;" transform="rotate(-0, 52.509375, 234.118563)" x="52.509375" y="234.118563">1</text>
     </g>
    </g>
    <g id="ytick_3">
     <g id="line2d_8">
      <g>
       <use style="fill:#262626;stroke:#262626;stroke-width:0.8;" x="59.509375" xlink:href="#me85224476a" y="175.959001"/>
      </g>
     </g>
     <g id="text_9">
      <text style="fill:#262626;font-family:Lato;font-size:15px;font-style:normal;font-weight:600;text-anchor:end;" transform="rotate(-0, 52.509375, 181.531267)" x="52.509375" y="181.531267">2</text>
     </g>
    </g>
    <g id="ytick_4">
     <g id="line2d_9">
      <g>
       <use style="fill:#262626;stroke:#262626;stroke-width:0.8;" x="59.509375" xlink:href="#me85224476a" y="123.371705"/>
      </g>
     </g>
     <g id="text_10">
      <text style="fill:#262626;font-family:Lato;font-size:15px;font-style:normal;font-weight:600;text-anchor:end;" transform="rotate(-0, 52.509375, 128.943971)" x="52.509375" y="128.943971">3</text>
     </g>
    </g>
    <g id="ytick_5">
     <g id="line2d_10">
      <g>
       <use style="fill:#262626;stroke:#262626;stroke-width:0.8;" x="59.509375" xlink:href="#me85224476a" y="70.784409"/>
      </g>
     </g>
     <g id="text_11">
      <text style="fill:#262626;font-family:Lato;font-size:15px;font-style:normal;font-weight:600;text-anchor:end;" transform="rotate(-0, 52.509375, 76.356675)" x="52.509375" y="76.356675">4</text>
     </g>
    </g>
    <g id="text_12">
     <text style="fill:#262626;font-family:Lato;font-size:20px;font-style:normal;font-weight:600;text-anchor:middle;" transform="rotate(-90, 36.459375, 160.182813)" x="36.459375" y="160.182813">counts</text>
    </g>
   </g>
   <g id="LineCollection_1">
    <path clip-path="url(#p756d21bd3d)" d="M 40.405509 281.133594 
L 40.405509 281.133594 
" style="fill:none;stroke:#006600;stroke-opacity:0.7;stroke-width:5;"/>
    <path clip-path="url(#p756d21bd3d)" d="M 53.14142 281.133594 
L 53.14142 281.133594 
" style="fill:none;stroke:#006600;stroke-opacity:0.7;stroke-width:5;"/>
    <path clip-path="url(#p756d21bd3d)" d="M 65.87733 250.328669 
L 65.87733 101.589334 
" style="fill:none;stroke:#006600;stroke-opacity:0.7;stroke-width:5;"/>
    <path clip-path="url(#p756d21bd3d)" d="M 78.613241 175.959001 
L 78.613241 -1 
" style="fill:none;stroke:#006600;stroke-opacity:0.7;stroke-width:5;"/>
    <path clip-path="url(#p756d21bd3d)" d="M 91.349152 250.328669 
L 91.349152 101.589334 
" style="fill:none;stroke:#006600;stroke-opacity:0.7;stroke-width:5;"/>
    <path clip-path="url(#p756d21bd3d)" d="M 104.085063 250.328669 
L 104.085063 101.589334 
" style="fill:none;stroke:#006600;stroke-opacity:0.7;stroke-width:5;"/>
    <path clip-path="url(#p756d21bd3d)" d="M 116.820973 214.455574 
L 116.820973 32.287836 
" style="fill:none;stroke:#006600;stroke-opacity:0.7;stroke-width:5;"/>
    <path clip-path="url(#p756d21bd3d)" d="M 129.556884 281.133594 
L 129.556884 281.133594 
" style="fill:none;stroke:#006600;stroke-opacity:0.7;stroke-width:5;"/>
    <path clip-path="url(#p756d21bd3d)" d="M 142.292795 214.455574 
L 142.292795 32.287836 
" style="fill:none;stroke:#006600;stroke-opacity:0.7;stroke-width:5;"/>
    <path clip-path="url(#p756d21bd3d)" d="M 155.028705 250.328669 
L 155.028705 101.589334 
" style="fill:none;stroke:#006600;stroke-opacity:0.7;stroke-width:5;"/>
    <path clip-path="url(#p756d21bd3d)" d="M 167.764616 281.133594 
L 167.764616 175.959001 
" style="fill:none;stroke:#006600;stroke-opacity:0.7;stroke-width:5;"/>
    <path clip-path="url(#p756d21bd3d)" d="M 180.500527 281.133594 
L 180.500527 175.959001 
" style="fill:none;stroke:#006600;stroke-opacity:0.7;stroke-width:5;"/>
    <path clip-path="url(#p756d21bd3d)" d="M 193.236438 281.133594 
L 193.236438 175.959001 
" style="fill:none;stroke:#006600;stroke-opacity:0.7;stroke-width:5;"/>
    <path clip-path="url(#p756d21bd3d)" d="M 205.972348 250.328669 
L 205.972348 101.589334 
" style="fill:none;stroke:#006600;stroke-opacity:0.7;stroke-width:5;"/>
    <path clip-path="url(#p756d21bd3d)" d="M 218.708259 214.455574 
L 218.708259 32.287836 
" style="fill:none;stroke:#006600;stroke-opacity:0.7;stroke-width:5;"/>
    <path clip-path="url(#p756d21bd3d)" d="M 231.44417 281.133594 
L 231.44417 281.133594 
" style="fill:none;stroke:#006600;stroke-opacity:0.7;stroke-width:5;"/>
    <path clip-path="url(#p756d21bd3d)" d="M 244.18008 281.133594 
L 244.18008 281.133594 
" style="fill:none;stroke:#006600;stroke-opacity:0.7;stroke-width:5;"/>
    <path clip-path="url(#p756d21bd3d)" d="M 256.915991 281.133594 
L 256.915991 175.959001 
" style="fill:none;stroke:#006600;stroke-opacity:0.7;stroke-width:5;"/>
    <path clip-path="url(#p756d21bd3d)" d="M 269.651902 281.133594 
L 269.651902 281.133594 
" style="fill:none;stroke:#006600;stroke-opacity:0.7;stroke-width:5;"/>
    <path clip-path="url(#p756d21bd3d)" d="M 282.387813 281.133594 
L 282.387813 175.959001 
" style="fill:none;stroke:#006600;stroke-opacity:0.7;stroke-width:5;"/>
    <path clip-path="url(#p756d21bd3d)" d="M 295.123723 250.328669 
L 295.123723 101.589334 
" style="fill:none;stroke:#006600;stroke-opacity:0.7;stroke-width:5;"/>
    <path clip-path="url(#p756d21bd3d)" d="M 307.859634 281.133594 
L 307.859634 281.133594 
" style="fill:none;stroke:#006600;stroke-opacity:0.7;stroke-width:5;"/>
    <path clip-path="url(#p756d21bd3d)" d="M 320.595545 281.133594 
L 320.595545 281.133594 
" style="fill:none;stroke:#006600;stroke-opacity:0.7;stroke-width:5;"/>
    <path clip-path="url(#p756d21bd3d)" d="M 333.331455 281.133594 
L 333.331455 281.133594 
" style="fill:none;stroke:#006600;stroke-opacity:0.7;stroke-width:5;"/>
    <path clip-path="url(#p756d21bd3d)" d="M 346.067366 281.133594 
L 346.067366 175.959001 
" style="fill:none;stroke:#006600;stroke-opacity:0.7;stroke-width:5;"/>
    <path clip-path="url(#p756d21bd3d)" d="M 358.803277 281.133594 
L 358.803277 281.133594 
" style="fill:none;stroke:#006600;stroke-opacity:0.7;stroke-width:5;"/>
    <path clip-path="url(#p756d21bd3d)" d="M 371.539188 281.133594 
L 371.539188 281.133594 
" style="fill:none;stroke:#006600;stroke-opacity:0.7;stroke-width:5;"/>
    <path clip-path="url(#p756d21bd3d)" d="M 384.275098 281.133594 
L 384.275098 281.133594 
" style="fill:none;stroke:#006600;stroke-opacity:0.7;stroke-width:5;"/>
    <path clip-path="url(#p756d21bd3d)" d="M 397.011009 281.133594 
L 397.011009 281.133594 
" style="fill:none;stroke:#006600;stroke-opacity:0.7;stroke-width:5;"/>
    <path clip-path="url(#p756d21bd3d)" d="M 409.74692 281.133594 
L 409.74692 281.133594 
" style="fill:none;stroke:#006600;stroke-opacity:0.7;stroke-width:5;"/>
   </g>
   <g id="LineCollection_2">
    <path clip-path="url(#p756d21bd3d)" d="M 40.405509 281.133594 
L 40.405509 281.133594 
" style="fill:none;stroke:#8b0000;stroke-opacity:0.7;stroke-width:3;"/>
    <path clip-path="url(#p756d21bd3d)" d="M 53.14142 281.133594 
L 53.14142 281.133594 
" style="fill:none;stroke:#8b0000;stroke-opacity:0.7;stroke-width:3;"/>
    <path clip-path="url(#p756d21bd3d)" d="M 65.87733 281.133594 
L 65.87733 281.133594 
" style="fill:none;stroke:#8b0000;stroke-opacity:0.7;stroke-width:3;"/>
    <path clip-path="url(#p756d21bd3d)" d="M 78.613241 281.133594 
L 78.613241 281.133594 
" style="fill:none;stroke:#8b0000;stroke-opacity:0.7;stroke-width:3;"/>
    <path clip-path="url(#p756d21bd3d)" d="M 91.349152 281.133594 
L 91.349152 175.959001 
" style="fill:none;stroke:#8b0000;stroke-opacity:0.7;stroke-width:3;"/>
    <path clip-path="url(#p756d21bd3d)" d="M 104.085063 281.133594 
L 104.085063 281.133594 
" style="fill:none;stroke:#8b0000;stroke-opacity:0.7;stroke-width:3;"/>
    <path clip-path="url(#p756d21bd3d)" d="M 116.820973 281.133594 
L 116.820973 281.133594 
" style="fill:none;stroke:#8b0000;stroke-opacity:0.7;stroke-width:3;"/>
    <path clip-path="url(#p756d21bd3d)" d="M 129.556884 281.133594 
L 129.556884 281.133594 
" style="fill:none;stroke:#8b0000;stroke-opacity:0.7;stroke-width:3;"/>
    <path clip-path="url(#p756d21bd3d)" d="M 142.292795 281.133594 
L 142.292795 281.133594 
" style="fill:none;stroke:#8b0000;stroke-opacity:0.7;stroke-width:3;"/>
    <path clip-path="url(#p756d21bd3d)" d="M 155.028705 281.133594 
L 155.028705 281.133594 
" style="fill:none;stroke:#8b0000;stroke-opacity:0.7;stroke-width:3;"/>
    <path clip-path="url(#p756d21bd3d)" d="M 167.764616 250.328669 
L 167.764616 101.589334 
" style="fill:none;stroke:#8b0000;stroke-opacity:0.7;stroke-width:3;"/>
    <path clip-path="url(#p756d21bd3d)" d="M 180.500527 281.133594 
L 180.500527 281.133594 
" style="fill:none;stroke:#8b0000;stroke-opacity:0.7;stroke-width:3;"/>
    <path clip-path="url(#p756d21bd3d)" d="M 193.236438 281.133594 
L 193.236438 281.133594 
" style="fill:none;stroke:#8b0000;stroke-opacity:0.7;stroke-width:3;"/>
    <path clip-path="url(#p756d21bd3d)" d="M 205.972348 281.133594 
L 205.972348 281.133594 
" style="fill:none;stroke:#8b0000;stroke-opacity:0.7;stroke-width:3;"/>
    <path clip-path="url(#p756d21bd3d)" d="M 218.708259 281.133594 
L 218.708259 281.133594 
" style="fill:none;stroke:#8b0000;stroke-opacity:0.7;stroke-width:3;"/>
    <path clip-path="url(#p756d21bd3d)" d="M 231.44417 281.133594 
L 231.44417 281.133594 
" style="fill:none;stroke:#8b0000;stroke-opacity:0.7;stroke-width:3;"/>
    <path clip-path="url(#p756d21bd3d)" d="M 244.18008 281.133594 
L 244.18008 281.133594 
" style="fill:none;stroke:#8b0000;stroke-opacity:0.7;stroke-width:3;"/>
    <path clip-path="url(#p756d21bd3d)" d="M 256.915991 281.133594 
L 256.915991 281.133594 
" style="fill:none;stroke:#8b0000;stroke-opacity:0.7;stroke-width:3;"/>
    <path clip-path="url(#p756d21bd3d)" d="M 269.651902 281.133594 
L 269.651902 281.133594 
" style="fill:none;stroke:#8b0000;stroke-opacity:0.7;stroke-width:3;"/>
    <path clip-path="url(#p756d21bd3d)" d="M 282.387813 281.133594 
L 282.387813 281.133594 
" style="fill:none;stroke:#8b0000;stroke-opacity:0.7;stroke-width:3;"/>
    <path clip-path="url(#p756d21bd3d)" d="M 295.123723 281.133594 
L 295.123723 281.133594 
" style="fill:none;stroke:#8b0000;stroke-opacity:0.7;stroke-width:3;"/>
    <path clip-path="url(#p756d21bd3d)" d="M 307.859634 281.133594 
L 307.859634 281.133594 
" style="fill:none;stroke:#8b0000;stroke-opacity:0.7;stroke-width:3;"/>
    <path clip-path="url(#p756d21bd3d)" d="M 320.595545 281.133594 
L 320.595545 281.133594 
" style="fill:none;stroke:#8b0000;stroke-opacity:0.7;stroke-width:3;"/>
    <path clip-path="url(#p756d21bd3d)" d="M 333.331455 281.133594 
L 333.331455 281.133594 
" style="fill:none;stroke:#8b0000;stroke-opacity:0.7;stroke-width:3;"/>
    <path clip-path="url(#p756d21bd3d)" d="M 346.067366 281.133594 
L 346.067366 281.133594 
" style="fill:none;stroke:#8b0000;stroke-opacity:0.7;stroke-width:3;"/>
    <path clip-path="url(#p756d21bd3d)" d="M 358.803277 281.133594 
L 358.803277 281.133594 
" style="fill:none;stroke:#8b0000;stroke-opacity:0.7;stroke-width:3;"/>
    <path clip-path="url(#p756d21bd3d)" d="M 371.539188 281.133594 
L 371.539188 281.133594 
" style="fill:none;stroke:#8b0000;stroke-opacity:0.7;stroke-width:3;"/>
    <path clip-path="url(#p756d21bd3d)" d="M 384.275098 281.133594 
L 384.275098 281.133594 
" style="fill:none;stroke:#8b0000;stroke-opacity:0.7;stroke-width:3;"/>
    <path clip-path="url(#p756d21bd3d)" d="M 397.011009 281.133594 
L 397.011009 281.133594 
" style="fill:none;stroke:#8b0000;stroke-opacity:0.7;stroke-width:3;"/>
    <path clip-path="url(#p756d21bd3d)" d="M 409.74692 281.133594 
L 409.74692 175.959001 
" style="fill:none;stroke:#8b0000;stroke-opacity:0.7;stroke-width:3;"/>
   </g>
   <g id="line2d_11">
    <path clip-path="url(#p756d21bd3d)" d="M 40.405509 281.133594 
L 53.14142 281.133594 
L 65.87733 175.959001 
L 78.613241 70.784409 
L 91.349152 175.959001 
L 104.085063 175.959001 
L 116.820973 123.371705 
L 129.556884 281.133594 
L 142.292795 123.371705 
L 155.028705 175.959001 
L 167.764616 228.546298 
L 180.500527 228.546298 
L 193.236438 228.546298 
L 205.972348 175.959001 
L 218.708259 123.371705 
L 231.44417 281.133594 
L 244.18008 281.133594 
L 256.915991 228.546298 
L 269.651902 281.133594 
L 282.387813 228.546298 
L 295.123723 175.959001 
L 307.859634 281.133594 
L 320.595545 281.133594 
L 333.331455 281.133594 
L 346.067366 228.546298 
L 358.803277 281.133594 
L 371.539188 281.133594 
L 384.275098 281.133594 
L 397.011009 281.133594 
L 409.74692 281.133594 
" style="fill:none;stroke:#006600;stroke-linecap:round;stroke-opacity:0.7;stroke-width:5;"/>
    <defs>
     <path d="M 0 3.25 
C 0.86191 3.25 1.688635 2.907559 2.298097 2.298097 
C 2.907559 1.688635 3.25 0.86191 3.25 0 
C 3.25 -0.86191 2.907559 -1.688635 2.298097 -2.298097 
C 1.688635 -2.907559 0.86191 -3.25 0 -3.25 
C -0.86191 -3.25 -1.688635 -2.907559 -2.298097 -2.298097 
C -2.907559 -1.688635 -3.25 -0.86191 -3.25 0 
C -3.25 0.86191 -2.907559 1.688635 -2.298097 2.298097 
C -1.688635 2.907559 -0.86191 3.25 0 3.25 
z
" id="m0e2600ddc2" style="stroke:#006600;stroke-opacity:0.7;"/>
    </defs>
    <g clip-path="url(#p756d21bd3d)">
     <use style="fill:#006600;fill-opacity:0.7;stroke:#006600;stroke-opacity:0.7;" x="40.405509" xlink:href="#m0e2600ddc2" y="281.133594"/>
     <use style="fill:#006600;fill-opacity:0.7;stroke:#006600;stroke-opacity:0.7;" x="53.14142" xlink:href="#m0e2600ddc2" y="281.133594"/>
     <use style="fill:#006600;fill-opacity:0.7;stroke:#006600;stroke-opacity:0.7;" x="65.87733" xlink:href="#m0e2600ddc2" y="175.959001"/>
     <use style="fill:#006600;fill-opacity:0.7;stroke:#006600;stroke-opacity:0.7;" x="78.613241" xlink:href="#m0e2600ddc2" y="70.784409"/>
     <use style="fill:#006600;fill-opacity:0.7;stroke:#006600;stroke-opacity:0.7;" x="91.349152" xlink:href="#m0e2600ddc2" y="175.959001"/>
     <use style="fill:#006600;fill-opacity:0.7;stroke:#006600;stroke-opacity:0.7;" x="104.085063" xlink:href="#m0e2600ddc2" y="175.959001"/>
     <use style="fill:#006600;fill-opacity:0.7;stroke:#006600;stroke-opacity:0.7;" x="116.820973" xlink:href="#m0e2600ddc2" y="123.371705"/>
     <use style="fill:#006600;fill-opacity:0.7;stroke:#006600;stroke-opacity:0.7;" x="129.556884" xlink:href="#m0e2600ddc2" y="281.133594"/>
     <use style="fill:#006600;fill-opacity:0.7;stroke:#006600;stroke-opacity:0.7;" x="142.292795" xlink:href="#m0e2600ddc2" y="123.371705"/>
     <use style="fill:#006600;fill-opacity:0.7;stroke:#006600;stroke-opacity:0.7;" x="155.028705" xlink:href="#m0e2600ddc2" y="175.959001"/>
     <use style="fill:#006600;fill-opacity:0.7;stroke:#006600;stroke-opacity:0.7;" x="167.764616" xlink:href="#m0e2600ddc2" y="228.546298"/>
     <use style="fill:#006600;fill-opacity:0.7;stroke:#006600;stroke-opacity:0.7;" x="180.500527" xlink:href="#m0e2600ddc2" y="228.546298"/>
     <use style="fill:#006600;fill-opacity:0.7;stroke:#006600;stroke-opacity:0.7;" x="193.236438" xlink:href="#m0e2600ddc2" y="228.546298"/>
     <use style="fill:#006600;fill-opacity:0.7;stroke:#006600;stroke-opacity:0.7;" x="205.972348" xlink:href="#m0e2600ddc2" y="175.959001"/>
     <use style="fill:#006600;fill-opacity:0.7;stroke:#006600;stroke-opacity:0.7;" x="218.708259" xlink:href="#m0e2600ddc2" y="123.371705"/>
     <use style="fill:#006600;fill-opacity:0.7;stroke:#006600;stroke-opacity:0.7;" x="231.44417" xlink:href="#m0e2600ddc2" y="281.133594"/>
     <use style="fill:#006600;fill-opacity:0.7;stroke:#006600;stroke-opacity:0.7;" x="244.18008" xlink:href="#m0e2600ddc2" y="281.133594"/>
     <use style="fill:#006600;fill-opacity:0.7;stroke:#006600;stroke-opacity:0.7;" x="256.915991" xlink:href="#m0e2600ddc2" y="228.546298"/>
     <use style="fill:#006600;fill-opacity:0.7;stroke:#006600;stroke-opacity:0.7;" x="269.651902" xlink:href="#m0e2600ddc2" y="281.133594"/>
     <use style="fill:#006600;fill-opacity:0.7;stroke:#006600;stroke-opacity:0.7;" x="282.387813" xlink:href="#m0e2600ddc2" y="228.546298"/>
     <use style="fill:#006600;fill-opacity:0.7;stroke:#006600;stroke-opacity:0.7;" x="295.123723" xlink:href="#m0e2600ddc2" y="175.959001"/>
     <use style="fill:#006600;fill-opacity:0.7;stroke:#006600;stroke-opacity:0.7;" x="307.859634" xlink:href="#m0e2600ddc2" y="281.133594"/>
     <use style="fill:#006600;fill-opacity:0.7;stroke:#006600;stroke-opacity:0.7;" x="320.595545" xlink:href="#m0e2600ddc2" y="281.133594"/>
     <use style="fill:#006600;fill-opacity:0.7;stroke:#006600;stroke-opacity:0.7;" x="333.331455" xlink:href="#m0e2600ddc2" y="281.133594"/>
     <use style="fill:#006600;fill-opacity:0.7;stroke:#006600;stroke-opacity:0.7;" x="346.067366" xlink:href="#m0e2600ddc2" y="228.546298"/>
     <use style="fill:#006600;fill-opacity:0.7;stroke:#006600;stroke-opacity:0.7;" x="358.803277" xlink:href="#m0e2600ddc2" y="281.133594"/>
     <use style="fill:#006600;fill-opacity:0.7;stroke:#006600;stroke-opacity:0.7;" x="371.539188" xlink:href="#m0e2600ddc2" y="281.133594"/>
     <use style="fill:#006600;fill-opacity:0.7;stroke:#006600;stroke-opacity:0.7;" x="384.275098" xlink:href="#m0e2600ddc2" y="281.133594"/>
     <use style="fill:#006600;fill-opacity:0.7;stroke:#006600;stroke-opacity:0.7;" x="397.011009" xlink:href="#m0e2600ddc2" y="281.133594"/>
     <use style="fill:#006600;fill-opacity:0.7;stroke:#006600;stroke-opacity:0.7;" x="409.74692" xlink:href="#m0e2600ddc2" y="281.133594"/>
    </g>
   </g>
   <g id="line2d_12">
    <path clip-path="url(#p756d21bd3d)" d="M 40.405509 281.133594 
L 53.14142 281.133594 
L 65.87733 281.133594 
L 78.613241 281.133594 
L 91.349152 228.546298 
L 104.085063 281.133594 
L 116.820973 281.133594 
L 129.556884 281.133594 
L 142.292795 281.133594 
L 155.028705 281.133594 
L 167.764616 175.959001 
L 180.500527 281.133594 
L 193.236438 281.133594 
L 205.972348 281.133594 
L 218.708259 281.133594 
L 231.44417 281.133594 
L 244.18008 281.133594 
L 256.915991 281.133594 
L 269.651902 281.133594 
L 282.387813 281.133594 
L 295.123723 281.133594 
L 307.859634 281.133594 
L 320.595545 281.133594 
L 333.331455 281.133594 
L 346.067366 281.133594 
L 358.803277 281.133594 
L 371.539188 281.133594 
L 384.275098 281.133594 
L 397.011009 281.133594 
L 409.74692 228.546298 
" style="fill:none;stroke:#8b0000;stroke-linecap:round;stroke-opacity:0.7;stroke-width:3;"/>
    <defs>
     <path d="M 0 3.25 
C 0.86191 3.25 1.688635 2.907559 2.298097 2.298097 
C 2.907559 1.688635 3.25 0.86191 3.25 0 
C 3.25 -0.86191 2.907559 -1.688635 2.298097 -2.298097 
C 1.688635 -2.907559 0.86191 -3.25 0 -3.25 
C -0.86191 -3.25 -1.688635 -2.907559 -2.298097 -2.298097 
C -2.907559 -1.688635 -3.25 -0.86191 -3.25 0 
C -3.25 0.86191 -2.907559 1.688635 -2.298097 2.298097 
C -1.688635 2.907559 -0.86191 3.25 0 3.25 
z
" id="mb4cd0c7f67" style="stroke:#8b0000;stroke-opacity:0.7;"/>
    </defs>
    <g clip-path="url(#p756d21bd3d)">
     <use style="fill:#8b0000;fill-opacity:0.7;stroke:#8b0000;stroke-opacity:0.7;" x="40.405509" xlink:href="#mb4cd0c7f67" y="281.133594"/>
     <use style="fill:#8b0000;fill-opacity:0.7;stroke:#8b0000;stroke-opacity:0.7;" x="53.14142" xlink:href="#mb4cd0c7f67" y="281.133594"/>
     <use style="fill:#8b0000;fill-opacity:0.7;stroke:#8b0000;stroke-opacity:0.7;" x="65.87733" xlink:href="#mb4cd0c7f67" y="281.133594"/>
     <use style="fill:#8b0000;fill-opacity:0.7;stroke:#8b0000;stroke-opacity:0.7;" x="78.613241" xlink:href="#mb4cd0c7f67" y="281.133594"/>
     <use style="fill:#8b0000;fill-opacity:0.7;stroke:#8b0000;stroke-opacity:0.7;" x="91.349152" xlink:href="#mb4cd0c7f67" y="228.546298"/>
     <use style="fill:#8b0000;fill-opacity:0.7;stroke:#8b0000;stroke-opacity:0.7;" x="104.085063" xlink:href="#mb4cd0c7f67" y="281.133594"/>
     <use style="fill:#8b0000;fill-opacity:0.7;stroke:#8b0000;stroke-opacity:0.7;" x="116.820973" xlink:href="#mb4cd0c7f67" y="281.133594"/>
     <use style="fill:#8b0000;fill-opacity:0.7;stroke:#8b0000;stroke-opacity:0.7;" x="129.556884" xlink:href="#mb4cd0c7f67" y="281.133594"/>
     <use style="fill:#8b0000;fill-opacity:0.7;stroke:#8b0000;stroke-opacity:0.7;" x="142.292795" xlink:href="#mb4cd0c7f67" y="281.133594"/>
     <use style="fill:#8b0000;fill-opacity:0.7;stroke:#8b0000;stroke-opacity:0.7;" x="155.028705" xlink:href="#mb4cd0c7f67" y="281.133594"/>
     <use style="fill:#8b0000;fill-opacity:0.7;stroke:#8b0000;stroke-opacity:0.7;" x="167.764616" xlink:href="#mb4cd0c7f67" y="175.959001"/>
     <use style="fill:#8b0000;fill-opacity:0.7;stroke:#8b0000;stroke-opacity:0.7;" x="180.500527" xlink:href="#mb4cd0c7f67" y="281.133594"/>
     <use style="fill:#8b0000;fill-opacity:0.7;stroke:#8b0000;stroke-opacity:0.7;" x="193.236438" xlink:href="#mb4cd0c7f67" y="281.133594"/>
     <use style="fill:#8b0000;fill-opacity:0.7;stroke:#8b0000;stroke-opacity:0.7;" x="205.972348" xlink:href="#mb4cd0c7f67" y="281.133594"/>
     <use style="fill:#8b0000;fill-opacity:0.7;stroke:#8b0000;stroke-opacity:0.7;" x="218.708259" xlink:href="#mb4cd0c7f67" y="281.133594"/>
     <use style="fill:#8b0000;fill-opacity:0.7;stroke:#8b0000;stroke-opacity:0.7;" x="231.44417" xlink:href="#mb4cd0c7f67" y="281.133594"/>
     <use style="fill:#8b0000;fill-opacity:0.7;stroke:#8b0000;stroke-opacity:0.7;" x="244.18008" xlink:href="#mb4cd0c7f67" y="281.133594"/>
     <use style="fill:#8b0000;fill-opacity:0.7;stroke:#8b0000;stroke-opacity:0.7;" x="256.915991" xlink:href="#mb4cd0c7f67" y="281.133594"/>
     <use style="fill:#8b0000;fill-opacity:0.7;stroke:#8b0000;stroke-opacity:0.7;" x="269.651902" xlink:href="#mb4cd0c7f67" y="281.133594"/>
     <use style="fill:#8b0000;fill-opacity:0.7;stroke:#8b0000;stroke-opacity:0.7;" x="282.387813" xlink:href="#mb4cd0c7f67" y="281.133594"/>
     <use style="fill:#8b0000;fill-opacity:0.7;stroke:#8b0000;stroke-opacity:0.7;" x="295.123723" xlink:href="#mb4cd0c7f67" y="281.133594"/>
     <use style="fill:#8b0000;fill-opacity:0.7;stroke:#8b0000;stroke-opacity:0.7;" x="307.859634" xlink:href="#mb4cd0c7f67" y="281.133594"/>
     <use style="fill:#8b0000;fill-opacity:0.7;stroke:#8b0000;stroke-opacity:0.7;" x="320.595545" xlink:href="#mb4cd0c7f67" y="281.133594"/>
     <use style="fill:#8b0000;fill-opacity:0.7;stroke:#8b0000;stroke-opacity:0.7;" x="333.331455" xlink:href="#mb4cd0c7f67" y="281.133594"/>
     <use style="fill:#8b0000;fill-opacity:0.7;stroke:#8b0000;stroke-opacity:0.7;" x="346.067366" xlink:href="#mb4cd0c7f67" y="281.133594"/>
     <use style="fill:#8b0000;fill-opacity:0.7;stroke:#8b0000;stroke-opacity:0.7;" x="358.803277" xlink:href="#mb4cd0c7f67" y="281.133594"/>
     <use style="fill:#8b0000;fill-opacity:0.7;stroke:#8b0000;stroke-opacity:0.7;" x="371.539188" xlink:href="#mb4cd0c7f67" y="281.133594"/>
     <use style="fill:#8b0000;fill-opacity:0.7;stroke:#8b0000;stroke-opacity:0.7;" x="384.275098" xlink:href="#mb4cd0c7f67" y="281.133594"/>
     <use style="fill:#8b0000;fill-opacity:0.7;stroke:#8b0000;stroke-opacity:0.7;" x="397.011009" xlink:href="#mb4cd0c7f67" y="281.133594"/>
     <use style="fill:#8b0000;fill-opacity:0.7;stroke:#8b0000;stroke-opacity:0.7;" x="409.74692" xlink:href="#mb4cd0c7f67" y="228.546298"/>
    </g>
   </g>
   <g id="patch_3">
    <path d="M 59.509375 281.133594 
L 59.509375 39.232031 
" style="fill:none;stroke:#262626;stroke-linecap:square;stroke-linejoin:miter;stroke-width:0.8;"/>
   </g>
   <g id="patch_4">
    <path d="M 59.509375 281.133594 
L 416.114875 281.133594 
" style="fill:none;stroke:#262626;stroke-linecap:square;stroke-linejoin:miter;stroke-width:0.8;"/>
   </g>
   <g id="text_13">
    <text style="fill:#262626;font-family:Lato;font-size:15px;font-style:normal;font-weight:bold;text-anchor:middle;" transform="rotate(-0, 237.812125, 33.232031)" x="237.812125" y="33.232031">lb ratio on true tree (cluster 0)</text>
   </g>
   <g id="legend_1">
    <g id="patch_5">
     <path d="M 319.265335 135.992656 
L 433.11846 135.992656 
Q 436.11846 135.992656 436.11846 132.992656 
L 436.11846 45.287969 
Q 436.11846 42.287969 433.11846 42.287969 
L 319.265335 42.287969 
Q 316.265335 42.287969 316.265335 45.287969 
L 316.265335 132.992656 
Q 316.265335 135.992656 319.265335 135.992656 
z
" style="fill:#ffffff;opacity:0.8;stroke:#cccccc;stroke-linejoin:miter;"/>
    </g>
    <g id="text_14">
     <text style="fill:#262626;font-family:Lato;font-size:20px;font-style:normal;font-weight:600;" transform="translate(322.265335 63.147344)">N steps to</text>
     <text style="fill:#262626;font-family:Lato;font-size:20px;font-style:normal;font-weight:600;" transform="translate(322.265335 84.328594)">aff. increase</text>
    </g>
    <g id="LineCollection_3">
     <path d="M 352.691116 108.573125 
L 352.691116 93.573125 
" style="fill:none;stroke:#006600;stroke-opacity:0.7;stroke-width:5;"/>
    </g>
    <g id="line2d_13">
     <path d="M 337.691116 101.073125 
L 367.691116 101.073125 
" style="fill:none;stroke:#006600;stroke-linecap:round;stroke-opacity:0.7;stroke-width:5;"/>
    </g>
    <g id="line2d_14">
     <g>
      <use style="fill:#006600;fill-opacity:0.7;stroke:#006600;stroke-opacity:0.7;" x="352.691116" xlink:href="#m0e2600ddc2" y="101.073125"/>
     </g>
    </g>
    <g id="text_15">
     <text style="fill:#262626;font-family:Lato;font-size:15px;font-style:normal;font-weight:600;text-anchor:start;" transform="rotate(-0, 379.691116, 106.323125)" x="379.691116" y="106.323125">not 0</text>
    </g>
    <g id="LineCollection_4">
     <path d="M 352.691116 129.730156 
L 352.691116 114.730156 
" style="fill:none;stroke:#8b0000;stroke-opacity:0.7;stroke-width:3;"/>
    </g>
    <g id="line2d_15">
     <path d="M 337.691116 122.230156 
L 367.691116 122.230156 
" style="fill:none;stroke:#8b0000;stroke-linecap:round;stroke-opacity:0.7;stroke-width:3;"/>
    </g>
    <g id="line2d_16">
     <g>
      <use style="fill:#8b0000;fill-opacity:0.7;stroke:#8b0000;stroke-opacity:0.7;" x="352.691116" xlink:href="#mb4cd0c7f67" y="122.230156"/>
     </g>
    </g>
    <g id="text_16">
     <text style="fill:#262626;font-family:Lato;font-size:15px;font-style:normal;font-weight:600;text-anchor:start;" transform="rotate(-0, 379.691116, 127.480156)" x="379.691116" y="127.480156">zero</text>
    </g>
   </g>
  </g>
 </g>
 <defs>
  <clipPath id="p756d21bd3d">
   <rect height="241.901562" width="356.6055" x="59.509375" y="39.232031"/>
  </clipPath>
 </defs>
</svg>
