<?xml version="1.0" encoding="utf-8" standalone="no"?>
<!DOCTYPE svg PUBLIC "-//W3C//DTD SVG 1.1//EN"
  "http://www.w3.org/Graphics/SVG/1.1/DTD/svg11.dtd">
<!-- Created with matplotlib (http://matplotlib.org/) -->
<svg height="345.6pt" version="1.1" viewBox="0 0 460.8 345.6" width="460.8pt" xmlns="http://www.w3.org/2000/svg" xmlns:xlink="http://www.w3.org/1999/xlink">
 <defs>
  <style type="text/css">
*{stroke-linecap:butt;stroke-linejoin:round;}
  </style>
 </defs>
 <g id="figure_1">
  <g id="patch_1">
   <path d="M 0 345.6 
L 460.8 345.6 
L 460.8 0 
L 0 0 
z
" style="fill:#ffffff;"/>
  </g>
  <g id="axes_1">
   <g id="patch_2">
    <path d="M 71.771875 281.133594 
L 422.394563 281.133594 
L 422.394563 39.232031 
L 71.771875 39.232031 
z
" style="fill:#ffffff;"/>
   </g>
   <g id="matplotlib.axis_1">
    <g id="xtick_1">
     <g id="line2d_1">
      <defs>
       <path d="M 0 0 
L 0 3.5 
" id="m8066fb8a64" style="stroke:#262626;stroke-width:0.8;"/>
      </defs>
      <g>
       <use style="fill:#262626;stroke:#262626;stroke-width:0.8;" x="112.700918" xlink:href="#m8066fb8a64" y="281.133594"/>
      </g>
     </g>
     <g id="text_1">
      <text style="fill:#262626;font-family:Lato;font-size:15px;font-style:normal;font-weight:600;text-anchor:middle;" transform="rotate(-0, 112.700918, 299.278125)" x="112.700918" y="299.278125">1</text>
     </g>
    </g>
    <g id="xtick_2">
     <g id="line2d_2">
      <g>
       <use style="fill:#262626;stroke:#262626;stroke-width:0.8;" x="178.674439" xlink:href="#m8066fb8a64" y="281.133594"/>
      </g>
     </g>
     <g id="text_2">
      <text style="fill:#262626;font-family:Lato;font-size:15px;font-style:normal;font-weight:600;text-anchor:middle;" transform="rotate(-0, 178.674439, 299.278125)" x="178.674439" y="299.278125">2</text>
     </g>
    </g>
    <g id="xtick_3">
     <g id="line2d_3">
      <g>
       <use style="fill:#262626;stroke:#262626;stroke-width:0.8;" x="244.64796" xlink:href="#m8066fb8a64" y="281.133594"/>
      </g>
     </g>
     <g id="text_3">
      <text style="fill:#262626;font-family:Lato;font-size:15px;font-style:normal;font-weight:600;text-anchor:middle;" transform="rotate(-0, 244.64796, 299.278125)" x="244.64796" y="299.278125">3</text>
     </g>
    </g>
    <g id="xtick_4">
     <g id="line2d_4">
      <g>
       <use style="fill:#262626;stroke:#262626;stroke-width:0.8;" x="310.621481" xlink:href="#m8066fb8a64" y="281.133594"/>
      </g>
     </g>
     <g id="text_4">
      <text style="fill:#262626;font-family:Lato;font-size:15px;font-style:normal;font-weight:600;text-anchor:middle;" transform="rotate(-0, 310.621481, 299.278125)" x="310.621481" y="299.278125">4</text>
     </g>
    </g>
    <g id="xtick_5">
     <g id="line2d_5">
      <g>
       <use style="fill:#262626;stroke:#262626;stroke-width:0.8;" x="376.595002" xlink:href="#m8066fb8a64" y="281.133594"/>
      </g>
     </g>
     <g id="text_5">
      <text style="fill:#262626;font-family:Lato;font-size:15px;font-style:normal;font-weight:600;text-anchor:middle;" transform="rotate(-0, 376.595002, 299.278125)" x="376.595002" y="299.278125">5</text>
     </g>
    </g>
    <g id="text_6">
     <text style="fill:#262626;font-family:Lato;font-size:20px;font-style:normal;font-weight:600;text-anchor:middle;" transform="rotate(-0, 247.083219, 320.65)" x="247.083219" y="320.65">lb ratio</text>
    </g>
   </g>
   <g id="matplotlib.axis_2">
    <g id="ytick_1">
     <g id="line2d_6">
      <defs>
       <path d="M 0 0 
L -3.5 0 
" id="mdaf93f9700" style="stroke:#262626;stroke-width:0.8;"/>
      </defs>
      <g>
       <use style="fill:#262626;stroke:#262626;stroke-width:0.8;" x="71.771875" xlink:href="#mdaf93f9700" y="281.133594"/>
      </g>
     </g>
     <g id="text_7">
      <text style="fill:#262626;font-family:Lato;font-size:15px;font-style:normal;font-weight:600;text-anchor:end;" transform="rotate(-0, 64.771875, 286.705859)" x="64.771875" y="286.705859">0.0</text>
     </g>
    </g>
    <g id="ytick_2">
     <g id="line2d_7">
      <g>
       <use style="fill:#262626;stroke:#262626;stroke-width:0.8;" x="71.771875" xlink:href="#mdaf93f9700" y="246.075396"/>
      </g>
     </g>
     <g id="text_8">
      <text style="fill:#262626;font-family:Lato;font-size:15px;font-style:normal;font-weight:600;text-anchor:end;" transform="rotate(-0, 64.771875, 251.647662)" x="64.771875" y="251.647662">0.5</text>
     </g>
    </g>
    <g id="ytick_3">
     <g id="line2d_8">
      <g>
       <use style="fill:#262626;stroke:#262626;stroke-width:0.8;" x="71.771875" xlink:href="#mdaf93f9700" y="211.017199"/>
      </g>
     </g>
     <g id="text_9">
      <text style="fill:#262626;font-family:Lato;font-size:15px;font-style:normal;font-weight:600;text-anchor:end;" transform="rotate(-0, 64.771875, 216.589464)" x="64.771875" y="216.589464">1.0</text>
     </g>
    </g>
    <g id="ytick_4">
     <g id="line2d_9">
      <g>
       <use style="fill:#262626;stroke:#262626;stroke-width:0.8;" x="71.771875" xlink:href="#mdaf93f9700" y="175.959001"/>
      </g>
     </g>
     <g id="text_10">
      <text style="fill:#262626;font-family:Lato;font-size:15px;font-style:normal;font-weight:600;text-anchor:end;" transform="rotate(-0, 64.771875, 181.531267)" x="64.771875" y="181.531267">1.5</text>
     </g>
    </g>
    <g id="ytick_5">
     <g id="line2d_10">
      <g>
       <use style="fill:#262626;stroke:#262626;stroke-width:0.8;" x="71.771875" xlink:href="#mdaf93f9700" y="140.900804"/>
      </g>
     </g>
     <g id="text_11">
      <text style="fill:#262626;font-family:Lato;font-size:15px;font-style:normal;font-weight:600;text-anchor:end;" transform="rotate(-0, 64.771875, 146.47307)" x="64.771875" y="146.47307">2.0</text>
     </g>
    </g>
    <g id="ytick_6">
     <g id="line2d_11">
      <g>
       <use style="fill:#262626;stroke:#262626;stroke-width:0.8;" x="71.771875" xlink:href="#mdaf93f9700" y="105.842606"/>
      </g>
     </g>
     <g id="text_12">
      <text style="fill:#262626;font-family:Lato;font-size:15px;font-style:normal;font-weight:600;text-anchor:end;" transform="rotate(-0, 64.771875, 111.414872)" x="64.771875" y="111.414872">2.5</text>
     </g>
    </g>
    <g id="ytick_7">
     <g id="line2d_12">
      <g>
       <use style="fill:#262626;stroke:#262626;stroke-width:0.8;" x="71.771875" xlink:href="#mdaf93f9700" y="70.784409"/>
      </g>
     </g>
     <g id="text_13">
      <text style="fill:#262626;font-family:Lato;font-size:15px;font-style:normal;font-weight:600;text-anchor:end;" transform="rotate(-0, 64.771875, 76.356675)" x="64.771875" y="76.356675">3.0</text>
     </g>
    </g>
    <g id="text_14">
     <text style="fill:#262626;font-family:Lato;font-size:20px;font-style:normal;font-weight:600;text-anchor:middle;" transform="rotate(-90, 36.459375, 160.182813)" x="36.459375" y="160.182813">counts</text>
    </g>
   </g>
   <g id="LineCollection_1">
    <path clip-path="url(#pa40d68ca69)" d="M 52.988517 281.133594 
L 52.988517 281.133594 
" style="fill:none;stroke:#808080;stroke-opacity:0.7;stroke-width:5;"/>
    <path clip-path="url(#pa40d68ca69)" d="M 65.510756 281.133594 
L 65.510756 281.133594 
" style="fill:none;stroke:#808080;stroke-opacity:0.7;stroke-width:5;"/>
    <path clip-path="url(#pa40d68ca69)" d="M 78.032994 281.133594 
L 78.032994 140.900804 
" style="fill:none;stroke:#808080;stroke-opacity:0.7;stroke-width:5;"/>
    <path clip-path="url(#pa40d68ca69)" d="M 90.555233 240.060361 
L 90.555233 41.741247 
" style="fill:none;stroke:#808080;stroke-opacity:0.7;stroke-width:5;"/>
    <path clip-path="url(#pa40d68ca69)" d="M 103.077472 281.133594 
L 103.077472 140.900804 
" style="fill:none;stroke:#808080;stroke-opacity:0.7;stroke-width:5;"/>
    <path clip-path="url(#pa40d68ca69)" d="M 115.599711 281.133594 
L 115.599711 140.900804 
" style="fill:none;stroke:#808080;stroke-opacity:0.7;stroke-width:5;"/>
    <path clip-path="url(#pa40d68ca69)" d="M 128.12195 281.133594 
L 128.12195 140.900804 
" style="fill:none;stroke:#808080;stroke-opacity:0.7;stroke-width:5;"/>
    <path clip-path="url(#pa40d68ca69)" d="M 140.644189 281.133594 
L 140.644189 281.133594 
" style="fill:none;stroke:#808080;stroke-opacity:0.7;stroke-width:5;"/>
    <path clip-path="url(#pa40d68ca69)" d="M 153.166427 281.133594 
L 153.166427 281.133594 
" style="fill:none;stroke:#808080;stroke-opacity:0.7;stroke-width:5;"/>
    <path clip-path="url(#pa40d68ca69)" d="M 165.688666 281.133594 
L 165.688666 281.133594 
" style="fill:none;stroke:#808080;stroke-opacity:0.7;stroke-width:5;"/>
    <path clip-path="url(#pa40d68ca69)" d="M 178.210905 281.133594 
L 178.210905 281.133594 
" style="fill:none;stroke:#808080;stroke-opacity:0.7;stroke-width:5;"/>
    <path clip-path="url(#pa40d68ca69)" d="M 190.733144 281.133594 
L 190.733144 281.133594 
" style="fill:none;stroke:#808080;stroke-opacity:0.7;stroke-width:5;"/>
    <path clip-path="url(#pa40d68ca69)" d="M 203.255383 281.133594 
L 203.255383 140.900804 
" style="fill:none;stroke:#808080;stroke-opacity:0.7;stroke-width:5;"/>
    <path clip-path="url(#pa40d68ca69)" d="M 215.777622 281.133594 
L 215.777622 140.900804 
" style="fill:none;stroke:#808080;stroke-opacity:0.7;stroke-width:5;"/>
    <path clip-path="url(#pa40d68ca69)" d="M 228.29986 281.133594 
L 228.29986 140.900804 
" style="fill:none;stroke:#808080;stroke-opacity:0.7;stroke-width:5;"/>
    <path clip-path="url(#pa40d68ca69)" d="M 240.822099 281.133594 
L 240.822099 281.133594 
" style="fill:none;stroke:#808080;stroke-opacity:0.7;stroke-width:5;"/>
    <path clip-path="url(#pa40d68ca69)" d="M 253.344338 281.133594 
L 253.344338 281.133594 
" style="fill:none;stroke:#808080;stroke-opacity:0.7;stroke-width:5;"/>
    <path clip-path="url(#pa40d68ca69)" d="M 265.866577 281.133594 
L 265.866577 281.133594 
" style="fill:none;stroke:#808080;stroke-opacity:0.7;stroke-width:5;"/>
    <path clip-path="url(#pa40d68ca69)" d="M 278.388816 281.133594 
L 278.388816 281.133594 
" style="fill:none;stroke:#808080;stroke-opacity:0.7;stroke-width:5;"/>
    <path clip-path="url(#pa40d68ca69)" d="M 290.911055 281.133594 
L 290.911055 281.133594 
" style="fill:none;stroke:#808080;stroke-opacity:0.7;stroke-width:5;"/>
    <path clip-path="url(#pa40d68ca69)" d="M 303.433294 240.060361 
L 303.433294 41.741247 
" style="fill:none;stroke:#808080;stroke-opacity:0.7;stroke-width:5;"/>
    <path clip-path="url(#pa40d68ca69)" d="M 315.955532 281.133594 
L 315.955532 281.133594 
" style="fill:none;stroke:#808080;stroke-opacity:0.7;stroke-width:5;"/>
    <path clip-path="url(#pa40d68ca69)" d="M 328.477771 281.133594 
L 328.477771 281.133594 
" style="fill:none;stroke:#808080;stroke-opacity:0.7;stroke-width:5;"/>
    <path clip-path="url(#pa40d68ca69)" d="M 341.00001 281.133594 
L 341.00001 281.133594 
" style="fill:none;stroke:#808080;stroke-opacity:0.7;stroke-width:5;"/>
    <path clip-path="url(#pa40d68ca69)" d="M 353.522249 281.133594 
L 353.522249 140.900804 
" style="fill:none;stroke:#808080;stroke-opacity:0.7;stroke-width:5;"/>
    <path clip-path="url(#pa40d68ca69)" d="M 366.044488 281.133594 
L 366.044488 281.133594 
" style="fill:none;stroke:#808080;stroke-opacity:0.7;stroke-width:5;"/>
    <path clip-path="url(#pa40d68ca69)" d="M 378.566727 281.133594 
L 378.566727 281.133594 
" style="fill:none;stroke:#808080;stroke-opacity:0.7;stroke-width:5;"/>
    <path clip-path="url(#pa40d68ca69)" d="M 391.088965 281.133594 
L 391.088965 281.133594 
" style="fill:none;stroke:#808080;stroke-opacity:0.7;stroke-width:5;"/>
    <path clip-path="url(#pa40d68ca69)" d="M 403.611204 281.133594 
L 403.611204 281.133594 
" style="fill:none;stroke:#808080;stroke-opacity:0.7;stroke-width:5;"/>
    <path clip-path="url(#pa40d68ca69)" d="M 416.133443 281.133594 
L 416.133443 281.133594 
" style="fill:none;stroke:#808080;stroke-opacity:0.7;stroke-width:5;"/>
   </g>
   <g id="LineCollection_2">
    <path clip-path="url(#pa40d68ca69)" d="M 52.988517 281.133594 
L 52.988517 281.133594 
" style="fill:none;stroke:#ff0000;stroke-opacity:0.7;stroke-width:3;"/>
    <path clip-path="url(#pa40d68ca69)" d="M 65.510756 281.133594 
L 65.510756 281.133594 
" style="fill:none;stroke:#ff0000;stroke-opacity:0.7;stroke-width:3;"/>
    <path clip-path="url(#pa40d68ca69)" d="M 78.032994 281.133594 
L 78.032994 140.900804 
" style="fill:none;stroke:#ff0000;stroke-opacity:0.7;stroke-width:3;"/>
    <path clip-path="url(#pa40d68ca69)" d="M 90.555233 240.060361 
L 90.555233 41.741247 
" style="fill:none;stroke:#ff0000;stroke-opacity:0.7;stroke-width:3;"/>
    <path clip-path="url(#pa40d68ca69)" d="M 103.077472 281.133594 
L 103.077472 140.900804 
" style="fill:none;stroke:#ff0000;stroke-opacity:0.7;stroke-width:3;"/>
    <path clip-path="url(#pa40d68ca69)" d="M 115.599711 281.133594 
L 115.599711 140.900804 
" style="fill:none;stroke:#ff0000;stroke-opacity:0.7;stroke-width:3;"/>
    <path clip-path="url(#pa40d68ca69)" d="M 128.12195 240.060361 
L 128.12195 41.741247 
" style="fill:none;stroke:#ff0000;stroke-opacity:0.7;stroke-width:3;"/>
    <path clip-path="url(#pa40d68ca69)" d="M 140.644189 281.133594 
L 140.644189 281.133594 
" style="fill:none;stroke:#ff0000;stroke-opacity:0.7;stroke-width:3;"/>
    <path clip-path="url(#pa40d68ca69)" d="M 153.166427 192.229567 
L 153.166427 -1 
" style="fill:none;stroke:#ff0000;stroke-opacity:0.7;stroke-width:3;"/>
    <path clip-path="url(#pa40d68ca69)" d="M 165.688666 240.060361 
L 165.688666 41.741247 
" style="fill:none;stroke:#ff0000;stroke-opacity:0.7;stroke-width:3;"/>
    <path clip-path="url(#pa40d68ca69)" d="M 178.210905 281.133594 
L 178.210905 140.900804 
" style="fill:none;stroke:#ff0000;stroke-opacity:0.7;stroke-width:3;"/>
    <path clip-path="url(#pa40d68ca69)" d="M 190.733144 281.133594 
L 190.733144 140.900804 
" style="fill:none;stroke:#ff0000;stroke-opacity:0.7;stroke-width:3;"/>
    <path clip-path="url(#pa40d68ca69)" d="M 203.255383 281.133594 
L 203.255383 281.133594 
" style="fill:none;stroke:#ff0000;stroke-opacity:0.7;stroke-width:3;"/>
    <path clip-path="url(#pa40d68ca69)" d="M 215.777622 281.133594 
L 215.777622 140.900804 
" style="fill:none;stroke:#ff0000;stroke-opacity:0.7;stroke-width:3;"/>
    <path clip-path="url(#pa40d68ca69)" d="M 228.29986 240.060361 
L 228.29986 41.741247 
" style="fill:none;stroke:#ff0000;stroke-opacity:0.7;stroke-width:3;"/>
    <path clip-path="url(#pa40d68ca69)" d="M 240.822099 281.133594 
L 240.822099 281.133594 
" style="fill:none;stroke:#ff0000;stroke-opacity:0.7;stroke-width:3;"/>
    <path clip-path="url(#pa40d68ca69)" d="M 253.344338 281.133594 
L 253.344338 281.133594 
" style="fill:none;stroke:#ff0000;stroke-opacity:0.7;stroke-width:3;"/>
    <path clip-path="url(#pa40d68ca69)" d="M 265.866577 281.133594 
L 265.866577 140.900804 
" style="fill:none;stroke:#ff0000;stroke-opacity:0.7;stroke-width:3;"/>
    <path clip-path="url(#pa40d68ca69)" d="M 278.388816 281.133594 
L 278.388816 281.133594 
" style="fill:none;stroke:#ff0000;stroke-opacity:0.7;stroke-width:3;"/>
    <path clip-path="url(#pa40d68ca69)" d="M 290.911055 281.133594 
L 290.911055 140.900804 
" style="fill:none;stroke:#ff0000;stroke-opacity:0.7;stroke-width:3;"/>
    <path clip-path="url(#pa40d68ca69)" d="M 303.433294 281.133594 
L 303.433294 281.133594 
" style="fill:none;stroke:#ff0000;stroke-opacity:0.7;stroke-width:3;"/>
    <path clip-path="url(#pa40d68ca69)" d="M 315.955532 281.133594 
L 315.955532 281.133594 
" style="fill:none;stroke:#ff0000;stroke-opacity:0.7;stroke-width:3;"/>
    <path clip-path="url(#pa40d68ca69)" d="M 328.477771 281.133594 
L 328.477771 281.133594 
" style="fill:none;stroke:#ff0000;stroke-opacity:0.7;stroke-width:3;"/>
    <path clip-path="url(#pa40d68ca69)" d="M 341.00001 281.133594 
L 341.00001 281.133594 
" style="fill:none;stroke:#ff0000;stroke-opacity:0.7;stroke-width:3;"/>
    <path clip-path="url(#pa40d68ca69)" d="M 353.522249 281.133594 
L 353.522249 281.133594 
" style="fill:none;stroke:#ff0000;stroke-opacity:0.7;stroke-width:3;"/>
    <path clip-path="url(#pa40d68ca69)" d="M 366.044488 281.133594 
L 366.044488 281.133594 
" style="fill:none;stroke:#ff0000;stroke-opacity:0.7;stroke-width:3;"/>
    <path clip-path="url(#pa40d68ca69)" d="M 378.566727 281.133594 
L 378.566727 281.133594 
" style="fill:none;stroke:#ff0000;stroke-opacity:0.7;stroke-width:3;"/>
    <path clip-path="url(#pa40d68ca69)" d="M 391.088965 281.133594 
L 391.088965 281.133594 
" style="fill:none;stroke:#ff0000;stroke-opacity:0.7;stroke-width:3;"/>
    <path clip-path="url(#pa40d68ca69)" d="M 403.611204 281.133594 
L 403.611204 281.133594 
" style="fill:none;stroke:#ff0000;stroke-opacity:0.7;stroke-width:3;"/>
    <path clip-path="url(#pa40d68ca69)" d="M 416.133443 281.133594 
L 416.133443 281.133594 
" style="fill:none;stroke:#ff0000;stroke-opacity:0.7;stroke-width:3;"/>
   </g>
   <g id="LineCollection_3">
    <path clip-path="url(#pa40d68ca69)" d="M 52.988517 281.133594 
L 52.988517 281.133594 
" style="fill:none;stroke:#0000ff;stroke-opacity:0.7;stroke-width:2;"/>
    <path clip-path="url(#pa40d68ca69)" d="M 65.510756 281.133594 
L 65.510756 281.133594 
" style="fill:none;stroke:#0000ff;stroke-opacity:0.7;stroke-width:2;"/>
    <path clip-path="url(#pa40d68ca69)" d="M 78.032994 281.133594 
L 78.032994 281.133594 
" style="fill:none;stroke:#0000ff;stroke-opacity:0.7;stroke-width:2;"/>
    <path clip-path="url(#pa40d68ca69)" d="M 90.555233 281.133594 
L 90.555233 281.133594 
" style="fill:none;stroke:#0000ff;stroke-opacity:0.7;stroke-width:2;"/>
    <path clip-path="url(#pa40d68ca69)" d="M 103.077472 281.133594 
L 103.077472 140.900804 
" style="fill:none;stroke:#0000ff;stroke-opacity:0.7;stroke-width:2;"/>
    <path clip-path="url(#pa40d68ca69)" d="M 115.599711 281.133594 
L 115.599711 281.133594 
" style="fill:none;stroke:#0000ff;stroke-opacity:0.7;stroke-width:2;"/>
    <path clip-path="url(#pa40d68ca69)" d="M 128.12195 281.133594 
L 128.12195 281.133594 
" style="fill:none;stroke:#0000ff;stroke-opacity:0.7;stroke-width:2;"/>
    <path clip-path="url(#pa40d68ca69)" d="M 140.644189 281.133594 
L 140.644189 281.133594 
" style="fill:none;stroke:#0000ff;stroke-opacity:0.7;stroke-width:2;"/>
    <path clip-path="url(#pa40d68ca69)" d="M 153.166427 281.133594 
L 153.166427 281.133594 
" style="fill:none;stroke:#0000ff;stroke-opacity:0.7;stroke-width:2;"/>
    <path clip-path="url(#pa40d68ca69)" d="M 165.688666 281.133594 
L 165.688666 281.133594 
" style="fill:none;stroke:#0000ff;stroke-opacity:0.7;stroke-width:2;"/>
    <path clip-path="url(#pa40d68ca69)" d="M 178.210905 240.060361 
L 178.210905 41.741247 
" style="fill:none;stroke:#0000ff;stroke-opacity:0.7;stroke-width:2;"/>
    <path clip-path="url(#pa40d68ca69)" d="M 190.733144 281.133594 
L 190.733144 281.133594 
" style="fill:none;stroke:#0000ff;stroke-opacity:0.7;stroke-width:2;"/>
    <path clip-path="url(#pa40d68ca69)" d="M 203.255383 281.133594 
L 203.255383 281.133594 
" style="fill:none;stroke:#0000ff;stroke-opacity:0.7;stroke-width:2;"/>
    <path clip-path="url(#pa40d68ca69)" d="M 215.777622 281.133594 
L 215.777622 281.133594 
" style="fill:none;stroke:#0000ff;stroke-opacity:0.7;stroke-width:2;"/>
    <path clip-path="url(#pa40d68ca69)" d="M 228.29986 281.133594 
L 228.29986 281.133594 
" style="fill:none;stroke:#0000ff;stroke-opacity:0.7;stroke-width:2;"/>
    <path clip-path="url(#pa40d68ca69)" d="M 240.822099 281.133594 
L 240.822099 281.133594 
" style="fill:none;stroke:#0000ff;stroke-opacity:0.7;stroke-width:2;"/>
    <path clip-path="url(#pa40d68ca69)" d="M 253.344338 281.133594 
L 253.344338 281.133594 
" style="fill:none;stroke:#0000ff;stroke-opacity:0.7;stroke-width:2;"/>
    <path clip-path="url(#pa40d68ca69)" d="M 265.866577 281.133594 
L 265.866577 281.133594 
" style="fill:none;stroke:#0000ff;stroke-opacity:0.7;stroke-width:2;"/>
    <path clip-path="url(#pa40d68ca69)" d="M 278.388816 281.133594 
L 278.388816 281.133594 
" style="fill:none;stroke:#0000ff;stroke-opacity:0.7;stroke-width:2;"/>
    <path clip-path="url(#pa40d68ca69)" d="M 290.911055 281.133594 
L 290.911055 281.133594 
" style="fill:none;stroke:#0000ff;stroke-opacity:0.7;stroke-width:2;"/>
    <path clip-path="url(#pa40d68ca69)" d="M 303.433294 281.133594 
L 303.433294 281.133594 
" style="fill:none;stroke:#0000ff;stroke-opacity:0.7;stroke-width:2;"/>
    <path clip-path="url(#pa40d68ca69)" d="M 315.955532 281.133594 
L 315.955532 281.133594 
" style="fill:none;stroke:#0000ff;stroke-opacity:0.7;stroke-width:2;"/>
    <path clip-path="url(#pa40d68ca69)" d="M 328.477771 281.133594 
L 328.477771 281.133594 
" style="fill:none;stroke:#0000ff;stroke-opacity:0.7;stroke-width:2;"/>
    <path clip-path="url(#pa40d68ca69)" d="M 341.00001 281.133594 
L 341.00001 281.133594 
" style="fill:none;stroke:#0000ff;stroke-opacity:0.7;stroke-width:2;"/>
    <path clip-path="url(#pa40d68ca69)" d="M 353.522249 281.133594 
L 353.522249 281.133594 
" style="fill:none;stroke:#0000ff;stroke-opacity:0.7;stroke-width:2;"/>
    <path clip-path="url(#pa40d68ca69)" d="M 366.044488 281.133594 
L 366.044488 281.133594 
" style="fill:none;stroke:#0000ff;stroke-opacity:0.7;stroke-width:2;"/>
    <path clip-path="url(#pa40d68ca69)" d="M 378.566727 281.133594 
L 378.566727 281.133594 
" style="fill:none;stroke:#0000ff;stroke-opacity:0.7;stroke-width:2;"/>
    <path clip-path="url(#pa40d68ca69)" d="M 391.088965 281.133594 
L 391.088965 281.133594 
" style="fill:none;stroke:#0000ff;stroke-opacity:0.7;stroke-width:2;"/>
    <path clip-path="url(#pa40d68ca69)" d="M 403.611204 281.133594 
L 403.611204 281.133594 
" style="fill:none;stroke:#0000ff;stroke-opacity:0.7;stroke-width:2;"/>
    <path clip-path="url(#pa40d68ca69)" d="M 416.133443 281.133594 
L 416.133443 140.900804 
" style="fill:none;stroke:#0000ff;stroke-opacity:0.7;stroke-width:2;"/>
   </g>
   <g id="line2d_13">
    <path clip-path="url(#pa40d68ca69)" d="M 52.988517 281.133594 
L 65.510756 281.133594 
L 78.032994 211.017199 
L 90.555233 140.900804 
L 103.077472 211.017199 
L 115.599711 211.017199 
L 128.12195 211.017199 
L 140.644189 281.133594 
L 153.166427 281.133594 
L 165.688666 281.133594 
L 178.210905 281.133594 
L 190.733144 281.133594 
L 203.255383 211.017199 
L 215.777622 211.017199 
L 228.29986 211.017199 
L 240.822099 281.133594 
L 253.344338 281.133594 
L 265.866577 281.133594 
L 278.388816 281.133594 
L 290.911055 281.133594 
L 303.433294 140.900804 
L 315.955532 281.133594 
L 328.477771 281.133594 
L 341.00001 281.133594 
L 353.522249 211.017199 
L 366.044488 281.133594 
L 378.566727 281.133594 
L 391.088965 281.133594 
L 403.611204 281.133594 
L 416.133443 281.133594 
" style="fill:none;stroke:#808080;stroke-linecap:round;stroke-opacity:0.7;stroke-width:5;"/>
    <defs>
     <path d="M 0 3.25 
C 0.86191 3.25 1.688635 2.907559 2.298097 2.298097 
C 2.907559 1.688635 3.25 0.86191 3.25 0 
C 3.25 -0.86191 2.907559 -1.688635 2.298097 -2.298097 
C 1.688635 -2.907559 0.86191 -3.25 0 -3.25 
C -0.86191 -3.25 -1.688635 -2.907559 -2.298097 -2.298097 
C -2.907559 -1.688635 -3.25 -0.86191 -3.25 0 
C -3.25 0.86191 -2.907559 1.688635 -2.298097 2.298097 
C -1.688635 2.907559 -0.86191 3.25 0 3.25 
z
" id="m95c22a7300" style="stroke:#808080;stroke-opacity:0.7;"/>
    </defs>
    <g clip-path="url(#pa40d68ca69)">
     <use style="fill:#808080;fill-opacity:0.7;stroke:#808080;stroke-opacity:0.7;" x="52.988517" xlink:href="#m95c22a7300" y="281.133594"/>
     <use style="fill:#808080;fill-opacity:0.7;stroke:#808080;stroke-opacity:0.7;" x="65.510756" xlink:href="#m95c22a7300" y="281.133594"/>
     <use style="fill:#808080;fill-opacity:0.7;stroke:#808080;stroke-opacity:0.7;" x="78.032994" xlink:href="#m95c22a7300" y="211.017199"/>
     <use style="fill:#808080;fill-opacity:0.7;stroke:#808080;stroke-opacity:0.7;" x="90.555233" xlink:href="#m95c22a7300" y="140.900804"/>
     <use style="fill:#808080;fill-opacity:0.7;stroke:#808080;stroke-opacity:0.7;" x="103.077472" xlink:href="#m95c22a7300" y="211.017199"/>
     <use style="fill:#808080;fill-opacity:0.7;stroke:#808080;stroke-opacity:0.7;" x="115.599711" xlink:href="#m95c22a7300" y="211.017199"/>
     <use style="fill:#808080;fill-opacity:0.7;stroke:#808080;stroke-opacity:0.7;" x="128.12195" xlink:href="#m95c22a7300" y="211.017199"/>
     <use style="fill:#808080;fill-opacity:0.7;stroke:#808080;stroke-opacity:0.7;" x="140.644189" xlink:href="#m95c22a7300" y="281.133594"/>
     <use style="fill:#808080;fill-opacity:0.7;stroke:#808080;stroke-opacity:0.7;" x="153.166427" xlink:href="#m95c22a7300" y="281.133594"/>
     <use style="fill:#808080;fill-opacity:0.7;stroke:#808080;stroke-opacity:0.7;" x="165.688666" xlink:href="#m95c22a7300" y="281.133594"/>
     <use style="fill:#808080;fill-opacity:0.7;stroke:#808080;stroke-opacity:0.7;" x="178.210905" xlink:href="#m95c22a7300" y="281.133594"/>
     <use style="fill:#808080;fill-opacity:0.7;stroke:#808080;stroke-opacity:0.7;" x="190.733144" xlink:href="#m95c22a7300" y="281.133594"/>
     <use style="fill:#808080;fill-opacity:0.7;stroke:#808080;stroke-opacity:0.7;" x="203.255383" xlink:href="#m95c22a7300" y="211.017199"/>
     <use style="fill:#808080;fill-opacity:0.7;stroke:#808080;stroke-opacity:0.7;" x="215.777622" xlink:href="#m95c22a7300" y="211.017199"/>
     <use style="fill:#808080;fill-opacity:0.7;stroke:#808080;stroke-opacity:0.7;" x="228.29986" xlink:href="#m95c22a7300" y="211.017199"/>
     <use style="fill:#808080;fill-opacity:0.7;stroke:#808080;stroke-opacity:0.7;" x="240.822099" xlink:href="#m95c22a7300" y="281.133594"/>
     <use style="fill:#808080;fill-opacity:0.7;stroke:#808080;stroke-opacity:0.7;" x="253.344338" xlink:href="#m95c22a7300" y="281.133594"/>
     <use style="fill:#808080;fill-opacity:0.7;stroke:#808080;stroke-opacity:0.7;" x="265.866577" xlink:href="#m95c22a7300" y="281.133594"/>
     <use style="fill:#808080;fill-opacity:0.7;stroke:#808080;stroke-opacity:0.7;" x="278.388816" xlink:href="#m95c22a7300" y="281.133594"/>
     <use style="fill:#808080;fill-opacity:0.7;stroke:#808080;stroke-opacity:0.7;" x="290.911055" xlink:href="#m95c22a7300" y="281.133594"/>
     <use style="fill:#808080;fill-opacity:0.7;stroke:#808080;stroke-opacity:0.7;" x="303.433294" xlink:href="#m95c22a7300" y="140.900804"/>
     <use style="fill:#808080;fill-opacity:0.7;stroke:#808080;stroke-opacity:0.7;" x="315.955532" xlink:href="#m95c22a7300" y="281.133594"/>
     <use style="fill:#808080;fill-opacity:0.7;stroke:#808080;stroke-opacity:0.7;" x="328.477771" xlink:href="#m95c22a7300" y="281.133594"/>
     <use style="fill:#808080;fill-opacity:0.7;stroke:#808080;stroke-opacity:0.7;" x="341.00001" xlink:href="#m95c22a7300" y="281.133594"/>
     <use style="fill:#808080;fill-opacity:0.7;stroke:#808080;stroke-opacity:0.7;" x="353.522249" xlink:href="#m95c22a7300" y="211.017199"/>
     <use style="fill:#808080;fill-opacity:0.7;stroke:#808080;stroke-opacity:0.7;" x="366.044488" xlink:href="#m95c22a7300" y="281.133594"/>
     <use style="fill:#808080;fill-opacity:0.7;stroke:#808080;stroke-opacity:0.7;" x="378.566727" xlink:href="#m95c22a7300" y="281.133594"/>
     <use style="fill:#808080;fill-opacity:0.7;stroke:#808080;stroke-opacity:0.7;" x="391.088965" xlink:href="#m95c22a7300" y="281.133594"/>
     <use style="fill:#808080;fill-opacity:0.7;stroke:#808080;stroke-opacity:0.7;" x="403.611204" xlink:href="#m95c22a7300" y="281.133594"/>
     <use style="fill:#808080;fill-opacity:0.7;stroke:#808080;stroke-opacity:0.7;" x="416.133443" xlink:href="#m95c22a7300" y="281.133594"/>
    </g>
   </g>
   <g id="line2d_14">
    <path clip-path="url(#pa40d68ca69)" d="M 52.988517 281.133594 
L 65.510756 281.133594 
L 78.032994 211.017199 
L 90.555233 140.900804 
L 103.077472 211.017199 
L 115.599711 211.017199 
L 128.12195 140.900804 
L 140.644189 281.133594 
L 153.166427 70.784409 
L 165.688666 140.900804 
L 178.210905 211.017199 
L 190.733144 211.017199 
L 203.255383 281.133594 
L 215.777622 211.017199 
L 228.29986 140.900804 
L 240.822099 281.133594 
L 253.344338 281.133594 
L 265.866577 211.017199 
L 278.388816 281.133594 
L 290.911055 211.017199 
L 303.433294 281.133594 
L 315.955532 281.133594 
L 328.477771 281.133594 
L 341.00001 281.133594 
L 353.522249 281.133594 
L 366.044488 281.133594 
L 378.566727 281.133594 
L 391.088965 281.133594 
L 403.611204 281.133594 
L 416.133443 281.133594 
" style="fill:none;stroke:#ff0000;stroke-linecap:round;stroke-opacity:0.7;stroke-width:3;"/>
    <defs>
     <path d="M 0 3.25 
C 0.86191 3.25 1.688635 2.907559 2.298097 2.298097 
C 2.907559 1.688635 3.25 0.86191 3.25 0 
C 3.25 -0.86191 2.907559 -1.688635 2.298097 -2.298097 
C 1.688635 -2.907559 0.86191 -3.25 0 -3.25 
C -0.86191 -3.25 -1.688635 -2.907559 -2.298097 -2.298097 
C -2.907559 -1.688635 -3.25 -0.86191 -3.25 0 
C -3.25 0.86191 -2.907559 1.688635 -2.298097 2.298097 
C -1.688635 2.907559 -0.86191 3.25 0 3.25 
z
" id="m265cce0c8f" style="stroke:#ff0000;stroke-opacity:0.7;"/>
    </defs>
    <g clip-path="url(#pa40d68ca69)">
     <use style="fill:#ff0000;fill-opacity:0.7;stroke:#ff0000;stroke-opacity:0.7;" x="52.988517" xlink:href="#m265cce0c8f" y="281.133594"/>
     <use style="fill:#ff0000;fill-opacity:0.7;stroke:#ff0000;stroke-opacity:0.7;" x="65.510756" xlink:href="#m265cce0c8f" y="281.133594"/>
     <use style="fill:#ff0000;fill-opacity:0.7;stroke:#ff0000;stroke-opacity:0.7;" x="78.032994" xlink:href="#m265cce0c8f" y="211.017199"/>
     <use style="fill:#ff0000;fill-opacity:0.7;stroke:#ff0000;stroke-opacity:0.7;" x="90.555233" xlink:href="#m265cce0c8f" y="140.900804"/>
     <use style="fill:#ff0000;fill-opacity:0.7;stroke:#ff0000;stroke-opacity:0.7;" x="103.077472" xlink:href="#m265cce0c8f" y="211.017199"/>
     <use style="fill:#ff0000;fill-opacity:0.7;stroke:#ff0000;stroke-opacity:0.7;" x="115.599711" xlink:href="#m265cce0c8f" y="211.017199"/>
     <use style="fill:#ff0000;fill-opacity:0.7;stroke:#ff0000;stroke-opacity:0.7;" x="128.12195" xlink:href="#m265cce0c8f" y="140.900804"/>
     <use style="fill:#ff0000;fill-opacity:0.7;stroke:#ff0000;stroke-opacity:0.7;" x="140.644189" xlink:href="#m265cce0c8f" y="281.133594"/>
     <use style="fill:#ff0000;fill-opacity:0.7;stroke:#ff0000;stroke-opacity:0.7;" x="153.166427" xlink:href="#m265cce0c8f" y="70.784409"/>
     <use style="fill:#ff0000;fill-opacity:0.7;stroke:#ff0000;stroke-opacity:0.7;" x="165.688666" xlink:href="#m265cce0c8f" y="140.900804"/>
     <use style="fill:#ff0000;fill-opacity:0.7;stroke:#ff0000;stroke-opacity:0.7;" x="178.210905" xlink:href="#m265cce0c8f" y="211.017199"/>
     <use style="fill:#ff0000;fill-opacity:0.7;stroke:#ff0000;stroke-opacity:0.7;" x="190.733144" xlink:href="#m265cce0c8f" y="211.017199"/>
     <use style="fill:#ff0000;fill-opacity:0.7;stroke:#ff0000;stroke-opacity:0.7;" x="203.255383" xlink:href="#m265cce0c8f" y="281.133594"/>
     <use style="fill:#ff0000;fill-opacity:0.7;stroke:#ff0000;stroke-opacity:0.7;" x="215.777622" xlink:href="#m265cce0c8f" y="211.017199"/>
     <use style="fill:#ff0000;fill-opacity:0.7;stroke:#ff0000;stroke-opacity:0.7;" x="228.29986" xlink:href="#m265cce0c8f" y="140.900804"/>
     <use style="fill:#ff0000;fill-opacity:0.7;stroke:#ff0000;stroke-opacity:0.7;" x="240.822099" xlink:href="#m265cce0c8f" y="281.133594"/>
     <use style="fill:#ff0000;fill-opacity:0.7;stroke:#ff0000;stroke-opacity:0.7;" x="253.344338" xlink:href="#m265cce0c8f" y="281.133594"/>
     <use style="fill:#ff0000;fill-opacity:0.7;stroke:#ff0000;stroke-opacity:0.7;" x="265.866577" xlink:href="#m265cce0c8f" y="211.017199"/>
     <use style="fill:#ff0000;fill-opacity:0.7;stroke:#ff0000;stroke-opacity:0.7;" x="278.388816" xlink:href="#m265cce0c8f" y="281.133594"/>
     <use style="fill:#ff0000;fill-opacity:0.7;stroke:#ff0000;stroke-opacity:0.7;" x="290.911055" xlink:href="#m265cce0c8f" y="211.017199"/>
     <use style="fill:#ff0000;fill-opacity:0.7;stroke:#ff0000;stroke-opacity:0.7;" x="303.433294" xlink:href="#m265cce0c8f" y="281.133594"/>
     <use style="fill:#ff0000;fill-opacity:0.7;stroke:#ff0000;stroke-opacity:0.7;" x="315.955532" xlink:href="#m265cce0c8f" y="281.133594"/>
     <use style="fill:#ff0000;fill-opacity:0.7;stroke:#ff0000;stroke-opacity:0.7;" x="328.477771" xlink:href="#m265cce0c8f" y="281.133594"/>
     <use style="fill:#ff0000;fill-opacity:0.7;stroke:#ff0000;stroke-opacity:0.7;" x="341.00001" xlink:href="#m265cce0c8f" y="281.133594"/>
     <use style="fill:#ff0000;fill-opacity:0.7;stroke:#ff0000;stroke-opacity:0.7;" x="353.522249" xlink:href="#m265cce0c8f" y="281.133594"/>
     <use style="fill:#ff0000;fill-opacity:0.7;stroke:#ff0000;stroke-opacity:0.7;" x="366.044488" xlink:href="#m265cce0c8f" y="281.133594"/>
     <use style="fill:#ff0000;fill-opacity:0.7;stroke:#ff0000;stroke-opacity:0.7;" x="378.566727" xlink:href="#m265cce0c8f" y="281.133594"/>
     <use style="fill:#ff0000;fill-opacity:0.7;stroke:#ff0000;stroke-opacity:0.7;" x="391.088965" xlink:href="#m265cce0c8f" y="281.133594"/>
     <use style="fill:#ff0000;fill-opacity:0.7;stroke:#ff0000;stroke-opacity:0.7;" x="403.611204" xlink:href="#m265cce0c8f" y="281.133594"/>
     <use style="fill:#ff0000;fill-opacity:0.7;stroke:#ff0000;stroke-opacity:0.7;" x="416.133443" xlink:href="#m265cce0c8f" y="281.133594"/>
    </g>
   </g>
   <g id="line2d_15">
    <path clip-path="url(#pa40d68ca69)" d="M 52.988517 281.133594 
L 65.510756 281.133594 
L 78.032994 281.133594 
L 90.555233 281.133594 
L 103.077472 211.017199 
L 115.599711 281.133594 
L 128.12195 281.133594 
L 140.644189 281.133594 
L 153.166427 281.133594 
L 165.688666 281.133594 
L 178.210905 140.900804 
L 190.733144 281.133594 
L 203.255383 281.133594 
L 215.777622 281.133594 
L 228.29986 281.133594 
L 240.822099 281.133594 
L 253.344338 281.133594 
L 265.866577 281.133594 
L 278.388816 281.133594 
L 290.911055 281.133594 
L 303.433294 281.133594 
L 315.955532 281.133594 
L 328.477771 281.133594 
L 341.00001 281.133594 
L 353.522249 281.133594 
L 366.044488 281.133594 
L 378.566727 281.133594 
L 391.088965 281.133594 
L 403.611204 281.133594 
L 416.133443 211.017199 
" style="fill:none;stroke:#0000ff;stroke-linecap:round;stroke-opacity:0.7;stroke-width:2;"/>
    <defs>
     <path d="M 0 3.25 
C 0.86191 3.25 1.688635 2.907559 2.298097 2.298097 
C 2.907559 1.688635 3.25 0.86191 3.25 0 
C 3.25 -0.86191 2.907559 -1.688635 2.298097 -2.298097 
C 1.688635 -2.907559 0.86191 -3.25 0 -3.25 
C -0.86191 -3.25 -1.688635 -2.907559 -2.298097 -2.298097 
C -2.907559 -1.688635 -3.25 -0.86191 -3.25 0 
C -3.25 0.86191 -2.907559 1.688635 -2.298097 2.298097 
C -1.688635 2.907559 -0.86191 3.25 0 3.25 
z
" id="m2fa63c1afe" style="stroke:#0000ff;stroke-opacity:0.7;"/>
    </defs>
    <g clip-path="url(#pa40d68ca69)">
     <use style="fill:#0000ff;fill-opacity:0.7;stroke:#0000ff;stroke-opacity:0.7;" x="52.988517" xlink:href="#m2fa63c1afe" y="281.133594"/>
     <use style="fill:#0000ff;fill-opacity:0.7;stroke:#0000ff;stroke-opacity:0.7;" x="65.510756" xlink:href="#m2fa63c1afe" y="281.133594"/>
     <use style="fill:#0000ff;fill-opacity:0.7;stroke:#0000ff;stroke-opacity:0.7;" x="78.032994" xlink:href="#m2fa63c1afe" y="281.133594"/>
     <use style="fill:#0000ff;fill-opacity:0.7;stroke:#0000ff;stroke-opacity:0.7;" x="90.555233" xlink:href="#m2fa63c1afe" y="281.133594"/>
     <use style="fill:#0000ff;fill-opacity:0.7;stroke:#0000ff;stroke-opacity:0.7;" x="103.077472" xlink:href="#m2fa63c1afe" y="211.017199"/>
     <use style="fill:#0000ff;fill-opacity:0.7;stroke:#0000ff;stroke-opacity:0.7;" x="115.599711" xlink:href="#m2fa63c1afe" y="281.133594"/>
     <use style="fill:#0000ff;fill-opacity:0.7;stroke:#0000ff;stroke-opacity:0.7;" x="128.12195" xlink:href="#m2fa63c1afe" y="281.133594"/>
     <use style="fill:#0000ff;fill-opacity:0.7;stroke:#0000ff;stroke-opacity:0.7;" x="140.644189" xlink:href="#m2fa63c1afe" y="281.133594"/>
     <use style="fill:#0000ff;fill-opacity:0.7;stroke:#0000ff;stroke-opacity:0.7;" x="153.166427" xlink:href="#m2fa63c1afe" y="281.133594"/>
     <use style="fill:#0000ff;fill-opacity:0.7;stroke:#0000ff;stroke-opacity:0.7;" x="165.688666" xlink:href="#m2fa63c1afe" y="281.133594"/>
     <use style="fill:#0000ff;fill-opacity:0.7;stroke:#0000ff;stroke-opacity:0.7;" x="178.210905" xlink:href="#m2fa63c1afe" y="140.900804"/>
     <use style="fill:#0000ff;fill-opacity:0.7;stroke:#0000ff;stroke-opacity:0.7;" x="190.733144" xlink:href="#m2fa63c1afe" y="281.133594"/>
     <use style="fill:#0000ff;fill-opacity:0.7;stroke:#0000ff;stroke-opacity:0.7;" x="203.255383" xlink:href="#m2fa63c1afe" y="281.133594"/>
     <use style="fill:#0000ff;fill-opacity:0.7;stroke:#0000ff;stroke-opacity:0.7;" x="215.777622" xlink:href="#m2fa63c1afe" y="281.133594"/>
     <use style="fill:#0000ff;fill-opacity:0.7;stroke:#0000ff;stroke-opacity:0.7;" x="228.29986" xlink:href="#m2fa63c1afe" y="281.133594"/>
     <use style="fill:#0000ff;fill-opacity:0.7;stroke:#0000ff;stroke-opacity:0.7;" x="240.822099" xlink:href="#m2fa63c1afe" y="281.133594"/>
     <use style="fill:#0000ff;fill-opacity:0.7;stroke:#0000ff;stroke-opacity:0.7;" x="253.344338" xlink:href="#m2fa63c1afe" y="281.133594"/>
     <use style="fill:#0000ff;fill-opacity:0.7;stroke:#0000ff;stroke-opacity:0.7;" x="265.866577" xlink:href="#m2fa63c1afe" y="281.133594"/>
     <use style="fill:#0000ff;fill-opacity:0.7;stroke:#0000ff;stroke-opacity:0.7;" x="278.388816" xlink:href="#m2fa63c1afe" y="281.133594"/>
     <use style="fill:#0000ff;fill-opacity:0.7;stroke:#0000ff;stroke-opacity:0.7;" x="290.911055" xlink:href="#m2fa63c1afe" y="281.133594"/>
     <use style="fill:#0000ff;fill-opacity:0.7;stroke:#0000ff;stroke-opacity:0.7;" x="303.433294" xlink:href="#m2fa63c1afe" y="281.133594"/>
     <use style="fill:#0000ff;fill-opacity:0.7;stroke:#0000ff;stroke-opacity:0.7;" x="315.955532" xlink:href="#m2fa63c1afe" y="281.133594"/>
     <use style="fill:#0000ff;fill-opacity:0.7;stroke:#0000ff;stroke-opacity:0.7;" x="328.477771" xlink:href="#m2fa63c1afe" y="281.133594"/>
     <use style="fill:#0000ff;fill-opacity:0.7;stroke:#0000ff;stroke-opacity:0.7;" x="341.00001" xlink:href="#m2fa63c1afe" y="281.133594"/>
     <use style="fill:#0000ff;fill-opacity:0.7;stroke:#0000ff;stroke-opacity:0.7;" x="353.522249" xlink:href="#m2fa63c1afe" y="281.133594"/>
     <use style="fill:#0000ff;fill-opacity:0.7;stroke:#0000ff;stroke-opacity:0.7;" x="366.044488" xlink:href="#m2fa63c1afe" y="281.133594"/>
     <use style="fill:#0000ff;fill-opacity:0.7;stroke:#0000ff;stroke-opacity:0.7;" x="378.566727" xlink:href="#m2fa63c1afe" y="281.133594"/>
     <use style="fill:#0000ff;fill-opacity:0.7;stroke:#0000ff;stroke-opacity:0.7;" x="391.088965" xlink:href="#m2fa63c1afe" y="281.133594"/>
     <use style="fill:#0000ff;fill-opacity:0.7;stroke:#0000ff;stroke-opacity:0.7;" x="403.611204" xlink:href="#m2fa63c1afe" y="281.133594"/>
     <use style="fill:#0000ff;fill-opacity:0.7;stroke:#0000ff;stroke-opacity:0.7;" x="416.133443" xlink:href="#m2fa63c1afe" y="211.017199"/>
    </g>
   </g>
   <g id="patch_3">
    <path d="M 71.771875 281.133594 
L 71.771875 39.232031 
" style="fill:none;stroke:#262626;stroke-linecap:square;stroke-linejoin:miter;stroke-width:0.8;"/>
   </g>
   <g id="patch_4">
    <path d="M 71.771875 281.133594 
L 422.394563 281.133594 
" style="fill:none;stroke:#262626;stroke-linecap:square;stroke-linejoin:miter;stroke-width:0.8;"/>
   </g>
   <g id="text_15">
    <text style="fill:#262626;font-family:Lato;font-size:15px;font-style:normal;font-weight:bold;text-anchor:middle;" transform="rotate(-0, 247.083219, 33.232031)" x="247.083219" y="33.232031">lb ratio on true tree (cluster 0)</text>
   </g>
   <g id="legend_1">
    <g id="patch_5">
     <path d="M 327.22021 135.992656 
L 434.793647 135.992656 
Q 437.793647 135.992656 437.793647 132.992656 
L 437.793647 45.312188 
Q 437.793647 42.312188 434.793647 42.312188 
L 327.22021 42.312188 
Q 324.22021 42.312188 324.22021 45.312188 
L 324.22021 132.992656 
Q 324.22021 135.992656 327.22021 135.992656 
z
" style="fill:#ffffff;opacity:0.8;stroke:#cccccc;stroke-linejoin:miter;"/>
    </g>
    <g id="text_16">
     <text style="fill:#262626;font-family:Lato;font-size:20px;font-style:normal;font-weight:600;text-anchor:start;" transform="rotate(-0, 349.045991, 63.171563)" x="349.045991" y="63.171563">affinity</text>
    </g>
    <g id="LineCollection_4">
     <path d="M 345.22021 87.416094 
L 345.22021 72.416094 
" style="fill:none;stroke:#808080;stroke-opacity:0.7;stroke-width:5;"/>
    </g>
    <g id="line2d_16">
     <path d="M 330.22021 79.916094 
L 360.22021 79.916094 
" style="fill:none;stroke:#808080;stroke-linecap:round;stroke-opacity:0.7;stroke-width:5;"/>
    </g>
    <g id="line2d_17">
     <g>
      <use style="fill:#808080;fill-opacity:0.7;stroke:#808080;stroke-opacity:0.7;" x="345.22021" xlink:href="#m95c22a7300" y="79.916094"/>
     </g>
    </g>
    <g id="text_17">
     <text style="fill:#262626;font-family:Lato;font-size:15px;font-style:normal;font-weight:600;text-anchor:start;" transform="rotate(-0, 372.22021, 85.166094)" x="372.22021" y="85.166094">constant</text>
    </g>
    <g id="LineCollection_5">
     <path d="M 345.22021 108.573125 
L 345.22021 93.573125 
" style="fill:none;stroke:#ff0000;stroke-opacity:0.7;stroke-width:3;"/>
    </g>
    <g id="line2d_18">
     <path d="M 330.22021 101.073125 
L 360.22021 101.073125 
" style="fill:none;stroke:#ff0000;stroke-linecap:round;stroke-opacity:0.7;stroke-width:3;"/>
    </g>
    <g id="line2d_19">
     <g>
      <use style="fill:#ff0000;fill-opacity:0.7;stroke:#ff0000;stroke-opacity:0.7;" x="345.22021" xlink:href="#m265cce0c8f" y="101.073125"/>
     </g>
    </g>
    <g id="text_18">
     <text style="fill:#262626;font-family:Lato;font-size:15px;font-style:normal;font-weight:600;text-anchor:start;" transform="rotate(-0, 372.22021, 106.323125)" x="372.22021" y="106.323125">decrease</text>
    </g>
    <g id="LineCollection_6">
     <path d="M 345.22021 129.730156 
L 345.22021 114.730156 
" style="fill:none;stroke:#0000ff;stroke-opacity:0.7;stroke-width:2;"/>
    </g>
    <g id="line2d_20">
     <path d="M 330.22021 122.230156 
L 360.22021 122.230156 
" style="fill:none;stroke:#0000ff;stroke-linecap:round;stroke-opacity:0.7;stroke-width:2;"/>
    </g>
    <g id="line2d_21">
     <g>
      <use style="fill:#0000ff;fill-opacity:0.7;stroke:#0000ff;stroke-opacity:0.7;" x="345.22021" xlink:href="#m2fa63c1afe" y="122.230156"/>
     </g>
    </g>
    <g id="text_19">
     <text style="fill:#262626;font-family:Lato;font-size:15px;font-style:normal;font-weight:600;text-anchor:start;" transform="rotate(-0, 372.22021, 127.480156)" x="372.22021" y="127.480156">increase</text>
    </g>
   </g>
  </g>
 </g>
 <defs>
  <clipPath id="pa40d68ca69">
   <rect height="241.901562" width="350.622687" x="71.771875" y="39.232031"/>
  </clipPath>
 </defs>
</svg>
