<?xml version="1.0" encoding="utf-8" standalone="no"?>
<!DOCTYPE svg PUBLIC "-//W3C//DTD SVG 1.1//EN"
  "http://www.w3.org/Graphics/SVG/1.1/DTD/svg11.dtd">
<!-- Created with matplotlib (http://matplotlib.org/) -->
<svg height="345.6pt" version="1.1" viewBox="0 0 460.8 345.6" width="460.8pt" xmlns="http://www.w3.org/2000/svg" xmlns:xlink="http://www.w3.org/1999/xlink">
 <defs>
  <style type="text/css">
*{stroke-linecap:butt;stroke-linejoin:round;}
  </style>
 </defs>
 <g id="figure_1">
  <g id="patch_1">
   <path d="M 0 345.6 
L 460.8 345.6 
L 460.8 0 
L 0 0 
z
" style="fill:#ffffff;"/>
  </g>
  <g id="axes_1">
   <g id="patch_2">
    <path d="M 92.16 276.48 
L 437.76 276.48 
L 437.76 27.648 
L 92.16 27.648 
z
" style="fill:#ffffff;"/>
   </g>
   <g id="matplotlib.axis_1">
    <g id="xtick_1">
     <g id="line2d_1">
      <defs>
       <path d="M 0 0 
L 0 3.5 
" id="mce5cd20ea6" style="stroke:#262626;stroke-width:0.8;"/>
      </defs>
      <g>
       <use style="fill:#262626;stroke:#262626;stroke-width:0.8;" x="195.84" xlink:href="#mce5cd20ea6" y="276.48"/>
      </g>
     </g>
     <g id="text_1">
      <text style="fill:#262626;font-family:DejaVu Sans;font-size:20px;font-style:normal;font-weight:normal;text-anchor:middle;" transform="rotate(-0, 195.84, 298.676875)" x="195.84" y="298.676875">5</text>
     </g>
    </g>
    <g id="xtick_2">
     <g id="line2d_2">
      <g>
       <use style="fill:#262626;stroke:#262626;stroke-width:0.8;" x="311.04" xlink:href="#mce5cd20ea6" y="276.48"/>
      </g>
     </g>
     <g id="text_2">
      <text style="fill:#262626;font-family:DejaVu Sans;font-size:20px;font-style:normal;font-weight:normal;text-anchor:middle;" transform="rotate(-0, 311.04, 298.676875)" x="311.04" y="298.676875">10</text>
     </g>
    </g>
    <g id="xtick_3">
     <g id="line2d_3">
      <g>
       <use style="fill:#262626;stroke:#262626;stroke-width:0.8;" x="426.24" xlink:href="#mce5cd20ea6" y="276.48"/>
      </g>
     </g>
     <g id="text_3">
      <text style="fill:#262626;font-family:DejaVu Sans;font-size:20px;font-style:normal;font-weight:normal;text-anchor:middle;" transform="rotate(-0, 426.24, 298.676875)" x="426.24" y="298.676875">15</text>
     </g>
    </g>
    <g id="text_4">
     <text style="fill:#262626;font-family:DejaVu Sans;font-size:20px;font-style:normal;font-weight:normal;text-anchor:middle;" transform="rotate(-0, 264.96, 322.033125)" x="264.96" y="322.033125">D 3' deletion</text>
    </g>
   </g>
   <g id="matplotlib.axis_2">
    <g id="ytick_1">
     <g id="line2d_4">
      <defs>
       <path d="M 0 0 
L -3.5 0 
" id="m22d2409c33" style="stroke:#262626;stroke-width:0.8;"/>
      </defs>
      <g>
       <use style="fill:#262626;stroke:#262626;stroke-width:0.8;" x="92.16" xlink:href="#m22d2409c33" y="270.153763"/>
      </g>
     </g>
     <g id="text_5">
      <text style="fill:#262626;font-family:DejaVu Sans;font-size:20px;font-style:normal;font-weight:normal;text-anchor:end;" transform="rotate(-0, 85.16, 277.7522)" x="85.16" y="277.7522">0</text>
     </g>
    </g>
    <g id="ytick_2">
     <g id="line2d_5">
      <g>
       <use style="fill:#262626;stroke:#262626;stroke-width:0.8;" x="92.16" xlink:href="#m22d2409c33" y="199.862237"/>
      </g>
     </g>
     <g id="text_6">
      <text style="fill:#262626;font-family:DejaVu Sans;font-size:20px;font-style:normal;font-weight:normal;text-anchor:end;" transform="rotate(-0, 85.16, 207.460675)" x="85.16" y="207.460675">1</text>
     </g>
    </g>
    <g id="ytick_3">
     <g id="line2d_6">
      <g>
       <use style="fill:#262626;stroke:#262626;stroke-width:0.8;" x="92.16" xlink:href="#m22d2409c33" y="129.570712"/>
      </g>
     </g>
     <g id="text_7">
      <text style="fill:#262626;font-family:DejaVu Sans;font-size:20px;font-style:normal;font-weight:normal;text-anchor:end;" transform="rotate(-0, 85.16, 137.169149)" x="85.16" y="137.169149">2</text>
     </g>
    </g>
    <g id="ytick_4">
     <g id="line2d_7">
      <g>
       <use style="fill:#262626;stroke:#262626;stroke-width:0.8;" x="92.16" xlink:href="#m22d2409c33" y="59.279186"/>
      </g>
     </g>
     <g id="text_8">
      <text style="fill:#262626;font-family:DejaVu Sans;font-size:20px;font-style:normal;font-weight:normal;text-anchor:end;" transform="rotate(-0, 85.16, 66.877624)" x="85.16" y="66.877624">3</text>
     </g>
    </g>
    <g id="text_9">
     <text style="fill:#262626;font-family:DejaVu Sans;font-size:20px;font-style:normal;font-weight:normal;text-anchor:middle;" transform="rotate(-90, 64.275625, 152.064)" x="64.275625" y="152.064">counts</text>
    </g>
   </g>
   <g id="LineCollection_1">
    <path clip-path="url(#p0a740060d1)" d="M 103.68 181.02768 
L 103.68 -1 
" style="fill:none;stroke:#4169e1;stroke-width:3;"/>
    <path clip-path="url(#p0a740060d1)" d="M 126.72 270.153763 
L 126.72 270.153763 
" style="fill:none;stroke:#4169e1;stroke-width:3;"/>
    <path clip-path="url(#p0a740060d1)" d="M 149.76 270.153763 
L 149.76 270.153763 
" style="fill:none;stroke:#4169e1;stroke-width:3;"/>
    <path clip-path="url(#p0a740060d1)" d="M 172.8 270.153763 
L 172.8 270.153763 
" style="fill:none;stroke:#4169e1;stroke-width:3;"/>
    <path clip-path="url(#p0a740060d1)" d="M 195.84 270.153763 
L 195.84 270.153763 
" style="fill:none;stroke:#4169e1;stroke-width:3;"/>
    <path clip-path="url(#p0a740060d1)" d="M 218.88 270.153763 
L 218.88 129.570712 
" style="fill:none;stroke:#4169e1;stroke-width:3;"/>
    <path clip-path="url(#p0a740060d1)" d="M 241.92 270.153763 
L 241.92 270.153763 
" style="fill:none;stroke:#4169e1;stroke-width:3;"/>
    <path clip-path="url(#p0a740060d1)" d="M 264.96 270.153763 
L 264.96 270.153763 
" style="fill:none;stroke:#4169e1;stroke-width:3;"/>
    <path clip-path="url(#p0a740060d1)" d="M 288 270.153763 
L 288 270.153763 
" style="fill:none;stroke:#4169e1;stroke-width:3;"/>
    <path clip-path="url(#p0a740060d1)" d="M 311.04 270.153763 
L 311.04 129.570712 
" style="fill:none;stroke:#4169e1;stroke-width:3;"/>
    <path clip-path="url(#p0a740060d1)" d="M 334.08 270.153763 
L 334.08 270.153763 
" style="fill:none;stroke:#4169e1;stroke-width:3;"/>
    <path clip-path="url(#p0a740060d1)" d="M 357.12 270.153763 
L 357.12 270.153763 
" style="fill:none;stroke:#4169e1;stroke-width:3;"/>
    <path clip-path="url(#p0a740060d1)" d="M 380.16 270.153763 
L 380.16 270.153763 
" style="fill:none;stroke:#4169e1;stroke-width:3;"/>
    <path clip-path="url(#p0a740060d1)" d="M 403.2 270.153763 
L 403.2 270.153763 
" style="fill:none;stroke:#4169e1;stroke-width:3;"/>
    <path clip-path="url(#p0a740060d1)" d="M 426.24 228.97794 
L 426.24 30.163483 
" style="fill:none;stroke:#4169e1;stroke-width:3;"/>
   </g>
   <g id="line2d_8">
    <path clip-path="url(#p0a740060d1)" d="M 103.68 59.279186 
L 126.72 270.153763 
L 149.76 270.153763 
L 172.8 270.153763 
L 195.84 270.153763 
L 218.88 199.862237 
L 241.92 270.153763 
L 264.96 270.153763 
L 288 270.153763 
L 311.04 199.862237 
L 334.08 270.153763 
L 357.12 270.153763 
L 380.16 270.153763 
L 403.2 270.153763 
L 426.24 129.570712 
" style="fill:none;stroke:#4169e1;stroke-linecap:round;stroke-width:3;"/>
    <defs>
     <path d="M 0 3.25 
C 0.86191 3.25 1.688635 2.907559 2.298097 2.298097 
C 2.907559 1.688635 3.25 0.86191 3.25 0 
C 3.25 -0.86191 2.907559 -1.688635 2.298097 -2.298097 
C 1.688635 -2.907559 0.86191 -3.25 0 -3.25 
C -0.86191 -3.25 -1.688635 -2.907559 -2.298097 -2.298097 
C -2.907559 -1.688635 -3.25 -0.86191 -3.25 0 
C -3.25 0.86191 -2.907559 1.688635 -2.298097 2.298097 
C -1.688635 2.907559 -0.86191 3.25 0 3.25 
z
" id="m14013ceedc" style="stroke:#4169e1;"/>
    </defs>
    <g clip-path="url(#p0a740060d1)">
     <use style="fill:#4169e1;stroke:#4169e1;" x="103.68" xlink:href="#m14013ceedc" y="59.279186"/>
     <use style="fill:#4169e1;stroke:#4169e1;" x="126.72" xlink:href="#m14013ceedc" y="270.153763"/>
     <use style="fill:#4169e1;stroke:#4169e1;" x="149.76" xlink:href="#m14013ceedc" y="270.153763"/>
     <use style="fill:#4169e1;stroke:#4169e1;" x="172.8" xlink:href="#m14013ceedc" y="270.153763"/>
     <use style="fill:#4169e1;stroke:#4169e1;" x="195.84" xlink:href="#m14013ceedc" y="270.153763"/>
     <use style="fill:#4169e1;stroke:#4169e1;" x="218.88" xlink:href="#m14013ceedc" y="199.862237"/>
     <use style="fill:#4169e1;stroke:#4169e1;" x="241.92" xlink:href="#m14013ceedc" y="270.153763"/>
     <use style="fill:#4169e1;stroke:#4169e1;" x="264.96" xlink:href="#m14013ceedc" y="270.153763"/>
     <use style="fill:#4169e1;stroke:#4169e1;" x="288" xlink:href="#m14013ceedc" y="270.153763"/>
     <use style="fill:#4169e1;stroke:#4169e1;" x="311.04" xlink:href="#m14013ceedc" y="199.862237"/>
     <use style="fill:#4169e1;stroke:#4169e1;" x="334.08" xlink:href="#m14013ceedc" y="270.153763"/>
     <use style="fill:#4169e1;stroke:#4169e1;" x="357.12" xlink:href="#m14013ceedc" y="270.153763"/>
     <use style="fill:#4169e1;stroke:#4169e1;" x="380.16" xlink:href="#m14013ceedc" y="270.153763"/>
     <use style="fill:#4169e1;stroke:#4169e1;" x="403.2" xlink:href="#m14013ceedc" y="270.153763"/>
     <use style="fill:#4169e1;stroke:#4169e1;" x="426.24" xlink:href="#m14013ceedc" y="129.570712"/>
    </g>
   </g>
   <g id="patch_3">
    <path d="M 92.16 276.48 
L 92.16 27.648 
" style="fill:none;stroke:#262626;stroke-linecap:square;stroke-linejoin:miter;stroke-width:0.8;"/>
   </g>
   <g id="patch_4">
    <path d="M 92.16 276.48 
L 437.76 276.48 
" style="fill:none;stroke:#262626;stroke-linecap:square;stroke-linejoin:miter;stroke-width:0.8;"/>
   </g>
   <g id="text_10">
    <text style="fill:#262626;font-family:DejaVu Sans;font-size:20px;font-style:normal;font-weight:bold;text-anchor:middle;" transform="rotate(-0, 264.96, 21.648)" x="264.96" y="21.648">IGHD2-15*01</text>
   </g>
  </g>
 </g>
 <defs>
  <clipPath id="p0a740060d1">
   <rect height="248.832" width="345.6" x="92.16" y="27.648"/>
  </clipPath>
 </defs>
</svg>
