<?xml version="1.0" encoding="utf-8" standalone="no"?>
<!DOCTYPE svg PUBLIC "-//W3C//DTD SVG 1.1//EN"
  "http://www.w3.org/Graphics/SVG/1.1/DTD/svg11.dtd">
<!-- Created with matplotlib (http://matplotlib.org/) -->
<svg height="345.6pt" version="1.1" viewBox="0 0 460.8 345.6" width="460.8pt" xmlns="http://www.w3.org/2000/svg" xmlns:xlink="http://www.w3.org/1999/xlink">
 <defs>
  <style type="text/css">
*{stroke-linecap:butt;stroke-linejoin:round;}
  </style>
 </defs>
 <g id="figure_1">
  <g id="patch_1">
   <path d="M 0 345.6 
L 460.8 345.6 
L 460.8 0 
L 0 0 
z
" style="fill:#ffffff;"/>
  </g>
  <g id="axes_1">
   <g id="patch_2">
    <path d="M 92.16 276.48 
L 437.76 276.48 
L 437.76 27.648 
L 92.16 27.648 
z
" style="fill:#ffffff;"/>
   </g>
   <g id="matplotlib.axis_1">
    <g id="xtick_1">
     <g id="line2d_1">
      <defs>
       <path d="M 0 0 
L 0 3.5 
" id="mdfd2b50fff" style="stroke:#262626;stroke-width:0.8;"/>
      </defs>
      <g>
       <use style="fill:#262626;stroke:#262626;stroke-width:0.8;" x="102.324706" xlink:href="#mdfd2b50fff" y="276.48"/>
      </g>
     </g>
     <g id="text_1">
      <text style="fill:#262626;font-family:DejaVu Sans;font-size:20px;font-style:normal;font-weight:normal;text-anchor:middle;" transform="rotate(-0, 102.324706, 298.676875)" x="102.324706" y="298.676875">0</text>
     </g>
    </g>
    <g id="xtick_2">
     <g id="line2d_2">
      <g>
       <use style="fill:#262626;stroke:#262626;stroke-width:0.8;" x="203.971765" xlink:href="#mdfd2b50fff" y="276.48"/>
      </g>
     </g>
     <g id="text_2">
      <text style="fill:#262626;font-family:DejaVu Sans;font-size:20px;font-style:normal;font-weight:normal;text-anchor:middle;" transform="rotate(-0, 203.971765, 298.676875)" x="203.971765" y="298.676875">5</text>
     </g>
    </g>
    <g id="xtick_3">
     <g id="line2d_3">
      <g>
       <use style="fill:#262626;stroke:#262626;stroke-width:0.8;" x="305.618824" xlink:href="#mdfd2b50fff" y="276.48"/>
      </g>
     </g>
     <g id="text_3">
      <text style="fill:#262626;font-family:DejaVu Sans;font-size:20px;font-style:normal;font-weight:normal;text-anchor:middle;" transform="rotate(-0, 305.618824, 298.676875)" x="305.618824" y="298.676875">10</text>
     </g>
    </g>
    <g id="xtick_4">
     <g id="line2d_4">
      <g>
       <use style="fill:#262626;stroke:#262626;stroke-width:0.8;" x="407.265882" xlink:href="#mdfd2b50fff" y="276.48"/>
      </g>
     </g>
     <g id="text_4">
      <text style="fill:#262626;font-family:DejaVu Sans;font-size:20px;font-style:normal;font-weight:normal;text-anchor:middle;" transform="rotate(-0, 407.265882, 298.676875)" x="407.265882" y="298.676875">15</text>
     </g>
    </g>
    <g id="text_5">
     <text style="fill:#262626;font-family:DejaVu Sans;font-size:20px;font-style:normal;font-weight:normal;text-anchor:middle;" transform="rotate(-0, 264.96, 322.033125)" x="264.96" y="322.033125">D 3' deletion</text>
    </g>
   </g>
   <g id="matplotlib.axis_2">
    <g id="ytick_1">
     <g id="line2d_5">
      <defs>
       <path d="M 0 0 
L -3.5 0 
" id="mfdfe8c947e" style="stroke:#262626;stroke-width:0.8;"/>
      </defs>
      <g>
       <use style="fill:#262626;stroke:#262626;stroke-width:0.8;" x="92.16" xlink:href="#mfdfe8c947e" y="270.153763"/>
      </g>
     </g>
     <g id="text_6">
      <text style="fill:#262626;font-family:DejaVu Sans;font-size:20px;font-style:normal;font-weight:normal;text-anchor:end;" transform="rotate(-0, 85.16, 277.7522)" x="85.16" y="277.7522">0</text>
     </g>
    </g>
    <g id="ytick_2">
     <g id="line2d_6">
      <g>
       <use style="fill:#262626;stroke:#262626;stroke-width:0.8;" x="92.16" xlink:href="#mfdfe8c947e" y="209.903884"/>
      </g>
     </g>
     <g id="text_7">
      <text style="fill:#262626;font-family:DejaVu Sans;font-size:20px;font-style:normal;font-weight:normal;text-anchor:end;" transform="rotate(-0, 85.16, 217.502321)" x="85.16" y="217.502321">20</text>
     </g>
    </g>
    <g id="ytick_3">
     <g id="line2d_7">
      <g>
       <use style="fill:#262626;stroke:#262626;stroke-width:0.8;" x="92.16" xlink:href="#mfdfe8c947e" y="149.654005"/>
      </g>
     </g>
     <g id="text_8">
      <text style="fill:#262626;font-family:DejaVu Sans;font-size:20px;font-style:normal;font-weight:normal;text-anchor:end;" transform="rotate(-0, 85.16, 157.252442)" x="85.16" y="157.252442">40</text>
     </g>
    </g>
    <g id="ytick_4">
     <g id="line2d_8">
      <g>
       <use style="fill:#262626;stroke:#262626;stroke-width:0.8;" x="92.16" xlink:href="#mfdfe8c947e" y="89.404126"/>
      </g>
     </g>
     <g id="text_9">
      <text style="fill:#262626;font-family:DejaVu Sans;font-size:20px;font-style:normal;font-weight:normal;text-anchor:end;" transform="rotate(-0, 85.16, 97.002563)" x="85.16" y="97.002563">60</text>
     </g>
    </g>
    <g id="ytick_5">
     <g id="line2d_9">
      <g>
       <use style="fill:#262626;stroke:#262626;stroke-width:0.8;" x="92.16" xlink:href="#mfdfe8c947e" y="29.154247"/>
      </g>
     </g>
     <g id="text_10">
      <text style="fill:#262626;font-family:DejaVu Sans;font-size:20px;font-style:normal;font-weight:normal;text-anchor:end;" transform="rotate(-0, 85.16, 36.752684)" x="85.16" y="36.752684">80</text>
     </g>
    </g>
    <g id="text_11">
     <text style="fill:#262626;font-family:DejaVu Sans;font-size:20px;font-style:normal;font-weight:normal;text-anchor:middle;" transform="rotate(-90, 51.550625, 152.064)" x="51.550625" y="152.064">counts</text>
    </g>
   </g>
   <g id="LineCollection_1">
    <path clip-path="url(#p940fc77e43)" d="M 102.324706 270.153763 
L 102.324706 264.128775 
" style="fill:none;stroke:#4169e1;stroke-width:3;"/>
    <path clip-path="url(#p940fc77e43)" d="M 122.654118 84.483519 
L 122.654118 34.074854 
" style="fill:none;stroke:#4169e1;stroke-width:3;"/>
    <path clip-path="url(#p940fc77e43)" d="M 142.983529 270.153763 
L 142.983529 264.128775 
" style="fill:none;stroke:#4169e1;stroke-width:3;"/>
    <path clip-path="url(#p940fc77e43)" d="M 163.312941 270.153763 
L 163.312941 270.153763 
" style="fill:none;stroke:#4169e1;stroke-width:3;"/>
    <path clip-path="url(#p940fc77e43)" d="M 183.642353 270.153763 
L 183.642353 264.128775 
" style="fill:none;stroke:#4169e1;stroke-width:3;"/>
    <path clip-path="url(#p940fc77e43)" d="M 203.971765 270.153763 
L 203.971765 270.153763 
" style="fill:none;stroke:#4169e1;stroke-width:3;"/>
    <path clip-path="url(#p940fc77e43)" d="M 224.301176 270.153763 
L 224.301176 270.153763 
" style="fill:none;stroke:#4169e1;stroke-width:3;"/>
    <path clip-path="url(#p940fc77e43)" d="M 244.630588 270.153763 
L 244.630588 270.153763 
" style="fill:none;stroke:#4169e1;stroke-width:3;"/>
    <path clip-path="url(#p940fc77e43)" d="M 264.96 270.153763 
L 264.96 270.153763 
" style="fill:none;stroke:#4169e1;stroke-width:3;"/>
    <path clip-path="url(#p940fc77e43)" d="M 285.289412 270.153763 
L 285.289412 270.153763 
" style="fill:none;stroke:#4169e1;stroke-width:3;"/>
    <path clip-path="url(#p940fc77e43)" d="M 305.618824 249.555166 
L 305.618824 230.502481 
" style="fill:none;stroke:#4169e1;stroke-width:3;"/>
    <path clip-path="url(#p940fc77e43)" d="M 325.948235 264.128775 
L 325.948235 252.078799 
" style="fill:none;stroke:#4169e1;stroke-width:3;"/>
    <path clip-path="url(#p940fc77e43)" d="M 346.277647 266.334073 
L 346.277647 255.898488 
" style="fill:none;stroke:#4169e1;stroke-width:3;"/>
    <path clip-path="url(#p940fc77e43)" d="M 366.607059 264.128775 
L 366.607059 252.078799 
" style="fill:none;stroke:#4169e1;stroke-width:3;"/>
    <path clip-path="url(#p940fc77e43)" d="M 386.936471 254.574431 
L 386.936471 237.533192 
" style="fill:none;stroke:#4169e1;stroke-width:3;"/>
    <path clip-path="url(#p940fc77e43)" d="M 407.265882 268.389085 
L 407.265882 259.868465 
" style="fill:none;stroke:#4169e1;stroke-width:3;"/>
    <path clip-path="url(#p940fc77e43)" d="M 427.595294 268.389085 
L 427.595294 259.868465 
" style="fill:none;stroke:#4169e1;stroke-width:3;"/>
   </g>
   <g id="line2d_10">
    <path clip-path="url(#p940fc77e43)" d="M 102.324706 267.141269 
L 122.654118 59.279186 
L 142.983529 267.141269 
L 163.312941 270.153763 
L 183.642353 267.141269 
L 203.971765 270.153763 
L 224.301176 270.153763 
L 244.630588 270.153763 
L 264.96 270.153763 
L 285.289412 270.153763 
L 305.618824 240.028823 
L 325.948235 258.103787 
L 346.277647 261.116281 
L 366.607059 258.103787 
L 386.936471 246.053811 
L 407.265882 264.128775 
L 427.595294 264.128775 
" style="fill:none;stroke:#4169e1;stroke-linecap:round;stroke-width:3;"/>
    <defs>
     <path d="M 0 3.25 
C 0.86191 3.25 1.688635 2.907559 2.298097 2.298097 
C 2.907559 1.688635 3.25 0.86191 3.25 0 
C 3.25 -0.86191 2.907559 -1.688635 2.298097 -2.298097 
C 1.688635 -2.907559 0.86191 -3.25 0 -3.25 
C -0.86191 -3.25 -1.688635 -2.907559 -2.298097 -2.298097 
C -2.907559 -1.688635 -3.25 -0.86191 -3.25 0 
C -3.25 0.86191 -2.907559 1.688635 -2.298097 2.298097 
C -1.688635 2.907559 -0.86191 3.25 0 3.25 
z
" id="ma3f400e7dd" style="stroke:#4169e1;"/>
    </defs>
    <g clip-path="url(#p940fc77e43)">
     <use style="fill:#4169e1;stroke:#4169e1;" x="102.324706" xlink:href="#ma3f400e7dd" y="267.141269"/>
     <use style="fill:#4169e1;stroke:#4169e1;" x="122.654118" xlink:href="#ma3f400e7dd" y="59.279186"/>
     <use style="fill:#4169e1;stroke:#4169e1;" x="142.983529" xlink:href="#ma3f400e7dd" y="267.141269"/>
     <use style="fill:#4169e1;stroke:#4169e1;" x="163.312941" xlink:href="#ma3f400e7dd" y="270.153763"/>
     <use style="fill:#4169e1;stroke:#4169e1;" x="183.642353" xlink:href="#ma3f400e7dd" y="267.141269"/>
     <use style="fill:#4169e1;stroke:#4169e1;" x="203.971765" xlink:href="#ma3f400e7dd" y="270.153763"/>
     <use style="fill:#4169e1;stroke:#4169e1;" x="224.301176" xlink:href="#ma3f400e7dd" y="270.153763"/>
     <use style="fill:#4169e1;stroke:#4169e1;" x="244.630588" xlink:href="#ma3f400e7dd" y="270.153763"/>
     <use style="fill:#4169e1;stroke:#4169e1;" x="264.96" xlink:href="#ma3f400e7dd" y="270.153763"/>
     <use style="fill:#4169e1;stroke:#4169e1;" x="285.289412" xlink:href="#ma3f400e7dd" y="270.153763"/>
     <use style="fill:#4169e1;stroke:#4169e1;" x="305.618824" xlink:href="#ma3f400e7dd" y="240.028823"/>
     <use style="fill:#4169e1;stroke:#4169e1;" x="325.948235" xlink:href="#ma3f400e7dd" y="258.103787"/>
     <use style="fill:#4169e1;stroke:#4169e1;" x="346.277647" xlink:href="#ma3f400e7dd" y="261.116281"/>
     <use style="fill:#4169e1;stroke:#4169e1;" x="366.607059" xlink:href="#ma3f400e7dd" y="258.103787"/>
     <use style="fill:#4169e1;stroke:#4169e1;" x="386.936471" xlink:href="#ma3f400e7dd" y="246.053811"/>
     <use style="fill:#4169e1;stroke:#4169e1;" x="407.265882" xlink:href="#ma3f400e7dd" y="264.128775"/>
     <use style="fill:#4169e1;stroke:#4169e1;" x="427.595294" xlink:href="#ma3f400e7dd" y="264.128775"/>
    </g>
   </g>
   <g id="patch_3">
    <path d="M 92.16 276.48 
L 92.16 27.648 
" style="fill:none;stroke:#262626;stroke-linecap:square;stroke-linejoin:miter;stroke-width:0.8;"/>
   </g>
   <g id="patch_4">
    <path d="M 92.16 276.48 
L 437.76 276.48 
" style="fill:none;stroke:#262626;stroke-linecap:square;stroke-linejoin:miter;stroke-width:0.8;"/>
   </g>
   <g id="text_12">
    <text style="fill:#262626;font-family:DejaVu Sans;font-size:20px;font-style:normal;font-weight:bold;text-anchor:middle;" transform="rotate(-0, 264.96, 21.648)" x="264.96" y="21.648">IGHD2-21*02</text>
   </g>
  </g>
 </g>
 <defs>
  <clipPath id="p940fc77e43">
   <rect height="248.832" width="345.6" x="92.16" y="27.648"/>
  </clipPath>
 </defs>
</svg>
