<?xml version="1.0" encoding="utf-8" standalone="no"?>
<!DOCTYPE svg PUBLIC "-//W3C//DTD SVG 1.1//EN"
  "http://www.w3.org/Graphics/SVG/1.1/DTD/svg11.dtd">
<!-- Created with matplotlib (http://matplotlib.org/) -->
<svg height="345.6pt" version="1.1" viewBox="0 0 460.8 345.6" width="460.8pt" xmlns="http://www.w3.org/2000/svg" xmlns:xlink="http://www.w3.org/1999/xlink">
 <defs>
  <style type="text/css">
*{stroke-linecap:butt;stroke-linejoin:round;}
  </style>
 </defs>
 <g id="figure_1">
  <g id="patch_1">
   <path d="M 0 345.6 
L 460.8 345.6 
L 460.8 0 
L 0 0 
z
" style="fill:#ffffff;"/>
  </g>
  <g id="axes_1">
   <g id="patch_2">
    <path d="M 92.16 276.48 
L 437.76 276.48 
L 437.76 27.648 
L 92.16 27.648 
z
" style="fill:#ffffff;"/>
   </g>
   <g id="matplotlib.axis_1">
    <g id="xtick_1">
     <g id="line2d_1">
      <defs>
       <path d="M 0 0 
L 0 3.5 
" id="m56dabde8d1" style="stroke:#262626;stroke-width:0.8;"/>
      </defs>
      <g>
       <use style="fill:#262626;stroke:#262626;stroke-width:0.8;" x="178.56" xlink:href="#m56dabde8d1" y="276.48"/>
      </g>
     </g>
     <g id="text_1">
      <text style="fill:#262626;font-family:DejaVu Sans;font-size:20px;font-style:normal;font-weight:normal;text-anchor:middle;" transform="rotate(-0, 178.56, 298.676875)" x="178.56" y="298.676875">5</text>
     </g>
    </g>
    <g id="xtick_2">
     <g id="line2d_2">
      <g>
       <use style="fill:#262626;stroke:#262626;stroke-width:0.8;" x="274.56" xlink:href="#m56dabde8d1" y="276.48"/>
      </g>
     </g>
     <g id="text_2">
      <text style="fill:#262626;font-family:DejaVu Sans;font-size:20px;font-style:normal;font-weight:normal;text-anchor:middle;" transform="rotate(-0, 274.56, 298.676875)" x="274.56" y="298.676875">10</text>
     </g>
    </g>
    <g id="xtick_3">
     <g id="line2d_3">
      <g>
       <use style="fill:#262626;stroke:#262626;stroke-width:0.8;" x="370.56" xlink:href="#m56dabde8d1" y="276.48"/>
      </g>
     </g>
     <g id="text_3">
      <text style="fill:#262626;font-family:DejaVu Sans;font-size:20px;font-style:normal;font-weight:normal;text-anchor:middle;" transform="rotate(-0, 370.56, 298.676875)" x="370.56" y="298.676875">15</text>
     </g>
    </g>
    <g id="text_4">
     <text style="fill:#262626;font-family:DejaVu Sans;font-size:20px;font-style:normal;font-weight:normal;text-anchor:middle;" transform="rotate(-0, 264.96, 322.033125)" x="264.96" y="322.033125">D 3' deletion</text>
    </g>
   </g>
   <g id="matplotlib.axis_2">
    <g id="ytick_1">
     <g id="line2d_4">
      <defs>
       <path d="M 0 0 
L -3.5 0 
" id="m154930811f" style="stroke:#262626;stroke-width:0.8;"/>
      </defs>
      <g>
       <use style="fill:#262626;stroke:#262626;stroke-width:0.8;" x="92.16" xlink:href="#m154930811f" y="270.153763"/>
      </g>
     </g>
     <g id="text_5">
      <text style="fill:#262626;font-family:DejaVu Sans;font-size:20px;font-style:normal;font-weight:normal;text-anchor:end;" transform="rotate(-0, 85.16, 277.7522)" x="85.16" y="277.7522">0</text>
     </g>
    </g>
    <g id="ytick_2">
     <g id="line2d_5">
      <g>
       <use style="fill:#262626;stroke:#262626;stroke-width:0.8;" x="92.16" xlink:href="#m154930811f" y="196.933424"/>
      </g>
     </g>
     <g id="text_6">
      <text style="fill:#262626;font-family:DejaVu Sans;font-size:20px;font-style:normal;font-weight:normal;text-anchor:end;" transform="rotate(-0, 85.16, 204.531861)" x="85.16" y="204.531861">50</text>
     </g>
    </g>
    <g id="ytick_3">
     <g id="line2d_6">
      <g>
       <use style="fill:#262626;stroke:#262626;stroke-width:0.8;" x="92.16" xlink:href="#m154930811f" y="123.713085"/>
      </g>
     </g>
     <g id="text_7">
      <text style="fill:#262626;font-family:DejaVu Sans;font-size:20px;font-style:normal;font-weight:normal;text-anchor:end;" transform="rotate(-0, 85.16, 131.311522)" x="85.16" y="131.311522">100</text>
     </g>
    </g>
    <g id="ytick_4">
     <g id="line2d_7">
      <g>
       <use style="fill:#262626;stroke:#262626;stroke-width:0.8;" x="92.16" xlink:href="#m154930811f" y="50.492746"/>
      </g>
     </g>
     <g id="text_8">
      <text style="fill:#262626;font-family:DejaVu Sans;font-size:20px;font-style:normal;font-weight:normal;text-anchor:end;" transform="rotate(-0, 85.16, 58.091183)" x="85.16" y="58.091183">150</text>
     </g>
    </g>
    <g id="text_9">
     <text style="fill:#262626;font-family:DejaVu Sans;font-size:20px;font-style:normal;font-weight:normal;text-anchor:middle;" transform="rotate(-90, 38.825625, 152.064)" x="38.825625" y="152.064">counts</text>
    </g>
   </g>
   <g id="LineCollection_1">
    <path clip-path="url(#pd62d049da0)" d="M 101.76 269.295933 
L 101.76 265.153965 
" style="fill:none;stroke:#4169e1;stroke-width:3;"/>
    <path clip-path="url(#pd62d049da0)" d="M 120.96 270.153763 
L 120.96 267.224949 
" style="fill:none;stroke:#4169e1;stroke-width:3;"/>
    <path clip-path="url(#pd62d049da0)" d="M 140.16 267.224949 
L 140.16 261.367322 
" style="fill:none;stroke:#4169e1;stroke-width:3;"/>
    <path clip-path="url(#pd62d049da0)" d="M 159.36 267.224949 
L 159.36 261.367322 
" style="fill:none;stroke:#4169e1;stroke-width:3;"/>
    <path clip-path="url(#pd62d049da0)" d="M 178.56 267.224949 
L 178.56 261.367322 
" style="fill:none;stroke:#4169e1;stroke-width:3;"/>
    <path clip-path="url(#pd62d049da0)" d="M 197.76 270.153763 
L 197.76 270.153763 
" style="fill:none;stroke:#4169e1;stroke-width:3;"/>
    <path clip-path="url(#pd62d049da0)" d="M 216.96 270.153763 
L 216.96 270.153763 
" style="fill:none;stroke:#4169e1;stroke-width:3;"/>
    <path clip-path="url(#pd62d049da0)" d="M 236.16 270.153763 
L 236.16 270.153763 
" style="fill:none;stroke:#4169e1;stroke-width:3;"/>
    <path clip-path="url(#pd62d049da0)" d="M 255.36 270.153763 
L 255.36 270.153763 
" style="fill:none;stroke:#4169e1;stroke-width:3;"/>
    <path clip-path="url(#pd62d049da0)" d="M 274.56 270.153763 
L 274.56 270.153763 
" style="fill:none;stroke:#4169e1;stroke-width:3;"/>
    <path clip-path="url(#pd62d049da0)" d="M 293.76 270.153763 
L 293.76 270.153763 
" style="fill:none;stroke:#4169e1;stroke-width:3;"/>
    <path clip-path="url(#pd62d049da0)" d="M 312.96 270.153763 
L 312.96 270.153763 
" style="fill:none;stroke:#4169e1;stroke-width:3;"/>
    <path clip-path="url(#pd62d049da0)" d="M 332.16 267.224949 
L 332.16 261.367322 
" style="fill:none;stroke:#4169e1;stroke-width:3;"/>
    <path clip-path="url(#pd62d049da0)" d="M 351.36 270.153763 
L 351.36 270.153763 
" style="fill:none;stroke:#4169e1;stroke-width:3;"/>
    <path clip-path="url(#pd62d049da0)" d="M 370.56 76.852068 
L 370.56 41.706305 
" style="fill:none;stroke:#4169e1;stroke-width:3;"/>
    <path clip-path="url(#pd62d049da0)" d="M 389.76 270.153763 
L 389.76 270.153763 
" style="fill:none;stroke:#4169e1;stroke-width:3;"/>
    <path clip-path="url(#pd62d049da0)" d="M 408.96 236.899285 
L 408.96 221.401461 
" style="fill:none;stroke:#4169e1;stroke-width:3;"/>
    <path clip-path="url(#pd62d049da0)" d="M 428.16 263.777371 
L 428.16 256.028459 
" style="fill:none;stroke:#4169e1;stroke-width:3;"/>
   </g>
   <g id="line2d_8">
    <path clip-path="url(#pd62d049da0)" d="M 101.76 267.224949 
L 120.96 268.689356 
L 140.16 264.296136 
L 159.36 264.296136 
L 178.56 264.296136 
L 197.76 270.153763 
L 216.96 270.153763 
L 236.16 270.153763 
L 255.36 270.153763 
L 274.56 270.153763 
L 293.76 270.153763 
L 312.96 270.153763 
L 332.16 264.296136 
L 351.36 270.153763 
L 370.56 59.279186 
L 389.76 270.153763 
L 408.96 229.150373 
L 428.16 259.902915 
" style="fill:none;stroke:#4169e1;stroke-linecap:round;stroke-width:3;"/>
    <defs>
     <path d="M 0 3.25 
C 0.86191 3.25 1.688635 2.907559 2.298097 2.298097 
C 2.907559 1.688635 3.25 0.86191 3.25 0 
C 3.25 -0.86191 2.907559 -1.688635 2.298097 -2.298097 
C 1.688635 -2.907559 0.86191 -3.25 0 -3.25 
C -0.86191 -3.25 -1.688635 -2.907559 -2.298097 -2.298097 
C -2.907559 -1.688635 -3.25 -0.86191 -3.25 0 
C -3.25 0.86191 -2.907559 1.688635 -2.298097 2.298097 
C -1.688635 2.907559 -0.86191 3.25 0 3.25 
z
" id="m44c6c6a93b" style="stroke:#4169e1;"/>
    </defs>
    <g clip-path="url(#pd62d049da0)">
     <use style="fill:#4169e1;stroke:#4169e1;" x="101.76" xlink:href="#m44c6c6a93b" y="267.224949"/>
     <use style="fill:#4169e1;stroke:#4169e1;" x="120.96" xlink:href="#m44c6c6a93b" y="268.689356"/>
     <use style="fill:#4169e1;stroke:#4169e1;" x="140.16" xlink:href="#m44c6c6a93b" y="264.296136"/>
     <use style="fill:#4169e1;stroke:#4169e1;" x="159.36" xlink:href="#m44c6c6a93b" y="264.296136"/>
     <use style="fill:#4169e1;stroke:#4169e1;" x="178.56" xlink:href="#m44c6c6a93b" y="264.296136"/>
     <use style="fill:#4169e1;stroke:#4169e1;" x="197.76" xlink:href="#m44c6c6a93b" y="270.153763"/>
     <use style="fill:#4169e1;stroke:#4169e1;" x="216.96" xlink:href="#m44c6c6a93b" y="270.153763"/>
     <use style="fill:#4169e1;stroke:#4169e1;" x="236.16" xlink:href="#m44c6c6a93b" y="270.153763"/>
     <use style="fill:#4169e1;stroke:#4169e1;" x="255.36" xlink:href="#m44c6c6a93b" y="270.153763"/>
     <use style="fill:#4169e1;stroke:#4169e1;" x="274.56" xlink:href="#m44c6c6a93b" y="270.153763"/>
     <use style="fill:#4169e1;stroke:#4169e1;" x="293.76" xlink:href="#m44c6c6a93b" y="270.153763"/>
     <use style="fill:#4169e1;stroke:#4169e1;" x="312.96" xlink:href="#m44c6c6a93b" y="270.153763"/>
     <use style="fill:#4169e1;stroke:#4169e1;" x="332.16" xlink:href="#m44c6c6a93b" y="264.296136"/>
     <use style="fill:#4169e1;stroke:#4169e1;" x="351.36" xlink:href="#m44c6c6a93b" y="270.153763"/>
     <use style="fill:#4169e1;stroke:#4169e1;" x="370.56" xlink:href="#m44c6c6a93b" y="59.279186"/>
     <use style="fill:#4169e1;stroke:#4169e1;" x="389.76" xlink:href="#m44c6c6a93b" y="270.153763"/>
     <use style="fill:#4169e1;stroke:#4169e1;" x="408.96" xlink:href="#m44c6c6a93b" y="229.150373"/>
     <use style="fill:#4169e1;stroke:#4169e1;" x="428.16" xlink:href="#m44c6c6a93b" y="259.902915"/>
    </g>
   </g>
   <g id="patch_3">
    <path d="M 92.16 276.48 
L 92.16 27.648 
" style="fill:none;stroke:#262626;stroke-linecap:square;stroke-linejoin:miter;stroke-width:0.8;"/>
   </g>
   <g id="patch_4">
    <path d="M 92.16 276.48 
L 437.76 276.48 
" style="fill:none;stroke:#262626;stroke-linecap:square;stroke-linejoin:miter;stroke-width:0.8;"/>
   </g>
   <g id="text_10">
    <text style="fill:#262626;font-family:DejaVu Sans;font-size:20px;font-style:normal;font-weight:bold;text-anchor:middle;" transform="rotate(-0, 264.96, 21.648)" x="264.96" y="21.648">IGHD3-16*02</text>
   </g>
  </g>
 </g>
 <defs>
  <clipPath id="pd62d049da0">
   <rect height="248.832" width="345.6" x="92.16" y="27.648"/>
  </clipPath>
 </defs>
</svg>
