<?xml version="1.0" encoding="utf-8" standalone="no"?>
<!DOCTYPE svg PUBLIC "-//W3C//DTD SVG 1.1//EN"
  "http://www.w3.org/Graphics/SVG/1.1/DTD/svg11.dtd">
<!-- Created with matplotlib (http://matplotlib.org/) -->
<svg height="345.6pt" version="1.1" viewBox="0 0 460.8 345.6" width="460.8pt" xmlns="http://www.w3.org/2000/svg" xmlns:xlink="http://www.w3.org/1999/xlink">
 <defs>
  <style type="text/css">
*{stroke-linecap:butt;stroke-linejoin:round;}
  </style>
 </defs>
 <g id="figure_1">
  <g id="patch_1">
   <path d="M 0 345.6 
L 460.8 345.6 
L 460.8 0 
L 0 0 
z
" style="fill:#ffffff;"/>
  </g>
  <g id="axes_1">
   <g id="patch_2">
    <path d="M 92.16 276.48 
L 437.76 276.48 
L 437.76 27.648 
L 92.16 27.648 
z
" style="fill:#ffffff;"/>
   </g>
   <g id="matplotlib.axis_1">
    <g id="xtick_1">
     <g id="line2d_1">
      <defs>
       <path d="M 0 0 
L 0 3.5 
" id="m721217a857" style="stroke:#262626;stroke-width:0.8;"/>
      </defs>
      <g>
       <use style="fill:#262626;stroke:#262626;stroke-width:0.8;" x="106.56" xlink:href="#m721217a857" y="276.48"/>
      </g>
     </g>
     <g id="text_1">
      <text style="fill:#262626;font-family:DejaVu Sans;font-size:20px;font-style:normal;font-weight:normal;text-anchor:middle;" transform="rotate(-0, 106.56, 298.676875)" x="106.56" y="298.676875">0.0</text>
     </g>
    </g>
    <g id="xtick_2">
     <g id="line2d_2">
      <g>
       <use style="fill:#262626;stroke:#262626;stroke-width:0.8;" x="178.56" xlink:href="#m721217a857" y="276.48"/>
      </g>
     </g>
     <g id="text_2">
      <text style="fill:#262626;font-family:DejaVu Sans;font-size:20px;font-style:normal;font-weight:normal;text-anchor:middle;" transform="rotate(-0, 178.56, 298.676875)" x="178.56" y="298.676875">2.5</text>
     </g>
    </g>
    <g id="xtick_3">
     <g id="line2d_3">
      <g>
       <use style="fill:#262626;stroke:#262626;stroke-width:0.8;" x="250.56" xlink:href="#m721217a857" y="276.48"/>
      </g>
     </g>
     <g id="text_3">
      <text style="fill:#262626;font-family:DejaVu Sans;font-size:20px;font-style:normal;font-weight:normal;text-anchor:middle;" transform="rotate(-0, 250.56, 298.676875)" x="250.56" y="298.676875">5.0</text>
     </g>
    </g>
    <g id="xtick_4">
     <g id="line2d_4">
      <g>
       <use style="fill:#262626;stroke:#262626;stroke-width:0.8;" x="322.56" xlink:href="#m721217a857" y="276.48"/>
      </g>
     </g>
     <g id="text_4">
      <text style="fill:#262626;font-family:DejaVu Sans;font-size:20px;font-style:normal;font-weight:normal;text-anchor:middle;" transform="rotate(-0, 322.56, 298.676875)" x="322.56" y="298.676875">7.5</text>
     </g>
    </g>
    <g id="xtick_5">
     <g id="line2d_5">
      <g>
       <use style="fill:#262626;stroke:#262626;stroke-width:0.8;" x="394.56" xlink:href="#m721217a857" y="276.48"/>
      </g>
     </g>
     <g id="text_5">
      <text style="fill:#262626;font-family:DejaVu Sans;font-size:20px;font-style:normal;font-weight:normal;text-anchor:middle;" transform="rotate(-0, 394.56, 298.676875)" x="394.56" y="298.676875">10.0</text>
     </g>
    </g>
    <g id="text_6">
     <text style="fill:#262626;font-family:DejaVu Sans;font-size:20px;font-style:normal;font-weight:normal;text-anchor:middle;" transform="rotate(-0, 264.96, 322.033125)" x="264.96" y="322.033125">D 3' deletion</text>
    </g>
   </g>
   <g id="matplotlib.axis_2">
    <g id="ytick_1">
     <g id="line2d_6">
      <defs>
       <path d="M 0 0 
L -3.5 0 
" id="m887d43acb6" style="stroke:#262626;stroke-width:0.8;"/>
      </defs>
      <g>
       <use style="fill:#262626;stroke:#262626;stroke-width:0.8;" x="92.16" xlink:href="#m887d43acb6" y="270.153763"/>
      </g>
     </g>
     <g id="text_7">
      <text style="fill:#262626;font-family:DejaVu Sans;font-size:20px;font-style:normal;font-weight:normal;text-anchor:end;" transform="rotate(-0, 85.16, 277.7522)" x="85.16" y="277.7522">0</text>
     </g>
    </g>
    <g id="ytick_2">
     <g id="line2d_7">
      <g>
       <use style="fill:#262626;stroke:#262626;stroke-width:0.8;" x="92.16" xlink:href="#m887d43acb6" y="194.841414"/>
      </g>
     </g>
     <g id="text_8">
      <text style="fill:#262626;font-family:DejaVu Sans;font-size:20px;font-style:normal;font-weight:normal;text-anchor:end;" transform="rotate(-0, 85.16, 202.439852)" x="85.16" y="202.439852">200</text>
     </g>
    </g>
    <g id="ytick_3">
     <g id="line2d_8">
      <g>
       <use style="fill:#262626;stroke:#262626;stroke-width:0.8;" x="92.16" xlink:href="#m887d43acb6" y="119.529065"/>
      </g>
     </g>
     <g id="text_9">
      <text style="fill:#262626;font-family:DejaVu Sans;font-size:20px;font-style:normal;font-weight:normal;text-anchor:end;" transform="rotate(-0, 85.16, 127.127503)" x="85.16" y="127.127503">400</text>
     </g>
    </g>
    <g id="ytick_4">
     <g id="line2d_9">
      <g>
       <use style="fill:#262626;stroke:#262626;stroke-width:0.8;" x="92.16" xlink:href="#m887d43acb6" y="44.216717"/>
      </g>
     </g>
     <g id="text_10">
      <text style="fill:#262626;font-family:DejaVu Sans;font-size:20px;font-style:normal;font-weight:normal;text-anchor:end;" transform="rotate(-0, 85.16, 51.815154)" x="85.16" y="51.815154">600</text>
     </g>
    </g>
    <g id="text_11">
     <text style="fill:#262626;font-family:DejaVu Sans;font-size:20px;font-style:normal;font-weight:normal;text-anchor:middle;" transform="rotate(-90, 38.825625, 152.064)" x="38.825625" y="152.064">counts</text>
    </g>
   </g>
   <g id="LineCollection_1">
    <path clip-path="url(#pdcdf9b5946)" d="M 106.56 68.190264 
L 106.56 50.368109 
" style="fill:none;stroke:#4169e1;stroke-width:3;"/>
    <path clip-path="url(#pdcdf9b5946)" d="M 135.36 264.640484 
L 135.36 261.357695 
" style="fill:none;stroke:#4169e1;stroke-width:3;"/>
    <path clip-path="url(#pdcdf9b5946)" d="M 164.16 258.511514 
L 164.16 253.930443 
" style="fill:none;stroke:#4169e1;stroke-width:3;"/>
    <path clip-path="url(#pdcdf9b5946)" d="M 192.96 270.153763 
L 192.96 270.153763 
" style="fill:none;stroke:#4169e1;stroke-width:3;"/>
    <path clip-path="url(#pdcdf9b5946)" d="M 221.76 269.933178 
L 221.76 268.868101 
" style="fill:none;stroke:#4169e1;stroke-width:3;"/>
    <path clip-path="url(#pdcdf9b5946)" d="M 250.56 270.153763 
L 250.56 270.153763 
" style="fill:none;stroke:#4169e1;stroke-width:3;"/>
    <path clip-path="url(#pdcdf9b5946)" d="M 279.36 270.153763 
L 279.36 270.153763 
" style="fill:none;stroke:#4169e1;stroke-width:3;"/>
    <path clip-path="url(#pdcdf9b5946)" d="M 308.16 270.153763 
L 308.16 269.400639 
" style="fill:none;stroke:#4169e1;stroke-width:3;"/>
    <path clip-path="url(#pdcdf9b5946)" d="M 336.96 270.153763 
L 336.96 270.153763 
" style="fill:none;stroke:#4169e1;stroke-width:3;"/>
    <path clip-path="url(#pdcdf9b5946)" d="M 365.76 270.153763 
L 365.76 269.400639 
" style="fill:none;stroke:#4169e1;stroke-width:3;"/>
    <path clip-path="url(#pdcdf9b5946)" d="M 394.56 270.153763 
L 394.56 269.400639 
" style="fill:none;stroke:#4169e1;stroke-width:3;"/>
    <path clip-path="url(#pdcdf9b5946)" d="M 423.36 270.153763 
L 423.36 269.400639 
" style="fill:none;stroke:#4169e1;stroke-width:3;"/>
   </g>
   <g id="line2d_10">
    <path clip-path="url(#pdcdf9b5946)" d="M 106.56 59.279186 
L 135.36 262.99909 
L 164.16 256.220978 
L 192.96 270.153763 
L 221.76 269.400639 
L 250.56 270.153763 
L 279.36 270.153763 
L 308.16 269.777201 
L 336.96 270.153763 
L 365.76 269.777201 
L 394.56 269.777201 
L 423.36 269.777201 
" style="fill:none;stroke:#4169e1;stroke-linecap:round;stroke-width:3;"/>
    <defs>
     <path d="M 0 3.25 
C 0.86191 3.25 1.688635 2.907559 2.298097 2.298097 
C 2.907559 1.688635 3.25 0.86191 3.25 0 
C 3.25 -0.86191 2.907559 -1.688635 2.298097 -2.298097 
C 1.688635 -2.907559 0.86191 -3.25 0 -3.25 
C -0.86191 -3.25 -1.688635 -2.907559 -2.298097 -2.298097 
C -2.907559 -1.688635 -3.25 -0.86191 -3.25 0 
C -3.25 0.86191 -2.907559 1.688635 -2.298097 2.298097 
C -1.688635 2.907559 -0.86191 3.25 0 3.25 
z
" id="m77c80cbaa1" style="stroke:#4169e1;"/>
    </defs>
    <g clip-path="url(#pdcdf9b5946)">
     <use style="fill:#4169e1;stroke:#4169e1;" x="106.56" xlink:href="#m77c80cbaa1" y="59.279186"/>
     <use style="fill:#4169e1;stroke:#4169e1;" x="135.36" xlink:href="#m77c80cbaa1" y="262.99909"/>
     <use style="fill:#4169e1;stroke:#4169e1;" x="164.16" xlink:href="#m77c80cbaa1" y="256.220978"/>
     <use style="fill:#4169e1;stroke:#4169e1;" x="192.96" xlink:href="#m77c80cbaa1" y="270.153763"/>
     <use style="fill:#4169e1;stroke:#4169e1;" x="221.76" xlink:href="#m77c80cbaa1" y="269.400639"/>
     <use style="fill:#4169e1;stroke:#4169e1;" x="250.56" xlink:href="#m77c80cbaa1" y="270.153763"/>
     <use style="fill:#4169e1;stroke:#4169e1;" x="279.36" xlink:href="#m77c80cbaa1" y="270.153763"/>
     <use style="fill:#4169e1;stroke:#4169e1;" x="308.16" xlink:href="#m77c80cbaa1" y="269.777201"/>
     <use style="fill:#4169e1;stroke:#4169e1;" x="336.96" xlink:href="#m77c80cbaa1" y="270.153763"/>
     <use style="fill:#4169e1;stroke:#4169e1;" x="365.76" xlink:href="#m77c80cbaa1" y="269.777201"/>
     <use style="fill:#4169e1;stroke:#4169e1;" x="394.56" xlink:href="#m77c80cbaa1" y="269.777201"/>
     <use style="fill:#4169e1;stroke:#4169e1;" x="423.36" xlink:href="#m77c80cbaa1" y="269.777201"/>
    </g>
   </g>
   <g id="patch_3">
    <path d="M 92.16 276.48 
L 92.16 27.648 
" style="fill:none;stroke:#262626;stroke-linecap:square;stroke-linejoin:miter;stroke-width:0.8;"/>
   </g>
   <g id="patch_4">
    <path d="M 92.16 276.48 
L 437.76 276.48 
" style="fill:none;stroke:#262626;stroke-linecap:square;stroke-linejoin:miter;stroke-width:0.8;"/>
   </g>
   <g id="text_12">
    <text style="fill:#262626;font-family:DejaVu Sans;font-size:20px;font-style:normal;font-weight:bold;text-anchor:middle;" transform="rotate(-0, 264.96, 21.648)" x="264.96" y="21.648">IGHD2-8*02</text>
   </g>
  </g>
 </g>
 <defs>
  <clipPath id="pdcdf9b5946">
   <rect height="248.832" width="345.6" x="92.16" y="27.648"/>
  </clipPath>
 </defs>
</svg>
