<?xml version="1.0" encoding="utf-8" standalone="no"?>
<!DOCTYPE svg PUBLIC "-//W3C//DTD SVG 1.1//EN"
  "http://www.w3.org/Graphics/SVG/1.1/DTD/svg11.dtd">
<!-- Created with matplotlib (http://matplotlib.org/) -->
<svg height="288pt" version="1.1" viewBox="0 0 504 288" width="504pt" xmlns="http://www.w3.org/2000/svg" xmlns:xlink="http://www.w3.org/1999/xlink">
 <defs>
  <style type="text/css">
*{stroke-linecap:butt;stroke-linejoin:round;}
  </style>
 </defs>
 <g id="figure_1">
  <g id="patch_1">
   <path d="M 0 288 
L 504 288 
L 504 0 
L 0 0 
z
" style="fill:#ffffff;"/>
  </g>
  <g id="axes_1">
   <g id="patch_2">
    <path d="M 100.8 230.4 
L 478.8 230.4 
L 478.8 23.04 
L 100.8 23.04 
z
" style="fill:#ffffff;"/>
   </g>
   <g id="matplotlib.axis_1">
    <g id="xtick_1">
     <g id="line2d_1">
      <defs>
       <path d="M 0 0 
L 0 3.5 
" id="m9420f9859c" style="stroke:#262626;stroke-width:0.8;"/>
      </defs>
      <g>
       <use style="fill:#262626;stroke:#262626;stroke-width:0.8;" x="110.25" xlink:href="#m9420f9859c" y="230.4"/>
      </g>
     </g>
     <g id="text_1">
      <text style="fill:#262626;font-family:DejaVu Sans;font-size:20px;font-style:normal;font-weight:normal;text-anchor:middle;" transform="rotate(-0, 110.25, 252.596875)" x="110.25" y="252.596875">0</text>
     </g>
    </g>
    <g id="xtick_2">
     <g id="line2d_2">
      <g>
       <use style="fill:#262626;stroke:#262626;stroke-width:0.8;" x="204.75" xlink:href="#m9420f9859c" y="230.4"/>
      </g>
     </g>
     <g id="text_2">
      <text style="fill:#262626;font-family:DejaVu Sans;font-size:20px;font-style:normal;font-weight:normal;text-anchor:middle;" transform="rotate(-0, 204.75, 252.596875)" x="204.75" y="252.596875">5</text>
     </g>
    </g>
    <g id="xtick_3">
     <g id="line2d_3">
      <g>
       <use style="fill:#262626;stroke:#262626;stroke-width:0.8;" x="299.25" xlink:href="#m9420f9859c" y="230.4"/>
      </g>
     </g>
     <g id="text_3">
      <text style="fill:#262626;font-family:DejaVu Sans;font-size:20px;font-style:normal;font-weight:normal;text-anchor:middle;" transform="rotate(-0, 299.25, 252.596875)" x="299.25" y="252.596875">10</text>
     </g>
    </g>
    <g id="xtick_4">
     <g id="line2d_4">
      <g>
       <use style="fill:#262626;stroke:#262626;stroke-width:0.8;" x="393.75" xlink:href="#m9420f9859c" y="230.4"/>
      </g>
     </g>
     <g id="text_4">
      <text style="fill:#262626;font-family:DejaVu Sans;font-size:20px;font-style:normal;font-weight:normal;text-anchor:middle;" transform="rotate(-0, 393.75, 252.596875)" x="393.75" y="252.596875">15</text>
     </g>
    </g>
    <g id="text_5">
     <text style="fill:#262626;font-family:DejaVu Sans;font-size:20px;font-style:normal;font-weight:normal;text-anchor:middle;" transform="rotate(-0, 289.8, 275.953125)" x="289.8" y="275.953125">position</text>
    </g>
   </g>
   <g id="matplotlib.axis_2">
    <g id="ytick_1">
     <g id="line2d_5">
      <defs>
       <path d="M 0 0 
L -3.5 0 
" id="m34d1bfd81e" style="stroke:#262626;stroke-width:0.8;"/>
      </defs>
      <g>
       <use style="fill:#262626;stroke:#262626;stroke-width:0.8;" x="100.8" xlink:href="#m34d1bfd81e" y="225.128136"/>
      </g>
     </g>
     <g id="text_6">
      <text style="fill:#262626;font-family:DejaVu Sans;font-size:20px;font-style:normal;font-weight:normal;text-anchor:end;" transform="rotate(-0, 93.8, 232.726573)" x="93.8" y="232.726573">0.0</text>
     </g>
    </g>
    <g id="ytick_2">
     <g id="line2d_6">
      <g>
       <use style="fill:#262626;stroke:#262626;stroke-width:0.8;" x="100.8" xlink:href="#m34d1bfd81e" y="146.050169"/>
      </g>
     </g>
     <g id="text_7">
      <text style="fill:#262626;font-family:DejaVu Sans;font-size:20px;font-style:normal;font-weight:normal;text-anchor:end;" transform="rotate(-0, 93.8, 153.648607)" x="93.8" y="153.648607">0.1</text>
     </g>
    </g>
    <g id="ytick_3">
     <g id="line2d_7">
      <g>
       <use style="fill:#262626;stroke:#262626;stroke-width:0.8;" x="100.8" xlink:href="#m34d1bfd81e" y="66.972203"/>
      </g>
     </g>
     <g id="text_8">
      <text style="fill:#262626;font-family:DejaVu Sans;font-size:20px;font-style:normal;font-weight:normal;text-anchor:end;" transform="rotate(-0, 93.8, 74.570641)" x="93.8" y="74.570641">0.2</text>
     </g>
    </g>
    <g id="text_9">
     <text style="fill:#262626;font-family:DejaVu Sans;font-size:20px;font-style:normal;font-weight:normal;text-anchor:middle;" transform="rotate(-90, 53.834375, 126.72)" x="53.834375" y="126.72">mut freq</text>
    </g>
   </g>
   <g id="LineCollection_1">
    <path clip-path="url(#pcc7c106630)" d="M 110.25 289 
L 110.25 132.246042 
" style="fill:none;stroke:#4169e1;stroke-width:3;"/>
    <path clip-path="url(#pcc7c106630)" d="M 129.15 289 
L 129.15 132.246042 
" style="fill:none;stroke:#4169e1;stroke-width:3;"/>
    <path clip-path="url(#pcc7c106630)" d="M 148.05 289 
L 148.05 157.316689 
" style="fill:none;stroke:#4169e1;stroke-width:3;"/>
    <path clip-path="url(#pcc7c106630)" d="M 166.95 227.041278 
L 166.95 91.418383 
" style="fill:none;stroke:#4169e1;stroke-width:3;"/>
    <path clip-path="url(#pcc7c106630)" d="M 185.85 227.041278 
L 185.85 91.418383 
" style="fill:none;stroke:#4169e1;stroke-width:3;"/>
    <path clip-path="url(#pcc7c106630)" d="M 204.75 289 
L 204.75 157.316689 
" style="fill:none;stroke:#4169e1;stroke-width:3;"/>
    <path clip-path="url(#pcc7c106630)" d="M 223.65 289 
L 223.65 157.316689 
" style="fill:none;stroke:#4169e1;stroke-width:3;"/>
    <path clip-path="url(#pcc7c106630)" d="M 242.55 229.482469 
L 242.55 154.875497 
" style="fill:none;stroke:#4169e1;stroke-width:3;"/>
    <path clip-path="url(#pcc7c106630)" d="M 261.45 262.431621 
L 261.45 187.82465 
" style="fill:none;stroke:#4169e1;stroke-width:3;"/>
    <path clip-path="url(#pcc7c106630)" d="M 280.35 261.080277 
L 280.35 189.175994 
" style="fill:none;stroke:#4169e1;stroke-width:3;"/>
    <path clip-path="url(#pcc7c106630)" d="M 299.25 261.080277 
L 299.25 189.175994 
" style="fill:none;stroke:#4169e1;stroke-width:3;"/>
    <path clip-path="url(#pcc7c106630)" d="M 318.15 261.080277 
L 318.15 189.175994 
" style="fill:none;stroke:#4169e1;stroke-width:3;"/>
    <path clip-path="url(#pcc7c106630)" d="M 337.05 122.645808 
L 337.05 -1 
" style="fill:none;stroke:#4169e1;stroke-width:3;"/>
    <path clip-path="url(#pcc7c106630)" d="M 355.95 275.731013 
L 355.95 174.525258 
" style="fill:none;stroke:#4169e1;stroke-width:3;"/>
    <path clip-path="url(#pcc7c106630)" d="M 374.85 155.836268 
L 374.85 15.321299 
" style="fill:none;stroke:#4169e1;stroke-width:3;"/>
    <path clip-path="url(#pcc7c106630)" d="M 393.75 275.731013 
L 393.75 174.525258 
" style="fill:none;stroke:#4169e1;stroke-width:3;"/>
    <path clip-path="url(#pcc7c106630)" d="M 412.65 275.731013 
L 412.65 174.525258 
" style="fill:none;stroke:#4169e1;stroke-width:3;"/>
    <path clip-path="url(#pcc7c106630)" d="M 431.55 288.629841 
L 431.55 161.62643 
" style="fill:none;stroke:#4169e1;stroke-width:3;"/>
    <path clip-path="url(#pcc7c106630)" d="M 450.45 288.629841 
L 450.45 161.62643 
" style="fill:none;stroke:#4169e1;stroke-width:3;"/>
    <path clip-path="url(#pcc7c106630)" d="M 469.35 289 
L 469.35 152.388177 
" style="fill:none;stroke:#4169e1;stroke-width:3;"/>
   </g>
   <g id="line2d_8">
    <path clip-path="url(#pcc7c106630)" d="M 110.25 225.128136 
L 129.15 225.128136 
L 148.05 225.128136 
L 166.95 159.229831 
L 185.85 159.229831 
L 204.75 225.128136 
L 223.65 225.128136 
L 242.55 192.178983 
L 261.45 225.128136 
L 280.35 225.128136 
L 299.25 225.128136 
L 318.15 225.128136 
L 337.05 49.399322 
L 355.95 225.128136 
L 374.85 85.578784 
L 393.75 225.128136 
L 412.65 225.128136 
L 431.55 225.128136 
L 450.45 225.128136 
L 469.35 225.128136 
" style="fill:none;stroke:#4169e1;stroke-linecap:round;stroke-width:3;"/>
    <defs>
     <path d="M 0 3.25 
C 0.86191 3.25 1.688635 2.907559 2.298097 2.298097 
C 2.907559 1.688635 3.25 0.86191 3.25 0 
C 3.25 -0.86191 2.907559 -1.688635 2.298097 -2.298097 
C 1.688635 -2.907559 0.86191 -3.25 0 -3.25 
C -0.86191 -3.25 -1.688635 -2.907559 -2.298097 -2.298097 
C -2.907559 -1.688635 -3.25 -0.86191 -3.25 0 
C -3.25 0.86191 -2.907559 1.688635 -2.298097 2.298097 
C -1.688635 2.907559 -0.86191 3.25 0 3.25 
z
" id="m58bc105b52" style="stroke:#4169e1;"/>
    </defs>
    <g clip-path="url(#pcc7c106630)">
     <use style="fill:#4169e1;stroke:#4169e1;" x="110.25" xlink:href="#m58bc105b52" y="225.128136"/>
     <use style="fill:#4169e1;stroke:#4169e1;" x="129.15" xlink:href="#m58bc105b52" y="225.128136"/>
     <use style="fill:#4169e1;stroke:#4169e1;" x="148.05" xlink:href="#m58bc105b52" y="225.128136"/>
     <use style="fill:#4169e1;stroke:#4169e1;" x="166.95" xlink:href="#m58bc105b52" y="159.229831"/>
     <use style="fill:#4169e1;stroke:#4169e1;" x="185.85" xlink:href="#m58bc105b52" y="159.229831"/>
     <use style="fill:#4169e1;stroke:#4169e1;" x="204.75" xlink:href="#m58bc105b52" y="225.128136"/>
     <use style="fill:#4169e1;stroke:#4169e1;" x="223.65" xlink:href="#m58bc105b52" y="225.128136"/>
     <use style="fill:#4169e1;stroke:#4169e1;" x="242.55" xlink:href="#m58bc105b52" y="192.178983"/>
     <use style="fill:#4169e1;stroke:#4169e1;" x="261.45" xlink:href="#m58bc105b52" y="225.128136"/>
     <use style="fill:#4169e1;stroke:#4169e1;" x="280.35" xlink:href="#m58bc105b52" y="225.128136"/>
     <use style="fill:#4169e1;stroke:#4169e1;" x="299.25" xlink:href="#m58bc105b52" y="225.128136"/>
     <use style="fill:#4169e1;stroke:#4169e1;" x="318.15" xlink:href="#m58bc105b52" y="225.128136"/>
     <use style="fill:#4169e1;stroke:#4169e1;" x="337.05" xlink:href="#m58bc105b52" y="49.399322"/>
     <use style="fill:#4169e1;stroke:#4169e1;" x="355.95" xlink:href="#m58bc105b52" y="225.128136"/>
     <use style="fill:#4169e1;stroke:#4169e1;" x="374.85" xlink:href="#m58bc105b52" y="85.578784"/>
     <use style="fill:#4169e1;stroke:#4169e1;" x="393.75" xlink:href="#m58bc105b52" y="225.128136"/>
     <use style="fill:#4169e1;stroke:#4169e1;" x="412.65" xlink:href="#m58bc105b52" y="225.128136"/>
     <use style="fill:#4169e1;stroke:#4169e1;" x="431.55" xlink:href="#m58bc105b52" y="225.128136"/>
     <use style="fill:#4169e1;stroke:#4169e1;" x="450.45" xlink:href="#m58bc105b52" y="225.128136"/>
     <use style="fill:#4169e1;stroke:#4169e1;" x="469.35" xlink:href="#m58bc105b52" y="225.128136"/>
    </g>
   </g>
   <g id="patch_3">
    <path d="M 100.8 230.4 
L 100.8 23.04 
" style="fill:none;stroke:#262626;stroke-linecap:square;stroke-linejoin:miter;stroke-width:0.8;"/>
   </g>
   <g id="patch_4">
    <path d="M 100.8 230.4 
L 478.8 230.4 
" style="fill:none;stroke:#262626;stroke-linecap:square;stroke-linejoin:miter;stroke-width:0.8;"/>
   </g>
   <g id="text_10">
    <text style="fill:#262626;font-family:DejaVu Sans;font-size:20px;font-style:normal;font-weight:bold;text-anchor:middle;" transform="rotate(-0, 289.8, 17.04)" x="289.8" y="17.04">IGHD1-26*01</text>
   </g>
  </g>
 </g>
 <defs>
  <clipPath id="pcc7c106630">
   <rect height="207.36" width="378" x="100.8" y="23.04"/>
  </clipPath>
 </defs>
</svg>
