<?xml version="1.0" encoding="utf-8" standalone="no"?>
<!DOCTYPE svg PUBLIC "-//W3C//DTD SVG 1.1//EN"
  "http://www.w3.org/Graphics/SVG/1.1/DTD/svg11.dtd">
<!-- Created with matplotlib (http://matplotlib.org/) -->
<svg height="288pt" version="1.1" viewBox="0 0 504 288" width="504pt" xmlns="http://www.w3.org/2000/svg" xmlns:xlink="http://www.w3.org/1999/xlink">
 <defs>
  <style type="text/css">
*{stroke-linecap:butt;stroke-linejoin:round;}
  </style>
 </defs>
 <g id="figure_1">
  <g id="patch_1">
   <path d="M 0 288 
L 504 288 
L 504 0 
L 0 0 
z
" style="fill:#ffffff;"/>
  </g>
  <g id="axes_1">
   <g id="patch_2">
    <path d="M 100.8 230.4 
L 478.8 230.4 
L 478.8 23.04 
L 100.8 23.04 
z
" style="fill:#ffffff;"/>
   </g>
   <g id="matplotlib.axis_1">
    <g id="xtick_1">
     <g id="line2d_1">
      <defs>
       <path d="M 0 0 
L 0 3.5 
" id="m72c93f3e90" style="stroke:#262626;stroke-width:0.8;"/>
      </defs>
      <g>
       <use style="fill:#262626;stroke:#262626;stroke-width:0.8;" x="126" xlink:href="#m72c93f3e90" y="230.4"/>
      </g>
     </g>
     <g id="text_1">
      <text style="fill:#262626;font-family:DejaVu Sans;font-size:20px;font-style:normal;font-weight:normal;text-anchor:middle;" transform="rotate(-0, 126, 252.596875)" x="126" y="252.596875">2.5</text>
     </g>
    </g>
    <g id="xtick_2">
     <g id="line2d_2">
      <g>
       <use style="fill:#262626;stroke:#262626;stroke-width:0.8;" x="189" xlink:href="#m72c93f3e90" y="230.4"/>
      </g>
     </g>
     <g id="text_2">
      <text style="fill:#262626;font-family:DejaVu Sans;font-size:20px;font-style:normal;font-weight:normal;text-anchor:middle;" transform="rotate(-0, 189, 252.596875)" x="189" y="252.596875">5.0</text>
     </g>
    </g>
    <g id="xtick_3">
     <g id="line2d_3">
      <g>
       <use style="fill:#262626;stroke:#262626;stroke-width:0.8;" x="252" xlink:href="#m72c93f3e90" y="230.4"/>
      </g>
     </g>
     <g id="text_3">
      <text style="fill:#262626;font-family:DejaVu Sans;font-size:20px;font-style:normal;font-weight:normal;text-anchor:middle;" transform="rotate(-0, 252, 252.596875)" x="252" y="252.596875">7.5</text>
     </g>
    </g>
    <g id="xtick_4">
     <g id="line2d_4">
      <g>
       <use style="fill:#262626;stroke:#262626;stroke-width:0.8;" x="315" xlink:href="#m72c93f3e90" y="230.4"/>
      </g>
     </g>
     <g id="text_4">
      <text style="fill:#262626;font-family:DejaVu Sans;font-size:20px;font-style:normal;font-weight:normal;text-anchor:middle;" transform="rotate(-0, 315, 252.596875)" x="315" y="252.596875">10.0</text>
     </g>
    </g>
    <g id="xtick_5">
     <g id="line2d_5">
      <g>
       <use style="fill:#262626;stroke:#262626;stroke-width:0.8;" x="378" xlink:href="#m72c93f3e90" y="230.4"/>
      </g>
     </g>
     <g id="text_5">
      <text style="fill:#262626;font-family:DejaVu Sans;font-size:20px;font-style:normal;font-weight:normal;text-anchor:middle;" transform="rotate(-0, 378, 252.596875)" x="378" y="252.596875">12.5</text>
     </g>
    </g>
    <g id="xtick_6">
     <g id="line2d_6">
      <g>
       <use style="fill:#262626;stroke:#262626;stroke-width:0.8;" x="441" xlink:href="#m72c93f3e90" y="230.4"/>
      </g>
     </g>
     <g id="text_6">
      <text style="fill:#262626;font-family:DejaVu Sans;font-size:20px;font-style:normal;font-weight:normal;text-anchor:middle;" transform="rotate(-0, 441, 252.596875)" x="441" y="252.596875">15.0</text>
     </g>
    </g>
    <g id="text_7">
     <text style="fill:#262626;font-family:DejaVu Sans;font-size:20px;font-style:normal;font-weight:normal;text-anchor:middle;" transform="rotate(-0, 289.8, 275.953125)" x="289.8" y="275.953125">position</text>
    </g>
   </g>
   <g id="matplotlib.axis_2">
    <g id="ytick_1">
     <g id="line2d_7">
      <defs>
       <path d="M 0 0 
L -3.5 0 
" id="m92185ced6d" style="stroke:#262626;stroke-width:0.8;"/>
      </defs>
      <g>
       <use style="fill:#262626;stroke:#262626;stroke-width:0.8;" x="100.8" xlink:href="#m92185ced6d" y="225.128136"/>
      </g>
     </g>
     <g id="text_8">
      <text style="fill:#262626;font-family:DejaVu Sans;font-size:20px;font-style:normal;font-weight:normal;text-anchor:end;" transform="rotate(-0, 93.8, 232.726573)" x="93.8" y="232.726573">0.00</text>
     </g>
    </g>
    <g id="ytick_2">
     <g id="line2d_8">
      <g>
       <use style="fill:#262626;stroke:#262626;stroke-width:0.8;" x="100.8" xlink:href="#m92185ced6d" y="180.610169"/>
      </g>
     </g>
     <g id="text_9">
      <text style="fill:#262626;font-family:DejaVu Sans;font-size:20px;font-style:normal;font-weight:normal;text-anchor:end;" transform="rotate(-0, 93.8, 188.208607)" x="93.8" y="188.208607">0.01</text>
     </g>
    </g>
    <g id="ytick_3">
     <g id="line2d_9">
      <g>
       <use style="fill:#262626;stroke:#262626;stroke-width:0.8;" x="100.8" xlink:href="#m92185ced6d" y="136.092203"/>
      </g>
     </g>
     <g id="text_10">
      <text style="fill:#262626;font-family:DejaVu Sans;font-size:20px;font-style:normal;font-weight:normal;text-anchor:end;" transform="rotate(-0, 93.8, 143.690641)" x="93.8" y="143.690641">0.02</text>
     </g>
    </g>
    <g id="ytick_4">
     <g id="line2d_10">
      <g>
       <use style="fill:#262626;stroke:#262626;stroke-width:0.8;" x="100.8" xlink:href="#m92185ced6d" y="91.574237"/>
      </g>
     </g>
     <g id="text_11">
      <text style="fill:#262626;font-family:DejaVu Sans;font-size:20px;font-style:normal;font-weight:normal;text-anchor:end;" transform="rotate(-0, 93.8, 99.172675)" x="93.8" y="99.172675">0.03</text>
     </g>
    </g>
    <g id="ytick_5">
     <g id="line2d_11">
      <g>
       <use style="fill:#262626;stroke:#262626;stroke-width:0.8;" x="100.8" xlink:href="#m92185ced6d" y="47.056271"/>
      </g>
     </g>
     <g id="text_12">
      <text style="fill:#262626;font-family:DejaVu Sans;font-size:20px;font-style:normal;font-weight:normal;text-anchor:end;" transform="rotate(-0, 93.8, 54.654709)" x="93.8" y="54.654709">0.04</text>
     </g>
    </g>
    <g id="text_13">
     <text style="fill:#262626;font-family:DejaVu Sans;font-size:20px;font-style:normal;font-weight:normal;text-anchor:middle;" transform="rotate(-90, 41.109375, 126.72)" x="41.109375" y="126.72">mut freq</text>
    </g>
   </g>
   <g id="LineCollection_1">
    <path clip-path="url(#pe9f0482b9d)" d="M 113.4 289 
L 113.4 144.932216 
" style="fill:none;stroke:#4169e1;stroke-width:3;"/>
    <path clip-path="url(#pe9f0482b9d)" d="M 138.6 289 
L 138.6 149.295142 
" style="fill:none;stroke:#4169e1;stroke-width:3;"/>
    <path clip-path="url(#pe9f0482b9d)" d="M 163.8 289 
L 163.8 149.295142 
" style="fill:none;stroke:#4169e1;stroke-width:3;"/>
    <path clip-path="url(#pe9f0482b9d)" d="M 189 289 
L 189 149.295142 
" style="fill:none;stroke:#4169e1;stroke-width:3;"/>
    <path clip-path="url(#pe9f0482b9d)" d="M 214.2 289 
L 214.2 149.295142 
" style="fill:none;stroke:#4169e1;stroke-width:3;"/>
    <path clip-path="url(#pe9f0482b9d)" d="M 239.4 289 
L 239.4 154.123896 
" style="fill:none;stroke:#4169e1;stroke-width:3;"/>
    <path clip-path="url(#pe9f0482b9d)" d="M 264.6 153.082217 
L 264.6 -1 
" style="fill:none;stroke:#4169e1;stroke-width:3;"/>
    <path clip-path="url(#pe9f0482b9d)" d="M 289.8 289 
L 289.8 155.016799 
" style="fill:none;stroke:#4169e1;stroke-width:3;"/>
    <path clip-path="url(#pe9f0482b9d)" d="M 315 237.294427 
L 315 98.813213 
" style="fill:none;stroke:#4169e1;stroke-width:3;"/>
    <path clip-path="url(#pe9f0482b9d)" d="M 340.2 289 
L 340.2 155.887529 
" style="fill:none;stroke:#4169e1;stroke-width:3;"/>
    <path clip-path="url(#pe9f0482b9d)" d="M 365.4 237.294427 
L 365.4 98.813213 
" style="fill:none;stroke:#4169e1;stroke-width:3;"/>
    <path clip-path="url(#pe9f0482b9d)" d="M 390.6 289 
L 390.6 155.887529 
" style="fill:none;stroke:#4169e1;stroke-width:3;"/>
    <path clip-path="url(#pe9f0482b9d)" d="M 415.8 289 
L 415.8 155.887529 
" style="fill:none;stroke:#4169e1;stroke-width:3;"/>
    <path clip-path="url(#pe9f0482b9d)" d="M 441 289 
L 441 -1 
" style="fill:none;stroke:#4169e1;stroke-width:3;"/>
    <path clip-path="url(#pe9f0482b9d)" d="M 466.2 289 
L 466.2 -1 
" style="fill:none;stroke:#4169e1;stroke-width:3;"/>
   </g>
   <g id="line2d_12">
    <path clip-path="url(#pe9f0482b9d)" d="M 113.4 225.128136 
L 138.6 225.128136 
L 163.8 225.128136 
L 189 225.128136 
L 214.2 225.128136 
L 239.4 225.128136 
L 264.6 49.399322 
L 289.8 225.128136 
L 315 168.05382 
L 340.2 225.128136 
L 365.4 168.05382 
L 390.6 225.128136 
L 415.8 225.128136 
L 441 225.128136 
L 466.2 225.128136 
" style="fill:none;stroke:#4169e1;stroke-linecap:round;stroke-width:3;"/>
    <defs>
     <path d="M 0 3.25 
C 0.86191 3.25 1.688635 2.907559 2.298097 2.298097 
C 2.907559 1.688635 3.25 0.86191 3.25 0 
C 3.25 -0.86191 2.907559 -1.688635 2.298097 -2.298097 
C 1.688635 -2.907559 0.86191 -3.25 0 -3.25 
C -0.86191 -3.25 -1.688635 -2.907559 -2.298097 -2.298097 
C -2.907559 -1.688635 -3.25 -0.86191 -3.25 0 
C -3.25 0.86191 -2.907559 1.688635 -2.298097 2.298097 
C -1.688635 2.907559 -0.86191 3.25 0 3.25 
z
" id="me773fdd289" style="stroke:#4169e1;"/>
    </defs>
    <g clip-path="url(#pe9f0482b9d)">
     <use style="fill:#4169e1;stroke:#4169e1;" x="113.4" xlink:href="#me773fdd289" y="225.128136"/>
     <use style="fill:#4169e1;stroke:#4169e1;" x="138.6" xlink:href="#me773fdd289" y="225.128136"/>
     <use style="fill:#4169e1;stroke:#4169e1;" x="163.8" xlink:href="#me773fdd289" y="225.128136"/>
     <use style="fill:#4169e1;stroke:#4169e1;" x="189" xlink:href="#me773fdd289" y="225.128136"/>
     <use style="fill:#4169e1;stroke:#4169e1;" x="214.2" xlink:href="#me773fdd289" y="225.128136"/>
     <use style="fill:#4169e1;stroke:#4169e1;" x="239.4" xlink:href="#me773fdd289" y="225.128136"/>
     <use style="fill:#4169e1;stroke:#4169e1;" x="264.6" xlink:href="#me773fdd289" y="49.399322"/>
     <use style="fill:#4169e1;stroke:#4169e1;" x="289.8" xlink:href="#me773fdd289" y="225.128136"/>
     <use style="fill:#4169e1;stroke:#4169e1;" x="315" xlink:href="#me773fdd289" y="168.05382"/>
     <use style="fill:#4169e1;stroke:#4169e1;" x="340.2" xlink:href="#me773fdd289" y="225.128136"/>
     <use style="fill:#4169e1;stroke:#4169e1;" x="365.4" xlink:href="#me773fdd289" y="168.05382"/>
     <use style="fill:#4169e1;stroke:#4169e1;" x="390.6" xlink:href="#me773fdd289" y="225.128136"/>
     <use style="fill:#4169e1;stroke:#4169e1;" x="415.8" xlink:href="#me773fdd289" y="225.128136"/>
     <use style="fill:#4169e1;stroke:#4169e1;" x="441" xlink:href="#me773fdd289" y="225.128136"/>
     <use style="fill:#4169e1;stroke:#4169e1;" x="466.2" xlink:href="#me773fdd289" y="225.128136"/>
    </g>
   </g>
   <g id="patch_3">
    <path d="M 100.8 230.4 
L 100.8 23.04 
" style="fill:none;stroke:#262626;stroke-linecap:square;stroke-linejoin:miter;stroke-width:0.8;"/>
   </g>
   <g id="patch_4">
    <path d="M 100.8 230.4 
L 478.8 230.4 
" style="fill:none;stroke:#262626;stroke-linecap:square;stroke-linejoin:miter;stroke-width:0.8;"/>
   </g>
   <g id="text_14">
    <text style="fill:#262626;font-family:DejaVu Sans;font-size:20px;font-style:normal;font-weight:bold;text-anchor:middle;" transform="rotate(-0, 289.8, 17.04)" x="289.8" y="17.04">IGHD1-7*01</text>
   </g>
  </g>
 </g>
 <defs>
  <clipPath id="pe9f0482b9d">
   <rect height="207.36" width="378" x="100.8" y="23.04"/>
  </clipPath>
 </defs>
</svg>
