<?xml version="1.0" encoding="utf-8" standalone="no"?>
<!DOCTYPE svg PUBLIC "-//W3C//DTD SVG 1.1//EN"
  "http://www.w3.org/Graphics/SVG/1.1/DTD/svg11.dtd">
<!-- Created with matplotlib (http://matplotlib.org/) -->
<svg height="288pt" version="1.1" viewBox="0 0 504 288" width="504pt" xmlns="http://www.w3.org/2000/svg" xmlns:xlink="http://www.w3.org/1999/xlink">
 <defs>
  <style type="text/css">
*{stroke-linecap:butt;stroke-linejoin:round;}
  </style>
 </defs>
 <g id="figure_1">
  <g id="patch_1">
   <path d="M 0 288 
L 504 288 
L 504 0 
L 0 0 
z
" style="fill:#ffffff;"/>
  </g>
  <g id="axes_1">
   <g id="patch_2">
    <path d="M 100.8 230.4 
L 478.8 230.4 
L 478.8 23.04 
L 100.8 23.04 
z
" style="fill:#ffffff;"/>
   </g>
   <g id="matplotlib.axis_1">
    <g id="xtick_1">
     <g id="line2d_1">
      <defs>
       <path d="M 0 0 
L 0 3.5 
" id="m5b6b454f7a" style="stroke:#262626;stroke-width:0.8;"/>
      </defs>
      <g>
       <use style="fill:#262626;stroke:#262626;stroke-width:0.8;" x="106.05" xlink:href="#m5b6b454f7a" y="230.4"/>
      </g>
     </g>
     <g id="text_1">
      <text style="fill:#262626;font-family:DejaVu Sans;font-size:20px;font-style:normal;font-weight:normal;text-anchor:middle;" transform="rotate(-0, 106.05, 252.596875)" x="106.05" y="252.596875">0</text>
     </g>
    </g>
    <g id="xtick_2">
     <g id="line2d_2">
      <g>
       <use style="fill:#262626;stroke:#262626;stroke-width:0.8;" x="211.05" xlink:href="#m5b6b454f7a" y="230.4"/>
      </g>
     </g>
     <g id="text_2">
      <text style="fill:#262626;font-family:DejaVu Sans;font-size:20px;font-style:normal;font-weight:normal;text-anchor:middle;" transform="rotate(-0, 211.05, 252.596875)" x="211.05" y="252.596875">10</text>
     </g>
    </g>
    <g id="xtick_3">
     <g id="line2d_3">
      <g>
       <use style="fill:#262626;stroke:#262626;stroke-width:0.8;" x="316.05" xlink:href="#m5b6b454f7a" y="230.4"/>
      </g>
     </g>
     <g id="text_3">
      <text style="fill:#262626;font-family:DejaVu Sans;font-size:20px;font-style:normal;font-weight:normal;text-anchor:middle;" transform="rotate(-0, 316.05, 252.596875)" x="316.05" y="252.596875">20</text>
     </g>
    </g>
    <g id="xtick_4">
     <g id="line2d_4">
      <g>
       <use style="fill:#262626;stroke:#262626;stroke-width:0.8;" x="421.05" xlink:href="#m5b6b454f7a" y="230.4"/>
      </g>
     </g>
     <g id="text_4">
      <text style="fill:#262626;font-family:DejaVu Sans;font-size:20px;font-style:normal;font-weight:normal;text-anchor:middle;" transform="rotate(-0, 421.05, 252.596875)" x="421.05" y="252.596875">30</text>
     </g>
    </g>
    <g id="text_5">
     <text style="fill:#262626;font-family:DejaVu Sans;font-size:20px;font-style:normal;font-weight:normal;text-anchor:middle;" transform="rotate(-0, 289.8, 275.953125)" x="289.8" y="275.953125">position</text>
    </g>
   </g>
   <g id="matplotlib.axis_2">
    <g id="ytick_1">
     <g id="line2d_5">
      <defs>
       <path d="M 0 0 
L -3.5 0 
" id="m650b72da87" style="stroke:#262626;stroke-width:0.8;"/>
      </defs>
      <g>
       <use style="fill:#262626;stroke:#262626;stroke-width:0.8;" x="100.8" xlink:href="#m650b72da87" y="225.128136"/>
      </g>
     </g>
     <g id="text_6">
      <text style="fill:#262626;font-family:DejaVu Sans;font-size:20px;font-style:normal;font-weight:normal;text-anchor:end;" transform="rotate(-0, 93.8, 232.726573)" x="93.8" y="232.726573">0.00</text>
     </g>
    </g>
    <g id="ytick_2">
     <g id="line2d_6">
      <g>
       <use style="fill:#262626;stroke:#262626;stroke-width:0.8;" x="100.8" xlink:href="#m650b72da87" y="181.195932"/>
      </g>
     </g>
     <g id="text_7">
      <text style="fill:#262626;font-family:DejaVu Sans;font-size:20px;font-style:normal;font-weight:normal;text-anchor:end;" transform="rotate(-0, 93.8, 188.79437)" x="93.8" y="188.79437">0.05</text>
     </g>
    </g>
    <g id="ytick_3">
     <g id="line2d_7">
      <g>
       <use style="fill:#262626;stroke:#262626;stroke-width:0.8;" x="100.8" xlink:href="#m650b72da87" y="137.263729"/>
      </g>
     </g>
     <g id="text_8">
      <text style="fill:#262626;font-family:DejaVu Sans;font-size:20px;font-style:normal;font-weight:normal;text-anchor:end;" transform="rotate(-0, 93.8, 144.862166)" x="93.8" y="144.862166">0.10</text>
     </g>
    </g>
    <g id="ytick_4">
     <g id="line2d_8">
      <g>
       <use style="fill:#262626;stroke:#262626;stroke-width:0.8;" x="100.8" xlink:href="#m650b72da87" y="93.331525"/>
      </g>
     </g>
     <g id="text_9">
      <text style="fill:#262626;font-family:DejaVu Sans;font-size:20px;font-style:normal;font-weight:normal;text-anchor:end;" transform="rotate(-0, 93.8, 100.929963)" x="93.8" y="100.929963">0.15</text>
     </g>
    </g>
    <g id="ytick_5">
     <g id="line2d_9">
      <g>
       <use style="fill:#262626;stroke:#262626;stroke-width:0.8;" x="100.8" xlink:href="#m650b72da87" y="49.399322"/>
      </g>
     </g>
     <g id="text_10">
      <text style="fill:#262626;font-family:DejaVu Sans;font-size:20px;font-style:normal;font-weight:normal;text-anchor:end;" transform="rotate(-0, 93.8, 56.99776)" x="93.8" y="56.99776">0.20</text>
     </g>
    </g>
    <g id="text_11">
     <text style="fill:#262626;font-family:DejaVu Sans;font-size:20px;font-style:normal;font-weight:normal;text-anchor:middle;" transform="rotate(-90, 41.109375, 126.72)" x="41.109375" y="126.72">mut freq</text>
    </g>
   </g>
   <g id="LineCollection_1">
    <path clip-path="url(#p64b4a81e68)" d="M 106.05 289 
L 106.05 158.792163 
" style="fill:none;stroke:#4169e1;stroke-width:3;"/>
    <path clip-path="url(#p64b4a81e68)" d="M 116.55 251.00213 
L 116.55 199.254141 
" style="fill:none;stroke:#4169e1;stroke-width:3;"/>
    <path clip-path="url(#p64b4a81e68)" d="M 127.05 225.828635 
L 127.05 224.427636 
" style="fill:none;stroke:#4169e1;stroke-width:3;"/>
    <path clip-path="url(#p64b4a81e68)" d="M 137.55 225.828635 
L 137.55 224.427636 
" style="fill:none;stroke:#4169e1;stroke-width:3;"/>
    <path clip-path="url(#p64b4a81e68)" d="M 148.05 222.705935 
L 148.05 219.720281 
" style="fill:none;stroke:#4169e1;stroke-width:3;"/>
    <path clip-path="url(#p64b4a81e68)" d="M 158.55 225.827299 
L 158.55 224.428972 
" style="fill:none;stroke:#4169e1;stroke-width:3;"/>
    <path clip-path="url(#p64b4a81e68)" d="M 169.05 225.26801 
L 169.05 223.869682 
" style="fill:none;stroke:#4169e1;stroke-width:3;"/>
    <path clip-path="url(#p64b4a81e68)" d="M 179.55 223.164936 
L 179.55 220.379859 
" style="fill:none;stroke:#4169e1;stroke-width:3;"/>
    <path clip-path="url(#p64b4a81e68)" d="M 190.05 223.616002 
L 190.05 221.047373 
" style="fill:none;stroke:#4169e1;stroke-width:3;"/>
    <path clip-path="url(#p64b4a81e68)" d="M 200.55 225.26801 
L 200.55 223.869682 
" style="fill:none;stroke:#4169e1;stroke-width:3;"/>
    <path clip-path="url(#p64b4a81e68)" d="M 211.05 211.824648 
L 211.05 205.992822 
" style="fill:none;stroke:#4169e1;stroke-width:3;"/>
    <path clip-path="url(#p64b4a81e68)" d="M 221.55 207.194395 
L 221.55 200.555861 
" style="fill:none;stroke:#4169e1;stroke-width:3;"/>
    <path clip-path="url(#p64b4a81e68)" d="M 232.05 209.259266 
L 232.05 202.965308 
" style="fill:none;stroke:#4169e1;stroke-width:3;"/>
    <path clip-path="url(#p64b4a81e68)" d="M 242.55 225.26801 
L 242.55 223.869682 
" style="fill:none;stroke:#4169e1;stroke-width:3;"/>
    <path clip-path="url(#p64b4a81e68)" d="M 253.05 220.815103 
L 253.05 217.136795 
" style="fill:none;stroke:#4169e1;stroke-width:3;"/>
    <path clip-path="url(#p64b4a81e68)" d="M 263.55 225.827299 
L 263.55 224.428972 
" style="fill:none;stroke:#4169e1;stroke-width:3;"/>
    <path clip-path="url(#p64b4a81e68)" d="M 274.05 224.892073 
L 274.05 223.127039 
" style="fill:none;stroke:#4169e1;stroke-width:3;"/>
    <path clip-path="url(#p64b4a81e68)" d="M 284.55 221.294369 
L 284.55 217.776109 
" style="fill:none;stroke:#4169e1;stroke-width:3;"/>
    <path clip-path="url(#p64b4a81e68)" d="M 295.05 225.827299 
L 295.05 224.428972 
" style="fill:none;stroke:#4169e1;stroke-width:3;"/>
    <path clip-path="url(#p64b4a81e68)" d="M 305.55 204.600291 
L 305.55 197.557069 
" style="fill:none;stroke:#4169e1;stroke-width:3;"/>
    <path clip-path="url(#p64b4a81e68)" d="M 316.05 225.273805 
L 316.05 223.817156 
" style="fill:none;stroke:#4169e1;stroke-width:3;"/>
    <path clip-path="url(#p64b4a81e68)" d="M 326.55 225.85646 
L 326.55 224.399811 
" style="fill:none;stroke:#4169e1;stroke-width:3;"/>
    <path clip-path="url(#p64b4a81e68)" d="M 337.05 157.763027 
L 337.05 15.026696 
" style="fill:none;stroke:#4169e1;stroke-width:3;"/>
    <path clip-path="url(#p64b4a81e68)" d="M 347.55 281.353555 
L 347.55 168.902716 
" style="fill:none;stroke:#4169e1;stroke-width:3;"/>
    <path clip-path="url(#p64b4a81e68)" d="M 358.05 289 
L 358.05 83.472469 
" style="fill:none;stroke:#4169e1;stroke-width:3;"/>
    <path clip-path="url(#p64b4a81e68)" d="M 368.55 289 
L 368.55 83.472469 
" style="fill:none;stroke:#4169e1;stroke-width:3;"/>
    <path clip-path="url(#p64b4a81e68)" d="M 379.05 191.054989 
L 379.05 -1 
" style="fill:none;stroke:#4169e1;stroke-width:3;"/>
    <path clip-path="url(#p64b4a81e68)" d="M 389.55 191.054989 
L 389.55 -1 
" style="fill:none;stroke:#4169e1;stroke-width:3;"/>
    <path clip-path="url(#p64b4a81e68)" d="M 400.05 289 
L 400.05 83.472469 
" style="fill:none;stroke:#4169e1;stroke-width:3;"/>
    <path clip-path="url(#p64b4a81e68)" d="M 410.55 289 
L 410.55 83.472469 
" style="fill:none;stroke:#4169e1;stroke-width:3;"/>
    <path clip-path="url(#p64b4a81e68)" d="M 421.05 289 
L 421.05 83.472469 
" style="fill:none;stroke:#4169e1;stroke-width:3;"/>
    <path clip-path="url(#p64b4a81e68)" d="M 431.55 289 
L 431.55 83.472469 
" style="fill:none;stroke:#4169e1;stroke-width:3;"/>
    <path clip-path="url(#p64b4a81e68)" d="M 442.05 191.054989 
L 442.05 -1 
" style="fill:none;stroke:#4169e1;stroke-width:3;"/>
    <path clip-path="url(#p64b4a81e68)" d="M 452.55 289 
L 452.55 64.228509 
" style="fill:none;stroke:#4169e1;stroke-width:3;"/>
    <path clip-path="url(#p64b4a81e68)" d="M 463.05 289 
L 463.05 64.228509 
" style="fill:none;stroke:#4169e1;stroke-width:3;"/>
    <path clip-path="url(#p64b4a81e68)" d="M 473.55 289 
L 473.55 64.228509 
" style="fill:none;stroke:#4169e1;stroke-width:3;"/>
   </g>
   <g id="line2d_10">
    <path clip-path="url(#p64b4a81e68)" d="M 106.05 225.128136 
L 116.55 225.128136 
L 127.05 225.128136 
L 137.55 225.128136 
L 148.05 221.213108 
L 158.55 225.128136 
L 169.05 224.568846 
L 179.55 221.772398 
L 190.05 222.331687 
L 200.55 224.568846 
L 211.05 208.908735 
L 221.55 203.875128 
L 232.05 206.112287 
L 242.55 224.568846 
L 253.05 218.975949 
L 263.55 225.128136 
L 274.05 224.009556 
L 284.55 219.535239 
L 295.05 225.128136 
L 305.55 201.07868 
L 316.05 224.54548 
L 326.55 225.128136 
L 337.05 86.394862 
L 347.55 225.128136 
L 358.05 225.128136 
L 368.55 225.128136 
L 379.05 49.399322 
L 389.55 49.399322 
L 400.05 225.128136 
L 410.55 225.128136 
L 421.05 225.128136 
L 431.55 225.128136 
L 442.05 49.399322 
L 452.55 225.128136 
L 463.05 225.128136 
L 473.55 225.128136 
" style="fill:none;stroke:#4169e1;stroke-linecap:round;stroke-width:3;"/>
    <defs>
     <path d="M 0 3.25 
C 0.86191 3.25 1.688635 2.907559 2.298097 2.298097 
C 2.907559 1.688635 3.25 0.86191 3.25 0 
C 3.25 -0.86191 2.907559 -1.688635 2.298097 -2.298097 
C 1.688635 -2.907559 0.86191 -3.25 0 -3.25 
C -0.86191 -3.25 -1.688635 -2.907559 -2.298097 -2.298097 
C -2.907559 -1.688635 -3.25 -0.86191 -3.25 0 
C -3.25 0.86191 -2.907559 1.688635 -2.298097 2.298097 
C -1.688635 2.907559 -0.86191 3.25 0 3.25 
z
" id="mcca8212e5f" style="stroke:#4169e1;"/>
    </defs>
    <g clip-path="url(#p64b4a81e68)">
     <use style="fill:#4169e1;stroke:#4169e1;" x="106.05" xlink:href="#mcca8212e5f" y="225.128136"/>
     <use style="fill:#4169e1;stroke:#4169e1;" x="116.55" xlink:href="#mcca8212e5f" y="225.128136"/>
     <use style="fill:#4169e1;stroke:#4169e1;" x="127.05" xlink:href="#mcca8212e5f" y="225.128136"/>
     <use style="fill:#4169e1;stroke:#4169e1;" x="137.55" xlink:href="#mcca8212e5f" y="225.128136"/>
     <use style="fill:#4169e1;stroke:#4169e1;" x="148.05" xlink:href="#mcca8212e5f" y="221.213108"/>
     <use style="fill:#4169e1;stroke:#4169e1;" x="158.55" xlink:href="#mcca8212e5f" y="225.128136"/>
     <use style="fill:#4169e1;stroke:#4169e1;" x="169.05" xlink:href="#mcca8212e5f" y="224.568846"/>
     <use style="fill:#4169e1;stroke:#4169e1;" x="179.55" xlink:href="#mcca8212e5f" y="221.772398"/>
     <use style="fill:#4169e1;stroke:#4169e1;" x="190.05" xlink:href="#mcca8212e5f" y="222.331687"/>
     <use style="fill:#4169e1;stroke:#4169e1;" x="200.55" xlink:href="#mcca8212e5f" y="224.568846"/>
     <use style="fill:#4169e1;stroke:#4169e1;" x="211.05" xlink:href="#mcca8212e5f" y="208.908735"/>
     <use style="fill:#4169e1;stroke:#4169e1;" x="221.55" xlink:href="#mcca8212e5f" y="203.875128"/>
     <use style="fill:#4169e1;stroke:#4169e1;" x="232.05" xlink:href="#mcca8212e5f" y="206.112287"/>
     <use style="fill:#4169e1;stroke:#4169e1;" x="242.55" xlink:href="#mcca8212e5f" y="224.568846"/>
     <use style="fill:#4169e1;stroke:#4169e1;" x="253.05" xlink:href="#mcca8212e5f" y="218.975949"/>
     <use style="fill:#4169e1;stroke:#4169e1;" x="263.55" xlink:href="#mcca8212e5f" y="225.128136"/>
     <use style="fill:#4169e1;stroke:#4169e1;" x="274.05" xlink:href="#mcca8212e5f" y="224.009556"/>
     <use style="fill:#4169e1;stroke:#4169e1;" x="284.55" xlink:href="#mcca8212e5f" y="219.535239"/>
     <use style="fill:#4169e1;stroke:#4169e1;" x="295.05" xlink:href="#mcca8212e5f" y="225.128136"/>
     <use style="fill:#4169e1;stroke:#4169e1;" x="305.55" xlink:href="#mcca8212e5f" y="201.07868"/>
     <use style="fill:#4169e1;stroke:#4169e1;" x="316.05" xlink:href="#mcca8212e5f" y="224.54548"/>
     <use style="fill:#4169e1;stroke:#4169e1;" x="326.55" xlink:href="#mcca8212e5f" y="225.128136"/>
     <use style="fill:#4169e1;stroke:#4169e1;" x="337.05" xlink:href="#mcca8212e5f" y="86.394862"/>
     <use style="fill:#4169e1;stroke:#4169e1;" x="347.55" xlink:href="#mcca8212e5f" y="225.128136"/>
     <use style="fill:#4169e1;stroke:#4169e1;" x="358.05" xlink:href="#mcca8212e5f" y="225.128136"/>
     <use style="fill:#4169e1;stroke:#4169e1;" x="368.55" xlink:href="#mcca8212e5f" y="225.128136"/>
     <use style="fill:#4169e1;stroke:#4169e1;" x="379.05" xlink:href="#mcca8212e5f" y="49.399322"/>
     <use style="fill:#4169e1;stroke:#4169e1;" x="389.55" xlink:href="#mcca8212e5f" y="49.399322"/>
     <use style="fill:#4169e1;stroke:#4169e1;" x="400.05" xlink:href="#mcca8212e5f" y="225.128136"/>
     <use style="fill:#4169e1;stroke:#4169e1;" x="410.55" xlink:href="#mcca8212e5f" y="225.128136"/>
     <use style="fill:#4169e1;stroke:#4169e1;" x="421.05" xlink:href="#mcca8212e5f" y="225.128136"/>
     <use style="fill:#4169e1;stroke:#4169e1;" x="431.55" xlink:href="#mcca8212e5f" y="225.128136"/>
     <use style="fill:#4169e1;stroke:#4169e1;" x="442.05" xlink:href="#mcca8212e5f" y="49.399322"/>
     <use style="fill:#4169e1;stroke:#4169e1;" x="452.55" xlink:href="#mcca8212e5f" y="225.128136"/>
     <use style="fill:#4169e1;stroke:#4169e1;" x="463.05" xlink:href="#mcca8212e5f" y="225.128136"/>
     <use style="fill:#4169e1;stroke:#4169e1;" x="473.55" xlink:href="#mcca8212e5f" y="225.128136"/>
    </g>
   </g>
   <g id="patch_3">
    <path d="M 100.8 230.4 
L 100.8 23.04 
" style="fill:none;stroke:#262626;stroke-linecap:square;stroke-linejoin:miter;stroke-width:0.8;"/>
   </g>
   <g id="patch_4">
    <path d="M 100.8 230.4 
L 478.8 230.4 
" style="fill:none;stroke:#262626;stroke-linecap:square;stroke-linejoin:miter;stroke-width:0.8;"/>
   </g>
   <g id="text_12">
    <text style="fill:#262626;font-family:DejaVu Sans;font-size:20px;font-style:normal;font-weight:bold;text-anchor:middle;" transform="rotate(-0, 289.8, 17.04)" x="289.8" y="17.04">IGHD3-16*01</text>
   </g>
  </g>
 </g>
 <defs>
  <clipPath id="p64b4a81e68">
   <rect height="207.36" width="378" x="100.8" y="23.04"/>
  </clipPath>
 </defs>
</svg>
