<?xml version="1.0" encoding="utf-8" standalone="no"?>
<!DOCTYPE svg PUBLIC "-//W3C//DTD SVG 1.1//EN"
  "http://www.w3.org/Graphics/SVG/1.1/DTD/svg11.dtd">
<!-- Created with matplotlib (http://matplotlib.org/) -->
<svg height="288pt" version="1.1" viewBox="0 0 504 288" width="504pt" xmlns="http://www.w3.org/2000/svg" xmlns:xlink="http://www.w3.org/1999/xlink">
 <defs>
  <style type="text/css">
*{stroke-linecap:butt;stroke-linejoin:round;}
  </style>
 </defs>
 <g id="figure_1">
  <g id="patch_1">
   <path d="M 0 288 
L 504 288 
L 504 0 
L 0 0 
z
" style="fill:#ffffff;"/>
  </g>
  <g id="axes_1">
   <g id="patch_2">
    <path d="M 100.8 230.4 
L 478.8 230.4 
L 478.8 23.04 
L 100.8 23.04 
z
" style="fill:#ffffff;"/>
   </g>
   <g id="matplotlib.axis_1">
    <g id="xtick_1">
     <g id="line2d_1">
      <defs>
       <path d="M 0 0 
L 0 3.5 
" id="m3d66d0ac24" style="stroke:#262626;stroke-width:0.8;"/>
      </defs>
      <g>
       <use style="fill:#262626;stroke:#262626;stroke-width:0.8;" x="106.896774" xlink:href="#m3d66d0ac24" y="230.4"/>
      </g>
     </g>
     <g id="text_1">
      <text style="fill:#262626;font-family:DejaVu Sans;font-size:20px;font-style:normal;font-weight:normal;text-anchor:middle;" transform="rotate(-0, 106.896774, 252.596875)" x="106.896774" y="252.596875">0</text>
     </g>
    </g>
    <g id="xtick_2">
     <g id="line2d_2">
      <g>
       <use style="fill:#262626;stroke:#262626;stroke-width:0.8;" x="228.832258" xlink:href="#m3d66d0ac24" y="230.4"/>
      </g>
     </g>
     <g id="text_2">
      <text style="fill:#262626;font-family:DejaVu Sans;font-size:20px;font-style:normal;font-weight:normal;text-anchor:middle;" transform="rotate(-0, 228.832258, 252.596875)" x="228.832258" y="252.596875">10</text>
     </g>
    </g>
    <g id="xtick_3">
     <g id="line2d_3">
      <g>
       <use style="fill:#262626;stroke:#262626;stroke-width:0.8;" x="350.767742" xlink:href="#m3d66d0ac24" y="230.4"/>
      </g>
     </g>
     <g id="text_3">
      <text style="fill:#262626;font-family:DejaVu Sans;font-size:20px;font-style:normal;font-weight:normal;text-anchor:middle;" transform="rotate(-0, 350.767742, 252.596875)" x="350.767742" y="252.596875">20</text>
     </g>
    </g>
    <g id="xtick_4">
     <g id="line2d_4">
      <g>
       <use style="fill:#262626;stroke:#262626;stroke-width:0.8;" x="472.703226" xlink:href="#m3d66d0ac24" y="230.4"/>
      </g>
     </g>
     <g id="text_4">
      <text style="fill:#262626;font-family:DejaVu Sans;font-size:20px;font-style:normal;font-weight:normal;text-anchor:middle;" transform="rotate(-0, 472.703226, 252.596875)" x="472.703226" y="252.596875">30</text>
     </g>
    </g>
    <g id="text_5">
     <text style="fill:#262626;font-family:DejaVu Sans;font-size:20px;font-style:normal;font-weight:normal;text-anchor:middle;" transform="rotate(-0, 289.8, 275.953125)" x="289.8" y="275.953125">position</text>
    </g>
   </g>
   <g id="matplotlib.axis_2">
    <g id="ytick_1">
     <g id="line2d_5">
      <defs>
       <path d="M 0 0 
L -3.5 0 
" id="me058ac17da" style="stroke:#262626;stroke-width:0.8;"/>
      </defs>
      <g>
       <use style="fill:#262626;stroke:#262626;stroke-width:0.8;" x="100.8" xlink:href="#me058ac17da" y="225.128136"/>
      </g>
     </g>
     <g id="text_6">
      <text style="fill:#262626;font-family:DejaVu Sans;font-size:20px;font-style:normal;font-weight:normal;text-anchor:end;" transform="rotate(-0, 93.8, 232.726573)" x="93.8" y="232.726573">0.00</text>
     </g>
    </g>
    <g id="ytick_2">
     <g id="line2d_6">
      <g>
       <use style="fill:#262626;stroke:#262626;stroke-width:0.8;" x="100.8" xlink:href="#me058ac17da" y="146.050169"/>
      </g>
     </g>
     <g id="text_7">
      <text style="fill:#262626;font-family:DejaVu Sans;font-size:20px;font-style:normal;font-weight:normal;text-anchor:end;" transform="rotate(-0, 93.8, 153.648607)" x="93.8" y="153.648607">0.05</text>
     </g>
    </g>
    <g id="ytick_3">
     <g id="line2d_7">
      <g>
       <use style="fill:#262626;stroke:#262626;stroke-width:0.8;" x="100.8" xlink:href="#me058ac17da" y="66.972203"/>
      </g>
     </g>
     <g id="text_8">
      <text style="fill:#262626;font-family:DejaVu Sans;font-size:20px;font-style:normal;font-weight:normal;text-anchor:end;" transform="rotate(-0, 93.8, 74.570641)" x="93.8" y="74.570641">0.10</text>
     </g>
    </g>
    <g id="text_9">
     <text style="fill:#262626;font-family:DejaVu Sans;font-size:20px;font-style:normal;font-weight:normal;text-anchor:middle;" transform="rotate(-90, 41.109375, 126.72)" x="41.109375" y="126.72">mut freq</text>
    </g>
   </g>
   <g id="LineCollection_1">
    <path clip-path="url(#p748a5a56bf)" d="M 106.896774 289 
L 106.896774 -1 
" style="fill:none;stroke:#4169e1;stroke-width:3;"/>
    <path clip-path="url(#p748a5a56bf)" d="M 119.090323 289 
L 119.090323 -1 
" style="fill:none;stroke:#4169e1;stroke-width:3;"/>
    <path clip-path="url(#p748a5a56bf)" d="M 131.283871 289 
L 131.283871 39.363948 
" style="fill:none;stroke:#4169e1;stroke-width:3;"/>
    <path clip-path="url(#p748a5a56bf)" d="M 143.477419 219.518271 
L 143.477419 -1 
" style="fill:none;stroke:#4169e1;stroke-width:3;"/>
    <path clip-path="url(#p748a5a56bf)" d="M 155.670968 240.420096 
L 155.670968 209.836175 
" style="fill:none;stroke:#4169e1;stroke-width:3;"/>
    <path clip-path="url(#p748a5a56bf)" d="M 167.864516 240.073877 
L 167.864516 210.182394 
" style="fill:none;stroke:#4169e1;stroke-width:3;"/>
    <path clip-path="url(#p748a5a56bf)" d="M 180.058065 239.742987 
L 180.058065 210.513284 
" style="fill:none;stroke:#4169e1;stroke-width:3;"/>
    <path clip-path="url(#p748a5a56bf)" d="M 192.251613 239.742987 
L 192.251613 210.513284 
" style="fill:none;stroke:#4169e1;stroke-width:3;"/>
    <path clip-path="url(#p748a5a56bf)" d="M 204.445161 239.025085 
L 204.445161 211.231186 
" style="fill:none;stroke:#4169e1;stroke-width:3;"/>
    <path clip-path="url(#p748a5a56bf)" d="M 216.63871 238.02923 
L 216.63871 212.227041 
" style="fill:none;stroke:#4169e1;stroke-width:3;"/>
    <path clip-path="url(#p748a5a56bf)" d="M 228.832258 238.02923 
L 228.832258 212.227041 
" style="fill:none;stroke:#4169e1;stroke-width:3;"/>
    <path clip-path="url(#p748a5a56bf)" d="M 241.025806 187.590923 
L 241.025806 136.978515 
" style="fill:none;stroke:#4169e1;stroke-width:3;"/>
    <path clip-path="url(#p748a5a56bf)" d="M 253.219355 238.02923 
L 253.219355 212.227041 
" style="fill:none;stroke:#4169e1;stroke-width:3;"/>
    <path clip-path="url(#p748a5a56bf)" d="M 265.412903 220.415879 
L 265.412903 187.944781 
" style="fill:none;stroke:#4169e1;stroke-width:3;"/>
    <path clip-path="url(#p748a5a56bf)" d="M 277.606452 227.555327 
L 277.606452 201.753138 
" style="fill:none;stroke:#4169e1;stroke-width:3;"/>
    <path clip-path="url(#p748a5a56bf)" d="M 289.8 238.02923 
L 289.8 212.227041 
" style="fill:none;stroke:#4169e1;stroke-width:3;"/>
    <path clip-path="url(#p748a5a56bf)" d="M 301.993548 238.02923 
L 301.993548 212.227041 
" style="fill:none;stroke:#4169e1;stroke-width:3;"/>
    <path clip-path="url(#p748a5a56bf)" d="M 314.187097 238.02923 
L 314.187097 212.227041 
" style="fill:none;stroke:#4169e1;stroke-width:3;"/>
    <path clip-path="url(#p748a5a56bf)" d="M 326.380645 238.02923 
L 326.380645 212.227041 
" style="fill:none;stroke:#4169e1;stroke-width:3;"/>
    <path clip-path="url(#p748a5a56bf)" d="M 338.574194 204.552431 
L 338.574194 161.912618 
" style="fill:none;stroke:#4169e1;stroke-width:3;"/>
    <path clip-path="url(#p748a5a56bf)" d="M 350.767742 187.590923 
L 350.767742 136.978515 
" style="fill:none;stroke:#4169e1;stroke-width:3;"/>
    <path clip-path="url(#p748a5a56bf)" d="M 362.96129 238.02923 
L 362.96129 212.227041 
" style="fill:none;stroke:#4169e1;stroke-width:3;"/>
    <path clip-path="url(#p748a5a56bf)" d="M 375.154839 238.02923 
L 375.154839 212.227041 
" style="fill:none;stroke:#4169e1;stroke-width:3;"/>
    <path clip-path="url(#p748a5a56bf)" d="M 387.348387 195.972814 
L 387.348387 148.846169 
" style="fill:none;stroke:#4169e1;stroke-width:3;"/>
    <path clip-path="url(#p748a5a56bf)" d="M 399.541935 238.113826 
L 399.541935 212.142445 
" style="fill:none;stroke:#4169e1;stroke-width:3;"/>
    <path clip-path="url(#p748a5a56bf)" d="M 411.735484 238.113826 
L 411.735484 212.142445 
" style="fill:none;stroke:#4169e1;stroke-width:3;"/>
    <path clip-path="url(#p748a5a56bf)" d="M 423.929032 227.631006 
L 423.929032 200.960069 
" style="fill:none;stroke:#4169e1;stroke-width:3;"/>
    <path clip-path="url(#p748a5a56bf)" d="M 436.122581 289 
L 436.122581 150.521164 
" style="fill:none;stroke:#4169e1;stroke-width:3;"/>
    <path clip-path="url(#p748a5a56bf)" d="M 448.316129 289 
L 448.316129 150.521164 
" style="fill:none;stroke:#4169e1;stroke-width:3;"/>
    <path clip-path="url(#p748a5a56bf)" d="M 460.509677 289 
L 460.509677 98.124725 
" style="fill:none;stroke:#4169e1;stroke-width:3;"/>
    <path clip-path="url(#p748a5a56bf)" d="M 472.703226 289 
L 472.703226 -1 
" style="fill:none;stroke:#4169e1;stroke-width:3;"/>
   </g>
   <g id="line2d_8">
    <path clip-path="url(#p748a5a56bf)" d="M 106.896774 225.128136 
L 119.090323 225.128136 
L 131.283871 225.128136 
L 143.477419 49.399322 
L 155.670968 225.128136 
L 167.864516 225.128136 
L 180.058065 225.128136 
L 192.251613 225.128136 
L 204.445161 225.128136 
L 216.63871 225.128136 
L 228.832258 225.128136 
L 241.025806 162.284719 
L 253.219355 225.128136 
L 265.412903 204.18033 
L 277.606452 214.654233 
L 289.8 225.128136 
L 301.993548 225.128136 
L 314.187097 225.128136 
L 326.380645 225.128136 
L 338.574194 183.232524 
L 350.767742 162.284719 
L 362.96129 225.128136 
L 375.154839 225.128136 
L 387.348387 172.409492 
L 399.541935 225.128136 
L 411.735484 225.128136 
L 423.929032 214.295537 
L 436.122581 225.128136 
L 448.316129 225.128136 
L 460.509677 225.128136 
L 472.703226 225.128136 
" style="fill:none;stroke:#4169e1;stroke-linecap:round;stroke-width:3;"/>
    <defs>
     <path d="M 0 3.25 
C 0.86191 3.25 1.688635 2.907559 2.298097 2.298097 
C 2.907559 1.688635 3.25 0.86191 3.25 0 
C 3.25 -0.86191 2.907559 -1.688635 2.298097 -2.298097 
C 1.688635 -2.907559 0.86191 -3.25 0 -3.25 
C -0.86191 -3.25 -1.688635 -2.907559 -2.298097 -2.298097 
C -2.907559 -1.688635 -3.25 -0.86191 -3.25 0 
C -3.25 0.86191 -2.907559 1.688635 -2.298097 2.298097 
C -1.688635 2.907559 -0.86191 3.25 0 3.25 
z
" id="m8500dd01b9" style="stroke:#4169e1;"/>
    </defs>
    <g clip-path="url(#p748a5a56bf)">
     <use style="fill:#4169e1;stroke:#4169e1;" x="106.896774" xlink:href="#m8500dd01b9" y="225.128136"/>
     <use style="fill:#4169e1;stroke:#4169e1;" x="119.090323" xlink:href="#m8500dd01b9" y="225.128136"/>
     <use style="fill:#4169e1;stroke:#4169e1;" x="131.283871" xlink:href="#m8500dd01b9" y="225.128136"/>
     <use style="fill:#4169e1;stroke:#4169e1;" x="143.477419" xlink:href="#m8500dd01b9" y="49.399322"/>
     <use style="fill:#4169e1;stroke:#4169e1;" x="155.670968" xlink:href="#m8500dd01b9" y="225.128136"/>
     <use style="fill:#4169e1;stroke:#4169e1;" x="167.864516" xlink:href="#m8500dd01b9" y="225.128136"/>
     <use style="fill:#4169e1;stroke:#4169e1;" x="180.058065" xlink:href="#m8500dd01b9" y="225.128136"/>
     <use style="fill:#4169e1;stroke:#4169e1;" x="192.251613" xlink:href="#m8500dd01b9" y="225.128136"/>
     <use style="fill:#4169e1;stroke:#4169e1;" x="204.445161" xlink:href="#m8500dd01b9" y="225.128136"/>
     <use style="fill:#4169e1;stroke:#4169e1;" x="216.63871" xlink:href="#m8500dd01b9" y="225.128136"/>
     <use style="fill:#4169e1;stroke:#4169e1;" x="228.832258" xlink:href="#m8500dd01b9" y="225.128136"/>
     <use style="fill:#4169e1;stroke:#4169e1;" x="241.025806" xlink:href="#m8500dd01b9" y="162.284719"/>
     <use style="fill:#4169e1;stroke:#4169e1;" x="253.219355" xlink:href="#m8500dd01b9" y="225.128136"/>
     <use style="fill:#4169e1;stroke:#4169e1;" x="265.412903" xlink:href="#m8500dd01b9" y="204.18033"/>
     <use style="fill:#4169e1;stroke:#4169e1;" x="277.606452" xlink:href="#m8500dd01b9" y="214.654233"/>
     <use style="fill:#4169e1;stroke:#4169e1;" x="289.8" xlink:href="#m8500dd01b9" y="225.128136"/>
     <use style="fill:#4169e1;stroke:#4169e1;" x="301.993548" xlink:href="#m8500dd01b9" y="225.128136"/>
     <use style="fill:#4169e1;stroke:#4169e1;" x="314.187097" xlink:href="#m8500dd01b9" y="225.128136"/>
     <use style="fill:#4169e1;stroke:#4169e1;" x="326.380645" xlink:href="#m8500dd01b9" y="225.128136"/>
     <use style="fill:#4169e1;stroke:#4169e1;" x="338.574194" xlink:href="#m8500dd01b9" y="183.232524"/>
     <use style="fill:#4169e1;stroke:#4169e1;" x="350.767742" xlink:href="#m8500dd01b9" y="162.284719"/>
     <use style="fill:#4169e1;stroke:#4169e1;" x="362.96129" xlink:href="#m8500dd01b9" y="225.128136"/>
     <use style="fill:#4169e1;stroke:#4169e1;" x="375.154839" xlink:href="#m8500dd01b9" y="225.128136"/>
     <use style="fill:#4169e1;stroke:#4169e1;" x="387.348387" xlink:href="#m8500dd01b9" y="172.409492"/>
     <use style="fill:#4169e1;stroke:#4169e1;" x="399.541935" xlink:href="#m8500dd01b9" y="225.128136"/>
     <use style="fill:#4169e1;stroke:#4169e1;" x="411.735484" xlink:href="#m8500dd01b9" y="225.128136"/>
     <use style="fill:#4169e1;stroke:#4169e1;" x="423.929032" xlink:href="#m8500dd01b9" y="214.295537"/>
     <use style="fill:#4169e1;stroke:#4169e1;" x="436.122581" xlink:href="#m8500dd01b9" y="225.128136"/>
     <use style="fill:#4169e1;stroke:#4169e1;" x="448.316129" xlink:href="#m8500dd01b9" y="225.128136"/>
     <use style="fill:#4169e1;stroke:#4169e1;" x="460.509677" xlink:href="#m8500dd01b9" y="225.128136"/>
     <use style="fill:#4169e1;stroke:#4169e1;" x="472.703226" xlink:href="#m8500dd01b9" y="225.128136"/>
    </g>
   </g>
   <g id="patch_3">
    <path d="M 100.8 230.4 
L 100.8 23.04 
" style="fill:none;stroke:#262626;stroke-linecap:square;stroke-linejoin:miter;stroke-width:0.8;"/>
   </g>
   <g id="patch_4">
    <path d="M 100.8 230.4 
L 478.8 230.4 
" style="fill:none;stroke:#262626;stroke-linecap:square;stroke-linejoin:miter;stroke-width:0.8;"/>
   </g>
   <g id="text_10">
    <text style="fill:#262626;font-family:DejaVu Sans;font-size:20px;font-style:normal;font-weight:bold;text-anchor:middle;" transform="rotate(-0, 289.8, 17.04)" x="289.8" y="17.04">IGHD3-10*01</text>
   </g>
  </g>
 </g>
 <defs>
  <clipPath id="p748a5a56bf">
   <rect height="207.36" width="378" x="100.8" y="23.04"/>
  </clipPath>
 </defs>
</svg>
