<?xml version="1.0" encoding="utf-8" standalone="no"?>
<!DOCTYPE svg PUBLIC "-//W3C//DTD SVG 1.1//EN"
  "http://www.w3.org/Graphics/SVG/1.1/DTD/svg11.dtd">
<!-- Created with matplotlib (http://matplotlib.org/) -->
<svg height="288pt" version="1.1" viewBox="0 0 504 288" width="504pt" xmlns="http://www.w3.org/2000/svg" xmlns:xlink="http://www.w3.org/1999/xlink">
 <defs>
  <style type="text/css">
*{stroke-linecap:butt;stroke-linejoin:round;}
  </style>
 </defs>
 <g id="figure_1">
  <g id="patch_1">
   <path d="M 0 288 
L 504 288 
L 504 0 
L 0 0 
z
" style="fill:#ffffff;"/>
  </g>
  <g id="axes_1">
   <g id="patch_2">
    <path d="M 100.8 230.4 
L 478.8 230.4 
L 478.8 23.04 
L 100.8 23.04 
z
" style="fill:#ffffff;"/>
   </g>
   <g id="matplotlib.axis_1">
    <g id="xtick_1">
     <g id="line2d_1">
      <defs>
       <path d="M 0 0 
L 0 3.5 
" id="m2fedbd917d" style="stroke:#262626;stroke-width:0.8;"/>
      </defs>
      <g>
       <use style="fill:#262626;stroke:#262626;stroke-width:0.8;" x="107.8" xlink:href="#m2fedbd917d" y="230.4"/>
      </g>
     </g>
     <g id="text_1">
      <text style="fill:#262626;font-family:DejaVu Sans;font-size:20px;font-style:normal;font-weight:normal;text-anchor:middle;" transform="rotate(-0, 107.8, 252.596875)" x="107.8" y="252.596875">0</text>
     </g>
    </g>
    <g id="xtick_2">
     <g id="line2d_2">
      <g>
       <use style="fill:#262626;stroke:#262626;stroke-width:0.8;" x="177.8" xlink:href="#m2fedbd917d" y="230.4"/>
      </g>
     </g>
     <g id="text_2">
      <text style="fill:#262626;font-family:DejaVu Sans;font-size:20px;font-style:normal;font-weight:normal;text-anchor:middle;" transform="rotate(-0, 177.8, 252.596875)" x="177.8" y="252.596875">5</text>
     </g>
    </g>
    <g id="xtick_3">
     <g id="line2d_3">
      <g>
       <use style="fill:#262626;stroke:#262626;stroke-width:0.8;" x="247.8" xlink:href="#m2fedbd917d" y="230.4"/>
      </g>
     </g>
     <g id="text_3">
      <text style="fill:#262626;font-family:DejaVu Sans;font-size:20px;font-style:normal;font-weight:normal;text-anchor:middle;" transform="rotate(-0, 247.8, 252.596875)" x="247.8" y="252.596875">10</text>
     </g>
    </g>
    <g id="xtick_4">
     <g id="line2d_4">
      <g>
       <use style="fill:#262626;stroke:#262626;stroke-width:0.8;" x="317.8" xlink:href="#m2fedbd917d" y="230.4"/>
      </g>
     </g>
     <g id="text_4">
      <text style="fill:#262626;font-family:DejaVu Sans;font-size:20px;font-style:normal;font-weight:normal;text-anchor:middle;" transform="rotate(-0, 317.8, 252.596875)" x="317.8" y="252.596875">15</text>
     </g>
    </g>
    <g id="xtick_5">
     <g id="line2d_5">
      <g>
       <use style="fill:#262626;stroke:#262626;stroke-width:0.8;" x="387.8" xlink:href="#m2fedbd917d" y="230.4"/>
      </g>
     </g>
     <g id="text_5">
      <text style="fill:#262626;font-family:DejaVu Sans;font-size:20px;font-style:normal;font-weight:normal;text-anchor:middle;" transform="rotate(-0, 387.8, 252.596875)" x="387.8" y="252.596875">20</text>
     </g>
    </g>
    <g id="xtick_6">
     <g id="line2d_6">
      <g>
       <use style="fill:#262626;stroke:#262626;stroke-width:0.8;" x="457.8" xlink:href="#m2fedbd917d" y="230.4"/>
      </g>
     </g>
     <g id="text_6">
      <text style="fill:#262626;font-family:DejaVu Sans;font-size:20px;font-style:normal;font-weight:normal;text-anchor:middle;" transform="rotate(-0, 457.8, 252.596875)" x="457.8" y="252.596875">25</text>
     </g>
    </g>
    <g id="text_7">
     <text style="fill:#262626;font-family:DejaVu Sans;font-size:20px;font-style:normal;font-weight:normal;text-anchor:middle;" transform="rotate(-0, 289.8, 275.953125)" x="289.8" y="275.953125">position</text>
    </g>
   </g>
   <g id="matplotlib.axis_2">
    <g id="ytick_1">
     <g id="line2d_7">
      <defs>
       <path d="M 0 0 
L -3.5 0 
" id="me0beec7a7c" style="stroke:#262626;stroke-width:0.8;"/>
      </defs>
      <g>
       <use style="fill:#262626;stroke:#262626;stroke-width:0.8;" x="100.8" xlink:href="#me0beec7a7c" y="225.128136"/>
      </g>
     </g>
     <g id="text_8">
      <text style="fill:#262626;font-family:DejaVu Sans;font-size:20px;font-style:normal;font-weight:normal;text-anchor:end;" transform="rotate(-0, 93.8, 232.726573)" x="93.8" y="232.726573">0.00</text>
     </g>
    </g>
    <g id="ytick_2">
     <g id="line2d_8">
      <g>
       <use style="fill:#262626;stroke:#262626;stroke-width:0.8;" x="100.8" xlink:href="#me0beec7a7c" y="181.195932"/>
      </g>
     </g>
     <g id="text_9">
      <text style="fill:#262626;font-family:DejaVu Sans;font-size:20px;font-style:normal;font-weight:normal;text-anchor:end;" transform="rotate(-0, 93.8, 188.79437)" x="93.8" y="188.79437">0.25</text>
     </g>
    </g>
    <g id="ytick_3">
     <g id="line2d_9">
      <g>
       <use style="fill:#262626;stroke:#262626;stroke-width:0.8;" x="100.8" xlink:href="#me0beec7a7c" y="137.263729"/>
      </g>
     </g>
     <g id="text_10">
      <text style="fill:#262626;font-family:DejaVu Sans;font-size:20px;font-style:normal;font-weight:normal;text-anchor:end;" transform="rotate(-0, 93.8, 144.862166)" x="93.8" y="144.862166">0.50</text>
     </g>
    </g>
    <g id="ytick_4">
     <g id="line2d_10">
      <g>
       <use style="fill:#262626;stroke:#262626;stroke-width:0.8;" x="100.8" xlink:href="#me0beec7a7c" y="93.331525"/>
      </g>
     </g>
     <g id="text_11">
      <text style="fill:#262626;font-family:DejaVu Sans;font-size:20px;font-style:normal;font-weight:normal;text-anchor:end;" transform="rotate(-0, 93.8, 100.929963)" x="93.8" y="100.929963">0.75</text>
     </g>
    </g>
    <g id="ytick_5">
     <g id="line2d_11">
      <g>
       <use style="fill:#262626;stroke:#262626;stroke-width:0.8;" x="100.8" xlink:href="#me0beec7a7c" y="49.399322"/>
      </g>
     </g>
     <g id="text_12">
      <text style="fill:#262626;font-family:DejaVu Sans;font-size:20px;font-style:normal;font-weight:normal;text-anchor:end;" transform="rotate(-0, 93.8, 56.99776)" x="93.8" y="56.99776">1.00</text>
     </g>
    </g>
    <g id="text_13">
     <text style="fill:#262626;font-family:DejaVu Sans;font-size:20px;font-style:normal;font-weight:normal;text-anchor:middle;" transform="rotate(-90, 41.109375, 126.72)" x="41.109375" y="126.72">mut freq</text>
    </g>
   </g>
   <g id="LineCollection_1">
    <path clip-path="url(#p8a3c80ad4a)" d="M 107.8 267.452593 
L 107.8 182.803678 
" style="fill:none;stroke:#4169e1;stroke-width:3;"/>
    <path clip-path="url(#p8a3c80ad4a)" d="M 121.8 267.452593 
L 121.8 182.803678 
" style="fill:none;stroke:#4169e1;stroke-width:3;"/>
    <path clip-path="url(#p8a3c80ad4a)" d="M 135.8 267.452593 
L 135.8 182.803678 
" style="fill:none;stroke:#4169e1;stroke-width:3;"/>
    <path clip-path="url(#p8a3c80ad4a)" d="M 149.8 267.452593 
L 149.8 182.803678 
" style="fill:none;stroke:#4169e1;stroke-width:3;"/>
    <path clip-path="url(#p8a3c80ad4a)" d="M 163.8 267.452593 
L 163.8 182.803678 
" style="fill:none;stroke:#4169e1;stroke-width:3;"/>
    <path clip-path="url(#p8a3c80ad4a)" d="M 177.8 267.452593 
L 177.8 182.803678 
" style="fill:none;stroke:#4169e1;stroke-width:3;"/>
    <path clip-path="url(#p8a3c80ad4a)" d="M 191.8 267.452593 
L 191.8 182.803678 
" style="fill:none;stroke:#4169e1;stroke-width:3;"/>
    <path clip-path="url(#p8a3c80ad4a)" d="M 205.8 76.341952 
L 205.8 22.456692 
" style="fill:none;stroke:#4169e1;stroke-width:3;"/>
    <path clip-path="url(#p8a3c80ad4a)" d="M 219.8 179.588187 
L 219.8 94.939271 
" style="fill:none;stroke:#4169e1;stroke-width:3;"/>
    <path clip-path="url(#p8a3c80ad4a)" d="M 233.8 267.452593 
L 233.8 182.803678 
" style="fill:none;stroke:#4169e1;stroke-width:3;"/>
    <path clip-path="url(#p8a3c80ad4a)" d="M 247.8 267.452593 
L 247.8 182.803678 
" style="fill:none;stroke:#4169e1;stroke-width:3;"/>
    <path clip-path="url(#p8a3c80ad4a)" d="M 261.8 267.452593 
L 261.8 182.803678 
" style="fill:none;stroke:#4169e1;stroke-width:3;"/>
    <path clip-path="url(#p8a3c80ad4a)" d="M 275.8 267.452593 
L 275.8 182.803678 
" style="fill:none;stroke:#4169e1;stroke-width:3;"/>
    <path clip-path="url(#p8a3c80ad4a)" d="M 289.8 267.452593 
L 289.8 182.803678 
" style="fill:none;stroke:#4169e1;stroke-width:3;"/>
    <path clip-path="url(#p8a3c80ad4a)" d="M 303.8 76.341952 
L 303.8 22.456692 
" style="fill:none;stroke:#4169e1;stroke-width:3;"/>
    <path clip-path="url(#p8a3c80ad4a)" d="M 317.8 267.452593 
L 317.8 182.803678 
" style="fill:none;stroke:#4169e1;stroke-width:3;"/>
    <path clip-path="url(#p8a3c80ad4a)" d="M 331.8 267.452593 
L 331.8 182.803678 
" style="fill:none;stroke:#4169e1;stroke-width:3;"/>
    <path clip-path="url(#p8a3c80ad4a)" d="M 345.8 267.452593 
L 345.8 182.803678 
" style="fill:none;stroke:#4169e1;stroke-width:3;"/>
    <path clip-path="url(#p8a3c80ad4a)" d="M 359.8 267.452593 
L 359.8 182.803678 
" style="fill:none;stroke:#4169e1;stroke-width:3;"/>
    <path clip-path="url(#p8a3c80ad4a)" d="M 373.8 267.452593 
L 373.8 182.803678 
" style="fill:none;stroke:#4169e1;stroke-width:3;"/>
    <path clip-path="url(#p8a3c80ad4a)" d="M 387.8 267.452593 
L 387.8 182.803678 
" style="fill:none;stroke:#4169e1;stroke-width:3;"/>
    <path clip-path="url(#p8a3c80ad4a)" d="M 401.8 267.452593 
L 401.8 182.803678 
" style="fill:none;stroke:#4169e1;stroke-width:3;"/>
    <path clip-path="url(#p8a3c80ad4a)" d="M 415.8 179.588187 
L 415.8 94.939271 
" style="fill:none;stroke:#4169e1;stroke-width:3;"/>
    <path clip-path="url(#p8a3c80ad4a)" d="M 429.8 267.452593 
L 429.8 182.803678 
" style="fill:none;stroke:#4169e1;stroke-width:3;"/>
    <path clip-path="url(#p8a3c80ad4a)" d="M 443.8 76.341952 
L 443.8 22.456692 
" style="fill:none;stroke:#4169e1;stroke-width:3;"/>
    <path clip-path="url(#p8a3c80ad4a)" d="M 457.8 267.452593 
L 457.8 182.803678 
" style="fill:none;stroke:#4169e1;stroke-width:3;"/>
    <path clip-path="url(#p8a3c80ad4a)" d="M 471.8 267.452593 
L 471.8 182.803678 
" style="fill:none;stroke:#4169e1;stroke-width:3;"/>
   </g>
   <g id="line2d_12">
    <path clip-path="url(#p8a3c80ad4a)" d="M 107.8 225.128136 
L 121.8 225.128136 
L 135.8 225.128136 
L 149.8 225.128136 
L 163.8 225.128136 
L 177.8 225.128136 
L 191.8 225.128136 
L 205.8 49.399322 
L 219.8 137.263729 
L 233.8 225.128136 
L 247.8 225.128136 
L 261.8 225.128136 
L 275.8 225.128136 
L 289.8 225.128136 
L 303.8 49.399322 
L 317.8 225.128136 
L 331.8 225.128136 
L 345.8 225.128136 
L 359.8 225.128136 
L 373.8 225.128136 
L 387.8 225.128136 
L 401.8 225.128136 
L 415.8 137.263729 
L 429.8 225.128136 
L 443.8 49.399322 
L 457.8 225.128136 
L 471.8 225.128136 
" style="fill:none;stroke:#4169e1;stroke-linecap:round;stroke-width:3;"/>
    <defs>
     <path d="M 0 3.25 
C 0.86191 3.25 1.688635 2.907559 2.298097 2.298097 
C 2.907559 1.688635 3.25 0.86191 3.25 0 
C 3.25 -0.86191 2.907559 -1.688635 2.298097 -2.298097 
C 1.688635 -2.907559 0.86191 -3.25 0 -3.25 
C -0.86191 -3.25 -1.688635 -2.907559 -2.298097 -2.298097 
C -2.907559 -1.688635 -3.25 -0.86191 -3.25 0 
C -3.25 0.86191 -2.907559 1.688635 -2.298097 2.298097 
C -1.688635 2.907559 -0.86191 3.25 0 3.25 
z
" id="mf30a7570ba" style="stroke:#4169e1;"/>
    </defs>
    <g clip-path="url(#p8a3c80ad4a)">
     <use style="fill:#4169e1;stroke:#4169e1;" x="107.8" xlink:href="#mf30a7570ba" y="225.128136"/>
     <use style="fill:#4169e1;stroke:#4169e1;" x="121.8" xlink:href="#mf30a7570ba" y="225.128136"/>
     <use style="fill:#4169e1;stroke:#4169e1;" x="135.8" xlink:href="#mf30a7570ba" y="225.128136"/>
     <use style="fill:#4169e1;stroke:#4169e1;" x="149.8" xlink:href="#mf30a7570ba" y="225.128136"/>
     <use style="fill:#4169e1;stroke:#4169e1;" x="163.8" xlink:href="#mf30a7570ba" y="225.128136"/>
     <use style="fill:#4169e1;stroke:#4169e1;" x="177.8" xlink:href="#mf30a7570ba" y="225.128136"/>
     <use style="fill:#4169e1;stroke:#4169e1;" x="191.8" xlink:href="#mf30a7570ba" y="225.128136"/>
     <use style="fill:#4169e1;stroke:#4169e1;" x="205.8" xlink:href="#mf30a7570ba" y="49.399322"/>
     <use style="fill:#4169e1;stroke:#4169e1;" x="219.8" xlink:href="#mf30a7570ba" y="137.263729"/>
     <use style="fill:#4169e1;stroke:#4169e1;" x="233.8" xlink:href="#mf30a7570ba" y="225.128136"/>
     <use style="fill:#4169e1;stroke:#4169e1;" x="247.8" xlink:href="#mf30a7570ba" y="225.128136"/>
     <use style="fill:#4169e1;stroke:#4169e1;" x="261.8" xlink:href="#mf30a7570ba" y="225.128136"/>
     <use style="fill:#4169e1;stroke:#4169e1;" x="275.8" xlink:href="#mf30a7570ba" y="225.128136"/>
     <use style="fill:#4169e1;stroke:#4169e1;" x="289.8" xlink:href="#mf30a7570ba" y="225.128136"/>
     <use style="fill:#4169e1;stroke:#4169e1;" x="303.8" xlink:href="#mf30a7570ba" y="49.399322"/>
     <use style="fill:#4169e1;stroke:#4169e1;" x="317.8" xlink:href="#mf30a7570ba" y="225.128136"/>
     <use style="fill:#4169e1;stroke:#4169e1;" x="331.8" xlink:href="#mf30a7570ba" y="225.128136"/>
     <use style="fill:#4169e1;stroke:#4169e1;" x="345.8" xlink:href="#mf30a7570ba" y="225.128136"/>
     <use style="fill:#4169e1;stroke:#4169e1;" x="359.8" xlink:href="#mf30a7570ba" y="225.128136"/>
     <use style="fill:#4169e1;stroke:#4169e1;" x="373.8" xlink:href="#mf30a7570ba" y="225.128136"/>
     <use style="fill:#4169e1;stroke:#4169e1;" x="387.8" xlink:href="#mf30a7570ba" y="225.128136"/>
     <use style="fill:#4169e1;stroke:#4169e1;" x="401.8" xlink:href="#mf30a7570ba" y="225.128136"/>
     <use style="fill:#4169e1;stroke:#4169e1;" x="415.8" xlink:href="#mf30a7570ba" y="137.263729"/>
     <use style="fill:#4169e1;stroke:#4169e1;" x="429.8" xlink:href="#mf30a7570ba" y="225.128136"/>
     <use style="fill:#4169e1;stroke:#4169e1;" x="443.8" xlink:href="#mf30a7570ba" y="49.399322"/>
     <use style="fill:#4169e1;stroke:#4169e1;" x="457.8" xlink:href="#mf30a7570ba" y="225.128136"/>
     <use style="fill:#4169e1;stroke:#4169e1;" x="471.8" xlink:href="#mf30a7570ba" y="225.128136"/>
    </g>
   </g>
   <g id="patch_3">
    <path d="M 100.8 230.4 
L 100.8 23.04 
" style="fill:none;stroke:#262626;stroke-linecap:square;stroke-linejoin:miter;stroke-width:0.8;"/>
   </g>
   <g id="patch_4">
    <path d="M 100.8 230.4 
L 478.8 230.4 
" style="fill:none;stroke:#262626;stroke-linecap:square;stroke-linejoin:miter;stroke-width:0.8;"/>
   </g>
   <g id="text_14">
    <text style="fill:#262626;font-family:DejaVu Sans;font-size:20px;font-style:normal;font-weight:bold;text-anchor:middle;" transform="rotate(-0, 289.8, 17.04)" x="289.8" y="17.04">IGHD3-3*02</text>
   </g>
  </g>
 </g>
 <defs>
  <clipPath id="p8a3c80ad4a">
   <rect height="207.36" width="378" x="100.8" y="23.04"/>
  </clipPath>
 </defs>
</svg>
