<?xml version="1.0" encoding="utf-8" standalone="no"?>
<!DOCTYPE svg PUBLIC "-//W3C//DTD SVG 1.1//EN"
  "http://www.w3.org/Graphics/SVG/1.1/DTD/svg11.dtd">
<!-- Created with matplotlib (http://matplotlib.org/) -->
<svg height="288pt" version="1.1" viewBox="0 0 504 288" width="504pt" xmlns="http://www.w3.org/2000/svg" xmlns:xlink="http://www.w3.org/1999/xlink">
 <defs>
  <style type="text/css">
*{stroke-linecap:butt;stroke-linejoin:round;}
  </style>
 </defs>
 <g id="figure_1">
  <g id="patch_1">
   <path d="M 0 288 
L 504 288 
L 504 0 
L 0 0 
z
" style="fill:#ffffff;"/>
  </g>
  <g id="axes_1">
   <g id="patch_2">
    <path d="M 100.8 230.4 
L 478.8 230.4 
L 478.8 23.04 
L 100.8 23.04 
z
" style="fill:#ffffff;"/>
   </g>
   <g id="matplotlib.axis_1">
    <g id="xtick_1">
     <g id="line2d_1">
      <defs>
       <path d="M 0 0 
L 0 3.5 
" id="mfd0be8efaa" style="stroke:#262626;stroke-width:0.8;"/>
      </defs>
      <g>
       <use style="fill:#262626;stroke:#262626;stroke-width:0.8;" x="157.5" xlink:href="#mfd0be8efaa" y="230.4"/>
      </g>
     </g>
     <g id="text_1">
      <text style="fill:#262626;font-family:DejaVu Sans;font-size:20px;font-style:normal;font-weight:normal;text-anchor:middle;" transform="rotate(-0, 157.5, 252.596875)" x="157.5" y="252.596875">5</text>
     </g>
    </g>
    <g id="xtick_2">
     <g id="line2d_2">
      <g>
       <use style="fill:#262626;stroke:#262626;stroke-width:0.8;" x="220.5" xlink:href="#mfd0be8efaa" y="230.4"/>
      </g>
     </g>
     <g id="text_2">
      <text style="fill:#262626;font-family:DejaVu Sans;font-size:20px;font-style:normal;font-weight:normal;text-anchor:middle;" transform="rotate(-0, 220.5, 252.596875)" x="220.5" y="252.596875">10</text>
     </g>
    </g>
    <g id="xtick_3">
     <g id="line2d_3">
      <g>
       <use style="fill:#262626;stroke:#262626;stroke-width:0.8;" x="283.5" xlink:href="#mfd0be8efaa" y="230.4"/>
      </g>
     </g>
     <g id="text_3">
      <text style="fill:#262626;font-family:DejaVu Sans;font-size:20px;font-style:normal;font-weight:normal;text-anchor:middle;" transform="rotate(-0, 283.5, 252.596875)" x="283.5" y="252.596875">15</text>
     </g>
    </g>
    <g id="xtick_4">
     <g id="line2d_4">
      <g>
       <use style="fill:#262626;stroke:#262626;stroke-width:0.8;" x="346.5" xlink:href="#mfd0be8efaa" y="230.4"/>
      </g>
     </g>
     <g id="text_4">
      <text style="fill:#262626;font-family:DejaVu Sans;font-size:20px;font-style:normal;font-weight:normal;text-anchor:middle;" transform="rotate(-0, 346.5, 252.596875)" x="346.5" y="252.596875">20</text>
     </g>
    </g>
    <g id="xtick_5">
     <g id="line2d_5">
      <g>
       <use style="fill:#262626;stroke:#262626;stroke-width:0.8;" x="409.5" xlink:href="#mfd0be8efaa" y="230.4"/>
      </g>
     </g>
     <g id="text_5">
      <text style="fill:#262626;font-family:DejaVu Sans;font-size:20px;font-style:normal;font-weight:normal;text-anchor:middle;" transform="rotate(-0, 409.5, 252.596875)" x="409.5" y="252.596875">25</text>
     </g>
    </g>
    <g id="xtick_6">
     <g id="line2d_6">
      <g>
       <use style="fill:#262626;stroke:#262626;stroke-width:0.8;" x="472.5" xlink:href="#mfd0be8efaa" y="230.4"/>
      </g>
     </g>
     <g id="text_6">
      <text style="fill:#262626;font-family:DejaVu Sans;font-size:20px;font-style:normal;font-weight:normal;text-anchor:middle;" transform="rotate(-0, 472.5, 252.596875)" x="472.5" y="252.596875">30</text>
     </g>
    </g>
    <g id="text_7">
     <text style="fill:#262626;font-family:DejaVu Sans;font-size:20px;font-style:normal;font-weight:normal;text-anchor:middle;" transform="rotate(-0, 289.8, 275.953125)" x="289.8" y="275.953125">position</text>
    </g>
   </g>
   <g id="matplotlib.axis_2">
    <g id="ytick_1">
     <g id="line2d_7">
      <defs>
       <path d="M 0 0 
L -3.5 0 
" id="mcdcb304d53" style="stroke:#262626;stroke-width:0.8;"/>
      </defs>
      <g>
       <use style="fill:#262626;stroke:#262626;stroke-width:0.8;" x="100.8" xlink:href="#mcdcb304d53" y="225.128136"/>
      </g>
     </g>
     <g id="text_8">
      <text style="fill:#262626;font-family:DejaVu Sans;font-size:20px;font-style:normal;font-weight:normal;text-anchor:end;" transform="rotate(-0, 93.8, 232.726573)" x="93.8" y="232.726573">0.00</text>
     </g>
    </g>
    <g id="ytick_2">
     <g id="line2d_8">
      <g>
       <use style="fill:#262626;stroke:#262626;stroke-width:0.8;" x="100.8" xlink:href="#mcdcb304d53" y="181.195932"/>
      </g>
     </g>
     <g id="text_9">
      <text style="fill:#262626;font-family:DejaVu Sans;font-size:20px;font-style:normal;font-weight:normal;text-anchor:end;" transform="rotate(-0, 93.8, 188.79437)" x="93.8" y="188.79437">0.25</text>
     </g>
    </g>
    <g id="ytick_3">
     <g id="line2d_9">
      <g>
       <use style="fill:#262626;stroke:#262626;stroke-width:0.8;" x="100.8" xlink:href="#mcdcb304d53" y="137.263729"/>
      </g>
     </g>
     <g id="text_10">
      <text style="fill:#262626;font-family:DejaVu Sans;font-size:20px;font-style:normal;font-weight:normal;text-anchor:end;" transform="rotate(-0, 93.8, 144.862166)" x="93.8" y="144.862166">0.50</text>
     </g>
    </g>
    <g id="ytick_4">
     <g id="line2d_10">
      <g>
       <use style="fill:#262626;stroke:#262626;stroke-width:0.8;" x="100.8" xlink:href="#mcdcb304d53" y="93.331525"/>
      </g>
     </g>
     <g id="text_11">
      <text style="fill:#262626;font-family:DejaVu Sans;font-size:20px;font-style:normal;font-weight:normal;text-anchor:end;" transform="rotate(-0, 93.8, 100.929963)" x="93.8" y="100.929963">0.75</text>
     </g>
    </g>
    <g id="ytick_5">
     <g id="line2d_11">
      <g>
       <use style="fill:#262626;stroke:#262626;stroke-width:0.8;" x="100.8" xlink:href="#mcdcb304d53" y="49.399322"/>
      </g>
     </g>
     <g id="text_12">
      <text style="fill:#262626;font-family:DejaVu Sans;font-size:20px;font-style:normal;font-weight:normal;text-anchor:end;" transform="rotate(-0, 93.8, 56.99776)" x="93.8" y="56.99776">1.00</text>
     </g>
    </g>
    <g id="text_13">
     <text style="fill:#262626;font-family:DejaVu Sans;font-size:20px;font-style:normal;font-weight:normal;text-anchor:middle;" transform="rotate(-90, 41.109375, 126.72)" x="41.109375" y="126.72">mut freq</text>
    </g>
   </g>
   <g id="LineCollection_1">
    <path clip-path="url(#p71f5a368b5)" d="M 107.1 269.466504 
L 107.1 180.789767 
" style="fill:none;stroke:#4169e1;stroke-width:3;"/>
    <path clip-path="url(#p71f5a368b5)" d="M 119.7 269.466504 
L 119.7 180.789767 
" style="fill:none;stroke:#4169e1;stroke-width:3;"/>
    <path clip-path="url(#p71f5a368b5)" d="M 132.3 269.466504 
L 132.3 180.789767 
" style="fill:none;stroke:#4169e1;stroke-width:3;"/>
    <path clip-path="url(#p71f5a368b5)" d="M 144.9 269.466504 
L 144.9 180.789767 
" style="fill:none;stroke:#4169e1;stroke-width:3;"/>
    <path clip-path="url(#p71f5a368b5)" d="M 157.5 269.466504 
L 157.5 180.789767 
" style="fill:none;stroke:#4169e1;stroke-width:3;"/>
    <path clip-path="url(#p71f5a368b5)" d="M 170.1 269.466504 
L 170.1 180.789767 
" style="fill:none;stroke:#4169e1;stroke-width:3;"/>
    <path clip-path="url(#p71f5a368b5)" d="M 182.7 269.466504 
L 182.7 180.789767 
" style="fill:none;stroke:#4169e1;stroke-width:3;"/>
    <path clip-path="url(#p71f5a368b5)" d="M 195.3 269.466504 
L 195.3 180.789767 
" style="fill:none;stroke:#4169e1;stroke-width:3;"/>
    <path clip-path="url(#p71f5a368b5)" d="M 207.9 269.466504 
L 207.9 180.789767 
" style="fill:none;stroke:#4169e1;stroke-width:3;"/>
    <path clip-path="url(#p71f5a368b5)" d="M 220.5 269.466504 
L 220.5 180.789767 
" style="fill:none;stroke:#4169e1;stroke-width:3;"/>
    <path clip-path="url(#p71f5a368b5)" d="M 233.1 269.466504 
L 233.1 180.789767 
" style="fill:none;stroke:#4169e1;stroke-width:3;"/>
    <path clip-path="url(#p71f5a368b5)" d="M 245.7 269.466504 
L 245.7 180.789767 
" style="fill:none;stroke:#4169e1;stroke-width:3;"/>
    <path clip-path="url(#p71f5a368b5)" d="M 258.3 86.53519 
L 258.3 12.263454 
" style="fill:none;stroke:#4169e1;stroke-width:3;"/>
    <path clip-path="url(#p71f5a368b5)" d="M 270.9 269.466504 
L 270.9 180.789767 
" style="fill:none;stroke:#4169e1;stroke-width:3;"/>
    <path clip-path="url(#p71f5a368b5)" d="M 283.5 269.466504 
L 283.5 180.789767 
" style="fill:none;stroke:#4169e1;stroke-width:3;"/>
    <path clip-path="url(#p71f5a368b5)" d="M 296.1 269.466504 
L 296.1 180.789767 
" style="fill:none;stroke:#4169e1;stroke-width:3;"/>
    <path clip-path="url(#p71f5a368b5)" d="M 308.7 269.466504 
L 308.7 180.789767 
" style="fill:none;stroke:#4169e1;stroke-width:3;"/>
    <path clip-path="url(#p71f5a368b5)" d="M 321.3 269.466504 
L 321.3 180.789767 
" style="fill:none;stroke:#4169e1;stroke-width:3;"/>
    <path clip-path="url(#p71f5a368b5)" d="M 333.9 269.466504 
L 333.9 180.789767 
" style="fill:none;stroke:#4169e1;stroke-width:3;"/>
    <path clip-path="url(#p71f5a368b5)" d="M 346.5 269.466504 
L 346.5 180.789767 
" style="fill:none;stroke:#4169e1;stroke-width:3;"/>
    <path clip-path="url(#p71f5a368b5)" d="M 359.1 269.466504 
L 359.1 180.789767 
" style="fill:none;stroke:#4169e1;stroke-width:3;"/>
    <path clip-path="url(#p71f5a368b5)" d="M 371.7 269.466504 
L 371.7 180.789767 
" style="fill:none;stroke:#4169e1;stroke-width:3;"/>
    <path clip-path="url(#p71f5a368b5)" d="M 384.3 269.466504 
L 384.3 180.789767 
" style="fill:none;stroke:#4169e1;stroke-width:3;"/>
    <path clip-path="url(#p71f5a368b5)" d="M 396.9 269.466504 
L 396.9 180.789767 
" style="fill:none;stroke:#4169e1;stroke-width:3;"/>
    <path clip-path="url(#p71f5a368b5)" d="M 409.5 269.466504 
L 409.5 180.789767 
" style="fill:none;stroke:#4169e1;stroke-width:3;"/>
    <path clip-path="url(#p71f5a368b5)" d="M 422.1 269.466504 
L 422.1 180.789767 
" style="fill:none;stroke:#4169e1;stroke-width:3;"/>
    <path clip-path="url(#p71f5a368b5)" d="M 434.7 269.466504 
L 434.7 180.789767 
" style="fill:none;stroke:#4169e1;stroke-width:3;"/>
    <path clip-path="url(#p71f5a368b5)" d="M 447.3 269.466504 
L 447.3 180.789767 
" style="fill:none;stroke:#4169e1;stroke-width:3;"/>
    <path clip-path="url(#p71f5a368b5)" d="M 459.9 269.466504 
L 459.9 180.789767 
" style="fill:none;stroke:#4169e1;stroke-width:3;"/>
    <path clip-path="url(#p71f5a368b5)" d="M 472.5 269.466504 
L 472.5 180.789767 
" style="fill:none;stroke:#4169e1;stroke-width:3;"/>
   </g>
   <g id="line2d_12">
    <path clip-path="url(#p71f5a368b5)" d="M 107.1 225.128136 
L 119.7 225.128136 
L 132.3 225.128136 
L 144.9 225.128136 
L 157.5 225.128136 
L 170.1 225.128136 
L 182.7 225.128136 
L 195.3 225.128136 
L 207.9 225.128136 
L 220.5 225.128136 
L 233.1 225.128136 
L 245.7 225.128136 
L 258.3 49.399322 
L 270.9 225.128136 
L 283.5 225.128136 
L 296.1 225.128136 
L 308.7 225.128136 
L 321.3 225.128136 
L 333.9 225.128136 
L 346.5 225.128136 
L 359.1 225.128136 
L 371.7 225.128136 
L 384.3 225.128136 
L 396.9 225.128136 
L 409.5 225.128136 
L 422.1 225.128136 
L 434.7 225.128136 
L 447.3 225.128136 
L 459.9 225.128136 
L 472.5 225.128136 
" style="fill:none;stroke:#4169e1;stroke-linecap:round;stroke-width:3;"/>
    <defs>
     <path d="M 0 3.25 
C 0.86191 3.25 1.688635 2.907559 2.298097 2.298097 
C 2.907559 1.688635 3.25 0.86191 3.25 0 
C 3.25 -0.86191 2.907559 -1.688635 2.298097 -2.298097 
C 1.688635 -2.907559 0.86191 -3.25 0 -3.25 
C -0.86191 -3.25 -1.688635 -2.907559 -2.298097 -2.298097 
C -2.907559 -1.688635 -3.25 -0.86191 -3.25 0 
C -3.25 0.86191 -2.907559 1.688635 -2.298097 2.298097 
C -1.688635 2.907559 -0.86191 3.25 0 3.25 
z
" id="mb22f1087b2" style="stroke:#4169e1;"/>
    </defs>
    <g clip-path="url(#p71f5a368b5)">
     <use style="fill:#4169e1;stroke:#4169e1;" x="107.1" xlink:href="#mb22f1087b2" y="225.128136"/>
     <use style="fill:#4169e1;stroke:#4169e1;" x="119.7" xlink:href="#mb22f1087b2" y="225.128136"/>
     <use style="fill:#4169e1;stroke:#4169e1;" x="132.3" xlink:href="#mb22f1087b2" y="225.128136"/>
     <use style="fill:#4169e1;stroke:#4169e1;" x="144.9" xlink:href="#mb22f1087b2" y="225.128136"/>
     <use style="fill:#4169e1;stroke:#4169e1;" x="157.5" xlink:href="#mb22f1087b2" y="225.128136"/>
     <use style="fill:#4169e1;stroke:#4169e1;" x="170.1" xlink:href="#mb22f1087b2" y="225.128136"/>
     <use style="fill:#4169e1;stroke:#4169e1;" x="182.7" xlink:href="#mb22f1087b2" y="225.128136"/>
     <use style="fill:#4169e1;stroke:#4169e1;" x="195.3" xlink:href="#mb22f1087b2" y="225.128136"/>
     <use style="fill:#4169e1;stroke:#4169e1;" x="207.9" xlink:href="#mb22f1087b2" y="225.128136"/>
     <use style="fill:#4169e1;stroke:#4169e1;" x="220.5" xlink:href="#mb22f1087b2" y="225.128136"/>
     <use style="fill:#4169e1;stroke:#4169e1;" x="233.1" xlink:href="#mb22f1087b2" y="225.128136"/>
     <use style="fill:#4169e1;stroke:#4169e1;" x="245.7" xlink:href="#mb22f1087b2" y="225.128136"/>
     <use style="fill:#4169e1;stroke:#4169e1;" x="258.3" xlink:href="#mb22f1087b2" y="49.399322"/>
     <use style="fill:#4169e1;stroke:#4169e1;" x="270.9" xlink:href="#mb22f1087b2" y="225.128136"/>
     <use style="fill:#4169e1;stroke:#4169e1;" x="283.5" xlink:href="#mb22f1087b2" y="225.128136"/>
     <use style="fill:#4169e1;stroke:#4169e1;" x="296.1" xlink:href="#mb22f1087b2" y="225.128136"/>
     <use style="fill:#4169e1;stroke:#4169e1;" x="308.7" xlink:href="#mb22f1087b2" y="225.128136"/>
     <use style="fill:#4169e1;stroke:#4169e1;" x="321.3" xlink:href="#mb22f1087b2" y="225.128136"/>
     <use style="fill:#4169e1;stroke:#4169e1;" x="333.9" xlink:href="#mb22f1087b2" y="225.128136"/>
     <use style="fill:#4169e1;stroke:#4169e1;" x="346.5" xlink:href="#mb22f1087b2" y="225.128136"/>
     <use style="fill:#4169e1;stroke:#4169e1;" x="359.1" xlink:href="#mb22f1087b2" y="225.128136"/>
     <use style="fill:#4169e1;stroke:#4169e1;" x="371.7" xlink:href="#mb22f1087b2" y="225.128136"/>
     <use style="fill:#4169e1;stroke:#4169e1;" x="384.3" xlink:href="#mb22f1087b2" y="225.128136"/>
     <use style="fill:#4169e1;stroke:#4169e1;" x="396.9" xlink:href="#mb22f1087b2" y="225.128136"/>
     <use style="fill:#4169e1;stroke:#4169e1;" x="409.5" xlink:href="#mb22f1087b2" y="225.128136"/>
     <use style="fill:#4169e1;stroke:#4169e1;" x="422.1" xlink:href="#mb22f1087b2" y="225.128136"/>
     <use style="fill:#4169e1;stroke:#4169e1;" x="434.7" xlink:href="#mb22f1087b2" y="225.128136"/>
     <use style="fill:#4169e1;stroke:#4169e1;" x="447.3" xlink:href="#mb22f1087b2" y="225.128136"/>
     <use style="fill:#4169e1;stroke:#4169e1;" x="459.9" xlink:href="#mb22f1087b2" y="225.128136"/>
     <use style="fill:#4169e1;stroke:#4169e1;" x="472.5" xlink:href="#mb22f1087b2" y="225.128136"/>
    </g>
   </g>
   <g id="patch_3">
    <path d="M 100.8 230.4 
L 100.8 23.04 
" style="fill:none;stroke:#262626;stroke-linecap:square;stroke-linejoin:miter;stroke-width:0.8;"/>
   </g>
   <g id="patch_4">
    <path d="M 100.8 230.4 
L 478.8 230.4 
" style="fill:none;stroke:#262626;stroke-linecap:square;stroke-linejoin:miter;stroke-width:0.8;"/>
   </g>
   <g id="text_14">
    <text style="fill:#262626;font-family:DejaVu Sans;font-size:20px;font-style:normal;font-weight:bold;text-anchor:middle;" transform="rotate(-0, 289.8, 17.04)" x="289.8" y="17.04">IGHD2-8*01</text>
   </g>
  </g>
 </g>
 <defs>
  <clipPath id="p71f5a368b5">
   <rect height="207.36" width="378" x="100.8" y="23.04"/>
  </clipPath>
 </defs>
</svg>
