<?xml version="1.0" encoding="utf-8" standalone="no"?>
<!DOCTYPE svg PUBLIC "-//W3C//DTD SVG 1.1//EN"
  "http://www.w3.org/Graphics/SVG/1.1/DTD/svg11.dtd">
<!-- Created with matplotlib (http://matplotlib.org/) -->
<svg height="288pt" version="1.1" viewBox="0 0 504 288" width="504pt" xmlns="http://www.w3.org/2000/svg" xmlns:xlink="http://www.w3.org/1999/xlink">
 <defs>
  <style type="text/css">
*{stroke-linecap:butt;stroke-linejoin:round;}
  </style>
 </defs>
 <g id="figure_1">
  <g id="patch_1">
   <path d="M 0 288 
L 504 288 
L 504 0 
L 0 0 
z
" style="fill:#ffffff;"/>
  </g>
  <g id="axes_1">
   <g id="patch_2">
    <path d="M 100.8 230.4 
L 478.8 230.4 
L 478.8 23.04 
L 100.8 23.04 
z
" style="fill:#ffffff;"/>
   </g>
   <g id="matplotlib.axis_1">
    <g id="xtick_1">
     <g id="line2d_1">
      <defs>
       <path d="M 0 0 
L 0 3.5 
" id="m72fff685ed" style="stroke:#262626;stroke-width:0.8;"/>
      </defs>
      <g>
       <use style="fill:#262626;stroke:#262626;stroke-width:0.8;" x="106.05" xlink:href="#m72fff685ed" y="230.4"/>
      </g>
     </g>
     <g id="text_1">
      <text style="fill:#262626;font-family:DejaVu Sans;font-size:20px;font-style:normal;font-weight:normal;text-anchor:middle;" transform="rotate(-0, 106.05, 252.596875)" x="106.05" y="252.596875">0</text>
     </g>
    </g>
    <g id="xtick_2">
     <g id="line2d_2">
      <g>
       <use style="fill:#262626;stroke:#262626;stroke-width:0.8;" x="211.05" xlink:href="#m72fff685ed" y="230.4"/>
      </g>
     </g>
     <g id="text_2">
      <text style="fill:#262626;font-family:DejaVu Sans;font-size:20px;font-style:normal;font-weight:normal;text-anchor:middle;" transform="rotate(-0, 211.05, 252.596875)" x="211.05" y="252.596875">10</text>
     </g>
    </g>
    <g id="xtick_3">
     <g id="line2d_3">
      <g>
       <use style="fill:#262626;stroke:#262626;stroke-width:0.8;" x="316.05" xlink:href="#m72fff685ed" y="230.4"/>
      </g>
     </g>
     <g id="text_3">
      <text style="fill:#262626;font-family:DejaVu Sans;font-size:20px;font-style:normal;font-weight:normal;text-anchor:middle;" transform="rotate(-0, 316.05, 252.596875)" x="316.05" y="252.596875">20</text>
     </g>
    </g>
    <g id="xtick_4">
     <g id="line2d_4">
      <g>
       <use style="fill:#262626;stroke:#262626;stroke-width:0.8;" x="421.05" xlink:href="#m72fff685ed" y="230.4"/>
      </g>
     </g>
     <g id="text_4">
      <text style="fill:#262626;font-family:DejaVu Sans;font-size:20px;font-style:normal;font-weight:normal;text-anchor:middle;" transform="rotate(-0, 421.05, 252.596875)" x="421.05" y="252.596875">30</text>
     </g>
    </g>
    <g id="text_5">
     <text style="fill:#262626;font-family:DejaVu Sans;font-size:20px;font-style:normal;font-weight:normal;text-anchor:middle;" transform="rotate(-0, 289.8, 275.953125)" x="289.8" y="275.953125">position</text>
    </g>
   </g>
   <g id="matplotlib.axis_2">
    <g id="ytick_1">
     <g id="line2d_5">
      <defs>
       <path d="M 0 0 
L -3.5 0 
" id="meb04496db5" style="stroke:#262626;stroke-width:0.8;"/>
      </defs>
      <g>
       <use style="fill:#262626;stroke:#262626;stroke-width:0.8;" x="100.8" xlink:href="#meb04496db5" y="225.128136"/>
      </g>
     </g>
     <g id="text_6">
      <text style="fill:#262626;font-family:DejaVu Sans;font-size:20px;font-style:normal;font-weight:normal;text-anchor:end;" transform="rotate(-0, 93.8, 232.726573)" x="93.8" y="232.726573">0.0</text>
     </g>
    </g>
    <g id="ytick_2">
     <g id="line2d_6">
      <g>
       <use style="fill:#262626;stroke:#262626;stroke-width:0.8;" x="100.8" xlink:href="#meb04496db5" y="173.196337"/>
      </g>
     </g>
     <g id="text_7">
      <text style="fill:#262626;font-family:DejaVu Sans;font-size:20px;font-style:normal;font-weight:normal;text-anchor:end;" transform="rotate(-0, 93.8, 180.794774)" x="93.8" y="180.794774">0.1</text>
     </g>
    </g>
    <g id="ytick_3">
     <g id="line2d_7">
      <g>
       <use style="fill:#262626;stroke:#262626;stroke-width:0.8;" x="100.8" xlink:href="#meb04496db5" y="121.264538"/>
      </g>
     </g>
     <g id="text_8">
      <text style="fill:#262626;font-family:DejaVu Sans;font-size:20px;font-style:normal;font-weight:normal;text-anchor:end;" transform="rotate(-0, 93.8, 128.862976)" x="93.8" y="128.862976">0.2</text>
     </g>
    </g>
    <g id="ytick_4">
     <g id="line2d_8">
      <g>
       <use style="fill:#262626;stroke:#262626;stroke-width:0.8;" x="100.8" xlink:href="#meb04496db5" y="69.33274"/>
      </g>
     </g>
     <g id="text_9">
      <text style="fill:#262626;font-family:DejaVu Sans;font-size:20px;font-style:normal;font-weight:normal;text-anchor:end;" transform="rotate(-0, 93.8, 76.931177)" x="93.8" y="76.931177">0.3</text>
     </g>
    </g>
    <g id="text_10">
     <text style="fill:#262626;font-family:DejaVu Sans;font-size:20px;font-style:normal;font-weight:normal;text-anchor:middle;" transform="rotate(-90, 53.834375, 126.72)" x="53.834375" y="126.72">mut freq</text>
    </g>
   </g>
   <g id="LineCollection_1">
    <path clip-path="url(#pfa314f0acb)" d="M 106.05 289 
L 106.05 130.029252 
" style="fill:none;stroke:#4169e1;stroke-width:3;"/>
    <path clip-path="url(#pfa314f0acb)" d="M 116.55 269.661026 
L 116.55 180.595245 
" style="fill:none;stroke:#4169e1;stroke-width:3;"/>
    <path clip-path="url(#pfa314f0acb)" d="M 127.05 228.48862 
L 127.05 221.767651 
" style="fill:none;stroke:#4169e1;stroke-width:3;"/>
    <path clip-path="url(#pfa314f0acb)" d="M 137.55 228.48862 
L 137.55 221.767651 
" style="fill:none;stroke:#4169e1;stroke-width:3;"/>
    <path clip-path="url(#pfa314f0acb)" d="M 148.05 208.733369 
L 148.05 193.089101 
" style="fill:none;stroke:#4169e1;stroke-width:3;"/>
    <path clip-path="url(#pfa314f0acb)" d="M 158.55 228.454241 
L 158.55 221.80203 
" style="fill:none;stroke:#4169e1;stroke-width:3;"/>
    <path clip-path="url(#pfa314f0acb)" d="M 169.05 222.018757 
L 169.05 212.420723 
" style="fill:none;stroke:#4169e1;stroke-width:3;"/>
    <path clip-path="url(#pfa314f0acb)" d="M 179.55 215.778738 
L 179.55 203.003715 
" style="fill:none;stroke:#4169e1;stroke-width:3;"/>
    <path clip-path="url(#pfa314f0acb)" d="M 190.05 228.371295 
L 190.05 221.884976 
" style="fill:none;stroke:#4169e1;stroke-width:3;"/>
    <path clip-path="url(#pfa314f0acb)" d="M 200.55 225.748477 
L 200.55 219.262158 
" style="fill:none;stroke:#4169e1;stroke-width:3;"/>
    <path clip-path="url(#pfa314f0acb)" d="M 211.05 124.538137 
L 211.05 94.91014 
" style="fill:none;stroke:#4169e1;stroke-width:3;"/>
    <path clip-path="url(#pfa314f0acb)" d="M 221.55 124.538137 
L 221.55 94.91014 
" style="fill:none;stroke:#4169e1;stroke-width:3;"/>
    <path clip-path="url(#pfa314f0acb)" d="M 232.05 209.154013 
L 232.05 193.891532 
" style="fill:none;stroke:#4169e1;stroke-width:3;"/>
    <path clip-path="url(#pfa314f0acb)" d="M 242.55 223.967126 
L 242.55 215.797872 
" style="fill:none;stroke:#4169e1;stroke-width:3;"/>
    <path clip-path="url(#pfa314f0acb)" d="M 253.05 66.222634 
L 253.05 32.57601 
" style="fill:none;stroke:#4169e1;stroke-width:3;"/>
    <path clip-path="url(#pfa314f0acb)" d="M 263.55 228.371295 
L 263.55 221.884976 
" style="fill:none;stroke:#4169e1;stroke-width:3;"/>
    <path clip-path="url(#pfa314f0acb)" d="M 274.05 228.371295 
L 274.05 221.884976 
" style="fill:none;stroke:#4169e1;stroke-width:3;"/>
    <path clip-path="url(#pfa314f0acb)" d="M 284.55 206.895036 
L 284.55 190.904873 
" style="fill:none;stroke:#4169e1;stroke-width:3;"/>
    <path clip-path="url(#pfa314f0acb)" d="M 295.05 223.967126 
L 295.05 215.797872 
" style="fill:none;stroke:#4169e1;stroke-width:3;"/>
    <path clip-path="url(#pfa314f0acb)" d="M 305.55 194.236219 
L 305.55 174.451782 
" style="fill:none;stroke:#4169e1;stroke-width:3;"/>
    <path clip-path="url(#pfa314f0acb)" d="M 316.05 229.057163 
L 316.05 221.199108 
" style="fill:none;stroke:#4169e1;stroke-width:3;"/>
    <path clip-path="url(#pfa314f0acb)" d="M 326.55 225.871163 
L 326.55 218.013108 
" style="fill:none;stroke:#4169e1;stroke-width:3;"/>
    <path clip-path="url(#pfa314f0acb)" d="M 337.05 227.957768 
L 337.05 167.633452 
" style="fill:none;stroke:#4169e1;stroke-width:3;"/>
    <path clip-path="url(#pfa314f0acb)" d="M 347.55 207.515672 
L 347.55 133.410497 
" style="fill:none;stroke:#4169e1;stroke-width:3;"/>
    <path clip-path="url(#pfa314f0acb)" d="M 358.05 141.723843 
L 358.05 31.562836 
" style="fill:none;stroke:#4169e1;stroke-width:3;"/>
    <path clip-path="url(#pfa314f0acb)" d="M 368.55 262.120111 
L 368.55 188.13616 
" style="fill:none;stroke:#4169e1;stroke-width:3;"/>
    <path clip-path="url(#pfa314f0acb)" d="M 379.05 227.498912 
L 379.05 153.514961 
" style="fill:none;stroke:#4169e1;stroke-width:3;"/>
    <path clip-path="url(#pfa314f0acb)" d="M 389.55 141.723843 
L 389.55 31.562836 
" style="fill:none;stroke:#4169e1;stroke-width:3;"/>
    <path clip-path="url(#pfa314f0acb)" d="M 400.05 262.120111 
L 400.05 188.13616 
" style="fill:none;stroke:#4169e1;stroke-width:3;"/>
    <path clip-path="url(#pfa314f0acb)" d="M 410.55 262.120111 
L 410.55 188.13616 
" style="fill:none;stroke:#4169e1;stroke-width:3;"/>
    <path clip-path="url(#pfa314f0acb)" d="M 421.05 262.120111 
L 421.05 188.13616 
" style="fill:none;stroke:#4169e1;stroke-width:3;"/>
    <path clip-path="url(#pfa314f0acb)" d="M 431.55 262.120111 
L 431.55 188.13616 
" style="fill:none;stroke:#4169e1;stroke-width:3;"/>
    <path clip-path="url(#pfa314f0acb)" d="M 442.05 272.897661 
L 442.05 177.358611 
" style="fill:none;stroke:#4169e1;stroke-width:3;"/>
    <path clip-path="url(#pfa314f0acb)" d="M 452.55 289 
L 452.55 157.992124 
" style="fill:none;stroke:#4169e1;stroke-width:3;"/>
    <path clip-path="url(#pfa314f0acb)" d="M 463.05 289 
L 463.05 115.967988 
" style="fill:none;stroke:#4169e1;stroke-width:3;"/>
    <path clip-path="url(#pfa314f0acb)" d="M 473.55 289 
L 473.55 100.049887 
" style="fill:none;stroke:#4169e1;stroke-width:3;"/>
   </g>
   <g id="line2d_9">
    <path clip-path="url(#pfa314f0acb)" d="M 106.05 225.128136 
L 116.55 225.128136 
L 127.05 225.128136 
L 137.55 225.128136 
L 148.05 200.911235 
L 158.55 225.128136 
L 169.05 217.21974 
L 179.55 209.391227 
L 190.05 225.128136 
L 200.55 222.505317 
L 211.05 109.724139 
L 221.55 109.724139 
L 232.05 201.522773 
L 242.55 219.882499 
L 253.05 49.399322 
L 263.55 225.128136 
L 274.05 225.128136 
L 284.55 198.899954 
L 295.05 219.882499 
L 305.55 184.344001 
L 316.05 225.128136 
L 326.55 221.942136 
L 337.05 197.79561 
L 347.55 170.463084 
L 358.05 86.643339 
L 368.55 225.128136 
L 379.05 190.506937 
L 389.55 86.643339 
L 400.05 225.128136 
L 410.55 225.128136 
L 421.05 225.128136 
L 431.55 225.128136 
L 442.05 225.128136 
L 452.55 225.128136 
L 463.05 225.128136 
L 473.55 225.128136 
" style="fill:none;stroke:#4169e1;stroke-linecap:round;stroke-width:3;"/>
    <defs>
     <path d="M 0 3.25 
C 0.86191 3.25 1.688635 2.907559 2.298097 2.298097 
C 2.907559 1.688635 3.25 0.86191 3.25 0 
C 3.25 -0.86191 2.907559 -1.688635 2.298097 -2.298097 
C 1.688635 -2.907559 0.86191 -3.25 0 -3.25 
C -0.86191 -3.25 -1.688635 -2.907559 -2.298097 -2.298097 
C -2.907559 -1.688635 -3.25 -0.86191 -3.25 0 
C -3.25 0.86191 -2.907559 1.688635 -2.298097 2.298097 
C -1.688635 2.907559 -0.86191 3.25 0 3.25 
z
" id="mff3e5264ff" style="stroke:#4169e1;"/>
    </defs>
    <g clip-path="url(#pfa314f0acb)">
     <use style="fill:#4169e1;stroke:#4169e1;" x="106.05" xlink:href="#mff3e5264ff" y="225.128136"/>
     <use style="fill:#4169e1;stroke:#4169e1;" x="116.55" xlink:href="#mff3e5264ff" y="225.128136"/>
     <use style="fill:#4169e1;stroke:#4169e1;" x="127.05" xlink:href="#mff3e5264ff" y="225.128136"/>
     <use style="fill:#4169e1;stroke:#4169e1;" x="137.55" xlink:href="#mff3e5264ff" y="225.128136"/>
     <use style="fill:#4169e1;stroke:#4169e1;" x="148.05" xlink:href="#mff3e5264ff" y="200.911235"/>
     <use style="fill:#4169e1;stroke:#4169e1;" x="158.55" xlink:href="#mff3e5264ff" y="225.128136"/>
     <use style="fill:#4169e1;stroke:#4169e1;" x="169.05" xlink:href="#mff3e5264ff" y="217.21974"/>
     <use style="fill:#4169e1;stroke:#4169e1;" x="179.55" xlink:href="#mff3e5264ff" y="209.391227"/>
     <use style="fill:#4169e1;stroke:#4169e1;" x="190.05" xlink:href="#mff3e5264ff" y="225.128136"/>
     <use style="fill:#4169e1;stroke:#4169e1;" x="200.55" xlink:href="#mff3e5264ff" y="222.505317"/>
     <use style="fill:#4169e1;stroke:#4169e1;" x="211.05" xlink:href="#mff3e5264ff" y="109.724139"/>
     <use style="fill:#4169e1;stroke:#4169e1;" x="221.55" xlink:href="#mff3e5264ff" y="109.724139"/>
     <use style="fill:#4169e1;stroke:#4169e1;" x="232.05" xlink:href="#mff3e5264ff" y="201.522773"/>
     <use style="fill:#4169e1;stroke:#4169e1;" x="242.55" xlink:href="#mff3e5264ff" y="219.882499"/>
     <use style="fill:#4169e1;stroke:#4169e1;" x="253.05" xlink:href="#mff3e5264ff" y="49.399322"/>
     <use style="fill:#4169e1;stroke:#4169e1;" x="263.55" xlink:href="#mff3e5264ff" y="225.128136"/>
     <use style="fill:#4169e1;stroke:#4169e1;" x="274.05" xlink:href="#mff3e5264ff" y="225.128136"/>
     <use style="fill:#4169e1;stroke:#4169e1;" x="284.55" xlink:href="#mff3e5264ff" y="198.899954"/>
     <use style="fill:#4169e1;stroke:#4169e1;" x="295.05" xlink:href="#mff3e5264ff" y="219.882499"/>
     <use style="fill:#4169e1;stroke:#4169e1;" x="305.55" xlink:href="#mff3e5264ff" y="184.344001"/>
     <use style="fill:#4169e1;stroke:#4169e1;" x="316.05" xlink:href="#mff3e5264ff" y="225.128136"/>
     <use style="fill:#4169e1;stroke:#4169e1;" x="326.55" xlink:href="#mff3e5264ff" y="221.942136"/>
     <use style="fill:#4169e1;stroke:#4169e1;" x="337.05" xlink:href="#mff3e5264ff" y="197.79561"/>
     <use style="fill:#4169e1;stroke:#4169e1;" x="347.55" xlink:href="#mff3e5264ff" y="170.463084"/>
     <use style="fill:#4169e1;stroke:#4169e1;" x="358.05" xlink:href="#mff3e5264ff" y="86.643339"/>
     <use style="fill:#4169e1;stroke:#4169e1;" x="368.55" xlink:href="#mff3e5264ff" y="225.128136"/>
     <use style="fill:#4169e1;stroke:#4169e1;" x="379.05" xlink:href="#mff3e5264ff" y="190.506937"/>
     <use style="fill:#4169e1;stroke:#4169e1;" x="389.55" xlink:href="#mff3e5264ff" y="86.643339"/>
     <use style="fill:#4169e1;stroke:#4169e1;" x="400.05" xlink:href="#mff3e5264ff" y="225.128136"/>
     <use style="fill:#4169e1;stroke:#4169e1;" x="410.55" xlink:href="#mff3e5264ff" y="225.128136"/>
     <use style="fill:#4169e1;stroke:#4169e1;" x="421.05" xlink:href="#mff3e5264ff" y="225.128136"/>
     <use style="fill:#4169e1;stroke:#4169e1;" x="431.55" xlink:href="#mff3e5264ff" y="225.128136"/>
     <use style="fill:#4169e1;stroke:#4169e1;" x="442.05" xlink:href="#mff3e5264ff" y="225.128136"/>
     <use style="fill:#4169e1;stroke:#4169e1;" x="452.55" xlink:href="#mff3e5264ff" y="225.128136"/>
     <use style="fill:#4169e1;stroke:#4169e1;" x="463.05" xlink:href="#mff3e5264ff" y="225.128136"/>
     <use style="fill:#4169e1;stroke:#4169e1;" x="473.55" xlink:href="#mff3e5264ff" y="225.128136"/>
    </g>
   </g>
   <g id="patch_3">
    <path d="M 100.8 230.4 
L 100.8 23.04 
" style="fill:none;stroke:#262626;stroke-linecap:square;stroke-linejoin:miter;stroke-width:0.8;"/>
   </g>
   <g id="patch_4">
    <path d="M 100.8 230.4 
L 478.8 230.4 
" style="fill:none;stroke:#262626;stroke-linecap:square;stroke-linejoin:miter;stroke-width:0.8;"/>
   </g>
   <g id="text_11">
    <text style="fill:#262626;font-family:DejaVu Sans;font-size:20px;font-style:normal;font-weight:bold;text-anchor:middle;" transform="rotate(-0, 289.8, 17.04)" x="289.8" y="17.04">IGHD3-16*02</text>
   </g>
  </g>
 </g>
 <defs>
  <clipPath id="pfa314f0acb">
   <rect height="207.36" width="378" x="100.8" y="23.04"/>
  </clipPath>
 </defs>
</svg>
