<?xml version="1.0" encoding="utf-8" standalone="no"?>
<!DOCTYPE svg PUBLIC "-//W3C//DTD SVG 1.1//EN"
  "http://www.w3.org/Graphics/SVG/1.1/DTD/svg11.dtd">
<!-- Created with matplotlib (http://matplotlib.org/) -->
<svg height="288pt" version="1.1" viewBox="0 0 504 288" width="504pt" xmlns="http://www.w3.org/2000/svg" xmlns:xlink="http://www.w3.org/1999/xlink">
 <defs>
  <style type="text/css">
*{stroke-linecap:butt;stroke-linejoin:round;}
  </style>
 </defs>
 <g id="figure_1">
  <g id="patch_1">
   <path d="M 0 288 
L 504 288 
L 504 0 
L 0 0 
z
" style="fill:#ffffff;"/>
  </g>
  <g id="axes_1">
   <g id="patch_2">
    <path d="M 100.8 230.4 
L 478.8 230.4 
L 478.8 23.04 
L 100.8 23.04 
z
" style="fill:#ffffff;"/>
   </g>
   <g id="matplotlib.axis_1">
    <g id="xtick_1">
     <g id="line2d_1">
      <defs>
       <path d="M 0 0 
L 0 3.5 
" id="md5b3e5d3a4" style="stroke:#262626;stroke-width:0.8;"/>
      </defs>
      <g>
       <use style="fill:#262626;stroke:#262626;stroke-width:0.8;" x="107.1" xlink:href="#md5b3e5d3a4" y="230.4"/>
      </g>
     </g>
     <g id="text_1">
      <text style="fill:#262626;font-family:DejaVu Sans;font-size:20px;font-style:normal;font-weight:normal;text-anchor:middle;" transform="rotate(-0, 107.1, 252.596875)" x="107.1" y="252.596875">0</text>
     </g>
    </g>
    <g id="xtick_2">
     <g id="line2d_2">
      <g>
       <use style="fill:#262626;stroke:#262626;stroke-width:0.8;" x="170.1" xlink:href="#md5b3e5d3a4" y="230.4"/>
      </g>
     </g>
     <g id="text_2">
      <text style="fill:#262626;font-family:DejaVu Sans;font-size:20px;font-style:normal;font-weight:normal;text-anchor:middle;" transform="rotate(-0, 170.1, 252.596875)" x="170.1" y="252.596875">5</text>
     </g>
    </g>
    <g id="xtick_3">
     <g id="line2d_3">
      <g>
       <use style="fill:#262626;stroke:#262626;stroke-width:0.8;" x="233.1" xlink:href="#md5b3e5d3a4" y="230.4"/>
      </g>
     </g>
     <g id="text_3">
      <text style="fill:#262626;font-family:DejaVu Sans;font-size:20px;font-style:normal;font-weight:normal;text-anchor:middle;" transform="rotate(-0, 233.1, 252.596875)" x="233.1" y="252.596875">10</text>
     </g>
    </g>
    <g id="xtick_4">
     <g id="line2d_4">
      <g>
       <use style="fill:#262626;stroke:#262626;stroke-width:0.8;" x="296.1" xlink:href="#md5b3e5d3a4" y="230.4"/>
      </g>
     </g>
     <g id="text_4">
      <text style="fill:#262626;font-family:DejaVu Sans;font-size:20px;font-style:normal;font-weight:normal;text-anchor:middle;" transform="rotate(-0, 296.1, 252.596875)" x="296.1" y="252.596875">15</text>
     </g>
    </g>
    <g id="xtick_5">
     <g id="line2d_5">
      <g>
       <use style="fill:#262626;stroke:#262626;stroke-width:0.8;" x="359.1" xlink:href="#md5b3e5d3a4" y="230.4"/>
      </g>
     </g>
     <g id="text_5">
      <text style="fill:#262626;font-family:DejaVu Sans;font-size:20px;font-style:normal;font-weight:normal;text-anchor:middle;" transform="rotate(-0, 359.1, 252.596875)" x="359.1" y="252.596875">20</text>
     </g>
    </g>
    <g id="xtick_6">
     <g id="line2d_6">
      <g>
       <use style="fill:#262626;stroke:#262626;stroke-width:0.8;" x="422.1" xlink:href="#md5b3e5d3a4" y="230.4"/>
      </g>
     </g>
     <g id="text_6">
      <text style="fill:#262626;font-family:DejaVu Sans;font-size:20px;font-style:normal;font-weight:normal;text-anchor:middle;" transform="rotate(-0, 422.1, 252.596875)" x="422.1" y="252.596875">25</text>
     </g>
    </g>
    <g id="text_7">
     <text style="fill:#262626;font-family:DejaVu Sans;font-size:20px;font-style:normal;font-weight:normal;text-anchor:middle;" transform="rotate(-0, 289.8, 275.953125)" x="289.8" y="275.953125">position</text>
    </g>
   </g>
   <g id="matplotlib.axis_2">
    <g id="ytick_1">
     <g id="line2d_7">
      <defs>
       <path d="M 0 0 
L -3.5 0 
" id="m91ddd73f63" style="stroke:#262626;stroke-width:0.8;"/>
      </defs>
      <g>
       <use style="fill:#262626;stroke:#262626;stroke-width:0.8;" x="100.8" xlink:href="#m91ddd73f63" y="225.128136"/>
      </g>
     </g>
     <g id="text_8">
      <text style="fill:#262626;font-family:DejaVu Sans;font-size:20px;font-style:normal;font-weight:normal;text-anchor:end;" transform="rotate(-0, 93.8, 232.726573)" x="93.8" y="232.726573">0.0</text>
     </g>
    </g>
    <g id="ytick_2">
     <g id="line2d_8">
      <g>
       <use style="fill:#262626;stroke:#262626;stroke-width:0.8;" x="100.8" xlink:href="#m91ddd73f63" y="154.83661"/>
      </g>
     </g>
     <g id="text_9">
      <text style="fill:#262626;font-family:DejaVu Sans;font-size:20px;font-style:normal;font-weight:normal;text-anchor:end;" transform="rotate(-0, 93.8, 162.435048)" x="93.8" y="162.435048">0.1</text>
     </g>
    </g>
    <g id="ytick_3">
     <g id="line2d_9">
      <g>
       <use style="fill:#262626;stroke:#262626;stroke-width:0.8;" x="100.8" xlink:href="#m91ddd73f63" y="84.545085"/>
      </g>
     </g>
     <g id="text_10">
      <text style="fill:#262626;font-family:DejaVu Sans;font-size:20px;font-style:normal;font-weight:normal;text-anchor:end;" transform="rotate(-0, 93.8, 92.143522)" x="93.8" y="92.143522">0.2</text>
     </g>
    </g>
    <g id="text_11">
     <text style="fill:#262626;font-family:DejaVu Sans;font-size:20px;font-style:normal;font-weight:normal;text-anchor:middle;" transform="rotate(-90, 53.834375, 126.72)" x="53.834375" y="126.72">mut freq</text>
    </g>
   </g>
   <g id="LineCollection_1">
    <path clip-path="url(#p0721d8888e)" d="M 107.1 289 
L 107.1 55.830304 
" style="fill:none;stroke:#4169e1;stroke-width:3;"/>
    <path clip-path="url(#p0721d8888e)" d="M 119.7 289 
L 119.7 77.376016 
" style="fill:none;stroke:#4169e1;stroke-width:3;"/>
    <path clip-path="url(#p0721d8888e)" d="M 132.3 289 
L 132.3 77.376016 
" style="fill:none;stroke:#4169e1;stroke-width:3;"/>
    <path clip-path="url(#p0721d8888e)" d="M 144.9 289 
L 144.9 96.408434 
" style="fill:none;stroke:#4169e1;stroke-width:3;"/>
    <path clip-path="url(#p0721d8888e)" d="M 157.5 227.988681 
L 157.5 121.851125 
" style="fill:none;stroke:#4169e1;stroke-width:3;"/>
    <path clip-path="url(#p0721d8888e)" d="M 170.1 228.337066 
L 170.1 128.197172 
" style="fill:none;stroke:#4169e1;stroke-width:3;"/>
    <path clip-path="url(#p0721d8888e)" d="M 182.7 272.517895 
L 182.7 177.738376 
" style="fill:none;stroke:#4169e1;stroke-width:3;"/>
    <path clip-path="url(#p0721d8888e)" d="M 195.3 272.517895 
L 195.3 177.738376 
" style="fill:none;stroke:#4169e1;stroke-width:3;"/>
    <path clip-path="url(#p0721d8888e)" d="M 207.9 228.585692 
L 207.9 133.806172 
" style="fill:none;stroke:#4169e1;stroke-width:3;"/>
    <path clip-path="url(#p0721d8888e)" d="M 220.5 265.953683 
L 220.5 184.302588 
" style="fill:none;stroke:#4169e1;stroke-width:3;"/>
    <path clip-path="url(#p0721d8888e)" d="M 233.1 202.841998 
L 233.1 106.831222 
" style="fill:none;stroke:#4169e1;stroke-width:3;"/>
    <path clip-path="url(#p0721d8888e)" d="M 245.7 264.150277 
L 245.7 186.105994 
" style="fill:none;stroke:#4169e1;stroke-width:3;"/>
    <path clip-path="url(#p0721d8888e)" d="M 258.3 229.004514 
L 258.3 150.960231 
" style="fill:none;stroke:#4169e1;stroke-width:3;"/>
    <path clip-path="url(#p0721d8888e)" d="M 270.9 264.150277 
L 270.9 186.105994 
" style="fill:none;stroke:#4169e1;stroke-width:3;"/>
    <path clip-path="url(#p0721d8888e)" d="M 283.5 264.150277 
L 283.5 186.105994 
" style="fill:none;stroke:#4169e1;stroke-width:3;"/>
    <path clip-path="url(#p0721d8888e)" d="M 296.1 113.466213 
L 296.1 -1 
" style="fill:none;stroke:#4169e1;stroke-width:3;"/>
    <path clip-path="url(#p0721d8888e)" d="M 308.7 264.150277 
L 308.7 186.105994 
" style="fill:none;stroke:#4169e1;stroke-width:3;"/>
    <path clip-path="url(#p0721d8888e)" d="M 321.3 229.004514 
L 321.3 150.960231 
" style="fill:none;stroke:#4169e1;stroke-width:3;"/>
    <path clip-path="url(#p0721d8888e)" d="M 333.9 264.150277 
L 333.9 186.105994 
" style="fill:none;stroke:#4169e1;stroke-width:3;"/>
    <path clip-path="url(#p0721d8888e)" d="M 346.5 264.150277 
L 346.5 186.105994 
" style="fill:none;stroke:#4169e1;stroke-width:3;"/>
    <path clip-path="url(#p0721d8888e)" d="M 359.1 171.236049 
L 359.1 57.046984 
" style="fill:none;stroke:#4169e1;stroke-width:3;"/>
    <path clip-path="url(#p0721d8888e)" d="M 371.7 267.930994 
L 371.7 182.325277 
" style="fill:none;stroke:#4169e1;stroke-width:3;"/>
    <path clip-path="url(#p0721d8888e)" d="M 384.3 167.632047 
L 384.3 48.31914 
" style="fill:none;stroke:#4169e1;stroke-width:3;"/>
    <path clip-path="url(#p0721d8888e)" d="M 396.9 272.517895 
L 396.9 177.738376 
" style="fill:none;stroke:#4169e1;stroke-width:3;"/>
    <path clip-path="url(#p0721d8888e)" d="M 409.5 195.16379 
L 409.5 79.363667 
" style="fill:none;stroke:#4169e1;stroke-width:3;"/>
    <path clip-path="url(#p0721d8888e)" d="M 422.1 272.517895 
L 422.1 177.738376 
" style="fill:none;stroke:#4169e1;stroke-width:3;"/>
    <path clip-path="url(#p0721d8888e)" d="M 434.7 275.198083 
L 434.7 175.058188 
" style="fill:none;stroke:#4169e1;stroke-width:3;"/>
    <path clip-path="url(#p0721d8888e)" d="M 447.3 278.196913 
L 447.3 172.059358 
" style="fill:none;stroke:#4169e1;stroke-width:3;"/>
    <path clip-path="url(#p0721d8888e)" d="M 459.9 281.574096 
L 459.9 168.682175 
" style="fill:none;stroke:#4169e1;stroke-width:3;"/>
    <path clip-path="url(#p0721d8888e)" d="M 472.5 289 
L 472.5 55.830304 
" style="fill:none;stroke:#4169e1;stroke-width:3;"/>
   </g>
   <g id="line2d_10">
    <path clip-path="url(#p0721d8888e)" d="M 107.1 225.128136 
L 119.7 225.128136 
L 132.3 225.128136 
L 144.9 225.128136 
L 157.5 174.919903 
L 170.1 178.267119 
L 182.7 225.128136 
L 195.3 225.128136 
L 207.9 181.195932 
L 220.5 225.128136 
L 233.1 154.83661 
L 245.7 225.128136 
L 258.3 189.982373 
L 270.9 225.128136 
L 283.5 225.128136 
L 296.1 49.399322 
L 308.7 225.128136 
L 321.3 189.982373 
L 333.9 225.128136 
L 346.5 225.128136 
L 359.1 114.141517 
L 371.7 225.128136 
L 384.3 107.975593 
L 396.9 225.128136 
L 409.5 137.263729 
L 422.1 225.128136 
L 434.7 225.128136 
L 447.3 225.128136 
L 459.9 225.128136 
L 472.5 225.128136 
" style="fill:none;stroke:#4169e1;stroke-linecap:round;stroke-width:3;"/>
    <defs>
     <path d="M 0 3.25 
C 0.86191 3.25 1.688635 2.907559 2.298097 2.298097 
C 2.907559 1.688635 3.25 0.86191 3.25 0 
C 3.25 -0.86191 2.907559 -1.688635 2.298097 -2.298097 
C 1.688635 -2.907559 0.86191 -3.25 0 -3.25 
C -0.86191 -3.25 -1.688635 -2.907559 -2.298097 -2.298097 
C -2.907559 -1.688635 -3.25 -0.86191 -3.25 0 
C -3.25 0.86191 -2.907559 1.688635 -2.298097 2.298097 
C -1.688635 2.907559 -0.86191 3.25 0 3.25 
z
" id="m1c2dfdd68a" style="stroke:#4169e1;"/>
    </defs>
    <g clip-path="url(#p0721d8888e)">
     <use style="fill:#4169e1;stroke:#4169e1;" x="107.1" xlink:href="#m1c2dfdd68a" y="225.128136"/>
     <use style="fill:#4169e1;stroke:#4169e1;" x="119.7" xlink:href="#m1c2dfdd68a" y="225.128136"/>
     <use style="fill:#4169e1;stroke:#4169e1;" x="132.3" xlink:href="#m1c2dfdd68a" y="225.128136"/>
     <use style="fill:#4169e1;stroke:#4169e1;" x="144.9" xlink:href="#m1c2dfdd68a" y="225.128136"/>
     <use style="fill:#4169e1;stroke:#4169e1;" x="157.5" xlink:href="#m1c2dfdd68a" y="174.919903"/>
     <use style="fill:#4169e1;stroke:#4169e1;" x="170.1" xlink:href="#m1c2dfdd68a" y="178.267119"/>
     <use style="fill:#4169e1;stroke:#4169e1;" x="182.7" xlink:href="#m1c2dfdd68a" y="225.128136"/>
     <use style="fill:#4169e1;stroke:#4169e1;" x="195.3" xlink:href="#m1c2dfdd68a" y="225.128136"/>
     <use style="fill:#4169e1;stroke:#4169e1;" x="207.9" xlink:href="#m1c2dfdd68a" y="181.195932"/>
     <use style="fill:#4169e1;stroke:#4169e1;" x="220.5" xlink:href="#m1c2dfdd68a" y="225.128136"/>
     <use style="fill:#4169e1;stroke:#4169e1;" x="233.1" xlink:href="#m1c2dfdd68a" y="154.83661"/>
     <use style="fill:#4169e1;stroke:#4169e1;" x="245.7" xlink:href="#m1c2dfdd68a" y="225.128136"/>
     <use style="fill:#4169e1;stroke:#4169e1;" x="258.3" xlink:href="#m1c2dfdd68a" y="189.982373"/>
     <use style="fill:#4169e1;stroke:#4169e1;" x="270.9" xlink:href="#m1c2dfdd68a" y="225.128136"/>
     <use style="fill:#4169e1;stroke:#4169e1;" x="283.5" xlink:href="#m1c2dfdd68a" y="225.128136"/>
     <use style="fill:#4169e1;stroke:#4169e1;" x="296.1" xlink:href="#m1c2dfdd68a" y="49.399322"/>
     <use style="fill:#4169e1;stroke:#4169e1;" x="308.7" xlink:href="#m1c2dfdd68a" y="225.128136"/>
     <use style="fill:#4169e1;stroke:#4169e1;" x="321.3" xlink:href="#m1c2dfdd68a" y="189.982373"/>
     <use style="fill:#4169e1;stroke:#4169e1;" x="333.9" xlink:href="#m1c2dfdd68a" y="225.128136"/>
     <use style="fill:#4169e1;stroke:#4169e1;" x="346.5" xlink:href="#m1c2dfdd68a" y="225.128136"/>
     <use style="fill:#4169e1;stroke:#4169e1;" x="359.1" xlink:href="#m1c2dfdd68a" y="114.141517"/>
     <use style="fill:#4169e1;stroke:#4169e1;" x="371.7" xlink:href="#m1c2dfdd68a" y="225.128136"/>
     <use style="fill:#4169e1;stroke:#4169e1;" x="384.3" xlink:href="#m1c2dfdd68a" y="107.975593"/>
     <use style="fill:#4169e1;stroke:#4169e1;" x="396.9" xlink:href="#m1c2dfdd68a" y="225.128136"/>
     <use style="fill:#4169e1;stroke:#4169e1;" x="409.5" xlink:href="#m1c2dfdd68a" y="137.263729"/>
     <use style="fill:#4169e1;stroke:#4169e1;" x="422.1" xlink:href="#m1c2dfdd68a" y="225.128136"/>
     <use style="fill:#4169e1;stroke:#4169e1;" x="434.7" xlink:href="#m1c2dfdd68a" y="225.128136"/>
     <use style="fill:#4169e1;stroke:#4169e1;" x="447.3" xlink:href="#m1c2dfdd68a" y="225.128136"/>
     <use style="fill:#4169e1;stroke:#4169e1;" x="459.9" xlink:href="#m1c2dfdd68a" y="225.128136"/>
     <use style="fill:#4169e1;stroke:#4169e1;" x="472.5" xlink:href="#m1c2dfdd68a" y="225.128136"/>
    </g>
   </g>
   <g id="patch_3">
    <path d="M 100.8 230.4 
L 100.8 23.04 
" style="fill:none;stroke:#262626;stroke-linecap:square;stroke-linejoin:miter;stroke-width:0.8;"/>
   </g>
   <g id="patch_4">
    <path d="M 100.8 230.4 
L 478.8 230.4 
" style="fill:none;stroke:#262626;stroke-linecap:square;stroke-linejoin:miter;stroke-width:0.8;"/>
   </g>
   <g id="text_12">
    <text style="fill:#262626;font-family:DejaVu Sans;font-size:20px;font-style:normal;font-weight:bold;text-anchor:middle;" transform="rotate(-0, 289.8, 17.04)" x="289.8" y="17.04">IGHD3-10*02</text>
   </g>
  </g>
 </g>
 <defs>
  <clipPath id="p0721d8888e">
   <rect height="207.36" width="378" x="100.8" y="23.04"/>
  </clipPath>
 </defs>
</svg>
