<?xml version="1.0" encoding="utf-8" standalone="no"?>
<!DOCTYPE svg PUBLIC "-//W3C//DTD SVG 1.1//EN"
  "http://www.w3.org/Graphics/SVG/1.1/DTD/svg11.dtd">
<!-- Created with matplotlib (http://matplotlib.org/) -->
<svg height="288pt" version="1.1" viewBox="0 0 504 288" width="504pt" xmlns="http://www.w3.org/2000/svg" xmlns:xlink="http://www.w3.org/1999/xlink">
 <defs>
  <style type="text/css">
*{stroke-linecap:butt;stroke-linejoin:round;}
  </style>
 </defs>
 <g id="figure_1">
  <g id="patch_1">
   <path d="M 0 288 
L 504 288 
L 504 0 
L 0 0 
z
" style="fill:#ffffff;"/>
  </g>
  <g id="axes_1">
   <g id="patch_2">
    <path d="M 100.8 230.4 
L 478.8 230.4 
L 478.8 23.04 
L 100.8 23.04 
z
" style="fill:#ffffff;"/>
   </g>
   <g id="matplotlib.axis_1">
    <g id="xtick_1">
     <g id="line2d_1">
      <defs>
       <path d="M 0 0 
L 0 3.5 
" id="m324c527617" style="stroke:#262626;stroke-width:0.8;"/>
      </defs>
      <g>
       <use style="fill:#262626;stroke:#262626;stroke-width:0.8;" x="106.896774" xlink:href="#m324c527617" y="230.4"/>
      </g>
     </g>
     <g id="text_1">
      <text style="fill:#262626;font-family:DejaVu Sans;font-size:20px;font-style:normal;font-weight:normal;text-anchor:middle;" transform="rotate(-0, 106.896774, 252.596875)" x="106.896774" y="252.596875">0</text>
     </g>
    </g>
    <g id="xtick_2">
     <g id="line2d_2">
      <g>
       <use style="fill:#262626;stroke:#262626;stroke-width:0.8;" x="228.832258" xlink:href="#m324c527617" y="230.4"/>
      </g>
     </g>
     <g id="text_2">
      <text style="fill:#262626;font-family:DejaVu Sans;font-size:20px;font-style:normal;font-weight:normal;text-anchor:middle;" transform="rotate(-0, 228.832258, 252.596875)" x="228.832258" y="252.596875">10</text>
     </g>
    </g>
    <g id="xtick_3">
     <g id="line2d_3">
      <g>
       <use style="fill:#262626;stroke:#262626;stroke-width:0.8;" x="350.767742" xlink:href="#m324c527617" y="230.4"/>
      </g>
     </g>
     <g id="text_3">
      <text style="fill:#262626;font-family:DejaVu Sans;font-size:20px;font-style:normal;font-weight:normal;text-anchor:middle;" transform="rotate(-0, 350.767742, 252.596875)" x="350.767742" y="252.596875">20</text>
     </g>
    </g>
    <g id="xtick_4">
     <g id="line2d_4">
      <g>
       <use style="fill:#262626;stroke:#262626;stroke-width:0.8;" x="472.703226" xlink:href="#m324c527617" y="230.4"/>
      </g>
     </g>
     <g id="text_4">
      <text style="fill:#262626;font-family:DejaVu Sans;font-size:20px;font-style:normal;font-weight:normal;text-anchor:middle;" transform="rotate(-0, 472.703226, 252.596875)" x="472.703226" y="252.596875">30</text>
     </g>
    </g>
    <g id="text_5">
     <text style="fill:#262626;font-family:DejaVu Sans;font-size:20px;font-style:normal;font-weight:normal;text-anchor:middle;" transform="rotate(-0, 289.8, 275.953125)" x="289.8" y="275.953125">position</text>
    </g>
   </g>
   <g id="matplotlib.axis_2">
    <g id="ytick_1">
     <g id="line2d_5">
      <defs>
       <path d="M 0 0 
L -3.5 0 
" id="me0a0456c31" style="stroke:#262626;stroke-width:0.8;"/>
      </defs>
      <g>
       <use style="fill:#262626;stroke:#262626;stroke-width:0.8;" x="100.8" xlink:href="#me0a0456c31" y="225.128136"/>
      </g>
     </g>
     <g id="text_6">
      <text style="fill:#262626;font-family:DejaVu Sans;font-size:20px;font-style:normal;font-weight:normal;text-anchor:end;" transform="rotate(-0, 93.8, 232.726573)" x="93.8" y="232.726573">0.00</text>
     </g>
    </g>
    <g id="ytick_2">
     <g id="line2d_6">
      <g>
       <use style="fill:#262626;stroke:#262626;stroke-width:0.8;" x="100.8" xlink:href="#me0a0456c31" y="172.152327"/>
      </g>
     </g>
     <g id="text_7">
      <text style="fill:#262626;font-family:DejaVu Sans;font-size:20px;font-style:normal;font-weight:normal;text-anchor:end;" transform="rotate(-0, 93.8, 179.750765)" x="93.8" y="179.750765">0.02</text>
     </g>
    </g>
    <g id="ytick_3">
     <g id="line2d_7">
      <g>
       <use style="fill:#262626;stroke:#262626;stroke-width:0.8;" x="100.8" xlink:href="#me0a0456c31" y="119.176519"/>
      </g>
     </g>
     <g id="text_8">
      <text style="fill:#262626;font-family:DejaVu Sans;font-size:20px;font-style:normal;font-weight:normal;text-anchor:end;" transform="rotate(-0, 93.8, 126.774957)" x="93.8" y="126.774957">0.04</text>
     </g>
    </g>
    <g id="ytick_4">
     <g id="line2d_8">
      <g>
       <use style="fill:#262626;stroke:#262626;stroke-width:0.8;" x="100.8" xlink:href="#me0a0456c31" y="66.200711"/>
      </g>
     </g>
     <g id="text_9">
      <text style="fill:#262626;font-family:DejaVu Sans;font-size:20px;font-style:normal;font-weight:normal;text-anchor:end;" transform="rotate(-0, 93.8, 73.799149)" x="93.8" y="73.799149">0.06</text>
     </g>
    </g>
    <g id="text_10">
     <text style="fill:#262626;font-family:DejaVu Sans;font-size:20px;font-style:normal;font-weight:normal;text-anchor:middle;" transform="rotate(-90, 41.109375, 126.72)" x="41.109375" y="126.72">mut freq</text>
    </g>
   </g>
   <g id="LineCollection_1">
    <path clip-path="url(#p6d60b638ef)" d="M 106.896774 289 
L 106.896774 -1 
" style="fill:none;stroke:#4169e1;stroke-width:3;"/>
    <path clip-path="url(#p6d60b638ef)" d="M 119.090323 231.219145 
L 119.090323 219.037126 
" style="fill:none;stroke:#4169e1;stroke-width:3;"/>
    <path clip-path="url(#p6d60b638ef)" d="M 131.283871 231.163721 
L 131.283871 219.09255 
" style="fill:none;stroke:#4169e1;stroke-width:3;"/>
    <path clip-path="url(#p6d60b638ef)" d="M 143.477419 230.651113 
L 143.477419 219.605158 
" style="fill:none;stroke:#4169e1;stroke-width:3;"/>
    <path clip-path="url(#p6d60b638ef)" d="M 155.670968 223.29633 
L 155.670968 209.78788 
" style="fill:none;stroke:#4169e1;stroke-width:3;"/>
    <path clip-path="url(#p6d60b638ef)" d="M 167.864516 230.481721 
L 167.864516 219.774551 
" style="fill:none;stroke:#4169e1;stroke-width:3;"/>
    <path clip-path="url(#p6d60b638ef)" d="M 180.058065 75.17882 
L 180.058065 23.619824 
" style="fill:none;stroke:#4169e1;stroke-width:3;"/>
    <path clip-path="url(#p6d60b638ef)" d="M 192.251613 226.182012 
L 192.251613 215.543534 
" style="fill:none;stroke:#4169e1;stroke-width:3;"/>
    <path clip-path="url(#p6d60b638ef)" d="M 204.445161 230.447375 
L 204.445161 219.808897 
" style="fill:none;stroke:#4169e1;stroke-width:3;"/>
    <path clip-path="url(#p6d60b638ef)" d="M 216.63871 213.572028 
L 216.63871 194.099189 
" style="fill:none;stroke:#4169e1;stroke-width:3;"/>
    <path clip-path="url(#p6d60b638ef)" d="M 228.832258 230.438857 
L 228.832258 219.817414 
" style="fill:none;stroke:#4169e1;stroke-width:3;"/>
    <path clip-path="url(#p6d60b638ef)" d="M 241.025806 223.311315 
L 241.025806 209.910934 
" style="fill:none;stroke:#4169e1;stroke-width:3;"/>
    <path clip-path="url(#p6d60b638ef)" d="M 253.219355 230.438857 
L 253.219355 219.817414 
" style="fill:none;stroke:#4169e1;stroke-width:3;"/>
    <path clip-path="url(#p6d60b638ef)" d="M 265.412903 220.199238 
L 265.412903 204.506001 
" style="fill:none;stroke:#4169e1;stroke-width:3;"/>
    <path clip-path="url(#p6d60b638ef)" d="M 277.606452 199.476174 
L 277.606452 174.126998 
" style="fill:none;stroke:#4169e1;stroke-width:3;"/>
    <path clip-path="url(#p6d60b638ef)" d="M 289.8 230.438857 
L 289.8 219.817414 
" style="fill:none;stroke:#4169e1;stroke-width:3;"/>
    <path clip-path="url(#p6d60b638ef)" d="M 301.993548 223.311315 
L 301.993548 209.910934 
" style="fill:none;stroke:#4169e1;stroke-width:3;"/>
    <path clip-path="url(#p6d60b638ef)" d="M 314.187097 223.311315 
L 314.187097 209.910934 
" style="fill:none;stroke:#4169e1;stroke-width:3;"/>
    <path clip-path="url(#p6d60b638ef)" d="M 326.380645 220.199238 
L 326.380645 204.506001 
" style="fill:none;stroke:#4169e1;stroke-width:3;"/>
    <path clip-path="url(#p6d60b638ef)" d="M 338.574194 226.180351 
L 338.574194 215.558909 
" style="fill:none;stroke:#4169e1;stroke-width:3;"/>
    <path clip-path="url(#p6d60b638ef)" d="M 350.767742 177.229741 
L 350.767742 145.065641 
" style="fill:none;stroke:#4169e1;stroke-width:3;"/>
    <path clip-path="url(#p6d60b638ef)" d="M 362.96129 213.534523 
L 362.96129 193.999323 
" style="fill:none;stroke:#4169e1;stroke-width:3;"/>
    <path clip-path="url(#p6d60b638ef)" d="M 375.154839 230.464492 
L 375.154839 219.791779 
" style="fill:none;stroke:#4169e1;stroke-width:3;"/>
    <path clip-path="url(#p6d60b638ef)" d="M 387.348387 216.897626 
L 387.348387 199.125489 
" style="fill:none;stroke:#4169e1;stroke-width:3;"/>
    <path clip-path="url(#p6d60b638ef)" d="M 399.541935 226.187024 
L 399.541935 215.49711 
" style="fill:none;stroke:#4169e1;stroke-width:3;"/>
    <path clip-path="url(#p6d60b638ef)" d="M 411.735484 161.737511 
L 411.735484 125.648152 
" style="fill:none;stroke:#4169e1;stroke-width:3;"/>
    <path clip-path="url(#p6d60b638ef)" d="M 423.929032 230.473093 
L 423.929032 219.783179 
" style="fill:none;stroke:#4169e1;stroke-width:3;"/>
    <path clip-path="url(#p6d60b638ef)" d="M 436.122581 149.913596 
L 436.122581 111.14336 
" style="fill:none;stroke:#4169e1;stroke-width:3;"/>
    <path clip-path="url(#p6d60b638ef)" d="M 448.316129 216.857263 
L 448.316129 198.999133 
" style="fill:none;stroke:#4169e1;stroke-width:3;"/>
    <path clip-path="url(#p6d60b638ef)" d="M 460.509677 230.831575 
L 460.509677 219.424696 
" style="fill:none;stroke:#4169e1;stroke-width:3;"/>
    <path clip-path="url(#p6d60b638ef)" d="M 472.703226 231.024229 
L 472.703226 219.232042 
" style="fill:none;stroke:#4169e1;stroke-width:3;"/>
   </g>
   <g id="line2d_9">
    <path clip-path="url(#p6d60b638ef)" d="M 106.896774 225.128136 
L 119.090323 225.128136 
L 131.283871 225.128136 
L 143.477419 225.128136 
L 155.670968 216.542105 
L 167.864516 225.128136 
L 180.058065 49.399322 
L 192.251613 220.862773 
L 204.445161 225.128136 
L 216.63871 203.835608 
L 228.832258 225.128136 
L 241.025806 216.611125 
L 253.219355 225.128136 
L 265.412903 212.352619 
L 277.606452 186.801586 
L 289.8 225.128136 
L 301.993548 216.611125 
L 314.187097 216.611125 
L 326.380645 212.352619 
L 338.574194 220.86963 
L 350.767742 161.147691 
L 362.96129 203.766923 
L 375.154839 225.128136 
L 387.348387 208.011558 
L 399.541935 220.842067 
L 411.735484 143.692832 
L 423.929032 225.128136 
L 436.122581 130.528478 
L 448.316129 207.928198 
L 460.509677 225.128136 
L 472.703226 225.128136 
" style="fill:none;stroke:#4169e1;stroke-linecap:round;stroke-width:3;"/>
    <defs>
     <path d="M 0 3.25 
C 0.86191 3.25 1.688635 2.907559 2.298097 2.298097 
C 2.907559 1.688635 3.25 0.86191 3.25 0 
C 3.25 -0.86191 2.907559 -1.688635 2.298097 -2.298097 
C 1.688635 -2.907559 0.86191 -3.25 0 -3.25 
C -0.86191 -3.25 -1.688635 -2.907559 -2.298097 -2.298097 
C -2.907559 -1.688635 -3.25 -0.86191 -3.25 0 
C -3.25 0.86191 -2.907559 1.688635 -2.298097 2.298097 
C -1.688635 2.907559 -0.86191 3.25 0 3.25 
z
" id="mc86b36df78" style="stroke:#4169e1;"/>
    </defs>
    <g clip-path="url(#p6d60b638ef)">
     <use style="fill:#4169e1;stroke:#4169e1;" x="106.896774" xlink:href="#mc86b36df78" y="225.128136"/>
     <use style="fill:#4169e1;stroke:#4169e1;" x="119.090323" xlink:href="#mc86b36df78" y="225.128136"/>
     <use style="fill:#4169e1;stroke:#4169e1;" x="131.283871" xlink:href="#mc86b36df78" y="225.128136"/>
     <use style="fill:#4169e1;stroke:#4169e1;" x="143.477419" xlink:href="#mc86b36df78" y="225.128136"/>
     <use style="fill:#4169e1;stroke:#4169e1;" x="155.670968" xlink:href="#mc86b36df78" y="216.542105"/>
     <use style="fill:#4169e1;stroke:#4169e1;" x="167.864516" xlink:href="#mc86b36df78" y="225.128136"/>
     <use style="fill:#4169e1;stroke:#4169e1;" x="180.058065" xlink:href="#mc86b36df78" y="49.399322"/>
     <use style="fill:#4169e1;stroke:#4169e1;" x="192.251613" xlink:href="#mc86b36df78" y="220.862773"/>
     <use style="fill:#4169e1;stroke:#4169e1;" x="204.445161" xlink:href="#mc86b36df78" y="225.128136"/>
     <use style="fill:#4169e1;stroke:#4169e1;" x="216.63871" xlink:href="#mc86b36df78" y="203.835608"/>
     <use style="fill:#4169e1;stroke:#4169e1;" x="228.832258" xlink:href="#mc86b36df78" y="225.128136"/>
     <use style="fill:#4169e1;stroke:#4169e1;" x="241.025806" xlink:href="#mc86b36df78" y="216.611125"/>
     <use style="fill:#4169e1;stroke:#4169e1;" x="253.219355" xlink:href="#mc86b36df78" y="225.128136"/>
     <use style="fill:#4169e1;stroke:#4169e1;" x="265.412903" xlink:href="#mc86b36df78" y="212.352619"/>
     <use style="fill:#4169e1;stroke:#4169e1;" x="277.606452" xlink:href="#mc86b36df78" y="186.801586"/>
     <use style="fill:#4169e1;stroke:#4169e1;" x="289.8" xlink:href="#mc86b36df78" y="225.128136"/>
     <use style="fill:#4169e1;stroke:#4169e1;" x="301.993548" xlink:href="#mc86b36df78" y="216.611125"/>
     <use style="fill:#4169e1;stroke:#4169e1;" x="314.187097" xlink:href="#mc86b36df78" y="216.611125"/>
     <use style="fill:#4169e1;stroke:#4169e1;" x="326.380645" xlink:href="#mc86b36df78" y="212.352619"/>
     <use style="fill:#4169e1;stroke:#4169e1;" x="338.574194" xlink:href="#mc86b36df78" y="220.86963"/>
     <use style="fill:#4169e1;stroke:#4169e1;" x="350.767742" xlink:href="#mc86b36df78" y="161.147691"/>
     <use style="fill:#4169e1;stroke:#4169e1;" x="362.96129" xlink:href="#mc86b36df78" y="203.766923"/>
     <use style="fill:#4169e1;stroke:#4169e1;" x="375.154839" xlink:href="#mc86b36df78" y="225.128136"/>
     <use style="fill:#4169e1;stroke:#4169e1;" x="387.348387" xlink:href="#mc86b36df78" y="208.011558"/>
     <use style="fill:#4169e1;stroke:#4169e1;" x="399.541935" xlink:href="#mc86b36df78" y="220.842067"/>
     <use style="fill:#4169e1;stroke:#4169e1;" x="411.735484" xlink:href="#mc86b36df78" y="143.692832"/>
     <use style="fill:#4169e1;stroke:#4169e1;" x="423.929032" xlink:href="#mc86b36df78" y="225.128136"/>
     <use style="fill:#4169e1;stroke:#4169e1;" x="436.122581" xlink:href="#mc86b36df78" y="130.528478"/>
     <use style="fill:#4169e1;stroke:#4169e1;" x="448.316129" xlink:href="#mc86b36df78" y="207.928198"/>
     <use style="fill:#4169e1;stroke:#4169e1;" x="460.509677" xlink:href="#mc86b36df78" y="225.128136"/>
     <use style="fill:#4169e1;stroke:#4169e1;" x="472.703226" xlink:href="#mc86b36df78" y="225.128136"/>
    </g>
   </g>
   <g id="patch_3">
    <path d="M 100.8 230.4 
L 100.8 23.04 
" style="fill:none;stroke:#262626;stroke-linecap:square;stroke-linejoin:miter;stroke-width:0.8;"/>
   </g>
   <g id="patch_4">
    <path d="M 100.8 230.4 
L 478.8 230.4 
" style="fill:none;stroke:#262626;stroke-linecap:square;stroke-linejoin:miter;stroke-width:0.8;"/>
   </g>
   <g id="text_11">
    <text style="fill:#262626;font-family:DejaVu Sans;font-size:20px;font-style:normal;font-weight:bold;text-anchor:middle;" transform="rotate(-0, 289.8, 17.04)" x="289.8" y="17.04">IGHD2-8*02</text>
   </g>
  </g>
 </g>
 <defs>
  <clipPath id="p6d60b638ef">
   <rect height="207.36" width="378" x="100.8" y="23.04"/>
  </clipPath>
 </defs>
</svg>
