<?xml version="1.0" encoding="utf-8" standalone="no"?>
<!DOCTYPE svg PUBLIC "-//W3C//DTD SVG 1.1//EN"
  "http://www.w3.org/Graphics/SVG/1.1/DTD/svg11.dtd">
<!-- Created with matplotlib (http://matplotlib.org/) -->
<svg height="288pt" version="1.1" viewBox="0 0 504 288" width="504pt" xmlns="http://www.w3.org/2000/svg" xmlns:xlink="http://www.w3.org/1999/xlink">
 <defs>
  <style type="text/css">
*{stroke-linecap:butt;stroke-linejoin:round;}
  </style>
 </defs>
 <g id="figure_1">
  <g id="patch_1">
   <path d="M 0 288 
L 504 288 
L 504 0 
L 0 0 
z
" style="fill:#ffffff;"/>
  </g>
  <g id="axes_1">
   <g id="patch_2">
    <path d="M 100.8 230.4 
L 478.8 230.4 
L 478.8 23.04 
L 100.8 23.04 
z
" style="fill:#ffffff;"/>
   </g>
   <g id="matplotlib.axis_1">
    <g id="xtick_1">
     <g id="line2d_1">
      <defs>
       <path d="M 0 0 
L 0 3.5 
" id="m457fd33fc4" style="stroke:#262626;stroke-width:0.8;"/>
      </defs>
      <g>
       <use style="fill:#262626;stroke:#262626;stroke-width:0.8;" x="107.55" xlink:href="#m457fd33fc4" y="230.4"/>
      </g>
     </g>
     <g id="text_1">
      <text style="fill:#262626;font-family:DejaVu Sans;font-size:20px;font-style:normal;font-weight:normal;text-anchor:middle;" transform="rotate(-0, 107.55, 252.596875)" x="107.55" y="252.596875">0</text>
     </g>
    </g>
    <g id="xtick_2">
     <g id="line2d_2">
      <g>
       <use style="fill:#262626;stroke:#262626;stroke-width:0.8;" x="175.05" xlink:href="#m457fd33fc4" y="230.4"/>
      </g>
     </g>
     <g id="text_2">
      <text style="fill:#262626;font-family:DejaVu Sans;font-size:20px;font-style:normal;font-weight:normal;text-anchor:middle;" transform="rotate(-0, 175.05, 252.596875)" x="175.05" y="252.596875">5</text>
     </g>
    </g>
    <g id="xtick_3">
     <g id="line2d_3">
      <g>
       <use style="fill:#262626;stroke:#262626;stroke-width:0.8;" x="242.55" xlink:href="#m457fd33fc4" y="230.4"/>
      </g>
     </g>
     <g id="text_3">
      <text style="fill:#262626;font-family:DejaVu Sans;font-size:20px;font-style:normal;font-weight:normal;text-anchor:middle;" transform="rotate(-0, 242.55, 252.596875)" x="242.55" y="252.596875">10</text>
     </g>
    </g>
    <g id="xtick_4">
     <g id="line2d_4">
      <g>
       <use style="fill:#262626;stroke:#262626;stroke-width:0.8;" x="310.05" xlink:href="#m457fd33fc4" y="230.4"/>
      </g>
     </g>
     <g id="text_4">
      <text style="fill:#262626;font-family:DejaVu Sans;font-size:20px;font-style:normal;font-weight:normal;text-anchor:middle;" transform="rotate(-0, 310.05, 252.596875)" x="310.05" y="252.596875">15</text>
     </g>
    </g>
    <g id="xtick_5">
     <g id="line2d_5">
      <g>
       <use style="fill:#262626;stroke:#262626;stroke-width:0.8;" x="377.55" xlink:href="#m457fd33fc4" y="230.4"/>
      </g>
     </g>
     <g id="text_5">
      <text style="fill:#262626;font-family:DejaVu Sans;font-size:20px;font-style:normal;font-weight:normal;text-anchor:middle;" transform="rotate(-0, 377.55, 252.596875)" x="377.55" y="252.596875">20</text>
     </g>
    </g>
    <g id="xtick_6">
     <g id="line2d_6">
      <g>
       <use style="fill:#262626;stroke:#262626;stroke-width:0.8;" x="445.05" xlink:href="#m457fd33fc4" y="230.4"/>
      </g>
     </g>
     <g id="text_6">
      <text style="fill:#262626;font-family:DejaVu Sans;font-size:20px;font-style:normal;font-weight:normal;text-anchor:middle;" transform="rotate(-0, 445.05, 252.596875)" x="445.05" y="252.596875">25</text>
     </g>
    </g>
    <g id="text_7">
     <text style="fill:#262626;font-family:DejaVu Sans;font-size:20px;font-style:normal;font-weight:normal;text-anchor:middle;" transform="rotate(-0, 289.8, 275.953125)" x="289.8" y="275.953125">position</text>
    </g>
   </g>
   <g id="matplotlib.axis_2">
    <g id="ytick_1">
     <g id="line2d_7">
      <defs>
       <path d="M 0 0 
L -3.5 0 
" id="m3c74fd98cf" style="stroke:#262626;stroke-width:0.8;"/>
      </defs>
      <g>
       <use style="fill:#262626;stroke:#262626;stroke-width:0.8;" x="100.8" xlink:href="#m3c74fd98cf" y="225.128136"/>
      </g>
     </g>
     <g id="text_8">
      <text style="fill:#262626;font-family:DejaVu Sans;font-size:20px;font-style:normal;font-weight:normal;text-anchor:end;" transform="rotate(-0, 93.8, 232.726573)" x="93.8" y="232.726573">0.0</text>
     </g>
    </g>
    <g id="ytick_2">
     <g id="line2d_8">
      <g>
       <use style="fill:#262626;stroke:#262626;stroke-width:0.8;" x="100.8" xlink:href="#m3c74fd98cf" y="171.645453"/>
      </g>
     </g>
     <g id="text_9">
      <text style="fill:#262626;font-family:DejaVu Sans;font-size:20px;font-style:normal;font-weight:normal;text-anchor:end;" transform="rotate(-0, 93.8, 179.243891)" x="93.8" y="179.243891">0.2</text>
     </g>
    </g>
    <g id="ytick_3">
     <g id="line2d_9">
      <g>
       <use style="fill:#262626;stroke:#262626;stroke-width:0.8;" x="100.8" xlink:href="#m3c74fd98cf" y="118.162771"/>
      </g>
     </g>
     <g id="text_10">
      <text style="fill:#262626;font-family:DejaVu Sans;font-size:20px;font-style:normal;font-weight:normal;text-anchor:end;" transform="rotate(-0, 93.8, 125.761208)" x="93.8" y="125.761208">0.4</text>
     </g>
    </g>
    <g id="ytick_4">
     <g id="line2d_10">
      <g>
       <use style="fill:#262626;stroke:#262626;stroke-width:0.8;" x="100.8" xlink:href="#m3c74fd98cf" y="64.680088"/>
      </g>
     </g>
     <g id="text_11">
      <text style="fill:#262626;font-family:DejaVu Sans;font-size:20px;font-style:normal;font-weight:normal;text-anchor:end;" transform="rotate(-0, 93.8, 72.278526)" x="93.8" y="72.278526">0.6</text>
     </g>
    </g>
    <g id="text_12">
     <text style="fill:#262626;font-family:DejaVu Sans;font-size:20px;font-style:normal;font-weight:normal;text-anchor:middle;" transform="rotate(-90, 53.834375, 126.72)" x="53.834375" y="126.72">mut freq</text>
    </g>
   </g>
   <g id="LineCollection_1">
    <path clip-path="url(#p8753be6b05)" d="M 107.55 289 
L 107.55 157.656705 
" style="fill:none;stroke:#4169e1;stroke-width:3;"/>
    <path clip-path="url(#p8753be6b05)" d="M 121.05 234.552789 
L 121.05 215.703482 
" style="fill:none;stroke:#4169e1;stroke-width:3;"/>
    <path clip-path="url(#p8753be6b05)" d="M 134.55 234.295079 
L 134.55 215.961192 
" style="fill:none;stroke:#4169e1;stroke-width:3;"/>
    <path clip-path="url(#p8753be6b05)" d="M 148.05 234.295079 
L 148.05 215.961192 
" style="fill:none;stroke:#4169e1;stroke-width:3;"/>
    <path clip-path="url(#p8753be6b05)" d="M 161.55 194.813519 
L 161.55 161.061548 
" style="fill:none;stroke:#4169e1;stroke-width:3;"/>
    <path clip-path="url(#p8753be6b05)" d="M 175.05 234.295079 
L 175.05 215.961192 
" style="fill:none;stroke:#4169e1;stroke-width:3;"/>
    <path clip-path="url(#p8753be6b05)" d="M 188.55 234.295079 
L 188.55 215.961192 
" style="fill:none;stroke:#4169e1;stroke-width:3;"/>
    <path clip-path="url(#p8753be6b05)" d="M 202.05 69.673398 
L 202.05 29.125246 
" style="fill:none;stroke:#4169e1;stroke-width:3;"/>
    <path clip-path="url(#p8753be6b05)" d="M 215.55 225.696045 
L 215.55 219.466638 
" style="fill:none;stroke:#4169e1;stroke-width:3;"/>
    <path clip-path="url(#p8753be6b05)" d="M 229.05 228.242839 
L 229.05 222.013432 
" style="fill:none;stroke:#4169e1;stroke-width:3;"/>
    <path clip-path="url(#p8753be6b05)" d="M 242.55 228.214135 
L 242.55 222.042136 
" style="fill:none;stroke:#4169e1;stroke-width:3;"/>
    <path clip-path="url(#p8753be6b05)" d="M 256.05 228.214135 
L 256.05 222.042136 
" style="fill:none;stroke:#4169e1;stroke-width:3;"/>
    <path clip-path="url(#p8753be6b05)" d="M 269.55 225.700799 
L 269.55 219.412906 
" style="fill:none;stroke:#4169e1;stroke-width:3;"/>
    <path clip-path="url(#p8753be6b05)" d="M 283.05 228.332247 
L 283.05 221.924024 
" style="fill:none;stroke:#4169e1;stroke-width:3;"/>
    <path clip-path="url(#p8753be6b05)" d="M 296.55 225.753015 
L 296.55 218.813609 
" style="fill:none;stroke:#4169e1;stroke-width:3;"/>
    <path clip-path="url(#p8753be6b05)" d="M 310.05 176.989947 
L 310.05 154.415918 
" style="fill:none;stroke:#4169e1;stroke-width:3;"/>
    <path clip-path="url(#p8753be6b05)" d="M 323.55 225.79545 
L 323.55 218.313387 
" style="fill:none;stroke:#4169e1;stroke-width:3;"/>
    <path clip-path="url(#p8753be6b05)" d="M 337.05 229.044151 
L 337.05 221.21212 
" style="fill:none;stroke:#4169e1;stroke-width:3;"/>
    <path clip-path="url(#p8753be6b05)" d="M 350.55 229.562691 
L 350.55 220.69358 
" style="fill:none;stroke:#4169e1;stroke-width:3;"/>
    <path clip-path="url(#p8753be6b05)" d="M 364.05 229.562691 
L 364.05 220.69358 
" style="fill:none;stroke:#4169e1;stroke-width:3;"/>
    <path clip-path="url(#p8753be6b05)" d="M 377.55 229.562691 
L 377.55 220.69358 
" style="fill:none;stroke:#4169e1;stroke-width:3;"/>
    <path clip-path="url(#p8753be6b05)" d="M 391.05 229.562691 
L 391.05 220.69358 
" style="fill:none;stroke:#4169e1;stroke-width:3;"/>
    <path clip-path="url(#p8753be6b05)" d="M 404.55 229.562691 
L 404.55 220.69358 
" style="fill:none;stroke:#4169e1;stroke-width:3;"/>
    <path clip-path="url(#p8753be6b05)" d="M 418.05 229.562691 
L 418.05 220.69358 
" style="fill:none;stroke:#4169e1;stroke-width:3;"/>
    <path clip-path="url(#p8753be6b05)" d="M 431.55 225.908122 
L 431.55 216.919999 
" style="fill:none;stroke:#4169e1;stroke-width:3;"/>
    <path clip-path="url(#p8753be6b05)" d="M 445.05 229.622197 
L 445.05 220.634074 
" style="fill:none;stroke:#4169e1;stroke-width:3;"/>
    <path clip-path="url(#p8753be6b05)" d="M 458.55 229.683321 
L 458.55 220.57295 
" style="fill:none;stroke:#4169e1;stroke-width:3;"/>
    <path clip-path="url(#p8753be6b05)" d="M 472.05 289 
L 472.05 157.656705 
" style="fill:none;stroke:#4169e1;stroke-width:3;"/>
   </g>
   <g id="line2d_11">
    <path clip-path="url(#p8753be6b05)" d="M 107.55 225.128136 
L 121.05 225.128136 
L 134.55 225.128136 
L 148.05 225.128136 
L 161.55 177.937533 
L 175.05 225.128136 
L 188.55 225.128136 
L 202.05 49.399322 
L 215.55 222.581341 
L 229.05 225.128136 
L 242.55 225.128136 
L 256.05 225.128136 
L 269.55 222.556853 
L 283.05 225.128136 
L 296.55 222.283312 
L 310.05 165.702933 
L 323.55 222.054418 
L 337.05 225.128136 
L 350.55 225.128136 
L 364.05 225.128136 
L 377.55 225.128136 
L 391.05 225.128136 
L 404.55 225.128136 
L 418.05 225.128136 
L 431.55 221.41406 
L 445.05 225.128136 
L 458.55 225.128136 
L 472.05 225.128136 
" style="fill:none;stroke:#4169e1;stroke-linecap:round;stroke-width:3;"/>
    <defs>
     <path d="M 0 3.25 
C 0.86191 3.25 1.688635 2.907559 2.298097 2.298097 
C 2.907559 1.688635 3.25 0.86191 3.25 0 
C 3.25 -0.86191 2.907559 -1.688635 2.298097 -2.298097 
C 1.688635 -2.907559 0.86191 -3.25 0 -3.25 
C -0.86191 -3.25 -1.688635 -2.907559 -2.298097 -2.298097 
C -2.907559 -1.688635 -3.25 -0.86191 -3.25 0 
C -3.25 0.86191 -2.907559 1.688635 -2.298097 2.298097 
C -1.688635 2.907559 -0.86191 3.25 0 3.25 
z
" id="meb10bb2a18" style="stroke:#4169e1;"/>
    </defs>
    <g clip-path="url(#p8753be6b05)">
     <use style="fill:#4169e1;stroke:#4169e1;" x="107.55" xlink:href="#meb10bb2a18" y="225.128136"/>
     <use style="fill:#4169e1;stroke:#4169e1;" x="121.05" xlink:href="#meb10bb2a18" y="225.128136"/>
     <use style="fill:#4169e1;stroke:#4169e1;" x="134.55" xlink:href="#meb10bb2a18" y="225.128136"/>
     <use style="fill:#4169e1;stroke:#4169e1;" x="148.05" xlink:href="#meb10bb2a18" y="225.128136"/>
     <use style="fill:#4169e1;stroke:#4169e1;" x="161.55" xlink:href="#meb10bb2a18" y="177.937533"/>
     <use style="fill:#4169e1;stroke:#4169e1;" x="175.05" xlink:href="#meb10bb2a18" y="225.128136"/>
     <use style="fill:#4169e1;stroke:#4169e1;" x="188.55" xlink:href="#meb10bb2a18" y="225.128136"/>
     <use style="fill:#4169e1;stroke:#4169e1;" x="202.05" xlink:href="#meb10bb2a18" y="49.399322"/>
     <use style="fill:#4169e1;stroke:#4169e1;" x="215.55" xlink:href="#meb10bb2a18" y="222.581341"/>
     <use style="fill:#4169e1;stroke:#4169e1;" x="229.05" xlink:href="#meb10bb2a18" y="225.128136"/>
     <use style="fill:#4169e1;stroke:#4169e1;" x="242.55" xlink:href="#meb10bb2a18" y="225.128136"/>
     <use style="fill:#4169e1;stroke:#4169e1;" x="256.05" xlink:href="#meb10bb2a18" y="225.128136"/>
     <use style="fill:#4169e1;stroke:#4169e1;" x="269.55" xlink:href="#meb10bb2a18" y="222.556853"/>
     <use style="fill:#4169e1;stroke:#4169e1;" x="283.05" xlink:href="#meb10bb2a18" y="225.128136"/>
     <use style="fill:#4169e1;stroke:#4169e1;" x="296.55" xlink:href="#meb10bb2a18" y="222.283312"/>
     <use style="fill:#4169e1;stroke:#4169e1;" x="310.05" xlink:href="#meb10bb2a18" y="165.702933"/>
     <use style="fill:#4169e1;stroke:#4169e1;" x="323.55" xlink:href="#meb10bb2a18" y="222.054418"/>
     <use style="fill:#4169e1;stroke:#4169e1;" x="337.05" xlink:href="#meb10bb2a18" y="225.128136"/>
     <use style="fill:#4169e1;stroke:#4169e1;" x="350.55" xlink:href="#meb10bb2a18" y="225.128136"/>
     <use style="fill:#4169e1;stroke:#4169e1;" x="364.05" xlink:href="#meb10bb2a18" y="225.128136"/>
     <use style="fill:#4169e1;stroke:#4169e1;" x="377.55" xlink:href="#meb10bb2a18" y="225.128136"/>
     <use style="fill:#4169e1;stroke:#4169e1;" x="391.05" xlink:href="#meb10bb2a18" y="225.128136"/>
     <use style="fill:#4169e1;stroke:#4169e1;" x="404.55" xlink:href="#meb10bb2a18" y="225.128136"/>
     <use style="fill:#4169e1;stroke:#4169e1;" x="418.05" xlink:href="#meb10bb2a18" y="225.128136"/>
     <use style="fill:#4169e1;stroke:#4169e1;" x="431.55" xlink:href="#meb10bb2a18" y="221.41406"/>
     <use style="fill:#4169e1;stroke:#4169e1;" x="445.05" xlink:href="#meb10bb2a18" y="225.128136"/>
     <use style="fill:#4169e1;stroke:#4169e1;" x="458.55" xlink:href="#meb10bb2a18" y="225.128136"/>
     <use style="fill:#4169e1;stroke:#4169e1;" x="472.05" xlink:href="#meb10bb2a18" y="225.128136"/>
    </g>
   </g>
   <g id="patch_3">
    <path d="M 100.8 230.4 
L 100.8 23.04 
" style="fill:none;stroke:#262626;stroke-linecap:square;stroke-linejoin:miter;stroke-width:0.8;"/>
   </g>
   <g id="patch_4">
    <path d="M 100.8 230.4 
L 478.8 230.4 
" style="fill:none;stroke:#262626;stroke-linecap:square;stroke-linejoin:miter;stroke-width:0.8;"/>
   </g>
   <g id="text_13">
    <text style="fill:#262626;font-family:DejaVu Sans;font-size:20px;font-style:normal;font-weight:bold;text-anchor:middle;" transform="rotate(-0, 289.8, 17.04)" x="289.8" y="17.04">IGHD2-21*02</text>
   </g>
  </g>
 </g>
 <defs>
  <clipPath id="p8753be6b05">
   <rect height="207.36" width="378" x="100.8" y="23.04"/>
  </clipPath>
 </defs>
</svg>
