<?xml version="1.0" encoding="utf-8" standalone="no"?>
<!DOCTYPE svg PUBLIC "-//W3C//DTD SVG 1.1//EN"
  "http://www.w3.org/Graphics/SVG/1.1/DTD/svg11.dtd">
<!-- Created with matplotlib (http://matplotlib.org/) -->
<svg height="288pt" version="1.1" viewBox="0 0 504 288" width="504pt" xmlns="http://www.w3.org/2000/svg" xmlns:xlink="http://www.w3.org/1999/xlink">
 <defs>
  <style type="text/css">
*{stroke-linecap:butt;stroke-linejoin:round;}
  </style>
 </defs>
 <g id="figure_1">
  <g id="patch_1">
   <path d="M 0 288 
L 504 288 
L 504 0 
L 0 0 
z
" style="fill:#ffffff;"/>
  </g>
  <g id="axes_1">
   <g id="patch_2">
    <path d="M 100.8 230.4 
L 478.8 230.4 
L 478.8 23.04 
L 100.8 23.04 
z
" style="fill:#ffffff;"/>
   </g>
   <g id="matplotlib.axis_1">
    <g id="xtick_1">
     <g id="line2d_1">
      <defs>
       <path d="M 0 0 
L 0 3.5 
" id="m3d58b3ed69" style="stroke:#262626;stroke-width:0.8;"/>
      </defs>
      <g>
       <use style="fill:#262626;stroke:#262626;stroke-width:0.8;" x="111.3" xlink:href="#m3d58b3ed69" y="230.4"/>
      </g>
     </g>
     <g id="text_1">
      <text style="fill:#262626;font-family:DejaVu Sans;font-size:20px;font-style:normal;font-weight:normal;text-anchor:middle;" transform="rotate(-0, 111.3, 252.596875)" x="111.3" y="252.596875">0</text>
     </g>
    </g>
    <g id="xtick_2">
     <g id="line2d_2">
      <g>
       <use style="fill:#262626;stroke:#262626;stroke-width:0.8;" x="216.3" xlink:href="#m3d58b3ed69" y="230.4"/>
      </g>
     </g>
     <g id="text_2">
      <text style="fill:#262626;font-family:DejaVu Sans;font-size:20px;font-style:normal;font-weight:normal;text-anchor:middle;" transform="rotate(-0, 216.3, 252.596875)" x="216.3" y="252.596875">5</text>
     </g>
    </g>
    <g id="xtick_3">
     <g id="line2d_3">
      <g>
       <use style="fill:#262626;stroke:#262626;stroke-width:0.8;" x="321.3" xlink:href="#m3d58b3ed69" y="230.4"/>
      </g>
     </g>
     <g id="text_3">
      <text style="fill:#262626;font-family:DejaVu Sans;font-size:20px;font-style:normal;font-weight:normal;text-anchor:middle;" transform="rotate(-0, 321.3, 252.596875)" x="321.3" y="252.596875">10</text>
     </g>
    </g>
    <g id="xtick_4">
     <g id="line2d_4">
      <g>
       <use style="fill:#262626;stroke:#262626;stroke-width:0.8;" x="426.3" xlink:href="#m3d58b3ed69" y="230.4"/>
      </g>
     </g>
     <g id="text_4">
      <text style="fill:#262626;font-family:DejaVu Sans;font-size:20px;font-style:normal;font-weight:normal;text-anchor:middle;" transform="rotate(-0, 426.3, 252.596875)" x="426.3" y="252.596875">15</text>
     </g>
    </g>
    <g id="text_5">
     <text style="fill:#262626;font-family:DejaVu Sans;font-size:20px;font-style:normal;font-weight:normal;text-anchor:middle;" transform="rotate(-0, 289.8, 275.953125)" x="289.8" y="275.953125">position</text>
    </g>
   </g>
   <g id="matplotlib.axis_2">
    <g id="ytick_1">
     <g id="line2d_5">
      <defs>
       <path d="M 0 0 
L -3.5 0 
" id="m58cf38041b" style="stroke:#262626;stroke-width:0.8;"/>
      </defs>
      <g>
       <use style="fill:#262626;stroke:#262626;stroke-width:0.8;" x="100.8" xlink:href="#m58cf38041b" y="225.128136"/>
      </g>
     </g>
     <g id="text_6">
      <text style="fill:#262626;font-family:DejaVu Sans;font-size:20px;font-style:normal;font-weight:normal;text-anchor:end;" transform="rotate(-0, 93.8, 232.726573)" x="93.8" y="232.726573">0.0</text>
     </g>
    </g>
    <g id="ytick_2">
     <g id="line2d_6">
      <g>
       <use style="fill:#262626;stroke:#262626;stroke-width:0.8;" x="100.8" xlink:href="#m58cf38041b" y="174.056949"/>
      </g>
     </g>
     <g id="text_7">
      <text style="fill:#262626;font-family:DejaVu Sans;font-size:20px;font-style:normal;font-weight:normal;text-anchor:end;" transform="rotate(-0, 93.8, 181.655387)" x="93.8" y="181.655387">0.1</text>
     </g>
    </g>
    <g id="ytick_3">
     <g id="line2d_7">
      <g>
       <use style="fill:#262626;stroke:#262626;stroke-width:0.8;" x="100.8" xlink:href="#m58cf38041b" y="122.985763"/>
      </g>
     </g>
     <g id="text_8">
      <text style="fill:#262626;font-family:DejaVu Sans;font-size:20px;font-style:normal;font-weight:normal;text-anchor:end;" transform="rotate(-0, 93.8, 130.5842)" x="93.8" y="130.5842">0.2</text>
     </g>
    </g>
    <g id="ytick_4">
     <g id="line2d_8">
      <g>
       <use style="fill:#262626;stroke:#262626;stroke-width:0.8;" x="100.8" xlink:href="#m58cf38041b" y="71.914576"/>
      </g>
     </g>
     <g id="text_9">
      <text style="fill:#262626;font-family:DejaVu Sans;font-size:20px;font-style:normal;font-weight:normal;text-anchor:end;" transform="rotate(-0, 93.8, 79.513014)" x="93.8" y="79.513014">0.3</text>
     </g>
    </g>
    <g id="text_10">
     <text style="fill:#262626;font-family:DejaVu Sans;font-size:20px;font-style:normal;font-weight:normal;text-anchor:middle;" transform="rotate(-90, 53.834375, 126.72)" x="53.834375" y="126.72">mut freq</text>
    </g>
   </g>
   <g id="LineCollection_1">
    <path clip-path="url(#pf147df4811)" d="M 111.3 289 
L 111.3 102.12268 
" style="fill:none;stroke:#4169e1;stroke-width:3;"/>
    <path clip-path="url(#pf147df4811)" d="M 132.3 231.824027 
L 132.3 218.432245 
" style="fill:none;stroke:#4169e1;stroke-width:3;"/>
    <path clip-path="url(#pf147df4811)" d="M 153.3 231.824027 
L 153.3 218.432245 
" style="fill:none;stroke:#4169e1;stroke-width:3;"/>
    <path clip-path="url(#pf147df4811)" d="M 174.3 231.824027 
L 174.3 218.432245 
" style="fill:none;stroke:#4169e1;stroke-width:3;"/>
    <path clip-path="url(#pf147df4811)" d="M 195.3 226.332501 
L 195.3 212.940719 
" style="fill:none;stroke:#4169e1;stroke-width:3;"/>
    <path clip-path="url(#pf147df4811)" d="M 216.3 231.824027 
L 216.3 218.432245 
" style="fill:none;stroke:#4169e1;stroke-width:3;"/>
    <path clip-path="url(#pf147df4811)" d="M 237.3 195.83953 
L 237.3 166.552335 
" style="fill:none;stroke:#4169e1;stroke-width:3;"/>
    <path clip-path="url(#pf147df4811)" d="M 258.3 73.521002 
L 258.3 25.277642 
" style="fill:none;stroke:#4169e1;stroke-width:3;"/>
    <path clip-path="url(#pf147df4811)" d="M 279.3 226.332501 
L 279.3 212.940719 
" style="fill:none;stroke:#4169e1;stroke-width:3;"/>
    <path clip-path="url(#pf147df4811)" d="M 300.3 186.267679 
L 300.3 154.158084 
" style="fill:none;stroke:#4169e1;stroke-width:3;"/>
    <path clip-path="url(#pf147df4811)" d="M 321.3 231.824027 
L 321.3 218.432245 
" style="fill:none;stroke:#4169e1;stroke-width:3;"/>
    <path clip-path="url(#pf147df4811)" d="M 342.3 226.332501 
L 342.3 212.940719 
" style="fill:none;stroke:#4169e1;stroke-width:3;"/>
    <path clip-path="url(#pf147df4811)" d="M 363.3 217.880088 
L 363.3 196.745123 
" style="fill:none;stroke:#4169e1;stroke-width:3;"/>
    <path clip-path="url(#pf147df4811)" d="M 384.3 226.44068 
L 384.3 211.655785 
" style="fill:none;stroke:#4169e1;stroke-width:3;"/>
    <path clip-path="url(#pf147df4811)" d="M 405.3 220.992192 
L 405.3 195.774777 
" style="fill:none;stroke:#4169e1;stroke-width:3;"/>
    <path clip-path="url(#pf147df4811)" d="M 426.3 152.304412 
L 426.3 100.835 
" style="fill:none;stroke:#4169e1;stroke-width:3;"/>
    <path clip-path="url(#pf147df4811)" d="M 447.3 237.541682 
L 447.3 212.714589 
" style="fill:none;stroke:#4169e1;stroke-width:3;"/>
    <path clip-path="url(#pf147df4811)" d="M 468.3 248.347227 
L 468.3 201.909044 
" style="fill:none;stroke:#4169e1;stroke-width:3;"/>
   </g>
   <g id="line2d_9">
    <path clip-path="url(#pf147df4811)" d="M 111.3 225.128136 
L 132.3 225.128136 
L 153.3 225.128136 
L 174.3 225.128136 
L 195.3 219.63661 
L 216.3 225.128136 
L 237.3 181.195932 
L 258.3 49.399322 
L 279.3 219.63661 
L 300.3 170.212881 
L 321.3 225.128136 
L 342.3 219.63661 
L 363.3 207.312605 
L 384.3 219.048232 
L 405.3 208.383484 
L 426.3 126.569706 
L 447.3 225.128136 
L 468.3 225.128136 
" style="fill:none;stroke:#4169e1;stroke-linecap:round;stroke-width:3;"/>
    <defs>
     <path d="M 0 3.25 
C 0.86191 3.25 1.688635 2.907559 2.298097 2.298097 
C 2.907559 1.688635 3.25 0.86191 3.25 0 
C 3.25 -0.86191 2.907559 -1.688635 2.298097 -2.298097 
C 1.688635 -2.907559 0.86191 -3.25 0 -3.25 
C -0.86191 -3.25 -1.688635 -2.907559 -2.298097 -2.298097 
C -2.907559 -1.688635 -3.25 -0.86191 -3.25 0 
C -3.25 0.86191 -2.907559 1.688635 -2.298097 2.298097 
C -1.688635 2.907559 -0.86191 3.25 0 3.25 
z
" id="m2c42816463" style="stroke:#4169e1;"/>
    </defs>
    <g clip-path="url(#pf147df4811)">
     <use style="fill:#4169e1;stroke:#4169e1;" x="111.3" xlink:href="#m2c42816463" y="225.128136"/>
     <use style="fill:#4169e1;stroke:#4169e1;" x="132.3" xlink:href="#m2c42816463" y="225.128136"/>
     <use style="fill:#4169e1;stroke:#4169e1;" x="153.3" xlink:href="#m2c42816463" y="225.128136"/>
     <use style="fill:#4169e1;stroke:#4169e1;" x="174.3" xlink:href="#m2c42816463" y="225.128136"/>
     <use style="fill:#4169e1;stroke:#4169e1;" x="195.3" xlink:href="#m2c42816463" y="219.63661"/>
     <use style="fill:#4169e1;stroke:#4169e1;" x="216.3" xlink:href="#m2c42816463" y="225.128136"/>
     <use style="fill:#4169e1;stroke:#4169e1;" x="237.3" xlink:href="#m2c42816463" y="181.195932"/>
     <use style="fill:#4169e1;stroke:#4169e1;" x="258.3" xlink:href="#m2c42816463" y="49.399322"/>
     <use style="fill:#4169e1;stroke:#4169e1;" x="279.3" xlink:href="#m2c42816463" y="219.63661"/>
     <use style="fill:#4169e1;stroke:#4169e1;" x="300.3" xlink:href="#m2c42816463" y="170.212881"/>
     <use style="fill:#4169e1;stroke:#4169e1;" x="321.3" xlink:href="#m2c42816463" y="225.128136"/>
     <use style="fill:#4169e1;stroke:#4169e1;" x="342.3" xlink:href="#m2c42816463" y="219.63661"/>
     <use style="fill:#4169e1;stroke:#4169e1;" x="363.3" xlink:href="#m2c42816463" y="207.312605"/>
     <use style="fill:#4169e1;stroke:#4169e1;" x="384.3" xlink:href="#m2c42816463" y="219.048232"/>
     <use style="fill:#4169e1;stroke:#4169e1;" x="405.3" xlink:href="#m2c42816463" y="208.383484"/>
     <use style="fill:#4169e1;stroke:#4169e1;" x="426.3" xlink:href="#m2c42816463" y="126.569706"/>
     <use style="fill:#4169e1;stroke:#4169e1;" x="447.3" xlink:href="#m2c42816463" y="225.128136"/>
     <use style="fill:#4169e1;stroke:#4169e1;" x="468.3" xlink:href="#m2c42816463" y="225.128136"/>
    </g>
   </g>
   <g id="patch_3">
    <path d="M 100.8 230.4 
L 100.8 23.04 
" style="fill:none;stroke:#262626;stroke-linecap:square;stroke-linejoin:miter;stroke-width:0.8;"/>
   </g>
   <g id="patch_4">
    <path d="M 100.8 230.4 
L 478.8 230.4 
" style="fill:none;stroke:#262626;stroke-linecap:square;stroke-linejoin:miter;stroke-width:0.8;"/>
   </g>
   <g id="text_11">
    <text style="fill:#262626;font-family:DejaVu Sans;font-size:20px;font-style:normal;font-weight:bold;text-anchor:middle;" transform="rotate(-0, 289.8, 17.04)" x="289.8" y="17.04">IGHD2-21*01</text>
   </g>
  </g>
 </g>
 <defs>
  <clipPath id="pf147df4811">
   <rect height="207.36" width="378" x="100.8" y="23.04"/>
  </clipPath>
 </defs>
</svg>
