<?xml version="1.0" encoding="utf-8" standalone="no"?>
<!DOCTYPE svg PUBLIC "-//W3C//DTD SVG 1.1//EN"
  "http://www.w3.org/Graphics/SVG/1.1/DTD/svg11.dtd">
<!-- Created with matplotlib (http://matplotlib.org/) -->
<svg height="288pt" version="1.1" viewBox="0 0 504 288" width="504pt" xmlns="http://www.w3.org/2000/svg" xmlns:xlink="http://www.w3.org/1999/xlink">
 <defs>
  <style type="text/css">
*{stroke-linecap:butt;stroke-linejoin:round;}
  </style>
 </defs>
 <g id="figure_1">
  <g id="patch_1">
   <path d="M 0 288 
L 504 288 
L 504 0 
L 0 0 
z
" style="fill:#ffffff;"/>
  </g>
  <g id="axes_1">
   <g id="patch_2">
    <path d="M 100.8 230.4 
L 478.8 230.4 
L 478.8 23.04 
L 100.8 23.04 
z
" style="fill:#ffffff;"/>
   </g>
   <g id="matplotlib.axis_1">
    <g id="xtick_1">
     <g id="line2d_1">
      <defs>
       <path d="M 0 0 
L 0 3.5 
" id="m7e7e7e5509" style="stroke:#262626;stroke-width:0.8;"/>
      </defs>
      <g>
       <use style="fill:#262626;stroke:#262626;stroke-width:0.8;" x="115.338462" xlink:href="#m7e7e7e5509" y="230.4"/>
      </g>
     </g>
     <g id="text_1">
      <text style="fill:#262626;font-family:DejaVu Sans;font-size:20px;font-style:normal;font-weight:normal;text-anchor:middle;" transform="rotate(-0, 115.338462, 252.596875)" x="115.338462" y="252.596875">10.0</text>
     </g>
    </g>
    <g id="xtick_2">
     <g id="line2d_2">
      <g>
       <use style="fill:#262626;stroke:#262626;stroke-width:0.8;" x="188.030769" xlink:href="#m7e7e7e5509" y="230.4"/>
      </g>
     </g>
     <g id="text_2">
      <text style="fill:#262626;font-family:DejaVu Sans;font-size:20px;font-style:normal;font-weight:normal;text-anchor:middle;" transform="rotate(-0, 188.030769, 252.596875)" x="188.030769" y="252.596875">12.5</text>
     </g>
    </g>
    <g id="xtick_3">
     <g id="line2d_3">
      <g>
       <use style="fill:#262626;stroke:#262626;stroke-width:0.8;" x="260.723077" xlink:href="#m7e7e7e5509" y="230.4"/>
      </g>
     </g>
     <g id="text_3">
      <text style="fill:#262626;font-family:DejaVu Sans;font-size:20px;font-style:normal;font-weight:normal;text-anchor:middle;" transform="rotate(-0, 260.723077, 252.596875)" x="260.723077" y="252.596875">15.0</text>
     </g>
    </g>
    <g id="xtick_4">
     <g id="line2d_4">
      <g>
       <use style="fill:#262626;stroke:#262626;stroke-width:0.8;" x="333.415385" xlink:href="#m7e7e7e5509" y="230.4"/>
      </g>
     </g>
     <g id="text_4">
      <text style="fill:#262626;font-family:DejaVu Sans;font-size:20px;font-style:normal;font-weight:normal;text-anchor:middle;" transform="rotate(-0, 333.415385, 252.596875)" x="333.415385" y="252.596875">17.5</text>
     </g>
    </g>
    <g id="xtick_5">
     <g id="line2d_5">
      <g>
       <use style="fill:#262626;stroke:#262626;stroke-width:0.8;" x="406.107692" xlink:href="#m7e7e7e5509" y="230.4"/>
      </g>
     </g>
     <g id="text_5">
      <text style="fill:#262626;font-family:DejaVu Sans;font-size:20px;font-style:normal;font-weight:normal;text-anchor:middle;" transform="rotate(-0, 406.107692, 252.596875)" x="406.107692" y="252.596875">20.0</text>
     </g>
    </g>
    <g id="xtick_6">
     <g id="line2d_6">
      <g>
       <use style="fill:#262626;stroke:#262626;stroke-width:0.8;" x="478.8" xlink:href="#m7e7e7e5509" y="230.4"/>
      </g>
     </g>
     <g id="text_6">
      <text style="fill:#262626;font-family:DejaVu Sans;font-size:20px;font-style:normal;font-weight:normal;text-anchor:middle;" transform="rotate(-0, 478.8, 252.596875)" x="478.8" y="252.596875">22.5</text>
     </g>
    </g>
    <g id="text_7">
     <text style="fill:#262626;font-family:DejaVu Sans;font-size:20px;font-style:normal;font-weight:normal;text-anchor:middle;" transform="rotate(-0, 289.8, 275.953125)" x="289.8" y="275.953125">position</text>
    </g>
   </g>
   <g id="matplotlib.axis_2">
    <g id="ytick_1">
     <g id="line2d_7">
      <defs>
       <path d="M 0 0 
L -3.5 0 
" id="m95a770d150" style="stroke:#262626;stroke-width:0.8;"/>
      </defs>
      <g>
       <use style="fill:#262626;stroke:#262626;stroke-width:0.8;" x="100.8" xlink:href="#m95a770d150" y="225.128136"/>
      </g>
     </g>
     <g id="text_8">
      <text style="fill:#262626;font-family:DejaVu Sans;font-size:20px;font-style:normal;font-weight:normal;text-anchor:end;" transform="rotate(-0, 93.8, 232.726573)" x="93.8" y="232.726573">0.0</text>
     </g>
    </g>
    <g id="ytick_2">
     <g id="line2d_8">
      <g>
       <use style="fill:#262626;stroke:#262626;stroke-width:0.8;" x="100.8" xlink:href="#m95a770d150" y="172.409492"/>
      </g>
     </g>
     <g id="text_9">
      <text style="fill:#262626;font-family:DejaVu Sans;font-size:20px;font-style:normal;font-weight:normal;text-anchor:end;" transform="rotate(-0, 93.8, 180.007929)" x="93.8" y="180.007929">0.1</text>
     </g>
    </g>
    <g id="ytick_3">
     <g id="line2d_9">
      <g>
       <use style="fill:#262626;stroke:#262626;stroke-width:0.8;" x="100.8" xlink:href="#m95a770d150" y="119.690847"/>
      </g>
     </g>
     <g id="text_10">
      <text style="fill:#262626;font-family:DejaVu Sans;font-size:20px;font-style:normal;font-weight:normal;text-anchor:end;" transform="rotate(-0, 93.8, 127.289285)" x="93.8" y="127.289285">0.2</text>
     </g>
    </g>
    <g id="ytick_4">
     <g id="line2d_10">
      <g>
       <use style="fill:#262626;stroke:#262626;stroke-width:0.8;" x="100.8" xlink:href="#m95a770d150" y="66.972203"/>
      </g>
     </g>
     <g id="text_11">
      <text style="fill:#262626;font-family:DejaVu Sans;font-size:20px;font-style:normal;font-weight:normal;text-anchor:end;" transform="rotate(-0, 93.8, 74.570641)" x="93.8" y="74.570641">0.3</text>
     </g>
    </g>
    <g id="text_12">
     <text style="fill:#262626;font-family:DejaVu Sans;font-size:20px;font-style:normal;font-weight:normal;text-anchor:middle;" transform="rotate(-90, 53.834375, 126.72)" x="53.834375" y="126.72">mut freq</text>
    </g>
   </g>
   <g id="LineCollection_1">
    <path clip-path="url(#p1251fa7628)" d="M 115.338462 289 
L 115.338462 92.113029 
" style="fill:none;stroke:#4169e1;stroke-width:3;"/>
    <path clip-path="url(#p1251fa7628)" d="M 144.415385 289 
L 144.415385 98.154762 
" style="fill:none;stroke:#4169e1;stroke-width:3;"/>
    <path clip-path="url(#p1251fa7628)" d="M 173.492308 289 
L 173.492308 114.314046 
" style="fill:none;stroke:#4169e1;stroke-width:3;"/>
    <path clip-path="url(#p1251fa7628)" d="M 202.569231 289 
L 202.569231 114.314046 
" style="fill:none;stroke:#4169e1;stroke-width:3;"/>
    <path clip-path="url(#p1251fa7628)" d="M 231.646154 160.213412 
L 231.646154 -1 
" style="fill:none;stroke:#4169e1;stroke-width:3;"/>
    <path clip-path="url(#p1251fa7628)" d="M 260.723077 289 
L 260.723077 114.314046 
" style="fill:none;stroke:#4169e1;stroke-width:3;"/>
    <path clip-path="url(#p1251fa7628)" d="M 289.8 289 
L 289.8 114.314046 
" style="fill:none;stroke:#4169e1;stroke-width:3;"/>
    <path clip-path="url(#p1251fa7628)" d="M 318.876923 289 
L 318.876923 114.314046 
" style="fill:none;stroke:#4169e1;stroke-width:3;"/>
    <path clip-path="url(#p1251fa7628)" d="M 347.953846 289 
L 347.953846 114.314046 
" style="fill:none;stroke:#4169e1;stroke-width:3;"/>
    <path clip-path="url(#p1251fa7628)" d="M 377.030769 289 
L 377.030769 114.314046 
" style="fill:none;stroke:#4169e1;stroke-width:3;"/>
    <path clip-path="url(#p1251fa7628)" d="M 406.107692 289 
L 406.107692 114.314046 
" style="fill:none;stroke:#4169e1;stroke-width:3;"/>
    <path clip-path="url(#p1251fa7628)" d="M 435.184615 289 
L 435.184615 114.314046 
" style="fill:none;stroke:#4169e1;stroke-width:3;"/>
    <path clip-path="url(#p1251fa7628)" d="M 464.261538 289 
L 464.261538 114.314046 
" style="fill:none;stroke:#4169e1;stroke-width:3;"/>
   </g>
   <g id="line2d_11">
    <path clip-path="url(#p1251fa7628)" d="M 115.338462 225.128136 
L 144.415385 225.128136 
L 173.492308 225.128136 
L 202.569231 225.128136 
L 231.646154 49.399322 
L 260.723077 225.128136 
L 289.8 225.128136 
L 318.876923 225.128136 
L 347.953846 225.128136 
L 377.030769 225.128136 
L 406.107692 225.128136 
L 435.184615 225.128136 
L 464.261538 225.128136 
" style="fill:none;stroke:#4169e1;stroke-linecap:round;stroke-width:3;"/>
    <defs>
     <path d="M 0 3.25 
C 0.86191 3.25 1.688635 2.907559 2.298097 2.298097 
C 2.907559 1.688635 3.25 0.86191 3.25 0 
C 3.25 -0.86191 2.907559 -1.688635 2.298097 -2.298097 
C 1.688635 -2.907559 0.86191 -3.25 0 -3.25 
C -0.86191 -3.25 -1.688635 -2.907559 -2.298097 -2.298097 
C -2.907559 -1.688635 -3.25 -0.86191 -3.25 0 
C -3.25 0.86191 -2.907559 1.688635 -2.298097 2.298097 
C -1.688635 2.907559 -0.86191 3.25 0 3.25 
z
" id="m4fed92a552" style="stroke:#4169e1;"/>
    </defs>
    <g clip-path="url(#p1251fa7628)">
     <use style="fill:#4169e1;stroke:#4169e1;" x="115.338462" xlink:href="#m4fed92a552" y="225.128136"/>
     <use style="fill:#4169e1;stroke:#4169e1;" x="144.415385" xlink:href="#m4fed92a552" y="225.128136"/>
     <use style="fill:#4169e1;stroke:#4169e1;" x="173.492308" xlink:href="#m4fed92a552" y="225.128136"/>
     <use style="fill:#4169e1;stroke:#4169e1;" x="202.569231" xlink:href="#m4fed92a552" y="225.128136"/>
     <use style="fill:#4169e1;stroke:#4169e1;" x="231.646154" xlink:href="#m4fed92a552" y="49.399322"/>
     <use style="fill:#4169e1;stroke:#4169e1;" x="260.723077" xlink:href="#m4fed92a552" y="225.128136"/>
     <use style="fill:#4169e1;stroke:#4169e1;" x="289.8" xlink:href="#m4fed92a552" y="225.128136"/>
     <use style="fill:#4169e1;stroke:#4169e1;" x="318.876923" xlink:href="#m4fed92a552" y="225.128136"/>
     <use style="fill:#4169e1;stroke:#4169e1;" x="347.953846" xlink:href="#m4fed92a552" y="225.128136"/>
     <use style="fill:#4169e1;stroke:#4169e1;" x="377.030769" xlink:href="#m4fed92a552" y="225.128136"/>
     <use style="fill:#4169e1;stroke:#4169e1;" x="406.107692" xlink:href="#m4fed92a552" y="225.128136"/>
     <use style="fill:#4169e1;stroke:#4169e1;" x="435.184615" xlink:href="#m4fed92a552" y="225.128136"/>
     <use style="fill:#4169e1;stroke:#4169e1;" x="464.261538" xlink:href="#m4fed92a552" y="225.128136"/>
    </g>
   </g>
   <g id="patch_3">
    <path d="M 100.8 230.4 
L 100.8 23.04 
" style="fill:none;stroke:#262626;stroke-linecap:square;stroke-linejoin:miter;stroke-width:0.8;"/>
   </g>
   <g id="patch_4">
    <path d="M 100.8 230.4 
L 478.8 230.4 
" style="fill:none;stroke:#262626;stroke-linecap:square;stroke-linejoin:miter;stroke-width:0.8;"/>
   </g>
   <g id="text_13">
    <text style="fill:#262626;font-family:DejaVu Sans;font-size:20px;font-style:normal;font-weight:bold;text-anchor:middle;" transform="rotate(-0, 289.8, 17.04)" x="289.8" y="17.04">IGHD3-22*01</text>
   </g>
  </g>
 </g>
 <defs>
  <clipPath id="p1251fa7628">
   <rect height="207.36" width="378" x="100.8" y="23.04"/>
  </clipPath>
 </defs>
</svg>
