<?xml version="1.0" encoding="utf-8" standalone="no"?>
<!DOCTYPE svg PUBLIC "-//W3C//DTD SVG 1.1//EN"
  "http://www.w3.org/Graphics/SVG/1.1/DTD/svg11.dtd">
<!-- Created with matplotlib (http://matplotlib.org/) -->
<svg height="288pt" version="1.1" viewBox="0 0 504 288" width="504pt" xmlns="http://www.w3.org/2000/svg" xmlns:xlink="http://www.w3.org/1999/xlink">
 <defs>
  <style type="text/css">
*{stroke-linecap:butt;stroke-linejoin:round;}
  </style>
 </defs>
 <g id="figure_1">
  <g id="patch_1">
   <path d="M 0 288 
L 504 288 
L 504 0 
L 0 0 
z
" style="fill:#ffffff;"/>
  </g>
  <g id="axes_1">
   <g id="patch_2">
    <path d="M 100.8 230.4 
L 478.8 230.4 
L 478.8 23.04 
L 100.8 23.04 
z
" style="fill:#ffffff;"/>
   </g>
   <g id="matplotlib.axis_1">
    <g id="xtick_1">
     <g id="line2d_1">
      <defs>
       <path d="M 0 0 
L 0 3.5 
" id="mf40cc109c0" style="stroke:#262626;stroke-width:0.8;"/>
      </defs>
      <g>
       <use style="fill:#262626;stroke:#262626;stroke-width:0.8;" x="111.917647" xlink:href="#mf40cc109c0" y="230.4"/>
      </g>
     </g>
     <g id="text_1">
      <text style="fill:#262626;font-family:DejaVu Sans;font-size:20px;font-style:normal;font-weight:normal;text-anchor:middle;" transform="rotate(-0, 111.917647, 252.596875)" x="111.917647" y="252.596875">0</text>
     </g>
    </g>
    <g id="xtick_2">
     <g id="line2d_2">
      <g>
       <use style="fill:#262626;stroke:#262626;stroke-width:0.8;" x="223.094118" xlink:href="#mf40cc109c0" y="230.4"/>
      </g>
     </g>
     <g id="text_2">
      <text style="fill:#262626;font-family:DejaVu Sans;font-size:20px;font-style:normal;font-weight:normal;text-anchor:middle;" transform="rotate(-0, 223.094118, 252.596875)" x="223.094118" y="252.596875">5</text>
     </g>
    </g>
    <g id="xtick_3">
     <g id="line2d_3">
      <g>
       <use style="fill:#262626;stroke:#262626;stroke-width:0.8;" x="334.270588" xlink:href="#mf40cc109c0" y="230.4"/>
      </g>
     </g>
     <g id="text_3">
      <text style="fill:#262626;font-family:DejaVu Sans;font-size:20px;font-style:normal;font-weight:normal;text-anchor:middle;" transform="rotate(-0, 334.270588, 252.596875)" x="334.270588" y="252.596875">10</text>
     </g>
    </g>
    <g id="xtick_4">
     <g id="line2d_4">
      <g>
       <use style="fill:#262626;stroke:#262626;stroke-width:0.8;" x="445.447059" xlink:href="#mf40cc109c0" y="230.4"/>
      </g>
     </g>
     <g id="text_4">
      <text style="fill:#262626;font-family:DejaVu Sans;font-size:20px;font-style:normal;font-weight:normal;text-anchor:middle;" transform="rotate(-0, 445.447059, 252.596875)" x="445.447059" y="252.596875">15</text>
     </g>
    </g>
    <g id="text_5">
     <text style="fill:#262626;font-family:DejaVu Sans;font-size:20px;font-style:normal;font-weight:normal;text-anchor:middle;" transform="rotate(-0, 289.8, 275.953125)" x="289.8" y="275.953125">position</text>
    </g>
   </g>
   <g id="matplotlib.axis_2">
    <g id="ytick_1">
     <g id="line2d_5">
      <defs>
       <path d="M 0 0 
L -3.5 0 
" id="md7ccf4e81d" style="stroke:#262626;stroke-width:0.8;"/>
      </defs>
      <g>
       <use style="fill:#262626;stroke:#262626;stroke-width:0.8;" x="100.8" xlink:href="#md7ccf4e81d" y="225.128136"/>
      </g>
     </g>
     <g id="text_6">
      <text style="fill:#262626;font-family:DejaVu Sans;font-size:20px;font-style:normal;font-weight:normal;text-anchor:end;" transform="rotate(-0, 93.8, 232.726573)" x="93.8" y="232.726573">0.0</text>
     </g>
    </g>
    <g id="ytick_2">
     <g id="line2d_6">
      <g>
       <use style="fill:#262626;stroke:#262626;stroke-width:0.8;" x="100.8" xlink:href="#md7ccf4e81d" y="163.623051"/>
      </g>
     </g>
     <g id="text_7">
      <text style="fill:#262626;font-family:DejaVu Sans;font-size:20px;font-style:normal;font-weight:normal;text-anchor:end;" transform="rotate(-0, 93.8, 171.221488)" x="93.8" y="171.221488">0.1</text>
     </g>
    </g>
    <g id="ytick_3">
     <g id="line2d_7">
      <g>
       <use style="fill:#262626;stroke:#262626;stroke-width:0.8;" x="100.8" xlink:href="#md7ccf4e81d" y="102.117966"/>
      </g>
     </g>
     <g id="text_8">
      <text style="fill:#262626;font-family:DejaVu Sans;font-size:20px;font-style:normal;font-weight:normal;text-anchor:end;" transform="rotate(-0, 93.8, 109.716404)" x="93.8" y="109.716404">0.2</text>
     </g>
    </g>
    <g id="ytick_4">
     <g id="line2d_8">
      <g>
       <use style="fill:#262626;stroke:#262626;stroke-width:0.8;" x="100.8" xlink:href="#md7ccf4e81d" y="40.612881"/>
      </g>
     </g>
     <g id="text_9">
      <text style="fill:#262626;font-family:DejaVu Sans;font-size:20px;font-style:normal;font-weight:normal;text-anchor:end;" transform="rotate(-0, 93.8, 48.211319)" x="93.8" y="48.211319">0.3</text>
     </g>
    </g>
    <g id="text_10">
     <text style="fill:#262626;font-family:DejaVu Sans;font-size:20px;font-style:normal;font-weight:normal;text-anchor:middle;" transform="rotate(-90, 53.834375, 126.72)" x="53.834375" y="126.72">mut freq</text>
    </g>
   </g>
   <g id="LineCollection_1">
    <path clip-path="url(#p522f078b82)" d="M 111.917647 289 
L 111.917647 95.845031 
" style="fill:none;stroke:#4169e1;stroke-width:3;"/>
    <path clip-path="url(#p522f078b82)" d="M 134.152941 289 
L 134.152941 95.845031 
" style="fill:none;stroke:#4169e1;stroke-width:3;"/>
    <path clip-path="url(#p522f078b82)" d="M 156.388235 289 
L 156.388235 95.845031 
" style="fill:none;stroke:#4169e1;stroke-width:3;"/>
    <path clip-path="url(#p522f078b82)" d="M 178.623529 289 
L 178.623529 145.616041 
" style="fill:none;stroke:#4169e1;stroke-width:3;"/>
    <path clip-path="url(#p522f078b82)" d="M 200.858824 216.775824 
L 200.858824 57.751634 
" style="fill:none;stroke:#4169e1;stroke-width:3;"/>
    <path clip-path="url(#p522f078b82)" d="M 223.094118 141.976529 
L 223.094118 -1 
" style="fill:none;stroke:#4169e1;stroke-width:3;"/>
    <path clip-path="url(#p522f078b82)" d="M 245.329412 289 
L 245.329412 145.616041 
" style="fill:none;stroke:#4169e1;stroke-width:3;"/>
    <path clip-path="url(#p522f078b82)" d="M 267.564706 289 
L 267.564706 145.616041 
" style="fill:none;stroke:#4169e1;stroke-width:3;"/>
    <path clip-path="url(#p522f078b82)" d="M 289.8 289 
L 289.8 145.616041 
" style="fill:none;stroke:#4169e1;stroke-width:3;"/>
    <path clip-path="url(#p522f078b82)" d="M 312.035294 289 
L 312.035294 145.616041 
" style="fill:none;stroke:#4169e1;stroke-width:3;"/>
    <path clip-path="url(#p522f078b82)" d="M 334.270588 289 
L 334.270588 145.616041 
" style="fill:none;stroke:#4169e1;stroke-width:3;"/>
    <path clip-path="url(#p522f078b82)" d="M 356.505882 289 
L 356.505882 145.616041 
" style="fill:none;stroke:#4169e1;stroke-width:3;"/>
    <path clip-path="url(#p522f078b82)" d="M 378.741176 289 
L 378.741176 145.616041 
" style="fill:none;stroke:#4169e1;stroke-width:3;"/>
    <path clip-path="url(#p522f078b82)" d="M 400.976471 289 
L 400.976471 158.970767 
" style="fill:none;stroke:#4169e1;stroke-width:3;"/>
    <path clip-path="url(#p522f078b82)" d="M 423.211765 289 
L 423.211765 158.970767 
" style="fill:none;stroke:#4169e1;stroke-width:3;"/>
    <path clip-path="url(#p522f078b82)" d="M 445.447059 289 
L 445.447059 125.969169 
" style="fill:none;stroke:#4169e1;stroke-width:3;"/>
    <path clip-path="url(#p522f078b82)" d="M 467.682353 289 
L 467.682353 125.969169 
" style="fill:none;stroke:#4169e1;stroke-width:3;"/>
   </g>
   <g id="line2d_9">
    <path clip-path="url(#p522f078b82)" d="M 111.917647 225.128136 
L 134.152941 225.128136 
L 156.388235 225.128136 
L 178.623529 225.128136 
L 200.858824 137.263729 
L 223.094118 49.399322 
L 245.329412 225.128136 
L 267.564706 225.128136 
L 289.8 225.128136 
L 312.035294 225.128136 
L 334.270588 225.128136 
L 356.505882 225.128136 
L 378.741176 225.128136 
L 400.976471 225.128136 
L 423.211765 225.128136 
L 445.447059 225.128136 
L 467.682353 225.128136 
" style="fill:none;stroke:#4169e1;stroke-linecap:round;stroke-width:3;"/>
    <defs>
     <path d="M 0 3.25 
C 0.86191 3.25 1.688635 2.907559 2.298097 2.298097 
C 2.907559 1.688635 3.25 0.86191 3.25 0 
C 3.25 -0.86191 2.907559 -1.688635 2.298097 -2.298097 
C 1.688635 -2.907559 0.86191 -3.25 0 -3.25 
C -0.86191 -3.25 -1.688635 -2.907559 -2.298097 -2.298097 
C -2.907559 -1.688635 -3.25 -0.86191 -3.25 0 
C -3.25 0.86191 -2.907559 1.688635 -2.298097 2.298097 
C -1.688635 2.907559 -0.86191 3.25 0 3.25 
z
" id="m386370266b" style="stroke:#4169e1;"/>
    </defs>
    <g clip-path="url(#p522f078b82)">
     <use style="fill:#4169e1;stroke:#4169e1;" x="111.917647" xlink:href="#m386370266b" y="225.128136"/>
     <use style="fill:#4169e1;stroke:#4169e1;" x="134.152941" xlink:href="#m386370266b" y="225.128136"/>
     <use style="fill:#4169e1;stroke:#4169e1;" x="156.388235" xlink:href="#m386370266b" y="225.128136"/>
     <use style="fill:#4169e1;stroke:#4169e1;" x="178.623529" xlink:href="#m386370266b" y="225.128136"/>
     <use style="fill:#4169e1;stroke:#4169e1;" x="200.858824" xlink:href="#m386370266b" y="137.263729"/>
     <use style="fill:#4169e1;stroke:#4169e1;" x="223.094118" xlink:href="#m386370266b" y="49.399322"/>
     <use style="fill:#4169e1;stroke:#4169e1;" x="245.329412" xlink:href="#m386370266b" y="225.128136"/>
     <use style="fill:#4169e1;stroke:#4169e1;" x="267.564706" xlink:href="#m386370266b" y="225.128136"/>
     <use style="fill:#4169e1;stroke:#4169e1;" x="289.8" xlink:href="#m386370266b" y="225.128136"/>
     <use style="fill:#4169e1;stroke:#4169e1;" x="312.035294" xlink:href="#m386370266b" y="225.128136"/>
     <use style="fill:#4169e1;stroke:#4169e1;" x="334.270588" xlink:href="#m386370266b" y="225.128136"/>
     <use style="fill:#4169e1;stroke:#4169e1;" x="356.505882" xlink:href="#m386370266b" y="225.128136"/>
     <use style="fill:#4169e1;stroke:#4169e1;" x="378.741176" xlink:href="#m386370266b" y="225.128136"/>
     <use style="fill:#4169e1;stroke:#4169e1;" x="400.976471" xlink:href="#m386370266b" y="225.128136"/>
     <use style="fill:#4169e1;stroke:#4169e1;" x="423.211765" xlink:href="#m386370266b" y="225.128136"/>
     <use style="fill:#4169e1;stroke:#4169e1;" x="445.447059" xlink:href="#m386370266b" y="225.128136"/>
     <use style="fill:#4169e1;stroke:#4169e1;" x="467.682353" xlink:href="#m386370266b" y="225.128136"/>
    </g>
   </g>
   <g id="patch_3">
    <path d="M 100.8 230.4 
L 100.8 23.04 
" style="fill:none;stroke:#262626;stroke-linecap:square;stroke-linejoin:miter;stroke-width:0.8;"/>
   </g>
   <g id="patch_4">
    <path d="M 100.8 230.4 
L 478.8 230.4 
" style="fill:none;stroke:#262626;stroke-linecap:square;stroke-linejoin:miter;stroke-width:0.8;"/>
   </g>
   <g id="text_11">
    <text style="fill:#262626;font-family:DejaVu Sans;font-size:20px;font-style:normal;font-weight:bold;text-anchor:middle;" transform="rotate(-0, 289.8, 17.04)" x="289.8" y="17.04">IGHD1-1*01</text>
   </g>
  </g>
 </g>
 <defs>
  <clipPath id="p522f078b82">
   <rect height="207.36" width="378" x="100.8" y="23.04"/>
  </clipPath>
 </defs>
</svg>
