<?xml version="1.0" encoding="utf-8" standalone="no"?>
<!DOCTYPE svg PUBLIC "-//W3C//DTD SVG 1.1//EN"
  "http://www.w3.org/Graphics/SVG/1.1/DTD/svg11.dtd">
<!-- Created with matplotlib (http://matplotlib.org/) -->
<svg height="345.6pt" version="1.1" viewBox="0 0 460.8 345.6" width="460.8pt" xmlns="http://www.w3.org/2000/svg" xmlns:xlink="http://www.w3.org/1999/xlink">
 <defs>
  <style type="text/css">
*{stroke-linecap:butt;stroke-linejoin:round;}
  </style>
 </defs>
 <g id="figure_1">
  <g id="patch_1">
   <path d="M 0 345.6 
L 460.8 345.6 
L 460.8 0 
L 0 0 
z
" style="fill:#ffffff;"/>
  </g>
  <g id="axes_1">
   <g id="patch_2">
    <path d="M 92.16 276.48 
L 437.76 276.48 
L 437.76 27.648 
L 92.16 27.648 
z
" style="fill:#ffffff;"/>
   </g>
   <g id="matplotlib.axis_1">
    <g id="xtick_1">
     <g id="line2d_1">
      <defs>
       <path d="M 0 0 
L 0 3.5 
" id="m70bfa18bb2" style="stroke:#262626;stroke-width:0.8;"/>
      </defs>
      <g>
       <use style="fill:#262626;stroke:#262626;stroke-width:0.8;" x="100.8" xlink:href="#m70bfa18bb2" y="276.48"/>
      </g>
     </g>
     <g id="text_1">
      <text style="fill:#262626;font-family:DejaVu Sans;font-size:20px;font-style:normal;font-weight:normal;text-anchor:middle;" transform="rotate(-0, 100.8, 298.676875)" x="100.8" y="298.676875">10</text>
     </g>
    </g>
    <g id="xtick_2">
     <g id="line2d_2">
      <g>
       <use style="fill:#262626;stroke:#262626;stroke-width:0.8;" x="187.2" xlink:href="#m70bfa18bb2" y="276.48"/>
      </g>
     </g>
     <g id="text_2">
      <text style="fill:#262626;font-family:DejaVu Sans;font-size:20px;font-style:normal;font-weight:normal;text-anchor:middle;" transform="rotate(-0, 187.2, 298.676875)" x="187.2" y="298.676875">15</text>
     </g>
    </g>
    <g id="xtick_3">
     <g id="line2d_3">
      <g>
       <use style="fill:#262626;stroke:#262626;stroke-width:0.8;" x="273.6" xlink:href="#m70bfa18bb2" y="276.48"/>
      </g>
     </g>
     <g id="text_3">
      <text style="fill:#262626;font-family:DejaVu Sans;font-size:20px;font-style:normal;font-weight:normal;text-anchor:middle;" transform="rotate(-0, 273.6, 298.676875)" x="273.6" y="298.676875">20</text>
     </g>
    </g>
    <g id="xtick_4">
     <g id="line2d_4">
      <g>
       <use style="fill:#262626;stroke:#262626;stroke-width:0.8;" x="360" xlink:href="#m70bfa18bb2" y="276.48"/>
      </g>
     </g>
     <g id="text_4">
      <text style="fill:#262626;font-family:DejaVu Sans;font-size:20px;font-style:normal;font-weight:normal;text-anchor:middle;" transform="rotate(-0, 360, 298.676875)" x="360" y="298.676875">25</text>
     </g>
    </g>
    <g id="text_5">
     <text style="fill:#262626;font-family:DejaVu Sans;font-size:20px;font-style:normal;font-weight:normal;text-anchor:middle;" transform="rotate(-0, 264.96, 322.033125)" x="264.96" y="322.033125">amino acids</text>
    </g>
   </g>
   <g id="matplotlib.axis_2">
    <g id="ytick_1">
     <g id="line2d_5">
      <defs>
       <path d="M 0 0 
L -3.5 0 
" id="m07e61722ba" style="stroke:#262626;stroke-width:0.8;"/>
      </defs>
      <g>
       <use style="fill:#262626;stroke:#262626;stroke-width:0.8;" x="92.16" xlink:href="#m07e61722ba" y="270.153763"/>
      </g>
     </g>
     <g id="text_6">
      <text style="fill:#262626;font-family:DejaVu Sans;font-size:20px;font-style:normal;font-weight:normal;text-anchor:end;" transform="rotate(-0, 85.16, 277.7522)" x="85.16" y="277.7522">0.0</text>
     </g>
    </g>
    <g id="ytick_2">
     <g id="line2d_6">
      <g>
       <use style="fill:#262626;stroke:#262626;stroke-width:0.8;" x="92.16" xlink:href="#m07e61722ba" y="201.278017"/>
      </g>
     </g>
     <g id="text_7">
      <text style="fill:#262626;font-family:DejaVu Sans;font-size:20px;font-style:normal;font-weight:normal;text-anchor:end;" transform="rotate(-0, 85.16, 208.876454)" x="85.16" y="208.876454">0.2</text>
     </g>
    </g>
    <g id="ytick_3">
     <g id="line2d_7">
      <g>
       <use style="fill:#262626;stroke:#262626;stroke-width:0.8;" x="92.16" xlink:href="#m07e61722ba" y="132.40227"/>
      </g>
     </g>
     <g id="text_8">
      <text style="fill:#262626;font-family:DejaVu Sans;font-size:20px;font-style:normal;font-weight:normal;text-anchor:end;" transform="rotate(-0, 85.16, 140.000708)" x="85.16" y="140.000708">0.4</text>
     </g>
    </g>
    <g id="ytick_4">
     <g id="line2d_8">
      <g>
       <use style="fill:#262626;stroke:#262626;stroke-width:0.8;" x="92.16" xlink:href="#m07e61722ba" y="63.526524"/>
      </g>
     </g>
     <g id="text_9">
      <text style="fill:#262626;font-family:DejaVu Sans;font-size:20px;font-style:normal;font-weight:normal;text-anchor:end;" transform="rotate(-0, 85.16, 71.124962)" x="85.16" y="71.124962">0.6</text>
     </g>
    </g>
    <g id="text_10">
     <text style="fill:#262626;font-family:DejaVu Sans;font-size:20px;font-style:normal;font-weight:normal;text-anchor:middle;" transform="rotate(-90, 45.194375, 152.064)" x="45.194375" y="152.064">freq (3000 total)</text>
    </g>
   </g>
   <g id="LineCollection_1">
    <path clip-path="url(#p01f1b72f46)" d="M 100.8 270.086519 
L 100.8 269.761835 
" style="fill:none;stroke:#4169e1;stroke-width:3;"/>
    <path clip-path="url(#p01f1b72f46)" d="M 118.08 270.153763 
L 118.08 270.153763 
" style="fill:none;stroke:#4169e1;stroke-width:3;"/>
    <path clip-path="url(#p01f1b72f46)" d="M 135.36 269.368841 
L 135.36 268.642827 
" style="fill:none;stroke:#4169e1;stroke-width:3;"/>
    <path clip-path="url(#p01f1b72f46)" d="M 152.64 262.970728 
L 152.64 261.036204 
" style="fill:none;stroke:#4169e1;stroke-width:3;"/>
    <path clip-path="url(#p01f1b72f46)" d="M 169.92 256.100337 
L 169.92 253.442689 
" style="fill:none;stroke:#4169e1;stroke-width:3;"/>
    <path clip-path="url(#p01f1b72f46)" d="M 187.2 268.87646 
L 187.2 267.987278 
" style="fill:none;stroke:#4169e1;stroke-width:3;"/>
    <path clip-path="url(#p01f1b72f46)" d="M 204.48 268.675587 
L 204.48 267.72898 
" style="fill:none;stroke:#4169e1;stroke-width:3;"/>
    <path clip-path="url(#p01f1b72f46)" d="M 221.76 269.465005 
L 221.76 268.776248 
" style="fill:none;stroke:#4169e1;stroke-width:3;"/>
    <path clip-path="url(#p01f1b72f46)" d="M 239.04 64.199238 
L 239.04 54.359135 
" style="fill:none;stroke:#4169e1;stroke-width:3;"/>
    <path clip-path="url(#p01f1b72f46)" d="M 256.32 265.33246 
L 256.32 263.72536 
" style="fill:none;stroke:#4169e1;stroke-width:3;"/>
    <path clip-path="url(#p01f1b72f46)" d="M 273.6 268.473068 
L 273.6 267.472327 
" style="fill:none;stroke:#4169e1;stroke-width:3;"/>
    <path clip-path="url(#p01f1b72f46)" d="M 290.88 262.105425 
L 290.88 260.064821 
" style="fill:none;stroke:#4169e1;stroke-width:3;"/>
    <path clip-path="url(#p01f1b72f46)" d="M 308.16 268.776248 
L 308.16 267.857905 
" style="fill:none;stroke:#4169e1;stroke-width:3;"/>
    <path clip-path="url(#p01f1b72f46)" d="M 325.44 268.371274 
L 325.44 267.344535 
" style="fill:none;stroke:#4169e1;stroke-width:3;"/>
    <path clip-path="url(#p01f1b72f46)" d="M 342.72 256.759004 
L 342.72 254.161537 
" style="fill:none;stroke:#4169e1;stroke-width:3;"/>
    <path clip-path="url(#p01f1b72f46)" d="M 360 205.326685 
L 360 199.754792 
" style="fill:none;stroke:#4169e1;stroke-width:3;"/>
    <path clip-path="url(#p01f1b72f46)" d="M 377.28 270.153763 
L 377.28 270.153763 
" style="fill:none;stroke:#4169e1;stroke-width:3;"/>
    <path clip-path="url(#p01f1b72f46)" d="M 394.56 270.153763 
L 394.56 269.924177 
" style="fill:none;stroke:#4169e1;stroke-width:3;"/>
    <path clip-path="url(#p01f1b72f46)" d="M 411.84 270.153763 
L 411.84 270.153763 
" style="fill:none;stroke:#4169e1;stroke-width:3;"/>
    <path clip-path="url(#p01f1b72f46)" d="M 429.12 269.924177 
L 429.12 269.465005 
" style="fill:none;stroke:#4169e1;stroke-width:3;"/>
   </g>
   <g id="line2d_9">
    <path clip-path="url(#p01f1b72f46)" d="M 100.8 269.924177 
L 118.08 270.153763 
L 135.36 269.005834 
L 152.64 262.003466 
L 169.92 254.771513 
L 187.2 268.431869 
L 204.48 268.202283 
L 221.76 269.120627 
L 239.04 59.279186 
L 256.32 264.52891 
L 273.6 267.972697 
L 290.88 261.085123 
L 308.16 268.317076 
L 325.44 267.857905 
L 342.72 255.46027 
L 360 202.540739 
L 377.28 270.153763 
L 394.56 270.03897 
L 411.84 270.153763 
L 429.12 269.694591 
" style="fill:none;stroke:#4169e1;stroke-linecap:round;stroke-width:3;"/>
    <defs>
     <path d="M 0 3.25 
C 0.86191 3.25 1.688635 2.907559 2.298097 2.298097 
C 2.907559 1.688635 3.25 0.86191 3.25 0 
C 3.25 -0.86191 2.907559 -1.688635 2.298097 -2.298097 
C 1.688635 -2.907559 0.86191 -3.25 0 -3.25 
C -0.86191 -3.25 -1.688635 -2.907559 -2.298097 -2.298097 
C -2.907559 -1.688635 -3.25 -0.86191 -3.25 0 
C -3.25 0.86191 -2.907559 1.688635 -2.298097 2.298097 
C -1.688635 2.907559 -0.86191 3.25 0 3.25 
z
" id="me83c724eb8" style="stroke:#4169e1;"/>
    </defs>
    <g clip-path="url(#p01f1b72f46)">
     <use style="fill:#4169e1;stroke:#4169e1;" x="100.8" xlink:href="#me83c724eb8" y="269.924177"/>
     <use style="fill:#4169e1;stroke:#4169e1;" x="118.08" xlink:href="#me83c724eb8" y="270.153763"/>
     <use style="fill:#4169e1;stroke:#4169e1;" x="135.36" xlink:href="#me83c724eb8" y="269.005834"/>
     <use style="fill:#4169e1;stroke:#4169e1;" x="152.64" xlink:href="#me83c724eb8" y="262.003466"/>
     <use style="fill:#4169e1;stroke:#4169e1;" x="169.92" xlink:href="#me83c724eb8" y="254.771513"/>
     <use style="fill:#4169e1;stroke:#4169e1;" x="187.2" xlink:href="#me83c724eb8" y="268.431869"/>
     <use style="fill:#4169e1;stroke:#4169e1;" x="204.48" xlink:href="#me83c724eb8" y="268.202283"/>
     <use style="fill:#4169e1;stroke:#4169e1;" x="221.76" xlink:href="#me83c724eb8" y="269.120627"/>
     <use style="fill:#4169e1;stroke:#4169e1;" x="239.04" xlink:href="#me83c724eb8" y="59.279186"/>
     <use style="fill:#4169e1;stroke:#4169e1;" x="256.32" xlink:href="#me83c724eb8" y="264.52891"/>
     <use style="fill:#4169e1;stroke:#4169e1;" x="273.6" xlink:href="#me83c724eb8" y="267.972697"/>
     <use style="fill:#4169e1;stroke:#4169e1;" x="290.88" xlink:href="#me83c724eb8" y="261.085123"/>
     <use style="fill:#4169e1;stroke:#4169e1;" x="308.16" xlink:href="#me83c724eb8" y="268.317076"/>
     <use style="fill:#4169e1;stroke:#4169e1;" x="325.44" xlink:href="#me83c724eb8" y="267.857905"/>
     <use style="fill:#4169e1;stroke:#4169e1;" x="342.72" xlink:href="#me83c724eb8" y="255.46027"/>
     <use style="fill:#4169e1;stroke:#4169e1;" x="360" xlink:href="#me83c724eb8" y="202.540739"/>
     <use style="fill:#4169e1;stroke:#4169e1;" x="377.28" xlink:href="#me83c724eb8" y="270.153763"/>
     <use style="fill:#4169e1;stroke:#4169e1;" x="394.56" xlink:href="#me83c724eb8" y="270.03897"/>
     <use style="fill:#4169e1;stroke:#4169e1;" x="411.84" xlink:href="#me83c724eb8" y="270.153763"/>
     <use style="fill:#4169e1;stroke:#4169e1;" x="429.12" xlink:href="#me83c724eb8" y="269.694591"/>
    </g>
   </g>
   <g id="patch_3">
    <path d="M 92.16 276.48 
L 92.16 27.648 
" style="fill:none;stroke:#262626;stroke-linecap:square;stroke-linejoin:miter;stroke-width:0.8;"/>
   </g>
   <g id="patch_4">
    <path d="M 92.16 276.48 
L 437.76 276.48 
" style="fill:none;stroke:#262626;stroke-linecap:square;stroke-linejoin:miter;stroke-width:0.8;"/>
   </g>
   <g id="text_11">
    <text style="fill:#262626;font-family:DejaVu Sans;font-size:15px;font-style:normal;font-weight:bold;text-anchor:middle;" transform="rotate(-0, 264.96, 21.648)" x="264.96" y="21.648">AA CDR3 length (mean 19.5)</text>
   </g>
  </g>
 </g>
 <defs>
  <clipPath id="p01f1b72f46">
   <rect height="248.832" width="345.6" x="92.16" y="27.648"/>
  </clipPath>
 </defs>
</svg>
