<?xml version="1.0" encoding="utf-8" standalone="no"?>
<!DOCTYPE svg PUBLIC "-//W3C//DTD SVG 1.1//EN"
  "http://www.w3.org/Graphics/SVG/1.1/DTD/svg11.dtd">
<!-- Created with matplotlib (http://matplotlib.org/) -->
<svg height="345.6pt" version="1.1" viewBox="0 0 460.8 345.6" width="460.8pt" xmlns="http://www.w3.org/2000/svg" xmlns:xlink="http://www.w3.org/1999/xlink">
 <defs>
  <style type="text/css">
*{stroke-linecap:butt;stroke-linejoin:round;}
  </style>
 </defs>
 <g id="figure_1">
  <g id="patch_1">
   <path d="M 0 345.6 
L 460.8 345.6 
L 460.8 0 
L 0 0 
z
" style="fill:#ffffff;"/>
  </g>
  <g id="axes_1">
   <g id="patch_2">
    <path d="M 92.16 276.48 
L 437.76 276.48 
L 437.76 27.648 
L 92.16 27.648 
z
" style="fill:#ffffff;"/>
   </g>
   <g id="matplotlib.axis_1">
    <g id="xtick_1">
     <g id="line2d_1">
      <defs>
       <path d="M 0 0 
L 0 3.5 
" id="mdba7de83ec" style="stroke:#262626;stroke-width:0.8;"/>
      </defs>
      <g>
       <use style="fill:#262626;stroke:#262626;stroke-width:0.8;" x="101.254737" xlink:href="#mdba7de83ec" y="276.48"/>
      </g>
     </g>
     <g id="text_1">
      <text style="fill:#262626;font-family:DejaVu Sans;font-size:20px;font-style:normal;font-weight:normal;text-anchor:middle;" transform="rotate(-0, 101.254737, 298.676875)" x="101.254737" y="298.676875">0</text>
     </g>
    </g>
    <g id="xtick_2">
     <g id="line2d_2">
      <g>
       <use style="fill:#262626;stroke:#262626;stroke-width:0.8;" x="192.202105" xlink:href="#mdba7de83ec" y="276.48"/>
      </g>
     </g>
     <g id="text_2">
      <text style="fill:#262626;font-family:DejaVu Sans;font-size:20px;font-style:normal;font-weight:normal;text-anchor:middle;" transform="rotate(-0, 192.202105, 298.676875)" x="192.202105" y="298.676875">5</text>
     </g>
    </g>
    <g id="xtick_3">
     <g id="line2d_3">
      <g>
       <use style="fill:#262626;stroke:#262626;stroke-width:0.8;" x="283.149474" xlink:href="#mdba7de83ec" y="276.48"/>
      </g>
     </g>
     <g id="text_3">
      <text style="fill:#262626;font-family:DejaVu Sans;font-size:20px;font-style:normal;font-weight:normal;text-anchor:middle;" transform="rotate(-0, 283.149474, 298.676875)" x="283.149474" y="298.676875">10</text>
     </g>
    </g>
    <g id="xtick_4">
     <g id="line2d_4">
      <g>
       <use style="fill:#262626;stroke:#262626;stroke-width:0.8;" x="374.096842" xlink:href="#mdba7de83ec" y="276.48"/>
      </g>
     </g>
     <g id="text_4">
      <text style="fill:#262626;font-family:DejaVu Sans;font-size:20px;font-style:normal;font-weight:normal;text-anchor:middle;" transform="rotate(-0, 374.096842, 298.676875)" x="374.096842" y="298.676875">15</text>
     </g>
    </g>
    <g id="text_5">
     <text style="fill:#262626;font-family:DejaVu Sans;font-size:20px;font-style:normal;font-weight:normal;text-anchor:middle;" transform="rotate(-0, 264.96, 322.033125)" x="264.96" y="322.033125">bases</text>
    </g>
   </g>
   <g id="matplotlib.axis_2">
    <g id="ytick_1">
     <g id="line2d_5">
      <defs>
       <path d="M 0 0 
L -3.5 0 
" id="m3b41d1ae7e" style="stroke:#262626;stroke-width:0.8;"/>
      </defs>
      <g>
       <use style="fill:#262626;stroke:#262626;stroke-width:0.8;" x="92.16" xlink:href="#m3b41d1ae7e" y="270.153763"/>
      </g>
     </g>
     <g id="text_6">
      <text style="fill:#262626;font-family:DejaVu Sans;font-size:20px;font-style:normal;font-weight:normal;text-anchor:end;" transform="rotate(-0, 85.16, 277.7522)" x="85.16" y="277.7522">0.0</text>
     </g>
    </g>
    <g id="ytick_2">
     <g id="line2d_6">
      <g>
       <use style="fill:#262626;stroke:#262626;stroke-width:0.8;" x="92.16" xlink:href="#m3b41d1ae7e" y="192.957457"/>
      </g>
     </g>
     <g id="text_7">
      <text style="fill:#262626;font-family:DejaVu Sans;font-size:20px;font-style:normal;font-weight:normal;text-anchor:end;" transform="rotate(-0, 85.16, 200.555894)" x="85.16" y="200.555894">0.2</text>
     </g>
    </g>
    <g id="ytick_3">
     <g id="line2d_7">
      <g>
       <use style="fill:#262626;stroke:#262626;stroke-width:0.8;" x="92.16" xlink:href="#m3b41d1ae7e" y="115.76115"/>
      </g>
     </g>
     <g id="text_8">
      <text style="fill:#262626;font-family:DejaVu Sans;font-size:20px;font-style:normal;font-weight:normal;text-anchor:end;" transform="rotate(-0, 85.16, 123.359588)" x="85.16" y="123.359588">0.4</text>
     </g>
    </g>
    <g id="ytick_4">
     <g id="line2d_8">
      <g>
       <use style="fill:#262626;stroke:#262626;stroke-width:0.8;" x="92.16" xlink:href="#m3b41d1ae7e" y="38.564844"/>
      </g>
     </g>
     <g id="text_9">
      <text style="fill:#262626;font-family:DejaVu Sans;font-size:20px;font-style:normal;font-weight:normal;text-anchor:end;" transform="rotate(-0, 85.16, 46.163282)" x="85.16" y="46.163282">0.6</text>
     </g>
    </g>
    <g id="text_10">
     <text style="fill:#262626;font-family:DejaVu Sans;font-size:20px;font-style:normal;font-weight:normal;text-anchor:middle;" transform="rotate(-90, 45.194375, 152.064)" x="45.194375" y="152.064">freq (3000 total)</text>
    </g>
   </g>
   <g id="LineCollection_1">
    <path clip-path="url(#p216e1c0e9a)" d="M 101.254737 194.848532 
L 101.254737 188.493171 
" style="fill:none;stroke:#4169e1;stroke-width:3;"/>
    <path clip-path="url(#p216e1c0e9a)" d="M 119.444211 255.755434 
L 119.444211 252.901606 
" style="fill:none;stroke:#4169e1;stroke-width:3;"/>
    <path clip-path="url(#p216e1c0e9a)" d="M 137.633684 254.771823 
L 137.633684 251.826649 
" style="fill:none;stroke:#4169e1;stroke-width:3;"/>
    <path clip-path="url(#p216e1c0e9a)" d="M 155.823158 261.011696 
L 155.823158 258.710147 
" style="fill:none;stroke:#4169e1;stroke-width:3;"/>
    <path clip-path="url(#p216e1c0e9a)" d="M 174.012632 253.417137 
L 174.012632 250.350803 
" style="fill:none;stroke:#4169e1;stroke-width:3;"/>
    <path clip-path="url(#p216e1c0e9a)" d="M 192.202105 269.274018 
L 192.202105 268.460297 
" style="fill:none;stroke:#4169e1;stroke-width:3;"/>
    <path clip-path="url(#p216e1c0e9a)" d="M 210.391579 269.798154 
L 210.391579 269.222767 
" style="fill:none;stroke:#4169e1;stroke-width:3;"/>
    <path clip-path="url(#p216e1c0e9a)" d="M 228.581053 269.896442 
L 228.581053 269.3818 
" style="fill:none;stroke:#4169e1;stroke-width:3;"/>
    <path clip-path="url(#p216e1c0e9a)" d="M 246.770526 269.165216 
L 246.770526 268.311778 
" style="fill:none;stroke:#4169e1;stroke-width:3;"/>
    <path clip-path="url(#p216e1c0e9a)" d="M 264.96 270.078395 
L 264.96 269.714488 
" style="fill:none;stroke:#4169e1;stroke-width:3;"/>
    <path clip-path="url(#p216e1c0e9a)" d="M 283.149474 265.939487 
L 283.149474 264.332518 
" style="fill:none;stroke:#4169e1;stroke-width:3;"/>
    <path clip-path="url(#p216e1c0e9a)" d="M 301.338947 267.115466 
L 301.338947 265.72975 
" style="fill:none;stroke:#4169e1;stroke-width:3;"/>
    <path clip-path="url(#p216e1c0e9a)" d="M 319.528421 269.165216 
L 319.528421 268.311778 
" style="fill:none;stroke:#4169e1;stroke-width:3;"/>
    <path clip-path="url(#p216e1c0e9a)" d="M 337.717895 267.696216 
L 337.717895 266.435605 
" style="fill:none;stroke:#4169e1;stroke-width:3;"/>
    <path clip-path="url(#p216e1c0e9a)" d="M 355.907368 266.647064 
L 355.907368 265.168868 
" style="fill:none;stroke:#4169e1;stroke-width:3;"/>
    <path clip-path="url(#p216e1c0e9a)" d="M 374.096842 64.487951 
L 374.096842 54.070422 
" style="fill:none;stroke:#4169e1;stroke-width:3;"/>
    <path clip-path="url(#p216e1c0e9a)" d="M 392.286316 269.3818 
L 392.286316 268.609837 
" style="fill:none;stroke:#4169e1;stroke-width:3;"/>
    <path clip-path="url(#p216e1c0e9a)" d="M 410.475789 259.672999 
L 410.475789 257.218313 
" style="fill:none;stroke:#4169e1;stroke-width:3;"/>
    <path clip-path="url(#p216e1c0e9a)" d="M 428.665263 269.593543 
L 428.665263 268.912735 
" style="fill:none;stroke:#4169e1;stroke-width:3;"/>
   </g>
   <g id="line2d_9">
    <path clip-path="url(#p216e1c0e9a)" d="M 101.254737 191.670851 
L 119.444211 254.32852 
L 137.633684 253.299236 
L 155.823158 259.860922 
L 174.012632 251.88397 
L 192.202105 268.867158 
L 210.391579 269.51046 
L 228.581053 269.639121 
L 246.770526 268.738497 
L 264.96 269.896442 
L 283.149474 265.136003 
L 301.338947 266.422608 
L 319.528421 268.738497 
L 337.717895 267.06591 
L 355.907368 265.907966 
L 374.096842 59.279186 
L 392.286316 268.995818 
L 410.475789 258.445656 
L 428.665263 269.253139 
" style="fill:none;stroke:#4169e1;stroke-linecap:round;stroke-width:3;"/>
    <defs>
     <path d="M 0 3.25 
C 0.86191 3.25 1.688635 2.907559 2.298097 2.298097 
C 2.907559 1.688635 3.25 0.86191 3.25 0 
C 3.25 -0.86191 2.907559 -1.688635 2.298097 -2.298097 
C 1.688635 -2.907559 0.86191 -3.25 0 -3.25 
C -0.86191 -3.25 -1.688635 -2.907559 -2.298097 -2.298097 
C -2.907559 -1.688635 -3.25 -0.86191 -3.25 0 
C -3.25 0.86191 -2.907559 1.688635 -2.298097 2.298097 
C -1.688635 2.907559 -0.86191 3.25 0 3.25 
z
" id="m4f21f6bc63" style="stroke:#4169e1;"/>
    </defs>
    <g clip-path="url(#p216e1c0e9a)">
     <use style="fill:#4169e1;stroke:#4169e1;" x="101.254737" xlink:href="#m4f21f6bc63" y="191.670851"/>
     <use style="fill:#4169e1;stroke:#4169e1;" x="119.444211" xlink:href="#m4f21f6bc63" y="254.32852"/>
     <use style="fill:#4169e1;stroke:#4169e1;" x="137.633684" xlink:href="#m4f21f6bc63" y="253.299236"/>
     <use style="fill:#4169e1;stroke:#4169e1;" x="155.823158" xlink:href="#m4f21f6bc63" y="259.860922"/>
     <use style="fill:#4169e1;stroke:#4169e1;" x="174.012632" xlink:href="#m4f21f6bc63" y="251.88397"/>
     <use style="fill:#4169e1;stroke:#4169e1;" x="192.202105" xlink:href="#m4f21f6bc63" y="268.867158"/>
     <use style="fill:#4169e1;stroke:#4169e1;" x="210.391579" xlink:href="#m4f21f6bc63" y="269.51046"/>
     <use style="fill:#4169e1;stroke:#4169e1;" x="228.581053" xlink:href="#m4f21f6bc63" y="269.639121"/>
     <use style="fill:#4169e1;stroke:#4169e1;" x="246.770526" xlink:href="#m4f21f6bc63" y="268.738497"/>
     <use style="fill:#4169e1;stroke:#4169e1;" x="264.96" xlink:href="#m4f21f6bc63" y="269.896442"/>
     <use style="fill:#4169e1;stroke:#4169e1;" x="283.149474" xlink:href="#m4f21f6bc63" y="265.136003"/>
     <use style="fill:#4169e1;stroke:#4169e1;" x="301.338947" xlink:href="#m4f21f6bc63" y="266.422608"/>
     <use style="fill:#4169e1;stroke:#4169e1;" x="319.528421" xlink:href="#m4f21f6bc63" y="268.738497"/>
     <use style="fill:#4169e1;stroke:#4169e1;" x="337.717895" xlink:href="#m4f21f6bc63" y="267.06591"/>
     <use style="fill:#4169e1;stroke:#4169e1;" x="355.907368" xlink:href="#m4f21f6bc63" y="265.907966"/>
     <use style="fill:#4169e1;stroke:#4169e1;" x="374.096842" xlink:href="#m4f21f6bc63" y="59.279186"/>
     <use style="fill:#4169e1;stroke:#4169e1;" x="392.286316" xlink:href="#m4f21f6bc63" y="268.995818"/>
     <use style="fill:#4169e1;stroke:#4169e1;" x="410.475789" xlink:href="#m4f21f6bc63" y="258.445656"/>
     <use style="fill:#4169e1;stroke:#4169e1;" x="428.665263" xlink:href="#m4f21f6bc63" y="269.253139"/>
    </g>
   </g>
   <g id="patch_3">
    <path d="M 92.16 276.48 
L 92.16 27.648 
" style="fill:none;stroke:#262626;stroke-linecap:square;stroke-linejoin:miter;stroke-width:0.8;"/>
   </g>
   <g id="patch_4">
    <path d="M 92.16 276.48 
L 437.76 276.48 
" style="fill:none;stroke:#262626;stroke-linecap:square;stroke-linejoin:miter;stroke-width:0.8;"/>
   </g>
   <g id="text_11">
    <text style="fill:#262626;font-family:DejaVu Sans;font-size:20px;font-style:normal;font-weight:bold;text-anchor:middle;" transform="rotate(-0, 264.96, 21.648)" x="264.96" y="21.648">D 3' deletion</text>
   </g>
  </g>
 </g>
 <defs>
  <clipPath id="p216e1c0e9a">
   <rect height="248.832" width="345.6" x="92.16" y="27.648"/>
  </clipPath>
 </defs>
</svg>
