<?xml version="1.0" encoding="utf-8" standalone="no"?>
<!DOCTYPE svg PUBLIC "-//W3C//DTD SVG 1.1//EN"
  "http://www.w3.org/Graphics/SVG/1.1/DTD/svg11.dtd">
<!-- Created with matplotlib (http://matplotlib.org/) -->
<svg height="345.6pt" version="1.1" viewBox="0 0 460.8 345.6" width="460.8pt" xmlns="http://www.w3.org/2000/svg" xmlns:xlink="http://www.w3.org/1999/xlink">
 <defs>
  <style type="text/css">
*{stroke-linecap:butt;stroke-linejoin:round;}
  </style>
 </defs>
 <g id="figure_1">
  <g id="patch_1">
   <path d="M 0 345.6 
L 460.8 345.6 
L 460.8 0 
L 0 0 
z
" style="fill:#ffffff;"/>
  </g>
  <g id="axes_1">
   <g id="patch_2">
    <path d="M 92.16 276.48 
L 437.76 276.48 
L 437.76 27.648 
L 92.16 27.648 
z
" style="fill:#ffffff;"/>
   </g>
   <g id="matplotlib.axis_1">
    <g id="xtick_1">
     <g id="line2d_1">
      <defs>
       <path d="M 0 0 
L 0 3.5 
" id="m1967831a4c" style="stroke:#262626;stroke-width:0.8;"/>
      </defs>
      <g>
       <use style="fill:#262626;stroke:#262626;stroke-width:0.8;" x="104.502857" xlink:href="#m1967831a4c" y="276.48"/>
      </g>
     </g>
     <g id="text_1">
      <text style="fill:#262626;font-family:DejaVu Sans;font-size:20px;font-style:normal;font-weight:normal;text-anchor:middle;" transform="rotate(-0, 104.502857, 298.676875)" x="104.502857" y="298.676875">0</text>
     </g>
    </g>
    <g id="xtick_2">
     <g id="line2d_2">
      <g>
       <use style="fill:#262626;stroke:#262626;stroke-width:0.8;" x="227.931429" xlink:href="#m1967831a4c" y="276.48"/>
      </g>
     </g>
     <g id="text_2">
      <text style="fill:#262626;font-family:DejaVu Sans;font-size:20px;font-style:normal;font-weight:normal;text-anchor:middle;" transform="rotate(-0, 227.931429, 298.676875)" x="227.931429" y="298.676875">5</text>
     </g>
    </g>
    <g id="xtick_3">
     <g id="line2d_3">
      <g>
       <use style="fill:#262626;stroke:#262626;stroke-width:0.8;" x="351.36" xlink:href="#m1967831a4c" y="276.48"/>
      </g>
     </g>
     <g id="text_3">
      <text style="fill:#262626;font-family:DejaVu Sans;font-size:20px;font-style:normal;font-weight:normal;text-anchor:middle;" transform="rotate(-0, 351.36, 298.676875)" x="351.36" y="298.676875">10</text>
     </g>
    </g>
    <g id="text_4">
     <text style="fill:#262626;font-family:DejaVu Sans;font-size:20px;font-style:normal;font-weight:normal;text-anchor:middle;" transform="rotate(-0, 264.96, 322.033125)" x="264.96" y="322.033125">bases</text>
    </g>
   </g>
   <g id="matplotlib.axis_2">
    <g id="ytick_1">
     <g id="line2d_4">
      <defs>
       <path d="M 0 0 
L -3.5 0 
" id="mafd76854e0" style="stroke:#262626;stroke-width:0.8;"/>
      </defs>
      <g>
       <use style="fill:#262626;stroke:#262626;stroke-width:0.8;" x="92.16" xlink:href="#mafd76854e0" y="270.153763"/>
      </g>
     </g>
     <g id="text_5">
      <text style="fill:#262626;font-family:DejaVu Sans;font-size:20px;font-style:normal;font-weight:normal;text-anchor:end;" transform="rotate(-0, 85.16, 277.7522)" x="85.16" y="277.7522">0.0</text>
     </g>
    </g>
    <g id="ytick_2">
     <g id="line2d_5">
      <g>
       <use style="fill:#262626;stroke:#262626;stroke-width:0.8;" x="92.16" xlink:href="#mafd76854e0" y="199.469547"/>
      </g>
     </g>
     <g id="text_6">
      <text style="fill:#262626;font-family:DejaVu Sans;font-size:20px;font-style:normal;font-weight:normal;text-anchor:end;" transform="rotate(-0, 85.16, 207.067985)" x="85.16" y="207.067985">0.2</text>
     </g>
    </g>
    <g id="ytick_3">
     <g id="line2d_6">
      <g>
       <use style="fill:#262626;stroke:#262626;stroke-width:0.8;" x="92.16" xlink:href="#mafd76854e0" y="128.785332"/>
      </g>
     </g>
     <g id="text_7">
      <text style="fill:#262626;font-family:DejaVu Sans;font-size:20px;font-style:normal;font-weight:normal;text-anchor:end;" transform="rotate(-0, 85.16, 136.383769)" x="85.16" y="136.383769">0.4</text>
     </g>
    </g>
    <g id="ytick_4">
     <g id="line2d_7">
      <g>
       <use style="fill:#262626;stroke:#262626;stroke-width:0.8;" x="92.16" xlink:href="#mafd76854e0" y="58.101116"/>
      </g>
     </g>
     <g id="text_8">
      <text style="fill:#262626;font-family:DejaVu Sans;font-size:20px;font-style:normal;font-weight:normal;text-anchor:end;" transform="rotate(-0, 85.16, 65.699554)" x="85.16" y="65.699554">0.6</text>
     </g>
    </g>
    <g id="text_9">
     <text style="fill:#262626;font-family:DejaVu Sans;font-size:20px;font-style:normal;font-weight:normal;text-anchor:middle;" transform="rotate(-90, 45.194375, 152.064)" x="45.194375" y="152.064">freq (3000 total)</text>
    </g>
   </g>
   <g id="LineCollection_1">
    <path clip-path="url(#p60b96e77e2)" d="M 104.502857 255.618608 
L 104.502857 252.88102 
" style="fill:none;stroke:#4169e1;stroke-width:3;"/>
    <path clip-path="url(#p60b96e77e2)" d="M 129.188571 189.996622 
L 129.188571 183.731769 
" style="fill:none;stroke:#4169e1;stroke-width:3;"/>
    <path clip-path="url(#p60b96e77e2)" d="M 153.874286 64.263412 
L 153.874286 54.294961 
" style="fill:none;stroke:#4169e1;stroke-width:3;"/>
    <path clip-path="url(#p60b96e77e2)" d="M 178.56 263.446097 
L 178.56 261.546515 
" style="fill:none;stroke:#4169e1;stroke-width:3;"/>
    <path clip-path="url(#p60b96e77e2)" d="M 203.245714 253.699517 
L 203.245714 250.794672 
" style="fill:none;stroke:#4169e1;stroke-width:3;"/>
    <path clip-path="url(#p60b96e77e2)" d="M 227.931429 269.544515 
L 227.931429 268.878098 
" style="fill:none;stroke:#4169e1;stroke-width:3;"/>
    <path clip-path="url(#p60b96e77e2)" d="M 252.617143 268.740078 
L 252.617143 267.797622 
" style="fill:none;stroke:#4169e1;stroke-width:3;"/>
    <path clip-path="url(#p60b96e77e2)" d="M 277.302857 268.114572 
L 277.302857 267.009444 
" style="fill:none;stroke:#4169e1;stroke-width:3;"/>
    <path clip-path="url(#p60b96e77e2)" d="M 301.988571 262.005258 
L 301.988571 259.924371 
" style="fill:none;stroke:#4169e1;stroke-width:3;"/>
    <path clip-path="url(#p60b96e77e2)" d="M 326.674286 268.533049 
L 326.674286 267.533423 
" style="fill:none;stroke:#4169e1;stroke-width:3;"/>
    <path clip-path="url(#p60b96e77e2)" d="M 351.36 269.918149 
L 351.36 269.446921 
" style="fill:none;stroke:#4169e1;stroke-width:3;"/>
    <path clip-path="url(#p60b96e77e2)" d="M 376.045714 270.153763 
L 376.045714 269.918149 
" style="fill:none;stroke:#4169e1;stroke-width:3;"/>
    <path clip-path="url(#p60b96e77e2)" d="M 400.731429 270.153763 
L 400.731429 269.918149 
" style="fill:none;stroke:#4169e1;stroke-width:3;"/>
    <path clip-path="url(#p60b96e77e2)" d="M 425.417143 270.004389 
L 425.417143 269.596294 
" style="fill:none;stroke:#4169e1;stroke-width:3;"/>
   </g>
   <g id="line2d_8">
    <path clip-path="url(#p60b96e77e2)" d="M 104.502857 254.249814 
L 129.188571 186.864195 
L 153.874286 59.279186 
L 178.56 262.496306 
L 203.245714 252.247095 
L 227.931429 269.211307 
L 252.617143 268.26885 
L 277.302857 267.562008 
L 301.988571 260.964815 
L 326.674286 268.033236 
L 351.36 269.682535 
L 376.045714 270.035956 
L 400.731429 270.035956 
L 425.417143 269.800342 
" style="fill:none;stroke:#4169e1;stroke-linecap:round;stroke-width:3;"/>
    <defs>
     <path d="M 0 3.25 
C 0.86191 3.25 1.688635 2.907559 2.298097 2.298097 
C 2.907559 1.688635 3.25 0.86191 3.25 0 
C 3.25 -0.86191 2.907559 -1.688635 2.298097 -2.298097 
C 1.688635 -2.907559 0.86191 -3.25 0 -3.25 
C -0.86191 -3.25 -1.688635 -2.907559 -2.298097 -2.298097 
C -2.907559 -1.688635 -3.25 -0.86191 -3.25 0 
C -3.25 0.86191 -2.907559 1.688635 -2.298097 2.298097 
C -1.688635 2.907559 -0.86191 3.25 0 3.25 
z
" id="m4fa9ccfe34" style="stroke:#4169e1;"/>
    </defs>
    <g clip-path="url(#p60b96e77e2)">
     <use style="fill:#4169e1;stroke:#4169e1;" x="104.502857" xlink:href="#m4fa9ccfe34" y="254.249814"/>
     <use style="fill:#4169e1;stroke:#4169e1;" x="129.188571" xlink:href="#m4fa9ccfe34" y="186.864195"/>
     <use style="fill:#4169e1;stroke:#4169e1;" x="153.874286" xlink:href="#m4fa9ccfe34" y="59.279186"/>
     <use style="fill:#4169e1;stroke:#4169e1;" x="178.56" xlink:href="#m4fa9ccfe34" y="262.496306"/>
     <use style="fill:#4169e1;stroke:#4169e1;" x="203.245714" xlink:href="#m4fa9ccfe34" y="252.247095"/>
     <use style="fill:#4169e1;stroke:#4169e1;" x="227.931429" xlink:href="#m4fa9ccfe34" y="269.211307"/>
     <use style="fill:#4169e1;stroke:#4169e1;" x="252.617143" xlink:href="#m4fa9ccfe34" y="268.26885"/>
     <use style="fill:#4169e1;stroke:#4169e1;" x="277.302857" xlink:href="#m4fa9ccfe34" y="267.562008"/>
     <use style="fill:#4169e1;stroke:#4169e1;" x="301.988571" xlink:href="#m4fa9ccfe34" y="260.964815"/>
     <use style="fill:#4169e1;stroke:#4169e1;" x="326.674286" xlink:href="#m4fa9ccfe34" y="268.033236"/>
     <use style="fill:#4169e1;stroke:#4169e1;" x="351.36" xlink:href="#m4fa9ccfe34" y="269.682535"/>
     <use style="fill:#4169e1;stroke:#4169e1;" x="376.045714" xlink:href="#m4fa9ccfe34" y="270.035956"/>
     <use style="fill:#4169e1;stroke:#4169e1;" x="400.731429" xlink:href="#m4fa9ccfe34" y="270.035956"/>
     <use style="fill:#4169e1;stroke:#4169e1;" x="425.417143" xlink:href="#m4fa9ccfe34" y="269.800342"/>
    </g>
   </g>
   <g id="patch_3">
    <path d="M 92.16 276.48 
L 92.16 27.648 
" style="fill:none;stroke:#262626;stroke-linecap:square;stroke-linejoin:miter;stroke-width:0.8;"/>
   </g>
   <g id="patch_4">
    <path d="M 92.16 276.48 
L 437.76 276.48 
" style="fill:none;stroke:#262626;stroke-linecap:square;stroke-linejoin:miter;stroke-width:0.8;"/>
   </g>
   <g id="text_10">
    <text style="fill:#262626;font-family:DejaVu Sans;font-size:20px;font-style:normal;font-weight:bold;text-anchor:middle;" transform="rotate(-0, 264.96, 21.648)" x="264.96" y="21.648">D 5' deletion</text>
   </g>
  </g>
 </g>
 <defs>
  <clipPath id="p60b96e77e2">
   <rect height="248.832" width="345.6" x="92.16" y="27.648"/>
  </clipPath>
 </defs>
</svg>
