<?xml version="1.0" encoding="utf-8" standalone="no"?>
<!DOCTYPE svg PUBLIC "-//W3C//DTD SVG 1.1//EN"
  "http://www.w3.org/Graphics/SVG/1.1/DTD/svg11.dtd">
<!-- Created with matplotlib (http://matplotlib.org/) -->
<svg height="345.6pt" version="1.1" viewBox="0 0 460.8 345.6" width="460.8pt" xmlns="http://www.w3.org/2000/svg" xmlns:xlink="http://www.w3.org/1999/xlink">
 <defs>
  <style type="text/css">
*{stroke-linecap:butt;stroke-linejoin:round;}
  </style>
 </defs>
 <g id="figure_1">
  <g id="patch_1">
   <path d="M 0 345.6 
L 460.8 345.6 
L 460.8 0 
L 0 0 
z
" style="fill:#ffffff;"/>
  </g>
  <g id="axes_1">
   <g id="patch_2">
    <path d="M 92.16 276.48 
L 437.76 276.48 
L 437.76 27.648 
L 92.16 27.648 
z
" style="fill:#ffffff;"/>
   </g>
   <g id="matplotlib.axis_1">
    <g id="xtick_1">
     <g id="line2d_1">
      <defs>
       <path d="M 0 0 
L 0 3.5 
" id="m03755c689d" style="stroke:#262626;stroke-width:0.8;"/>
      </defs>
      <g>
       <use style="fill:#262626;stroke:#262626;stroke-width:0.8;" x="101.76" xlink:href="#m03755c689d" y="276.48"/>
      </g>
     </g>
     <g id="text_1">
      <text style="fill:#262626;font-family:DejaVu Sans;font-size:20px;font-style:normal;font-weight:normal;text-anchor:middle;" transform="rotate(-0, 101.76, 298.676875)" x="101.76" y="298.676875">0</text>
     </g>
    </g>
    <g id="xtick_2">
     <g id="line2d_2">
      <g>
       <use style="fill:#262626;stroke:#262626;stroke-width:0.8;" x="197.76" xlink:href="#m03755c689d" y="276.48"/>
      </g>
     </g>
     <g id="text_2">
      <text style="fill:#262626;font-family:DejaVu Sans;font-size:20px;font-style:normal;font-weight:normal;text-anchor:middle;" transform="rotate(-0, 197.76, 298.676875)" x="197.76" y="298.676875">5</text>
     </g>
    </g>
    <g id="xtick_3">
     <g id="line2d_3">
      <g>
       <use style="fill:#262626;stroke:#262626;stroke-width:0.8;" x="293.76" xlink:href="#m03755c689d" y="276.48"/>
      </g>
     </g>
     <g id="text_3">
      <text style="fill:#262626;font-family:DejaVu Sans;font-size:20px;font-style:normal;font-weight:normal;text-anchor:middle;" transform="rotate(-0, 293.76, 298.676875)" x="293.76" y="298.676875">10</text>
     </g>
    </g>
    <g id="xtick_4">
     <g id="line2d_4">
      <g>
       <use style="fill:#262626;stroke:#262626;stroke-width:0.8;" x="389.76" xlink:href="#m03755c689d" y="276.48"/>
      </g>
     </g>
     <g id="text_4">
      <text style="fill:#262626;font-family:DejaVu Sans;font-size:20px;font-style:normal;font-weight:normal;text-anchor:middle;" transform="rotate(-0, 389.76, 298.676875)" x="389.76" y="298.676875">15</text>
     </g>
    </g>
    <g id="text_5">
     <text style="fill:#262626;font-family:DejaVu Sans;font-size:20px;font-style:normal;font-weight:normal;text-anchor:middle;" transform="rotate(-0, 264.96, 322.033125)" x="264.96" y="322.033125">bases</text>
    </g>
   </g>
   <g id="matplotlib.axis_2">
    <g id="ytick_1">
     <g id="line2d_5">
      <defs>
       <path d="M 0 0 
L -3.5 0 
" id="m950f00a796" style="stroke:#262626;stroke-width:0.8;"/>
      </defs>
      <g>
       <use style="fill:#262626;stroke:#262626;stroke-width:0.8;" x="92.16" xlink:href="#m950f00a796" y="270.153763"/>
      </g>
     </g>
     <g id="text_6">
      <text style="fill:#262626;font-family:DejaVu Sans;font-size:20px;font-style:normal;font-weight:normal;text-anchor:end;" transform="rotate(-0, 85.16, 277.7522)" x="85.16" y="277.7522">0.0</text>
     </g>
    </g>
    <g id="ytick_2">
     <g id="line2d_6">
      <g>
       <use style="fill:#262626;stroke:#262626;stroke-width:0.8;" x="92.16" xlink:href="#m950f00a796" y="214.902782"/>
      </g>
     </g>
     <g id="text_7">
      <text style="fill:#262626;font-family:DejaVu Sans;font-size:20px;font-style:normal;font-weight:normal;text-anchor:end;" transform="rotate(-0, 85.16, 222.50122)" x="85.16" y="222.50122">0.2</text>
     </g>
    </g>
    <g id="ytick_3">
     <g id="line2d_7">
      <g>
       <use style="fill:#262626;stroke:#262626;stroke-width:0.8;" x="92.16" xlink:href="#m950f00a796" y="159.651801"/>
      </g>
     </g>
     <g id="text_8">
      <text style="fill:#262626;font-family:DejaVu Sans;font-size:20px;font-style:normal;font-weight:normal;text-anchor:end;" transform="rotate(-0, 85.16, 167.250239)" x="85.16" y="167.250239">0.4</text>
     </g>
    </g>
    <g id="ytick_4">
     <g id="line2d_8">
      <g>
       <use style="fill:#262626;stroke:#262626;stroke-width:0.8;" x="92.16" xlink:href="#m950f00a796" y="104.400821"/>
      </g>
     </g>
     <g id="text_9">
      <text style="fill:#262626;font-family:DejaVu Sans;font-size:20px;font-style:normal;font-weight:normal;text-anchor:end;" transform="rotate(-0, 85.16, 111.999258)" x="85.16" y="111.999258">0.6</text>
     </g>
    </g>
    <g id="ytick_5">
     <g id="line2d_9">
      <g>
       <use style="fill:#262626;stroke:#262626;stroke-width:0.8;" x="92.16" xlink:href="#m950f00a796" y="49.14984"/>
      </g>
     </g>
     <g id="text_10">
      <text style="fill:#262626;font-family:DejaVu Sans;font-size:20px;font-style:normal;font-weight:normal;text-anchor:end;" transform="rotate(-0, 85.16, 56.748277)" x="85.16" y="56.748277">0.8</text>
     </g>
    </g>
    <g id="text_11">
     <text style="fill:#262626;font-family:DejaVu Sans;font-size:20px;font-style:normal;font-weight:normal;text-anchor:middle;" transform="rotate(-90, 45.194375, 152.064)" x="45.194375" y="152.064">freq (3000 total)</text>
    </g>
   </g>
   <g id="LineCollection_1">
    <path clip-path="url(#pf65ca2e1c1)" d="M 101.76 253.039047 
L 101.76 250.434491 
" style="fill:none;stroke:#4169e1;stroke-width:3;"/>
    <path clip-path="url(#pf65ca2e1c1)" d="M 120.96 63.685815 
L 120.96 54.872558 
" style="fill:none;stroke:#4169e1;stroke-width:3;"/>
    <path clip-path="url(#pf65ca2e1c1)" d="M 140.16 267.727955 
L 140.16 266.686133 
" style="fill:none;stroke:#4169e1;stroke-width:3;"/>
    <path clip-path="url(#pf65ca2e1c1)" d="M 159.36 257.733743 
L 159.36 255.500802 
" style="fill:none;stroke:#4169e1;stroke-width:3;"/>
    <path clip-path="url(#pf65ca2e1c1)" d="M 178.56 257.203791 
L 178.56 254.925734 
" style="fill:none;stroke:#4169e1;stroke-width:3;"/>
    <path clip-path="url(#pf65ca2e1c1)" d="M 197.76 268.886917 
L 197.76 268.10555 
" style="fill:none;stroke:#4169e1;stroke-width:3;"/>
    <path clip-path="url(#pf65ca2e1c1)" d="M 216.96 269.677539 
L 216.96 269.156627 
" style="fill:none;stroke:#4169e1;stroke-width:3;"/>
    <path clip-path="url(#pf65ca2e1c1)" d="M 236.16 258.615949 
L 236.16 256.460295 
" style="fill:none;stroke:#4169e1;stroke-width:3;"/>
    <path clip-path="url(#pf65ca2e1c1)" d="M 255.36 269.826814 
L 255.36 269.375692 
" style="fill:none;stroke:#4169e1;stroke-width:3;"/>
    <path clip-path="url(#pf65ca2e1c1)" d="M 274.56 269.969593 
L 274.56 269.601253 
" style="fill:none;stroke:#4169e1;stroke-width:3;"/>
    <path clip-path="url(#pf65ca2e1c1)" d="M 293.76 270.153763 
L 293.76 270.153763 
" style="fill:none;stroke:#4169e1;stroke-width:3;"/>
    <path clip-path="url(#pf65ca2e1c1)" d="M 312.96 270.153763 
L 312.96 270.153763 
" style="fill:none;stroke:#4169e1;stroke-width:3;"/>
    <path clip-path="url(#pf65ca2e1c1)" d="M 332.16 270.037004 
L 332.16 269.718012 
" style="fill:none;stroke:#4169e1;stroke-width:3;"/>
    <path clip-path="url(#pf65ca2e1c1)" d="M 351.36 270.153763 
L 351.36 269.969593 
" style="fill:none;stroke:#4169e1;stroke-width:3;"/>
    <path clip-path="url(#pf65ca2e1c1)" d="M 370.56 270.153763 
L 370.56 270.153763 
" style="fill:none;stroke:#4169e1;stroke-width:3;"/>
    <path clip-path="url(#pf65ca2e1c1)" d="M 389.76 270.153763 
L 389.76 270.153763 
" style="fill:none;stroke:#4169e1;stroke-width:3;"/>
    <path clip-path="url(#pf65ca2e1c1)" d="M 408.96 270.153763 
L 408.96 270.153763 
" style="fill:none;stroke:#4169e1;stroke-width:3;"/>
    <path clip-path="url(#pf65ca2e1c1)" d="M 428.16 270.153763 
L 428.16 269.969593 
" style="fill:none;stroke:#4169e1;stroke-width:3;"/>
   </g>
   <g id="line2d_10">
    <path clip-path="url(#pf65ca2e1c1)" d="M 101.76 251.736769 
L 120.96 59.279186 
L 140.16 267.207044 
L 159.36 256.617272 
L 178.56 256.064763 
L 197.76 268.496233 
L 216.96 269.417083 
L 236.16 257.538122 
L 255.36 269.601253 
L 274.56 269.785423 
L 293.76 270.153763 
L 312.96 270.153763 
L 332.16 269.877508 
L 351.36 270.061678 
L 370.56 270.153763 
L 389.76 270.153763 
L 408.96 270.153763 
L 428.16 270.061678 
" style="fill:none;stroke:#4169e1;stroke-linecap:round;stroke-width:3;"/>
    <defs>
     <path d="M 0 3.25 
C 0.86191 3.25 1.688635 2.907559 2.298097 2.298097 
C 2.907559 1.688635 3.25 0.86191 3.25 0 
C 3.25 -0.86191 2.907559 -1.688635 2.298097 -2.298097 
C 1.688635 -2.907559 0.86191 -3.25 0 -3.25 
C -0.86191 -3.25 -1.688635 -2.907559 -2.298097 -2.298097 
C -2.907559 -1.688635 -3.25 -0.86191 -3.25 0 
C -3.25 0.86191 -2.907559 1.688635 -2.298097 2.298097 
C -1.688635 2.907559 -0.86191 3.25 0 3.25 
z
" id="m84e46cfd18" style="stroke:#4169e1;"/>
    </defs>
    <g clip-path="url(#pf65ca2e1c1)">
     <use style="fill:#4169e1;stroke:#4169e1;" x="101.76" xlink:href="#m84e46cfd18" y="251.736769"/>
     <use style="fill:#4169e1;stroke:#4169e1;" x="120.96" xlink:href="#m84e46cfd18" y="59.279186"/>
     <use style="fill:#4169e1;stroke:#4169e1;" x="140.16" xlink:href="#m84e46cfd18" y="267.207044"/>
     <use style="fill:#4169e1;stroke:#4169e1;" x="159.36" xlink:href="#m84e46cfd18" y="256.617272"/>
     <use style="fill:#4169e1;stroke:#4169e1;" x="178.56" xlink:href="#m84e46cfd18" y="256.064763"/>
     <use style="fill:#4169e1;stroke:#4169e1;" x="197.76" xlink:href="#m84e46cfd18" y="268.496233"/>
     <use style="fill:#4169e1;stroke:#4169e1;" x="216.96" xlink:href="#m84e46cfd18" y="269.417083"/>
     <use style="fill:#4169e1;stroke:#4169e1;" x="236.16" xlink:href="#m84e46cfd18" y="257.538122"/>
     <use style="fill:#4169e1;stroke:#4169e1;" x="255.36" xlink:href="#m84e46cfd18" y="269.601253"/>
     <use style="fill:#4169e1;stroke:#4169e1;" x="274.56" xlink:href="#m84e46cfd18" y="269.785423"/>
     <use style="fill:#4169e1;stroke:#4169e1;" x="293.76" xlink:href="#m84e46cfd18" y="270.153763"/>
     <use style="fill:#4169e1;stroke:#4169e1;" x="312.96" xlink:href="#m84e46cfd18" y="270.153763"/>
     <use style="fill:#4169e1;stroke:#4169e1;" x="332.16" xlink:href="#m84e46cfd18" y="269.877508"/>
     <use style="fill:#4169e1;stroke:#4169e1;" x="351.36" xlink:href="#m84e46cfd18" y="270.061678"/>
     <use style="fill:#4169e1;stroke:#4169e1;" x="370.56" xlink:href="#m84e46cfd18" y="270.153763"/>
     <use style="fill:#4169e1;stroke:#4169e1;" x="389.76" xlink:href="#m84e46cfd18" y="270.153763"/>
     <use style="fill:#4169e1;stroke:#4169e1;" x="408.96" xlink:href="#m84e46cfd18" y="270.153763"/>
     <use style="fill:#4169e1;stroke:#4169e1;" x="428.16" xlink:href="#m84e46cfd18" y="270.061678"/>
    </g>
   </g>
   <g id="patch_3">
    <path d="M 92.16 276.48 
L 92.16 27.648 
" style="fill:none;stroke:#262626;stroke-linecap:square;stroke-linejoin:miter;stroke-width:0.8;"/>
   </g>
   <g id="patch_4">
    <path d="M 92.16 276.48 
L 437.76 276.48 
" style="fill:none;stroke:#262626;stroke-linecap:square;stroke-linejoin:miter;stroke-width:0.8;"/>
   </g>
   <g id="text_12">
    <text style="fill:#262626;font-family:DejaVu Sans;font-size:20px;font-style:normal;font-weight:bold;text-anchor:middle;" transform="rotate(-0, 264.96, 21.648)" x="264.96" y="21.648">DJ N length</text>
   </g>
  </g>
 </g>
 <defs>
  <clipPath id="pf65ca2e1c1">
   <rect height="248.832" width="345.6" x="92.16" y="27.648"/>
  </clipPath>
 </defs>
</svg>
