<?xml version="1.0" encoding="utf-8" standalone="no"?>
<!DOCTYPE svg PUBLIC "-//W3C//DTD SVG 1.1//EN"
  "http://www.w3.org/Graphics/SVG/1.1/DTD/svg11.dtd">
<!-- Created with matplotlib (http://matplotlib.org/) -->
<svg height="345.6pt" version="1.1" viewBox="0 0 460.8 345.6" width="460.8pt" xmlns="http://www.w3.org/2000/svg" xmlns:xlink="http://www.w3.org/1999/xlink">
 <defs>
  <style type="text/css">
*{stroke-linecap:butt;stroke-linejoin:round;}
  </style>
 </defs>
 <g id="figure_1">
  <g id="patch_1">
   <path d="M 0 345.6 
L 460.8 345.6 
L 460.8 0 
L 0 0 
z
" style="fill:#ffffff;"/>
  </g>
  <g id="axes_1">
   <g id="patch_2">
    <path d="M 92.16 276.48 
L 437.76 276.48 
L 437.76 27.648 
L 92.16 27.648 
z
" style="fill:#ffffff;"/>
   </g>
   <g id="matplotlib.axis_1">
    <g id="xtick_1">
     <g id="line2d_1">
      <defs>
       <path d="M 0 0 
L 0 3.5 
" id="m45a2638153" style="stroke:#262626;stroke-width:0.8;"/>
      </defs>
      <g>
       <use style="fill:#262626;stroke:#262626;stroke-width:0.8;" x="100.8" xlink:href="#m45a2638153" y="276.48"/>
      </g>
     </g>
     <g id="text_1">
      <text style="fill:#262626;font-family:DejaVu Sans;font-size:20px;font-style:normal;font-weight:normal;text-anchor:middle;" transform="rotate(-0, 100.8, 298.676875)" x="100.8" y="298.676875">0</text>
     </g>
    </g>
    <g id="xtick_2">
     <g id="line2d_2">
      <g>
       <use style="fill:#262626;stroke:#262626;stroke-width:0.8;" x="187.2" xlink:href="#m45a2638153" y="276.48"/>
      </g>
     </g>
     <g id="text_2">
      <text style="fill:#262626;font-family:DejaVu Sans;font-size:20px;font-style:normal;font-weight:normal;text-anchor:middle;" transform="rotate(-0, 187.2, 298.676875)" x="187.2" y="298.676875">5</text>
     </g>
    </g>
    <g id="xtick_3">
     <g id="line2d_3">
      <g>
       <use style="fill:#262626;stroke:#262626;stroke-width:0.8;" x="273.6" xlink:href="#m45a2638153" y="276.48"/>
      </g>
     </g>
     <g id="text_3">
      <text style="fill:#262626;font-family:DejaVu Sans;font-size:20px;font-style:normal;font-weight:normal;text-anchor:middle;" transform="rotate(-0, 273.6, 298.676875)" x="273.6" y="298.676875">10</text>
     </g>
    </g>
    <g id="xtick_4">
     <g id="line2d_4">
      <g>
       <use style="fill:#262626;stroke:#262626;stroke-width:0.8;" x="360" xlink:href="#m45a2638153" y="276.48"/>
      </g>
     </g>
     <g id="text_4">
      <text style="fill:#262626;font-family:DejaVu Sans;font-size:20px;font-style:normal;font-weight:normal;text-anchor:middle;" transform="rotate(-0, 360, 298.676875)" x="360" y="298.676875">15</text>
     </g>
    </g>
    <g id="text_5">
     <text style="fill:#262626;font-family:DejaVu Sans;font-size:20px;font-style:normal;font-weight:normal;text-anchor:middle;" transform="rotate(-0, 264.96, 322.033125)" x="264.96" y="322.033125">bases</text>
    </g>
   </g>
   <g id="matplotlib.axis_2">
    <g id="ytick_1">
     <g id="line2d_5">
      <defs>
       <path d="M 0 0 
L -3.5 0 
" id="meb236553c6" style="stroke:#262626;stroke-width:0.8;"/>
      </defs>
      <g>
       <use style="fill:#262626;stroke:#262626;stroke-width:0.8;" x="92.16" xlink:href="#meb236553c6" y="270.153763"/>
      </g>
     </g>
     <g id="text_6">
      <text style="fill:#262626;font-family:DejaVu Sans;font-size:20px;font-style:normal;font-weight:normal;text-anchor:end;" transform="rotate(-0, 85.16, 277.7522)" x="85.16" y="277.7522">0.0</text>
     </g>
    </g>
    <g id="ytick_2">
     <g id="line2d_6">
      <g>
       <use style="fill:#262626;stroke:#262626;stroke-width:0.8;" x="92.16" xlink:href="#meb236553c6" y="202.996254"/>
      </g>
     </g>
     <g id="text_7">
      <text style="fill:#262626;font-family:DejaVu Sans;font-size:20px;font-style:normal;font-weight:normal;text-anchor:end;" transform="rotate(-0, 85.16, 210.594692)" x="85.16" y="210.594692">0.2</text>
     </g>
    </g>
    <g id="ytick_3">
     <g id="line2d_7">
      <g>
       <use style="fill:#262626;stroke:#262626;stroke-width:0.8;" x="92.16" xlink:href="#meb236553c6" y="135.838746"/>
      </g>
     </g>
     <g id="text_8">
      <text style="fill:#262626;font-family:DejaVu Sans;font-size:20px;font-style:normal;font-weight:normal;text-anchor:end;" transform="rotate(-0, 85.16, 143.437183)" x="85.16" y="143.437183">0.4</text>
     </g>
    </g>
    <g id="ytick_4">
     <g id="line2d_8">
      <g>
       <use style="fill:#262626;stroke:#262626;stroke-width:0.8;" x="92.16" xlink:href="#meb236553c6" y="68.681238"/>
      </g>
     </g>
     <g id="text_9">
      <text style="fill:#262626;font-family:DejaVu Sans;font-size:20px;font-style:normal;font-weight:normal;text-anchor:end;" transform="rotate(-0, 85.16, 76.279675)" x="85.16" y="76.279675">0.6</text>
     </g>
    </g>
    <g id="text_10">
     <text style="fill:#262626;font-family:DejaVu Sans;font-size:20px;font-style:normal;font-weight:normal;text-anchor:middle;" transform="rotate(-90, 45.194375, 152.064)" x="45.194375" y="152.064">freq (3000 total)</text>
    </g>
   </g>
   <g id="LineCollection_1">
    <path clip-path="url(#p328fb32401)" d="M 100.8 258.908871 
L 100.8 256.550377 
" style="fill:none;stroke:#4169e1;stroke-width:3;"/>
    <path clip-path="url(#p328fb32401)" d="M 118.08 188.283158 
L 118.08 182.115871 
" style="fill:none;stroke:#4169e1;stroke-width:3;"/>
    <path clip-path="url(#p328fb32401)" d="M 135.36 64.13748 
L 135.36 54.420893 
" style="fill:none;stroke:#4169e1;stroke-width:3;"/>
    <path clip-path="url(#p328fb32401)" d="M 152.64 265.867793 
L 152.64 264.366106 
" style="fill:none;stroke:#4169e1;stroke-width:3;"/>
    <path clip-path="url(#p328fb32401)" d="M 169.92 266.178121 
L 169.92 264.727353 
" style="fill:none;stroke:#4169e1;stroke-width:3;"/>
    <path clip-path="url(#p328fb32401)" d="M 187.2 266.898423 
L 187.2 265.574059 
" style="fill:none;stroke:#4169e1;stroke-width:3;"/>
    <path clip-path="url(#p328fb32401)" d="M 204.48 268.908325 
L 204.48 268.041325 
" style="fill:none;stroke:#4169e1;stroke-width:3;"/>
    <path clip-path="url(#p328fb32401)" d="M 221.76 269.666395 
L 221.76 269.074122 
" style="fill:none;stroke:#4169e1;stroke-width:3;"/>
    <path clip-path="url(#p328fb32401)" d="M 239.04 267.000824 
L 239.04 265.695517 
" style="fill:none;stroke:#4169e1;stroke-width:3;"/>
    <path clip-path="url(#p328fb32401)" d="M 256.32 269.666395 
L 256.32 269.074122 
" style="fill:none;stroke:#4169e1;stroke-width:3;"/>
    <path clip-path="url(#p328fb32401)" d="M 273.6 265.971333 
L 273.6 264.486425 
" style="fill:none;stroke:#4169e1;stroke-width:3;"/>
    <path clip-path="url(#p328fb32401)" d="M 290.88 270.011842 
L 290.88 269.624108 
" style="fill:none;stroke:#4169e1;stroke-width:3;"/>
    <path clip-path="url(#p328fb32401)" d="M 308.16 270.011842 
L 308.16 269.624108 
" style="fill:none;stroke:#4169e1;stroke-width:3;"/>
    <path clip-path="url(#p328fb32401)" d="M 325.44 270.011842 
L 325.44 269.624108 
" style="fill:none;stroke:#4169e1;stroke-width:3;"/>
    <path clip-path="url(#p328fb32401)" d="M 342.72 270.088196 
L 342.72 269.771613 
" style="fill:none;stroke:#4169e1;stroke-width:3;"/>
    <path clip-path="url(#p328fb32401)" d="M 360 270.011842 
L 360 269.624108 
" style="fill:none;stroke:#4169e1;stroke-width:3;"/>
    <path clip-path="url(#p328fb32401)" d="M 377.28 270.153763 
L 377.28 270.153763 
" style="fill:none;stroke:#4169e1;stroke-width:3;"/>
    <path clip-path="url(#p328fb32401)" d="M 394.56 270.088196 
L 394.56 269.771613 
" style="fill:none;stroke:#4169e1;stroke-width:3;"/>
    <path clip-path="url(#p328fb32401)" d="M 411.84 270.153763 
L 411.84 270.153763 
" style="fill:none;stroke:#4169e1;stroke-width:3;"/>
    <path clip-path="url(#p328fb32401)" d="M 429.12 270.153763 
L 429.12 269.929904 
" style="fill:none;stroke:#4169e1;stroke-width:3;"/>
   </g>
   <g id="line2d_9">
    <path clip-path="url(#p328fb32401)" d="M 100.8 257.729624 
L 118.08 185.199515 
L 135.36 59.279186 
L 152.64 265.11695 
L 169.92 265.452737 
L 187.2 266.236241 
L 204.48 268.474825 
L 221.76 269.370258 
L 239.04 266.348171 
L 256.32 269.370258 
L 273.6 265.228879 
L 290.88 269.817975 
L 308.16 269.817975 
L 325.44 269.817975 
L 342.72 269.929904 
L 360 269.817975 
L 377.28 270.153763 
L 394.56 269.929904 
L 411.84 270.153763 
L 429.12 270.041834 
" style="fill:none;stroke:#4169e1;stroke-linecap:round;stroke-width:3;"/>
    <defs>
     <path d="M 0 3.25 
C 0.86191 3.25 1.688635 2.907559 2.298097 2.298097 
C 2.907559 1.688635 3.25 0.86191 3.25 0 
C 3.25 -0.86191 2.907559 -1.688635 2.298097 -2.298097 
C 1.688635 -2.907559 0.86191 -3.25 0 -3.25 
C -0.86191 -3.25 -1.688635 -2.907559 -2.298097 -2.298097 
C -2.907559 -1.688635 -3.25 -0.86191 -3.25 0 
C -3.25 0.86191 -2.907559 1.688635 -2.298097 2.298097 
C -1.688635 2.907559 -0.86191 3.25 0 3.25 
z
" id="mb72f99d0a7" style="stroke:#4169e1;"/>
    </defs>
    <g clip-path="url(#p328fb32401)">
     <use style="fill:#4169e1;stroke:#4169e1;" x="100.8" xlink:href="#mb72f99d0a7" y="257.729624"/>
     <use style="fill:#4169e1;stroke:#4169e1;" x="118.08" xlink:href="#mb72f99d0a7" y="185.199515"/>
     <use style="fill:#4169e1;stroke:#4169e1;" x="135.36" xlink:href="#mb72f99d0a7" y="59.279186"/>
     <use style="fill:#4169e1;stroke:#4169e1;" x="152.64" xlink:href="#mb72f99d0a7" y="265.11695"/>
     <use style="fill:#4169e1;stroke:#4169e1;" x="169.92" xlink:href="#mb72f99d0a7" y="265.452737"/>
     <use style="fill:#4169e1;stroke:#4169e1;" x="187.2" xlink:href="#mb72f99d0a7" y="266.236241"/>
     <use style="fill:#4169e1;stroke:#4169e1;" x="204.48" xlink:href="#mb72f99d0a7" y="268.474825"/>
     <use style="fill:#4169e1;stroke:#4169e1;" x="221.76" xlink:href="#mb72f99d0a7" y="269.370258"/>
     <use style="fill:#4169e1;stroke:#4169e1;" x="239.04" xlink:href="#mb72f99d0a7" y="266.348171"/>
     <use style="fill:#4169e1;stroke:#4169e1;" x="256.32" xlink:href="#mb72f99d0a7" y="269.370258"/>
     <use style="fill:#4169e1;stroke:#4169e1;" x="273.6" xlink:href="#mb72f99d0a7" y="265.228879"/>
     <use style="fill:#4169e1;stroke:#4169e1;" x="290.88" xlink:href="#mb72f99d0a7" y="269.817975"/>
     <use style="fill:#4169e1;stroke:#4169e1;" x="308.16" xlink:href="#mb72f99d0a7" y="269.817975"/>
     <use style="fill:#4169e1;stroke:#4169e1;" x="325.44" xlink:href="#mb72f99d0a7" y="269.817975"/>
     <use style="fill:#4169e1;stroke:#4169e1;" x="342.72" xlink:href="#mb72f99d0a7" y="269.929904"/>
     <use style="fill:#4169e1;stroke:#4169e1;" x="360" xlink:href="#mb72f99d0a7" y="269.817975"/>
     <use style="fill:#4169e1;stroke:#4169e1;" x="377.28" xlink:href="#mb72f99d0a7" y="270.153763"/>
     <use style="fill:#4169e1;stroke:#4169e1;" x="394.56" xlink:href="#mb72f99d0a7" y="269.929904"/>
     <use style="fill:#4169e1;stroke:#4169e1;" x="411.84" xlink:href="#mb72f99d0a7" y="270.153763"/>
     <use style="fill:#4169e1;stroke:#4169e1;" x="429.12" xlink:href="#mb72f99d0a7" y="270.041834"/>
    </g>
   </g>
   <g id="patch_3">
    <path d="M 92.16 276.48 
L 92.16 27.648 
" style="fill:none;stroke:#262626;stroke-linecap:square;stroke-linejoin:miter;stroke-width:0.8;"/>
   </g>
   <g id="patch_4">
    <path d="M 92.16 276.48 
L 437.76 276.48 
" style="fill:none;stroke:#262626;stroke-linecap:square;stroke-linejoin:miter;stroke-width:0.8;"/>
   </g>
   <g id="text_11">
    <text style="fill:#262626;font-family:DejaVu Sans;font-size:20px;font-style:normal;font-weight:bold;text-anchor:middle;" transform="rotate(-0, 264.96, 21.648)" x="264.96" y="21.648">J 5' deletion</text>
   </g>
  </g>
 </g>
 <defs>
  <clipPath id="p328fb32401">
   <rect height="248.832" width="345.6" x="92.16" y="27.648"/>
  </clipPath>
 </defs>
</svg>
