<?xml version="1.0" encoding="utf-8" standalone="no"?>
<!DOCTYPE svg PUBLIC "-//W3C//DTD SVG 1.1//EN"
  "http://www.w3.org/Graphics/SVG/1.1/DTD/svg11.dtd">
<!-- Created with matplotlib (http://matplotlib.org/) -->
<svg height="345.6pt" version="1.1" viewBox="0 0 460.8 345.6" width="460.8pt" xmlns="http://www.w3.org/2000/svg" xmlns:xlink="http://www.w3.org/1999/xlink">
 <defs>
  <style type="text/css">
*{stroke-linecap:butt;stroke-linejoin:round;}
  </style>
 </defs>
 <g id="figure_1">
  <g id="patch_1">
   <path d="M 0 345.6 
L 460.8 345.6 
L 460.8 0 
L 0 0 
z
" style="fill:#ffffff;"/>
  </g>
  <g id="axes_1">
   <g id="patch_2">
    <path d="M 92.16 276.48 
L 437.76 276.48 
L 437.76 27.648 
L 92.16 27.648 
z
" style="fill:#ffffff;"/>
   </g>
   <g id="matplotlib.axis_1">
    <g id="xtick_1">
     <g id="line2d_1">
      <defs>
       <path d="M 0 0 
L 0 3.5 
" id="m662d0337d5" style="stroke:#262626;stroke-width:0.8;"/>
      </defs>
      <g>
       <use style="fill:#262626;stroke:#262626;stroke-width:0.8;" x="130.176" xlink:href="#m662d0337d5" y="276.48"/>
      </g>
     </g>
     <g id="text_1">
      <text style="fill:#262626;font-family:DejaVu Sans;font-size:20px;font-style:normal;font-weight:normal;text-anchor:middle;" transform="rotate(-0, 130.176, 298.676875)" x="130.176" y="298.676875">10</text>
     </g>
    </g>
    <g id="xtick_2">
     <g id="line2d_2">
      <g>
       <use style="fill:#262626;stroke:#262626;stroke-width:0.8;" x="199.296" xlink:href="#m662d0337d5" y="276.48"/>
      </g>
     </g>
     <g id="text_2">
      <text style="fill:#262626;font-family:DejaVu Sans;font-size:20px;font-style:normal;font-weight:normal;text-anchor:middle;" transform="rotate(-0, 199.296, 298.676875)" x="199.296" y="298.676875">20</text>
     </g>
    </g>
    <g id="xtick_3">
     <g id="line2d_3">
      <g>
       <use style="fill:#262626;stroke:#262626;stroke-width:0.8;" x="268.416" xlink:href="#m662d0337d5" y="276.48"/>
      </g>
     </g>
     <g id="text_3">
      <text style="fill:#262626;font-family:DejaVu Sans;font-size:20px;font-style:normal;font-weight:normal;text-anchor:middle;" transform="rotate(-0, 268.416, 298.676875)" x="268.416" y="298.676875">30</text>
     </g>
    </g>
    <g id="xtick_4">
     <g id="line2d_4">
      <g>
       <use style="fill:#262626;stroke:#262626;stroke-width:0.8;" x="337.536" xlink:href="#m662d0337d5" y="276.48"/>
      </g>
     </g>
     <g id="text_4">
      <text style="fill:#262626;font-family:DejaVu Sans;font-size:20px;font-style:normal;font-weight:normal;text-anchor:middle;" transform="rotate(-0, 337.536, 298.676875)" x="337.536" y="298.676875">40</text>
     </g>
    </g>
    <g id="xtick_5">
     <g id="line2d_5">
      <g>
       <use style="fill:#262626;stroke:#262626;stroke-width:0.8;" x="406.656" xlink:href="#m662d0337d5" y="276.48"/>
      </g>
     </g>
     <g id="text_5">
      <text style="fill:#262626;font-family:DejaVu Sans;font-size:20px;font-style:normal;font-weight:normal;text-anchor:middle;" transform="rotate(-0, 406.656, 298.676875)" x="406.656" y="298.676875">50</text>
     </g>
    </g>
    <g id="text_6">
     <text style="fill:#262626;font-family:DejaVu Sans;font-size:20px;font-style:normal;font-weight:normal;text-anchor:middle;" transform="rotate(-0, 264.96, 322.033125)" x="264.96" y="322.033125">bases</text>
    </g>
   </g>
   <g id="matplotlib.axis_2">
    <g id="ytick_1">
     <g id="line2d_6">
      <defs>
       <path d="M 0 0 
L -3.5 0 
" id="m45588d9e52" style="stroke:#262626;stroke-width:0.8;"/>
      </defs>
      <g>
       <use style="fill:#262626;stroke:#262626;stroke-width:0.8;" x="92.16" xlink:href="#m45588d9e52" y="270.153763"/>
      </g>
     </g>
     <g id="text_7">
      <text style="fill:#262626;font-family:DejaVu Sans;font-size:20px;font-style:normal;font-weight:normal;text-anchor:end;" transform="rotate(-0, 85.16, 277.7522)" x="85.16" y="277.7522">0.0</text>
     </g>
    </g>
    <g id="ytick_2">
     <g id="line2d_7">
      <g>
       <use style="fill:#262626;stroke:#262626;stroke-width:0.8;" x="92.16" xlink:href="#m45588d9e52" y="197.018072"/>
      </g>
     </g>
     <g id="text_8">
      <text style="fill:#262626;font-family:DejaVu Sans;font-size:20px;font-style:normal;font-weight:normal;text-anchor:end;" transform="rotate(-0, 85.16, 204.616509)" x="85.16" y="204.616509">0.2</text>
     </g>
    </g>
    <g id="ytick_3">
     <g id="line2d_8">
      <g>
       <use style="fill:#262626;stroke:#262626;stroke-width:0.8;" x="92.16" xlink:href="#m45588d9e52" y="123.88238"/>
      </g>
     </g>
     <g id="text_9">
      <text style="fill:#262626;font-family:DejaVu Sans;font-size:20px;font-style:normal;font-weight:normal;text-anchor:end;" transform="rotate(-0, 85.16, 131.480818)" x="85.16" y="131.480818">0.4</text>
     </g>
    </g>
    <g id="ytick_4">
     <g id="line2d_9">
      <g>
       <use style="fill:#262626;stroke:#262626;stroke-width:0.8;" x="92.16" xlink:href="#m45588d9e52" y="50.746689"/>
      </g>
     </g>
     <g id="text_10">
      <text style="fill:#262626;font-family:DejaVu Sans;font-size:20px;font-style:normal;font-weight:normal;text-anchor:end;" transform="rotate(-0, 85.16, 58.345127)" x="85.16" y="58.345127">0.6</text>
     </g>
    </g>
    <g id="text_11">
     <text style="fill:#262626;font-family:DejaVu Sans;font-size:20px;font-style:normal;font-weight:normal;text-anchor:middle;" transform="rotate(-90, 45.194375, 152.064)" x="45.194375" y="152.064">freq (3000 total)</text>
    </g>
   </g>
   <g id="LineCollection_1">
    <path clip-path="url(#p5a2cffcbd7)" d="M 95.616 270.153763 
L 95.616 269.909977 
" style="fill:none;stroke:#4169e1;stroke-width:3;"/>
    <path clip-path="url(#p5a2cffcbd7)" d="M 102.528 269.320293 
L 102.528 268.549376 
" style="fill:none;stroke:#4169e1;stroke-width:3;"/>
    <path clip-path="url(#p5a2cffcbd7)" d="M 109.44 270.153763 
L 109.44 270.153763 
" style="fill:none;stroke:#4169e1;stroke-width:3;"/>
    <path clip-path="url(#p5a2cffcbd7)" d="M 116.352 270.153763 
L 116.352 270.153763 
" style="fill:none;stroke:#4169e1;stroke-width:3;"/>
    <path clip-path="url(#p5a2cffcbd7)" d="M 123.264 270.153763 
L 123.264 270.153763 
" style="fill:none;stroke:#4169e1;stroke-width:3;"/>
    <path clip-path="url(#p5a2cffcbd7)" d="M 130.176 270.153763 
L 130.176 270.153763 
" style="fill:none;stroke:#4169e1;stroke-width:3;"/>
    <path clip-path="url(#p5a2cffcbd7)" d="M 137.088 270.153763 
L 137.088 270.153763 
" style="fill:none;stroke:#4169e1;stroke-width:3;"/>
    <path clip-path="url(#p5a2cffcbd7)" d="M 144 270.08236 
L 144 269.737595 
" style="fill:none;stroke:#4169e1;stroke-width:3;"/>
    <path clip-path="url(#p5a2cffcbd7)" d="M 150.912 262.52646 
L 150.912 260.472285 
" style="fill:none;stroke:#4169e1;stroke-width:3;"/>
    <path clip-path="url(#p5a2cffcbd7)" d="M 157.824 269.008647 
L 157.824 268.129665 
" style="fill:none;stroke:#4169e1;stroke-width:3;"/>
    <path clip-path="url(#p5a2cffcbd7)" d="M 164.736 270.08236 
L 164.736 269.737595 
" style="fill:none;stroke:#4169e1;stroke-width:3;"/>
    <path clip-path="url(#p5a2cffcbd7)" d="M 171.648 266.608642 
L 171.648 265.166386 
" style="fill:none;stroke:#4169e1;stroke-width:3;"/>
    <path clip-path="url(#p5a2cffcbd7)" d="M 178.56 269.816859 
L 178.56 269.271738 
" style="fill:none;stroke:#4169e1;stroke-width:3;"/>
    <path clip-path="url(#p5a2cffcbd7)" d="M 185.472 269.909977 
L 185.472 269.422406 
" style="fill:none;stroke:#4169e1;stroke-width:3;"/>
    <path clip-path="url(#p5a2cffcbd7)" d="M 192.384 267.164613 
L 192.384 265.829344 
" style="fill:none;stroke:#4169e1;stroke-width:3;"/>
    <path clip-path="url(#p5a2cffcbd7)" d="M 199.296 269.422406 
L 199.296 268.691049 
" style="fill:none;stroke:#4169e1;stroke-width:3;"/>
    <path clip-path="url(#p5a2cffcbd7)" d="M 206.208 264.921034 
L 206.208 263.197209 
" style="fill:none;stroke:#4169e1;stroke-width:3;"/>
    <path clip-path="url(#p5a2cffcbd7)" d="M 213.12 268.152597 
L 213.12 267.03543 
" style="fill:none;stroke:#4169e1;stroke-width:3;"/>
    <path clip-path="url(#p5a2cffcbd7)" d="M 220.032 262.755676 
L 220.032 260.73064 
" style="fill:none;stroke:#4169e1;stroke-width:3;"/>
    <path clip-path="url(#p5a2cffcbd7)" d="M 226.944 269.113298 
L 226.944 268.2688 
" style="fill:none;stroke:#4169e1;stroke-width:3;"/>
    <path clip-path="url(#p5a2cffcbd7)" d="M 233.856 64.349107 
L 233.856 54.209266 
" style="fill:none;stroke:#4169e1;stroke-width:3;"/>
    <path clip-path="url(#p5a2cffcbd7)" d="M 240.768 269.999209 
L 240.768 269.57696 
" style="fill:none;stroke:#4169e1;stroke-width:3;"/>
    <path clip-path="url(#p5a2cffcbd7)" d="M 247.68 266.273233 
L 247.68 264.770438 
" style="fill:none;stroke:#4169e1;stroke-width:3;"/>
    <path clip-path="url(#p5a2cffcbd7)" d="M 254.592 269.623011 
L 254.592 268.978015 
" style="fill:none;stroke:#4169e1;stroke-width:3;"/>
    <path clip-path="url(#p5a2cffcbd7)" d="M 261.504 267.275284 
L 261.504 265.962458 
" style="fill:none;stroke:#4169e1;stroke-width:3;"/>
    <path clip-path="url(#p5a2cffcbd7)" d="M 268.416 269.623011 
L 268.416 268.978015 
" style="fill:none;stroke:#4169e1;stroke-width:3;"/>
    <path clip-path="url(#p5a2cffcbd7)" d="M 275.328 256.396394 
L 275.328 253.681712 
" style="fill:none;stroke:#4169e1;stroke-width:3;"/>
    <path clip-path="url(#p5a2cffcbd7)" d="M 282.24 269.523385 
L 282.24 268.833855 
" style="fill:none;stroke:#4169e1;stroke-width:3;"/>
    <path clip-path="url(#p5a2cffcbd7)" d="M 289.152 268.369118 
L 289.152 267.306481 
" style="fill:none;stroke:#4169e1;stroke-width:3;"/>
    <path clip-path="url(#p5a2cffcbd7)" d="M 296.064 262.067424 
L 296.064 259.956179 
" style="fill:none;stroke:#4169e1;stroke-width:3;"/>
    <path clip-path="url(#p5a2cffcbd7)" d="M 302.976 268.261028 
L 302.976 267.170785 
" style="fill:none;stroke:#4169e1;stroke-width:3;"/>
    <path clip-path="url(#p5a2cffcbd7)" d="M 309.888 270.153763 
L 309.888 270.153763 
" style="fill:none;stroke:#4169e1;stroke-width:3;"/>
    <path clip-path="url(#p5a2cffcbd7)" d="M 316.8 270.153763 
L 316.8 270.153763 
" style="fill:none;stroke:#4169e1;stroke-width:3;"/>
    <path clip-path="url(#p5a2cffcbd7)" d="M 323.712 269.816859 
L 323.712 269.271738 
" style="fill:none;stroke:#4169e1;stroke-width:3;"/>
    <path clip-path="url(#p5a2cffcbd7)" d="M 330.624 270.153763 
L 330.624 270.153763 
" style="fill:none;stroke:#4169e1;stroke-width:3;"/>
    <path clip-path="url(#p5a2cffcbd7)" d="M 337.536 270.153763 
L 337.536 269.909977 
" style="fill:none;stroke:#4169e1;stroke-width:3;"/>
    <path clip-path="url(#p5a2cffcbd7)" d="M 344.448 201.794658 
L 344.448 195.89827 
" style="fill:none;stroke:#4169e1;stroke-width:3;"/>
    <path clip-path="url(#p5a2cffcbd7)" d="M 351.36 270.153763 
L 351.36 270.153763 
" style="fill:none;stroke:#4169e1;stroke-width:3;"/>
    <path clip-path="url(#p5a2cffcbd7)" d="M 358.272 269.999209 
L 358.272 269.57696 
" style="fill:none;stroke:#4169e1;stroke-width:3;"/>
    <path clip-path="url(#p5a2cffcbd7)" d="M 365.184 270.153763 
L 365.184 270.153763 
" style="fill:none;stroke:#4169e1;stroke-width:3;"/>
    <path clip-path="url(#p5a2cffcbd7)" d="M 372.096 269.523385 
L 372.096 268.833855 
" style="fill:none;stroke:#4169e1;stroke-width:3;"/>
    <path clip-path="url(#p5a2cffcbd7)" d="M 379.008 269.999209 
L 379.008 269.57696 
" style="fill:none;stroke:#4169e1;stroke-width:3;"/>
    <path clip-path="url(#p5a2cffcbd7)" d="M 385.92 270.153763 
L 385.92 270.153763 
" style="fill:none;stroke:#4169e1;stroke-width:3;"/>
    <path clip-path="url(#p5a2cffcbd7)" d="M 392.832 270.153763 
L 392.832 270.153763 
" style="fill:none;stroke:#4169e1;stroke-width:3;"/>
    <path clip-path="url(#p5a2cffcbd7)" d="M 399.744 270.153763 
L 399.744 270.153763 
" style="fill:none;stroke:#4169e1;stroke-width:3;"/>
    <path clip-path="url(#p5a2cffcbd7)" d="M 406.656 270.153763 
L 406.656 270.153763 
" style="fill:none;stroke:#4169e1;stroke-width:3;"/>
    <path clip-path="url(#p5a2cffcbd7)" d="M 413.568 270.153763 
L 413.568 270.153763 
" style="fill:none;stroke:#4169e1;stroke-width:3;"/>
    <path clip-path="url(#p5a2cffcbd7)" d="M 420.48 270.153763 
L 420.48 270.153763 
" style="fill:none;stroke:#4169e1;stroke-width:3;"/>
    <path clip-path="url(#p5a2cffcbd7)" d="M 427.392 270.153763 
L 427.392 270.153763 
" style="fill:none;stroke:#4169e1;stroke-width:3;"/>
    <path clip-path="url(#p5a2cffcbd7)" d="M 434.304 270.153763 
L 434.304 269.909977 
" style="fill:none;stroke:#4169e1;stroke-width:3;"/>
   </g>
   <g id="line2d_10">
    <path clip-path="url(#p5a2cffcbd7)" d="M 95.616 270.03187 
L 102.528 268.934835 
L 109.44 270.153763 
L 116.352 270.153763 
L 123.264 270.153763 
L 130.176 270.153763 
L 137.088 270.153763 
L 144 269.909977 
L 150.912 261.499373 
L 157.824 268.569156 
L 164.736 269.909977 
L 171.648 265.887514 
L 178.56 269.544299 
L 185.472 269.666191 
L 192.384 266.496978 
L 199.296 269.056727 
L 206.208 264.059122 
L 213.12 267.594014 
L 220.032 261.743158 
L 226.944 268.691049 
L 233.856 59.279186 
L 240.768 269.788084 
L 247.68 265.521836 
L 254.592 269.300513 
L 261.504 266.618871 
L 268.416 269.300513 
L 275.328 255.039053 
L 282.24 269.17862 
L 289.152 267.837799 
L 296.064 261.011801 
L 302.976 267.715906 
L 309.888 270.153763 
L 316.8 270.153763 
L 323.712 269.544299 
L 330.624 270.153763 
L 337.536 270.03187 
L 344.448 198.846464 
L 351.36 270.153763 
L 358.272 269.788084 
L 365.184 270.153763 
L 372.096 269.17862 
L 379.008 269.788084 
L 385.92 270.153763 
L 392.832 270.153763 
L 399.744 270.153763 
L 406.656 270.153763 
L 413.568 270.153763 
L 420.48 270.153763 
L 427.392 270.153763 
L 434.304 270.03187 
" style="fill:none;stroke:#4169e1;stroke-linecap:round;stroke-width:3;"/>
    <defs>
     <path d="M 0 3.25 
C 0.86191 3.25 1.688635 2.907559 2.298097 2.298097 
C 2.907559 1.688635 3.25 0.86191 3.25 0 
C 3.25 -0.86191 2.907559 -1.688635 2.298097 -2.298097 
C 1.688635 -2.907559 0.86191 -3.25 0 -3.25 
C -0.86191 -3.25 -1.688635 -2.907559 -2.298097 -2.298097 
C -2.907559 -1.688635 -3.25 -0.86191 -3.25 0 
C -3.25 0.86191 -2.907559 1.688635 -2.298097 2.298097 
C -1.688635 2.907559 -0.86191 3.25 0 3.25 
z
" id="mf956fc23cf" style="stroke:#4169e1;"/>
    </defs>
    <g clip-path="url(#p5a2cffcbd7)">
     <use style="fill:#4169e1;stroke:#4169e1;" x="95.616" xlink:href="#mf956fc23cf" y="270.03187"/>
     <use style="fill:#4169e1;stroke:#4169e1;" x="102.528" xlink:href="#mf956fc23cf" y="268.934835"/>
     <use style="fill:#4169e1;stroke:#4169e1;" x="109.44" xlink:href="#mf956fc23cf" y="270.153763"/>
     <use style="fill:#4169e1;stroke:#4169e1;" x="116.352" xlink:href="#mf956fc23cf" y="270.153763"/>
     <use style="fill:#4169e1;stroke:#4169e1;" x="123.264" xlink:href="#mf956fc23cf" y="270.153763"/>
     <use style="fill:#4169e1;stroke:#4169e1;" x="130.176" xlink:href="#mf956fc23cf" y="270.153763"/>
     <use style="fill:#4169e1;stroke:#4169e1;" x="137.088" xlink:href="#mf956fc23cf" y="270.153763"/>
     <use style="fill:#4169e1;stroke:#4169e1;" x="144" xlink:href="#mf956fc23cf" y="269.909977"/>
     <use style="fill:#4169e1;stroke:#4169e1;" x="150.912" xlink:href="#mf956fc23cf" y="261.499373"/>
     <use style="fill:#4169e1;stroke:#4169e1;" x="157.824" xlink:href="#mf956fc23cf" y="268.569156"/>
     <use style="fill:#4169e1;stroke:#4169e1;" x="164.736" xlink:href="#mf956fc23cf" y="269.909977"/>
     <use style="fill:#4169e1;stroke:#4169e1;" x="171.648" xlink:href="#mf956fc23cf" y="265.887514"/>
     <use style="fill:#4169e1;stroke:#4169e1;" x="178.56" xlink:href="#mf956fc23cf" y="269.544299"/>
     <use style="fill:#4169e1;stroke:#4169e1;" x="185.472" xlink:href="#mf956fc23cf" y="269.666191"/>
     <use style="fill:#4169e1;stroke:#4169e1;" x="192.384" xlink:href="#mf956fc23cf" y="266.496978"/>
     <use style="fill:#4169e1;stroke:#4169e1;" x="199.296" xlink:href="#mf956fc23cf" y="269.056727"/>
     <use style="fill:#4169e1;stroke:#4169e1;" x="206.208" xlink:href="#mf956fc23cf" y="264.059122"/>
     <use style="fill:#4169e1;stroke:#4169e1;" x="213.12" xlink:href="#mf956fc23cf" y="267.594014"/>
     <use style="fill:#4169e1;stroke:#4169e1;" x="220.032" xlink:href="#mf956fc23cf" y="261.743158"/>
     <use style="fill:#4169e1;stroke:#4169e1;" x="226.944" xlink:href="#mf956fc23cf" y="268.691049"/>
     <use style="fill:#4169e1;stroke:#4169e1;" x="233.856" xlink:href="#mf956fc23cf" y="59.279186"/>
     <use style="fill:#4169e1;stroke:#4169e1;" x="240.768" xlink:href="#mf956fc23cf" y="269.788084"/>
     <use style="fill:#4169e1;stroke:#4169e1;" x="247.68" xlink:href="#mf956fc23cf" y="265.521836"/>
     <use style="fill:#4169e1;stroke:#4169e1;" x="254.592" xlink:href="#mf956fc23cf" y="269.300513"/>
     <use style="fill:#4169e1;stroke:#4169e1;" x="261.504" xlink:href="#mf956fc23cf" y="266.618871"/>
     <use style="fill:#4169e1;stroke:#4169e1;" x="268.416" xlink:href="#mf956fc23cf" y="269.300513"/>
     <use style="fill:#4169e1;stroke:#4169e1;" x="275.328" xlink:href="#mf956fc23cf" y="255.039053"/>
     <use style="fill:#4169e1;stroke:#4169e1;" x="282.24" xlink:href="#mf956fc23cf" y="269.17862"/>
     <use style="fill:#4169e1;stroke:#4169e1;" x="289.152" xlink:href="#mf956fc23cf" y="267.837799"/>
     <use style="fill:#4169e1;stroke:#4169e1;" x="296.064" xlink:href="#mf956fc23cf" y="261.011801"/>
     <use style="fill:#4169e1;stroke:#4169e1;" x="302.976" xlink:href="#mf956fc23cf" y="267.715906"/>
     <use style="fill:#4169e1;stroke:#4169e1;" x="309.888" xlink:href="#mf956fc23cf" y="270.153763"/>
     <use style="fill:#4169e1;stroke:#4169e1;" x="316.8" xlink:href="#mf956fc23cf" y="270.153763"/>
     <use style="fill:#4169e1;stroke:#4169e1;" x="323.712" xlink:href="#mf956fc23cf" y="269.544299"/>
     <use style="fill:#4169e1;stroke:#4169e1;" x="330.624" xlink:href="#mf956fc23cf" y="270.153763"/>
     <use style="fill:#4169e1;stroke:#4169e1;" x="337.536" xlink:href="#mf956fc23cf" y="270.03187"/>
     <use style="fill:#4169e1;stroke:#4169e1;" x="344.448" xlink:href="#mf956fc23cf" y="198.846464"/>
     <use style="fill:#4169e1;stroke:#4169e1;" x="351.36" xlink:href="#mf956fc23cf" y="270.153763"/>
     <use style="fill:#4169e1;stroke:#4169e1;" x="358.272" xlink:href="#mf956fc23cf" y="269.788084"/>
     <use style="fill:#4169e1;stroke:#4169e1;" x="365.184" xlink:href="#mf956fc23cf" y="270.153763"/>
     <use style="fill:#4169e1;stroke:#4169e1;" x="372.096" xlink:href="#mf956fc23cf" y="269.17862"/>
     <use style="fill:#4169e1;stroke:#4169e1;" x="379.008" xlink:href="#mf956fc23cf" y="269.788084"/>
     <use style="fill:#4169e1;stroke:#4169e1;" x="385.92" xlink:href="#mf956fc23cf" y="270.153763"/>
     <use style="fill:#4169e1;stroke:#4169e1;" x="392.832" xlink:href="#mf956fc23cf" y="270.153763"/>
     <use style="fill:#4169e1;stroke:#4169e1;" x="399.744" xlink:href="#mf956fc23cf" y="270.153763"/>
     <use style="fill:#4169e1;stroke:#4169e1;" x="406.656" xlink:href="#mf956fc23cf" y="270.153763"/>
     <use style="fill:#4169e1;stroke:#4169e1;" x="413.568" xlink:href="#mf956fc23cf" y="270.153763"/>
     <use style="fill:#4169e1;stroke:#4169e1;" x="420.48" xlink:href="#mf956fc23cf" y="270.153763"/>
     <use style="fill:#4169e1;stroke:#4169e1;" x="427.392" xlink:href="#mf956fc23cf" y="270.153763"/>
     <use style="fill:#4169e1;stroke:#4169e1;" x="434.304" xlink:href="#mf956fc23cf" y="270.03187"/>
    </g>
   </g>
   <g id="patch_3">
    <path d="M 92.16 276.48 
L 92.16 27.648 
" style="fill:none;stroke:#262626;stroke-linecap:square;stroke-linejoin:miter;stroke-width:0.8;"/>
   </g>
   <g id="patch_4">
    <path d="M 92.16 276.48 
L 437.76 276.48 
" style="fill:none;stroke:#262626;stroke-linecap:square;stroke-linejoin:miter;stroke-width:0.8;"/>
   </g>
   <g id="text_12">
    <text style="fill:#262626;font-family:DejaVu Sans;font-size:15px;font-style:normal;font-weight:bold;text-anchor:middle;" transform="rotate(-0, 264.96, 21.648)" x="264.96" y="21.648">non-VJ length (inserts [+D]) (mean 28.2)</text>
   </g>
  </g>
 </g>
 <defs>
  <clipPath id="p5a2cffcbd7">
   <rect height="248.832" width="345.6" x="92.16" y="27.648"/>
  </clipPath>
 </defs>
</svg>
