<?xml version="1.0" encoding="utf-8" standalone="no"?>
<!DOCTYPE svg PUBLIC "-//W3C//DTD SVG 1.1//EN"
  "http://www.w3.org/Graphics/SVG/1.1/DTD/svg11.dtd">
<!-- Created with matplotlib (http://matplotlib.org/) -->
<svg height="345.6pt" version="1.1" viewBox="0 0 460.8 345.6" width="460.8pt" xmlns="http://www.w3.org/2000/svg" xmlns:xlink="http://www.w3.org/1999/xlink">
 <defs>
  <style type="text/css">
*{stroke-linecap:butt;stroke-linejoin:round;}
  </style>
 </defs>
 <g id="figure_1">
  <g id="patch_1">
   <path d="M 0 345.6 
L 460.8 345.6 
L 460.8 0 
L 0 0 
z
" style="fill:#ffffff;"/>
  </g>
  <g id="axes_1">
   <g id="patch_2">
    <path d="M 92.16 276.48 
L 437.76 276.48 
L 437.76 27.648 
L 92.16 27.648 
z
" style="fill:#ffffff;"/>
   </g>
   <g id="matplotlib.axis_1">
    <g id="xtick_1">
     <g id="line2d_1">
      <defs>
       <path d="M 0 0 
L 0 3.5 
" id="mb923a43b6a" style="stroke:#262626;stroke-width:0.8;"/>
      </defs>
      <g>
       <use style="fill:#262626;stroke:#262626;stroke-width:0.8;" x="100.8" xlink:href="#mb923a43b6a" y="276.48"/>
      </g>
     </g>
     <g id="text_1">
      <text style="fill:#262626;font-family:DejaVu Sans;font-size:20px;font-style:normal;font-weight:normal;text-anchor:middle;" transform="rotate(-0, 100.8, 298.676875)" x="100.8" y="298.676875">0</text>
     </g>
    </g>
    <g id="xtick_2">
     <g id="line2d_2">
      <g>
       <use style="fill:#262626;stroke:#262626;stroke-width:0.8;" x="187.2" xlink:href="#mb923a43b6a" y="276.48"/>
      </g>
     </g>
     <g id="text_2">
      <text style="fill:#262626;font-family:DejaVu Sans;font-size:20px;font-style:normal;font-weight:normal;text-anchor:middle;" transform="rotate(-0, 187.2, 298.676875)" x="187.2" y="298.676875">5</text>
     </g>
    </g>
    <g id="xtick_3">
     <g id="line2d_3">
      <g>
       <use style="fill:#262626;stroke:#262626;stroke-width:0.8;" x="273.6" xlink:href="#mb923a43b6a" y="276.48"/>
      </g>
     </g>
     <g id="text_3">
      <text style="fill:#262626;font-family:DejaVu Sans;font-size:20px;font-style:normal;font-weight:normal;text-anchor:middle;" transform="rotate(-0, 273.6, 298.676875)" x="273.6" y="298.676875">10</text>
     </g>
    </g>
    <g id="xtick_4">
     <g id="line2d_4">
      <g>
       <use style="fill:#262626;stroke:#262626;stroke-width:0.8;" x="360" xlink:href="#mb923a43b6a" y="276.48"/>
      </g>
     </g>
     <g id="text_4">
      <text style="fill:#262626;font-family:DejaVu Sans;font-size:20px;font-style:normal;font-weight:normal;text-anchor:middle;" transform="rotate(-0, 360, 298.676875)" x="360" y="298.676875">15</text>
     </g>
    </g>
    <g id="text_5">
     <text style="fill:#262626;font-family:DejaVu Sans;font-size:20px;font-style:normal;font-weight:normal;text-anchor:middle;" transform="rotate(-0, 264.96, 322.033125)" x="264.96" y="322.033125">bases</text>
    </g>
   </g>
   <g id="matplotlib.axis_2">
    <g id="ytick_1">
     <g id="line2d_5">
      <defs>
       <path d="M 0 0 
L -3.5 0 
" id="m3a6ac29b3d" style="stroke:#262626;stroke-width:0.8;"/>
      </defs>
      <g>
       <use style="fill:#262626;stroke:#262626;stroke-width:0.8;" x="92.16" xlink:href="#m3a6ac29b3d" y="270.153763"/>
      </g>
     </g>
     <g id="text_6">
      <text style="fill:#262626;font-family:DejaVu Sans;font-size:20px;font-style:normal;font-weight:normal;text-anchor:end;" transform="rotate(-0, 85.16, 277.7522)" x="85.16" y="277.7522">0.0</text>
     </g>
    </g>
    <g id="ytick_2">
     <g id="line2d_6">
      <g>
       <use style="fill:#262626;stroke:#262626;stroke-width:0.8;" x="92.16" xlink:href="#m3a6ac29b3d" y="197.563547"/>
      </g>
     </g>
     <g id="text_7">
      <text style="fill:#262626;font-family:DejaVu Sans;font-size:20px;font-style:normal;font-weight:normal;text-anchor:end;" transform="rotate(-0, 85.16, 205.161985)" x="85.16" y="205.161985">0.2</text>
     </g>
    </g>
    <g id="ytick_3">
     <g id="line2d_7">
      <g>
       <use style="fill:#262626;stroke:#262626;stroke-width:0.8;" x="92.16" xlink:href="#m3a6ac29b3d" y="124.973332"/>
      </g>
     </g>
     <g id="text_8">
      <text style="fill:#262626;font-family:DejaVu Sans;font-size:20px;font-style:normal;font-weight:normal;text-anchor:end;" transform="rotate(-0, 85.16, 132.571769)" x="85.16" y="132.571769">0.4</text>
     </g>
    </g>
    <g id="ytick_4">
     <g id="line2d_8">
      <g>
       <use style="fill:#262626;stroke:#262626;stroke-width:0.8;" x="92.16" xlink:href="#m3a6ac29b3d" y="52.383116"/>
      </g>
     </g>
     <g id="text_9">
      <text style="fill:#262626;font-family:DejaVu Sans;font-size:20px;font-style:normal;font-weight:normal;text-anchor:end;" transform="rotate(-0, 85.16, 59.981553)" x="85.16" y="59.981553">0.6</text>
     </g>
    </g>
    <g id="text_10">
     <text style="fill:#262626;font-family:DejaVu Sans;font-size:20px;font-style:normal;font-weight:normal;text-anchor:middle;" transform="rotate(-90, 45.194375, 152.064)" x="45.194375" y="152.064">freq (3000 total)</text>
    </g>
   </g>
   <g id="LineCollection_1">
    <path clip-path="url(#p64d2d8c27f)" d="M 100.8 247.084329 
L 100.8 243.619883 
" style="fill:none;stroke:#4169e1;stroke-width:3;"/>
    <path clip-path="url(#p64d2d8c27f)" d="M 118.08 255.920977 
L 118.08 253.172756 
" style="fill:none;stroke:#4169e1;stroke-width:3;"/>
    <path clip-path="url(#p64d2d8c27f)" d="M 135.36 259.839515 
L 135.36 257.481109 
" style="fill:none;stroke:#4169e1;stroke-width:3;"/>
    <path clip-path="url(#p64d2d8c27f)" d="M 152.64 251.280307 
L 152.64 248.134731 
" style="fill:none;stroke:#4169e1;stroke-width:3;"/>
    <path clip-path="url(#p64d2d8c27f)" d="M 169.92 64.330165 
L 169.92 54.228208 
" style="fill:none;stroke:#4169e1;stroke-width:3;"/>
    <path clip-path="url(#p64d2d8c27f)" d="M 187.2 268.807575 
L 187.2 267.870439 
" style="fill:none;stroke:#4169e1;stroke-width:3;"/>
    <path clip-path="url(#p64d2d8c27f)" d="M 204.48 269.121058 
L 204.48 268.282859 
" style="fill:none;stroke:#4169e1;stroke-width:3;"/>
    <path clip-path="url(#p64d2d8c27f)" d="M 221.76 269.017188 
L 221.76 268.144762 
" style="fill:none;stroke:#4169e1;stroke-width:3;"/>
    <path clip-path="url(#p64d2d8c27f)" d="M 239.04 269.528087 
L 239.04 268.8437 
" style="fill:none;stroke:#4169e1;stroke-width:3;"/>
    <path clip-path="url(#p64d2d8c27f)" d="M 256.32 270.082892 
L 256.32 269.740699 
" style="fill:none;stroke:#4169e1;stroke-width:3;"/>
    <path clip-path="url(#p64d2d8c27f)" d="M 273.6 207.752355 
L 273.6 202.13475 
" style="fill:none;stroke:#4169e1;stroke-width:3;"/>
    <path clip-path="url(#p64d2d8c27f)" d="M 290.88 269.62697 
L 290.88 268.986784 
" style="fill:none;stroke:#4169e1;stroke-width:3;"/>
    <path clip-path="url(#p64d2d8c27f)" d="M 308.16 264.847591 
L 308.16 263.119598 
" style="fill:none;stroke:#4169e1;stroke-width:3;"/>
    <path clip-path="url(#p64d2d8c27f)" d="M 325.44 270.153763 
L 325.44 270.153763 
" style="fill:none;stroke:#4169e1;stroke-width:3;"/>
    <path clip-path="url(#p64d2d8c27f)" d="M 342.72 269.911795 
L 342.72 269.427861 
" style="fill:none;stroke:#4169e1;stroke-width:3;"/>
    <path clip-path="url(#p64d2d8c27f)" d="M 360 270.153763 
L 360 270.153763 
" style="fill:none;stroke:#4169e1;stroke-width:3;"/>
    <path clip-path="url(#p64d2d8c27f)" d="M 377.28 270.153763 
L 377.28 270.153763 
" style="fill:none;stroke:#4169e1;stroke-width:3;"/>
    <path clip-path="url(#p64d2d8c27f)" d="M 394.56 270.153763 
L 394.56 270.153763 
" style="fill:none;stroke:#4169e1;stroke-width:3;"/>
    <path clip-path="url(#p64d2d8c27f)" d="M 411.84 269.62697 
L 411.84 268.986784 
" style="fill:none;stroke:#4169e1;stroke-width:3;"/>
    <path clip-path="url(#p64d2d8c27f)" d="M 429.12 270.153763 
L 429.12 269.911795 
" style="fill:none;stroke:#4169e1;stroke-width:3;"/>
   </g>
   <g id="line2d_9">
    <path clip-path="url(#p64d2d8c27f)" d="M 100.8 245.352106 
L 118.08 254.546866 
L 135.36 258.660312 
L 152.64 249.707519 
L 169.92 59.279186 
L 187.2 268.339007 
L 204.48 268.701958 
L 221.76 268.580975 
L 239.04 269.185893 
L 256.32 269.911795 
L 273.6 204.943552 
L 290.88 269.306877 
L 308.16 263.983594 
L 325.44 270.153763 
L 342.72 269.669828 
L 360 270.153763 
L 377.28 270.153763 
L 394.56 270.153763 
L 411.84 269.306877 
L 429.12 270.032779 
" style="fill:none;stroke:#4169e1;stroke-linecap:round;stroke-width:3;"/>
    <defs>
     <path d="M 0 3.25 
C 0.86191 3.25 1.688635 2.907559 2.298097 2.298097 
C 2.907559 1.688635 3.25 0.86191 3.25 0 
C 3.25 -0.86191 2.907559 -1.688635 2.298097 -2.298097 
C 1.688635 -2.907559 0.86191 -3.25 0 -3.25 
C -0.86191 -3.25 -1.688635 -2.907559 -2.298097 -2.298097 
C -2.907559 -1.688635 -3.25 -0.86191 -3.25 0 
C -3.25 0.86191 -2.907559 1.688635 -2.298097 2.298097 
C -1.688635 2.907559 -0.86191 3.25 0 3.25 
z
" id="mc3d0008ebf" style="stroke:#4169e1;"/>
    </defs>
    <g clip-path="url(#p64d2d8c27f)">
     <use style="fill:#4169e1;stroke:#4169e1;" x="100.8" xlink:href="#mc3d0008ebf" y="245.352106"/>
     <use style="fill:#4169e1;stroke:#4169e1;" x="118.08" xlink:href="#mc3d0008ebf" y="254.546866"/>
     <use style="fill:#4169e1;stroke:#4169e1;" x="135.36" xlink:href="#mc3d0008ebf" y="258.660312"/>
     <use style="fill:#4169e1;stroke:#4169e1;" x="152.64" xlink:href="#mc3d0008ebf" y="249.707519"/>
     <use style="fill:#4169e1;stroke:#4169e1;" x="169.92" xlink:href="#mc3d0008ebf" y="59.279186"/>
     <use style="fill:#4169e1;stroke:#4169e1;" x="187.2" xlink:href="#mc3d0008ebf" y="268.339007"/>
     <use style="fill:#4169e1;stroke:#4169e1;" x="204.48" xlink:href="#mc3d0008ebf" y="268.701958"/>
     <use style="fill:#4169e1;stroke:#4169e1;" x="221.76" xlink:href="#mc3d0008ebf" y="268.580975"/>
     <use style="fill:#4169e1;stroke:#4169e1;" x="239.04" xlink:href="#mc3d0008ebf" y="269.185893"/>
     <use style="fill:#4169e1;stroke:#4169e1;" x="256.32" xlink:href="#mc3d0008ebf" y="269.911795"/>
     <use style="fill:#4169e1;stroke:#4169e1;" x="273.6" xlink:href="#mc3d0008ebf" y="204.943552"/>
     <use style="fill:#4169e1;stroke:#4169e1;" x="290.88" xlink:href="#mc3d0008ebf" y="269.306877"/>
     <use style="fill:#4169e1;stroke:#4169e1;" x="308.16" xlink:href="#mc3d0008ebf" y="263.983594"/>
     <use style="fill:#4169e1;stroke:#4169e1;" x="325.44" xlink:href="#mc3d0008ebf" y="270.153763"/>
     <use style="fill:#4169e1;stroke:#4169e1;" x="342.72" xlink:href="#mc3d0008ebf" y="269.669828"/>
     <use style="fill:#4169e1;stroke:#4169e1;" x="360" xlink:href="#mc3d0008ebf" y="270.153763"/>
     <use style="fill:#4169e1;stroke:#4169e1;" x="377.28" xlink:href="#mc3d0008ebf" y="270.153763"/>
     <use style="fill:#4169e1;stroke:#4169e1;" x="394.56" xlink:href="#mc3d0008ebf" y="270.153763"/>
     <use style="fill:#4169e1;stroke:#4169e1;" x="411.84" xlink:href="#mc3d0008ebf" y="269.306877"/>
     <use style="fill:#4169e1;stroke:#4169e1;" x="429.12" xlink:href="#mc3d0008ebf" y="270.032779"/>
    </g>
   </g>
   <g id="patch_3">
    <path d="M 92.16 276.48 
L 92.16 27.648 
" style="fill:none;stroke:#262626;stroke-linecap:square;stroke-linejoin:miter;stroke-width:0.8;"/>
   </g>
   <g id="patch_4">
    <path d="M 92.16 276.48 
L 437.76 276.48 
" style="fill:none;stroke:#262626;stroke-linecap:square;stroke-linejoin:miter;stroke-width:0.8;"/>
   </g>
   <g id="text_11">
    <text style="fill:#262626;font-family:DejaVu Sans;font-size:20px;font-style:normal;font-weight:bold;text-anchor:middle;" transform="rotate(-0, 264.96, 21.648)" x="264.96" y="21.648">VD N length</text>
   </g>
  </g>
 </g>
 <defs>
  <clipPath id="p64d2d8c27f">
   <rect height="248.832" width="345.6" x="92.16" y="27.648"/>
  </clipPath>
 </defs>
</svg>
