<?xml version="1.0" encoding="utf-8" standalone="no"?>
<!DOCTYPE svg PUBLIC "-//W3C//DTD SVG 1.1//EN"
  "http://www.w3.org/Graphics/SVG/1.1/DTD/svg11.dtd">
<!-- Created with matplotlib (http://matplotlib.org/) -->
<svg height="345.6pt" version="1.1" viewBox="0 0 460.8 345.6" width="460.8pt" xmlns="http://www.w3.org/2000/svg" xmlns:xlink="http://www.w3.org/1999/xlink">
 <defs>
  <style type="text/css">
*{stroke-linecap:butt;stroke-linejoin:round;}
  </style>
 </defs>
 <g id="figure_1">
  <g id="patch_1">
   <path d="M 0 345.6 
L 460.8 345.6 
L 460.8 0 
L 0 0 
z
" style="fill:#ffffff;"/>
  </g>
  <g id="axes_1">
   <g id="patch_2">
    <path d="M 0 345.6 
L 460.8 345.6 
L 460.8 0 
L 0 0 
z
" style="fill:#ffffff;"/>
   </g>
   <g id="PathCollection_1">
    <defs>
     <path d="M 0 3 
C 0.795609 3 1.55874 2.683901 2.12132 2.12132 
C 2.683901 1.55874 3 0.795609 3 0 
C 3 -0.795609 2.683901 -1.55874 2.12132 -2.12132 
C 1.55874 -2.683901 0.795609 -3 0 -3 
C -0.795609 -3 -1.55874 -2.683901 -2.12132 -2.12132 
C -2.683901 -1.55874 -3 -0.795609 -3 0 
C -3 0.795609 -2.683901 1.55874 -2.12132 2.12132 
C -1.55874 2.683901 -0.795609 3 0 3 
z
" id="m6f8c2d7d2f" style="stroke:#c9ddf0;"/>
    </defs>
    <g clip-path="url(#p2713edd431)">
     <use style="fill:#c9ddf0;stroke:#c9ddf0;" x="268.348913" xlink:href="#m6f8c2d7d2f" y="208.501165"/>
    </g>
   </g>
   <g id="PathCollection_2">
    <defs>
     <path d="M 0 3 
C 0.795609 3 1.55874 2.683901 2.12132 2.12132 
C 2.683901 1.55874 3 0.795609 3 0 
C 3 -0.795609 2.683901 -1.55874 2.12132 -2.12132 
C 1.55874 -2.683901 0.795609 -3 0 -3 
C -0.795609 -3 -1.55874 -2.683901 -2.12132 -2.12132 
C -2.683901 -1.55874 -3 -0.795609 -3 0 
C -3 0.795609 -2.683901 1.55874 -2.12132 2.12132 
C -1.55874 2.683901 -0.795609 3 0 3 
z
" id="ma5719168f4" style="stroke:#66abd4;"/>
    </defs>
    <g clip-path="url(#p2713edd431)">
     <use style="fill:#66abd4;stroke:#66abd4;" x="284.201586" xlink:href="#ma5719168f4" y="253.128816"/>
    </g>
   </g>
   <g id="PathCollection_3">
    <defs>
     <path d="M 0 3 
C 0.795609 3 1.55874 2.683901 2.12132 2.12132 
C 2.683901 1.55874 3 0.795609 3 0 
C 3 -0.795609 2.683901 -1.55874 2.12132 -2.12132 
C 1.55874 -2.683901 0.795609 -3 0 -3 
C -0.795609 -3 -1.55874 -2.683901 -2.12132 -2.12132 
C -2.683901 -1.55874 -3 -0.795609 -3 0 
C -3 0.795609 -2.683901 1.55874 -2.12132 2.12132 
C -1.55874 2.683901 -0.795609 3 0 3 
z
" id="m6389376c6e" style="stroke:#82bbdb;"/>
    </defs>
    <g clip-path="url(#p2713edd431)">
     <use style="fill:#82bbdb;stroke:#82bbdb;" x="273.897348" xlink:href="#m6389376c6e" y="255.204521"/>
    </g>
   </g>
   <g id="PathCollection_4">
    <defs>
     <path d="M 0 3 
C 0.795609 3 1.55874 2.683901 2.12132 2.12132 
C 2.683901 1.55874 3 0.795609 3 0 
C 3 -0.795609 2.683901 -1.55874 2.12132 -2.12132 
C 1.55874 -2.683901 0.795609 -3 0 -3 
C -0.795609 -3 -1.55874 -2.683901 -2.12132 -2.12132 
C -2.683901 -1.55874 -3 -0.795609 -3 0 
C -3 0.795609 -2.683901 1.55874 -2.12132 2.12132 
C -1.55874 2.683901 -0.795609 3 0 3 
z
" id="mffc776a8f4" style="stroke:#4f9bcb;"/>
    </defs>
    <g clip-path="url(#p2713edd431)">
     <use style="fill:#4f9bcb;stroke:#4f9bcb;" x="352.368083" xlink:href="#mffc776a8f4" y="152.457139"/>
    </g>
   </g>
   <g id="PathCollection_5">
    <defs>
     <path d="M 0 3 
C 0.795609 3 1.55874 2.683901 2.12132 2.12132 
C 2.683901 1.55874 3 0.795609 3 0 
C 3 -0.795609 2.683901 -1.55874 2.12132 -2.12132 
C 1.55874 -2.683901 0.795609 -3 0 -3 
C -0.795609 -3 -1.55874 -2.683901 -2.12132 -2.12132 
C -2.683901 -1.55874 -3 -0.795609 -3 0 
C -3 0.795609 -2.683901 1.55874 -2.12132 2.12132 
C -1.55874 2.683901 -0.795609 3 0 3 
z
" id="mda5c6572a5" style="stroke:#9dcae1;"/>
    </defs>
    <g clip-path="url(#p2713edd431)">
     <use style="fill:#9dcae1;stroke:#9dcae1;" x="262.800477" xlink:href="#mda5c6572a5" y="232.371769"/>
    </g>
   </g>
   <g id="PathCollection_6">
    <defs>
     <path d="M 0 3 
C 0.795609 3 1.55874 2.683901 2.12132 2.12132 
C 2.683901 1.55874 3 0.795609 3 0 
C 3 -0.795609 2.683901 -1.55874 2.12132 -2.12132 
C 1.55874 -2.683901 0.795609 -3 0 -3 
C -0.795609 -3 -1.55874 -2.683901 -2.12132 -2.12132 
C -2.683901 -1.55874 -3 -0.795609 -3 0 
C -3 0.795609 -2.683901 1.55874 -2.12132 2.12132 
C -1.55874 2.683901 -0.795609 3 0 3 
z
" id="m4cc3c5d42b" style="stroke:#b4d3e9;"/>
    </defs>
    <g clip-path="url(#p2713edd431)">
     <use style="fill:#b4d3e9;stroke:#b4d3e9;" x="271.519447" xlink:href="#m4cc3c5d42b" y="218.879689"/>
    </g>
   </g>
   <g id="PathCollection_7">
    <g clip-path="url(#p2713edd431)">
     <use style="fill:#4f9bcb;stroke:#4f9bcb;" x="290.542656" xlink:href="#mffc776a8f4" y="311.248547"/>
    </g>
   </g>
   <g id="PathCollection_8">
    <g clip-path="url(#p2713edd431)">
     <use style="fill:#9dcae1;stroke:#9dcae1;" x="271.519447" xlink:href="#mda5c6572a5" y="238.598883"/>
    </g>
   </g>
   <g id="PathCollection_9">
    <g clip-path="url(#p2713edd431)">
     <use style="fill:#82bbdb;stroke:#82bbdb;" x="278.65315" xlink:href="#m6389376c6e" y="260.393783"/>
    </g>
   </g>
   <g id="PathCollection_10">
    <g clip-path="url(#p2713edd431)">
     <use style="fill:#66abd4;stroke:#66abd4;" x="323.040637" xlink:href="#ma5719168f4" y="187.744118"/>
    </g>
   </g>
   <g id="PathCollection_11">
    <g clip-path="url(#p2713edd431)">
     <use style="fill:#4f9bcb;stroke:#4f9bcb;" x="262.800477" xlink:href="#mffc776a8f4" y="259.35593"/>
    </g>
   </g>
   <g id="PathCollection_12">
    <g clip-path="url(#p2713edd431)">
     <use style="fill:#9dcae1;stroke:#9dcae1;" x="272.312081" xlink:href="#mda5c6572a5" y="245.86385"/>
    </g>
   </g>
   <g id="PathCollection_13">
    <g clip-path="url(#p2713edd431)">
     <use style="fill:#82bbdb;stroke:#82bbdb;" x="279.445784" xlink:href="#m6389376c6e" y="255.204521"/>
    </g>
   </g>
   <g id="PathCollection_14">
    <g clip-path="url(#p2713edd431)">
     <use style="fill:#66abd4;stroke:#66abd4;" x="255.666774" xlink:href="#ma5719168f4" y="193.971232"/>
    </g>
   </g>
   <g id="PathCollection_15">
    <g clip-path="url(#p2713edd431)">
     <use style="fill:#82bbdb;stroke:#82bbdb;" x="346.027013" xlink:href="#m6389376c6e" y="127.548682"/>
    </g>
   </g>
   <g id="PathCollection_16">
    <g clip-path="url(#p2713edd431)">
     <use style="fill:#4f9bcb;stroke:#4f9bcb;" x="383.280796" xlink:href="#mffc776a8f4" y="101.602374"/>
    </g>
   </g>
   <g id="PathCollection_17">
    <g clip-path="url(#p2713edd431)">
     <use style="fill:#66abd4;stroke:#66abd4;" x="302.432161" xlink:href="#ma5719168f4" y="124.435125"/>
    </g>
   </g>
   <g id="PathCollection_18">
    <g clip-path="url(#p2713edd431)">
     <use style="fill:#66abd4;stroke:#66abd4;" x="208.901387" xlink:href="#ma5719168f4" y="206.425461"/>
    </g>
   </g>
   <g id="PathCollection_19">
    <g clip-path="url(#p2713edd431)">
     <use style="fill:#9dcae1;stroke:#9dcae1;" x="272.312081" xlink:href="#mda5c6572a5" y="243.788145"/>
    </g>
   </g>
   <g id="PathCollection_20">
    <defs>
     <path d="M 0 3 
C 0.795609 3 1.55874 2.683901 2.12132 2.12132 
C 2.683901 1.55874 3 0.795609 3 0 
C 3 -0.795609 2.683901 -1.55874 2.12132 -2.12132 
C 1.55874 -2.683901 0.795609 -3 0 -3 
C -0.795609 -3 -1.55874 -2.683901 -2.12132 -2.12132 
C -2.683901 -1.55874 -3 -0.795609 -3 0 
C -3 0.795609 -2.683901 1.55874 -2.12132 2.12132 
C -1.55874 2.683901 -0.795609 3 0 3 
z
" id="m5422531481" style="stroke:#0a549e;"/>
    </defs>
    <g clip-path="url(#p2713edd431)">
     <use style="fill:#0a549e;stroke:#0a549e;" x="57.508354" xlink:href="#m5422531481" y="47.634052"/>
    </g>
   </g>
   <g id="PathCollection_21">
    <g clip-path="url(#p2713edd431)">
     <use style="fill:#9dcae1;stroke:#9dcae1;" x="275.482616" xlink:href="#mda5c6572a5" y="234.447474"/>
    </g>
   </g>
   <g id="PathCollection_22">
    <g clip-path="url(#p2713edd431)">
     <use style="fill:#82bbdb;stroke:#82bbdb;" x="286.579487" xlink:href="#m6389376c6e" y="252.090964"/>
    </g>
   </g>
   <g id="PathCollection_23">
    <g clip-path="url(#p2713edd431)">
     <use style="fill:#82bbdb;stroke:#82bbdb;" x="290.542656" xlink:href="#m6389376c6e" y="248.977407"/>
    </g>
   </g>
   <g id="PathCollection_24">
    <g clip-path="url(#p2713edd431)">
     <use style="fill:#82bbdb;stroke:#82bbdb;" x="292.920557" xlink:href="#m6389376c6e" y="140.002911"/>
    </g>
   </g>
   <g id="PathCollection_25">
    <g clip-path="url(#p2713edd431)">
     <use style="fill:#9dcae1;stroke:#9dcae1;" x="268.348913" xlink:href="#mda5c6572a5" y="234.447474"/>
    </g>
   </g>
   <g id="PathCollection_26">
    <g clip-path="url(#p2713edd431)">
     <use style="fill:#b4d3e9;stroke:#b4d3e9;" x="275.482616" xlink:href="#m4cc3c5d42b" y="210.57687"/>
    </g>
   </g>
   <g id="PathCollection_27">
    <defs>
     <path d="M 0 3 
C 0.795609 3 1.55874 2.683901 2.12132 2.12132 
C 2.683901 1.55874 3 0.795609 3 0 
C 3 -0.795609 2.683901 -1.55874 2.12132 -2.12132 
C 1.55874 -2.683901 0.795609 -3 0 -3 
C -0.795609 -3 -1.55874 -2.683901 -2.12132 -2.12132 
C -2.683901 -1.55874 -3 -0.795609 -3 0 
C -3 0.795609 -2.683901 1.55874 -2.12132 2.12132 
C -1.55874 2.683901 -0.795609 3 0 3 
z
" id="m9d5acb4057" style="stroke:#3a8ac2;"/>
    </defs>
    <g clip-path="url(#p2713edd431)">
     <use style="fill:#3a8ac2;stroke:#3a8ac2;" x="309.565864" xlink:href="#m9d5acb4057" y="118.208011"/>
    </g>
   </g>
   <g id="PathCollection_28">
    <g clip-path="url(#p2713edd431)">
     <use style="fill:#82bbdb;stroke:#82bbdb;" x="280.238418" xlink:href="#m6389376c6e" y="265.583044"/>
    </g>
   </g>
   <g id="PathCollection_29">
    <g clip-path="url(#p2713edd431)">
     <use style="fill:#82bbdb;stroke:#82bbdb;" x="278.65315" xlink:href="#m6389376c6e" y="236.523179"/>
    </g>
   </g>
   <g id="PathCollection_30">
    <g clip-path="url(#p2713edd431)">
     <use style="fill:#66abd4;stroke:#66abd4;" x="250.118338" xlink:href="#ma5719168f4" y="203.311904"/>
    </g>
   </g>
   <g id="PathCollection_31">
    <g clip-path="url(#p2713edd431)">
     <use style="fill:#9dcae1;stroke:#9dcae1;" x="241.399368" xlink:href="#mda5c6572a5" y="210.57687"/>
    </g>
   </g>
   <g id="PathCollection_32">
    <g clip-path="url(#p2713edd431)">
     <use style="fill:#66abd4;stroke:#66abd4;" x="224.75406" xlink:href="#ma5719168f4" y="216.803984"/>
    </g>
   </g>
   <g id="PathCollection_33">
    <defs>
     <path d="M 0 3 
C 0.795609 3 1.55874 2.683901 2.12132 2.12132 
C 2.683901 1.55874 3 0.795609 3 0 
C 3 -0.795609 2.683901 -1.55874 2.12132 -2.12132 
C 1.55874 -2.683901 0.795609 -3 0 -3 
C -0.795609 -3 -1.55874 -2.683901 -2.12132 -2.12132 
C -2.683901 -1.55874 -3 -0.795609 -3 0 
C -3 0.795609 -2.683901 1.55874 -2.12132 2.12132 
C -1.55874 2.683901 -0.795609 3 0 3 
z
" id="m0426bbc77a" style="stroke:#2979b9;"/>
    </defs>
    <g clip-path="url(#p2713edd431)">
     <use style="fill:#2979b9;stroke:#2979b9;" x="372.183925" xlink:href="#m0426bbc77a" y="164.911367"/>
    </g>
   </g>
   <g id="PathCollection_34">
    <g clip-path="url(#p2713edd431)">
     <use style="fill:#0a549e;stroke:#0a549e;" x="70.983126" xlink:href="#m5422531481" y="76.693918"/>
    </g>
   </g>
   <g id="PathCollection_35">
    <g clip-path="url(#p2713edd431)">
     <use style="fill:#3a8ac2;stroke:#3a8ac2;" x="343.649112" xlink:href="#m9d5acb4057" y="65.277542"/>
    </g>
   </g>
   <g id="PathCollection_36">
    <g clip-path="url(#p2713edd431)">
     <use style="fill:#66abd4;stroke:#66abd4;" x="323.83327" xlink:href="#ma5719168f4" y="81.883179"/>
    </g>
   </g>
   <g id="PathCollection_37">
    <g clip-path="url(#p2713edd431)">
     <use style="fill:#82bbdb;stroke:#82bbdb;" x="280.238418" xlink:href="#m6389376c6e" y="254.166668"/>
    </g>
   </g>
   <g id="PathCollection_38">
    <g clip-path="url(#p2713edd431)">
     <use style="fill:#66abd4;stroke:#66abd4;" x="281.031052" xlink:href="#ma5719168f4" y="266.620897"/>
    </g>
   </g>
   <g id="PathCollection_39">
    <defs>
     <path d="M 0 3 
C 0.795609 3 1.55874 2.683901 2.12132 2.12132 
C 2.683901 1.55874 3 0.795609 3 0 
C 3 -0.795609 2.683901 -1.55874 2.12132 -2.12132 
C 1.55874 -2.683901 0.795609 -3 0 -3 
C -0.795609 -3 -1.55874 -2.683901 -2.12132 -2.12132 
C -2.683901 -1.55874 -3 -0.795609 -3 0 
C -3 0.795609 -2.683901 1.55874 -2.12132 2.12132 
C -1.55874 2.683901 -0.795609 3 0 3 
z
" id="m51661d4e9c" style="stroke:#08306b;"/>
    </defs>
    <g clip-path="url(#p2713edd431)">
     <use style="fill:#08306b;stroke:#08306b;" x="22.632472" xlink:href="#m51661d4e9c" y="17.536334"/>
    </g>
   </g>
   <g id="PathCollection_40">
    <g clip-path="url(#p2713edd431)">
     <use style="fill:#82bbdb;stroke:#82bbdb;" x="341.271211" xlink:href="#m6389376c6e" y="134.813649"/>
    </g>
   </g>
   <g id="PathCollection_41">
    <g clip-path="url(#p2713edd431)">
     <use style="fill:#9dcae1;stroke:#9dcae1;" x="306.395329" xlink:href="#mda5c6572a5" y="183.592709"/>
    </g>
   </g>
   <g id="PathCollection_42">
    <g clip-path="url(#p2713edd431)">
     <use style="fill:#82bbdb;stroke:#82bbdb;" x="281.823685" xlink:href="#m6389376c6e" y="250.015259"/>
    </g>
   </g>
   <g id="PathCollection_43">
    <g clip-path="url(#p2713edd431)">
     <use style="fill:#9dcae1;stroke:#9dcae1;" x="269.93418" xlink:href="#mda5c6572a5" y="216.803984"/>
    </g>
   </g>
   <g id="PathCollection_44">
    <g clip-path="url(#p2713edd431)">
     <use style="fill:#66abd4;stroke:#66abd4;" x="285.786854" xlink:href="#ma5719168f4" y="270.772306"/>
    </g>
   </g>
   <g id="PathCollection_45">
    <g clip-path="url(#p2713edd431)">
     <use style="fill:#66abd4;stroke:#66abd4;" x="283.408953" xlink:href="#ma5719168f4" y="246.901702"/>
    </g>
   </g>
   <g id="PathCollection_46">
    <g clip-path="url(#p2713edd431)">
     <use style="fill:#82bbdb;stroke:#82bbdb;" x="282.616319" xlink:href="#m6389376c6e" y="281.150829"/>
    </g>
   </g>
   <g id="PathCollection_47">
    <g clip-path="url(#p2713edd431)">
     <use style="fill:#66abd4;stroke:#66abd4;" x="211.279288" xlink:href="#ma5719168f4" y="203.311904"/>
    </g>
   </g>
   <g id="PathCollection_48">
    <g clip-path="url(#p2713edd431)">
     <use style="fill:#66abd4;stroke:#66abd4;" x="242.984635" xlink:href="#ma5719168f4" y="229.258212"/>
    </g>
   </g>
   <g id="PathCollection_49">
    <g clip-path="url(#p2713edd431)">
     <use style="fill:#4f9bcb;stroke:#4f9bcb;" x="334.930142" xlink:href="#mffc776a8f4" y="208.501165"/>
    </g>
   </g>
   <g id="PathCollection_50">
    <g clip-path="url(#p2713edd431)">
     <use style="fill:#66abd4;stroke:#66abd4;" x="329.381706" xlink:href="#ma5719168f4" y="173.214186"/>
    </g>
   </g>
   <g id="PathCollection_51">
    <g clip-path="url(#p2713edd431)">
     <use style="fill:#82bbdb;stroke:#82bbdb;" x="303.224795" xlink:href="#m6389376c6e" y="219.917541"/>
    </g>
   </g>
   <g id="PathCollection_52">
    <g clip-path="url(#p2713edd431)">
     <use style="fill:#82bbdb;stroke:#82bbdb;" x="281.823685" xlink:href="#m6389376c6e" y="240.674588"/>
    </g>
   </g>
   <g id="PathCollection_53">
    <g clip-path="url(#p2713edd431)">
     <use style="fill:#9dcae1;stroke:#9dcae1;" x="268.348913" xlink:href="#mda5c6572a5" y="238.598883"/>
    </g>
   </g>
   <g id="PathCollection_54">
    <g clip-path="url(#p2713edd431)">
     <use style="fill:#82bbdb;stroke:#82bbdb;" x="308.77323" xlink:href="#m6389376c6e" y="169.062776"/>
    </g>
   </g>
   <g id="PathCollection_55">
    <g clip-path="url(#p2713edd431)">
     <use style="fill:#4f9bcb;stroke:#4f9bcb;" x="301.639527" xlink:href="#mffc776a8f4" y="267.658749"/>
    </g>
   </g>
   <g id="PathCollection_56">
    <g clip-path="url(#p2713edd431)">
     <use style="fill:#c9ddf0;stroke:#c9ddf0;" x="262.007843" xlink:href="#m6f8c2d7d2f" y="198.122642"/>
    </g>
   </g>
   <g id="PathCollection_57">
    <g clip-path="url(#p2713edd431)">
     <use style="fill:#82bbdb;stroke:#82bbdb;" x="291.335289" xlink:href="#m6389376c6e" y="247.939554"/>
    </g>
   </g>
   <g id="PathCollection_58">
    <g clip-path="url(#p2713edd431)">
     <use style="fill:#82bbdb;stroke:#82bbdb;" x="273.897348" xlink:href="#m6389376c6e" y="265.583044"/>
    </g>
   </g>
   <g id="PathCollection_59">
    <g clip-path="url(#p2713edd431)">
     <use style="fill:#c9ddf0;stroke:#c9ddf0;" x="265.971012" xlink:href="#m6f8c2d7d2f" y="215.766132"/>
    </g>
   </g>
   <g id="PathCollection_60">
    <g clip-path="url(#p2713edd431)">
     <use style="fill:#3a8ac2;stroke:#3a8ac2;" x="286.579487" xlink:href="#m9d5acb4057" y="300.870024"/>
    </g>
   </g>
   <g id="PathCollection_61">
    <g clip-path="url(#p2713edd431)">
     <use style="fill:#66abd4;stroke:#66abd4;" x="280.238418" xlink:href="#ma5719168f4" y="267.658749"/>
    </g>
   </g>
   <g id="PathCollection_62">
    <g clip-path="url(#p2713edd431)">
     <use style="fill:#9dcae1;stroke:#9dcae1;" x="268.348913" xlink:href="#mda5c6572a5" y="217.841836"/>
    </g>
   </g>
   <g id="PathCollection_63">
    <g clip-path="url(#p2713edd431)">
     <use style="fill:#82bbdb;stroke:#82bbdb;" x="274.689982" xlink:href="#m6389376c6e" y="227.182507"/>
    </g>
   </g>
   <g id="PathCollection_64">
    <g clip-path="url(#p2713edd431)">
     <use style="fill:#66abd4;stroke:#66abd4;" x="277.067883" xlink:href="#ma5719168f4" y="244.825997"/>
    </g>
   </g>
   <g id="PathCollection_65">
    <g clip-path="url(#p2713edd431)">
     <use style="fill:#9dcae1;stroke:#9dcae1;" x="271.519447" xlink:href="#mda5c6572a5" y="253.128816"/>
    </g>
   </g>
   <g id="PathCollection_66">
    <g clip-path="url(#p2713edd431)">
     <use style="fill:#c9ddf0;stroke:#c9ddf0;" x="269.93418" xlink:href="#m6f8c2d7d2f" y="217.841836"/>
    </g>
   </g>
   <g id="PathCollection_67">
    <g clip-path="url(#p2713edd431)">
     <use style="fill:#82bbdb;stroke:#82bbdb;" x="330.966973" xlink:href="#m6389376c6e" y="163.873515"/>
    </g>
   </g>
   <g id="PathCollection_68">
    <g clip-path="url(#p2713edd431)">
     <use style="fill:#b4d3e9;stroke:#b4d3e9;" x="275.482616" xlink:href="#m4cc3c5d42b" y="210.57687"/>
    </g>
   </g>
   <g id="PathCollection_69">
    <g clip-path="url(#p2713edd431)">
     <use style="fill:#4f9bcb;stroke:#4f9bcb;" x="265.178378" xlink:href="#mffc776a8f4" y="299.832172"/>
    </g>
   </g>
   <g id="PathCollection_70">
    <g clip-path="url(#p2713edd431)">
     <use style="fill:#66abd4;stroke:#66abd4;" x="243.777269" xlink:href="#ma5719168f4" y="229.258212"/>
    </g>
   </g>
   <g id="PathCollection_71">
    <g clip-path="url(#p2713edd431)">
     <use style="fill:#9dcae1;stroke:#9dcae1;" x="271.519447" xlink:href="#mda5c6572a5" y="229.258212"/>
    </g>
   </g>
   <g id="PathCollection_72">
    <g clip-path="url(#p2713edd431)">
     <use style="fill:#66abd4;stroke:#66abd4;" x="355.538617" xlink:href="#ma5719168f4" y="124.435125"/>
    </g>
   </g>
   <g id="PathCollection_73">
    <g clip-path="url(#p2713edd431)">
     <use style="fill:#9dcae1;stroke:#9dcae1;" x="330.17434" xlink:href="#mda5c6572a5" y="128.586535"/>
    </g>
   </g>
   <g id="PathCollection_74">
    <g clip-path="url(#p2713edd431)">
     <use style="fill:#66abd4;stroke:#66abd4;" x="265.971012" xlink:href="#ma5719168f4" y="281.150829"/>
    </g>
   </g>
   <g id="PathCollection_75">
    <g clip-path="url(#p2713edd431)">
     <use style="fill:#9dcae1;stroke:#9dcae1;" x="277.067883" xlink:href="#mda5c6572a5" y="228.22036"/>
    </g>
   </g>
   <g id="PathCollection_76">
    <g clip-path="url(#p2713edd431)">
     <use style="fill:#66abd4;stroke:#66abd4;" x="273.897348" xlink:href="#ma5719168f4" y="238.598883"/>
    </g>
   </g>
   <g id="PathCollection_77">
    <defs>
     <path d="M 0 3 
C 0.795609 3 1.55874 2.683901 2.12132 2.12132 
C 2.683901 1.55874 3 0.795609 3 0 
C 3 -0.795609 2.683901 -1.55874 2.12132 -2.12132 
C 1.55874 -2.683901 0.795609 -3 0 -3 
C -0.795609 -3 -1.55874 -2.683901 -2.12132 -2.12132 
C -2.683901 -1.55874 -3 -0.795609 -3 0 
C -3 0.795609 -2.683901 1.55874 -2.12132 2.12132 
C -1.55874 2.683901 -0.795609 3 0 3 
z
" id="md54827cb40" style="stroke:#1966ad;"/>
    </defs>
    <g clip-path="url(#p2713edd431)">
     <use style="fill:#1966ad;stroke:#1966ad;" x="80.494731" xlink:href="#md54827cb40" y="69.428951"/>
    </g>
   </g>
   <g id="PathCollection_78">
    <g clip-path="url(#p2713edd431)">
     <use style="fill:#82bbdb;stroke:#82bbdb;" x="287.372121" xlink:href="#m6389376c6e" y="227.182507"/>
    </g>
   </g>
   <g id="PathCollection_79">
    <g clip-path="url(#p2713edd431)">
     <use style="fill:#3a8ac2;stroke:#3a8ac2;" x="317.492201" xlink:href="#m9d5acb4057" y="21.687743"/>
    </g>
   </g>
   <g id="PathCollection_80">
    <g clip-path="url(#p2713edd431)">
     <use style="fill:#b4d3e9;stroke:#b4d3e9;" x="259.629942" xlink:href="#m4cc3c5d42b" y="205.387608"/>
    </g>
   </g>
   <g id="PathCollection_81">
    <g clip-path="url(#p2713edd431)">
     <use style="fill:#82bbdb;stroke:#82bbdb;" x="241.399368" xlink:href="#m6389376c6e" y="223.031098"/>
    </g>
   </g>
   <g id="PathCollection_82">
    <g clip-path="url(#p2713edd431)">
     <use style="fill:#82bbdb;stroke:#82bbdb;" x="267.556279" xlink:href="#m6389376c6e" y="168.024924"/>
    </g>
   </g>
   <g id="PathCollection_83">
    <g clip-path="url(#p2713edd431)">
     <use style="fill:#3a8ac2;stroke:#3a8ac2;" x="357.123885" xlink:href="#m9d5acb4057" y="176.327743"/>
    </g>
   </g>
   <g id="PathCollection_84">
    <g clip-path="url(#p2713edd431)">
     <use style="fill:#82bbdb;stroke:#82bbdb;" x="273.897348" xlink:href="#m6389376c6e" y="230.296065"/>
    </g>
   </g>
   <g id="PathCollection_85">
    <g clip-path="url(#p2713edd431)">
     <use style="fill:#82bbdb;stroke:#82bbdb;" x="288.957388" xlink:href="#m6389376c6e" y="234.447474"/>
    </g>
   </g>
   <g id="PathCollection_86">
    <g clip-path="url(#p2713edd431)">
     <use style="fill:#82bbdb;stroke:#82bbdb;" x="326.211171" xlink:href="#m6389376c6e" y="163.873515"/>
    </g>
   </g>
   <g id="PathCollection_87">
    <g clip-path="url(#p2713edd431)">
     <use style="fill:#2979b9;stroke:#2979b9;" x="384.07343" xlink:href="#m0426bbc77a" y="84.996736"/>
    </g>
   </g>
   <g id="PathCollection_88">
    <g clip-path="url(#p2713edd431)">
     <use style="fill:#0a549e;stroke:#0a549e;" x="437.97252" xlink:href="#m5422531481" y="62.163985"/>
    </g>
   </g>
   <g id="PathCollection_89">
    <g clip-path="url(#p2713edd431)">
     <use style="fill:#9dcae1;stroke:#9dcae1;" x="317.492201" xlink:href="#mda5c6572a5" y="158.684253"/>
    </g>
   </g>
   <g id="PathCollection_90">
    <g clip-path="url(#p2713edd431)">
     <use style="fill:#b4d3e9;stroke:#b4d3e9;" x="268.348913" xlink:href="#m4cc3c5d42b" y="205.387608"/>
    </g>
   </g>
   <g id="PathCollection_91">
    <g clip-path="url(#p2713edd431)">
     <use style="fill:#66abd4;stroke:#66abd4;" x="256.459407" xlink:href="#ma5719168f4" y="252.090964"/>
    </g>
   </g>
   <g id="PathCollection_92">
    <g clip-path="url(#p2713edd431)">
     <use style="fill:#66abd4;stroke:#66abd4;" x="281.823685" xlink:href="#ma5719168f4" y="269.734454"/>
    </g>
   </g>
   <g id="PathCollection_93">
    <g clip-path="url(#p2713edd431)">
     <use style="fill:#82bbdb;stroke:#82bbdb;" x="284.99422" xlink:href="#m6389376c6e" y="236.523179"/>
    </g>
   </g>
   <g id="PathCollection_94">
    <g clip-path="url(#p2713edd431)">
     <use style="fill:#b4d3e9;stroke:#b4d3e9;" x="277.860517" xlink:href="#m4cc3c5d42b" y="211.614722"/>
    </g>
   </g>
   <g id="PathCollection_95">
    <g clip-path="url(#p2713edd431)">
     <use style="fill:#b4d3e9;stroke:#b4d3e9;" x="273.104715" xlink:href="#m4cc3c5d42b" y="217.841836"/>
    </g>
   </g>
   <g id="PathCollection_96">
    <g clip-path="url(#p2713edd431)">
     <use style="fill:#66abd4;stroke:#66abd4;" x="282.616319" xlink:href="#ma5719168f4" y="243.788145"/>
    </g>
   </g>
   <g id="PathCollection_97">
    <g clip-path="url(#p2713edd431)">
     <use style="fill:#4f9bcb;stroke:#4f9bcb;" x="284.99422" xlink:href="#mffc776a8f4" y="292.567205"/>
    </g>
   </g>
   <g id="PathCollection_98">
    <g clip-path="url(#p2713edd431)">
     <use style="fill:#b4d3e9;stroke:#b4d3e9;" x="274.689982" xlink:href="#m4cc3c5d42b" y="213.690427"/>
    </g>
   </g>
   <g id="PathCollection_99">
    <g clip-path="url(#p2713edd431)">
     <use style="fill:#9dcae1;stroke:#9dcae1;" x="268.348913" xlink:href="#mda5c6572a5" y="159.722105"/>
    </g>
   </g>
   <g id="PathCollection_100">
    <g clip-path="url(#p2713edd431)">
     <use style="fill:#82bbdb;stroke:#82bbdb;" x="284.201586" xlink:href="#m6389376c6e" y="243.788145"/>
    </g>
   </g>
   <g id="PathCollection_101">
    <g clip-path="url(#p2713edd431)">
     <use style="fill:#b4d3e9;stroke:#b4d3e9;" x="273.897348" xlink:href="#m4cc3c5d42b" y="215.766132"/>
    </g>
   </g>
   <g id="PathCollection_102">
    <defs>
     <path d="M 0 3 
C 0.795609 3 1.55874 2.683901 2.12132 2.12132 
C 2.683901 1.55874 3 0.795609 3 0 
C 3 -0.795609 2.683901 -1.55874 2.12132 -2.12132 
C 1.55874 -2.683901 0.795609 -3 0 -3 
C -0.795609 -3 -1.55874 -2.683901 -2.12132 -2.12132 
C -2.683901 -1.55874 -3 -0.795609 -3 0 
C -3 0.795609 -2.683901 1.55874 -2.12132 2.12132 
C -1.55874 2.683901 -0.795609 3 0 3 
z
" id="m0d1d0a4c61" style="stroke:#d6e6f4;"/>
    </defs>
    <g clip-path="url(#p2713edd431)">
     <use style="fill:#d6e6f4;stroke:#d6e6f4;" x="265.178378" xlink:href="#m0d1d0a4c61" y="198.122642"/>
    </g>
   </g>
   <g id="PathCollection_103">
    <g clip-path="url(#p2713edd431)">
     <use style="fill:#3a8ac2;stroke:#3a8ac2;" x="268.348913" xlink:href="#m9d5acb4057" y="327.854185"/>
    </g>
   </g>
   <g id="PathCollection_104">
    <g clip-path="url(#p2713edd431)">
     <use style="fill:#9dcae1;stroke:#9dcae1;" x="306.395329" xlink:href="#mda5c6572a5" y="176.327743"/>
    </g>
   </g>
   <g id="PathCollection_105">
    <g clip-path="url(#p2713edd431)">
     <use style="fill:#9dcae1;stroke:#9dcae1;" x="269.93418" xlink:href="#mda5c6572a5" y="213.690427"/>
    </g>
   </g>
   <g id="PathCollection_106">
    <g clip-path="url(#p2713edd431)">
     <use style="fill:#3a8ac2;stroke:#3a8ac2;" x="392.7924" xlink:href="#m9d5acb4057" y="90.185998"/>
    </g>
   </g>
   <g id="PathCollection_107">
    <g clip-path="url(#p2713edd431)">
     <use style="fill:#9dcae1;stroke:#9dcae1;" x="280.238418" xlink:href="#mda5c6572a5" y="237.561031"/>
    </g>
   </g>
   <g id="PathCollection_108">
    <defs>
     <path d="M 0 3 
C 0.795609 3 1.55874 2.683901 2.12132 2.12132 
C 2.683901 1.55874 3 0.795609 3 0 
C 3 -0.795609 2.683901 -1.55874 2.12132 -2.12132 
C 1.55874 -2.683901 0.795609 -3 0 -3 
C -0.795609 -3 -1.55874 -2.683901 -2.12132 -2.12132 
C -2.683901 -1.55874 -3 -0.795609 -3 0 
C -3 0.795609 -2.683901 1.55874 -2.12132 2.12132 
C -1.55874 2.683901 -0.795609 3 0 3 
z
" id="mcfad8174b2" style="stroke:#084285;"/>
    </defs>
    <g clip-path="url(#p2713edd431)">
     <use style="fill:#084285;stroke:#084285;" x="216.03509" xlink:href="#mcfad8174b2" y="318.513514"/>
    </g>
   </g>
   <g id="matplotlib.axis_1">
    <g id="xtick_1">
     <g id="line2d_1">
      <defs>
       <path d="M 0 0 
L 0 3.5 
" id="m3597d7d637" style="stroke:#000000;stroke-width:0.8;"/>
      </defs>
      <g>
       <use style="stroke:#000000;stroke-width:0.8;" x="41.65568" xlink:href="#m3597d7d637" y="345.6"/>
      </g>
     </g>
     <g id="text_1">
      <text style="font-family:DejaVu Sans;font-size:10px;font-style:normal;font-weight:normal;text-anchor:middle;" transform="rotate(-0, 41.65568, 360.198437)" x="41.65568" y="360.198437">−0.3</text>
     </g>
    </g>
    <g id="xtick_2">
     <g id="line2d_2">
      <g>
       <use style="stroke:#000000;stroke-width:0.8;" x="120.919048" xlink:href="#m3597d7d637" y="345.6"/>
      </g>
     </g>
     <g id="text_2">
      <text style="font-family:DejaVu Sans;font-size:10px;font-style:normal;font-weight:normal;text-anchor:middle;" transform="rotate(-0, 120.919048, 360.198437)" x="120.919048" y="360.198437">−0.2</text>
     </g>
    </g>
    <g id="xtick_3">
     <g id="line2d_3">
      <g>
       <use style="stroke:#000000;stroke-width:0.8;" x="200.182416" xlink:href="#m3597d7d637" y="345.6"/>
      </g>
     </g>
     <g id="text_3">
      <text style="font-family:DejaVu Sans;font-size:10px;font-style:normal;font-weight:normal;text-anchor:middle;" transform="rotate(-0, 200.182416, 360.198437)" x="200.182416" y="360.198437">−0.1</text>
     </g>
    </g>
    <g id="xtick_4">
     <g id="line2d_4">
      <g>
       <use style="stroke:#000000;stroke-width:0.8;" x="279.445784" xlink:href="#m3597d7d637" y="345.6"/>
      </g>
     </g>
     <g id="text_4">
      <text style="font-family:DejaVu Sans;font-size:10px;font-style:normal;font-weight:normal;text-anchor:middle;" transform="rotate(-0, 279.445784, 360.198437)" x="279.445784" y="360.198437">0.0</text>
     </g>
    </g>
    <g id="xtick_5">
     <g id="line2d_5">
      <g>
       <use style="stroke:#000000;stroke-width:0.8;" x="358.709152" xlink:href="#m3597d7d637" y="345.6"/>
      </g>
     </g>
     <g id="text_5">
      <text style="font-family:DejaVu Sans;font-size:10px;font-style:normal;font-weight:normal;text-anchor:middle;" transform="rotate(-0, 358.709152, 360.198437)" x="358.709152" y="360.198437">0.1</text>
     </g>
    </g>
    <g id="xtick_6">
     <g id="line2d_6">
      <g>
       <use style="stroke:#000000;stroke-width:0.8;" x="437.97252" xlink:href="#m3597d7d637" y="345.6"/>
      </g>
     </g>
     <g id="text_6">
      <text style="font-family:DejaVu Sans;font-size:10px;font-style:normal;font-weight:normal;text-anchor:middle;" transform="rotate(-0, 437.97252, 360.198437)" x="437.97252" y="360.198437">0.2</text>
     </g>
    </g>
   </g>
   <g id="matplotlib.axis_2">
    <g id="ytick_1">
     <g id="line2d_7">
      <defs>
       <path d="M 0 0 
L -3.5 0 
" id="m5a90fb4e24" style="stroke:#000000;stroke-width:0.8;"/>
      </defs>
      <g>
       <use style="stroke:#000000;stroke-width:0.8;" x="0" xlink:href="#m5a90fb4e24" y="310.210695"/>
      </g>
     </g>
     <g id="text_7">
      <text style="font-family:DejaVu Sans;font-size:10px;font-style:normal;font-weight:normal;text-anchor:end;" transform="rotate(-0, -7, 314.009914)" x="-7" y="314.009914">−0.10</text>
     </g>
    </g>
    <g id="ytick_2">
     <g id="line2d_8">
      <g>
       <use style="stroke:#000000;stroke-width:0.8;" x="0" xlink:href="#m5a90fb4e24" y="258.318078"/>
      </g>
     </g>
     <g id="text_8">
      <text style="font-family:DejaVu Sans;font-size:10px;font-style:normal;font-weight:normal;text-anchor:end;" transform="rotate(-0, -7, 262.117297)" x="-7" y="262.117297">−0.05</text>
     </g>
    </g>
    <g id="ytick_3">
     <g id="line2d_9">
      <g>
       <use style="stroke:#000000;stroke-width:0.8;" x="0" xlink:href="#m5a90fb4e24" y="206.425461"/>
      </g>
     </g>
     <g id="text_9">
      <text style="font-family:DejaVu Sans;font-size:10px;font-style:normal;font-weight:normal;text-anchor:end;" transform="rotate(-0, -7, 210.224679)" x="-7" y="210.224679">0.00</text>
     </g>
    </g>
    <g id="ytick_4">
     <g id="line2d_10">
      <g>
       <use style="stroke:#000000;stroke-width:0.8;" x="0" xlink:href="#m5a90fb4e24" y="154.532843"/>
      </g>
     </g>
     <g id="text_10">
      <text style="font-family:DejaVu Sans;font-size:10px;font-style:normal;font-weight:normal;text-anchor:end;" transform="rotate(-0, -7, 158.332062)" x="-7" y="158.332062">0.05</text>
     </g>
    </g>
    <g id="ytick_5">
     <g id="line2d_11">
      <g>
       <use style="stroke:#000000;stroke-width:0.8;" x="0" xlink:href="#m5a90fb4e24" y="102.640226"/>
      </g>
     </g>
     <g id="text_11">
      <text style="font-family:DejaVu Sans;font-size:10px;font-style:normal;font-weight:normal;text-anchor:end;" transform="rotate(-0, -7, 106.439445)" x="-7" y="106.439445">0.10</text>
     </g>
    </g>
    <g id="ytick_6">
     <g id="line2d_12">
      <g>
       <use style="stroke:#000000;stroke-width:0.8;" x="0" xlink:href="#m5a90fb4e24" y="50.747609"/>
      </g>
     </g>
     <g id="text_12">
      <text style="font-family:DejaVu Sans;font-size:10px;font-style:normal;font-weight:normal;text-anchor:end;" transform="rotate(-0, -7, 54.546828)" x="-7" y="54.546828">0.15</text>
     </g>
    </g>
   </g>
   <g id="line2d_13">
    <path clip-path="url(#p2713edd431)" d="M 265.178378 198.122642 
" style="fill:none;stroke:#ff0000;stroke-linecap:square;stroke-width:1.5;"/>
    <defs>
     <path d="M 0 2.5 
C 0.663008 2.5 1.29895 2.236584 1.767767 1.767767 
C 2.236584 1.29895 2.5 0.663008 2.5 0 
C 2.5 -0.663008 2.236584 -1.29895 1.767767 -1.767767 
C 1.29895 -2.236584 0.663008 -2.5 0 -2.5 
C -0.663008 -2.5 -1.29895 -2.236584 -1.767767 -1.767767 
C -2.236584 -1.29895 -2.5 -0.663008 -2.5 0 
C -2.5 0.663008 -2.236584 1.29895 -1.767767 1.767767 
C -1.29895 2.236584 -0.663008 2.5 0 2.5 
z
" id="m7245772eb8" style="stroke:#ff0000;"/>
    </defs>
    <g clip-path="url(#p2713edd431)">
     <use style="fill:#ff0000;stroke:#ff0000;" x="265.178378" xlink:href="#m7245772eb8" y="198.122642"/>
    </g>
   </g>
   <g id="patch_3">
    <path d="M 0 345.6 
L 0 0 
" style="fill:none;stroke:#000000;stroke-linecap:square;stroke-linejoin:miter;stroke-width:0.8;"/>
   </g>
   <g id="patch_4">
    <path d="M 460.8 345.6 
L 460.8 0 
" style="fill:none;stroke:#000000;stroke-linecap:square;stroke-linejoin:miter;stroke-width:0.8;"/>
   </g>
   <g id="patch_5">
    <path d="M 0 345.6 
L 460.8 345.6 
" style="fill:none;stroke:#000000;stroke-linecap:square;stroke-linejoin:miter;stroke-width:0.8;"/>
   </g>
   <g id="patch_6">
    <path d="M 0 0 
L 460.8 0 
" style="fill:none;stroke:#000000;stroke-linecap:square;stroke-linejoin:miter;stroke-width:0.8;"/>
   </g>
   <g id="text_13">
    <text style="fill:#ff0000;font-family:DejaVu Sans;font-size:8px;font-style:normal;font-weight:normal;text-anchor:start;" transform="rotate(-0, 265.178378, 198.122642)" x="265.178378" y="198.122642">_consensus</text>
   </g>
  </g>
  <g id="text_14">
   <text style="font-family:DejaVu Sans;font-size:15px;font-style:normal;font-weight:normal;text-anchor:start;" transform="rotate(-0, 184.32, 34.56)" x="184.32" y="34.56">MDS comp. (index 3 size 122)</text>
  </g>
 </g>
 <defs>
  <clipPath id="p2713edd431">
   <rect height="345.6" width="460.8" x="0" y="0"/>
  </clipPath>
 </defs>
</svg>
