<?xml version="1.0" encoding="utf-8" standalone="no"?>
<!DOCTYPE svg PUBLIC "-//W3C//DTD SVG 1.1//EN"
  "http://www.w3.org/Graphics/SVG/1.1/DTD/svg11.dtd">
<!-- Created with matplotlib (http://matplotlib.org/) -->
<svg height="345.6pt" version="1.1" viewBox="0 0 460.8 345.6" width="460.8pt" xmlns="http://www.w3.org/2000/svg" xmlns:xlink="http://www.w3.org/1999/xlink">
 <defs>
  <style type="text/css">
*{stroke-linecap:butt;stroke-linejoin:round;}
  </style>
 </defs>
 <g id="figure_1">
  <g id="patch_1">
   <path d="M 0 345.6 
L 460.8 345.6 
L 460.8 0 
L 0 0 
z
" style="fill:#ffffff;"/>
  </g>
  <g id="axes_1">
   <g id="patch_2">
    <path d="M 0 345.6 
L 460.8 345.6 
L 460.8 0 
L 0 0 
z
" style="fill:#ffffff;"/>
   </g>
   <g id="PathCollection_1">
    <defs>
     <path d="M 0 3 
C 0.795609 3 1.55874 2.683901 2.12132 2.12132 
C 2.683901 1.55874 3 0.795609 3 0 
C 3 -0.795609 2.683901 -1.55874 2.12132 -2.12132 
C 1.55874 -2.683901 0.795609 -3 0 -3 
C -0.795609 -3 -1.55874 -2.683901 -2.12132 -2.12132 
C -2.683901 -1.55874 -3 -0.795609 -3 0 
C -3 0.795609 -2.683901 1.55874 -2.12132 2.12132 
C -1.55874 2.683901 -0.795609 3 0 3 
z
" id="m8819e90a5b" style="stroke:#115ca5;"/>
    </defs>
    <g clip-path="url(#p4f5b4981b3)">
     <use style="fill:#115ca5;stroke:#115ca5;" x="416.443839" xlink:href="#m8819e90a5b" y="237.458322"/>
    </g>
   </g>
   <g id="PathCollection_2">
    <defs>
     <path d="M 0 3 
C 0.795609 3 1.55874 2.683901 2.12132 2.12132 
C 2.683901 1.55874 3 0.795609 3 0 
C 3 -0.795609 2.683901 -1.55874 2.12132 -2.12132 
C 1.55874 -2.683901 0.795609 -3 0 -3 
C -0.795609 -3 -1.55874 -2.683901 -2.12132 -2.12132 
C -2.683901 -1.55874 -3 -0.795609 -3 0 
C -3 0.795609 -2.683901 1.55874 -2.12132 2.12132 
C -1.55874 2.683901 -0.795609 3 0 3 
z
" id="mb68e677e26" style="stroke:#2272b6;"/>
    </defs>
    <g clip-path="url(#p4f5b4981b3)">
     <use style="fill:#2272b6;stroke:#2272b6;" x="258.664004" xlink:href="#mb68e677e26" y="208.677638"/>
    </g>
   </g>
   <g id="PathCollection_3">
    <g clip-path="url(#p4f5b4981b3)">
     <use style="fill:#2272b6;stroke:#2272b6;" x="216.428484" xlink:href="#mb68e677e26" y="235.95345"/>
    </g>
   </g>
   <g id="PathCollection_4">
    <defs>
     <path d="M 0 3 
C 0.795609 3 1.55874 2.683901 2.12132 2.12132 
C 2.683901 1.55874 3 0.795609 3 0 
C 3 -0.795609 2.683901 -1.55874 2.12132 -2.12132 
C 1.55874 -2.683901 0.795609 -3 0 -3 
C -0.795609 -3 -1.55874 -2.683901 -2.12132 -2.12132 
C -2.683901 -1.55874 -3 -0.795609 -3 0 
C -3 0.795609 -2.683901 1.55874 -2.12132 2.12132 
C -1.55874 2.683901 -0.795609 3 0 3 
z
" id="m38caf7235a" style="stroke:#1460a8;"/>
    </defs>
    <g clip-path="url(#p4f5b4981b3)">
     <use style="fill:#1460a8;stroke:#1460a8;" x="320.810554" xlink:href="#m38caf7235a" y="163.343357"/>
    </g>
   </g>
   <g id="PathCollection_5">
    <g clip-path="url(#p4f5b4981b3)">
     <use style="fill:#115ca5;stroke:#115ca5;" x="298.486065" xlink:href="#m8819e90a5b" y="174.253682"/>
    </g>
   </g>
   <g id="PathCollection_6">
    <defs>
     <path d="M 0 3 
C 0.795609 3 1.55874 2.683901 2.12132 2.12132 
C 2.683901 1.55874 3 0.795609 3 0 
C 3 -0.795609 2.683901 -1.55874 2.12132 -2.12132 
C 1.55874 -2.683901 0.795609 -3 0 -3 
C -0.795609 -3 -1.55874 -2.683901 -2.12132 -2.12132 
C -2.683901 -1.55874 -3 -0.795609 -3 0 
C -3 0.795609 -2.683901 1.55874 -2.12132 2.12132 
C -1.55874 2.683901 -0.795609 3 0 3 
z
" id="m1f67d29377" style="stroke:#3989c1;"/>
    </defs>
    <g clip-path="url(#p4f5b4981b3)">
     <use style="fill:#3989c1;stroke:#3989c1;" x="285.212045" xlink:href="#m1f67d29377" y="213.944691"/>
    </g>
   </g>
   <g id="PathCollection_7">
    <defs>
     <path d="M 0 3 
C 0.795609 3 1.55874 2.683901 2.12132 2.12132 
C 2.683901 1.55874 3 0.795609 3 0 
C 3 -0.795609 2.683901 -1.55874 2.12132 -2.12132 
C 1.55874 -2.683901 0.795609 -3 0 -3 
C -0.795609 -3 -1.55874 -2.683901 -2.12132 -2.12132 
C -2.683901 -1.55874 -3 -0.795609 -3 0 
C -3 0.795609 -2.683901 1.55874 -2.12132 2.12132 
C -1.55874 2.683901 -0.795609 3 0 3 
z
" id="m29f2453aaf" style="stroke:#2676b8;"/>
    </defs>
    <g clip-path="url(#p4f5b4981b3)">
     <use style="fill:#2676b8;stroke:#2676b8;" x="89.721924" xlink:href="#m29f2453aaf" y="267.367661"/>
    </g>
   </g>
   <g id="PathCollection_8">
    <defs>
     <path d="M 0 3 
C 0.795609 3 1.55874 2.683901 2.12132 2.12132 
C 2.683901 1.55874 3 0.795609 3 0 
C 3 -0.795609 2.683901 -1.55874 2.12132 -2.12132 
C 1.55874 -2.683901 0.795609 -3 0 -3 
C -0.795609 -3 -1.55874 -2.683901 -2.12132 -2.12132 
C -2.683901 -1.55874 -3 -0.795609 -3 0 
C -3 0.795609 -2.683901 1.55874 -2.12132 2.12132 
C -1.55874 2.683901 -0.795609 3 0 3 
z
" id="m676d368604" style="stroke:#1865ac;"/>
    </defs>
    <g clip-path="url(#p4f5b4981b3)">
     <use style="fill:#1865ac;stroke:#1865ac;" x="106.012767" xlink:href="#m676d368604" y="163.719576"/>
    </g>
   </g>
   <g id="PathCollection_9">
    <defs>
     <path d="M 0 3 
C 0.795609 3 1.55874 2.683901 2.12132 2.12132 
C 2.683901 1.55874 3 0.795609 3 0 
C 3 -0.795609 2.683901 -1.55874 2.12132 -2.12132 
C 1.55874 -2.683901 0.795609 -3 0 -3 
C -0.795609 -3 -1.55874 -2.683901 -2.12132 -2.12132 
C -2.683901 -1.55874 -3 -0.795609 -3 0 
C -3 0.795609 -2.683901 1.55874 -2.12132 2.12132 
C -1.55874 2.683901 -0.795609 3 0 3 
z
" id="m0afdafe610" style="stroke:#08468b;"/>
    </defs>
    <g clip-path="url(#p4f5b4981b3)">
     <use style="fill:#08468b;stroke:#08468b;" x="101.18585" xlink:href="#m0afdafe610" y="189.866733"/>
    </g>
   </g>
   <g id="PathCollection_10">
    <defs>
     <path d="M 0 3 
C 0.795609 3 1.55874 2.683901 2.12132 2.12132 
C 2.683901 1.55874 3 0.795609 3 0 
C 3 -0.795609 2.683901 -1.55874 2.12132 -2.12132 
C 1.55874 -2.683901 0.795609 -3 0 -3 
C -0.795609 -3 -1.55874 -2.683901 -2.12132 -2.12132 
C -2.683901 -1.55874 -3 -0.795609 -3 0 
C -3 0.795609 -2.683901 1.55874 -2.12132 2.12132 
C -1.55874 2.683901 -0.795609 3 0 3 
z
" id="m610e72bf54" style="stroke:#084f99;"/>
    </defs>
    <g clip-path="url(#p4f5b4981b3)">
     <use style="fill:#084f99;stroke:#084f99;" x="44.167898" xlink:href="#m610e72bf54" y="16.430191"/>
    </g>
   </g>
   <g id="PathCollection_11">
    <defs>
     <path d="M 0 3 
C 0.795609 3 1.55874 2.683901 2.12132 2.12132 
C 2.683901 1.55874 3 0.795609 3 0 
C 3 -0.795609 2.683901 -1.55874 2.12132 -2.12132 
C 1.55874 -2.683901 0.795609 -3 0 -3 
C -0.795609 -3 -1.55874 -2.683901 -2.12132 -2.12132 
C -2.683901 -1.55874 -3 -0.795609 -3 0 
C -3 0.795609 -2.683901 1.55874 -2.12132 2.12132 
C -1.55874 2.683901 -0.795609 3 0 3 
z
" id="m98c2859923" style="stroke:#2c7cba;"/>
    </defs>
    <g clip-path="url(#p4f5b4981b3)">
     <use style="fill:#2c7cba;stroke:#2c7cba;" x="136.482678" xlink:href="#m98c2859923" y="146.037325"/>
    </g>
   </g>
   <g id="PathCollection_12">
    <g clip-path="url(#p4f5b4981b3)">
     <use style="fill:#2c7cba;stroke:#2c7cba;" x="170.271094" xlink:href="#m98c2859923" y="141.710817"/>
    </g>
   </g>
   <g id="PathCollection_13">
    <defs>
     <path d="M 0 3 
C 0.795609 3 1.55874 2.683901 2.12132 2.12132 
C 2.683901 1.55874 3 0.795609 3 0 
C 3 -0.795609 2.683901 -1.55874 2.12132 -2.12132 
C 1.55874 -2.683901 0.795609 -3 0 -3 
C -0.795609 -3 -1.55874 -2.683901 -2.12132 -2.12132 
C -2.683901 -1.55874 -3 -0.795609 -3 0 
C -3 0.795609 -2.683901 1.55874 -2.12132 2.12132 
C -1.55874 2.683901 -0.795609 3 0 3 
z
" id="m0797ab99c8" style="stroke:#0a539e;"/>
    </defs>
    <g clip-path="url(#p4f5b4981b3)">
     <use style="fill:#0a539e;stroke:#0a539e;" x="58.045284" xlink:href="#m0797ab99c8" y="125.34533"/>
    </g>
   </g>
   <g id="PathCollection_14">
    <g clip-path="url(#p4f5b4981b3)">
     <use style="fill:#2c7cba;stroke:#2c7cba;" x="64.983976" xlink:href="#m98c2859923" y="304.048925"/>
    </g>
   </g>
   <g id="PathCollection_15">
    <g clip-path="url(#p4f5b4981b3)">
     <use style="fill:#2272b6;stroke:#2272b6;" x="104.806038" xlink:href="#mb68e677e26" y="163.155248"/>
    </g>
   </g>
   <g id="PathCollection_16">
    <g clip-path="url(#p4f5b4981b3)">
     <use style="fill:#1460a8;stroke:#1460a8;" x="78.257997" xlink:href="#m38caf7235a" y="190.619169"/>
    </g>
   </g>
   <g id="PathCollection_17">
    <g clip-path="url(#p4f5b4981b3)">
     <use style="fill:#2272b6;stroke:#2272b6;" x="181.735021" xlink:href="#mb68e677e26" y="202.846258"/>
    </g>
   </g>
   <g id="PathCollection_18">
    <g clip-path="url(#p4f5b4981b3)">
     <use style="fill:#2272b6;stroke:#2272b6;" x="206.472968" xlink:href="#mb68e677e26" y="106.158207"/>
    </g>
   </g>
   <g id="PathCollection_19">
    <g clip-path="url(#p4f5b4981b3)">
     <use style="fill:#2c7cba;stroke:#2c7cba;" x="58.95033" xlink:href="#m98c2859923" y="304.237034"/>
    </g>
   </g>
   <g id="PathCollection_20">
    <defs>
     <path d="M 0 3 
C 0.795609 3 1.55874 2.683901 2.12132 2.12132 
C 2.683901 1.55874 3 0.795609 3 0 
C 3 -0.795609 2.683901 -1.55874 2.12132 -2.12132 
C 1.55874 -2.683901 0.795609 -3 0 -3 
C -0.795609 -3 -1.55874 -2.683901 -2.12132 -2.12132 
C -2.683901 -1.55874 -3 -0.795609 -3 0 
C -3 0.795609 -2.683901 1.55874 -2.12132 2.12132 
C -1.55874 2.683901 -0.795609 3 0 3 
z
" id="m0a45466eb2" style="stroke:#1b69af;"/>
    </defs>
    <g clip-path="url(#p4f5b4981b3)">
     <use style="fill:#1b69af;stroke:#1b69af;" x="278.876717" xlink:href="#m0a45466eb2" y="206.420329"/>
    </g>
   </g>
   <g id="PathCollection_21">
    <defs>
     <path d="M 0 3 
C 0.795609 3 1.55874 2.683901 2.12132 2.12132 
C 2.683901 1.55874 3 0.795609 3 0 
C 3 -0.795609 2.683901 -1.55874 2.12132 -2.12132 
C 1.55874 -2.683901 0.795609 -3 0 -3 
C -0.795609 -3 -1.55874 -2.683901 -2.12132 -2.12132 
C -2.683901 -1.55874 -3 -0.795609 -3 0 
C -3 0.795609 -2.683901 1.55874 -2.12132 2.12132 
C -1.55874 2.683901 -0.795609 3 0 3 
z
" id="mda32f6ee6b" style="stroke:#3080bd;"/>
    </defs>
    <g clip-path="url(#p4f5b4981b3)">
     <use style="fill:#3080bd;stroke:#3080bd;" x="158.807167" xlink:href="#mda32f6ee6b" y="255.328682"/>
    </g>
   </g>
   <g id="PathCollection_22">
    <defs>
     <path d="M 0 3 
C 0.795609 3 1.55874 2.683901 2.12132 2.12132 
C 2.683901 1.55874 3 0.795609 3 0 
C 3 -0.795609 2.683901 -1.55874 2.12132 -2.12132 
C 1.55874 -2.683901 0.795609 -3 0 -3 
C -0.795609 -3 -1.55874 -2.683901 -2.12132 -2.12132 
C -2.683901 -1.55874 -3 -0.795609 -3 0 
C -3 0.795609 -2.683901 1.55874 -2.12132 2.12132 
C -1.55874 2.683901 -0.795609 3 0 3 
z
" id="m2c32e80f01" style="stroke:#3484bf;"/>
    </defs>
    <g clip-path="url(#p4f5b4981b3)">
     <use style="fill:#3484bf;stroke:#3484bf;" x="92.135382" xlink:href="#m2c32e80f01" y="196.074332"/>
    </g>
   </g>
   <g id="PathCollection_23">
    <g clip-path="url(#p4f5b4981b3)">
     <use style="fill:#115ca5;stroke:#115ca5;" x="118.080058" xlink:href="#m8819e90a5b" y="148.106525"/>
    </g>
   </g>
   <g id="PathCollection_24">
    <g clip-path="url(#p4f5b4981b3)">
     <use style="fill:#2272b6;stroke:#2272b6;" x="356.710747" xlink:href="#mb68e677e26" y="203.410585"/>
    </g>
   </g>
   <g id="PathCollection_25">
    <g clip-path="url(#p4f5b4981b3)">
     <use style="fill:#3484bf;stroke:#3484bf;" x="33.609018" xlink:href="#m2c32e80f01" y="285.802348"/>
    </g>
   </g>
   <g id="PathCollection_26">
    <g clip-path="url(#p4f5b4981b3)">
     <use style="fill:#2272b6;stroke:#2272b6;" x="329.257659" xlink:href="#mb68e677e26" y="182.342371"/>
    </g>
   </g>
   <g id="PathCollection_27">
    <defs>
     <path d="M 0 3 
C 0.795609 3 1.55874 2.683901 2.12132 2.12132 
C 2.683901 1.55874 3 0.795609 3 0 
C 3 -0.795609 2.683901 -1.55874 2.12132 -2.12132 
C 1.55874 -2.683901 0.795609 -3 0 -3 
C -0.795609 -3 -1.55874 -2.683901 -2.12132 -2.12132 
C -2.683901 -1.55874 -3 -0.795609 -3 0 
C -3 0.795609 -2.683901 1.55874 -2.12132 2.12132 
C -1.55874 2.683901 -0.795609 3 0 3 
z
" id="m5510e54ec5" style="stroke:#1e6db2;"/>
    </defs>
    <g clip-path="url(#p4f5b4981b3)">
     <use style="fill:#1e6db2;stroke:#1e6db2;" x="239.054655" xlink:href="#m5510e54ec5" y="181.778044"/>
    </g>
   </g>
   <g id="PathCollection_28">
    <defs>
     <path d="M 0 3 
C 0.795609 3 1.55874 2.683901 2.12132 2.12132 
C 2.683901 1.55874 3 0.795609 3 0 
C 3 -0.795609 2.683901 -1.55874 2.12132 -2.12132 
C 1.55874 -2.683901 0.795609 -3 0 -3 
C -0.795609 -3 -1.55874 -2.683901 -2.12132 -2.12132 
C -2.683901 -1.55874 -3 -0.795609 -3 0 
C -3 0.795609 -2.683901 1.55874 -2.12132 2.12132 
C -1.55874 2.683901 -0.795609 3 0 3 
z
" id="m92b606e879" style="stroke:#0e58a2;"/>
    </defs>
    <g clip-path="url(#p4f5b4981b3)">
     <use style="fill:#0e58a2;stroke:#0e58a2;" x="113.253142" xlink:href="#m92b606e879" y="127.602638"/>
    </g>
   </g>
   <g id="PathCollection_29">
    <g clip-path="url(#p4f5b4981b3)">
     <use style="fill:#1b69af;stroke:#1b69af;" x="189.57876" xlink:href="#m0a45466eb2" y="190.807278"/>
    </g>
   </g>
   <g id="PathCollection_30">
    <g clip-path="url(#p4f5b4981b3)">
     <use style="fill:#0a539e;stroke:#0a539e;" x="145.533146" xlink:href="#m0797ab99c8" y="311.573287"/>
    </g>
   </g>
   <g id="PathCollection_31">
    <g clip-path="url(#p4f5b4981b3)">
     <use style="fill:#2272b6;stroke:#2272b6;" x="206.77465" xlink:href="#mb68e677e26" y="170.867719"/>
    </g>
   </g>
   <g id="PathCollection_32">
    <g clip-path="url(#p4f5b4981b3)">
     <use style="fill:#2676b8;stroke:#2676b8;" x="215.221754" xlink:href="#m29f2453aaf" y="224.290689"/>
    </g>
   </g>
   <g id="PathCollection_33">
    <g clip-path="url(#p4f5b4981b3)">
     <use style="fill:#1e6db2;stroke:#1e6db2;" x="264.395967" xlink:href="#m5510e54ec5" y="228.993415"/>
    </g>
   </g>
   <g id="PathCollection_34">
    <g clip-path="url(#p4f5b4981b3)">
     <use style="fill:#1460a8;stroke:#1460a8;" x="83.98996" xlink:href="#m38caf7235a" y="296.712672"/>
    </g>
   </g>
   <g id="PathCollection_35">
    <g clip-path="url(#p4f5b4981b3)">
     <use style="fill:#2272b6;stroke:#2272b6;" x="437.863281" xlink:href="#mb68e677e26" y="207.925202"/>
    </g>
   </g>
   <g id="PathCollection_36">
    <defs>
     <path d="M 0 3 
C 0.795609 3 1.55874 2.683901 2.12132 2.12132 
C 2.683901 1.55874 3 0.795609 3 0 
C 3 -0.795609 2.683901 -1.55874 2.12132 -2.12132 
C 1.55874 -2.683901 0.795609 -3 0 -3 
C -0.795609 -3 -1.55874 -2.683901 -2.12132 -2.12132 
C -2.683901 -1.55874 -3 -0.795609 -3 0 
C -3 0.795609 -2.683901 1.55874 -2.12132 2.12132 
C -1.55874 2.683901 -0.795609 3 0 3 
z
" id="md9944b2e3c" style="stroke:#5da5d1;"/>
    </defs>
    <g clip-path="url(#p4f5b4981b3)">
     <use style="fill:#5da5d1;stroke:#5da5d1;" x="179.623245" xlink:href="#md9944b2e3c" y="189.866733"/>
    </g>
   </g>
   <g id="PathCollection_37">
    <g clip-path="url(#p4f5b4981b3)">
     <use style="fill:#3080bd;stroke:#3080bd;" x="412.823652" xlink:href="#mda32f6ee6b" y="194.569459"/>
    </g>
   </g>
   <g id="PathCollection_38">
    <defs>
     <path d="M 0 3 
C 0.795609 3 1.55874 2.683901 2.12132 2.12132 
C 2.683901 1.55874 3 0.795609 3 0 
C 3 -0.795609 2.683901 -1.55874 2.12132 -2.12132 
C 1.55874 -2.683901 0.795609 -3 0 -3 
C -0.795609 -3 -1.55874 -2.683901 -2.12132 -2.12132 
C -2.683901 -1.55874 -3 -0.795609 -3 0 
C -3 0.795609 -2.683901 1.55874 -2.12132 2.12132 
C -1.55874 2.683901 -0.795609 3 0 3 
z
" id="m70704a271c" style="stroke:#3d8dc4;"/>
    </defs>
    <g clip-path="url(#p4f5b4981b3)">
     <use style="fill:#3d8dc4;stroke:#3d8dc4;" x="168.762682" xlink:href="#m70704a271c" y="254.011919"/>
    </g>
   </g>
   <g id="PathCollection_39">
    <g clip-path="url(#p4f5b4981b3)">
     <use style="fill:#3080bd;stroke:#3080bd;" x="230.607551" xlink:href="#mda32f6ee6b" y="161.086049"/>
    </g>
   </g>
   <g id="PathCollection_40">
    <g clip-path="url(#p4f5b4981b3)">
     <use style="fill:#08468b;stroke:#08468b;" x="87.006783" xlink:href="#m0afdafe610" y="252.318937"/>
    </g>
   </g>
   <g id="PathCollection_41">
    <defs>
     <path d="M 0 3 
C 0.795609 3 1.55874 2.683901 2.12132 2.12132 
C 2.683901 1.55874 3 0.795609 3 0 
C 3 -0.795609 2.683901 -1.55874 2.12132 -2.12132 
C 1.55874 -2.683901 0.795609 -3 0 -3 
C -0.795609 -3 -1.55874 -2.683901 -2.12132 -2.12132 
C -2.683901 -1.55874 -3 -0.795609 -3 0 
C -3 0.795609 -2.683901 1.55874 -2.12132 2.12132 
C -1.55874 2.683901 -0.795609 3 0 3 
z
" id="m48b420da24" style="stroke:#083877;"/>
    </defs>
    <g clip-path="url(#p4f5b4981b3)">
     <use style="fill:#083877;stroke:#083877;" x="56.536872" xlink:href="#m48b420da24" y="197.202986"/>
    </g>
   </g>
   <g id="PathCollection_42">
    <g clip-path="url(#p4f5b4981b3)">
     <use style="fill:#0a539e;stroke:#0a539e;" x="323.224013" xlink:href="#m0797ab99c8" y="192.312151"/>
    </g>
   </g>
   <g id="PathCollection_43">
    <g clip-path="url(#p4f5b4981b3)">
     <use style="fill:#2c7cba;stroke:#2c7cba;" x="146.136511" xlink:href="#m98c2859923" y="171.055828"/>
    </g>
   </g>
   <g id="PathCollection_44">
    <g clip-path="url(#p4f5b4981b3)">
     <use style="fill:#1460a8;stroke:#1460a8;" x="252.328676" xlink:href="#m38caf7235a" y="224.666907"/>
    </g>
   </g>
   <g id="PathCollection_45">
    <g clip-path="url(#p4f5b4981b3)">
     <use style="fill:#1865ac;stroke:#1865ac;" x="139.801183" xlink:href="#m676d368604" y="60.823926"/>
    </g>
   </g>
   <g id="PathCollection_46">
    <g clip-path="url(#p4f5b4981b3)">
     <use style="fill:#2676b8;stroke:#2676b8;" x="121.398564" xlink:href="#m29f2453aaf" y="173.313137"/>
    </g>
   </g>
   <g id="PathCollection_47">
    <g clip-path="url(#p4f5b4981b3)">
     <use style="fill:#1b69af;stroke:#1b69af;" x="84.291642" xlink:href="#m0a45466eb2" y="171.243937"/>
    </g>
   </g>
   <g id="PathCollection_48">
    <g clip-path="url(#p4f5b4981b3)">
     <use style="fill:#0e58a2;stroke:#0e58a2;" x="112.046413" xlink:href="#m92b606e879" y="155.818996"/>
    </g>
   </g>
   <g id="PathCollection_49">
    <g clip-path="url(#p4f5b4981b3)">
     <use style="fill:#1e6db2;stroke:#1e6db2;" x="79.464726" xlink:href="#m5510e54ec5" y="150.740051"/>
    </g>
   </g>
   <g id="PathCollection_50">
    <g clip-path="url(#p4f5b4981b3)">
     <use style="fill:#2676b8;stroke:#2676b8;" x="250.518582" xlink:href="#m29f2453aaf" y="242.349158"/>
    </g>
   </g>
   <g id="PathCollection_51">
    <g clip-path="url(#p4f5b4981b3)">
     <use style="fill:#1460a8;stroke:#1460a8;" x="174.192964" xlink:href="#m38caf7235a" y="303.672707"/>
    </g>
   </g>
   <g id="PathCollection_52">
    <g clip-path="url(#p4f5b4981b3)">
     <use style="fill:#3484bf;stroke:#3484bf;" x="74.336127" xlink:href="#m2c32e80f01" y="240.279958"/>
    </g>
   </g>
   <g id="PathCollection_53">
    <g clip-path="url(#p4f5b4981b3)">
     <use style="fill:#115ca5;stroke:#115ca5;" x="42.961169" xlink:href="#m8819e90a5b" y="309.692197"/>
    </g>
   </g>
   <g id="PathCollection_54">
    <g clip-path="url(#p4f5b4981b3)">
     <use style="fill:#2c7cba;stroke:#2c7cba;" x="378.431871" xlink:href="#m98c2859923" y="204.915457"/>
    </g>
   </g>
   <g id="PathCollection_55">
    <defs>
     <path d="M 0 3 
C 0.795609 3 1.55874 2.683901 2.12132 2.12132 
C 2.683901 1.55874 3 0.795609 3 0 
C 3 -0.795609 2.683901 -1.55874 2.12132 -2.12132 
C 1.55874 -2.683901 0.795609 -3 0 -3 
C -0.795609 -3 -1.55874 -2.683901 -2.12132 -2.12132 
C -2.683901 -1.55874 -3 -0.795609 -3 0 
C -3 0.795609 -2.683901 1.55874 -2.12132 2.12132 
C -1.55874 2.683901 -0.795609 3 0 3 
z
" id="m5dc32bb849" style="stroke:#529dcc;"/>
    </defs>
    <g clip-path="url(#p4f5b4981b3)">
     <use style="fill:#529dcc;stroke:#529dcc;" x="143.42137" xlink:href="#m5dc32bb849" y="172.936919"/>
    </g>
   </g>
   <g id="PathCollection_56">
    <g clip-path="url(#p4f5b4981b3)">
     <use style="fill:#1e6db2;stroke:#1e6db2;" x="116.571647" xlink:href="#m5510e54ec5" y="58.378509"/>
    </g>
   </g>
   <g id="PathCollection_57">
    <g clip-path="url(#p4f5b4981b3)">
     <use style="fill:#2272b6;stroke:#2272b6;" x="45.977992" xlink:href="#mb68e677e26" y="317.404668"/>
    </g>
   </g>
   <g id="PathCollection_58">
    <g clip-path="url(#p4f5b4981b3)">
     <use style="fill:#1e6db2;stroke:#1e6db2;" x="154.281933" xlink:href="#m5510e54ec5" y="138.889181"/>
    </g>
   </g>
   <g id="PathCollection_59">
    <g clip-path="url(#p4f5b4981b3)">
     <use style="fill:#0e58a2;stroke:#0e58a2;" x="93.040429" xlink:href="#m92b606e879" y="190.43106"/>
    </g>
   </g>
   <g id="PathCollection_60">
    <g clip-path="url(#p4f5b4981b3)">
     <use style="fill:#1e6db2;stroke:#1e6db2;" x="140.404548" xlink:href="#m5510e54ec5" y="201.529494"/>
    </g>
   </g>
   <g id="PathCollection_61">
    <g clip-path="url(#p4f5b4981b3)">
     <use style="fill:#1e6db2;stroke:#1e6db2;" x="143.42137" xlink:href="#m5510e54ec5" y="250.625956"/>
    </g>
   </g>
   <g id="PathCollection_62">
    <g clip-path="url(#p4f5b4981b3)">
     <use style="fill:#0e58a2;stroke:#0e58a2;" x="48.693133" xlink:href="#m92b606e879" y="25.459425"/>
    </g>
   </g>
   <g id="PathCollection_63">
    <g clip-path="url(#p4f5b4981b3)">
     <use style="fill:#3989c1;stroke:#3989c1;" x="269.524566" xlink:href="#m1f67d29377" y="211.311165"/>
    </g>
   </g>
   <g id="PathCollection_64">
    <g clip-path="url(#p4f5b4981b3)">
     <use style="fill:#0e58a2;stroke:#0e58a2;" x="220.350353" xlink:href="#m92b606e879" y="202.658148"/>
    </g>
   </g>
   <g id="PathCollection_65">
    <g clip-path="url(#p4f5b4981b3)">
     <use style="fill:#3d8dc4;stroke:#3d8dc4;" x="265.602696" xlink:href="#m70704a271c" y="215.073346"/>
    </g>
   </g>
   <g id="PathCollection_66">
    <g clip-path="url(#p4f5b4981b3)">
     <use style="fill:#2c7cba;stroke:#2c7cba;" x="263.792602" xlink:href="#m98c2859923" y="180.837499"/>
    </g>
   </g>
   <g id="PathCollection_67">
    <defs>
     <path d="M 0 3 
C 0.795609 3 1.55874 2.683901 2.12132 2.12132 
C 2.683901 1.55874 3 0.795609 3 0 
C 3 -0.795609 2.683901 -1.55874 2.12132 -2.12132 
C 1.55874 -2.683901 0.795609 -3 0 -3 
C -0.795609 -3 -1.55874 -2.683901 -2.12132 -2.12132 
C -2.683901 -1.55874 -3 -0.795609 -3 0 
C -3 0.795609 -2.683901 1.55874 -2.12132 2.12132 
C -1.55874 2.683901 -0.795609 3 0 3 
z
" id="m12d7407dfd" style="stroke:#4191c6;"/>
    </defs>
    <g clip-path="url(#p4f5b4981b3)">
     <use style="fill:#4191c6;stroke:#4191c6;" x="161.220625" xlink:href="#m12d7407dfd" y="180.085063"/>
    </g>
   </g>
   <g id="PathCollection_68">
    <g clip-path="url(#p4f5b4981b3)">
     <use style="fill:#3484bf;stroke:#3484bf;" x="214.316708" xlink:href="#m2c32e80f01" y="214.1328"/>
    </g>
   </g>
   <g id="PathCollection_69">
    <g clip-path="url(#p4f5b4981b3)">
     <use style="fill:#2c7cba;stroke:#2c7cba;" x="190.483807" xlink:href="#m98c2859923" y="200.40084"/>
    </g>
   </g>
   <g id="PathCollection_70">
    <g clip-path="url(#p4f5b4981b3)">
     <use style="fill:#115ca5;stroke:#115ca5;" x="273.144753" xlink:href="#m8819e90a5b" y="159.581176"/>
    </g>
   </g>
   <g id="PathCollection_71">
    <g clip-path="url(#p4f5b4981b3)">
     <use style="fill:#0e58a2;stroke:#0e58a2;" x="280.083446" xlink:href="#m92b606e879" y="149.799506"/>
    </g>
   </g>
   <g id="PathCollection_72">
    <g clip-path="url(#p4f5b4981b3)">
     <use style="fill:#3080bd;stroke:#3080bd;" x="160.617261" xlink:href="#mda32f6ee6b" y="173.313137"/>
    </g>
   </g>
   <g id="PathCollection_73">
    <g clip-path="url(#p4f5b4981b3)">
     <use style="fill:#529dcc;stroke:#529dcc;" x="242.976525" xlink:href="#m5dc32bb849" y="180.837499"/>
    </g>
   </g>
   <g id="PathCollection_74">
    <g clip-path="url(#p4f5b4981b3)">
     <use style="fill:#2676b8;stroke:#2676b8;" x="419.15898" xlink:href="#m29f2453aaf" y="192.876478"/>
    </g>
   </g>
   <g id="PathCollection_75">
    <g clip-path="url(#p4f5b4981b3)">
     <use style="fill:#115ca5;stroke:#115ca5;" x="90.62697" xlink:href="#m8819e90a5b" y="122.523694"/>
    </g>
   </g>
   <g id="PathCollection_76">
    <g clip-path="url(#p4f5b4981b3)">
     <use style="fill:#2676b8;stroke:#2676b8;" x="159.712214" xlink:href="#m29f2453aaf" y="64.962325"/>
    </g>
   </g>
   <g id="PathCollection_77">
    <g clip-path="url(#p4f5b4981b3)">
     <use style="fill:#1865ac;stroke:#1865ac;" x="145.231464" xlink:href="#m676d368604" y="187.233207"/>
    </g>
   </g>
   <g id="PathCollection_78">
    <g clip-path="url(#p4f5b4981b3)">
     <use style="fill:#3080bd;stroke:#3080bd;" x="420.969073" xlink:href="#mda32f6ee6b" y="205.479784"/>
    </g>
   </g>
   <g id="PathCollection_79">
    <g clip-path="url(#p4f5b4981b3)">
     <use style="fill:#3484bf;stroke:#3484bf;" x="356.107382" xlink:href="#m2c32e80f01" y="207.737093"/>
    </g>
   </g>
   <g id="PathCollection_80">
    <g clip-path="url(#p4f5b4981b3)">
     <use style="fill:#3080bd;stroke:#3080bd;" x="182.036703" xlink:href="#mda32f6ee6b" y="190.054842"/>
    </g>
   </g>
   <g id="PathCollection_81">
    <g clip-path="url(#p4f5b4981b3)">
     <use style="fill:#1e6db2;stroke:#1e6db2;" x="89.420241" xlink:href="#m5510e54ec5" y="279.594749"/>
    </g>
   </g>
   <g id="PathCollection_82">
    <g clip-path="url(#p4f5b4981b3)">
     <use style="fill:#2c7cba;stroke:#2c7cba;" x="182.94175" xlink:href="#m98c2859923" y="179.708845"/>
    </g>
   </g>
   <g id="PathCollection_83">
    <g clip-path="url(#p4f5b4981b3)">
     <use style="fill:#3484bf;stroke:#3484bf;" x="180.528292" xlink:href="#m2c32e80f01" y="168.79852"/>
    </g>
   </g>
   <g id="PathCollection_84">
    <defs>
     <path d="M 0 3 
C 0.795609 3 1.55874 2.683901 2.12132 2.12132 
C 2.683901 1.55874 3 0.795609 3 0 
C 3 -0.795609 2.683901 -1.55874 2.12132 -2.12132 
C 1.55874 -2.683901 0.795609 -3 0 -3 
C -0.795609 -3 -1.55874 -2.683901 -2.12132 -2.12132 
C -2.683901 -1.55874 -3 -0.795609 -3 0 
C -3 0.795609 -2.683901 1.55874 -2.12132 2.12132 
C -1.55874 2.683901 -0.795609 3 0 3 
z
" id="m03c03a64fb" style="stroke:#084b93;"/>
    </defs>
    <g clip-path="url(#p4f5b4981b3)">
     <use style="fill:#084b93;stroke:#084b93;" x="34.514065" xlink:href="#m03c03a64fb" y="101.267372"/>
    </g>
   </g>
   <g id="PathCollection_85">
    <g clip-path="url(#p4f5b4981b3)">
     <use style="fill:#084f99;stroke:#084f99;" x="235.132785" xlink:href="#m610e72bf54" y="186.668879"/>
    </g>
   </g>
   <g id="PathCollection_86">
    <defs>
     <path d="M 0 3 
C 0.795609 3 1.55874 2.683901 2.12132 2.12132 
C 2.683901 1.55874 3 0.795609 3 0 
C 3 -0.795609 2.683901 -1.55874 2.12132 -2.12132 
C 1.55874 -2.683901 0.795609 -3 0 -3 
C -0.795609 -3 -1.55874 -2.683901 -2.12132 -2.12132 
C -2.683901 -1.55874 -3 -0.795609 -3 0 
C -3 0.795609 -2.683901 1.55874 -2.12132 2.12132 
C -1.55874 2.683901 -0.795609 3 0 3 
z
" id="m08d11c6c85" style="stroke:#084285;"/>
    </defs>
    <g clip-path="url(#p4f5b4981b3)">
     <use style="fill:#084285;stroke:#084285;" x="90.62697" xlink:href="#m08d11c6c85" y="210.18251"/>
    </g>
   </g>
   <g id="PathCollection_87">
    <g clip-path="url(#p4f5b4981b3)">
     <use style="fill:#5da5d1;stroke:#5da5d1;" x="157.90212" xlink:href="#md9944b2e3c" y="183.659135"/>
    </g>
   </g>
   <g id="PathCollection_88">
    <g clip-path="url(#p4f5b4981b3)">
     <use style="fill:#1b69af;stroke:#1b69af;" x="363.046075" xlink:href="#m0a45466eb2" y="210.18251"/>
    </g>
   </g>
   <g id="PathCollection_89">
    <g clip-path="url(#p4f5b4981b3)">
     <use style="fill:#529dcc;stroke:#529dcc;" x="157.90212" xlink:href="#m5dc32bb849" y="236.705886"/>
    </g>
   </g>
   <g id="PathCollection_90">
    <g clip-path="url(#p4f5b4981b3)">
     <use style="fill:#1e6db2;stroke:#1e6db2;" x="54.425096" xlink:href="#m5510e54ec5" y="324.92903"/>
    </g>
   </g>
   <g id="PathCollection_91">
    <g clip-path="url(#p4f5b4981b3)">
     <use style="fill:#2c7cba;stroke:#2c7cba;" x="23.050138" xlink:href="#m98c2859923" y="284.297475"/>
    </g>
   </g>
   <g id="PathCollection_92">
    <defs>
     <path d="M 0 3 
C 0.795609 3 1.55874 2.683901 2.12132 2.12132 
C 2.683901 1.55874 3 0.795609 3 0 
C 3 -0.795609 2.683901 -1.55874 2.12132 -2.12132 
C 1.55874 -2.683901 0.795609 -3 0 -3 
C -0.795609 -3 -1.55874 -2.683901 -2.12132 -2.12132 
C -2.683901 -1.55874 -3 -0.795609 -3 0 
C -3 0.795609 -2.683901 1.55874 -2.12132 2.12132 
C -1.55874 2.683901 -0.795609 3 0 3 
z
" id="m09c7f9ac8a" style="stroke:#d6e6f4;"/>
    </defs>
    <g clip-path="url(#p4f5b4981b3)">
     <use style="fill:#d6e6f4;stroke:#d6e6f4;" x="171.779505" xlink:href="#m09c7f9ac8a" y="197.579204"/>
    </g>
   </g>
   <g id="PathCollection_93">
    <g clip-path="url(#p4f5b4981b3)">
     <use style="fill:#1460a8;stroke:#1460a8;" x="44.167898" xlink:href="#m38caf7235a" y="170.491501"/>
    </g>
   </g>
   <g id="PathCollection_94">
    <g clip-path="url(#p4f5b4981b3)">
     <use style="fill:#3080bd;stroke:#3080bd;" x="194.707359" xlink:href="#mda32f6ee6b" y="147.730306"/>
    </g>
   </g>
   <g id="PathCollection_95">
    <g clip-path="url(#p4f5b4981b3)">
     <use style="fill:#0a539e;stroke:#0a539e;" x="256.552228" xlink:href="#m0797ab99c8" y="174.441791"/>
    </g>
   </g>
   <g id="PathCollection_96">
    <g clip-path="url(#p4f5b4981b3)">
     <use style="fill:#1460a8;stroke:#1460a8;" x="111.141366" xlink:href="#m38caf7235a" y="42.577349"/>
    </g>
   </g>
   <g id="PathCollection_97">
    <g clip-path="url(#p4f5b4981b3)">
     <use style="fill:#083877;stroke:#083877;" x="278.273352" xlink:href="#m48b420da24" y="186.48077"/>
    </g>
   </g>
   <g id="PathCollection_98">
    <g clip-path="url(#p4f5b4981b3)">
     <use style="fill:#2676b8;stroke:#2676b8;" x="246.898394" xlink:href="#m29f2453aaf" y="171.808265"/>
    </g>
   </g>
   <g id="PathCollection_99">
    <defs>
     <path d="M 0 3 
C 0.795609 3 1.55874 2.683901 2.12132 2.12132 
C 2.683901 1.55874 3 0.795609 3 0 
C 3 -0.795609 2.683901 -1.55874 2.12132 -2.12132 
C 1.55874 -2.683901 0.795609 -3 0 -3 
C -0.795609 -3 -1.55874 -2.683901 -2.12132 -2.12132 
C -2.683901 -1.55874 -3 -0.795609 -3 0 
C -3 0.795609 -2.683901 1.55874 -2.12132 2.12132 
C -1.55874 2.683901 -0.795609 3 0 3 
z
" id="md1d912f4c6" style="stroke:#083d7f;"/>
    </defs>
    <g clip-path="url(#p4f5b4981b3)">
     <use style="fill:#083d7f;stroke:#083d7f;" x="69.207528" xlink:href="#md1d912f4c6" y="218.647418"/>
    </g>
   </g>
   <g id="PathCollection_100">
    <g clip-path="url(#p4f5b4981b3)">
     <use style="fill:#1b69af;stroke:#1b69af;" x="150.661745" xlink:href="#m0a45466eb2" y="136.443764"/>
    </g>
   </g>
   <g id="PathCollection_101">
    <g clip-path="url(#p4f5b4981b3)">
     <use style="fill:#2c7cba;stroke:#2c7cba;" x="209.489791" xlink:href="#m98c2859923" y="164.283903"/>
    </g>
   </g>
   <g id="PathCollection_102">
    <g clip-path="url(#p4f5b4981b3)">
     <use style="fill:#3484bf;stroke:#3484bf;" x="216.730166" xlink:href="#m2c32e80f01" y="177.075318"/>
    </g>
   </g>
   <g id="PathCollection_103">
    <g clip-path="url(#p4f5b4981b3)">
     <use style="fill:#4191c6;stroke:#4191c6;" x="152.471839" xlink:href="#m12d7407dfd" y="188.361861"/>
    </g>
   </g>
   <g id="PathCollection_104">
    <g clip-path="url(#p4f5b4981b3)">
     <use style="fill:#1865ac;stroke:#1865ac;" x="137.689407" xlink:href="#m676d368604" y="153.937905"/>
    </g>
   </g>
   <g id="PathCollection_105">
    <g clip-path="url(#p4f5b4981b3)">
     <use style="fill:#0a539e;stroke:#0a539e;" x="271.032977" xlink:href="#m0797ab99c8" y="176.6991"/>
    </g>
   </g>
   <g id="PathCollection_106">
    <g clip-path="url(#p4f5b4981b3)">
     <use style="fill:#2c7cba;stroke:#2c7cba;" x="151.26511" xlink:href="#m98c2859923" y="202.658148"/>
    </g>
   </g>
   <g id="PathCollection_107">
    <g clip-path="url(#p4f5b4981b3)">
     <use style="fill:#1b69af;stroke:#1b69af;" x="67.699117" xlink:href="#m0a45466eb2" y="327.750665"/>
    </g>
   </g>
   <g id="PathCollection_108">
    <g clip-path="url(#p4f5b4981b3)">
     <use style="fill:#1460a8;stroke:#1460a8;" x="211.299885" xlink:href="#m38caf7235a" y="221.845271"/>
    </g>
   </g>
   <g id="PathCollection_109">
    <g clip-path="url(#p4f5b4981b3)">
     <use style="fill:#2272b6;stroke:#2272b6;" x="435.449823" xlink:href="#mb68e677e26" y="205.291675"/>
    </g>
   </g>
   <g id="PathCollection_110">
    <g clip-path="url(#p4f5b4981b3)">
     <use style="fill:#2c7cba;stroke:#2c7cba;" x="122.001928" xlink:href="#m98c2859923" y="162.214703"/>
    </g>
   </g>
   <g id="PathCollection_111">
    <g clip-path="url(#p4f5b4981b3)">
     <use style="fill:#2272b6;stroke:#2272b6;" x="134.672584" xlink:href="#mb68e677e26" y="175.946664"/>
    </g>
   </g>
   <g id="PathCollection_112">
    <g clip-path="url(#p4f5b4981b3)">
     <use style="fill:#3484bf;stroke:#3484bf;" x="225.478952" xlink:href="#m2c32e80f01" y="236.141559"/>
    </g>
   </g>
   <g id="PathCollection_113">
    <g clip-path="url(#p4f5b4981b3)">
     <use style="fill:#d6e6f4;stroke:#d6e6f4;" x="183.243432" xlink:href="#m09c7f9ac8a" y="192.50026"/>
    </g>
   </g>
   <g id="PathCollection_114">
    <defs>
     <path d="M 0 3 
C 0.795609 3 1.55874 2.683901 2.12132 2.12132 
C 2.683901 1.55874 3 0.795609 3 0 
C 3 -0.795609 2.683901 -1.55874 2.12132 -2.12132 
C 1.55874 -2.683901 0.795609 -3 0 -3 
C -0.795609 -3 -1.55874 -2.683901 -2.12132 -2.12132 
C -2.683901 -1.55874 -3 -0.795609 -3 0 
C -3 0.795609 -2.683901 1.55874 -2.12132 2.12132 
C -1.55874 2.683901 -0.795609 3 0 3 
z
" id="mbc7ac3ddea" style="stroke:#58a1cf;"/>
    </defs>
    <g clip-path="url(#p4f5b4981b3)">
     <use style="fill:#58a1cf;stroke:#58a1cf;" x="193.802312" xlink:href="#mbc7ac3ddea" y="181.966153"/>
    </g>
   </g>
   <g id="PathCollection_115">
    <defs>
     <path d="M 0 3 
C 0.795609 3 1.55874 2.683901 2.12132 2.12132 
C 2.683901 1.55874 3 0.795609 3 0 
C 3 -0.795609 2.683901 -1.55874 2.12132 -2.12132 
C 1.55874 -2.683901 0.795609 -3 0 -3 
C -0.795609 -3 -1.55874 -2.683901 -2.12132 -2.12132 
C -2.683901 -1.55874 -3 -0.795609 -3 0 
C -3 0.795609 -2.683901 1.55874 -2.12132 2.12132 
C -1.55874 2.683901 -0.795609 3 0 3 
z
" id="mfda94f5682" style="stroke:#08306b;"/>
    </defs>
    <g clip-path="url(#p4f5b4981b3)">
     <use style="fill:#08306b;stroke:#08306b;" x="169.366047" xlink:href="#mfda94f5682" y="204.35113"/>
    </g>
   </g>
   <g id="PathCollection_116">
    <g clip-path="url(#p4f5b4981b3)">
     <use style="fill:#1460a8;stroke:#1460a8;" x="273.748118" xlink:href="#m38caf7235a" y="223.914471"/>
    </g>
   </g>
   <g id="PathCollection_117">
    <g clip-path="url(#p4f5b4981b3)">
     <use style="fill:#08468b;stroke:#08468b;" x="236.339514" xlink:href="#m0afdafe610" y="201.341385"/>
    </g>
   </g>
   <g id="PathCollection_118">
    <defs>
     <path d="M 0 3 
C 0.795609 3 1.55874 2.683901 2.12132 2.12132 
C 2.683901 1.55874 3 0.795609 3 0 
C 3 -0.795609 2.683901 -1.55874 2.12132 -2.12132 
C 1.55874 -2.683901 0.795609 -3 0 -3 
C -0.795609 -3 -1.55874 -2.683901 -2.12132 -2.12132 
C -2.683901 -1.55874 -3 -0.795609 -3 0 
C -3 0.795609 -2.683901 1.55874 -2.12132 2.12132 
C -1.55874 2.683901 -0.795609 3 0 3 
z
" id="mf6b574ea3f" style="stroke:#4896c8;"/>
    </defs>
    <g clip-path="url(#p4f5b4981b3)">
     <use style="fill:#4896c8;stroke:#4896c8;" x="266.809425" xlink:href="#mf6b574ea3f" y="229.745851"/>
    </g>
   </g>
   <g id="PathCollection_119">
    <g clip-path="url(#p4f5b4981b3)">
     <use style="fill:#1e6db2;stroke:#1e6db2;" x="331.972799" xlink:href="#m5510e54ec5" y="141.14649"/>
    </g>
   </g>
   <g id="PathCollection_120">
    <g clip-path="url(#p4f5b4981b3)">
     <use style="fill:#2272b6;stroke:#2272b6;" x="359.425887" xlink:href="#mb68e677e26" y="216.578218"/>
    </g>
   </g>
   <g id="PathCollection_121">
    <g clip-path="url(#p4f5b4981b3)">
     <use style="fill:#2676b8;stroke:#2676b8;" x="221.2554" xlink:href="#m29f2453aaf" y="181.778044"/>
    </g>
   </g>
   <g id="PathCollection_122">
    <g clip-path="url(#p4f5b4981b3)">
     <use style="fill:#1e6db2;stroke:#1e6db2;" x="84.895007" xlink:href="#m5510e54ec5" y="196.638659"/>
    </g>
   </g>
   <g id="PathCollection_123">
    <g clip-path="url(#p4f5b4981b3)">
     <use style="fill:#3080bd;stroke:#3080bd;" x="122.605293" xlink:href="#mda32f6ee6b" y="174.253682"/>
    </g>
   </g>
   <g id="PathCollection_124">
    <g clip-path="url(#p4f5b4981b3)">
     <use style="fill:#0a539e;stroke:#0a539e;" x="253.233722" xlink:href="#m0797ab99c8" y="213.004146"/>
    </g>
   </g>
   <g id="PathCollection_125">
    <g clip-path="url(#p4f5b4981b3)">
     <use style="fill:#1b69af;stroke:#1b69af;" x="96.660616" xlink:href="#m0a45466eb2" y="152.809251"/>
    </g>
   </g>
   <g id="PathCollection_126">
    <g clip-path="url(#p4f5b4981b3)">
     <use style="fill:#1460a8;stroke:#1460a8;" x="196.517453" xlink:href="#m38caf7235a" y="51.982801"/>
    </g>
   </g>
   <g id="matplotlib.axis_1">
    <g id="xtick_1">
     <g id="line2d_1">
      <defs>
       <path d="M 0 0 
L 0 3.5 
" id="m581cd5c847" style="stroke:#000000;stroke-width:0.8;"/>
      </defs>
      <g>
       <use style="stroke:#000000;stroke-width:0.8;" x="4.647519" xlink:href="#m581cd5c847" y="345.6"/>
      </g>
     </g>
     <g id="text_1">
      <text style="font-family:DejaVu Sans;font-size:10px;font-style:normal;font-weight:normal;text-anchor:middle;" transform="rotate(-0, 4.647519, 360.198437)" x="4.647519" y="360.198437">−0.6</text>
     </g>
    </g>
    <g id="xtick_2">
     <g id="line2d_2">
      <g>
       <use style="stroke:#000000;stroke-width:0.8;" x="64.983976" xlink:href="#m581cd5c847" y="345.6"/>
      </g>
     </g>
     <g id="text_2">
      <text style="font-family:DejaVu Sans;font-size:10px;font-style:normal;font-weight:normal;text-anchor:middle;" transform="rotate(-0, 64.983976, 360.198437)" x="64.983976" y="360.198437">−0.4</text>
     </g>
    </g>
    <g id="xtick_3">
     <g id="line2d_3">
      <g>
       <use style="stroke:#000000;stroke-width:0.8;" x="125.320433" xlink:href="#m581cd5c847" y="345.6"/>
      </g>
     </g>
     <g id="text_3">
      <text style="font-family:DejaVu Sans;font-size:10px;font-style:normal;font-weight:normal;text-anchor:middle;" transform="rotate(-0, 125.320433, 360.198437)" x="125.320433" y="360.198437">−0.2</text>
     </g>
    </g>
    <g id="xtick_4">
     <g id="line2d_4">
      <g>
       <use style="stroke:#000000;stroke-width:0.8;" x="185.65689" xlink:href="#m581cd5c847" y="345.6"/>
      </g>
     </g>
     <g id="text_4">
      <text style="font-family:DejaVu Sans;font-size:10px;font-style:normal;font-weight:normal;text-anchor:middle;" transform="rotate(-0, 185.65689, 360.198437)" x="185.65689" y="360.198437">0.0</text>
     </g>
    </g>
    <g id="xtick_5">
     <g id="line2d_5">
      <g>
       <use style="stroke:#000000;stroke-width:0.8;" x="245.993348" xlink:href="#m581cd5c847" y="345.6"/>
      </g>
     </g>
     <g id="text_5">
      <text style="font-family:DejaVu Sans;font-size:10px;font-style:normal;font-weight:normal;text-anchor:middle;" transform="rotate(-0, 245.993348, 360.198437)" x="245.993348" y="360.198437">0.2</text>
     </g>
    </g>
    <g id="xtick_6">
     <g id="line2d_6">
      <g>
       <use style="stroke:#000000;stroke-width:0.8;" x="306.329805" xlink:href="#m581cd5c847" y="345.6"/>
      </g>
     </g>
     <g id="text_6">
      <text style="font-family:DejaVu Sans;font-size:10px;font-style:normal;font-weight:normal;text-anchor:middle;" transform="rotate(-0, 306.329805, 360.198437)" x="306.329805" y="360.198437">0.4</text>
     </g>
    </g>
    <g id="xtick_7">
     <g id="line2d_7">
      <g>
       <use style="stroke:#000000;stroke-width:0.8;" x="366.666262" xlink:href="#m581cd5c847" y="345.6"/>
      </g>
     </g>
     <g id="text_7">
      <text style="font-family:DejaVu Sans;font-size:10px;font-style:normal;font-weight:normal;text-anchor:middle;" transform="rotate(-0, 366.666262, 360.198437)" x="366.666262" y="360.198437">0.6</text>
     </g>
    </g>
    <g id="xtick_8">
     <g id="line2d_8">
      <g>
       <use style="stroke:#000000;stroke-width:0.8;" x="427.002719" xlink:href="#m581cd5c847" y="345.6"/>
      </g>
     </g>
     <g id="text_8">
      <text style="font-family:DejaVu Sans;font-size:10px;font-style:normal;font-weight:normal;text-anchor:middle;" transform="rotate(-0, 427.002719, 360.198437)" x="427.002719" y="360.198437">0.8</text>
     </g>
    </g>
   </g>
   <g id="matplotlib.axis_2">
    <g id="ytick_1">
     <g id="line2d_9">
      <defs>
       <path d="M 0 0 
L -3.5 0 
" id="mb43415018f" style="stroke:#000000;stroke-width:0.8;"/>
      </defs>
      <g>
       <use style="stroke:#000000;stroke-width:0.8;" x="0" xlink:href="#mb43415018f" y="333.017719"/>
      </g>
     </g>
     <g id="text_9">
      <text style="font-family:DejaVu Sans;font-size:10px;font-style:normal;font-weight:normal;text-anchor:end;" transform="rotate(-0, -7, 336.816937)" x="-7" y="336.816937">−0.75</text>
     </g>
    </g>
    <g id="ytick_2">
     <g id="line2d_10">
      <g>
       <use style="stroke:#000000;stroke-width:0.8;" x="0" xlink:href="#mb43415018f" y="285.990457"/>
      </g>
     </g>
     <g id="text_10">
      <text style="font-family:DejaVu Sans;font-size:10px;font-style:normal;font-weight:normal;text-anchor:end;" transform="rotate(-0, -7, 289.789675)" x="-7" y="289.789675">−0.50</text>
     </g>
    </g>
    <g id="ytick_3">
     <g id="line2d_11">
      <g>
       <use style="stroke:#000000;stroke-width:0.8;" x="0" xlink:href="#mb43415018f" y="238.963195"/>
      </g>
     </g>
     <g id="text_11">
      <text style="font-family:DejaVu Sans;font-size:10px;font-style:normal;font-weight:normal;text-anchor:end;" transform="rotate(-0, -7, 242.762413)" x="-7" y="242.762413">−0.25</text>
     </g>
    </g>
    <g id="ytick_4">
     <g id="line2d_12">
      <g>
       <use style="stroke:#000000;stroke-width:0.8;" x="0" xlink:href="#mb43415018f" y="191.935933"/>
      </g>
     </g>
     <g id="text_12">
      <text style="font-family:DejaVu Sans;font-size:10px;font-style:normal;font-weight:normal;text-anchor:end;" transform="rotate(-0, -7, 195.735151)" x="-7" y="195.735151">0.00</text>
     </g>
    </g>
    <g id="ytick_5">
     <g id="line2d_13">
      <g>
       <use style="stroke:#000000;stroke-width:0.8;" x="0" xlink:href="#mb43415018f" y="144.908671"/>
      </g>
     </g>
     <g id="text_13">
      <text style="font-family:DejaVu Sans;font-size:10px;font-style:normal;font-weight:normal;text-anchor:end;" transform="rotate(-0, -7, 148.707889)" x="-7" y="148.707889">0.25</text>
     </g>
    </g>
    <g id="ytick_6">
     <g id="line2d_14">
      <g>
       <use style="stroke:#000000;stroke-width:0.8;" x="0" xlink:href="#mb43415018f" y="97.881409"/>
      </g>
     </g>
     <g id="text_14">
      <text style="font-family:DejaVu Sans;font-size:10px;font-style:normal;font-weight:normal;text-anchor:end;" transform="rotate(-0, -7, 101.680627)" x="-7" y="101.680627">0.50</text>
     </g>
    </g>
    <g id="ytick_7">
     <g id="line2d_15">
      <g>
       <use style="stroke:#000000;stroke-width:0.8;" x="0" xlink:href="#mb43415018f" y="50.854147"/>
      </g>
     </g>
     <g id="text_15">
      <text style="font-family:DejaVu Sans;font-size:10px;font-style:normal;font-weight:normal;text-anchor:end;" transform="rotate(-0, -7, 54.653365)" x="-7" y="54.653365">0.75</text>
     </g>
    </g>
    <g id="ytick_8">
     <g id="line2d_16">
      <g>
       <use style="stroke:#000000;stroke-width:0.8;" x="0" xlink:href="#mb43415018f" y="3.826885"/>
      </g>
     </g>
     <g id="text_16">
      <text style="font-family:DejaVu Sans;font-size:10px;font-style:normal;font-weight:normal;text-anchor:end;" transform="rotate(-0, -7, 7.626103)" x="-7" y="7.626103">1.00</text>
     </g>
    </g>
   </g>
   <g id="line2d_17">
    <path clip-path="url(#p4f5b4981b3)" d="M 171.779505 197.579204 
" style="fill:none;stroke:#ff0000;stroke-linecap:square;stroke-width:1.5;"/>
    <defs>
     <path d="M 0 2.5 
C 0.663008 2.5 1.29895 2.236584 1.767767 1.767767 
C 2.236584 1.29895 2.5 0.663008 2.5 0 
C 2.5 -0.663008 2.236584 -1.29895 1.767767 -1.767767 
C 1.29895 -2.236584 0.663008 -2.5 0 -2.5 
C -0.663008 -2.5 -1.29895 -2.236584 -1.767767 -1.767767 
C -2.236584 -1.29895 -2.5 -0.663008 -2.5 0 
C -2.5 0.663008 -2.236584 1.29895 -1.767767 1.767767 
C -1.29895 2.236584 -0.663008 2.5 0 2.5 
z
" id="mea216b40cf" style="stroke:#ff0000;"/>
    </defs>
    <g clip-path="url(#p4f5b4981b3)">
     <use style="fill:#ff0000;stroke:#ff0000;" x="171.779505" xlink:href="#mea216b40cf" y="197.579204"/>
    </g>
   </g>
   <g id="line2d_18">
    <path clip-path="url(#p4f5b4981b3)" d="M 183.243432 192.50026 
" style="fill:none;stroke:#ff0000;stroke-linecap:square;stroke-width:1.5;"/>
    <g clip-path="url(#p4f5b4981b3)">
     <use style="fill:#ff0000;stroke:#ff0000;" x="183.243432" xlink:href="#mea216b40cf" y="192.50026"/>
    </g>
   </g>
   <g id="patch_3">
    <path d="M 0 345.6 
L 0 0 
" style="fill:none;stroke:#000000;stroke-linecap:square;stroke-linejoin:miter;stroke-width:0.8;"/>
   </g>
   <g id="patch_4">
    <path d="M 460.8 345.6 
L 460.8 0 
" style="fill:none;stroke:#000000;stroke-linecap:square;stroke-linejoin:miter;stroke-width:0.8;"/>
   </g>
   <g id="patch_5">
    <path d="M -0 345.6 
L 460.8 345.6 
" style="fill:none;stroke:#000000;stroke-linecap:square;stroke-linejoin:miter;stroke-width:0.8;"/>
   </g>
   <g id="patch_6">
    <path d="M -0 0 
L 460.8 0 
" style="fill:none;stroke:#000000;stroke-linecap:square;stroke-linejoin:miter;stroke-width:0.8;"/>
   </g>
   <g id="text_17">
    <text style="fill:#ff0000;font-family:DejaVu Sans;font-size:8px;font-style:normal;font-weight:normal;text-anchor:start;" transform="rotate(-0, 171.779505, 197.579204)" x="171.779505" y="197.579204">_naive</text>
   </g>
   <g id="text_18">
    <text style="fill:#ff0000;font-family:DejaVu Sans;font-size:8px;font-style:normal;font-weight:normal;text-anchor:start;" transform="rotate(-0, 183.243432, 192.50026)" x="183.243432" y="192.50026">_consensus</text>
   </g>
  </g>
  <g id="text_19">
   <text style="font-family:DejaVu Sans;font-size:15px;font-style:normal;font-weight:normal;text-anchor:start;" transform="rotate(-0, 184.32, 34.56)" x="184.32" y="34.56">MDS comp. (index 2 size 126)</text>
  </g>
 </g>
 <defs>
  <clipPath id="p4f5b4981b3">
   <rect height="345.6" width="460.8" x="0" y="0"/>
  </clipPath>
 </defs>
</svg>
