<?xml version="1.0" encoding="utf-8" standalone="no"?>
<!DOCTYPE svg PUBLIC "-//W3C//DTD SVG 1.1//EN"
  "http://www.w3.org/Graphics/SVG/1.1/DTD/svg11.dtd">
<!-- Created with matplotlib (http://matplotlib.org/) -->
<svg height="345.6pt" version="1.1" viewBox="0 0 460.8 345.6" width="460.8pt" xmlns="http://www.w3.org/2000/svg" xmlns:xlink="http://www.w3.org/1999/xlink">
 <defs>
  <style type="text/css">
*{stroke-linecap:butt;stroke-linejoin:round;}
  </style>
 </defs>
 <g id="figure_1">
  <g id="patch_1">
   <path d="M 0 345.6 
L 460.8 345.6 
L 460.8 0 
L 0 0 
z
" style="fill:#ffffff;"/>
  </g>
  <g id="axes_1">
   <g id="patch_2">
    <path d="M 0 345.6 
L 460.8 345.6 
L 460.8 0 
L 0 0 
z
" style="fill:#ffffff;"/>
   </g>
   <g id="PathCollection_1">
    <defs>
     <path d="M 0 3 
C 0.795609 3 1.55874 2.683901 2.12132 2.12132 
C 2.683901 1.55874 3 0.795609 3 0 
C 3 -0.795609 2.683901 -1.55874 2.12132 -2.12132 
C 1.55874 -2.683901 0.795609 -3 0 -3 
C -0.795609 -3 -1.55874 -2.683901 -2.12132 -2.12132 
C -2.683901 -1.55874 -3 -0.795609 -3 0 
C -3 0.795609 -2.683901 1.55874 -2.12132 2.12132 
C -1.55874 2.683901 -0.795609 3 0 3 
z
" id="m072c92e3d5" style="stroke:#9dcae1;"/>
    </defs>
    <g clip-path="url(#p93873ae286)">
     <use style="fill:#9dcae1;stroke:#9dcae1;" x="291.480396" xlink:href="#m072c92e3d5" y="131.173033"/>
    </g>
   </g>
   <g id="PathCollection_2">
    <g clip-path="url(#p93873ae286)">
     <use style="fill:#9dcae1;stroke:#9dcae1;" x="296.830037" xlink:href="#m072c92e3d5" y="111.679436"/>
    </g>
   </g>
   <g id="PathCollection_3">
    <defs>
     <path d="M 0 3 
C 0.795609 3 1.55874 2.683901 2.12132 2.12132 
C 2.683901 1.55874 3 0.795609 3 0 
C 3 -0.795609 2.683901 -1.55874 2.12132 -2.12132 
C 1.55874 -2.683901 0.795609 -3 0 -3 
C -0.795609 -3 -1.55874 -2.683901 -2.12132 -2.12132 
C -2.683901 -1.55874 -3 -0.795609 -3 0 
C -3 0.795609 -2.683901 1.55874 -2.12132 2.12132 
C -1.55874 2.683901 -0.795609 3 0 3 
z
" id="m8283d6101a" style="stroke:#3181bd;"/>
    </defs>
    <g clip-path="url(#p93873ae286)">
     <use style="fill:#3181bd;stroke:#3181bd;" x="296.830037" xlink:href="#m8283d6101a" y="124.084452"/>
    </g>
   </g>
   <g id="PathCollection_4">
    <g clip-path="url(#p93873ae286)">
     <use style="fill:#9dcae1;stroke:#9dcae1;" x="280.781112" xlink:href="#m072c92e3d5" y="127.628743"/>
    </g>
   </g>
   <g id="PathCollection_5">
    <defs>
     <path d="M 0 3 
C 0.795609 3 1.55874 2.683901 2.12132 2.12132 
C 2.683901 1.55874 3 0.795609 3 0 
C 3 -0.795609 2.683901 -1.55874 2.12132 -2.12132 
C 1.55874 -2.683901 0.795609 -3 0 -3 
C -0.795609 -3 -1.55874 -2.683901 -2.12132 -2.12132 
C -2.683901 -1.55874 -3 -0.795609 -3 0 
C -3 0.795609 -2.683901 1.55874 -2.12132 2.12132 
C -1.55874 2.683901 -0.795609 3 0 3 
z
" id="m4706ebfeaf" style="stroke:#4f9bcb;"/>
    </defs>
    <g clip-path="url(#p93873ae286)">
     <use style="fill:#4f9bcb;stroke:#4f9bcb;" x="202.319702" xlink:href="#m4706ebfeaf" y="264.083919"/>
    </g>
   </g>
   <g id="PathCollection_6">
    <g clip-path="url(#p93873ae286)">
     <use style="fill:#3181bd;stroke:#3181bd;" x="175.571494" xlink:href="#m8283d6101a" y="154.21092"/>
    </g>
   </g>
   <g id="PathCollection_7">
    <g clip-path="url(#p93873ae286)">
     <use style="fill:#3181bd;stroke:#3181bd;" x="303.962893" xlink:href="#m8283d6101a" y="74.464388"/>
    </g>
   </g>
   <g id="PathCollection_8">
    <g clip-path="url(#p93873ae286)">
     <use style="fill:#4f9bcb;stroke:#4f9bcb;" x="318.228604" xlink:href="#m4706ebfeaf" y="83.325114"/>
    </g>
   </g>
   <g id="PathCollection_9">
    <defs>
     <path d="M 0 3 
C 0.795609 3 1.55874 2.683901 2.12132 2.12132 
C 2.683901 1.55874 3 0.795609 3 0 
C 3 -0.795609 2.683901 -1.55874 2.12132 -2.12132 
C 1.55874 -2.683901 0.795609 -3 0 -3 
C -0.795609 -3 -1.55874 -2.683901 -2.12132 -2.12132 
C -2.683901 -1.55874 -3 -0.795609 -3 0 
C -3 0.795609 -2.683901 1.55874 -2.12132 2.12132 
C -1.55874 2.683901 -0.795609 3 0 3 
z
" id="mbb978d80ba" style="stroke:#084b93;"/>
    </defs>
    <g clip-path="url(#p93873ae286)">
     <use style="fill:#084b93;stroke:#084b93;" x="309.312534" xlink:href="#mbb978d80ba" y="46.110066"/>
    </g>
   </g>
   <g id="PathCollection_10">
    <g clip-path="url(#p93873ae286)">
     <use style="fill:#4f9bcb;stroke:#4f9bcb;" x="307.52932" xlink:href="#m4706ebfeaf" y="131.173033"/>
    </g>
   </g>
   <g id="PathCollection_11">
    <g clip-path="url(#p93873ae286)">
     <use style="fill:#3181bd;stroke:#3181bd;" x="405.606083" xlink:href="#m8283d6101a" y="253.451048"/>
    </g>
   </g>
   <g id="PathCollection_12">
    <g clip-path="url(#p93873ae286)">
     <use style="fill:#3181bd;stroke:#3181bd;" x="293.263609" xlink:href="#m8283d6101a" y="111.679436"/>
    </g>
   </g>
   <g id="PathCollection_13">
    <defs>
     <path d="M 0 3 
C 0.795609 3 1.55874 2.683901 2.12132 2.12132 
C 2.683901 1.55874 3 0.795609 3 0 
C 3 -0.795609 2.683901 -1.55874 2.12132 -2.12132 
C 1.55874 -2.683901 0.795609 -3 0 -3 
C -0.795609 -3 -1.55874 -2.683901 -2.12132 -2.12132 
C -2.683901 -1.55874 -3 -0.795609 -3 0 
C -3 0.795609 -2.683901 1.55874 -2.12132 2.12132 
C -1.55874 2.683901 -0.795609 3 0 3 
z
" id="m20ed512f61" style="stroke:#1966ad;"/>
    </defs>
    <g clip-path="url(#p93873ae286)">
     <use style="fill:#1966ad;stroke:#1966ad;" x="303.962893" xlink:href="#m20ed512f61" y="79.780824"/>
    </g>
   </g>
   <g id="PathCollection_14">
    <defs>
     <path d="M 0 3 
C 0.795609 3 1.55874 2.683901 2.12132 2.12132 
C 2.683901 1.55874 3 0.795609 3 0 
C 3 -0.795609 2.683901 -1.55874 2.12132 -2.12132 
C 1.55874 -2.683901 0.795609 -3 0 -3 
C -0.795609 -3 -1.55874 -2.683901 -2.12132 -2.12132 
C -2.683901 -1.55874 -3 -0.795609 -3 0 
C -3 0.795609 -2.683901 1.55874 -2.12132 2.12132 
C -1.55874 2.683901 -0.795609 3 0 3 
z
" id="m31d0dedd41" style="stroke:#74b3d8;"/>
    </defs>
    <g clip-path="url(#p93873ae286)">
     <use style="fill:#74b3d8;stroke:#74b3d8;" x="312.878962" xlink:href="#m31d0dedd41" y="97.502275"/>
    </g>
   </g>
   <g id="PathCollection_15">
    <g clip-path="url(#p93873ae286)">
     <use style="fill:#4f9bcb;stroke:#4f9bcb;" x="271.865043" xlink:href="#m4706ebfeaf" y="132.945178"/>
    </g>
   </g>
   <g id="PathCollection_16">
    <g clip-path="url(#p93873ae286)">
     <use style="fill:#3181bd;stroke:#3181bd;" x="291.480396" xlink:href="#m8283d6101a" y="33.70505"/>
    </g>
   </g>
   <g id="PathCollection_17">
    <g clip-path="url(#p93873ae286)">
     <use style="fill:#3181bd;stroke:#3181bd;" x="161.305783" xlink:href="#m8283d6101a" y="161.2995"/>
    </g>
   </g>
   <g id="PathCollection_18">
    <g clip-path="url(#p93873ae286)">
     <use style="fill:#1966ad;stroke:#1966ad;" x="280.781112" xlink:href="#m20ed512f61" y="78.008678"/>
    </g>
   </g>
   <g id="PathCollection_19">
    <defs>
     <path d="M 0 3 
C 0.795609 3 1.55874 2.683901 2.12132 2.12132 
C 2.683901 1.55874 3 0.795609 3 0 
C 3 -0.795609 2.683901 -1.55874 2.12132 -2.12132 
C 1.55874 -2.683901 0.795609 -3 0 -3 
C -0.795609 -3 -1.55874 -2.683901 -2.12132 -2.12132 
C -2.683901 -1.55874 -3 -0.795609 -3 0 
C -3 0.795609 -2.683901 1.55874 -2.12132 2.12132 
C -1.55874 2.683901 -0.795609 3 0 3 
z
" id="m2e1d918ec0" style="stroke:#08306b;"/>
    </defs>
    <g clip-path="url(#p93873ae286)">
     <use style="fill:#08306b;stroke:#08306b;" x="22.215101" xlink:href="#m2e1d918ec0" y="308.387548"/>
    </g>
   </g>
   <g id="PathCollection_20">
    <g clip-path="url(#p93873ae286)">
     <use style="fill:#74b3d8;stroke:#74b3d8;" x="303.962893" xlink:href="#m31d0dedd41" y="99.27442"/>
    </g>
   </g>
   <g id="PathCollection_21">
    <g clip-path="url(#p93873ae286)">
     <use style="fill:#9dcae1;stroke:#9dcae1;" x="207.669344" xlink:href="#m072c92e3d5" y="161.2995"/>
    </g>
   </g>
   <g id="PathCollection_22">
    <g clip-path="url(#p93873ae286)">
     <use style="fill:#1966ad;stroke:#1966ad;" x="428.787864" xlink:href="#m20ed512f61" y="315.476129"/>
    </g>
   </g>
   <g id="PathCollection_23">
    <g clip-path="url(#p93873ae286)">
     <use style="fill:#3181bd;stroke:#3181bd;" x="400.256442" xlink:href="#m8283d6101a" y="271.1725"/>
    </g>
   </g>
   <g id="PathCollection_24">
    <g clip-path="url(#p93873ae286)">
     <use style="fill:#4f9bcb;stroke:#4f9bcb;" x="287.913968" xlink:href="#m4706ebfeaf" y="106.363001"/>
    </g>
   </g>
   <g id="PathCollection_25">
    <g clip-path="url(#p93873ae286)">
     <use style="fill:#3181bd;stroke:#3181bd;" x="141.69043" xlink:href="#m8283d6101a" y="164.843791"/>
    </g>
   </g>
   <g id="PathCollection_26">
    <g clip-path="url(#p93873ae286)">
     <use style="fill:#4f9bcb;stroke:#4f9bcb;" x="270.081829" xlink:href="#m4706ebfeaf" y="124.084452"/>
    </g>
   </g>
   <g id="PathCollection_27">
    <defs>
     <path d="M 0 3 
C 0.795609 3 1.55874 2.683901 2.12132 2.12132 
C 2.683901 1.55874 3 0.795609 3 0 
C 3 -0.795609 2.683901 -1.55874 2.12132 -2.12132 
C 1.55874 -2.683901 0.795609 -3 0 -3 
C -0.795609 -3 -1.55874 -2.683901 -2.12132 -2.12132 
C -2.683901 -1.55874 -3 -0.795609 -3 0 
C -3 0.795609 -2.683901 1.55874 -2.12132 2.12132 
C -1.55874 2.683901 -0.795609 3 0 3 
z
" id="md41477e924" style="stroke:#bfd8ed;"/>
    </defs>
    <g clip-path="url(#p93873ae286)">
     <use style="fill:#bfd8ed;stroke:#bfd8ed;" x="275.431471" xlink:href="#md41477e924" y="148.894484"/>
    </g>
   </g>
   <g id="PathCollection_28">
    <g clip-path="url(#p93873ae286)">
     <use style="fill:#4f9bcb;stroke:#4f9bcb;" x="291.480396" xlink:href="#m4706ebfeaf" y="115.223727"/>
    </g>
   </g>
   <g id="PathCollection_29">
    <g clip-path="url(#p93873ae286)">
     <use style="fill:#1966ad;stroke:#1966ad;" x="123.858292" xlink:href="#m20ed512f61" y="164.843791"/>
    </g>
   </g>
   <g id="PathCollection_30">
    <g clip-path="url(#p93873ae286)">
     <use style="fill:#4f9bcb;stroke:#4f9bcb;" x="237.983979" xlink:href="#m4706ebfeaf" y="152.438775"/>
    </g>
   </g>
   <g id="PathCollection_31">
    <g clip-path="url(#p93873ae286)">
     <use style="fill:#084b93;stroke:#084b93;" x="364.592164" xlink:href="#mbb978d80ba" y="163.071646"/>
    </g>
   </g>
   <g id="PathCollection_32">
    <g clip-path="url(#p93873ae286)">
     <use style="fill:#4f9bcb;stroke:#4f9bcb;" x="348.54324" xlink:href="#m4706ebfeaf" y="184.337387"/>
    </g>
   </g>
   <g id="PathCollection_33">
    <g clip-path="url(#p93873ae286)">
     <use style="fill:#4f9bcb;stroke:#4f9bcb;" x="286.130754" xlink:href="#m4706ebfeaf" y="124.084452"/>
    </g>
   </g>
   <g id="PathCollection_34">
    <g clip-path="url(#p93873ae286)">
     <use style="fill:#084b93;stroke:#084b93;" x="435.920719" xlink:href="#mbb978d80ba" y="322.564709"/>
    </g>
   </g>
   <g id="PathCollection_35">
    <g clip-path="url(#p93873ae286)">
     <use style="fill:#74b3d8;stroke:#74b3d8;" x="323.578245" xlink:href="#m31d0dedd41" y="196.742403"/>
    </g>
   </g>
   <g id="PathCollection_36">
    <g clip-path="url(#p93873ae286)">
     <use style="fill:#4f9bcb;stroke:#4f9bcb;" x="362.808951" xlink:href="#m4706ebfeaf" y="303.071112"/>
    </g>
   </g>
   <g id="PathCollection_37">
    <defs>
     <path d="M 0 3 
C 0.795609 3 1.55874 2.683901 2.12132 2.12132 
C 2.683901 1.55874 3 0.795609 3 0 
C 3 -0.795609 2.683901 -1.55874 2.12132 -2.12132 
C 1.55874 -2.683901 0.795609 -3 0 -3 
C -0.795609 -3 -1.55874 -2.683901 -2.12132 -2.12132 
C -2.683901 -1.55874 -3 -0.795609 -3 0 
C -3 0.795609 -2.683901 1.55874 -2.12132 2.12132 
C -1.55874 2.683901 -0.795609 3 0 3 
z
" id="mb0185dacc0" style="stroke:#d6e6f4;"/>
    </defs>
    <g clip-path="url(#p93873ae286)">
     <use style="fill:#d6e6f4;stroke:#d6e6f4;" x="275.431471" xlink:href="#mb0185dacc0" y="152.438775"/>
    </g>
   </g>
   <g id="PathCollection_38">
    <g clip-path="url(#p93873ae286)">
     <use style="fill:#3181bd;stroke:#3181bd;" x="309.312534" xlink:href="#m8283d6101a" y="104.590856"/>
    </g>
   </g>
   <g id="PathCollection_39">
    <g clip-path="url(#p93873ae286)">
     <use style="fill:#1966ad;stroke:#1966ad;" x="321.795031" xlink:href="#m20ed512f61" y="47.882211"/>
    </g>
   </g>
   <g id="PathCollection_40">
    <g clip-path="url(#p93873ae286)">
     <use style="fill:#4f9bcb;stroke:#4f9bcb;" x="291.480396" xlink:href="#m4706ebfeaf" y="56.742937"/>
    </g>
   </g>
   <g id="PathCollection_41">
    <g clip-path="url(#p93873ae286)">
     <use style="fill:#4f9bcb;stroke:#4f9bcb;" x="309.312534" xlink:href="#m4706ebfeaf" y="78.008678"/>
    </g>
   </g>
   <g id="PathCollection_42">
    <g clip-path="url(#p93873ae286)">
     <use style="fill:#084b93;stroke:#084b93;" x="141.69043" xlink:href="#mbb978d80ba" y="253.451048"/>
    </g>
   </g>
   <g id="PathCollection_43">
    <g clip-path="url(#p93873ae286)">
     <use style="fill:#9dcae1;stroke:#9dcae1;" x="286.130754" xlink:href="#m072c92e3d5" y="131.173033"/>
    </g>
   </g>
   <g id="PathCollection_44">
    <g clip-path="url(#p93873ae286)">
     <use style="fill:#08306b;stroke:#08306b;" x="437.703933" xlink:href="#m2e1d918ec0" y="184.337387"/>
    </g>
   </g>
   <g id="PathCollection_45">
    <g clip-path="url(#p93873ae286)">
     <use style="fill:#74b3d8;stroke:#74b3d8;" x="286.130754" xlink:href="#m31d0dedd41" y="78.008678"/>
    </g>
   </g>
   <g id="PathCollection_46">
    <g clip-path="url(#p93873ae286)">
     <use style="fill:#4f9bcb;stroke:#4f9bcb;" x="380.641089" xlink:href="#m4706ebfeaf" y="255.223193"/>
    </g>
   </g>
   <g id="PathCollection_47">
    <g clip-path="url(#p93873ae286)">
     <use style="fill:#084b93;stroke:#084b93;" x="282.564326" xlink:href="#mbb978d80ba" y="115.223727"/>
    </g>
   </g>
   <g id="PathCollection_48">
    <g clip-path="url(#p93873ae286)">
     <use style="fill:#74b3d8;stroke:#74b3d8;" x="287.913968" xlink:href="#m31d0dedd41" y="76.236533"/>
    </g>
   </g>
   <g id="PathCollection_49">
    <g clip-path="url(#p93873ae286)">
     <use style="fill:#4f9bcb;stroke:#4f9bcb;" x="289.697182" xlink:href="#m4706ebfeaf" y="58.515082"/>
    </g>
   </g>
   <g id="PathCollection_50">
    <g clip-path="url(#p93873ae286)">
     <use style="fill:#4f9bcb;stroke:#4f9bcb;" x="182.704349" xlink:href="#m4706ebfeaf" y="136.489468"/>
    </g>
   </g>
   <g id="PathCollection_51">
    <g clip-path="url(#p93873ae286)">
     <use style="fill:#3181bd;stroke:#3181bd;" x="284.34754" xlink:href="#m8283d6101a" y="108.135146"/>
    </g>
   </g>
   <g id="PathCollection_52">
    <g clip-path="url(#p93873ae286)">
     <use style="fill:#4f9bcb;stroke:#4f9bcb;" x="286.130754" xlink:href="#m4706ebfeaf" y="124.084452"/>
    </g>
   </g>
   <g id="PathCollection_53">
    <g clip-path="url(#p93873ae286)">
     <use style="fill:#74b3d8;stroke:#74b3d8;" x="271.865043" xlink:href="#m31d0dedd41" y="92.18584"/>
    </g>
   </g>
   <g id="PathCollection_54">
    <g clip-path="url(#p93873ae286)">
     <use style="fill:#3181bd;stroke:#3181bd;" x="380.641089" xlink:href="#m8283d6101a" y="327.881145"/>
    </g>
   </g>
   <g id="PathCollection_55">
    <g clip-path="url(#p93873ae286)">
     <use style="fill:#4f9bcb;stroke:#4f9bcb;" x="182.704349" xlink:href="#m4706ebfeaf" y="132.945178"/>
    </g>
   </g>
   <g id="PathCollection_56">
    <g clip-path="url(#p93873ae286)">
     <use style="fill:#74b3d8;stroke:#74b3d8;" x="200.536488" xlink:href="#m31d0dedd41" y="180.793097"/>
    </g>
   </g>
   <g id="PathCollection_57">
    <g clip-path="url(#p93873ae286)">
     <use style="fill:#084b93;stroke:#084b93;" x="56.096165" xlink:href="#mbb978d80ba" y="297.754677"/>
    </g>
   </g>
   <g id="PathCollection_58">
    <g clip-path="url(#p93873ae286)">
     <use style="fill:#1966ad;stroke:#1966ad;" x="287.913968" xlink:href="#m20ed512f61" y="17.755743"/>
    </g>
   </g>
   <g id="PathCollection_59">
    <g clip-path="url(#p93873ae286)">
     <use style="fill:#4f9bcb;stroke:#4f9bcb;" x="320.011818" xlink:href="#m4706ebfeaf" y="150.66663"/>
    </g>
   </g>
   <g id="matplotlib.axis_1">
    <g id="xtick_1">
     <g id="line2d_1">
      <defs>
       <path d="M 0 0 
L 0 3.5 
" id="m798d0af86e" style="stroke:#000000;stroke-width:0.8;"/>
      </defs>
      <g>
       <use style="stroke:#000000;stroke-width:0.8;" x="13.299032" xlink:href="#m798d0af86e" y="345.6"/>
      </g>
     </g>
     <g id="text_1">
      <text style="font-family:DejaVu Sans;font-size:10px;font-style:normal;font-weight:normal;text-anchor:middle;" transform="rotate(-0, 13.299032, 360.198437)" x="13.299032" y="360.198437">−0.15</text>
     </g>
    </g>
    <g id="xtick_2">
     <g id="line2d_2">
      <g>
       <use style="stroke:#000000;stroke-width:0.8;" x="102.459725" xlink:href="#m798d0af86e" y="345.6"/>
      </g>
     </g>
     <g id="text_2">
      <text style="font-family:DejaVu Sans;font-size:10px;font-style:normal;font-weight:normal;text-anchor:middle;" transform="rotate(-0, 102.459725, 360.198437)" x="102.459725" y="360.198437">−0.10</text>
     </g>
    </g>
    <g id="xtick_3">
     <g id="line2d_3">
      <g>
       <use style="stroke:#000000;stroke-width:0.8;" x="191.620419" xlink:href="#m798d0af86e" y="345.6"/>
      </g>
     </g>
     <g id="text_3">
      <text style="font-family:DejaVu Sans;font-size:10px;font-style:normal;font-weight:normal;text-anchor:middle;" transform="rotate(-0, 191.620419, 360.198437)" x="191.620419" y="360.198437">−0.05</text>
     </g>
    </g>
    <g id="xtick_4">
     <g id="line2d_4">
      <g>
       <use style="stroke:#000000;stroke-width:0.8;" x="280.781112" xlink:href="#m798d0af86e" y="345.6"/>
      </g>
     </g>
     <g id="text_4">
      <text style="font-family:DejaVu Sans;font-size:10px;font-style:normal;font-weight:normal;text-anchor:middle;" transform="rotate(-0, 280.781112, 360.198437)" x="280.781112" y="360.198437">0.00</text>
     </g>
    </g>
    <g id="xtick_5">
     <g id="line2d_5">
      <g>
       <use style="stroke:#000000;stroke-width:0.8;" x="369.941806" xlink:href="#m798d0af86e" y="345.6"/>
      </g>
     </g>
     <g id="text_5">
      <text style="font-family:DejaVu Sans;font-size:10px;font-style:normal;font-weight:normal;text-anchor:middle;" transform="rotate(-0, 369.941806, 360.198437)" x="369.941806" y="360.198437">0.05</text>
     </g>
    </g>
    <g id="xtick_6">
     <g id="line2d_6">
      <g>
       <use style="stroke:#000000;stroke-width:0.8;" x="459.1025" xlink:href="#m798d0af86e" y="345.6"/>
      </g>
     </g>
     <g id="text_6">
      <text style="font-family:DejaVu Sans;font-size:10px;font-style:normal;font-weight:normal;text-anchor:middle;" transform="rotate(-0, 459.1025, 360.198437)" x="459.1025" y="360.198437">0.10</text>
     </g>
    </g>
   </g>
   <g id="matplotlib.axis_2">
    <g id="ytick_1">
     <g id="line2d_7">
      <defs>
       <path d="M 0 0 
L -3.5 0 
" id="m35ff7c1214" style="stroke:#000000;stroke-width:0.8;"/>
      </defs>
      <g>
       <use style="stroke:#000000;stroke-width:0.8;" x="0" xlink:href="#m35ff7c1214" y="326.108999"/>
      </g>
     </g>
     <g id="text_7">
      <text style="font-family:DejaVu Sans;font-size:10px;font-style:normal;font-weight:normal;text-anchor:end;" transform="rotate(-0, -7, 329.908218)" x="-7" y="329.908218">−0.100</text>
     </g>
    </g>
    <g id="ytick_2">
     <g id="line2d_8">
      <g>
       <use style="stroke:#000000;stroke-width:0.8;" x="0" xlink:href="#m35ff7c1214" y="281.805371"/>
      </g>
     </g>
     <g id="text_8">
      <text style="font-family:DejaVu Sans;font-size:10px;font-style:normal;font-weight:normal;text-anchor:end;" transform="rotate(-0, -7, 285.604589)" x="-7" y="285.604589">−0.075</text>
     </g>
    </g>
    <g id="ytick_3">
     <g id="line2d_9">
      <g>
       <use style="stroke:#000000;stroke-width:0.8;" x="0" xlink:href="#m35ff7c1214" y="237.501742"/>
      </g>
     </g>
     <g id="text_9">
      <text style="font-family:DejaVu Sans;font-size:10px;font-style:normal;font-weight:normal;text-anchor:end;" transform="rotate(-0, -7, 241.300961)" x="-7" y="241.300961">−0.050</text>
     </g>
    </g>
    <g id="ytick_4">
     <g id="line2d_10">
      <g>
       <use style="stroke:#000000;stroke-width:0.8;" x="0" xlink:href="#m35ff7c1214" y="193.198113"/>
      </g>
     </g>
     <g id="text_10">
      <text style="font-family:DejaVu Sans;font-size:10px;font-style:normal;font-weight:normal;text-anchor:end;" transform="rotate(-0, -7, 196.997332)" x="-7" y="196.997332">−0.025</text>
     </g>
    </g>
    <g id="ytick_5">
     <g id="line2d_11">
      <g>
       <use style="stroke:#000000;stroke-width:0.8;" x="0" xlink:href="#m35ff7c1214" y="148.894484"/>
      </g>
     </g>
     <g id="text_11">
      <text style="font-family:DejaVu Sans;font-size:10px;font-style:normal;font-weight:normal;text-anchor:end;" transform="rotate(-0, -7, 152.693703)" x="-7" y="152.693703">0.000</text>
     </g>
    </g>
    <g id="ytick_6">
     <g id="line2d_12">
      <g>
       <use style="stroke:#000000;stroke-width:0.8;" x="0" xlink:href="#m35ff7c1214" y="104.590856"/>
      </g>
     </g>
     <g id="text_12">
      <text style="font-family:DejaVu Sans;font-size:10px;font-style:normal;font-weight:normal;text-anchor:end;" transform="rotate(-0, -7, 108.390074)" x="-7" y="108.390074">0.025</text>
     </g>
    </g>
    <g id="ytick_7">
     <g id="line2d_13">
      <g>
       <use style="stroke:#000000;stroke-width:0.8;" x="0" xlink:href="#m35ff7c1214" y="60.287227"/>
      </g>
     </g>
     <g id="text_13">
      <text style="font-family:DejaVu Sans;font-size:10px;font-style:normal;font-weight:normal;text-anchor:end;" transform="rotate(-0, -7, 64.086446)" x="-7" y="64.086446">0.050</text>
     </g>
    </g>
    <g id="ytick_8">
     <g id="line2d_14">
      <g>
       <use style="stroke:#000000;stroke-width:0.8;" x="0" xlink:href="#m35ff7c1214" y="15.983598"/>
      </g>
     </g>
     <g id="text_14">
      <text style="font-family:DejaVu Sans;font-size:10px;font-style:normal;font-weight:normal;text-anchor:end;" transform="rotate(-0, -7, 19.782817)" x="-7" y="19.782817">0.075</text>
     </g>
    </g>
   </g>
   <g id="line2d_15">
    <path clip-path="url(#p93873ae286)" d="M 275.431471 152.438775 
" style="fill:none;stroke:#ff0000;stroke-linecap:square;stroke-width:1.5;"/>
    <defs>
     <path d="M 0 2.5 
C 0.663008 2.5 1.29895 2.236584 1.767767 1.767767 
C 2.236584 1.29895 2.5 0.663008 2.5 0 
C 2.5 -0.663008 2.236584 -1.29895 1.767767 -1.767767 
C 1.29895 -2.236584 0.663008 -2.5 0 -2.5 
C -0.663008 -2.5 -1.29895 -2.236584 -1.767767 -1.767767 
C -2.236584 -1.29895 -2.5 -0.663008 -2.5 0 
C -2.5 0.663008 -2.236584 1.29895 -1.767767 1.767767 
C -1.29895 2.236584 -0.663008 2.5 0 2.5 
z
" id="m623f0e6eb7" style="stroke:#ff0000;"/>
    </defs>
    <g clip-path="url(#p93873ae286)">
     <use style="fill:#ff0000;stroke:#ff0000;" x="275.431471" xlink:href="#m623f0e6eb7" y="152.438775"/>
    </g>
   </g>
   <g id="patch_3">
    <path d="M 0 345.6 
L 0 0 
" style="fill:none;stroke:#000000;stroke-linecap:square;stroke-linejoin:miter;stroke-width:0.8;"/>
   </g>
   <g id="patch_4">
    <path d="M 460.8 345.6 
L 460.8 0 
" style="fill:none;stroke:#000000;stroke-linecap:square;stroke-linejoin:miter;stroke-width:0.8;"/>
   </g>
   <g id="patch_5">
    <path d="M 0 345.6 
L 460.8 345.6 
" style="fill:none;stroke:#000000;stroke-linecap:square;stroke-linejoin:miter;stroke-width:0.8;"/>
   </g>
   <g id="patch_6">
    <path d="M 0 0 
L 460.8 0 
" style="fill:none;stroke:#000000;stroke-linecap:square;stroke-linejoin:miter;stroke-width:0.8;"/>
   </g>
   <g id="text_15">
    <text style="fill:#ff0000;font-family:DejaVu Sans;font-size:8px;font-style:normal;font-weight:normal;text-anchor:start;" transform="rotate(-0, 275.431471, 152.438775)" x="275.431471" y="152.438775">_consensus</text>
   </g>
  </g>
  <g id="text_16">
   <text style="font-family:DejaVu Sans;font-size:15px;font-style:normal;font-weight:normal;text-anchor:start;" transform="rotate(-0, 184.32, 34.56)" x="184.32" y="34.56">MDS comp. (index 4 size 71)</text>
  </g>
 </g>
 <defs>
  <clipPath id="p93873ae286">
   <rect height="345.6" width="460.8" x="0" y="0"/>
  </clipPath>
 </defs>
</svg>
