<?xml version="1.0" encoding="utf-8" standalone="no"?>
<!DOCTYPE svg PUBLIC "-//W3C//DTD SVG 1.1//EN"
  "http://www.w3.org/Graphics/SVG/1.1/DTD/svg11.dtd">
<!-- Created with matplotlib (http://matplotlib.org/) -->
<svg height="345.6pt" version="1.1" viewBox="0 0 460.8 345.6" width="460.8pt" xmlns="http://www.w3.org/2000/svg" xmlns:xlink="http://www.w3.org/1999/xlink">
 <defs>
  <style type="text/css">
*{stroke-linecap:butt;stroke-linejoin:round;}
  </style>
 </defs>
 <g id="figure_1">
  <g id="patch_1">
   <path d="M 0 345.6 
L 460.8 345.6 
L 460.8 0 
L 0 0 
z
" style="fill:#ffffff;"/>
  </g>
  <g id="axes_1">
   <g id="patch_2">
    <path d="M 92.16 276.48 
L 437.76 276.48 
L 437.76 27.648 
L 92.16 27.648 
z
" style="fill:#ffffff;"/>
   </g>
   <g id="matplotlib.axis_1">
    <g id="xtick_1">
     <g id="line2d_1">
      <defs>
       <path d="M 0 0 
L 0 3.5 
" id="m15fea7145d" style="stroke:#262626;stroke-width:0.8;"/>
      </defs>
      <g>
       <use style="fill:#262626;stroke:#262626;stroke-width:0.8;" x="92.16" xlink:href="#m15fea7145d" y="276.48"/>
      </g>
     </g>
     <g id="text_1">
      <text style="fill:#262626;font-family:DejaVu Sans;font-size:20px;font-style:normal;font-weight:normal;text-anchor:middle;" transform="rotate(-0, 92.16, 298.676875)" x="92.16" y="298.676875">0.0</text>
     </g>
    </g>
    <g id="xtick_2">
     <g id="line2d_2">
      <g>
       <use style="fill:#262626;stroke:#262626;stroke-width:0.8;" x="178.56" xlink:href="#m15fea7145d" y="276.48"/>
      </g>
     </g>
     <g id="text_2">
      <text style="fill:#262626;font-family:DejaVu Sans;font-size:20px;font-style:normal;font-weight:normal;text-anchor:middle;" transform="rotate(-0, 178.56, 298.676875)" x="178.56" y="298.676875">0.1</text>
     </g>
    </g>
    <g id="xtick_3">
     <g id="line2d_3">
      <g>
       <use style="fill:#262626;stroke:#262626;stroke-width:0.8;" x="264.96" xlink:href="#m15fea7145d" y="276.48"/>
      </g>
     </g>
     <g id="text_3">
      <text style="fill:#262626;font-family:DejaVu Sans;font-size:20px;font-style:normal;font-weight:normal;text-anchor:middle;" transform="rotate(-0, 264.96, 298.676875)" x="264.96" y="298.676875">0.2</text>
     </g>
    </g>
    <g id="xtick_4">
     <g id="line2d_4">
      <g>
       <use style="fill:#262626;stroke:#262626;stroke-width:0.8;" x="351.36" xlink:href="#m15fea7145d" y="276.48"/>
      </g>
     </g>
     <g id="text_4">
      <text style="fill:#262626;font-family:DejaVu Sans;font-size:20px;font-style:normal;font-weight:normal;text-anchor:middle;" transform="rotate(-0, 351.36, 298.676875)" x="351.36" y="298.676875">0.3</text>
     </g>
    </g>
    <g id="xtick_5">
     <g id="line2d_5">
      <g>
       <use style="fill:#262626;stroke:#262626;stroke-width:0.8;" x="437.76" xlink:href="#m15fea7145d" y="276.48"/>
      </g>
     </g>
     <g id="text_5">
      <text style="fill:#262626;font-family:DejaVu Sans;font-size:20px;font-style:normal;font-weight:normal;text-anchor:middle;" transform="rotate(-0, 437.76, 298.676875)" x="437.76" y="298.676875">0.4</text>
     </g>
    </g>
    <g id="text_6">
     <text style="fill:#262626;font-family:DejaVu Sans;font-size:20px;font-style:normal;font-weight:normal;text-anchor:middle;" transform="rotate(-0, 264.96, 322.033125)" x="264.96" y="322.033125">mut freq</text>
    </g>
   </g>
   <g id="matplotlib.axis_2">
    <g id="ytick_1">
     <g id="line2d_6">
      <defs>
       <path d="M 0 0 
L -3.5 0 
" id="m69a47311c6" style="stroke:#262626;stroke-width:0.8;"/>
      </defs>
      <g>
       <use style="fill:#262626;stroke:#262626;stroke-width:0.8;" x="92.16" xlink:href="#m69a47311c6" y="270.153763"/>
      </g>
     </g>
     <g id="text_7">
      <text style="fill:#262626;font-family:DejaVu Sans;font-size:20px;font-style:normal;font-weight:normal;text-anchor:end;" transform="rotate(-0, 85.16, 277.7522)" x="85.16" y="277.7522">0.0</text>
     </g>
    </g>
    <g id="ytick_2">
     <g id="line2d_7">
      <g>
       <use style="fill:#262626;stroke:#262626;stroke-width:0.8;" x="92.16" xlink:href="#m69a47311c6" y="198.248989"/>
      </g>
     </g>
     <g id="text_8">
      <text style="fill:#262626;font-family:DejaVu Sans;font-size:20px;font-style:normal;font-weight:normal;text-anchor:end;" transform="rotate(-0, 85.16, 205.847427)" x="85.16" y="205.847427">0.2</text>
     </g>
    </g>
    <g id="ytick_3">
     <g id="line2d_8">
      <g>
       <use style="fill:#262626;stroke:#262626;stroke-width:0.8;" x="92.16" xlink:href="#m69a47311c6" y="126.344216"/>
      </g>
     </g>
     <g id="text_9">
      <text style="fill:#262626;font-family:DejaVu Sans;font-size:20px;font-style:normal;font-weight:normal;text-anchor:end;" transform="rotate(-0, 85.16, 133.942653)" x="85.16" y="133.942653">0.4</text>
     </g>
    </g>
    <g id="ytick_4">
     <g id="line2d_9">
      <g>
       <use style="fill:#262626;stroke:#262626;stroke-width:0.8;" x="92.16" xlink:href="#m69a47311c6" y="54.439442"/>
      </g>
     </g>
     <g id="text_10">
      <text style="fill:#262626;font-family:DejaVu Sans;font-size:20px;font-style:normal;font-weight:normal;text-anchor:end;" transform="rotate(-0, 85.16, 62.03788)" x="85.16" y="62.03788">0.6</text>
     </g>
    </g>
    <g id="text_11">
     <text style="fill:#262626;font-family:DejaVu Sans;font-size:20px;font-style:normal;font-weight:normal;text-anchor:middle;" transform="rotate(-90, 45.194375, 152.064)" x="45.194375" y="152.064">freq (104 total)</text>
    </g>
   </g>
   <g id="LineCollection_1">
    <path clip-path="url(#p59da31db21)" d="M 96.48 255.101298 
L 96.48 236.808784 
" style="fill:none;stroke:#4169e1;stroke-width:3;"/>
    <path clip-path="url(#p59da31db21)" d="M 105.12 270.153763 
L 105.12 270.153763 
" style="fill:none;stroke:#4169e1;stroke-width:3;"/>
    <path clip-path="url(#p59da31db21)" d="M 113.76 86.278909 
L 113.76 32.279464 
" style="fill:none;stroke:#4169e1;stroke-width:3;"/>
    <path clip-path="url(#p59da31db21)" d="M 122.4 270.153763 
L 122.4 270.153763 
" style="fill:none;stroke:#4169e1;stroke-width:3;"/>
    <path clip-path="url(#p59da31db21)" d="M 131.04 225.638851 
L 131.04 197.132026 
" style="fill:none;stroke:#4169e1;stroke-width:3;"/>
    <path clip-path="url(#p59da31db21)" d="M 139.68 270.153763 
L 139.68 270.153763 
" style="fill:none;stroke:#4169e1;stroke-width:3;"/>
    <path clip-path="url(#p59da31db21)" d="M 148.32 257.87979 
L 148.32 240.944212 
" style="fill:none;stroke:#4169e1;stroke-width:3;"/>
    <path clip-path="url(#p59da31db21)" d="M 156.96 263.239842 
L 156.96 249.412001 
" style="fill:none;stroke:#4169e1;stroke-width:3;"/>
    <path clip-path="url(#p59da31db21)" d="M 165.6 265.770513 
L 165.6 253.795251 
" style="fill:none;stroke:#4169e1;stroke-width:3;"/>
    <path clip-path="url(#p59da31db21)" d="M 174.24 270.153763 
L 174.24 263.239842 
" style="fill:none;stroke:#4169e1;stroke-width:3;"/>
    <path clip-path="url(#p59da31db21)" d="M 182.88 270.153763 
L 182.88 263.239842 
" style="fill:none;stroke:#4169e1;stroke-width:3;"/>
    <path clip-path="url(#p59da31db21)" d="M 191.52 268.128722 
L 191.52 258.350962 
" style="fill:none;stroke:#4169e1;stroke-width:3;"/>
    <path clip-path="url(#p59da31db21)" d="M 200.16 270.153763 
L 200.16 270.153763 
" style="fill:none;stroke:#4169e1;stroke-width:3;"/>
    <path clip-path="url(#p59da31db21)" d="M 208.8 270.153763 
L 208.8 270.153763 
" style="fill:none;stroke:#4169e1;stroke-width:3;"/>
    <path clip-path="url(#p59da31db21)" d="M 217.44 270.153763 
L 217.44 270.153763 
" style="fill:none;stroke:#4169e1;stroke-width:3;"/>
    <path clip-path="url(#p59da31db21)" d="M 226.08 270.153763 
L 226.08 270.153763 
" style="fill:none;stroke:#4169e1;stroke-width:3;"/>
    <path clip-path="url(#p59da31db21)" d="M 234.72 268.128722 
L 234.72 258.350962 
" style="fill:none;stroke:#4169e1;stroke-width:3;"/>
    <path clip-path="url(#p59da31db21)" d="M 243.36 270.153763 
L 243.36 270.153763 
" style="fill:none;stroke:#4169e1;stroke-width:3;"/>
    <path clip-path="url(#p59da31db21)" d="M 252 270.153763 
L 252 270.153763 
" style="fill:none;stroke:#4169e1;stroke-width:3;"/>
    <path clip-path="url(#p59da31db21)" d="M 260.64 270.153763 
L 260.64 270.153763 
" style="fill:none;stroke:#4169e1;stroke-width:3;"/>
    <path clip-path="url(#p59da31db21)" d="M 269.28 270.153763 
L 269.28 270.153763 
" style="fill:none;stroke:#4169e1;stroke-width:3;"/>
    <path clip-path="url(#p59da31db21)" d="M 277.92 270.153763 
L 277.92 270.153763 
" style="fill:none;stroke:#4169e1;stroke-width:3;"/>
    <path clip-path="url(#p59da31db21)" d="M 286.56 270.153763 
L 286.56 270.153763 
" style="fill:none;stroke:#4169e1;stroke-width:3;"/>
    <path clip-path="url(#p59da31db21)" d="M 295.2 270.153763 
L 295.2 270.153763 
" style="fill:none;stroke:#4169e1;stroke-width:3;"/>
    <path clip-path="url(#p59da31db21)" d="M 303.84 270.153763 
L 303.84 270.153763 
" style="fill:none;stroke:#4169e1;stroke-width:3;"/>
    <path clip-path="url(#p59da31db21)" d="M 312.48 270.153763 
L 312.48 270.153763 
" style="fill:none;stroke:#4169e1;stroke-width:3;"/>
    <path clip-path="url(#p59da31db21)" d="M 321.12 270.153763 
L 321.12 270.153763 
" style="fill:none;stroke:#4169e1;stroke-width:3;"/>
    <path clip-path="url(#p59da31db21)" d="M 329.76 270.153763 
L 329.76 270.153763 
" style="fill:none;stroke:#4169e1;stroke-width:3;"/>
    <path clip-path="url(#p59da31db21)" d="M 338.4 270.153763 
L 338.4 270.153763 
" style="fill:none;stroke:#4169e1;stroke-width:3;"/>
    <path clip-path="url(#p59da31db21)" d="M 347.04 270.153763 
L 347.04 270.153763 
" style="fill:none;stroke:#4169e1;stroke-width:3;"/>
    <path clip-path="url(#p59da31db21)" d="M 355.68 270.153763 
L 355.68 270.153763 
" style="fill:none;stroke:#4169e1;stroke-width:3;"/>
    <path clip-path="url(#p59da31db21)" d="M 364.32 270.153763 
L 364.32 270.153763 
" style="fill:none;stroke:#4169e1;stroke-width:3;"/>
    <path clip-path="url(#p59da31db21)" d="M 372.96 270.153763 
L 372.96 270.153763 
" style="fill:none;stroke:#4169e1;stroke-width:3;"/>
    <path clip-path="url(#p59da31db21)" d="M 381.6 270.153763 
L 381.6 270.153763 
" style="fill:none;stroke:#4169e1;stroke-width:3;"/>
    <path clip-path="url(#p59da31db21)" d="M 390.24 270.153763 
L 390.24 270.153763 
" style="fill:none;stroke:#4169e1;stroke-width:3;"/>
    <path clip-path="url(#p59da31db21)" d="M 398.88 270.153763 
L 398.88 270.153763 
" style="fill:none;stroke:#4169e1;stroke-width:3;"/>
    <path clip-path="url(#p59da31db21)" d="M 407.52 270.153763 
L 407.52 270.153763 
" style="fill:none;stroke:#4169e1;stroke-width:3;"/>
    <path clip-path="url(#p59da31db21)" d="M 416.16 270.153763 
L 416.16 270.153763 
" style="fill:none;stroke:#4169e1;stroke-width:3;"/>
    <path clip-path="url(#p59da31db21)" d="M 424.8 270.153763 
L 424.8 270.153763 
" style="fill:none;stroke:#4169e1;stroke-width:3;"/>
    <path clip-path="url(#p59da31db21)" d="M 433.44 270.153763 
L 433.44 270.153763 
" style="fill:none;stroke:#4169e1;stroke-width:3;"/>
   </g>
   <g id="line2d_10">
    <path clip-path="url(#p59da31db21)" d="M 96.48 245.955041 
L 105.12 270.153763 
L 113.76 59.279186 
L 122.4 270.153763 
L 131.04 211.385438 
L 139.68 270.153763 
L 148.32 249.412001 
L 156.96 256.325922 
L 165.6 259.782882 
L 174.24 266.696802 
L 182.88 266.696802 
L 191.52 263.239842 
L 200.16 270.153763 
L 208.8 270.153763 
L 217.44 270.153763 
L 226.08 270.153763 
L 234.72 263.239842 
L 243.36 270.153763 
L 252 270.153763 
L 260.64 270.153763 
L 269.28 270.153763 
L 277.92 270.153763 
L 286.56 270.153763 
L 295.2 270.153763 
L 303.84 270.153763 
L 312.48 270.153763 
L 321.12 270.153763 
L 329.76 270.153763 
L 338.4 270.153763 
L 347.04 270.153763 
L 355.68 270.153763 
L 364.32 270.153763 
L 372.96 270.153763 
L 381.6 270.153763 
L 390.24 270.153763 
L 398.88 270.153763 
L 407.52 270.153763 
L 416.16 270.153763 
L 424.8 270.153763 
L 433.44 270.153763 
" style="fill:none;stroke:#4169e1;stroke-linecap:round;stroke-width:3;"/>
    <defs>
     <path d="M 0 3.25 
C 0.86191 3.25 1.688635 2.907559 2.298097 2.298097 
C 2.907559 1.688635 3.25 0.86191 3.25 0 
C 3.25 -0.86191 2.907559 -1.688635 2.298097 -2.298097 
C 1.688635 -2.907559 0.86191 -3.25 0 -3.25 
C -0.86191 -3.25 -1.688635 -2.907559 -2.298097 -2.298097 
C -2.907559 -1.688635 -3.25 -0.86191 -3.25 0 
C -3.25 0.86191 -2.907559 1.688635 -2.298097 2.298097 
C -1.688635 2.907559 -0.86191 3.25 0 3.25 
z
" id="mc2f2028574" style="stroke:#4169e1;"/>
    </defs>
    <g clip-path="url(#p59da31db21)">
     <use style="fill:#4169e1;stroke:#4169e1;" x="96.48" xlink:href="#mc2f2028574" y="245.955041"/>
     <use style="fill:#4169e1;stroke:#4169e1;" x="105.12" xlink:href="#mc2f2028574" y="270.153763"/>
     <use style="fill:#4169e1;stroke:#4169e1;" x="113.76" xlink:href="#mc2f2028574" y="59.279186"/>
     <use style="fill:#4169e1;stroke:#4169e1;" x="122.4" xlink:href="#mc2f2028574" y="270.153763"/>
     <use style="fill:#4169e1;stroke:#4169e1;" x="131.04" xlink:href="#mc2f2028574" y="211.385438"/>
     <use style="fill:#4169e1;stroke:#4169e1;" x="139.68" xlink:href="#mc2f2028574" y="270.153763"/>
     <use style="fill:#4169e1;stroke:#4169e1;" x="148.32" xlink:href="#mc2f2028574" y="249.412001"/>
     <use style="fill:#4169e1;stroke:#4169e1;" x="156.96" xlink:href="#mc2f2028574" y="256.325922"/>
     <use style="fill:#4169e1;stroke:#4169e1;" x="165.6" xlink:href="#mc2f2028574" y="259.782882"/>
     <use style="fill:#4169e1;stroke:#4169e1;" x="174.24" xlink:href="#mc2f2028574" y="266.696802"/>
     <use style="fill:#4169e1;stroke:#4169e1;" x="182.88" xlink:href="#mc2f2028574" y="266.696802"/>
     <use style="fill:#4169e1;stroke:#4169e1;" x="191.52" xlink:href="#mc2f2028574" y="263.239842"/>
     <use style="fill:#4169e1;stroke:#4169e1;" x="200.16" xlink:href="#mc2f2028574" y="270.153763"/>
     <use style="fill:#4169e1;stroke:#4169e1;" x="208.8" xlink:href="#mc2f2028574" y="270.153763"/>
     <use style="fill:#4169e1;stroke:#4169e1;" x="217.44" xlink:href="#mc2f2028574" y="270.153763"/>
     <use style="fill:#4169e1;stroke:#4169e1;" x="226.08" xlink:href="#mc2f2028574" y="270.153763"/>
     <use style="fill:#4169e1;stroke:#4169e1;" x="234.72" xlink:href="#mc2f2028574" y="263.239842"/>
     <use style="fill:#4169e1;stroke:#4169e1;" x="243.36" xlink:href="#mc2f2028574" y="270.153763"/>
     <use style="fill:#4169e1;stroke:#4169e1;" x="252" xlink:href="#mc2f2028574" y="270.153763"/>
     <use style="fill:#4169e1;stroke:#4169e1;" x="260.64" xlink:href="#mc2f2028574" y="270.153763"/>
     <use style="fill:#4169e1;stroke:#4169e1;" x="269.28" xlink:href="#mc2f2028574" y="270.153763"/>
     <use style="fill:#4169e1;stroke:#4169e1;" x="277.92" xlink:href="#mc2f2028574" y="270.153763"/>
     <use style="fill:#4169e1;stroke:#4169e1;" x="286.56" xlink:href="#mc2f2028574" y="270.153763"/>
     <use style="fill:#4169e1;stroke:#4169e1;" x="295.2" xlink:href="#mc2f2028574" y="270.153763"/>
     <use style="fill:#4169e1;stroke:#4169e1;" x="303.84" xlink:href="#mc2f2028574" y="270.153763"/>
     <use style="fill:#4169e1;stroke:#4169e1;" x="312.48" xlink:href="#mc2f2028574" y="270.153763"/>
     <use style="fill:#4169e1;stroke:#4169e1;" x="321.12" xlink:href="#mc2f2028574" y="270.153763"/>
     <use style="fill:#4169e1;stroke:#4169e1;" x="329.76" xlink:href="#mc2f2028574" y="270.153763"/>
     <use style="fill:#4169e1;stroke:#4169e1;" x="338.4" xlink:href="#mc2f2028574" y="270.153763"/>
     <use style="fill:#4169e1;stroke:#4169e1;" x="347.04" xlink:href="#mc2f2028574" y="270.153763"/>
     <use style="fill:#4169e1;stroke:#4169e1;" x="355.68" xlink:href="#mc2f2028574" y="270.153763"/>
     <use style="fill:#4169e1;stroke:#4169e1;" x="364.32" xlink:href="#mc2f2028574" y="270.153763"/>
     <use style="fill:#4169e1;stroke:#4169e1;" x="372.96" xlink:href="#mc2f2028574" y="270.153763"/>
     <use style="fill:#4169e1;stroke:#4169e1;" x="381.6" xlink:href="#mc2f2028574" y="270.153763"/>
     <use style="fill:#4169e1;stroke:#4169e1;" x="390.24" xlink:href="#mc2f2028574" y="270.153763"/>
     <use style="fill:#4169e1;stroke:#4169e1;" x="398.88" xlink:href="#mc2f2028574" y="270.153763"/>
     <use style="fill:#4169e1;stroke:#4169e1;" x="407.52" xlink:href="#mc2f2028574" y="270.153763"/>
     <use style="fill:#4169e1;stroke:#4169e1;" x="416.16" xlink:href="#mc2f2028574" y="270.153763"/>
     <use style="fill:#4169e1;stroke:#4169e1;" x="424.8" xlink:href="#mc2f2028574" y="270.153763"/>
     <use style="fill:#4169e1;stroke:#4169e1;" x="433.44" xlink:href="#mc2f2028574" y="270.153763"/>
    </g>
   </g>
   <g id="patch_3">
    <path d="M 92.16 276.48 
L 92.16 27.648 
" style="fill:none;stroke:#262626;stroke-linecap:square;stroke-linejoin:miter;stroke-width:0.8;"/>
   </g>
   <g id="patch_4">
    <path d="M 92.16 276.48 
L 437.76 276.48 
" style="fill:none;stroke:#262626;stroke-linecap:square;stroke-linejoin:miter;stroke-width:0.8;"/>
   </g>
   <g id="text_12">
    <text style="fill:#262626;font-family:DejaVu Sans;font-size:20px;font-style:normal;font-weight:bold;text-anchor:middle;" transform="rotate(-0, 264.96, 21.648)" x="264.96" y="21.648">IGHJ4*01</text>
   </g>
  </g>
 </g>
 <defs>
  <clipPath id="p59da31db21">
   <rect height="248.832" width="345.6" x="92.16" y="27.648"/>
  </clipPath>
 </defs>
</svg>
