<?xml version="1.0" encoding="utf-8" standalone="no"?>
<!DOCTYPE svg PUBLIC "-//W3C//DTD SVG 1.1//EN"
  "http://www.w3.org/Graphics/SVG/1.1/DTD/svg11.dtd">
<!-- Created with matplotlib (http://matplotlib.org/) -->
<svg height="345.6pt" version="1.1" viewBox="0 0 460.8 345.6" width="460.8pt" xmlns="http://www.w3.org/2000/svg" xmlns:xlink="http://www.w3.org/1999/xlink">
 <defs>
  <style type="text/css">
*{stroke-linecap:butt;stroke-linejoin:round;}
  </style>
 </defs>
 <g id="figure_1">
  <g id="patch_1">
   <path d="M 0 345.6 
L 460.8 345.6 
L 460.8 0 
L 0 0 
z
" style="fill:#ffffff;"/>
  </g>
  <g id="axes_1">
   <g id="patch_2">
    <path d="M 0 345.6 
L 460.8 345.6 
L 460.8 0 
L 0 0 
z
" style="fill:#ffffff;"/>
   </g>
   <g id="PathCollection_1">
    <defs>
     <path d="M 0 3 
C 0.795609 3 1.55874 2.683901 2.12132 2.12132 
C 2.683901 1.55874 3 0.795609 3 0 
C 3 -0.795609 2.683901 -1.55874 2.12132 -2.12132 
C 1.55874 -2.683901 0.795609 -3 0 -3 
C -0.795609 -3 -1.55874 -2.683901 -2.12132 -2.12132 
C -2.683901 -1.55874 -3 -0.795609 -3 0 
C -3 0.795609 -2.683901 1.55874 -2.12132 2.12132 
C -1.55874 2.683901 -0.795609 3 0 3 
z
" id="m8ab4fdfd94" style="stroke:#08306b;"/>
    </defs>
    <g clip-path="url(#p03cdec706d)">
     <use style="fill:#08306b;stroke:#08306b;" x="419.21546" xlink:href="#m8ab4fdfd94" y="161.773305"/>
    </g>
   </g>
   <g id="PathCollection_2">
    <defs>
     <path d="M 0 3 
C 0.795609 3 1.55874 2.683901 2.12132 2.12132 
C 2.683901 1.55874 3 0.795609 3 0 
C 3 -0.795609 2.683901 -1.55874 2.12132 -2.12132 
C 1.55874 -2.683901 0.795609 -3 0 -3 
C -0.795609 -3 -1.55874 -2.683901 -2.12132 -2.12132 
C -2.683901 -1.55874 -3 -0.795609 -3 0 
C -3 0.795609 -2.683901 1.55874 -2.12132 2.12132 
C -1.55874 2.683901 -0.795609 3 0 3 
z
" id="m25a55503a2" style="stroke:#92c4de;"/>
    </defs>
    <g clip-path="url(#p03cdec706d)">
     <use style="fill:#92c4de;stroke:#92c4de;" x="115.408116" xlink:href="#m25a55503a2" y="192.085097"/>
    </g>
   </g>
   <g id="PathCollection_3">
    <defs>
     <path d="M 0 3 
C 0.795609 3 1.55874 2.683901 2.12132 2.12132 
C 2.683901 1.55874 3 0.795609 3 0 
C 3 -0.795609 2.683901 -1.55874 2.12132 -2.12132 
C 1.55874 -2.683901 0.795609 -3 0 -3 
C -0.795609 -3 -1.55874 -2.683901 -2.12132 -2.12132 
C -2.683901 -1.55874 -3 -0.795609 -3 0 
C -3 0.795609 -2.683901 1.55874 -2.12132 2.12132 
C -1.55874 2.683901 -0.795609 3 0 3 
z
" id="m3b22befcd5" style="stroke:#3d8dc4;"/>
    </defs>
    <g clip-path="url(#p03cdec706d)">
     <use style="fill:#3d8dc4;stroke:#3d8dc4;" x="111.005111" xlink:href="#m3b22befcd5" y="137.523871"/>
    </g>
   </g>
   <g id="PathCollection_4">
    <defs>
     <path d="M 0 3 
C 0.795609 3 1.55874 2.683901 2.12132 2.12132 
C 2.683901 1.55874 3 0.795609 3 0 
C 3 -0.795609 2.683901 -1.55874 2.12132 -2.12132 
C 1.55874 -2.683901 0.795609 -3 0 -3 
C -0.795609 -3 -1.55874 -2.683901 -2.12132 -2.12132 
C -2.683901 -1.55874 -3 -0.795609 -3 0 
C -3 0.795609 -2.683901 1.55874 -2.12132 2.12132 
C -1.55874 2.683901 -0.795609 3 0 3 
z
" id="mf2ef477396" style="stroke:#1e6db2;"/>
    </defs>
    <g clip-path="url(#p03cdec706d)">
     <use style="fill:#1e6db2;stroke:#1e6db2;" x="53.766046" xlink:href="#mf2ef477396" y="219.36571"/>
    </g>
   </g>
   <g id="PathCollection_5">
    <defs>
     <path d="M 0 3 
C 0.795609 3 1.55874 2.683901 2.12132 2.12132 
C 2.683901 1.55874 3 0.795609 3 0 
C 3 -0.795609 2.683901 -1.55874 2.12132 -2.12132 
C 1.55874 -2.683901 0.795609 -3 0 -3 
C -0.795609 -3 -1.55874 -2.683901 -2.12132 -2.12132 
C -2.683901 -1.55874 -3 -0.795609 -3 0 
C -3 0.795609 -2.683901 1.55874 -2.12132 2.12132 
C -1.55874 2.683901 -0.795609 3 0 3 
z
" id="me791d20a87" style="stroke:#084f99;"/>
    </defs>
    <g clip-path="url(#p03cdec706d)">
     <use style="fill:#084f99;stroke:#084f99;" x="22.945011" xlink:href="#me791d20a87" y="16.276701"/>
    </g>
   </g>
   <g id="PathCollection_6">
    <g clip-path="url(#p03cdec706d)">
     <use style="fill:#084f99;stroke:#084f99;" x="379.588415" xlink:href="#me791d20a87" y="164.804484"/>
    </g>
   </g>
   <g id="PathCollection_7">
    <defs>
     <path d="M 0 3 
C 0.795609 3 1.55874 2.683901 2.12132 2.12132 
C 2.683901 1.55874 3 0.795609 3 0 
C 3 -0.795609 2.683901 -1.55874 2.12132 -2.12132 
C 1.55874 -2.683901 0.795609 -3 0 -3 
C -0.795609 -3 -1.55874 -2.683901 -2.12132 -2.12132 
C -2.683901 -1.55874 -3 -0.795609 -3 0 
C -3 0.795609 -2.683901 1.55874 -2.12132 2.12132 
C -1.55874 2.683901 -0.795609 3 0 3 
z
" id="m1f6565781a" style="stroke:#d6e6f4;"/>
    </defs>
    <g clip-path="url(#p03cdec706d)">
     <use style="fill:#d6e6f4;stroke:#d6e6f4;" x="163.84117" xlink:href="#m1f6565781a" y="170.866842"/>
    </g>
   </g>
   <g id="PathCollection_8">
    <g clip-path="url(#p03cdec706d)">
     <use style="fill:#1e6db2;stroke:#1e6db2;" x="335.558365" xlink:href="#mf2ef477396" y="167.835663"/>
    </g>
   </g>
   <g id="PathCollection_9">
    <g clip-path="url(#p03cdec706d)">
     <use style="fill:#084f99;stroke:#084f99;" x="379.588415" xlink:href="#me791d20a87" y="164.804484"/>
    </g>
   </g>
   <g id="PathCollection_10">
    <g clip-path="url(#p03cdec706d)">
     <use style="fill:#08306b;stroke:#08306b;" x="49.363041" xlink:href="#m8ab4fdfd94" y="328.488163"/>
    </g>
   </g>
   <g id="PathCollection_11">
    <g clip-path="url(#p03cdec706d)">
     <use style="fill:#d6e6f4;stroke:#d6e6f4;" x="137.423141" xlink:href="#m1f6565781a" y="152.679767"/>
    </g>
   </g>
   <g id="PathCollection_12">
    <g clip-path="url(#p03cdec706d)">
     <use style="fill:#084f99;stroke:#084f99;" x="379.588415" xlink:href="#me791d20a87" y="164.804484"/>
    </g>
   </g>
   <g id="PathCollection_13">
    <defs>
     <path d="M 0 3 
C 0.795609 3 1.55874 2.683901 2.12132 2.12132 
C 2.683901 1.55874 3 0.795609 3 0 
C 3 -0.795609 2.683901 -1.55874 2.12132 -2.12132 
C 1.55874 -2.683901 0.795609 -3 0 -3 
C -0.795609 -3 -1.55874 -2.683901 -2.12132 -2.12132 
C -2.683901 -1.55874 -3 -0.795609 -3 0 
C -3 0.795609 -2.683901 1.55874 -2.12132 2.12132 
C -1.55874 2.683901 -0.795609 3 0 3 
z
" id="mfd62061098" style="stroke:#63a8d3;"/>
    </defs>
    <g clip-path="url(#p03cdec706d)">
     <use style="fill:#63a8d3;stroke:#63a8d3;" x="97.796096" xlink:href="#mfd62061098" y="101.14972"/>
    </g>
   </g>
   <g id="matplotlib.axis_1">
    <g id="xtick_1">
     <g id="line2d_1">
      <defs>
       <path d="M 0 0 
L 0 3.5 
" id="ma174575a9d" style="stroke:#000000;stroke-width:0.8;"/>
      </defs>
      <g>
       <use style="stroke:#000000;stroke-width:0.8;" x="27.348016" xlink:href="#ma174575a9d" y="345.6"/>
      </g>
     </g>
     <g id="text_1">
      <text style="font-family:DejaVu Sans;font-size:10px;font-style:normal;font-weight:normal;text-anchor:middle;" transform="rotate(-0, 27.348016, 360.198437)" x="27.348016" y="360.198437">−0.04</text>
     </g>
    </g>
    <g id="xtick_2">
     <g id="line2d_2">
      <g>
       <use style="stroke:#000000;stroke-width:0.8;" x="115.408116" xlink:href="#ma174575a9d" y="345.6"/>
      </g>
     </g>
     <g id="text_2">
      <text style="font-family:DejaVu Sans;font-size:10px;font-style:normal;font-weight:normal;text-anchor:middle;" transform="rotate(-0, 115.408116, 360.198437)" x="115.408116" y="360.198437">−0.02</text>
     </g>
    </g>
    <g id="xtick_3">
     <g id="line2d_3">
      <g>
       <use style="stroke:#000000;stroke-width:0.8;" x="203.468215" xlink:href="#ma174575a9d" y="345.6"/>
      </g>
     </g>
     <g id="text_3">
      <text style="font-family:DejaVu Sans;font-size:10px;font-style:normal;font-weight:normal;text-anchor:middle;" transform="rotate(-0, 203.468215, 360.198437)" x="203.468215" y="360.198437">0.00</text>
     </g>
    </g>
    <g id="xtick_4">
     <g id="line2d_4">
      <g>
       <use style="stroke:#000000;stroke-width:0.8;" x="291.528315" xlink:href="#ma174575a9d" y="345.6"/>
      </g>
     </g>
     <g id="text_4">
      <text style="font-family:DejaVu Sans;font-size:10px;font-style:normal;font-weight:normal;text-anchor:middle;" transform="rotate(-0, 291.528315, 360.198437)" x="291.528315" y="360.198437">0.02</text>
     </g>
    </g>
    <g id="xtick_5">
     <g id="line2d_5">
      <g>
       <use style="stroke:#000000;stroke-width:0.8;" x="379.588415" xlink:href="#ma174575a9d" y="345.6"/>
      </g>
     </g>
     <g id="text_5">
      <text style="font-family:DejaVu Sans;font-size:10px;font-style:normal;font-weight:normal;text-anchor:middle;" transform="rotate(-0, 379.588415, 360.198437)" x="379.588415" y="360.198437">0.04</text>
     </g>
    </g>
   </g>
   <g id="matplotlib.axis_2">
    <g id="ytick_1">
     <g id="line2d_6">
      <defs>
       <path d="M 0 0 
L -3.5 0 
" id="m5febe0c183" style="stroke:#000000;stroke-width:0.8;"/>
      </defs>
      <g>
       <use style="stroke:#000000;stroke-width:0.8;" x="0" xlink:href="#m5febe0c183" y="286.051653"/>
      </g>
     </g>
     <g id="text_6">
      <text style="font-family:DejaVu Sans;font-size:10px;font-style:normal;font-weight:normal;text-anchor:end;" transform="rotate(-0, -7, 289.850872)" x="-7" y="289.850872">−0.04</text>
     </g>
    </g>
    <g id="ytick_2">
     <g id="line2d_7">
      <g>
       <use style="stroke:#000000;stroke-width:0.8;" x="0" xlink:href="#m5febe0c183" y="225.428069"/>
      </g>
     </g>
     <g id="text_7">
      <text style="font-family:DejaVu Sans;font-size:10px;font-style:normal;font-weight:normal;text-anchor:end;" transform="rotate(-0, -7, 229.227287)" x="-7" y="229.227287">−0.02</text>
     </g>
    </g>
    <g id="ytick_3">
     <g id="line2d_8">
      <g>
       <use style="stroke:#000000;stroke-width:0.8;" x="0" xlink:href="#m5febe0c183" y="164.804484"/>
      </g>
     </g>
     <g id="text_8">
      <text style="font-family:DejaVu Sans;font-size:10px;font-style:normal;font-weight:normal;text-anchor:end;" transform="rotate(-0, -7, 168.603703)" x="-7" y="168.603703">0.00</text>
     </g>
    </g>
    <g id="ytick_4">
     <g id="line2d_9">
      <g>
       <use style="stroke:#000000;stroke-width:0.8;" x="0" xlink:href="#m5febe0c183" y="104.180899"/>
      </g>
     </g>
     <g id="text_9">
      <text style="font-family:DejaVu Sans;font-size:10px;font-style:normal;font-weight:normal;text-anchor:end;" transform="rotate(-0, -7, 107.980118)" x="-7" y="107.980118">0.02</text>
     </g>
    </g>
    <g id="ytick_5">
     <g id="line2d_10">
      <g>
       <use style="stroke:#000000;stroke-width:0.8;" x="0" xlink:href="#m5febe0c183" y="43.557314"/>
      </g>
     </g>
     <g id="text_10">
      <text style="font-family:DejaVu Sans;font-size:10px;font-style:normal;font-weight:normal;text-anchor:end;" transform="rotate(-0, -7, 47.356533)" x="-7" y="47.356533">0.04</text>
     </g>
    </g>
   </g>
   <g id="line2d_11">
    <path clip-path="url(#p03cdec706d)" d="M 137.423141 152.679767 
" style="fill:none;stroke:#ff0000;stroke-linecap:square;stroke-width:1.5;"/>
    <defs>
     <path d="M 0 2.5 
C 0.663008 2.5 1.29895 2.236584 1.767767 1.767767 
C 2.236584 1.29895 2.5 0.663008 2.5 0 
C 2.5 -0.663008 2.236584 -1.29895 1.767767 -1.767767 
C 1.29895 -2.236584 0.663008 -2.5 0 -2.5 
C -0.663008 -2.5 -1.29895 -2.236584 -1.767767 -1.767767 
C -2.236584 -1.29895 -2.5 -0.663008 -2.5 0 
C -2.5 0.663008 -2.236584 1.29895 -1.767767 1.767767 
C -1.29895 2.236584 -0.663008 2.5 0 2.5 
z
" id="m9ebbb9d004" style="stroke:#ff0000;"/>
    </defs>
    <g clip-path="url(#p03cdec706d)">
     <use style="fill:#ff0000;stroke:#ff0000;" x="137.423141" xlink:href="#m9ebbb9d004" y="152.679767"/>
    </g>
   </g>
   <g id="line2d_12">
    <path clip-path="url(#p03cdec706d)" d="M 163.84117 170.866842 
" style="fill:none;stroke:#ff0000;stroke-linecap:square;stroke-width:1.5;"/>
    <g clip-path="url(#p03cdec706d)">
     <use style="fill:#ff0000;stroke:#ff0000;" x="163.84117" xlink:href="#m9ebbb9d004" y="170.866842"/>
    </g>
   </g>
   <g id="patch_3">
    <path d="M 0 345.6 
L 0 0 
" style="fill:none;stroke:#000000;stroke-linecap:square;stroke-linejoin:miter;stroke-width:0.8;"/>
   </g>
   <g id="patch_4">
    <path d="M 460.8 345.6 
L 460.8 0 
" style="fill:none;stroke:#000000;stroke-linecap:square;stroke-linejoin:miter;stroke-width:0.8;"/>
   </g>
   <g id="patch_5">
    <path d="M -0 345.6 
L 460.8 345.6 
" style="fill:none;stroke:#000000;stroke-linecap:square;stroke-linejoin:miter;stroke-width:0.8;"/>
   </g>
   <g id="patch_6">
    <path d="M -0 0 
L 460.8 0 
" style="fill:none;stroke:#000000;stroke-linecap:square;stroke-linejoin:miter;stroke-width:0.8;"/>
   </g>
   <g id="text_11">
    <text style="fill:#ff0000;font-family:DejaVu Sans;font-size:8px;font-style:normal;font-weight:normal;text-anchor:start;" transform="rotate(-0, 137.423141, 152.679767)" x="137.423141" y="152.679767">_naive</text>
   </g>
   <g id="text_12">
    <text style="fill:#ff0000;font-family:DejaVu Sans;font-size:8px;font-style:normal;font-weight:normal;text-anchor:start;" transform="rotate(-0, 163.84117, 170.866842)" x="163.84117" y="170.866842">_consensus</text>
   </g>
  </g>
  <g id="text_13">
   <text style="font-family:DejaVu Sans;font-size:15px;font-style:normal;font-weight:normal;text-anchor:start;" transform="rotate(-0, 184.32, 34.56)" x="184.32" y="34.56">MDS comp. (index 12 size 11)</text>
  </g>
 </g>
 <defs>
  <clipPath id="p03cdec706d">
   <rect height="345.6" width="460.8" x="0" y="0"/>
  </clipPath>
 </defs>
</svg>
