<?xml version="1.0" encoding="utf-8" standalone="no"?>
<!DOCTYPE svg PUBLIC "-//W3C//DTD SVG 1.1//EN"
  "http://www.w3.org/Graphics/SVG/1.1/DTD/svg11.dtd">
<!-- Created with matplotlib (http://matplotlib.org/) -->
<svg height="345.6pt" version="1.1" viewBox="0 0 460.8 345.6" width="460.8pt" xmlns="http://www.w3.org/2000/svg" xmlns:xlink="http://www.w3.org/1999/xlink">
 <defs>
  <style type="text/css">
*{stroke-linecap:butt;stroke-linejoin:round;}
  </style>
 </defs>
 <g id="figure_1">
  <g id="patch_1">
   <path d="M 0 345.6 
L 460.8 345.6 
L 460.8 0 
L 0 0 
z
" style="fill:#ffffff;"/>
  </g>
  <g id="axes_1">
   <g id="patch_2">
    <path d="M 0 345.6 
L 460.8 345.6 
L 460.8 0 
L 0 0 
z
" style="fill:#ffffff;"/>
   </g>
   <g id="PathCollection_1">
    <defs>
     <path d="M 0 3 
C 0.795609 3 1.55874 2.683901 2.12132 2.12132 
C 2.683901 1.55874 3 0.795609 3 0 
C 3 -0.795609 2.683901 -1.55874 2.12132 -2.12132 
C 1.55874 -2.683901 0.795609 -3 0 -3 
C -0.795609 -3 -1.55874 -2.683901 -2.12132 -2.12132 
C -2.683901 -1.55874 -3 -0.795609 -3 0 
C -3 0.795609 -2.683901 1.55874 -2.12132 2.12132 
C -1.55874 2.683901 -0.795609 3 0 3 
z
" id="m7725cea22d" style="stroke:#5ca4d0;"/>
    </defs>
    <g clip-path="url(#p418c0913c3)">
     <use style="fill:#5ca4d0;stroke:#5ca4d0;" x="298.052881" xlink:href="#m7725cea22d" y="212.819776"/>
    </g>
   </g>
   <g id="PathCollection_2">
    <defs>
     <path d="M 0 3 
C 0.795609 3 1.55874 2.683901 2.12132 2.12132 
C 2.683901 1.55874 3 0.795609 3 0 
C 3 -0.795609 2.683901 -1.55874 2.12132 -2.12132 
C 1.55874 -2.683901 0.795609 -3 0 -3 
C -0.795609 -3 -1.55874 -2.683901 -2.12132 -2.12132 
C -2.683901 -1.55874 -3 -0.795609 -3 0 
C -3 0.795609 -2.683901 1.55874 -2.12132 2.12132 
C -1.55874 2.683901 -0.795609 3 0 3 
z
" id="mba3746d13c" style="stroke:#1c6bb0;"/>
    </defs>
    <g clip-path="url(#p418c0913c3)">
     <use style="fill:#1c6bb0;stroke:#1c6bb0;" x="62.969829" xlink:href="#mba3746d13c" y="282.8949"/>
    </g>
   </g>
   <g id="PathCollection_3">
    <defs>
     <path d="M 0 3 
C 0.795609 3 1.55874 2.683901 2.12132 2.12132 
C 2.683901 1.55874 3 0.795609 3 0 
C 3 -0.795609 2.683901 -1.55874 2.12132 -2.12132 
C 1.55874 -2.683901 0.795609 -3 0 -3 
C -0.795609 -3 -1.55874 -2.683901 -2.12132 -2.12132 
C -2.683901 -1.55874 -3 -0.795609 -3 0 
C -3 0.795609 -2.683901 1.55874 -2.12132 2.12132 
C -1.55874 2.683901 -0.795609 3 0 3 
z
" id="m29245c06a7" style="stroke:#77b5d9;"/>
    </defs>
    <g clip-path="url(#p418c0913c3)">
     <use style="fill:#77b5d9;stroke:#77b5d9;" x="201.052593" xlink:href="#m29245c06a7" y="173.075676"/>
    </g>
   </g>
   <g id="PathCollection_4">
    <defs>
     <path d="M 0 3 
C 0.795609 3 1.55874 2.683901 2.12132 2.12132 
C 2.683901 1.55874 3 0.795609 3 0 
C 3 -0.795609 2.683901 -1.55874 2.12132 -2.12132 
C 1.55874 -2.683901 0.795609 -3 0 -3 
C -0.795609 -3 -1.55874 -2.683901 -2.12132 -2.12132 
C -2.683901 -1.55874 -3 -0.795609 -3 0 
C -3 0.795609 -2.683901 1.55874 -2.12132 2.12132 
C -1.55874 2.683901 -0.795609 3 0 3 
z
" id="m3e6372ad64" style="stroke:#0d57a1;"/>
    </defs>
    <g clip-path="url(#p418c0913c3)">
     <use style="fill:#0d57a1;stroke:#0d57a1;" x="291.205802" xlink:href="#m3e6372ad64" y="189.810034"/>
    </g>
   </g>
   <g id="PathCollection_5">
    <defs>
     <path d="M 0 3 
C 0.795609 3 1.55874 2.683901 2.12132 2.12132 
C 2.683901 1.55874 3 0.795609 3 0 
C 3 -0.795609 2.683901 -1.55874 2.12132 -2.12132 
C 1.55874 -2.683901 0.795609 -3 0 -3 
C -0.795609 -3 -1.55874 -2.683901 -2.12132 -2.12132 
C -2.683901 -1.55874 -3 -0.795609 -3 0 
C -3 0.795609 -2.683901 1.55874 -2.12132 2.12132 
C -1.55874 2.683901 -0.795609 3 0 3 
z
" id="mfb648a9309" style="stroke:#d6e6f4;"/>
    </defs>
    <g clip-path="url(#p418c0913c3)">
     <use style="fill:#d6e6f4;stroke:#d6e6f4;" x="199.911413" xlink:href="#mfb648a9309" y="175.16747"/>
    </g>
   </g>
   <g id="PathCollection_6">
    <g clip-path="url(#p418c0913c3)">
     <use style="fill:#77b5d9;stroke:#77b5d9;" x="187.358434" xlink:href="#m29245c06a7" y="121.826704"/>
    </g>
   </g>
   <g id="PathCollection_7">
    <g clip-path="url(#p418c0913c3)">
     <use style="fill:#77b5d9;stroke:#77b5d9;" x="194.205513" xlink:href="#m29245c06a7" y="159.47901"/>
    </g>
   </g>
   <g id="PathCollection_8">
    <defs>
     <path d="M 0 3 
C 0.795609 3 1.55874 2.683901 2.12132 2.12132 
C 2.683901 1.55874 3 0.795609 3 0 
C 3 -0.795609 2.683901 -1.55874 2.12132 -2.12132 
C 1.55874 -2.683901 0.795609 -3 0 -3 
C -0.795609 -3 -1.55874 -2.683901 -2.12132 -2.12132 
C -2.683901 -1.55874 -3 -0.795609 -3 0 
C -3 0.795609 -2.683901 1.55874 -2.12132 2.12132 
C -1.55874 2.683901 -0.795609 3 0 3 
z
" id="meb583fb2a0" style="stroke:#97c6df;"/>
    </defs>
    <g clip-path="url(#p418c0913c3)">
     <use style="fill:#97c6df;stroke:#97c6df;" x="188.499614" xlink:href="#meb583fb2a0" y="170.983881"/>
    </g>
   </g>
   <g id="PathCollection_9">
    <g clip-path="url(#p418c0913c3)">
     <use style="fill:#1c6bb0;stroke:#1c6bb0;" x="340.276536" xlink:href="#mba3746d13c" y="211.773879"/>
    </g>
   </g>
   <g id="PathCollection_10">
    <g clip-path="url(#p418c0913c3)">
     <use style="fill:#77b5d9;stroke:#77b5d9;" x="187.358434" xlink:href="#m29245c06a7" y="121.826704"/>
    </g>
   </g>
   <g id="PathCollection_11">
    <g clip-path="url(#p418c0913c3)">
     <use style="fill:#5ca4d0;stroke:#5ca4d0;" x="197.629053" xlink:href="#m7725cea22d" y="142.744652"/>
    </g>
   </g>
   <g id="PathCollection_12">
    <g clip-path="url(#p418c0913c3)">
     <use style="fill:#97c6df;stroke:#97c6df;" x="210.182031" xlink:href="#meb583fb2a0" y="173.075676"/>
    </g>
   </g>
   <g id="PathCollection_13">
    <g clip-path="url(#p418c0913c3)">
     <use style="fill:#97c6df;stroke:#97c6df;" x="194.205513" xlink:href="#meb583fb2a0" y="173.075676"/>
    </g>
   </g>
   <g id="PathCollection_14">
    <defs>
     <path d="M 0 3 
C 0.795609 3 1.55874 2.683901 2.12132 2.12132 
C 2.683901 1.55874 3 0.795609 3 0 
C 3 -0.795609 2.683901 -1.55874 2.12132 -2.12132 
C 1.55874 -2.683901 0.795609 -3 0 -3 
C -0.795609 -3 -1.55874 -2.683901 -2.12132 -2.12132 
C -2.683901 -1.55874 -3 -0.795609 -3 0 
C -3 0.795609 -2.683901 1.55874 -2.12132 2.12132 
C -1.55874 2.683901 -0.795609 3 0 3 
z
" id="md4cf791c1b" style="stroke:#08306b;"/>
    </defs>
    <g clip-path="url(#p418c0913c3)">
     <use style="fill:#08306b;stroke:#08306b;" x="438.418004" xlink:href="#md4cf791c1b" y="243.1508"/>
    </g>
   </g>
   <g id="PathCollection_15">
    <defs>
     <path d="M 0 3 
C 0.795609 3 1.55874 2.683901 2.12132 2.12132 
C 2.683901 1.55874 3 0.795609 3 0 
C 3 -0.795609 2.683901 -1.55874 2.12132 -2.12132 
C 1.55874 -2.683901 0.795609 -3 0 -3 
C -0.795609 -3 -1.55874 -2.683901 -2.12132 -2.12132 
C -2.683901 -1.55874 -3 -0.795609 -3 0 
C -3 0.795609 -2.683901 1.55874 -2.12132 2.12132 
C -1.55874 2.683901 -0.795609 3 0 3 
z
" id="me747996f77" style="stroke:#4292c6;"/>
    </defs>
    <g clip-path="url(#p418c0913c3)">
     <use style="fill:#4292c6;stroke:#4292c6;" x="171.381916" xlink:href="#me747996f77" y="68.485938"/>
    </g>
   </g>
   <g id="PathCollection_16">
    <g clip-path="url(#p418c0913c3)">
     <use style="fill:#77b5d9;stroke:#77b5d9;" x="191.923154" xlink:href="#m29245c06a7" y="129.147986"/>
    </g>
   </g>
   <g id="PathCollection_17">
    <defs>
     <path d="M 0 3 
C 0.795609 3 1.55874 2.683901 2.12132 2.12132 
C 2.683901 1.55874 3 0.795609 3 0 
C 3 -0.795609 2.683901 -1.55874 2.12132 -2.12132 
C 1.55874 -2.683901 0.795609 -3 0 -3 
C -0.795609 -3 -1.55874 -2.683901 -2.12132 -2.12132 
C -2.683901 -1.55874 -3 -0.795609 -3 0 
C -3 0.795609 -2.683901 1.55874 -2.12132 2.12132 
C -1.55874 2.683901 -0.795609 3 0 3 
z
" id="me820c6038c" style="stroke:#2f7fbc;"/>
    </defs>
    <g clip-path="url(#p418c0913c3)">
     <use style="fill:#2f7fbc;stroke:#2f7fbc;" x="187.358434" xlink:href="#me820c6038c" y="92.541577"/>
    </g>
   </g>
   <g id="PathCollection_18">
    <g clip-path="url(#p418c0913c3)">
     <use style="fill:#77b5d9;stroke:#77b5d9;" x="196.487873" xlink:href="#m29245c06a7" y="168.892086"/>
    </g>
   </g>
   <g id="PathCollection_19">
    <g clip-path="url(#p418c0913c3)">
     <use style="fill:#2f7fbc;stroke:#2f7fbc;" x="222.73501" xlink:href="#me820c6038c" y="175.16747"/>
    </g>
   </g>
   <g id="PathCollection_20">
    <g clip-path="url(#p418c0913c3)">
     <use style="fill:#5ca4d0;stroke:#5ca4d0;" x="204.476132" xlink:href="#m7725cea22d" y="146.928241"/>
    </g>
   </g>
   <g id="PathCollection_21">
    <g clip-path="url(#p418c0913c3)">
     <use style="fill:#2f7fbc;stroke:#2f7fbc;" x="187.358434" xlink:href="#me820c6038c" y="167.846189"/>
    </g>
   </g>
   <g id="PathCollection_22">
    <defs>
     <path d="M 0 3 
C 0.795609 3 1.55874 2.683901 2.12132 2.12132 
C 2.683901 1.55874 3 0.795609 3 0 
C 3 -0.795609 2.683901 -1.55874 2.12132 -2.12132 
C 1.55874 -2.683901 0.795609 -3 0 -3 
C -0.795609 -3 -1.55874 -2.683901 -2.12132 -2.12132 
C -2.683901 -1.55874 -3 -0.795609 -3 0 
C -3 0.795609 -2.683901 1.55874 -2.12132 2.12132 
C -1.55874 2.683901 -0.795609 3 0 3 
z
" id="m3a4fbcfc06" style="stroke:#084488;"/>
    </defs>
    <g clip-path="url(#p418c0913c3)">
     <use style="fill:#084488;stroke:#084488;" x="53.84039" xlink:href="#m3a4fbcfc06" y="288.124387"/>
    </g>
   </g>
   <g id="PathCollection_23">
    <g clip-path="url(#p418c0913c3)">
     <use style="fill:#5ca4d0;stroke:#5ca4d0;" x="299.194061" xlink:href="#m7725cea22d" y="207.590289"/>
    </g>
   </g>
   <g id="PathCollection_24">
    <g clip-path="url(#p418c0913c3)">
     <use style="fill:#0d57a1;stroke:#0d57a1;" x="159.970117" xlink:href="#m3e6372ad64" y="17.236966"/>
    </g>
   </g>
   <g id="PathCollection_25">
    <g clip-path="url(#p418c0913c3)">
     <use style="fill:#1c6bb0;stroke:#1c6bb0;" x="179.370175" xlink:href="#mba3746d13c" y="50.705682"/>
    </g>
   </g>
   <g id="PathCollection_26">
    <g clip-path="url(#p418c0913c3)">
     <use style="fill:#5ca4d0;stroke:#5ca4d0;" x="214.746751" xlink:href="#m7725cea22d" y="201.314905"/>
    </g>
   </g>
   <g id="PathCollection_27">
    <g clip-path="url(#p418c0913c3)">
     <use style="fill:#77b5d9;stroke:#77b5d9;" x="201.052593" xlink:href="#m29245c06a7" y="170.983881"/>
    </g>
   </g>
   <g id="PathCollection_28">
    <g clip-path="url(#p418c0913c3)">
     <use style="fill:#2f7fbc;stroke:#2f7fbc;" x="196.487873" xlink:href="#me820c6038c" y="91.49568"/>
    </g>
   </g>
   <g id="PathCollection_29">
    <g clip-path="url(#p418c0913c3)">
     <use style="fill:#4292c6;stroke:#4292c6;" x="183.934895" xlink:href="#me747996f77" y="96.725167"/>
    </g>
   </g>
   <g id="PathCollection_30">
    <g clip-path="url(#p418c0913c3)">
     <use style="fill:#2f7fbc;stroke:#2f7fbc;" x="193.064333" xlink:href="#me820c6038c" y="89.403885"/>
    </g>
   </g>
   <g id="PathCollection_31">
    <g clip-path="url(#p418c0913c3)">
     <use style="fill:#0d57a1;stroke:#0d57a1;" x="37.863872" xlink:href="#m3e6372ad64" y="307.996437"/>
    </g>
   </g>
   <g id="PathCollection_32">
    <g clip-path="url(#p418c0913c3)">
     <use style="fill:#4292c6;stroke:#4292c6;" x="190.781974" xlink:href="#me747996f77" y="103.000551"/>
    </g>
   </g>
   <g id="PathCollection_33">
    <g clip-path="url(#p418c0913c3)">
     <use style="fill:#4292c6;stroke:#4292c6;" x="202.193772" xlink:href="#me747996f77" y="157.387215"/>
    </g>
   </g>
   <g id="PathCollection_34">
    <g clip-path="url(#p418c0913c3)">
     <use style="fill:#77b5d9;stroke:#77b5d9;" x="213.605571" xlink:href="#m29245c06a7" y="159.47901"/>
    </g>
   </g>
   <g id="PathCollection_35">
    <g clip-path="url(#p418c0913c3)">
     <use style="fill:#1c6bb0;stroke:#1c6bb0;" x="359.676594" xlink:href="#mba3746d13c" y="224.324647"/>
    </g>
   </g>
   <g id="PathCollection_36">
    <g clip-path="url(#p418c0913c3)">
     <use style="fill:#5ca4d0;stroke:#5ca4d0;" x="215.887931" xlink:href="#m7725cea22d" y="196.085418"/>
    </g>
   </g>
   <g id="PathCollection_37">
    <g clip-path="url(#p418c0913c3)">
     <use style="fill:#77b5d9;stroke:#77b5d9;" x="198.770233" xlink:href="#m29245c06a7" y="166.800291"/>
    </g>
   </g>
   <g id="PathCollection_38">
    <g clip-path="url(#p418c0913c3)">
     <use style="fill:#4292c6;stroke:#4292c6;" x="182.793715" xlink:href="#me747996f77" y="91.49568"/>
    </g>
   </g>
   <g id="PathCollection_39">
    <g clip-path="url(#p418c0913c3)">
     <use style="fill:#2f7fbc;stroke:#2f7fbc;" x="223.87619" xlink:href="#me820c6038c" y="192.947726"/>
    </g>
   </g>
   <g id="PathCollection_40">
    <g clip-path="url(#p418c0913c3)">
     <use style="fill:#2f7fbc;stroke:#2f7fbc;" x="333.429457" xlink:href="#me820c6038c" y="206.544392"/>
    </g>
   </g>
   <g id="PathCollection_41">
    <g clip-path="url(#p418c0913c3)">
     <use style="fill:#5ca4d0;stroke:#5ca4d0;" x="183.934895" xlink:href="#m7725cea22d" y="106.138243"/>
    </g>
   </g>
   <g id="PathCollection_42">
    <g clip-path="url(#p418c0913c3)">
     <use style="fill:#2f7fbc;stroke:#2f7fbc;" x="246.699787" xlink:href="#me820c6038c" y="175.16747"/>
    </g>
   </g>
   <g id="PathCollection_43">
    <g clip-path="url(#p418c0913c3)">
     <use style="fill:#2f7fbc;stroke:#2f7fbc;" x="182.793715" xlink:href="#me820c6038c" y="62.210554"/>
    </g>
   </g>
   <g id="PathCollection_44">
    <g clip-path="url(#p418c0913c3)">
     <use style="fill:#5ca4d0;stroke:#5ca4d0;" x="181.652535" xlink:href="#m7725cea22d" y="114.505422"/>
    </g>
   </g>
   <g id="PathCollection_45">
    <g clip-path="url(#p418c0913c3)">
     <use style="fill:#4292c6;stroke:#4292c6;" x="213.605571" xlink:href="#me747996f77" y="152.157728"/>
    </g>
   </g>
   <g id="PathCollection_46">
    <g clip-path="url(#p418c0913c3)">
     <use style="fill:#1c6bb0;stroke:#1c6bb0;" x="206.758492" xlink:href="#mba3746d13c" y="150.065933"/>
    </g>
   </g>
   <g id="PathCollection_47">
    <g clip-path="url(#p418c0913c3)">
     <use style="fill:#d6e6f4;stroke:#d6e6f4;" x="202.193772" xlink:href="#mfb648a9309" y="170.983881"/>
    </g>
   </g>
   <g id="PathCollection_48">
    <g clip-path="url(#p418c0913c3)">
     <use style="fill:#5ca4d0;stroke:#5ca4d0;" x="219.31147" xlink:href="#m7725cea22d" y="197.131315"/>
    </g>
   </g>
   <g id="PathCollection_49">
    <g clip-path="url(#p418c0913c3)">
     <use style="fill:#4292c6;stroke:#4292c6;" x="196.487873" xlink:href="#me747996f77" y="163.662599"/>
    </g>
   </g>
   <g id="PathCollection_50">
    <g clip-path="url(#p418c0913c3)">
     <use style="fill:#77b5d9;stroke:#77b5d9;" x="196.487873" xlink:href="#m29245c06a7" y="167.846189"/>
    </g>
   </g>
   <g id="PathCollection_51">
    <g clip-path="url(#p418c0913c3)">
     <use style="fill:#4292c6;stroke:#4292c6;" x="222.73501" xlink:href="#me747996f77" y="153.203625"/>
    </g>
   </g>
   <g id="PathCollection_52">
    <g clip-path="url(#p418c0913c3)">
     <use style="fill:#1c6bb0;stroke:#1c6bb0;" x="349.405975" xlink:href="#mba3746d13c" y="219.09516"/>
    </g>
   </g>
   <g id="PathCollection_53">
    <g clip-path="url(#p418c0913c3)">
     <use style="fill:#4292c6;stroke:#4292c6;" x="180.511355" xlink:href="#me747996f77" y="103.000551"/>
    </g>
   </g>
   <g id="PathCollection_54">
    <g clip-path="url(#p418c0913c3)">
     <use style="fill:#084488;stroke:#084488;" x="23.028534" xlink:href="#m3a4fbcfc06" y="327.868488"/>
    </g>
   </g>
   <g id="PathCollection_55">
    <g clip-path="url(#p418c0913c3)">
     <use style="fill:#1c6bb0;stroke:#1c6bb0;" x="73.240448" xlink:href="#mba3746d13c" y="242.104903"/>
    </g>
   </g>
   <g id="PathCollection_56">
    <g clip-path="url(#p418c0913c3)">
     <use style="fill:#1c6bb0;stroke:#1c6bb0;" x="162.252477" xlink:href="#mba3746d13c" y="37.109016"/>
    </g>
   </g>
   <g id="PathCollection_57">
    <g clip-path="url(#p418c0913c3)">
     <use style="fill:#5ca4d0;stroke:#5ca4d0;" x="307.18232" xlink:href="#m7725cea22d" y="210.727981"/>
    </g>
   </g>
   <g id="PathCollection_58">
    <g clip-path="url(#p418c0913c3)">
     <use style="fill:#5ca4d0;stroke:#5ca4d0;" x="196.487873" xlink:href="#m7725cea22d" y="168.892086"/>
    </g>
   </g>
   <g id="PathCollection_59">
    <g clip-path="url(#p418c0913c3)">
     <use style="fill:#5ca4d0;stroke:#5ca4d0;" x="251.264507" xlink:href="#m7725cea22d" y="183.534649"/>
    </g>
   </g>
   <g id="PathCollection_60">
    <g clip-path="url(#p418c0913c3)">
     <use style="fill:#5ca4d0;stroke:#5ca4d0;" x="218.170291" xlink:href="#m7725cea22d" y="193.993623"/>
    </g>
   </g>
   <g id="matplotlib.axis_1">
    <g id="xtick_1">
     <g id="line2d_1">
      <defs>
       <path d="M 0 0 
L 0 3.5 
" id="m1f605f5b31" style="stroke:#000000;stroke-width:0.8;"/>
      </defs>
      <g>
       <use style="stroke:#000000;stroke-width:0.8;" x="35.581512" xlink:href="#m1f605f5b31" y="345.6"/>
      </g>
     </g>
     <g id="text_1">
      <text style="font-family:DejaVu Sans;font-size:10px;font-style:normal;font-weight:normal;text-anchor:middle;" transform="rotate(-0, 35.581512, 360.198437)" x="35.581512" y="360.198437">−0.15</text>
     </g>
    </g>
    <g id="xtick_2">
     <g id="line2d_2">
      <g>
       <use style="stroke:#000000;stroke-width:0.8;" x="92.640505" xlink:href="#m1f605f5b31" y="345.6"/>
      </g>
     </g>
     <g id="text_2">
      <text style="font-family:DejaVu Sans;font-size:10px;font-style:normal;font-weight:normal;text-anchor:middle;" transform="rotate(-0, 92.640505, 360.198437)" x="92.640505" y="360.198437">−0.10</text>
     </g>
    </g>
    <g id="xtick_3">
     <g id="line2d_3">
      <g>
       <use style="stroke:#000000;stroke-width:0.8;" x="149.699499" xlink:href="#m1f605f5b31" y="345.6"/>
      </g>
     </g>
     <g id="text_3">
      <text style="font-family:DejaVu Sans;font-size:10px;font-style:normal;font-weight:normal;text-anchor:middle;" transform="rotate(-0, 149.699499, 360.198437)" x="149.699499" y="360.198437">−0.05</text>
     </g>
    </g>
    <g id="xtick_4">
     <g id="line2d_4">
      <g>
       <use style="stroke:#000000;stroke-width:0.8;" x="206.758492" xlink:href="#m1f605f5b31" y="345.6"/>
      </g>
     </g>
     <g id="text_4">
      <text style="font-family:DejaVu Sans;font-size:10px;font-style:normal;font-weight:normal;text-anchor:middle;" transform="rotate(-0, 206.758492, 360.198437)" x="206.758492" y="360.198437">0.00</text>
     </g>
    </g>
    <g id="xtick_5">
     <g id="line2d_5">
      <g>
       <use style="stroke:#000000;stroke-width:0.8;" x="263.817485" xlink:href="#m1f605f5b31" y="345.6"/>
      </g>
     </g>
     <g id="text_5">
      <text style="font-family:DejaVu Sans;font-size:10px;font-style:normal;font-weight:normal;text-anchor:middle;" transform="rotate(-0, 263.817485, 360.198437)" x="263.817485" y="360.198437">0.05</text>
     </g>
    </g>
    <g id="xtick_6">
     <g id="line2d_6">
      <g>
       <use style="stroke:#000000;stroke-width:0.8;" x="320.876478" xlink:href="#m1f605f5b31" y="345.6"/>
      </g>
     </g>
     <g id="text_6">
      <text style="font-family:DejaVu Sans;font-size:10px;font-style:normal;font-weight:normal;text-anchor:middle;" transform="rotate(-0, 320.876478, 360.198437)" x="320.876478" y="360.198437">0.10</text>
     </g>
    </g>
    <g id="xtick_7">
     <g id="line2d_7">
      <g>
       <use style="stroke:#000000;stroke-width:0.8;" x="377.935472" xlink:href="#m1f605f5b31" y="345.6"/>
      </g>
     </g>
     <g id="text_7">
      <text style="font-family:DejaVu Sans;font-size:10px;font-style:normal;font-weight:normal;text-anchor:middle;" transform="rotate(-0, 377.935472, 360.198437)" x="377.935472" y="360.198437">0.15</text>
     </g>
    </g>
    <g id="xtick_8">
     <g id="line2d_8">
      <g>
       <use style="stroke:#000000;stroke-width:0.8;" x="434.994465" xlink:href="#m1f605f5b31" y="345.6"/>
      </g>
     </g>
     <g id="text_8">
      <text style="font-family:DejaVu Sans;font-size:10px;font-style:normal;font-weight:normal;text-anchor:middle;" transform="rotate(-0, 434.994465, 360.198437)" x="434.994465" y="360.198437">0.20</text>
     </g>
    </g>
   </g>
   <g id="matplotlib.axis_2">
    <g id="ytick_1">
     <g id="line2d_9">
      <defs>
       <path d="M 0 0 
L -3.5 0 
" id="m618319a4c0" style="stroke:#000000;stroke-width:0.8;"/>
      </defs>
      <g>
       <use style="stroke:#000000;stroke-width:0.8;" x="0" xlink:href="#m618319a4c0" y="320.547206"/>
      </g>
     </g>
     <g id="text_9">
      <text style="font-family:DejaVu Sans;font-size:10px;font-style:normal;font-weight:normal;text-anchor:end;" transform="rotate(-0, -7, 324.346425)" x="-7" y="324.346425">−0.15</text>
     </g>
    </g>
    <g id="ytick_2">
     <g id="line2d_10">
      <g>
       <use style="stroke:#000000;stroke-width:0.8;" x="0" xlink:href="#m618319a4c0" y="268.252337"/>
      </g>
     </g>
     <g id="text_10">
      <text style="font-family:DejaVu Sans;font-size:10px;font-style:normal;font-weight:normal;text-anchor:end;" transform="rotate(-0, -7, 272.051556)" x="-7" y="272.051556">−0.10</text>
     </g>
    </g>
    <g id="ytick_3">
     <g id="line2d_11">
      <g>
       <use style="stroke:#000000;stroke-width:0.8;" x="0" xlink:href="#m618319a4c0" y="215.957468"/>
      </g>
     </g>
     <g id="text_11">
      <text style="font-family:DejaVu Sans;font-size:10px;font-style:normal;font-weight:normal;text-anchor:end;" transform="rotate(-0, -7, 219.756687)" x="-7" y="219.756687">−0.05</text>
     </g>
    </g>
    <g id="ytick_4">
     <g id="line2d_12">
      <g>
       <use style="stroke:#000000;stroke-width:0.8;" x="0" xlink:href="#m618319a4c0" y="163.662599"/>
      </g>
     </g>
     <g id="text_12">
      <text style="font-family:DejaVu Sans;font-size:10px;font-style:normal;font-weight:normal;text-anchor:end;" transform="rotate(-0, -7, 167.461818)" x="-7" y="167.461818">0.00</text>
     </g>
    </g>
    <g id="ytick_5">
     <g id="line2d_13">
      <g>
       <use style="stroke:#000000;stroke-width:0.8;" x="0" xlink:href="#m618319a4c0" y="111.36773"/>
      </g>
     </g>
     <g id="text_13">
      <text style="font-family:DejaVu Sans;font-size:10px;font-style:normal;font-weight:normal;text-anchor:end;" transform="rotate(-0, -7, 115.166949)" x="-7" y="115.166949">0.05</text>
     </g>
    </g>
    <g id="ytick_6">
     <g id="line2d_14">
      <g>
       <use style="stroke:#000000;stroke-width:0.8;" x="0" xlink:href="#m618319a4c0" y="59.072861"/>
      </g>
     </g>
     <g id="text_14">
      <text style="font-family:DejaVu Sans;font-size:10px;font-style:normal;font-weight:normal;text-anchor:end;" transform="rotate(-0, -7, 62.87208)" x="-7" y="62.87208">0.10</text>
     </g>
    </g>
    <g id="ytick_7">
     <g id="line2d_15">
      <g>
       <use style="stroke:#000000;stroke-width:0.8;" x="0" xlink:href="#m618319a4c0" y="6.777992"/>
      </g>
     </g>
     <g id="text_15">
      <text style="font-family:DejaVu Sans;font-size:10px;font-style:normal;font-weight:normal;text-anchor:end;" transform="rotate(-0, -7, 10.577211)" x="-7" y="10.577211">0.15</text>
     </g>
    </g>
   </g>
   <g id="line2d_16">
    <path clip-path="url(#p418c0913c3)" d="M 202.193772 170.983881 
" style="fill:none;stroke:#ff0000;stroke-linecap:square;stroke-width:1.5;"/>
    <defs>
     <path d="M 0 2.5 
C 0.663008 2.5 1.29895 2.236584 1.767767 1.767767 
C 2.236584 1.29895 2.5 0.663008 2.5 0 
C 2.5 -0.663008 2.236584 -1.29895 1.767767 -1.767767 
C 1.29895 -2.236584 0.663008 -2.5 0 -2.5 
C -0.663008 -2.5 -1.29895 -2.236584 -1.767767 -1.767767 
C -2.236584 -1.29895 -2.5 -0.663008 -2.5 0 
C -2.5 0.663008 -2.236584 1.29895 -1.767767 1.767767 
C -1.29895 2.236584 -0.663008 2.5 0 2.5 
z
" id="mc5dc52a1dc" style="stroke:#ff0000;"/>
    </defs>
    <g clip-path="url(#p418c0913c3)">
     <use style="fill:#ff0000;stroke:#ff0000;" x="202.193772" xlink:href="#mc5dc52a1dc" y="170.983881"/>
    </g>
   </g>
   <g id="line2d_17">
    <path clip-path="url(#p418c0913c3)" d="M 199.911413 175.16747 
" style="fill:none;stroke:#ff0000;stroke-linecap:square;stroke-width:1.5;"/>
    <g clip-path="url(#p418c0913c3)">
     <use style="fill:#ff0000;stroke:#ff0000;" x="199.911413" xlink:href="#mc5dc52a1dc" y="175.16747"/>
    </g>
   </g>
   <g id="patch_3">
    <path d="M 0 345.6 
L 0 -0 
" style="fill:none;stroke:#000000;stroke-linecap:square;stroke-linejoin:miter;stroke-width:0.8;"/>
   </g>
   <g id="patch_4">
    <path d="M 460.8 345.6 
L 460.8 -0 
" style="fill:none;stroke:#000000;stroke-linecap:square;stroke-linejoin:miter;stroke-width:0.8;"/>
   </g>
   <g id="patch_5">
    <path d="M 0 345.6 
L 460.8 345.6 
" style="fill:none;stroke:#000000;stroke-linecap:square;stroke-linejoin:miter;stroke-width:0.8;"/>
   </g>
   <g id="patch_6">
    <path d="M 0 0 
L 460.8 0 
" style="fill:none;stroke:#000000;stroke-linecap:square;stroke-linejoin:miter;stroke-width:0.8;"/>
   </g>
   <g id="text_16">
    <text style="fill:#ff0000;font-family:DejaVu Sans;font-size:8px;font-style:normal;font-weight:normal;text-anchor:start;" transform="rotate(-0, 202.193772, 170.983881)" x="202.193772" y="170.983881">_naive</text>
   </g>
   <g id="text_17">
    <text style="fill:#ff0000;font-family:DejaVu Sans;font-size:8px;font-style:normal;font-weight:normal;text-anchor:start;" transform="rotate(-0, 199.911413, 175.16747)" x="199.911413" y="175.16747">_consensus</text>
   </g>
  </g>
  <g id="text_18">
   <text style="font-family:DejaVu Sans;font-size:15px;font-style:normal;font-weight:normal;text-anchor:start;" transform="rotate(-0, 184.32, 34.56)" x="184.32" y="34.56">MDS comp. (index 6 size 71)</text>
  </g>
 </g>
 <defs>
  <clipPath id="p418c0913c3">
   <rect height="345.6" width="460.8" x="0" y="0"/>
  </clipPath>
 </defs>
</svg>
