<?xml version="1.0" encoding="utf-8" standalone="no"?>
<!DOCTYPE svg PUBLIC "-//W3C//DTD SVG 1.1//EN"
  "http://www.w3.org/Graphics/SVG/1.1/DTD/svg11.dtd">
<!-- Created with matplotlib (http://matplotlib.org/) -->
<svg height="345.6pt" version="1.1" viewBox="0 0 460.8 345.6" width="460.8pt" xmlns="http://www.w3.org/2000/svg" xmlns:xlink="http://www.w3.org/1999/xlink">
 <defs>
  <style type="text/css">
*{stroke-linecap:butt;stroke-linejoin:round;}
  </style>
 </defs>
 <g id="figure_1">
  <g id="patch_1">
   <path d="M 0 345.6 
L 460.8 345.6 
L 460.8 0 
L 0 0 
z
" style="fill:#ffffff;"/>
  </g>
  <g id="axes_1">
   <g id="patch_2">
    <path d="M 0 345.6 
L 460.8 345.6 
L 460.8 0 
L 0 0 
z
" style="fill:#ffffff;"/>
   </g>
   <g id="PathCollection_1">
    <defs>
     <path d="M 0 3 
C 0.795609 3 1.55874 2.683901 2.12132 2.12132 
C 2.683901 1.55874 3 0.795609 3 0 
C 3 -0.795609 2.683901 -1.55874 2.12132 -2.12132 
C 1.55874 -2.683901 0.795609 -3 0 -3 
C -0.795609 -3 -1.55874 -2.683901 -2.12132 -2.12132 
C -2.683901 -1.55874 -3 -0.795609 -3 0 
C -3 0.795609 -2.683901 1.55874 -2.12132 2.12132 
C -1.55874 2.683901 -0.795609 3 0 3 
z
" id="mc2d1a94782" style="stroke:#2b7bba;"/>
    </defs>
    <g clip-path="url(#p435fb827e1)">
     <use style="fill:#2b7bba;stroke:#2b7bba;" x="360.003317" xlink:href="#mc2d1a94782" y="298.856558"/>
    </g>
   </g>
   <g id="PathCollection_2">
    <defs>
     <path d="M 0 3 
C 0.795609 3 1.55874 2.683901 2.12132 2.12132 
C 2.683901 1.55874 3 0.795609 3 0 
C 3 -0.795609 2.683901 -1.55874 2.12132 -2.12132 
C 1.55874 -2.683901 0.795609 -3 0 -3 
C -0.795609 -3 -1.55874 -2.683901 -2.12132 -2.12132 
C -2.683901 -1.55874 -3 -0.795609 -3 0 
C -3 0.795609 -2.683901 1.55874 -2.12132 2.12132 
C -1.55874 2.683901 -0.795609 3 0 3 
z
" id="m9e3e278b26" style="stroke:#084990;"/>
    </defs>
    <g clip-path="url(#p435fb827e1)">
     <use style="fill:#084990;stroke:#084990;" x="90.527181" xlink:href="#m9e3e278b26" y="223.207634"/>
    </g>
   </g>
   <g id="PathCollection_3">
    <defs>
     <path d="M 0 3 
C 0.795609 3 1.55874 2.683901 2.12132 2.12132 
C 2.683901 1.55874 3 0.795609 3 0 
C 3 -0.795609 2.683901 -1.55874 2.12132 -2.12132 
C 1.55874 -2.683901 0.795609 -3 0 -3 
C -0.795609 -3 -1.55874 -2.683901 -2.12132 -2.12132 
C -2.683901 -1.55874 -3 -0.795609 -3 0 
C -3 0.795609 -2.683901 1.55874 -2.12132 2.12132 
C -1.55874 2.683901 -0.795609 3 0 3 
z
" id="mb946490513" style="stroke:#d6e6f4;"/>
    </defs>
    <g clip-path="url(#p435fb827e1)">
     <use style="fill:#d6e6f4;stroke:#d6e6f4;" x="235.339123" xlink:href="#mb946490513" y="194.255576"/>
    </g>
   </g>
   <g id="PathCollection_4">
    <defs>
     <path d="M 0 3 
C 0.795609 3 1.55874 2.683901 2.12132 2.12132 
C 2.683901 1.55874 3 0.795609 3 0 
C 3 -0.795609 2.683901 -1.55874 2.12132 -2.12132 
C 1.55874 -2.683901 0.795609 -3 0 -3 
C -0.795609 -3 -1.55874 -2.683901 -2.12132 -2.12132 
C -2.683901 -1.55874 -3 -0.795609 -3 0 
C -3 0.795609 -2.683901 1.55874 -2.12132 2.12132 
C -1.55874 2.683901 -0.795609 3 0 3 
z
" id="ma37505e7e0" style="stroke:#1c6ab0;"/>
    </defs>
    <g clip-path="url(#p435fb827e1)">
     <use style="fill:#1c6ab0;stroke:#1c6ab0;" x="60.305558" xlink:href="#ma37505e7e0" y="240.952443"/>
    </g>
   </g>
   <g id="PathCollection_5">
    <defs>
     <path d="M 0 3 
C 0.795609 3 1.55874 2.683901 2.12132 2.12132 
C 2.683901 1.55874 3 0.795609 3 0 
C 3 -0.795609 2.683901 -1.55874 2.12132 -2.12132 
C 1.55874 -2.683901 0.795609 -3 0 -3 
C -0.795609 -3 -1.55874 -2.683901 -2.12132 -2.12132 
C -2.683901 -1.55874 -3 -0.795609 -3 0 
C -3 0.795609 -2.683901 1.55874 -2.12132 2.12132 
C -1.55874 2.683901 -0.795609 3 0 3 
z
" id="m3e7dfeb6da" style="stroke:#1562a9;"/>
    </defs>
    <g clip-path="url(#p435fb827e1)">
     <use style="fill:#1562a9;stroke:#1562a9;" x="85.490244" xlink:href="#m3e7dfeb6da" y="199.8592"/>
    </g>
   </g>
   <g id="PathCollection_6">
    <defs>
     <path d="M 0 3 
C 0.795609 3 1.55874 2.683901 2.12132 2.12132 
C 2.683901 1.55874 3 0.795609 3 0 
C 3 -0.795609 2.683901 -1.55874 2.12132 -2.12132 
C 1.55874 -2.683901 0.795609 -3 0 -3 
C -0.795609 -3 -1.55874 -2.683901 -2.12132 -2.12132 
C -2.683901 -1.55874 -3 -0.795609 -3 0 
C -3 0.795609 -2.683901 1.55874 -2.12132 2.12132 
C -1.55874 2.683901 -0.795609 3 0 3 
z
" id="mb6ba967e7b" style="stroke:#08519c;"/>
    </defs>
    <g clip-path="url(#p435fb827e1)">
     <use style="fill:#08519c;stroke:#08519c;" x="99.341821" xlink:href="#mb6ba967e7b" y="200.793138"/>
    </g>
   </g>
   <g id="PathCollection_7">
    <defs>
     <path d="M 0 3 
C 0.795609 3 1.55874 2.683901 2.12132 2.12132 
C 2.683901 1.55874 3 0.795609 3 0 
C 3 -0.795609 2.683901 -1.55874 2.12132 -2.12132 
C 1.55874 -2.683901 0.795609 -3 0 -3 
C -0.795609 -3 -1.55874 -2.683901 -2.12132 -2.12132 
C -2.683901 -1.55874 -3 -0.795609 -3 0 
C -3 0.795609 -2.683901 1.55874 -2.12132 2.12132 
C -1.55874 2.683901 -0.795609 3 0 3 
z
" id="m3e2df6d62e" style="stroke:#084184;"/>
    </defs>
    <g clip-path="url(#p435fb827e1)">
     <use style="fill:#084184;stroke:#084184;" x="90.527181" xlink:href="#m3e2df6d62e" y="145.690835"/>
    </g>
   </g>
   <g id="PathCollection_8">
    <g clip-path="url(#p435fb827e1)">
     <use style="fill:#d6e6f4;stroke:#d6e6f4;" x="182.451284" xlink:href="#mb946490513" y="202.661012"/>
    </g>
   </g>
   <g id="PathCollection_9">
    <g clip-path="url(#p435fb827e1)">
     <use style="fill:#084990;stroke:#084990;" x="22.52853" xlink:href="#m9e3e278b26" y="267.102689"/>
    </g>
   </g>
   <g id="PathCollection_10">
    <defs>
     <path d="M 0 3 
C 0.795609 3 1.55874 2.683901 2.12132 2.12132 
C 2.683901 1.55874 3 0.795609 3 0 
C 3 -0.795609 2.683901 -1.55874 2.12132 -2.12132 
C 1.55874 -2.683901 0.795609 -3 0 -3 
C -0.795609 -3 -1.55874 -2.683901 -2.12132 -2.12132 
C -2.683901 -1.55874 -3 -0.795609 -3 0 
C -3 0.795609 -2.683901 1.55874 -2.12132 2.12132 
C -1.55874 2.683901 -0.795609 3 0 3 
z
" id="m2490c72188" style="stroke:#08306b;"/>
    </defs>
    <g clip-path="url(#p435fb827e1)">
     <use style="fill:#08306b;stroke:#08306b;" x="438.075843" xlink:href="#m2490c72188" y="16.807482"/>
    </g>
   </g>
   <g id="PathCollection_11">
    <g clip-path="url(#p435fb827e1)">
     <use style="fill:#1c6ab0;stroke:#1c6ab0;" x="367.558723" xlink:href="#ma37505e7e0" y="316.601368"/>
    </g>
   </g>
   <g id="PathCollection_12">
    <g clip-path="url(#p435fb827e1)">
     <use style="fill:#1c6ab0;stroke:#1c6ab0;" x="382.669534" xlink:href="#ma37505e7e0" y="327.808616"/>
    </g>
   </g>
   <g id="matplotlib.axis_1">
    <g id="xtick_1">
     <g id="line2d_1">
      <defs>
       <path d="M 0 0 
L 0 3.5 
" id="mdb1a18c356" style="stroke:#000000;stroke-width:0.8;"/>
      </defs>
      <g>
       <use style="stroke:#000000;stroke-width:0.8;" x="12.454656" xlink:href="#mdb1a18c356" y="345.6"/>
      </g>
     </g>
     <g id="text_1">
      <text style="font-family:DejaVu Sans;font-size:10px;font-style:normal;font-weight:normal;text-anchor:middle;" transform="rotate(-0, 12.454656, 360.198437)" x="12.454656" y="360.198437">−0.15</text>
     </g>
    </g>
    <g id="xtick_2">
     <g id="line2d_2">
      <g>
       <use style="stroke:#000000;stroke-width:0.8;" x="75.41637" xlink:href="#mdb1a18c356" y="345.6"/>
      </g>
     </g>
     <g id="text_2">
      <text style="font-family:DejaVu Sans;font-size:10px;font-style:normal;font-weight:normal;text-anchor:middle;" transform="rotate(-0, 75.41637, 360.198437)" x="75.41637" y="360.198437">−0.10</text>
     </g>
    </g>
    <g id="xtick_3">
     <g id="line2d_3">
      <g>
       <use style="stroke:#000000;stroke-width:0.8;" x="138.378084" xlink:href="#mdb1a18c356" y="345.6"/>
      </g>
     </g>
     <g id="text_3">
      <text style="font-family:DejaVu Sans;font-size:10px;font-style:normal;font-weight:normal;text-anchor:middle;" transform="rotate(-0, 138.378084, 360.198437)" x="138.378084" y="360.198437">−0.05</text>
     </g>
    </g>
    <g id="xtick_4">
     <g id="line2d_4">
      <g>
       <use style="stroke:#000000;stroke-width:0.8;" x="201.339798" xlink:href="#mdb1a18c356" y="345.6"/>
      </g>
     </g>
     <g id="text_4">
      <text style="font-family:DejaVu Sans;font-size:10px;font-style:normal;font-weight:normal;text-anchor:middle;" transform="rotate(-0, 201.339798, 360.198437)" x="201.339798" y="360.198437">0.00</text>
     </g>
    </g>
    <g id="xtick_5">
     <g id="line2d_5">
      <g>
       <use style="stroke:#000000;stroke-width:0.8;" x="264.301512" xlink:href="#mdb1a18c356" y="345.6"/>
      </g>
     </g>
     <g id="text_5">
      <text style="font-family:DejaVu Sans;font-size:10px;font-style:normal;font-weight:normal;text-anchor:middle;" transform="rotate(-0, 264.301512, 360.198437)" x="264.301512" y="360.198437">0.05</text>
     </g>
    </g>
    <g id="xtick_6">
     <g id="line2d_6">
      <g>
       <use style="stroke:#000000;stroke-width:0.8;" x="327.263226" xlink:href="#mdb1a18c356" y="345.6"/>
      </g>
     </g>
     <g id="text_6">
      <text style="font-family:DejaVu Sans;font-size:10px;font-style:normal;font-weight:normal;text-anchor:middle;" transform="rotate(-0, 327.263226, 360.198437)" x="327.263226" y="360.198437">0.10</text>
     </g>
    </g>
    <g id="xtick_7">
     <g id="line2d_7">
      <g>
       <use style="stroke:#000000;stroke-width:0.8;" x="390.22494" xlink:href="#mdb1a18c356" y="345.6"/>
      </g>
     </g>
     <g id="text_7">
      <text style="font-family:DejaVu Sans;font-size:10px;font-style:normal;font-weight:normal;text-anchor:middle;" transform="rotate(-0, 390.22494, 360.198437)" x="390.22494" y="360.198437">0.15</text>
     </g>
    </g>
    <g id="xtick_8">
     <g id="line2d_8">
      <g>
       <use style="stroke:#000000;stroke-width:0.8;" x="453.186654" xlink:href="#mdb1a18c356" y="345.6"/>
      </g>
     </g>
     <g id="text_8">
      <text style="font-family:DejaVu Sans;font-size:10px;font-style:normal;font-weight:normal;text-anchor:middle;" transform="rotate(-0, 453.186654, 360.198437)" x="453.186654" y="360.198437">0.20</text>
     </g>
    </g>
   </g>
   <g id="matplotlib.axis_2">
    <g id="ytick_1">
     <g id="line2d_9">
      <defs>
       <path d="M 0 0 
L -3.5 0 
" id="m2995919583" style="stroke:#000000;stroke-width:0.8;"/>
      </defs>
      <g>
       <use style="stroke:#000000;stroke-width:0.8;" x="0" xlink:href="#m2995919583" y="312.865618"/>
      </g>
     </g>
     <g id="text_9">
      <text style="font-family:DejaVu Sans;font-size:10px;font-style:normal;font-weight:normal;text-anchor:end;" transform="rotate(-0, -7, 316.664837)" x="-7" y="316.664837">−0.10</text>
     </g>
    </g>
    <g id="ytick_2">
     <g id="line2d_10">
      <g>
       <use style="stroke:#000000;stroke-width:0.8;" x="0" xlink:href="#m2995919583" y="266.168751"/>
      </g>
     </g>
     <g id="text_10">
      <text style="font-family:DejaVu Sans;font-size:10px;font-style:normal;font-weight:normal;text-anchor:end;" transform="rotate(-0, -7, 269.96797)" x="-7" y="269.96797">−0.05</text>
     </g>
    </g>
    <g id="ytick_3">
     <g id="line2d_11">
      <g>
       <use style="stroke:#000000;stroke-width:0.8;" x="0" xlink:href="#m2995919583" y="219.471884"/>
      </g>
     </g>
     <g id="text_11">
      <text style="font-family:DejaVu Sans;font-size:10px;font-style:normal;font-weight:normal;text-anchor:end;" transform="rotate(-0, -7, 223.271103)" x="-7" y="223.271103">0.00</text>
     </g>
    </g>
    <g id="ytick_4">
     <g id="line2d_12">
      <g>
       <use style="stroke:#000000;stroke-width:0.8;" x="0" xlink:href="#m2995919583" y="172.775017"/>
      </g>
     </g>
     <g id="text_12">
      <text style="font-family:DejaVu Sans;font-size:10px;font-style:normal;font-weight:normal;text-anchor:end;" transform="rotate(-0, -7, 176.574236)" x="-7" y="176.574236">0.05</text>
     </g>
    </g>
    <g id="ytick_5">
     <g id="line2d_13">
      <g>
       <use style="stroke:#000000;stroke-width:0.8;" x="0" xlink:href="#m2995919583" y="126.07815"/>
      </g>
     </g>
     <g id="text_13">
      <text style="font-family:DejaVu Sans;font-size:10px;font-style:normal;font-weight:normal;text-anchor:end;" transform="rotate(-0, -7, 129.877369)" x="-7" y="129.877369">0.10</text>
     </g>
    </g>
    <g id="ytick_6">
     <g id="line2d_14">
      <g>
       <use style="stroke:#000000;stroke-width:0.8;" x="0" xlink:href="#m2995919583" y="79.381284"/>
      </g>
     </g>
     <g id="text_14">
      <text style="font-family:DejaVu Sans;font-size:10px;font-style:normal;font-weight:normal;text-anchor:end;" transform="rotate(-0, -7, 83.180502)" x="-7" y="83.180502">0.15</text>
     </g>
    </g>
    <g id="ytick_7">
     <g id="line2d_15">
      <g>
       <use style="stroke:#000000;stroke-width:0.8;" x="0" xlink:href="#m2995919583" y="32.684417"/>
      </g>
     </g>
     <g id="text_15">
      <text style="font-family:DejaVu Sans;font-size:10px;font-style:normal;font-weight:normal;text-anchor:end;" transform="rotate(-0, -7, 36.483635)" x="-7" y="36.483635">0.20</text>
     </g>
    </g>
   </g>
   <g id="line2d_16">
    <path clip-path="url(#p435fb827e1)" d="M 235.339123 194.255576 
" style="fill:none;stroke:#ff0000;stroke-linecap:square;stroke-width:1.5;"/>
    <defs>
     <path d="M 0 2.5 
C 0.663008 2.5 1.29895 2.236584 1.767767 1.767767 
C 2.236584 1.29895 2.5 0.663008 2.5 0 
C 2.5 -0.663008 2.236584 -1.29895 1.767767 -1.767767 
C 1.29895 -2.236584 0.663008 -2.5 0 -2.5 
C -0.663008 -2.5 -1.29895 -2.236584 -1.767767 -1.767767 
C -2.236584 -1.29895 -2.5 -0.663008 -2.5 0 
C -2.5 0.663008 -2.236584 1.29895 -1.767767 1.767767 
C -1.29895 2.236584 -0.663008 2.5 0 2.5 
z
" id="mb4ea70fefc" style="stroke:#ff0000;"/>
    </defs>
    <g clip-path="url(#p435fb827e1)">
     <use style="fill:#ff0000;stroke:#ff0000;" x="235.339123" xlink:href="#mb4ea70fefc" y="194.255576"/>
    </g>
   </g>
   <g id="line2d_17">
    <path clip-path="url(#p435fb827e1)" d="M 182.451284 202.661012 
" style="fill:none;stroke:#ff0000;stroke-linecap:square;stroke-width:1.5;"/>
    <g clip-path="url(#p435fb827e1)">
     <use style="fill:#ff0000;stroke:#ff0000;" x="182.451284" xlink:href="#mb4ea70fefc" y="202.661012"/>
    </g>
   </g>
   <g id="patch_3">
    <path d="M 0 345.6 
L 0 -0 
" style="fill:none;stroke:#000000;stroke-linecap:square;stroke-linejoin:miter;stroke-width:0.8;"/>
   </g>
   <g id="patch_4">
    <path d="M 460.8 345.6 
L 460.8 -0 
" style="fill:none;stroke:#000000;stroke-linecap:square;stroke-linejoin:miter;stroke-width:0.8;"/>
   </g>
   <g id="patch_5">
    <path d="M 0 345.6 
L 460.8 345.6 
" style="fill:none;stroke:#000000;stroke-linecap:square;stroke-linejoin:miter;stroke-width:0.8;"/>
   </g>
   <g id="patch_6">
    <path d="M 0 0 
L 460.8 0 
" style="fill:none;stroke:#000000;stroke-linecap:square;stroke-linejoin:miter;stroke-width:0.8;"/>
   </g>
   <g id="text_16">
    <text style="fill:#ff0000;font-family:DejaVu Sans;font-size:8px;font-style:normal;font-weight:normal;text-anchor:start;" transform="rotate(-0, 235.339123, 194.255576)" x="235.339123" y="194.255576">_naive</text>
   </g>
   <g id="text_17">
    <text style="fill:#ff0000;font-family:DejaVu Sans;font-size:8px;font-style:normal;font-weight:normal;text-anchor:start;" transform="rotate(-0, 182.451284, 202.661012)" x="182.451284" y="202.661012">_consensus</text>
   </g>
  </g>
  <g id="text_18">
   <text style="font-family:DejaVu Sans;font-size:15px;font-style:normal;font-weight:normal;text-anchor:start;" transform="rotate(-0, 184.32, 34.56)" x="184.32" y="34.56">MDS comp. (index 13 size 11)</text>
  </g>
 </g>
 <defs>
  <clipPath id="p435fb827e1">
   <rect height="345.6" width="460.8" x="0" y="0"/>
  </clipPath>
 </defs>
</svg>
