<?xml version="1.0" encoding="utf-8" standalone="no"?>
<!DOCTYPE svg PUBLIC "-//W3C//DTD SVG 1.1//EN"
  "http://www.w3.org/Graphics/SVG/1.1/DTD/svg11.dtd">
<!-- Created with matplotlib (http://matplotlib.org/) -->
<svg height="345.6pt" version="1.1" viewBox="0 0 460.8 345.6" width="460.8pt" xmlns="http://www.w3.org/2000/svg" xmlns:xlink="http://www.w3.org/1999/xlink">
 <defs>
  <style type="text/css">
*{stroke-linecap:butt;stroke-linejoin:round;}
  </style>
 </defs>
 <g id="figure_1">
  <g id="patch_1">
   <path d="M 0 345.6 
L 460.8 345.6 
L 460.8 0 
L 0 0 
z
" style="fill:#ffffff;"/>
  </g>
  <g id="axes_1">
   <g id="patch_2">
    <path d="M 0 345.6 
L 460.8 345.6 
L 460.8 0 
L 0 0 
z
" style="fill:#ffffff;"/>
   </g>
   <g id="PathCollection_1">
    <defs>
     <path d="M 0 3 
C 0.795609 3 1.55874 2.683901 2.12132 2.12132 
C 2.683901 1.55874 3 0.795609 3 0 
C 3 -0.795609 2.683901 -1.55874 2.12132 -2.12132 
C 1.55874 -2.683901 0.795609 -3 0 -3 
C -0.795609 -3 -1.55874 -2.683901 -2.12132 -2.12132 
C -2.683901 -1.55874 -3 -0.795609 -3 0 
C -3 0.795609 -2.683901 1.55874 -2.12132 2.12132 
C -1.55874 2.683901 -0.795609 3 0 3 
z
" id="m86d6ae89a2" style="stroke:#a5cde3;"/>
    </defs>
    <g clip-path="url(#p43fbdedf20)">
     <use style="fill:#a5cde3;stroke:#a5cde3;" x="109.420995" xlink:href="#m86d6ae89a2" y="154.335334"/>
    </g>
   </g>
   <g id="PathCollection_2">
    <g clip-path="url(#p43fbdedf20)">
     <use style="fill:#a5cde3;stroke:#a5cde3;" x="109.420995" xlink:href="#m86d6ae89a2" y="160.688848"/>
    </g>
   </g>
   <g id="PathCollection_3">
    <g clip-path="url(#p43fbdedf20)">
     <use style="fill:#a5cde3;stroke:#a5cde3;" x="113.354112" xlink:href="#m86d6ae89a2" y="147.981821"/>
    </g>
   </g>
   <g id="PathCollection_4">
    <defs>
     <path d="M 0 3 
C 0.795609 3 1.55874 2.683901 2.12132 2.12132 
C 2.683901 1.55874 3 0.795609 3 0 
C 3 -0.795609 2.683901 -1.55874 2.12132 -2.12132 
C 1.55874 -2.683901 0.795609 -3 0 -3 
C -0.795609 -3 -1.55874 -2.683901 -2.12132 -2.12132 
C -2.683901 -1.55874 -3 -0.795609 -3 0 
C -3 0.795609 -2.683901 1.55874 -2.12132 2.12132 
C -1.55874 2.683901 -0.795609 3 0 3 
z
" id="md8fbf13ea1" style="stroke:#1460a8;"/>
    </defs>
    <g clip-path="url(#p43fbdedf20)">
     <use style="fill:#1460a8;stroke:#1460a8;" x="412.271021" xlink:href="#md8fbf13ea1" y="130.191983"/>
    </g>
   </g>
   <g id="PathCollection_5">
    <defs>
     <path d="M 0 3 
C 0.795609 3 1.55874 2.683901 2.12132 2.12132 
C 2.683901 1.55874 3 0.795609 3 0 
C 3 -0.795609 2.683901 -1.55874 2.12132 -2.12132 
C 1.55874 -2.683901 0.795609 -3 0 -3 
C -0.795609 -3 -1.55874 -2.683901 -2.12132 -2.12132 
C -2.683901 -1.55874 -3 -0.795609 -3 0 
C -3 0.795609 -2.683901 1.55874 -2.12132 2.12132 
C -1.55874 2.683901 -0.795609 3 0 3 
z
" id="mbffd481dfc" style="stroke:#5fa6d1;"/>
    </defs>
    <g clip-path="url(#p43fbdedf20)">
     <use style="fill:#5fa6d1;stroke:#5fa6d1;" x="166.451194" xlink:href="#mbffd481dfc" y="206.434144"/>
    </g>
   </g>
   <g id="PathCollection_6">
    <g clip-path="url(#p43fbdedf20)">
     <use style="fill:#5fa6d1;stroke:#5fa6d1;" x="146.785608" xlink:href="#mbffd481dfc" y="75.551768"/>
    </g>
   </g>
   <g id="PathCollection_7">
    <g clip-path="url(#p43fbdedf20)">
     <use style="fill:#5fa6d1;stroke:#5fa6d1;" x="48.457678" xlink:href="#mbffd481dfc" y="135.274794"/>
    </g>
   </g>
   <g id="PathCollection_8">
    <g clip-path="url(#p43fbdedf20)">
     <use style="fill:#a5cde3;stroke:#a5cde3;" x="115.32067" xlink:href="#m86d6ae89a2" y="163.230253"/>
    </g>
   </g>
   <g id="PathCollection_9">
    <g clip-path="url(#p43fbdedf20)">
     <use style="fill:#5fa6d1;stroke:#5fa6d1;" x="105.487877" xlink:href="#mbffd481dfc" y="84.446686"/>
    </g>
   </g>
   <g id="PathCollection_10">
    <g clip-path="url(#p43fbdedf20)">
     <use style="fill:#5fa6d1;stroke:#5fa6d1;" x="290.344387" xlink:href="#mbffd481dfc" y="144.169713"/>
    </g>
   </g>
   <g id="PathCollection_11">
    <defs>
     <path d="M 0 3 
C 0.795609 3 1.55874 2.683901 2.12132 2.12132 
C 2.683901 1.55874 3 0.795609 3 0 
C 3 -0.795609 2.683901 -1.55874 2.12132 -2.12132 
C 1.55874 -2.683901 0.795609 -3 0 -3 
C -0.795609 -3 -1.55874 -2.683901 -2.12132 -2.12132 
C -2.683901 -1.55874 -3 -0.795609 -3 0 
C -3 0.795609 -2.683901 1.55874 -2.12132 2.12132 
C -1.55874 2.683901 -0.795609 3 0 3 
z
" id="m6bec2621fc" style="stroke:#4090c5;"/>
    </defs>
    <g clip-path="url(#p43fbdedf20)">
     <use style="fill:#4090c5;stroke:#4090c5;" x="54.357353" xlink:href="#m6bec2621fc" y="193.727117"/>
    </g>
   </g>
   <g id="PathCollection_12">
    <defs>
     <path d="M 0 3 
C 0.795609 3 1.55874 2.683901 2.12132 2.12132 
C 2.683901 1.55874 3 0.795609 3 0 
C 3 -0.795609 2.683901 -1.55874 2.12132 -2.12132 
C 1.55874 -2.683901 0.795609 -3 0 -3 
C -0.795609 -3 -1.55874 -2.683901 -2.12132 -2.12132 
C -2.683901 -1.55874 -3 -0.795609 -3 0 
C -3 0.795609 -2.683901 1.55874 -2.12132 2.12132 
C -1.55874 2.683901 -0.795609 3 0 3 
z
" id="m27271d1b92" style="stroke:#82bbdb;"/>
    </defs>
    <g clip-path="url(#p43fbdedf20)">
     <use style="fill:#82bbdb;stroke:#82bbdb;" x="91.721967" xlink:href="#m27271d1b92" y="198.809928"/>
    </g>
   </g>
   <g id="PathCollection_13">
    <g clip-path="url(#p43fbdedf20)">
     <use style="fill:#a5cde3;stroke:#a5cde3;" x="113.354112" xlink:href="#m86d6ae89a2" y="165.771658"/>
    </g>
   </g>
   <g id="PathCollection_14">
    <g clip-path="url(#p43fbdedf20)">
     <use style="fill:#5fa6d1;stroke:#5fa6d1;" x="115.32067" xlink:href="#mbffd481dfc" y="64.115443"/>
    </g>
   </g>
   <g id="PathCollection_15">
    <g clip-path="url(#p43fbdedf20)">
     <use style="fill:#4090c5;stroke:#4090c5;" x="54.357353" xlink:href="#m6bec2621fc" y="158.147442"/>
    </g>
   </g>
   <g id="PathCollection_16">
    <defs>
     <path d="M 0 3 
C 0.795609 3 1.55874 2.683901 2.12132 2.12132 
C 2.683901 1.55874 3 0.795609 3 0 
C 3 -0.795609 2.683901 -1.55874 2.12132 -2.12132 
C 1.55874 -2.683901 0.795609 -3 0 -3 
C -0.795609 -3 -1.55874 -2.683901 -2.12132 -2.12132 
C -2.683901 -1.55874 -3 -0.795609 -3 0 
C -3 0.795609 -2.683901 1.55874 -2.12132 2.12132 
C -1.55874 2.683901 -0.795609 3 0 3 
z
" id="mb67fc53aec" style="stroke:#c3daee;"/>
    </defs>
    <g clip-path="url(#p43fbdedf20)">
     <use style="fill:#c3daee;stroke:#c3daee;" x="125.153464" xlink:href="#mb67fc53aec" y="161.95955"/>
    </g>
   </g>
   <g id="PathCollection_17">
    <g clip-path="url(#p43fbdedf20)">
     <use style="fill:#a5cde3;stroke:#a5cde3;" x="140.885932" xlink:href="#m86d6ae89a2" y="117.484956"/>
    </g>
   </g>
   <g id="PathCollection_18">
    <g clip-path="url(#p43fbdedf20)">
     <use style="fill:#82bbdb;stroke:#82bbdb;" x="95.655084" xlink:href="#m27271d1b92" y="137.816199"/>
    </g>
   </g>
   <g id="PathCollection_19">
    <g clip-path="url(#p43fbdedf20)">
     <use style="fill:#c3daee;stroke:#c3daee;" x="129.086581" xlink:href="#mb67fc53aec" y="164.500956"/>
    </g>
   </g>
   <g id="PathCollection_20">
    <defs>
     <path d="M 0 3 
C 0.795609 3 1.55874 2.683901 2.12132 2.12132 
C 2.683901 1.55874 3 0.795609 3 0 
C 3 -0.795609 2.683901 -1.55874 2.12132 -2.12132 
C 1.55874 -2.683901 0.795609 -3 0 -3 
C -0.795609 -3 -1.55874 -2.683901 -2.12132 -2.12132 
C -2.683901 -1.55874 -3 -0.795609 -3 0 
C -3 0.795609 -2.683901 1.55874 -2.12132 2.12132 
C -1.55874 2.683901 -0.795609 3 0 3 
z
" id="m1162ac25af" style="stroke:#08488e;"/>
    </defs>
    <g clip-path="url(#p43fbdedf20)">
     <use style="fill:#08488e;stroke:#08488e;" x="87.78885" xlink:href="#m1162ac25af" y="147.981821"/>
    </g>
   </g>
   <g id="PathCollection_21">
    <g clip-path="url(#p43fbdedf20)">
     <use style="fill:#82bbdb;stroke:#82bbdb;" x="97.621643" xlink:href="#m27271d1b92" y="189.915009"/>
    </g>
   </g>
   <g id="PathCollection_22">
    <g clip-path="url(#p43fbdedf20)">
     <use style="fill:#a5cde3;stroke:#a5cde3;" x="115.32067" xlink:href="#m86d6ae89a2" y="165.771658"/>
    </g>
   </g>
   <g id="PathCollection_23">
    <defs>
     <path d="M 0 3 
C 0.795609 3 1.55874 2.683901 2.12132 2.12132 
C 2.683901 1.55874 3 0.795609 3 0 
C 3 -0.795609 2.683901 -1.55874 2.12132 -2.12132 
C 1.55874 -2.683901 0.795609 -3 0 -3 
C -0.795609 -3 -1.55874 -2.683901 -2.12132 -2.12132 
C -2.683901 -1.55874 -3 -0.795609 -3 0 
C -3 0.795609 -2.683901 1.55874 -2.12132 2.12132 
C -1.55874 2.683901 -0.795609 3 0 3 
z
" id="mc6a2b44803" style="stroke:#2979b9;"/>
    </defs>
    <g clip-path="url(#p43fbdedf20)">
     <use style="fill:#2979b9;stroke:#2979b9;" x="343.441469" xlink:href="#mc6a2b44803" y="228.03609"/>
    </g>
   </g>
   <g id="PathCollection_24">
    <g clip-path="url(#p43fbdedf20)">
     <use style="fill:#5fa6d1;stroke:#5fa6d1;" x="77.956057" xlink:href="#mbffd481dfc" y="139.086902"/>
    </g>
   </g>
   <g id="PathCollection_25">
    <g clip-path="url(#p43fbdedf20)">
     <use style="fill:#4090c5;stroke:#4090c5;" x="36.658326" xlink:href="#m6bec2621fc" y="131.462686"/>
    </g>
   </g>
   <g id="PathCollection_26">
    <g clip-path="url(#p43fbdedf20)">
     <use style="fill:#82bbdb;stroke:#82bbdb;" x="111.387553" xlink:href="#m27271d1b92" y="164.500956"/>
    </g>
   </g>
   <g id="PathCollection_27">
    <g clip-path="url(#p43fbdedf20)">
     <use style="fill:#a5cde3;stroke:#a5cde3;" x="125.153464" xlink:href="#m86d6ae89a2" y="154.335334"/>
    </g>
   </g>
   <g id="PathCollection_28">
    <g clip-path="url(#p43fbdedf20)">
     <use style="fill:#a5cde3;stroke:#a5cde3;" x="117.287229" xlink:href="#m86d6ae89a2" y="164.500956"/>
    </g>
   </g>
   <g id="PathCollection_29">
    <g clip-path="url(#p43fbdedf20)">
     <use style="fill:#5fa6d1;stroke:#5fa6d1;" x="79.922615" xlink:href="#mbffd481dfc" y="189.915009"/>
    </g>
   </g>
   <g id="PathCollection_30">
    <g clip-path="url(#p43fbdedf20)">
     <use style="fill:#82bbdb;stroke:#82bbdb;" x="107.454436" xlink:href="#m27271d1b92" y="161.95955"/>
    </g>
   </g>
   <g id="PathCollection_31">
    <g clip-path="url(#p43fbdedf20)">
     <use style="fill:#5fa6d1;stroke:#5fa6d1;" x="70.089822" xlink:href="#mbffd481dfc" y="184.832199"/>
    </g>
   </g>
   <g id="PathCollection_32">
    <g clip-path="url(#p43fbdedf20)">
     <use style="fill:#5fa6d1;stroke:#5fa6d1;" x="79.922615" xlink:href="#mbffd481dfc" y="159.418145"/>
    </g>
   </g>
   <g id="PathCollection_33">
    <g clip-path="url(#p43fbdedf20)">
     <use style="fill:#a5cde3;stroke:#a5cde3;" x="113.354112" xlink:href="#m86d6ae89a2" y="161.95955"/>
    </g>
   </g>
   <g id="PathCollection_34">
    <g clip-path="url(#p43fbdedf20)">
     <use style="fill:#a5cde3;stroke:#a5cde3;" x="109.420995" xlink:href="#m86d6ae89a2" y="182.290793"/>
    </g>
   </g>
   <g id="PathCollection_35">
    <g clip-path="url(#p43fbdedf20)">
     <use style="fill:#c3daee;stroke:#c3daee;" x="127.120022" xlink:href="#mb67fc53aec" y="165.771658"/>
    </g>
   </g>
   <g id="PathCollection_36">
    <g clip-path="url(#p43fbdedf20)">
     <use style="fill:#5fa6d1;stroke:#5fa6d1;" x="83.855733" xlink:href="#mbffd481dfc" y="164.500956"/>
    </g>
   </g>
   <g id="PathCollection_37">
    <g clip-path="url(#p43fbdedf20)">
     <use style="fill:#4090c5;stroke:#4090c5;" x="97.621643" xlink:href="#m6bec2621fc" y="34.889281"/>
    </g>
   </g>
   <g id="PathCollection_38">
    <g clip-path="url(#p43fbdedf20)">
     <use style="fill:#1460a8;stroke:#1460a8;" x="22.892416" xlink:href="#md8fbf13ea1" y="28.535768"/>
    </g>
   </g>
   <g id="PathCollection_39">
    <g clip-path="url(#p43fbdedf20)">
     <use style="fill:#2979b9;stroke:#2979b9;" x="384.7392" xlink:href="#mc6a2b44803" y="134.004091"/>
    </g>
   </g>
   <g id="PathCollection_40">
    <g clip-path="url(#p43fbdedf20)">
     <use style="fill:#5fa6d1;stroke:#5fa6d1;" x="64.190147" xlink:href="#mbffd481dfc" y="172.125172"/>
    </g>
   </g>
   <g id="PathCollection_41">
    <g clip-path="url(#p43fbdedf20)">
     <use style="fill:#1460a8;stroke:#1460a8;" x="388.672318" xlink:href="#md8fbf13ea1" y="228.03609"/>
    </g>
   </g>
   <g id="PathCollection_42">
    <g clip-path="url(#p43fbdedf20)">
     <use style="fill:#c3daee;stroke:#c3daee;" x="123.186905" xlink:href="#mb67fc53aec" y="178.478685"/>
    </g>
   </g>
   <g id="PathCollection_43">
    <g clip-path="url(#p43fbdedf20)">
     <use style="fill:#4090c5;stroke:#4090c5;" x="56.323912" xlink:href="#m6bec2621fc" y="192.456415"/>
    </g>
   </g>
   <g id="PathCollection_44">
    <g clip-path="url(#p43fbdedf20)">
     <use style="fill:#a5cde3;stroke:#a5cde3;" x="105.487877" xlink:href="#m86d6ae89a2" y="183.561496"/>
    </g>
   </g>
   <g id="PathCollection_45">
    <defs>
     <path d="M 0 3 
C 0.795609 3 1.55874 2.683901 2.12132 2.12132 
C 2.683901 1.55874 3 0.795609 3 0 
C 3 -0.795609 2.683901 -1.55874 2.12132 -2.12132 
C 1.55874 -2.683901 0.795609 -3 0 -3 
C -0.795609 -3 -1.55874 -2.683901 -2.12132 -2.12132 
C -2.683901 -1.55874 -3 -0.795609 -3 0 
C -3 0.795609 -2.683901 1.55874 -2.12132 2.12132 
C -1.55874 2.683901 -0.795609 3 0 3 
z
" id="m0b528fdac8" style="stroke:#d6e6f4;"/>
    </defs>
    <g clip-path="url(#p43fbdedf20)">
     <use style="fill:#d6e6f4;stroke:#d6e6f4;" x="140.885932" xlink:href="#m0b528fdac8" y="161.95955"/>
    </g>
   </g>
   <g id="PathCollection_46">
    <g clip-path="url(#p43fbdedf20)">
     <use style="fill:#a5cde3;stroke:#a5cde3;" x="123.186905" xlink:href="#m86d6ae89a2" y="181.020091"/>
    </g>
   </g>
   <g id="PathCollection_47">
    <g clip-path="url(#p43fbdedf20)">
     <use style="fill:#4090c5;stroke:#4090c5;" x="54.357353" xlink:href="#m6bec2621fc" y="228.03609"/>
    </g>
   </g>
   <g id="PathCollection_48">
    <g clip-path="url(#p43fbdedf20)">
     <use style="fill:#5fa6d1;stroke:#5fa6d1;" x="85.822291" xlink:href="#mbffd481dfc" y="203.892739"/>
    </g>
   </g>
   <g id="PathCollection_49">
    <g clip-path="url(#p43fbdedf20)">
     <use style="fill:#82bbdb;stroke:#82bbdb;" x="95.655084" xlink:href="#m27271d1b92" y="187.373604"/>
    </g>
   </g>
   <g id="PathCollection_50">
    <defs>
     <path d="M 0 3 
C 0.795609 3 1.55874 2.683901 2.12132 2.12132 
C 2.683901 1.55874 3 0.795609 3 0 
C 3 -0.795609 2.683901 -1.55874 2.12132 -2.12132 
C 1.55874 -2.683901 0.795609 -3 0 -3 
C -0.795609 -3 -1.55874 -2.683901 -2.12132 -2.12132 
C -2.683901 -1.55874 -3 -0.795609 -3 0 
C -3 0.795609 -2.683901 1.55874 -2.12132 2.12132 
C -1.55874 2.683901 -0.795609 3 0 3 
z
" id="m8ad39d57fe" style="stroke:#08306b;"/>
    </defs>
    <g clip-path="url(#p43fbdedf20)">
     <use style="fill:#08306b;stroke:#08306b;" x="437.836283" xlink:href="#m8ad39d57fe" y="140.357605"/>
    </g>
   </g>
   <g id="PathCollection_51">
    <g clip-path="url(#p43fbdedf20)">
     <use style="fill:#82bbdb;stroke:#82bbdb;" x="101.55476" xlink:href="#m27271d1b92" y="123.83847"/>
    </g>
   </g>
   <g id="PathCollection_52">
    <g clip-path="url(#p43fbdedf20)">
     <use style="fill:#82bbdb;stroke:#82bbdb;" x="81.889174" xlink:href="#m27271d1b92" y="139.086902"/>
    </g>
   </g>
   <g id="PathCollection_53">
    <g clip-path="url(#p43fbdedf20)">
     <use style="fill:#4090c5;stroke:#4090c5;" x="60.257029" xlink:href="#m6bec2621fc" y="135.274794"/>
    </g>
   </g>
   <g id="PathCollection_54">
    <g clip-path="url(#p43fbdedf20)">
     <use style="fill:#a5cde3;stroke:#a5cde3;" x="107.454436" xlink:href="#m86d6ae89a2" y="183.561496"/>
    </g>
   </g>
   <g id="PathCollection_55">
    <g clip-path="url(#p43fbdedf20)">
     <use style="fill:#a5cde3;stroke:#a5cde3;" x="113.354112" xlink:href="#m86d6ae89a2" y="172.125172"/>
    </g>
   </g>
   <g id="PathCollection_56">
    <g clip-path="url(#p43fbdedf20)">
     <use style="fill:#a5cde3;stroke:#a5cde3;" x="140.885932" xlink:href="#m86d6ae89a2" y="158.147442"/>
    </g>
   </g>
   <g id="PathCollection_57">
    <g clip-path="url(#p43fbdedf20)">
     <use style="fill:#2979b9;stroke:#2979b9;" x="95.655084" xlink:href="#mc6a2b44803" y="17.099444"/>
    </g>
   </g>
   <g id="PathCollection_58">
    <g clip-path="url(#p43fbdedf20)">
     <use style="fill:#5fa6d1;stroke:#5fa6d1;" x="117.287229" xlink:href="#mbffd481dfc" y="173.395874"/>
    </g>
   </g>
   <g id="PathCollection_59">
    <g clip-path="url(#p43fbdedf20)">
     <use style="fill:#a5cde3;stroke:#a5cde3;" x="105.487877" xlink:href="#m86d6ae89a2" y="177.207983"/>
    </g>
   </g>
   <g id="PathCollection_60">
    <g clip-path="url(#p43fbdedf20)">
     <use style="fill:#5fa6d1;stroke:#5fa6d1;" x="85.822291" xlink:href="#mbffd481dfc" y="178.478685"/>
    </g>
   </g>
   <g id="PathCollection_61">
    <g clip-path="url(#p43fbdedf20)">
     <use style="fill:#08488e;stroke:#08488e;" x="28.792092" xlink:href="#m1162ac25af" y="328.421602"/>
    </g>
   </g>
   <g id="PathCollection_62">
    <g clip-path="url(#p43fbdedf20)">
     <use style="fill:#5fa6d1;stroke:#5fa6d1;" x="68.123264" xlink:href="#mbffd481dfc" y="178.478685"/>
    </g>
   </g>
   <g id="PathCollection_63">
    <g clip-path="url(#p43fbdedf20)">
     <use style="fill:#82bbdb;stroke:#82bbdb;" x="91.721967" xlink:href="#m27271d1b92" y="197.539226"/>
    </g>
   </g>
   <g id="PathCollection_64">
    <g clip-path="url(#p43fbdedf20)">
     <use style="fill:#5fa6d1;stroke:#5fa6d1;" x="60.257029" xlink:href="#mbffd481dfc" y="191.185712"/>
    </g>
   </g>
   <g id="PathCollection_65">
    <g clip-path="url(#p43fbdedf20)">
     <use style="fill:#c3daee;stroke:#c3daee;" x="138.919374" xlink:href="#mb67fc53aec" y="127.650578"/>
    </g>
   </g>
   <g id="matplotlib.axis_1">
    <g id="xtick_1">
     <g id="line2d_1">
      <defs>
       <path d="M 0 0 
L 0 3.5 
" id="m6979e5edb5" style="stroke:#000000;stroke-width:0.8;"/>
      </defs>
      <g>
       <use style="stroke:#000000;stroke-width:0.8;" x="24.858974" xlink:href="#m6979e5edb5" y="345.6"/>
      </g>
     </g>
     <g id="text_1">
      <text style="font-family:DejaVu Sans;font-size:10px;font-style:normal;font-weight:normal;text-anchor:middle;" transform="rotate(-0, 24.858974, 360.198437)" x="24.858974" y="360.198437">−0.05</text>
     </g>
    </g>
    <g id="xtick_2">
     <g id="line2d_2">
      <g>
       <use style="stroke:#000000;stroke-width:0.8;" x="123.186905" xlink:href="#m6979e5edb5" y="345.6"/>
      </g>
     </g>
     <g id="text_2">
      <text style="font-family:DejaVu Sans;font-size:10px;font-style:normal;font-weight:normal;text-anchor:middle;" transform="rotate(-0, 123.186905, 360.198437)" x="123.186905" y="360.198437">0.00</text>
     </g>
    </g>
    <g id="xtick_3">
     <g id="line2d_3">
      <g>
       <use style="stroke:#000000;stroke-width:0.8;" x="221.514835" xlink:href="#m6979e5edb5" y="345.6"/>
      </g>
     </g>
     <g id="text_3">
      <text style="font-family:DejaVu Sans;font-size:10px;font-style:normal;font-weight:normal;text-anchor:middle;" transform="rotate(-0, 221.514835, 360.198437)" x="221.514835" y="360.198437">0.05</text>
     </g>
    </g>
    <g id="xtick_4">
     <g id="line2d_4">
      <g>
       <use style="stroke:#000000;stroke-width:0.8;" x="319.842766" xlink:href="#m6979e5edb5" y="345.6"/>
      </g>
     </g>
     <g id="text_4">
      <text style="font-family:DejaVu Sans;font-size:10px;font-style:normal;font-weight:normal;text-anchor:middle;" transform="rotate(-0, 319.842766, 360.198437)" x="319.842766" y="360.198437">0.10</text>
     </g>
    </g>
    <g id="xtick_5">
     <g id="line2d_5">
      <g>
       <use style="stroke:#000000;stroke-width:0.8;" x="418.170697" xlink:href="#m6979e5edb5" y="345.6"/>
      </g>
     </g>
     <g id="text_5">
      <text style="font-family:DejaVu Sans;font-size:10px;font-style:normal;font-weight:normal;text-anchor:middle;" transform="rotate(-0, 418.170697, 360.198437)" x="418.170697" y="360.198437">0.15</text>
     </g>
    </g>
   </g>
   <g id="matplotlib.axis_2">
    <g id="ytick_1">
     <g id="line2d_6">
      <defs>
       <path d="M 0 0 
L -3.5 0 
" id="m16d391893e" style="stroke:#000000;stroke-width:0.8;"/>
      </defs>
      <g>
       <use style="stroke:#000000;stroke-width:0.8;" x="0" xlink:href="#m16d391893e" y="286.488414"/>
      </g>
     </g>
     <g id="text_6">
      <text style="font-family:DejaVu Sans;font-size:10px;font-style:normal;font-weight:normal;text-anchor:end;" transform="rotate(-0, -7, 290.287632)" x="-7" y="290.287632">−0.10</text>
     </g>
    </g>
    <g id="ytick_2">
     <g id="line2d_7">
      <g>
       <use style="stroke:#000000;stroke-width:0.8;" x="0" xlink:href="#m16d391893e" y="222.953279"/>
      </g>
     </g>
     <g id="text_7">
      <text style="font-family:DejaVu Sans;font-size:10px;font-style:normal;font-weight:normal;text-anchor:end;" transform="rotate(-0, -7, 226.752498)" x="-7" y="226.752498">−0.05</text>
     </g>
    </g>
    <g id="ytick_3">
     <g id="line2d_8">
      <g>
       <use style="stroke:#000000;stroke-width:0.8;" x="0" xlink:href="#m16d391893e" y="159.418145"/>
      </g>
     </g>
     <g id="text_8">
      <text style="font-family:DejaVu Sans;font-size:10px;font-style:normal;font-weight:normal;text-anchor:end;" transform="rotate(-0, -7, 163.217364)" x="-7" y="163.217364">0.00</text>
     </g>
    </g>
    <g id="ytick_4">
     <g id="line2d_9">
      <g>
       <use style="stroke:#000000;stroke-width:0.8;" x="0" xlink:href="#m16d391893e" y="95.883011"/>
      </g>
     </g>
     <g id="text_9">
      <text style="font-family:DejaVu Sans;font-size:10px;font-style:normal;font-weight:normal;text-anchor:end;" transform="rotate(-0, -7, 99.682229)" x="-7" y="99.682229">0.05</text>
     </g>
    </g>
    <g id="ytick_5">
     <g id="line2d_10">
      <g>
       <use style="stroke:#000000;stroke-width:0.8;" x="0" xlink:href="#m16d391893e" y="32.347876"/>
      </g>
     </g>
     <g id="text_10">
      <text style="font-family:DejaVu Sans;font-size:10px;font-style:normal;font-weight:normal;text-anchor:end;" transform="rotate(-0, -7, 36.147095)" x="-7" y="36.147095">0.10</text>
     </g>
    </g>
   </g>
   <g id="line2d_11">
    <path clip-path="url(#p43fbdedf20)" d="M 140.885932 161.95955 
" style="fill:none;stroke:#ff0000;stroke-linecap:square;stroke-width:1.5;"/>
    <defs>
     <path d="M 0 2.5 
C 0.663008 2.5 1.29895 2.236584 1.767767 1.767767 
C 2.236584 1.29895 2.5 0.663008 2.5 0 
C 2.5 -0.663008 2.236584 -1.29895 1.767767 -1.767767 
C 1.29895 -2.236584 0.663008 -2.5 0 -2.5 
C -0.663008 -2.5 -1.29895 -2.236584 -1.767767 -1.767767 
C -2.236584 -1.29895 -2.5 -0.663008 -2.5 0 
C -2.5 0.663008 -2.236584 1.29895 -1.767767 1.767767 
C -1.29895 2.236584 -0.663008 2.5 0 2.5 
z
" id="m16327da214" style="stroke:#ff0000;"/>
    </defs>
    <g clip-path="url(#p43fbdedf20)">
     <use style="fill:#ff0000;stroke:#ff0000;" x="140.885932" xlink:href="#m16327da214" y="161.95955"/>
    </g>
   </g>
   <g id="patch_3">
    <path d="M 0 345.6 
L 0 0 
" style="fill:none;stroke:#000000;stroke-linecap:square;stroke-linejoin:miter;stroke-width:0.8;"/>
   </g>
   <g id="patch_4">
    <path d="M 460.8 345.6 
L 460.8 0 
" style="fill:none;stroke:#000000;stroke-linecap:square;stroke-linejoin:miter;stroke-width:0.8;"/>
   </g>
   <g id="patch_5">
    <path d="M 0 345.6 
L 460.8 345.6 
" style="fill:none;stroke:#000000;stroke-linecap:square;stroke-linejoin:miter;stroke-width:0.8;"/>
   </g>
   <g id="patch_6">
    <path d="M 0 0 
L 460.8 0 
" style="fill:none;stroke:#000000;stroke-linecap:square;stroke-linejoin:miter;stroke-width:0.8;"/>
   </g>
   <g id="text_11">
    <text style="fill:#ff0000;font-family:DejaVu Sans;font-size:8px;font-style:normal;font-weight:normal;text-anchor:start;" transform="rotate(-0, 140.885932, 161.95955)" x="140.885932" y="161.95955">_consensus</text>
   </g>
  </g>
  <g id="text_12">
   <text style="font-family:DejaVu Sans;font-size:15px;font-style:normal;font-weight:normal;text-anchor:start;" transform="rotate(-0, 184.32, 34.56)" x="184.32" y="34.56">MDS comp. (index 5 size 71)</text>
  </g>
 </g>
 <defs>
  <clipPath id="p43fbdedf20">
   <rect height="345.6" width="460.8" x="0" y="0"/>
  </clipPath>
 </defs>
</svg>
