<?xml version="1.0" encoding="utf-8" standalone="no"?>
<!DOCTYPE svg PUBLIC "-//W3C//DTD SVG 1.1//EN"
  "http://www.w3.org/Graphics/SVG/1.1/DTD/svg11.dtd">
<!-- Created with matplotlib (http://matplotlib.org/) -->
<svg height="345.6pt" version="1.1" viewBox="0 0 460.8 345.6" width="460.8pt" xmlns="http://www.w3.org/2000/svg" xmlns:xlink="http://www.w3.org/1999/xlink">
 <defs>
  <style type="text/css">
*{stroke-linecap:butt;stroke-linejoin:round;}
  </style>
 </defs>
 <g id="figure_1">
  <g id="patch_1">
   <path d="M 0 345.6 
L 460.8 345.6 
L 460.8 0 
L 0 0 
z
" style="fill:#ffffff;"/>
  </g>
  <g id="axes_1">
   <g id="patch_2">
    <path d="M 0 345.6 
L 460.8 345.6 
L 460.8 0 
L 0 0 
z
" style="fill:#ffffff;"/>
   </g>
   <g id="PathCollection_1">
    <defs>
     <path d="M 0 3 
C 0.795609 3 1.55874 2.683901 2.12132 2.12132 
C 2.683901 1.55874 3 0.795609 3 0 
C 3 -0.795609 2.683901 -1.55874 2.12132 -2.12132 
C 1.55874 -2.683901 0.795609 -3 0 -3 
C -0.795609 -3 -1.55874 -2.683901 -2.12132 -2.12132 
C -2.683901 -1.55874 -3 -0.795609 -3 0 
C -3 0.795609 -2.683901 1.55874 -2.12132 2.12132 
C -1.55874 2.683901 -0.795609 3 0 3 
z
" id="m09a8f29a51" style="stroke:#105ba4;"/>
    </defs>
    <g clip-path="url(#p5390f4f0f0)">
     <use style="fill:#105ba4;stroke:#105ba4;" x="361.496839" xlink:href="#m09a8f29a51" y="313.561034"/>
    </g>
   </g>
   <g id="PathCollection_2">
    <defs>
     <path d="M 0 3 
C 0.795609 3 1.55874 2.683901 2.12132 2.12132 
C 2.683901 1.55874 3 0.795609 3 0 
C 3 -0.795609 2.683901 -1.55874 2.12132 -2.12132 
C 1.55874 -2.683901 0.795609 -3 0 -3 
C -0.795609 -3 -1.55874 -2.683901 -2.12132 -2.12132 
C -2.683901 -1.55874 -3 -0.795609 -3 0 
C -3 0.795609 -2.683901 1.55874 -2.12132 2.12132 
C -1.55874 2.683901 -0.795609 3 0 3 
z
" id="mc45be567b4" style="stroke:#3787c0;"/>
    </defs>
    <g clip-path="url(#p5390f4f0f0)">
     <use style="fill:#3787c0;stroke:#3787c0;" x="404.460371" xlink:href="#mc45be567b4" y="17.85573"/>
    </g>
   </g>
   <g id="PathCollection_3">
    <defs>
     <path d="M 0 3 
C 0.795609 3 1.55874 2.683901 2.12132 2.12132 
C 2.683901 1.55874 3 0.795609 3 0 
C 3 -0.795609 2.683901 -1.55874 2.12132 -2.12132 
C 1.55874 -2.683901 0.795609 -3 0 -3 
C -0.795609 -3 -1.55874 -2.683901 -2.12132 -2.12132 
C -2.683901 -1.55874 -3 -0.795609 -3 0 
C -3 0.795609 -2.683901 1.55874 -2.12132 2.12132 
C -1.55874 2.683901 -0.795609 3 0 3 
z
" id="mf22809098c" style="stroke:#8dc1dd;"/>
    </defs>
    <g clip-path="url(#p5390f4f0f0)">
     <use style="fill:#8dc1dd;stroke:#8dc1dd;" x="254.088009" xlink:href="#mf22809098c" y="162.159919"/>
    </g>
   </g>
   <g id="PathCollection_4">
    <g clip-path="url(#p5390f4f0f0)">
     <use style="fill:#105ba4;stroke:#105ba4;" x="91.781333" xlink:href="#m09a8f29a51" y="129.040925"/>
    </g>
   </g>
   <g id="PathCollection_5">
    <g clip-path="url(#p5390f4f0f0)">
     <use style="fill:#3787c0;stroke:#3787c0;" x="232.606243" xlink:href="#mc45be567b4" y="178.719416"/>
    </g>
   </g>
   <g id="PathCollection_6">
    <g clip-path="url(#p5390f4f0f0)">
     <use style="fill:#8dc1dd;stroke:#8dc1dd;" x="285.117227" xlink:href="#mf22809098c" y="204.741482"/>
    </g>
   </g>
   <g id="PathCollection_7">
    <defs>
     <path d="M 0 3 
C 0.795609 3 1.55874 2.683901 2.12132 2.12132 
C 2.683901 1.55874 3 0.795609 3 0 
C 3 -0.795609 2.683901 -1.55874 2.12132 -2.12132 
C 1.55874 -2.683901 0.795609 -3 0 -3 
C -0.795609 -3 -1.55874 -2.683901 -2.12132 -2.12132 
C -2.683901 -1.55874 -3 -0.795609 -3 0 
C -3 0.795609 -2.683901 1.55874 -2.12132 2.12132 
C -1.55874 2.683901 -0.795609 3 0 3 
z
" id="m06646aeed9" style="stroke:#4f9bcb;"/>
    </defs>
    <g clip-path="url(#p5390f4f0f0)">
     <use style="fill:#4f9bcb;stroke:#4f9bcb;" x="294.664678" xlink:href="#m06646aeed9" y="230.763549"/>
    </g>
   </g>
   <g id="PathCollection_8">
    <defs>
     <path d="M 0 3 
C 0.795609 3 1.55874 2.683901 2.12132 2.12132 
C 2.683901 1.55874 3 0.795609 3 0 
C 3 -0.795609 2.683901 -1.55874 2.12132 -2.12132 
C 1.55874 -2.683901 0.795609 -3 0 -3 
C -0.795609 -3 -1.55874 -2.683901 -2.12132 -2.12132 
C -2.683901 -1.55874 -3 -0.795609 -3 0 
C -3 0.795609 -2.683901 1.55874 -2.12132 2.12132 
C -1.55874 2.683901 -0.795609 3 0 3 
z
" id="mc60e25c8b8" style="stroke:#abd0e6;"/>
    </defs>
    <g clip-path="url(#p5390f4f0f0)">
     <use style="fill:#abd0e6;stroke:#abd0e6;" x="256.474872" xlink:href="#mc60e25c8b8" y="157.428634"/>
    </g>
   </g>
   <g id="PathCollection_9">
    <g clip-path="url(#p5390f4f0f0)">
     <use style="fill:#105ba4;stroke:#105ba4;" x="351.949388" xlink:href="#m09a8f29a51" y="327.754889"/>
    </g>
   </g>
   <g id="PathCollection_10">
    <defs>
     <path d="M 0 3 
C 0.795609 3 1.55874 2.683901 2.12132 2.12132 
C 2.683901 1.55874 3 0.795609 3 0 
C 3 -0.795609 2.683901 -1.55874 2.12132 -2.12132 
C 1.55874 -2.683901 0.795609 -3 0 -3 
C -0.795609 -3 -1.55874 -2.683901 -2.12132 -2.12132 
C -2.683901 -1.55874 -3 -0.795609 -3 0 
C -3 0.795609 -2.683901 1.55874 -2.12132 2.12132 
C -1.55874 2.683901 -0.795609 3 0 3 
z
" id="m8d7d7e93c9" style="stroke:#08306b;"/>
    </defs>
    <g clip-path="url(#p5390f4f0f0)">
     <use style="fill:#08306b;stroke:#08306b;" x="22.562309" xlink:href="#m8d7d7e93c9" y="119.578355"/>
    </g>
   </g>
   <g id="PathCollection_11">
    <g clip-path="url(#p5390f4f0f0)">
     <use style="fill:#abd0e6;stroke:#abd0e6;" x="256.474872" xlink:href="#mc60e25c8b8" y="157.428634"/>
    </g>
   </g>
   <g id="PathCollection_12">
    <g clip-path="url(#p5390f4f0f0)">
     <use style="fill:#105ba4;stroke:#105ba4;" x="72.68643" xlink:href="#m09a8f29a51" y="124.30964"/>
    </g>
   </g>
   <g id="PathCollection_13">
    <defs>
     <path d="M 0 3 
C 0.795609 3 1.55874 2.683901 2.12132 2.12132 
C 2.683901 1.55874 3 0.795609 3 0 
C 3 -0.795609 2.683901 -1.55874 2.12132 -2.12132 
C 1.55874 -2.683901 0.795609 -3 0 -3 
C -0.795609 -3 -1.55874 -2.683901 -2.12132 -2.12132 
C -2.683901 -1.55874 -3 -0.795609 -3 0 
C -3 0.795609 -2.683901 1.55874 -2.12132 2.12132 
C -1.55874 2.683901 -0.795609 3 0 3 
z
" id="mf2ae83d81e" style="stroke:#d6e6f4;"/>
    </defs>
    <g clip-path="url(#p5390f4f0f0)">
     <use style="fill:#d6e6f4;stroke:#d6e6f4;" x="277.956638" xlink:href="#mf2ae83d81e" y="124.30964"/>
    </g>
   </g>
   <g id="PathCollection_14">
    <g clip-path="url(#p5390f4f0f0)">
     <use style="fill:#d6e6f4;stroke:#d6e6f4;" x="254.088009" xlink:href="#mf2ae83d81e" y="155.062991"/>
    </g>
   </g>
   <g id="PathCollection_15">
    <g clip-path="url(#p5390f4f0f0)">
     <use style="fill:#3787c0;stroke:#3787c0;" x="394.91292" xlink:href="#mc45be567b4" y="17.85573"/>
    </g>
   </g>
   <g id="PathCollection_16">
    <g clip-path="url(#p5390f4f0f0)">
     <use style="fill:#4f9bcb;stroke:#4f9bcb;" x="311.372719" xlink:href="#m06646aeed9" y="240.226119"/>
    </g>
   </g>
   <g id="PathCollection_17">
    <defs>
     <path d="M 0 3 
C 0.795609 3 1.55874 2.683901 2.12132 2.12132 
C 2.683901 1.55874 3 0.795609 3 0 
C 3 -0.795609 2.683901 -1.55874 2.12132 -2.12132 
C 1.55874 -2.683901 0.795609 -3 0 -3 
C -0.795609 -3 -1.55874 -2.683901 -2.12132 -2.12132 
C -2.683901 -1.55874 -3 -0.795609 -3 0 
C -3 0.795609 -2.683901 1.55874 -2.12132 2.12132 
C -1.55874 2.683901 -0.795609 3 0 3 
z
" id="m0539e270d0" style="stroke:#2070b4;"/>
    </defs>
    <g clip-path="url(#p5390f4f0f0)">
     <use style="fill:#2070b4;stroke:#2070b4;" x="437.876452" xlink:href="#m0539e270d0" y="50.974724"/>
    </g>
   </g>
   <g id="matplotlib.axis_1">
    <g id="xtick_1">
     <g id="line2d_1">
      <defs>
       <path d="M 0 0 
L 0 3.5 
" id="m388f669c42" style="stroke:#000000;stroke-width:0.8;"/>
      </defs>
      <g>
       <use style="stroke:#000000;stroke-width:0.8;" x="29.722898" xlink:href="#m388f669c42" y="345.6"/>
      </g>
     </g>
     <g id="text_1">
      <text style="font-family:DejaVu Sans;font-size:10px;font-style:normal;font-weight:normal;text-anchor:middle;" transform="rotate(-0, 29.722898, 360.198437)" x="29.722898" y="360.198437">−0.100</text>
     </g>
    </g>
    <g id="xtick_2">
     <g id="line2d_2">
      <g>
       <use style="stroke:#000000;stroke-width:0.8;" x="89.39447" xlink:href="#m388f669c42" y="345.6"/>
      </g>
     </g>
     <g id="text_2">
      <text style="font-family:DejaVu Sans;font-size:10px;font-style:normal;font-weight:normal;text-anchor:middle;" transform="rotate(-0, 89.39447, 360.198437)" x="89.39447" y="360.198437">−0.075</text>
     </g>
    </g>
    <g id="xtick_3">
     <g id="line2d_3">
      <g>
       <use style="stroke:#000000;stroke-width:0.8;" x="149.066042" xlink:href="#m388f669c42" y="345.6"/>
      </g>
     </g>
     <g id="text_3">
      <text style="font-family:DejaVu Sans;font-size:10px;font-style:normal;font-weight:normal;text-anchor:middle;" transform="rotate(-0, 149.066042, 360.198437)" x="149.066042" y="360.198437">−0.050</text>
     </g>
    </g>
    <g id="xtick_4">
     <g id="line2d_4">
      <g>
       <use style="stroke:#000000;stroke-width:0.8;" x="208.737614" xlink:href="#m388f669c42" y="345.6"/>
      </g>
     </g>
     <g id="text_4">
      <text style="font-family:DejaVu Sans;font-size:10px;font-style:normal;font-weight:normal;text-anchor:middle;" transform="rotate(-0, 208.737614, 360.198437)" x="208.737614" y="360.198437">−0.025</text>
     </g>
    </g>
    <g id="xtick_5">
     <g id="line2d_5">
      <g>
       <use style="stroke:#000000;stroke-width:0.8;" x="268.409187" xlink:href="#m388f669c42" y="345.6"/>
      </g>
     </g>
     <g id="text_5">
      <text style="font-family:DejaVu Sans;font-size:10px;font-style:normal;font-weight:normal;text-anchor:middle;" transform="rotate(-0, 268.409187, 360.198437)" x="268.409187" y="360.198437">0.000</text>
     </g>
    </g>
    <g id="xtick_6">
     <g id="line2d_6">
      <g>
       <use style="stroke:#000000;stroke-width:0.8;" x="328.080759" xlink:href="#m388f669c42" y="345.6"/>
      </g>
     </g>
     <g id="text_6">
      <text style="font-family:DejaVu Sans;font-size:10px;font-style:normal;font-weight:normal;text-anchor:middle;" transform="rotate(-0, 328.080759, 360.198437)" x="328.080759" y="360.198437">0.025</text>
     </g>
    </g>
    <g id="xtick_7">
     <g id="line2d_7">
      <g>
       <use style="stroke:#000000;stroke-width:0.8;" x="387.752331" xlink:href="#m388f669c42" y="345.6"/>
      </g>
     </g>
     <g id="text_7">
      <text style="font-family:DejaVu Sans;font-size:10px;font-style:normal;font-weight:normal;text-anchor:middle;" transform="rotate(-0, 387.752331, 360.198437)" x="387.752331" y="360.198437">0.050</text>
     </g>
    </g>
    <g id="xtick_8">
     <g id="line2d_8">
      <g>
       <use style="stroke:#000000;stroke-width:0.8;" x="447.423903" xlink:href="#m388f669c42" y="345.6"/>
      </g>
     </g>
     <g id="text_8">
      <text style="font-family:DejaVu Sans;font-size:10px;font-style:normal;font-weight:normal;text-anchor:middle;" transform="rotate(-0, 447.423903, 360.198437)" x="447.423903" y="360.198437">0.075</text>
     </g>
    </g>
   </g>
   <g id="matplotlib.axis_2">
    <g id="ytick_1">
     <g id="line2d_9">
      <defs>
       <path d="M 0 0 
L -3.5 0 
" id="m87e3c60bba" style="stroke:#000000;stroke-width:0.8;"/>
      </defs>
      <g>
       <use style="stroke:#000000;stroke-width:0.8;" x="0" xlink:href="#m87e3c60bba" y="301.732822"/>
      </g>
     </g>
     <g id="text_9">
      <text style="font-family:DejaVu Sans;font-size:10px;font-style:normal;font-weight:normal;text-anchor:end;" transform="rotate(-0, -7, 305.532041)" x="-7" y="305.532041">−0.06</text>
     </g>
    </g>
    <g id="ytick_2">
     <g id="line2d_10">
      <g>
       <use style="stroke:#000000;stroke-width:0.8;" x="0" xlink:href="#m87e3c60bba" y="254.419973"/>
      </g>
     </g>
     <g id="text_10">
      <text style="font-family:DejaVu Sans;font-size:10px;font-style:normal;font-weight:normal;text-anchor:end;" transform="rotate(-0, -7, 258.219192)" x="-7" y="258.219192">−0.04</text>
     </g>
    </g>
    <g id="ytick_3">
     <g id="line2d_11">
      <g>
       <use style="stroke:#000000;stroke-width:0.8;" x="0" xlink:href="#m87e3c60bba" y="207.107125"/>
      </g>
     </g>
     <g id="text_11">
      <text style="font-family:DejaVu Sans;font-size:10px;font-style:normal;font-weight:normal;text-anchor:end;" transform="rotate(-0, -7, 210.906344)" x="-7" y="210.906344">−0.02</text>
     </g>
    </g>
    <g id="ytick_4">
     <g id="line2d_12">
      <g>
       <use style="stroke:#000000;stroke-width:0.8;" x="0" xlink:href="#m87e3c60bba" y="159.794276"/>
      </g>
     </g>
     <g id="text_12">
      <text style="font-family:DejaVu Sans;font-size:10px;font-style:normal;font-weight:normal;text-anchor:end;" transform="rotate(-0, -7, 163.593495)" x="-7" y="163.593495">0.00</text>
     </g>
    </g>
    <g id="ytick_5">
     <g id="line2d_13">
      <g>
       <use style="stroke:#000000;stroke-width:0.8;" x="0" xlink:href="#m87e3c60bba" y="112.481428"/>
      </g>
     </g>
     <g id="text_13">
      <text style="font-family:DejaVu Sans;font-size:10px;font-style:normal;font-weight:normal;text-anchor:end;" transform="rotate(-0, -7, 116.280646)" x="-7" y="116.280646">0.02</text>
     </g>
    </g>
    <g id="ytick_6">
     <g id="line2d_14">
      <g>
       <use style="stroke:#000000;stroke-width:0.8;" x="0" xlink:href="#m87e3c60bba" y="65.168579"/>
      </g>
     </g>
     <g id="text_14">
      <text style="font-family:DejaVu Sans;font-size:10px;font-style:normal;font-weight:normal;text-anchor:end;" transform="rotate(-0, -7, 68.967798)" x="-7" y="68.967798">0.04</text>
     </g>
    </g>
    <g id="ytick_7">
     <g id="line2d_15">
      <g>
       <use style="stroke:#000000;stroke-width:0.8;" x="0" xlink:href="#m87e3c60bba" y="17.85573"/>
      </g>
     </g>
     <g id="text_15">
      <text style="font-family:DejaVu Sans;font-size:10px;font-style:normal;font-weight:normal;text-anchor:end;" transform="rotate(-0, -7, 21.654949)" x="-7" y="21.654949">0.06</text>
     </g>
    </g>
   </g>
   <g id="line2d_16">
    <path clip-path="url(#p5390f4f0f0)" d="M 277.956638 124.30964 
" style="fill:none;stroke:#ff0000;stroke-linecap:square;stroke-width:1.5;"/>
    <defs>
     <path d="M 0 2.5 
C 0.663008 2.5 1.29895 2.236584 1.767767 1.767767 
C 2.236584 1.29895 2.5 0.663008 2.5 0 
C 2.5 -0.663008 2.236584 -1.29895 1.767767 -1.767767 
C 1.29895 -2.236584 0.663008 -2.5 0 -2.5 
C -0.663008 -2.5 -1.29895 -2.236584 -1.767767 -1.767767 
C -2.236584 -1.29895 -2.5 -0.663008 -2.5 0 
C -2.5 0.663008 -2.236584 1.29895 -1.767767 1.767767 
C -1.29895 2.236584 -0.663008 2.5 0 2.5 
z
" id="mb3e76b59af" style="stroke:#ff0000;"/>
    </defs>
    <g clip-path="url(#p5390f4f0f0)">
     <use style="fill:#ff0000;stroke:#ff0000;" x="277.956638" xlink:href="#mb3e76b59af" y="124.30964"/>
    </g>
   </g>
   <g id="line2d_17">
    <path clip-path="url(#p5390f4f0f0)" d="M 254.088009 155.062991 
" style="fill:none;stroke:#ff0000;stroke-linecap:square;stroke-width:1.5;"/>
    <g clip-path="url(#p5390f4f0f0)">
     <use style="fill:#ff0000;stroke:#ff0000;" x="254.088009" xlink:href="#mb3e76b59af" y="155.062991"/>
    </g>
   </g>
   <g id="patch_3">
    <path d="M 0 345.6 
L 0 0 
" style="fill:none;stroke:#000000;stroke-linecap:square;stroke-linejoin:miter;stroke-width:0.8;"/>
   </g>
   <g id="patch_4">
    <path d="M 460.8 345.6 
L 460.8 0 
" style="fill:none;stroke:#000000;stroke-linecap:square;stroke-linejoin:miter;stroke-width:0.8;"/>
   </g>
   <g id="patch_5">
    <path d="M 0 345.6 
L 460.8 345.6 
" style="fill:none;stroke:#000000;stroke-linecap:square;stroke-linejoin:miter;stroke-width:0.8;"/>
   </g>
   <g id="patch_6">
    <path d="M 0 0 
L 460.8 0 
" style="fill:none;stroke:#000000;stroke-linecap:square;stroke-linejoin:miter;stroke-width:0.8;"/>
   </g>
   <g id="text_16">
    <text style="fill:#ff0000;font-family:DejaVu Sans;font-size:8px;font-style:normal;font-weight:normal;text-anchor:start;" transform="rotate(-0, 277.956638, 124.30964)" x="277.956638" y="124.30964">_naive</text>
   </g>
   <g id="text_17">
    <text style="fill:#ff0000;font-family:DejaVu Sans;font-size:8px;font-style:normal;font-weight:normal;text-anchor:start;" transform="rotate(-0, 254.088009, 155.062991)" x="254.088009" y="155.062991">_consensus</text>
   </g>
  </g>
  <g id="text_18">
   <text style="font-family:DejaVu Sans;font-size:15px;font-style:normal;font-weight:normal;text-anchor:start;" transform="rotate(-0, 184.32, 34.56)" x="184.32" y="34.56">MDS comp. (index 7 size 19)</text>
  </g>
 </g>
 <defs>
  <clipPath id="p5390f4f0f0">
   <rect height="345.6" width="460.8" x="0" y="0"/>
  </clipPath>
 </defs>
</svg>
