<?xml version="1.0" encoding="utf-8" standalone="no"?>
<!DOCTYPE svg PUBLIC "-//W3C//DTD SVG 1.1//EN"
  "http://www.w3.org/Graphics/SVG/1.1/DTD/svg11.dtd">
<!-- Created with matplotlib (http://matplotlib.org/) -->
<svg height="345.6pt" version="1.1" viewBox="0 0 460.8 345.6" width="460.8pt" xmlns="http://www.w3.org/2000/svg" xmlns:xlink="http://www.w3.org/1999/xlink">
 <defs>
  <style type="text/css">
*{stroke-linecap:butt;stroke-linejoin:round;}
  </style>
 </defs>
 <g id="figure_1">
  <g id="patch_1">
   <path d="M 0 345.6 
L 460.8 345.6 
L 460.8 0 
L 0 0 
z
" style="fill:#ffffff;"/>
  </g>
  <g id="axes_1">
   <g id="patch_2">
    <path d="M 0 345.6 
L 460.8 345.6 
L 460.8 0 
L 0 0 
z
" style="fill:#ffffff;"/>
   </g>
   <g id="PathCollection_1">
    <defs>
     <path d="M 0 3 
C 0.795609 3 1.55874 2.683901 2.12132 2.12132 
C 2.683901 1.55874 3 0.795609 3 0 
C 3 -0.795609 2.683901 -1.55874 2.12132 -2.12132 
C 1.55874 -2.683901 0.795609 -3 0 -3 
C -0.795609 -3 -1.55874 -2.683901 -2.12132 -2.12132 
C -2.683901 -1.55874 -3 -0.795609 -3 0 
C -3 0.795609 -2.683901 1.55874 -2.12132 2.12132 
C -1.55874 2.683901 -0.795609 3 0 3 
z
" id="m619db5e78d" style="stroke:#9dcae1;"/>
    </defs>
    <g clip-path="url(#p98e26d3c0a)">
     <use style="fill:#9dcae1;stroke:#9dcae1;" x="291.480396" xlink:href="#m619db5e78d" y="131.172672"/>
    </g>
   </g>
   <g id="PathCollection_2">
    <g clip-path="url(#p98e26d3c0a)">
     <use style="fill:#9dcae1;stroke:#9dcae1;" x="296.830037" xlink:href="#m619db5e78d" y="111.678906"/>
    </g>
   </g>
   <g id="PathCollection_3">
    <defs>
     <path d="M 0 3 
C 0.795609 3 1.55874 2.683901 2.12132 2.12132 
C 2.683901 1.55874 3 0.795609 3 0 
C 3 -0.795609 2.683901 -1.55874 2.12132 -2.12132 
C 1.55874 -2.683901 0.795609 -3 0 -3 
C -0.795609 -3 -1.55874 -2.683901 -2.12132 -2.12132 
C -2.683901 -1.55874 -3 -0.795609 -3 0 
C -3 0.795609 -2.683901 1.55874 -2.12132 2.12132 
C -1.55874 2.683901 -0.795609 3 0 3 
z
" id="m098a10d7f8" style="stroke:#3181bd;"/>
    </defs>
    <g clip-path="url(#p98e26d3c0a)">
     <use style="fill:#3181bd;stroke:#3181bd;" x="296.830037" xlink:href="#m098a10d7f8" y="124.08403"/>
    </g>
   </g>
   <g id="PathCollection_4">
    <g clip-path="url(#p98e26d3c0a)">
     <use style="fill:#9dcae1;stroke:#9dcae1;" x="280.781112" xlink:href="#m619db5e78d" y="127.628351"/>
    </g>
   </g>
   <g id="PathCollection_5">
    <defs>
     <path d="M 0 3 
C 0.795609 3 1.55874 2.683901 2.12132 2.12132 
C 2.683901 1.55874 3 0.795609 3 0 
C 3 -0.795609 2.683901 -1.55874 2.12132 -2.12132 
C 1.55874 -2.683901 0.795609 -3 0 -3 
C -0.795609 -3 -1.55874 -2.683901 -2.12132 -2.12132 
C -2.683901 -1.55874 -3 -0.795609 -3 0 
C -3 0.795609 -2.683901 1.55874 -2.12132 2.12132 
C -1.55874 2.683901 -0.795609 3 0 3 
z
" id="m933b2405a5" style="stroke:#4f9bcb;"/>
    </defs>
    <g clip-path="url(#p98e26d3c0a)">
     <use style="fill:#4f9bcb;stroke:#4f9bcb;" x="202.319702" xlink:href="#m933b2405a5" y="264.084711"/>
    </g>
   </g>
   <g id="PathCollection_6">
    <g clip-path="url(#p98e26d3c0a)">
     <use style="fill:#3181bd;stroke:#3181bd;" x="175.571494" xlink:href="#m098a10d7f8" y="154.210759"/>
    </g>
   </g>
   <g id="PathCollection_7">
    <g clip-path="url(#p98e26d3c0a)">
     <use style="fill:#3181bd;stroke:#3181bd;" x="303.962893" xlink:href="#m098a10d7f8" y="74.463536"/>
    </g>
   </g>
   <g id="PathCollection_8">
    <g clip-path="url(#p98e26d3c0a)">
     <use style="fill:#4f9bcb;stroke:#4f9bcb;" x="318.228604" xlink:href="#m933b2405a5" y="83.324338"/>
    </g>
   </g>
   <g id="PathCollection_9">
    <g clip-path="url(#p98e26d3c0a)">
     <use style="fill:#3181bd;stroke:#3181bd;" x="284.34754" xlink:href="#m098a10d7f8" y="108.134585"/>
    </g>
   </g>
   <g id="PathCollection_10">
    <g clip-path="url(#p98e26d3c0a)">
     <use style="fill:#4f9bcb;stroke:#4f9bcb;" x="307.52932" xlink:href="#m933b2405a5" y="131.172672"/>
    </g>
   </g>
   <g id="PathCollection_11">
    <g clip-path="url(#p98e26d3c0a)">
     <use style="fill:#3181bd;stroke:#3181bd;" x="405.606083" xlink:href="#m098a10d7f8" y="253.451748"/>
    </g>
   </g>
   <g id="PathCollection_12">
    <g clip-path="url(#p98e26d3c0a)">
     <use style="fill:#3181bd;stroke:#3181bd;" x="293.263609" xlink:href="#m098a10d7f8" y="111.678906"/>
    </g>
   </g>
   <g id="PathCollection_13">
    <defs>
     <path d="M 0 3 
C 0.795609 3 1.55874 2.683901 2.12132 2.12132 
C 2.683901 1.55874 3 0.795609 3 0 
C 3 -0.795609 2.683901 -1.55874 2.12132 -2.12132 
C 1.55874 -2.683901 0.795609 -3 0 -3 
C -0.795609 -3 -1.55874 -2.683901 -2.12132 -2.12132 
C -2.683901 -1.55874 -3 -0.795609 -3 0 
C -3 0.795609 -2.683901 1.55874 -2.12132 2.12132 
C -1.55874 2.683901 -0.795609 3 0 3 
z
" id="mf505db2e7c" style="stroke:#1966ad;"/>
    </defs>
    <g clip-path="url(#p98e26d3c0a)">
     <use style="fill:#1966ad;stroke:#1966ad;" x="303.962893" xlink:href="#mf505db2e7c" y="79.780017"/>
    </g>
   </g>
   <g id="PathCollection_14">
    <defs>
     <path d="M 0 3 
C 0.795609 3 1.55874 2.683901 2.12132 2.12132 
C 2.683901 1.55874 3 0.795609 3 0 
C 3 -0.795609 2.683901 -1.55874 2.12132 -2.12132 
C 1.55874 -2.683901 0.795609 -3 0 -3 
C -0.795609 -3 -1.55874 -2.683901 -2.12132 -2.12132 
C -2.683901 -1.55874 -3 -0.795609 -3 0 
C -3 0.795609 -2.683901 1.55874 -2.12132 2.12132 
C -1.55874 2.683901 -0.795609 3 0 3 
z
" id="mc8697e0747" style="stroke:#74b3d8;"/>
    </defs>
    <g clip-path="url(#p98e26d3c0a)">
     <use style="fill:#74b3d8;stroke:#74b3d8;" x="312.878962" xlink:href="#mc8697e0747" y="97.501622"/>
    </g>
   </g>
   <g id="PathCollection_15">
    <g clip-path="url(#p98e26d3c0a)">
     <use style="fill:#4f9bcb;stroke:#4f9bcb;" x="271.865043" xlink:href="#m933b2405a5" y="132.944833"/>
    </g>
   </g>
   <g id="PathCollection_16">
    <g clip-path="url(#p98e26d3c0a)">
     <use style="fill:#3181bd;stroke:#3181bd;" x="291.480396" xlink:href="#m098a10d7f8" y="33.703844"/>
    </g>
   </g>
   <g id="PathCollection_17">
    <g clip-path="url(#p98e26d3c0a)">
     <use style="fill:#3181bd;stroke:#3181bd;" x="161.305783" xlink:href="#m098a10d7f8" y="161.299401"/>
    </g>
   </g>
   <g id="PathCollection_18">
    <g clip-path="url(#p98e26d3c0a)">
     <use style="fill:#1966ad;stroke:#1966ad;" x="280.781112" xlink:href="#mf505db2e7c" y="78.007857"/>
    </g>
   </g>
   <g id="PathCollection_19">
    <defs>
     <path d="M 0 3 
C 0.795609 3 1.55874 2.683901 2.12132 2.12132 
C 2.683901 1.55874 3 0.795609 3 0 
C 3 -0.795609 2.683901 -1.55874 2.12132 -2.12132 
C 1.55874 -2.683901 0.795609 -3 0 -3 
C -0.795609 -3 -1.55874 -2.683901 -2.12132 -2.12132 
C -2.683901 -1.55874 -3 -0.795609 -3 0 
C -3 0.795609 -2.683901 1.55874 -2.12132 2.12132 
C -1.55874 2.683901 -0.795609 3 0 3 
z
" id="m40c3ddf674" style="stroke:#08306b;"/>
    </defs>
    <g clip-path="url(#p98e26d3c0a)">
     <use style="fill:#08306b;stroke:#08306b;" x="22.215101" xlink:href="#m40c3ddf674" y="308.388723"/>
    </g>
   </g>
   <g id="PathCollection_20">
    <g clip-path="url(#p98e26d3c0a)">
     <use style="fill:#74b3d8;stroke:#74b3d8;" x="303.962893" xlink:href="#mc8697e0747" y="99.273783"/>
    </g>
   </g>
   <g id="PathCollection_21">
    <g clip-path="url(#p98e26d3c0a)">
     <use style="fill:#9dcae1;stroke:#9dcae1;" x="207.669344" xlink:href="#m619db5e78d" y="161.299401"/>
    </g>
   </g>
   <g id="PathCollection_22">
    <g clip-path="url(#p98e26d3c0a)">
     <use style="fill:#1966ad;stroke:#1966ad;" x="428.787864" xlink:href="#mf505db2e7c" y="315.477365"/>
    </g>
   </g>
   <g id="PathCollection_23">
    <g clip-path="url(#p98e26d3c0a)">
     <use style="fill:#3181bd;stroke:#3181bd;" x="400.256442" xlink:href="#m098a10d7f8" y="271.173353"/>
    </g>
   </g>
   <g id="PathCollection_24">
    <g clip-path="url(#p98e26d3c0a)">
     <use style="fill:#4f9bcb;stroke:#4f9bcb;" x="287.913968" xlink:href="#m933b2405a5" y="106.362425"/>
    </g>
   </g>
   <g id="PathCollection_25">
    <g clip-path="url(#p98e26d3c0a)">
     <use style="fill:#3181bd;stroke:#3181bd;" x="141.69043" xlink:href="#m098a10d7f8" y="164.843722"/>
    </g>
   </g>
   <g id="PathCollection_26">
    <g clip-path="url(#p98e26d3c0a)">
     <use style="fill:#4f9bcb;stroke:#4f9bcb;" x="270.081829" xlink:href="#m933b2405a5" y="124.08403"/>
    </g>
   </g>
   <g id="PathCollection_27">
    <defs>
     <path d="M 0 3 
C 0.795609 3 1.55874 2.683901 2.12132 2.12132 
C 2.683901 1.55874 3 0.795609 3 0 
C 3 -0.795609 2.683901 -1.55874 2.12132 -2.12132 
C 1.55874 -2.683901 0.795609 -3 0 -3 
C -0.795609 -3 -1.55874 -2.683901 -2.12132 -2.12132 
C -2.683901 -1.55874 -3 -0.795609 -3 0 
C -3 0.795609 -2.683901 1.55874 -2.12132 2.12132 
C -1.55874 2.683901 -0.795609 3 0 3 
z
" id="md61a8d729c" style="stroke:#bfd8ed;"/>
    </defs>
    <g clip-path="url(#p98e26d3c0a)">
     <use style="fill:#bfd8ed;stroke:#bfd8ed;" x="275.431471" xlink:href="#md61a8d729c" y="148.894277"/>
    </g>
   </g>
   <g id="PathCollection_28">
    <g clip-path="url(#p98e26d3c0a)">
     <use style="fill:#4f9bcb;stroke:#4f9bcb;" x="291.480396" xlink:href="#m933b2405a5" y="115.223227"/>
    </g>
   </g>
   <g id="PathCollection_29">
    <g clip-path="url(#p98e26d3c0a)">
     <use style="fill:#1966ad;stroke:#1966ad;" x="123.858292" xlink:href="#mf505db2e7c" y="164.843722"/>
    </g>
   </g>
   <g id="PathCollection_30">
    <g clip-path="url(#p98e26d3c0a)">
     <use style="fill:#4f9bcb;stroke:#4f9bcb;" x="237.983979" xlink:href="#m933b2405a5" y="152.438598"/>
    </g>
   </g>
   <g id="PathCollection_31">
    <defs>
     <path d="M 0 3 
C 0.795609 3 1.55874 2.683901 2.12132 2.12132 
C 2.683901 1.55874 3 0.795609 3 0 
C 3 -0.795609 2.683901 -1.55874 2.12132 -2.12132 
C 1.55874 -2.683901 0.795609 -3 0 -3 
C -0.795609 -3 -1.55874 -2.683901 -2.12132 -2.12132 
C -2.683901 -1.55874 -3 -0.795609 -3 0 
C -3 0.795609 -2.683901 1.55874 -2.12132 2.12132 
C -1.55874 2.683901 -0.795609 3 0 3 
z
" id="m994a92af13" style="stroke:#084b93;"/>
    </defs>
    <g clip-path="url(#p98e26d3c0a)">
     <use style="fill:#084b93;stroke:#084b93;" x="364.592164" xlink:href="#m994a92af13" y="163.071561"/>
    </g>
   </g>
   <g id="PathCollection_32">
    <g clip-path="url(#p98e26d3c0a)">
     <use style="fill:#4f9bcb;stroke:#4f9bcb;" x="348.54324" xlink:href="#m933b2405a5" y="184.337487"/>
    </g>
   </g>
   <g id="PathCollection_33">
    <g clip-path="url(#p98e26d3c0a)">
     <use style="fill:#4f9bcb;stroke:#4f9bcb;" x="286.130754" xlink:href="#m933b2405a5" y="124.08403"/>
    </g>
   </g>
   <g id="PathCollection_34">
    <g clip-path="url(#p98e26d3c0a)">
     <use style="fill:#084b93;stroke:#084b93;" x="435.920719" xlink:href="#m994a92af13" y="322.566008"/>
    </g>
   </g>
   <g id="PathCollection_35">
    <g clip-path="url(#p98e26d3c0a)">
     <use style="fill:#74b3d8;stroke:#74b3d8;" x="323.578245" xlink:href="#mc8697e0747" y="196.742611"/>
    </g>
   </g>
   <g id="PathCollection_36">
    <g clip-path="url(#p98e26d3c0a)">
     <use style="fill:#4f9bcb;stroke:#4f9bcb;" x="362.808951" xlink:href="#m933b2405a5" y="303.072242"/>
    </g>
   </g>
   <g id="PathCollection_37">
    <defs>
     <path d="M 0 3 
C 0.795609 3 1.55874 2.683901 2.12132 2.12132 
C 2.683901 1.55874 3 0.795609 3 0 
C 3 -0.795609 2.683901 -1.55874 2.12132 -2.12132 
C 1.55874 -2.683901 0.795609 -3 0 -3 
C -0.795609 -3 -1.55874 -2.683901 -2.12132 -2.12132 
C -2.683901 -1.55874 -3 -0.795609 -3 0 
C -3 0.795609 -2.683901 1.55874 -2.12132 2.12132 
C -1.55874 2.683901 -0.795609 3 0 3 
z
" id="m7bd74b2505" style="stroke:#d6e6f4;"/>
    </defs>
    <g clip-path="url(#p98e26d3c0a)">
     <use style="fill:#d6e6f4;stroke:#d6e6f4;" x="275.431471" xlink:href="#m7bd74b2505" y="152.438598"/>
    </g>
   </g>
   <g id="PathCollection_38">
    <g clip-path="url(#p98e26d3c0a)">
     <use style="fill:#3181bd;stroke:#3181bd;" x="309.312534" xlink:href="#m098a10d7f8" y="104.590264"/>
    </g>
   </g>
   <g id="PathCollection_39">
    <g clip-path="url(#p98e26d3c0a)">
     <use style="fill:#1966ad;stroke:#1966ad;" x="321.795031" xlink:href="#mf505db2e7c" y="47.881128"/>
    </g>
   </g>
   <g id="PathCollection_40">
    <g clip-path="url(#p98e26d3c0a)">
     <use style="fill:#4f9bcb;stroke:#4f9bcb;" x="291.480396" xlink:href="#m933b2405a5" y="56.74193"/>
    </g>
   </g>
   <g id="PathCollection_41">
    <g clip-path="url(#p98e26d3c0a)">
     <use style="fill:#4f9bcb;stroke:#4f9bcb;" x="309.312534" xlink:href="#m933b2405a5" y="78.007857"/>
    </g>
   </g>
   <g id="PathCollection_42">
    <g clip-path="url(#p98e26d3c0a)">
     <use style="fill:#084b93;stroke:#084b93;" x="141.69043" xlink:href="#m994a92af13" y="253.451748"/>
    </g>
   </g>
   <g id="PathCollection_43">
    <g clip-path="url(#p98e26d3c0a)">
     <use style="fill:#9dcae1;stroke:#9dcae1;" x="286.130754" xlink:href="#m619db5e78d" y="131.172672"/>
    </g>
   </g>
   <g id="PathCollection_44">
    <g clip-path="url(#p98e26d3c0a)">
     <use style="fill:#08306b;stroke:#08306b;" x="437.703933" xlink:href="#m40c3ddf674" y="184.337487"/>
    </g>
   </g>
   <g id="PathCollection_45">
    <g clip-path="url(#p98e26d3c0a)">
     <use style="fill:#74b3d8;stroke:#74b3d8;" x="286.130754" xlink:href="#mc8697e0747" y="78.007857"/>
    </g>
   </g>
   <g id="PathCollection_46">
    <g clip-path="url(#p98e26d3c0a)">
     <use style="fill:#4f9bcb;stroke:#4f9bcb;" x="380.641089" xlink:href="#m933b2405a5" y="255.223908"/>
    </g>
   </g>
   <g id="PathCollection_47">
    <g clip-path="url(#p98e26d3c0a)">
     <use style="fill:#084b93;stroke:#084b93;" x="282.564326" xlink:href="#m994a92af13" y="115.223227"/>
    </g>
   </g>
   <g id="PathCollection_48">
    <g clip-path="url(#p98e26d3c0a)">
     <use style="fill:#74b3d8;stroke:#74b3d8;" x="287.913968" xlink:href="#mc8697e0747" y="76.235696"/>
    </g>
   </g>
   <g id="PathCollection_49">
    <g clip-path="url(#p98e26d3c0a)">
     <use style="fill:#4f9bcb;stroke:#4f9bcb;" x="289.697182" xlink:href="#m933b2405a5" y="58.514091"/>
    </g>
   </g>
   <g id="PathCollection_50">
    <g clip-path="url(#p98e26d3c0a)">
     <use style="fill:#4f9bcb;stroke:#4f9bcb;" x="182.704349" xlink:href="#m933b2405a5" y="136.489154"/>
    </g>
   </g>
   <g id="PathCollection_51">
    <g clip-path="url(#p98e26d3c0a)">
     <use style="fill:#084b93;stroke:#084b93;" x="309.312534" xlink:href="#m994a92af13" y="46.108967"/>
    </g>
   </g>
   <g id="PathCollection_52">
    <g clip-path="url(#p98e26d3c0a)">
     <use style="fill:#4f9bcb;stroke:#4f9bcb;" x="286.130754" xlink:href="#m933b2405a5" y="124.08403"/>
    </g>
   </g>
   <g id="PathCollection_53">
    <g clip-path="url(#p98e26d3c0a)">
     <use style="fill:#74b3d8;stroke:#74b3d8;" x="271.865043" xlink:href="#mc8697e0747" y="92.185141"/>
    </g>
   </g>
   <g id="PathCollection_54">
    <g clip-path="url(#p98e26d3c0a)">
     <use style="fill:#3181bd;stroke:#3181bd;" x="380.641089" xlink:href="#m098a10d7f8" y="327.882489"/>
    </g>
   </g>
   <g id="PathCollection_55">
    <g clip-path="url(#p98e26d3c0a)">
     <use style="fill:#4f9bcb;stroke:#4f9bcb;" x="182.704349" xlink:href="#m933b2405a5" y="132.944833"/>
    </g>
   </g>
   <g id="PathCollection_56">
    <g clip-path="url(#p98e26d3c0a)">
     <use style="fill:#74b3d8;stroke:#74b3d8;" x="200.536488" xlink:href="#mc8697e0747" y="180.793166"/>
    </g>
   </g>
   <g id="PathCollection_57">
    <g clip-path="url(#p98e26d3c0a)">
     <use style="fill:#084b93;stroke:#084b93;" x="56.096165" xlink:href="#m994a92af13" y="297.75576"/>
    </g>
   </g>
   <g id="PathCollection_58">
    <g clip-path="url(#p98e26d3c0a)">
     <use style="fill:#1966ad;stroke:#1966ad;" x="287.913968" xlink:href="#mf505db2e7c" y="17.754399"/>
    </g>
   </g>
   <g id="PathCollection_59">
    <g clip-path="url(#p98e26d3c0a)">
     <use style="fill:#4f9bcb;stroke:#4f9bcb;" x="320.011818" xlink:href="#m933b2405a5" y="150.666438"/>
    </g>
   </g>
   <g id="matplotlib.axis_1">
    <g id="xtick_1">
     <g id="line2d_1">
      <defs>
       <path d="M 0 0 
L 0 3.5 
" id="m8544b9f128" style="stroke:#000000;stroke-width:0.8;"/>
      </defs>
      <g>
       <use style="stroke:#000000;stroke-width:0.8;" x="13.299032" xlink:href="#m8544b9f128" y="345.6"/>
      </g>
     </g>
     <g id="text_1">
      <text style="font-family:DejaVu Sans;font-size:10px;font-style:normal;font-weight:normal;text-anchor:middle;" transform="rotate(-0, 13.299032, 360.198437)" x="13.299032" y="360.198437">−0.15</text>
     </g>
    </g>
    <g id="xtick_2">
     <g id="line2d_2">
      <g>
       <use style="stroke:#000000;stroke-width:0.8;" x="102.459725" xlink:href="#m8544b9f128" y="345.6"/>
      </g>
     </g>
     <g id="text_2">
      <text style="font-family:DejaVu Sans;font-size:10px;font-style:normal;font-weight:normal;text-anchor:middle;" transform="rotate(-0, 102.459725, 360.198437)" x="102.459725" y="360.198437">−0.10</text>
     </g>
    </g>
    <g id="xtick_3">
     <g id="line2d_3">
      <g>
       <use style="stroke:#000000;stroke-width:0.8;" x="191.620419" xlink:href="#m8544b9f128" y="345.6"/>
      </g>
     </g>
     <g id="text_3">
      <text style="font-family:DejaVu Sans;font-size:10px;font-style:normal;font-weight:normal;text-anchor:middle;" transform="rotate(-0, 191.620419, 360.198437)" x="191.620419" y="360.198437">−0.05</text>
     </g>
    </g>
    <g id="xtick_4">
     <g id="line2d_4">
      <g>
       <use style="stroke:#000000;stroke-width:0.8;" x="280.781112" xlink:href="#m8544b9f128" y="345.6"/>
      </g>
     </g>
     <g id="text_4">
      <text style="font-family:DejaVu Sans;font-size:10px;font-style:normal;font-weight:normal;text-anchor:middle;" transform="rotate(-0, 280.781112, 360.198437)" x="280.781112" y="360.198437">0.00</text>
     </g>
    </g>
    <g id="xtick_5">
     <g id="line2d_5">
      <g>
       <use style="stroke:#000000;stroke-width:0.8;" x="369.941806" xlink:href="#m8544b9f128" y="345.6"/>
      </g>
     </g>
     <g id="text_5">
      <text style="font-family:DejaVu Sans;font-size:10px;font-style:normal;font-weight:normal;text-anchor:middle;" transform="rotate(-0, 369.941806, 360.198437)" x="369.941806" y="360.198437">0.05</text>
     </g>
    </g>
    <g id="xtick_6">
     <g id="line2d_6">
      <g>
       <use style="stroke:#000000;stroke-width:0.8;" x="459.1025" xlink:href="#m8544b9f128" y="345.6"/>
      </g>
     </g>
     <g id="text_6">
      <text style="font-family:DejaVu Sans;font-size:10px;font-style:normal;font-weight:normal;text-anchor:middle;" transform="rotate(-0, 459.1025, 360.198437)" x="459.1025" y="360.198437">0.10</text>
     </g>
    </g>
   </g>
   <g id="matplotlib.axis_2">
    <g id="ytick_1">
     <g id="line2d_7">
      <defs>
       <path d="M 0 0 
L -3.5 0 
" id="m4cb84961ed" style="stroke:#000000;stroke-width:0.8;"/>
      </defs>
      <g>
       <use style="stroke:#000000;stroke-width:0.8;" x="0" xlink:href="#m4cb84961ed" y="326.110329"/>
      </g>
     </g>
     <g id="text_7">
      <text style="font-family:DejaVu Sans;font-size:10px;font-style:normal;font-weight:normal;text-anchor:end;" transform="rotate(-0, -7, 329.909547)" x="-7" y="329.909547">−0.100</text>
     </g>
    </g>
    <g id="ytick_2">
     <g id="line2d_8">
      <g>
       <use style="stroke:#000000;stroke-width:0.8;" x="0" xlink:href="#m4cb84961ed" y="281.806316"/>
      </g>
     </g>
     <g id="text_8">
      <text style="font-family:DejaVu Sans;font-size:10px;font-style:normal;font-weight:normal;text-anchor:end;" transform="rotate(-0, -7, 285.605534)" x="-7" y="285.605534">−0.075</text>
     </g>
    </g>
    <g id="ytick_3">
     <g id="line2d_9">
      <g>
       <use style="stroke:#000000;stroke-width:0.8;" x="0" xlink:href="#m4cb84961ed" y="237.502303"/>
      </g>
     </g>
     <g id="text_9">
      <text style="font-family:DejaVu Sans;font-size:10px;font-style:normal;font-weight:normal;text-anchor:end;" transform="rotate(-0, -7, 241.301522)" x="-7" y="241.301522">−0.050</text>
     </g>
    </g>
    <g id="ytick_4">
     <g id="line2d_10">
      <g>
       <use style="stroke:#000000;stroke-width:0.8;" x="0" xlink:href="#m4cb84961ed" y="193.19829"/>
      </g>
     </g>
     <g id="text_10">
      <text style="font-family:DejaVu Sans;font-size:10px;font-style:normal;font-weight:normal;text-anchor:end;" transform="rotate(-0, -7, 196.997509)" x="-7" y="196.997509">−0.025</text>
     </g>
    </g>
    <g id="ytick_5">
     <g id="line2d_11">
      <g>
       <use style="stroke:#000000;stroke-width:0.8;" x="0" xlink:href="#m4cb84961ed" y="148.894277"/>
      </g>
     </g>
     <g id="text_11">
      <text style="font-family:DejaVu Sans;font-size:10px;font-style:normal;font-weight:normal;text-anchor:end;" transform="rotate(-0, -7, 152.693496)" x="-7" y="152.693496">0.000</text>
     </g>
    </g>
    <g id="ytick_6">
     <g id="line2d_12">
      <g>
       <use style="stroke:#000000;stroke-width:0.8;" x="0" xlink:href="#m4cb84961ed" y="104.590264"/>
      </g>
     </g>
     <g id="text_12">
      <text style="font-family:DejaVu Sans;font-size:10px;font-style:normal;font-weight:normal;text-anchor:end;" transform="rotate(-0, -7, 108.389483)" x="-7" y="108.389483">0.025</text>
     </g>
    </g>
    <g id="ytick_7">
     <g id="line2d_13">
      <g>
       <use style="stroke:#000000;stroke-width:0.8;" x="0" xlink:href="#m4cb84961ed" y="60.286252"/>
      </g>
     </g>
     <g id="text_13">
      <text style="font-family:DejaVu Sans;font-size:10px;font-style:normal;font-weight:normal;text-anchor:end;" transform="rotate(-0, -7, 64.08547)" x="-7" y="64.08547">0.050</text>
     </g>
    </g>
    <g id="ytick_8">
     <g id="line2d_14">
      <g>
       <use style="stroke:#000000;stroke-width:0.8;" x="0" xlink:href="#m4cb84961ed" y="15.982239"/>
      </g>
     </g>
     <g id="text_14">
      <text style="font-family:DejaVu Sans;font-size:10px;font-style:normal;font-weight:normal;text-anchor:end;" transform="rotate(-0, -7, 19.781457)" x="-7" y="19.781457">0.075</text>
     </g>
    </g>
   </g>
   <g id="line2d_15">
    <path clip-path="url(#p98e26d3c0a)" d="M 275.431471 152.438598 
" style="fill:none;stroke:#ff0000;stroke-linecap:square;stroke-width:1.5;"/>
    <defs>
     <path d="M 0 2.5 
C 0.663008 2.5 1.29895 2.236584 1.767767 1.767767 
C 2.236584 1.29895 2.5 0.663008 2.5 0 
C 2.5 -0.663008 2.236584 -1.29895 1.767767 -1.767767 
C 1.29895 -2.236584 0.663008 -2.5 0 -2.5 
C -0.663008 -2.5 -1.29895 -2.236584 -1.767767 -1.767767 
C -2.236584 -1.29895 -2.5 -0.663008 -2.5 0 
C -2.5 0.663008 -2.236584 1.29895 -1.767767 1.767767 
C -1.29895 2.236584 -0.663008 2.5 0 2.5 
z
" id="mb2640ed759" style="stroke:#ff0000;"/>
    </defs>
    <g clip-path="url(#p98e26d3c0a)">
     <use style="fill:#ff0000;stroke:#ff0000;" x="275.431471" xlink:href="#mb2640ed759" y="152.438598"/>
    </g>
   </g>
   <g id="patch_3">
    <path d="M 0 345.6 
L 0 0 
" style="fill:none;stroke:#000000;stroke-linecap:square;stroke-linejoin:miter;stroke-width:0.8;"/>
   </g>
   <g id="patch_4">
    <path d="M 460.8 345.6 
L 460.8 0 
" style="fill:none;stroke:#000000;stroke-linecap:square;stroke-linejoin:miter;stroke-width:0.8;"/>
   </g>
   <g id="patch_5">
    <path d="M 0 345.6 
L 460.8 345.6 
" style="fill:none;stroke:#000000;stroke-linecap:square;stroke-linejoin:miter;stroke-width:0.8;"/>
   </g>
   <g id="patch_6">
    <path d="M 0 0 
L 460.8 0 
" style="fill:none;stroke:#000000;stroke-linecap:square;stroke-linejoin:miter;stroke-width:0.8;"/>
   </g>
   <g id="text_15">
    <text style="fill:#ff0000;font-family:DejaVu Sans;font-size:8px;font-style:normal;font-weight:normal;text-anchor:start;" transform="rotate(-0, 275.431471, 152.438598)" x="275.431471" y="152.438598">_consensus</text>
   </g>
  </g>
  <g id="text_16">
   <text style="font-family:DejaVu Sans;font-size:15px;font-style:normal;font-weight:normal;text-anchor:start;" transform="rotate(-0, 184.32, 34.56)" x="184.32" y="34.56">MDS comp. (index 4 size 71)</text>
  </g>
 </g>
 <defs>
  <clipPath id="p98e26d3c0a">
   <rect height="345.6" width="460.8" x="0" y="0"/>
  </clipPath>
 </defs>
</svg>
