<?xml version="1.0" encoding="utf-8" standalone="no"?>
<!DOCTYPE svg PUBLIC "-//W3C//DTD SVG 1.1//EN"
  "http://www.w3.org/Graphics/SVG/1.1/DTD/svg11.dtd">
<!-- Created with matplotlib (http://matplotlib.org/) -->
<svg height="345.6pt" version="1.1" viewBox="0 0 460.8 345.6" width="460.8pt" xmlns="http://www.w3.org/2000/svg" xmlns:xlink="http://www.w3.org/1999/xlink">
 <defs>
  <style type="text/css">
*{stroke-linecap:butt;stroke-linejoin:round;}
  </style>
 </defs>
 <g id="figure_1">
  <g id="patch_1">
   <path d="M 0 345.6 
L 460.8 345.6 
L 460.8 0 
L 0 0 
z
" style="fill:#ffffff;"/>
  </g>
  <g id="axes_1">
   <g id="patch_2">
    <path d="M 0 345.6 
L 460.8 345.6 
L 460.8 0 
L 0 0 
z
" style="fill:#ffffff;"/>
   </g>
   <g id="PathCollection_1">
    <defs>
     <path d="M 0 3 
C 0.795609 3 1.55874 2.683901 2.12132 2.12132 
C 2.683901 1.55874 3 0.795609 3 0 
C 3 -0.795609 2.683901 -1.55874 2.12132 -2.12132 
C 1.55874 -2.683901 0.795609 -3 0 -3 
C -0.795609 -3 -1.55874 -2.683901 -2.12132 -2.12132 
C -2.683901 -1.55874 -3 -0.795609 -3 0 
C -3 0.795609 -2.683901 1.55874 -2.12132 2.12132 
C -1.55874 2.683901 -0.795609 3 0 3 
z
" id="me66f7267ec" style="stroke:#115ca5;"/>
    </defs>
    <g clip-path="url(#p70c96fd2df)">
     <use style="fill:#115ca5;stroke:#115ca5;" x="44.356161" xlink:href="#me66f7267ec" y="107.944727"/>
    </g>
   </g>
   <g id="PathCollection_2">
    <defs>
     <path d="M 0 3 
C 0.795609 3 1.55874 2.683901 2.12132 2.12132 
C 2.683901 1.55874 3 0.795609 3 0 
C 3 -0.795609 2.683901 -1.55874 2.12132 -2.12132 
C 1.55874 -2.683901 0.795609 -3 0 -3 
C -0.795609 -3 -1.55874 -2.683901 -2.12132 -2.12132 
C -2.683901 -1.55874 -3 -0.795609 -3 0 
C -3 0.795609 -2.683901 1.55874 -2.12132 2.12132 
C -1.55874 2.683901 -0.795609 3 0 3 
z
" id="m0d8f2ea8ef" style="stroke:#2272b6;"/>
    </defs>
    <g clip-path="url(#p70c96fd2df)">
     <use style="fill:#2272b6;stroke:#2272b6;" x="202.135996" xlink:href="#m0d8f2ea8ef" y="136.662619"/>
    </g>
   </g>
   <g id="PathCollection_3">
    <g clip-path="url(#p70c96fd2df)">
     <use style="fill:#2272b6;stroke:#2272b6;" x="244.371516" xlink:href="#m0d8f2ea8ef" y="109.446316"/>
    </g>
   </g>
   <g id="PathCollection_4">
    <defs>
     <path d="M 0 3 
C 0.795609 3 1.55874 2.683901 2.12132 2.12132 
C 2.683901 1.55874 3 0.795609 3 0 
C 3 -0.795609 2.683901 -1.55874 2.12132 -2.12132 
C 1.55874 -2.683901 0.795609 -3 0 -3 
C -0.795609 -3 -1.55874 -2.683901 -2.12132 -2.12132 
C -2.683901 -1.55874 -3 -0.795609 -3 0 
C -3 0.795609 -2.683901 1.55874 -2.12132 2.12132 
C -1.55874 2.683901 -0.795609 3 0 3 
z
" id="m0c3c71530a" style="stroke:#1460a8;"/>
    </defs>
    <g clip-path="url(#p70c96fd2df)">
     <use style="fill:#1460a8;stroke:#1460a8;" x="139.989446" xlink:href="#m0c3c71530a" y="181.897992"/>
    </g>
   </g>
   <g id="PathCollection_5">
    <defs>
     <path d="M 0 3 
C 0.795609 3 1.55874 2.683901 2.12132 2.12132 
C 2.683901 1.55874 3 0.795609 3 0 
C 3 -0.795609 2.683901 -1.55874 2.12132 -2.12132 
C 1.55874 -2.683901 0.795609 -3 0 -3 
C -0.795609 -3 -1.55874 -2.683901 -2.12132 -2.12132 
C -2.683901 -1.55874 -3 -0.795609 -3 0 
C -3 0.795609 -2.683901 1.55874 -2.12132 2.12132 
C -1.55874 2.683901 -0.795609 3 0 3 
z
" id="m931055e5c5" style="stroke:#2676b8;"/>
    </defs>
    <g clip-path="url(#p70c96fd2df)">
     <use style="fill:#2676b8;stroke:#2676b8;" x="301.087786" xlink:href="#m931055e5c5" y="280.064383"/>
    </g>
   </g>
   <g id="PathCollection_6">
    <defs>
     <path d="M 0 3 
C 0.795609 3 1.55874 2.683901 2.12132 2.12132 
C 2.683901 1.55874 3 0.795609 3 0 
C 3 -0.795609 2.683901 -1.55874 2.12132 -2.12132 
C 1.55874 -2.683901 0.795609 -3 0 -3 
C -0.795609 -3 -1.55874 -2.683901 -2.12132 -2.12132 
C -2.683901 -1.55874 -3 -0.795609 -3 0 
C -3 0.795609 -2.683901 1.55874 -2.12132 2.12132 
C -1.55874 2.683901 -0.795609 3 0 3 
z
" id="mf6a9d4983e" style="stroke:#3989c1;"/>
    </defs>
    <g clip-path="url(#p70c96fd2df)">
     <use style="fill:#3989c1;stroke:#3989c1;" x="175.587955" xlink:href="#mf6a9d4983e" y="131.407057"/>
    </g>
   </g>
   <g id="PathCollection_7">
    <g clip-path="url(#p70c96fd2df)">
     <use style="fill:#2676b8;stroke:#2676b8;" x="371.078076" xlink:href="#m931055e5c5" y="78.100642"/>
    </g>
   </g>
   <g id="PathCollection_8">
    <defs>
     <path d="M 0 3 
C 0.795609 3 1.55874 2.683901 2.12132 2.12132 
C 2.683901 1.55874 3 0.795609 3 0 
C 3 -0.795609 2.683901 -1.55874 2.12132 -2.12132 
C 1.55874 -2.683901 0.795609 -3 0 -3 
C -0.795609 -3 -1.55874 -2.683901 -2.12132 -2.12132 
C -2.683901 -1.55874 -3 -0.795609 -3 0 
C -3 0.795609 -2.683901 1.55874 -2.12132 2.12132 
C -1.55874 2.683901 -0.795609 3 0 3 
z
" id="m70d6734e7f" style="stroke:#1865ac;"/>
    </defs>
    <g clip-path="url(#p70c96fd2df)">
     <use style="fill:#1865ac;stroke:#1865ac;" x="354.787233" xlink:href="#m70d6734e7f" y="181.522595"/>
    </g>
   </g>
   <g id="PathCollection_9">
    <defs>
     <path d="M 0 3 
C 0.795609 3 1.55874 2.683901 2.12132 2.12132 
C 2.683901 1.55874 3 0.795609 3 0 
C 3 -0.795609 2.683901 -1.55874 2.12132 -2.12132 
C 1.55874 -2.683901 0.795609 -3 0 -3 
C -0.795609 -3 -1.55874 -2.683901 -2.12132 -2.12132 
C -2.683901 -1.55874 -3 -0.795609 -3 0 
C -3 0.795609 -2.683901 1.55874 -2.12132 2.12132 
C -1.55874 2.683901 -0.795609 3 0 3 
z
" id="m291b2688f1" style="stroke:#08468b;"/>
    </defs>
    <g clip-path="url(#p70c96fd2df)">
     <use style="fill:#08468b;stroke:#08468b;" x="359.61415" xlink:href="#m291b2688f1" y="155.432483"/>
    </g>
   </g>
   <g id="PathCollection_10">
    <defs>
     <path d="M 0 3 
C 0.795609 3 1.55874 2.683901 2.12132 2.12132 
C 2.683901 1.55874 3 0.795609 3 0 
C 3 -0.795609 2.683901 -1.55874 2.12132 -2.12132 
C 1.55874 -2.683901 0.795609 -3 0 -3 
C -0.795609 -3 -1.55874 -2.683901 -2.12132 -2.12132 
C -2.683901 -1.55874 -3 -0.795609 -3 0 
C -3 0.795609 -2.683901 1.55874 -2.12132 2.12132 
C -1.55874 2.683901 -0.795609 3 0 3 
z
" id="m58678c6eba" style="stroke:#084f99;"/>
    </defs>
    <g clip-path="url(#p70c96fd2df)">
     <use style="fill:#084f99;stroke:#084f99;" x="416.632102" xlink:href="#m58678c6eba" y="328.490632"/>
    </g>
   </g>
   <g id="PathCollection_11">
    <defs>
     <path d="M 0 3 
C 0.795609 3 1.55874 2.683901 2.12132 2.12132 
C 2.683901 1.55874 3 0.795609 3 0 
C 3 -0.795609 2.683901 -1.55874 2.12132 -2.12132 
C 1.55874 -2.683901 0.795609 -3 0 -3 
C -0.795609 -3 -1.55874 -2.683901 -2.12132 -2.12132 
C -2.683901 -1.55874 -3 -0.795609 -3 0 
C -3 0.795609 -2.683901 1.55874 -2.12132 2.12132 
C -1.55874 2.683901 -0.795609 3 0 3 
z
" id="m60c75bbf54" style="stroke:#2c7cba;"/>
    </defs>
    <g clip-path="url(#p70c96fd2df)">
     <use style="fill:#2c7cba;stroke:#2c7cba;" x="324.317322" xlink:href="#m60c75bbf54" y="199.166267"/>
    </g>
   </g>
   <g id="PathCollection_12">
    <g clip-path="url(#p70c96fd2df)">
     <use style="fill:#2c7cba;stroke:#2c7cba;" x="290.528906" xlink:href="#m60c75bbf54" y="203.483336"/>
    </g>
   </g>
   <g id="PathCollection_13">
    <defs>
     <path d="M 0 3 
C 0.795609 3 1.55874 2.683901 2.12132 2.12132 
C 2.683901 1.55874 3 0.795609 3 0 
C 3 -0.795609 2.683901 -1.55874 2.12132 -2.12132 
C 1.55874 -2.683901 0.795609 -3 0 -3 
C -0.795609 -3 -1.55874 -2.683901 -2.12132 -2.12132 
C -2.683901 -1.55874 -3 -0.795609 -3 0 
C -3 0.795609 -2.683901 1.55874 -2.12132 2.12132 
C -1.55874 2.683901 -0.795609 3 0 3 
z
" id="mcda66608e4" style="stroke:#0a539e;"/>
    </defs>
    <g clip-path="url(#p70c96fd2df)">
     <use style="fill:#0a539e;stroke:#0a539e;" x="402.754716" xlink:href="#mcda66608e4" y="219.813118"/>
    </g>
   </g>
   <g id="PathCollection_14">
    <g clip-path="url(#p70c96fd2df)">
     <use style="fill:#2c7cba;stroke:#2c7cba;" x="395.816024" xlink:href="#m60c75bbf54" y="41.499407"/>
    </g>
   </g>
   <g id="PathCollection_15">
    <g clip-path="url(#p70c96fd2df)">
     <use style="fill:#2272b6;stroke:#2272b6;" x="355.993962" xlink:href="#m0d8f2ea8ef" y="182.085691"/>
    </g>
   </g>
   <g id="PathCollection_16">
    <g clip-path="url(#p70c96fd2df)">
     <use style="fill:#1460a8;stroke:#1460a8;" x="382.542003" xlink:href="#m0c3c71530a" y="154.681689"/>
    </g>
   </g>
   <g id="PathCollection_17">
    <g clip-path="url(#p70c96fd2df)">
     <use style="fill:#2272b6;stroke:#2272b6;" x="279.064979" xlink:href="#m0d8f2ea8ef" y="142.481277"/>
    </g>
   </g>
   <g id="PathCollection_18">
    <g clip-path="url(#p70c96fd2df)">
     <use style="fill:#2272b6;stroke:#2272b6;" x="254.327032" xlink:href="#m0d8f2ea8ef" y="238.95838"/>
    </g>
   </g>
   <g id="PathCollection_19">
    <g clip-path="url(#p70c96fd2df)">
     <use style="fill:#2c7cba;stroke:#2c7cba;" x="401.84967" xlink:href="#m60c75bbf54" y="41.311708"/>
    </g>
   </g>
   <g id="PathCollection_20">
    <defs>
     <path d="M 0 3 
C 0.795609 3 1.55874 2.683901 2.12132 2.12132 
C 2.683901 1.55874 3 0.795609 3 0 
C 3 -0.795609 2.683901 -1.55874 2.12132 -2.12132 
C 1.55874 -2.683901 0.795609 -3 0 -3 
C -0.795609 -3 -1.55874 -2.683901 -2.12132 -2.12132 
C -2.683901 -1.55874 -3 -0.795609 -3 0 
C -3 0.795609 -2.683901 1.55874 -2.12132 2.12132 
C -1.55874 2.683901 -0.795609 3 0 3 
z
" id="me7f2fb73a8" style="stroke:#1b69af;"/>
    </defs>
    <g clip-path="url(#p70c96fd2df)">
     <use style="fill:#1b69af;stroke:#1b69af;" x="181.923283" xlink:href="#me7f2fb73a8" y="138.915003"/>
    </g>
   </g>
   <g id="PathCollection_21">
    <defs>
     <path d="M 0 3 
C 0.795609 3 1.55874 2.683901 2.12132 2.12132 
C 2.683901 1.55874 3 0.795609 3 0 
C 3 -0.795609 2.683901 -1.55874 2.12132 -2.12132 
C 1.55874 -2.683901 0.795609 -3 0 -3 
C -0.795609 -3 -1.55874 -2.683901 -2.12132 -2.12132 
C -2.683901 -1.55874 -3 -0.795609 -3 0 
C -3 0.795609 -2.683901 1.55874 -2.12132 2.12132 
C -1.55874 2.683901 -0.795609 3 0 3 
z
" id="mdf145d5bdd" style="stroke:#3080bd;"/>
    </defs>
    <g clip-path="url(#p70c96fd2df)">
     <use style="fill:#3080bd;stroke:#3080bd;" x="301.992833" xlink:href="#mdf145d5bdd" y="90.113355"/>
    </g>
   </g>
   <g id="PathCollection_22">
    <g clip-path="url(#p70c96fd2df)">
     <use style="fill:#115ca5;stroke:#115ca5;" x="162.313935" xlink:href="#me66f7267ec" y="171.011471"/>
    </g>
   </g>
   <g id="PathCollection_23">
    <defs>
     <path d="M 0 3 
C 0.795609 3 1.55874 2.683901 2.12132 2.12132 
C 2.683901 1.55874 3 0.795609 3 0 
C 3 -0.795609 2.683901 -1.55874 2.12132 -2.12132 
C 1.55874 -2.683901 0.795609 -3 0 -3 
C -0.795609 -3 -1.55874 -2.683901 -2.12132 -2.12132 
C -2.683901 -1.55874 -3 -0.795609 -3 0 
C -3 0.795609 -2.683901 1.55874 -2.12132 2.12132 
C -1.55874 2.683901 -0.795609 3 0 3 
z
" id="m1ea01423d9" style="stroke:#3484bf;"/>
    </defs>
    <g clip-path="url(#p70c96fd2df)">
     <use style="fill:#3484bf;stroke:#3484bf;" x="368.664618" xlink:href="#m1ea01423d9" y="149.238428"/>
    </g>
   </g>
   <g id="PathCollection_24">
    <g clip-path="url(#p70c96fd2df)">
     <use style="fill:#115ca5;stroke:#115ca5;" x="342.719942" xlink:href="#me66f7267ec" y="197.101582"/>
    </g>
   </g>
   <g id="PathCollection_25">
    <g clip-path="url(#p70c96fd2df)">
     <use style="fill:#2272b6;stroke:#2272b6;" x="104.089254" xlink:href="#m0d8f2ea8ef" y="141.918181"/>
    </g>
   </g>
   <g id="PathCollection_26">
    <g clip-path="url(#p70c96fd2df)">
     <use style="fill:#3484bf;stroke:#3484bf;" x="427.190982" xlink:href="#m1ea01423d9" y="59.706175"/>
    </g>
   </g>
   <g id="PathCollection_27">
    <g clip-path="url(#p70c96fd2df)">
     <use style="fill:#2272b6;stroke:#2272b6;" x="131.542342" xlink:href="#m0d8f2ea8ef" y="162.940429"/>
    </g>
   </g>
   <g id="PathCollection_28">
    <defs>
     <path d="M 0 3 
C 0.795609 3 1.55874 2.683901 2.12132 2.12132 
C 2.683901 1.55874 3 0.795609 3 0 
C 3 -0.795609 2.683901 -1.55874 2.12132 -2.12132 
C 1.55874 -2.683901 0.795609 -3 0 -3 
C -0.795609 -3 -1.55874 -2.683901 -2.12132 -2.12132 
C -2.683901 -1.55874 -3 -0.795609 -3 0 
C -3 0.795609 -2.683901 1.55874 -2.12132 2.12132 
C -1.55874 2.683901 -0.795609 3 0 3 
z
" id="m8c88f4bdec" style="stroke:#1e6db2;"/>
    </defs>
    <g clip-path="url(#p70c96fd2df)">
     <use style="fill:#1e6db2;stroke:#1e6db2;" x="221.745345" xlink:href="#m8c88f4bdec" y="163.503525"/>
    </g>
   </g>
   <g id="PathCollection_29">
    <defs>
     <path d="M 0 3 
C 0.795609 3 1.55874 2.683901 2.12132 2.12132 
C 2.683901 1.55874 3 0.795609 3 0 
C 3 -0.795609 2.683901 -1.55874 2.12132 -2.12132 
C 1.55874 -2.683901 0.795609 -3 0 -3 
C -0.795609 -3 -1.55874 -2.683901 -2.12132 -2.12132 
C -2.683901 -1.55874 -3 -0.795609 -3 0 
C -3 0.795609 -2.683901 1.55874 -2.12132 2.12132 
C -1.55874 2.683901 -0.795609 3 0 3 
z
" id="mc2feef040d" style="stroke:#0e58a2;"/>
    </defs>
    <g clip-path="url(#p70c96fd2df)">
     <use style="fill:#0e58a2;stroke:#0e58a2;" x="347.546858" xlink:href="#mc2feef040d" y="217.560734"/>
    </g>
   </g>
   <g id="PathCollection_30">
    <g clip-path="url(#p70c96fd2df)">
     <use style="fill:#1b69af;stroke:#1b69af;" x="271.22124" xlink:href="#me7f2fb73a8" y="154.49399"/>
    </g>
   </g>
   <g id="PathCollection_31">
    <g clip-path="url(#p70c96fd2df)">
     <use style="fill:#0a539e;stroke:#0a539e;" x="315.266854" xlink:href="#mcda66608e4" y="33.991461"/>
    </g>
   </g>
   <g id="PathCollection_32">
    <g clip-path="url(#p70c96fd2df)">
     <use style="fill:#2272b6;stroke:#2272b6;" x="254.02535" xlink:href="#m0d8f2ea8ef" y="174.390046"/>
    </g>
   </g>
   <g id="PathCollection_33">
    <g clip-path="url(#p70c96fd2df)">
     <use style="fill:#2676b8;stroke:#2676b8;" x="245.578246" xlink:href="#m931055e5c5" y="121.083632"/>
    </g>
   </g>
   <g id="PathCollection_34">
    <g clip-path="url(#p70c96fd2df)">
     <use style="fill:#1e6db2;stroke:#1e6db2;" x="196.404033" xlink:href="#m8c88f4bdec" y="116.391165"/>
    </g>
   </g>
   <g id="PathCollection_35">
    <g clip-path="url(#p70c96fd2df)">
     <use style="fill:#1460a8;stroke:#1460a8;" x="376.81004" xlink:href="#m0c3c71530a" y="48.819654"/>
    </g>
   </g>
   <g id="PathCollection_36">
    <g clip-path="url(#p70c96fd2df)">
     <use style="fill:#2272b6;stroke:#2272b6;" x="22.936719" xlink:href="#m0d8f2ea8ef" y="137.413414"/>
    </g>
   </g>
   <g id="PathCollection_37">
    <defs>
     <path d="M 0 3 
C 0.795609 3 1.55874 2.683901 2.12132 2.12132 
C 2.683901 1.55874 3 0.795609 3 0 
C 3 -0.795609 2.683901 -1.55874 2.12132 -2.12132 
C 1.55874 -2.683901 0.795609 -3 0 -3 
C -0.795609 -3 -1.55874 -2.683901 -2.12132 -2.12132 
C -2.683901 -1.55874 -3 -0.795609 -3 0 
C -3 0.795609 -2.683901 1.55874 -2.12132 2.12132 
C -1.55874 2.683901 -0.795609 3 0 3 
z
" id="mc2bd302ae1" style="stroke:#5da5d1;"/>
    </defs>
    <g clip-path="url(#p70c96fd2df)">
     <use style="fill:#5da5d1;stroke:#5da5d1;" x="281.176755" xlink:href="#mc2bd302ae1" y="155.432483"/>
    </g>
   </g>
   <g id="PathCollection_38">
    <g clip-path="url(#p70c96fd2df)">
     <use style="fill:#3080bd;stroke:#3080bd;" x="47.976348" xlink:href="#mdf145d5bdd" y="150.740017"/>
    </g>
   </g>
   <g id="PathCollection_39">
    <defs>
     <path d="M 0 3 
C 0.795609 3 1.55874 2.683901 2.12132 2.12132 
C 2.683901 1.55874 3 0.795609 3 0 
C 3 -0.795609 2.683901 -1.55874 2.12132 -2.12132 
C 1.55874 -2.683901 0.795609 -3 0 -3 
C -0.795609 -3 -1.55874 -2.683901 -2.12132 -2.12132 
C -2.683901 -1.55874 -3 -0.795609 -3 0 
C -3 0.795609 -2.683901 1.55874 -2.12132 2.12132 
C -1.55874 2.683901 -0.795609 3 0 3 
z
" id="mf0282615a4" style="stroke:#3d8dc4;"/>
    </defs>
    <g clip-path="url(#p70c96fd2df)">
     <use style="fill:#3d8dc4;stroke:#3d8dc4;" x="292.037318" xlink:href="#mf0282615a4" y="91.427246"/>
    </g>
   </g>
   <g id="PathCollection_40">
    <g clip-path="url(#p70c96fd2df)">
     <use style="fill:#3080bd;stroke:#3080bd;" x="230.192449" xlink:href="#mdf145d5bdd" y="184.150376"/>
    </g>
   </g>
   <g id="PathCollection_41">
    <g clip-path="url(#p70c96fd2df)">
     <use style="fill:#08468b;stroke:#08468b;" x="373.793217" xlink:href="#m291b2688f1" y="93.116534"/>
    </g>
   </g>
   <g id="PathCollection_42">
    <defs>
     <path d="M 0 3 
C 0.795609 3 1.55874 2.683901 2.12132 2.12132 
C 2.683901 1.55874 3 0.795609 3 0 
C 3 -0.795609 2.683901 -1.55874 2.12132 -2.12132 
C 1.55874 -2.683901 0.795609 -3 0 -3 
C -0.795609 -3 -1.55874 -2.683901 -2.12132 -2.12132 
C -2.683901 -1.55874 -3 -0.795609 -3 0 
C -3 0.795609 -2.683901 1.55874 -2.12132 2.12132 
C -1.55874 2.683901 -0.795609 3 0 3 
z
" id="m06ad2a8b33" style="stroke:#083877;"/>
    </defs>
    <g clip-path="url(#p70c96fd2df)">
     <use style="fill:#083877;stroke:#083877;" x="404.263128" xlink:href="#m06ad2a8b33" y="148.112236"/>
    </g>
   </g>
   <g id="PathCollection_43">
    <g clip-path="url(#p70c96fd2df)">
     <use style="fill:#0a539e;stroke:#0a539e;" x="137.575987" xlink:href="#mcda66608e4" y="152.992401"/>
    </g>
   </g>
   <g id="PathCollection_44">
    <g clip-path="url(#p70c96fd2df)">
     <use style="fill:#2c7cba;stroke:#2c7cba;" x="314.663489" xlink:href="#m60c75bbf54" y="174.202348"/>
    </g>
   </g>
   <g id="PathCollection_45">
    <g clip-path="url(#p70c96fd2df)">
     <use style="fill:#1460a8;stroke:#1460a8;" x="208.471324" xlink:href="#m0c3c71530a" y="120.708234"/>
    </g>
   </g>
   <g id="PathCollection_46">
    <g clip-path="url(#p70c96fd2df)">
     <use style="fill:#1865ac;stroke:#1865ac;" x="320.998817" xlink:href="#m70d6734e7f" y="284.193753"/>
    </g>
   </g>
   <g id="PathCollection_47">
    <g clip-path="url(#p70c96fd2df)">
     <use style="fill:#2676b8;stroke:#2676b8;" x="339.401436" xlink:href="#m931055e5c5" y="171.949964"/>
    </g>
   </g>
   <g id="PathCollection_48">
    <g clip-path="url(#p70c96fd2df)">
     <use style="fill:#1b69af;stroke:#1b69af;" x="376.508358" xlink:href="#me7f2fb73a8" y="174.014649"/>
    </g>
   </g>
   <g id="PathCollection_49">
    <g clip-path="url(#p70c96fd2df)">
     <use style="fill:#0e58a2;stroke:#0e58a2;" x="348.753587" xlink:href="#mc2feef040d" y="189.405938"/>
    </g>
   </g>
   <g id="PathCollection_50">
    <g clip-path="url(#p70c96fd2df)">
     <use style="fill:#1e6db2;stroke:#1e6db2;" x="381.335274" xlink:href="#m8c88f4bdec" y="194.473801"/>
    </g>
   </g>
   <g id="PathCollection_51">
    <g clip-path="url(#p70c96fd2df)">
     <use style="fill:#2676b8;stroke:#2676b8;" x="210.281418" xlink:href="#m931055e5c5" y="103.064562"/>
    </g>
   </g>
   <g id="PathCollection_52">
    <g clip-path="url(#p70c96fd2df)">
     <use style="fill:#1460a8;stroke:#1460a8;" x="286.607036" xlink:href="#m0c3c71530a" y="41.874804"/>
    </g>
   </g>
   <g id="PathCollection_53">
    <g clip-path="url(#p70c96fd2df)">
     <use style="fill:#1e6db2;stroke:#1e6db2;" x="320.395452" xlink:href="#m8c88f4bdec" y="143.795167"/>
    </g>
   </g>
   <g id="PathCollection_54">
    <g clip-path="url(#p70c96fd2df)">
     <use style="fill:#115ca5;stroke:#115ca5;" x="417.838831" xlink:href="#me66f7267ec" y="35.868447"/>
    </g>
   </g>
   <g id="PathCollection_55">
    <g clip-path="url(#p70c96fd2df)">
     <use style="fill:#2c7cba;stroke:#2c7cba;" x="82.368129" xlink:href="#m60c75bbf54" y="140.416592"/>
    </g>
   </g>
   <g id="PathCollection_56">
    <defs>
     <path d="M 0 3 
C 0.795609 3 1.55874 2.683901 2.12132 2.12132 
C 2.683901 1.55874 3 0.795609 3 0 
C 3 -0.795609 2.683901 -1.55874 2.12132 -2.12132 
C 1.55874 -2.683901 0.795609 -3 0 -3 
C -0.795609 -3 -1.55874 -2.683901 -2.12132 -2.12132 
C -2.683901 -1.55874 -3 -0.795609 -3 0 
C -3 0.795609 -2.683901 1.55874 -2.12132 2.12132 
C -1.55874 2.683901 -0.795609 3 0 3 
z
" id="m86c863920b" style="stroke:#529dcc;"/>
    </defs>
    <g clip-path="url(#p70c96fd2df)">
     <use style="fill:#529dcc;stroke:#529dcc;" x="317.37863" xlink:href="#m86c863920b" y="172.325361"/>
    </g>
   </g>
   <g id="PathCollection_57">
    <g clip-path="url(#p70c96fd2df)">
     <use style="fill:#1e6db2;stroke:#1e6db2;" x="344.228353" xlink:href="#m8c88f4bdec" y="286.633835"/>
    </g>
   </g>
   <g id="PathCollection_58">
    <g clip-path="url(#p70c96fd2df)">
     <use style="fill:#2272b6;stroke:#2272b6;" x="414.822008" xlink:href="#m0d8f2ea8ef" y="28.172803"/>
    </g>
   </g>
   <g id="PathCollection_59">
    <g clip-path="url(#p70c96fd2df)">
     <use style="fill:#1e6db2;stroke:#1e6db2;" x="306.518067" xlink:href="#m8c88f4bdec" y="206.298816"/>
    </g>
   </g>
   <g id="PathCollection_60">
    <g clip-path="url(#p70c96fd2df)">
     <use style="fill:#0e58a2;stroke:#0e58a2;" x="367.759571" xlink:href="#mc2feef040d" y="154.869387"/>
    </g>
   </g>
   <g id="PathCollection_61">
    <g clip-path="url(#p70c96fd2df)">
     <use style="fill:#1e6db2;stroke:#1e6db2;" x="317.37863" xlink:href="#m8c88f4bdec" y="94.805821"/>
    </g>
   </g>
   <g id="PathCollection_62">
    <g clip-path="url(#p70c96fd2df)">
     <use style="fill:#0e58a2;stroke:#0e58a2;" x="412.106867" xlink:href="#mc2feef040d" y="319.481098"/>
    </g>
   </g>
   <g id="PathCollection_63">
    <g clip-path="url(#p70c96fd2df)">
     <use style="fill:#3989c1;stroke:#3989c1;" x="191.275434" xlink:href="#mf6a9d4983e" y="134.034838"/>
    </g>
   </g>
   <g id="PathCollection_64">
    <g clip-path="url(#p70c96fd2df)">
     <use style="fill:#0e58a2;stroke:#0e58a2;" x="240.449647" xlink:href="#mc2feef040d" y="142.668976"/>
    </g>
   </g>
   <g id="PathCollection_65">
    <g clip-path="url(#p70c96fd2df)">
     <use style="fill:#3d8dc4;stroke:#3d8dc4;" x="195.197304" xlink:href="#mf0282615a4" y="130.280865"/>
    </g>
   </g>
   <g id="PathCollection_66">
    <g clip-path="url(#p70c96fd2df)">
     <use style="fill:#2c7cba;stroke:#2c7cba;" x="197.007398" xlink:href="#m60c75bbf54" y="164.442018"/>
    </g>
   </g>
   <g id="PathCollection_67">
    <g clip-path="url(#p70c96fd2df)">
     <use style="fill:#3484bf;stroke:#3484bf;" x="386.463873" xlink:href="#m1ea01423d9" y="105.129247"/>
    </g>
   </g>
   <g id="PathCollection_68">
    <defs>
     <path d="M 0 3 
C 0.795609 3 1.55874 2.683901 2.12132 2.12132 
C 2.683901 1.55874 3 0.795609 3 0 
C 3 -0.795609 2.683901 -1.55874 2.12132 -2.12132 
C 1.55874 -2.683901 0.795609 -3 0 -3 
C -0.795609 -3 -1.55874 -2.683901 -2.12132 -2.12132 
C -2.683901 -1.55874 -3 -0.795609 -3 0 
C -3 0.795609 -2.683901 1.55874 -2.12132 2.12132 
C -1.55874 2.683901 -0.795609 3 0 3 
z
" id="mc54fd08152" style="stroke:#4191c6;"/>
    </defs>
    <g clip-path="url(#p70c96fd2df)">
     <use style="fill:#4191c6;stroke:#4191c6;" x="299.579375" xlink:href="#mc54fd08152" y="165.192813"/>
    </g>
   </g>
   <g id="PathCollection_69">
    <g clip-path="url(#p70c96fd2df)">
     <use style="fill:#3484bf;stroke:#3484bf;" x="246.483292" xlink:href="#m1ea01423d9" y="131.219358"/>
    </g>
   </g>
   <g id="PathCollection_70">
    <g clip-path="url(#p70c96fd2df)">
     <use style="fill:#2c7cba;stroke:#2c7cba;" x="270.316193" xlink:href="#m60c75bbf54" y="144.921359"/>
    </g>
   </g>
   <g id="PathCollection_71">
    <g clip-path="url(#p70c96fd2df)">
     <use style="fill:#115ca5;stroke:#115ca5;" x="187.655247" xlink:href="#me66f7267ec" y="185.651965"/>
    </g>
   </g>
   <g id="PathCollection_72">
    <g clip-path="url(#p70c96fd2df)">
     <use style="fill:#0e58a2;stroke:#0e58a2;" x="180.716554" xlink:href="#mc2feef040d" y="195.412294"/>
    </g>
   </g>
   <g id="PathCollection_73">
    <g clip-path="url(#p70c96fd2df)">
     <use style="fill:#3080bd;stroke:#3080bd;" x="300.182739" xlink:href="#mdf145d5bdd" y="171.949964"/>
    </g>
   </g>
   <g id="PathCollection_74">
    <g clip-path="url(#p70c96fd2df)">
     <use style="fill:#529dcc;stroke:#529dcc;" x="217.823475" xlink:href="#m86c863920b" y="164.442018"/>
    </g>
   </g>
   <g id="PathCollection_75">
    <g clip-path="url(#p70c96fd2df)">
     <use style="fill:#2676b8;stroke:#2676b8;" x="41.64102" xlink:href="#m931055e5c5" y="152.429305"/>
    </g>
   </g>
   <g id="PathCollection_76">
    <g clip-path="url(#p70c96fd2df)">
     <use style="fill:#115ca5;stroke:#115ca5;" x="370.17303" xlink:href="#me66f7267ec" y="222.628598"/>
    </g>
   </g>
   <g id="PathCollection_77">
    <g clip-path="url(#p70c96fd2df)">
     <use style="fill:#1865ac;stroke:#1865ac;" x="315.568536" xlink:href="#m70d6734e7f" y="158.060264"/>
    </g>
   </g>
   <g id="PathCollection_78">
    <g clip-path="url(#p70c96fd2df)">
     <use style="fill:#3080bd;stroke:#3080bd;" x="39.830927" xlink:href="#mdf145d5bdd" y="139.853496"/>
    </g>
   </g>
   <g id="PathCollection_79">
    <g clip-path="url(#p70c96fd2df)">
     <use style="fill:#3484bf;stroke:#3484bf;" x="104.692618" xlink:href="#m1ea01423d9" y="137.601112"/>
    </g>
   </g>
   <g id="PathCollection_80">
    <g clip-path="url(#p70c96fd2df)">
     <use style="fill:#3080bd;stroke:#3080bd;" x="278.763297" xlink:href="#mdf145d5bdd" y="155.244785"/>
    </g>
   </g>
   <g id="PathCollection_81">
    <g clip-path="url(#p70c96fd2df)">
     <use style="fill:#1e6db2;stroke:#1e6db2;" x="371.379759" xlink:href="#m8c88f4bdec" y="65.90023"/>
    </g>
   </g>
   <g id="PathCollection_82">
    <g clip-path="url(#p70c96fd2df)">
     <use style="fill:#2c7cba;stroke:#2c7cba;" x="277.85825" xlink:href="#m60c75bbf54" y="165.56821"/>
    </g>
   </g>
   <g id="PathCollection_83">
    <g clip-path="url(#p70c96fd2df)">
     <use style="fill:#3484bf;stroke:#3484bf;" x="280.271708" xlink:href="#m1ea01423d9" y="176.454731"/>
    </g>
   </g>
   <g id="PathCollection_84">
    <defs>
     <path d="M 0 3 
C 0.795609 3 1.55874 2.683901 2.12132 2.12132 
C 2.683901 1.55874 3 0.795609 3 0 
C 3 -0.795609 2.683901 -1.55874 2.12132 -2.12132 
C 1.55874 -2.683901 0.795609 -3 0 -3 
C -0.795609 -3 -1.55874 -2.683901 -2.12132 -2.12132 
C -2.683901 -1.55874 -3 -0.795609 -3 0 
C -3 0.795609 -2.683901 1.55874 -2.12132 2.12132 
C -1.55874 2.683901 -0.795609 3 0 3 
z
" id="md704ba693a" style="stroke:#084b93;"/>
    </defs>
    <g clip-path="url(#p70c96fd2df)">
     <use style="fill:#084b93;stroke:#084b93;" x="426.285935" xlink:href="#md704ba693a" y="243.838544"/>
    </g>
   </g>
   <g id="PathCollection_85">
    <g clip-path="url(#p70c96fd2df)">
     <use style="fill:#084f99;stroke:#084f99;" x="225.667215" xlink:href="#m58678c6eba" y="158.62336"/>
    </g>
   </g>
   <g id="PathCollection_86">
    <defs>
     <path d="M 0 3 
C 0.795609 3 1.55874 2.683901 2.12132 2.12132 
C 2.683901 1.55874 3 0.795609 3 0 
C 3 -0.795609 2.683901 -1.55874 2.12132 -2.12132 
C 1.55874 -2.683901 0.795609 -3 0 -3 
C -0.795609 -3 -1.55874 -2.683901 -2.12132 -2.12132 
C -2.683901 -1.55874 -3 -0.795609 -3 0 
C -3 0.795609 -2.683901 1.55874 -2.12132 2.12132 
C -1.55874 2.683901 -0.795609 3 0 3 
z
" id="m0d3777c936" style="stroke:#084285;"/>
    </defs>
    <g clip-path="url(#p70c96fd2df)">
     <use style="fill:#084285;stroke:#084285;" x="370.17303" xlink:href="#m0d3777c936" y="135.16103"/>
    </g>
   </g>
   <g id="PathCollection_87">
    <g clip-path="url(#p70c96fd2df)">
     <use style="fill:#5da5d1;stroke:#5da5d1;" x="302.89788" xlink:href="#mc2bd302ae1" y="161.626539"/>
    </g>
   </g>
   <g id="PathCollection_88">
    <g clip-path="url(#p70c96fd2df)">
     <use style="fill:#1b69af;stroke:#1b69af;" x="97.753926" xlink:href="#me7f2fb73a8" y="135.16103"/>
    </g>
   </g>
   <g id="PathCollection_89">
    <g clip-path="url(#p70c96fd2df)">
     <use style="fill:#529dcc;stroke:#529dcc;" x="302.89788" xlink:href="#m86c863920b" y="108.695521"/>
    </g>
   </g>
   <g id="PathCollection_90">
    <g clip-path="url(#p70c96fd2df)">
     <use style="fill:#1e6db2;stroke:#1e6db2;" x="406.374904" xlink:href="#m8c88f4bdec" y="20.664857"/>
    </g>
   </g>
   <g id="PathCollection_91">
    <g clip-path="url(#p70c96fd2df)">
     <use style="fill:#2c7cba;stroke:#2c7cba;" x="437.749862" xlink:href="#m60c75bbf54" y="61.207764"/>
    </g>
   </g>
   <g id="PathCollection_92">
    <defs>
     <path d="M 0 3 
C 0.795609 3 1.55874 2.683901 2.12132 2.12132 
C 2.683901 1.55874 3 0.795609 3 0 
C 3 -0.795609 2.683901 -1.55874 2.12132 -2.12132 
C 1.55874 -2.683901 0.795609 -3 0 -3 
C -0.795609 -3 -1.55874 -2.683901 -2.12132 -2.12132 
C -2.683901 -1.55874 -3 -0.795609 -3 0 
C -3 0.795609 -2.683901 1.55874 -2.12132 2.12132 
C -1.55874 2.683901 -0.795609 3 0 3 
z
" id="m66e15d55f2" style="stroke:#d6e6f4;"/>
    </defs>
    <g clip-path="url(#p70c96fd2df)">
     <use style="fill:#d6e6f4;stroke:#d6e6f4;" x="289.020495" xlink:href="#m66e15d55f2" y="147.736839"/>
    </g>
   </g>
   <g id="PathCollection_93">
    <g clip-path="url(#p70c96fd2df)">
     <use style="fill:#1460a8;stroke:#1460a8;" x="416.632102" xlink:href="#m0c3c71530a" y="174.765444"/>
    </g>
   </g>
   <g id="PathCollection_94">
    <g clip-path="url(#p70c96fd2df)">
     <use style="fill:#3080bd;stroke:#3080bd;" x="266.092641" xlink:href="#mdf145d5bdd" y="197.476979"/>
    </g>
   </g>
   <g id="PathCollection_95">
    <g clip-path="url(#p70c96fd2df)">
     <use style="fill:#0a539e;stroke:#0a539e;" x="204.247772" xlink:href="#mcda66608e4" y="170.823772"/>
    </g>
   </g>
   <g id="PathCollection_96">
    <g clip-path="url(#p70c96fd2df)">
     <use style="fill:#1460a8;stroke:#1460a8;" x="349.658634" xlink:href="#m0c3c71530a" y="302.400521"/>
    </g>
   </g>
   <g id="PathCollection_97">
    <g clip-path="url(#p70c96fd2df)">
     <use style="fill:#083877;stroke:#083877;" x="182.526648" xlink:href="#m06ad2a8b33" y="158.811059"/>
    </g>
   </g>
   <g id="PathCollection_98">
    <g clip-path="url(#p70c96fd2df)">
     <use style="fill:#2676b8;stroke:#2676b8;" x="213.901606" xlink:href="#m931055e5c5" y="173.451553"/>
    </g>
   </g>
   <g id="PathCollection_99">
    <defs>
     <path d="M 0 3 
C 0.795609 3 1.55874 2.683901 2.12132 2.12132 
C 2.683901 1.55874 3 0.795609 3 0 
C 3 -0.795609 2.683901 -1.55874 2.12132 -2.12132 
C 1.55874 -2.683901 0.795609 -3 0 -3 
C -0.795609 -3 -1.55874 -2.683901 -2.12132 -2.12132 
C -2.683901 -1.55874 -3 -0.795609 -3 0 
C -3 0.795609 -2.683901 1.55874 -2.12132 2.12132 
C -1.55874 2.683901 -0.795609 3 0 3 
z
" id="m447301f80b" style="stroke:#083d7f;"/>
    </defs>
    <g clip-path="url(#p70c96fd2df)">
     <use style="fill:#083d7f;stroke:#083d7f;" x="391.592472" xlink:href="#m447301f80b" y="126.714591"/>
    </g>
   </g>
   <g id="PathCollection_100">
    <g clip-path="url(#p70c96fd2df)">
     <use style="fill:#1b69af;stroke:#1b69af;" x="310.138255" xlink:href="#me7f2fb73a8" y="208.738898"/>
    </g>
   </g>
   <g id="PathCollection_101">
    <g clip-path="url(#p70c96fd2df)">
     <use style="fill:#2c7cba;stroke:#2c7cba;" x="251.310209" xlink:href="#m60c75bbf54" y="180.959499"/>
    </g>
   </g>
   <g id="PathCollection_102">
    <g clip-path="url(#p70c96fd2df)">
     <use style="fill:#3484bf;stroke:#3484bf;" x="244.069834" xlink:href="#m1ea01423d9" y="168.195991"/>
    </g>
   </g>
   <g id="PathCollection_103">
    <g clip-path="url(#p70c96fd2df)">
     <use style="fill:#4191c6;stroke:#4191c6;" x="308.328161" xlink:href="#mc54fd08152" y="156.934072"/>
    </g>
   </g>
   <g id="PathCollection_104">
    <g clip-path="url(#p70c96fd2df)">
     <use style="fill:#1865ac;stroke:#1865ac;" x="323.110593" xlink:href="#m70d6734e7f" y="191.282924"/>
    </g>
   </g>
   <g id="PathCollection_105">
    <g clip-path="url(#p70c96fd2df)">
     <use style="fill:#0a539e;stroke:#0a539e;" x="189.767023" xlink:href="#mcda66608e4" y="168.571388"/>
    </g>
   </g>
   <g id="PathCollection_106">
    <g clip-path="url(#p70c96fd2df)">
     <use style="fill:#2c7cba;stroke:#2c7cba;" x="309.53489" xlink:href="#m60c75bbf54" y="142.668976"/>
    </g>
   </g>
   <g id="PathCollection_107">
    <g clip-path="url(#p70c96fd2df)">
     <use style="fill:#1b69af;stroke:#1b69af;" x="393.100883" xlink:href="#me7f2fb73a8" y="17.849378"/>
    </g>
   </g>
   <g id="PathCollection_108">
    <g clip-path="url(#p70c96fd2df)">
     <use style="fill:#1460a8;stroke:#1460a8;" x="249.500115" xlink:href="#m0c3c71530a" y="123.523714"/>
    </g>
   </g>
   <g id="PathCollection_109">
    <g clip-path="url(#p70c96fd2df)">
     <use style="fill:#2272b6;stroke:#2272b6;" x="25.350177" xlink:href="#m0d8f2ea8ef" y="140.041195"/>
    </g>
   </g>
   <g id="PathCollection_110">
    <g clip-path="url(#p70c96fd2df)">
     <use style="fill:#2c7cba;stroke:#2c7cba;" x="338.798072" xlink:href="#m60c75bbf54" y="183.024184"/>
    </g>
   </g>
   <g id="PathCollection_111">
    <g clip-path="url(#p70c96fd2df)">
     <use style="fill:#2272b6;stroke:#2272b6;" x="326.127416" xlink:href="#m0d8f2ea8ef" y="169.322183"/>
    </g>
   </g>
   <g id="PathCollection_112">
    <g clip-path="url(#p70c96fd2df)">
     <use style="fill:#3484bf;stroke:#3484bf;" x="235.321048" xlink:href="#m1ea01423d9" y="109.258617"/>
    </g>
   </g>
   <g id="PathCollection_113">
    <g clip-path="url(#p70c96fd2df)">
     <use style="fill:#d6e6f4;stroke:#d6e6f4;" x="277.556568" xlink:href="#m66e15d55f2" y="152.804702"/>
    </g>
   </g>
   <g id="PathCollection_114">
    <defs>
     <path d="M 0 3 
C 0.795609 3 1.55874 2.683901 2.12132 2.12132 
C 2.683901 1.55874 3 0.795609 3 0 
C 3 -0.795609 2.683901 -1.55874 2.12132 -2.12132 
C 1.55874 -2.683901 0.795609 -3 0 -3 
C -0.795609 -3 -1.55874 -2.683901 -2.12132 -2.12132 
C -2.683901 -1.55874 -3 -0.795609 -3 0 
C -3 0.795609 -2.683901 1.55874 -2.12132 2.12132 
C -1.55874 2.683901 -0.795609 3 0 3 
z
" id="me749171f76" style="stroke:#58a1cf;"/>
    </defs>
    <g clip-path="url(#p70c96fd2df)">
     <use style="fill:#58a1cf;stroke:#58a1cf;" x="266.997688" xlink:href="#me749171f76" y="163.315826"/>
    </g>
   </g>
   <g id="PathCollection_115">
    <defs>
     <path d="M 0 3 
C 0.795609 3 1.55874 2.683901 2.12132 2.12132 
C 2.683901 1.55874 3 0.795609 3 0 
C 3 -0.795609 2.683901 -1.55874 2.12132 -2.12132 
C 1.55874 -2.683901 0.795609 -3 0 -3 
C -0.795609 -3 -1.55874 -2.683901 -2.12132 -2.12132 
C -2.683901 -1.55874 -3 -0.795609 -3 0 
C -3 0.795609 -2.683901 1.55874 -2.12132 2.12132 
C -1.55874 2.683901 -0.795609 3 0 3 
z
" id="m2d5974f269" style="stroke:#08306b;"/>
    </defs>
    <g clip-path="url(#p70c96fd2df)">
     <use style="fill:#08306b;stroke:#08306b;" x="291.433953" xlink:href="#m2d5974f269" y="140.979688"/>
    </g>
   </g>
   <g id="PathCollection_116">
    <g clip-path="url(#p70c96fd2df)">
     <use style="fill:#1460a8;stroke:#1460a8;" x="187.051882" xlink:href="#m0c3c71530a" y="121.459029"/>
    </g>
   </g>
   <g id="PathCollection_117">
    <g clip-path="url(#p70c96fd2df)">
     <use style="fill:#08468b;stroke:#08468b;" x="224.460486" xlink:href="#m291b2688f1" y="143.982866"/>
    </g>
   </g>
   <g id="PathCollection_118">
    <defs>
     <path d="M 0 3 
C 0.795609 3 1.55874 2.683901 2.12132 2.12132 
C 2.683901 1.55874 3 0.795609 3 0 
C 3 -0.795609 2.683901 -1.55874 2.12132 -2.12132 
C 1.55874 -2.683901 0.795609 -3 0 -3 
C -0.795609 -3 -1.55874 -2.683901 -2.12132 -2.12132 
C -2.683901 -1.55874 -3 -0.795609 -3 0 
C -3 0.795609 -2.683901 1.55874 -2.12132 2.12132 
C -1.55874 2.683901 -0.795609 3 0 3 
z
" id="m7652ac5c8d" style="stroke:#4896c8;"/>
    </defs>
    <g clip-path="url(#p70c96fd2df)">
     <use style="fill:#4896c8;stroke:#4896c8;" x="193.990575" xlink:href="#m7652ac5c8d" y="115.640371"/>
    </g>
   </g>
   <g id="PathCollection_119">
    <g clip-path="url(#p70c96fd2df)">
     <use style="fill:#1e6db2;stroke:#1e6db2;" x="128.827201" xlink:href="#m8c88f4bdec" y="204.046432"/>
    </g>
   </g>
   <g id="PathCollection_120">
    <g clip-path="url(#p70c96fd2df)">
     <use style="fill:#2272b6;stroke:#2272b6;" x="101.374113" xlink:href="#m0d8f2ea8ef" y="128.779276"/>
    </g>
   </g>
   <g id="PathCollection_121">
    <g clip-path="url(#p70c96fd2df)">
     <use style="fill:#2676b8;stroke:#2676b8;" x="239.5446" xlink:href="#m931055e5c5" y="163.503525"/>
    </g>
   </g>
   <g id="PathCollection_122">
    <g clip-path="url(#p70c96fd2df)">
     <use style="fill:#1e6db2;stroke:#1e6db2;" x="375.904993" xlink:href="#m8c88f4bdec" y="148.675332"/>
    </g>
   </g>
   <g id="PathCollection_123">
    <g clip-path="url(#p70c96fd2df)">
     <use style="fill:#3080bd;stroke:#3080bd;" x="338.194707" xlink:href="#mdf145d5bdd" y="171.011471"/>
    </g>
   </g>
   <g id="PathCollection_124">
    <g clip-path="url(#p70c96fd2df)">
     <use style="fill:#0a539e;stroke:#0a539e;" x="207.566278" xlink:href="#mcda66608e4" y="132.34555"/>
    </g>
   </g>
   <g id="PathCollection_125">
    <g clip-path="url(#p70c96fd2df)">
     <use style="fill:#1b69af;stroke:#1b69af;" x="364.139384" xlink:href="#me7f2fb73a8" y="192.409116"/>
    </g>
   </g>
   <g id="PathCollection_126">
    <g clip-path="url(#p70c96fd2df)">
     <use style="fill:#1460a8;stroke:#1460a8;" x="264.282547" xlink:href="#m0c3c71530a" y="293.015589"/>
    </g>
   </g>
   <g id="matplotlib.axis_1">
    <g id="xtick_1">
     <g id="line2d_1">
      <defs>
       <path d="M 0 0 
L 0 3.5 
" id="m3afc0fe705" style="stroke:#000000;stroke-width:0.8;"/>
      </defs>
      <g>
       <use style="stroke:#000000;stroke-width:0.8;" x="33.797281" xlink:href="#m3afc0fe705" y="345.6"/>
      </g>
     </g>
     <g id="text_1">
      <text style="font-family:DejaVu Sans;font-size:10px;font-style:normal;font-weight:normal;text-anchor:middle;" transform="rotate(-0, 33.797281, 360.198437)" x="33.797281" y="360.198437">−0.8</text>
     </g>
    </g>
    <g id="xtick_2">
     <g id="line2d_2">
      <g>
       <use style="stroke:#000000;stroke-width:0.8;" x="94.133738" xlink:href="#m3afc0fe705" y="345.6"/>
      </g>
     </g>
     <g id="text_2">
      <text style="font-family:DejaVu Sans;font-size:10px;font-style:normal;font-weight:normal;text-anchor:middle;" transform="rotate(-0, 94.133738, 360.198437)" x="94.133738" y="360.198437">−0.6</text>
     </g>
    </g>
    <g id="xtick_3">
     <g id="line2d_3">
      <g>
       <use style="stroke:#000000;stroke-width:0.8;" x="154.470195" xlink:href="#m3afc0fe705" y="345.6"/>
      </g>
     </g>
     <g id="text_3">
      <text style="font-family:DejaVu Sans;font-size:10px;font-style:normal;font-weight:normal;text-anchor:middle;" transform="rotate(-0, 154.470195, 360.198437)" x="154.470195" y="360.198437">−0.4</text>
     </g>
    </g>
    <g id="xtick_4">
     <g id="line2d_4">
      <g>
       <use style="stroke:#000000;stroke-width:0.8;" x="214.806652" xlink:href="#m3afc0fe705" y="345.6"/>
      </g>
     </g>
     <g id="text_4">
      <text style="font-family:DejaVu Sans;font-size:10px;font-style:normal;font-weight:normal;text-anchor:middle;" transform="rotate(-0, 214.806652, 360.198437)" x="214.806652" y="360.198437">−0.2</text>
     </g>
    </g>
    <g id="xtick_5">
     <g id="line2d_5">
      <g>
       <use style="stroke:#000000;stroke-width:0.8;" x="275.14311" xlink:href="#m3afc0fe705" y="345.6"/>
      </g>
     </g>
     <g id="text_5">
      <text style="font-family:DejaVu Sans;font-size:10px;font-style:normal;font-weight:normal;text-anchor:middle;" transform="rotate(-0, 275.14311, 360.198437)" x="275.14311" y="360.198437">0.0</text>
     </g>
    </g>
    <g id="xtick_6">
     <g id="line2d_6">
      <g>
       <use style="stroke:#000000;stroke-width:0.8;" x="335.479567" xlink:href="#m3afc0fe705" y="345.6"/>
      </g>
     </g>
     <g id="text_6">
      <text style="font-family:DejaVu Sans;font-size:10px;font-style:normal;font-weight:normal;text-anchor:middle;" transform="rotate(-0, 335.479567, 360.198437)" x="335.479567" y="360.198437">0.2</text>
     </g>
    </g>
    <g id="xtick_7">
     <g id="line2d_7">
      <g>
       <use style="stroke:#000000;stroke-width:0.8;" x="395.816024" xlink:href="#m3afc0fe705" y="345.6"/>
      </g>
     </g>
     <g id="text_7">
      <text style="font-family:DejaVu Sans;font-size:10px;font-style:normal;font-weight:normal;text-anchor:middle;" transform="rotate(-0, 395.816024, 360.198437)" x="395.816024" y="360.198437">0.4</text>
     </g>
    </g>
    <g id="xtick_8">
     <g id="line2d_8">
      <g>
       <use style="stroke:#000000;stroke-width:0.8;" x="456.152481" xlink:href="#m3afc0fe705" y="345.6"/>
      </g>
     </g>
     <g id="text_8">
      <text style="font-family:DejaVu Sans;font-size:10px;font-style:normal;font-weight:normal;text-anchor:middle;" transform="rotate(-0, 456.152481, 360.198437)" x="456.152481" y="360.198437">0.6</text>
     </g>
    </g>
   </g>
   <g id="matplotlib.axis_2">
    <g id="ytick_1">
     <g id="line2d_9">
      <defs>
       <path d="M 0 0 
L -3.5 0 
" id="mdead6443d9" style="stroke:#000000;stroke-width:0.8;"/>
      </defs>
      <g>
       <use style="stroke:#000000;stroke-width:0.8;" x="0" xlink:href="#mdead6443d9" y="341.066442"/>
      </g>
     </g>
     <g id="text_9">
      <text style="font-family:DejaVu Sans;font-size:10px;font-style:normal;font-weight:normal;text-anchor:end;" transform="rotate(-0, -7, 344.86566)" x="-7" y="344.86566">−1.00</text>
     </g>
    </g>
    <g id="ytick_2">
     <g id="line2d_10">
      <g>
       <use style="stroke:#000000;stroke-width:0.8;" x="0" xlink:href="#mdead6443d9" y="294.141781"/>
      </g>
     </g>
     <g id="text_10">
      <text style="font-family:DejaVu Sans;font-size:10px;font-style:normal;font-weight:normal;text-anchor:end;" transform="rotate(-0, -7, 297.941)" x="-7" y="297.941">−0.75</text>
     </g>
    </g>
    <g id="ytick_3">
     <g id="line2d_11">
      <g>
       <use style="stroke:#000000;stroke-width:0.8;" x="0" xlink:href="#mdead6443d9" y="247.21712"/>
      </g>
     </g>
     <g id="text_11">
      <text style="font-family:DejaVu Sans;font-size:10px;font-style:normal;font-weight:normal;text-anchor:end;" transform="rotate(-0, -7, 251.016339)" x="-7" y="251.016339">−0.50</text>
     </g>
    </g>
    <g id="ytick_4">
     <g id="line2d_12">
      <g>
       <use style="stroke:#000000;stroke-width:0.8;" x="0" xlink:href="#mdead6443d9" y="200.292459"/>
      </g>
     </g>
     <g id="text_12">
      <text style="font-family:DejaVu Sans;font-size:10px;font-style:normal;font-weight:normal;text-anchor:end;" transform="rotate(-0, -7, 204.091678)" x="-7" y="204.091678">−0.25</text>
     </g>
    </g>
    <g id="ytick_5">
     <g id="line2d_13">
      <g>
       <use style="stroke:#000000;stroke-width:0.8;" x="0" xlink:href="#mdead6443d9" y="153.367798"/>
      </g>
     </g>
     <g id="text_13">
      <text style="font-family:DejaVu Sans;font-size:10px;font-style:normal;font-weight:normal;text-anchor:end;" transform="rotate(-0, -7, 157.167017)" x="-7" y="157.167017">0.00</text>
     </g>
    </g>
    <g id="ytick_6">
     <g id="line2d_14">
      <g>
       <use style="stroke:#000000;stroke-width:0.8;" x="0" xlink:href="#mdead6443d9" y="106.443137"/>
      </g>
     </g>
     <g id="text_14">
      <text style="font-family:DejaVu Sans;font-size:10px;font-style:normal;font-weight:normal;text-anchor:end;" transform="rotate(-0, -7, 110.242356)" x="-7" y="110.242356">0.25</text>
     </g>
    </g>
    <g id="ytick_7">
     <g id="line2d_15">
      <g>
       <use style="stroke:#000000;stroke-width:0.8;" x="0" xlink:href="#mdead6443d9" y="59.518477"/>
      </g>
     </g>
     <g id="text_15">
      <text style="font-family:DejaVu Sans;font-size:10px;font-style:normal;font-weight:normal;text-anchor:end;" transform="rotate(-0, -7, 63.317695)" x="-7" y="63.317695">0.50</text>
     </g>
    </g>
    <g id="ytick_8">
     <g id="line2d_16">
      <g>
       <use style="stroke:#000000;stroke-width:0.8;" x="0" xlink:href="#mdead6443d9" y="12.593816"/>
      </g>
     </g>
     <g id="text_16">
      <text style="font-family:DejaVu Sans;font-size:10px;font-style:normal;font-weight:normal;text-anchor:end;" transform="rotate(-0, -7, 16.393034)" x="-7" y="16.393034">0.75</text>
     </g>
    </g>
   </g>
   <g id="line2d_17">
    <path clip-path="url(#p70c96fd2df)" d="M 289.020495 147.736839 
" style="fill:none;stroke:#ff0000;stroke-linecap:square;stroke-width:1.5;"/>
    <defs>
     <path d="M 0 2.5 
C 0.663008 2.5 1.29895 2.236584 1.767767 1.767767 
C 2.236584 1.29895 2.5 0.663008 2.5 0 
C 2.5 -0.663008 2.236584 -1.29895 1.767767 -1.767767 
C 1.29895 -2.236584 0.663008 -2.5 0 -2.5 
C -0.663008 -2.5 -1.29895 -2.236584 -1.767767 -1.767767 
C -2.236584 -1.29895 -2.5 -0.663008 -2.5 0 
C -2.5 0.663008 -2.236584 1.29895 -1.767767 1.767767 
C -1.29895 2.236584 -0.663008 2.5 0 2.5 
z
" id="m2fe66c54d2" style="stroke:#ff0000;"/>
    </defs>
    <g clip-path="url(#p70c96fd2df)">
     <use style="fill:#ff0000;stroke:#ff0000;" x="289.020495" xlink:href="#m2fe66c54d2" y="147.736839"/>
    </g>
   </g>
   <g id="line2d_18">
    <path clip-path="url(#p70c96fd2df)" d="M 277.556568 152.804702 
" style="fill:none;stroke:#ff0000;stroke-linecap:square;stroke-width:1.5;"/>
    <g clip-path="url(#p70c96fd2df)">
     <use style="fill:#ff0000;stroke:#ff0000;" x="277.556568" xlink:href="#m2fe66c54d2" y="152.804702"/>
    </g>
   </g>
   <g id="patch_3">
    <path d="M 0 345.6 
L 0 0 
" style="fill:none;stroke:#000000;stroke-linecap:square;stroke-linejoin:miter;stroke-width:0.8;"/>
   </g>
   <g id="patch_4">
    <path d="M 460.8 345.6 
L 460.8 0 
" style="fill:none;stroke:#000000;stroke-linecap:square;stroke-linejoin:miter;stroke-width:0.8;"/>
   </g>
   <g id="patch_5">
    <path d="M 0 345.6 
L 460.8 345.6 
" style="fill:none;stroke:#000000;stroke-linecap:square;stroke-linejoin:miter;stroke-width:0.8;"/>
   </g>
   <g id="patch_6">
    <path d="M 0 0 
L 460.8 0 
" style="fill:none;stroke:#000000;stroke-linecap:square;stroke-linejoin:miter;stroke-width:0.8;"/>
   </g>
   <g id="text_17">
    <text style="fill:#ff0000;font-family:DejaVu Sans;font-size:8px;font-style:normal;font-weight:normal;text-anchor:start;" transform="rotate(-0, 289.020495, 147.736839)" x="289.020495" y="147.736839">_naive</text>
   </g>
   <g id="text_18">
    <text style="fill:#ff0000;font-family:DejaVu Sans;font-size:8px;font-style:normal;font-weight:normal;text-anchor:start;" transform="rotate(-0, 277.556568, 152.804702)" x="277.556568" y="152.804702">_consensus</text>
   </g>
  </g>
  <g id="text_19">
   <text style="font-family:DejaVu Sans;font-size:15px;font-style:normal;font-weight:normal;text-anchor:start;" transform="rotate(-0, 184.32, 34.56)" x="184.32" y="34.56">MDS comp. (index 2 size 126)</text>
  </g>
 </g>
 <defs>
  <clipPath id="p70c96fd2df">
   <rect height="345.6" width="460.8" x="0" y="0"/>
  </clipPath>
 </defs>
</svg>
