<?xml version="1.0" encoding="utf-8" standalone="no"?>
<!DOCTYPE svg PUBLIC "-//W3C//DTD SVG 1.1//EN"
  "http://www.w3.org/Graphics/SVG/1.1/DTD/svg11.dtd">
<!-- Created with matplotlib (http://matplotlib.org/) -->
<svg height="345.6pt" version="1.1" viewBox="0 0 460.8 345.6" width="460.8pt" xmlns="http://www.w3.org/2000/svg" xmlns:xlink="http://www.w3.org/1999/xlink">
 <defs>
  <style type="text/css">
*{stroke-linecap:butt;stroke-linejoin:round;}
  </style>
 </defs>
 <g id="figure_1">
  <g id="patch_1">
   <path d="M 0 345.6 
L 460.8 345.6 
L 460.8 0 
L 0 0 
z
" style="fill:#ffffff;"/>
  </g>
  <g id="axes_1">
   <g id="patch_2">
    <path d="M 0 345.6 
L 460.8 345.6 
L 460.8 0 
L 0 0 
z
" style="fill:#ffffff;"/>
   </g>
   <g id="PathCollection_1">
    <defs>
     <path d="M 0 3 
C 0.795609 3 1.55874 2.683901 2.12132 2.12132 
C 2.683901 1.55874 3 0.795609 3 0 
C 3 -0.795609 2.683901 -1.55874 2.12132 -2.12132 
C 1.55874 -2.683901 0.795609 -3 0 -3 
C -0.795609 -3 -1.55874 -2.683901 -2.12132 -2.12132 
C -2.683901 -1.55874 -3 -0.795609 -3 0 
C -3 0.795609 -2.683901 1.55874 -2.12132 2.12132 
C -1.55874 2.683901 -0.795609 3 0 3 
z
" id="mcbea08d9d7" style="stroke:#c9ddf0;"/>
    </defs>
    <g clip-path="url(#pf9234fa9a0)">
     <use style="fill:#c9ddf0;stroke:#c9ddf0;" x="192.451087" xlink:href="#mcbea08d9d7" y="137.098835"/>
    </g>
   </g>
   <g id="PathCollection_2">
    <defs>
     <path d="M 0 3 
C 0.795609 3 1.55874 2.683901 2.12132 2.12132 
C 2.683901 1.55874 3 0.795609 3 0 
C 3 -0.795609 2.683901 -1.55874 2.12132 -2.12132 
C 1.55874 -2.683901 0.795609 -3 0 -3 
C -0.795609 -3 -1.55874 -2.683901 -2.12132 -2.12132 
C -2.683901 -1.55874 -3 -0.795609 -3 0 
C -3 0.795609 -2.683901 1.55874 -2.12132 2.12132 
C -1.55874 2.683901 -0.795609 3 0 3 
z
" id="mfe17464460" style="stroke:#66abd4;"/>
    </defs>
    <g clip-path="url(#pf9234fa9a0)">
     <use style="fill:#66abd4;stroke:#66abd4;" x="176.598414" xlink:href="#mfe17464460" y="92.471184"/>
    </g>
   </g>
   <g id="PathCollection_3">
    <defs>
     <path d="M 0 3 
C 0.795609 3 1.55874 2.683901 2.12132 2.12132 
C 2.683901 1.55874 3 0.795609 3 0 
C 3 -0.795609 2.683901 -1.55874 2.12132 -2.12132 
C 1.55874 -2.683901 0.795609 -3 0 -3 
C -0.795609 -3 -1.55874 -2.683901 -2.12132 -2.12132 
C -2.683901 -1.55874 -3 -0.795609 -3 0 
C -3 0.795609 -2.683901 1.55874 -2.12132 2.12132 
C -1.55874 2.683901 -0.795609 3 0 3 
z
" id="m7726d90bdc" style="stroke:#82bbdb;"/>
    </defs>
    <g clip-path="url(#pf9234fa9a0)">
     <use style="fill:#82bbdb;stroke:#82bbdb;" x="186.902652" xlink:href="#m7726d90bdc" y="90.395479"/>
    </g>
   </g>
   <g id="PathCollection_4">
    <defs>
     <path d="M 0 3 
C 0.795609 3 1.55874 2.683901 2.12132 2.12132 
C 2.683901 1.55874 3 0.795609 3 0 
C 3 -0.795609 2.683901 -1.55874 2.12132 -2.12132 
C 1.55874 -2.683901 0.795609 -3 0 -3 
C -0.795609 -3 -1.55874 -2.683901 -2.12132 -2.12132 
C -2.683901 -1.55874 -3 -0.795609 -3 0 
C -3 0.795609 -2.683901 1.55874 -2.12132 2.12132 
C -1.55874 2.683901 -0.795609 3 0 3 
z
" id="m4c9b5d91fc" style="stroke:#4f9bcb;"/>
    </defs>
    <g clip-path="url(#pf9234fa9a0)">
     <use style="fill:#4f9bcb;stroke:#4f9bcb;" x="108.431917" xlink:href="#m4c9b5d91fc" y="193.142861"/>
    </g>
   </g>
   <g id="PathCollection_5">
    <defs>
     <path d="M 0 3 
C 0.795609 3 1.55874 2.683901 2.12132 2.12132 
C 2.683901 1.55874 3 0.795609 3 0 
C 3 -0.795609 2.683901 -1.55874 2.12132 -2.12132 
C 1.55874 -2.683901 0.795609 -3 0 -3 
C -0.795609 -3 -1.55874 -2.683901 -2.12132 -2.12132 
C -2.683901 -1.55874 -3 -0.795609 -3 0 
C -3 0.795609 -2.683901 1.55874 -2.12132 2.12132 
C -1.55874 2.683901 -0.795609 3 0 3 
z
" id="me58fff05ce" style="stroke:#9dcae1;"/>
    </defs>
    <g clip-path="url(#pf9234fa9a0)">
     <use style="fill:#9dcae1;stroke:#9dcae1;" x="197.999523" xlink:href="#me58fff05ce" y="113.228231"/>
    </g>
   </g>
   <g id="PathCollection_6">
    <defs>
     <path d="M 0 3 
C 0.795609 3 1.55874 2.683901 2.12132 2.12132 
C 2.683901 1.55874 3 0.795609 3 0 
C 3 -0.795609 2.683901 -1.55874 2.12132 -2.12132 
C 1.55874 -2.683901 0.795609 -3 0 -3 
C -0.795609 -3 -1.55874 -2.683901 -2.12132 -2.12132 
C -2.683901 -1.55874 -3 -0.795609 -3 0 
C -3 0.795609 -2.683901 1.55874 -2.12132 2.12132 
C -1.55874 2.683901 -0.795609 3 0 3 
z
" id="me95af7155e" style="stroke:#b4d3e9;"/>
    </defs>
    <g clip-path="url(#pf9234fa9a0)">
     <use style="fill:#b4d3e9;stroke:#b4d3e9;" x="189.280553" xlink:href="#me95af7155e" y="126.720311"/>
    </g>
   </g>
   <g id="PathCollection_7">
    <g clip-path="url(#pf9234fa9a0)">
     <use style="fill:#4f9bcb;stroke:#4f9bcb;" x="170.257344" xlink:href="#m4c9b5d91fc" y="34.351453"/>
    </g>
   </g>
   <g id="PathCollection_8">
    <g clip-path="url(#pf9234fa9a0)">
     <use style="fill:#9dcae1;stroke:#9dcae1;" x="189.280553" xlink:href="#me58fff05ce" y="107.001117"/>
    </g>
   </g>
   <g id="PathCollection_9">
    <g clip-path="url(#pf9234fa9a0)">
     <use style="fill:#82bbdb;stroke:#82bbdb;" x="182.14685" xlink:href="#m7726d90bdc" y="85.206217"/>
    </g>
   </g>
   <g id="PathCollection_10">
    <g clip-path="url(#pf9234fa9a0)">
     <use style="fill:#66abd4;stroke:#66abd4;" x="137.759363" xlink:href="#mfe17464460" y="157.855882"/>
    </g>
   </g>
   <g id="PathCollection_11">
    <g clip-path="url(#pf9234fa9a0)">
     <use style="fill:#4f9bcb;stroke:#4f9bcb;" x="197.999523" xlink:href="#m4c9b5d91fc" y="86.24407"/>
    </g>
   </g>
   <g id="PathCollection_12">
    <g clip-path="url(#pf9234fa9a0)">
     <use style="fill:#9dcae1;stroke:#9dcae1;" x="188.487919" xlink:href="#me58fff05ce" y="99.73615"/>
    </g>
   </g>
   <g id="PathCollection_13">
    <g clip-path="url(#pf9234fa9a0)">
     <use style="fill:#82bbdb;stroke:#82bbdb;" x="181.354216" xlink:href="#m7726d90bdc" y="90.395479"/>
    </g>
   </g>
   <g id="PathCollection_14">
    <g clip-path="url(#pf9234fa9a0)">
     <use style="fill:#66abd4;stroke:#66abd4;" x="205.133226" xlink:href="#mfe17464460" y="151.628768"/>
    </g>
   </g>
   <g id="PathCollection_15">
    <g clip-path="url(#pf9234fa9a0)">
     <use style="fill:#82bbdb;stroke:#82bbdb;" x="114.772987" xlink:href="#m7726d90bdc" y="218.051318"/>
    </g>
   </g>
   <g id="PathCollection_16">
    <g clip-path="url(#pf9234fa9a0)">
     <use style="fill:#4f9bcb;stroke:#4f9bcb;" x="77.519204" xlink:href="#m4c9b5d91fc" y="243.997626"/>
    </g>
   </g>
   <g id="PathCollection_17">
    <g clip-path="url(#pf9234fa9a0)">
     <use style="fill:#66abd4;stroke:#66abd4;" x="158.367839" xlink:href="#mfe17464460" y="221.164875"/>
    </g>
   </g>
   <g id="PathCollection_18">
    <g clip-path="url(#pf9234fa9a0)">
     <use style="fill:#66abd4;stroke:#66abd4;" x="251.898613" xlink:href="#mfe17464460" y="139.174539"/>
    </g>
   </g>
   <g id="PathCollection_19">
    <g clip-path="url(#pf9234fa9a0)">
     <use style="fill:#9dcae1;stroke:#9dcae1;" x="188.487919" xlink:href="#me58fff05ce" y="101.811855"/>
    </g>
   </g>
   <g id="PathCollection_20">
    <defs>
     <path d="M 0 3 
C 0.795609 3 1.55874 2.683901 2.12132 2.12132 
C 2.683901 1.55874 3 0.795609 3 0 
C 3 -0.795609 2.683901 -1.55874 2.12132 -2.12132 
C 1.55874 -2.683901 0.795609 -3 0 -3 
C -0.795609 -3 -1.55874 -2.683901 -2.12132 -2.12132 
C -2.683901 -1.55874 -3 -0.795609 -3 0 
C -3 0.795609 -2.683901 1.55874 -2.12132 2.12132 
C -1.55874 2.683901 -0.795609 3 0 3 
z
" id="m3fd4b627d5" style="stroke:#0a549e;"/>
    </defs>
    <g clip-path="url(#pf9234fa9a0)">
     <use style="fill:#0a549e;stroke:#0a549e;" x="403.291646" xlink:href="#m3fd4b627d5" y="297.965948"/>
    </g>
   </g>
   <g id="PathCollection_21">
    <g clip-path="url(#pf9234fa9a0)">
     <use style="fill:#9dcae1;stroke:#9dcae1;" x="185.317384" xlink:href="#me58fff05ce" y="111.152526"/>
    </g>
   </g>
   <g id="PathCollection_22">
    <g clip-path="url(#pf9234fa9a0)">
     <use style="fill:#82bbdb;stroke:#82bbdb;" x="174.220513" xlink:href="#m7726d90bdc" y="93.509036"/>
    </g>
   </g>
   <g id="PathCollection_23">
    <g clip-path="url(#pf9234fa9a0)">
     <use style="fill:#82bbdb;stroke:#82bbdb;" x="170.257344" xlink:href="#m7726d90bdc" y="96.622593"/>
    </g>
   </g>
   <g id="PathCollection_24">
    <g clip-path="url(#pf9234fa9a0)">
     <use style="fill:#82bbdb;stroke:#82bbdb;" x="167.879443" xlink:href="#m7726d90bdc" y="205.597089"/>
    </g>
   </g>
   <g id="PathCollection_25">
    <g clip-path="url(#pf9234fa9a0)">
     <use style="fill:#9dcae1;stroke:#9dcae1;" x="192.451087" xlink:href="#me58fff05ce" y="111.152526"/>
    </g>
   </g>
   <g id="PathCollection_26">
    <g clip-path="url(#pf9234fa9a0)">
     <use style="fill:#b4d3e9;stroke:#b4d3e9;" x="185.317384" xlink:href="#me95af7155e" y="135.02313"/>
    </g>
   </g>
   <g id="PathCollection_27">
    <defs>
     <path d="M 0 3 
C 0.795609 3 1.55874 2.683901 2.12132 2.12132 
C 2.683901 1.55874 3 0.795609 3 0 
C 3 -0.795609 2.683901 -1.55874 2.12132 -2.12132 
C 1.55874 -2.683901 0.795609 -3 0 -3 
C -0.795609 -3 -1.55874 -2.683901 -2.12132 -2.12132 
C -2.683901 -1.55874 -3 -0.795609 -3 0 
C -3 0.795609 -2.683901 1.55874 -2.12132 2.12132 
C -1.55874 2.683901 -0.795609 3 0 3 
z
" id="m5c337da247" style="stroke:#3a8ac2;"/>
    </defs>
    <g clip-path="url(#pf9234fa9a0)">
     <use style="fill:#3a8ac2;stroke:#3a8ac2;" x="151.234136" xlink:href="#m5c337da247" y="227.391989"/>
    </g>
   </g>
   <g id="PathCollection_28">
    <g clip-path="url(#pf9234fa9a0)">
     <use style="fill:#82bbdb;stroke:#82bbdb;" x="180.561582" xlink:href="#m7726d90bdc" y="80.016956"/>
    </g>
   </g>
   <g id="PathCollection_29">
    <g clip-path="url(#pf9234fa9a0)">
     <use style="fill:#82bbdb;stroke:#82bbdb;" x="182.14685" xlink:href="#m7726d90bdc" y="109.076821"/>
    </g>
   </g>
   <g id="PathCollection_30">
    <g clip-path="url(#pf9234fa9a0)">
     <use style="fill:#66abd4;stroke:#66abd4;" x="210.681662" xlink:href="#mfe17464460" y="142.288096"/>
    </g>
   </g>
   <g id="PathCollection_31">
    <g clip-path="url(#pf9234fa9a0)">
     <use style="fill:#9dcae1;stroke:#9dcae1;" x="219.400632" xlink:href="#me58fff05ce" y="135.02313"/>
    </g>
   </g>
   <g id="PathCollection_32">
    <g clip-path="url(#pf9234fa9a0)">
     <use style="fill:#66abd4;stroke:#66abd4;" x="236.04594" xlink:href="#mfe17464460" y="128.796016"/>
    </g>
   </g>
   <g id="PathCollection_33">
    <defs>
     <path d="M 0 3 
C 0.795609 3 1.55874 2.683901 2.12132 2.12132 
C 2.683901 1.55874 3 0.795609 3 0 
C 3 -0.795609 2.683901 -1.55874 2.12132 -2.12132 
C 1.55874 -2.683901 0.795609 -3 0 -3 
C -0.795609 -3 -1.55874 -2.683901 -2.12132 -2.12132 
C -2.683901 -1.55874 -3 -0.795609 -3 0 
C -3 0.795609 -2.683901 1.55874 -2.12132 2.12132 
C -1.55874 2.683901 -0.795609 3 0 3 
z
" id="m9c7301f0dc" style="stroke:#2979b9;"/>
    </defs>
    <g clip-path="url(#pf9234fa9a0)">
     <use style="fill:#2979b9;stroke:#2979b9;" x="88.616075" xlink:href="#m9c7301f0dc" y="180.688633"/>
    </g>
   </g>
   <g id="PathCollection_34">
    <g clip-path="url(#pf9234fa9a0)">
     <use style="fill:#0a549e;stroke:#0a549e;" x="389.816874" xlink:href="#m3fd4b627d5" y="268.906082"/>
    </g>
   </g>
   <g id="PathCollection_35">
    <g clip-path="url(#pf9234fa9a0)">
     <use style="fill:#3a8ac2;stroke:#3a8ac2;" x="117.150888" xlink:href="#m5c337da247" y="280.322458"/>
    </g>
   </g>
   <g id="PathCollection_36">
    <g clip-path="url(#pf9234fa9a0)">
     <use style="fill:#66abd4;stroke:#66abd4;" x="136.96673" xlink:href="#mfe17464460" y="263.716821"/>
    </g>
   </g>
   <g id="PathCollection_37">
    <g clip-path="url(#pf9234fa9a0)">
     <use style="fill:#82bbdb;stroke:#82bbdb;" x="180.561582" xlink:href="#m7726d90bdc" y="91.433332"/>
    </g>
   </g>
   <g id="PathCollection_38">
    <g clip-path="url(#pf9234fa9a0)">
     <use style="fill:#66abd4;stroke:#66abd4;" x="179.768948" xlink:href="#mfe17464460" y="78.979103"/>
    </g>
   </g>
   <g id="PathCollection_39">
    <defs>
     <path d="M 0 3 
C 0.795609 3 1.55874 2.683901 2.12132 2.12132 
C 2.683901 1.55874 3 0.795609 3 0 
C 3 -0.795609 2.683901 -1.55874 2.12132 -2.12132 
C 1.55874 -2.683901 0.795609 -3 0 -3 
C -0.795609 -3 -1.55874 -2.683901 -2.12132 -2.12132 
C -2.683901 -1.55874 -3 -0.795609 -3 0 
C -3 0.795609 -2.683901 1.55874 -2.12132 2.12132 
C -1.55874 2.683901 -0.795609 3 0 3 
z
" id="m5228b63c6d" style="stroke:#08306b;"/>
    </defs>
    <g clip-path="url(#pf9234fa9a0)">
     <use style="fill:#08306b;stroke:#08306b;" x="438.167528" xlink:href="#m5228b63c6d" y="328.063666"/>
    </g>
   </g>
   <g id="PathCollection_40">
    <g clip-path="url(#pf9234fa9a0)">
     <use style="fill:#82bbdb;stroke:#82bbdb;" x="119.528789" xlink:href="#m7726d90bdc" y="210.786351"/>
    </g>
   </g>
   <g id="PathCollection_41">
    <g clip-path="url(#pf9234fa9a0)">
     <use style="fill:#9dcae1;stroke:#9dcae1;" x="154.404671" xlink:href="#me58fff05ce" y="162.007291"/>
    </g>
   </g>
   <g id="PathCollection_42">
    <g clip-path="url(#pf9234fa9a0)">
     <use style="fill:#82bbdb;stroke:#82bbdb;" x="178.976315" xlink:href="#m7726d90bdc" y="95.584741"/>
    </g>
   </g>
   <g id="PathCollection_43">
    <g clip-path="url(#pf9234fa9a0)">
     <use style="fill:#9dcae1;stroke:#9dcae1;" x="190.86582" xlink:href="#me58fff05ce" y="128.796016"/>
    </g>
   </g>
   <g id="PathCollection_44">
    <g clip-path="url(#pf9234fa9a0)">
     <use style="fill:#66abd4;stroke:#66abd4;" x="175.013146" xlink:href="#mfe17464460" y="74.827694"/>
    </g>
   </g>
   <g id="PathCollection_45">
    <g clip-path="url(#pf9234fa9a0)">
     <use style="fill:#66abd4;stroke:#66abd4;" x="177.391047" xlink:href="#mfe17464460" y="98.698298"/>
    </g>
   </g>
   <g id="PathCollection_46">
    <g clip-path="url(#pf9234fa9a0)">
     <use style="fill:#82bbdb;stroke:#82bbdb;" x="178.183681" xlink:href="#m7726d90bdc" y="64.449171"/>
    </g>
   </g>
   <g id="PathCollection_47">
    <g clip-path="url(#pf9234fa9a0)">
     <use style="fill:#66abd4;stroke:#66abd4;" x="249.520712" xlink:href="#mfe17464460" y="142.288096"/>
    </g>
   </g>
   <g id="PathCollection_48">
    <g clip-path="url(#pf9234fa9a0)">
     <use style="fill:#66abd4;stroke:#66abd4;" x="217.815365" xlink:href="#mfe17464460" y="116.341788"/>
    </g>
   </g>
   <g id="PathCollection_49">
    <g clip-path="url(#pf9234fa9a0)">
     <use style="fill:#4f9bcb;stroke:#4f9bcb;" x="125.869858" xlink:href="#m4c9b5d91fc" y="137.098835"/>
    </g>
   </g>
   <g id="PathCollection_50">
    <g clip-path="url(#pf9234fa9a0)">
     <use style="fill:#66abd4;stroke:#66abd4;" x="131.418294" xlink:href="#mfe17464460" y="172.385814"/>
    </g>
   </g>
   <g id="PathCollection_51">
    <g clip-path="url(#pf9234fa9a0)">
     <use style="fill:#82bbdb;stroke:#82bbdb;" x="157.575205" xlink:href="#m7726d90bdc" y="125.682459"/>
    </g>
   </g>
   <g id="PathCollection_52">
    <g clip-path="url(#pf9234fa9a0)">
     <use style="fill:#82bbdb;stroke:#82bbdb;" x="178.976315" xlink:href="#m7726d90bdc" y="104.925412"/>
    </g>
   </g>
   <g id="PathCollection_53">
    <g clip-path="url(#pf9234fa9a0)">
     <use style="fill:#9dcae1;stroke:#9dcae1;" x="192.451087" xlink:href="#me58fff05ce" y="107.001117"/>
    </g>
   </g>
   <g id="PathCollection_54">
    <g clip-path="url(#pf9234fa9a0)">
     <use style="fill:#82bbdb;stroke:#82bbdb;" x="152.02677" xlink:href="#m7726d90bdc" y="176.537224"/>
    </g>
   </g>
   <g id="PathCollection_55">
    <g clip-path="url(#pf9234fa9a0)">
     <use style="fill:#4f9bcb;stroke:#4f9bcb;" x="159.160473" xlink:href="#m4c9b5d91fc" y="77.941251"/>
    </g>
   </g>
   <g id="PathCollection_56">
    <g clip-path="url(#pf9234fa9a0)">
     <use style="fill:#c9ddf0;stroke:#c9ddf0;" x="198.792157" xlink:href="#mcbea08d9d7" y="147.477358"/>
    </g>
   </g>
   <g id="PathCollection_57">
    <g clip-path="url(#pf9234fa9a0)">
     <use style="fill:#82bbdb;stroke:#82bbdb;" x="169.464711" xlink:href="#m7726d90bdc" y="97.660446"/>
    </g>
   </g>
   <g id="PathCollection_58">
    <g clip-path="url(#pf9234fa9a0)">
     <use style="fill:#82bbdb;stroke:#82bbdb;" x="186.902652" xlink:href="#m7726d90bdc" y="80.016956"/>
    </g>
   </g>
   <g id="PathCollection_59">
    <g clip-path="url(#pf9234fa9a0)">
     <use style="fill:#c9ddf0;stroke:#c9ddf0;" x="194.828988" xlink:href="#mcbea08d9d7" y="129.833868"/>
    </g>
   </g>
   <g id="PathCollection_60">
    <g clip-path="url(#pf9234fa9a0)">
     <use style="fill:#3a8ac2;stroke:#3a8ac2;" x="174.220513" xlink:href="#m5c337da247" y="44.729976"/>
    </g>
   </g>
   <g id="PathCollection_61">
    <g clip-path="url(#pf9234fa9a0)">
     <use style="fill:#66abd4;stroke:#66abd4;" x="180.561582" xlink:href="#mfe17464460" y="77.941251"/>
    </g>
   </g>
   <g id="PathCollection_62">
    <g clip-path="url(#pf9234fa9a0)">
     <use style="fill:#9dcae1;stroke:#9dcae1;" x="192.451087" xlink:href="#me58fff05ce" y="127.758164"/>
    </g>
   </g>
   <g id="PathCollection_63">
    <g clip-path="url(#pf9234fa9a0)">
     <use style="fill:#82bbdb;stroke:#82bbdb;" x="186.110018" xlink:href="#m7726d90bdc" y="118.417493"/>
    </g>
   </g>
   <g id="PathCollection_64">
    <g clip-path="url(#pf9234fa9a0)">
     <use style="fill:#66abd4;stroke:#66abd4;" x="183.732117" xlink:href="#mfe17464460" y="100.774003"/>
    </g>
   </g>
   <g id="PathCollection_65">
    <g clip-path="url(#pf9234fa9a0)">
     <use style="fill:#9dcae1;stroke:#9dcae1;" x="189.280553" xlink:href="#me58fff05ce" y="92.471184"/>
    </g>
   </g>
   <g id="PathCollection_66">
    <g clip-path="url(#pf9234fa9a0)">
     <use style="fill:#c9ddf0;stroke:#c9ddf0;" x="190.86582" xlink:href="#mcbea08d9d7" y="127.758164"/>
    </g>
   </g>
   <g id="PathCollection_67">
    <g clip-path="url(#pf9234fa9a0)">
     <use style="fill:#82bbdb;stroke:#82bbdb;" x="129.833027" xlink:href="#m7726d90bdc" y="181.726485"/>
    </g>
   </g>
   <g id="PathCollection_68">
    <g clip-path="url(#pf9234fa9a0)">
     <use style="fill:#b4d3e9;stroke:#b4d3e9;" x="185.317384" xlink:href="#me95af7155e" y="135.02313"/>
    </g>
   </g>
   <g id="PathCollection_69">
    <g clip-path="url(#pf9234fa9a0)">
     <use style="fill:#4f9bcb;stroke:#4f9bcb;" x="195.621622" xlink:href="#m4c9b5d91fc" y="45.767828"/>
    </g>
   </g>
   <g id="PathCollection_70">
    <g clip-path="url(#pf9234fa9a0)">
     <use style="fill:#66abd4;stroke:#66abd4;" x="217.022731" xlink:href="#mfe17464460" y="116.341788"/>
    </g>
   </g>
   <g id="PathCollection_71">
    <g clip-path="url(#pf9234fa9a0)">
     <use style="fill:#9dcae1;stroke:#9dcae1;" x="189.280553" xlink:href="#me58fff05ce" y="116.341788"/>
    </g>
   </g>
   <g id="PathCollection_72">
    <g clip-path="url(#pf9234fa9a0)">
     <use style="fill:#66abd4;stroke:#66abd4;" x="105.261383" xlink:href="#mfe17464460" y="221.164875"/>
    </g>
   </g>
   <g id="PathCollection_73">
    <g clip-path="url(#pf9234fa9a0)">
     <use style="fill:#9dcae1;stroke:#9dcae1;" x="130.62566" xlink:href="#me58fff05ce" y="217.013465"/>
    </g>
   </g>
   <g id="PathCollection_74">
    <g clip-path="url(#pf9234fa9a0)">
     <use style="fill:#66abd4;stroke:#66abd4;" x="194.828988" xlink:href="#mfe17464460" y="64.449171"/>
    </g>
   </g>
   <g id="PathCollection_75">
    <g clip-path="url(#pf9234fa9a0)">
     <use style="fill:#9dcae1;stroke:#9dcae1;" x="183.732117" xlink:href="#me58fff05ce" y="117.37964"/>
    </g>
   </g>
   <g id="PathCollection_76">
    <g clip-path="url(#pf9234fa9a0)">
     <use style="fill:#66abd4;stroke:#66abd4;" x="186.902652" xlink:href="#mfe17464460" y="107.001117"/>
    </g>
   </g>
   <g id="PathCollection_77">
    <defs>
     <path d="M 0 3 
C 0.795609 3 1.55874 2.683901 2.12132 2.12132 
C 2.683901 1.55874 3 0.795609 3 0 
C 3 -0.795609 2.683901 -1.55874 2.12132 -2.12132 
C 1.55874 -2.683901 0.795609 -3 0 -3 
C -0.795609 -3 -1.55874 -2.683901 -2.12132 -2.12132 
C -2.683901 -1.55874 -3 -0.795609 -3 0 
C -3 0.795609 -2.683901 1.55874 -2.12132 2.12132 
C -1.55874 2.683901 -0.795609 3 0 3 
z
" id="m1eb2255744" style="stroke:#1966ad;"/>
    </defs>
    <g clip-path="url(#pf9234fa9a0)">
     <use style="fill:#1966ad;stroke:#1966ad;" x="380.305269" xlink:href="#m1eb2255744" y="276.171049"/>
    </g>
   </g>
   <g id="PathCollection_78">
    <g clip-path="url(#pf9234fa9a0)">
     <use style="fill:#82bbdb;stroke:#82bbdb;" x="173.427879" xlink:href="#m7726d90bdc" y="118.417493"/>
    </g>
   </g>
   <g id="PathCollection_79">
    <g clip-path="url(#pf9234fa9a0)">
     <use style="fill:#3a8ac2;stroke:#3a8ac2;" x="143.307799" xlink:href="#m5c337da247" y="323.912257"/>
    </g>
   </g>
   <g id="PathCollection_80">
    <g clip-path="url(#pf9234fa9a0)">
     <use style="fill:#b4d3e9;stroke:#b4d3e9;" x="201.170058" xlink:href="#me95af7155e" y="140.212392"/>
    </g>
   </g>
   <g id="PathCollection_81">
    <g clip-path="url(#pf9234fa9a0)">
     <use style="fill:#82bbdb;stroke:#82bbdb;" x="219.400632" xlink:href="#m7726d90bdc" y="122.568902"/>
    </g>
   </g>
   <g id="PathCollection_82">
    <g clip-path="url(#pf9234fa9a0)">
     <use style="fill:#82bbdb;stroke:#82bbdb;" x="193.243721" xlink:href="#m7726d90bdc" y="177.575076"/>
    </g>
   </g>
   <g id="PathCollection_83">
    <g clip-path="url(#pf9234fa9a0)">
     <use style="fill:#3a8ac2;stroke:#3a8ac2;" x="103.676115" xlink:href="#m5c337da247" y="169.272257"/>
    </g>
   </g>
   <g id="PathCollection_84">
    <g clip-path="url(#pf9234fa9a0)">
     <use style="fill:#82bbdb;stroke:#82bbdb;" x="186.902652" xlink:href="#m7726d90bdc" y="115.303935"/>
    </g>
   </g>
   <g id="PathCollection_85">
    <g clip-path="url(#pf9234fa9a0)">
     <use style="fill:#82bbdb;stroke:#82bbdb;" x="171.842612" xlink:href="#m7726d90bdc" y="111.152526"/>
    </g>
   </g>
   <g id="PathCollection_86">
    <g clip-path="url(#pf9234fa9a0)">
     <use style="fill:#82bbdb;stroke:#82bbdb;" x="134.588829" xlink:href="#m7726d90bdc" y="181.726485"/>
    </g>
   </g>
   <g id="PathCollection_87">
    <g clip-path="url(#pf9234fa9a0)">
     <use style="fill:#2979b9;stroke:#2979b9;" x="76.72657" xlink:href="#m9c7301f0dc" y="260.603264"/>
    </g>
   </g>
   <g id="PathCollection_88">
    <g clip-path="url(#pf9234fa9a0)">
     <use style="fill:#0a549e;stroke:#0a549e;" x="22.82748" xlink:href="#m3fd4b627d5" y="283.436015"/>
    </g>
   </g>
   <g id="PathCollection_89">
    <g clip-path="url(#pf9234fa9a0)">
     <use style="fill:#9dcae1;stroke:#9dcae1;" x="143.307799" xlink:href="#me58fff05ce" y="186.915747"/>
    </g>
   </g>
   <g id="PathCollection_90">
    <g clip-path="url(#pf9234fa9a0)">
     <use style="fill:#b4d3e9;stroke:#b4d3e9;" x="192.451087" xlink:href="#me95af7155e" y="140.212392"/>
    </g>
   </g>
   <g id="PathCollection_91">
    <g clip-path="url(#pf9234fa9a0)">
     <use style="fill:#66abd4;stroke:#66abd4;" x="204.340593" xlink:href="#mfe17464460" y="93.509036"/>
    </g>
   </g>
   <g id="PathCollection_92">
    <g clip-path="url(#pf9234fa9a0)">
     <use style="fill:#66abd4;stroke:#66abd4;" x="178.976315" xlink:href="#mfe17464460" y="75.865546"/>
    </g>
   </g>
   <g id="PathCollection_93">
    <g clip-path="url(#pf9234fa9a0)">
     <use style="fill:#82bbdb;stroke:#82bbdb;" x="175.80578" xlink:href="#m7726d90bdc" y="109.076821"/>
    </g>
   </g>
   <g id="PathCollection_94">
    <g clip-path="url(#pf9234fa9a0)">
     <use style="fill:#b4d3e9;stroke:#b4d3e9;" x="182.939483" xlink:href="#me95af7155e" y="133.985278"/>
    </g>
   </g>
   <g id="PathCollection_95">
    <g clip-path="url(#pf9234fa9a0)">
     <use style="fill:#b4d3e9;stroke:#b4d3e9;" x="187.695285" xlink:href="#me95af7155e" y="127.758164"/>
    </g>
   </g>
   <g id="PathCollection_96">
    <g clip-path="url(#pf9234fa9a0)">
     <use style="fill:#66abd4;stroke:#66abd4;" x="178.183681" xlink:href="#mfe17464460" y="101.811855"/>
    </g>
   </g>
   <g id="PathCollection_97">
    <g clip-path="url(#pf9234fa9a0)">
     <use style="fill:#4f9bcb;stroke:#4f9bcb;" x="175.80578" xlink:href="#m4c9b5d91fc" y="53.032795"/>
    </g>
   </g>
   <g id="PathCollection_98">
    <g clip-path="url(#pf9234fa9a0)">
     <use style="fill:#b4d3e9;stroke:#b4d3e9;" x="186.110018" xlink:href="#me95af7155e" y="131.909573"/>
    </g>
   </g>
   <g id="PathCollection_99">
    <g clip-path="url(#pf9234fa9a0)">
     <use style="fill:#9dcae1;stroke:#9dcae1;" x="192.451087" xlink:href="#me58fff05ce" y="185.877895"/>
    </g>
   </g>
   <g id="PathCollection_100">
    <g clip-path="url(#pf9234fa9a0)">
     <use style="fill:#82bbdb;stroke:#82bbdb;" x="176.598414" xlink:href="#m7726d90bdc" y="101.811855"/>
    </g>
   </g>
   <g id="PathCollection_101">
    <g clip-path="url(#pf9234fa9a0)">
     <use style="fill:#b4d3e9;stroke:#b4d3e9;" x="186.902652" xlink:href="#me95af7155e" y="129.833868"/>
    </g>
   </g>
   <g id="PathCollection_102">
    <defs>
     <path d="M 0 3 
C 0.795609 3 1.55874 2.683901 2.12132 2.12132 
C 2.683901 1.55874 3 0.795609 3 0 
C 3 -0.795609 2.683901 -1.55874 2.12132 -2.12132 
C 1.55874 -2.683901 0.795609 -3 0 -3 
C -0.795609 -3 -1.55874 -2.683901 -2.12132 -2.12132 
C -2.683901 -1.55874 -3 -0.795609 -3 0 
C -3 0.795609 -2.683901 1.55874 -2.12132 2.12132 
C -1.55874 2.683901 -0.795609 3 0 3 
z
" id="m4f5e7e90ff" style="stroke:#d6e6f4;"/>
    </defs>
    <g clip-path="url(#pf9234fa9a0)">
     <use style="fill:#d6e6f4;stroke:#d6e6f4;" x="195.621622" xlink:href="#m4f5e7e90ff" y="147.477358"/>
    </g>
   </g>
   <g id="PathCollection_103">
    <g clip-path="url(#pf9234fa9a0)">
     <use style="fill:#3a8ac2;stroke:#3a8ac2;" x="192.451087" xlink:href="#m5c337da247" y="17.745815"/>
    </g>
   </g>
   <g id="PathCollection_104">
    <g clip-path="url(#pf9234fa9a0)">
     <use style="fill:#9dcae1;stroke:#9dcae1;" x="154.404671" xlink:href="#me58fff05ce" y="169.272257"/>
    </g>
   </g>
   <g id="PathCollection_105">
    <g clip-path="url(#pf9234fa9a0)">
     <use style="fill:#9dcae1;stroke:#9dcae1;" x="190.86582" xlink:href="#me58fff05ce" y="131.909573"/>
    </g>
   </g>
   <g id="PathCollection_106">
    <g clip-path="url(#pf9234fa9a0)">
     <use style="fill:#3a8ac2;stroke:#3a8ac2;" x="68.0076" xlink:href="#m5c337da247" y="255.414002"/>
    </g>
   </g>
   <g id="PathCollection_107">
    <g clip-path="url(#pf9234fa9a0)">
     <use style="fill:#9dcae1;stroke:#9dcae1;" x="180.561582" xlink:href="#me58fff05ce" y="108.038969"/>
    </g>
   </g>
   <g id="PathCollection_108">
    <defs>
     <path d="M 0 3 
C 0.795609 3 1.55874 2.683901 2.12132 2.12132 
C 2.683901 1.55874 3 0.795609 3 0 
C 3 -0.795609 2.683901 -1.55874 2.12132 -2.12132 
C 1.55874 -2.683901 0.795609 -3 0 -3 
C -0.795609 -3 -1.55874 -2.683901 -2.12132 -2.12132 
C -2.683901 -1.55874 -3 -0.795609 -3 0 
C -3 0.795609 -2.683901 1.55874 -2.12132 2.12132 
C -1.55874 2.683901 -0.795609 3 0 3 
z
" id="me1643dcc65" style="stroke:#084285;"/>
    </defs>
    <g clip-path="url(#pf9234fa9a0)">
     <use style="fill:#084285;stroke:#084285;" x="244.76491" xlink:href="#me1643dcc65" y="27.086486"/>
    </g>
   </g>
   <g id="matplotlib.axis_1">
    <g id="xtick_1">
     <g id="line2d_1">
      <defs>
       <path d="M 0 0 
L 0 3.5 
" id="m3e24001f3b" style="stroke:#000000;stroke-width:0.8;"/>
      </defs>
      <g>
       <use style="stroke:#000000;stroke-width:0.8;" x="22.82748" xlink:href="#m3e24001f3b" y="345.6"/>
      </g>
     </g>
     <g id="text_1">
      <text style="font-family:DejaVu Sans;font-size:10px;font-style:normal;font-weight:normal;text-anchor:middle;" transform="rotate(-0, 22.82748, 360.198437)" x="22.82748" y="360.198437">−0.2</text>
     </g>
    </g>
    <g id="xtick_2">
     <g id="line2d_2">
      <g>
       <use style="stroke:#000000;stroke-width:0.8;" x="102.090848" xlink:href="#m3e24001f3b" y="345.6"/>
      </g>
     </g>
     <g id="text_2">
      <text style="font-family:DejaVu Sans;font-size:10px;font-style:normal;font-weight:normal;text-anchor:middle;" transform="rotate(-0, 102.090848, 360.198437)" x="102.090848" y="360.198437">−0.1</text>
     </g>
    </g>
    <g id="xtick_3">
     <g id="line2d_3">
      <g>
       <use style="stroke:#000000;stroke-width:0.8;" x="181.354216" xlink:href="#m3e24001f3b" y="345.6"/>
      </g>
     </g>
     <g id="text_3">
      <text style="font-family:DejaVu Sans;font-size:10px;font-style:normal;font-weight:normal;text-anchor:middle;" transform="rotate(-0, 181.354216, 360.198437)" x="181.354216" y="360.198437">0.0</text>
     </g>
    </g>
    <g id="xtick_4">
     <g id="line2d_4">
      <g>
       <use style="stroke:#000000;stroke-width:0.8;" x="260.617584" xlink:href="#m3e24001f3b" y="345.6"/>
      </g>
     </g>
     <g id="text_4">
      <text style="font-family:DejaVu Sans;font-size:10px;font-style:normal;font-weight:normal;text-anchor:middle;" transform="rotate(-0, 260.617584, 360.198437)" x="260.617584" y="360.198437">0.1</text>
     </g>
    </g>
    <g id="xtick_5">
     <g id="line2d_5">
      <g>
       <use style="stroke:#000000;stroke-width:0.8;" x="339.880952" xlink:href="#m3e24001f3b" y="345.6"/>
      </g>
     </g>
     <g id="text_5">
      <text style="font-family:DejaVu Sans;font-size:10px;font-style:normal;font-weight:normal;text-anchor:middle;" transform="rotate(-0, 339.880952, 360.198437)" x="339.880952" y="360.198437">0.2</text>
     </g>
    </g>
    <g id="xtick_6">
     <g id="line2d_6">
      <g>
       <use style="stroke:#000000;stroke-width:0.8;" x="419.14432" xlink:href="#m3e24001f3b" y="345.6"/>
      </g>
     </g>
     <g id="text_6">
      <text style="font-family:DejaVu Sans;font-size:10px;font-style:normal;font-weight:normal;text-anchor:middle;" transform="rotate(-0, 419.14432, 360.198437)" x="419.14432" y="360.198437">0.3</text>
     </g>
    </g>
   </g>
   <g id="matplotlib.axis_2">
    <g id="ytick_1">
     <g id="line2d_7">
      <defs>
       <path d="M 0 0 
L -3.5 0 
" id="mcfb41f86b1" style="stroke:#000000;stroke-width:0.8;"/>
      </defs>
      <g>
       <use style="stroke:#000000;stroke-width:0.8;" x="0" xlink:href="#mcfb41f86b1" y="294.852391"/>
      </g>
     </g>
     <g id="text_7">
      <text style="font-family:DejaVu Sans;font-size:10px;font-style:normal;font-weight:normal;text-anchor:end;" transform="rotate(-0, -7, 298.65161)" x="-7" y="298.65161">−0.15</text>
     </g>
    </g>
    <g id="ytick_2">
     <g id="line2d_8">
      <g>
       <use style="stroke:#000000;stroke-width:0.8;" x="0" xlink:href="#mcfb41f86b1" y="242.959774"/>
      </g>
     </g>
     <g id="text_8">
      <text style="font-family:DejaVu Sans;font-size:10px;font-style:normal;font-weight:normal;text-anchor:end;" transform="rotate(-0, -7, 246.758993)" x="-7" y="246.758993">−0.10</text>
     </g>
    </g>
    <g id="ytick_3">
     <g id="line2d_9">
      <g>
       <use style="stroke:#000000;stroke-width:0.8;" x="0" xlink:href="#mcfb41f86b1" y="191.067157"/>
      </g>
     </g>
     <g id="text_9">
      <text style="font-family:DejaVu Sans;font-size:10px;font-style:normal;font-weight:normal;text-anchor:end;" transform="rotate(-0, -7, 194.866375)" x="-7" y="194.866375">−0.05</text>
     </g>
    </g>
    <g id="ytick_4">
     <g id="line2d_10">
      <g>
       <use style="stroke:#000000;stroke-width:0.8;" x="0" xlink:href="#mcfb41f86b1" y="139.174539"/>
      </g>
     </g>
     <g id="text_10">
      <text style="font-family:DejaVu Sans;font-size:10px;font-style:normal;font-weight:normal;text-anchor:end;" transform="rotate(-0, -7, 142.973758)" x="-7" y="142.973758">0.00</text>
     </g>
    </g>
    <g id="ytick_5">
     <g id="line2d_11">
      <g>
       <use style="stroke:#000000;stroke-width:0.8;" x="0" xlink:href="#mcfb41f86b1" y="87.281922"/>
      </g>
     </g>
     <g id="text_11">
      <text style="font-family:DejaVu Sans;font-size:10px;font-style:normal;font-weight:normal;text-anchor:end;" transform="rotate(-0, -7, 91.081141)" x="-7" y="91.081141">0.05</text>
     </g>
    </g>
    <g id="ytick_6">
     <g id="line2d_12">
      <g>
       <use style="stroke:#000000;stroke-width:0.8;" x="0" xlink:href="#mcfb41f86b1" y="35.389305"/>
      </g>
     </g>
     <g id="text_12">
      <text style="font-family:DejaVu Sans;font-size:10px;font-style:normal;font-weight:normal;text-anchor:end;" transform="rotate(-0, -7, 39.188524)" x="-7" y="39.188524">0.10</text>
     </g>
    </g>
   </g>
   <g id="line2d_13">
    <path clip-path="url(#pf9234fa9a0)" d="M 195.621622 147.477358 
" style="fill:none;stroke:#ff0000;stroke-linecap:square;stroke-width:1.5;"/>
    <defs>
     <path d="M 0 2.5 
C 0.663008 2.5 1.29895 2.236584 1.767767 1.767767 
C 2.236584 1.29895 2.5 0.663008 2.5 0 
C 2.5 -0.663008 2.236584 -1.29895 1.767767 -1.767767 
C 1.29895 -2.236584 0.663008 -2.5 0 -2.5 
C -0.663008 -2.5 -1.29895 -2.236584 -1.767767 -1.767767 
C -2.236584 -1.29895 -2.5 -0.663008 -2.5 0 
C -2.5 0.663008 -2.236584 1.29895 -1.767767 1.767767 
C -1.29895 2.236584 -0.663008 2.5 0 2.5 
z
" id="m497d7404c4" style="stroke:#ff0000;"/>
    </defs>
    <g clip-path="url(#pf9234fa9a0)">
     <use style="fill:#ff0000;stroke:#ff0000;" x="195.621622" xlink:href="#m497d7404c4" y="147.477358"/>
    </g>
   </g>
   <g id="patch_3">
    <path d="M 0 345.6 
L 0 0 
" style="fill:none;stroke:#000000;stroke-linecap:square;stroke-linejoin:miter;stroke-width:0.8;"/>
   </g>
   <g id="patch_4">
    <path d="M 460.8 345.6 
L 460.8 0 
" style="fill:none;stroke:#000000;stroke-linecap:square;stroke-linejoin:miter;stroke-width:0.8;"/>
   </g>
   <g id="patch_5">
    <path d="M 0 345.6 
L 460.8 345.6 
" style="fill:none;stroke:#000000;stroke-linecap:square;stroke-linejoin:miter;stroke-width:0.8;"/>
   </g>
   <g id="patch_6">
    <path d="M 0 0 
L 460.8 0 
" style="fill:none;stroke:#000000;stroke-linecap:square;stroke-linejoin:miter;stroke-width:0.8;"/>
   </g>
   <g id="text_13">
    <text style="fill:#ff0000;font-family:DejaVu Sans;font-size:8px;font-style:normal;font-weight:normal;text-anchor:start;" transform="rotate(-0, 195.621622, 147.477358)" x="195.621622" y="147.477358">_consensus</text>
   </g>
  </g>
  <g id="text_14">
   <text style="font-family:DejaVu Sans;font-size:15px;font-style:normal;font-weight:normal;text-anchor:start;" transform="rotate(-0, 184.32, 34.56)" x="184.32" y="34.56">MDS comp. (index 3 size 122)</text>
  </g>
 </g>
 <defs>
  <clipPath id="pf9234fa9a0">
   <rect height="345.6" width="460.8" x="0" y="0"/>
  </clipPath>
 </defs>
</svg>
