<?xml version="1.0" encoding="utf-8" standalone="no"?>
<!DOCTYPE svg PUBLIC "-//W3C//DTD SVG 1.1//EN"
  "http://www.w3.org/Graphics/SVG/1.1/DTD/svg11.dtd">
<!-- Created with matplotlib (http://matplotlib.org/) -->
<svg height="345.6pt" version="1.1" viewBox="0 0 460.8 345.6" width="460.8pt" xmlns="http://www.w3.org/2000/svg" xmlns:xlink="http://www.w3.org/1999/xlink">
 <defs>
  <style type="text/css">
*{stroke-linecap:butt;stroke-linejoin:round;}
  </style>
 </defs>
 <g id="figure_1">
  <g id="patch_1">
   <path d="M 0 345.6 
L 460.8 345.6 
L 460.8 0 
L 0 0 
z
" style="fill:#ffffff;"/>
  </g>
  <g id="axes_1">
   <g id="patch_2">
    <path d="M 0 345.6 
L 460.8 345.6 
L 460.8 0 
L 0 0 
z
" style="fill:#ffffff;"/>
   </g>
   <g id="PathCollection_1">
    <defs>
     <path d="M 0 3 
C 0.795609 3 1.55874 2.683901 2.12132 2.12132 
C 2.683901 1.55874 3 0.795609 3 0 
C 3 -0.795609 2.683901 -1.55874 2.12132 -2.12132 
C 1.55874 -2.683901 0.795609 -3 0 -3 
C -0.795609 -3 -1.55874 -2.683901 -2.12132 -2.12132 
C -2.683901 -1.55874 -3 -0.795609 -3 0 
C -3 0.795609 -2.683901 1.55874 -2.12132 2.12132 
C -1.55874 2.683901 -0.795609 3 0 3 
z
" id="md3ecdd57cb" style="stroke:#2f7fbc;"/>
    </defs>
    <g clip-path="url(#pa5fdd9d183)">
     <use style="fill:#2f7fbc;stroke:#2f7fbc;" x="39.693921" xlink:href="#md3ecdd57cb" y="68.643969"/>
    </g>
   </g>
   <g id="PathCollection_2">
    <g clip-path="url(#pa5fdd9d183)">
     <use style="fill:#2f7fbc;stroke:#2f7fbc;" x="51.692939" xlink:href="#md3ecdd57cb" y="16.032044"/>
    </g>
   </g>
   <g id="PathCollection_3">
    <defs>
     <path d="M 0 3 
C 0.795609 3 1.55874 2.683901 2.12132 2.12132 
C 2.683901 1.55874 3 0.795609 3 0 
C 3 -0.795609 2.683901 -1.55874 2.12132 -2.12132 
C 1.55874 -2.683901 0.795609 -3 0 -3 
C -0.795609 -3 -1.55874 -2.683901 -2.12132 -2.12132 
C -2.683901 -1.55874 -3 -0.795609 -3 0 
C -3 0.795609 -2.683901 1.55874 -2.12132 2.12132 
C -1.55874 2.683901 -0.795609 3 0 3 
z
" id="m3c4b9fb35c" style="stroke:#08306b;"/>
    </defs>
    <g clip-path="url(#pa5fdd9d183)">
     <use style="fill:#08306b;stroke:#08306b;" x="439.661202" xlink:href="#m3c4b9fb35c" y="128.771885"/>
    </g>
   </g>
   <g id="PathCollection_4">
    <defs>
     <path d="M 0 3 
C 0.795609 3 1.55874 2.683901 2.12132 2.12132 
C 2.683901 1.55874 3 0.795609 3 0 
C 3 -0.795609 2.683901 -1.55874 2.12132 -2.12132 
C 1.55874 -2.683901 0.795609 -3 0 -3 
C -0.795609 -3 -1.55874 -2.683901 -2.12132 -2.12132 
C -2.683901 -1.55874 -3 -0.795609 -3 0 
C -3 0.795609 -2.683901 1.55874 -2.12132 2.12132 
C -1.55874 2.683901 -0.795609 3 0 3 
z
" id="m8551ab8f1b" style="stroke:#1c6bb0;"/>
    </defs>
    <g clip-path="url(#pa5fdd9d183)">
     <use style="fill:#1c6bb0;stroke:#1c6bb0;" x="119.687377" xlink:href="#m8551ab8f1b" y="297.881646"/>
    </g>
   </g>
   <g id="PathCollection_5">
    <g clip-path="url(#pa5fdd9d183)">
     <use style="fill:#08306b;stroke:#08306b;" x="423.662511" xlink:href="#m3c4b9fb35c" y="177.625816"/>
    </g>
   </g>
   <g id="PathCollection_6">
    <g clip-path="url(#pa5fdd9d183)">
     <use style="fill:#2f7fbc;stroke:#2f7fbc;" x="307.671999" xlink:href="#md3ecdd57cb" y="158.835842"/>
    </g>
   </g>
   <g id="PathCollection_7">
    <g clip-path="url(#pa5fdd9d183)">
     <use style="fill:#1c6bb0;stroke:#1c6bb0;" x="335.669709" xlink:href="#m8551ab8f1b" y="151.319853"/>
    </g>
   </g>
   <g id="PathCollection_8">
    <defs>
     <path d="M 0 3 
C 0.795609 3 1.55874 2.683901 2.12132 2.12132 
C 2.683901 1.55874 3 0.795609 3 0 
C 3 -0.795609 2.683901 -1.55874 2.12132 -2.12132 
C 1.55874 -2.683901 0.795609 -3 0 -3 
C -0.795609 -3 -1.55874 -2.683901 -2.12132 -2.12132 
C -2.683901 -1.55874 -3 -0.795609 -3 0 
C -3 0.795609 -2.683901 1.55874 -2.12132 2.12132 
C -1.55874 2.683901 -0.795609 3 0 3 
z
" id="mcf9486d4b0" style="stroke:#d6e6f4;"/>
    </defs>
    <g clip-path="url(#pa5fdd9d183)">
     <use style="fill:#d6e6f4;stroke:#d6e6f4;" x="171.683124" xlink:href="#mcf9486d4b0" y="173.867821"/>
    </g>
   </g>
   <g id="PathCollection_9">
    <defs>
     <path d="M 0 3 
C 0.795609 3 1.55874 2.683901 2.12132 2.12132 
C 2.683901 1.55874 3 0.795609 3 0 
C 3 -0.795609 2.683901 -1.55874 2.12132 -2.12132 
C 1.55874 -2.683901 0.795609 -3 0 -3 
C -0.795609 -3 -1.55874 -2.683901 -2.12132 -2.12132 
C -2.683901 -1.55874 -3 -0.795609 -3 0 
C -3 0.795609 -2.683901 1.55874 -2.12132 2.12132 
C -1.55874 2.683901 -0.795609 3 0 3 
z
" id="m5a7ea78a49" style="stroke:#5ca4d0;"/>
    </defs>
    <g clip-path="url(#pa5fdd9d183)">
     <use style="fill:#5ca4d0;stroke:#5ca4d0;" x="95.68934" xlink:href="#m5a7ea78a49" y="76.159959"/>
    </g>
   </g>
   <g id="PathCollection_10">
    <defs>
     <path d="M 0 3 
C 0.795609 3 1.55874 2.683901 2.12132 2.12132 
C 2.683901 1.55874 3 0.795609 3 0 
C 3 -0.795609 2.683901 -1.55874 2.12132 -2.12132 
C 1.55874 -2.683901 0.795609 -3 0 -3 
C -0.795609 -3 -1.55874 -2.683901 -2.12132 -2.12132 
C -2.683901 -1.55874 -3 -0.795609 -3 0 
C -3 0.795609 -2.683901 1.55874 -2.12132 2.12132 
C -1.55874 2.683901 -0.795609 3 0 3 
z
" id="m0cb3494f9e" style="stroke:#0d57a1;"/>
    </defs>
    <g clip-path="url(#pa5fdd9d183)">
     <use style="fill:#0d57a1;stroke:#0d57a1;" x="83.690322" xlink:href="#m0cb3494f9e" y="327.945604"/>
    </g>
   </g>
   <g id="PathCollection_11">
    <g clip-path="url(#pa5fdd9d183)">
     <use style="fill:#d6e6f4;stroke:#d6e6f4;" x="95.68934" xlink:href="#mcf9486d4b0" y="79.917954"/>
    </g>
   </g>
   <g id="PathCollection_12">
    <g clip-path="url(#pa5fdd9d183)">
     <use style="fill:#1c6bb0;stroke:#1c6bb0;" x="343.669054" xlink:href="#m8551ab8f1b" y="147.561858"/>
    </g>
   </g>
   <g id="PathCollection_13">
    <g clip-path="url(#pa5fdd9d183)">
     <use style="fill:#0d57a1;stroke:#0d57a1;" x="87.689995" xlink:href="#m0cb3494f9e" y="301.639641"/>
    </g>
   </g>
   <g id="matplotlib.axis_1">
    <g id="xtick_1">
     <g id="line2d_1">
      <defs>
       <path d="M 0 0 
L 0 3.5 
" id="me727249a6f" style="stroke:#000000;stroke-width:0.8;"/>
      </defs>
      <g>
       <use style="stroke:#000000;stroke-width:0.8;" x="39.693921" xlink:href="#me727249a6f" y="345.6"/>
      </g>
     </g>
     <g id="text_1">
      <text style="font-family:DejaVu Sans;font-size:10px;font-style:normal;font-weight:normal;text-anchor:middle;" transform="rotate(-0, 39.693921, 360.198437)" x="39.693921" y="360.198437">−0.04</text>
     </g>
    </g>
    <g id="xtick_2">
     <g id="line2d_2">
      <g>
       <use style="stroke:#000000;stroke-width:0.8;" x="119.687377" xlink:href="#me727249a6f" y="345.6"/>
      </g>
     </g>
     <g id="text_2">
      <text style="font-family:DejaVu Sans;font-size:10px;font-style:normal;font-weight:normal;text-anchor:middle;" transform="rotate(-0, 119.687377, 360.198437)" x="119.687377" y="360.198437">−0.02</text>
     </g>
    </g>
    <g id="xtick_3">
     <g id="line2d_3">
      <g>
       <use style="stroke:#000000;stroke-width:0.8;" x="199.680833" xlink:href="#me727249a6f" y="345.6"/>
      </g>
     </g>
     <g id="text_3">
      <text style="font-family:DejaVu Sans;font-size:10px;font-style:normal;font-weight:normal;text-anchor:middle;" transform="rotate(-0, 199.680833, 360.198437)" x="199.680833" y="360.198437">0.00</text>
     </g>
    </g>
    <g id="xtick_4">
     <g id="line2d_4">
      <g>
       <use style="stroke:#000000;stroke-width:0.8;" x="279.674289" xlink:href="#me727249a6f" y="345.6"/>
      </g>
     </g>
     <g id="text_4">
      <text style="font-family:DejaVu Sans;font-size:10px;font-style:normal;font-weight:normal;text-anchor:middle;" transform="rotate(-0, 279.674289, 360.198437)" x="279.674289" y="360.198437">0.02</text>
     </g>
    </g>
    <g id="xtick_5">
     <g id="line2d_5">
      <g>
       <use style="stroke:#000000;stroke-width:0.8;" x="359.667746" xlink:href="#me727249a6f" y="345.6"/>
      </g>
     </g>
     <g id="text_5">
      <text style="font-family:DejaVu Sans;font-size:10px;font-style:normal;font-weight:normal;text-anchor:middle;" transform="rotate(-0, 359.667746, 360.198437)" x="359.667746" y="360.198437">0.04</text>
     </g>
    </g>
    <g id="xtick_6">
     <g id="line2d_6">
      <g>
       <use style="stroke:#000000;stroke-width:0.8;" x="439.661202" xlink:href="#me727249a6f" y="345.6"/>
      </g>
     </g>
     <g id="text_6">
      <text style="font-family:DejaVu Sans;font-size:10px;font-style:normal;font-weight:normal;text-anchor:middle;" transform="rotate(-0, 439.661202, 360.198437)" x="439.661202" y="360.198437">0.06</text>
     </g>
    </g>
   </g>
   <g id="matplotlib.axis_2">
    <g id="ytick_1">
     <g id="line2d_7">
      <defs>
       <path d="M 0 0 
L -3.5 0 
" id="mfdaae24a77" style="stroke:#000000;stroke-width:0.8;"/>
      </defs>
      <g>
       <use style="stroke:#000000;stroke-width:0.8;" x="0" xlink:href="#mfdaae24a77" y="312.913625"/>
      </g>
     </g>
     <g id="text_7">
      <text style="font-family:DejaVu Sans;font-size:10px;font-style:normal;font-weight:normal;text-anchor:end;" transform="rotate(-0, -7, 316.712844)" x="-7" y="316.712844">−0.04</text>
     </g>
    </g>
    <g id="ytick_2">
     <g id="line2d_8">
      <g>
       <use style="stroke:#000000;stroke-width:0.8;" x="0" xlink:href="#mfdaae24a77" y="237.753731"/>
      </g>
     </g>
     <g id="text_8">
      <text style="font-family:DejaVu Sans;font-size:10px;font-style:normal;font-weight:normal;text-anchor:end;" transform="rotate(-0, -7, 241.55295)" x="-7" y="241.55295">−0.02</text>
     </g>
    </g>
    <g id="ytick_3">
     <g id="line2d_9">
      <g>
       <use style="stroke:#000000;stroke-width:0.8;" x="0" xlink:href="#mfdaae24a77" y="162.593837"/>
      </g>
     </g>
     <g id="text_9">
      <text style="font-family:DejaVu Sans;font-size:10px;font-style:normal;font-weight:normal;text-anchor:end;" transform="rotate(-0, -7, 166.393056)" x="-7" y="166.393056">0.00</text>
     </g>
    </g>
    <g id="ytick_4">
     <g id="line2d_10">
      <g>
       <use style="stroke:#000000;stroke-width:0.8;" x="0" xlink:href="#mfdaae24a77" y="87.433943"/>
      </g>
     </g>
     <g id="text_10">
      <text style="font-family:DejaVu Sans;font-size:10px;font-style:normal;font-weight:normal;text-anchor:end;" transform="rotate(-0, -7, 91.233162)" x="-7" y="91.233162">0.02</text>
     </g>
    </g>
    <g id="ytick_5">
     <g id="line2d_11">
      <g>
       <use style="stroke:#000000;stroke-width:0.8;" x="0" xlink:href="#mfdaae24a77" y="12.274049"/>
      </g>
     </g>
     <g id="text_11">
      <text style="font-family:DejaVu Sans;font-size:10px;font-style:normal;font-weight:normal;text-anchor:end;" transform="rotate(-0, -7, 16.073268)" x="-7" y="16.073268">0.04</text>
     </g>
    </g>
   </g>
   <g id="line2d_12">
    <path clip-path="url(#pa5fdd9d183)" d="M 95.68934 79.917954 
" style="fill:none;stroke:#ff0000;stroke-linecap:square;stroke-width:1.5;"/>
    <defs>
     <path d="M 0 2.5 
C 0.663008 2.5 1.29895 2.236584 1.767767 1.767767 
C 2.236584 1.29895 2.5 0.663008 2.5 0 
C 2.5 -0.663008 2.236584 -1.29895 1.767767 -1.767767 
C 1.29895 -2.236584 0.663008 -2.5 0 -2.5 
C -0.663008 -2.5 -1.29895 -2.236584 -1.767767 -1.767767 
C -2.236584 -1.29895 -2.5 -0.663008 -2.5 0 
C -2.5 0.663008 -2.236584 1.29895 -1.767767 1.767767 
C -1.29895 2.236584 -0.663008 2.5 0 2.5 
z
" id="mbc800f4b66" style="stroke:#ff0000;"/>
    </defs>
    <g clip-path="url(#pa5fdd9d183)">
     <use style="fill:#ff0000;stroke:#ff0000;" x="95.68934" xlink:href="#mbc800f4b66" y="79.917954"/>
    </g>
   </g>
   <g id="line2d_13">
    <path clip-path="url(#pa5fdd9d183)" d="M 171.683124 173.867821 
" style="fill:none;stroke:#ff0000;stroke-linecap:square;stroke-width:1.5;"/>
    <g clip-path="url(#pa5fdd9d183)">
     <use style="fill:#ff0000;stroke:#ff0000;" x="171.683124" xlink:href="#mbc800f4b66" y="173.867821"/>
    </g>
   </g>
   <g id="patch_3">
    <path d="M 0 345.6 
L 0 0 
" style="fill:none;stroke:#000000;stroke-linecap:square;stroke-linejoin:miter;stroke-width:0.8;"/>
   </g>
   <g id="patch_4">
    <path d="M 460.8 345.6 
L 460.8 0 
" style="fill:none;stroke:#000000;stroke-linecap:square;stroke-linejoin:miter;stroke-width:0.8;"/>
   </g>
   <g id="patch_5">
    <path d="M 0 345.6 
L 460.8 345.6 
" style="fill:none;stroke:#000000;stroke-linecap:square;stroke-linejoin:miter;stroke-width:0.8;"/>
   </g>
   <g id="patch_6">
    <path d="M 0 0 
L 460.8 0 
" style="fill:none;stroke:#000000;stroke-linecap:square;stroke-linejoin:miter;stroke-width:0.8;"/>
   </g>
   <g id="text_12">
    <text style="fill:#ff0000;font-family:DejaVu Sans;font-size:8px;font-style:normal;font-weight:normal;text-anchor:start;" transform="rotate(-0, 95.68934, 79.917954)" x="95.68934" y="79.917954">_naive</text>
   </g>
   <g id="text_13">
    <text style="fill:#ff0000;font-family:DejaVu Sans;font-size:8px;font-style:normal;font-weight:normal;text-anchor:start;" transform="rotate(-0, 171.683124, 173.867821)" x="171.683124" y="173.867821">_consensus</text>
   </g>
  </g>
  <g id="text_14">
   <text style="font-family:DejaVu Sans;font-size:15px;font-style:normal;font-weight:normal;text-anchor:start;" transform="rotate(-0, 184.32, 34.56)" x="184.32" y="34.56">MDS comp. (index 9 size 11)</text>
  </g>
 </g>
 <defs>
  <clipPath id="pa5fdd9d183">
   <rect height="345.6" width="460.8" x="0" y="0"/>
  </clipPath>
 </defs>
</svg>
