<?xml version="1.0" encoding="utf-8" standalone="no"?>
<!DOCTYPE svg PUBLIC "-//W3C//DTD SVG 1.1//EN"
  "http://www.w3.org/Graphics/SVG/1.1/DTD/svg11.dtd">
<!-- Created with matplotlib (http://matplotlib.org/) -->
<svg height="345.6pt" version="1.1" viewBox="0 0 460.8 345.6" width="460.8pt" xmlns="http://www.w3.org/2000/svg" xmlns:xlink="http://www.w3.org/1999/xlink">
 <defs>
  <style type="text/css">
*{stroke-linecap:butt;stroke-linejoin:round;}
  </style>
 </defs>
 <g id="figure_1">
  <g id="patch_1">
   <path d="M 0 345.6 
L 460.8 345.6 
L 460.8 0 
L 0 0 
z
" style="fill:#ffffff;"/>
  </g>
  <g id="axes_1">
   <g id="patch_2">
    <path d="M 92.16 276.48 
L 437.76 276.48 
L 437.76 27.648 
L 92.16 27.648 
z
" style="fill:#ffffff;"/>
   </g>
   <g id="matplotlib.axis_1">
    <g id="xtick_1">
     <g id="line2d_1">
      <defs>
       <path d="M 0 0 
L 0 3.5 
" id="m74907a69b8" style="stroke:#262626;stroke-width:0.8;"/>
      </defs>
      <g>
       <use style="fill:#262626;stroke:#262626;stroke-width:0.8;" x="155.823158" xlink:href="#m74907a69b8" y="276.48"/>
      </g>
     </g>
     <g id="text_1">
      <text style="fill:#262626;font-family:DejaVu Sans;font-size:20px;font-style:normal;font-weight:normal;text-anchor:middle;" transform="rotate(-0, 155.823158, 298.676875)" x="155.823158" y="298.676875">−5</text>
     </g>
    </g>
    <g id="xtick_2">
     <g id="line2d_2">
      <g>
       <use style="fill:#262626;stroke:#262626;stroke-width:0.8;" x="246.770526" xlink:href="#m74907a69b8" y="276.48"/>
      </g>
     </g>
     <g id="text_2">
      <text style="fill:#262626;font-family:DejaVu Sans;font-size:20px;font-style:normal;font-weight:normal;text-anchor:middle;" transform="rotate(-0, 246.770526, 298.676875)" x="246.770526" y="298.676875">0</text>
     </g>
    </g>
    <g id="xtick_3">
     <g id="line2d_3">
      <g>
       <use style="fill:#262626;stroke:#262626;stroke-width:0.8;" x="337.717895" xlink:href="#m74907a69b8" y="276.48"/>
      </g>
     </g>
     <g id="text_3">
      <text style="fill:#262626;font-family:DejaVu Sans;font-size:20px;font-style:normal;font-weight:normal;text-anchor:middle;" transform="rotate(-0, 337.717895, 298.676875)" x="337.717895" y="298.676875">5</text>
     </g>
    </g>
    <g id="xtick_4">
     <g id="line2d_4">
      <g>
       <use style="fill:#262626;stroke:#262626;stroke-width:0.8;" x="428.665263" xlink:href="#m74907a69b8" y="276.48"/>
      </g>
     </g>
     <g id="text_4">
      <text style="fill:#262626;font-family:DejaVu Sans;font-size:20px;font-style:normal;font-weight:normal;text-anchor:middle;" transform="rotate(-0, 428.665263, 298.676875)" x="428.665263" y="298.676875">10</text>
     </g>
    </g>
    <g id="text_5">
     <text style="fill:#262626;font-family:DejaVu Sans;font-size:20px;font-style:normal;font-weight:normal;text-anchor:middle;" transform="rotate(-0, 264.96, 322.033125)" x="264.96" y="322.033125">inferred - true</text>
    </g>
   </g>
   <g id="matplotlib.axis_2">
    <g id="ytick_1">
     <g id="line2d_5">
      <defs>
       <path d="M 0 0 
L -3.5 0 
" id="ma7dd07c6ef" style="stroke:#262626;stroke-width:0.8;"/>
      </defs>
      <g>
       <use style="fill:#262626;stroke:#262626;stroke-width:0.8;" x="92.16" xlink:href="#ma7dd07c6ef" y="270.153763"/>
      </g>
     </g>
     <g id="text_6">
      <text style="fill:#262626;font-family:DejaVu Sans;font-size:20px;font-style:normal;font-weight:normal;text-anchor:end;" transform="rotate(-0, 85.16, 277.7522)" x="85.16" y="277.7522">0</text>
     </g>
    </g>
    <g id="ytick_2">
     <g id="line2d_6">
      <g>
       <use style="fill:#262626;stroke:#262626;stroke-width:0.8;" x="92.16" xlink:href="#ma7dd07c6ef" y="208.49453"/>
      </g>
     </g>
     <g id="text_7">
      <text style="fill:#262626;font-family:DejaVu Sans;font-size:20px;font-style:normal;font-weight:normal;text-anchor:end;" transform="rotate(-0, 85.16, 216.092967)" x="85.16" y="216.092967">500</text>
     </g>
    </g>
    <g id="ytick_3">
     <g id="line2d_7">
      <g>
       <use style="fill:#262626;stroke:#262626;stroke-width:0.8;" x="92.16" xlink:href="#ma7dd07c6ef" y="146.835297"/>
      </g>
     </g>
     <g id="text_8">
      <text style="fill:#262626;font-family:DejaVu Sans;font-size:20px;font-style:normal;font-weight:normal;text-anchor:end;" transform="rotate(-0, 85.16, 154.433735)" x="85.16" y="154.433735">1000</text>
     </g>
    </g>
    <g id="ytick_4">
     <g id="line2d_8">
      <g>
       <use style="fill:#262626;stroke:#262626;stroke-width:0.8;" x="92.16" xlink:href="#ma7dd07c6ef" y="85.176064"/>
      </g>
     </g>
     <g id="text_9">
      <text style="fill:#262626;font-family:DejaVu Sans;font-size:20px;font-style:normal;font-weight:normal;text-anchor:end;" transform="rotate(-0, 85.16, 92.774502)" x="85.16" y="92.774502">1500</text>
     </g>
    </g>
    <g id="text_10">
     <text style="fill:#262626;font-family:DejaVu Sans;font-size:20px;font-style:normal;font-weight:normal;text-anchor:middle;" transform="rotate(-90, 26.100625, 152.064)" x="26.100625" y="152.064">counts</text>
    </g>
   </g>
   <g id="line2d_9">
    <path clip-path="url(#p8bdf8bb2a3)" d="M 101.254737 269.783807 
L 119.444211 270.153763 
L 137.633684 270.153763 
L 155.823158 269.660489 
L 174.012632 270.153763 
L 192.202105 270.153763 
L 210.391579 269.043897 
L 228.581053 59.279186 
L 246.770526 149.055029 
L 264.96 255.725502 
L 283.149474 255.478865 
L 301.338947 266.084253 
L 319.528421 269.043897 
L 337.717895 268.920578 
L 355.907368 270.153763 
L 374.096842 269.783807 
L 392.286316 270.153763 
L 410.475789 270.153763 
L 428.665263 270.030444 
" style="fill:none;stroke:#4169e1;stroke-linecap:round;stroke-width:3;"/>
    <defs>
     <path d="M 0 3.25 
C 0.86191 3.25 1.688635 2.907559 2.298097 2.298097 
C 2.907559 1.688635 3.25 0.86191 3.25 0 
C 3.25 -0.86191 2.907559 -1.688635 2.298097 -2.298097 
C 1.688635 -2.907559 0.86191 -3.25 0 -3.25 
C -0.86191 -3.25 -1.688635 -2.907559 -2.298097 -2.298097 
C -2.907559 -1.688635 -3.25 -0.86191 -3.25 0 
C -3.25 0.86191 -2.907559 1.688635 -2.298097 2.298097 
C -1.688635 2.907559 -0.86191 3.25 0 3.25 
z
" id="m7118cef9c6" style="stroke:#4169e1;"/>
    </defs>
    <g clip-path="url(#p8bdf8bb2a3)">
     <use style="fill:#4169e1;stroke:#4169e1;" x="101.254737" xlink:href="#m7118cef9c6" y="269.783807"/>
     <use style="fill:#4169e1;stroke:#4169e1;" x="119.444211" xlink:href="#m7118cef9c6" y="270.153763"/>
     <use style="fill:#4169e1;stroke:#4169e1;" x="137.633684" xlink:href="#m7118cef9c6" y="270.153763"/>
     <use style="fill:#4169e1;stroke:#4169e1;" x="155.823158" xlink:href="#m7118cef9c6" y="269.660489"/>
     <use style="fill:#4169e1;stroke:#4169e1;" x="174.012632" xlink:href="#m7118cef9c6" y="270.153763"/>
     <use style="fill:#4169e1;stroke:#4169e1;" x="192.202105" xlink:href="#m7118cef9c6" y="270.153763"/>
     <use style="fill:#4169e1;stroke:#4169e1;" x="210.391579" xlink:href="#m7118cef9c6" y="269.043897"/>
     <use style="fill:#4169e1;stroke:#4169e1;" x="228.581053" xlink:href="#m7118cef9c6" y="59.279186"/>
     <use style="fill:#4169e1;stroke:#4169e1;" x="246.770526" xlink:href="#m7118cef9c6" y="149.055029"/>
     <use style="fill:#4169e1;stroke:#4169e1;" x="264.96" xlink:href="#m7118cef9c6" y="255.725502"/>
     <use style="fill:#4169e1;stroke:#4169e1;" x="283.149474" xlink:href="#m7118cef9c6" y="255.478865"/>
     <use style="fill:#4169e1;stroke:#4169e1;" x="301.338947" xlink:href="#m7118cef9c6" y="266.084253"/>
     <use style="fill:#4169e1;stroke:#4169e1;" x="319.528421" xlink:href="#m7118cef9c6" y="269.043897"/>
     <use style="fill:#4169e1;stroke:#4169e1;" x="337.717895" xlink:href="#m7118cef9c6" y="268.920578"/>
     <use style="fill:#4169e1;stroke:#4169e1;" x="355.907368" xlink:href="#m7118cef9c6" y="270.153763"/>
     <use style="fill:#4169e1;stroke:#4169e1;" x="374.096842" xlink:href="#m7118cef9c6" y="269.783807"/>
     <use style="fill:#4169e1;stroke:#4169e1;" x="392.286316" xlink:href="#m7118cef9c6" y="270.153763"/>
     <use style="fill:#4169e1;stroke:#4169e1;" x="410.475789" xlink:href="#m7118cef9c6" y="270.153763"/>
     <use style="fill:#4169e1;stroke:#4169e1;" x="428.665263" xlink:href="#m7118cef9c6" y="270.030444"/>
    </g>
   </g>
   <g id="patch_3">
    <path d="M 92.16 276.48 
L 92.16 27.648 
" style="fill:none;stroke:#262626;stroke-linecap:square;stroke-linejoin:miter;stroke-width:0.8;"/>
   </g>
   <g id="patch_4">
    <path d="M 92.16 276.48 
L 437.76 276.48 
" style="fill:none;stroke:#262626;stroke-linecap:square;stroke-linejoin:miter;stroke-width:0.8;"/>
   </g>
   <g id="text_11">
    <text style="fill:#262626;font-family:DejaVu Sans;font-size:20px;font-style:normal;font-weight:bold;text-anchor:middle;" transform="rotate(-0, 264.96, 21.648)" x="264.96" y="21.648">D 3' deletion</text>
   </g>
  </g>
 </g>
 <defs>
  <clipPath id="p8bdf8bb2a3">
   <rect height="248.832" width="345.6" x="92.16" y="27.648"/>
  </clipPath>
 </defs>
</svg>
