<?xml version="1.0" encoding="utf-8" standalone="no"?>
<!DOCTYPE svg PUBLIC "-//W3C//DTD SVG 1.1//EN"
  "http://www.w3.org/Graphics/SVG/1.1/DTD/svg11.dtd">
<!-- Created with matplotlib (http://matplotlib.org/) -->
<svg height="345.6pt" version="1.1" viewBox="0 0 460.8 345.6" width="460.8pt" xmlns="http://www.w3.org/2000/svg" xmlns:xlink="http://www.w3.org/1999/xlink">
 <defs>
  <style type="text/css">
*{stroke-linecap:butt;stroke-linejoin:round;}
  </style>
 </defs>
 <g id="figure_1">
  <g id="patch_1">
   <path d="M 0 345.6 
L 460.8 345.6 
L 460.8 0 
L 0 0 
z
" style="fill:#ffffff;"/>
  </g>
  <g id="axes_1">
   <g id="patch_2">
    <path d="M 92.16 276.48 
L 437.76 276.48 
L 437.76 27.648 
L 92.16 27.648 
z
" style="fill:#ffffff;"/>
   </g>
   <g id="matplotlib.axis_1">
    <g id="xtick_1">
     <g id="line2d_1">
      <defs>
       <path d="M 0 0 
L 0 3.5 
" id="m4073fc16e0" style="stroke:#262626;stroke-width:0.8;"/>
      </defs>
      <g>
       <use style="fill:#262626;stroke:#262626;stroke-width:0.8;" x="100.014545" xlink:href="#m4073fc16e0" y="276.48"/>
      </g>
     </g>
     <g id="text_1">
      <text style="fill:#262626;font-family:DejaVu Sans;font-size:20px;font-style:normal;font-weight:normal;text-anchor:middle;" transform="rotate(-0, 100.014545, 298.676875)" x="100.014545" y="298.676875">−15</text>
     </g>
    </g>
    <g id="xtick_2">
     <g id="line2d_2">
      <g>
       <use style="fill:#262626;stroke:#262626;stroke-width:0.8;" x="178.56" xlink:href="#m4073fc16e0" y="276.48"/>
      </g>
     </g>
     <g id="text_2">
      <text style="fill:#262626;font-family:DejaVu Sans;font-size:20px;font-style:normal;font-weight:normal;text-anchor:middle;" transform="rotate(-0, 178.56, 298.676875)" x="178.56" y="298.676875">−10</text>
     </g>
    </g>
    <g id="xtick_3">
     <g id="line2d_3">
      <g>
       <use style="fill:#262626;stroke:#262626;stroke-width:0.8;" x="257.105455" xlink:href="#m4073fc16e0" y="276.48"/>
      </g>
     </g>
     <g id="text_3">
      <text style="fill:#262626;font-family:DejaVu Sans;font-size:20px;font-style:normal;font-weight:normal;text-anchor:middle;" transform="rotate(-0, 257.105455, 298.676875)" x="257.105455" y="298.676875">−5</text>
     </g>
    </g>
    <g id="xtick_4">
     <g id="line2d_4">
      <g>
       <use style="fill:#262626;stroke:#262626;stroke-width:0.8;" x="335.650909" xlink:href="#m4073fc16e0" y="276.48"/>
      </g>
     </g>
     <g id="text_4">
      <text style="fill:#262626;font-family:DejaVu Sans;font-size:20px;font-style:normal;font-weight:normal;text-anchor:middle;" transform="rotate(-0, 335.650909, 298.676875)" x="335.650909" y="298.676875">0</text>
     </g>
    </g>
    <g id="xtick_5">
     <g id="line2d_5">
      <g>
       <use style="fill:#262626;stroke:#262626;stroke-width:0.8;" x="414.196364" xlink:href="#m4073fc16e0" y="276.48"/>
      </g>
     </g>
     <g id="text_5">
      <text style="fill:#262626;font-family:DejaVu Sans;font-size:20px;font-style:normal;font-weight:normal;text-anchor:middle;" transform="rotate(-0, 414.196364, 298.676875)" x="414.196364" y="298.676875">5</text>
     </g>
    </g>
    <g id="text_6">
     <text style="fill:#262626;font-family:DejaVu Sans;font-size:20px;font-style:normal;font-weight:normal;text-anchor:middle;" transform="rotate(-0, 264.96, 322.033125)" x="264.96" y="322.033125">inferred - true</text>
    </g>
   </g>
   <g id="matplotlib.axis_2">
    <g id="ytick_1">
     <g id="line2d_6">
      <defs>
       <path d="M 0 0 
L -3.5 0 
" id="mce9cedf7ae" style="stroke:#262626;stroke-width:0.8;"/>
      </defs>
      <g>
       <use style="fill:#262626;stroke:#262626;stroke-width:0.8;" x="92.16" xlink:href="#mce9cedf7ae" y="270.153763"/>
      </g>
     </g>
     <g id="text_7">
      <text style="fill:#262626;font-family:DejaVu Sans;font-size:20px;font-style:normal;font-weight:normal;text-anchor:end;" transform="rotate(-0, 85.16, 277.7522)" x="85.16" y="277.7522">0</text>
     </g>
    </g>
    <g id="ytick_2">
     <g id="line2d_7">
      <g>
       <use style="fill:#262626;stroke:#262626;stroke-width:0.8;" x="92.16" xlink:href="#mce9cedf7ae" y="213.920542"/>
      </g>
     </g>
     <g id="text_8">
      <text style="fill:#262626;font-family:DejaVu Sans;font-size:20px;font-style:normal;font-weight:normal;text-anchor:end;" transform="rotate(-0, 85.16, 221.51898)" x="85.16" y="221.51898">500</text>
     </g>
    </g>
    <g id="ytick_3">
     <g id="line2d_8">
      <g>
       <use style="fill:#262626;stroke:#262626;stroke-width:0.8;" x="92.16" xlink:href="#mce9cedf7ae" y="157.687322"/>
      </g>
     </g>
     <g id="text_9">
      <text style="fill:#262626;font-family:DejaVu Sans;font-size:20px;font-style:normal;font-weight:normal;text-anchor:end;" transform="rotate(-0, 85.16, 165.28576)" x="85.16" y="165.28576">1000</text>
     </g>
    </g>
    <g id="ytick_4">
     <g id="line2d_9">
      <g>
       <use style="fill:#262626;stroke:#262626;stroke-width:0.8;" x="92.16" xlink:href="#mce9cedf7ae" y="101.454102"/>
      </g>
     </g>
     <g id="text_10">
      <text style="fill:#262626;font-family:DejaVu Sans;font-size:20px;font-style:normal;font-weight:normal;text-anchor:end;" transform="rotate(-0, 85.16, 109.052539)" x="85.16" y="109.052539">1500</text>
     </g>
    </g>
    <g id="ytick_5">
     <g id="line2d_10">
      <g>
       <use style="fill:#262626;stroke:#262626;stroke-width:0.8;" x="92.16" xlink:href="#mce9cedf7ae" y="45.220881"/>
      </g>
     </g>
     <g id="text_11">
      <text style="fill:#262626;font-family:DejaVu Sans;font-size:20px;font-style:normal;font-weight:normal;text-anchor:end;" transform="rotate(-0, 85.16, 52.819319)" x="85.16" y="52.819319">2000</text>
     </g>
    </g>
    <g id="text_12">
     <text style="fill:#262626;font-family:DejaVu Sans;font-size:20px;font-style:normal;font-weight:normal;text-anchor:middle;" transform="rotate(-90, 26.100625, 152.064)" x="26.100625" y="152.064">counts</text>
    </g>
   </g>
   <g id="line2d_11">
    <path clip-path="url(#p8a334ac44d)" d="M 100.014545 270.041296 
L 115.723636 270.153763 
L 131.432727 270.153763 
L 147.141818 270.153763 
L 162.850909 270.153763 
L 178.56 270.153763 
L 194.269091 270.153763 
L 209.978182 270.153763 
L 225.687273 270.153763 
L 241.396364 269.816363 
L 257.105455 270.041296 
L 272.814545 269.703897 
L 288.523636 270.041296 
L 304.232727 261.156447 
L 319.941818 59.279186 
L 335.650909 174.894687 
L 351.36 255.645592 
L 367.069091 264.86784 
L 382.778182 269.478964 
L 398.487273 269.591431 
L 414.196364 270.153763 
L 429.905455 270.041296 
" style="fill:none;stroke:#4169e1;stroke-linecap:round;stroke-width:3;"/>
    <defs>
     <path d="M 0 3.25 
C 0.86191 3.25 1.688635 2.907559 2.298097 2.298097 
C 2.907559 1.688635 3.25 0.86191 3.25 0 
C 3.25 -0.86191 2.907559 -1.688635 2.298097 -2.298097 
C 1.688635 -2.907559 0.86191 -3.25 0 -3.25 
C -0.86191 -3.25 -1.688635 -2.907559 -2.298097 -2.298097 
C -2.907559 -1.688635 -3.25 -0.86191 -3.25 0 
C -3.25 0.86191 -2.907559 1.688635 -2.298097 2.298097 
C -1.688635 2.907559 -0.86191 3.25 0 3.25 
z
" id="mc1ffc858a6" style="stroke:#4169e1;"/>
    </defs>
    <g clip-path="url(#p8a334ac44d)">
     <use style="fill:#4169e1;stroke:#4169e1;" x="100.014545" xlink:href="#mc1ffc858a6" y="270.041296"/>
     <use style="fill:#4169e1;stroke:#4169e1;" x="115.723636" xlink:href="#mc1ffc858a6" y="270.153763"/>
     <use style="fill:#4169e1;stroke:#4169e1;" x="131.432727" xlink:href="#mc1ffc858a6" y="270.153763"/>
     <use style="fill:#4169e1;stroke:#4169e1;" x="147.141818" xlink:href="#mc1ffc858a6" y="270.153763"/>
     <use style="fill:#4169e1;stroke:#4169e1;" x="162.850909" xlink:href="#mc1ffc858a6" y="270.153763"/>
     <use style="fill:#4169e1;stroke:#4169e1;" x="178.56" xlink:href="#mc1ffc858a6" y="270.153763"/>
     <use style="fill:#4169e1;stroke:#4169e1;" x="194.269091" xlink:href="#mc1ffc858a6" y="270.153763"/>
     <use style="fill:#4169e1;stroke:#4169e1;" x="209.978182" xlink:href="#mc1ffc858a6" y="270.153763"/>
     <use style="fill:#4169e1;stroke:#4169e1;" x="225.687273" xlink:href="#mc1ffc858a6" y="270.153763"/>
     <use style="fill:#4169e1;stroke:#4169e1;" x="241.396364" xlink:href="#mc1ffc858a6" y="269.816363"/>
     <use style="fill:#4169e1;stroke:#4169e1;" x="257.105455" xlink:href="#mc1ffc858a6" y="270.041296"/>
     <use style="fill:#4169e1;stroke:#4169e1;" x="272.814545" xlink:href="#mc1ffc858a6" y="269.703897"/>
     <use style="fill:#4169e1;stroke:#4169e1;" x="288.523636" xlink:href="#mc1ffc858a6" y="270.041296"/>
     <use style="fill:#4169e1;stroke:#4169e1;" x="304.232727" xlink:href="#mc1ffc858a6" y="261.156447"/>
     <use style="fill:#4169e1;stroke:#4169e1;" x="319.941818" xlink:href="#mc1ffc858a6" y="59.279186"/>
     <use style="fill:#4169e1;stroke:#4169e1;" x="335.650909" xlink:href="#mc1ffc858a6" y="174.894687"/>
     <use style="fill:#4169e1;stroke:#4169e1;" x="351.36" xlink:href="#mc1ffc858a6" y="255.645592"/>
     <use style="fill:#4169e1;stroke:#4169e1;" x="367.069091" xlink:href="#mc1ffc858a6" y="264.86784"/>
     <use style="fill:#4169e1;stroke:#4169e1;" x="382.778182" xlink:href="#mc1ffc858a6" y="269.478964"/>
     <use style="fill:#4169e1;stroke:#4169e1;" x="398.487273" xlink:href="#mc1ffc858a6" y="269.591431"/>
     <use style="fill:#4169e1;stroke:#4169e1;" x="414.196364" xlink:href="#mc1ffc858a6" y="270.153763"/>
     <use style="fill:#4169e1;stroke:#4169e1;" x="429.905455" xlink:href="#mc1ffc858a6" y="270.041296"/>
    </g>
   </g>
   <g id="patch_3">
    <path d="M 92.16 276.48 
L 92.16 27.648 
" style="fill:none;stroke:#262626;stroke-linecap:square;stroke-linejoin:miter;stroke-width:0.8;"/>
   </g>
   <g id="patch_4">
    <path d="M 92.16 276.48 
L 437.76 276.48 
" style="fill:none;stroke:#262626;stroke-linecap:square;stroke-linejoin:miter;stroke-width:0.8;"/>
   </g>
   <g id="text_13">
    <text style="fill:#262626;font-family:DejaVu Sans;font-size:20px;font-style:normal;font-weight:bold;text-anchor:middle;" transform="rotate(-0, 264.96, 21.648)" x="264.96" y="21.648">DJ N length</text>
   </g>
  </g>
 </g>
 <defs>
  <clipPath id="p8a334ac44d">
   <rect height="248.832" width="345.6" x="92.16" y="27.648"/>
  </clipPath>
 </defs>
</svg>
