<?xml version="1.0" encoding="utf-8" standalone="no"?>
<!DOCTYPE svg PUBLIC "-//W3C//DTD SVG 1.1//EN"
  "http://www.w3.org/Graphics/SVG/1.1/DTD/svg11.dtd">
<!-- Created with matplotlib (http://matplotlib.org/) -->
<svg height="345.6pt" version="1.1" viewBox="0 0 460.8 345.6" width="460.8pt" xmlns="http://www.w3.org/2000/svg" xmlns:xlink="http://www.w3.org/1999/xlink">
 <defs>
  <style type="text/css">
*{stroke-linecap:butt;stroke-linejoin:round;}
  </style>
 </defs>
 <g id="figure_1">
  <g id="patch_1">
   <path d="M 0 345.6 
L 460.8 345.6 
L 460.8 0 
L 0 0 
z
" style="fill:#ffffff;"/>
  </g>
  <g id="axes_1">
   <g id="patch_2">
    <path d="M 92.16 276.48 
L 437.76 276.48 
L 437.76 27.648 
L 92.16 27.648 
z
" style="fill:#ffffff;"/>
   </g>
   <g id="matplotlib.axis_1">
    <g id="xtick_1">
     <g id="line2d_1">
      <defs>
       <path d="M 0 0 
L 0 3.5 
" id="m9002e1da55" style="stroke:#262626;stroke-width:0.8;"/>
      </defs>
      <g>
       <use style="fill:#262626;stroke:#262626;stroke-width:0.8;" x="142.983529" xlink:href="#m9002e1da55" y="276.48"/>
      </g>
     </g>
     <g id="text_1">
      <text style="fill:#262626;font-family:DejaVu Sans;font-size:20px;font-style:normal;font-weight:normal;text-anchor:middle;" transform="rotate(-0, 142.983529, 298.676875)" x="142.983529" y="298.676875">−10</text>
     </g>
    </g>
    <g id="xtick_2">
     <g id="line2d_2">
      <g>
       <use style="fill:#262626;stroke:#262626;stroke-width:0.8;" x="244.630588" xlink:href="#m9002e1da55" y="276.48"/>
      </g>
     </g>
     <g id="text_2">
      <text style="fill:#262626;font-family:DejaVu Sans;font-size:20px;font-style:normal;font-weight:normal;text-anchor:middle;" transform="rotate(-0, 244.630588, 298.676875)" x="244.630588" y="298.676875">−5</text>
     </g>
    </g>
    <g id="xtick_3">
     <g id="line2d_3">
      <g>
       <use style="fill:#262626;stroke:#262626;stroke-width:0.8;" x="346.277647" xlink:href="#m9002e1da55" y="276.48"/>
      </g>
     </g>
     <g id="text_3">
      <text style="fill:#262626;font-family:DejaVu Sans;font-size:20px;font-style:normal;font-weight:normal;text-anchor:middle;" transform="rotate(-0, 346.277647, 298.676875)" x="346.277647" y="298.676875">0</text>
     </g>
    </g>
    <g id="text_4">
     <text style="fill:#262626;font-family:DejaVu Sans;font-size:20px;font-style:normal;font-weight:normal;text-anchor:middle;" transform="rotate(-0, 264.96, 322.033125)" x="264.96" y="322.033125">inferred - true</text>
    </g>
   </g>
   <g id="matplotlib.axis_2">
    <g id="ytick_1">
     <g id="line2d_4">
      <defs>
       <path d="M 0 0 
L -3.5 0 
" id="m9556197a97" style="stroke:#262626;stroke-width:0.8;"/>
      </defs>
      <g>
       <use style="fill:#262626;stroke:#262626;stroke-width:0.8;" x="92.16" xlink:href="#m9556197a97" y="270.153763"/>
      </g>
     </g>
     <g id="text_5">
      <text style="fill:#262626;font-family:DejaVu Sans;font-size:20px;font-style:normal;font-weight:normal;text-anchor:end;" transform="rotate(-0, 85.16, 277.7522)" x="85.16" y="277.7522">0</text>
     </g>
    </g>
    <g id="ytick_2">
     <g id="line2d_5">
      <g>
       <use style="fill:#262626;stroke:#262626;stroke-width:0.8;" x="92.16" xlink:href="#m9556197a97" y="191.7034"/>
      </g>
     </g>
     <g id="text_6">
      <text style="fill:#262626;font-family:DejaVu Sans;font-size:20px;font-style:normal;font-weight:normal;text-anchor:end;" transform="rotate(-0, 85.16, 199.301837)" x="85.16" y="199.301837">1000</text>
     </g>
    </g>
    <g id="ytick_3">
     <g id="line2d_6">
      <g>
       <use style="fill:#262626;stroke:#262626;stroke-width:0.8;" x="92.16" xlink:href="#m9556197a97" y="113.253036"/>
      </g>
     </g>
     <g id="text_7">
      <text style="fill:#262626;font-family:DejaVu Sans;font-size:20px;font-style:normal;font-weight:normal;text-anchor:end;" transform="rotate(-0, 85.16, 120.851474)" x="85.16" y="120.851474">2000</text>
     </g>
    </g>
    <g id="ytick_4">
     <g id="line2d_7">
      <g>
       <use style="fill:#262626;stroke:#262626;stroke-width:0.8;" x="92.16" xlink:href="#m9556197a97" y="34.802673"/>
      </g>
     </g>
     <g id="text_8">
      <text style="fill:#262626;font-family:DejaVu Sans;font-size:20px;font-style:normal;font-weight:normal;text-anchor:end;" transform="rotate(-0, 85.16, 42.401111)" x="85.16" y="42.401111">3000</text>
     </g>
    </g>
    <g id="text_9">
     <text style="fill:#262626;font-family:DejaVu Sans;font-size:20px;font-style:normal;font-weight:normal;text-anchor:middle;" transform="rotate(-90, 26.100625, 152.064)" x="26.100625" y="152.064">counts</text>
    </g>
   </g>
   <g id="line2d_8">
    <path clip-path="url(#p4e93887201)" d="M 102.324706 270.075312 
L 122.654118 270.153763 
L 142.983529 270.153763 
L 163.312941 270.153763 
L 183.642353 270.153763 
L 203.971765 269.60461 
L 224.301176 270.075312 
L 244.630588 267.643351 
L 264.96 269.369259 
L 285.289412 263.956184 
L 305.618824 267.408 
L 325.948235 261.445772 
L 346.277647 59.279186 
L 366.607059 268.741656 
L 386.936471 269.055458 
L 407.265882 269.918412 
L 427.595294 270.075312 
" style="fill:none;stroke:#4169e1;stroke-linecap:round;stroke-width:3;"/>
    <defs>
     <path d="M 0 3.25 
C 0.86191 3.25 1.688635 2.907559 2.298097 2.298097 
C 2.907559 1.688635 3.25 0.86191 3.25 0 
C 3.25 -0.86191 2.907559 -1.688635 2.298097 -2.298097 
C 1.688635 -2.907559 0.86191 -3.25 0 -3.25 
C -0.86191 -3.25 -1.688635 -2.907559 -2.298097 -2.298097 
C -2.907559 -1.688635 -3.25 -0.86191 -3.25 0 
C -3.25 0.86191 -2.907559 1.688635 -2.298097 2.298097 
C -1.688635 2.907559 -0.86191 3.25 0 3.25 
z
" id="m08ddee9fc6" style="stroke:#4169e1;"/>
    </defs>
    <g clip-path="url(#p4e93887201)">
     <use style="fill:#4169e1;stroke:#4169e1;" x="102.324706" xlink:href="#m08ddee9fc6" y="270.075312"/>
     <use style="fill:#4169e1;stroke:#4169e1;" x="122.654118" xlink:href="#m08ddee9fc6" y="270.153763"/>
     <use style="fill:#4169e1;stroke:#4169e1;" x="142.983529" xlink:href="#m08ddee9fc6" y="270.153763"/>
     <use style="fill:#4169e1;stroke:#4169e1;" x="163.312941" xlink:href="#m08ddee9fc6" y="270.153763"/>
     <use style="fill:#4169e1;stroke:#4169e1;" x="183.642353" xlink:href="#m08ddee9fc6" y="270.153763"/>
     <use style="fill:#4169e1;stroke:#4169e1;" x="203.971765" xlink:href="#m08ddee9fc6" y="269.60461"/>
     <use style="fill:#4169e1;stroke:#4169e1;" x="224.301176" xlink:href="#m08ddee9fc6" y="270.075312"/>
     <use style="fill:#4169e1;stroke:#4169e1;" x="244.630588" xlink:href="#m08ddee9fc6" y="267.643351"/>
     <use style="fill:#4169e1;stroke:#4169e1;" x="264.96" xlink:href="#m08ddee9fc6" y="269.369259"/>
     <use style="fill:#4169e1;stroke:#4169e1;" x="285.289412" xlink:href="#m08ddee9fc6" y="263.956184"/>
     <use style="fill:#4169e1;stroke:#4169e1;" x="305.618824" xlink:href="#m08ddee9fc6" y="267.408"/>
     <use style="fill:#4169e1;stroke:#4169e1;" x="325.948235" xlink:href="#m08ddee9fc6" y="261.445772"/>
     <use style="fill:#4169e1;stroke:#4169e1;" x="346.277647" xlink:href="#m08ddee9fc6" y="59.279186"/>
     <use style="fill:#4169e1;stroke:#4169e1;" x="366.607059" xlink:href="#m08ddee9fc6" y="268.741656"/>
     <use style="fill:#4169e1;stroke:#4169e1;" x="386.936471" xlink:href="#m08ddee9fc6" y="269.055458"/>
     <use style="fill:#4169e1;stroke:#4169e1;" x="407.265882" xlink:href="#m08ddee9fc6" y="269.918412"/>
     <use style="fill:#4169e1;stroke:#4169e1;" x="427.595294" xlink:href="#m08ddee9fc6" y="270.075312"/>
    </g>
   </g>
   <g id="patch_3">
    <path d="M 92.16 276.48 
L 92.16 27.648 
" style="fill:none;stroke:#262626;stroke-linecap:square;stroke-linejoin:miter;stroke-width:0.8;"/>
   </g>
   <g id="patch_4">
    <path d="M 92.16 276.48 
L 437.76 276.48 
" style="fill:none;stroke:#262626;stroke-linecap:square;stroke-linejoin:miter;stroke-width:0.8;"/>
   </g>
   <g id="text_10">
    <text style="fill:#262626;font-family:DejaVu Sans;font-size:20px;font-style:normal;font-weight:bold;text-anchor:middle;" transform="rotate(-0, 264.96, 21.648)" x="264.96" y="21.648">J 5' deletion</text>
   </g>
  </g>
 </g>
 <defs>
  <clipPath id="p4e93887201">
   <rect height="248.832" width="345.6" x="92.16" y="27.648"/>
  </clipPath>
 </defs>
</svg>
