<?xml version="1.0" encoding="utf-8" standalone="no"?>
<!DOCTYPE svg PUBLIC "-//W3C//DTD SVG 1.1//EN"
  "http://www.w3.org/Graphics/SVG/1.1/DTD/svg11.dtd">
<!-- Created with matplotlib (http://matplotlib.org/) -->
<svg height="345.6pt" version="1.1" viewBox="0 0 460.8 345.6" width="460.8pt" xmlns="http://www.w3.org/2000/svg" xmlns:xlink="http://www.w3.org/1999/xlink">
 <defs>
  <style type="text/css">
*{stroke-linecap:butt;stroke-linejoin:round;}
  </style>
 </defs>
 <g id="figure_1">
  <g id="patch_1">
   <path d="M 0 345.6 
L 460.8 345.6 
L 460.8 0 
L 0 0 
z
" style="fill:#ffffff;"/>
  </g>
  <g id="axes_1">
   <g id="patch_2">
    <path d="M 92.16 276.48 
L 437.76 276.48 
L 437.76 27.648 
L 92.16 27.648 
z
" style="fill:#ffffff;"/>
   </g>
   <g id="matplotlib.axis_1">
    <g id="xtick_1">
     <g id="line2d_1">
      <defs>
       <path d="M 0 0 
L 0 3.5 
" id="m71326351d7" style="stroke:#262626;stroke-width:0.8;"/>
      </defs>
      <g>
       <use style="fill:#262626;stroke:#262626;stroke-width:0.8;" x="92.16" xlink:href="#m71326351d7" y="276.48"/>
      </g>
     </g>
     <g id="text_1">
      <text style="fill:#262626;font-family:DejaVu Sans;font-size:20px;font-style:normal;font-weight:normal;text-anchor:middle;" transform="rotate(-0, 92.16, 298.676875)" x="92.16" y="298.676875">0.0</text>
     </g>
    </g>
    <g id="xtick_2">
     <g id="line2d_2">
      <g>
       <use style="fill:#262626;stroke:#262626;stroke-width:0.8;" x="178.56" xlink:href="#m71326351d7" y="276.48"/>
      </g>
     </g>
     <g id="text_2">
      <text style="fill:#262626;font-family:DejaVu Sans;font-size:20px;font-style:normal;font-weight:normal;text-anchor:middle;" transform="rotate(-0, 178.56, 298.676875)" x="178.56" y="298.676875">0.1</text>
     </g>
    </g>
    <g id="xtick_3">
     <g id="line2d_3">
      <g>
       <use style="fill:#262626;stroke:#262626;stroke-width:0.8;" x="264.96" xlink:href="#m71326351d7" y="276.48"/>
      </g>
     </g>
     <g id="text_3">
      <text style="fill:#262626;font-family:DejaVu Sans;font-size:20px;font-style:normal;font-weight:normal;text-anchor:middle;" transform="rotate(-0, 264.96, 298.676875)" x="264.96" y="298.676875">0.2</text>
     </g>
    </g>
    <g id="xtick_4">
     <g id="line2d_4">
      <g>
       <use style="fill:#262626;stroke:#262626;stroke-width:0.8;" x="351.36" xlink:href="#m71326351d7" y="276.48"/>
      </g>
     </g>
     <g id="text_4">
      <text style="fill:#262626;font-family:DejaVu Sans;font-size:20px;font-style:normal;font-weight:normal;text-anchor:middle;" transform="rotate(-0, 351.36, 298.676875)" x="351.36" y="298.676875">0.3</text>
     </g>
    </g>
    <g id="xtick_5">
     <g id="line2d_5">
      <g>
       <use style="fill:#262626;stroke:#262626;stroke-width:0.8;" x="437.76" xlink:href="#m71326351d7" y="276.48"/>
      </g>
     </g>
     <g id="text_5">
      <text style="fill:#262626;font-family:DejaVu Sans;font-size:20px;font-style:normal;font-weight:normal;text-anchor:middle;" transform="rotate(-0, 437.76, 298.676875)" x="437.76" y="298.676875">0.4</text>
     </g>
    </g>
    <g id="text_6">
     <text style="fill:#262626;font-family:DejaVu Sans;font-size:20px;font-style:normal;font-weight:normal;text-anchor:middle;" transform="rotate(-0, 264.96, 322.033125)" x="264.96" y="322.033125">mut freq</text>
    </g>
   </g>
   <g id="matplotlib.axis_2">
    <g id="ytick_1">
     <g id="line2d_6">
      <defs>
       <path d="M 0 0 
L -3.5 0 
" id="m6557693784" style="stroke:#262626;stroke-width:0.8;"/>
      </defs>
      <g>
       <use style="fill:#262626;stroke:#262626;stroke-width:0.8;" x="92.16" xlink:href="#m6557693784" y="270.153763"/>
      </g>
     </g>
     <g id="text_7">
      <text style="fill:#262626;font-family:DejaVu Sans;font-size:20px;font-style:normal;font-weight:normal;text-anchor:end;" transform="rotate(-0, 85.16, 277.7522)" x="85.16" y="277.7522">0.0</text>
     </g>
    </g>
    <g id="ytick_2">
     <g id="line2d_7">
      <g>
       <use style="fill:#262626;stroke:#262626;stroke-width:0.8;" x="92.16" xlink:href="#m6557693784" y="188.889902"/>
      </g>
     </g>
     <g id="text_8">
      <text style="fill:#262626;font-family:DejaVu Sans;font-size:20px;font-style:normal;font-weight:normal;text-anchor:end;" transform="rotate(-0, 85.16, 196.488339)" x="85.16" y="196.488339">0.2</text>
     </g>
    </g>
    <g id="ytick_3">
     <g id="line2d_8">
      <g>
       <use style="fill:#262626;stroke:#262626;stroke-width:0.8;" x="92.16" xlink:href="#m6557693784" y="107.626041"/>
      </g>
     </g>
     <g id="text_9">
      <text style="fill:#262626;font-family:DejaVu Sans;font-size:20px;font-style:normal;font-weight:normal;text-anchor:end;" transform="rotate(-0, 85.16, 115.224478)" x="85.16" y="115.224478">0.4</text>
     </g>
    </g>
    <g id="text_10">
     <text style="fill:#262626;font-family:DejaVu Sans;font-size:20px;font-style:normal;font-weight:normal;text-anchor:middle;" transform="rotate(-90, 45.194375, 152.064)" x="45.194375" y="152.064">freq (79 total)</text>
    </g>
   </g>
   <g id="LineCollection_1">
    <path clip-path="url(#p4babd79d10)" d="M 96.48 234.985426 
L 96.48 202.456452 
" style="fill:none;stroke:#4169e1;stroke-width:3;"/>
    <path clip-path="url(#p4babd79d10)" d="M 105.12 92.212262 
L 105.12 26.346111 
" style="fill:none;stroke:#4169e1;stroke-width:3;"/>
    <path clip-path="url(#p4babd79d10)" d="M 113.76 194.850446 
L 113.76 150.01235 
" style="fill:none;stroke:#4169e1;stroke-width:3;"/>
    <path clip-path="url(#p4babd79d10)" d="M 122.4 263.632342 
L 122.4 245.815489 
" style="fill:none;stroke:#4169e1;stroke-width:3;"/>
    <path clip-path="url(#p4babd79d10)" d="M 131.04 267.140898 
L 131.04 252.593498 
" style="fill:none;stroke:#4169e1;stroke-width:3;"/>
    <path clip-path="url(#p4babd79d10)" d="M 139.68 270.153763 
L 139.68 259.867198 
" style="fill:none;stroke:#4169e1;stroke-width:3;"/>
    <path clip-path="url(#p4babd79d10)" d="M 148.32 267.140898 
L 148.32 252.593498 
" style="fill:none;stroke:#4169e1;stroke-width:3;"/>
    <path clip-path="url(#p4babd79d10)" d="M 156.96 270.153763 
L 156.96 259.867198 
" style="fill:none;stroke:#4169e1;stroke-width:3;"/>
    <path clip-path="url(#p4babd79d10)" d="M 165.6 270.153763 
L 165.6 270.153763 
" style="fill:none;stroke:#4169e1;stroke-width:3;"/>
    <path clip-path="url(#p4babd79d10)" d="M 174.24 270.153763 
L 174.24 270.153763 
" style="fill:none;stroke:#4169e1;stroke-width:3;"/>
    <path clip-path="url(#p4babd79d10)" d="M 182.88 270.153763 
L 182.88 270.153763 
" style="fill:none;stroke:#4169e1;stroke-width:3;"/>
    <path clip-path="url(#p4babd79d10)" d="M 191.52 270.153763 
L 191.52 270.153763 
" style="fill:none;stroke:#4169e1;stroke-width:3;"/>
    <path clip-path="url(#p4babd79d10)" d="M 200.16 270.153763 
L 200.16 270.153763 
" style="fill:none;stroke:#4169e1;stroke-width:3;"/>
    <path clip-path="url(#p4babd79d10)" d="M 208.8 270.153763 
L 208.8 270.153763 
" style="fill:none;stroke:#4169e1;stroke-width:3;"/>
    <path clip-path="url(#p4babd79d10)" d="M 217.44 270.153763 
L 217.44 270.153763 
" style="fill:none;stroke:#4169e1;stroke-width:3;"/>
    <path clip-path="url(#p4babd79d10)" d="M 226.08 270.153763 
L 226.08 270.153763 
" style="fill:none;stroke:#4169e1;stroke-width:3;"/>
    <path clip-path="url(#p4babd79d10)" d="M 234.72 270.153763 
L 234.72 270.153763 
" style="fill:none;stroke:#4169e1;stroke-width:3;"/>
    <path clip-path="url(#p4babd79d10)" d="M 243.36 270.153763 
L 243.36 270.153763 
" style="fill:none;stroke:#4169e1;stroke-width:3;"/>
    <path clip-path="url(#p4babd79d10)" d="M 252 270.153763 
L 252 270.153763 
" style="fill:none;stroke:#4169e1;stroke-width:3;"/>
    <path clip-path="url(#p4babd79d10)" d="M 260.64 270.153763 
L 260.64 270.153763 
" style="fill:none;stroke:#4169e1;stroke-width:3;"/>
    <path clip-path="url(#p4babd79d10)" d="M 269.28 270.153763 
L 269.28 270.153763 
" style="fill:none;stroke:#4169e1;stroke-width:3;"/>
    <path clip-path="url(#p4babd79d10)" d="M 277.92 270.153763 
L 277.92 270.153763 
" style="fill:none;stroke:#4169e1;stroke-width:3;"/>
    <path clip-path="url(#p4babd79d10)" d="M 286.56 270.153763 
L 286.56 270.153763 
" style="fill:none;stroke:#4169e1;stroke-width:3;"/>
    <path clip-path="url(#p4babd79d10)" d="M 295.2 270.153763 
L 295.2 270.153763 
" style="fill:none;stroke:#4169e1;stroke-width:3;"/>
    <path clip-path="url(#p4babd79d10)" d="M 303.84 270.153763 
L 303.84 270.153763 
" style="fill:none;stroke:#4169e1;stroke-width:3;"/>
    <path clip-path="url(#p4babd79d10)" d="M 312.48 270.153763 
L 312.48 270.153763 
" style="fill:none;stroke:#4169e1;stroke-width:3;"/>
    <path clip-path="url(#p4babd79d10)" d="M 321.12 270.153763 
L 321.12 270.153763 
" style="fill:none;stroke:#4169e1;stroke-width:3;"/>
    <path clip-path="url(#p4babd79d10)" d="M 329.76 270.153763 
L 329.76 270.153763 
" style="fill:none;stroke:#4169e1;stroke-width:3;"/>
    <path clip-path="url(#p4babd79d10)" d="M 338.4 270.153763 
L 338.4 270.153763 
" style="fill:none;stroke:#4169e1;stroke-width:3;"/>
    <path clip-path="url(#p4babd79d10)" d="M 347.04 270.153763 
L 347.04 270.153763 
" style="fill:none;stroke:#4169e1;stroke-width:3;"/>
    <path clip-path="url(#p4babd79d10)" d="M 355.68 270.153763 
L 355.68 270.153763 
" style="fill:none;stroke:#4169e1;stroke-width:3;"/>
    <path clip-path="url(#p4babd79d10)" d="M 364.32 270.153763 
L 364.32 270.153763 
" style="fill:none;stroke:#4169e1;stroke-width:3;"/>
    <path clip-path="url(#p4babd79d10)" d="M 372.96 270.153763 
L 372.96 270.153763 
" style="fill:none;stroke:#4169e1;stroke-width:3;"/>
    <path clip-path="url(#p4babd79d10)" d="M 381.6 270.153763 
L 381.6 270.153763 
" style="fill:none;stroke:#4169e1;stroke-width:3;"/>
    <path clip-path="url(#p4babd79d10)" d="M 390.24 270.153763 
L 390.24 270.153763 
" style="fill:none;stroke:#4169e1;stroke-width:3;"/>
    <path clip-path="url(#p4babd79d10)" d="M 398.88 270.153763 
L 398.88 270.153763 
" style="fill:none;stroke:#4169e1;stroke-width:3;"/>
    <path clip-path="url(#p4babd79d10)" d="M 407.52 270.153763 
L 407.52 270.153763 
" style="fill:none;stroke:#4169e1;stroke-width:3;"/>
    <path clip-path="url(#p4babd79d10)" d="M 416.16 270.153763 
L 416.16 270.153763 
" style="fill:none;stroke:#4169e1;stroke-width:3;"/>
    <path clip-path="url(#p4babd79d10)" d="M 424.8 270.153763 
L 424.8 270.153763 
" style="fill:none;stroke:#4169e1;stroke-width:3;"/>
    <path clip-path="url(#p4babd79d10)" d="M 433.44 270.153763 
L 433.44 270.153763 
" style="fill:none;stroke:#4169e1;stroke-width:3;"/>
   </g>
   <g id="line2d_9">
    <path clip-path="url(#p4babd79d10)" d="M 96.48 218.720939 
L 105.12 59.279186 
L 113.76 172.431398 
L 122.4 254.723916 
L 131.04 259.867198 
L 139.68 265.01048 
L 148.32 259.867198 
L 156.96 265.01048 
L 165.6 270.153763 
L 174.24 270.153763 
L 182.88 270.153763 
L 191.52 270.153763 
L 200.16 270.153763 
L 208.8 270.153763 
L 217.44 270.153763 
L 226.08 270.153763 
L 234.72 270.153763 
L 243.36 270.153763 
L 252 270.153763 
L 260.64 270.153763 
L 269.28 270.153763 
L 277.92 270.153763 
L 286.56 270.153763 
L 295.2 270.153763 
L 303.84 270.153763 
L 312.48 270.153763 
L 321.12 270.153763 
L 329.76 270.153763 
L 338.4 270.153763 
L 347.04 270.153763 
L 355.68 270.153763 
L 364.32 270.153763 
L 372.96 270.153763 
L 381.6 270.153763 
L 390.24 270.153763 
L 398.88 270.153763 
L 407.52 270.153763 
L 416.16 270.153763 
L 424.8 270.153763 
L 433.44 270.153763 
" style="fill:none;stroke:#4169e1;stroke-linecap:round;stroke-width:3;"/>
    <defs>
     <path d="M 0 3.25 
C 0.86191 3.25 1.688635 2.907559 2.298097 2.298097 
C 2.907559 1.688635 3.25 0.86191 3.25 0 
C 3.25 -0.86191 2.907559 -1.688635 2.298097 -2.298097 
C 1.688635 -2.907559 0.86191 -3.25 0 -3.25 
C -0.86191 -3.25 -1.688635 -2.907559 -2.298097 -2.298097 
C -2.907559 -1.688635 -3.25 -0.86191 -3.25 0 
C -3.25 0.86191 -2.907559 1.688635 -2.298097 2.298097 
C -1.688635 2.907559 -0.86191 3.25 0 3.25 
z
" id="ma93e74101b" style="stroke:#4169e1;"/>
    </defs>
    <g clip-path="url(#p4babd79d10)">
     <use style="fill:#4169e1;stroke:#4169e1;" x="96.48" xlink:href="#ma93e74101b" y="218.720939"/>
     <use style="fill:#4169e1;stroke:#4169e1;" x="105.12" xlink:href="#ma93e74101b" y="59.279186"/>
     <use style="fill:#4169e1;stroke:#4169e1;" x="113.76" xlink:href="#ma93e74101b" y="172.431398"/>
     <use style="fill:#4169e1;stroke:#4169e1;" x="122.4" xlink:href="#ma93e74101b" y="254.723916"/>
     <use style="fill:#4169e1;stroke:#4169e1;" x="131.04" xlink:href="#ma93e74101b" y="259.867198"/>
     <use style="fill:#4169e1;stroke:#4169e1;" x="139.68" xlink:href="#ma93e74101b" y="265.01048"/>
     <use style="fill:#4169e1;stroke:#4169e1;" x="148.32" xlink:href="#ma93e74101b" y="259.867198"/>
     <use style="fill:#4169e1;stroke:#4169e1;" x="156.96" xlink:href="#ma93e74101b" y="265.01048"/>
     <use style="fill:#4169e1;stroke:#4169e1;" x="165.6" xlink:href="#ma93e74101b" y="270.153763"/>
     <use style="fill:#4169e1;stroke:#4169e1;" x="174.24" xlink:href="#ma93e74101b" y="270.153763"/>
     <use style="fill:#4169e1;stroke:#4169e1;" x="182.88" xlink:href="#ma93e74101b" y="270.153763"/>
     <use style="fill:#4169e1;stroke:#4169e1;" x="191.52" xlink:href="#ma93e74101b" y="270.153763"/>
     <use style="fill:#4169e1;stroke:#4169e1;" x="200.16" xlink:href="#ma93e74101b" y="270.153763"/>
     <use style="fill:#4169e1;stroke:#4169e1;" x="208.8" xlink:href="#ma93e74101b" y="270.153763"/>
     <use style="fill:#4169e1;stroke:#4169e1;" x="217.44" xlink:href="#ma93e74101b" y="270.153763"/>
     <use style="fill:#4169e1;stroke:#4169e1;" x="226.08" xlink:href="#ma93e74101b" y="270.153763"/>
     <use style="fill:#4169e1;stroke:#4169e1;" x="234.72" xlink:href="#ma93e74101b" y="270.153763"/>
     <use style="fill:#4169e1;stroke:#4169e1;" x="243.36" xlink:href="#ma93e74101b" y="270.153763"/>
     <use style="fill:#4169e1;stroke:#4169e1;" x="252" xlink:href="#ma93e74101b" y="270.153763"/>
     <use style="fill:#4169e1;stroke:#4169e1;" x="260.64" xlink:href="#ma93e74101b" y="270.153763"/>
     <use style="fill:#4169e1;stroke:#4169e1;" x="269.28" xlink:href="#ma93e74101b" y="270.153763"/>
     <use style="fill:#4169e1;stroke:#4169e1;" x="277.92" xlink:href="#ma93e74101b" y="270.153763"/>
     <use style="fill:#4169e1;stroke:#4169e1;" x="286.56" xlink:href="#ma93e74101b" y="270.153763"/>
     <use style="fill:#4169e1;stroke:#4169e1;" x="295.2" xlink:href="#ma93e74101b" y="270.153763"/>
     <use style="fill:#4169e1;stroke:#4169e1;" x="303.84" xlink:href="#ma93e74101b" y="270.153763"/>
     <use style="fill:#4169e1;stroke:#4169e1;" x="312.48" xlink:href="#ma93e74101b" y="270.153763"/>
     <use style="fill:#4169e1;stroke:#4169e1;" x="321.12" xlink:href="#ma93e74101b" y="270.153763"/>
     <use style="fill:#4169e1;stroke:#4169e1;" x="329.76" xlink:href="#ma93e74101b" y="270.153763"/>
     <use style="fill:#4169e1;stroke:#4169e1;" x="338.4" xlink:href="#ma93e74101b" y="270.153763"/>
     <use style="fill:#4169e1;stroke:#4169e1;" x="347.04" xlink:href="#ma93e74101b" y="270.153763"/>
     <use style="fill:#4169e1;stroke:#4169e1;" x="355.68" xlink:href="#ma93e74101b" y="270.153763"/>
     <use style="fill:#4169e1;stroke:#4169e1;" x="364.32" xlink:href="#ma93e74101b" y="270.153763"/>
     <use style="fill:#4169e1;stroke:#4169e1;" x="372.96" xlink:href="#ma93e74101b" y="270.153763"/>
     <use style="fill:#4169e1;stroke:#4169e1;" x="381.6" xlink:href="#ma93e74101b" y="270.153763"/>
     <use style="fill:#4169e1;stroke:#4169e1;" x="390.24" xlink:href="#ma93e74101b" y="270.153763"/>
     <use style="fill:#4169e1;stroke:#4169e1;" x="398.88" xlink:href="#ma93e74101b" y="270.153763"/>
     <use style="fill:#4169e1;stroke:#4169e1;" x="407.52" xlink:href="#ma93e74101b" y="270.153763"/>
     <use style="fill:#4169e1;stroke:#4169e1;" x="416.16" xlink:href="#ma93e74101b" y="270.153763"/>
     <use style="fill:#4169e1;stroke:#4169e1;" x="424.8" xlink:href="#ma93e74101b" y="270.153763"/>
     <use style="fill:#4169e1;stroke:#4169e1;" x="433.44" xlink:href="#ma93e74101b" y="270.153763"/>
    </g>
   </g>
   <g id="patch_3">
    <path d="M 92.16 276.48 
L 92.16 27.648 
" style="fill:none;stroke:#262626;stroke-linecap:square;stroke-linejoin:miter;stroke-width:0.8;"/>
   </g>
   <g id="patch_4">
    <path d="M 92.16 276.48 
L 437.76 276.48 
" style="fill:none;stroke:#262626;stroke-linecap:square;stroke-linejoin:miter;stroke-width:0.8;"/>
   </g>
   <g id="text_11">
    <text style="fill:#262626;font-family:DejaVu Sans;font-size:20px;font-style:normal;font-weight:bold;text-anchor:middle;" transform="rotate(-0, 264.96, 21.648)" x="264.96" y="21.648">IGHV5-10-1*01</text>
   </g>
  </g>
 </g>
 <defs>
  <clipPath id="p4babd79d10">
   <rect height="248.832" width="345.6" x="92.16" y="27.648"/>
  </clipPath>
 </defs>
</svg>
