<?xml version="1.0" encoding="utf-8" standalone="no"?>
<!DOCTYPE svg PUBLIC "-//W3C//DTD SVG 1.1//EN"
  "http://www.w3.org/Graphics/SVG/1.1/DTD/svg11.dtd">
<!-- Created with matplotlib (http://matplotlib.org/) -->
<svg height="288pt" version="1.1" viewBox="0 0 504 288" width="504pt" xmlns="http://www.w3.org/2000/svg" xmlns:xlink="http://www.w3.org/1999/xlink">
 <defs>
  <style type="text/css">
*{stroke-linecap:butt;stroke-linejoin:round;}
  </style>
 </defs>
 <g id="figure_1">
  <g id="patch_1">
   <path d="M 0 288 
L 504 288 
L 504 0 
L 0 0 
z
" style="fill:#ffffff;"/>
  </g>
  <g id="axes_1">
   <g id="patch_2">
    <path d="M 100.8 230.4 
L 478.8 230.4 
L 478.8 23.04 
L 100.8 23.04 
z
" style="fill:#ffffff;"/>
   </g>
   <g id="matplotlib.axis_1">
    <g id="xtick_1">
     <g id="line2d_1">
      <defs>
       <path d="M 0 0 
L 0 3.5 
" id="ma4bcdec713" style="stroke:#262626;stroke-width:0.8;"/>
      </defs>
      <g>
       <use style="fill:#262626;stroke:#262626;stroke-width:0.8;" x="200.858824" xlink:href="#ma4bcdec713" y="230.4"/>
      </g>
     </g>
     <g id="text_1">
      <text style="fill:#262626;font-family:DejaVu Sans;font-size:20px;font-style:normal;font-weight:normal;text-anchor:middle;" transform="rotate(-0, 200.858824, 252.596875)" x="200.858824" y="252.596875">5</text>
     </g>
    </g>
    <g id="xtick_2">
     <g id="line2d_2">
      <g>
       <use style="fill:#262626;stroke:#262626;stroke-width:0.8;" x="312.035294" xlink:href="#ma4bcdec713" y="230.4"/>
      </g>
     </g>
     <g id="text_2">
      <text style="fill:#262626;font-family:DejaVu Sans;font-size:20px;font-style:normal;font-weight:normal;text-anchor:middle;" transform="rotate(-0, 312.035294, 252.596875)" x="312.035294" y="252.596875">10</text>
     </g>
    </g>
    <g id="xtick_3">
     <g id="line2d_3">
      <g>
       <use style="fill:#262626;stroke:#262626;stroke-width:0.8;" x="423.211765" xlink:href="#ma4bcdec713" y="230.4"/>
      </g>
     </g>
     <g id="text_3">
      <text style="fill:#262626;font-family:DejaVu Sans;font-size:20px;font-style:normal;font-weight:normal;text-anchor:middle;" transform="rotate(-0, 423.211765, 252.596875)" x="423.211765" y="252.596875">15</text>
     </g>
    </g>
    <g id="text_4">
     <text style="fill:#262626;font-family:DejaVu Sans;font-size:20px;font-style:normal;font-weight:normal;text-anchor:middle;" transform="rotate(-0, 289.8, 275.953125)" x="289.8" y="275.953125">position</text>
    </g>
   </g>
   <g id="matplotlib.axis_2">
    <g id="ytick_1">
     <g id="line2d_4">
      <defs>
       <path d="M 0 0 
L -3.5 0 
" id="m98115a89df" style="stroke:#262626;stroke-width:0.8;"/>
      </defs>
      <g>
       <use style="fill:#262626;stroke:#262626;stroke-width:0.8;" x="100.8" xlink:href="#m98115a89df" y="225.128136"/>
      </g>
     </g>
     <g id="text_5">
      <text style="fill:#262626;font-family:DejaVu Sans;font-size:20px;font-style:normal;font-weight:normal;text-anchor:end;" transform="rotate(-0, 93.8, 232.726573)" x="93.8" y="232.726573">0.0</text>
     </g>
    </g>
    <g id="ytick_2">
     <g id="line2d_5">
      <g>
       <use style="fill:#262626;stroke:#262626;stroke-width:0.8;" x="100.8" xlink:href="#m98115a89df" y="160.005105"/>
      </g>
     </g>
     <g id="text_6">
      <text style="fill:#262626;font-family:DejaVu Sans;font-size:20px;font-style:normal;font-weight:normal;text-anchor:end;" transform="rotate(-0, 93.8, 167.603542)" x="93.8" y="167.603542">0.2</text>
     </g>
    </g>
    <g id="ytick_3">
     <g id="line2d_6">
      <g>
       <use style="fill:#262626;stroke:#262626;stroke-width:0.8;" x="100.8" xlink:href="#m98115a89df" y="94.882074"/>
      </g>
     </g>
     <g id="text_7">
      <text style="fill:#262626;font-family:DejaVu Sans;font-size:20px;font-style:normal;font-weight:normal;text-anchor:end;" transform="rotate(-0, 93.8, 102.480511)" x="93.8" y="102.480511">0.4</text>
     </g>
    </g>
    <g id="ytick_4">
     <g id="line2d_7">
      <g>
       <use style="fill:#262626;stroke:#262626;stroke-width:0.8;" x="100.8" xlink:href="#m98115a89df" y="29.759043"/>
      </g>
     </g>
     <g id="text_8">
      <text style="fill:#262626;font-family:DejaVu Sans;font-size:20px;font-style:normal;font-weight:normal;text-anchor:end;" transform="rotate(-0, 93.8, 37.35748)" x="93.8" y="37.35748">0.6</text>
     </g>
    </g>
    <g id="text_9">
     <text style="fill:#262626;font-family:DejaVu Sans;font-size:20px;font-style:normal;font-weight:normal;text-anchor:middle;" transform="rotate(-90, 53.834375, 126.72)" x="53.834375" y="126.72">mut freq</text>
    </g>
   </g>
   <g id="LineCollection_1">
    <path clip-path="url(#p088de506a8)" d="M 111.917647 225.716733 
L 111.917647 219.371044 
" style="fill:none;stroke:#4169e1;stroke-width:3;"/>
    <path clip-path="url(#p088de506a8)" d="M 134.152941 228.30098 
L 134.152941 221.955291 
" style="fill:none;stroke:#4169e1;stroke-width:3;"/>
    <path clip-path="url(#p088de506a8)" d="M 156.388235 228.30098 
L 156.388235 221.955291 
" style="fill:none;stroke:#4169e1;stroke-width:3;"/>
    <path clip-path="url(#p088de506a8)" d="M 178.623529 213.662056 
L 178.623529 200.414753 
" style="fill:none;stroke:#4169e1;stroke-width:3;"/>
    <path clip-path="url(#p088de506a8)" d="M 200.858824 228.30098 
L 200.858824 221.955291 
" style="fill:none;stroke:#4169e1;stroke-width:3;"/>
    <path clip-path="url(#p088de506a8)" d="M 223.094118 211.467006 
L 223.094118 197.441309 
" style="fill:none;stroke:#4169e1;stroke-width:3;"/>
    <path clip-path="url(#p088de506a8)" d="M 245.329412 94.248993 
L 245.329412 66.571586 
" style="fill:none;stroke:#4169e1;stroke-width:3;"/>
    <path clip-path="url(#p088de506a8)" d="M 267.564706 228.30098 
L 267.564706 221.955291 
" style="fill:none;stroke:#4169e1;stroke-width:3;"/>
    <path clip-path="url(#p088de506a8)" d="M 289.8 206.999849 
L 289.8 191.571477 
" style="fill:none;stroke:#4169e1;stroke-width:3;"/>
    <path clip-path="url(#p088de506a8)" d="M 312.035294 228.30098 
L 312.035294 221.955291 
" style="fill:none;stroke:#4169e1;stroke-width:3;"/>
    <path clip-path="url(#p088de506a8)" d="M 334.270588 225.716733 
L 334.270588 219.371044 
" style="fill:none;stroke:#4169e1;stroke-width:3;"/>
    <path clip-path="url(#p088de506a8)" d="M 356.505882 200.15183 
L 356.505882 182.914013 
" style="fill:none;stroke:#4169e1;stroke-width:3;"/>
    <path clip-path="url(#p088de506a8)" d="M 378.741176 206.999849 
L 378.741176 191.571477 
" style="fill:none;stroke:#4169e1;stroke-width:3;"/>
    <path clip-path="url(#p088de506a8)" d="M 400.976471 211.467006 
L 400.976471 197.441309 
" style="fill:none;stroke:#4169e1;stroke-width:3;"/>
    <path clip-path="url(#p088de506a8)" d="M 423.211765 63.279437 
L 423.211765 35.519207 
" style="fill:none;stroke:#4169e1;stroke-width:3;"/>
    <path clip-path="url(#p088de506a8)" d="M 445.447059 147.183717 
L 445.447059 122.175246 
" style="fill:none;stroke:#4169e1;stroke-width:3;"/>
    <path clip-path="url(#p088de506a8)" d="M 467.682353 217.949122 
L 467.682353 206.464677 
" style="fill:none;stroke:#4169e1;stroke-width:3;"/>
   </g>
   <g id="line2d_8">
    <path clip-path="url(#p088de506a8)" d="M 111.917647 222.543888 
L 134.152941 225.128136 
L 156.388235 225.128136 
L 178.623529 207.038405 
L 200.858824 225.128136 
L 223.094118 204.454158 
L 245.329412 80.410289 
L 267.564706 225.128136 
L 289.8 199.285663 
L 312.035294 225.128136 
L 334.270588 222.543888 
L 356.505882 191.532921 
L 378.741176 199.285663 
L 400.976471 204.454158 
L 423.211765 49.399322 
L 445.447059 134.679482 
L 467.682353 212.206899 
" style="fill:none;stroke:#4169e1;stroke-linecap:round;stroke-width:3;"/>
    <defs>
     <path d="M 0 3.25 
C 0.86191 3.25 1.688635 2.907559 2.298097 2.298097 
C 2.907559 1.688635 3.25 0.86191 3.25 0 
C 3.25 -0.86191 2.907559 -1.688635 2.298097 -2.298097 
C 1.688635 -2.907559 0.86191 -3.25 0 -3.25 
C -0.86191 -3.25 -1.688635 -2.907559 -2.298097 -2.298097 
C -2.907559 -1.688635 -3.25 -0.86191 -3.25 0 
C -3.25 0.86191 -2.907559 1.688635 -2.298097 2.298097 
C -1.688635 2.907559 -0.86191 3.25 0 3.25 
z
" id="madccf038bb" style="stroke:#4169e1;"/>
    </defs>
    <g clip-path="url(#p088de506a8)">
     <use style="fill:#4169e1;stroke:#4169e1;" x="111.917647" xlink:href="#madccf038bb" y="222.543888"/>
     <use style="fill:#4169e1;stroke:#4169e1;" x="134.152941" xlink:href="#madccf038bb" y="225.128136"/>
     <use style="fill:#4169e1;stroke:#4169e1;" x="156.388235" xlink:href="#madccf038bb" y="225.128136"/>
     <use style="fill:#4169e1;stroke:#4169e1;" x="178.623529" xlink:href="#madccf038bb" y="207.038405"/>
     <use style="fill:#4169e1;stroke:#4169e1;" x="200.858824" xlink:href="#madccf038bb" y="225.128136"/>
     <use style="fill:#4169e1;stroke:#4169e1;" x="223.094118" xlink:href="#madccf038bb" y="204.454158"/>
     <use style="fill:#4169e1;stroke:#4169e1;" x="245.329412" xlink:href="#madccf038bb" y="80.410289"/>
     <use style="fill:#4169e1;stroke:#4169e1;" x="267.564706" xlink:href="#madccf038bb" y="225.128136"/>
     <use style="fill:#4169e1;stroke:#4169e1;" x="289.8" xlink:href="#madccf038bb" y="199.285663"/>
     <use style="fill:#4169e1;stroke:#4169e1;" x="312.035294" xlink:href="#madccf038bb" y="225.128136"/>
     <use style="fill:#4169e1;stroke:#4169e1;" x="334.270588" xlink:href="#madccf038bb" y="222.543888"/>
     <use style="fill:#4169e1;stroke:#4169e1;" x="356.505882" xlink:href="#madccf038bb" y="191.532921"/>
     <use style="fill:#4169e1;stroke:#4169e1;" x="378.741176" xlink:href="#madccf038bb" y="199.285663"/>
     <use style="fill:#4169e1;stroke:#4169e1;" x="400.976471" xlink:href="#madccf038bb" y="204.454158"/>
     <use style="fill:#4169e1;stroke:#4169e1;" x="423.211765" xlink:href="#madccf038bb" y="49.399322"/>
     <use style="fill:#4169e1;stroke:#4169e1;" x="445.447059" xlink:href="#madccf038bb" y="134.679482"/>
     <use style="fill:#4169e1;stroke:#4169e1;" x="467.682353" xlink:href="#madccf038bb" y="212.206899"/>
    </g>
   </g>
   <g id="patch_3">
    <path d="M 100.8 230.4 
L 100.8 23.04 
" style="fill:none;stroke:#262626;stroke-linecap:square;stroke-linejoin:miter;stroke-width:0.8;"/>
   </g>
   <g id="patch_4">
    <path d="M 100.8 230.4 
L 478.8 230.4 
" style="fill:none;stroke:#262626;stroke-linecap:square;stroke-linejoin:miter;stroke-width:0.8;"/>
   </g>
   <g id="text_10">
    <text style="fill:#262626;font-family:DejaVu Sans;font-size:20px;font-style:normal;font-weight:bold;text-anchor:middle;" transform="rotate(-0, 289.8, 17.04)" x="289.8" y="17.04">IGHD2-21*01</text>
   </g>
  </g>
 </g>
 <defs>
  <clipPath id="p088de506a8">
   <rect height="207.36" width="378" x="100.8" y="23.04"/>
  </clipPath>
 </defs>
</svg>
