<?xml version="1.0" encoding="utf-8" standalone="no"?>
<!DOCTYPE svg PUBLIC "-//W3C//DTD SVG 1.1//EN"
  "http://www.w3.org/Graphics/SVG/1.1/DTD/svg11.dtd">
<!-- Created with matplotlib (http://matplotlib.org/) -->
<svg height="288pt" version="1.1" viewBox="0 0 504 288" width="504pt" xmlns="http://www.w3.org/2000/svg" xmlns:xlink="http://www.w3.org/1999/xlink">
 <defs>
  <style type="text/css">
*{stroke-linecap:butt;stroke-linejoin:round;}
  </style>
 </defs>
 <g id="figure_1">
  <g id="patch_1">
   <path d="M 0 288 
L 504 288 
L 504 0 
L 0 0 
z
" style="fill:#ffffff;"/>
  </g>
  <g id="axes_1">
   <g id="patch_2">
    <path d="M 100.8 230.4 
L 478.8 230.4 
L 478.8 23.04 
L 100.8 23.04 
z
" style="fill:#ffffff;"/>
   </g>
   <g id="matplotlib.axis_1">
    <g id="xtick_1">
     <g id="line2d_1">
      <defs>
       <path d="M 0 0 
L 0 3.5 
" id="m59ef7e7bb2" style="stroke:#262626;stroke-width:0.8;"/>
      </defs>
      <g>
       <use style="fill:#262626;stroke:#262626;stroke-width:0.8;" x="106.896774" xlink:href="#m59ef7e7bb2" y="230.4"/>
      </g>
     </g>
     <g id="text_1">
      <text style="fill:#262626;font-family:DejaVu Sans;font-size:20px;font-style:normal;font-weight:normal;text-anchor:middle;" transform="rotate(-0, 106.896774, 252.596875)" x="106.896774" y="252.596875">0</text>
     </g>
    </g>
    <g id="xtick_2">
     <g id="line2d_2">
      <g>
       <use style="fill:#262626;stroke:#262626;stroke-width:0.8;" x="228.832258" xlink:href="#m59ef7e7bb2" y="230.4"/>
      </g>
     </g>
     <g id="text_2">
      <text style="fill:#262626;font-family:DejaVu Sans;font-size:20px;font-style:normal;font-weight:normal;text-anchor:middle;" transform="rotate(-0, 228.832258, 252.596875)" x="228.832258" y="252.596875">10</text>
     </g>
    </g>
    <g id="xtick_3">
     <g id="line2d_3">
      <g>
       <use style="fill:#262626;stroke:#262626;stroke-width:0.8;" x="350.767742" xlink:href="#m59ef7e7bb2" y="230.4"/>
      </g>
     </g>
     <g id="text_3">
      <text style="fill:#262626;font-family:DejaVu Sans;font-size:20px;font-style:normal;font-weight:normal;text-anchor:middle;" transform="rotate(-0, 350.767742, 252.596875)" x="350.767742" y="252.596875">20</text>
     </g>
    </g>
    <g id="xtick_4">
     <g id="line2d_4">
      <g>
       <use style="fill:#262626;stroke:#262626;stroke-width:0.8;" x="472.703226" xlink:href="#m59ef7e7bb2" y="230.4"/>
      </g>
     </g>
     <g id="text_4">
      <text style="fill:#262626;font-family:DejaVu Sans;font-size:20px;font-style:normal;font-weight:normal;text-anchor:middle;" transform="rotate(-0, 472.703226, 252.596875)" x="472.703226" y="252.596875">30</text>
     </g>
    </g>
    <g id="text_5">
     <text style="fill:#262626;font-family:DejaVu Sans;font-size:20px;font-style:normal;font-weight:normal;text-anchor:middle;" transform="rotate(-0, 289.8, 275.953125)" x="289.8" y="275.953125">position</text>
    </g>
   </g>
   <g id="matplotlib.axis_2">
    <g id="ytick_1">
     <g id="line2d_5">
      <defs>
       <path d="M 0 0 
L -3.5 0 
" id="mb1b3714ea0" style="stroke:#262626;stroke-width:0.8;"/>
      </defs>
      <g>
       <use style="fill:#262626;stroke:#262626;stroke-width:0.8;" x="100.8" xlink:href="#mb1b3714ea0" y="225.128136"/>
      </g>
     </g>
     <g id="text_6">
      <text style="fill:#262626;font-family:DejaVu Sans;font-size:20px;font-style:normal;font-weight:normal;text-anchor:end;" transform="rotate(-0, 93.8, 232.726573)" x="93.8" y="232.726573">0.00</text>
     </g>
    </g>
    <g id="ytick_2">
     <g id="line2d_6">
      <g>
       <use style="fill:#262626;stroke:#262626;stroke-width:0.8;" x="100.8" xlink:href="#mb1b3714ea0" y="181.195932"/>
      </g>
     </g>
     <g id="text_7">
      <text style="fill:#262626;font-family:DejaVu Sans;font-size:20px;font-style:normal;font-weight:normal;text-anchor:end;" transform="rotate(-0, 93.8, 188.79437)" x="93.8" y="188.79437">0.25</text>
     </g>
    </g>
    <g id="ytick_3">
     <g id="line2d_7">
      <g>
       <use style="fill:#262626;stroke:#262626;stroke-width:0.8;" x="100.8" xlink:href="#mb1b3714ea0" y="137.263729"/>
      </g>
     </g>
     <g id="text_8">
      <text style="fill:#262626;font-family:DejaVu Sans;font-size:20px;font-style:normal;font-weight:normal;text-anchor:end;" transform="rotate(-0, 93.8, 144.862166)" x="93.8" y="144.862166">0.50</text>
     </g>
    </g>
    <g id="ytick_4">
     <g id="line2d_8">
      <g>
       <use style="fill:#262626;stroke:#262626;stroke-width:0.8;" x="100.8" xlink:href="#mb1b3714ea0" y="93.331525"/>
      </g>
     </g>
     <g id="text_9">
      <text style="fill:#262626;font-family:DejaVu Sans;font-size:20px;font-style:normal;font-weight:normal;text-anchor:end;" transform="rotate(-0, 93.8, 100.929963)" x="93.8" y="100.929963">0.75</text>
     </g>
    </g>
    <g id="ytick_5">
     <g id="line2d_9">
      <g>
       <use style="fill:#262626;stroke:#262626;stroke-width:0.8;" x="100.8" xlink:href="#mb1b3714ea0" y="49.399322"/>
      </g>
     </g>
     <g id="text_10">
      <text style="fill:#262626;font-family:DejaVu Sans;font-size:20px;font-style:normal;font-weight:normal;text-anchor:end;" transform="rotate(-0, 93.8, 56.99776)" x="93.8" y="56.99776">1.00</text>
     </g>
    </g>
    <g id="text_11">
     <text style="fill:#262626;font-family:DejaVu Sans;font-size:20px;font-style:normal;font-weight:normal;text-anchor:middle;" transform="rotate(-90, 41.109375, 126.72)" x="41.109375" y="126.72">mut freq</text>
    </g>
   </g>
   <g id="LineCollection_1">
    <path clip-path="url(#paeca1f49ec)" d="M 106.896774 262.066165 
L 106.896774 188.190106 
" style="fill:none;stroke:#4169e1;stroke-width:3;"/>
    <path clip-path="url(#paeca1f49ec)" d="M 119.090323 165.928 
L 119.090323 122.117058 
" style="fill:none;stroke:#4169e1;stroke-width:3;"/>
    <path clip-path="url(#paeca1f49ec)" d="M 131.283871 225.722025 
L 131.283871 197.499045 
" style="fill:none;stroke:#4169e1;stroke-width:3;"/>
    <path clip-path="url(#paeca1f49ec)" d="M 143.477419 225.722025 
L 143.477419 197.499045 
" style="fill:none;stroke:#4169e1;stroke-width:3;"/>
    <path clip-path="url(#paeca1f49ec)" d="M 155.670968 109.118737 
L 155.670968 70.785514 
" style="fill:none;stroke:#4169e1;stroke-width:3;"/>
    <path clip-path="url(#paeca1f49ec)" d="M 167.864516 109.118737 
L 167.864516 70.785514 
" style="fill:none;stroke:#4169e1;stroke-width:3;"/>
    <path clip-path="url(#paeca1f49ec)" d="M 180.058065 109.118737 
L 180.058065 70.785514 
" style="fill:none;stroke:#4169e1;stroke-width:3;"/>
    <path clip-path="url(#paeca1f49ec)" d="M 192.251613 109.118737 
L 192.251613 70.785514 
" style="fill:none;stroke:#4169e1;stroke-width:3;"/>
    <path clip-path="url(#paeca1f49ec)" d="M 204.445161 165.928 
L 204.445161 122.117058 
" style="fill:none;stroke:#4169e1;stroke-width:3;"/>
    <path clip-path="url(#paeca1f49ec)" d="M 216.63871 225.722025 
L 216.63871 197.499045 
" style="fill:none;stroke:#4169e1;stroke-width:3;"/>
    <path clip-path="url(#paeca1f49ec)" d="M 228.832258 203.741944 
L 228.832258 165.408721 
" style="fill:none;stroke:#4169e1;stroke-width:3;"/>
    <path clip-path="url(#paeca1f49ec)" d="M 241.025806 191.638996 
L 241.025806 150.476467 
" style="fill:none;stroke:#4169e1;stroke-width:3;"/>
    <path clip-path="url(#paeca1f49ec)" d="M 253.219355 215.194631 
L 253.219355 180.991236 
" style="fill:none;stroke:#4169e1;stroke-width:3;"/>
    <path clip-path="url(#paeca1f49ec)" d="M 265.412903 165.928 
L 265.412903 122.117058 
" style="fill:none;stroke:#4169e1;stroke-width:3;"/>
    <path clip-path="url(#paeca1f49ec)" d="M 277.606452 225.722025 
L 277.606452 197.499045 
" style="fill:none;stroke:#4169e1;stroke-width:3;"/>
    <path clip-path="url(#paeca1f49ec)" d="M 289.8 224.504817 
L 289.8 186.700606 
" style="fill:none;stroke:#4169e1;stroke-width:3;"/>
    <path clip-path="url(#paeca1f49ec)" d="M 301.993548 224.504817 
L 301.993548 186.700606 
" style="fill:none;stroke:#4169e1;stroke-width:3;"/>
    <path clip-path="url(#paeca1f49ec)" d="M 314.187097 224.504817 
L 314.187097 186.700606 
" style="fill:none;stroke:#4169e1;stroke-width:3;"/>
    <path clip-path="url(#paeca1f49ec)" d="M 326.380645 224.504817 
L 326.380645 186.700606 
" style="fill:none;stroke:#4169e1;stroke-width:3;"/>
    <path clip-path="url(#paeca1f49ec)" d="M 338.574194 132.514601 
L 338.574194 83.436586 
" style="fill:none;stroke:#4169e1;stroke-width:3;"/>
    <path clip-path="url(#paeca1f49ec)" d="M 350.767742 132.514601 
L 350.767742 83.436586 
" style="fill:none;stroke:#4169e1;stroke-width:3;"/>
    <path clip-path="url(#paeca1f49ec)" d="M 362.96129 257.308061 
L 362.96129 192.94821 
" style="fill:none;stroke:#4169e1;stroke-width:3;"/>
    <path clip-path="url(#paeca1f49ec)" d="M 375.154839 213.375858 
L 375.154839 149.016007 
" style="fill:none;stroke:#4169e1;stroke-width:3;"/>
    <path clip-path="url(#paeca1f49ec)" d="M 387.348387 213.375858 
L 387.348387 149.016007 
" style="fill:none;stroke:#4169e1;stroke-width:3;"/>
    <path clip-path="url(#paeca1f49ec)" d="M 399.541935 171.935517 
L 399.541935 102.591941 
" style="fill:none;stroke:#4169e1;stroke-width:3;"/>
    <path clip-path="url(#paeca1f49ec)" d="M 411.735484 213.375858 
L 411.735484 149.016007 
" style="fill:none;stroke:#4169e1;stroke-width:3;"/>
    <path clip-path="url(#paeca1f49ec)" d="M 423.929032 213.375858 
L 423.929032 149.016007 
" style="fill:none;stroke:#4169e1;stroke-width:3;"/>
    <path clip-path="url(#paeca1f49ec)" d="M 436.122581 213.375858 
L 436.122581 149.016007 
" style="fill:none;stroke:#4169e1;stroke-width:3;"/>
    <path clip-path="url(#paeca1f49ec)" d="M 448.316129 213.375858 
L 448.316129 149.016007 
" style="fill:none;stroke:#4169e1;stroke-width:3;"/>
    <path clip-path="url(#paeca1f49ec)" d="M 460.509677 213.375858 
L 460.509677 149.016007 
" style="fill:none;stroke:#4169e1;stroke-width:3;"/>
    <path clip-path="url(#paeca1f49ec)" d="M 472.703226 66.731318 
L 472.703226 32.067326 
" style="fill:none;stroke:#4169e1;stroke-width:3;"/>
   </g>
   <g id="line2d_10">
    <path clip-path="url(#paeca1f49ec)" d="M 106.896774 225.128136 
L 119.090323 144.022529 
L 131.283871 211.610535 
L 143.477419 211.610535 
L 155.670968 89.952125 
L 167.864516 89.952125 
L 180.058065 89.952125 
L 192.251613 89.952125 
L 204.445161 144.022529 
L 216.63871 211.610535 
L 228.832258 184.575332 
L 241.025806 171.057731 
L 253.219355 198.092934 
L 265.412903 144.022529 
L 277.606452 211.610535 
L 289.8 205.602712 
L 301.993548 205.602712 
L 314.187097 205.602712 
L 326.380645 205.602712 
L 338.574194 107.975593 
L 350.767742 107.975593 
L 362.96129 225.128136 
L 375.154839 181.195932 
L 387.348387 181.195932 
L 399.541935 137.263729 
L 411.735484 181.195932 
L 423.929032 181.195932 
L 436.122581 181.195932 
L 448.316129 181.195932 
L 460.509677 181.195932 
L 472.703226 49.399322 
" style="fill:none;stroke:#4169e1;stroke-linecap:round;stroke-width:3;"/>
    <defs>
     <path d="M 0 3.25 
C 0.86191 3.25 1.688635 2.907559 2.298097 2.298097 
C 2.907559 1.688635 3.25 0.86191 3.25 0 
C 3.25 -0.86191 2.907559 -1.688635 2.298097 -2.298097 
C 1.688635 -2.907559 0.86191 -3.25 0 -3.25 
C -0.86191 -3.25 -1.688635 -2.907559 -2.298097 -2.298097 
C -2.907559 -1.688635 -3.25 -0.86191 -3.25 0 
C -3.25 0.86191 -2.907559 1.688635 -2.298097 2.298097 
C -1.688635 2.907559 -0.86191 3.25 0 3.25 
z
" id="m4f0672b7c4" style="stroke:#4169e1;"/>
    </defs>
    <g clip-path="url(#paeca1f49ec)">
     <use style="fill:#4169e1;stroke:#4169e1;" x="106.896774" xlink:href="#m4f0672b7c4" y="225.128136"/>
     <use style="fill:#4169e1;stroke:#4169e1;" x="119.090323" xlink:href="#m4f0672b7c4" y="144.022529"/>
     <use style="fill:#4169e1;stroke:#4169e1;" x="131.283871" xlink:href="#m4f0672b7c4" y="211.610535"/>
     <use style="fill:#4169e1;stroke:#4169e1;" x="143.477419" xlink:href="#m4f0672b7c4" y="211.610535"/>
     <use style="fill:#4169e1;stroke:#4169e1;" x="155.670968" xlink:href="#m4f0672b7c4" y="89.952125"/>
     <use style="fill:#4169e1;stroke:#4169e1;" x="167.864516" xlink:href="#m4f0672b7c4" y="89.952125"/>
     <use style="fill:#4169e1;stroke:#4169e1;" x="180.058065" xlink:href="#m4f0672b7c4" y="89.952125"/>
     <use style="fill:#4169e1;stroke:#4169e1;" x="192.251613" xlink:href="#m4f0672b7c4" y="89.952125"/>
     <use style="fill:#4169e1;stroke:#4169e1;" x="204.445161" xlink:href="#m4f0672b7c4" y="144.022529"/>
     <use style="fill:#4169e1;stroke:#4169e1;" x="216.63871" xlink:href="#m4f0672b7c4" y="211.610535"/>
     <use style="fill:#4169e1;stroke:#4169e1;" x="228.832258" xlink:href="#m4f0672b7c4" y="184.575332"/>
     <use style="fill:#4169e1;stroke:#4169e1;" x="241.025806" xlink:href="#m4f0672b7c4" y="171.057731"/>
     <use style="fill:#4169e1;stroke:#4169e1;" x="253.219355" xlink:href="#m4f0672b7c4" y="198.092934"/>
     <use style="fill:#4169e1;stroke:#4169e1;" x="265.412903" xlink:href="#m4f0672b7c4" y="144.022529"/>
     <use style="fill:#4169e1;stroke:#4169e1;" x="277.606452" xlink:href="#m4f0672b7c4" y="211.610535"/>
     <use style="fill:#4169e1;stroke:#4169e1;" x="289.8" xlink:href="#m4f0672b7c4" y="205.602712"/>
     <use style="fill:#4169e1;stroke:#4169e1;" x="301.993548" xlink:href="#m4f0672b7c4" y="205.602712"/>
     <use style="fill:#4169e1;stroke:#4169e1;" x="314.187097" xlink:href="#m4f0672b7c4" y="205.602712"/>
     <use style="fill:#4169e1;stroke:#4169e1;" x="326.380645" xlink:href="#m4f0672b7c4" y="205.602712"/>
     <use style="fill:#4169e1;stroke:#4169e1;" x="338.574194" xlink:href="#m4f0672b7c4" y="107.975593"/>
     <use style="fill:#4169e1;stroke:#4169e1;" x="350.767742" xlink:href="#m4f0672b7c4" y="107.975593"/>
     <use style="fill:#4169e1;stroke:#4169e1;" x="362.96129" xlink:href="#m4f0672b7c4" y="225.128136"/>
     <use style="fill:#4169e1;stroke:#4169e1;" x="375.154839" xlink:href="#m4f0672b7c4" y="181.195932"/>
     <use style="fill:#4169e1;stroke:#4169e1;" x="387.348387" xlink:href="#m4f0672b7c4" y="181.195932"/>
     <use style="fill:#4169e1;stroke:#4169e1;" x="399.541935" xlink:href="#m4f0672b7c4" y="137.263729"/>
     <use style="fill:#4169e1;stroke:#4169e1;" x="411.735484" xlink:href="#m4f0672b7c4" y="181.195932"/>
     <use style="fill:#4169e1;stroke:#4169e1;" x="423.929032" xlink:href="#m4f0672b7c4" y="181.195932"/>
     <use style="fill:#4169e1;stroke:#4169e1;" x="436.122581" xlink:href="#m4f0672b7c4" y="181.195932"/>
     <use style="fill:#4169e1;stroke:#4169e1;" x="448.316129" xlink:href="#m4f0672b7c4" y="181.195932"/>
     <use style="fill:#4169e1;stroke:#4169e1;" x="460.509677" xlink:href="#m4f0672b7c4" y="181.195932"/>
     <use style="fill:#4169e1;stroke:#4169e1;" x="472.703226" xlink:href="#m4f0672b7c4" y="49.399322"/>
    </g>
   </g>
   <g id="patch_3">
    <path d="M 100.8 230.4 
L 100.8 23.04 
" style="fill:none;stroke:#262626;stroke-linecap:square;stroke-linejoin:miter;stroke-width:0.8;"/>
   </g>
   <g id="patch_4">
    <path d="M 100.8 230.4 
L 478.8 230.4 
" style="fill:none;stroke:#262626;stroke-linecap:square;stroke-linejoin:miter;stroke-width:0.8;"/>
   </g>
   <g id="text_12">
    <text style="fill:#262626;font-family:DejaVu Sans;font-size:20px;font-style:normal;font-weight:bold;text-anchor:middle;" transform="rotate(-0, 289.8, 17.04)" x="289.8" y="17.04">IGHD2-15*01</text>
   </g>
  </g>
 </g>
 <defs>
  <clipPath id="paeca1f49ec">
   <rect height="207.36" width="378" x="100.8" y="23.04"/>
  </clipPath>
 </defs>
</svg>
