<?xml version="1.0" encoding="utf-8" standalone="no"?>
<!DOCTYPE svg PUBLIC "-//W3C//DTD SVG 1.1//EN"
  "http://www.w3.org/Graphics/SVG/1.1/DTD/svg11.dtd">
<!-- Created with matplotlib (http://matplotlib.org/) -->
<svg height="288pt" version="1.1" viewBox="0 0 504 288" width="504pt" xmlns="http://www.w3.org/2000/svg" xmlns:xlink="http://www.w3.org/1999/xlink">
 <defs>
  <style type="text/css">
*{stroke-linecap:butt;stroke-linejoin:round;}
  </style>
 </defs>
 <g id="figure_1">
  <g id="patch_1">
   <path d="M 0 288 
L 504 288 
L 504 0 
L 0 0 
z
" style="fill:#ffffff;"/>
  </g>
  <g id="axes_1">
   <g id="patch_2">
    <path d="M 100.8 230.4 
L 478.8 230.4 
L 478.8 23.04 
L 100.8 23.04 
z
" style="fill:#ffffff;"/>
   </g>
   <g id="matplotlib.axis_1">
    <g id="xtick_1">
     <g id="line2d_1">
      <defs>
       <path d="M 0 0 
L 0 3.5 
" id="m61f5707b93" style="stroke:#262626;stroke-width:0.8;"/>
      </defs>
      <g>
       <use style="fill:#262626;stroke:#262626;stroke-width:0.8;" x="110.25" xlink:href="#m61f5707b93" y="230.4"/>
      </g>
     </g>
     <g id="text_1">
      <text style="fill:#262626;font-family:DejaVu Sans;font-size:20px;font-style:normal;font-weight:normal;text-anchor:middle;" transform="rotate(-0, 110.25, 252.596875)" x="110.25" y="252.596875">0</text>
     </g>
    </g>
    <g id="xtick_2">
     <g id="line2d_2">
      <g>
       <use style="fill:#262626;stroke:#262626;stroke-width:0.8;" x="204.75" xlink:href="#m61f5707b93" y="230.4"/>
      </g>
     </g>
     <g id="text_2">
      <text style="fill:#262626;font-family:DejaVu Sans;font-size:20px;font-style:normal;font-weight:normal;text-anchor:middle;" transform="rotate(-0, 204.75, 252.596875)" x="204.75" y="252.596875">5</text>
     </g>
    </g>
    <g id="xtick_3">
     <g id="line2d_3">
      <g>
       <use style="fill:#262626;stroke:#262626;stroke-width:0.8;" x="299.25" xlink:href="#m61f5707b93" y="230.4"/>
      </g>
     </g>
     <g id="text_3">
      <text style="fill:#262626;font-family:DejaVu Sans;font-size:20px;font-style:normal;font-weight:normal;text-anchor:middle;" transform="rotate(-0, 299.25, 252.596875)" x="299.25" y="252.596875">10</text>
     </g>
    </g>
    <g id="xtick_4">
     <g id="line2d_4">
      <g>
       <use style="fill:#262626;stroke:#262626;stroke-width:0.8;" x="393.75" xlink:href="#m61f5707b93" y="230.4"/>
      </g>
     </g>
     <g id="text_4">
      <text style="fill:#262626;font-family:DejaVu Sans;font-size:20px;font-style:normal;font-weight:normal;text-anchor:middle;" transform="rotate(-0, 393.75, 252.596875)" x="393.75" y="252.596875">15</text>
     </g>
    </g>
    <g id="text_5">
     <text style="fill:#262626;font-family:DejaVu Sans;font-size:20px;font-style:normal;font-weight:normal;text-anchor:middle;" transform="rotate(-0, 289.8, 275.953125)" x="289.8" y="275.953125">position</text>
    </g>
   </g>
   <g id="matplotlib.axis_2">
    <g id="ytick_1">
     <g id="line2d_5">
      <defs>
       <path d="M 0 0 
L -3.5 0 
" id="m3b2d8ce865" style="stroke:#262626;stroke-width:0.8;"/>
      </defs>
      <g>
       <use style="fill:#262626;stroke:#262626;stroke-width:0.8;" x="100.8" xlink:href="#m3b2d8ce865" y="225.128136"/>
      </g>
     </g>
     <g id="text_6">
      <text style="fill:#262626;font-family:DejaVu Sans;font-size:20px;font-style:normal;font-weight:normal;text-anchor:end;" transform="rotate(-0, 93.8, 232.726573)" x="93.8" y="232.726573">0.0</text>
     </g>
    </g>
    <g id="ytick_2">
     <g id="line2d_6">
      <g>
       <use style="fill:#262626;stroke:#262626;stroke-width:0.8;" x="100.8" xlink:href="#m3b2d8ce865" y="154.83661"/>
      </g>
     </g>
     <g id="text_7">
      <text style="fill:#262626;font-family:DejaVu Sans;font-size:20px;font-style:normal;font-weight:normal;text-anchor:end;" transform="rotate(-0, 93.8, 162.435048)" x="93.8" y="162.435048">0.2</text>
     </g>
    </g>
    <g id="ytick_3">
     <g id="line2d_7">
      <g>
       <use style="fill:#262626;stroke:#262626;stroke-width:0.8;" x="100.8" xlink:href="#m3b2d8ce865" y="84.545085"/>
      </g>
     </g>
     <g id="text_8">
      <text style="fill:#262626;font-family:DejaVu Sans;font-size:20px;font-style:normal;font-weight:normal;text-anchor:end;" transform="rotate(-0, 93.8, 92.143522)" x="93.8" y="92.143522">0.4</text>
     </g>
    </g>
    <g id="text_9">
     <text style="fill:#262626;font-family:DejaVu Sans;font-size:20px;font-style:normal;font-weight:normal;text-anchor:middle;" transform="rotate(-90, 53.834375, 126.72)" x="53.834375" y="126.72">mut freq</text>
    </g>
   </g>
   <g id="LineCollection_1">
    <path clip-path="url(#pd988499c40)" d="M 110.25 266.409066 
L 110.25 183.847205 
" style="fill:none;stroke:#4169e1;stroke-width:3;"/>
    <path clip-path="url(#pd988499c40)" d="M 129.15 266.409066 
L 129.15 183.847205 
" style="fill:none;stroke:#4169e1;stroke-width:3;"/>
    <path clip-path="url(#pd988499c40)" d="M 148.05 255.266557 
L 148.05 194.989715 
" style="fill:none;stroke:#4169e1;stroke-width:3;"/>
    <path clip-path="url(#pd988499c40)" d="M 166.95 225.978421 
L 166.95 165.701579 
" style="fill:none;stroke:#4169e1;stroke-width:3;"/>
    <path clip-path="url(#pd988499c40)" d="M 185.85 225.978421 
L 185.85 165.701579 
" style="fill:none;stroke:#4169e1;stroke-width:3;"/>
    <path clip-path="url(#pd988499c40)" d="M 204.75 255.266557 
L 204.75 194.989715 
" style="fill:none;stroke:#4169e1;stroke-width:3;"/>
    <path clip-path="url(#pd988499c40)" d="M 223.65 189.271155 
L 223.65 120.402065 
" style="fill:none;stroke:#4169e1;stroke-width:3;"/>
    <path clip-path="url(#pd988499c40)" d="M 242.55 226.98803 
L 242.55 198.164125 
" style="fill:none;stroke:#4169e1;stroke-width:3;"/>
    <path clip-path="url(#pd988499c40)" d="M 261.45 226.98803 
L 261.45 198.164125 
" style="fill:none;stroke:#4169e1;stroke-width:3;"/>
    <path clip-path="url(#pd988499c40)" d="M 280.35 208.016093 
L 280.35 166.92783 
" style="fill:none;stroke:#4169e1;stroke-width:3;"/>
    <path clip-path="url(#pd988499c40)" d="M 299.25 239.540088 
L 299.25 210.716183 
" style="fill:none;stroke:#4169e1;stroke-width:3;"/>
    <path clip-path="url(#pd988499c40)" d="M 318.15 239.540088 
L 318.15 210.716183 
" style="fill:none;stroke:#4169e1;stroke-width:3;"/>
    <path clip-path="url(#pd988499c40)" d="M 337.05 80.450068 
L 337.05 18.348576 
" style="fill:none;stroke:#4169e1;stroke-width:3;"/>
    <path clip-path="url(#pd988499c40)" d="M 355.95 239.540088 
L 355.95 210.716183 
" style="fill:none;stroke:#4169e1;stroke-width:3;"/>
    <path clip-path="url(#pd988499c40)" d="M 374.85 208.016093 
L 374.85 166.92783 
" style="fill:none;stroke:#4169e1;stroke-width:3;"/>
    <path clip-path="url(#pd988499c40)" d="M 393.75 239.540088 
L 393.75 210.716183 
" style="fill:none;stroke:#4169e1;stroke-width:3;"/>
    <path clip-path="url(#pd988499c40)" d="M 412.65 186.886631 
L 412.65 137.849059 
" style="fill:none;stroke:#4169e1;stroke-width:3;"/>
    <path clip-path="url(#pd988499c40)" d="M 431.55 197.637127 
L 431.55 152.202679 
" style="fill:none;stroke:#4169e1;stroke-width:3;"/>
    <path clip-path="url(#pd988499c40)" d="M 450.45 247.618303 
L 450.45 202.637968 
" style="fill:none;stroke:#4169e1;stroke-width:3;"/>
    <path clip-path="url(#pd988499c40)" d="M 469.35 257.457006 
L 469.35 192.799265 
" style="fill:none;stroke:#4169e1;stroke-width:3;"/>
   </g>
   <g id="line2d_8">
    <path clip-path="url(#pd988499c40)" d="M 110.25 225.128136 
L 129.15 225.128136 
L 148.05 225.128136 
L 166.95 195.84 
L 185.85 195.84 
L 204.75 225.128136 
L 223.65 154.83661 
L 242.55 212.576077 
L 261.45 212.576077 
L 280.35 187.471961 
L 299.25 225.128136 
L 318.15 225.128136 
L 337.05 49.399322 
L 355.95 225.128136 
L 374.85 187.471961 
L 393.75 225.128136 
L 412.65 162.367845 
L 431.55 174.919903 
L 450.45 225.128136 
L 469.35 225.128136 
" style="fill:none;stroke:#4169e1;stroke-linecap:round;stroke-width:3;"/>
    <defs>
     <path d="M 0 3.25 
C 0.86191 3.25 1.688635 2.907559 2.298097 2.298097 
C 2.907559 1.688635 3.25 0.86191 3.25 0 
C 3.25 -0.86191 2.907559 -1.688635 2.298097 -2.298097 
C 1.688635 -2.907559 0.86191 -3.25 0 -3.25 
C -0.86191 -3.25 -1.688635 -2.907559 -2.298097 -2.298097 
C -2.907559 -1.688635 -3.25 -0.86191 -3.25 0 
C -3.25 0.86191 -2.907559 1.688635 -2.298097 2.298097 
C -1.688635 2.907559 -0.86191 3.25 0 3.25 
z
" id="mbd7b64aedd" style="stroke:#4169e1;"/>
    </defs>
    <g clip-path="url(#pd988499c40)">
     <use style="fill:#4169e1;stroke:#4169e1;" x="110.25" xlink:href="#mbd7b64aedd" y="225.128136"/>
     <use style="fill:#4169e1;stroke:#4169e1;" x="129.15" xlink:href="#mbd7b64aedd" y="225.128136"/>
     <use style="fill:#4169e1;stroke:#4169e1;" x="148.05" xlink:href="#mbd7b64aedd" y="225.128136"/>
     <use style="fill:#4169e1;stroke:#4169e1;" x="166.95" xlink:href="#mbd7b64aedd" y="195.84"/>
     <use style="fill:#4169e1;stroke:#4169e1;" x="185.85" xlink:href="#mbd7b64aedd" y="195.84"/>
     <use style="fill:#4169e1;stroke:#4169e1;" x="204.75" xlink:href="#mbd7b64aedd" y="225.128136"/>
     <use style="fill:#4169e1;stroke:#4169e1;" x="223.65" xlink:href="#mbd7b64aedd" y="154.83661"/>
     <use style="fill:#4169e1;stroke:#4169e1;" x="242.55" xlink:href="#mbd7b64aedd" y="212.576077"/>
     <use style="fill:#4169e1;stroke:#4169e1;" x="261.45" xlink:href="#mbd7b64aedd" y="212.576077"/>
     <use style="fill:#4169e1;stroke:#4169e1;" x="280.35" xlink:href="#mbd7b64aedd" y="187.471961"/>
     <use style="fill:#4169e1;stroke:#4169e1;" x="299.25" xlink:href="#mbd7b64aedd" y="225.128136"/>
     <use style="fill:#4169e1;stroke:#4169e1;" x="318.15" xlink:href="#mbd7b64aedd" y="225.128136"/>
     <use style="fill:#4169e1;stroke:#4169e1;" x="337.05" xlink:href="#mbd7b64aedd" y="49.399322"/>
     <use style="fill:#4169e1;stroke:#4169e1;" x="355.95" xlink:href="#mbd7b64aedd" y="225.128136"/>
     <use style="fill:#4169e1;stroke:#4169e1;" x="374.85" xlink:href="#mbd7b64aedd" y="187.471961"/>
     <use style="fill:#4169e1;stroke:#4169e1;" x="393.75" xlink:href="#mbd7b64aedd" y="225.128136"/>
     <use style="fill:#4169e1;stroke:#4169e1;" x="412.65" xlink:href="#mbd7b64aedd" y="162.367845"/>
     <use style="fill:#4169e1;stroke:#4169e1;" x="431.55" xlink:href="#mbd7b64aedd" y="174.919903"/>
     <use style="fill:#4169e1;stroke:#4169e1;" x="450.45" xlink:href="#mbd7b64aedd" y="225.128136"/>
     <use style="fill:#4169e1;stroke:#4169e1;" x="469.35" xlink:href="#mbd7b64aedd" y="225.128136"/>
    </g>
   </g>
   <g id="patch_3">
    <path d="M 100.8 230.4 
L 100.8 23.04 
" style="fill:none;stroke:#262626;stroke-linecap:square;stroke-linejoin:miter;stroke-width:0.8;"/>
   </g>
   <g id="patch_4">
    <path d="M 100.8 230.4 
L 478.8 230.4 
" style="fill:none;stroke:#262626;stroke-linecap:square;stroke-linejoin:miter;stroke-width:0.8;"/>
   </g>
   <g id="text_10">
    <text style="fill:#262626;font-family:DejaVu Sans;font-size:20px;font-style:normal;font-weight:bold;text-anchor:middle;" transform="rotate(-0, 289.8, 17.04)" x="289.8" y="17.04">IGHD1-26*01</text>
   </g>
  </g>
 </g>
 <defs>
  <clipPath id="pd988499c40">
   <rect height="207.36" width="378" x="100.8" y="23.04"/>
  </clipPath>
 </defs>
</svg>
