<?xml version="1.0" encoding="utf-8" standalone="no"?>
<!DOCTYPE svg PUBLIC "-//W3C//DTD SVG 1.1//EN"
  "http://www.w3.org/Graphics/SVG/1.1/DTD/svg11.dtd">
<!-- Created with matplotlib (http://matplotlib.org/) -->
<svg height="288pt" version="1.1" viewBox="0 0 504 288" width="504pt" xmlns="http://www.w3.org/2000/svg" xmlns:xlink="http://www.w3.org/1999/xlink">
 <defs>
  <style type="text/css">
*{stroke-linecap:butt;stroke-linejoin:round;}
  </style>
 </defs>
 <g id="figure_1">
  <g id="patch_1">
   <path d="M 0 288 
L 504 288 
L 504 0 
L 0 0 
z
" style="fill:#ffffff;"/>
  </g>
  <g id="axes_1">
   <g id="patch_2">
    <path d="M 100.8 230.4 
L 478.8 230.4 
L 478.8 23.04 
L 100.8 23.04 
z
" style="fill:#ffffff;"/>
   </g>
   <g id="matplotlib.axis_1">
    <g id="xtick_1">
     <g id="line2d_1">
      <defs>
       <path d="M 0 0 
L 0 3.5 
" id="mfe1396787b" style="stroke:#262626;stroke-width:0.8;"/>
      </defs>
      <g>
       <use style="fill:#262626;stroke:#262626;stroke-width:0.8;" x="192.6" xlink:href="#mfe1396787b" y="230.4"/>
      </g>
     </g>
     <g id="text_1">
      <text style="fill:#262626;font-family:DejaVu Sans;font-size:20px;font-style:normal;font-weight:normal;text-anchor:middle;" transform="rotate(-0, 192.6, 252.596875)" x="192.6" y="252.596875">10</text>
     </g>
    </g>
    <g id="xtick_2">
     <g id="line2d_2">
      <g>
       <use style="fill:#262626;stroke:#262626;stroke-width:0.8;" x="300.6" xlink:href="#mfe1396787b" y="230.4"/>
      </g>
     </g>
     <g id="text_2">
      <text style="fill:#262626;font-family:DejaVu Sans;font-size:20px;font-style:normal;font-weight:normal;text-anchor:middle;" transform="rotate(-0, 300.6, 252.596875)" x="300.6" y="252.596875">20</text>
     </g>
    </g>
    <g id="xtick_3">
     <g id="line2d_3">
      <g>
       <use style="fill:#262626;stroke:#262626;stroke-width:0.8;" x="408.6" xlink:href="#mfe1396787b" y="230.4"/>
      </g>
     </g>
     <g id="text_3">
      <text style="fill:#262626;font-family:DejaVu Sans;font-size:20px;font-style:normal;font-weight:normal;text-anchor:middle;" transform="rotate(-0, 408.6, 252.596875)" x="408.6" y="252.596875">30</text>
     </g>
    </g>
    <g id="text_4">
     <text style="fill:#262626;font-family:DejaVu Sans;font-size:20px;font-style:normal;font-weight:normal;text-anchor:middle;" transform="rotate(-0, 289.8, 275.953125)" x="289.8" y="275.953125">position</text>
    </g>
   </g>
   <g id="matplotlib.axis_2">
    <g id="ytick_1">
     <g id="line2d_4">
      <defs>
       <path d="M 0 0 
L -3.5 0 
" id="m1855f34a1e" style="stroke:#262626;stroke-width:0.8;"/>
      </defs>
      <g>
       <use style="fill:#262626;stroke:#262626;stroke-width:0.8;" x="100.8" xlink:href="#m1855f34a1e" y="225.128136"/>
      </g>
     </g>
     <g id="text_5">
      <text style="fill:#262626;font-family:DejaVu Sans;font-size:20px;font-style:normal;font-weight:normal;text-anchor:end;" transform="rotate(-0, 93.8, 232.726573)" x="93.8" y="232.726573">0.0</text>
     </g>
    </g>
    <g id="ytick_2">
     <g id="line2d_5">
      <g>
       <use style="fill:#262626;stroke:#262626;stroke-width:0.8;" x="100.8" xlink:href="#m1855f34a1e" y="170.456949"/>
      </g>
     </g>
     <g id="text_6">
      <text style="fill:#262626;font-family:DejaVu Sans;font-size:20px;font-style:normal;font-weight:normal;text-anchor:end;" transform="rotate(-0, 93.8, 178.055387)" x="93.8" y="178.055387">0.2</text>
     </g>
    </g>
    <g id="ytick_3">
     <g id="line2d_6">
      <g>
       <use style="fill:#262626;stroke:#262626;stroke-width:0.8;" x="100.8" xlink:href="#m1855f34a1e" y="115.785763"/>
      </g>
     </g>
     <g id="text_7">
      <text style="fill:#262626;font-family:DejaVu Sans;font-size:20px;font-style:normal;font-weight:normal;text-anchor:end;" transform="rotate(-0, 93.8, 123.3842)" x="93.8" y="123.3842">0.4</text>
     </g>
    </g>
    <g id="ytick_4">
     <g id="line2d_7">
      <g>
       <use style="fill:#262626;stroke:#262626;stroke-width:0.8;" x="100.8" xlink:href="#m1855f34a1e" y="61.114576"/>
      </g>
     </g>
     <g id="text_8">
      <text style="fill:#262626;font-family:DejaVu Sans;font-size:20px;font-style:normal;font-weight:normal;text-anchor:end;" transform="rotate(-0, 93.8, 68.713014)" x="93.8" y="68.713014">0.6</text>
     </g>
    </g>
    <g id="text_9">
     <text style="fill:#262626;font-family:DejaVu Sans;font-size:20px;font-style:normal;font-weight:normal;text-anchor:middle;" transform="rotate(-90, 53.834375, 126.72)" x="53.834375" y="126.72">mut freq</text>
    </g>
   </g>
   <g id="LineCollection_1">
    <path clip-path="url(#p0804eef3fc)" d="M 106.2 225.322438 
L 106.2 224.933833 
" style="fill:none;stroke:#4169e1;stroke-width:3;"/>
    <path clip-path="url(#p0804eef3fc)" d="M 117 225.062593 
L 117 224.572061 
" style="fill:none;stroke:#4169e1;stroke-width:3;"/>
    <path clip-path="url(#p0804eef3fc)" d="M 127.8 223.251907 
L 127.8 222.031431 
" style="fill:none;stroke:#4169e1;stroke-width:3;"/>
    <path clip-path="url(#p0804eef3fc)" d="M 138.6 225.322108 
L 138.6 224.934164 
" style="fill:none;stroke:#4169e1;stroke-width:3;"/>
    <path clip-path="url(#p0804eef3fc)" d="M 149.4 224.831087 
L 149.4 224.184067 
" style="fill:none;stroke:#4169e1;stroke-width:3;"/>
    <path clip-path="url(#p0804eef3fc)" d="M 160.2 223.798157 
L 160.2 222.734765 
" style="fill:none;stroke:#4169e1;stroke-width:3;"/>
    <path clip-path="url(#p0804eef3fc)" d="M 171 224.7088 
L 171 223.996076 
" style="fill:none;stroke:#4169e1;stroke-width:3;"/>
    <path clip-path="url(#p0804eef3fc)" d="M 181.8 225.062705 
L 181.8 224.573007 
" style="fill:none;stroke:#4169e1;stroke-width:3;"/>
    <path clip-path="url(#p0804eef3fc)" d="M 192.6 215.062719 
L 192.6 212.543174 
" style="fill:none;stroke:#4169e1;stroke-width:3;"/>
    <path clip-path="url(#p0804eef3fc)" d="M 203.4 213.737644 
L 203.4 211.075737 
" style="fill:none;stroke:#4169e1;stroke-width:3;"/>
    <path clip-path="url(#p0804eef3fc)" d="M 214.2 219.435603 
L 214.2 217.478664 
" style="fill:none;stroke:#4169e1;stroke-width:3;"/>
    <path clip-path="url(#p0804eef3fc)" d="M 225 225.062705 
L 225 224.573007 
" style="fill:none;stroke:#4169e1;stroke-width:3;"/>
    <path clip-path="url(#p0804eef3fc)" d="M 235.8 214.327146 
L 235.8 211.727352 
" style="fill:none;stroke:#4169e1;stroke-width:3;"/>
    <path clip-path="url(#p0804eef3fc)" d="M 246.6 225.322108 
L 246.6 224.934164 
" style="fill:none;stroke:#4169e1;stroke-width:3;"/>
    <path clip-path="url(#p0804eef3fc)" d="M 257.4 225.062705 
L 257.4 224.573007 
" style="fill:none;stroke:#4169e1;stroke-width:3;"/>
    <path clip-path="url(#p0804eef3fc)" d="M 268.2 222.702955 
L 268.2 221.347733 
" style="fill:none;stroke:#4169e1;stroke-width:3;"/>
    <path clip-path="url(#p0804eef3fc)" d="M 279 225.166968 
L 279 224.779024 
" style="fill:none;stroke:#4169e1;stroke-width:3;"/>
    <path clip-path="url(#p0804eef3fc)" d="M 289.8 216.236276 
L 289.8 213.851851 
" style="fill:none;stroke:#4169e1;stroke-width:3;"/>
    <path clip-path="url(#p0804eef3fc)" d="M 300.6 211.223325 
L 300.6 208.315311 
" style="fill:none;stroke:#4169e1;stroke-width:3;"/>
    <path clip-path="url(#p0804eef3fc)" d="M 311.4 225.166968 
L 311.4 224.779024 
" style="fill:none;stroke:#4169e1;stroke-width:3;"/>
    <path clip-path="url(#p0804eef3fc)" d="M 322.2 206.04231 
L 322.2 173.670495 
" style="fill:none;stroke:#4169e1;stroke-width:3;"/>
    <path clip-path="url(#p0804eef3fc)" d="M 333 211.166438 
L 333 160.988138 
" style="fill:none;stroke:#4169e1;stroke-width:3;"/>
    <path clip-path="url(#p0804eef3fc)" d="M 343.8 159.430517 
L 343.8 95.571517 
" style="fill:none;stroke:#4169e1;stroke-width:3;"/>
    <path clip-path="url(#p0804eef3fc)" d="M 354.6 245.765994 
L 354.6 204.490278 
" style="fill:none;stroke:#4169e1;stroke-width:3;"/>
    <path clip-path="url(#p0804eef3fc)" d="M 365.4 211.166438 
L 365.4 160.988138 
" style="fill:none;stroke:#4169e1;stroke-width:3;"/>
    <path clip-path="url(#p0804eef3fc)" d="M 376.2 140.766933 
L 376.2 75.184254 
" style="fill:none;stroke:#4169e1;stroke-width:3;"/>
    <path clip-path="url(#p0804eef3fc)" d="M 387 101.716085 
L 387 36.133406 
" style="fill:none;stroke:#4169e1;stroke-width:3;"/>
    <path clip-path="url(#p0804eef3fc)" d="M 397.8 81.328822 
L 397.8 17.469822 
" style="fill:none;stroke:#4169e1;stroke-width:3;"/>
    <path clip-path="url(#p0804eef3fc)" d="M 408.6 245.765994 
L 408.6 204.490278 
" style="fill:none;stroke:#4169e1;stroke-width:3;"/>
    <path clip-path="url(#p0804eef3fc)" d="M 419.4 245.765994 
L 419.4 204.490278 
" style="fill:none;stroke:#4169e1;stroke-width:3;"/>
    <path clip-path="url(#p0804eef3fc)" d="M 430.2 224.158529 
L 430.2 165.351979 
" style="fill:none;stroke:#4169e1;stroke-width:3;"/>
    <path clip-path="url(#p0804eef3fc)" d="M 441 143.334638 
L 441 63.938583 
" style="fill:none;stroke:#4169e1;stroke-width:3;"/>
    <path clip-path="url(#p0804eef3fc)" d="M 451.8 163.479831 
L 451.8 81.759491 
" style="fill:none;stroke:#4169e1;stroke-width:3;"/>
    <path clip-path="url(#p0804eef3fc)" d="M 462.6 130.278569 
L 462.6 46.62177 
" style="fill:none;stroke:#4169e1;stroke-width:3;"/>
    <path clip-path="url(#p0804eef3fc)" d="M 473.4 110.455384 
L 473.4 11.773769 
" style="fill:none;stroke:#4169e1;stroke-width:3;"/>
   </g>
   <g id="line2d_8">
    <path clip-path="url(#p0804eef3fc)" d="M 106.2 225.128136 
L 117 224.817327 
L 127.8 222.641669 
L 138.6 225.128136 
L 149.4 224.507577 
L 160.2 223.266461 
L 171 224.352438 
L 181.8 224.817856 
L 192.6 213.802947 
L 203.4 212.40669 
L 214.2 218.457134 
L 225 224.817856 
L 235.8 213.027249 
L 246.6 225.128136 
L 257.4 224.817856 
L 268.2 222.025344 
L 279 224.972996 
L 289.8 215.044063 
L 300.6 209.769318 
L 311.4 224.972996 
L 322.2 189.856402 
L 333 186.077288 
L 343.8 127.501017 
L 354.6 225.128136 
L 365.4 186.077288 
L 376.2 107.975593 
L 387 68.924746 
L 397.8 49.399322 
L 408.6 225.128136 
L 419.4 225.128136 
L 430.2 194.755254 
L 441 103.63661 
L 451.8 122.619661 
L 462.6 88.450169 
L 473.4 61.114576 
" style="fill:none;stroke:#4169e1;stroke-linecap:round;stroke-width:3;"/>
    <defs>
     <path d="M 0 3.25 
C 0.86191 3.25 1.688635 2.907559 2.298097 2.298097 
C 2.907559 1.688635 3.25 0.86191 3.25 0 
C 3.25 -0.86191 2.907559 -1.688635 2.298097 -2.298097 
C 1.688635 -2.907559 0.86191 -3.25 0 -3.25 
C -0.86191 -3.25 -1.688635 -2.907559 -2.298097 -2.298097 
C -2.907559 -1.688635 -3.25 -0.86191 -3.25 0 
C -3.25 0.86191 -2.907559 1.688635 -2.298097 2.298097 
C -1.688635 2.907559 -0.86191 3.25 0 3.25 
z
" id="m67db8d754e" style="stroke:#4169e1;"/>
    </defs>
    <g clip-path="url(#p0804eef3fc)">
     <use style="fill:#4169e1;stroke:#4169e1;" x="106.2" xlink:href="#m67db8d754e" y="225.128136"/>
     <use style="fill:#4169e1;stroke:#4169e1;" x="117" xlink:href="#m67db8d754e" y="224.817327"/>
     <use style="fill:#4169e1;stroke:#4169e1;" x="127.8" xlink:href="#m67db8d754e" y="222.641669"/>
     <use style="fill:#4169e1;stroke:#4169e1;" x="138.6" xlink:href="#m67db8d754e" y="225.128136"/>
     <use style="fill:#4169e1;stroke:#4169e1;" x="149.4" xlink:href="#m67db8d754e" y="224.507577"/>
     <use style="fill:#4169e1;stroke:#4169e1;" x="160.2" xlink:href="#m67db8d754e" y="223.266461"/>
     <use style="fill:#4169e1;stroke:#4169e1;" x="171" xlink:href="#m67db8d754e" y="224.352438"/>
     <use style="fill:#4169e1;stroke:#4169e1;" x="181.8" xlink:href="#m67db8d754e" y="224.817856"/>
     <use style="fill:#4169e1;stroke:#4169e1;" x="192.6" xlink:href="#m67db8d754e" y="213.802947"/>
     <use style="fill:#4169e1;stroke:#4169e1;" x="203.4" xlink:href="#m67db8d754e" y="212.40669"/>
     <use style="fill:#4169e1;stroke:#4169e1;" x="214.2" xlink:href="#m67db8d754e" y="218.457134"/>
     <use style="fill:#4169e1;stroke:#4169e1;" x="225" xlink:href="#m67db8d754e" y="224.817856"/>
     <use style="fill:#4169e1;stroke:#4169e1;" x="235.8" xlink:href="#m67db8d754e" y="213.027249"/>
     <use style="fill:#4169e1;stroke:#4169e1;" x="246.6" xlink:href="#m67db8d754e" y="225.128136"/>
     <use style="fill:#4169e1;stroke:#4169e1;" x="257.4" xlink:href="#m67db8d754e" y="224.817856"/>
     <use style="fill:#4169e1;stroke:#4169e1;" x="268.2" xlink:href="#m67db8d754e" y="222.025344"/>
     <use style="fill:#4169e1;stroke:#4169e1;" x="279" xlink:href="#m67db8d754e" y="224.972996"/>
     <use style="fill:#4169e1;stroke:#4169e1;" x="289.8" xlink:href="#m67db8d754e" y="215.044063"/>
     <use style="fill:#4169e1;stroke:#4169e1;" x="300.6" xlink:href="#m67db8d754e" y="209.769318"/>
     <use style="fill:#4169e1;stroke:#4169e1;" x="311.4" xlink:href="#m67db8d754e" y="224.972996"/>
     <use style="fill:#4169e1;stroke:#4169e1;" x="322.2" xlink:href="#m67db8d754e" y="189.856402"/>
     <use style="fill:#4169e1;stroke:#4169e1;" x="333" xlink:href="#m67db8d754e" y="186.077288"/>
     <use style="fill:#4169e1;stroke:#4169e1;" x="343.8" xlink:href="#m67db8d754e" y="127.501017"/>
     <use style="fill:#4169e1;stroke:#4169e1;" x="354.6" xlink:href="#m67db8d754e" y="225.128136"/>
     <use style="fill:#4169e1;stroke:#4169e1;" x="365.4" xlink:href="#m67db8d754e" y="186.077288"/>
     <use style="fill:#4169e1;stroke:#4169e1;" x="376.2" xlink:href="#m67db8d754e" y="107.975593"/>
     <use style="fill:#4169e1;stroke:#4169e1;" x="387" xlink:href="#m67db8d754e" y="68.924746"/>
     <use style="fill:#4169e1;stroke:#4169e1;" x="397.8" xlink:href="#m67db8d754e" y="49.399322"/>
     <use style="fill:#4169e1;stroke:#4169e1;" x="408.6" xlink:href="#m67db8d754e" y="225.128136"/>
     <use style="fill:#4169e1;stroke:#4169e1;" x="419.4" xlink:href="#m67db8d754e" y="225.128136"/>
     <use style="fill:#4169e1;stroke:#4169e1;" x="430.2" xlink:href="#m67db8d754e" y="194.755254"/>
     <use style="fill:#4169e1;stroke:#4169e1;" x="441" xlink:href="#m67db8d754e" y="103.63661"/>
     <use style="fill:#4169e1;stroke:#4169e1;" x="451.8" xlink:href="#m67db8d754e" y="122.619661"/>
     <use style="fill:#4169e1;stroke:#4169e1;" x="462.6" xlink:href="#m67db8d754e" y="88.450169"/>
     <use style="fill:#4169e1;stroke:#4169e1;" x="473.4" xlink:href="#m67db8d754e" y="61.114576"/>
    </g>
   </g>
   <g id="patch_3">
    <path d="M 100.8 230.4 
L 100.8 23.04 
" style="fill:none;stroke:#262626;stroke-linecap:square;stroke-linejoin:miter;stroke-width:0.8;"/>
   </g>
   <g id="patch_4">
    <path d="M 100.8 230.4 
L 478.8 230.4 
" style="fill:none;stroke:#262626;stroke-linecap:square;stroke-linejoin:miter;stroke-width:0.8;"/>
   </g>
   <g id="text_10">
    <text style="fill:#262626;font-family:DejaVu Sans;font-size:20px;font-style:normal;font-weight:bold;text-anchor:middle;" transform="rotate(-0, 289.8, 17.04)" x="289.8" y="17.04">IGHD3-16*01</text>
   </g>
  </g>
 </g>
 <defs>
  <clipPath id="p0804eef3fc">
   <rect height="207.36" width="378" x="100.8" y="23.04"/>
  </clipPath>
 </defs>
</svg>
