<?xml version="1.0" encoding="utf-8" standalone="no"?>
<!DOCTYPE svg PUBLIC "-//W3C//DTD SVG 1.1//EN"
  "http://www.w3.org/Graphics/SVG/1.1/DTD/svg11.dtd">
<!-- Created with matplotlib (http://matplotlib.org/) -->
<svg height="288pt" version="1.1" viewBox="0 0 504 288" width="504pt" xmlns="http://www.w3.org/2000/svg" xmlns:xlink="http://www.w3.org/1999/xlink">
 <defs>
  <style type="text/css">
*{stroke-linecap:butt;stroke-linejoin:round;}
  </style>
 </defs>
 <g id="figure_1">
  <g id="patch_1">
   <path d="M 0 288 
L 504 288 
L 504 0 
L 0 0 
z
" style="fill:#ffffff;"/>
  </g>
  <g id="axes_1">
   <g id="patch_2">
    <path d="M 100.8 230.4 
L 478.8 230.4 
L 478.8 23.04 
L 100.8 23.04 
z
" style="fill:#ffffff;"/>
   </g>
   <g id="matplotlib.axis_1">
    <g id="xtick_1">
     <g id="line2d_1">
      <defs>
       <path d="M 0 0 
L 0 3.5 
" id="m6472041813" style="stroke:#262626;stroke-width:0.8;"/>
      </defs>
      <g>
       <use style="fill:#262626;stroke:#262626;stroke-width:0.8;" x="195.3" xlink:href="#m6472041813" y="230.4"/>
      </g>
     </g>
     <g id="text_1">
      <text style="fill:#262626;font-family:DejaVu Sans;font-size:20px;font-style:normal;font-weight:normal;text-anchor:middle;" transform="rotate(-0, 195.3, 252.596875)" x="195.3" y="252.596875">10</text>
     </g>
    </g>
    <g id="xtick_2">
     <g id="line2d_2">
      <g>
       <use style="fill:#262626;stroke:#262626;stroke-width:0.8;" x="306.476471" xlink:href="#m6472041813" y="230.4"/>
      </g>
     </g>
     <g id="text_2">
      <text style="fill:#262626;font-family:DejaVu Sans;font-size:20px;font-style:normal;font-weight:normal;text-anchor:middle;" transform="rotate(-0, 306.476471, 252.596875)" x="306.476471" y="252.596875">20</text>
     </g>
    </g>
    <g id="xtick_3">
     <g id="line2d_3">
      <g>
       <use style="fill:#262626;stroke:#262626;stroke-width:0.8;" x="417.652941" xlink:href="#m6472041813" y="230.4"/>
      </g>
     </g>
     <g id="text_3">
      <text style="fill:#262626;font-family:DejaVu Sans;font-size:20px;font-style:normal;font-weight:normal;text-anchor:middle;" transform="rotate(-0, 417.652941, 252.596875)" x="417.652941" y="252.596875">30</text>
     </g>
    </g>
    <g id="text_4">
     <text style="fill:#262626;font-family:DejaVu Sans;font-size:20px;font-style:normal;font-weight:normal;text-anchor:middle;" transform="rotate(-0, 289.8, 275.953125)" x="289.8" y="275.953125">position</text>
    </g>
   </g>
   <g id="matplotlib.axis_2">
    <g id="ytick_1">
     <g id="line2d_4">
      <defs>
       <path d="M 0 0 
L -3.5 0 
" id="m317630948f" style="stroke:#262626;stroke-width:0.8;"/>
      </defs>
      <g>
       <use style="fill:#262626;stroke:#262626;stroke-width:0.8;" x="100.8" xlink:href="#m317630948f" y="225.128136"/>
      </g>
     </g>
     <g id="text_5">
      <text style="fill:#262626;font-family:DejaVu Sans;font-size:20px;font-style:normal;font-weight:normal;text-anchor:end;" transform="rotate(-0, 93.8, 232.726573)" x="93.8" y="232.726573">0.00</text>
     </g>
    </g>
    <g id="ytick_2">
     <g id="line2d_5">
      <g>
       <use style="fill:#262626;stroke:#262626;stroke-width:0.8;" x="100.8" xlink:href="#m317630948f" y="163.623051"/>
      </g>
     </g>
     <g id="text_6">
      <text style="fill:#262626;font-family:DejaVu Sans;font-size:20px;font-style:normal;font-weight:normal;text-anchor:end;" transform="rotate(-0, 93.8, 171.221488)" x="93.8" y="171.221488">0.05</text>
     </g>
    </g>
    <g id="ytick_3">
     <g id="line2d_6">
      <g>
       <use style="fill:#262626;stroke:#262626;stroke-width:0.8;" x="100.8" xlink:href="#m317630948f" y="102.117966"/>
      </g>
     </g>
     <g id="text_7">
      <text style="fill:#262626;font-family:DejaVu Sans;font-size:20px;font-style:normal;font-weight:normal;text-anchor:end;" transform="rotate(-0, 93.8, 109.716404)" x="93.8" y="109.716404">0.10</text>
     </g>
    </g>
    <g id="ytick_4">
     <g id="line2d_7">
      <g>
       <use style="fill:#262626;stroke:#262626;stroke-width:0.8;" x="100.8" xlink:href="#m317630948f" y="40.612881"/>
      </g>
     </g>
     <g id="text_8">
      <text style="fill:#262626;font-family:DejaVu Sans;font-size:20px;font-style:normal;font-weight:normal;text-anchor:end;" transform="rotate(-0, 93.8, 48.211319)" x="93.8" y="48.211319">0.15</text>
     </g>
    </g>
    <g id="text_9">
     <text style="fill:#262626;font-family:DejaVu Sans;font-size:20px;font-style:normal;font-weight:normal;text-anchor:middle;" transform="rotate(-90, 41.109375, 126.72)" x="41.109375" y="126.72">mut freq</text>
    </g>
   </g>
   <g id="LineCollection_1">
    <path clip-path="url(#pf855fabb3f)" d="M 106.358824 289 
L 106.358824 -1 
" style="fill:none;stroke:#4169e1;stroke-width:3;"/>
    <path clip-path="url(#pf855fabb3f)" d="M 117.476471 289 
L 117.476471 -1 
" style="fill:none;stroke:#4169e1;stroke-width:3;"/>
    <path clip-path="url(#pf855fabb3f)" d="M 128.594118 289 
L 128.594118 -1 
" style="fill:none;stroke:#4169e1;stroke-width:3;"/>
    <path clip-path="url(#pf855fabb3f)" d="M 139.711765 289 
L 139.711765 -1 
" style="fill:none;stroke:#4169e1;stroke-width:3;"/>
    <path clip-path="url(#pf855fabb3f)" d="M 150.829412 289 
L 150.829412 48.480153 
" style="fill:none;stroke:#4169e1;stroke-width:3;"/>
    <path clip-path="url(#pf855fabb3f)" d="M 161.947059 289 
L 161.947059 66.103946 
" style="fill:none;stroke:#4169e1;stroke-width:3;"/>
    <path clip-path="url(#pf855fabb3f)" d="M 173.064706 289 
L 173.064706 66.103946 
" style="fill:none;stroke:#4169e1;stroke-width:3;"/>
    <path clip-path="url(#pf855fabb3f)" d="M 184.182353 289 
L 184.182353 66.103946 
" style="fill:none;stroke:#4169e1;stroke-width:3;"/>
    <path clip-path="url(#pf855fabb3f)" d="M 195.3 289 
L 195.3 66.103946 
" style="fill:none;stroke:#4169e1;stroke-width:3;"/>
    <path clip-path="url(#pf855fabb3f)" d="M 206.417647 289 
L 206.417647 66.103946 
" style="fill:none;stroke:#4169e1;stroke-width:3;"/>
    <path clip-path="url(#pf855fabb3f)" d="M 217.535294 289 
L 217.535294 66.103946 
" style="fill:none;stroke:#4169e1;stroke-width:3;"/>
    <path clip-path="url(#pf855fabb3f)" d="M 228.652941 208.423512 
L 228.652941 -1 
" style="fill:none;stroke:#4169e1;stroke-width:3;"/>
    <path clip-path="url(#pf855fabb3f)" d="M 239.770588 289 
L 239.770588 66.103946 
" style="fill:none;stroke:#4169e1;stroke-width:3;"/>
    <path clip-path="url(#pf855fabb3f)" d="M 250.888235 289 
L 250.888235 66.103946 
" style="fill:none;stroke:#4169e1;stroke-width:3;"/>
    <path clip-path="url(#pf855fabb3f)" d="M 262.005882 289 
L 262.005882 66.103946 
" style="fill:none;stroke:#4169e1;stroke-width:3;"/>
    <path clip-path="url(#pf855fabb3f)" d="M 273.123529 289 
L 273.123529 66.103946 
" style="fill:none;stroke:#4169e1;stroke-width:3;"/>
    <path clip-path="url(#pf855fabb3f)" d="M 284.241176 208.423512 
L 284.241176 -1 
" style="fill:none;stroke:#4169e1;stroke-width:3;"/>
    <path clip-path="url(#pf855fabb3f)" d="M 295.358824 289 
L 295.358824 66.103946 
" style="fill:none;stroke:#4169e1;stroke-width:3;"/>
    <path clip-path="url(#pf855fabb3f)" d="M 306.476471 289 
L 306.476471 66.103946 
" style="fill:none;stroke:#4169e1;stroke-width:3;"/>
    <path clip-path="url(#pf855fabb3f)" d="M 317.594118 289 
L 317.594118 66.103946 
" style="fill:none;stroke:#4169e1;stroke-width:3;"/>
    <path clip-path="url(#pf855fabb3f)" d="M 328.711765 289 
L 328.711765 66.103946 
" style="fill:none;stroke:#4169e1;stroke-width:3;"/>
    <path clip-path="url(#pf855fabb3f)" d="M 339.829412 289 
L 339.829412 66.103946 
" style="fill:none;stroke:#4169e1;stroke-width:3;"/>
    <path clip-path="url(#pf855fabb3f)" d="M 350.947059 289 
L 350.947059 66.103946 
" style="fill:none;stroke:#4169e1;stroke-width:3;"/>
    <path clip-path="url(#pf855fabb3f)" d="M 362.064706 289 
L 362.064706 66.103946 
" style="fill:none;stroke:#4169e1;stroke-width:3;"/>
    <path clip-path="url(#pf855fabb3f)" d="M 373.182353 208.423512 
L 373.182353 -1 
" style="fill:none;stroke:#4169e1;stroke-width:3;"/>
    <path clip-path="url(#pf855fabb3f)" d="M 384.3 289 
L 384.3 66.103946 
" style="fill:none;stroke:#4169e1;stroke-width:3;"/>
    <path clip-path="url(#pf855fabb3f)" d="M 395.417647 289 
L 395.417647 66.103946 
" style="fill:none;stroke:#4169e1;stroke-width:3;"/>
    <path clip-path="url(#pf855fabb3f)" d="M 406.535294 289 
L 406.535294 66.103946 
" style="fill:none;stroke:#4169e1;stroke-width:3;"/>
    <path clip-path="url(#pf855fabb3f)" d="M 417.652941 289 
L 417.652941 66.103946 
" style="fill:none;stroke:#4169e1;stroke-width:3;"/>
    <path clip-path="url(#pf855fabb3f)" d="M 428.770588 289 
L 428.770588 66.103946 
" style="fill:none;stroke:#4169e1;stroke-width:3;"/>
    <path clip-path="url(#pf855fabb3f)" d="M 439.888235 289 
L 439.888235 66.103946 
" style="fill:none;stroke:#4169e1;stroke-width:3;"/>
    <path clip-path="url(#pf855fabb3f)" d="M 451.005882 289 
L 451.005882 48.480153 
" style="fill:none;stroke:#4169e1;stroke-width:3;"/>
    <path clip-path="url(#pf855fabb3f)" d="M 462.123529 289 
L 462.123529 -1 
" style="fill:none;stroke:#4169e1;stroke-width:3;"/>
    <path clip-path="url(#pf855fabb3f)" d="M 473.241176 289 
L 473.241176 -1 
" style="fill:none;stroke:#4169e1;stroke-width:3;"/>
   </g>
   <g id="line2d_8">
    <path clip-path="url(#pf855fabb3f)" d="M 106.358824 225.128136 
L 117.476471 225.128136 
L 128.594118 225.128136 
L 139.711765 225.128136 
L 150.829412 225.128136 
L 161.947059 225.128136 
L 173.064706 225.128136 
L 184.182353 225.128136 
L 195.3 225.128136 
L 206.417647 225.128136 
L 217.535294 225.128136 
L 228.652941 49.399322 
L 239.770588 225.128136 
L 250.888235 225.128136 
L 262.005882 225.128136 
L 273.123529 225.128136 
L 284.241176 49.399322 
L 295.358824 225.128136 
L 306.476471 225.128136 
L 317.594118 225.128136 
L 328.711765 225.128136 
L 339.829412 225.128136 
L 350.947059 225.128136 
L 362.064706 225.128136 
L 373.182353 49.399322 
L 384.3 225.128136 
L 395.417647 225.128136 
L 406.535294 225.128136 
L 417.652941 225.128136 
L 428.770588 225.128136 
L 439.888235 225.128136 
L 451.005882 225.128136 
L 462.123529 225.128136 
L 473.241176 225.128136 
" style="fill:none;stroke:#4169e1;stroke-linecap:round;stroke-width:3;"/>
    <defs>
     <path d="M 0 3.25 
C 0.86191 3.25 1.688635 2.907559 2.298097 2.298097 
C 2.907559 1.688635 3.25 0.86191 3.25 0 
C 3.25 -0.86191 2.907559 -1.688635 2.298097 -2.298097 
C 1.688635 -2.907559 0.86191 -3.25 0 -3.25 
C -0.86191 -3.25 -1.688635 -2.907559 -2.298097 -2.298097 
C -2.907559 -1.688635 -3.25 -0.86191 -3.25 0 
C -3.25 0.86191 -2.907559 1.688635 -2.298097 2.298097 
C -1.688635 2.907559 -0.86191 3.25 0 3.25 
z
" id="m900fb66538" style="stroke:#4169e1;"/>
    </defs>
    <g clip-path="url(#pf855fabb3f)">
     <use style="fill:#4169e1;stroke:#4169e1;" x="106.358824" xlink:href="#m900fb66538" y="225.128136"/>
     <use style="fill:#4169e1;stroke:#4169e1;" x="117.476471" xlink:href="#m900fb66538" y="225.128136"/>
     <use style="fill:#4169e1;stroke:#4169e1;" x="128.594118" xlink:href="#m900fb66538" y="225.128136"/>
     <use style="fill:#4169e1;stroke:#4169e1;" x="139.711765" xlink:href="#m900fb66538" y="225.128136"/>
     <use style="fill:#4169e1;stroke:#4169e1;" x="150.829412" xlink:href="#m900fb66538" y="225.128136"/>
     <use style="fill:#4169e1;stroke:#4169e1;" x="161.947059" xlink:href="#m900fb66538" y="225.128136"/>
     <use style="fill:#4169e1;stroke:#4169e1;" x="173.064706" xlink:href="#m900fb66538" y="225.128136"/>
     <use style="fill:#4169e1;stroke:#4169e1;" x="184.182353" xlink:href="#m900fb66538" y="225.128136"/>
     <use style="fill:#4169e1;stroke:#4169e1;" x="195.3" xlink:href="#m900fb66538" y="225.128136"/>
     <use style="fill:#4169e1;stroke:#4169e1;" x="206.417647" xlink:href="#m900fb66538" y="225.128136"/>
     <use style="fill:#4169e1;stroke:#4169e1;" x="217.535294" xlink:href="#m900fb66538" y="225.128136"/>
     <use style="fill:#4169e1;stroke:#4169e1;" x="228.652941" xlink:href="#m900fb66538" y="49.399322"/>
     <use style="fill:#4169e1;stroke:#4169e1;" x="239.770588" xlink:href="#m900fb66538" y="225.128136"/>
     <use style="fill:#4169e1;stroke:#4169e1;" x="250.888235" xlink:href="#m900fb66538" y="225.128136"/>
     <use style="fill:#4169e1;stroke:#4169e1;" x="262.005882" xlink:href="#m900fb66538" y="225.128136"/>
     <use style="fill:#4169e1;stroke:#4169e1;" x="273.123529" xlink:href="#m900fb66538" y="225.128136"/>
     <use style="fill:#4169e1;stroke:#4169e1;" x="284.241176" xlink:href="#m900fb66538" y="49.399322"/>
     <use style="fill:#4169e1;stroke:#4169e1;" x="295.358824" xlink:href="#m900fb66538" y="225.128136"/>
     <use style="fill:#4169e1;stroke:#4169e1;" x="306.476471" xlink:href="#m900fb66538" y="225.128136"/>
     <use style="fill:#4169e1;stroke:#4169e1;" x="317.594118" xlink:href="#m900fb66538" y="225.128136"/>
     <use style="fill:#4169e1;stroke:#4169e1;" x="328.711765" xlink:href="#m900fb66538" y="225.128136"/>
     <use style="fill:#4169e1;stroke:#4169e1;" x="339.829412" xlink:href="#m900fb66538" y="225.128136"/>
     <use style="fill:#4169e1;stroke:#4169e1;" x="350.947059" xlink:href="#m900fb66538" y="225.128136"/>
     <use style="fill:#4169e1;stroke:#4169e1;" x="362.064706" xlink:href="#m900fb66538" y="225.128136"/>
     <use style="fill:#4169e1;stroke:#4169e1;" x="373.182353" xlink:href="#m900fb66538" y="49.399322"/>
     <use style="fill:#4169e1;stroke:#4169e1;" x="384.3" xlink:href="#m900fb66538" y="225.128136"/>
     <use style="fill:#4169e1;stroke:#4169e1;" x="395.417647" xlink:href="#m900fb66538" y="225.128136"/>
     <use style="fill:#4169e1;stroke:#4169e1;" x="406.535294" xlink:href="#m900fb66538" y="225.128136"/>
     <use style="fill:#4169e1;stroke:#4169e1;" x="417.652941" xlink:href="#m900fb66538" y="225.128136"/>
     <use style="fill:#4169e1;stroke:#4169e1;" x="428.770588" xlink:href="#m900fb66538" y="225.128136"/>
     <use style="fill:#4169e1;stroke:#4169e1;" x="439.888235" xlink:href="#m900fb66538" y="225.128136"/>
     <use style="fill:#4169e1;stroke:#4169e1;" x="451.005882" xlink:href="#m900fb66538" y="225.128136"/>
     <use style="fill:#4169e1;stroke:#4169e1;" x="462.123529" xlink:href="#m900fb66538" y="225.128136"/>
     <use style="fill:#4169e1;stroke:#4169e1;" x="473.241176" xlink:href="#m900fb66538" y="225.128136"/>
    </g>
   </g>
   <g id="patch_3">
    <path d="M 100.8 230.4 
L 100.8 23.04 
" style="fill:none;stroke:#262626;stroke-linecap:square;stroke-linejoin:miter;stroke-width:0.8;"/>
   </g>
   <g id="patch_4">
    <path d="M 100.8 230.4 
L 478.8 230.4 
" style="fill:none;stroke:#262626;stroke-linecap:square;stroke-linejoin:miter;stroke-width:0.8;"/>
   </g>
   <g id="text_10">
    <text style="fill:#262626;font-family:DejaVu Sans;font-size:20px;font-style:normal;font-weight:bold;text-anchor:middle;" transform="rotate(-0, 289.8, 17.04)" x="289.8" y="17.04">IGHD3-16*02</text>
   </g>
  </g>
 </g>
 <defs>
  <clipPath id="pf855fabb3f">
   <rect height="207.36" width="378" x="100.8" y="23.04"/>
  </clipPath>
 </defs>
</svg>
