<?xml version="1.0" encoding="utf-8" standalone="no"?>
<!DOCTYPE svg PUBLIC "-//W3C//DTD SVG 1.1//EN"
  "http://www.w3.org/Graphics/SVG/1.1/DTD/svg11.dtd">
<!-- Created with matplotlib (http://matplotlib.org/) -->
<svg height="288pt" version="1.1" viewBox="0 0 504 288" width="504pt" xmlns="http://www.w3.org/2000/svg" xmlns:xlink="http://www.w3.org/1999/xlink">
 <defs>
  <style type="text/css">
*{stroke-linecap:butt;stroke-linejoin:round;}
  </style>
 </defs>
 <g id="figure_1">
  <g id="patch_1">
   <path d="M 0 288 
L 504 288 
L 504 0 
L 0 0 
z
" style="fill:#ffffff;"/>
  </g>
  <g id="axes_1">
   <g id="patch_2">
    <path d="M 100.8 230.4 
L 478.8 230.4 
L 478.8 23.04 
L 100.8 23.04 
z
" style="fill:#ffffff;"/>
   </g>
   <g id="matplotlib.axis_1">
    <g id="xtick_1">
     <g id="line2d_1">
      <defs>
       <path d="M 0 0 
L 0 3.5 
" id="m7b58f82636" style="stroke:#262626;stroke-width:0.8;"/>
      </defs>
      <g>
       <use style="fill:#262626;stroke:#262626;stroke-width:0.8;" x="106.896774" xlink:href="#m7b58f82636" y="230.4"/>
      </g>
     </g>
     <g id="text_1">
      <text style="fill:#262626;font-family:DejaVu Sans;font-size:20px;font-style:normal;font-weight:normal;text-anchor:middle;" transform="rotate(-0, 106.896774, 252.596875)" x="106.896774" y="252.596875">0</text>
     </g>
    </g>
    <g id="xtick_2">
     <g id="line2d_2">
      <g>
       <use style="fill:#262626;stroke:#262626;stroke-width:0.8;" x="228.832258" xlink:href="#m7b58f82636" y="230.4"/>
      </g>
     </g>
     <g id="text_2">
      <text style="fill:#262626;font-family:DejaVu Sans;font-size:20px;font-style:normal;font-weight:normal;text-anchor:middle;" transform="rotate(-0, 228.832258, 252.596875)" x="228.832258" y="252.596875">10</text>
     </g>
    </g>
    <g id="xtick_3">
     <g id="line2d_3">
      <g>
       <use style="fill:#262626;stroke:#262626;stroke-width:0.8;" x="350.767742" xlink:href="#m7b58f82636" y="230.4"/>
      </g>
     </g>
     <g id="text_3">
      <text style="fill:#262626;font-family:DejaVu Sans;font-size:20px;font-style:normal;font-weight:normal;text-anchor:middle;" transform="rotate(-0, 350.767742, 252.596875)" x="350.767742" y="252.596875">20</text>
     </g>
    </g>
    <g id="xtick_4">
     <g id="line2d_4">
      <g>
       <use style="fill:#262626;stroke:#262626;stroke-width:0.8;" x="472.703226" xlink:href="#m7b58f82636" y="230.4"/>
      </g>
     </g>
     <g id="text_4">
      <text style="fill:#262626;font-family:DejaVu Sans;font-size:20px;font-style:normal;font-weight:normal;text-anchor:middle;" transform="rotate(-0, 472.703226, 252.596875)" x="472.703226" y="252.596875">30</text>
     </g>
    </g>
    <g id="text_5">
     <text style="fill:#262626;font-family:DejaVu Sans;font-size:20px;font-style:normal;font-weight:normal;text-anchor:middle;" transform="rotate(-0, 289.8, 275.953125)" x="289.8" y="275.953125">position</text>
    </g>
   </g>
   <g id="matplotlib.axis_2">
    <g id="ytick_1">
     <g id="line2d_5">
      <defs>
       <path d="M 0 0 
L -3.5 0 
" id="m8d7bc6922e" style="stroke:#262626;stroke-width:0.8;"/>
      </defs>
      <g>
       <use style="fill:#262626;stroke:#262626;stroke-width:0.8;" x="100.8" xlink:href="#m8d7bc6922e" y="225.128136"/>
      </g>
     </g>
     <g id="text_6">
      <text style="fill:#262626;font-family:DejaVu Sans;font-size:20px;font-style:normal;font-weight:normal;text-anchor:end;" transform="rotate(-0, 93.8, 232.726573)" x="93.8" y="232.726573">0.00</text>
     </g>
    </g>
    <g id="ytick_2">
     <g id="line2d_6">
      <g>
       <use style="fill:#262626;stroke:#262626;stroke-width:0.8;" x="100.8" xlink:href="#m8d7bc6922e" y="172.409492"/>
      </g>
     </g>
     <g id="text_7">
      <text style="fill:#262626;font-family:DejaVu Sans;font-size:20px;font-style:normal;font-weight:normal;text-anchor:end;" transform="rotate(-0, 93.8, 180.007929)" x="93.8" y="180.007929">0.05</text>
     </g>
    </g>
    <g id="ytick_3">
     <g id="line2d_7">
      <g>
       <use style="fill:#262626;stroke:#262626;stroke-width:0.8;" x="100.8" xlink:href="#m8d7bc6922e" y="119.690847"/>
      </g>
     </g>
     <g id="text_8">
      <text style="fill:#262626;font-family:DejaVu Sans;font-size:20px;font-style:normal;font-weight:normal;text-anchor:end;" transform="rotate(-0, 93.8, 127.289285)" x="93.8" y="127.289285">0.10</text>
     </g>
    </g>
    <g id="ytick_4">
     <g id="line2d_8">
      <g>
       <use style="fill:#262626;stroke:#262626;stroke-width:0.8;" x="100.8" xlink:href="#m8d7bc6922e" y="66.972203"/>
      </g>
     </g>
     <g id="text_9">
      <text style="fill:#262626;font-family:DejaVu Sans;font-size:20px;font-style:normal;font-weight:normal;text-anchor:end;" transform="rotate(-0, 93.8, 74.570641)" x="93.8" y="74.570641">0.15</text>
     </g>
    </g>
    <g id="text_10">
     <text style="fill:#262626;font-family:DejaVu Sans;font-size:20px;font-style:normal;font-weight:normal;text-anchor:middle;" transform="rotate(-90, 41.109375, 126.72)" x="41.109375" y="126.72">mut freq</text>
    </g>
   </g>
   <g id="LineCollection_1">
    <path clip-path="url(#p089db2efb4)" d="M 106.896774 200.811879 
L 106.896774 -1 
" style="fill:none;stroke:#4169e1;stroke-width:3;"/>
    <path clip-path="url(#p089db2efb4)" d="M 119.090323 200.811879 
L 119.090323 -1 
" style="fill:none;stroke:#4169e1;stroke-width:3;"/>
    <path clip-path="url(#p089db2efb4)" d="M 131.283871 289 
L 131.283871 101.285344 
" style="fill:none;stroke:#4169e1;stroke-width:3;"/>
    <path clip-path="url(#p089db2efb4)" d="M 143.477419 289 
L 143.477419 101.285344 
" style="fill:none;stroke:#4169e1;stroke-width:3;"/>
    <path clip-path="url(#p089db2efb4)" d="M 155.670968 226.968683 
L 155.670968 207.190293 
" style="fill:none;stroke:#4169e1;stroke-width:3;"/>
    <path clip-path="url(#p089db2efb4)" d="M 167.864516 215.728734 
L 167.864516 187.316811 
" style="fill:none;stroke:#4169e1;stroke-width:3;"/>
    <path clip-path="url(#p089db2efb4)" d="M 180.058065 234.799993 
L 180.058065 215.456278 
" style="fill:none;stroke:#4169e1;stroke-width:3;"/>
    <path clip-path="url(#p089db2efb4)" d="M 192.251613 234.799993 
L 192.251613 215.456278 
" style="fill:none;stroke:#4169e1;stroke-width:3;"/>
    <path clip-path="url(#p089db2efb4)" d="M 204.445161 221.847483 
L 204.445161 199.32264 
" style="fill:none;stroke:#4169e1;stroke-width:3;"/>
    <path clip-path="url(#p089db2efb4)" d="M 216.63871 226.698751 
L 216.63871 210.039919 
" style="fill:none;stroke:#4169e1;stroke-width:3;"/>
    <path clip-path="url(#p089db2efb4)" d="M 228.832258 211.862324 
L 228.832258 184.323543 
" style="fill:none;stroke:#4169e1;stroke-width:3;"/>
    <path clip-path="url(#p089db2efb4)" d="M 241.025806 201.080457 
L 241.025806 168.586804 
" style="fill:none;stroke:#4169e1;stroke-width:3;"/>
    <path clip-path="url(#p089db2efb4)" d="M 253.219355 233.353759 
L 253.219355 216.902512 
" style="fill:none;stroke:#4169e1;stroke-width:3;"/>
    <path clip-path="url(#p089db2efb4)" d="M 265.412903 212.202567 
L 265.412903 185.33506 
" style="fill:none;stroke:#4169e1;stroke-width:3;"/>
    <path clip-path="url(#p089db2efb4)" d="M 277.606452 222.174632 
L 277.606452 201.722317 
" style="fill:none;stroke:#4169e1;stroke-width:3;"/>
    <path clip-path="url(#p089db2efb4)" d="M 289.8 226.662691 
L 289.8 210.413919 
" style="fill:none;stroke:#4169e1;stroke-width:3;"/>
    <path clip-path="url(#p089db2efb4)" d="M 301.993548 226.662691 
L 301.993548 210.413919 
" style="fill:none;stroke:#4169e1;stroke-width:3;"/>
    <path clip-path="url(#p089db2efb4)" d="M 314.187097 226.662691 
L 314.187097 210.413919 
" style="fill:none;stroke:#4169e1;stroke-width:3;"/>
    <path clip-path="url(#p089db2efb4)" d="M 326.380645 226.680513 
L 326.380645 210.229266 
" style="fill:none;stroke:#4169e1;stroke-width:3;"/>
    <path clip-path="url(#p089db2efb4)" d="M 338.574194 212.034654 
L 338.574194 184.835649 
" style="fill:none;stroke:#4169e1;stroke-width:3;"/>
    <path clip-path="url(#p089db2efb4)" d="M 350.767742 195.674344 
L 350.767742 161.156482 
" style="fill:none;stroke:#4169e1;stroke-width:3;"/>
    <path clip-path="url(#p089db2efb4)" d="M 362.96129 226.680513 
L 362.96129 210.229266 
" style="fill:none;stroke:#4169e1;stroke-width:3;"/>
    <path clip-path="url(#p089db2efb4)" d="M 375.154839 226.680513 
L 375.154839 210.229266 
" style="fill:none;stroke:#4169e1;stroke-width:3;"/>
    <path clip-path="url(#p089db2efb4)" d="M 387.348387 184.32028 
L 387.348387 145.817562 
" style="fill:none;stroke:#4169e1;stroke-width:3;"/>
    <path clip-path="url(#p089db2efb4)" d="M 399.541935 222.134816 
L 399.541935 201.428471 
" style="fill:none;stroke:#4169e1;stroke-width:3;"/>
    <path clip-path="url(#p089db2efb4)" d="M 411.735484 217.20407 
L 411.735484 193.012725 
" style="fill:none;stroke:#4169e1;stroke-width:3;"/>
    <path clip-path="url(#p089db2efb4)" d="M 423.929032 216.991158 
L 423.929032 192.18565 
" style="fill:none;stroke:#4169e1;stroke-width:3;"/>
    <path clip-path="url(#p089db2efb4)" d="M 436.122581 230.56451 
L 436.122581 149.400236 
" style="fill:none;stroke:#4169e1;stroke-width:3;"/>
    <path clip-path="url(#p089db2efb4)" d="M 448.316129 205.20885 
L 448.316129 104.464371 
" style="fill:none;stroke:#4169e1;stroke-width:3;"/>
    <path clip-path="url(#p089db2efb4)" d="M 460.509677 289 
L 460.509677 157.657632 
" style="fill:none;stroke:#4169e1;stroke-width:3;"/>
    <path clip-path="url(#p089db2efb4)" d="M 472.703226 289 
L 472.703226 55.141336 
" style="fill:none;stroke:#4169e1;stroke-width:3;"/>
   </g>
   <g id="line2d_9">
    <path clip-path="url(#p089db2efb4)" d="M 106.896774 49.399322 
L 119.090323 49.399322 
L 131.283871 225.128136 
L 143.477419 225.128136 
L 155.670968 217.079488 
L 167.864516 201.522773 
L 180.058065 225.128136 
L 192.251613 225.128136 
L 204.445161 210.585061 
L 216.63871 218.369335 
L 228.832258 198.092934 
L 241.025806 184.833631 
L 253.219355 225.128136 
L 265.412903 198.768814 
L 277.606452 211.948475 
L 289.8 218.538305 
L 301.993548 218.538305 
L 314.187097 218.538305 
L 326.380645 218.45489 
L 338.574194 198.435151 
L 350.767742 178.415413 
L 362.96129 218.45489 
L 375.154839 218.45489 
L 387.348387 165.068921 
L 399.541935 211.781643 
L 411.735484 205.108397 
L 423.929032 204.588404 
L 436.122581 189.982373 
L 448.316129 154.83661 
L 460.509677 225.128136 
L 472.703226 225.128136 
" style="fill:none;stroke:#4169e1;stroke-linecap:round;stroke-width:3;"/>
    <defs>
     <path d="M 0 3.25 
C 0.86191 3.25 1.688635 2.907559 2.298097 2.298097 
C 2.907559 1.688635 3.25 0.86191 3.25 0 
C 3.25 -0.86191 2.907559 -1.688635 2.298097 -2.298097 
C 1.688635 -2.907559 0.86191 -3.25 0 -3.25 
C -0.86191 -3.25 -1.688635 -2.907559 -2.298097 -2.298097 
C -2.907559 -1.688635 -3.25 -0.86191 -3.25 0 
C -3.25 0.86191 -2.907559 1.688635 -2.298097 2.298097 
C -1.688635 2.907559 -0.86191 3.25 0 3.25 
z
" id="m611ba0acd5" style="stroke:#4169e1;"/>
    </defs>
    <g clip-path="url(#p089db2efb4)">
     <use style="fill:#4169e1;stroke:#4169e1;" x="106.896774" xlink:href="#m611ba0acd5" y="49.399322"/>
     <use style="fill:#4169e1;stroke:#4169e1;" x="119.090323" xlink:href="#m611ba0acd5" y="49.399322"/>
     <use style="fill:#4169e1;stroke:#4169e1;" x="131.283871" xlink:href="#m611ba0acd5" y="225.128136"/>
     <use style="fill:#4169e1;stroke:#4169e1;" x="143.477419" xlink:href="#m611ba0acd5" y="225.128136"/>
     <use style="fill:#4169e1;stroke:#4169e1;" x="155.670968" xlink:href="#m611ba0acd5" y="217.079488"/>
     <use style="fill:#4169e1;stroke:#4169e1;" x="167.864516" xlink:href="#m611ba0acd5" y="201.522773"/>
     <use style="fill:#4169e1;stroke:#4169e1;" x="180.058065" xlink:href="#m611ba0acd5" y="225.128136"/>
     <use style="fill:#4169e1;stroke:#4169e1;" x="192.251613" xlink:href="#m611ba0acd5" y="225.128136"/>
     <use style="fill:#4169e1;stroke:#4169e1;" x="204.445161" xlink:href="#m611ba0acd5" y="210.585061"/>
     <use style="fill:#4169e1;stroke:#4169e1;" x="216.63871" xlink:href="#m611ba0acd5" y="218.369335"/>
     <use style="fill:#4169e1;stroke:#4169e1;" x="228.832258" xlink:href="#m611ba0acd5" y="198.092934"/>
     <use style="fill:#4169e1;stroke:#4169e1;" x="241.025806" xlink:href="#m611ba0acd5" y="184.833631"/>
     <use style="fill:#4169e1;stroke:#4169e1;" x="253.219355" xlink:href="#m611ba0acd5" y="225.128136"/>
     <use style="fill:#4169e1;stroke:#4169e1;" x="265.412903" xlink:href="#m611ba0acd5" y="198.768814"/>
     <use style="fill:#4169e1;stroke:#4169e1;" x="277.606452" xlink:href="#m611ba0acd5" y="211.948475"/>
     <use style="fill:#4169e1;stroke:#4169e1;" x="289.8" xlink:href="#m611ba0acd5" y="218.538305"/>
     <use style="fill:#4169e1;stroke:#4169e1;" x="301.993548" xlink:href="#m611ba0acd5" y="218.538305"/>
     <use style="fill:#4169e1;stroke:#4169e1;" x="314.187097" xlink:href="#m611ba0acd5" y="218.538305"/>
     <use style="fill:#4169e1;stroke:#4169e1;" x="326.380645" xlink:href="#m611ba0acd5" y="218.45489"/>
     <use style="fill:#4169e1;stroke:#4169e1;" x="338.574194" xlink:href="#m611ba0acd5" y="198.435151"/>
     <use style="fill:#4169e1;stroke:#4169e1;" x="350.767742" xlink:href="#m611ba0acd5" y="178.415413"/>
     <use style="fill:#4169e1;stroke:#4169e1;" x="362.96129" xlink:href="#m611ba0acd5" y="218.45489"/>
     <use style="fill:#4169e1;stroke:#4169e1;" x="375.154839" xlink:href="#m611ba0acd5" y="218.45489"/>
     <use style="fill:#4169e1;stroke:#4169e1;" x="387.348387" xlink:href="#m611ba0acd5" y="165.068921"/>
     <use style="fill:#4169e1;stroke:#4169e1;" x="399.541935" xlink:href="#m611ba0acd5" y="211.781643"/>
     <use style="fill:#4169e1;stroke:#4169e1;" x="411.735484" xlink:href="#m611ba0acd5" y="205.108397"/>
     <use style="fill:#4169e1;stroke:#4169e1;" x="423.929032" xlink:href="#m611ba0acd5" y="204.588404"/>
     <use style="fill:#4169e1;stroke:#4169e1;" x="436.122581" xlink:href="#m611ba0acd5" y="189.982373"/>
     <use style="fill:#4169e1;stroke:#4169e1;" x="448.316129" xlink:href="#m611ba0acd5" y="154.83661"/>
     <use style="fill:#4169e1;stroke:#4169e1;" x="460.509677" xlink:href="#m611ba0acd5" y="225.128136"/>
     <use style="fill:#4169e1;stroke:#4169e1;" x="472.703226" xlink:href="#m611ba0acd5" y="225.128136"/>
    </g>
   </g>
   <g id="patch_3">
    <path d="M 100.8 230.4 
L 100.8 23.04 
" style="fill:none;stroke:#262626;stroke-linecap:square;stroke-linejoin:miter;stroke-width:0.8;"/>
   </g>
   <g id="patch_4">
    <path d="M 100.8 230.4 
L 478.8 230.4 
" style="fill:none;stroke:#262626;stroke-linecap:square;stroke-linejoin:miter;stroke-width:0.8;"/>
   </g>
   <g id="text_11">
    <text style="fill:#262626;font-family:DejaVu Sans;font-size:20px;font-style:normal;font-weight:bold;text-anchor:middle;" transform="rotate(-0, 289.8, 17.04)" x="289.8" y="17.04">IGHD3-10*01</text>
   </g>
  </g>
 </g>
 <defs>
  <clipPath id="p089db2efb4">
   <rect height="207.36" width="378" x="100.8" y="23.04"/>
  </clipPath>
 </defs>
</svg>
