<?xml version="1.0" encoding="utf-8" standalone="no"?>
<!DOCTYPE svg PUBLIC "-//W3C//DTD SVG 1.1//EN"
  "http://www.w3.org/Graphics/SVG/1.1/DTD/svg11.dtd">
<!-- Created with matplotlib (http://matplotlib.org/) -->
<svg height="288pt" version="1.1" viewBox="0 0 504 288" width="504pt" xmlns="http://www.w3.org/2000/svg" xmlns:xlink="http://www.w3.org/1999/xlink">
 <defs>
  <style type="text/css">
*{stroke-linecap:butt;stroke-linejoin:round;}
  </style>
 </defs>
 <g id="figure_1">
  <g id="patch_1">
   <path d="M 0 288 
L 504 288 
L 504 0 
L 0 0 
z
" style="fill:#ffffff;"/>
  </g>
  <g id="axes_1">
   <g id="patch_2">
    <path d="M 100.8 230.4 
L 478.8 230.4 
L 478.8 23.04 
L 100.8 23.04 
z
" style="fill:#ffffff;"/>
   </g>
   <g id="matplotlib.axis_1">
    <g id="xtick_1">
     <g id="line2d_1">
      <defs>
       <path d="M 0 0 
L 0 3.5 
" id="m58de36c944" style="stroke:#262626;stroke-width:0.8;"/>
      </defs>
      <g>
       <use style="fill:#262626;stroke:#262626;stroke-width:0.8;" x="112.6125" xlink:href="#m58de36c944" y="230.4"/>
      </g>
     </g>
     <g id="text_1">
      <text style="fill:#262626;font-family:DejaVu Sans;font-size:20px;font-style:normal;font-weight:normal;text-anchor:middle;" transform="rotate(-0, 112.6125, 252.596875)" x="112.6125" y="252.596875">0</text>
     </g>
    </g>
    <g id="xtick_2">
     <g id="line2d_2">
      <g>
       <use style="fill:#262626;stroke:#262626;stroke-width:0.8;" x="230.7375" xlink:href="#m58de36c944" y="230.4"/>
      </g>
     </g>
     <g id="text_2">
      <text style="fill:#262626;font-family:DejaVu Sans;font-size:20px;font-style:normal;font-weight:normal;text-anchor:middle;" transform="rotate(-0, 230.7375, 252.596875)" x="230.7375" y="252.596875">5</text>
     </g>
    </g>
    <g id="xtick_3">
     <g id="line2d_3">
      <g>
       <use style="fill:#262626;stroke:#262626;stroke-width:0.8;" x="348.8625" xlink:href="#m58de36c944" y="230.4"/>
      </g>
     </g>
     <g id="text_3">
      <text style="fill:#262626;font-family:DejaVu Sans;font-size:20px;font-style:normal;font-weight:normal;text-anchor:middle;" transform="rotate(-0, 348.8625, 252.596875)" x="348.8625" y="252.596875">10</text>
     </g>
    </g>
    <g id="xtick_4">
     <g id="line2d_4">
      <g>
       <use style="fill:#262626;stroke:#262626;stroke-width:0.8;" x="466.9875" xlink:href="#m58de36c944" y="230.4"/>
      </g>
     </g>
     <g id="text_4">
      <text style="fill:#262626;font-family:DejaVu Sans;font-size:20px;font-style:normal;font-weight:normal;text-anchor:middle;" transform="rotate(-0, 466.9875, 252.596875)" x="466.9875" y="252.596875">15</text>
     </g>
    </g>
    <g id="text_5">
     <text style="fill:#262626;font-family:DejaVu Sans;font-size:20px;font-style:normal;font-weight:normal;text-anchor:middle;" transform="rotate(-0, 289.8, 275.953125)" x="289.8" y="275.953125">position</text>
    </g>
   </g>
   <g id="matplotlib.axis_2">
    <g id="ytick_1">
     <g id="line2d_5">
      <defs>
       <path d="M 0 0 
L -3.5 0 
" id="m8db4cc79d4" style="stroke:#262626;stroke-width:0.8;"/>
      </defs>
      <g>
       <use style="fill:#262626;stroke:#262626;stroke-width:0.8;" x="100.8" xlink:href="#m8db4cc79d4" y="225.128136"/>
      </g>
     </g>
     <g id="text_6">
      <text style="fill:#262626;font-family:DejaVu Sans;font-size:20px;font-style:normal;font-weight:normal;text-anchor:end;" transform="rotate(-0, 93.8, 232.726573)" x="93.8" y="232.726573">0.0</text>
     </g>
    </g>
    <g id="ytick_2">
     <g id="line2d_6">
      <g>
       <use style="fill:#262626;stroke:#262626;stroke-width:0.8;" x="100.8" xlink:href="#m8db4cc79d4" y="154.83661"/>
      </g>
     </g>
     <g id="text_7">
      <text style="fill:#262626;font-family:DejaVu Sans;font-size:20px;font-style:normal;font-weight:normal;text-anchor:end;" transform="rotate(-0, 93.8, 162.435048)" x="93.8" y="162.435048">0.2</text>
     </g>
    </g>
    <g id="ytick_3">
     <g id="line2d_7">
      <g>
       <use style="fill:#262626;stroke:#262626;stroke-width:0.8;" x="100.8" xlink:href="#m8db4cc79d4" y="84.545085"/>
      </g>
     </g>
     <g id="text_8">
      <text style="fill:#262626;font-family:DejaVu Sans;font-size:20px;font-style:normal;font-weight:normal;text-anchor:end;" transform="rotate(-0, 93.8, 92.143522)" x="93.8" y="92.143522">0.4</text>
     </g>
    </g>
    <g id="text_9">
     <text style="fill:#262626;font-family:DejaVu Sans;font-size:20px;font-style:normal;font-weight:normal;text-anchor:middle;" transform="rotate(-90, 53.834375, 126.72)" x="53.834375" y="126.72">mut freq</text>
    </g>
   </g>
   <g id="LineCollection_1">
    <path clip-path="url(#pef43fbeff5)" d="M 112.6125 275.598988 
L 112.6125 174.657283 
" style="fill:none;stroke:#4169e1;stroke-width:3;"/>
    <path clip-path="url(#pef43fbeff5)" d="M 136.2375 275.598988 
L 136.2375 174.657283 
" style="fill:none;stroke:#4169e1;stroke-width:3;"/>
    <path clip-path="url(#pef43fbeff5)" d="M 159.8625 109.507386 
L 159.8625 -1 
" style="fill:none;stroke:#4169e1;stroke-width:3;"/>
    <path clip-path="url(#pef43fbeff5)" d="M 183.4875 275.598988 
L 183.4875 174.657283 
" style="fill:none;stroke:#4169e1;stroke-width:3;"/>
    <path clip-path="url(#pef43fbeff5)" d="M 207.1125 217.022717 
L 207.1125 116.081012 
" style="fill:none;stroke:#4169e1;stroke-width:3;"/>
    <path clip-path="url(#pef43fbeff5)" d="M 230.7375 275.598988 
L 230.7375 174.657283 
" style="fill:none;stroke:#4169e1;stroke-width:3;"/>
    <path clip-path="url(#pef43fbeff5)" d="M 254.3625 275.598988 
L 254.3625 174.657283 
" style="fill:none;stroke:#4169e1;stroke-width:3;"/>
    <path clip-path="url(#pef43fbeff5)" d="M 277.9875 275.598988 
L 277.9875 174.657283 
" style="fill:none;stroke:#4169e1;stroke-width:3;"/>
    <path clip-path="url(#pef43fbeff5)" d="M 301.6125 275.598988 
L 301.6125 174.657283 
" style="fill:none;stroke:#4169e1;stroke-width:3;"/>
    <path clip-path="url(#pef43fbeff5)" d="M 325.2375 275.598988 
L 325.2375 174.657283 
" style="fill:none;stroke:#4169e1;stroke-width:3;"/>
    <path clip-path="url(#pef43fbeff5)" d="M 348.8625 275.598988 
L 348.8625 174.657283 
" style="fill:none;stroke:#4169e1;stroke-width:3;"/>
    <path clip-path="url(#pef43fbeff5)" d="M 372.4875 275.598988 
L 372.4875 174.657283 
" style="fill:none;stroke:#4169e1;stroke-width:3;"/>
    <path clip-path="url(#pef43fbeff5)" d="M 396.1125 217.022717 
L 396.1125 116.081012 
" style="fill:none;stroke:#4169e1;stroke-width:3;"/>
    <path clip-path="url(#pef43fbeff5)" d="M 419.7375 289 
L 419.7375 151.252076 
" style="fill:none;stroke:#4169e1;stroke-width:3;"/>
    <path clip-path="url(#pef43fbeff5)" d="M 443.3625 289 
L 443.3625 151.252076 
" style="fill:none;stroke:#4169e1;stroke-width:3;"/>
    <path clip-path="url(#pef43fbeff5)" d="M 466.9875 289 
L 466.9875 151.252076 
" style="fill:none;stroke:#4169e1;stroke-width:3;"/>
   </g>
   <g id="line2d_8">
    <path clip-path="url(#pef43fbeff5)" d="M 112.6125 225.128136 
L 136.2375 225.128136 
L 159.8625 49.399322 
L 183.4875 225.128136 
L 207.1125 166.551864 
L 230.7375 225.128136 
L 254.3625 225.128136 
L 277.9875 225.128136 
L 301.6125 225.128136 
L 325.2375 225.128136 
L 348.8625 225.128136 
L 372.4875 225.128136 
L 396.1125 166.551864 
L 419.7375 225.128136 
L 443.3625 225.128136 
L 466.9875 225.128136 
" style="fill:none;stroke:#4169e1;stroke-linecap:round;stroke-width:3;"/>
    <defs>
     <path d="M 0 3.25 
C 0.86191 3.25 1.688635 2.907559 2.298097 2.298097 
C 2.907559 1.688635 3.25 0.86191 3.25 0 
C 3.25 -0.86191 2.907559 -1.688635 2.298097 -2.298097 
C 1.688635 -2.907559 0.86191 -3.25 0 -3.25 
C -0.86191 -3.25 -1.688635 -2.907559 -2.298097 -2.298097 
C -2.907559 -1.688635 -3.25 -0.86191 -3.25 0 
C -3.25 0.86191 -2.907559 1.688635 -2.298097 2.298097 
C -1.688635 2.907559 -0.86191 3.25 0 3.25 
z
" id="mfc14af19b7" style="stroke:#4169e1;"/>
    </defs>
    <g clip-path="url(#pef43fbeff5)">
     <use style="fill:#4169e1;stroke:#4169e1;" x="112.6125" xlink:href="#mfc14af19b7" y="225.128136"/>
     <use style="fill:#4169e1;stroke:#4169e1;" x="136.2375" xlink:href="#mfc14af19b7" y="225.128136"/>
     <use style="fill:#4169e1;stroke:#4169e1;" x="159.8625" xlink:href="#mfc14af19b7" y="49.399322"/>
     <use style="fill:#4169e1;stroke:#4169e1;" x="183.4875" xlink:href="#mfc14af19b7" y="225.128136"/>
     <use style="fill:#4169e1;stroke:#4169e1;" x="207.1125" xlink:href="#mfc14af19b7" y="166.551864"/>
     <use style="fill:#4169e1;stroke:#4169e1;" x="230.7375" xlink:href="#mfc14af19b7" y="225.128136"/>
     <use style="fill:#4169e1;stroke:#4169e1;" x="254.3625" xlink:href="#mfc14af19b7" y="225.128136"/>
     <use style="fill:#4169e1;stroke:#4169e1;" x="277.9875" xlink:href="#mfc14af19b7" y="225.128136"/>
     <use style="fill:#4169e1;stroke:#4169e1;" x="301.6125" xlink:href="#mfc14af19b7" y="225.128136"/>
     <use style="fill:#4169e1;stroke:#4169e1;" x="325.2375" xlink:href="#mfc14af19b7" y="225.128136"/>
     <use style="fill:#4169e1;stroke:#4169e1;" x="348.8625" xlink:href="#mfc14af19b7" y="225.128136"/>
     <use style="fill:#4169e1;stroke:#4169e1;" x="372.4875" xlink:href="#mfc14af19b7" y="225.128136"/>
     <use style="fill:#4169e1;stroke:#4169e1;" x="396.1125" xlink:href="#mfc14af19b7" y="166.551864"/>
     <use style="fill:#4169e1;stroke:#4169e1;" x="419.7375" xlink:href="#mfc14af19b7" y="225.128136"/>
     <use style="fill:#4169e1;stroke:#4169e1;" x="443.3625" xlink:href="#mfc14af19b7" y="225.128136"/>
     <use style="fill:#4169e1;stroke:#4169e1;" x="466.9875" xlink:href="#mfc14af19b7" y="225.128136"/>
    </g>
   </g>
   <g id="patch_3">
    <path d="M 100.8 230.4 
L 100.8 23.04 
" style="fill:none;stroke:#262626;stroke-linecap:square;stroke-linejoin:miter;stroke-width:0.8;"/>
   </g>
   <g id="patch_4">
    <path d="M 100.8 230.4 
L 478.8 230.4 
" style="fill:none;stroke:#262626;stroke-linecap:square;stroke-linejoin:miter;stroke-width:0.8;"/>
   </g>
   <g id="text_10">
    <text style="fill:#262626;font-family:DejaVu Sans;font-size:20px;font-style:normal;font-weight:bold;text-anchor:middle;" transform="rotate(-0, 289.8, 17.04)" x="289.8" y="17.04">IGHD1-20*01</text>
   </g>
  </g>
 </g>
 <defs>
  <clipPath id="pef43fbeff5">
   <rect height="207.36" width="378" x="100.8" y="23.04"/>
  </clipPath>
 </defs>
</svg>
