<?xml version="1.0" encoding="utf-8" standalone="no"?>
<!DOCTYPE svg PUBLIC "-//W3C//DTD SVG 1.1//EN"
  "http://www.w3.org/Graphics/SVG/1.1/DTD/svg11.dtd">
<!-- Created with matplotlib (http://matplotlib.org/) -->
<svg height="288pt" version="1.1" viewBox="0 0 504 288" width="504pt" xmlns="http://www.w3.org/2000/svg" xmlns:xlink="http://www.w3.org/1999/xlink">
 <defs>
  <style type="text/css">
*{stroke-linecap:butt;stroke-linejoin:round;}
  </style>
 </defs>
 <g id="figure_1">
  <g id="patch_1">
   <path d="M 0 288 
L 504 288 
L 504 0 
L 0 0 
z
" style="fill:#ffffff;"/>
  </g>
  <g id="axes_1">
   <g id="patch_2">
    <path d="M 100.8 230.4 
L 478.8 230.4 
L 478.8 23.04 
L 100.8 23.04 
z
" style="fill:#ffffff;"/>
   </g>
   <g id="matplotlib.axis_1">
    <g id="xtick_1">
     <g id="line2d_1">
      <defs>
       <path d="M 0 0 
L 0 3.5 
" id="ma62961fff9" style="stroke:#262626;stroke-width:0.8;"/>
      </defs>
      <g>
       <use style="fill:#262626;stroke:#262626;stroke-width:0.8;" x="107.55" xlink:href="#ma62961fff9" y="230.4"/>
      </g>
     </g>
     <g id="text_1">
      <text style="fill:#262626;font-family:DejaVu Sans;font-size:20px;font-style:normal;font-weight:normal;text-anchor:middle;" transform="rotate(-0, 107.55, 252.596875)" x="107.55" y="252.596875">0</text>
     </g>
    </g>
    <g id="xtick_2">
     <g id="line2d_2">
      <g>
       <use style="fill:#262626;stroke:#262626;stroke-width:0.8;" x="175.05" xlink:href="#ma62961fff9" y="230.4"/>
      </g>
     </g>
     <g id="text_2">
      <text style="fill:#262626;font-family:DejaVu Sans;font-size:20px;font-style:normal;font-weight:normal;text-anchor:middle;" transform="rotate(-0, 175.05, 252.596875)" x="175.05" y="252.596875">5</text>
     </g>
    </g>
    <g id="xtick_3">
     <g id="line2d_3">
      <g>
       <use style="fill:#262626;stroke:#262626;stroke-width:0.8;" x="242.55" xlink:href="#ma62961fff9" y="230.4"/>
      </g>
     </g>
     <g id="text_3">
      <text style="fill:#262626;font-family:DejaVu Sans;font-size:20px;font-style:normal;font-weight:normal;text-anchor:middle;" transform="rotate(-0, 242.55, 252.596875)" x="242.55" y="252.596875">10</text>
     </g>
    </g>
    <g id="xtick_4">
     <g id="line2d_4">
      <g>
       <use style="fill:#262626;stroke:#262626;stroke-width:0.8;" x="310.05" xlink:href="#ma62961fff9" y="230.4"/>
      </g>
     </g>
     <g id="text_4">
      <text style="fill:#262626;font-family:DejaVu Sans;font-size:20px;font-style:normal;font-weight:normal;text-anchor:middle;" transform="rotate(-0, 310.05, 252.596875)" x="310.05" y="252.596875">15</text>
     </g>
    </g>
    <g id="xtick_5">
     <g id="line2d_5">
      <g>
       <use style="fill:#262626;stroke:#262626;stroke-width:0.8;" x="377.55" xlink:href="#ma62961fff9" y="230.4"/>
      </g>
     </g>
     <g id="text_5">
      <text style="fill:#262626;font-family:DejaVu Sans;font-size:20px;font-style:normal;font-weight:normal;text-anchor:middle;" transform="rotate(-0, 377.55, 252.596875)" x="377.55" y="252.596875">20</text>
     </g>
    </g>
    <g id="xtick_6">
     <g id="line2d_6">
      <g>
       <use style="fill:#262626;stroke:#262626;stroke-width:0.8;" x="445.05" xlink:href="#ma62961fff9" y="230.4"/>
      </g>
     </g>
     <g id="text_6">
      <text style="fill:#262626;font-family:DejaVu Sans;font-size:20px;font-style:normal;font-weight:normal;text-anchor:middle;" transform="rotate(-0, 445.05, 252.596875)" x="445.05" y="252.596875">25</text>
     </g>
    </g>
    <g id="text_7">
     <text style="fill:#262626;font-family:DejaVu Sans;font-size:20px;font-style:normal;font-weight:normal;text-anchor:middle;" transform="rotate(-0, 289.8, 275.953125)" x="289.8" y="275.953125">position</text>
    </g>
   </g>
   <g id="matplotlib.axis_2">
    <g id="ytick_1">
     <g id="line2d_7">
      <defs>
       <path d="M 0 0 
L -3.5 0 
" id="m01ad6cccc9" style="stroke:#262626;stroke-width:0.8;"/>
      </defs>
      <g>
       <use style="fill:#262626;stroke:#262626;stroke-width:0.8;" x="100.8" xlink:href="#m01ad6cccc9" y="225.128136"/>
      </g>
     </g>
     <g id="text_8">
      <text style="fill:#262626;font-family:DejaVu Sans;font-size:20px;font-style:normal;font-weight:normal;text-anchor:end;" transform="rotate(-0, 93.8, 232.726573)" x="93.8" y="232.726573">0.0</text>
     </g>
    </g>
    <g id="ytick_2">
     <g id="line2d_8">
      <g>
       <use style="fill:#262626;stroke:#262626;stroke-width:0.8;" x="100.8" xlink:href="#m01ad6cccc9" y="166.551864"/>
      </g>
     </g>
     <g id="text_9">
      <text style="fill:#262626;font-family:DejaVu Sans;font-size:20px;font-style:normal;font-weight:normal;text-anchor:end;" transform="rotate(-0, 93.8, 174.150302)" x="93.8" y="174.150302">0.2</text>
     </g>
    </g>
    <g id="ytick_3">
     <g id="line2d_9">
      <g>
       <use style="fill:#262626;stroke:#262626;stroke-width:0.8;" x="100.8" xlink:href="#m01ad6cccc9" y="107.975593"/>
      </g>
     </g>
     <g id="text_10">
      <text style="fill:#262626;font-family:DejaVu Sans;font-size:20px;font-style:normal;font-weight:normal;text-anchor:end;" transform="rotate(-0, 93.8, 115.574031)" x="93.8" y="115.574031">0.4</text>
     </g>
    </g>
    <g id="ytick_4">
     <g id="line2d_10">
      <g>
       <use style="fill:#262626;stroke:#262626;stroke-width:0.8;" x="100.8" xlink:href="#m01ad6cccc9" y="49.399322"/>
      </g>
     </g>
     <g id="text_11">
      <text style="fill:#262626;font-family:DejaVu Sans;font-size:20px;font-style:normal;font-weight:normal;text-anchor:end;" transform="rotate(-0, 93.8, 56.99776)" x="93.8" y="56.99776">0.6</text>
     </g>
    </g>
    <g id="text_12">
     <text style="fill:#262626;font-family:DejaVu Sans;font-size:20px;font-style:normal;font-weight:normal;text-anchor:middle;" transform="rotate(-90, 53.834375, 126.72)" x="53.834375" y="126.72">mut freq</text>
    </g>
   </g>
   <g id="LineCollection_1">
    <path clip-path="url(#p2c0a60396a)" d="M 107.55 289 
L 107.55 154.587372 
" style="fill:none;stroke:#4169e1;stroke-width:3;"/>
    <path clip-path="url(#p2c0a60396a)" d="M 121.05 136.473771 
L 121.05 20.901144 
" style="fill:none;stroke:#4169e1;stroke-width:3;"/>
    <path clip-path="url(#p2c0a60396a)" d="M 134.55 136.473771 
L 134.55 20.901144 
" style="fill:none;stroke:#4169e1;stroke-width:3;"/>
    <path clip-path="url(#p2c0a60396a)" d="M 148.05 160.840744 
L 148.05 55.110442 
" style="fill:none;stroke:#4169e1;stroke-width:3;"/>
    <path clip-path="url(#p2c0a60396a)" d="M 161.55 102.264473 
L 161.55 -1 
" style="fill:none;stroke:#4169e1;stroke-width:3;"/>
    <path clip-path="url(#p2c0a60396a)" d="M 175.05 102.264473 
L 175.05 -1 
" style="fill:none;stroke:#4169e1;stroke-width:3;"/>
    <path clip-path="url(#p2c0a60396a)" d="M 188.55 213.77042 
L 188.55 119.333309 
" style="fill:none;stroke:#4169e1;stroke-width:3;"/>
    <path clip-path="url(#p2c0a60396a)" d="M 202.05 160.840744 
L 202.05 55.110442 
" style="fill:none;stroke:#4169e1;stroke-width:3;"/>
    <path clip-path="url(#p2c0a60396a)" d="M 215.55 223.279985 
L 215.55 211.561478 
" style="fill:none;stroke:#4169e1;stroke-width:3;"/>
    <path clip-path="url(#p2c0a60396a)" d="M 229.05 225.945765 
L 229.05 216.603102 
" style="fill:none;stroke:#4169e1;stroke-width:3;"/>
    <path clip-path="url(#p2c0a60396a)" d="M 242.55 229.799467 
L 242.55 220.456804 
" style="fill:none;stroke:#4169e1;stroke-width:3;"/>
    <path clip-path="url(#p2c0a60396a)" d="M 256.05 229.799467 
L 256.05 220.456804 
" style="fill:none;stroke:#4169e1;stroke-width:3;"/>
    <path clip-path="url(#p2c0a60396a)" d="M 269.55 225.945765 
L 269.55 216.603102 
" style="fill:none;stroke:#4169e1;stroke-width:3;"/>
    <path clip-path="url(#p2c0a60396a)" d="M 283.05 229.859726 
L 283.05 220.396545 
" style="fill:none;stroke:#4169e1;stroke-width:3;"/>
    <path clip-path="url(#p2c0a60396a)" d="M 296.55 225.954641 
L 296.55 216.491461 
" style="fill:none;stroke:#4169e1;stroke-width:3;"/>
    <path clip-path="url(#p2c0a60396a)" d="M 310.05 200.722461 
L 310.05 179.242285 
" style="fill:none;stroke:#4169e1;stroke-width:3;"/>
    <path clip-path="url(#p2c0a60396a)" d="M 323.55 220.320863 
L 323.55 206.5049 
" style="fill:none;stroke:#4169e1;stroke-width:3;"/>
    <path clip-path="url(#p2c0a60396a)" d="M 337.05 223.252271 
L 337.05 211.383661 
" style="fill:none;stroke:#4169e1;stroke-width:3;"/>
    <path clip-path="url(#p2c0a60396a)" d="M 350.55 229.859726 
L 350.55 220.396545 
" style="fill:none;stroke:#4169e1;stroke-width:3;"/>
    <path clip-path="url(#p2c0a60396a)" d="M 364.05 229.859726 
L 364.05 220.396545 
" style="fill:none;stroke:#4169e1;stroke-width:3;"/>
    <path clip-path="url(#p2c0a60396a)" d="M 377.55 229.859726 
L 377.55 220.396545 
" style="fill:none;stroke:#4169e1;stroke-width:3;"/>
    <path clip-path="url(#p2c0a60396a)" d="M 391.05 229.859726 
L 391.05 220.396545 
" style="fill:none;stroke:#4169e1;stroke-width:3;"/>
    <path clip-path="url(#p2c0a60396a)" d="M 404.55 225.963703 
L 404.55 216.376856 
" style="fill:none;stroke:#4169e1;stroke-width:3;"/>
    <path clip-path="url(#p2c0a60396a)" d="M 418.05 229.921559 
L 418.05 220.334712 
" style="fill:none;stroke:#4169e1;stroke-width:3;"/>
    <path clip-path="url(#p2c0a60396a)" d="M 431.55 223.223727 
L 431.55 211.20112 
" style="fill:none;stroke:#4169e1;stroke-width:3;"/>
    <path clip-path="url(#p2c0a60396a)" d="M 445.05 225.963703 
L 445.05 216.376856 
" style="fill:none;stroke:#4169e1;stroke-width:3;"/>
    <path clip-path="url(#p2c0a60396a)" d="M 458.55 220.251518 
L 458.55 206.257616 
" style="fill:none;stroke:#4169e1;stroke-width:3;"/>
    <path clip-path="url(#p2c0a60396a)" d="M 472.05 289 
L 472.05 151.230854 
" style="fill:none;stroke:#4169e1;stroke-width:3;"/>
   </g>
   <g id="line2d_11">
    <path clip-path="url(#p2c0a60396a)" d="M 107.55 225.128136 
L 121.05 78.687458 
L 134.55 78.687458 
L 148.05 107.975593 
L 161.55 49.399322 
L 175.05 49.399322 
L 188.55 166.551864 
L 202.05 107.975593 
L 215.55 217.420731 
L 229.05 221.274434 
L 242.55 225.128136 
L 256.05 225.128136 
L 269.55 221.274434 
L 283.05 225.128136 
L 296.55 221.223051 
L 310.05 189.982373 
L 323.55 213.412881 
L 337.05 217.317966 
L 350.55 225.128136 
L 364.05 225.128136 
L 377.55 225.128136 
L 391.05 225.128136 
L 404.55 221.170279 
L 418.05 225.128136 
L 431.55 217.212423 
L 445.05 221.170279 
L 458.55 213.254567 
L 472.05 225.128136 
" style="fill:none;stroke:#4169e1;stroke-linecap:round;stroke-width:3;"/>
    <defs>
     <path d="M 0 3.25 
C 0.86191 3.25 1.688635 2.907559 2.298097 2.298097 
C 2.907559 1.688635 3.25 0.86191 3.25 0 
C 3.25 -0.86191 2.907559 -1.688635 2.298097 -2.298097 
C 1.688635 -2.907559 0.86191 -3.25 0 -3.25 
C -0.86191 -3.25 -1.688635 -2.907559 -2.298097 -2.298097 
C -2.907559 -1.688635 -3.25 -0.86191 -3.25 0 
C -3.25 0.86191 -2.907559 1.688635 -2.298097 2.298097 
C -1.688635 2.907559 -0.86191 3.25 0 3.25 
z
" id="med165664b8" style="stroke:#4169e1;"/>
    </defs>
    <g clip-path="url(#p2c0a60396a)">
     <use style="fill:#4169e1;stroke:#4169e1;" x="107.55" xlink:href="#med165664b8" y="225.128136"/>
     <use style="fill:#4169e1;stroke:#4169e1;" x="121.05" xlink:href="#med165664b8" y="78.687458"/>
     <use style="fill:#4169e1;stroke:#4169e1;" x="134.55" xlink:href="#med165664b8" y="78.687458"/>
     <use style="fill:#4169e1;stroke:#4169e1;" x="148.05" xlink:href="#med165664b8" y="107.975593"/>
     <use style="fill:#4169e1;stroke:#4169e1;" x="161.55" xlink:href="#med165664b8" y="49.399322"/>
     <use style="fill:#4169e1;stroke:#4169e1;" x="175.05" xlink:href="#med165664b8" y="49.399322"/>
     <use style="fill:#4169e1;stroke:#4169e1;" x="188.55" xlink:href="#med165664b8" y="166.551864"/>
     <use style="fill:#4169e1;stroke:#4169e1;" x="202.05" xlink:href="#med165664b8" y="107.975593"/>
     <use style="fill:#4169e1;stroke:#4169e1;" x="215.55" xlink:href="#med165664b8" y="217.420731"/>
     <use style="fill:#4169e1;stroke:#4169e1;" x="229.05" xlink:href="#med165664b8" y="221.274434"/>
     <use style="fill:#4169e1;stroke:#4169e1;" x="242.55" xlink:href="#med165664b8" y="225.128136"/>
     <use style="fill:#4169e1;stroke:#4169e1;" x="256.05" xlink:href="#med165664b8" y="225.128136"/>
     <use style="fill:#4169e1;stroke:#4169e1;" x="269.55" xlink:href="#med165664b8" y="221.274434"/>
     <use style="fill:#4169e1;stroke:#4169e1;" x="283.05" xlink:href="#med165664b8" y="225.128136"/>
     <use style="fill:#4169e1;stroke:#4169e1;" x="296.55" xlink:href="#med165664b8" y="221.223051"/>
     <use style="fill:#4169e1;stroke:#4169e1;" x="310.05" xlink:href="#med165664b8" y="189.982373"/>
     <use style="fill:#4169e1;stroke:#4169e1;" x="323.55" xlink:href="#med165664b8" y="213.412881"/>
     <use style="fill:#4169e1;stroke:#4169e1;" x="337.05" xlink:href="#med165664b8" y="217.317966"/>
     <use style="fill:#4169e1;stroke:#4169e1;" x="350.55" xlink:href="#med165664b8" y="225.128136"/>
     <use style="fill:#4169e1;stroke:#4169e1;" x="364.05" xlink:href="#med165664b8" y="225.128136"/>
     <use style="fill:#4169e1;stroke:#4169e1;" x="377.55" xlink:href="#med165664b8" y="225.128136"/>
     <use style="fill:#4169e1;stroke:#4169e1;" x="391.05" xlink:href="#med165664b8" y="225.128136"/>
     <use style="fill:#4169e1;stroke:#4169e1;" x="404.55" xlink:href="#med165664b8" y="221.170279"/>
     <use style="fill:#4169e1;stroke:#4169e1;" x="418.05" xlink:href="#med165664b8" y="225.128136"/>
     <use style="fill:#4169e1;stroke:#4169e1;" x="431.55" xlink:href="#med165664b8" y="217.212423"/>
     <use style="fill:#4169e1;stroke:#4169e1;" x="445.05" xlink:href="#med165664b8" y="221.170279"/>
     <use style="fill:#4169e1;stroke:#4169e1;" x="458.55" xlink:href="#med165664b8" y="213.254567"/>
     <use style="fill:#4169e1;stroke:#4169e1;" x="472.05" xlink:href="#med165664b8" y="225.128136"/>
    </g>
   </g>
   <g id="patch_3">
    <path d="M 100.8 230.4 
L 100.8 23.04 
" style="fill:none;stroke:#262626;stroke-linecap:square;stroke-linejoin:miter;stroke-width:0.8;"/>
   </g>
   <g id="patch_4">
    <path d="M 100.8 230.4 
L 478.8 230.4 
" style="fill:none;stroke:#262626;stroke-linecap:square;stroke-linejoin:miter;stroke-width:0.8;"/>
   </g>
   <g id="text_13">
    <text style="fill:#262626;font-family:DejaVu Sans;font-size:20px;font-style:normal;font-weight:bold;text-anchor:middle;" transform="rotate(-0, 289.8, 17.04)" x="289.8" y="17.04">IGHD2-21*02</text>
   </g>
  </g>
 </g>
 <defs>
  <clipPath id="p2c0a60396a">
   <rect height="207.36" width="378" x="100.8" y="23.04"/>
  </clipPath>
 </defs>
</svg>
