<?xml version="1.0" encoding="utf-8" standalone="no"?>
<!DOCTYPE svg PUBLIC "-//W3C//DTD SVG 1.1//EN"
  "http://www.w3.org/Graphics/SVG/1.1/DTD/svg11.dtd">
<!-- Created with matplotlib (http://matplotlib.org/) -->
<svg height="288pt" version="1.1" viewBox="0 0 504 288" width="504pt" xmlns="http://www.w3.org/2000/svg" xmlns:xlink="http://www.w3.org/1999/xlink">
 <defs>
  <style type="text/css">
*{stroke-linecap:butt;stroke-linejoin:round;}
  </style>
 </defs>
 <g id="figure_1">
  <g id="patch_1">
   <path d="M 0 288 
L 504 288 
L 504 0 
L 0 0 
z
" style="fill:#ffffff;"/>
  </g>
  <g id="axes_1">
   <g id="patch_2">
    <path d="M 100.8 230.4 
L 478.8 230.4 
L 478.8 23.04 
L 100.8 23.04 
z
" style="fill:#ffffff;"/>
   </g>
   <g id="matplotlib.axis_1">
    <g id="xtick_1">
     <g id="line2d_1">
      <defs>
       <path d="M 0 0 
L 0 3.5 
" id="m51339a6eec" style="stroke:#262626;stroke-width:0.8;"/>
      </defs>
      <g>
       <use style="fill:#262626;stroke:#262626;stroke-width:0.8;" x="107.1" xlink:href="#m51339a6eec" y="230.4"/>
      </g>
     </g>
     <g id="text_1">
      <text style="fill:#262626;font-family:DejaVu Sans;font-size:20px;font-style:normal;font-weight:normal;text-anchor:middle;" transform="rotate(-0, 107.1, 252.596875)" x="107.1" y="252.596875">0</text>
     </g>
    </g>
    <g id="xtick_2">
     <g id="line2d_2">
      <g>
       <use style="fill:#262626;stroke:#262626;stroke-width:0.8;" x="170.1" xlink:href="#m51339a6eec" y="230.4"/>
      </g>
     </g>
     <g id="text_2">
      <text style="fill:#262626;font-family:DejaVu Sans;font-size:20px;font-style:normal;font-weight:normal;text-anchor:middle;" transform="rotate(-0, 170.1, 252.596875)" x="170.1" y="252.596875">5</text>
     </g>
    </g>
    <g id="xtick_3">
     <g id="line2d_3">
      <g>
       <use style="fill:#262626;stroke:#262626;stroke-width:0.8;" x="233.1" xlink:href="#m51339a6eec" y="230.4"/>
      </g>
     </g>
     <g id="text_3">
      <text style="fill:#262626;font-family:DejaVu Sans;font-size:20px;font-style:normal;font-weight:normal;text-anchor:middle;" transform="rotate(-0, 233.1, 252.596875)" x="233.1" y="252.596875">10</text>
     </g>
    </g>
    <g id="xtick_4">
     <g id="line2d_4">
      <g>
       <use style="fill:#262626;stroke:#262626;stroke-width:0.8;" x="296.1" xlink:href="#m51339a6eec" y="230.4"/>
      </g>
     </g>
     <g id="text_4">
      <text style="fill:#262626;font-family:DejaVu Sans;font-size:20px;font-style:normal;font-weight:normal;text-anchor:middle;" transform="rotate(-0, 296.1, 252.596875)" x="296.1" y="252.596875">15</text>
     </g>
    </g>
    <g id="xtick_5">
     <g id="line2d_5">
      <g>
       <use style="fill:#262626;stroke:#262626;stroke-width:0.8;" x="359.1" xlink:href="#m51339a6eec" y="230.4"/>
      </g>
     </g>
     <g id="text_5">
      <text style="fill:#262626;font-family:DejaVu Sans;font-size:20px;font-style:normal;font-weight:normal;text-anchor:middle;" transform="rotate(-0, 359.1, 252.596875)" x="359.1" y="252.596875">20</text>
     </g>
    </g>
    <g id="xtick_6">
     <g id="line2d_6">
      <g>
       <use style="fill:#262626;stroke:#262626;stroke-width:0.8;" x="422.1" xlink:href="#m51339a6eec" y="230.4"/>
      </g>
     </g>
     <g id="text_6">
      <text style="fill:#262626;font-family:DejaVu Sans;font-size:20px;font-style:normal;font-weight:normal;text-anchor:middle;" transform="rotate(-0, 422.1, 252.596875)" x="422.1" y="252.596875">25</text>
     </g>
    </g>
    <g id="text_7">
     <text style="fill:#262626;font-family:DejaVu Sans;font-size:20px;font-style:normal;font-weight:normal;text-anchor:middle;" transform="rotate(-0, 289.8, 275.953125)" x="289.8" y="275.953125">position</text>
    </g>
   </g>
   <g id="matplotlib.axis_2">
    <g id="ytick_1">
     <g id="line2d_7">
      <defs>
       <path d="M 0 0 
L -3.5 0 
" id="m326b610a34" style="stroke:#262626;stroke-width:0.8;"/>
      </defs>
      <g>
       <use style="fill:#262626;stroke:#262626;stroke-width:0.8;" x="100.8" xlink:href="#m326b610a34" y="225.128136"/>
      </g>
     </g>
     <g id="text_8">
      <text style="fill:#262626;font-family:DejaVu Sans;font-size:20px;font-style:normal;font-weight:normal;text-anchor:end;" transform="rotate(-0, 93.8, 232.726573)" x="93.8" y="232.726573">0.0</text>
     </g>
    </g>
    <g id="ytick_2">
     <g id="line2d_8">
      <g>
       <use style="fill:#262626;stroke:#262626;stroke-width:0.8;" x="100.8" xlink:href="#m326b610a34" y="175.924068"/>
      </g>
     </g>
     <g id="text_9">
      <text style="fill:#262626;font-family:DejaVu Sans;font-size:20px;font-style:normal;font-weight:normal;text-anchor:end;" transform="rotate(-0, 93.8, 183.522505)" x="93.8" y="183.522505">0.1</text>
     </g>
    </g>
    <g id="ytick_3">
     <g id="line2d_9">
      <g>
       <use style="fill:#262626;stroke:#262626;stroke-width:0.8;" x="100.8" xlink:href="#m326b610a34" y="126.72"/>
      </g>
     </g>
     <g id="text_10">
      <text style="fill:#262626;font-family:DejaVu Sans;font-size:20px;font-style:normal;font-weight:normal;text-anchor:end;" transform="rotate(-0, 93.8, 134.318437)" x="93.8" y="134.318437">0.2</text>
     </g>
    </g>
    <g id="ytick_4">
     <g id="line2d_10">
      <g>
       <use style="fill:#262626;stroke:#262626;stroke-width:0.8;" x="100.8" xlink:href="#m326b610a34" y="77.515932"/>
      </g>
     </g>
     <g id="text_11">
      <text style="fill:#262626;font-family:DejaVu Sans;font-size:20px;font-style:normal;font-weight:normal;text-anchor:end;" transform="rotate(-0, 93.8, 85.11437)" x="93.8" y="85.11437">0.3</text>
     </g>
    </g>
    <g id="ytick_5">
     <g id="line2d_11">
      <g>
       <use style="fill:#262626;stroke:#262626;stroke-width:0.8;" x="100.8" xlink:href="#m326b610a34" y="28.311864"/>
      </g>
     </g>
     <g id="text_12">
      <text style="fill:#262626;font-family:DejaVu Sans;font-size:20px;font-style:normal;font-weight:normal;text-anchor:end;" transform="rotate(-0, 93.8, 35.910302)" x="93.8" y="35.910302">0.4</text>
     </g>
    </g>
    <g id="text_13">
     <text style="fill:#262626;font-family:DejaVu Sans;font-size:20px;font-style:normal;font-weight:normal;text-anchor:middle;" transform="rotate(-90, 53.834375, 126.72)" x="53.834375" y="126.72">mut freq</text>
    </g>
   </g>
   <g id="LineCollection_1">
    <path clip-path="url(#p7ffec25468)" d="M 107.1 289 
L 107.1 106.619654 
" style="fill:none;stroke:#4169e1;stroke-width:3;"/>
    <path clip-path="url(#p7ffec25468)" d="M 119.7 289 
L 119.7 106.619654 
" style="fill:none;stroke:#4169e1;stroke-width:3;"/>
    <path clip-path="url(#p7ffec25468)" d="M 132.3 289 
L 132.3 106.619654 
" style="fill:none;stroke:#4169e1;stroke-width:3;"/>
    <path clip-path="url(#p7ffec25468)" d="M 144.9 289 
L 144.9 121.701652 
" style="fill:none;stroke:#4169e1;stroke-width:3;"/>
    <path clip-path="url(#p7ffec25468)" d="M 157.5 227.130517 
L 157.5 152.834228 
" style="fill:none;stroke:#4169e1;stroke-width:3;"/>
    <path clip-path="url(#p7ffec25468)" d="M 170.1 227.130517 
L 170.1 152.834228 
" style="fill:none;stroke:#4169e1;stroke-width:3;"/>
    <path clip-path="url(#p7ffec25468)" d="M 182.7 262.27628 
L 182.7 187.979991 
" style="fill:none;stroke:#4169e1;stroke-width:3;"/>
    <path clip-path="url(#p7ffec25468)" d="M 195.3 262.27628 
L 195.3 187.979991 
" style="fill:none;stroke:#4169e1;stroke-width:3;"/>
    <path clip-path="url(#p7ffec25468)" d="M 207.9 227.130517 
L 207.9 152.834228 
" style="fill:none;stroke:#4169e1;stroke-width:3;"/>
    <path clip-path="url(#p7ffec25468)" d="M 220.5 262.27628 
L 220.5 187.979991 
" style="fill:none;stroke:#4169e1;stroke-width:3;"/>
    <path clip-path="url(#p7ffec25468)" d="M 233.1 227.130517 
L 233.1 152.834228 
" style="fill:none;stroke:#4169e1;stroke-width:3;"/>
    <path clip-path="url(#p7ffec25468)" d="M 245.7 262.27628 
L 245.7 187.979991 
" style="fill:none;stroke:#4169e1;stroke-width:3;"/>
    <path clip-path="url(#p7ffec25468)" d="M 258.3 262.27628 
L 258.3 187.979991 
" style="fill:none;stroke:#4169e1;stroke-width:3;"/>
    <path clip-path="url(#p7ffec25468)" d="M 270.9 262.27628 
L 270.9 187.979991 
" style="fill:none;stroke:#4169e1;stroke-width:3;"/>
    <path clip-path="url(#p7ffec25468)" d="M 283.5 262.27628 
L 283.5 187.979991 
" style="fill:none;stroke:#4169e1;stroke-width:3;"/>
    <path clip-path="url(#p7ffec25468)" d="M 296.1 106.872421 
L 296.1 -1 
" style="fill:none;stroke:#4169e1;stroke-width:3;"/>
    <path clip-path="url(#p7ffec25468)" d="M 308.7 262.27628 
L 308.7 187.979991 
" style="fill:none;stroke:#4169e1;stroke-width:3;"/>
    <path clip-path="url(#p7ffec25468)" d="M 321.3 227.130517 
L 321.3 152.834228 
" style="fill:none;stroke:#4169e1;stroke-width:3;"/>
    <path clip-path="url(#p7ffec25468)" d="M 333.9 262.27628 
L 333.9 187.979991 
" style="fill:none;stroke:#4169e1;stroke-width:3;"/>
    <path clip-path="url(#p7ffec25468)" d="M 346.5 262.27628 
L 346.5 187.979991 
" style="fill:none;stroke:#4169e1;stroke-width:3;"/>
    <path clip-path="url(#p7ffec25468)" d="M 359.1 197.314323 
L 359.1 101.544817 
" style="fill:none;stroke:#4169e1;stroke-width:3;"/>
    <path clip-path="url(#p7ffec25468)" d="M 371.7 264.640308 
L 371.7 185.615963 
" style="fill:none;stroke:#4169e1;stroke-width:3;"/>
    <path clip-path="url(#p7ffec25468)" d="M 384.3 270.388554 
L 384.3 179.867717 
" style="fill:none;stroke:#4169e1;stroke-width:3;"/>
    <path clip-path="url(#p7ffec25468)" d="M 396.9 270.388554 
L 396.9 179.867717 
" style="fill:none;stroke:#4169e1;stroke-width:3;"/>
    <path clip-path="url(#p7ffec25468)" d="M 409.5 225.657584 
L 409.5 135.136746 
" style="fill:none;stroke:#4169e1;stroke-width:3;"/>
    <path clip-path="url(#p7ffec25468)" d="M 422.1 270.388554 
L 422.1 179.867717 
" style="fill:none;stroke:#4169e1;stroke-width:3;"/>
    <path clip-path="url(#p7ffec25468)" d="M 434.7 270.388554 
L 434.7 179.867717 
" style="fill:none;stroke:#4169e1;stroke-width:3;"/>
    <path clip-path="url(#p7ffec25468)" d="M 447.3 225.657584 
L 447.3 135.136746 
" style="fill:none;stroke:#4169e1;stroke-width:3;"/>
    <path clip-path="url(#p7ffec25468)" d="M 459.9 273.927595 
L 459.9 176.328676 
" style="fill:none;stroke:#4169e1;stroke-width:3;"/>
    <path clip-path="url(#p7ffec25468)" d="M 472.5 289 
L 472.5 106.619654 
" style="fill:none;stroke:#4169e1;stroke-width:3;"/>
   </g>
   <g id="line2d_12">
    <path clip-path="url(#p7ffec25468)" d="M 107.1 225.128136 
L 119.7 225.128136 
L 132.3 225.128136 
L 144.9 225.128136 
L 157.5 189.982373 
L 170.1 189.982373 
L 182.7 225.128136 
L 195.3 225.128136 
L 207.9 189.982373 
L 220.5 225.128136 
L 233.1 189.982373 
L 245.7 225.128136 
L 258.3 225.128136 
L 270.9 225.128136 
L 283.5 225.128136 
L 296.1 49.399322 
L 308.7 225.128136 
L 321.3 189.982373 
L 333.9 225.128136 
L 346.5 225.128136 
L 359.1 149.42957 
L 371.7 225.128136 
L 384.3 225.128136 
L 396.9 225.128136 
L 409.5 180.397165 
L 422.1 225.128136 
L 434.7 225.128136 
L 447.3 180.397165 
L 459.9 225.128136 
L 472.5 225.128136 
" style="fill:none;stroke:#4169e1;stroke-linecap:round;stroke-width:3;"/>
    <defs>
     <path d="M 0 3.25 
C 0.86191 3.25 1.688635 2.907559 2.298097 2.298097 
C 2.907559 1.688635 3.25 0.86191 3.25 0 
C 3.25 -0.86191 2.907559 -1.688635 2.298097 -2.298097 
C 1.688635 -2.907559 0.86191 -3.25 0 -3.25 
C -0.86191 -3.25 -1.688635 -2.907559 -2.298097 -2.298097 
C -2.907559 -1.688635 -3.25 -0.86191 -3.25 0 
C -3.25 0.86191 -2.907559 1.688635 -2.298097 2.298097 
C -1.688635 2.907559 -0.86191 3.25 0 3.25 
z
" id="mc4648ecc9c" style="stroke:#4169e1;"/>
    </defs>
    <g clip-path="url(#p7ffec25468)">
     <use style="fill:#4169e1;stroke:#4169e1;" x="107.1" xlink:href="#mc4648ecc9c" y="225.128136"/>
     <use style="fill:#4169e1;stroke:#4169e1;" x="119.7" xlink:href="#mc4648ecc9c" y="225.128136"/>
     <use style="fill:#4169e1;stroke:#4169e1;" x="132.3" xlink:href="#mc4648ecc9c" y="225.128136"/>
     <use style="fill:#4169e1;stroke:#4169e1;" x="144.9" xlink:href="#mc4648ecc9c" y="225.128136"/>
     <use style="fill:#4169e1;stroke:#4169e1;" x="157.5" xlink:href="#mc4648ecc9c" y="189.982373"/>
     <use style="fill:#4169e1;stroke:#4169e1;" x="170.1" xlink:href="#mc4648ecc9c" y="189.982373"/>
     <use style="fill:#4169e1;stroke:#4169e1;" x="182.7" xlink:href="#mc4648ecc9c" y="225.128136"/>
     <use style="fill:#4169e1;stroke:#4169e1;" x="195.3" xlink:href="#mc4648ecc9c" y="225.128136"/>
     <use style="fill:#4169e1;stroke:#4169e1;" x="207.9" xlink:href="#mc4648ecc9c" y="189.982373"/>
     <use style="fill:#4169e1;stroke:#4169e1;" x="220.5" xlink:href="#mc4648ecc9c" y="225.128136"/>
     <use style="fill:#4169e1;stroke:#4169e1;" x="233.1" xlink:href="#mc4648ecc9c" y="189.982373"/>
     <use style="fill:#4169e1;stroke:#4169e1;" x="245.7" xlink:href="#mc4648ecc9c" y="225.128136"/>
     <use style="fill:#4169e1;stroke:#4169e1;" x="258.3" xlink:href="#mc4648ecc9c" y="225.128136"/>
     <use style="fill:#4169e1;stroke:#4169e1;" x="270.9" xlink:href="#mc4648ecc9c" y="225.128136"/>
     <use style="fill:#4169e1;stroke:#4169e1;" x="283.5" xlink:href="#mc4648ecc9c" y="225.128136"/>
     <use style="fill:#4169e1;stroke:#4169e1;" x="296.1" xlink:href="#mc4648ecc9c" y="49.399322"/>
     <use style="fill:#4169e1;stroke:#4169e1;" x="308.7" xlink:href="#mc4648ecc9c" y="225.128136"/>
     <use style="fill:#4169e1;stroke:#4169e1;" x="321.3" xlink:href="#mc4648ecc9c" y="189.982373"/>
     <use style="fill:#4169e1;stroke:#4169e1;" x="333.9" xlink:href="#mc4648ecc9c" y="225.128136"/>
     <use style="fill:#4169e1;stroke:#4169e1;" x="346.5" xlink:href="#mc4648ecc9c" y="225.128136"/>
     <use style="fill:#4169e1;stroke:#4169e1;" x="359.1" xlink:href="#mc4648ecc9c" y="149.42957"/>
     <use style="fill:#4169e1;stroke:#4169e1;" x="371.7" xlink:href="#mc4648ecc9c" y="225.128136"/>
     <use style="fill:#4169e1;stroke:#4169e1;" x="384.3" xlink:href="#mc4648ecc9c" y="225.128136"/>
     <use style="fill:#4169e1;stroke:#4169e1;" x="396.9" xlink:href="#mc4648ecc9c" y="225.128136"/>
     <use style="fill:#4169e1;stroke:#4169e1;" x="409.5" xlink:href="#mc4648ecc9c" y="180.397165"/>
     <use style="fill:#4169e1;stroke:#4169e1;" x="422.1" xlink:href="#mc4648ecc9c" y="225.128136"/>
     <use style="fill:#4169e1;stroke:#4169e1;" x="434.7" xlink:href="#mc4648ecc9c" y="225.128136"/>
     <use style="fill:#4169e1;stroke:#4169e1;" x="447.3" xlink:href="#mc4648ecc9c" y="180.397165"/>
     <use style="fill:#4169e1;stroke:#4169e1;" x="459.9" xlink:href="#mc4648ecc9c" y="225.128136"/>
     <use style="fill:#4169e1;stroke:#4169e1;" x="472.5" xlink:href="#mc4648ecc9c" y="225.128136"/>
    </g>
   </g>
   <g id="patch_3">
    <path d="M 100.8 230.4 
L 100.8 23.04 
" style="fill:none;stroke:#262626;stroke-linecap:square;stroke-linejoin:miter;stroke-width:0.8;"/>
   </g>
   <g id="patch_4">
    <path d="M 100.8 230.4 
L 478.8 230.4 
" style="fill:none;stroke:#262626;stroke-linecap:square;stroke-linejoin:miter;stroke-width:0.8;"/>
   </g>
   <g id="text_14">
    <text style="fill:#262626;font-family:DejaVu Sans;font-size:20px;font-style:normal;font-weight:bold;text-anchor:middle;" transform="rotate(-0, 289.8, 17.04)" x="289.8" y="17.04">IGHD3-10*02</text>
   </g>
  </g>
 </g>
 <defs>
  <clipPath id="p7ffec25468">
   <rect height="207.36" width="378" x="100.8" y="23.04"/>
  </clipPath>
 </defs>
</svg>
