<?xml version="1.0" encoding="utf-8" standalone="no"?>
<!DOCTYPE svg PUBLIC "-//W3C//DTD SVG 1.1//EN"
  "http://www.w3.org/Graphics/SVG/1.1/DTD/svg11.dtd">
<!-- Created with matplotlib (http://matplotlib.org/) -->
<svg height="345.6pt" version="1.1" viewBox="0 0 460.8 345.6" width="460.8pt" xmlns="http://www.w3.org/2000/svg" xmlns:xlink="http://www.w3.org/1999/xlink">
 <defs>
  <style type="text/css">
*{stroke-linecap:butt;stroke-linejoin:round;}
  </style>
 </defs>
 <g id="figure_1">
  <g id="patch_1">
   <path d="M 0 345.6 
L 460.8 345.6 
L 460.8 0 
L 0 0 
z
" style="fill:#ffffff;"/>
  </g>
  <g id="axes_1">
   <g id="patch_2">
    <path d="M 92.16 276.48 
L 437.76 276.48 
L 437.76 27.648 
L 92.16 27.648 
z
" style="fill:#ffffff;"/>
   </g>
   <g id="matplotlib.axis_1">
    <g id="xtick_1">
     <g id="line2d_1">
      <defs>
       <path d="M 0 0 
L 0 3.5 
" id="m148a88e7e9" style="stroke:#262626;stroke-width:0.8;"/>
      </defs>
      <g>
       <use style="fill:#262626;stroke:#262626;stroke-width:0.8;" x="94.058901" xlink:href="#m148a88e7e9" y="276.48"/>
      </g>
     </g>
     <g id="text_1">
      <text style="fill:#262626;font-family:DejaVu Sans;font-size:20px;font-style:normal;font-weight:normal;text-anchor:middle;" transform="rotate(-0, 94.058901, 298.676875)" x="94.058901" y="298.676875">0</text>
     </g>
    </g>
    <g id="xtick_2">
     <g id="line2d_2">
      <g>
       <use style="fill:#262626;stroke:#262626;stroke-width:0.8;" x="170.014945" xlink:href="#m148a88e7e9" y="276.48"/>
      </g>
     </g>
     <g id="text_2">
      <text style="fill:#262626;font-family:DejaVu Sans;font-size:20px;font-style:normal;font-weight:normal;text-anchor:middle;" transform="rotate(-0, 170.014945, 298.676875)" x="170.014945" y="298.676875">20</text>
     </g>
    </g>
    <g id="xtick_3">
     <g id="line2d_3">
      <g>
       <use style="fill:#262626;stroke:#262626;stroke-width:0.8;" x="245.970989" xlink:href="#m148a88e7e9" y="276.48"/>
      </g>
     </g>
     <g id="text_3">
      <text style="fill:#262626;font-family:DejaVu Sans;font-size:20px;font-style:normal;font-weight:normal;text-anchor:middle;" transform="rotate(-0, 245.970989, 298.676875)" x="245.970989" y="298.676875">40</text>
     </g>
    </g>
    <g id="xtick_4">
     <g id="line2d_4">
      <g>
       <use style="fill:#262626;stroke:#262626;stroke-width:0.8;" x="321.927033" xlink:href="#m148a88e7e9" y="276.48"/>
      </g>
     </g>
     <g id="text_4">
      <text style="fill:#262626;font-family:DejaVu Sans;font-size:20px;font-style:normal;font-weight:normal;text-anchor:middle;" transform="rotate(-0, 321.927033, 298.676875)" x="321.927033" y="298.676875">60</text>
     </g>
    </g>
    <g id="xtick_5">
     <g id="line2d_5">
      <g>
       <use style="fill:#262626;stroke:#262626;stroke-width:0.8;" x="397.883077" xlink:href="#m148a88e7e9" y="276.48"/>
      </g>
     </g>
     <g id="text_5">
      <text style="fill:#262626;font-family:DejaVu Sans;font-size:20px;font-style:normal;font-weight:normal;text-anchor:middle;" transform="rotate(-0, 397.883077, 298.676875)" x="397.883077" y="298.676875">80</text>
     </g>
    </g>
    <g id="text_6">
     <text style="fill:#262626;font-family:DejaVu Sans;font-size:20px;font-style:normal;font-weight:normal;text-anchor:middle;" transform="rotate(-0, 264.96, 322.033125)" x="264.96" y="322.033125">n mutated</text>
    </g>
   </g>
   <g id="matplotlib.axis_2">
    <g id="ytick_1">
     <g id="line2d_6">
      <defs>
       <path d="M 0 0 
L -3.5 0 
" id="me8c89239d3" style="stroke:#262626;stroke-width:0.8;"/>
      </defs>
      <g>
       <use style="fill:#262626;stroke:#262626;stroke-width:0.8;" x="92.16" xlink:href="#me8c89239d3" y="270.153763"/>
      </g>
     </g>
     <g id="text_7">
      <text style="fill:#262626;font-family:DejaVu Sans;font-size:20px;font-style:normal;font-weight:normal;text-anchor:end;" transform="rotate(-0, 85.16, 277.7522)" x="85.16" y="277.7522">0</text>
     </g>
    </g>
    <g id="ytick_2">
     <g id="line2d_7">
      <g>
       <use style="fill:#262626;stroke:#262626;stroke-width:0.8;" x="92.16" xlink:href="#me8c89239d3" y="196.678301"/>
      </g>
     </g>
     <g id="text_8">
      <text style="fill:#262626;font-family:DejaVu Sans;font-size:20px;font-style:normal;font-weight:normal;text-anchor:end;" transform="rotate(-0, 85.16, 204.276738)" x="85.16" y="204.276738">200</text>
     </g>
    </g>
    <g id="ytick_3">
     <g id="line2d_8">
      <g>
       <use style="fill:#262626;stroke:#262626;stroke-width:0.8;" x="92.16" xlink:href="#me8c89239d3" y="123.202838"/>
      </g>
     </g>
     <g id="text_9">
      <text style="fill:#262626;font-family:DejaVu Sans;font-size:20px;font-style:normal;font-weight:normal;text-anchor:end;" transform="rotate(-0, 85.16, 130.801276)" x="85.16" y="130.801276">400</text>
     </g>
    </g>
    <g id="ytick_4">
     <g id="line2d_9">
      <g>
       <use style="fill:#262626;stroke:#262626;stroke-width:0.8;" x="92.16" xlink:href="#me8c89239d3" y="49.727376"/>
      </g>
     </g>
     <g id="text_10">
      <text style="fill:#262626;font-family:DejaVu Sans;font-size:20px;font-style:normal;font-weight:normal;text-anchor:end;" transform="rotate(-0, 85.16, 57.325814)" x="85.16" y="57.325814">600</text>
     </g>
    </g>
    <g id="text_11">
     <text style="fill:#262626;font-family:DejaVu Sans;font-size:20px;font-style:normal;font-weight:normal;text-anchor:middle;" transform="rotate(-90, 38.825625, 152.064)" x="38.825625" y="152.064">counts</text>
    </g>
   </g>
   <g id="line2d_10">
    <path clip-path="url(#pf7edeef25b)" d="M 94.058901 263.540971 
L 97.856703 220.190448 
L 101.654505 151.490891 
L 105.452308 113.283651 
L 109.25011 59.279186 
L 113.047912 102.262332 
L 116.845714 133.489403 
L 120.643516 189.698132 
L 124.441319 221.29258 
L 128.239121 245.90686 
L 132.036923 260.234575 
L 135.834725 266.47999 
L 139.632527 266.112612 
L 143.43033 268.684253 
L 147.228132 267.949499 
L 151.025934 268.684253 
L 154.823736 268.684253 
L 158.621538 267.949499 
L 162.419341 267.949499 
L 166.217143 269.419008 
L 170.014945 267.582122 
L 173.812747 267.949499 
L 177.610549 266.112612 
L 181.408352 268.316876 
L 185.206154 268.316876 
L 189.003956 269.051631 
L 192.801758 267.582122 
L 196.59956 266.47999 
L 200.397363 267.949499 
L 204.195165 267.214744 
L 207.992967 267.582122 
L 211.790769 264.643103 
L 215.588571 266.47999 
L 219.386374 267.582122 
L 223.184176 266.47999 
L 226.981978 264.275726 
L 230.77978 267.582122 
L 234.577582 267.949499 
L 238.375385 268.684253 
L 242.173187 266.47999 
L 245.970989 268.316876 
L 249.768791 268.316876 
L 253.566593 268.684253 
L 257.364396 269.419008 
L 261.162198 269.051631 
L 264.96 269.419008 
L 268.757802 269.786385 
L 272.555604 269.419008 
L 276.353407 269.419008 
L 280.151209 269.419008 
L 283.949011 269.786385 
L 287.746813 269.786385 
L 291.544615 270.153763 
L 295.342418 270.153763 
L 299.14022 270.153763 
L 302.938022 270.153763 
L 306.735824 270.153763 
L 310.533626 270.153763 
L 314.331429 270.153763 
L 318.129231 270.153763 
L 321.927033 269.786385 
L 325.724835 270.153763 
L 329.522637 270.153763 
L 333.32044 269.786385 
L 337.118242 270.153763 
L 340.916044 269.786385 
L 344.713846 269.786385 
L 348.511648 270.153763 
L 352.309451 270.153763 
L 356.107253 270.153763 
L 359.905055 270.153763 
L 363.702857 270.153763 
L 367.500659 269.786385 
L 371.298462 270.153763 
L 375.096264 270.153763 
L 378.894066 270.153763 
L 382.691868 270.153763 
L 386.48967 270.153763 
L 390.287473 270.153763 
L 394.085275 270.153763 
L 397.883077 270.153763 
L 401.680879 270.153763 
L 405.478681 270.153763 
L 409.276484 270.153763 
L 413.074286 270.153763 
L 416.872088 270.153763 
L 420.66989 270.153763 
L 424.467692 270.153763 
L 428.265495 270.153763 
L 432.063297 270.153763 
L 435.861099 270.153763 
" style="fill:none;stroke:#4169e1;stroke-linecap:round;stroke-width:3;"/>
    <defs>
     <path d="M 0 3.25 
C 0.86191 3.25 1.688635 2.907559 2.298097 2.298097 
C 2.907559 1.688635 3.25 0.86191 3.25 0 
C 3.25 -0.86191 2.907559 -1.688635 2.298097 -2.298097 
C 1.688635 -2.907559 0.86191 -3.25 0 -3.25 
C -0.86191 -3.25 -1.688635 -2.907559 -2.298097 -2.298097 
C -2.907559 -1.688635 -3.25 -0.86191 -3.25 0 
C -3.25 0.86191 -2.907559 1.688635 -2.298097 2.298097 
C -1.688635 2.907559 -0.86191 3.25 0 3.25 
z
" id="m229501b2c5" style="stroke:#4169e1;"/>
    </defs>
    <g clip-path="url(#pf7edeef25b)">
     <use style="fill:#4169e1;stroke:#4169e1;" x="94.058901" xlink:href="#m229501b2c5" y="263.540971"/>
     <use style="fill:#4169e1;stroke:#4169e1;" x="97.856703" xlink:href="#m229501b2c5" y="220.190448"/>
     <use style="fill:#4169e1;stroke:#4169e1;" x="101.654505" xlink:href="#m229501b2c5" y="151.490891"/>
     <use style="fill:#4169e1;stroke:#4169e1;" x="105.452308" xlink:href="#m229501b2c5" y="113.283651"/>
     <use style="fill:#4169e1;stroke:#4169e1;" x="109.25011" xlink:href="#m229501b2c5" y="59.279186"/>
     <use style="fill:#4169e1;stroke:#4169e1;" x="113.047912" xlink:href="#m229501b2c5" y="102.262332"/>
     <use style="fill:#4169e1;stroke:#4169e1;" x="116.845714" xlink:href="#m229501b2c5" y="133.489403"/>
     <use style="fill:#4169e1;stroke:#4169e1;" x="120.643516" xlink:href="#m229501b2c5" y="189.698132"/>
     <use style="fill:#4169e1;stroke:#4169e1;" x="124.441319" xlink:href="#m229501b2c5" y="221.29258"/>
     <use style="fill:#4169e1;stroke:#4169e1;" x="128.239121" xlink:href="#m229501b2c5" y="245.90686"/>
     <use style="fill:#4169e1;stroke:#4169e1;" x="132.036923" xlink:href="#m229501b2c5" y="260.234575"/>
     <use style="fill:#4169e1;stroke:#4169e1;" x="135.834725" xlink:href="#m229501b2c5" y="266.47999"/>
     <use style="fill:#4169e1;stroke:#4169e1;" x="139.632527" xlink:href="#m229501b2c5" y="266.112612"/>
     <use style="fill:#4169e1;stroke:#4169e1;" x="143.43033" xlink:href="#m229501b2c5" y="268.684253"/>
     <use style="fill:#4169e1;stroke:#4169e1;" x="147.228132" xlink:href="#m229501b2c5" y="267.949499"/>
     <use style="fill:#4169e1;stroke:#4169e1;" x="151.025934" xlink:href="#m229501b2c5" y="268.684253"/>
     <use style="fill:#4169e1;stroke:#4169e1;" x="154.823736" xlink:href="#m229501b2c5" y="268.684253"/>
     <use style="fill:#4169e1;stroke:#4169e1;" x="158.621538" xlink:href="#m229501b2c5" y="267.949499"/>
     <use style="fill:#4169e1;stroke:#4169e1;" x="162.419341" xlink:href="#m229501b2c5" y="267.949499"/>
     <use style="fill:#4169e1;stroke:#4169e1;" x="166.217143" xlink:href="#m229501b2c5" y="269.419008"/>
     <use style="fill:#4169e1;stroke:#4169e1;" x="170.014945" xlink:href="#m229501b2c5" y="267.582122"/>
     <use style="fill:#4169e1;stroke:#4169e1;" x="173.812747" xlink:href="#m229501b2c5" y="267.949499"/>
     <use style="fill:#4169e1;stroke:#4169e1;" x="177.610549" xlink:href="#m229501b2c5" y="266.112612"/>
     <use style="fill:#4169e1;stroke:#4169e1;" x="181.408352" xlink:href="#m229501b2c5" y="268.316876"/>
     <use style="fill:#4169e1;stroke:#4169e1;" x="185.206154" xlink:href="#m229501b2c5" y="268.316876"/>
     <use style="fill:#4169e1;stroke:#4169e1;" x="189.003956" xlink:href="#m229501b2c5" y="269.051631"/>
     <use style="fill:#4169e1;stroke:#4169e1;" x="192.801758" xlink:href="#m229501b2c5" y="267.582122"/>
     <use style="fill:#4169e1;stroke:#4169e1;" x="196.59956" xlink:href="#m229501b2c5" y="266.47999"/>
     <use style="fill:#4169e1;stroke:#4169e1;" x="200.397363" xlink:href="#m229501b2c5" y="267.949499"/>
     <use style="fill:#4169e1;stroke:#4169e1;" x="204.195165" xlink:href="#m229501b2c5" y="267.214744"/>
     <use style="fill:#4169e1;stroke:#4169e1;" x="207.992967" xlink:href="#m229501b2c5" y="267.582122"/>
     <use style="fill:#4169e1;stroke:#4169e1;" x="211.790769" xlink:href="#m229501b2c5" y="264.643103"/>
     <use style="fill:#4169e1;stroke:#4169e1;" x="215.588571" xlink:href="#m229501b2c5" y="266.47999"/>
     <use style="fill:#4169e1;stroke:#4169e1;" x="219.386374" xlink:href="#m229501b2c5" y="267.582122"/>
     <use style="fill:#4169e1;stroke:#4169e1;" x="223.184176" xlink:href="#m229501b2c5" y="266.47999"/>
     <use style="fill:#4169e1;stroke:#4169e1;" x="226.981978" xlink:href="#m229501b2c5" y="264.275726"/>
     <use style="fill:#4169e1;stroke:#4169e1;" x="230.77978" xlink:href="#m229501b2c5" y="267.582122"/>
     <use style="fill:#4169e1;stroke:#4169e1;" x="234.577582" xlink:href="#m229501b2c5" y="267.949499"/>
     <use style="fill:#4169e1;stroke:#4169e1;" x="238.375385" xlink:href="#m229501b2c5" y="268.684253"/>
     <use style="fill:#4169e1;stroke:#4169e1;" x="242.173187" xlink:href="#m229501b2c5" y="266.47999"/>
     <use style="fill:#4169e1;stroke:#4169e1;" x="245.970989" xlink:href="#m229501b2c5" y="268.316876"/>
     <use style="fill:#4169e1;stroke:#4169e1;" x="249.768791" xlink:href="#m229501b2c5" y="268.316876"/>
     <use style="fill:#4169e1;stroke:#4169e1;" x="253.566593" xlink:href="#m229501b2c5" y="268.684253"/>
     <use style="fill:#4169e1;stroke:#4169e1;" x="257.364396" xlink:href="#m229501b2c5" y="269.419008"/>
     <use style="fill:#4169e1;stroke:#4169e1;" x="261.162198" xlink:href="#m229501b2c5" y="269.051631"/>
     <use style="fill:#4169e1;stroke:#4169e1;" x="264.96" xlink:href="#m229501b2c5" y="269.419008"/>
     <use style="fill:#4169e1;stroke:#4169e1;" x="268.757802" xlink:href="#m229501b2c5" y="269.786385"/>
     <use style="fill:#4169e1;stroke:#4169e1;" x="272.555604" xlink:href="#m229501b2c5" y="269.419008"/>
     <use style="fill:#4169e1;stroke:#4169e1;" x="276.353407" xlink:href="#m229501b2c5" y="269.419008"/>
     <use style="fill:#4169e1;stroke:#4169e1;" x="280.151209" xlink:href="#m229501b2c5" y="269.419008"/>
     <use style="fill:#4169e1;stroke:#4169e1;" x="283.949011" xlink:href="#m229501b2c5" y="269.786385"/>
     <use style="fill:#4169e1;stroke:#4169e1;" x="287.746813" xlink:href="#m229501b2c5" y="269.786385"/>
     <use style="fill:#4169e1;stroke:#4169e1;" x="291.544615" xlink:href="#m229501b2c5" y="270.153763"/>
     <use style="fill:#4169e1;stroke:#4169e1;" x="295.342418" xlink:href="#m229501b2c5" y="270.153763"/>
     <use style="fill:#4169e1;stroke:#4169e1;" x="299.14022" xlink:href="#m229501b2c5" y="270.153763"/>
     <use style="fill:#4169e1;stroke:#4169e1;" x="302.938022" xlink:href="#m229501b2c5" y="270.153763"/>
     <use style="fill:#4169e1;stroke:#4169e1;" x="306.735824" xlink:href="#m229501b2c5" y="270.153763"/>
     <use style="fill:#4169e1;stroke:#4169e1;" x="310.533626" xlink:href="#m229501b2c5" y="270.153763"/>
     <use style="fill:#4169e1;stroke:#4169e1;" x="314.331429" xlink:href="#m229501b2c5" y="270.153763"/>
     <use style="fill:#4169e1;stroke:#4169e1;" x="318.129231" xlink:href="#m229501b2c5" y="270.153763"/>
     <use style="fill:#4169e1;stroke:#4169e1;" x="321.927033" xlink:href="#m229501b2c5" y="269.786385"/>
     <use style="fill:#4169e1;stroke:#4169e1;" x="325.724835" xlink:href="#m229501b2c5" y="270.153763"/>
     <use style="fill:#4169e1;stroke:#4169e1;" x="329.522637" xlink:href="#m229501b2c5" y="270.153763"/>
     <use style="fill:#4169e1;stroke:#4169e1;" x="333.32044" xlink:href="#m229501b2c5" y="269.786385"/>
     <use style="fill:#4169e1;stroke:#4169e1;" x="337.118242" xlink:href="#m229501b2c5" y="270.153763"/>
     <use style="fill:#4169e1;stroke:#4169e1;" x="340.916044" xlink:href="#m229501b2c5" y="269.786385"/>
     <use style="fill:#4169e1;stroke:#4169e1;" x="344.713846" xlink:href="#m229501b2c5" y="269.786385"/>
     <use style="fill:#4169e1;stroke:#4169e1;" x="348.511648" xlink:href="#m229501b2c5" y="270.153763"/>
     <use style="fill:#4169e1;stroke:#4169e1;" x="352.309451" xlink:href="#m229501b2c5" y="270.153763"/>
     <use style="fill:#4169e1;stroke:#4169e1;" x="356.107253" xlink:href="#m229501b2c5" y="270.153763"/>
     <use style="fill:#4169e1;stroke:#4169e1;" x="359.905055" xlink:href="#m229501b2c5" y="270.153763"/>
     <use style="fill:#4169e1;stroke:#4169e1;" x="363.702857" xlink:href="#m229501b2c5" y="270.153763"/>
     <use style="fill:#4169e1;stroke:#4169e1;" x="367.500659" xlink:href="#m229501b2c5" y="269.786385"/>
     <use style="fill:#4169e1;stroke:#4169e1;" x="371.298462" xlink:href="#m229501b2c5" y="270.153763"/>
     <use style="fill:#4169e1;stroke:#4169e1;" x="375.096264" xlink:href="#m229501b2c5" y="270.153763"/>
     <use style="fill:#4169e1;stroke:#4169e1;" x="378.894066" xlink:href="#m229501b2c5" y="270.153763"/>
     <use style="fill:#4169e1;stroke:#4169e1;" x="382.691868" xlink:href="#m229501b2c5" y="270.153763"/>
     <use style="fill:#4169e1;stroke:#4169e1;" x="386.48967" xlink:href="#m229501b2c5" y="270.153763"/>
     <use style="fill:#4169e1;stroke:#4169e1;" x="390.287473" xlink:href="#m229501b2c5" y="270.153763"/>
     <use style="fill:#4169e1;stroke:#4169e1;" x="394.085275" xlink:href="#m229501b2c5" y="270.153763"/>
     <use style="fill:#4169e1;stroke:#4169e1;" x="397.883077" xlink:href="#m229501b2c5" y="270.153763"/>
     <use style="fill:#4169e1;stroke:#4169e1;" x="401.680879" xlink:href="#m229501b2c5" y="270.153763"/>
     <use style="fill:#4169e1;stroke:#4169e1;" x="405.478681" xlink:href="#m229501b2c5" y="270.153763"/>
     <use style="fill:#4169e1;stroke:#4169e1;" x="409.276484" xlink:href="#m229501b2c5" y="270.153763"/>
     <use style="fill:#4169e1;stroke:#4169e1;" x="413.074286" xlink:href="#m229501b2c5" y="270.153763"/>
     <use style="fill:#4169e1;stroke:#4169e1;" x="416.872088" xlink:href="#m229501b2c5" y="270.153763"/>
     <use style="fill:#4169e1;stroke:#4169e1;" x="420.66989" xlink:href="#m229501b2c5" y="270.153763"/>
     <use style="fill:#4169e1;stroke:#4169e1;" x="424.467692" xlink:href="#m229501b2c5" y="270.153763"/>
     <use style="fill:#4169e1;stroke:#4169e1;" x="428.265495" xlink:href="#m229501b2c5" y="270.153763"/>
     <use style="fill:#4169e1;stroke:#4169e1;" x="432.063297" xlink:href="#m229501b2c5" y="270.153763"/>
     <use style="fill:#4169e1;stroke:#4169e1;" x="435.861099" xlink:href="#m229501b2c5" y="270.153763"/>
    </g>
   </g>
   <g id="patch_3">
    <path d="M 92.16 276.48 
L 92.16 27.648 
" style="fill:none;stroke:#262626;stroke-linecap:square;stroke-linejoin:miter;stroke-width:0.8;"/>
   </g>
   <g id="patch_4">
    <path d="M 92.16 276.48 
L 437.76 276.48 
" style="fill:none;stroke:#262626;stroke-linecap:square;stroke-linejoin:miter;stroke-width:0.8;"/>
   </g>
   <g id="text_12">
    <text style="fill:#262626;font-family:DejaVu Sans;font-size:20px;font-style:normal;font-weight:bold;text-anchor:middle;" transform="rotate(-0, 264.96, 21.648)" x="264.96" y="21.648">full seq (mean 6.5)</text>
   </g>
  </g>
 </g>
 <defs>
  <clipPath id="pf7edeef25b">
   <rect height="248.832" width="345.6" x="92.16" y="27.648"/>
  </clipPath>
 </defs>
</svg>
