<?xml version="1.0" encoding="utf-8" standalone="no"?>
<!DOCTYPE svg PUBLIC "-//W3C//DTD SVG 1.1//EN"
  "http://www.w3.org/Graphics/SVG/1.1/DTD/svg11.dtd">
<!-- Created with matplotlib (http://matplotlib.org/) -->
<svg height="345.6pt" version="1.1" viewBox="0 0 460.8 345.6" width="460.8pt" xmlns="http://www.w3.org/2000/svg" xmlns:xlink="http://www.w3.org/1999/xlink">
 <defs>
  <style type="text/css">
*{stroke-linecap:butt;stroke-linejoin:round;}
  </style>
 </defs>
 <g id="figure_1">
  <g id="patch_1">
   <path d="M 0 345.6 
L 460.8 345.6 
L 460.8 0 
L 0 0 
z
" style="fill:#ffffff;"/>
  </g>
  <g id="axes_1">
   <g id="patch_2">
    <path d="M 92.16 276.48 
L 437.76 276.48 
L 437.76 27.648 
L 92.16 27.648 
z
" style="fill:#ffffff;"/>
   </g>
   <g id="matplotlib.axis_1">
    <g id="xtick_1">
     <g id="line2d_1">
      <defs>
       <path d="M 0 0 
L 0 3.5 
" id="m626026132e" style="stroke:#262626;stroke-width:0.8;"/>
      </defs>
      <g>
       <use style="fill:#262626;stroke:#262626;stroke-width:0.8;" x="102.96" xlink:href="#m626026132e" y="276.48"/>
      </g>
     </g>
     <g id="text_1">
      <text style="fill:#262626;font-family:DejaVu Sans;font-size:20px;font-style:normal;font-weight:normal;text-anchor:middle;" transform="rotate(-0, 102.96, 298.676875)" x="102.96" y="298.676875">0</text>
     </g>
    </g>
    <g id="xtick_2">
     <g id="line2d_2">
      <g>
       <use style="fill:#262626;stroke:#262626;stroke-width:0.8;" x="210.96" xlink:href="#m626026132e" y="276.48"/>
      </g>
     </g>
     <g id="text_2">
      <text style="fill:#262626;font-family:DejaVu Sans;font-size:20px;font-style:normal;font-weight:normal;text-anchor:middle;" transform="rotate(-0, 210.96, 298.676875)" x="210.96" y="298.676875">5</text>
     </g>
    </g>
    <g id="xtick_3">
     <g id="line2d_3">
      <g>
       <use style="fill:#262626;stroke:#262626;stroke-width:0.8;" x="318.96" xlink:href="#m626026132e" y="276.48"/>
      </g>
     </g>
     <g id="text_3">
      <text style="fill:#262626;font-family:DejaVu Sans;font-size:20px;font-style:normal;font-weight:normal;text-anchor:middle;" transform="rotate(-0, 318.96, 298.676875)" x="318.96" y="298.676875">10</text>
     </g>
    </g>
    <g id="xtick_4">
     <g id="line2d_4">
      <g>
       <use style="fill:#262626;stroke:#262626;stroke-width:0.8;" x="426.96" xlink:href="#m626026132e" y="276.48"/>
      </g>
     </g>
     <g id="text_4">
      <text style="fill:#262626;font-family:DejaVu Sans;font-size:20px;font-style:normal;font-weight:normal;text-anchor:middle;" transform="rotate(-0, 426.96, 298.676875)" x="426.96" y="298.676875">15</text>
     </g>
    </g>
    <g id="text_5">
     <text style="fill:#262626;font-family:DejaVu Sans;font-size:20px;font-style:normal;font-weight:normal;text-anchor:middle;" transform="rotate(-0, 264.96, 322.033125)" x="264.96" y="322.033125">n mutated</text>
    </g>
   </g>
   <g id="matplotlib.axis_2">
    <g id="ytick_1">
     <g id="line2d_5">
      <defs>
       <path d="M 0 0 
L -3.5 0 
" id="m17ef2b4eb7" style="stroke:#262626;stroke-width:0.8;"/>
      </defs>
      <g>
       <use style="fill:#262626;stroke:#262626;stroke-width:0.8;" x="92.16" xlink:href="#m17ef2b4eb7" y="270.153763"/>
      </g>
     </g>
     <g id="text_6">
      <text style="fill:#262626;font-family:DejaVu Sans;font-size:20px;font-style:normal;font-weight:normal;text-anchor:end;" transform="rotate(-0, 85.16, 277.7522)" x="85.16" y="277.7522">0</text>
     </g>
    </g>
    <g id="ytick_2">
     <g id="line2d_6">
      <g>
       <use style="fill:#262626;stroke:#262626;stroke-width:0.8;" x="92.16" xlink:href="#m17ef2b4eb7" y="205.941042"/>
      </g>
     </g>
     <g id="text_7">
      <text style="fill:#262626;font-family:DejaVu Sans;font-size:20px;font-style:normal;font-weight:normal;text-anchor:end;" transform="rotate(-0, 85.16, 213.539479)" x="85.16" y="213.539479">500</text>
     </g>
    </g>
    <g id="ytick_3">
     <g id="line2d_7">
      <g>
       <use style="fill:#262626;stroke:#262626;stroke-width:0.8;" x="92.16" xlink:href="#m17ef2b4eb7" y="141.72832"/>
      </g>
     </g>
     <g id="text_8">
      <text style="fill:#262626;font-family:DejaVu Sans;font-size:20px;font-style:normal;font-weight:normal;text-anchor:end;" transform="rotate(-0, 85.16, 149.326758)" x="85.16" y="149.326758">1000</text>
     </g>
    </g>
    <g id="ytick_4">
     <g id="line2d_8">
      <g>
       <use style="fill:#262626;stroke:#262626;stroke-width:0.8;" x="92.16" xlink:href="#m17ef2b4eb7" y="77.515599"/>
      </g>
     </g>
     <g id="text_9">
      <text style="fill:#262626;font-family:DejaVu Sans;font-size:20px;font-style:normal;font-weight:normal;text-anchor:end;" transform="rotate(-0, 85.16, 85.114037)" x="85.16" y="85.114037">1500</text>
     </g>
    </g>
    <g id="text_10">
     <text style="fill:#262626;font-family:DejaVu Sans;font-size:20px;font-style:normal;font-weight:normal;text-anchor:middle;" transform="rotate(-90, 26.100625, 152.064)" x="26.100625" y="152.064">counts</text>
    </g>
   </g>
   <g id="line2d_9">
    <path clip-path="url(#p3bb5544448)" d="M 102.96 59.279186 
L 124.56 151.745505 
L 146.16 239.460082 
L 167.76 261.549258 
L 189.36 265.016745 
L 210.96 265.915723 
L 232.56 267.071552 
L 254.16 268.355807 
L 275.76 268.484232 
L 297.36 269.896912 
L 318.96 270.025337 
L 340.56 270.153763 
L 362.16 270.025337 
L 383.76 270.153763 
L 405.36 270.025337 
L 426.96 270.025337 
" style="fill:none;stroke:#4169e1;stroke-linecap:round;stroke-width:3;"/>
    <defs>
     <path d="M 0 3.25 
C 0.86191 3.25 1.688635 2.907559 2.298097 2.298097 
C 2.907559 1.688635 3.25 0.86191 3.25 0 
C 3.25 -0.86191 2.907559 -1.688635 2.298097 -2.298097 
C 1.688635 -2.907559 0.86191 -3.25 0 -3.25 
C -0.86191 -3.25 -1.688635 -2.907559 -2.298097 -2.298097 
C -2.907559 -1.688635 -3.25 -0.86191 -3.25 0 
C -3.25 0.86191 -2.907559 1.688635 -2.298097 2.298097 
C -1.688635 2.907559 -0.86191 3.25 0 3.25 
z
" id="me7d2a6f98d" style="stroke:#4169e1;"/>
    </defs>
    <g clip-path="url(#p3bb5544448)">
     <use style="fill:#4169e1;stroke:#4169e1;" x="102.96" xlink:href="#me7d2a6f98d" y="59.279186"/>
     <use style="fill:#4169e1;stroke:#4169e1;" x="124.56" xlink:href="#me7d2a6f98d" y="151.745505"/>
     <use style="fill:#4169e1;stroke:#4169e1;" x="146.16" xlink:href="#me7d2a6f98d" y="239.460082"/>
     <use style="fill:#4169e1;stroke:#4169e1;" x="167.76" xlink:href="#me7d2a6f98d" y="261.549258"/>
     <use style="fill:#4169e1;stroke:#4169e1;" x="189.36" xlink:href="#me7d2a6f98d" y="265.016745"/>
     <use style="fill:#4169e1;stroke:#4169e1;" x="210.96" xlink:href="#me7d2a6f98d" y="265.915723"/>
     <use style="fill:#4169e1;stroke:#4169e1;" x="232.56" xlink:href="#me7d2a6f98d" y="267.071552"/>
     <use style="fill:#4169e1;stroke:#4169e1;" x="254.16" xlink:href="#me7d2a6f98d" y="268.355807"/>
     <use style="fill:#4169e1;stroke:#4169e1;" x="275.76" xlink:href="#me7d2a6f98d" y="268.484232"/>
     <use style="fill:#4169e1;stroke:#4169e1;" x="297.36" xlink:href="#me7d2a6f98d" y="269.896912"/>
     <use style="fill:#4169e1;stroke:#4169e1;" x="318.96" xlink:href="#me7d2a6f98d" y="270.025337"/>
     <use style="fill:#4169e1;stroke:#4169e1;" x="340.56" xlink:href="#me7d2a6f98d" y="270.153763"/>
     <use style="fill:#4169e1;stroke:#4169e1;" x="362.16" xlink:href="#me7d2a6f98d" y="270.025337"/>
     <use style="fill:#4169e1;stroke:#4169e1;" x="383.76" xlink:href="#me7d2a6f98d" y="270.153763"/>
     <use style="fill:#4169e1;stroke:#4169e1;" x="405.36" xlink:href="#me7d2a6f98d" y="270.025337"/>
     <use style="fill:#4169e1;stroke:#4169e1;" x="426.96" xlink:href="#me7d2a6f98d" y="270.025337"/>
    </g>
   </g>
   <g id="patch_3">
    <path d="M 92.16 276.48 
L 92.16 27.648 
" style="fill:none;stroke:#262626;stroke-linecap:square;stroke-linejoin:miter;stroke-width:0.8;"/>
   </g>
   <g id="patch_4">
    <path d="M 92.16 276.48 
L 437.76 276.48 
" style="fill:none;stroke:#262626;stroke-linecap:square;stroke-linejoin:miter;stroke-width:0.8;"/>
   </g>
   <g id="text_11">
    <text style="fill:#262626;font-family:DejaVu Sans;font-size:20px;font-style:normal;font-weight:bold;text-anchor:middle;" transform="rotate(-0, 264.96, 21.648)" x="264.96" y="21.648">J (mean 0.780)</text>
   </g>
  </g>
 </g>
 <defs>
  <clipPath id="p3bb5544448">
   <rect height="248.832" width="345.6" x="92.16" y="27.648"/>
  </clipPath>
 </defs>
</svg>
