<?xml version="1.0" encoding="utf-8" standalone="no"?>
<!DOCTYPE svg PUBLIC "-//W3C//DTD SVG 1.1//EN"
  "http://www.w3.org/Graphics/SVG/1.1/DTD/svg11.dtd">
<!-- Created with matplotlib (http://matplotlib.org/) -->
<svg height="345.6pt" version="1.1" viewBox="0 0 460.8 345.6" width="460.8pt" xmlns="http://www.w3.org/2000/svg" xmlns:xlink="http://www.w3.org/1999/xlink">
 <defs>
  <style type="text/css">
*{stroke-linecap:butt;stroke-linejoin:round;}
  </style>
 </defs>
 <g id="figure_1">
  <g id="patch_1">
   <path d="M 0 345.6 
L 460.8 345.6 
L 460.8 0 
L 0 0 
z
" style="fill:#ffffff;"/>
  </g>
  <g id="axes_1">
   <g id="patch_2">
    <path d="M 92.16 276.48 
L 437.76 276.48 
L 437.76 27.648 
L 92.16 27.648 
z
" style="fill:#ffffff;"/>
   </g>
   <g id="matplotlib.axis_1">
    <g id="xtick_1">
     <g id="line2d_1">
      <defs>
       <path d="M 0 0 
L 0 3.5 
" id="m1abac81319" style="stroke:#262626;stroke-width:0.8;"/>
      </defs>
      <g>
       <use style="fill:#262626;stroke:#262626;stroke-width:0.8;" x="95.245714" xlink:href="#m1abac81319" y="276.48"/>
      </g>
     </g>
     <g id="text_1">
      <text style="fill:#262626;font-family:DejaVu Sans;font-size:20px;font-style:normal;font-weight:normal;text-anchor:middle;" transform="rotate(-0, 95.245714, 298.676875)" x="95.245714" y="298.676875">0</text>
     </g>
    </g>
    <g id="xtick_2">
     <g id="line2d_2">
      <g>
       <use style="fill:#262626;stroke:#262626;stroke-width:0.8;" x="218.674286" xlink:href="#m1abac81319" y="276.48"/>
      </g>
     </g>
     <g id="text_2">
      <text style="fill:#262626;font-family:DejaVu Sans;font-size:20px;font-style:normal;font-weight:normal;text-anchor:middle;" transform="rotate(-0, 218.674286, 298.676875)" x="218.674286" y="298.676875">20</text>
     </g>
    </g>
    <g id="xtick_3">
     <g id="line2d_3">
      <g>
       <use style="fill:#262626;stroke:#262626;stroke-width:0.8;" x="342.102857" xlink:href="#m1abac81319" y="276.48"/>
      </g>
     </g>
     <g id="text_3">
      <text style="fill:#262626;font-family:DejaVu Sans;font-size:20px;font-style:normal;font-weight:normal;text-anchor:middle;" transform="rotate(-0, 342.102857, 298.676875)" x="342.102857" y="298.676875">40</text>
     </g>
    </g>
    <g id="text_4">
     <text style="fill:#262626;font-family:DejaVu Sans;font-size:20px;font-style:normal;font-weight:normal;text-anchor:middle;" transform="rotate(-0, 264.96, 322.033125)" x="264.96" y="322.033125">n mutated</text>
    </g>
   </g>
   <g id="matplotlib.axis_2">
    <g id="ytick_1">
     <g id="line2d_4">
      <defs>
       <path d="M 0 0 
L -3.5 0 
" id="m454b8402b3" style="stroke:#262626;stroke-width:0.8;"/>
      </defs>
      <g>
       <use style="fill:#262626;stroke:#262626;stroke-width:0.8;" x="92.16" xlink:href="#m454b8402b3" y="270.153763"/>
      </g>
     </g>
     <g id="text_5">
      <text style="fill:#262626;font-family:DejaVu Sans;font-size:20px;font-style:normal;font-weight:normal;text-anchor:end;" transform="rotate(-0, 85.16, 277.7522)" x="85.16" y="277.7522">0</text>
     </g>
    </g>
    <g id="ytick_2">
     <g id="line2d_5">
      <g>
       <use style="fill:#262626;stroke:#262626;stroke-width:0.8;" x="92.16" xlink:href="#m454b8402b3" y="198.182918"/>
      </g>
     </g>
     <g id="text_6">
      <text style="fill:#262626;font-family:DejaVu Sans;font-size:20px;font-style:normal;font-weight:normal;text-anchor:end;" transform="rotate(-0, 85.16, 205.781355)" x="85.16" y="205.781355">200</text>
     </g>
    </g>
    <g id="ytick_3">
     <g id="line2d_6">
      <g>
       <use style="fill:#262626;stroke:#262626;stroke-width:0.8;" x="92.16" xlink:href="#m454b8402b3" y="126.212072"/>
      </g>
     </g>
     <g id="text_7">
      <text style="fill:#262626;font-family:DejaVu Sans;font-size:20px;font-style:normal;font-weight:normal;text-anchor:end;" transform="rotate(-0, 85.16, 133.81051)" x="85.16" y="133.81051">400</text>
     </g>
    </g>
    <g id="ytick_4">
     <g id="line2d_7">
      <g>
       <use style="fill:#262626;stroke:#262626;stroke-width:0.8;" x="92.16" xlink:href="#m454b8402b3" y="54.241227"/>
      </g>
     </g>
     <g id="text_8">
      <text style="fill:#262626;font-family:DejaVu Sans;font-size:20px;font-style:normal;font-weight:normal;text-anchor:end;" transform="rotate(-0, 85.16, 61.839665)" x="85.16" y="61.839665">600</text>
     </g>
    </g>
    <g id="text_9">
     <text style="fill:#262626;font-family:DejaVu Sans;font-size:20px;font-style:normal;font-weight:normal;text-anchor:middle;" transform="rotate(-90, 38.825625, 152.064)" x="38.825625" y="152.064">counts</text>
    </g>
   </g>
   <g id="line2d_8">
    <path clip-path="url(#p58b0d71a2a)" d="M 95.245714 250.721635 
L 101.417143 185.947874 
L 107.588571 115.056591 
L 113.76 59.279186 
L 119.931429 74.393064 
L 126.102857 119.734696 
L 132.274286 170.474142 
L 138.445714 228.410673 
L 144.617143 247.482946 
L 150.788571 257.558865 
L 156.96 265.475658 
L 163.131429 267.274929 
L 169.302857 268.354492 
L 175.474286 269.0742 
L 181.645714 266.55522 
L 187.817143 267.634783 
L 193.988571 268.714346 
L 200.16 267.274929 
L 206.331429 265.475658 
L 212.502857 266.55522 
L 218.674286 269.793908 
L 224.845714 267.634783 
L 231.017143 268.714346 
L 237.188571 268.714346 
L 243.36 266.915075 
L 249.531429 265.475658 
L 255.702857 265.115804 
L 261.874286 265.115804 
L 268.045714 265.115804 
L 274.217143 265.115804 
L 280.388571 265.115804 
L 286.56 267.634783 
L 292.731429 268.354492 
L 298.902857 266.915075 
L 305.074286 267.634783 
L 311.245714 267.994637 
L 317.417143 268.714346 
L 323.588571 269.0742 
L 329.76 269.0742 
L 335.931429 269.434054 
L 342.102857 269.793908 
L 348.274286 270.153763 
L 354.445714 269.793908 
L 360.617143 270.153763 
L 366.788571 270.153763 
L 372.96 269.793908 
L 379.131429 270.153763 
L 385.302857 270.153763 
L 391.474286 270.153763 
L 397.645714 270.153763 
L 403.817143 270.153763 
L 409.988571 269.793908 
L 416.16 270.153763 
L 422.331429 270.153763 
L 428.502857 269.793908 
L 434.674286 269.434054 
" style="fill:none;stroke:#4169e1;stroke-linecap:round;stroke-width:3;"/>
    <defs>
     <path d="M 0 3.25 
C 0.86191 3.25 1.688635 2.907559 2.298097 2.298097 
C 2.907559 1.688635 3.25 0.86191 3.25 0 
C 3.25 -0.86191 2.907559 -1.688635 2.298097 -2.298097 
C 1.688635 -2.907559 0.86191 -3.25 0 -3.25 
C -0.86191 -3.25 -1.688635 -2.907559 -2.298097 -2.298097 
C -2.907559 -1.688635 -3.25 -0.86191 -3.25 0 
C -3.25 0.86191 -2.907559 1.688635 -2.298097 2.298097 
C -1.688635 2.907559 -0.86191 3.25 0 3.25 
z
" id="m9034ba56c4" style="stroke:#4169e1;"/>
    </defs>
    <g clip-path="url(#p58b0d71a2a)">
     <use style="fill:#4169e1;stroke:#4169e1;" x="95.245714" xlink:href="#m9034ba56c4" y="250.721635"/>
     <use style="fill:#4169e1;stroke:#4169e1;" x="101.417143" xlink:href="#m9034ba56c4" y="185.947874"/>
     <use style="fill:#4169e1;stroke:#4169e1;" x="107.588571" xlink:href="#m9034ba56c4" y="115.056591"/>
     <use style="fill:#4169e1;stroke:#4169e1;" x="113.76" xlink:href="#m9034ba56c4" y="59.279186"/>
     <use style="fill:#4169e1;stroke:#4169e1;" x="119.931429" xlink:href="#m9034ba56c4" y="74.393064"/>
     <use style="fill:#4169e1;stroke:#4169e1;" x="126.102857" xlink:href="#m9034ba56c4" y="119.734696"/>
     <use style="fill:#4169e1;stroke:#4169e1;" x="132.274286" xlink:href="#m9034ba56c4" y="170.474142"/>
     <use style="fill:#4169e1;stroke:#4169e1;" x="138.445714" xlink:href="#m9034ba56c4" y="228.410673"/>
     <use style="fill:#4169e1;stroke:#4169e1;" x="144.617143" xlink:href="#m9034ba56c4" y="247.482946"/>
     <use style="fill:#4169e1;stroke:#4169e1;" x="150.788571" xlink:href="#m9034ba56c4" y="257.558865"/>
     <use style="fill:#4169e1;stroke:#4169e1;" x="156.96" xlink:href="#m9034ba56c4" y="265.475658"/>
     <use style="fill:#4169e1;stroke:#4169e1;" x="163.131429" xlink:href="#m9034ba56c4" y="267.274929"/>
     <use style="fill:#4169e1;stroke:#4169e1;" x="169.302857" xlink:href="#m9034ba56c4" y="268.354492"/>
     <use style="fill:#4169e1;stroke:#4169e1;" x="175.474286" xlink:href="#m9034ba56c4" y="269.0742"/>
     <use style="fill:#4169e1;stroke:#4169e1;" x="181.645714" xlink:href="#m9034ba56c4" y="266.55522"/>
     <use style="fill:#4169e1;stroke:#4169e1;" x="187.817143" xlink:href="#m9034ba56c4" y="267.634783"/>
     <use style="fill:#4169e1;stroke:#4169e1;" x="193.988571" xlink:href="#m9034ba56c4" y="268.714346"/>
     <use style="fill:#4169e1;stroke:#4169e1;" x="200.16" xlink:href="#m9034ba56c4" y="267.274929"/>
     <use style="fill:#4169e1;stroke:#4169e1;" x="206.331429" xlink:href="#m9034ba56c4" y="265.475658"/>
     <use style="fill:#4169e1;stroke:#4169e1;" x="212.502857" xlink:href="#m9034ba56c4" y="266.55522"/>
     <use style="fill:#4169e1;stroke:#4169e1;" x="218.674286" xlink:href="#m9034ba56c4" y="269.793908"/>
     <use style="fill:#4169e1;stroke:#4169e1;" x="224.845714" xlink:href="#m9034ba56c4" y="267.634783"/>
     <use style="fill:#4169e1;stroke:#4169e1;" x="231.017143" xlink:href="#m9034ba56c4" y="268.714346"/>
     <use style="fill:#4169e1;stroke:#4169e1;" x="237.188571" xlink:href="#m9034ba56c4" y="268.714346"/>
     <use style="fill:#4169e1;stroke:#4169e1;" x="243.36" xlink:href="#m9034ba56c4" y="266.915075"/>
     <use style="fill:#4169e1;stroke:#4169e1;" x="249.531429" xlink:href="#m9034ba56c4" y="265.475658"/>
     <use style="fill:#4169e1;stroke:#4169e1;" x="255.702857" xlink:href="#m9034ba56c4" y="265.115804"/>
     <use style="fill:#4169e1;stroke:#4169e1;" x="261.874286" xlink:href="#m9034ba56c4" y="265.115804"/>
     <use style="fill:#4169e1;stroke:#4169e1;" x="268.045714" xlink:href="#m9034ba56c4" y="265.115804"/>
     <use style="fill:#4169e1;stroke:#4169e1;" x="274.217143" xlink:href="#m9034ba56c4" y="265.115804"/>
     <use style="fill:#4169e1;stroke:#4169e1;" x="280.388571" xlink:href="#m9034ba56c4" y="265.115804"/>
     <use style="fill:#4169e1;stroke:#4169e1;" x="286.56" xlink:href="#m9034ba56c4" y="267.634783"/>
     <use style="fill:#4169e1;stroke:#4169e1;" x="292.731429" xlink:href="#m9034ba56c4" y="268.354492"/>
     <use style="fill:#4169e1;stroke:#4169e1;" x="298.902857" xlink:href="#m9034ba56c4" y="266.915075"/>
     <use style="fill:#4169e1;stroke:#4169e1;" x="305.074286" xlink:href="#m9034ba56c4" y="267.634783"/>
     <use style="fill:#4169e1;stroke:#4169e1;" x="311.245714" xlink:href="#m9034ba56c4" y="267.994637"/>
     <use style="fill:#4169e1;stroke:#4169e1;" x="317.417143" xlink:href="#m9034ba56c4" y="268.714346"/>
     <use style="fill:#4169e1;stroke:#4169e1;" x="323.588571" xlink:href="#m9034ba56c4" y="269.0742"/>
     <use style="fill:#4169e1;stroke:#4169e1;" x="329.76" xlink:href="#m9034ba56c4" y="269.0742"/>
     <use style="fill:#4169e1;stroke:#4169e1;" x="335.931429" xlink:href="#m9034ba56c4" y="269.434054"/>
     <use style="fill:#4169e1;stroke:#4169e1;" x="342.102857" xlink:href="#m9034ba56c4" y="269.793908"/>
     <use style="fill:#4169e1;stroke:#4169e1;" x="348.274286" xlink:href="#m9034ba56c4" y="270.153763"/>
     <use style="fill:#4169e1;stroke:#4169e1;" x="354.445714" xlink:href="#m9034ba56c4" y="269.793908"/>
     <use style="fill:#4169e1;stroke:#4169e1;" x="360.617143" xlink:href="#m9034ba56c4" y="270.153763"/>
     <use style="fill:#4169e1;stroke:#4169e1;" x="366.788571" xlink:href="#m9034ba56c4" y="270.153763"/>
     <use style="fill:#4169e1;stroke:#4169e1;" x="372.96" xlink:href="#m9034ba56c4" y="269.793908"/>
     <use style="fill:#4169e1;stroke:#4169e1;" x="379.131429" xlink:href="#m9034ba56c4" y="270.153763"/>
     <use style="fill:#4169e1;stroke:#4169e1;" x="385.302857" xlink:href="#m9034ba56c4" y="270.153763"/>
     <use style="fill:#4169e1;stroke:#4169e1;" x="391.474286" xlink:href="#m9034ba56c4" y="270.153763"/>
     <use style="fill:#4169e1;stroke:#4169e1;" x="397.645714" xlink:href="#m9034ba56c4" y="270.153763"/>
     <use style="fill:#4169e1;stroke:#4169e1;" x="403.817143" xlink:href="#m9034ba56c4" y="270.153763"/>
     <use style="fill:#4169e1;stroke:#4169e1;" x="409.988571" xlink:href="#m9034ba56c4" y="269.793908"/>
     <use style="fill:#4169e1;stroke:#4169e1;" x="416.16" xlink:href="#m9034ba56c4" y="270.153763"/>
     <use style="fill:#4169e1;stroke:#4169e1;" x="422.331429" xlink:href="#m9034ba56c4" y="270.153763"/>
     <use style="fill:#4169e1;stroke:#4169e1;" x="428.502857" xlink:href="#m9034ba56c4" y="269.793908"/>
     <use style="fill:#4169e1;stroke:#4169e1;" x="434.674286" xlink:href="#m9034ba56c4" y="269.434054"/>
    </g>
   </g>
   <g id="patch_3">
    <path d="M 92.16 276.48 
L 92.16 27.648 
" style="fill:none;stroke:#262626;stroke-linecap:square;stroke-linejoin:miter;stroke-width:0.8;"/>
   </g>
   <g id="patch_4">
    <path d="M 92.16 276.48 
L 437.76 276.48 
" style="fill:none;stroke:#262626;stroke-linecap:square;stroke-linejoin:miter;stroke-width:0.8;"/>
   </g>
   <g id="text_10">
    <text style="fill:#262626;font-family:DejaVu Sans;font-size:20px;font-style:normal;font-weight:bold;text-anchor:middle;" transform="rotate(-0, 264.96, 21.648)" x="264.96" y="21.648">V (mean 5.5)</text>
   </g>
  </g>
 </g>
 <defs>
  <clipPath id="p58b0d71a2a">
   <rect height="248.832" width="345.6" x="92.16" y="27.648"/>
  </clipPath>
 </defs>
</svg>
