<?xml version="1.0" encoding="utf-8" standalone="no"?>
<!DOCTYPE svg PUBLIC "-//W3C//DTD SVG 1.1//EN"
  "http://www.w3.org/Graphics/SVG/1.1/DTD/svg11.dtd">
<!-- Created with matplotlib (http://matplotlib.org/) -->
<svg height="432pt" version="1.1" viewBox="0 0 432 432" width="432pt" xmlns="http://www.w3.org/2000/svg" xmlns:xlink="http://www.w3.org/1999/xlink">
 <defs>
  <style type="text/css">
*{stroke-linecap:butt;stroke-linejoin:round;}
  </style>
 </defs>
 <g id="figure_1">
  <g id="patch_1">
   <path d="M 0 432 
L 432 432 
L 432 0 
L 0 0 
z
" style="fill:#ffffff;"/>
  </g>
  <g id="axes_1">
   <g id="patch_2">
    <path d="M 69.949375 362.98125 
L 406.9 362.98125 
L 406.9 39.375 
L 69.949375 39.375 
z
" style="fill:#ffffff;"/>
   </g>
   <g id="matplotlib.axis_1">
    <g id="xtick_1">
     <g id="line2d_1">
      <defs>
       <path d="M 0 0 
L 0 3.5 
" id="maed2ed2cbd" style="stroke:#262626;stroke-width:0.8;"/>
      </defs>
      <g>
       <use style="fill:#262626;stroke:#262626;stroke-width:0.8;" x="89.568613" xlink:href="#maed2ed2cbd" y="362.98125"/>
      </g>
     </g>
     <g id="text_1">
      <text style="fill:#262626;font-family:Lato;font-size:20px;font-style:normal;font-weight:600;text-anchor:middle;" transform="rotate(-0, 89.568613, 384.840625)" x="89.568613" y="384.840625">0.0</text>
     </g>
    </g>
    <g id="xtick_2">
     <g id="line2d_2">
      <g>
       <use style="fill:#262626;stroke:#262626;stroke-width:0.8;" x="188.805996" xlink:href="#maed2ed2cbd" y="362.98125"/>
      </g>
     </g>
     <g id="text_2">
      <text style="fill:#262626;font-family:Lato;font-size:20px;font-style:normal;font-weight:600;text-anchor:middle;" transform="rotate(-0, 188.805996, 384.840625)" x="188.805996" y="384.840625">0.7</text>
     </g>
    </g>
    <g id="xtick_3">
     <g id="line2d_3">
      <g>
       <use style="fill:#262626;stroke:#262626;stroke-width:0.8;" x="288.043379" xlink:href="#maed2ed2cbd" y="362.98125"/>
      </g>
     </g>
     <g id="text_3">
      <text style="fill:#262626;font-family:Lato;font-size:20px;font-style:normal;font-weight:600;text-anchor:middle;" transform="rotate(-0, 288.043379, 384.840625)" x="288.043379" y="384.840625">1.4</text>
     </g>
    </g>
    <g id="xtick_4">
     <g id="line2d_4">
      <g>
       <use style="fill:#262626;stroke:#262626;stroke-width:0.8;" x="387.280762" xlink:href="#maed2ed2cbd" y="362.98125"/>
      </g>
     </g>
     <g id="text_4">
      <text style="fill:#262626;font-family:Lato;font-size:20px;font-style:normal;font-weight:600;text-anchor:middle;" transform="rotate(-0, 387.280762, 384.840625)" x="387.280762" y="384.840625">2.1</text>
     </g>
    </g>
    <g id="text_5">
     <text style="fill:#262626;font-family:Lato;font-size:20px;font-style:normal;font-weight:600;text-anchor:middle;" transform="rotate(-0, 238.424688, 407.05)" x="238.424688" y="407.05">AA lb index</text>
    </g>
   </g>
   <g id="matplotlib.axis_2">
    <g id="ytick_1">
     <g id="line2d_5">
      <defs>
       <path d="M 0 0 
L -3.5 0 
" id="ma9309b07a3" style="stroke:#262626;stroke-width:0.8;"/>
      </defs>
      <g>
       <use style="fill:#262626;stroke:#262626;stroke-width:0.8;" x="69.949375" xlink:href="#ma9309b07a3" y="201.178125"/>
      </g>
     </g>
     <g id="text_6">
      <text style="fill:#262626;font-family:Lato;font-size:11px;font-style:normal;font-weight:600;text-anchor:end;" transform="rotate(-0, 62.949375, 205.264453)" x="62.949375" y="205.264453">161</text>
     </g>
    </g>
    <g id="text_7">
     <text style="fill:#262626;font-family:Lato;font-size:20px;font-style:normal;font-weight:600;text-anchor:middle;" transform="rotate(-90, 36.459375, 201.178125)" x="36.459375" y="201.178125">clonal family size</text>
    </g>
   </g>
   <g id="PolyCollection_1">
    <defs>
     <path d="M 84.663804 -241.192622 
L 84.663804 -230.821875 
L 105.165255 -230.821875 
L 105.165255 -241.192622 
L 105.165255 -241.192622 
L 84.663804 -241.192622 
z
" id="m0824417687" style="stroke:#386cc2;stroke-opacity:0.55;"/>
    </defs>
    <g clip-path="url(#p885b85d1b5)">
     <use style="fill:#386cc2;fill-opacity:0.55;stroke:#386cc2;stroke-opacity:0.55;" x="0" xlink:href="#m0824417687" y="432"/>
    </g>
   </g>
   <g id="PolyCollection_2">
    <defs>
     <path d="M 105.165255 -252.574929 
L 105.165255 -230.821875 
L 125.666706 -230.821875 
L 125.666706 -252.574929 
L 125.666706 -252.574929 
L 105.165255 -252.574929 
z
" id="mdaa1b7335b" style="stroke:#386cc2;stroke-opacity:0.55;"/>
    </defs>
    <g clip-path="url(#p885b85d1b5)">
     <use style="fill:#386cc2;fill-opacity:0.55;stroke:#386cc2;stroke-opacity:0.55;" x="0" xlink:href="#mdaa1b7335b" y="432"/>
    </g>
   </g>
   <g id="PolyCollection_3">
    <defs>
     <path d="M 125.666706 -260.880778 
L 125.666706 -230.821875 
L 146.168157 -230.821875 
L 146.168157 -260.880778 
L 146.168157 -260.880778 
L 125.666706 -260.880778 
z
" id="mee0e6535fa" style="stroke:#386cc2;stroke-opacity:0.55;"/>
    </defs>
    <g clip-path="url(#p885b85d1b5)">
     <use style="fill:#386cc2;fill-opacity:0.55;stroke:#386cc2;stroke-opacity:0.55;" x="0" xlink:href="#mee0e6535fa" y="432"/>
    </g>
   </g>
   <g id="PolyCollection_4">
    <defs>
     <path d="M 146.168157 -257.169709 
L 146.168157 -230.821875 
L 166.669608 -230.821875 
L 166.669608 -257.169709 
L 166.669608 -257.169709 
L 146.168157 -257.169709 
z
" id="m5497847552" style="stroke:#386cc2;stroke-opacity:0.55;"/>
    </defs>
    <g clip-path="url(#p885b85d1b5)">
     <use style="fill:#386cc2;fill-opacity:0.55;stroke:#386cc2;stroke-opacity:0.55;" x="0" xlink:href="#m5497847552" y="432"/>
    </g>
   </g>
   <g id="PolyCollection_5">
    <defs>
     <path d="M 166.669608 -261.595193 
L 166.669608 -230.821875 
L 187.17106 -230.821875 
L 187.17106 -261.595193 
L 187.17106 -261.595193 
L 166.669608 -261.595193 
z
" id="m0ddb4d962e" style="stroke:#386cc2;stroke-opacity:0.55;"/>
    </defs>
    <g clip-path="url(#p885b85d1b5)">
     <use style="fill:#386cc2;fill-opacity:0.55;stroke:#386cc2;stroke-opacity:0.55;" x="0" xlink:href="#m0ddb4d962e" y="432"/>
    </g>
   </g>
   <g id="PolyCollection_6">
    <defs>
     <path d="M 187.17106 -265.789377 
L 187.17106 -230.821875 
L 207.672511 -230.821875 
L 207.672511 -265.789377 
L 207.672511 -265.789377 
L 187.17106 -265.789377 
z
" id="mfb75312000" style="stroke:#386cc2;stroke-opacity:0.55;"/>
    </defs>
    <g clip-path="url(#p885b85d1b5)">
     <use style="fill:#386cc2;fill-opacity:0.55;stroke:#386cc2;stroke-opacity:0.55;" x="0" xlink:href="#mfb75312000" y="432"/>
    </g>
   </g>
   <g id="PolyCollection_7">
    <defs>
     <path d="M 207.672511 -231.307284 
L 207.672511 -230.821875 
L 228.173962 -230.821875 
L 228.173962 -231.307284 
L 228.173962 -231.307284 
L 207.672511 -231.307284 
z
" id="m1ad7bdac36" style="stroke:#808080;stroke-opacity:0.4;"/>
    </defs>
    <g clip-path="url(#p885b85d1b5)">
     <use style="fill:#808080;fill-opacity:0.4;stroke:#808080;stroke-opacity:0.4;" x="0" xlink:href="#m1ad7bdac36" y="432"/>
    </g>
   </g>
   <g id="PolyCollection_8">
    <defs>
     <path d="M 228.173962 -267.943545 
L 228.173962 -230.821875 
L 248.675413 -230.821875 
L 248.675413 -267.943545 
L 248.675413 -267.943545 
L 228.173962 -267.943545 
z
" id="m9a65ce3d79" style="stroke:#386cc2;stroke-opacity:0.55;"/>
    </defs>
    <g clip-path="url(#p885b85d1b5)">
     <use style="fill:#386cc2;fill-opacity:0.55;stroke:#386cc2;stroke-opacity:0.55;" x="0" xlink:href="#m9a65ce3d79" y="432"/>
    </g>
   </g>
   <g id="PolyCollection_9">
    <defs>
     <path d="M 248.675413 -231.307284 
L 248.675413 -230.821875 
L 269.176864 -230.821875 
L 269.176864 -231.307284 
L 269.176864 -231.307284 
L 248.675413 -231.307284 
z
" id="m309ea16dec" style="stroke:#808080;stroke-opacity:0.4;"/>
    </defs>
    <g clip-path="url(#p885b85d1b5)">
     <use style="fill:#808080;fill-opacity:0.4;stroke:#808080;stroke-opacity:0.4;" x="0" xlink:href="#m309ea16dec" y="432"/>
    </g>
   </g>
   <g id="PolyCollection_10">
    <defs>
     <path d="M 269.176864 -271.272656 
L 269.176864 -230.821875 
L 289.678315 -230.821875 
L 289.678315 -271.272656 
L 289.678315 -271.272656 
L 269.176864 -271.272656 
z
" id="mc2051c1fb4" style="stroke:#386cc2;stroke-opacity:0.55;"/>
    </defs>
    <g clip-path="url(#p885b85d1b5)">
     <use style="fill:#386cc2;fill-opacity:0.55;stroke:#386cc2;stroke-opacity:0.55;" x="0" xlink:href="#mc2051c1fb4" y="432"/>
    </g>
   </g>
   <g id="PolyCollection_11">
    <defs>
     <path d="M 289.678315 -231.307284 
L 289.678315 -230.821875 
L 310.179767 -230.821875 
L 310.179767 -231.307284 
L 310.179767 -231.307284 
L 289.678315 -231.307284 
z
" id="m768c387981" style="stroke:#808080;stroke-opacity:0.4;"/>
    </defs>
    <g clip-path="url(#p885b85d1b5)">
     <use style="fill:#808080;fill-opacity:0.4;stroke:#808080;stroke-opacity:0.4;" x="0" xlink:href="#m768c387981" y="432"/>
    </g>
   </g>
   <g id="PolyCollection_12">
    <defs>
     <path d="M 310.179767 -269.901042 
L 310.179767 -230.821875 
L 330.681218 -230.821875 
L 330.681218 -269.901042 
L 330.681218 -269.901042 
L 310.179767 -269.901042 
z
" id="m5b71734768" style="stroke:#386cc2;stroke-opacity:0.55;"/>
    </defs>
    <g clip-path="url(#p885b85d1b5)">
     <use style="fill:#386cc2;fill-opacity:0.55;stroke:#386cc2;stroke-opacity:0.55;" x="0" xlink:href="#m5b71734768" y="432"/>
    </g>
   </g>
   <g id="PolyCollection_13">
    <defs>
     <path d="M 330.681218 -231.307284 
L 330.681218 -230.821875 
L 351.182669 -230.821875 
L 351.182669 -231.307284 
L 351.182669 -231.307284 
L 330.681218 -231.307284 
z
" id="m9d1862aea6" style="stroke:#808080;stroke-opacity:0.4;"/>
    </defs>
    <g clip-path="url(#p885b85d1b5)">
     <use style="fill:#808080;fill-opacity:0.4;stroke:#808080;stroke-opacity:0.4;" x="0" xlink:href="#m9d1862aea6" y="432"/>
    </g>
   </g>
   <g id="PolyCollection_14">
    <defs>
     <path d="M 351.182669 -231.307284 
L 351.182669 -230.821875 
L 371.68412 -230.821875 
L 371.68412 -231.307284 
L 371.68412 -231.307284 
L 351.182669 -231.307284 
z
" id="m7d642d0966" style="stroke:#808080;stroke-opacity:0.4;"/>
    </defs>
    <g clip-path="url(#p885b85d1b5)">
     <use style="fill:#808080;fill-opacity:0.4;stroke:#808080;stroke-opacity:0.4;" x="0" xlink:href="#m7d642d0966" y="432"/>
    </g>
   </g>
   <g id="PolyCollection_15">
    <defs>
     <path d="M 371.68412 -258.266082 
L 371.68412 -230.821875 
L 392.185571 -230.821875 
L 392.185571 -258.266082 
L 392.185571 -258.266082 
L 371.68412 -258.266082 
z
" id="m7d008b242d" style="stroke:#386cc2;stroke-opacity:0.55;"/>
    </defs>
    <g clip-path="url(#p885b85d1b5)">
     <use style="fill:#386cc2;fill-opacity:0.55;stroke:#386cc2;stroke-opacity:0.55;" x="0" xlink:href="#m7d008b242d" y="432"/>
    </g>
   </g>
   <g id="PolyCollection_16">
    <defs>
     <path d="M 86.591492 -230.821875 
L 86.591492 -190.371094 
L 96.713705 -190.371094 
L 96.713705 -230.821875 
L 96.713705 -230.821875 
L 86.591492 -230.821875 
z
" id="m2c1c962d5b" style="stroke:#bf1328;stroke-opacity:0.55;"/>
    </defs>
    <g clip-path="url(#p885b85d1b5)">
     <use style="fill:#bf1328;fill-opacity:0.55;stroke:#bf1328;stroke-opacity:0.55;" x="0" xlink:href="#m2c1c962d5b" y="432"/>
    </g>
   </g>
   <g id="PolyCollection_17">
    <defs>
     <path d="M 96.713705 -230.821875 
L 96.713705 -221.760479 
L 106.835918 -221.760479 
L 106.835918 -230.821875 
L 106.835918 -230.821875 
L 96.713705 -230.821875 
z
" id="m7a34a23975" style="stroke:#bf1328;stroke-opacity:0.55;"/>
    </defs>
    <g clip-path="url(#p885b85d1b5)">
     <use style="fill:#bf1328;fill-opacity:0.55;stroke:#bf1328;stroke-opacity:0.55;" x="0" xlink:href="#m7a34a23975" y="432"/>
    </g>
   </g>
   <g id="PolyCollection_18">
    <defs>
     <path d="M 106.835918 -230.821875 
L 106.835918 -201.579292 
L 116.958131 -201.579292 
L 116.958131 -230.821875 
L 116.958131 -230.821875 
L 106.835918 -230.821875 
z
" id="m799d4df690" style="stroke:#bf1328;stroke-opacity:0.55;"/>
    </defs>
    <g clip-path="url(#p885b85d1b5)">
     <use style="fill:#bf1328;fill-opacity:0.55;stroke:#bf1328;stroke-opacity:0.55;" x="0" xlink:href="#m799d4df690" y="432"/>
    </g>
   </g>
   <g id="PolyCollection_19">
    <defs>
     <path d="M 116.958131 -230.821875 
L 116.958131 -230.336466 
L 127.080344 -230.336466 
L 127.080344 -230.821875 
L 127.080344 -230.821875 
L 116.958131 -230.821875 
z
" id="m58441490e8" style="stroke:#808080;stroke-opacity:0.4;"/>
    </defs>
    <g clip-path="url(#p885b85d1b5)">
     <use style="fill:#808080;fill-opacity:0.4;stroke:#808080;stroke-opacity:0.4;" x="0" xlink:href="#m58441490e8" y="432"/>
    </g>
   </g>
   <g id="PolyCollection_20">
    <defs>
     <path d="M 127.080344 -230.821875 
L 127.080344 -216.823141 
L 137.202557 -216.823141 
L 137.202557 -230.821875 
L 137.202557 -230.821875 
L 127.080344 -230.821875 
z
" id="md9345b748b" style="stroke:#bf1328;stroke-opacity:0.55;"/>
    </defs>
    <g clip-path="url(#p885b85d1b5)">
     <use style="fill:#bf1328;fill-opacity:0.55;stroke:#bf1328;stroke-opacity:0.55;" x="0" xlink:href="#md9345b748b" y="432"/>
    </g>
   </g>
   <g id="PolyCollection_21">
    <defs>
     <path d="M 137.202557 -230.821875 
L 137.202557 -198.83219 
L 147.32477 -198.83219 
L 147.32477 -230.821875 
L 147.32477 -230.821875 
L 137.202557 -230.821875 
z
" id="mf7bab6e756" style="stroke:#bf1328;stroke-opacity:0.55;"/>
    </defs>
    <g clip-path="url(#p885b85d1b5)">
     <use style="fill:#bf1328;fill-opacity:0.55;stroke:#bf1328;stroke-opacity:0.55;" x="0" xlink:href="#mf7bab6e756" y="432"/>
    </g>
   </g>
   <g id="PolyCollection_22">
    <defs>
     <path d="M 147.32477 -230.821875 
L 147.32477 -230.336466 
L 157.446983 -230.336466 
L 157.446983 -230.821875 
L 157.446983 -230.821875 
L 147.32477 -230.821875 
z
" id="m06ac9855c9" style="stroke:#808080;stroke-opacity:0.4;"/>
    </defs>
    <g clip-path="url(#p885b85d1b5)">
     <use style="fill:#808080;fill-opacity:0.4;stroke:#808080;stroke-opacity:0.4;" x="0" xlink:href="#m06ac9855c9" y="432"/>
    </g>
   </g>
   <g id="PolyCollection_23">
    <defs>
     <path d="M 157.446983 -230.821875 
L 157.446983 -206.948464 
L 167.569196 -206.948464 
L 167.569196 -230.821875 
L 167.569196 -230.821875 
L 157.446983 -230.821875 
z
" id="m618a7a8e9a" style="stroke:#bf1328;stroke-opacity:0.55;"/>
    </defs>
    <g clip-path="url(#p885b85d1b5)">
     <use style="fill:#bf1328;fill-opacity:0.55;stroke:#bf1328;stroke-opacity:0.55;" x="0" xlink:href="#m618a7a8e9a" y="432"/>
    </g>
   </g>
   <g id="PolyCollection_24">
    <defs>
     <path d="M 167.569196 -230.821875 
L 167.569196 -221.760479 
L 177.691409 -221.760479 
L 177.691409 -230.821875 
L 177.691409 -230.821875 
L 167.569196 -230.821875 
z
" id="m7e2a71f50c" style="stroke:#bf1328;stroke-opacity:0.55;"/>
    </defs>
    <g clip-path="url(#p885b85d1b5)">
     <use style="fill:#bf1328;fill-opacity:0.55;stroke:#bf1328;stroke-opacity:0.55;" x="0" xlink:href="#m7e2a71f50c" y="432"/>
    </g>
   </g>
   <g id="PolyCollection_25">
    <defs>
     <path d="M 177.691409 -230.821875 
L 177.691409 -213.934983 
L 187.813622 -213.934983 
L 187.813622 -230.821875 
L 187.813622 -230.821875 
L 177.691409 -230.821875 
z
" id="m3870f1bc77" style="stroke:#bf1328;stroke-opacity:0.55;"/>
    </defs>
    <g clip-path="url(#p885b85d1b5)">
     <use style="fill:#bf1328;fill-opacity:0.55;stroke:#bf1328;stroke-opacity:0.55;" x="0" xlink:href="#m3870f1bc77" y="432"/>
    </g>
   </g>
   <g id="PolyCollection_26">
    <defs>
     <path d="M 187.813622 -230.821875 
L 187.813622 -221.760479 
L 197.935835 -221.760479 
L 197.935835 -230.821875 
L 197.935835 -230.821875 
L 187.813622 -230.821875 
z
" id="m4ffaa38cd3" style="stroke:#bf1328;stroke-opacity:0.55;"/>
    </defs>
    <g clip-path="url(#p885b85d1b5)">
     <use style="fill:#bf1328;fill-opacity:0.55;stroke:#bf1328;stroke-opacity:0.55;" x="0" xlink:href="#m4ffaa38cd3" y="432"/>
    </g>
   </g>
   <g id="PolyCollection_27">
    <defs>
     <path d="M 197.935835 -230.821875 
L 197.935835 -230.336466 
L 208.058048 -230.336466 
L 208.058048 -230.821875 
L 208.058048 -230.821875 
L 197.935835 -230.821875 
z
" id="m4e578658d3" style="stroke:#808080;stroke-opacity:0.4;"/>
    </defs>
    <g clip-path="url(#p885b85d1b5)">
     <use style="fill:#808080;fill-opacity:0.4;stroke:#808080;stroke-opacity:0.4;" x="0" xlink:href="#m4e578658d3" y="432"/>
    </g>
   </g>
   <g id="PolyCollection_28">
    <defs>
     <path d="M 208.058048 -230.821875 
L 208.058048 -207.899618 
L 218.180261 -207.899618 
L 218.180261 -230.821875 
L 218.180261 -230.821875 
L 208.058048 -230.821875 
z
" id="m6511105008" style="stroke:#bf1328;stroke-opacity:0.55;"/>
    </defs>
    <g clip-path="url(#p885b85d1b5)">
     <use style="fill:#bf1328;fill-opacity:0.55;stroke:#bf1328;stroke-opacity:0.55;" x="0" xlink:href="#m6511105008" y="432"/>
    </g>
   </g>
   <g id="PolyCollection_29">
    <defs>
     <path d="M 218.180261 -230.821875 
L 218.180261 -213.934983 
L 228.302474 -213.934983 
L 228.302474 -230.821875 
L 228.302474 -230.821875 
L 218.180261 -230.821875 
z
" id="m6e24eab3ac" style="stroke:#bf1328;stroke-opacity:0.55;"/>
    </defs>
    <g clip-path="url(#p885b85d1b5)">
     <use style="fill:#bf1328;fill-opacity:0.55;stroke:#bf1328;stroke-opacity:0.55;" x="0" xlink:href="#m6e24eab3ac" y="432"/>
    </g>
   </g>
   <g id="PolyCollection_30">
    <defs>
     <path d="M 228.302474 -230.821875 
L 228.302474 -230.336466 
L 238.424688 -230.336466 
L 238.424688 -230.821875 
L 238.424688 -230.821875 
L 228.302474 -230.821875 
z
" id="m058644efec" style="stroke:#808080;stroke-opacity:0.4;"/>
    </defs>
    <g clip-path="url(#p885b85d1b5)">
     <use style="fill:#808080;fill-opacity:0.4;stroke:#808080;stroke-opacity:0.4;" x="0" xlink:href="#m058644efec" y="432"/>
    </g>
   </g>
   <g id="PolyCollection_31">
    <defs>
     <path d="M 238.424688 -230.821875 
L 238.424688 -211.885802 
L 248.546901 -211.885802 
L 248.546901 -230.821875 
L 248.546901 -230.821875 
L 238.424688 -230.821875 
z
" id="mb500417f80" style="stroke:#bf1328;stroke-opacity:0.55;"/>
    </defs>
    <g clip-path="url(#p885b85d1b5)">
     <use style="fill:#bf1328;fill-opacity:0.55;stroke:#bf1328;stroke-opacity:0.55;" x="0" xlink:href="#mb500417f80" y="432"/>
    </g>
   </g>
   <g id="PolyCollection_32">
    <defs>
     <path d="M 248.546901 -230.821875 
L 248.546901 -230.336466 
L 258.669114 -230.336466 
L 258.669114 -230.821875 
L 258.669114 -230.821875 
L 248.546901 -230.821875 
z
" id="m969ebf46d7" style="stroke:#808080;stroke-opacity:0.4;"/>
    </defs>
    <g clip-path="url(#p885b85d1b5)">
     <use style="fill:#808080;fill-opacity:0.4;stroke:#808080;stroke-opacity:0.4;" x="0" xlink:href="#m969ebf46d7" y="432"/>
    </g>
   </g>
   <g id="PolyCollection_33">
    <defs>
     <path d="M 258.669114 -230.821875 
L 258.669114 -230.336466 
L 268.791327 -230.336466 
L 268.791327 -230.821875 
L 268.791327 -230.821875 
L 258.669114 -230.821875 
z
" id="m27a3fa01af" style="stroke:#808080;stroke-opacity:0.4;"/>
    </defs>
    <g clip-path="url(#p885b85d1b5)">
     <use style="fill:#808080;fill-opacity:0.4;stroke:#808080;stroke-opacity:0.4;" x="0" xlink:href="#m27a3fa01af" y="432"/>
    </g>
   </g>
   <g id="PolyCollection_34">
    <defs>
     <path d="M 268.791327 -230.821875 
L 268.791327 -230.336466 
L 278.91354 -230.336466 
L 278.91354 -230.821875 
L 278.91354 -230.821875 
L 268.791327 -230.821875 
z
" id="m9780af8262" style="stroke:#808080;stroke-opacity:0.4;"/>
    </defs>
    <g clip-path="url(#p885b85d1b5)">
     <use style="fill:#808080;fill-opacity:0.4;stroke:#808080;stroke-opacity:0.4;" x="0" xlink:href="#m9780af8262" y="432"/>
    </g>
   </g>
   <g id="PolyCollection_35">
    <defs>
     <path d="M 278.91354 -230.821875 
L 278.91354 -230.336466 
L 289.035753 -230.336466 
L 289.035753 -230.821875 
L 289.035753 -230.821875 
L 278.91354 -230.821875 
z
" id="me60f721a68" style="stroke:#808080;stroke-opacity:0.4;"/>
    </defs>
    <g clip-path="url(#p885b85d1b5)">
     <use style="fill:#808080;fill-opacity:0.4;stroke:#808080;stroke-opacity:0.4;" x="0" xlink:href="#me60f721a68" y="432"/>
    </g>
   </g>
   <g id="PolyCollection_36">
    <defs>
     <path d="M 289.035753 -230.821875 
L 289.035753 -230.336466 
L 299.157966 -230.336466 
L 299.157966 -230.821875 
L 299.157966 -230.821875 
L 289.035753 -230.821875 
z
" id="m2199d5dbb5" style="stroke:#808080;stroke-opacity:0.4;"/>
    </defs>
    <g clip-path="url(#p885b85d1b5)">
     <use style="fill:#808080;fill-opacity:0.4;stroke:#808080;stroke-opacity:0.4;" x="0" xlink:href="#m2199d5dbb5" y="432"/>
    </g>
   </g>
   <g id="PolyCollection_37">
    <defs>
     <path d="M 299.157966 -230.821875 
L 299.157966 -230.336466 
L 309.280179 -230.336466 
L 309.280179 -230.821875 
L 309.280179 -230.821875 
L 299.157966 -230.821875 
z
" id="me937ddbf5e" style="stroke:#808080;stroke-opacity:0.4;"/>
    </defs>
    <g clip-path="url(#p885b85d1b5)">
     <use style="fill:#808080;fill-opacity:0.4;stroke:#808080;stroke-opacity:0.4;" x="0" xlink:href="#me937ddbf5e" y="432"/>
    </g>
   </g>
   <g id="PolyCollection_38">
    <defs>
     <path d="M 309.280179 -230.821875 
L 309.280179 -230.336466 
L 319.402392 -230.336466 
L 319.402392 -230.821875 
L 319.402392 -230.821875 
L 309.280179 -230.821875 
z
" id="m7a79f923f0" style="stroke:#808080;stroke-opacity:0.4;"/>
    </defs>
    <g clip-path="url(#p885b85d1b5)">
     <use style="fill:#808080;fill-opacity:0.4;stroke:#808080;stroke-opacity:0.4;" x="0" xlink:href="#m7a79f923f0" y="432"/>
    </g>
   </g>
   <g id="PolyCollection_39">
    <defs>
     <path d="M 319.402392 -230.821875 
L 319.402392 -230.336466 
L 329.524605 -230.336466 
L 329.524605 -230.821875 
L 329.524605 -230.821875 
L 319.402392 -230.821875 
z
" id="m576f7b8a2c" style="stroke:#808080;stroke-opacity:0.4;"/>
    </defs>
    <g clip-path="url(#p885b85d1b5)">
     <use style="fill:#808080;fill-opacity:0.4;stroke:#808080;stroke-opacity:0.4;" x="0" xlink:href="#m576f7b8a2c" y="432"/>
    </g>
   </g>
   <g id="PolyCollection_40">
    <defs>
     <path d="M 329.524605 -230.821875 
L 329.524605 -230.336466 
L 339.646818 -230.336466 
L 339.646818 -230.821875 
L 339.646818 -230.821875 
L 329.524605 -230.821875 
z
" id="mbee6a70b70" style="stroke:#808080;stroke-opacity:0.4;"/>
    </defs>
    <g clip-path="url(#p885b85d1b5)">
     <use style="fill:#808080;fill-opacity:0.4;stroke:#808080;stroke-opacity:0.4;" x="0" xlink:href="#mbee6a70b70" y="432"/>
    </g>
   </g>
   <g id="PolyCollection_41">
    <defs>
     <path d="M 339.646818 -230.821875 
L 339.646818 -230.336466 
L 349.769031 -230.336466 
L 349.769031 -230.821875 
L 349.769031 -230.821875 
L 339.646818 -230.821875 
z
" id="m0ffa734efd" style="stroke:#808080;stroke-opacity:0.4;"/>
    </defs>
    <g clip-path="url(#p885b85d1b5)">
     <use style="fill:#808080;fill-opacity:0.4;stroke:#808080;stroke-opacity:0.4;" x="0" xlink:href="#m0ffa734efd" y="432"/>
    </g>
   </g>
   <g id="PolyCollection_42">
    <defs>
     <path d="M 349.769031 -230.821875 
L 349.769031 -230.336466 
L 359.891244 -230.336466 
L 359.891244 -230.821875 
L 359.891244 -230.821875 
L 349.769031 -230.821875 
z
" id="m47100e7c15" style="stroke:#808080;stroke-opacity:0.4;"/>
    </defs>
    <g clip-path="url(#p885b85d1b5)">
     <use style="fill:#808080;fill-opacity:0.4;stroke:#808080;stroke-opacity:0.4;" x="0" xlink:href="#m47100e7c15" y="432"/>
    </g>
   </g>
   <g id="PolyCollection_43">
    <defs>
     <path d="M 359.891244 -230.821875 
L 359.891244 -230.336466 
L 370.013457 -230.336466 
L 370.013457 -230.821875 
L 370.013457 -230.821875 
L 359.891244 -230.821875 
z
" id="m3ef21596dd" style="stroke:#808080;stroke-opacity:0.4;"/>
    </defs>
    <g clip-path="url(#p885b85d1b5)">
     <use style="fill:#808080;fill-opacity:0.4;stroke:#808080;stroke-opacity:0.4;" x="0" xlink:href="#m3ef21596dd" y="432"/>
    </g>
   </g>
   <g id="PolyCollection_44">
    <defs>
     <path d="M 370.013457 -230.821875 
L 370.013457 -230.336466 
L 380.13567 -230.336466 
L 380.13567 -230.821875 
L 380.13567 -230.821875 
L 370.013457 -230.821875 
z
" id="m531b83cf19" style="stroke:#808080;stroke-opacity:0.4;"/>
    </defs>
    <g clip-path="url(#p885b85d1b5)">
     <use style="fill:#808080;fill-opacity:0.4;stroke:#808080;stroke-opacity:0.4;" x="0" xlink:href="#m531b83cf19" y="432"/>
    </g>
   </g>
   <g id="PolyCollection_45">
    <defs>
     <path d="M 380.13567 -230.821875 
L 380.13567 -207.899618 
L 390.257883 -207.899618 
L 390.257883 -230.821875 
L 390.257883 -230.821875 
L 380.13567 -230.821875 
z
" id="mab123922c8" style="stroke:#bf1328;stroke-opacity:0.55;"/>
    </defs>
    <g clip-path="url(#p885b85d1b5)">
     <use style="fill:#bf1328;fill-opacity:0.55;stroke:#bf1328;stroke-opacity:0.55;" x="0" xlink:href="#mab123922c8" y="432"/>
    </g>
   </g>
   <g id="line2d_6">
    <path clip-path="url(#p885b85d1b5)" d="M 343.127117 201.178125 
L 343.127117 -1 
" style="fill:none;stroke:#008000;stroke-linecap:round;stroke-opacity:0.55;stroke-width:2.5;"/>
   </g>
   <g id="patch_3">
    <path d="M 69.949375 362.98125 
L 69.949375 39.375 
" style="fill:none;stroke:#262626;stroke-linecap:square;stroke-linejoin:miter;stroke-width:0.8;"/>
   </g>
   <g id="patch_4">
    <path d="M 69.949375 362.98125 
L 406.9 362.98125 
" style="fill:none;stroke:#262626;stroke-linecap:square;stroke-linejoin:miter;stroke-width:0.8;"/>
   </g>
   <g id="text_8">
    <text style="fill:#262626;font-family:Lato;font-size:15px;font-style:normal;font-weight:bold;text-anchor:middle;" transform="rotate(-0, 238.424688, 33.375)" x="238.424688" y="33.375">affinity and AA lb index (1 / 1)</text>
   </g>
  </g>
  <g id="text_9">
   <text style="fill:#386cc2;font-family:Lato;font-size:12px;font-style:normal;font-weight:bold;opacity:0.55;text-anchor:start;" transform="rotate(-0, 345.6, 324)" x="345.6" y="324">affinity (log)</text>
  </g>
  <g id="text_10">
   <text style="fill:#bf1328;font-family:Lato;font-size:12px;font-style:normal;font-weight:bold;opacity:0.55;text-anchor:start;" transform="rotate(-0, 345.6, 339.12)" x="345.6" y="339.12">AA lb index (log)</text>
  </g>
  <g id="text_11">
   <text style="fill:#386cc2;font-family:Lato;font-size:12px;font-style:normal;font-weight:bold;opacity:0.55;text-anchor:start;" transform="rotate(-0, 56.16, 401.76)" x="56.16" y="401.76">0.004</text>
  </g>
  <g id="text_12">
   <text style="fill:#386cc2;font-family:Lato;font-size:12px;font-style:normal;font-weight:bold;opacity:0.55;text-anchor:start;" transform="rotate(-0, 384.48, 401.76)" x="384.48" y="401.76">0.010</text>
  </g>
  <g id="text_13">
   <text style="fill:#386cc2;font-family:Lato;font-size:12px;font-style:normal;font-weight:bold;opacity:0.55;text-anchor:start;" transform="rotate(-0, 224.64, 419.04)" x="224.64" y="419.04">affinity</text>
  </g>
  <g id="text_14">
   <text style="fill:#386cc2;font-family:Lato;font-size:12px;font-style:normal;font-weight:bold;opacity:0.55;" transform="translate(21.6 30.49125)">sorted by</text>
   <text style="fill:#386cc2;font-family:Lato;font-size:12px;font-style:normal;font-weight:bold;opacity:0.55;" transform="translate(21.6 43.2)">mean top quintile aff.</text>
  </g>
 </g>
 <defs>
  <clipPath id="p885b85d1b5">
   <rect height="323.60625" width="336.950625" x="69.949375" y="39.375"/>
  </clipPath>
 </defs>
</svg>
