<?xml version="1.0" encoding="utf-8" standalone="no"?>
<!DOCTYPE svg PUBLIC "-//W3C//DTD SVG 1.1//EN"
  "http://www.w3.org/Graphics/SVG/1.1/DTD/svg11.dtd">
<!-- Created with matplotlib (http://matplotlib.org/) -->
<svg height="432pt" version="1.1" viewBox="0 0 432 432" width="432pt" xmlns="http://www.w3.org/2000/svg" xmlns:xlink="http://www.w3.org/1999/xlink">
 <defs>
  <style type="text/css">
*{stroke-linecap:butt;stroke-linejoin:round;}
  </style>
 </defs>
 <g id="figure_1">
  <g id="patch_1">
   <path d="M 0 432 
L 432 432 
L 432 0 
L 0 0 
z
" style="fill:#ffffff;"/>
  </g>
  <g id="axes_1">
   <g id="patch_2">
    <path d="M 69.949375 362.386875 
L 406.9 362.386875 
L 406.9 39.375 
L 69.949375 39.375 
z
" style="fill:#ffffff;"/>
   </g>
   <g id="matplotlib.axis_1">
    <g id="xtick_1">
     <g id="line2d_1">
      <defs>
       <path d="M 0 0 
L 0 3.5 
" id="m90d9d2ab24" style="stroke:#262626;stroke-width:0.8;"/>
      </defs>
      <g>
       <use style="fill:#262626;stroke:#262626;stroke-width:0.8;" x="89.568613" xlink:href="#m90d9d2ab24" y="362.386875"/>
      </g>
     </g>
     <g id="text_1">
      <text style="fill:#262626;font-family:Lato;font-size:8px;font-style:normal;font-weight:600;" transform="translate(91.870488 388.190625)rotate(-90)">-17.0</text>
     </g>
    </g>
    <g id="xtick_2">
     <g id="line2d_2">
      <g>
       <use style="fill:#262626;stroke:#262626;stroke-width:0.8;" x="188.805996" xlink:href="#m90d9d2ab24" y="362.386875"/>
      </g>
     </g>
     <g id="text_2">
      <text style="fill:#262626;font-family:Lato;font-size:8px;font-style:normal;font-weight:600;" transform="translate(191.107871 388.190625)rotate(-90)">-11.7</text>
     </g>
    </g>
    <g id="xtick_3">
     <g id="line2d_3">
      <g>
       <use style="fill:#262626;stroke:#262626;stroke-width:0.8;" x="288.043379" xlink:href="#m90d9d2ab24" y="362.386875"/>
      </g>
     </g>
     <g id="text_3">
      <text style="fill:#262626;font-family:Lato;font-size:8px;font-style:normal;font-weight:600;" transform="translate(290.345254 383.550625)rotate(-90)">-6.3</text>
     </g>
    </g>
    <g id="xtick_4">
     <g id="line2d_4">
      <g>
       <use style="fill:#262626;stroke:#262626;stroke-width:0.8;" x="387.280762" xlink:href="#m90d9d2ab24" y="362.386875"/>
      </g>
     </g>
     <g id="text_4">
      <text style="fill:#262626;font-family:Lato;font-size:8px;font-style:normal;font-weight:600;" transform="translate(389.582637 383.550625)rotate(-90)">-1.0</text>
     </g>
    </g>
    <g id="text_5">
     <text style="fill:#262626;font-family:Lato;font-size:20px;font-style:normal;font-weight:600;text-anchor:middle;" transform="rotate(-0, 238.424688, 407.05)" x="238.424688" y="407.05">aa-cdist</text>
    </g>
   </g>
   <g id="matplotlib.axis_2">
    <g id="ytick_1">
     <g id="line2d_5">
      <defs>
       <path d="M 0 0 
L -3.5 0 
" id="maa8d951e9e" style="stroke:#262626;stroke-width:0.8;"/>
      </defs>
      <g>
       <use style="fill:#262626;stroke:#262626;stroke-width:0.8;" x="69.949375" xlink:href="#maa8d951e9e" y="200.880937"/>
      </g>
     </g>
     <g id="text_6">
      <text style="fill:#262626;font-family:Lato;font-size:11px;font-style:normal;font-weight:600;text-anchor:end;" transform="rotate(-0, 62.949375, 204.967266)" x="62.949375" y="204.967266">161</text>
     </g>
    </g>
    <g id="text_7">
     <text style="fill:#262626;font-family:Lato;font-size:20px;font-style:normal;font-weight:600;text-anchor:middle;" transform="rotate(-90, 36.459375, 200.880937)" x="36.459375" y="200.880937">clonal family size</text>
    </g>
   </g>
   <g id="PolyCollection_1">
    <defs>
     <path d="M 84.663804 -241.470761 
L 84.663804 -231.119063 
L 105.165255 -231.119063 
L 105.165255 -241.470761 
L 105.165255 -241.470761 
L 84.663804 -241.470761 
z
" id="mfd36da01cb" style="stroke:#386cc2;stroke-opacity:0.55;"/>
    </defs>
    <g clip-path="url(#p64e32925cc)">
     <use style="fill:#386cc2;fill-opacity:0.55;stroke:#386cc2;stroke-opacity:0.55;" x="0" xlink:href="#mfd36da01cb" y="432"/>
    </g>
   </g>
   <g id="PolyCollection_2">
    <defs>
     <path d="M 105.165255 -252.832162 
L 105.165255 -231.119063 
L 125.666706 -231.119063 
L 125.666706 -252.832162 
L 125.666706 -252.832162 
L 105.165255 -252.832162 
z
" id="m6135b06709" style="stroke:#386cc2;stroke-opacity:0.55;"/>
    </defs>
    <g clip-path="url(#p64e32925cc)">
     <use style="fill:#386cc2;fill-opacity:0.55;stroke:#386cc2;stroke-opacity:0.55;" x="0" xlink:href="#m6135b06709" y="432"/>
    </g>
   </g>
   <g id="PolyCollection_3">
    <defs>
     <path d="M 125.666706 -261.122755 
L 125.666706 -231.119063 
L 146.168157 -231.119063 
L 146.168157 -261.122755 
L 146.168157 -261.122755 
L 125.666706 -261.122755 
z
" id="mfe0bc5b417" style="stroke:#386cc2;stroke-opacity:0.55;"/>
    </defs>
    <g clip-path="url(#p64e32925cc)">
     <use style="fill:#386cc2;fill-opacity:0.55;stroke:#386cc2;stroke-opacity:0.55;" x="0" xlink:href="#mfe0bc5b417" y="432"/>
    </g>
   </g>
   <g id="PolyCollection_4">
    <defs>
     <path d="M 146.168157 -257.418503 
L 146.168157 -231.119063 
L 166.669608 -231.119063 
L 166.669608 -257.418503 
L 166.669608 -257.418503 
L 146.168157 -257.418503 
z
" id="m0fc8c7dfbd" style="stroke:#386cc2;stroke-opacity:0.55;"/>
    </defs>
    <g clip-path="url(#p64e32925cc)">
     <use style="fill:#386cc2;fill-opacity:0.55;stroke:#386cc2;stroke-opacity:0.55;" x="0" xlink:href="#m0fc8c7dfbd" y="432"/>
    </g>
   </g>
   <g id="PolyCollection_5">
    <defs>
     <path d="M 166.669608 -261.835859 
L 166.669608 -231.119063 
L 187.17106 -231.119063 
L 187.17106 -261.835859 
L 187.17106 -261.835859 
L 166.669608 -261.835859 
z
" id="maa6ea2e612" style="stroke:#386cc2;stroke-opacity:0.55;"/>
    </defs>
    <g clip-path="url(#p64e32925cc)">
     <use style="fill:#386cc2;fill-opacity:0.55;stroke:#386cc2;stroke-opacity:0.55;" x="0" xlink:href="#maa6ea2e612" y="432"/>
    </g>
   </g>
   <g id="PolyCollection_6">
    <defs>
     <path d="M 187.17106 -266.022339 
L 187.17106 -231.119063 
L 207.672511 -231.119063 
L 207.672511 -266.022339 
L 207.672511 -266.022339 
L 187.17106 -266.022339 
z
" id="m993c3406eb" style="stroke:#386cc2;stroke-opacity:0.55;"/>
    </defs>
    <g clip-path="url(#p64e32925cc)">
     <use style="fill:#386cc2;fill-opacity:0.55;stroke:#386cc2;stroke-opacity:0.55;" x="0" xlink:href="#m993c3406eb" y="432"/>
    </g>
   </g>
   <g id="PolyCollection_7">
    <defs>
     <path d="M 207.672511 -231.60358 
L 207.672511 -231.119063 
L 228.173962 -231.119063 
L 228.173962 -231.60358 
L 228.173962 -231.60358 
L 207.672511 -231.60358 
z
" id="me957474240" style="stroke:#808080;stroke-opacity:0.4;"/>
    </defs>
    <g clip-path="url(#p64e32925cc)">
     <use style="fill:#808080;fill-opacity:0.4;stroke:#808080;stroke-opacity:0.4;" x="0" xlink:href="#me957474240" y="432"/>
    </g>
   </g>
   <g id="PolyCollection_8">
    <defs>
     <path d="M 228.173962 -268.17255 
L 228.173962 -231.119063 
L 248.675413 -231.119063 
L 248.675413 -268.17255 
L 248.675413 -268.17255 
L 228.173962 -268.17255 
z
" id="mec40809927" style="stroke:#386cc2;stroke-opacity:0.55;"/>
    </defs>
    <g clip-path="url(#p64e32925cc)">
     <use style="fill:#386cc2;fill-opacity:0.55;stroke:#386cc2;stroke-opacity:0.55;" x="0" xlink:href="#mec40809927" y="432"/>
    </g>
   </g>
   <g id="PolyCollection_9">
    <defs>
     <path d="M 248.675413 -231.60358 
L 248.675413 -231.119063 
L 269.176864 -231.119063 
L 269.176864 -231.60358 
L 269.176864 -231.60358 
L 248.675413 -231.60358 
z
" id="mecf90e9ea8" style="stroke:#808080;stroke-opacity:0.4;"/>
    </defs>
    <g clip-path="url(#p64e32925cc)">
     <use style="fill:#808080;fill-opacity:0.4;stroke:#808080;stroke-opacity:0.4;" x="0" xlink:href="#mecf90e9ea8" y="432"/>
    </g>
   </g>
   <g id="PolyCollection_10">
    <defs>
     <path d="M 269.176864 -271.495547 
L 269.176864 -231.119063 
L 289.678315 -231.119063 
L 289.678315 -271.495547 
L 289.678315 -271.495547 
L 269.176864 -271.495547 
z
" id="mf5a783aae5" style="stroke:#386cc2;stroke-opacity:0.55;"/>
    </defs>
    <g clip-path="url(#p64e32925cc)">
     <use style="fill:#386cc2;fill-opacity:0.55;stroke:#386cc2;stroke-opacity:0.55;" x="0" xlink:href="#mf5a783aae5" y="432"/>
    </g>
   </g>
   <g id="PolyCollection_11">
    <defs>
     <path d="M 289.678315 -231.60358 
L 289.678315 -231.119063 
L 310.179767 -231.119063 
L 310.179767 -231.60358 
L 310.179767 -231.60358 
L 289.678315 -231.60358 
z
" id="mcd747e00d7" style="stroke:#808080;stroke-opacity:0.4;"/>
    </defs>
    <g clip-path="url(#p64e32925cc)">
     <use style="fill:#808080;fill-opacity:0.4;stroke:#808080;stroke-opacity:0.4;" x="0" xlink:href="#mcd747e00d7" y="432"/>
    </g>
   </g>
   <g id="PolyCollection_12">
    <defs>
     <path d="M 310.179767 -270.126452 
L 310.179767 -231.119063 
L 330.681218 -231.119063 
L 330.681218 -270.126452 
L 330.681218 -270.126452 
L 310.179767 -270.126452 
z
" id="mfe3526398d" style="stroke:#386cc2;stroke-opacity:0.55;"/>
    </defs>
    <g clip-path="url(#p64e32925cc)">
     <use style="fill:#386cc2;fill-opacity:0.55;stroke:#386cc2;stroke-opacity:0.55;" x="0" xlink:href="#mfe3526398d" y="432"/>
    </g>
   </g>
   <g id="PolyCollection_13">
    <defs>
     <path d="M 330.681218 -231.60358 
L 330.681218 -231.119063 
L 351.182669 -231.119063 
L 351.182669 -231.60358 
L 351.182669 -231.60358 
L 330.681218 -231.60358 
z
" id="me5d29e0ae4" style="stroke:#808080;stroke-opacity:0.4;"/>
    </defs>
    <g clip-path="url(#p64e32925cc)">
     <use style="fill:#808080;fill-opacity:0.4;stroke:#808080;stroke-opacity:0.4;" x="0" xlink:href="#me5d29e0ae4" y="432"/>
    </g>
   </g>
   <g id="PolyCollection_14">
    <defs>
     <path d="M 351.182669 -231.60358 
L 351.182669 -231.119063 
L 371.68412 -231.119063 
L 371.68412 -231.60358 
L 371.68412 -231.60358 
L 351.182669 -231.60358 
z
" id="m4f086cdf5a" style="stroke:#808080;stroke-opacity:0.4;"/>
    </defs>
    <g clip-path="url(#p64e32925cc)">
     <use style="fill:#808080;fill-opacity:0.4;stroke:#808080;stroke-opacity:0.4;" x="0" xlink:href="#m4f086cdf5a" y="432"/>
    </g>
   </g>
   <g id="PolyCollection_15">
    <defs>
     <path d="M 371.68412 -258.512862 
L 371.68412 -231.119063 
L 392.185571 -231.119063 
L 392.185571 -258.512862 
L 392.185571 -258.512862 
L 371.68412 -258.512862 
z
" id="m72c76142e2" style="stroke:#386cc2;stroke-opacity:0.55;"/>
    </defs>
    <g clip-path="url(#p64e32925cc)">
     <use style="fill:#386cc2;fill-opacity:0.55;stroke:#386cc2;stroke-opacity:0.55;" x="0" xlink:href="#m72c76142e2" y="432"/>
    </g>
   </g>
   <g id="PolyCollection_16">
    <defs>
     <path d="M 86.591492 -231.119063 
L 86.591492 -209.866335 
L 96.713705 -209.866335 
L 96.713705 -231.119063 
L 96.713705 -231.119063 
L 86.591492 -231.119063 
z
" id="m5c77ce4319" style="stroke:#bf1328;stroke-opacity:0.55;"/>
    </defs>
    <g clip-path="url(#p64e32925cc)">
     <use style="fill:#bf1328;fill-opacity:0.55;stroke:#bf1328;stroke-opacity:0.55;" x="0" xlink:href="#m5c77ce4319" y="432"/>
    </g>
   </g>
   <g id="PolyCollection_17">
    <defs>
     <path d="M 96.713705 -231.119063 
L 96.713705 -230.634545 
L 106.835918 -230.634545 
L 106.835918 -231.119063 
L 106.835918 -231.119063 
L 96.713705 -231.119063 
z
" id="mfe60b7cec9" style="stroke:#808080;stroke-opacity:0.4;"/>
    </defs>
    <g clip-path="url(#p64e32925cc)">
     <use style="fill:#808080;fill-opacity:0.4;stroke:#808080;stroke-opacity:0.4;" x="0" xlink:href="#mfe60b7cec9" y="432"/>
    </g>
   </g>
   <g id="PolyCollection_18">
    <defs>
     <path d="M 106.835918 -231.119063 
L 106.835918 -230.634545 
L 116.958131 -230.634545 
L 116.958131 -231.119063 
L 116.958131 -231.119063 
L 106.835918 -231.119063 
z
" id="mb42874927e" style="stroke:#808080;stroke-opacity:0.4;"/>
    </defs>
    <g clip-path="url(#p64e32925cc)">
     <use style="fill:#808080;fill-opacity:0.4;stroke:#808080;stroke-opacity:0.4;" x="0" xlink:href="#mb42874927e" y="432"/>
    </g>
   </g>
   <g id="PolyCollection_19">
    <defs>
     <path d="M 116.958131 -231.119063 
L 116.958131 -219.775289 
L 127.080344 -219.775289 
L 127.080344 -231.119063 
L 127.080344 -231.119063 
L 116.958131 -231.119063 
z
" id="m533ffb0e41" style="stroke:#bf1328;stroke-opacity:0.55;"/>
    </defs>
    <g clip-path="url(#p64e32925cc)">
     <use style="fill:#bf1328;fill-opacity:0.55;stroke:#bf1328;stroke-opacity:0.55;" x="0" xlink:href="#m533ffb0e41" y="432"/>
    </g>
   </g>
   <g id="PolyCollection_20">
    <defs>
     <path d="M 127.080344 -231.119063 
L 127.080344 -230.634545 
L 137.202557 -230.634545 
L 137.202557 -231.119063 
L 137.202557 -231.119063 
L 127.080344 -231.119063 
z
" id="m85dc50bf22" style="stroke:#808080;stroke-opacity:0.4;"/>
    </defs>
    <g clip-path="url(#p64e32925cc)">
     <use style="fill:#808080;fill-opacity:0.4;stroke:#808080;stroke-opacity:0.4;" x="0" xlink:href="#m85dc50bf22" y="432"/>
    </g>
   </g>
   <g id="PolyCollection_21">
    <defs>
     <path d="M 137.202557 -231.119063 
L 137.202557 -213.523435 
L 147.32477 -213.523435 
L 147.32477 -231.119063 
L 147.32477 -231.119063 
L 137.202557 -231.119063 
z
" id="mc6606b99ee" style="stroke:#bf1328;stroke-opacity:0.55;"/>
    </defs>
    <g clip-path="url(#p64e32925cc)">
     <use style="fill:#bf1328;fill-opacity:0.55;stroke:#bf1328;stroke-opacity:0.55;" x="0" xlink:href="#mc6606b99ee" y="432"/>
    </g>
   </g>
   <g id="PolyCollection_22">
    <defs>
     <path d="M 147.32477 -231.119063 
L 147.32477 -230.634545 
L 157.446983 -230.634545 
L 157.446983 -231.119063 
L 157.446983 -231.119063 
L 147.32477 -231.119063 
z
" id="mce01c70383" style="stroke:#808080;stroke-opacity:0.4;"/>
    </defs>
    <g clip-path="url(#p64e32925cc)">
     <use style="fill:#808080;fill-opacity:0.4;stroke:#808080;stroke-opacity:0.4;" x="0" xlink:href="#mce01c70383" y="432"/>
    </g>
   </g>
   <g id="PolyCollection_23">
    <defs>
     <path d="M 157.446983 -231.119063 
L 157.446983 -213.523435 
L 167.569196 -213.523435 
L 167.569196 -231.119063 
L 167.569196 -231.119063 
L 157.446983 -231.119063 
z
" id="mb6f8aac7b3" style="stroke:#bf1328;stroke-opacity:0.55;"/>
    </defs>
    <g clip-path="url(#p64e32925cc)">
     <use style="fill:#bf1328;fill-opacity:0.55;stroke:#bf1328;stroke-opacity:0.55;" x="0" xlink:href="#mb6f8aac7b3" y="432"/>
    </g>
   </g>
   <g id="PolyCollection_24">
    <defs>
     <path d="M 167.569196 -231.119063 
L 167.569196 -230.634545 
L 177.691409 -230.634545 
L 177.691409 -231.119063 
L 177.691409 -231.119063 
L 167.569196 -231.119063 
z
" id="m073eea8c79" style="stroke:#808080;stroke-opacity:0.4;"/>
    </defs>
    <g clip-path="url(#p64e32925cc)">
     <use style="fill:#808080;fill-opacity:0.4;stroke:#808080;stroke-opacity:0.4;" x="0" xlink:href="#m073eea8c79" y="432"/>
    </g>
   </g>
   <g id="PolyCollection_25">
    <defs>
     <path d="M 177.691409 -231.119063 
L 177.691409 -207.271581 
L 187.813622 -207.271581 
L 187.813622 -231.119063 
L 187.813622 -231.119063 
L 177.691409 -231.119063 
z
" id="m2abeb03dde" style="stroke:#bf1328;stroke-opacity:0.55;"/>
    </defs>
    <g clip-path="url(#p64e32925cc)">
     <use style="fill:#bf1328;fill-opacity:0.55;stroke:#bf1328;stroke-opacity:0.55;" x="0" xlink:href="#m2abeb03dde" y="432"/>
    </g>
   </g>
   <g id="PolyCollection_26">
    <defs>
     <path d="M 187.813622 -231.119063 
L 187.813622 -230.634545 
L 197.935835 -230.634545 
L 197.935835 -231.119063 
L 197.935835 -231.119063 
L 187.813622 -231.119063 
z
" id="mdebe4946f6" style="stroke:#808080;stroke-opacity:0.4;"/>
    </defs>
    <g clip-path="url(#p64e32925cc)">
     <use style="fill:#808080;fill-opacity:0.4;stroke:#808080;stroke-opacity:0.4;" x="0" xlink:href="#mdebe4946f6" y="432"/>
    </g>
   </g>
   <g id="PolyCollection_27">
    <defs>
     <path d="M 197.935835 -231.119063 
L 197.935835 -203.614481 
L 208.058048 -203.614481 
L 208.058048 -231.119063 
L 208.058048 -231.119063 
L 197.935835 -231.119063 
z
" id="m322e127d01" style="stroke:#bf1328;stroke-opacity:0.55;"/>
    </defs>
    <g clip-path="url(#p64e32925cc)">
     <use style="fill:#bf1328;fill-opacity:0.55;stroke:#bf1328;stroke-opacity:0.55;" x="0" xlink:href="#m322e127d01" y="432"/>
    </g>
   </g>
   <g id="PolyCollection_28">
    <defs>
     <path d="M 208.058048 -231.119063 
L 208.058048 -230.634545 
L 218.180261 -230.634545 
L 218.180261 -231.119063 
L 218.180261 -231.119063 
L 208.058048 -231.119063 
z
" id="m27abed7467" style="stroke:#808080;stroke-opacity:0.4;"/>
    </defs>
    <g clip-path="url(#p64e32925cc)">
     <use style="fill:#808080;fill-opacity:0.4;stroke:#808080;stroke-opacity:0.4;" x="0" xlink:href="#m27abed7467" y="432"/>
    </g>
   </g>
   <g id="PolyCollection_29">
    <defs>
     <path d="M 218.180261 -231.119063 
L 218.180261 -199.00708 
L 228.302474 -199.00708 
L 228.302474 -231.119063 
L 228.302474 -231.119063 
L 218.180261 -231.119063 
z
" id="mb14e29df7f" style="stroke:#bf1328;stroke-opacity:0.55;"/>
    </defs>
    <g clip-path="url(#p64e32925cc)">
     <use style="fill:#bf1328;fill-opacity:0.55;stroke:#bf1328;stroke-opacity:0.55;" x="0" xlink:href="#mb14e29df7f" y="432"/>
    </g>
   </g>
   <g id="PolyCollection_30">
    <defs>
     <path d="M 228.302474 -231.119063 
L 228.302474 -230.634545 
L 238.424688 -230.634545 
L 238.424688 -231.119063 
L 238.424688 -231.119063 
L 228.302474 -231.119063 
z
" id="mdba801fd16" style="stroke:#808080;stroke-opacity:0.4;"/>
    </defs>
    <g clip-path="url(#p64e32925cc)">
     <use style="fill:#808080;fill-opacity:0.4;stroke:#808080;stroke-opacity:0.4;" x="0" xlink:href="#mdba801fd16" y="432"/>
    </g>
   </g>
   <g id="PolyCollection_31">
    <defs>
     <path d="M 238.424688 -231.119063 
L 238.424688 -199.957381 
L 248.546901 -199.957381 
L 248.546901 -231.119063 
L 248.546901 -231.119063 
L 238.424688 -231.119063 
z
" id="m1f6042dc7f" style="stroke:#bf1328;stroke-opacity:0.55;"/>
    </defs>
    <g clip-path="url(#p64e32925cc)">
     <use style="fill:#bf1328;fill-opacity:0.55;stroke:#bf1328;stroke-opacity:0.55;" x="0" xlink:href="#m1f6042dc7f" y="432"/>
    </g>
   </g>
   <g id="PolyCollection_32">
    <defs>
     <path d="M 248.546901 -231.119063 
L 248.546901 -191.110773 
L 258.669114 -191.110773 
L 258.669114 -231.119063 
L 258.669114 -231.119063 
L 248.546901 -231.119063 
z
" id="mcf6a58e359" style="stroke:#bf1328;stroke-opacity:0.55;"/>
    </defs>
    <g clip-path="url(#p64e32925cc)">
     <use style="fill:#bf1328;fill-opacity:0.55;stroke:#bf1328;stroke-opacity:0.55;" x="0" xlink:href="#mcf6a58e359" y="432"/>
    </g>
   </g>
   <g id="PolyCollection_33">
    <defs>
     <path d="M 258.669114 -231.119063 
L 258.669114 -230.634545 
L 268.791327 -230.634545 
L 268.791327 -231.119063 
L 268.791327 -231.119063 
L 258.669114 -231.119063 
z
" id="m7a35ecbc9d" style="stroke:#808080;stroke-opacity:0.4;"/>
    </defs>
    <g clip-path="url(#p64e32925cc)">
     <use style="fill:#808080;fill-opacity:0.4;stroke:#808080;stroke-opacity:0.4;" x="0" xlink:href="#m7a35ecbc9d" y="432"/>
    </g>
   </g>
   <g id="PolyCollection_34">
    <defs>
     <path d="M 268.791327 -231.119063 
L 268.791327 -191.49464 
L 278.91354 -191.49464 
L 278.91354 -231.119063 
L 278.91354 -231.119063 
L 268.791327 -231.119063 
z
" id="m49a7ba2c25" style="stroke:#bf1328;stroke-opacity:0.55;"/>
    </defs>
    <g clip-path="url(#p64e32925cc)">
     <use style="fill:#bf1328;fill-opacity:0.55;stroke:#bf1328;stroke-opacity:0.55;" x="0" xlink:href="#m49a7ba2c25" y="432"/>
    </g>
   </g>
   <g id="PolyCollection_35">
    <defs>
     <path d="M 278.91354 -231.119063 
L 278.91354 -230.634545 
L 289.035753 -230.634545 
L 289.035753 -231.119063 
L 289.035753 -231.119063 
L 278.91354 -231.119063 
z
" id="m0b2ab3ffbd" style="stroke:#808080;stroke-opacity:0.4;"/>
    </defs>
    <g clip-path="url(#p64e32925cc)">
     <use style="fill:#808080;fill-opacity:0.4;stroke:#808080;stroke-opacity:0.4;" x="0" xlink:href="#m0b2ab3ffbd" y="432"/>
    </g>
   </g>
   <g id="PolyCollection_36">
    <defs>
     <path d="M 289.035753 -231.119063 
L 289.035753 -193.217866 
L 299.157966 -193.217866 
L 299.157966 -231.119063 
L 299.157966 -231.119063 
L 289.035753 -231.119063 
z
" id="m784ad1aa6e" style="stroke:#bf1328;stroke-opacity:0.55;"/>
    </defs>
    <g clip-path="url(#p64e32925cc)">
     <use style="fill:#bf1328;fill-opacity:0.55;stroke:#bf1328;stroke-opacity:0.55;" x="0" xlink:href="#m784ad1aa6e" y="432"/>
    </g>
   </g>
   <g id="PolyCollection_37">
    <defs>
     <path d="M 299.157966 -231.119063 
L 299.157966 -230.634545 
L 309.280179 -230.634545 
L 309.280179 -231.119063 
L 309.280179 -231.119063 
L 299.157966 -231.119063 
z
" id="mc984bc24ab" style="stroke:#808080;stroke-opacity:0.4;"/>
    </defs>
    <g clip-path="url(#p64e32925cc)">
     <use style="fill:#808080;fill-opacity:0.4;stroke:#808080;stroke-opacity:0.4;" x="0" xlink:href="#mc984bc24ab" y="432"/>
    </g>
   </g>
   <g id="PolyCollection_38">
    <defs>
     <path d="M 309.280179 -231.119063 
L 309.280179 -190.742578 
L 319.402392 -190.742578 
L 319.402392 -231.119063 
L 319.402392 -231.119063 
L 309.280179 -231.119063 
z
" id="m2adb29f2ca" style="stroke:#bf1328;stroke-opacity:0.55;"/>
    </defs>
    <g clip-path="url(#p64e32925cc)">
     <use style="fill:#bf1328;fill-opacity:0.55;stroke:#bf1328;stroke-opacity:0.55;" x="0" xlink:href="#m2adb29f2ca" y="432"/>
    </g>
   </g>
   <g id="PolyCollection_39">
    <defs>
     <path d="M 319.402392 -231.119063 
L 319.402392 -230.634545 
L 329.524605 -230.634545 
L 329.524605 -231.119063 
L 329.524605 -231.119063 
L 319.402392 -231.119063 
z
" id="mb81539709f" style="stroke:#808080;stroke-opacity:0.4;"/>
    </defs>
    <g clip-path="url(#p64e32925cc)">
     <use style="fill:#808080;fill-opacity:0.4;stroke:#808080;stroke-opacity:0.4;" x="0" xlink:href="#mb81539709f" y="432"/>
    </g>
   </g>
   <g id="PolyCollection_40">
    <defs>
     <path d="M 329.524605 -231.119063 
L 329.524605 -193.217866 
L 339.646818 -193.217866 
L 339.646818 -231.119063 
L 339.646818 -231.119063 
L 329.524605 -231.119063 
z
" id="md07678c643" style="stroke:#bf1328;stroke-opacity:0.55;"/>
    </defs>
    <g clip-path="url(#p64e32925cc)">
     <use style="fill:#bf1328;fill-opacity:0.55;stroke:#bf1328;stroke-opacity:0.55;" x="0" xlink:href="#md07678c643" y="432"/>
    </g>
   </g>
   <g id="PolyCollection_41">
    <defs>
     <path d="M 339.646818 -231.119063 
L 339.646818 -230.634545 
L 349.769031 -230.634545 
L 349.769031 -231.119063 
L 349.769031 -231.119063 
L 339.646818 -231.119063 
z
" id="m4a43b4b109" style="stroke:#808080;stroke-opacity:0.4;"/>
    </defs>
    <g clip-path="url(#p64e32925cc)">
     <use style="fill:#808080;fill-opacity:0.4;stroke:#808080;stroke-opacity:0.4;" x="0" xlink:href="#m4a43b4b109" y="432"/>
    </g>
   </g>
   <g id="PolyCollection_42">
    <defs>
     <path d="M 349.769031 -231.119063 
L 349.769031 -203.614481 
L 359.891244 -203.614481 
L 359.891244 -231.119063 
L 359.891244 -231.119063 
L 349.769031 -231.119063 
z
" id="m9cb201c629" style="stroke:#bf1328;stroke-opacity:0.55;"/>
    </defs>
    <g clip-path="url(#p64e32925cc)">
     <use style="fill:#bf1328;fill-opacity:0.55;stroke:#bf1328;stroke-opacity:0.55;" x="0" xlink:href="#m9cb201c629" y="432"/>
    </g>
   </g>
   <g id="PolyCollection_43">
    <defs>
     <path d="M 359.891244 -231.119063 
L 359.891244 -207.271581 
L 370.013457 -207.271581 
L 370.013457 -231.119063 
L 370.013457 -231.119063 
L 359.891244 -231.119063 
z
" id="mc18a1031ef" style="stroke:#bf1328;stroke-opacity:0.55;"/>
    </defs>
    <g clip-path="url(#p64e32925cc)">
     <use style="fill:#bf1328;fill-opacity:0.55;stroke:#bf1328;stroke-opacity:0.55;" x="0" xlink:href="#mc18a1031ef" y="432"/>
    </g>
   </g>
   <g id="PolyCollection_44">
    <defs>
     <path d="M 370.013457 -231.119063 
L 370.013457 -230.634545 
L 380.13567 -230.634545 
L 380.13567 -231.119063 
L 380.13567 -231.119063 
L 370.013457 -231.119063 
z
" id="m88e54c39e6" style="stroke:#808080;stroke-opacity:0.4;"/>
    </defs>
    <g clip-path="url(#p64e32925cc)">
     <use style="fill:#808080;fill-opacity:0.4;stroke:#808080;stroke-opacity:0.4;" x="0" xlink:href="#m88e54c39e6" y="432"/>
    </g>
   </g>
   <g id="PolyCollection_45">
    <defs>
     <path d="M 380.13567 -231.119063 
L 380.13567 -207.271581 
L 390.257883 -207.271581 
L 390.257883 -231.119063 
L 390.257883 -231.119063 
L 380.13567 -231.119063 
z
" id="m4b2d8b0923" style="stroke:#bf1328;stroke-opacity:0.55;"/>
    </defs>
    <g clip-path="url(#p64e32925cc)">
     <use style="fill:#bf1328;fill-opacity:0.55;stroke:#bf1328;stroke-opacity:0.55;" x="0" xlink:href="#m4b2d8b0923" y="432"/>
    </g>
   </g>
   <g id="line2d_6">
    <path clip-path="url(#p64e32925cc)" d="M 343.127117 200.880937 
L 343.127117 -1 
" style="fill:none;stroke:#008000;stroke-linecap:round;stroke-opacity:0.55;stroke-width:2.5;"/>
   </g>
   <g id="patch_3">
    <path d="M 69.949375 362.386875 
L 69.949375 39.375 
" style="fill:none;stroke:#262626;stroke-linecap:square;stroke-linejoin:miter;stroke-width:0.8;"/>
   </g>
   <g id="patch_4">
    <path d="M 69.949375 362.386875 
L 406.9 362.386875 
" style="fill:none;stroke:#262626;stroke-linecap:square;stroke-linejoin:miter;stroke-width:0.8;"/>
   </g>
   <g id="text_8">
    <text style="fill:#262626;font-family:Lato;font-size:15px;font-style:normal;font-weight:bold;text-anchor:middle;" transform="rotate(-0, 238.424688, 33.375)" x="238.424688" y="33.375">affinity and aa-cdist (1 / 1)</text>
   </g>
  </g>
  <g id="text_9">
   <text style="fill:#386cc2;font-family:Lato;font-size:12px;font-style:normal;font-weight:bold;opacity:0.55;text-anchor:start;" transform="rotate(-0, 345.6, 324)" x="345.6" y="324">affinity (log)</text>
  </g>
  <g id="text_10">
   <text style="fill:#bf1328;font-family:Lato;font-size:12px;font-style:normal;font-weight:bold;opacity:0.55;text-anchor:start;" transform="rotate(-0, 345.6, 339.12)" x="345.6" y="339.12">aa-cdist (log)</text>
  </g>
  <g id="text_11">
   <text style="fill:#386cc2;font-family:Lato;font-size:12px;font-style:normal;font-weight:bold;opacity:0.55;text-anchor:start;" transform="rotate(-0, 56.16, 401.76)" x="56.16" y="401.76">0.004</text>
  </g>
  <g id="text_12">
   <text style="fill:#386cc2;font-family:Lato;font-size:12px;font-style:normal;font-weight:bold;opacity:0.55;text-anchor:start;" transform="rotate(-0, 384.48, 401.76)" x="384.48" y="401.76">0.010</text>
  </g>
  <g id="text_13">
   <text style="fill:#386cc2;font-family:Lato;font-size:12px;font-style:normal;font-weight:bold;opacity:0.55;text-anchor:start;" transform="rotate(-0, 224.64, 419.04)" x="224.64" y="419.04">affinity</text>
  </g>
  <g id="text_14">
   <text style="fill:#386cc2;font-family:Lato;font-size:12px;font-style:normal;font-weight:bold;opacity:0.55;" transform="translate(21.6 30.49125)">sorted by</text>
   <text style="fill:#386cc2;font-family:Lato;font-size:12px;font-style:normal;font-weight:bold;opacity:0.55;" transform="translate(21.6 43.2)">mean top quintile aff.</text>
  </g>
 </g>
 <defs>
  <clipPath id="p64e32925cc">
   <rect height="323.011875" width="336.950625" x="69.949375" y="39.375"/>
  </clipPath>
 </defs>
</svg>
