<?xml version="1.0" encoding="utf-8" standalone="no"?>
<!DOCTYPE svg PUBLIC "-//W3C//DTD SVG 1.1//EN"
  "http://www.w3.org/Graphics/SVG/1.1/DTD/svg11.dtd">
<!-- Created with matplotlib (http://matplotlib.org/) -->
<svg height="432pt" version="1.1" viewBox="0 0 432 432" width="432pt" xmlns="http://www.w3.org/2000/svg" xmlns:xlink="http://www.w3.org/1999/xlink">
 <defs>
  <style type="text/css">
*{stroke-linecap:butt;stroke-linejoin:round;}
  </style>
 </defs>
 <g id="figure_1">
  <g id="patch_1">
   <path d="M 0 432 
L 432 432 
L 432 0 
L 0 0 
z
" style="fill:#ffffff;"/>
  </g>
  <g id="axes_1">
   <g id="patch_2">
    <path d="M 69.949375 362.98125 
L 406.9 362.98125 
L 406.9 39.375 
L 69.949375 39.375 
z
" style="fill:#ffffff;"/>
   </g>
   <g id="matplotlib.axis_1">
    <g id="xtick_1">
     <g id="line2d_1">
      <defs>
       <path d="M 0 0 
L 0 3.5 
" id="ma4c08d12c5" style="stroke:#262626;stroke-width:0.8;"/>
      </defs>
      <g>
       <use style="fill:#262626;stroke:#262626;stroke-width:0.8;" x="89.568613" xlink:href="#ma4c08d12c5" y="362.98125"/>
      </g>
     </g>
     <g id="text_1">
      <text style="fill:#262626;font-family:Lato;font-size:20px;font-style:normal;font-weight:600;text-anchor:middle;" transform="rotate(-0, 89.568613, 384.840625)" x="89.568613" y="384.840625">0.0</text>
     </g>
    </g>
    <g id="xtick_2">
     <g id="line2d_2">
      <g>
       <use style="fill:#262626;stroke:#262626;stroke-width:0.8;" x="188.805996" xlink:href="#ma4c08d12c5" y="362.98125"/>
      </g>
     </g>
     <g id="text_2">
      <text style="fill:#262626;font-family:Lato;font-size:20px;font-style:normal;font-weight:600;text-anchor:middle;" transform="rotate(-0, 188.805996, 384.840625)" x="188.805996" y="384.840625">0.5</text>
     </g>
    </g>
    <g id="xtick_3">
     <g id="line2d_3">
      <g>
       <use style="fill:#262626;stroke:#262626;stroke-width:0.8;" x="288.043379" xlink:href="#ma4c08d12c5" y="362.98125"/>
      </g>
     </g>
     <g id="text_3">
      <text style="fill:#262626;font-family:Lato;font-size:20px;font-style:normal;font-weight:600;text-anchor:middle;" transform="rotate(-0, 288.043379, 384.840625)" x="288.043379" y="384.840625">1.0</text>
     </g>
    </g>
    <g id="xtick_4">
     <g id="line2d_4">
      <g>
       <use style="fill:#262626;stroke:#262626;stroke-width:0.8;" x="387.280762" xlink:href="#ma4c08d12c5" y="362.98125"/>
      </g>
     </g>
     <g id="text_4">
      <text style="fill:#262626;font-family:Lato;font-size:20px;font-style:normal;font-weight:600;text-anchor:middle;" transform="rotate(-0, 387.280762, 384.840625)" x="387.280762" y="384.840625">1.5</text>
     </g>
    </g>
    <g id="text_5">
     <text style="fill:#262626;font-family:Lato;font-size:20px;font-style:normal;font-weight:600;text-anchor:middle;" transform="rotate(-0, 238.424688, 407.05)" x="238.424688" y="407.05">lb index</text>
    </g>
   </g>
   <g id="matplotlib.axis_2">
    <g id="ytick_1">
     <g id="line2d_5">
      <defs>
       <path d="M 0 0 
L -3.5 0 
" id="m5719fcd7ec" style="stroke:#262626;stroke-width:0.8;"/>
      </defs>
      <g>
       <use style="fill:#262626;stroke:#262626;stroke-width:0.8;" x="69.949375" xlink:href="#m5719fcd7ec" y="201.178125"/>
      </g>
     </g>
     <g id="text_6">
      <text style="fill:#262626;font-family:Lato;font-size:11px;font-style:normal;font-weight:600;text-anchor:end;" transform="rotate(-0, 62.949375, 205.264453)" x="62.949375" y="205.264453">161</text>
     </g>
    </g>
    <g id="text_7">
     <text style="fill:#262626;font-family:Lato;font-size:20px;font-style:normal;font-weight:600;text-anchor:middle;" transform="rotate(-90, 36.459375, 201.178125)" x="36.459375" y="201.178125">clonal family size</text>
    </g>
   </g>
   <g id="PolyCollection_1">
    <defs>
     <path d="M 84.663804 -241.192622 
L 84.663804 -230.821875 
L 105.165255 -230.821875 
L 105.165255 -241.192622 
L 105.165255 -241.192622 
L 84.663804 -241.192622 
z
" id="m071b7cfddb" style="stroke:#386cc2;stroke-opacity:0.55;"/>
    </defs>
    <g clip-path="url(#p75394a160f)">
     <use style="fill:#386cc2;fill-opacity:0.55;stroke:#386cc2;stroke-opacity:0.55;" x="0" xlink:href="#m071b7cfddb" y="432"/>
    </g>
   </g>
   <g id="PolyCollection_2">
    <defs>
     <path d="M 105.165255 -252.574929 
L 105.165255 -230.821875 
L 125.666706 -230.821875 
L 125.666706 -252.574929 
L 125.666706 -252.574929 
L 105.165255 -252.574929 
z
" id="m1533c19158" style="stroke:#386cc2;stroke-opacity:0.55;"/>
    </defs>
    <g clip-path="url(#p75394a160f)">
     <use style="fill:#386cc2;fill-opacity:0.55;stroke:#386cc2;stroke-opacity:0.55;" x="0" xlink:href="#m1533c19158" y="432"/>
    </g>
   </g>
   <g id="PolyCollection_3">
    <defs>
     <path d="M 125.666706 -260.880778 
L 125.666706 -230.821875 
L 146.168157 -230.821875 
L 146.168157 -260.880778 
L 146.168157 -260.880778 
L 125.666706 -260.880778 
z
" id="m66b111a4d4" style="stroke:#386cc2;stroke-opacity:0.55;"/>
    </defs>
    <g clip-path="url(#p75394a160f)">
     <use style="fill:#386cc2;fill-opacity:0.55;stroke:#386cc2;stroke-opacity:0.55;" x="0" xlink:href="#m66b111a4d4" y="432"/>
    </g>
   </g>
   <g id="PolyCollection_4">
    <defs>
     <path d="M 146.168157 -257.169709 
L 146.168157 -230.821875 
L 166.669608 -230.821875 
L 166.669608 -257.169709 
L 166.669608 -257.169709 
L 146.168157 -257.169709 
z
" id="m84bc67a45b" style="stroke:#386cc2;stroke-opacity:0.55;"/>
    </defs>
    <g clip-path="url(#p75394a160f)">
     <use style="fill:#386cc2;fill-opacity:0.55;stroke:#386cc2;stroke-opacity:0.55;" x="0" xlink:href="#m84bc67a45b" y="432"/>
    </g>
   </g>
   <g id="PolyCollection_5">
    <defs>
     <path d="M 166.669608 -261.595193 
L 166.669608 -230.821875 
L 187.17106 -230.821875 
L 187.17106 -261.595193 
L 187.17106 -261.595193 
L 166.669608 -261.595193 
z
" id="mc97c5fc353" style="stroke:#386cc2;stroke-opacity:0.55;"/>
    </defs>
    <g clip-path="url(#p75394a160f)">
     <use style="fill:#386cc2;fill-opacity:0.55;stroke:#386cc2;stroke-opacity:0.55;" x="0" xlink:href="#mc97c5fc353" y="432"/>
    </g>
   </g>
   <g id="PolyCollection_6">
    <defs>
     <path d="M 187.17106 -265.789377 
L 187.17106 -230.821875 
L 207.672511 -230.821875 
L 207.672511 -265.789377 
L 207.672511 -265.789377 
L 187.17106 -265.789377 
z
" id="m4ed5afb79f" style="stroke:#386cc2;stroke-opacity:0.55;"/>
    </defs>
    <g clip-path="url(#p75394a160f)">
     <use style="fill:#386cc2;fill-opacity:0.55;stroke:#386cc2;stroke-opacity:0.55;" x="0" xlink:href="#m4ed5afb79f" y="432"/>
    </g>
   </g>
   <g id="PolyCollection_7">
    <defs>
     <path d="M 207.672511 -231.307284 
L 207.672511 -230.821875 
L 228.173962 -230.821875 
L 228.173962 -231.307284 
L 228.173962 -231.307284 
L 207.672511 -231.307284 
z
" id="mb2666934d5" style="stroke:#808080;stroke-opacity:0.4;"/>
    </defs>
    <g clip-path="url(#p75394a160f)">
     <use style="fill:#808080;fill-opacity:0.4;stroke:#808080;stroke-opacity:0.4;" x="0" xlink:href="#mb2666934d5" y="432"/>
    </g>
   </g>
   <g id="PolyCollection_8">
    <defs>
     <path d="M 228.173962 -267.943545 
L 228.173962 -230.821875 
L 248.675413 -230.821875 
L 248.675413 -267.943545 
L 248.675413 -267.943545 
L 228.173962 -267.943545 
z
" id="md99f5c5eb6" style="stroke:#386cc2;stroke-opacity:0.55;"/>
    </defs>
    <g clip-path="url(#p75394a160f)">
     <use style="fill:#386cc2;fill-opacity:0.55;stroke:#386cc2;stroke-opacity:0.55;" x="0" xlink:href="#md99f5c5eb6" y="432"/>
    </g>
   </g>
   <g id="PolyCollection_9">
    <defs>
     <path d="M 248.675413 -231.307284 
L 248.675413 -230.821875 
L 269.176864 -230.821875 
L 269.176864 -231.307284 
L 269.176864 -231.307284 
L 248.675413 -231.307284 
z
" id="m59bbce4d33" style="stroke:#808080;stroke-opacity:0.4;"/>
    </defs>
    <g clip-path="url(#p75394a160f)">
     <use style="fill:#808080;fill-opacity:0.4;stroke:#808080;stroke-opacity:0.4;" x="0" xlink:href="#m59bbce4d33" y="432"/>
    </g>
   </g>
   <g id="PolyCollection_10">
    <defs>
     <path d="M 269.176864 -271.272656 
L 269.176864 -230.821875 
L 289.678315 -230.821875 
L 289.678315 -271.272656 
L 289.678315 -271.272656 
L 269.176864 -271.272656 
z
" id="m148d09a966" style="stroke:#386cc2;stroke-opacity:0.55;"/>
    </defs>
    <g clip-path="url(#p75394a160f)">
     <use style="fill:#386cc2;fill-opacity:0.55;stroke:#386cc2;stroke-opacity:0.55;" x="0" xlink:href="#m148d09a966" y="432"/>
    </g>
   </g>
   <g id="PolyCollection_11">
    <defs>
     <path d="M 289.678315 -231.307284 
L 289.678315 -230.821875 
L 310.179767 -230.821875 
L 310.179767 -231.307284 
L 310.179767 -231.307284 
L 289.678315 -231.307284 
z
" id="m0eb1ae31dc" style="stroke:#808080;stroke-opacity:0.4;"/>
    </defs>
    <g clip-path="url(#p75394a160f)">
     <use style="fill:#808080;fill-opacity:0.4;stroke:#808080;stroke-opacity:0.4;" x="0" xlink:href="#m0eb1ae31dc" y="432"/>
    </g>
   </g>
   <g id="PolyCollection_12">
    <defs>
     <path d="M 310.179767 -269.901042 
L 310.179767 -230.821875 
L 330.681218 -230.821875 
L 330.681218 -269.901042 
L 330.681218 -269.901042 
L 310.179767 -269.901042 
z
" id="m798a397609" style="stroke:#386cc2;stroke-opacity:0.55;"/>
    </defs>
    <g clip-path="url(#p75394a160f)">
     <use style="fill:#386cc2;fill-opacity:0.55;stroke:#386cc2;stroke-opacity:0.55;" x="0" xlink:href="#m798a397609" y="432"/>
    </g>
   </g>
   <g id="PolyCollection_13">
    <defs>
     <path d="M 330.681218 -231.307284 
L 330.681218 -230.821875 
L 351.182669 -230.821875 
L 351.182669 -231.307284 
L 351.182669 -231.307284 
L 330.681218 -231.307284 
z
" id="mdf1eeb634b" style="stroke:#808080;stroke-opacity:0.4;"/>
    </defs>
    <g clip-path="url(#p75394a160f)">
     <use style="fill:#808080;fill-opacity:0.4;stroke:#808080;stroke-opacity:0.4;" x="0" xlink:href="#mdf1eeb634b" y="432"/>
    </g>
   </g>
   <g id="PolyCollection_14">
    <defs>
     <path d="M 351.182669 -231.307284 
L 351.182669 -230.821875 
L 371.68412 -230.821875 
L 371.68412 -231.307284 
L 371.68412 -231.307284 
L 351.182669 -231.307284 
z
" id="mdc08a8d206" style="stroke:#808080;stroke-opacity:0.4;"/>
    </defs>
    <g clip-path="url(#p75394a160f)">
     <use style="fill:#808080;fill-opacity:0.4;stroke:#808080;stroke-opacity:0.4;" x="0" xlink:href="#mdc08a8d206" y="432"/>
    </g>
   </g>
   <g id="PolyCollection_15">
    <defs>
     <path d="M 371.68412 -258.266082 
L 371.68412 -230.821875 
L 392.185571 -230.821875 
L 392.185571 -258.266082 
L 392.185571 -258.266082 
L 371.68412 -258.266082 
z
" id="mb95ea0f691" style="stroke:#386cc2;stroke-opacity:0.55;"/>
    </defs>
    <g clip-path="url(#p75394a160f)">
     <use style="fill:#386cc2;fill-opacity:0.55;stroke:#386cc2;stroke-opacity:0.55;" x="0" xlink:href="#mb95ea0f691" y="432"/>
    </g>
   </g>
   <g id="PolyCollection_16">
    <defs>
     <path d="M 86.591492 -230.821875 
L 86.591492 -190.371094 
L 96.713705 -190.371094 
L 96.713705 -230.821875 
L 96.713705 -230.821875 
L 86.591492 -230.821875 
z
" id="mcbf0bdc200" style="stroke:#bf1328;stroke-opacity:0.55;"/>
    </defs>
    <g clip-path="url(#p75394a160f)">
     <use style="fill:#bf1328;fill-opacity:0.55;stroke:#bf1328;stroke-opacity:0.55;" x="0" xlink:href="#mcbf0bdc200" y="432"/>
    </g>
   </g>
   <g id="PolyCollection_17">
    <defs>
     <path d="M 96.713705 -230.821875 
L 96.713705 -201.907369 
L 106.835918 -201.907369 
L 106.835918 -230.821875 
L 106.835918 -230.821875 
L 96.713705 -230.821875 
z
" id="mcfc07aac13" style="stroke:#bf1328;stroke-opacity:0.55;"/>
    </defs>
    <g clip-path="url(#p75394a160f)">
     <use style="fill:#bf1328;fill-opacity:0.55;stroke:#bf1328;stroke-opacity:0.55;" x="0" xlink:href="#mcfc07aac13" y="432"/>
    </g>
   </g>
   <g id="PolyCollection_18">
    <defs>
     <path d="M 106.835918 -230.821875 
L 106.835918 -199.883846 
L 116.958131 -199.883846 
L 116.958131 -230.821875 
L 116.958131 -230.821875 
L 106.835918 -230.821875 
z
" id="md342f4ae80" style="stroke:#bf1328;stroke-opacity:0.55;"/>
    </defs>
    <g clip-path="url(#p75394a160f)">
     <use style="fill:#bf1328;fill-opacity:0.55;stroke:#bf1328;stroke-opacity:0.55;" x="0" xlink:href="#md342f4ae80" y="432"/>
    </g>
   </g>
   <g id="PolyCollection_19">
    <defs>
     <path d="M 116.958131 -230.821875 
L 116.958131 -230.336466 
L 127.080344 -230.336466 
L 127.080344 -230.821875 
L 127.080344 -230.821875 
L 116.958131 -230.821875 
z
" id="m482d36effc" style="stroke:#808080;stroke-opacity:0.4;"/>
    </defs>
    <g clip-path="url(#p75394a160f)">
     <use style="fill:#808080;fill-opacity:0.4;stroke:#808080;stroke-opacity:0.4;" x="0" xlink:href="#m482d36effc" y="432"/>
    </g>
   </g>
   <g id="PolyCollection_20">
    <defs>
     <path d="M 127.080344 -230.821875 
L 127.080344 -203.167463 
L 137.202557 -203.167463 
L 137.202557 -230.821875 
L 137.202557 -230.821875 
L 127.080344 -230.821875 
z
" id="m99a9b8003b" style="stroke:#bf1328;stroke-opacity:0.55;"/>
    </defs>
    <g clip-path="url(#p75394a160f)">
     <use style="fill:#bf1328;fill-opacity:0.55;stroke:#bf1328;stroke-opacity:0.55;" x="0" xlink:href="#m99a9b8003b" y="432"/>
    </g>
   </g>
   <g id="PolyCollection_21">
    <defs>
     <path d="M 137.202557 -230.821875 
L 137.202557 -210.798 
L 147.32477 -210.798 
L 147.32477 -230.821875 
L 147.32477 -230.821875 
L 137.202557 -230.821875 
z
" id="mc1fa605630" style="stroke:#bf1328;stroke-opacity:0.55;"/>
    </defs>
    <g clip-path="url(#p75394a160f)">
     <use style="fill:#bf1328;fill-opacity:0.55;stroke:#bf1328;stroke-opacity:0.55;" x="0" xlink:href="#mc1fa605630" y="432"/>
    </g>
   </g>
   <g id="PolyCollection_22">
    <defs>
     <path d="M 147.32477 -230.821875 
L 147.32477 -202.511134 
L 157.446983 -202.511134 
L 157.446983 -230.821875 
L 157.446983 -230.821875 
L 147.32477 -230.821875 
z
" id="m030388c453" style="stroke:#bf1328;stroke-opacity:0.55;"/>
    </defs>
    <g clip-path="url(#p75394a160f)">
     <use style="fill:#bf1328;fill-opacity:0.55;stroke:#bf1328;stroke-opacity:0.55;" x="0" xlink:href="#m030388c453" y="432"/>
    </g>
   </g>
   <g id="PolyCollection_23">
    <defs>
     <path d="M 157.446983 -230.821875 
L 157.446983 -204.681129 
L 167.569196 -204.681129 
L 167.569196 -230.821875 
L 167.569196 -230.821875 
L 157.446983 -230.821875 
z
" id="m86b8fa94ad" style="stroke:#bf1328;stroke-opacity:0.55;"/>
    </defs>
    <g clip-path="url(#p75394a160f)">
     <use style="fill:#bf1328;fill-opacity:0.55;stroke:#bf1328;stroke-opacity:0.55;" x="0" xlink:href="#m86b8fa94ad" y="432"/>
    </g>
   </g>
   <g id="PolyCollection_24">
    <defs>
     <path d="M 167.569196 -230.821875 
L 167.569196 -207.739564 
L 177.691409 -207.739564 
L 177.691409 -230.821875 
L 177.691409 -230.821875 
L 167.569196 -230.821875 
z
" id="m2cb6001694" style="stroke:#bf1328;stroke-opacity:0.55;"/>
    </defs>
    <g clip-path="url(#p75394a160f)">
     <use style="fill:#bf1328;fill-opacity:0.55;stroke:#bf1328;stroke-opacity:0.55;" x="0" xlink:href="#m2cb6001694" y="432"/>
    </g>
   </g>
   <g id="PolyCollection_25">
    <defs>
     <path d="M 177.691409 -230.821875 
L 177.691409 -216.026431 
L 187.813622 -216.026431 
L 187.813622 -230.821875 
L 187.813622 -230.821875 
L 177.691409 -230.821875 
z
" id="m6d3f636296" style="stroke:#bf1328;stroke-opacity:0.55;"/>
    </defs>
    <g clip-path="url(#p75394a160f)">
     <use style="fill:#bf1328;fill-opacity:0.55;stroke:#bf1328;stroke-opacity:0.55;" x="0" xlink:href="#m6d3f636296" y="432"/>
    </g>
   </g>
   <g id="PolyCollection_26">
    <defs>
     <path d="M 187.813622 -230.821875 
L 187.813622 -210.798 
L 197.935835 -210.798 
L 197.935835 -230.821875 
L 197.935835 -230.821875 
L 187.813622 -230.821875 
z
" id="m15a3e725d0" style="stroke:#bf1328;stroke-opacity:0.55;"/>
    </defs>
    <g clip-path="url(#p75394a160f)">
     <use style="fill:#bf1328;fill-opacity:0.55;stroke:#bf1328;stroke-opacity:0.55;" x="0" xlink:href="#m15a3e725d0" y="432"/>
    </g>
   </g>
   <g id="PolyCollection_27">
    <defs>
     <path d="M 197.935835 -230.821875 
L 197.935835 -209.114822 
L 208.058048 -209.114822 
L 208.058048 -230.821875 
L 208.058048 -230.821875 
L 197.935835 -230.821875 
z
" id="m6fc927d905" style="stroke:#bf1328;stroke-opacity:0.55;"/>
    </defs>
    <g clip-path="url(#p75394a160f)">
     <use style="fill:#bf1328;fill-opacity:0.55;stroke:#bf1328;stroke-opacity:0.55;" x="0" xlink:href="#m6fc927d905" y="432"/>
    </g>
   </g>
   <g id="PolyCollection_28">
    <defs>
     <path d="M 208.058048 -230.821875 
L 208.058048 -212.967995 
L 218.180261 -212.967995 
L 218.180261 -230.821875 
L 218.180261 -230.821875 
L 208.058048 -230.821875 
z
" id="m4d52d6b539" style="stroke:#bf1328;stroke-opacity:0.55;"/>
    </defs>
    <g clip-path="url(#p75394a160f)">
     <use style="fill:#bf1328;fill-opacity:0.55;stroke:#bf1328;stroke-opacity:0.55;" x="0" xlink:href="#m4d52d6b539" y="432"/>
    </g>
   </g>
   <g id="PolyCollection_29">
    <defs>
     <path d="M 218.180261 -230.821875 
L 218.180261 -221.254861 
L 228.302474 -221.254861 
L 228.302474 -230.821875 
L 228.302474 -230.821875 
L 218.180261 -230.821875 
z
" id="md97b225377" style="stroke:#bf1328;stroke-opacity:0.55;"/>
    </defs>
    <g clip-path="url(#p75394a160f)">
     <use style="fill:#bf1328;fill-opacity:0.55;stroke:#bf1328;stroke-opacity:0.55;" x="0" xlink:href="#md97b225377" y="432"/>
    </g>
   </g>
   <g id="PolyCollection_30">
    <defs>
     <path d="M 228.302474 -230.821875 
L 228.302474 -210.798 
L 238.424688 -210.798 
L 238.424688 -230.821875 
L 238.424688 -230.821875 
L 228.302474 -230.821875 
z
" id="m50a32babc0" style="stroke:#bf1328;stroke-opacity:0.55;"/>
    </defs>
    <g clip-path="url(#p75394a160f)">
     <use style="fill:#bf1328;fill-opacity:0.55;stroke:#bf1328;stroke-opacity:0.55;" x="0" xlink:href="#m50a32babc0" y="432"/>
    </g>
   </g>
   <g id="PolyCollection_31">
    <defs>
     <path d="M 238.424688 -230.821875 
L 238.424688 -212.967995 
L 248.546901 -212.967995 
L 248.546901 -230.821875 
L 248.546901 -230.821875 
L 238.424688 -230.821875 
z
" id="m1e79ad002d" style="stroke:#bf1328;stroke-opacity:0.55;"/>
    </defs>
    <g clip-path="url(#p75394a160f)">
     <use style="fill:#bf1328;fill-opacity:0.55;stroke:#bf1328;stroke-opacity:0.55;" x="0" xlink:href="#m1e79ad002d" y="432"/>
    </g>
   </g>
   <g id="PolyCollection_32">
    <defs>
     <path d="M 248.546901 -230.821875 
L 248.546901 -221.254861 
L 258.669114 -221.254861 
L 258.669114 -230.821875 
L 258.669114 -230.821875 
L 248.546901 -230.821875 
z
" id="m251127a695" style="stroke:#bf1328;stroke-opacity:0.55;"/>
    </defs>
    <g clip-path="url(#p75394a160f)">
     <use style="fill:#bf1328;fill-opacity:0.55;stroke:#bf1328;stroke-opacity:0.55;" x="0" xlink:href="#m251127a695" y="432"/>
    </g>
   </g>
   <g id="PolyCollection_33">
    <defs>
     <path d="M 258.669114 -230.821875 
L 258.669114 -230.336466 
L 268.791327 -230.336466 
L 268.791327 -230.821875 
L 268.791327 -230.821875 
L 258.669114 -230.821875 
z
" id="m8b71d74817" style="stroke:#808080;stroke-opacity:0.4;"/>
    </defs>
    <g clip-path="url(#p75394a160f)">
     <use style="fill:#808080;fill-opacity:0.4;stroke:#808080;stroke-opacity:0.4;" x="0" xlink:href="#m8b71d74817" y="432"/>
    </g>
   </g>
   <g id="PolyCollection_34">
    <defs>
     <path d="M 268.791327 -230.821875 
L 268.791327 -221.254861 
L 278.91354 -221.254861 
L 278.91354 -230.821875 
L 278.91354 -230.821875 
L 268.791327 -230.821875 
z
" id="m1890dfe408" style="stroke:#bf1328;stroke-opacity:0.55;"/>
    </defs>
    <g clip-path="url(#p75394a160f)">
     <use style="fill:#bf1328;fill-opacity:0.55;stroke:#bf1328;stroke-opacity:0.55;" x="0" xlink:href="#m1890dfe408" y="432"/>
    </g>
   </g>
   <g id="PolyCollection_35">
    <defs>
     <path d="M 278.91354 -230.821875 
L 278.91354 -216.026431 
L 289.035753 -216.026431 
L 289.035753 -230.821875 
L 289.035753 -230.821875 
L 278.91354 -230.821875 
z
" id="m61842d68b0" style="stroke:#bf1328;stroke-opacity:0.55;"/>
    </defs>
    <g clip-path="url(#p75394a160f)">
     <use style="fill:#bf1328;fill-opacity:0.55;stroke:#bf1328;stroke-opacity:0.55;" x="0" xlink:href="#m61842d68b0" y="432"/>
    </g>
   </g>
   <g id="PolyCollection_36">
    <defs>
     <path d="M 289.035753 -230.821875 
L 289.035753 -221.254861 
L 299.157966 -221.254861 
L 299.157966 -230.821875 
L 299.157966 -230.821875 
L 289.035753 -230.821875 
z
" id="m0e0f9524a8" style="stroke:#bf1328;stroke-opacity:0.55;"/>
    </defs>
    <g clip-path="url(#p75394a160f)">
     <use style="fill:#bf1328;fill-opacity:0.55;stroke:#bf1328;stroke-opacity:0.55;" x="0" xlink:href="#m0e0f9524a8" y="432"/>
    </g>
   </g>
   <g id="PolyCollection_37">
    <defs>
     <path d="M 299.157966 -230.821875 
L 299.157966 -221.254861 
L 309.280179 -221.254861 
L 309.280179 -230.821875 
L 309.280179 -230.821875 
L 299.157966 -230.821875 
z
" id="m975c51b386" style="stroke:#bf1328;stroke-opacity:0.55;"/>
    </defs>
    <g clip-path="url(#p75394a160f)">
     <use style="fill:#bf1328;fill-opacity:0.55;stroke:#bf1328;stroke-opacity:0.55;" x="0" xlink:href="#m975c51b386" y="432"/>
    </g>
   </g>
   <g id="PolyCollection_38">
    <defs>
     <path d="M 309.280179 -230.821875 
L 309.280179 -230.336466 
L 319.402392 -230.336466 
L 319.402392 -230.821875 
L 319.402392 -230.821875 
L 309.280179 -230.821875 
z
" id="m5f30281f23" style="stroke:#808080;stroke-opacity:0.4;"/>
    </defs>
    <g clip-path="url(#p75394a160f)">
     <use style="fill:#808080;fill-opacity:0.4;stroke:#808080;stroke-opacity:0.4;" x="0" xlink:href="#m5f30281f23" y="432"/>
    </g>
   </g>
   <g id="PolyCollection_39">
    <defs>
     <path d="M 319.402392 -230.821875 
L 319.402392 -230.336466 
L 329.524605 -230.336466 
L 329.524605 -230.821875 
L 329.524605 -230.821875 
L 319.402392 -230.821875 
z
" id="m960a266568" style="stroke:#808080;stroke-opacity:0.4;"/>
    </defs>
    <g clip-path="url(#p75394a160f)">
     <use style="fill:#808080;fill-opacity:0.4;stroke:#808080;stroke-opacity:0.4;" x="0" xlink:href="#m960a266568" y="432"/>
    </g>
   </g>
   <g id="PolyCollection_40">
    <defs>
     <path d="M 329.524605 -230.821875 
L 329.524605 -230.336466 
L 339.646818 -230.336466 
L 339.646818 -230.821875 
L 339.646818 -230.821875 
L 329.524605 -230.821875 
z
" id="m783fd3b2f6" style="stroke:#808080;stroke-opacity:0.4;"/>
    </defs>
    <g clip-path="url(#p75394a160f)">
     <use style="fill:#808080;fill-opacity:0.4;stroke:#808080;stroke-opacity:0.4;" x="0" xlink:href="#m783fd3b2f6" y="432"/>
    </g>
   </g>
   <g id="PolyCollection_41">
    <defs>
     <path d="M 339.646818 -230.821875 
L 339.646818 -230.336466 
L 349.769031 -230.336466 
L 349.769031 -230.821875 
L 349.769031 -230.821875 
L 339.646818 -230.821875 
z
" id="m97b496bf93" style="stroke:#808080;stroke-opacity:0.4;"/>
    </defs>
    <g clip-path="url(#p75394a160f)">
     <use style="fill:#808080;fill-opacity:0.4;stroke:#808080;stroke-opacity:0.4;" x="0" xlink:href="#m97b496bf93" y="432"/>
    </g>
   </g>
   <g id="PolyCollection_42">
    <defs>
     <path d="M 349.769031 -230.821875 
L 349.769031 -230.336466 
L 359.891244 -230.336466 
L 359.891244 -230.821875 
L 359.891244 -230.821875 
L 349.769031 -230.821875 
z
" id="mc6736815ed" style="stroke:#808080;stroke-opacity:0.4;"/>
    </defs>
    <g clip-path="url(#p75394a160f)">
     <use style="fill:#808080;fill-opacity:0.4;stroke:#808080;stroke-opacity:0.4;" x="0" xlink:href="#mc6736815ed" y="432"/>
    </g>
   </g>
   <g id="PolyCollection_43">
    <defs>
     <path d="M 359.891244 -230.821875 
L 359.891244 -230.336466 
L 370.013457 -230.336466 
L 370.013457 -230.821875 
L 370.013457 -230.821875 
L 359.891244 -230.821875 
z
" id="mcf59285b5e" style="stroke:#808080;stroke-opacity:0.4;"/>
    </defs>
    <g clip-path="url(#p75394a160f)">
     <use style="fill:#808080;fill-opacity:0.4;stroke:#808080;stroke-opacity:0.4;" x="0" xlink:href="#mcf59285b5e" y="432"/>
    </g>
   </g>
   <g id="PolyCollection_44">
    <defs>
     <path d="M 370.013457 -230.821875 
L 370.013457 -230.336466 
L 380.13567 -230.336466 
L 380.13567 -230.821875 
L 380.13567 -230.821875 
L 370.013457 -230.821875 
z
" id="m0814cd679f" style="stroke:#808080;stroke-opacity:0.4;"/>
    </defs>
    <g clip-path="url(#p75394a160f)">
     <use style="fill:#808080;fill-opacity:0.4;stroke:#808080;stroke-opacity:0.4;" x="0" xlink:href="#m0814cd679f" y="432"/>
    </g>
   </g>
   <g id="PolyCollection_45">
    <defs>
     <path d="M 380.13567 -230.821875 
L 380.13567 -221.254861 
L 390.257883 -221.254861 
L 390.257883 -230.821875 
L 390.257883 -230.821875 
L 380.13567 -230.821875 
z
" id="m5de82c70cf" style="stroke:#bf1328;stroke-opacity:0.55;"/>
    </defs>
    <g clip-path="url(#p75394a160f)">
     <use style="fill:#bf1328;fill-opacity:0.55;stroke:#bf1328;stroke-opacity:0.55;" x="0" xlink:href="#m5de82c70cf" y="432"/>
    </g>
   </g>
   <g id="line2d_6">
    <path clip-path="url(#p75394a160f)" d="M 343.127117 201.178125 
L 343.127117 -1 
" style="fill:none;stroke:#008000;stroke-linecap:round;stroke-opacity:0.55;stroke-width:2.5;"/>
   </g>
   <g id="patch_3">
    <path d="M 69.949375 362.98125 
L 69.949375 39.375 
" style="fill:none;stroke:#262626;stroke-linecap:square;stroke-linejoin:miter;stroke-width:0.8;"/>
   </g>
   <g id="patch_4">
    <path d="M 69.949375 362.98125 
L 406.9 362.98125 
" style="fill:none;stroke:#262626;stroke-linecap:square;stroke-linejoin:miter;stroke-width:0.8;"/>
   </g>
   <g id="text_8">
    <text style="fill:#262626;font-family:Lato;font-size:15px;font-style:normal;font-weight:bold;text-anchor:middle;" transform="rotate(-0, 238.424688, 33.375)" x="238.424688" y="33.375">affinity and lb index (1 / 1)</text>
   </g>
  </g>
  <g id="text_9">
   <text style="fill:#386cc2;font-family:Lato;font-size:12px;font-style:normal;font-weight:bold;opacity:0.55;text-anchor:start;" transform="rotate(-0, 345.6, 324)" x="345.6" y="324">affinity (log)</text>
  </g>
  <g id="text_10">
   <text style="fill:#bf1328;font-family:Lato;font-size:12px;font-style:normal;font-weight:bold;opacity:0.55;text-anchor:start;" transform="rotate(-0, 345.6, 339.12)" x="345.6" y="339.12">lb index (log)</text>
  </g>
  <g id="text_11">
   <text style="fill:#386cc2;font-family:Lato;font-size:12px;font-style:normal;font-weight:bold;opacity:0.55;text-anchor:start;" transform="rotate(-0, 56.16, 401.76)" x="56.16" y="401.76">0.004</text>
  </g>
  <g id="text_12">
   <text style="fill:#386cc2;font-family:Lato;font-size:12px;font-style:normal;font-weight:bold;opacity:0.55;text-anchor:start;" transform="rotate(-0, 384.48, 401.76)" x="384.48" y="401.76">0.010</text>
  </g>
  <g id="text_13">
   <text style="fill:#386cc2;font-family:Lato;font-size:12px;font-style:normal;font-weight:bold;opacity:0.55;text-anchor:start;" transform="rotate(-0, 224.64, 419.04)" x="224.64" y="419.04">affinity</text>
  </g>
  <g id="text_14">
   <text style="fill:#386cc2;font-family:Lato;font-size:12px;font-style:normal;font-weight:bold;opacity:0.55;" transform="translate(21.6 30.49125)">sorted by</text>
   <text style="fill:#386cc2;font-family:Lato;font-size:12px;font-style:normal;font-weight:bold;opacity:0.55;" transform="translate(21.6 43.2)">mean top quintile aff.</text>
  </g>
 </g>
 <defs>
  <clipPath id="p75394a160f">
   <rect height="323.60625" width="336.950625" x="69.949375" y="39.375"/>
  </clipPath>
 </defs>
</svg>
