<?xml version="1.0" encoding="UTF-8" standalone="no"?> <svg width="73.025mm" height="35.9833mm"  viewBox="0 0 207 102"  xmlns="http://www.w3.org/2000/svg" xmlns:xlink="http://www.w3.org/1999/xlink"  version="1.2" baseProfile="tiny"> <title>Generated with ETE http://etetoolkit.org</title> <desc>Generated with ETE http://etetoolkit.org</desc> <defs> </defs> <g fill="none" stroke="black" stroke-width="1" fill-rule="evenodd" stroke-linecap="square" stroke-linejoin="bevel" >      <g fill="none" stroke="none" transform="matrix(1,0,0,1,0,0)" font-family="Sans Serif" font-size="9pt" font-weight="400" font-style="normal"  > <rect x="0" y="0" width="207" height="102"/> </g>      <g fill="none" stroke="none" transform="matrix(1,0,0,1,1,1)" font-family="Sans Serif" font-size="9pt" font-weight="400" font-style="normal"  > <rect x="0" y="0" width="205" height="50"/> </g>                                                                                      <g fill="none" stroke="#000000" stroke-opacity="1" stroke-width="1" stroke-linecap="butt" stroke-linejoin="bevel" transform="matrix(1,0,0,1,1,1)" font-family="Sans Serif" font-size="9pt" font-weight="400" font-style="normal"  > <polyline fill="none" vector-effect="non-scaling-stroke" points="5,2.5 5,45 " /> </g>                      <g fill="#1f77b4" fill-opacity="1" stroke="none" transform="matrix(1,0,0,1,1,22.25)" font-family="Sans Serif" font-size="9pt" font-weight="400" font-style="normal"  opacity="0.65" > <rect x="0" y="0" width="5" height="5"/> </g>                              <g fill="#1f77b4" fill-opacity="1" stroke="none" transform="matrix(1,0,0,1,6,1)" font-family="Sans Serif" font-size="9pt" font-weight="400" font-style="normal"  opacity="0.65" > <rect x="0" y="0" width="5" height="5"/> </g>              <g fill="none" stroke="#000000" stroke-opacity="1" stroke-width="1" stroke-linecap="butt" stroke-linejoin="bevel" transform="matrix(1,0,0,1,6,6)" font-family="Sans Serif" font-size="9pt" font-weight="400" font-style="normal"  > <polyline fill="none" vector-effect="non-scaling-stroke" points="11.6712,2.5 11.6712,7.5 " /> </g>            <g fill="none" stroke="#000000" stroke-opacity="1" stroke-width="1" stroke-linecap="butt" stroke-linejoin="bevel" transform="matrix(1,0,0,1,6,6)" font-family="Sans Serif" font-size="9pt" font-weight="400" font-style="normal"  > <polyline fill="none" vector-effect="non-scaling-stroke" points="0,5 6.67116,5 " /> </g>          <g fill="#929292" fill-opacity="1" stroke="none" transform="matrix(1,0,0,1,12.6712,8.5)" font-family="Sans Serif" font-size="9pt" font-weight="400" font-style="normal"  opacity="0.65" > <rect x="0" y="0" width="5" height="5"/> </g>                          <g fill="none" stroke="#000000" stroke-opacity="1" stroke-width="1" stroke-linecap="butt" stroke-linejoin="bevel" transform="matrix(1,0,0,1,17.6712,6)" font-family="Sans Serif" font-size="9pt" font-weight="400" font-style="normal"  > <polyline fill="none" vector-effect="non-scaling-stroke" points="0,2.5 66.8329,2.5 " /> </g>          <g fill="#1f77b4" fill-opacity="1" stroke="none" transform="matrix(1,0,0,1,84.504,6)" font-family="Sans Serif" font-size="9pt" font-weight="400" font-style="normal"  opacity="0.65" > <rect x="0" y="0" width="5" height="5"/> </g>                              <g fill="#1f77b4" fill-opacity="1" stroke="none" transform="matrix(1,0,0,1,89.504,6)" font-family="Sans Serif" font-size="9pt" font-weight="400" font-style="normal"  opacity="0.65" > <rect x="0" y="0" width="5" height="5"/> </g>                    <g fill="none" stroke="#000000" stroke-opacity="1" stroke-width="1" stroke-linecap="butt" stroke-linejoin="bevel" transform="matrix(1,0,0,1,17.6712,11)" font-family="Sans Serif" font-size="9pt" font-weight="400" font-style="normal"  > <polyline fill="none" vector-effect="non-scaling-stroke" points="0,2.5 66.5903,2.5 " /> </g>          <g fill="#1f77b4" fill-opacity="1" stroke="none" transform="matrix(1,0,0,1,84.2615,11)" font-family="Sans Serif" font-size="9pt" font-weight="400" font-style="normal"  opacity="0.65" > <rect x="0" y="0" width="5" height="5"/> </g>              <g fill="none" stroke="#000000" stroke-opacity="1" stroke-width="1" stroke-linecap="butt" stroke-linejoin="bevel" transform="matrix(1,0,0,1,6,16)" font-family="Sans Serif" font-size="9pt" font-weight="400" font-style="normal"  > <polyline fill="none" vector-effect="non-scaling-stroke" points="11.6712,5 11.6712,15 " /> </g>            <g fill="none" stroke="#000000" stroke-opacity="1" stroke-width="1" stroke-linecap="butt" stroke-linejoin="bevel" transform="matrix(1,0,0,1,6,16)" font-family="Sans Serif" font-size="9pt" font-weight="400" font-style="normal"  > <polyline fill="none" vector-effect="non-scaling-stroke" points="0,10 6.67116,10 " /> </g>          <g fill="#929292" fill-opacity="1" stroke="none" transform="matrix(1,0,0,1,12.6712,23.5)" font-family="Sans Serif" font-size="9pt" font-weight="400" font-style="normal"  opacity="0.65" > <rect x="0" y="0" width="5" height="5"/> </g>              <g fill="none" stroke="#000000" stroke-opacity="1" stroke-width="1" stroke-linecap="butt" stroke-linejoin="bevel" transform="matrix(1,0,0,1,17.6712,16)" font-family="Sans Serif" font-size="9pt" font-weight="400" font-style="normal"  > <polyline fill="none" vector-effect="non-scaling-stroke" points="11.6712,2.5 11.6712,7.5 " /> </g>            <g fill="none" stroke="#000000" stroke-opacity="1" stroke-width="1" stroke-linecap="butt" stroke-linejoin="bevel" transform="matrix(1,0,0,1,17.6712,16)" font-family="Sans Serif" font-size="9pt" font-weight="400" font-style="normal"  > <polyline fill="none" vector-effect="non-scaling-stroke" points="0,5 6.67116,5 " /> </g>          <g fill="#929292" fill-opacity="1" stroke="none" transform="matrix(1,0,0,1,24.3423,18.5)" font-family="Sans Serif" font-size="9pt" font-weight="400" font-style="normal"  opacity="0.65" > <rect x="0" y="0" width="5" height="5"/> </g>                          <g fill="none" stroke="#000000" stroke-opacity="1" stroke-width="1" stroke-linecap="butt" stroke-linejoin="bevel" transform="matrix(1,0,0,1,29.3423,16)" font-family="Sans Serif" font-size="9pt" font-weight="400" font-style="normal"  > <polyline fill="none" vector-effect="non-scaling-stroke" points="0,2.5 133.544,2.5 " /> </g>          <g fill="#1f77b4" fill-opacity="1" stroke="none" transform="matrix(1,0,0,1,162.887,16)" font-family="Sans Serif" font-size="9pt" font-weight="400" font-style="normal"  opacity="0.65" > <rect x="0" y="0" width="5" height="5"/> </g>                    <g fill="none" stroke="#000000" stroke-opacity="1" stroke-width="1" stroke-linecap="butt" stroke-linejoin="bevel" transform="matrix(1,0,0,1,167.887,16)" font-family="Sans Serif" font-size="9pt" font-weight="400" font-style="normal"  > <polyline fill="none" vector-effect="non-scaling-stroke" points="0,2.5 33.1132,2.5 " /> </g>          <g fill="#1f77b4" fill-opacity="1" stroke="none" transform="matrix(1,0,0,1,201,16)" font-family="Sans Serif" font-size="9pt" font-weight="400" font-style="normal"  opacity="0.65" > <rect x="0" y="0" width="5" height="5"/> </g>                    <g fill="none" stroke="#000000" stroke-opacity="1" stroke-width="1" stroke-linecap="butt" stroke-linejoin="bevel" transform="matrix(1,0,0,1,29.3423,21)" font-family="Sans Serif" font-size="9pt" font-weight="400" font-style="normal"  > <polyline fill="none" vector-effect="non-scaling-stroke" points="0,2.5 33.3558,2.5 " /> </g>          <g fill="#1f77b4" fill-opacity="1" stroke="none" transform="matrix(1,0,0,1,62.6981,21)" font-family="Sans Serif" font-size="9pt" font-weight="400" font-style="normal"  opacity="0.65" > <rect x="0" y="0" width="5" height="5"/> </g>              <g fill="none" stroke="#000000" stroke-opacity="1" stroke-width="1" stroke-linecap="butt" stroke-linejoin="bevel" transform="matrix(1,0,0,1,17.6712,26)" font-family="Sans Serif" font-size="9pt" font-weight="400" font-style="normal"  > <polyline fill="none" vector-effect="non-scaling-stroke" points="11.6712,2.5 11.6712,7.5 " /> </g>            <g fill="none" stroke="#000000" stroke-opacity="1" stroke-width="1" stroke-linecap="butt" stroke-linejoin="bevel" transform="matrix(1,0,0,1,17.6712,26)" font-family="Sans Serif" font-size="9pt" font-weight="400" font-style="normal"  > <polyline fill="none" vector-effect="non-scaling-stroke" points="0,5 6.67116,5 " /> </g>          <g fill="#929292" fill-opacity="1" stroke="none" transform="matrix(1,0,0,1,24.3423,28.5)" font-family="Sans Serif" font-size="9pt" font-weight="400" font-style="normal"  opacity="0.65" > <rect x="0" y="0" width="5" height="5"/> </g>                          <g fill="none" stroke="#000000" stroke-opacity="1" stroke-width="1" stroke-linecap="butt" stroke-linejoin="bevel" transform="matrix(1,0,0,1,29.3423,26)" font-family="Sans Serif" font-size="9pt" font-weight="400" font-style="normal"  > <polyline fill="none" vector-effect="non-scaling-stroke" points="0,2.5 33.2345,2.5 " /> </g>          <g fill="#1f77b4" fill-opacity="1" stroke="none" transform="matrix(1,0,0,1,62.5768,26)" font-family="Sans Serif" font-size="9pt" font-weight="400" font-style="normal"  opacity="0.65" > <rect x="0" y="0" width="5" height="5"/> </g>                    <g fill="none" stroke="#000000" stroke-opacity="1" stroke-width="1" stroke-linecap="butt" stroke-linejoin="bevel" transform="matrix(1,0,0,1,67.5768,26)" font-family="Sans Serif" font-size="9pt" font-weight="400" font-style="normal"  > <polyline fill="none" vector-effect="non-scaling-stroke" points="0,2.5 33.1132,2.5 " /> </g>          <g fill="#1f77b4" fill-opacity="1" stroke="none" transform="matrix(1,0,0,1,100.69,26)" font-family="Sans Serif" font-size="9pt" font-weight="400" font-style="normal"  opacity="0.65" > <rect x="0" y="0" width="5" height="5"/> </g>                    <g fill="none" stroke="#000000" stroke-opacity="1" stroke-width="1" stroke-linecap="butt" stroke-linejoin="bevel" transform="matrix(1,0,0,1,29.3423,31)" font-family="Sans Serif" font-size="9pt" font-weight="400" font-style="normal"  > <polyline fill="none" vector-effect="non-scaling-stroke" points="0,2.5 33.2345,2.5 " /> </g>          <g fill="#1f77b4" fill-opacity="1" stroke="none" transform="matrix(1,0,0,1,62.5768,31)" font-family="Sans Serif" font-size="9pt" font-weight="400" font-style="normal"  opacity="0.65" > <rect x="0" y="0" width="5" height="5"/> </g>                          <g fill="none" stroke="#000000" stroke-opacity="1" stroke-width="1" stroke-linecap="butt" stroke-linejoin="bevel" transform="matrix(1,0,0,1,6,36)" font-family="Sans Serif" font-size="9pt" font-weight="400" font-style="normal"  > <polyline fill="none" vector-effect="non-scaling-stroke" points="0,2.5 33.2345,2.5 " /> </g>          <g fill="#ff7f0e" fill-opacity="1" stroke="none" transform="matrix(1,0,0,1,39.2345,36)" font-family="Sans Serif" font-size="9pt" font-weight="400" font-style="normal"  opacity="0.65" > <rect x="0" y="0" width="5" height="5"/> </g>                    <g fill="none" stroke="#000000" stroke-opacity="1" stroke-width="1" stroke-linecap="butt" stroke-linejoin="bevel" transform="matrix(1,0,0,1,44.2345,36)" font-family="Sans Serif" font-size="9pt" font-weight="400" font-style="normal"  > <polyline fill="none" vector-effect="non-scaling-stroke" points="0,2.5 33.2345,2.5 " /> </g>          <g fill="#1f77b4" fill-opacity="1" stroke="none" transform="matrix(1,0,0,1,77.469,36)" font-family="Sans Serif" font-size="9pt" font-weight="400" font-style="normal"  opacity="0.65" > <rect x="0" y="0" width="5" height="5"/> </g>              <g fill="none" stroke="#000000" stroke-opacity="1" stroke-width="1" stroke-linecap="butt" stroke-linejoin="bevel" transform="matrix(1,0,0,1,6,41)" font-family="Sans Serif" font-size="9pt" font-weight="400" font-style="normal"  > <polyline fill="none" vector-effect="non-scaling-stroke" points="11.6712,2.5 11.6712,7.5 " /> </g>            <g fill="none" stroke="#000000" stroke-opacity="1" stroke-width="1" stroke-linecap="butt" stroke-linejoin="bevel" transform="matrix(1,0,0,1,6,41)" font-family="Sans Serif" font-size="9pt" font-weight="400" font-style="normal"  > <polyline fill="none" vector-effect="non-scaling-stroke" points="0,5 6.67116,5 " /> </g>          <g fill="#929292" fill-opacity="1" stroke="none" transform="matrix(1,0,0,1,12.6712,43.5)" font-family="Sans Serif" font-size="9pt" font-weight="400" font-style="normal"  opacity="0.65" > <rect x="0" y="0" width="5" height="5"/> </g>                    <g fill="none" stroke="#000000" stroke-opacity="1" stroke-width="1" stroke-linecap="butt" stroke-linejoin="bevel" transform="matrix(1,0,0,1,17.6712,41)" font-family="Sans Serif" font-size="9pt" font-weight="400" font-style="normal"  > <polyline fill="none" vector-effect="non-scaling-stroke" points="0,2.5 33.2345,2.5 " /> </g>          <g fill="#1f77b4" fill-opacity="1" stroke="none" transform="matrix(1,0,0,1,50.9057,41)" font-family="Sans Serif" font-size="9pt" font-weight="400" font-style="normal"  opacity="0.65" > <rect x="0" y="0" width="5" height="5"/> </g>                    <g fill="none" stroke="#000000" stroke-opacity="1" stroke-width="1" stroke-linecap="butt" stroke-linejoin="bevel" transform="matrix(1,0,0,1,17.6712,46)" font-family="Sans Serif" font-size="9pt" font-weight="400" font-style="normal"  > <polyline fill="none" vector-effect="non-scaling-stroke" points="0,2.5 100.431,2.5 " /> </g>          <g fill="#1f77b4" fill-opacity="1" stroke="none" transform="matrix(1,0,0,1,118.102,46)" font-family="Sans Serif" font-size="9pt" font-weight="400" font-style="normal"  opacity="0.65" > <rect x="0" y="0" width="5" height="5"/> </g>                                                                                              <g fill="none" stroke="#000000" stroke-opacity="1" stroke-width="1" stroke-linecap="square" stroke-linejoin="bevel" transform="matrix(1,0,0,1,1,52)" font-family="Sans Serif" font-size="9pt" font-weight="400" font-style="normal"  > <polyline fill="none" vector-effect="none" points="0,5 50,5 " /> </g>      <g fill="none" stroke="#000000" stroke-opacity="1" stroke-width="1" stroke-linecap="square" stroke-linejoin="bevel" transform="matrix(1,0,0,1,1,52)" font-family="Sans Serif" font-size="9pt" font-weight="400" font-style="normal"  > <polyline fill="none" vector-effect="none" points="0,0 0,10 " /> </g>      <g fill="none" stroke="#000000" stroke-opacity="1" stroke-width="1" stroke-linecap="square" stroke-linejoin="bevel" transform="matrix(1,0,0,1,1,52)" font-family="Sans Serif" font-size="9pt" font-weight="400" font-style="normal"  > <polyline fill="none" vector-effect="none" points="50,0 50,10 " /> </g>      <g fill="none" stroke="#000000" stroke-opacity="1" stroke-width="1" stroke-linecap="square" stroke-linejoin="bevel" transform="matrix(1,0,0,1,1,62)" font-family="Sans Serif" font-size="9pt" font-weight="400" font-style="normal"  > <text fill="#000000" fill-opacity="1" stroke="none" xml:space="preserve" x="0" y="13" font-family="Sans Serif" font-size="9pt" font-weight="400" font-style="normal"   >0.00412222</text> </g>     </g> </svg> 