<?xml version="1.0" encoding="UTF-8" standalone="no"?> <svg width="71.2611mm" height="44.8028mm"  viewBox="0 0 202 127"  xmlns="http://www.w3.org/2000/svg" xmlns:xlink="http://www.w3.org/1999/xlink"  version="1.2" baseProfile="tiny"> <title>Generated with ETE http://etetoolkit.org</title> <desc>Generated with ETE http://etetoolkit.org</desc> <defs> </defs> <g fill="none" stroke="black" stroke-width="1" fill-rule="evenodd" stroke-linecap="square" stroke-linejoin="bevel" >      <g fill="none" stroke="none" transform="matrix(1,0,0,1,0,0)" font-family="Sans Serif" font-size="9pt" font-weight="400" font-style="normal"  > <rect x="0" y="0" width="202" height="127"/> </g>      <g fill="none" stroke="none" transform="matrix(1,0,0,1,1,1)" font-family="Sans Serif" font-size="9pt" font-weight="400" font-style="normal"  > <rect x="0" y="0" width="200" height="75"/> </g>                                                                                      <g fill="none" stroke="#000000" stroke-opacity="1" stroke-width="1" stroke-linecap="butt" stroke-linejoin="bevel" transform="matrix(1,0,0,1,1,1)" font-family="Sans Serif" font-size="9pt" font-weight="400" font-style="normal"  > <polyline fill="none" vector-effect="non-scaling-stroke" points="5,5 5,72.5 " /> </g>                      <g fill="#ff7f0e" fill-opacity="1" stroke="none" transform="matrix(1,0,0,1,1,37.25)" font-family="Sans Serif" font-size="9pt" font-weight="400" font-style="normal"  opacity="0.65" > <rect x="0" y="0" width="5" height="5"/> </g>              <g fill="none" stroke="#000000" stroke-opacity="1" stroke-width="1" stroke-linecap="butt" stroke-linejoin="bevel" transform="matrix(1,0,0,1,6,1)" font-family="Sans Serif" font-size="9pt" font-weight="400" font-style="normal"  > <polyline fill="none" vector-effect="non-scaling-stroke" points="16.7021,2.5 16.7021,7.5 " /> </g>            <g fill="none" stroke="#000000" stroke-opacity="1" stroke-width="1" stroke-linecap="butt" stroke-linejoin="bevel" transform="matrix(1,0,0,1,6,1)" font-family="Sans Serif" font-size="9pt" font-weight="400" font-style="normal"  > <polyline fill="none" vector-effect="non-scaling-stroke" points="0,5 11.7021,5 " /> </g>          <g fill="#929292" fill-opacity="1" stroke="none" transform="matrix(1,0,0,1,17.7021,3.5)" font-family="Sans Serif" font-size="9pt" font-weight="400" font-style="normal"  opacity="0.65" > <rect x="0" y="0" width="5" height="5"/> </g>                    <g fill="none" stroke="#000000" stroke-opacity="1" stroke-width="1" stroke-linecap="butt" stroke-linejoin="bevel" transform="matrix(1,0,0,1,22.7021,1)" font-family="Sans Serif" font-size="9pt" font-weight="400" font-style="normal"  > <polyline fill="none" vector-effect="non-scaling-stroke" points="0,2.5 55.7447,2.5 " /> </g>          <g fill="#1f77b4" fill-opacity="1" stroke="none" transform="matrix(1,0,0,1,78.4468,1)" font-family="Sans Serif" font-size="9pt" font-weight="400" font-style="normal"  opacity="0.65" > <rect x="0" y="0" width="5" height="5"/> </g>                    <g fill="none" stroke="#000000" stroke-opacity="1" stroke-width="1" stroke-linecap="butt" stroke-linejoin="bevel" transform="matrix(1,0,0,1,22.7021,6)" font-family="Sans Serif" font-size="9pt" font-weight="400" font-style="normal"  > <polyline fill="none" vector-effect="non-scaling-stroke" points="0,2.5 55.9574,2.5 " /> </g>          <g fill="#ff7f0e" fill-opacity="1" stroke="none" transform="matrix(1,0,0,1,78.6596,6)" font-family="Sans Serif" font-size="9pt" font-weight="400" font-style="normal"  opacity="0.65" > <rect x="0" y="0" width="5" height="5"/> </g>              <g fill="none" stroke="#000000" stroke-opacity="1" stroke-width="1" stroke-linecap="butt" stroke-linejoin="bevel" transform="matrix(1,0,0,1,6,11)" font-family="Sans Serif" font-size="9pt" font-weight="400" font-style="normal"  > <polyline fill="none" vector-effect="non-scaling-stroke" points="16.7021,7.5 16.7021,17.5 " /> </g>            <g fill="none" stroke="#000000" stroke-opacity="1" stroke-width="1" stroke-linecap="butt" stroke-linejoin="bevel" transform="matrix(1,0,0,1,6,11)" font-family="Sans Serif" font-size="9pt" font-weight="400" font-style="normal"  > <polyline fill="none" vector-effect="non-scaling-stroke" points="0,12.5 11.7021,12.5 " /> </g>          <g fill="#929292" fill-opacity="1" stroke="none" transform="matrix(1,0,0,1,17.7021,21)" font-family="Sans Serif" font-size="9pt" font-weight="400" font-style="normal"  opacity="0.65" > <rect x="0" y="0" width="5" height="5"/> </g>              <g fill="none" stroke="#000000" stroke-opacity="1" stroke-width="1" stroke-linecap="butt" stroke-linejoin="bevel" transform="matrix(1,0,0,1,22.7021,11)" font-family="Sans Serif" font-size="9pt" font-weight="400" font-style="normal"  > <polyline fill="none" vector-effect="non-scaling-stroke" points="117.34,2.5 117.34,12.5 " /> </g>            <g fill="none" stroke="#000000" stroke-opacity="1" stroke-width="1" stroke-linecap="butt" stroke-linejoin="bevel" transform="matrix(1,0,0,1,22.7021,11)" font-family="Sans Serif" font-size="9pt" font-weight="400" font-style="normal"  > <polyline fill="none" vector-effect="non-scaling-stroke" points="0,7.5 112.34,7.5 " /> </g>          <g fill="#1f77b4" fill-opacity="1" stroke="none" transform="matrix(1,0,0,1,135.043,16)" font-family="Sans Serif" font-size="9pt" font-weight="400" font-style="normal"  opacity="0.65" > <rect x="0" y="0" width="5" height="5"/> </g>                    <g fill="none" stroke="#000000" stroke-opacity="1" stroke-width="1" stroke-linecap="butt" stroke-linejoin="bevel" transform="matrix(1,0,0,1,140.043,11)" font-family="Sans Serif" font-size="9pt" font-weight="400" font-style="normal"  > <polyline fill="none" vector-effect="non-scaling-stroke" points="0,2.5 55.9574,2.5 " /> </g>          <g fill="#1f77b4" fill-opacity="1" stroke="none" transform="matrix(1,0,0,1,196,11)" font-family="Sans Serif" font-size="9pt" font-weight="400" font-style="normal"  opacity="0.65" > <rect x="0" y="0" width="5" height="5"/> </g>                              <g fill="#1f77b4" fill-opacity="1" stroke="none" transform="matrix(1,0,0,1,140.043,16)" font-family="Sans Serif" font-size="9pt" font-weight="400" font-style="normal"  opacity="0.65" > <rect x="0" y="0" width="5" height="5"/> </g>                              <g fill="#1f77b4" fill-opacity="1" stroke="none" transform="matrix(1,0,0,1,140.043,21)" font-family="Sans Serif" font-size="9pt" font-weight="400" font-style="normal"  opacity="0.65" > <rect x="0" y="0" width="5" height="5"/> </g>                    <g fill="none" stroke="#000000" stroke-opacity="1" stroke-width="1" stroke-linecap="butt" stroke-linejoin="bevel" transform="matrix(1,0,0,1,22.7021,26)" font-family="Sans Serif" font-size="9pt" font-weight="400" font-style="normal"  > <polyline fill="none" vector-effect="non-scaling-stroke" points="0,2.5 56.383,2.5 " /> </g>          <g fill="#1f77b4" fill-opacity="1" stroke="none" transform="matrix(1,0,0,1,79.0851,26)" font-family="Sans Serif" font-size="9pt" font-weight="400" font-style="normal"  opacity="0.65" > <rect x="0" y="0" width="5" height="5"/> </g>              <g fill="none" stroke="#000000" stroke-opacity="1" stroke-width="1" stroke-linecap="butt" stroke-linejoin="bevel" transform="matrix(1,0,0,1,6,31)" font-family="Sans Serif" font-size="9pt" font-weight="400" font-style="normal"  > <polyline fill="none" vector-effect="non-scaling-stroke" points="61.1702,2.5 61.1702,7.5 " /> </g>            <g fill="none" stroke="#000000" stroke-opacity="1" stroke-width="1" stroke-linecap="butt" stroke-linejoin="bevel" transform="matrix(1,0,0,1,6,31)" font-family="Sans Serif" font-size="9pt" font-weight="400" font-style="normal"  > <polyline fill="none" vector-effect="non-scaling-stroke" points="0,5 56.1702,5 " /> </g>          <g fill="#1f77b4" fill-opacity="1" stroke="none" transform="matrix(1,0,0,1,62.1702,33.5)" font-family="Sans Serif" font-size="9pt" font-weight="400" font-style="normal"  opacity="0.65" > <rect x="0" y="0" width="5" height="5"/> </g>                    <g fill="none" stroke="#000000" stroke-opacity="1" stroke-width="1" stroke-linecap="butt" stroke-linejoin="bevel" transform="matrix(1,0,0,1,67.1702,31)" font-family="Sans Serif" font-size="9pt" font-weight="400" font-style="normal"  > <polyline fill="none" vector-effect="non-scaling-stroke" points="0,2.5 56.383,2.5 " /> </g>          <g fill="#1f77b4" fill-opacity="1" stroke="none" transform="matrix(1,0,0,1,123.553,31)" font-family="Sans Serif" font-size="9pt" font-weight="400" font-style="normal"  opacity="0.65" > <rect x="0" y="0" width="5" height="5"/> </g>                              <g fill="#1f77b4" fill-opacity="1" stroke="none" transform="matrix(1,0,0,1,67.1702,36)" font-family="Sans Serif" font-size="9pt" font-weight="400" font-style="normal"  opacity="0.65" > <rect x="0" y="0" width="5" height="5"/> </g>                              <g fill="#ff7f0e" fill-opacity="1" stroke="none" transform="matrix(1,0,0,1,6,41)" font-family="Sans Serif" font-size="9pt" font-weight="400" font-style="normal"  opacity="0.65" > <rect x="0" y="0" width="5" height="5"/> </g>                              <g fill="#1f77b4" fill-opacity="1" stroke="none" transform="matrix(1,0,0,1,6,46)" font-family="Sans Serif" font-size="9pt" font-weight="400" font-style="normal"  opacity="0.65" > <rect x="0" y="0" width="5" height="5"/> </g>                              <g fill="#1f77b4" fill-opacity="1" stroke="none" transform="matrix(1,0,0,1,6,51)" font-family="Sans Serif" font-size="9pt" font-weight="400" font-style="normal"  opacity="0.65" > <rect x="0" y="0" width="5" height="5"/> </g>                              <g fill="#ff7f0e" fill-opacity="1" stroke="none" transform="matrix(1,0,0,1,6,56)" font-family="Sans Serif" font-size="9pt" font-weight="400" font-style="normal"  opacity="0.65" > <rect x="0" y="0" width="5" height="5"/> </g>                              <g fill="#1f77b4" fill-opacity="1" stroke="none" transform="matrix(1,0,0,1,6,61)" font-family="Sans Serif" font-size="9pt" font-weight="400" font-style="normal"  opacity="0.65" > <rect x="0" y="0" width="5" height="5"/> </g>                              <g fill="#1f77b4" fill-opacity="1" stroke="none" transform="matrix(1,0,0,1,6,66)" font-family="Sans Serif" font-size="9pt" font-weight="400" font-style="normal"  opacity="0.65" > <rect x="0" y="0" width="5" height="5"/> </g>                              <g fill="#ff7f0e" fill-opacity="1" stroke="none" transform="matrix(1,0,0,1,6,71)" font-family="Sans Serif" font-size="9pt" font-weight="400" font-style="normal"  opacity="0.65" > <rect x="0" y="0" width="5" height="5"/> </g>                                                                                              <g fill="none" stroke="#000000" stroke-opacity="1" stroke-width="1" stroke-linecap="square" stroke-linejoin="bevel" transform="matrix(1,0,0,1,1,77)" font-family="Sans Serif" font-size="9pt" font-weight="400" font-style="normal"  > <polyline fill="none" vector-effect="none" points="0,5 50,5 " /> </g>      <g fill="none" stroke="#000000" stroke-opacity="1" stroke-width="1" stroke-linecap="square" stroke-linejoin="bevel" transform="matrix(1,0,0,1,1,77)" font-family="Sans Serif" font-size="9pt" font-weight="400" font-style="normal"  > <polyline fill="none" vector-effect="none" points="0,0 0,10 " /> </g>      <g fill="none" stroke="#000000" stroke-opacity="1" stroke-width="1" stroke-linecap="square" stroke-linejoin="bevel" transform="matrix(1,0,0,1,1,77)" font-family="Sans Serif" font-size="9pt" font-weight="400" font-style="normal"  > <polyline fill="none" vector-effect="none" points="50,0 50,10 " /> </g>      <g fill="none" stroke="#000000" stroke-opacity="1" stroke-width="1" stroke-linecap="square" stroke-linejoin="bevel" transform="matrix(1,0,0,1,1,87)" font-family="Sans Serif" font-size="9pt" font-weight="400" font-style="normal"  > <text fill="#000000" fill-opacity="1" stroke="none" xml:space="preserve" x="0" y="13" font-family="Sans Serif" font-size="9pt" font-weight="400" font-style="normal"   >0.00235</text> </g>     </g> </svg> 