<?xml version="1.0" encoding="utf-8" standalone="no"?>
<!DOCTYPE svg PUBLIC "-//W3C//DTD SVG 1.1//EN"
  "http://www.w3.org/Graphics/SVG/1.1/DTD/svg11.dtd">
<!-- Created with matplotlib (http://matplotlib.org/) -->
<svg height="345.6pt" version="1.1" viewBox="0 0 460.8 345.6" width="460.8pt" xmlns="http://www.w3.org/2000/svg" xmlns:xlink="http://www.w3.org/1999/xlink">
 <defs>
  <style type="text/css">
*{stroke-linecap:butt;stroke-linejoin:round;}
  </style>
 </defs>
 <g id="figure_1">
  <g id="patch_1">
   <path d="M 0 345.6 
L 460.8 345.6 
L 460.8 0 
L 0 0 
z
" style="fill:#ffffff;"/>
  </g>
  <g id="axes_1">
   <g id="patch_2">
    <path d="M 92.16 276.48 
L 437.76 276.48 
L 437.76 27.648 
L 92.16 27.648 
z
" style="fill:#ffffff;"/>
   </g>
   <g id="matplotlib.axis_1">
    <g id="xtick_1">
     <g id="line2d_1">
      <defs>
       <path d="M 0 0 
L 0 3.5 
" id="m4a3dea30b3" style="stroke:#262626;stroke-width:0.8;"/>
      </defs>
      <g>
       <use style="fill:#262626;stroke:#262626;stroke-width:0.8;" x="100.8" xlink:href="#m4a3dea30b3" y="276.48"/>
      </g>
     </g>
     <g id="text_1">
      <text style="fill:#262626;font-family:DejaVu Sans;font-size:20px;font-style:normal;font-weight:normal;text-anchor:middle;" transform="rotate(-0, 100.8, 298.676875)" x="100.8" y="298.676875">0</text>
     </g>
    </g>
    <g id="xtick_2">
     <g id="line2d_2">
      <g>
       <use style="fill:#262626;stroke:#262626;stroke-width:0.8;" x="187.2" xlink:href="#m4a3dea30b3" y="276.48"/>
      </g>
     </g>
     <g id="text_2">
      <text style="fill:#262626;font-family:DejaVu Sans;font-size:20px;font-style:normal;font-weight:normal;text-anchor:middle;" transform="rotate(-0, 187.2, 298.676875)" x="187.2" y="298.676875">5</text>
     </g>
    </g>
    <g id="xtick_3">
     <g id="line2d_3">
      <g>
       <use style="fill:#262626;stroke:#262626;stroke-width:0.8;" x="273.6" xlink:href="#m4a3dea30b3" y="276.48"/>
      </g>
     </g>
     <g id="text_3">
      <text style="fill:#262626;font-family:DejaVu Sans;font-size:20px;font-style:normal;font-weight:normal;text-anchor:middle;" transform="rotate(-0, 273.6, 298.676875)" x="273.6" y="298.676875">10</text>
     </g>
    </g>
    <g id="xtick_4">
     <g id="line2d_4">
      <g>
       <use style="fill:#262626;stroke:#262626;stroke-width:0.8;" x="360" xlink:href="#m4a3dea30b3" y="276.48"/>
      </g>
     </g>
     <g id="text_4">
      <text style="fill:#262626;font-family:DejaVu Sans;font-size:20px;font-style:normal;font-weight:normal;text-anchor:middle;" transform="rotate(-0, 360, 298.676875)" x="360" y="298.676875">15</text>
     </g>
    </g>
    <g id="text_5">
     <text style="fill:#262626;font-family:DejaVu Sans;font-size:20px;font-style:normal;font-weight:normal;text-anchor:middle;" transform="rotate(-0, 264.96, 322.033125)" x="264.96" y="322.033125">VD N length</text>
    </g>
   </g>
   <g id="matplotlib.axis_2">
    <g id="ytick_1">
     <g id="line2d_5">
      <defs>
       <path d="M 0 0 
L -3.5 0 
" id="md25d309231" style="stroke:#262626;stroke-width:0.8;"/>
      </defs>
      <g>
       <use style="fill:#262626;stroke:#262626;stroke-width:0.8;" x="92.16" xlink:href="#md25d309231" y="270.153763"/>
      </g>
     </g>
     <g id="text_6">
      <text style="fill:#262626;font-family:DejaVu Sans;font-size:20px;font-style:normal;font-weight:normal;text-anchor:end;" transform="rotate(-0, 85.16, 277.7522)" x="85.16" y="277.7522">0</text>
     </g>
    </g>
    <g id="ytick_2">
     <g id="line2d_6">
      <g>
       <use style="fill:#262626;stroke:#262626;stroke-width:0.8;" x="92.16" xlink:href="#md25d309231" y="218.970613"/>
      </g>
     </g>
     <g id="text_7">
      <text style="fill:#262626;font-family:DejaVu Sans;font-size:20px;font-style:normal;font-weight:normal;text-anchor:end;" transform="rotate(-0, 85.16, 226.569051)" x="85.16" y="226.569051">25</text>
     </g>
    </g>
    <g id="ytick_3">
     <g id="line2d_7">
      <g>
       <use style="fill:#262626;stroke:#262626;stroke-width:0.8;" x="92.16" xlink:href="#md25d309231" y="167.787464"/>
      </g>
     </g>
     <g id="text_8">
      <text style="fill:#262626;font-family:DejaVu Sans;font-size:20px;font-style:normal;font-weight:normal;text-anchor:end;" transform="rotate(-0, 85.16, 175.385901)" x="85.16" y="175.385901">50</text>
     </g>
    </g>
    <g id="ytick_4">
     <g id="line2d_8">
      <g>
       <use style="fill:#262626;stroke:#262626;stroke-width:0.8;" x="92.16" xlink:href="#md25d309231" y="116.604314"/>
      </g>
     </g>
     <g id="text_9">
      <text style="fill:#262626;font-family:DejaVu Sans;font-size:20px;font-style:normal;font-weight:normal;text-anchor:end;" transform="rotate(-0, 85.16, 124.202751)" x="85.16" y="124.202751">75</text>
     </g>
    </g>
    <g id="ytick_5">
     <g id="line2d_9">
      <g>
       <use style="fill:#262626;stroke:#262626;stroke-width:0.8;" x="92.16" xlink:href="#md25d309231" y="65.421164"/>
      </g>
     </g>
     <g id="text_10">
      <text style="fill:#262626;font-family:DejaVu Sans;font-size:20px;font-style:normal;font-weight:normal;text-anchor:end;" transform="rotate(-0, 85.16, 73.019602)" x="85.16" y="73.019602">100</text>
     </g>
    </g>
    <g id="text_11">
     <text style="fill:#262626;font-family:DejaVu Sans;font-size:20px;font-style:normal;font-weight:normal;text-anchor:middle;" transform="rotate(-90, 38.825625, 152.064)" x="38.825625" y="152.064">counts</text>
    </g>
   </g>
   <g id="LineCollection_1">
    <path clip-path="url(#p37c61ca85c)" d="M 100.8 268.954467 
L 100.8 263.163755 
" style="fill:none;stroke:#4169e1;stroke-width:3;"/>
    <path clip-path="url(#p37c61ca85c)" d="M 118.08 80.057276 
L 118.08 38.501097 
" style="fill:none;stroke:#4169e1;stroke-width:3;"/>
    <path clip-path="url(#p37c61ca85c)" d="M 135.36 250.920264 
L 135.36 236.156786 
" style="fill:none;stroke:#4169e1;stroke-width:3;"/>
    <path clip-path="url(#p37c61ca85c)" d="M 152.64 241.987964 
L 152.64 224.615826 
" style="fill:none;stroke:#4169e1;stroke-width:3;"/>
    <path clip-path="url(#p37c61ca85c)" d="M 169.92 259.565867 
L 169.92 247.984443 
" style="fill:none;stroke:#4169e1;stroke-width:3;"/>
    <path clip-path="url(#p37c61ca85c)" d="M 187.2 270.153763 
L 187.2 266.059111 
" style="fill:none;stroke:#4169e1;stroke-width:3;"/>
    <path clip-path="url(#p37c61ca85c)" d="M 204.48 270.153763 
L 204.48 270.153763 
" style="fill:none;stroke:#4169e1;stroke-width:3;"/>
    <path clip-path="url(#p37c61ca85c)" d="M 221.76 270.153763 
L 221.76 270.153763 
" style="fill:none;stroke:#4169e1;stroke-width:3;"/>
    <path clip-path="url(#p37c61ca85c)" d="M 239.04 270.153763 
L 239.04 270.153763 
" style="fill:none;stroke:#4169e1;stroke-width:3;"/>
    <path clip-path="url(#p37c61ca85c)" d="M 256.32 270.153763 
L 256.32 270.153763 
" style="fill:none;stroke:#4169e1;stroke-width:3;"/>
    <path clip-path="url(#p37c61ca85c)" d="M 273.6 270.153763 
L 273.6 270.153763 
" style="fill:none;stroke:#4169e1;stroke-width:3;"/>
    <path clip-path="url(#p37c61ca85c)" d="M 290.88 268.954467 
L 290.88 263.163755 
" style="fill:none;stroke:#4169e1;stroke-width:3;"/>
    <path clip-path="url(#p37c61ca85c)" d="M 308.16 270.153763 
L 308.16 270.153763 
" style="fill:none;stroke:#4169e1;stroke-width:3;"/>
    <path clip-path="url(#p37c61ca85c)" d="M 325.44 270.153763 
L 325.44 270.153763 
" style="fill:none;stroke:#4169e1;stroke-width:3;"/>
    <path clip-path="url(#p37c61ca85c)" d="M 342.72 270.153763 
L 342.72 270.153763 
" style="fill:none;stroke:#4169e1;stroke-width:3;"/>
    <path clip-path="url(#p37c61ca85c)" d="M 360 270.153763 
L 360 270.153763 
" style="fill:none;stroke:#4169e1;stroke-width:3;"/>
    <path clip-path="url(#p37c61ca85c)" d="M 377.28 270.153763 
L 377.28 270.153763 
" style="fill:none;stroke:#4169e1;stroke-width:3;"/>
    <path clip-path="url(#p37c61ca85c)" d="M 394.56 270.153763 
L 394.56 270.153763 
" style="fill:none;stroke:#4169e1;stroke-width:3;"/>
    <path clip-path="url(#p37c61ca85c)" d="M 411.84 267.557857 
L 411.84 260.465712 
" style="fill:none;stroke:#4169e1;stroke-width:3;"/>
    <path clip-path="url(#p37c61ca85c)" d="M 429.12 270.153763 
L 429.12 266.059111 
" style="fill:none;stroke:#4169e1;stroke-width:3;"/>
   </g>
   <g id="line2d_10">
    <path clip-path="url(#p37c61ca85c)" d="M 100.8 266.059111 
L 118.08 59.279186 
L 135.36 243.538525 
L 152.64 233.301895 
L 169.92 253.775155 
L 187.2 268.106437 
L 204.48 270.153763 
L 221.76 270.153763 
L 239.04 270.153763 
L 256.32 270.153763 
L 273.6 270.153763 
L 290.88 266.059111 
L 308.16 270.153763 
L 325.44 270.153763 
L 342.72 270.153763 
L 360 270.153763 
L 377.28 270.153763 
L 394.56 270.153763 
L 411.84 264.011785 
L 429.12 268.106437 
" style="fill:none;stroke:#4169e1;stroke-linecap:round;stroke-width:3;"/>
    <defs>
     <path d="M 0 3.25 
C 0.86191 3.25 1.688635 2.907559 2.298097 2.298097 
C 2.907559 1.688635 3.25 0.86191 3.25 0 
C 3.25 -0.86191 2.907559 -1.688635 2.298097 -2.298097 
C 1.688635 -2.907559 0.86191 -3.25 0 -3.25 
C -0.86191 -3.25 -1.688635 -2.907559 -2.298097 -2.298097 
C -2.907559 -1.688635 -3.25 -0.86191 -3.25 0 
C -3.25 0.86191 -2.907559 1.688635 -2.298097 2.298097 
C -1.688635 2.907559 -0.86191 3.25 0 3.25 
z
" id="m39bd0fb1ab" style="stroke:#4169e1;"/>
    </defs>
    <g clip-path="url(#p37c61ca85c)">
     <use style="fill:#4169e1;stroke:#4169e1;" x="100.8" xlink:href="#m39bd0fb1ab" y="266.059111"/>
     <use style="fill:#4169e1;stroke:#4169e1;" x="118.08" xlink:href="#m39bd0fb1ab" y="59.279186"/>
     <use style="fill:#4169e1;stroke:#4169e1;" x="135.36" xlink:href="#m39bd0fb1ab" y="243.538525"/>
     <use style="fill:#4169e1;stroke:#4169e1;" x="152.64" xlink:href="#m39bd0fb1ab" y="233.301895"/>
     <use style="fill:#4169e1;stroke:#4169e1;" x="169.92" xlink:href="#m39bd0fb1ab" y="253.775155"/>
     <use style="fill:#4169e1;stroke:#4169e1;" x="187.2" xlink:href="#m39bd0fb1ab" y="268.106437"/>
     <use style="fill:#4169e1;stroke:#4169e1;" x="204.48" xlink:href="#m39bd0fb1ab" y="270.153763"/>
     <use style="fill:#4169e1;stroke:#4169e1;" x="221.76" xlink:href="#m39bd0fb1ab" y="270.153763"/>
     <use style="fill:#4169e1;stroke:#4169e1;" x="239.04" xlink:href="#m39bd0fb1ab" y="270.153763"/>
     <use style="fill:#4169e1;stroke:#4169e1;" x="256.32" xlink:href="#m39bd0fb1ab" y="270.153763"/>
     <use style="fill:#4169e1;stroke:#4169e1;" x="273.6" xlink:href="#m39bd0fb1ab" y="270.153763"/>
     <use style="fill:#4169e1;stroke:#4169e1;" x="290.88" xlink:href="#m39bd0fb1ab" y="266.059111"/>
     <use style="fill:#4169e1;stroke:#4169e1;" x="308.16" xlink:href="#m39bd0fb1ab" y="270.153763"/>
     <use style="fill:#4169e1;stroke:#4169e1;" x="325.44" xlink:href="#m39bd0fb1ab" y="270.153763"/>
     <use style="fill:#4169e1;stroke:#4169e1;" x="342.72" xlink:href="#m39bd0fb1ab" y="270.153763"/>
     <use style="fill:#4169e1;stroke:#4169e1;" x="360" xlink:href="#m39bd0fb1ab" y="270.153763"/>
     <use style="fill:#4169e1;stroke:#4169e1;" x="377.28" xlink:href="#m39bd0fb1ab" y="270.153763"/>
     <use style="fill:#4169e1;stroke:#4169e1;" x="394.56" xlink:href="#m39bd0fb1ab" y="270.153763"/>
     <use style="fill:#4169e1;stroke:#4169e1;" x="411.84" xlink:href="#m39bd0fb1ab" y="264.011785"/>
     <use style="fill:#4169e1;stroke:#4169e1;" x="429.12" xlink:href="#m39bd0fb1ab" y="268.106437"/>
    </g>
   </g>
   <g id="patch_3">
    <path d="M 92.16 276.48 
L 92.16 27.648 
" style="fill:none;stroke:#262626;stroke-linecap:square;stroke-linejoin:miter;stroke-width:0.8;"/>
   </g>
   <g id="patch_4">
    <path d="M 92.16 276.48 
L 437.76 276.48 
" style="fill:none;stroke:#262626;stroke-linecap:square;stroke-linejoin:miter;stroke-width:0.8;"/>
   </g>
   <g id="text_12">
    <text style="fill:#262626;font-family:DejaVu Sans;font-size:20px;font-style:normal;font-weight:bold;text-anchor:middle;" transform="rotate(-0, 264.96, 21.648)" x="264.96" y="21.648">IGHD3-10*01</text>
   </g>
  </g>
 </g>
 <defs>
  <clipPath id="p37c61ca85c">
   <rect height="248.832" width="345.6" x="92.16" y="27.648"/>
  </clipPath>
 </defs>
</svg>
