<?xml version="1.0" encoding="utf-8" standalone="no"?>
<!DOCTYPE svg PUBLIC "-//W3C//DTD SVG 1.1//EN"
  "http://www.w3.org/Graphics/SVG/1.1/DTD/svg11.dtd">
<!-- Created with matplotlib (http://matplotlib.org/) -->
<svg height="345.6pt" version="1.1" viewBox="0 0 460.8 345.6" width="460.8pt" xmlns="http://www.w3.org/2000/svg" xmlns:xlink="http://www.w3.org/1999/xlink">
 <defs>
  <style type="text/css">
*{stroke-linecap:butt;stroke-linejoin:round;}
  </style>
 </defs>
 <g id="figure_1">
  <g id="patch_1">
   <path d="M 0 345.6 
L 460.8 345.6 
L 460.8 0 
L 0 0 
z
" style="fill:#ffffff;"/>
  </g>
  <g id="axes_1">
   <g id="patch_2">
    <path d="M 92.16 276.48 
L 437.76 276.48 
L 437.76 27.648 
L 92.16 27.648 
z
" style="fill:#ffffff;"/>
   </g>
   <g id="matplotlib.axis_1">
    <g id="xtick_1">
     <g id="line2d_1">
      <defs>
       <path d="M 0 0 
L 0 3.5 
" id="m5a3c8e7823" style="stroke:#262626;stroke-width:0.8;"/>
      </defs>
      <g>
       <use style="fill:#262626;stroke:#262626;stroke-width:0.8;" x="101.254737" xlink:href="#m5a3c8e7823" y="276.48"/>
      </g>
     </g>
     <g id="text_1">
      <text style="fill:#262626;font-family:DejaVu Sans;font-size:20px;font-style:normal;font-weight:normal;text-anchor:middle;" transform="rotate(-0, 101.254737, 298.676875)" x="101.254737" y="298.676875">0</text>
     </g>
    </g>
    <g id="xtick_2">
     <g id="line2d_2">
      <g>
       <use style="fill:#262626;stroke:#262626;stroke-width:0.8;" x="192.202105" xlink:href="#m5a3c8e7823" y="276.48"/>
      </g>
     </g>
     <g id="text_2">
      <text style="fill:#262626;font-family:DejaVu Sans;font-size:20px;font-style:normal;font-weight:normal;text-anchor:middle;" transform="rotate(-0, 192.202105, 298.676875)" x="192.202105" y="298.676875">5</text>
     </g>
    </g>
    <g id="xtick_3">
     <g id="line2d_3">
      <g>
       <use style="fill:#262626;stroke:#262626;stroke-width:0.8;" x="283.149474" xlink:href="#m5a3c8e7823" y="276.48"/>
      </g>
     </g>
     <g id="text_3">
      <text style="fill:#262626;font-family:DejaVu Sans;font-size:20px;font-style:normal;font-weight:normal;text-anchor:middle;" transform="rotate(-0, 283.149474, 298.676875)" x="283.149474" y="298.676875">10</text>
     </g>
    </g>
    <g id="xtick_4">
     <g id="line2d_4">
      <g>
       <use style="fill:#262626;stroke:#262626;stroke-width:0.8;" x="374.096842" xlink:href="#m5a3c8e7823" y="276.48"/>
      </g>
     </g>
     <g id="text_4">
      <text style="fill:#262626;font-family:DejaVu Sans;font-size:20px;font-style:normal;font-weight:normal;text-anchor:middle;" transform="rotate(-0, 374.096842, 298.676875)" x="374.096842" y="298.676875">15</text>
     </g>
    </g>
    <g id="text_5">
     <text style="fill:#262626;font-family:DejaVu Sans;font-size:20px;font-style:normal;font-weight:normal;text-anchor:middle;" transform="rotate(-0, 264.96, 322.033125)" x="264.96" y="322.033125">VD N length</text>
    </g>
   </g>
   <g id="matplotlib.axis_2">
    <g id="ytick_1">
     <g id="line2d_5">
      <defs>
       <path d="M 0 0 
L -3.5 0 
" id="m8519b763ee" style="stroke:#262626;stroke-width:0.8;"/>
      </defs>
      <g>
       <use style="fill:#262626;stroke:#262626;stroke-width:0.8;" x="92.16" xlink:href="#m8519b763ee" y="270.153763"/>
      </g>
     </g>
     <g id="text_6">
      <text style="fill:#262626;font-family:DejaVu Sans;font-size:20px;font-style:normal;font-weight:normal;text-anchor:end;" transform="rotate(-0, 85.16, 277.7522)" x="85.16" y="277.7522">0</text>
     </g>
    </g>
    <g id="ytick_2">
     <g id="line2d_6">
      <g>
       <use style="fill:#262626;stroke:#262626;stroke-width:0.8;" x="92.16" xlink:href="#m8519b763ee" y="223.292746"/>
      </g>
     </g>
     <g id="text_7">
      <text style="fill:#262626;font-family:DejaVu Sans;font-size:20px;font-style:normal;font-weight:normal;text-anchor:end;" transform="rotate(-0, 85.16, 230.891183)" x="85.16" y="230.891183">2</text>
     </g>
    </g>
    <g id="ytick_3">
     <g id="line2d_7">
      <g>
       <use style="fill:#262626;stroke:#262626;stroke-width:0.8;" x="92.16" xlink:href="#m8519b763ee" y="176.431729"/>
      </g>
     </g>
     <g id="text_8">
      <text style="fill:#262626;font-family:DejaVu Sans;font-size:20px;font-style:normal;font-weight:normal;text-anchor:end;" transform="rotate(-0, 85.16, 184.030166)" x="85.16" y="184.030166">4</text>
     </g>
    </g>
    <g id="ytick_4">
     <g id="line2d_8">
      <g>
       <use style="fill:#262626;stroke:#262626;stroke-width:0.8;" x="92.16" xlink:href="#m8519b763ee" y="129.570712"/>
      </g>
     </g>
     <g id="text_9">
      <text style="fill:#262626;font-family:DejaVu Sans;font-size:20px;font-style:normal;font-weight:normal;text-anchor:end;" transform="rotate(-0, 85.16, 137.169149)" x="85.16" y="137.169149">6</text>
     </g>
    </g>
    <g id="ytick_5">
     <g id="line2d_9">
      <g>
       <use style="fill:#262626;stroke:#262626;stroke-width:0.8;" x="92.16" xlink:href="#m8519b763ee" y="82.709695"/>
      </g>
     </g>
     <g id="text_10">
      <text style="fill:#262626;font-family:DejaVu Sans;font-size:20px;font-style:normal;font-weight:normal;text-anchor:end;" transform="rotate(-0, 85.16, 90.308132)" x="85.16" y="90.308132">8</text>
     </g>
    </g>
    <g id="ytick_6">
     <g id="line2d_10">
      <g>
       <use style="fill:#262626;stroke:#262626;stroke-width:0.8;" x="92.16" xlink:href="#m8519b763ee" y="35.848678"/>
      </g>
     </g>
     <g id="text_11">
      <text style="fill:#262626;font-family:DejaVu Sans;font-size:20px;font-style:normal;font-weight:normal;text-anchor:end;" transform="rotate(-0, 85.16, 43.447115)" x="85.16" y="43.447115">10</text>
     </g>
    </g>
    <g id="text_12">
     <text style="fill:#262626;font-family:DejaVu Sans;font-size:20px;font-style:normal;font-weight:normal;text-anchor:middle;" transform="rotate(-90, 51.550625, 152.064)" x="51.550625" y="152.064">counts</text>
    </g>
   </g>
   <g id="LineCollection_1">
    <path clip-path="url(#p10a1904c7f)" d="M 101.254737 129.570712 
L 101.254737 -1 
" style="fill:none;stroke:#4169e1;stroke-width:3;"/>
    <path clip-path="url(#p10a1904c7f)" d="M 119.444211 205.39343 
L 119.444211 100.609011 
" style="fill:none;stroke:#4169e1;stroke-width:3;"/>
    <path clip-path="url(#p10a1904c7f)" d="M 137.633684 270.153763 
L 137.633684 223.292746 
" style="fill:none;stroke:#4169e1;stroke-width:3;"/>
    <path clip-path="url(#p10a1904c7f)" d="M 155.823158 270.153763 
L 155.823158 270.153763 
" style="fill:none;stroke:#4169e1;stroke-width:3;"/>
    <path clip-path="url(#p10a1904c7f)" d="M 174.012632 270.153763 
L 174.012632 270.153763 
" style="fill:none;stroke:#4169e1;stroke-width:3;"/>
    <path clip-path="url(#p10a1904c7f)" d="M 192.202105 270.153763 
L 192.202105 270.153763 
" style="fill:none;stroke:#4169e1;stroke-width:3;"/>
    <path clip-path="url(#p10a1904c7f)" d="M 210.391579 270.153763 
L 210.391579 270.153763 
" style="fill:none;stroke:#4169e1;stroke-width:3;"/>
    <path clip-path="url(#p10a1904c7f)" d="M 228.581053 270.153763 
L 228.581053 223.292746 
" style="fill:none;stroke:#4169e1;stroke-width:3;"/>
    <path clip-path="url(#p10a1904c7f)" d="M 246.770526 270.153763 
L 246.770526 270.153763 
" style="fill:none;stroke:#4169e1;stroke-width:3;"/>
    <path clip-path="url(#p10a1904c7f)" d="M 264.96 270.153763 
L 264.96 270.153763 
" style="fill:none;stroke:#4169e1;stroke-width:3;"/>
    <path clip-path="url(#p10a1904c7f)" d="M 283.149474 205.39343 
L 283.149474 100.609011 
" style="fill:none;stroke:#4169e1;stroke-width:3;"/>
    <path clip-path="url(#p10a1904c7f)" d="M 301.338947 270.153763 
L 301.338947 270.153763 
" style="fill:none;stroke:#4169e1;stroke-width:3;"/>
    <path clip-path="url(#p10a1904c7f)" d="M 319.528421 270.153763 
L 319.528421 270.153763 
" style="fill:none;stroke:#4169e1;stroke-width:3;"/>
    <path clip-path="url(#p10a1904c7f)" d="M 337.717895 270.153763 
L 337.717895 270.153763 
" style="fill:none;stroke:#4169e1;stroke-width:3;"/>
    <path clip-path="url(#p10a1904c7f)" d="M 355.907368 270.153763 
L 355.907368 270.153763 
" style="fill:none;stroke:#4169e1;stroke-width:3;"/>
    <path clip-path="url(#p10a1904c7f)" d="M 374.096842 270.153763 
L 374.096842 270.153763 
" style="fill:none;stroke:#4169e1;stroke-width:3;"/>
    <path clip-path="url(#p10a1904c7f)" d="M 392.286316 270.153763 
L 392.286316 270.153763 
" style="fill:none;stroke:#4169e1;stroke-width:3;"/>
    <path clip-path="url(#p10a1904c7f)" d="M 410.475789 270.153763 
L 410.475789 270.153763 
" style="fill:none;stroke:#4169e1;stroke-width:3;"/>
    <path clip-path="url(#p10a1904c7f)" d="M 428.665263 223.292746 
L 428.665263 129.570712 
" style="fill:none;stroke:#4169e1;stroke-width:3;"/>
   </g>
   <g id="line2d_11">
    <path clip-path="url(#p10a1904c7f)" d="M 101.254737 59.279186 
L 119.444211 153.00122 
L 137.633684 246.723254 
L 155.823158 270.153763 
L 174.012632 270.153763 
L 192.202105 270.153763 
L 210.391579 270.153763 
L 228.581053 246.723254 
L 246.770526 270.153763 
L 264.96 270.153763 
L 283.149474 153.00122 
L 301.338947 270.153763 
L 319.528421 270.153763 
L 337.717895 270.153763 
L 355.907368 270.153763 
L 374.096842 270.153763 
L 392.286316 270.153763 
L 410.475789 270.153763 
L 428.665263 176.431729 
" style="fill:none;stroke:#4169e1;stroke-linecap:round;stroke-width:3;"/>
    <defs>
     <path d="M 0 3.25 
C 0.86191 3.25 1.688635 2.907559 2.298097 2.298097 
C 2.907559 1.688635 3.25 0.86191 3.25 0 
C 3.25 -0.86191 2.907559 -1.688635 2.298097 -2.298097 
C 1.688635 -2.907559 0.86191 -3.25 0 -3.25 
C -0.86191 -3.25 -1.688635 -2.907559 -2.298097 -2.298097 
C -2.907559 -1.688635 -3.25 -0.86191 -3.25 0 
C -3.25 0.86191 -2.907559 1.688635 -2.298097 2.298097 
C -1.688635 2.907559 -0.86191 3.25 0 3.25 
z
" id="m6d7f468511" style="stroke:#4169e1;"/>
    </defs>
    <g clip-path="url(#p10a1904c7f)">
     <use style="fill:#4169e1;stroke:#4169e1;" x="101.254737" xlink:href="#m6d7f468511" y="59.279186"/>
     <use style="fill:#4169e1;stroke:#4169e1;" x="119.444211" xlink:href="#m6d7f468511" y="153.00122"/>
     <use style="fill:#4169e1;stroke:#4169e1;" x="137.633684" xlink:href="#m6d7f468511" y="246.723254"/>
     <use style="fill:#4169e1;stroke:#4169e1;" x="155.823158" xlink:href="#m6d7f468511" y="270.153763"/>
     <use style="fill:#4169e1;stroke:#4169e1;" x="174.012632" xlink:href="#m6d7f468511" y="270.153763"/>
     <use style="fill:#4169e1;stroke:#4169e1;" x="192.202105" xlink:href="#m6d7f468511" y="270.153763"/>
     <use style="fill:#4169e1;stroke:#4169e1;" x="210.391579" xlink:href="#m6d7f468511" y="270.153763"/>
     <use style="fill:#4169e1;stroke:#4169e1;" x="228.581053" xlink:href="#m6d7f468511" y="246.723254"/>
     <use style="fill:#4169e1;stroke:#4169e1;" x="246.770526" xlink:href="#m6d7f468511" y="270.153763"/>
     <use style="fill:#4169e1;stroke:#4169e1;" x="264.96" xlink:href="#m6d7f468511" y="270.153763"/>
     <use style="fill:#4169e1;stroke:#4169e1;" x="283.149474" xlink:href="#m6d7f468511" y="153.00122"/>
     <use style="fill:#4169e1;stroke:#4169e1;" x="301.338947" xlink:href="#m6d7f468511" y="270.153763"/>
     <use style="fill:#4169e1;stroke:#4169e1;" x="319.528421" xlink:href="#m6d7f468511" y="270.153763"/>
     <use style="fill:#4169e1;stroke:#4169e1;" x="337.717895" xlink:href="#m6d7f468511" y="270.153763"/>
     <use style="fill:#4169e1;stroke:#4169e1;" x="355.907368" xlink:href="#m6d7f468511" y="270.153763"/>
     <use style="fill:#4169e1;stroke:#4169e1;" x="374.096842" xlink:href="#m6d7f468511" y="270.153763"/>
     <use style="fill:#4169e1;stroke:#4169e1;" x="392.286316" xlink:href="#m6d7f468511" y="270.153763"/>
     <use style="fill:#4169e1;stroke:#4169e1;" x="410.475789" xlink:href="#m6d7f468511" y="270.153763"/>
     <use style="fill:#4169e1;stroke:#4169e1;" x="428.665263" xlink:href="#m6d7f468511" y="176.431729"/>
    </g>
   </g>
   <g id="patch_3">
    <path d="M 92.16 276.48 
L 92.16 27.648 
" style="fill:none;stroke:#262626;stroke-linecap:square;stroke-linejoin:miter;stroke-width:0.8;"/>
   </g>
   <g id="patch_4">
    <path d="M 92.16 276.48 
L 437.76 276.48 
" style="fill:none;stroke:#262626;stroke-linecap:square;stroke-linejoin:miter;stroke-width:0.8;"/>
   </g>
   <g id="text_13">
    <text style="fill:#262626;font-family:DejaVu Sans;font-size:20px;font-style:normal;font-weight:bold;text-anchor:middle;" transform="rotate(-0, 264.96, 21.648)" x="264.96" y="21.648">IGHD1-26*01</text>
   </g>
  </g>
 </g>
 <defs>
  <clipPath id="p10a1904c7f">
   <rect height="248.832" width="345.6" x="92.16" y="27.648"/>
  </clipPath>
 </defs>
</svg>
