<?xml version="1.0" encoding="utf-8" standalone="no"?>
<!DOCTYPE svg PUBLIC "-//W3C//DTD SVG 1.1//EN"
  "http://www.w3.org/Graphics/SVG/1.1/DTD/svg11.dtd">
<!-- Created with matplotlib (http://matplotlib.org/) -->
<svg height="345.6pt" version="1.1" viewBox="0 0 460.8 345.6" width="460.8pt" xmlns="http://www.w3.org/2000/svg" xmlns:xlink="http://www.w3.org/1999/xlink">
 <defs>
  <style type="text/css">
*{stroke-linecap:butt;stroke-linejoin:round;}
  </style>
 </defs>
 <g id="figure_1">
  <g id="patch_1">
   <path d="M 0 345.6 
L 460.8 345.6 
L 460.8 0 
L 0 0 
z
" style="fill:#ffffff;"/>
  </g>
  <g id="axes_1">
   <g id="patch_2">
    <path d="M 92.16 276.48 
L 437.76 276.48 
L 437.76 27.648 
L 92.16 27.648 
z
" style="fill:#ffffff;"/>
   </g>
   <g id="matplotlib.axis_1">
    <g id="xtick_1">
     <g id="line2d_1">
      <defs>
       <path d="M 0 0 
L 0 3.5 
" id="mb5fc751772" style="stroke:#262626;stroke-width:0.8;"/>
      </defs>
      <g>
       <use style="fill:#262626;stroke:#262626;stroke-width:0.8;" x="203.245714" xlink:href="#mb5fc751772" y="276.48"/>
      </g>
     </g>
     <g id="text_1">
      <text style="fill:#262626;font-family:DejaVu Sans;font-size:20px;font-style:normal;font-weight:normal;text-anchor:middle;" transform="rotate(-0, 203.245714, 298.676875)" x="203.245714" y="298.676875">5</text>
     </g>
    </g>
    <g id="xtick_2">
     <g id="line2d_2">
      <g>
       <use style="fill:#262626;stroke:#262626;stroke-width:0.8;" x="326.674286" xlink:href="#mb5fc751772" y="276.48"/>
      </g>
     </g>
     <g id="text_2">
      <text style="fill:#262626;font-family:DejaVu Sans;font-size:20px;font-style:normal;font-weight:normal;text-anchor:middle;" transform="rotate(-0, 326.674286, 298.676875)" x="326.674286" y="298.676875">10</text>
     </g>
    </g>
    <g id="text_3">
     <text style="fill:#262626;font-family:DejaVu Sans;font-size:20px;font-style:normal;font-weight:normal;text-anchor:middle;" transform="rotate(-0, 264.96, 322.033125)" x="264.96" y="322.033125">VD N length</text>
    </g>
   </g>
   <g id="matplotlib.axis_2">
    <g id="ytick_1">
     <g id="line2d_3">
      <defs>
       <path d="M 0 0 
L -3.5 0 
" id="m03a405f484" style="stroke:#262626;stroke-width:0.8;"/>
      </defs>
      <g>
       <use style="fill:#262626;stroke:#262626;stroke-width:0.8;" x="92.16" xlink:href="#m03a405f484" y="270.153763"/>
      </g>
     </g>
     <g id="text_4">
      <text style="fill:#262626;font-family:DejaVu Sans;font-size:20px;font-style:normal;font-weight:normal;text-anchor:end;" transform="rotate(-0, 85.16, 277.7522)" x="85.16" y="277.7522">0</text>
     </g>
    </g>
    <g id="ytick_2">
     <g id="line2d_4">
      <g>
       <use style="fill:#262626;stroke:#262626;stroke-width:0.8;" x="92.16" xlink:href="#m03a405f484" y="217.435119"/>
      </g>
     </g>
     <g id="text_5">
      <text style="fill:#262626;font-family:DejaVu Sans;font-size:20px;font-style:normal;font-weight:normal;text-anchor:end;" transform="rotate(-0, 85.16, 225.033556)" x="85.16" y="225.033556">1</text>
     </g>
    </g>
    <g id="ytick_3">
     <g id="line2d_5">
      <g>
       <use style="fill:#262626;stroke:#262626;stroke-width:0.8;" x="92.16" xlink:href="#m03a405f484" y="164.716475"/>
      </g>
     </g>
     <g id="text_6">
      <text style="fill:#262626;font-family:DejaVu Sans;font-size:20px;font-style:normal;font-weight:normal;text-anchor:end;" transform="rotate(-0, 85.16, 172.314912)" x="85.16" y="172.314912">2</text>
     </g>
    </g>
    <g id="ytick_4">
     <g id="line2d_6">
      <g>
       <use style="fill:#262626;stroke:#262626;stroke-width:0.8;" x="92.16" xlink:href="#m03a405f484" y="111.997831"/>
      </g>
     </g>
     <g id="text_7">
      <text style="fill:#262626;font-family:DejaVu Sans;font-size:20px;font-style:normal;font-weight:normal;text-anchor:end;" transform="rotate(-0, 85.16, 119.596268)" x="85.16" y="119.596268">3</text>
     </g>
    </g>
    <g id="ytick_5">
     <g id="line2d_7">
      <g>
       <use style="fill:#262626;stroke:#262626;stroke-width:0.8;" x="92.16" xlink:href="#m03a405f484" y="59.279186"/>
      </g>
     </g>
     <g id="text_8">
      <text style="fill:#262626;font-family:DejaVu Sans;font-size:20px;font-style:normal;font-weight:normal;text-anchor:end;" transform="rotate(-0, 85.16, 66.877624)" x="85.16" y="66.877624">4</text>
     </g>
    </g>
    <g id="text_9">
     <text style="fill:#262626;font-family:DejaVu Sans;font-size:20px;font-style:normal;font-weight:normal;text-anchor:middle;" transform="rotate(-90, 64.275625, 152.064)" x="64.275625" y="152.064">counts</text>
    </g>
   </g>
   <g id="LineCollection_1">
    <path clip-path="url(#p8f2e75c594)" d="M 104.502857 239.271896 
L 104.502857 90.161053 
" style="fill:none;stroke:#4169e1;stroke-width:3;"/>
    <path clip-path="url(#p8f2e75c594)" d="M 129.188571 203.309201 
L 129.188571 20.68646 
" style="fill:none;stroke:#4169e1;stroke-width:3;"/>
    <path clip-path="url(#p8f2e75c594)" d="M 153.874286 270.153763 
L 153.874286 270.153763 
" style="fill:none;stroke:#4169e1;stroke-width:3;"/>
    <path clip-path="url(#p8f2e75c594)" d="M 178.56 270.153763 
L 178.56 270.153763 
" style="fill:none;stroke:#4169e1;stroke-width:3;"/>
    <path clip-path="url(#p8f2e75c594)" d="M 203.245714 270.153763 
L 203.245714 270.153763 
" style="fill:none;stroke:#4169e1;stroke-width:3;"/>
    <path clip-path="url(#p8f2e75c594)" d="M 227.931429 270.153763 
L 227.931429 270.153763 
" style="fill:none;stroke:#4169e1;stroke-width:3;"/>
    <path clip-path="url(#p8f2e75c594)" d="M 252.617143 270.153763 
L 252.617143 164.716475 
" style="fill:none;stroke:#4169e1;stroke-width:3;"/>
    <path clip-path="url(#p8f2e75c594)" d="M 277.302857 270.153763 
L 277.302857 270.153763 
" style="fill:none;stroke:#4169e1;stroke-width:3;"/>
    <path clip-path="url(#p8f2e75c594)" d="M 301.988571 270.153763 
L 301.988571 270.153763 
" style="fill:none;stroke:#4169e1;stroke-width:3;"/>
    <path clip-path="url(#p8f2e75c594)" d="M 326.674286 270.153763 
L 326.674286 270.153763 
" style="fill:none;stroke:#4169e1;stroke-width:3;"/>
    <path clip-path="url(#p8f2e75c594)" d="M 351.36 270.153763 
L 351.36 270.153763 
" style="fill:none;stroke:#4169e1;stroke-width:3;"/>
    <path clip-path="url(#p8f2e75c594)" d="M 376.045714 270.153763 
L 376.045714 270.153763 
" style="fill:none;stroke:#4169e1;stroke-width:3;"/>
    <path clip-path="url(#p8f2e75c594)" d="M 400.731429 270.153763 
L 400.731429 270.153763 
" style="fill:none;stroke:#4169e1;stroke-width:3;"/>
    <path clip-path="url(#p8f2e75c594)" d="M 425.417143 164.716475 
L 425.417143 -1 
" style="fill:none;stroke:#4169e1;stroke-width:3;"/>
   </g>
   <g id="line2d_8">
    <path clip-path="url(#p8f2e75c594)" d="M 104.502857 164.716475 
L 129.188571 111.997831 
L 153.874286 270.153763 
L 178.56 270.153763 
L 203.245714 270.153763 
L 227.931429 270.153763 
L 252.617143 217.435119 
L 277.302857 270.153763 
L 301.988571 270.153763 
L 326.674286 270.153763 
L 351.36 270.153763 
L 376.045714 270.153763 
L 400.731429 270.153763 
L 425.417143 59.279186 
" style="fill:none;stroke:#4169e1;stroke-linecap:round;stroke-width:3;"/>
    <defs>
     <path d="M 0 3.25 
C 0.86191 3.25 1.688635 2.907559 2.298097 2.298097 
C 2.907559 1.688635 3.25 0.86191 3.25 0 
C 3.25 -0.86191 2.907559 -1.688635 2.298097 -2.298097 
C 1.688635 -2.907559 0.86191 -3.25 0 -3.25 
C -0.86191 -3.25 -1.688635 -2.907559 -2.298097 -2.298097 
C -2.907559 -1.688635 -3.25 -0.86191 -3.25 0 
C -3.25 0.86191 -2.907559 1.688635 -2.298097 2.298097 
C -1.688635 2.907559 -0.86191 3.25 0 3.25 
z
" id="m95a6d17b6d" style="stroke:#4169e1;"/>
    </defs>
    <g clip-path="url(#p8f2e75c594)">
     <use style="fill:#4169e1;stroke:#4169e1;" x="104.502857" xlink:href="#m95a6d17b6d" y="164.716475"/>
     <use style="fill:#4169e1;stroke:#4169e1;" x="129.188571" xlink:href="#m95a6d17b6d" y="111.997831"/>
     <use style="fill:#4169e1;stroke:#4169e1;" x="153.874286" xlink:href="#m95a6d17b6d" y="270.153763"/>
     <use style="fill:#4169e1;stroke:#4169e1;" x="178.56" xlink:href="#m95a6d17b6d" y="270.153763"/>
     <use style="fill:#4169e1;stroke:#4169e1;" x="203.245714" xlink:href="#m95a6d17b6d" y="270.153763"/>
     <use style="fill:#4169e1;stroke:#4169e1;" x="227.931429" xlink:href="#m95a6d17b6d" y="270.153763"/>
     <use style="fill:#4169e1;stroke:#4169e1;" x="252.617143" xlink:href="#m95a6d17b6d" y="217.435119"/>
     <use style="fill:#4169e1;stroke:#4169e1;" x="277.302857" xlink:href="#m95a6d17b6d" y="270.153763"/>
     <use style="fill:#4169e1;stroke:#4169e1;" x="301.988571" xlink:href="#m95a6d17b6d" y="270.153763"/>
     <use style="fill:#4169e1;stroke:#4169e1;" x="326.674286" xlink:href="#m95a6d17b6d" y="270.153763"/>
     <use style="fill:#4169e1;stroke:#4169e1;" x="351.36" xlink:href="#m95a6d17b6d" y="270.153763"/>
     <use style="fill:#4169e1;stroke:#4169e1;" x="376.045714" xlink:href="#m95a6d17b6d" y="270.153763"/>
     <use style="fill:#4169e1;stroke:#4169e1;" x="400.731429" xlink:href="#m95a6d17b6d" y="270.153763"/>
     <use style="fill:#4169e1;stroke:#4169e1;" x="425.417143" xlink:href="#m95a6d17b6d" y="59.279186"/>
    </g>
   </g>
   <g id="patch_3">
    <path d="M 92.16 276.48 
L 92.16 27.648 
" style="fill:none;stroke:#262626;stroke-linecap:square;stroke-linejoin:miter;stroke-width:0.8;"/>
   </g>
   <g id="patch_4">
    <path d="M 92.16 276.48 
L 437.76 276.48 
" style="fill:none;stroke:#262626;stroke-linecap:square;stroke-linejoin:miter;stroke-width:0.8;"/>
   </g>
   <g id="text_10">
    <text style="fill:#262626;font-family:DejaVu Sans;font-size:20px;font-style:normal;font-weight:bold;text-anchor:middle;" transform="rotate(-0, 264.96, 21.648)" x="264.96" y="21.648">IGHD1-1*01</text>
   </g>
  </g>
 </g>
 <defs>
  <clipPath id="p8f2e75c594">
   <rect height="248.832" width="345.6" x="92.16" y="27.648"/>
  </clipPath>
 </defs>
</svg>
