<?xml version="1.0" encoding="utf-8" standalone="no"?>
<!DOCTYPE svg PUBLIC "-//W3C//DTD SVG 1.1//EN"
  "http://www.w3.org/Graphics/SVG/1.1/DTD/svg11.dtd">
<!-- Created with matplotlib (http://matplotlib.org/) -->
<svg height="345.6pt" version="1.1" viewBox="0 0 460.8 345.6" width="460.8pt" xmlns="http://www.w3.org/2000/svg" xmlns:xlink="http://www.w3.org/1999/xlink">
 <defs>
  <style type="text/css">
*{stroke-linecap:butt;stroke-linejoin:round;}
  </style>
 </defs>
 <g id="figure_1">
  <g id="patch_1">
   <path d="M 0 345.6 
L 460.8 345.6 
L 460.8 0 
L 0 0 
z
" style="fill:#ffffff;"/>
  </g>
  <g id="axes_1">
   <g id="patch_2">
    <path d="M 92.16 276.48 
L 437.76 276.48 
L 437.76 27.648 
L 92.16 27.648 
z
" style="fill:#ffffff;"/>
   </g>
   <g id="matplotlib.axis_1">
    <g id="xtick_1">
     <g id="line2d_1">
      <defs>
       <path d="M 0 0 
L 0 3.5 
" id="md9db26cc1e" style="stroke:#262626;stroke-width:0.8;"/>
      </defs>
      <g>
       <use style="fill:#262626;stroke:#262626;stroke-width:0.8;" x="189.36" xlink:href="#md9db26cc1e" y="276.48"/>
      </g>
     </g>
     <g id="text_1">
      <text style="fill:#262626;font-family:DejaVu Sans;font-size:20px;font-style:normal;font-weight:normal;text-anchor:middle;" transform="rotate(-0, 189.36, 298.676875)" x="189.36" y="298.676875">5</text>
     </g>
    </g>
    <g id="xtick_2">
     <g id="line2d_2">
      <g>
       <use style="fill:#262626;stroke:#262626;stroke-width:0.8;" x="297.36" xlink:href="#md9db26cc1e" y="276.48"/>
      </g>
     </g>
     <g id="text_2">
      <text style="fill:#262626;font-family:DejaVu Sans;font-size:20px;font-style:normal;font-weight:normal;text-anchor:middle;" transform="rotate(-0, 297.36, 298.676875)" x="297.36" y="298.676875">10</text>
     </g>
    </g>
    <g id="xtick_3">
     <g id="line2d_3">
      <g>
       <use style="fill:#262626;stroke:#262626;stroke-width:0.8;" x="405.36" xlink:href="#md9db26cc1e" y="276.48"/>
      </g>
     </g>
     <g id="text_3">
      <text style="fill:#262626;font-family:DejaVu Sans;font-size:20px;font-style:normal;font-weight:normal;text-anchor:middle;" transform="rotate(-0, 405.36, 298.676875)" x="405.36" y="298.676875">15</text>
     </g>
    </g>
    <g id="text_4">
     <text style="fill:#262626;font-family:DejaVu Sans;font-size:20px;font-style:normal;font-weight:normal;text-anchor:middle;" transform="rotate(-0, 264.96, 322.033125)" x="264.96" y="322.033125">J 5' deletion</text>
    </g>
   </g>
   <g id="matplotlib.axis_2">
    <g id="ytick_1">
     <g id="line2d_4">
      <defs>
       <path d="M 0 0 
L -3.5 0 
" id="m0d6a1ea905" style="stroke:#262626;stroke-width:0.8;"/>
      </defs>
      <g>
       <use style="fill:#262626;stroke:#262626;stroke-width:0.8;" x="92.16" xlink:href="#m0d6a1ea905" y="270.153763"/>
      </g>
     </g>
     <g id="text_5">
      <text style="fill:#262626;font-family:DejaVu Sans;font-size:20px;font-style:normal;font-weight:normal;text-anchor:end;" transform="rotate(-0, 85.16, 277.7522)" x="85.16" y="277.7522">0</text>
     </g>
    </g>
    <g id="ytick_2">
     <g id="line2d_5">
      <g>
       <use style="fill:#262626;stroke:#262626;stroke-width:0.8;" x="92.16" xlink:href="#m0d6a1ea905" y="223.292746"/>
      </g>
     </g>
     <g id="text_6">
      <text style="fill:#262626;font-family:DejaVu Sans;font-size:20px;font-style:normal;font-weight:normal;text-anchor:end;" transform="rotate(-0, 85.16, 230.891183)" x="85.16" y="230.891183">2</text>
     </g>
    </g>
    <g id="ytick_3">
     <g id="line2d_6">
      <g>
       <use style="fill:#262626;stroke:#262626;stroke-width:0.8;" x="92.16" xlink:href="#m0d6a1ea905" y="176.431729"/>
      </g>
     </g>
     <g id="text_7">
      <text style="fill:#262626;font-family:DejaVu Sans;font-size:20px;font-style:normal;font-weight:normal;text-anchor:end;" transform="rotate(-0, 85.16, 184.030166)" x="85.16" y="184.030166">4</text>
     </g>
    </g>
    <g id="ytick_4">
     <g id="line2d_7">
      <g>
       <use style="fill:#262626;stroke:#262626;stroke-width:0.8;" x="92.16" xlink:href="#m0d6a1ea905" y="129.570712"/>
      </g>
     </g>
     <g id="text_8">
      <text style="fill:#262626;font-family:DejaVu Sans;font-size:20px;font-style:normal;font-weight:normal;text-anchor:end;" transform="rotate(-0, 85.16, 137.169149)" x="85.16" y="137.169149">6</text>
     </g>
    </g>
    <g id="ytick_5">
     <g id="line2d_8">
      <g>
       <use style="fill:#262626;stroke:#262626;stroke-width:0.8;" x="92.16" xlink:href="#m0d6a1ea905" y="82.709695"/>
      </g>
     </g>
     <g id="text_9">
      <text style="fill:#262626;font-family:DejaVu Sans;font-size:20px;font-style:normal;font-weight:normal;text-anchor:end;" transform="rotate(-0, 85.16, 90.308132)" x="85.16" y="90.308132">8</text>
     </g>
    </g>
    <g id="ytick_6">
     <g id="line2d_9">
      <g>
       <use style="fill:#262626;stroke:#262626;stroke-width:0.8;" x="92.16" xlink:href="#m0d6a1ea905" y="35.848678"/>
      </g>
     </g>
     <g id="text_10">
      <text style="fill:#262626;font-family:DejaVu Sans;font-size:20px;font-style:normal;font-weight:normal;text-anchor:end;" transform="rotate(-0, 85.16, 43.447115)" x="85.16" y="43.447115">10</text>
     </g>
    </g>
    <g id="text_11">
     <text style="fill:#262626;font-family:DejaVu Sans;font-size:20px;font-style:normal;font-weight:normal;text-anchor:middle;" transform="rotate(-90, 51.550625, 152.064)" x="51.550625" y="152.064">counts</text>
    </g>
   </g>
   <g id="LineCollection_1">
    <path clip-path="url(#pff8845dfd0)" d="M 102.96 129.570712 
L 102.96 -1 
" style="fill:none;stroke:#4169e1;stroke-width:3;"/>
    <path clip-path="url(#pff8845dfd0)" d="M 124.56 270.153763 
L 124.56 223.292746 
" style="fill:none;stroke:#4169e1;stroke-width:3;"/>
    <path clip-path="url(#pff8845dfd0)" d="M 146.16 270.153763 
L 146.16 223.292746 
" style="fill:none;stroke:#4169e1;stroke-width:3;"/>
    <path clip-path="url(#pff8845dfd0)" d="M 167.76 270.153763 
L 167.76 223.292746 
" style="fill:none;stroke:#4169e1;stroke-width:3;"/>
    <path clip-path="url(#pff8845dfd0)" d="M 189.36 270.153763 
L 189.36 223.292746 
" style="fill:none;stroke:#4169e1;stroke-width:3;"/>
    <path clip-path="url(#pff8845dfd0)" d="M 210.96 270.153763 
L 210.96 223.292746 
" style="fill:none;stroke:#4169e1;stroke-width:3;"/>
    <path clip-path="url(#pff8845dfd0)" d="M 232.56 270.153763 
L 232.56 270.153763 
" style="fill:none;stroke:#4169e1;stroke-width:3;"/>
    <path clip-path="url(#pff8845dfd0)" d="M 254.16 270.153763 
L 254.16 270.153763 
" style="fill:none;stroke:#4169e1;stroke-width:3;"/>
    <path clip-path="url(#pff8845dfd0)" d="M 275.76 270.153763 
L 275.76 270.153763 
" style="fill:none;stroke:#4169e1;stroke-width:3;"/>
    <path clip-path="url(#pff8845dfd0)" d="M 297.36 270.153763 
L 297.36 223.292746 
" style="fill:none;stroke:#4169e1;stroke-width:3;"/>
    <path clip-path="url(#pff8845dfd0)" d="M 318.96 270.153763 
L 318.96 270.153763 
" style="fill:none;stroke:#4169e1;stroke-width:3;"/>
    <path clip-path="url(#pff8845dfd0)" d="M 340.56 270.153763 
L 340.56 270.153763 
" style="fill:none;stroke:#4169e1;stroke-width:3;"/>
    <path clip-path="url(#pff8845dfd0)" d="M 362.16 270.153763 
L 362.16 270.153763 
" style="fill:none;stroke:#4169e1;stroke-width:3;"/>
    <path clip-path="url(#pff8845dfd0)" d="M 383.76 270.153763 
L 383.76 270.153763 
" style="fill:none;stroke:#4169e1;stroke-width:3;"/>
    <path clip-path="url(#pff8845dfd0)" d="M 405.36 256.428489 
L 405.36 190.157003 
" style="fill:none;stroke:#4169e1;stroke-width:3;"/>
    <path clip-path="url(#pff8845dfd0)" d="M 426.96 270.153763 
L 426.96 223.292746 
" style="fill:none;stroke:#4169e1;stroke-width:3;"/>
   </g>
   <g id="line2d_10">
    <path clip-path="url(#pff8845dfd0)" d="M 102.96 59.279186 
L 124.56 246.723254 
L 146.16 246.723254 
L 167.76 246.723254 
L 189.36 246.723254 
L 210.96 246.723254 
L 232.56 270.153763 
L 254.16 270.153763 
L 275.76 270.153763 
L 297.36 246.723254 
L 318.96 270.153763 
L 340.56 270.153763 
L 362.16 270.153763 
L 383.76 270.153763 
L 405.36 223.292746 
L 426.96 246.723254 
" style="fill:none;stroke:#4169e1;stroke-linecap:round;stroke-width:3;"/>
    <defs>
     <path d="M 0 3.25 
C 0.86191 3.25 1.688635 2.907559 2.298097 2.298097 
C 2.907559 1.688635 3.25 0.86191 3.25 0 
C 3.25 -0.86191 2.907559 -1.688635 2.298097 -2.298097 
C 1.688635 -2.907559 0.86191 -3.25 0 -3.25 
C -0.86191 -3.25 -1.688635 -2.907559 -2.298097 -2.298097 
C -2.907559 -1.688635 -3.25 -0.86191 -3.25 0 
C -3.25 0.86191 -2.907559 1.688635 -2.298097 2.298097 
C -1.688635 2.907559 -0.86191 3.25 0 3.25 
z
" id="m89ef09b50f" style="stroke:#4169e1;"/>
    </defs>
    <g clip-path="url(#pff8845dfd0)">
     <use style="fill:#4169e1;stroke:#4169e1;" x="102.96" xlink:href="#m89ef09b50f" y="59.279186"/>
     <use style="fill:#4169e1;stroke:#4169e1;" x="124.56" xlink:href="#m89ef09b50f" y="246.723254"/>
     <use style="fill:#4169e1;stroke:#4169e1;" x="146.16" xlink:href="#m89ef09b50f" y="246.723254"/>
     <use style="fill:#4169e1;stroke:#4169e1;" x="167.76" xlink:href="#m89ef09b50f" y="246.723254"/>
     <use style="fill:#4169e1;stroke:#4169e1;" x="189.36" xlink:href="#m89ef09b50f" y="246.723254"/>
     <use style="fill:#4169e1;stroke:#4169e1;" x="210.96" xlink:href="#m89ef09b50f" y="246.723254"/>
     <use style="fill:#4169e1;stroke:#4169e1;" x="232.56" xlink:href="#m89ef09b50f" y="270.153763"/>
     <use style="fill:#4169e1;stroke:#4169e1;" x="254.16" xlink:href="#m89ef09b50f" y="270.153763"/>
     <use style="fill:#4169e1;stroke:#4169e1;" x="275.76" xlink:href="#m89ef09b50f" y="270.153763"/>
     <use style="fill:#4169e1;stroke:#4169e1;" x="297.36" xlink:href="#m89ef09b50f" y="246.723254"/>
     <use style="fill:#4169e1;stroke:#4169e1;" x="318.96" xlink:href="#m89ef09b50f" y="270.153763"/>
     <use style="fill:#4169e1;stroke:#4169e1;" x="340.56" xlink:href="#m89ef09b50f" y="270.153763"/>
     <use style="fill:#4169e1;stroke:#4169e1;" x="362.16" xlink:href="#m89ef09b50f" y="270.153763"/>
     <use style="fill:#4169e1;stroke:#4169e1;" x="383.76" xlink:href="#m89ef09b50f" y="270.153763"/>
     <use style="fill:#4169e1;stroke:#4169e1;" x="405.36" xlink:href="#m89ef09b50f" y="223.292746"/>
     <use style="fill:#4169e1;stroke:#4169e1;" x="426.96" xlink:href="#m89ef09b50f" y="246.723254"/>
    </g>
   </g>
   <g id="patch_3">
    <path d="M 92.16 276.48 
L 92.16 27.648 
" style="fill:none;stroke:#262626;stroke-linecap:square;stroke-linejoin:miter;stroke-width:0.8;"/>
   </g>
   <g id="patch_4">
    <path d="M 92.16 276.48 
L 437.76 276.48 
" style="fill:none;stroke:#262626;stroke-linecap:square;stroke-linejoin:miter;stroke-width:0.8;"/>
   </g>
   <g id="text_12">
    <text style="fill:#262626;font-family:DejaVu Sans;font-size:20px;font-style:normal;font-weight:bold;text-anchor:middle;" transform="rotate(-0, 264.96, 21.648)" x="264.96" y="21.648">IGHJ2*01</text>
   </g>
  </g>
 </g>
 <defs>
  <clipPath id="pff8845dfd0">
   <rect height="248.832" width="345.6" x="92.16" y="27.648"/>
  </clipPath>
 </defs>
</svg>
