<?xml version="1.0" encoding="utf-8" standalone="no"?>
<!DOCTYPE svg PUBLIC "-//W3C//DTD SVG 1.1//EN"
  "http://www.w3.org/Graphics/SVG/1.1/DTD/svg11.dtd">
<!-- Created with matplotlib (http://matplotlib.org/) -->
<svg height="288pt" version="1.1" viewBox="0 0 1008 288" width="1008pt" xmlns="http://www.w3.org/2000/svg" xmlns:xlink="http://www.w3.org/1999/xlink">
 <defs>
  <style type="text/css">
*{stroke-linecap:butt;stroke-linejoin:round;}
  </style>
 </defs>
 <g id="figure_1">
  <g id="patch_1">
   <path d="M 0 288 
L 1008 288 
L 1008 0 
L 0 0 
z
" style="fill:#ffffff;"/>
  </g>
  <g id="axes_1">
   <g id="patch_2">
    <path d="M 201.6 230.4 
L 957.6 230.4 
L 957.6 23.04 
L 201.6 23.04 
z
" style="fill:#ffffff;"/>
   </g>
   <g id="matplotlib.axis_1">
    <g id="xtick_1">
     <g id="line2d_1">
      <defs>
       <path d="M 0 0 
L 0 3.5 
" id="m8a69331aec" style="stroke:#262626;stroke-width:0.8;"/>
      </defs>
      <g>
       <use style="fill:#262626;stroke:#262626;stroke-width:0.8;" x="209.16" xlink:href="#m8a69331aec" y="230.4"/>
      </g>
     </g>
     <g id="text_1">
      <text style="fill:#262626;font-family:DejaVu Sans;font-size:20px;font-style:normal;font-weight:normal;text-anchor:middle;" transform="rotate(-0, 209.16, 252.596875)" x="209.16" y="252.596875">0</text>
     </g>
    </g>
    <g id="xtick_2">
     <g id="line2d_2">
      <g>
       <use style="fill:#262626;stroke:#262626;stroke-width:0.8;" x="360.36" xlink:href="#m8a69331aec" y="230.4"/>
      </g>
     </g>
     <g id="text_2">
      <text style="fill:#262626;font-family:DejaVu Sans;font-size:20px;font-style:normal;font-weight:normal;text-anchor:middle;" transform="rotate(-0, 360.36, 252.596875)" x="360.36" y="252.596875">10</text>
     </g>
    </g>
    <g id="xtick_3">
     <g id="line2d_3">
      <g>
       <use style="fill:#262626;stroke:#262626;stroke-width:0.8;" x="511.56" xlink:href="#m8a69331aec" y="230.4"/>
      </g>
     </g>
     <g id="text_3">
      <text style="fill:#262626;font-family:DejaVu Sans;font-size:20px;font-style:normal;font-weight:normal;text-anchor:middle;" transform="rotate(-0, 511.56, 252.596875)" x="511.56" y="252.596875">20</text>
     </g>
    </g>
    <g id="xtick_4">
     <g id="line2d_4">
      <g>
       <use style="fill:#262626;stroke:#262626;stroke-width:0.8;" x="662.76" xlink:href="#m8a69331aec" y="230.4"/>
      </g>
     </g>
     <g id="text_4">
      <text style="fill:#262626;font-family:DejaVu Sans;font-size:20px;font-style:normal;font-weight:normal;text-anchor:middle;" transform="rotate(-0, 662.76, 252.596875)" x="662.76" y="252.596875">30</text>
     </g>
    </g>
    <g id="xtick_5">
     <g id="line2d_5">
      <g>
       <use style="fill:#262626;stroke:#262626;stroke-width:0.8;" x="813.96" xlink:href="#m8a69331aec" y="230.4"/>
      </g>
     </g>
     <g id="text_5">
      <text style="fill:#262626;font-family:DejaVu Sans;font-size:20px;font-style:normal;font-weight:normal;text-anchor:middle;" transform="rotate(-0, 813.96, 252.596875)" x="813.96" y="252.596875">40</text>
     </g>
    </g>
    <g id="text_6">
     <text style="fill:#262626;font-family:DejaVu Sans;font-size:20px;font-style:normal;font-weight:normal;text-anchor:middle;" transform="rotate(-0, 579.6, 275.953125)" x="579.6" y="275.953125">position</text>
    </g>
   </g>
   <g id="matplotlib.axis_2">
    <g id="ytick_1">
     <g id="line2d_6">
      <defs>
       <path d="M 0 0 
L -3.5 0 
" id="m37c23176ed" style="stroke:#262626;stroke-width:0.8;"/>
      </defs>
      <g>
       <use style="fill:#262626;stroke:#262626;stroke-width:0.8;" x="201.6" xlink:href="#m37c23176ed" y="225.128136"/>
      </g>
     </g>
     <g id="text_7">
      <text style="fill:#262626;font-family:DejaVu Sans;font-size:20px;font-style:normal;font-weight:normal;text-anchor:end;" transform="rotate(-0, 194.6, 232.726573)" x="194.6" y="232.726573">0.0</text>
     </g>
    </g>
    <g id="ytick_2">
     <g id="line2d_7">
      <g>
       <use style="fill:#262626;stroke:#262626;stroke-width:0.8;" x="201.6" xlink:href="#m37c23176ed" y="143.121356"/>
      </g>
     </g>
     <g id="text_8">
      <text style="fill:#262626;font-family:DejaVu Sans;font-size:20px;font-style:normal;font-weight:normal;text-anchor:end;" transform="rotate(-0, 194.6, 150.719793)" x="194.6" y="150.719793">0.1</text>
     </g>
    </g>
    <g id="ytick_3">
     <g id="line2d_8">
      <g>
       <use style="fill:#262626;stroke:#262626;stroke-width:0.8;" x="201.6" xlink:href="#m37c23176ed" y="61.114576"/>
      </g>
     </g>
     <g id="text_9">
      <text style="fill:#262626;font-family:DejaVu Sans;font-size:20px;font-style:normal;font-weight:normal;text-anchor:end;" transform="rotate(-0, 194.6, 68.713014)" x="194.6" y="68.713014">0.2</text>
     </g>
    </g>
    <g id="text_10">
     <text style="fill:#262626;font-family:DejaVu Sans;font-size:20px;font-style:normal;font-weight:normal;text-anchor:middle;" transform="rotate(-90, 154.634375, 126.72)" x="154.634375" y="126.72">mut freq</text>
    </g>
   </g>
   <g id="LineCollection_1">
    <path clip-path="url(#p2e4bdec156)" d="M 209.16 289 
L 209.16 149.694104 
" style="fill:none;stroke:#4169e1;stroke-width:3;"/>
    <path clip-path="url(#p2e4bdec156)" d="M 224.28 289 
L 224.28 149.694104 
" style="fill:none;stroke:#4169e1;stroke-width:3;"/>
    <path clip-path="url(#p2e4bdec156)" d="M 239.4 289 
L 239.4 149.694104 
" style="fill:none;stroke:#4169e1;stroke-width:3;"/>
    <path clip-path="url(#p2e4bdec156)" d="M 254.52 289 
L 254.52 149.694104 
" style="fill:none;stroke:#4169e1;stroke-width:3;"/>
    <path clip-path="url(#p2e4bdec156)" d="M 269.64 287.04171 
L 269.64 163.214562 
" style="fill:none;stroke:#4169e1;stroke-width:3;"/>
    <path clip-path="url(#p2e4bdec156)" d="M 284.76 287.04171 
L 284.76 163.214562 
" style="fill:none;stroke:#4169e1;stroke-width:3;"/>
    <path clip-path="url(#p2e4bdec156)" d="M 299.88 287.04171 
L 299.88 163.214562 
" style="fill:none;stroke:#4169e1;stroke-width:3;"/>
    <path clip-path="url(#p2e4bdec156)" d="M 315 228.465438 
L 315 104.63829 
" style="fill:none;stroke:#4169e1;stroke-width:3;"/>
    <path clip-path="url(#p2e4bdec156)" d="M 330.12 287.04171 
L 330.12 163.214562 
" style="fill:none;stroke:#4169e1;stroke-width:3;"/>
    <path clip-path="url(#p2e4bdec156)" d="M 345.24 287.04171 
L 345.24 163.214562 
" style="fill:none;stroke:#4169e1;stroke-width:3;"/>
    <path clip-path="url(#p2e4bdec156)" d="M 360.36 287.04171 
L 360.36 163.214562 
" style="fill:none;stroke:#4169e1;stroke-width:3;"/>
    <path clip-path="url(#p2e4bdec156)" d="M 375.48 134.06613 
L 375.48 -1 
" style="fill:none;stroke:#4169e1;stroke-width:3;"/>
    <path clip-path="url(#p2e4bdec156)" d="M 390.6 287.04171 
L 390.6 163.214562 
" style="fill:none;stroke:#4169e1;stroke-width:3;"/>
    <path clip-path="url(#p2e4bdec156)" d="M 405.72 287.04171 
L 405.72 163.214562 
" style="fill:none;stroke:#4169e1;stroke-width:3;"/>
    <path clip-path="url(#p2e4bdec156)" d="M 420.84 287.04171 
L 420.84 163.214562 
" style="fill:none;stroke:#4169e1;stroke-width:3;"/>
    <path clip-path="url(#p2e4bdec156)" d="M 435.96 287.04171 
L 435.96 163.214562 
" style="fill:none;stroke:#4169e1;stroke-width:3;"/>
    <path clip-path="url(#p2e4bdec156)" d="M 451.08 287.04171 
L 451.08 163.214562 
" style="fill:none;stroke:#4169e1;stroke-width:3;"/>
    <path clip-path="url(#p2e4bdec156)" d="M 466.2 287.04171 
L 466.2 163.214562 
" style="fill:none;stroke:#4169e1;stroke-width:3;"/>
    <path clip-path="url(#p2e4bdec156)" d="M 481.32 287.04171 
L 481.32 163.214562 
" style="fill:none;stroke:#4169e1;stroke-width:3;"/>
    <path clip-path="url(#p2e4bdec156)" d="M 496.44 287.04171 
L 496.44 163.214562 
" style="fill:none;stroke:#4169e1;stroke-width:3;"/>
    <path clip-path="url(#p2e4bdec156)" d="M 511.56 287.04171 
L 511.56 163.214562 
" style="fill:none;stroke:#4169e1;stroke-width:3;"/>
    <path clip-path="url(#p2e4bdec156)" d="M 526.68 134.06613 
L 526.68 -1 
" style="fill:none;stroke:#4169e1;stroke-width:3;"/>
    <path clip-path="url(#p2e4bdec156)" d="M 541.8 287.04171 
L 541.8 163.214562 
" style="fill:none;stroke:#4169e1;stroke-width:3;"/>
    <path clip-path="url(#p2e4bdec156)" d="M 556.92 228.465438 
L 556.92 104.63829 
" style="fill:none;stroke:#4169e1;stroke-width:3;"/>
    <path clip-path="url(#p2e4bdec156)" d="M 572.04 287.04171 
L 572.04 163.214562 
" style="fill:none;stroke:#4169e1;stroke-width:3;"/>
    <path clip-path="url(#p2e4bdec156)" d="M 587.16 287.04171 
L 587.16 163.214562 
" style="fill:none;stroke:#4169e1;stroke-width:3;"/>
    <path clip-path="url(#p2e4bdec156)" d="M 602.28 287.04171 
L 602.28 163.214562 
" style="fill:none;stroke:#4169e1;stroke-width:3;"/>
    <path clip-path="url(#p2e4bdec156)" d="M 617.4 287.04171 
L 617.4 163.214562 
" style="fill:none;stroke:#4169e1;stroke-width:3;"/>
    <path clip-path="url(#p2e4bdec156)" d="M 632.52 287.04171 
L 632.52 163.214562 
" style="fill:none;stroke:#4169e1;stroke-width:3;"/>
    <path clip-path="url(#p2e4bdec156)" d="M 647.64 287.04171 
L 647.64 163.214562 
" style="fill:none;stroke:#4169e1;stroke-width:3;"/>
    <path clip-path="url(#p2e4bdec156)" d="M 662.76 287.04171 
L 662.76 163.214562 
" style="fill:none;stroke:#4169e1;stroke-width:3;"/>
    <path clip-path="url(#p2e4bdec156)" d="M 677.88 287.04171 
L 677.88 163.214562 
" style="fill:none;stroke:#4169e1;stroke-width:3;"/>
    <path clip-path="url(#p2e4bdec156)" d="M 693 183.243043 
L 693 32.708143 
" style="fill:none;stroke:#4169e1;stroke-width:3;"/>
    <path clip-path="url(#p2e4bdec156)" d="M 708.12 134.06613 
L 708.12 -1 
" style="fill:none;stroke:#4169e1;stroke-width:3;"/>
    <path clip-path="url(#p2e4bdec156)" d="M 723.24 287.04171 
L 723.24 163.214562 
" style="fill:none;stroke:#4169e1;stroke-width:3;"/>
    <path clip-path="url(#p2e4bdec156)" d="M 738.36 183.243043 
L 738.36 32.708143 
" style="fill:none;stroke:#4169e1;stroke-width:3;"/>
    <path clip-path="url(#p2e4bdec156)" d="M 753.48 287.04171 
L 753.48 163.214562 
" style="fill:none;stroke:#4169e1;stroke-width:3;"/>
    <path clip-path="url(#p2e4bdec156)" d="M 768.6 287.04171 
L 768.6 163.214562 
" style="fill:none;stroke:#4169e1;stroke-width:3;"/>
    <path clip-path="url(#p2e4bdec156)" d="M 783.72 287.04171 
L 783.72 163.214562 
" style="fill:none;stroke:#4169e1;stroke-width:3;"/>
    <path clip-path="url(#p2e4bdec156)" d="M 798.84 287.04171 
L 798.84 163.214562 
" style="fill:none;stroke:#4169e1;stroke-width:3;"/>
    <path clip-path="url(#p2e4bdec156)" d="M 813.96 287.04171 
L 813.96 163.214562 
" style="fill:none;stroke:#4169e1;stroke-width:3;"/>
    <path clip-path="url(#p2e4bdec156)" d="M 829.08 287.04171 
L 829.08 163.214562 
" style="fill:none;stroke:#4169e1;stroke-width:3;"/>
    <path clip-path="url(#p2e4bdec156)" d="M 844.2 287.04171 
L 844.2 163.214562 
" style="fill:none;stroke:#4169e1;stroke-width:3;"/>
    <path clip-path="url(#p2e4bdec156)" d="M 859.32 287.04171 
L 859.32 163.214562 
" style="fill:none;stroke:#4169e1;stroke-width:3;"/>
    <path clip-path="url(#p2e4bdec156)" d="M 874.44 228.465438 
L 874.44 104.63829 
" style="fill:none;stroke:#4169e1;stroke-width:3;"/>
    <path clip-path="url(#p2e4bdec156)" d="M 889.56 287.04171 
L 889.56 163.214562 
" style="fill:none;stroke:#4169e1;stroke-width:3;"/>
    <path clip-path="url(#p2e4bdec156)" d="M 904.68 134.06613 
L 904.68 -1 
" style="fill:none;stroke:#4169e1;stroke-width:3;"/>
    <path clip-path="url(#p2e4bdec156)" d="M 919.8 134.06613 
L 919.8 -1 
" style="fill:none;stroke:#4169e1;stroke-width:3;"/>
    <path clip-path="url(#p2e4bdec156)" d="M 934.92 287.04171 
L 934.92 163.214562 
" style="fill:none;stroke:#4169e1;stroke-width:3;"/>
    <path clip-path="url(#p2e4bdec156)" d="M 950.04 134.06613 
L 950.04 -1 
" style="fill:none;stroke:#4169e1;stroke-width:3;"/>
   </g>
   <g id="line2d_9">
    <path clip-path="url(#p2e4bdec156)" d="M 451.08 242.701017 
L 451.08 137.263729 
" style="fill:none;stroke:#000000;stroke-dasharray:11.1,4.8;stroke-dashoffset:0;stroke-width:3;"/>
   </g>
   <g id="line2d_10">
    <path clip-path="url(#p2e4bdec156)" d="M 209.16 225.128136 
L 224.28 225.128136 
L 239.4 225.128136 
L 254.52 225.128136 
L 269.64 225.128136 
L 284.76 225.128136 
L 299.88 225.128136 
L 315 166.551864 
L 330.12 225.128136 
L 345.24 225.128136 
L 360.36 225.128136 
L 375.48 49.399322 
L 390.6 225.128136 
L 405.72 225.128136 
L 420.84 225.128136 
L 435.96 225.128136 
L 451.08 225.128136 
L 466.2 225.128136 
L 481.32 225.128136 
L 496.44 225.128136 
L 511.56 225.128136 
L 526.68 49.399322 
L 541.8 225.128136 
L 556.92 166.551864 
L 572.04 225.128136 
L 587.16 225.128136 
L 602.28 225.128136 
L 617.4 225.128136 
L 632.52 225.128136 
L 647.64 225.128136 
L 662.76 225.128136 
L 677.88 225.128136 
L 693 107.975593 
L 708.12 49.399322 
L 723.24 225.128136 
L 738.36 107.975593 
L 753.48 225.128136 
L 768.6 225.128136 
L 783.72 225.128136 
L 798.84 225.128136 
L 813.96 225.128136 
L 829.08 225.128136 
L 844.2 225.128136 
L 859.32 225.128136 
L 874.44 166.551864 
L 889.56 225.128136 
L 904.68 49.399322 
L 919.8 49.399322 
L 934.92 225.128136 
L 950.04 49.399322 
" style="fill:none;stroke:#4169e1;stroke-linecap:round;stroke-width:3;"/>
    <defs>
     <path d="M 0 3.25 
C 0.86191 3.25 1.688635 2.907559 2.298097 2.298097 
C 2.907559 1.688635 3.25 0.86191 3.25 0 
C 3.25 -0.86191 2.907559 -1.688635 2.298097 -2.298097 
C 1.688635 -2.907559 0.86191 -3.25 0 -3.25 
C -0.86191 -3.25 -1.688635 -2.907559 -2.298097 -2.298097 
C -2.907559 -1.688635 -3.25 -0.86191 -3.25 0 
C -3.25 0.86191 -2.907559 1.688635 -2.298097 2.298097 
C -1.688635 2.907559 -0.86191 3.25 0 3.25 
z
" id="mfed3aefc8b" style="stroke:#4169e1;"/>
    </defs>
    <g clip-path="url(#p2e4bdec156)">
     <use style="fill:#4169e1;stroke:#4169e1;" x="209.16" xlink:href="#mfed3aefc8b" y="225.128136"/>
     <use style="fill:#4169e1;stroke:#4169e1;" x="224.28" xlink:href="#mfed3aefc8b" y="225.128136"/>
     <use style="fill:#4169e1;stroke:#4169e1;" x="239.4" xlink:href="#mfed3aefc8b" y="225.128136"/>
     <use style="fill:#4169e1;stroke:#4169e1;" x="254.52" xlink:href="#mfed3aefc8b" y="225.128136"/>
     <use style="fill:#4169e1;stroke:#4169e1;" x="269.64" xlink:href="#mfed3aefc8b" y="225.128136"/>
     <use style="fill:#4169e1;stroke:#4169e1;" x="284.76" xlink:href="#mfed3aefc8b" y="225.128136"/>
     <use style="fill:#4169e1;stroke:#4169e1;" x="299.88" xlink:href="#mfed3aefc8b" y="225.128136"/>
     <use style="fill:#4169e1;stroke:#4169e1;" x="315" xlink:href="#mfed3aefc8b" y="166.551864"/>
     <use style="fill:#4169e1;stroke:#4169e1;" x="330.12" xlink:href="#mfed3aefc8b" y="225.128136"/>
     <use style="fill:#4169e1;stroke:#4169e1;" x="345.24" xlink:href="#mfed3aefc8b" y="225.128136"/>
     <use style="fill:#4169e1;stroke:#4169e1;" x="360.36" xlink:href="#mfed3aefc8b" y="225.128136"/>
     <use style="fill:#4169e1;stroke:#4169e1;" x="375.48" xlink:href="#mfed3aefc8b" y="49.399322"/>
     <use style="fill:#4169e1;stroke:#4169e1;" x="390.6" xlink:href="#mfed3aefc8b" y="225.128136"/>
     <use style="fill:#4169e1;stroke:#4169e1;" x="405.72" xlink:href="#mfed3aefc8b" y="225.128136"/>
     <use style="fill:#4169e1;stroke:#4169e1;" x="420.84" xlink:href="#mfed3aefc8b" y="225.128136"/>
     <use style="fill:#4169e1;stroke:#4169e1;" x="435.96" xlink:href="#mfed3aefc8b" y="225.128136"/>
     <use style="fill:#4169e1;stroke:#4169e1;" x="451.08" xlink:href="#mfed3aefc8b" y="225.128136"/>
     <use style="fill:#4169e1;stroke:#4169e1;" x="466.2" xlink:href="#mfed3aefc8b" y="225.128136"/>
     <use style="fill:#4169e1;stroke:#4169e1;" x="481.32" xlink:href="#mfed3aefc8b" y="225.128136"/>
     <use style="fill:#4169e1;stroke:#4169e1;" x="496.44" xlink:href="#mfed3aefc8b" y="225.128136"/>
     <use style="fill:#4169e1;stroke:#4169e1;" x="511.56" xlink:href="#mfed3aefc8b" y="225.128136"/>
     <use style="fill:#4169e1;stroke:#4169e1;" x="526.68" xlink:href="#mfed3aefc8b" y="49.399322"/>
     <use style="fill:#4169e1;stroke:#4169e1;" x="541.8" xlink:href="#mfed3aefc8b" y="225.128136"/>
     <use style="fill:#4169e1;stroke:#4169e1;" x="556.92" xlink:href="#mfed3aefc8b" y="166.551864"/>
     <use style="fill:#4169e1;stroke:#4169e1;" x="572.04" xlink:href="#mfed3aefc8b" y="225.128136"/>
     <use style="fill:#4169e1;stroke:#4169e1;" x="587.16" xlink:href="#mfed3aefc8b" y="225.128136"/>
     <use style="fill:#4169e1;stroke:#4169e1;" x="602.28" xlink:href="#mfed3aefc8b" y="225.128136"/>
     <use style="fill:#4169e1;stroke:#4169e1;" x="617.4" xlink:href="#mfed3aefc8b" y="225.128136"/>
     <use style="fill:#4169e1;stroke:#4169e1;" x="632.52" xlink:href="#mfed3aefc8b" y="225.128136"/>
     <use style="fill:#4169e1;stroke:#4169e1;" x="647.64" xlink:href="#mfed3aefc8b" y="225.128136"/>
     <use style="fill:#4169e1;stroke:#4169e1;" x="662.76" xlink:href="#mfed3aefc8b" y="225.128136"/>
     <use style="fill:#4169e1;stroke:#4169e1;" x="677.88" xlink:href="#mfed3aefc8b" y="225.128136"/>
     <use style="fill:#4169e1;stroke:#4169e1;" x="693" xlink:href="#mfed3aefc8b" y="107.975593"/>
     <use style="fill:#4169e1;stroke:#4169e1;" x="708.12" xlink:href="#mfed3aefc8b" y="49.399322"/>
     <use style="fill:#4169e1;stroke:#4169e1;" x="723.24" xlink:href="#mfed3aefc8b" y="225.128136"/>
     <use style="fill:#4169e1;stroke:#4169e1;" x="738.36" xlink:href="#mfed3aefc8b" y="107.975593"/>
     <use style="fill:#4169e1;stroke:#4169e1;" x="753.48" xlink:href="#mfed3aefc8b" y="225.128136"/>
     <use style="fill:#4169e1;stroke:#4169e1;" x="768.6" xlink:href="#mfed3aefc8b" y="225.128136"/>
     <use style="fill:#4169e1;stroke:#4169e1;" x="783.72" xlink:href="#mfed3aefc8b" y="225.128136"/>
     <use style="fill:#4169e1;stroke:#4169e1;" x="798.84" xlink:href="#mfed3aefc8b" y="225.128136"/>
     <use style="fill:#4169e1;stroke:#4169e1;" x="813.96" xlink:href="#mfed3aefc8b" y="225.128136"/>
     <use style="fill:#4169e1;stroke:#4169e1;" x="829.08" xlink:href="#mfed3aefc8b" y="225.128136"/>
     <use style="fill:#4169e1;stroke:#4169e1;" x="844.2" xlink:href="#mfed3aefc8b" y="225.128136"/>
     <use style="fill:#4169e1;stroke:#4169e1;" x="859.32" xlink:href="#mfed3aefc8b" y="225.128136"/>
     <use style="fill:#4169e1;stroke:#4169e1;" x="874.44" xlink:href="#mfed3aefc8b" y="166.551864"/>
     <use style="fill:#4169e1;stroke:#4169e1;" x="889.56" xlink:href="#mfed3aefc8b" y="225.128136"/>
     <use style="fill:#4169e1;stroke:#4169e1;" x="904.68" xlink:href="#mfed3aefc8b" y="49.399322"/>
     <use style="fill:#4169e1;stroke:#4169e1;" x="919.8" xlink:href="#mfed3aefc8b" y="49.399322"/>
     <use style="fill:#4169e1;stroke:#4169e1;" x="934.92" xlink:href="#mfed3aefc8b" y="225.128136"/>
     <use style="fill:#4169e1;stroke:#4169e1;" x="950.04" xlink:href="#mfed3aefc8b" y="49.399322"/>
    </g>
   </g>
   <g id="patch_3">
    <path d="M 201.6 230.4 
L 201.6 23.04 
" style="fill:none;stroke:#262626;stroke-linecap:square;stroke-linejoin:miter;stroke-width:0.8;"/>
   </g>
   <g id="patch_4">
    <path d="M 201.6 230.4 
L 957.6 230.4 
" style="fill:none;stroke:#262626;stroke-linecap:square;stroke-linejoin:miter;stroke-width:0.8;"/>
   </g>
   <g id="text_11">
    <text style="fill:#262626;font-family:DejaVu Sans;font-size:20px;font-style:normal;font-weight:bold;text-anchor:middle;" transform="rotate(-0, 579.6, 17.04)" x="579.6" y="17.04">IGHJ3*02</text>
   </g>
  </g>
 </g>
 <defs>
  <clipPath id="p2e4bdec156">
   <rect height="207.36" width="756" x="201.6" y="23.04"/>
  </clipPath>
 </defs>
</svg>
