<?xml version="1.0" encoding="utf-8" standalone="no"?>
<!DOCTYPE svg PUBLIC "-//W3C//DTD SVG 1.1//EN"
  "http://www.w3.org/Graphics/SVG/1.1/DTD/svg11.dtd">
<!-- Created with matplotlib (http://matplotlib.org/) -->
<svg height="288pt" version="1.1" viewBox="0 0 1008 288" width="1008pt" xmlns="http://www.w3.org/2000/svg" xmlns:xlink="http://www.w3.org/1999/xlink">
 <defs>
  <style type="text/css">
*{stroke-linecap:butt;stroke-linejoin:round;}
  </style>
 </defs>
 <g id="figure_1">
  <g id="patch_1">
   <path d="M 0 288 
L 1008 288 
L 1008 0 
L 0 0 
z
" style="fill:#ffffff;"/>
  </g>
  <g id="axes_1">
   <g id="patch_2">
    <path d="M 201.6 230.4 
L 957.6 230.4 
L 957.6 23.04 
L 201.6 23.04 
z
" style="fill:#ffffff;"/>
   </g>
   <g id="matplotlib.axis_1">
    <g id="xtick_1">
     <g id="line2d_1">
      <defs>
       <path d="M 0 0 
L 0 3.5 
" id="m625c82455b" style="stroke:#262626;stroke-width:0.8;"/>
      </defs>
      <g>
       <use style="fill:#262626;stroke:#262626;stroke-width:0.8;" x="348.171429" xlink:href="#m625c82455b" y="230.4"/>
      </g>
     </g>
     <g id="text_1">
      <text style="fill:#262626;font-family:DejaVu Sans;font-size:20px;font-style:normal;font-weight:normal;text-anchor:middle;" transform="rotate(-0, 348.171429, 252.596875)" x="348.171429" y="252.596875">10</text>
     </g>
    </g>
    <g id="xtick_2">
     <g id="line2d_2">
      <g>
       <use style="fill:#262626;stroke:#262626;stroke-width:0.8;" x="502.457143" xlink:href="#m625c82455b" y="230.4"/>
      </g>
     </g>
     <g id="text_2">
      <text style="fill:#262626;font-family:DejaVu Sans;font-size:20px;font-style:normal;font-weight:normal;text-anchor:middle;" transform="rotate(-0, 502.457143, 252.596875)" x="502.457143" y="252.596875">20</text>
     </g>
    </g>
    <g id="xtick_3">
     <g id="line2d_3">
      <g>
       <use style="fill:#262626;stroke:#262626;stroke-width:0.8;" x="656.742857" xlink:href="#m625c82455b" y="230.4"/>
      </g>
     </g>
     <g id="text_3">
      <text style="fill:#262626;font-family:DejaVu Sans;font-size:20px;font-style:normal;font-weight:normal;text-anchor:middle;" transform="rotate(-0, 656.742857, 252.596875)" x="656.742857" y="252.596875">30</text>
     </g>
    </g>
    <g id="xtick_4">
     <g id="line2d_4">
      <g>
       <use style="fill:#262626;stroke:#262626;stroke-width:0.8;" x="811.028571" xlink:href="#m625c82455b" y="230.4"/>
      </g>
     </g>
     <g id="text_4">
      <text style="fill:#262626;font-family:DejaVu Sans;font-size:20px;font-style:normal;font-weight:normal;text-anchor:middle;" transform="rotate(-0, 811.028571, 252.596875)" x="811.028571" y="252.596875">40</text>
     </g>
    </g>
    <g id="text_5">
     <text style="fill:#262626;font-family:DejaVu Sans;font-size:20px;font-style:normal;font-weight:normal;text-anchor:middle;" transform="rotate(-0, 579.6, 275.953125)" x="579.6" y="275.953125">position</text>
    </g>
   </g>
   <g id="matplotlib.axis_2">
    <g id="ytick_1">
     <g id="line2d_5">
      <defs>
       <path d="M 0 0 
L -3.5 0 
" id="m569f9d4edd" style="stroke:#262626;stroke-width:0.8;"/>
      </defs>
      <g>
       <use style="fill:#262626;stroke:#262626;stroke-width:0.8;" x="201.6" xlink:href="#m569f9d4edd" y="225.128136"/>
      </g>
     </g>
     <g id="text_6">
      <text style="fill:#262626;font-family:DejaVu Sans;font-size:20px;font-style:normal;font-weight:normal;text-anchor:end;" transform="rotate(-0, 194.6, 232.726573)" x="194.6" y="232.726573">0.000</text>
     </g>
    </g>
    <g id="ytick_2">
     <g id="line2d_6">
      <g>
       <use style="fill:#262626;stroke:#262626;stroke-width:0.8;" x="201.6" xlink:href="#m569f9d4edd" y="178.023051"/>
      </g>
     </g>
     <g id="text_7">
      <text style="fill:#262626;font-family:DejaVu Sans;font-size:20px;font-style:normal;font-weight:normal;text-anchor:end;" transform="rotate(-0, 194.6, 185.621488)" x="194.6" y="185.621488">0.025</text>
     </g>
    </g>
    <g id="ytick_3">
     <g id="line2d_7">
      <g>
       <use style="fill:#262626;stroke:#262626;stroke-width:0.8;" x="201.6" xlink:href="#m569f9d4edd" y="130.917966"/>
      </g>
     </g>
     <g id="text_8">
      <text style="fill:#262626;font-family:DejaVu Sans;font-size:20px;font-style:normal;font-weight:normal;text-anchor:end;" transform="rotate(-0, 194.6, 138.516404)" x="194.6" y="138.516404">0.050</text>
     </g>
    </g>
    <g id="ytick_4">
     <g id="line2d_8">
      <g>
       <use style="fill:#262626;stroke:#262626;stroke-width:0.8;" x="201.6" xlink:href="#m569f9d4edd" y="83.812881"/>
      </g>
     </g>
     <g id="text_9">
      <text style="fill:#262626;font-family:DejaVu Sans;font-size:20px;font-style:normal;font-weight:normal;text-anchor:end;" transform="rotate(-0, 194.6, 91.411319)" x="194.6" y="91.411319">0.075</text>
     </g>
    </g>
    <g id="ytick_5">
     <g id="line2d_9">
      <g>
       <use style="fill:#262626;stroke:#262626;stroke-width:0.8;" x="201.6" xlink:href="#m569f9d4edd" y="36.707797"/>
      </g>
     </g>
     <g id="text_10">
      <text style="fill:#262626;font-family:DejaVu Sans;font-size:20px;font-style:normal;font-weight:normal;text-anchor:end;" transform="rotate(-0, 194.6, 44.306234)" x="194.6" y="44.306234">0.100</text>
     </g>
    </g>
    <g id="text_11">
     <text style="fill:#262626;font-family:DejaVu Sans;font-size:20px;font-style:normal;font-weight:normal;text-anchor:middle;" transform="rotate(-90, 129.184375, 126.72)" x="129.184375" y="126.72">mut freq</text>
    </g>
   </g>
   <g id="LineCollection_1">
    <path clip-path="url(#p6edfd2483f)" d="M 209.314286 126.936756 
L 209.314286 57.073384 
" style="fill:none;stroke:#4169e1;stroke-width:3;"/>
    <path clip-path="url(#p6edfd2483f)" d="M 224.742857 205.11059 
L 224.742857 163.223795 
" style="fill:none;stroke:#4169e1;stroke-width:3;"/>
    <path clip-path="url(#p6edfd2483f)" d="M 240.171429 205.438902 
L 240.171429 164.209737 
" style="fill:none;stroke:#4169e1;stroke-width:3;"/>
    <path clip-path="url(#p6edfd2483f)" d="M 255.6 146.255498 
L 255.6 82.329786 
" style="fill:none;stroke:#4169e1;stroke-width:3;"/>
    <path clip-path="url(#p6edfd2483f)" d="M 271.028571 205.438902 
L 271.028571 164.209737 
" style="fill:none;stroke:#4169e1;stroke-width:3;"/>
    <path clip-path="url(#p6edfd2483f)" d="M 286.457143 237.5781 
L 286.457143 212.678171 
" style="fill:none;stroke:#4169e1;stroke-width:3;"/>
    <path clip-path="url(#p6edfd2483f)" d="M 301.885714 227.502146 
L 301.885714 202.602217 
" style="fill:none;stroke:#4169e1;stroke-width:3;"/>
    <path clip-path="url(#p6edfd2483f)" d="M 317.314286 213.226007 
L 317.314286 176.574541 
" style="fill:none;stroke:#4169e1;stroke-width:3;"/>
    <path clip-path="url(#p6edfd2483f)" d="M 332.742857 213.355524 
L 332.742857 177.084767 
" style="fill:none;stroke:#4169e1;stroke-width:3;"/>
    <path clip-path="url(#p6edfd2483f)" d="M 348.171429 213.355524 
L 348.171429 177.084767 
" style="fill:none;stroke:#4169e1;stroke-width:3;"/>
    <path clip-path="url(#p6edfd2483f)" d="M 363.6 205.651863 
L 363.6 164.849768 
" style="fill:none;stroke:#4169e1;stroke-width:3;"/>
    <path clip-path="url(#p6edfd2483f)" d="M 379.028571 172.870548 
L 379.028571 117.876442 
" style="fill:none;stroke:#4169e1;stroke-width:3;"/>
    <path clip-path="url(#p6edfd2483f)" d="M 394.457143 237.320734 
L 394.457143 212.935537 
" style="fill:none;stroke:#4169e1;stroke-width:3;"/>
    <path clip-path="url(#p6edfd2483f)" d="M 409.885714 206.064265 
L 409.885714 166.090312 
" style="fill:none;stroke:#4169e1;stroke-width:3;"/>
    <path clip-path="url(#p6edfd2483f)" d="M 425.314286 237.196 
L 425.314286 213.060271 
" style="fill:none;stroke:#4169e1;stroke-width:3;"/>
    <path clip-path="url(#p6edfd2483f)" d="M 440.742857 237.196 
L 440.742857 213.060271 
" style="fill:none;stroke:#4169e1;stroke-width:3;"/>
    <path clip-path="url(#p6edfd2483f)" d="M 456.171429 237.196 
L 456.171429 213.060271 
" style="fill:none;stroke:#4169e1;stroke-width:3;"/>
    <path clip-path="url(#p6edfd2483f)" d="M 471.6 237.196 
L 471.6 213.060271 
" style="fill:none;stroke:#4169e1;stroke-width:3;"/>
    <path clip-path="url(#p6edfd2483f)" d="M 487.028571 227.433288 
L 487.028571 203.297559 
" style="fill:none;stroke:#4169e1;stroke-width:3;"/>
    <path clip-path="url(#p6edfd2483f)" d="M 502.457143 227.433288 
L 502.457143 203.297559 
" style="fill:none;stroke:#4169e1;stroke-width:3;"/>
    <path clip-path="url(#p6edfd2483f)" d="M 517.885714 206.064265 
L 517.885714 166.090312 
" style="fill:none;stroke:#4169e1;stroke-width:3;"/>
    <path clip-path="url(#p6edfd2483f)" d="M 533.314286 220.800696 
L 533.314286 190.404728 
" style="fill:none;stroke:#4169e1;stroke-width:3;"/>
    <path clip-path="url(#p6edfd2483f)" d="M 548.742857 206.064265 
L 548.742857 166.090312 
" style="fill:none;stroke:#4169e1;stroke-width:3;"/>
    <path clip-path="url(#p6edfd2483f)" d="M 564.171429 237.196 
L 564.171429 213.060271 
" style="fill:none;stroke:#4169e1;stroke-width:3;"/>
    <path clip-path="url(#p6edfd2483f)" d="M 579.6 148.747471 
L 579.6 86.729139 
" style="fill:none;stroke:#4169e1;stroke-width:3;"/>
    <path clip-path="url(#p6edfd2483f)" d="M 595.028571 213.60629 
L 595.028571 178.07371 
" style="fill:none;stroke:#4169e1;stroke-width:3;"/>
    <path clip-path="url(#p6edfd2483f)" d="M 610.457143 165.644204 
L 610.457143 108.883253 
" style="fill:none;stroke:#4169e1;stroke-width:3;"/>
    <path clip-path="url(#p6edfd2483f)" d="M 625.885714 148.747471 
L 625.885714 86.729139 
" style="fill:none;stroke:#4169e1;stroke-width:3;"/>
    <path clip-path="url(#p6edfd2483f)" d="M 641.314286 237.196 
L 641.314286 213.060271 
" style="fill:none;stroke:#4169e1;stroke-width:3;"/>
    <path clip-path="url(#p6edfd2483f)" d="M 656.742857 237.196 
L 656.742857 213.060271 
" style="fill:none;stroke:#4169e1;stroke-width:3;"/>
    <path clip-path="url(#p6edfd2483f)" d="M 672.171429 237.196 
L 672.171429 213.060271 
" style="fill:none;stroke:#4169e1;stroke-width:3;"/>
    <path clip-path="url(#p6edfd2483f)" d="M 687.6 220.800696 
L 687.6 190.404728 
" style="fill:none;stroke:#4169e1;stroke-width:3;"/>
    <path clip-path="url(#p6edfd2483f)" d="M 703.028571 237.196 
L 703.028571 213.060271 
" style="fill:none;stroke:#4169e1;stroke-width:3;"/>
    <path clip-path="url(#p6edfd2483f)" d="M 718.457143 213.60629 
L 718.457143 178.07371 
" style="fill:none;stroke:#4169e1;stroke-width:3;"/>
    <path clip-path="url(#p6edfd2483f)" d="M 733.885714 237.196 
L 733.885714 213.060271 
" style="fill:none;stroke:#4169e1;stroke-width:3;"/>
    <path clip-path="url(#p6edfd2483f)" d="M 749.314286 87.864859 
L 749.314286 10.933785 
" style="fill:none;stroke:#4169e1;stroke-width:3;"/>
    <path clip-path="url(#p6edfd2483f)" d="M 764.742857 227.433288 
L 764.742857 203.297559 
" style="fill:none;stroke:#4169e1;stroke-width:3;"/>
    <path clip-path="url(#p6edfd2483f)" d="M 780.171429 213.60629 
L 780.171429 178.07371 
" style="fill:none;stroke:#4169e1;stroke-width:3;"/>
    <path clip-path="url(#p6edfd2483f)" d="M 795.6 220.800696 
L 795.6 190.404728 
" style="fill:none;stroke:#4169e1;stroke-width:3;"/>
    <path clip-path="url(#p6edfd2483f)" d="M 811.028571 237.196 
L 811.028571 213.060271 
" style="fill:none;stroke:#4169e1;stroke-width:3;"/>
    <path clip-path="url(#p6edfd2483f)" d="M 826.457143 237.196 
L 826.457143 213.060271 
" style="fill:none;stroke:#4169e1;stroke-width:3;"/>
    <path clip-path="url(#p6edfd2483f)" d="M 841.885714 213.60629 
L 841.885714 178.07371 
" style="fill:none;stroke:#4169e1;stroke-width:3;"/>
    <path clip-path="url(#p6edfd2483f)" d="M 857.314286 237.196 
L 857.314286 213.060271 
" style="fill:none;stroke:#4169e1;stroke-width:3;"/>
    <path clip-path="url(#p6edfd2483f)" d="M 872.742857 213.60629 
L 872.742857 178.07371 
" style="fill:none;stroke:#4169e1;stroke-width:3;"/>
    <path clip-path="url(#p6edfd2483f)" d="M 888.171429 227.433288 
L 888.171429 203.297559 
" style="fill:none;stroke:#4169e1;stroke-width:3;"/>
    <path clip-path="url(#p6edfd2483f)" d="M 903.6 198.279353 
L 903.6 154.3498 
" style="fill:none;stroke:#4169e1;stroke-width:3;"/>
    <path clip-path="url(#p6edfd2483f)" d="M 919.028571 173.97165 
L 919.028571 120.081232 
" style="fill:none;stroke:#4169e1;stroke-width:3;"/>
    <path clip-path="url(#p6edfd2483f)" d="M 934.457143 213.60629 
L 934.457143 178.07371 
" style="fill:none;stroke:#4169e1;stroke-width:3;"/>
    <path clip-path="url(#p6edfd2483f)" d="M 949.885714 206.064265 
L 949.885714 166.090312 
" style="fill:none;stroke:#4169e1;stroke-width:3;"/>
   </g>
   <g id="line2d_10">
    <path clip-path="url(#p6edfd2483f)" d="M 440.742857 242.701017 
L 440.742857 137.263729 
" style="fill:none;stroke:#000000;stroke-dasharray:11.1,4.8;stroke-dashoffset:0;stroke-width:3;"/>
   </g>
   <g id="line2d_11">
    <path clip-path="url(#p6edfd2483f)" d="M 209.314286 92.00507 
L 224.742857 184.167192 
L 240.171429 184.82432 
L 255.6 114.292642 
L 271.028571 184.82432 
L 286.457143 225.128136 
L 301.885714 215.052182 
L 317.314286 194.900274 
L 332.742857 195.220145 
L 348.171429 195.220145 
L 363.6 185.250815 
L 379.028571 145.373495 
L 394.457143 225.128136 
L 409.885714 186.077288 
L 425.314286 225.128136 
L 440.742857 225.128136 
L 456.171429 225.128136 
L 471.6 225.128136 
L 487.028571 215.365424 
L 502.457143 215.365424 
L 517.885714 186.077288 
L 533.314286 205.602712 
L 548.742857 186.077288 
L 564.171429 225.128136 
L 579.6 117.738305 
L 595.028571 195.84 
L 610.457143 137.263729 
L 625.885714 117.738305 
L 641.314286 225.128136 
L 656.742857 225.128136 
L 672.171429 225.128136 
L 687.6 205.602712 
L 703.028571 225.128136 
L 718.457143 195.84 
L 733.885714 225.128136 
L 749.314286 49.399322 
L 764.742857 215.365424 
L 780.171429 195.84 
L 795.6 205.602712 
L 811.028571 225.128136 
L 826.457143 225.128136 
L 841.885714 195.84 
L 857.314286 225.128136 
L 872.742857 195.84 
L 888.171429 215.365424 
L 903.6 176.314576 
L 919.028571 147.026441 
L 934.457143 195.84 
L 949.885714 186.077288 
" style="fill:none;stroke:#4169e1;stroke-linecap:round;stroke-width:3;"/>
    <defs>
     <path d="M 0 3.25 
C 0.86191 3.25 1.688635 2.907559 2.298097 2.298097 
C 2.907559 1.688635 3.25 0.86191 3.25 0 
C 3.25 -0.86191 2.907559 -1.688635 2.298097 -2.298097 
C 1.688635 -2.907559 0.86191 -3.25 0 -3.25 
C -0.86191 -3.25 -1.688635 -2.907559 -2.298097 -2.298097 
C -2.907559 -1.688635 -3.25 -0.86191 -3.25 0 
C -3.25 0.86191 -2.907559 1.688635 -2.298097 2.298097 
C -1.688635 2.907559 -0.86191 3.25 0 3.25 
z
" id="mf5e68ed6d5" style="stroke:#4169e1;"/>
    </defs>
    <g clip-path="url(#p6edfd2483f)">
     <use style="fill:#4169e1;stroke:#4169e1;" x="209.314286" xlink:href="#mf5e68ed6d5" y="92.00507"/>
     <use style="fill:#4169e1;stroke:#4169e1;" x="224.742857" xlink:href="#mf5e68ed6d5" y="184.167192"/>
     <use style="fill:#4169e1;stroke:#4169e1;" x="240.171429" xlink:href="#mf5e68ed6d5" y="184.82432"/>
     <use style="fill:#4169e1;stroke:#4169e1;" x="255.6" xlink:href="#mf5e68ed6d5" y="114.292642"/>
     <use style="fill:#4169e1;stroke:#4169e1;" x="271.028571" xlink:href="#mf5e68ed6d5" y="184.82432"/>
     <use style="fill:#4169e1;stroke:#4169e1;" x="286.457143" xlink:href="#mf5e68ed6d5" y="225.128136"/>
     <use style="fill:#4169e1;stroke:#4169e1;" x="301.885714" xlink:href="#mf5e68ed6d5" y="215.052182"/>
     <use style="fill:#4169e1;stroke:#4169e1;" x="317.314286" xlink:href="#mf5e68ed6d5" y="194.900274"/>
     <use style="fill:#4169e1;stroke:#4169e1;" x="332.742857" xlink:href="#mf5e68ed6d5" y="195.220145"/>
     <use style="fill:#4169e1;stroke:#4169e1;" x="348.171429" xlink:href="#mf5e68ed6d5" y="195.220145"/>
     <use style="fill:#4169e1;stroke:#4169e1;" x="363.6" xlink:href="#mf5e68ed6d5" y="185.250815"/>
     <use style="fill:#4169e1;stroke:#4169e1;" x="379.028571" xlink:href="#mf5e68ed6d5" y="145.373495"/>
     <use style="fill:#4169e1;stroke:#4169e1;" x="394.457143" xlink:href="#mf5e68ed6d5" y="225.128136"/>
     <use style="fill:#4169e1;stroke:#4169e1;" x="409.885714" xlink:href="#mf5e68ed6d5" y="186.077288"/>
     <use style="fill:#4169e1;stroke:#4169e1;" x="425.314286" xlink:href="#mf5e68ed6d5" y="225.128136"/>
     <use style="fill:#4169e1;stroke:#4169e1;" x="440.742857" xlink:href="#mf5e68ed6d5" y="225.128136"/>
     <use style="fill:#4169e1;stroke:#4169e1;" x="456.171429" xlink:href="#mf5e68ed6d5" y="225.128136"/>
     <use style="fill:#4169e1;stroke:#4169e1;" x="471.6" xlink:href="#mf5e68ed6d5" y="225.128136"/>
     <use style="fill:#4169e1;stroke:#4169e1;" x="487.028571" xlink:href="#mf5e68ed6d5" y="215.365424"/>
     <use style="fill:#4169e1;stroke:#4169e1;" x="502.457143" xlink:href="#mf5e68ed6d5" y="215.365424"/>
     <use style="fill:#4169e1;stroke:#4169e1;" x="517.885714" xlink:href="#mf5e68ed6d5" y="186.077288"/>
     <use style="fill:#4169e1;stroke:#4169e1;" x="533.314286" xlink:href="#mf5e68ed6d5" y="205.602712"/>
     <use style="fill:#4169e1;stroke:#4169e1;" x="548.742857" xlink:href="#mf5e68ed6d5" y="186.077288"/>
     <use style="fill:#4169e1;stroke:#4169e1;" x="564.171429" xlink:href="#mf5e68ed6d5" y="225.128136"/>
     <use style="fill:#4169e1;stroke:#4169e1;" x="579.6" xlink:href="#mf5e68ed6d5" y="117.738305"/>
     <use style="fill:#4169e1;stroke:#4169e1;" x="595.028571" xlink:href="#mf5e68ed6d5" y="195.84"/>
     <use style="fill:#4169e1;stroke:#4169e1;" x="610.457143" xlink:href="#mf5e68ed6d5" y="137.263729"/>
     <use style="fill:#4169e1;stroke:#4169e1;" x="625.885714" xlink:href="#mf5e68ed6d5" y="117.738305"/>
     <use style="fill:#4169e1;stroke:#4169e1;" x="641.314286" xlink:href="#mf5e68ed6d5" y="225.128136"/>
     <use style="fill:#4169e1;stroke:#4169e1;" x="656.742857" xlink:href="#mf5e68ed6d5" y="225.128136"/>
     <use style="fill:#4169e1;stroke:#4169e1;" x="672.171429" xlink:href="#mf5e68ed6d5" y="225.128136"/>
     <use style="fill:#4169e1;stroke:#4169e1;" x="687.6" xlink:href="#mf5e68ed6d5" y="205.602712"/>
     <use style="fill:#4169e1;stroke:#4169e1;" x="703.028571" xlink:href="#mf5e68ed6d5" y="225.128136"/>
     <use style="fill:#4169e1;stroke:#4169e1;" x="718.457143" xlink:href="#mf5e68ed6d5" y="195.84"/>
     <use style="fill:#4169e1;stroke:#4169e1;" x="733.885714" xlink:href="#mf5e68ed6d5" y="225.128136"/>
     <use style="fill:#4169e1;stroke:#4169e1;" x="749.314286" xlink:href="#mf5e68ed6d5" y="49.399322"/>
     <use style="fill:#4169e1;stroke:#4169e1;" x="764.742857" xlink:href="#mf5e68ed6d5" y="215.365424"/>
     <use style="fill:#4169e1;stroke:#4169e1;" x="780.171429" xlink:href="#mf5e68ed6d5" y="195.84"/>
     <use style="fill:#4169e1;stroke:#4169e1;" x="795.6" xlink:href="#mf5e68ed6d5" y="205.602712"/>
     <use style="fill:#4169e1;stroke:#4169e1;" x="811.028571" xlink:href="#mf5e68ed6d5" y="225.128136"/>
     <use style="fill:#4169e1;stroke:#4169e1;" x="826.457143" xlink:href="#mf5e68ed6d5" y="225.128136"/>
     <use style="fill:#4169e1;stroke:#4169e1;" x="841.885714" xlink:href="#mf5e68ed6d5" y="195.84"/>
     <use style="fill:#4169e1;stroke:#4169e1;" x="857.314286" xlink:href="#mf5e68ed6d5" y="225.128136"/>
     <use style="fill:#4169e1;stroke:#4169e1;" x="872.742857" xlink:href="#mf5e68ed6d5" y="195.84"/>
     <use style="fill:#4169e1;stroke:#4169e1;" x="888.171429" xlink:href="#mf5e68ed6d5" y="215.365424"/>
     <use style="fill:#4169e1;stroke:#4169e1;" x="903.6" xlink:href="#mf5e68ed6d5" y="176.314576"/>
     <use style="fill:#4169e1;stroke:#4169e1;" x="919.028571" xlink:href="#mf5e68ed6d5" y="147.026441"/>
     <use style="fill:#4169e1;stroke:#4169e1;" x="934.457143" xlink:href="#mf5e68ed6d5" y="195.84"/>
     <use style="fill:#4169e1;stroke:#4169e1;" x="949.885714" xlink:href="#mf5e68ed6d5" y="186.077288"/>
    </g>
   </g>
   <g id="patch_3">
    <path d="M 201.6 230.4 
L 201.6 23.04 
" style="fill:none;stroke:#262626;stroke-linecap:square;stroke-linejoin:miter;stroke-width:0.8;"/>
   </g>
   <g id="patch_4">
    <path d="M 201.6 230.4 
L 957.6 230.4 
" style="fill:none;stroke:#262626;stroke-linecap:square;stroke-linejoin:miter;stroke-width:0.8;"/>
   </g>
   <g id="text_12">
    <text style="fill:#262626;font-family:DejaVu Sans;font-size:20px;font-style:normal;font-weight:bold;text-anchor:middle;" transform="rotate(-0, 579.6, 17.04)" x="579.6" y="17.04">IGHJ3*01</text>
   </g>
  </g>
 </g>
 <defs>
  <clipPath id="p6edfd2483f">
   <rect height="207.36" width="756" x="201.6" y="23.04"/>
  </clipPath>
 </defs>
</svg>
