<?xml version="1.0" encoding="utf-8" standalone="no"?>
<!DOCTYPE svg PUBLIC "-//W3C//DTD SVG 1.1//EN"
  "http://www.w3.org/Graphics/SVG/1.1/DTD/svg11.dtd">
<!-- Created with matplotlib (http://matplotlib.org/) -->
<svg height="288pt" version="1.1" viewBox="0 0 1008 288" width="1008pt" xmlns="http://www.w3.org/2000/svg" xmlns:xlink="http://www.w3.org/1999/xlink">
 <defs>
  <style type="text/css">
*{stroke-linecap:butt;stroke-linejoin:round;}
  </style>
 </defs>
 <g id="figure_1">
  <g id="patch_1">
   <path d="M 0 288 
L 1008 288 
L 1008 0 
L 0 0 
z
" style="fill:#ffffff;"/>
  </g>
  <g id="axes_1">
   <g id="patch_2">
    <path d="M 201.6 230.4 
L 957.6 230.4 
L 957.6 23.04 
L 201.6 23.04 
z
" style="fill:#ffffff;"/>
   </g>
   <g id="matplotlib.axis_1">
    <g id="xtick_1">
     <g id="line2d_1">
      <defs>
       <path d="M 0 0 
L 0 3.5 
" id="mb5d0a8c523" style="stroke:#262626;stroke-width:0.8;"/>
      </defs>
      <g>
       <use style="fill:#262626;stroke:#262626;stroke-width:0.8;" x="308.7" xlink:href="#mb5d0a8c523" y="230.4"/>
      </g>
     </g>
     <g id="text_1">
      <text style="fill:#262626;font-family:DejaVu Sans;font-size:20px;font-style:normal;font-weight:normal;text-anchor:middle;" transform="rotate(-0, 308.7, 252.596875)" x="308.7" y="252.596875">10</text>
     </g>
    </g>
    <g id="xtick_2">
     <g id="line2d_2">
      <g>
       <use style="fill:#262626;stroke:#262626;stroke-width:0.8;" x="434.7" xlink:href="#mb5d0a8c523" y="230.4"/>
      </g>
     </g>
     <g id="text_2">
      <text style="fill:#262626;font-family:DejaVu Sans;font-size:20px;font-style:normal;font-weight:normal;text-anchor:middle;" transform="rotate(-0, 434.7, 252.596875)" x="434.7" y="252.596875">20</text>
     </g>
    </g>
    <g id="xtick_3">
     <g id="line2d_3">
      <g>
       <use style="fill:#262626;stroke:#262626;stroke-width:0.8;" x="560.7" xlink:href="#mb5d0a8c523" y="230.4"/>
      </g>
     </g>
     <g id="text_3">
      <text style="fill:#262626;font-family:DejaVu Sans;font-size:20px;font-style:normal;font-weight:normal;text-anchor:middle;" transform="rotate(-0, 560.7, 252.596875)" x="560.7" y="252.596875">30</text>
     </g>
    </g>
    <g id="xtick_4">
     <g id="line2d_4">
      <g>
       <use style="fill:#262626;stroke:#262626;stroke-width:0.8;" x="686.7" xlink:href="#mb5d0a8c523" y="230.4"/>
      </g>
     </g>
     <g id="text_4">
      <text style="fill:#262626;font-family:DejaVu Sans;font-size:20px;font-style:normal;font-weight:normal;text-anchor:middle;" transform="rotate(-0, 686.7, 252.596875)" x="686.7" y="252.596875">40</text>
     </g>
    </g>
    <g id="xtick_5">
     <g id="line2d_5">
      <g>
       <use style="fill:#262626;stroke:#262626;stroke-width:0.8;" x="812.7" xlink:href="#mb5d0a8c523" y="230.4"/>
      </g>
     </g>
     <g id="text_5">
      <text style="fill:#262626;font-family:DejaVu Sans;font-size:20px;font-style:normal;font-weight:normal;text-anchor:middle;" transform="rotate(-0, 812.7, 252.596875)" x="812.7" y="252.596875">50</text>
     </g>
    </g>
    <g id="xtick_6">
     <g id="line2d_6">
      <g>
       <use style="fill:#262626;stroke:#262626;stroke-width:0.8;" x="938.7" xlink:href="#mb5d0a8c523" y="230.4"/>
      </g>
     </g>
     <g id="text_6">
      <text style="fill:#262626;font-family:DejaVu Sans;font-size:20px;font-style:normal;font-weight:normal;text-anchor:middle;" transform="rotate(-0, 938.7, 252.596875)" x="938.7" y="252.596875">60</text>
     </g>
    </g>
    <g id="text_7">
     <text style="fill:#262626;font-family:DejaVu Sans;font-size:20px;font-style:normal;font-weight:normal;text-anchor:middle;" transform="rotate(-0, 579.6, 275.953125)" x="579.6" y="275.953125">position</text>
    </g>
   </g>
   <g id="matplotlib.axis_2">
    <g id="ytick_1">
     <g id="line2d_7">
      <defs>
       <path d="M 0 0 
L -3.5 0 
" id="m0843850b85" style="stroke:#262626;stroke-width:0.8;"/>
      </defs>
      <g>
       <use style="fill:#262626;stroke:#262626;stroke-width:0.8;" x="201.6" xlink:href="#m0843850b85" y="225.128136"/>
      </g>
     </g>
     <g id="text_8">
      <text style="fill:#262626;font-family:DejaVu Sans;font-size:20px;font-style:normal;font-weight:normal;text-anchor:end;" transform="rotate(-0, 194.6, 232.726573)" x="194.6" y="232.726573">0.00</text>
     </g>
    </g>
    <g id="ytick_2">
     <g id="line2d_8">
      <g>
       <use style="fill:#262626;stroke:#262626;stroke-width:0.8;" x="201.6" xlink:href="#m0843850b85" y="146.538305"/>
      </g>
     </g>
     <g id="text_9">
      <text style="fill:#262626;font-family:DejaVu Sans;font-size:20px;font-style:normal;font-weight:normal;text-anchor:end;" transform="rotate(-0, 194.6, 154.136743)" x="194.6" y="154.136743">0.05</text>
     </g>
    </g>
    <g id="ytick_3">
     <g id="line2d_9">
      <g>
       <use style="fill:#262626;stroke:#262626;stroke-width:0.8;" x="201.6" xlink:href="#m0843850b85" y="67.948475"/>
      </g>
     </g>
     <g id="text_10">
      <text style="fill:#262626;font-family:DejaVu Sans;font-size:20px;font-style:normal;font-weight:normal;text-anchor:end;" transform="rotate(-0, 194.6, 75.546912)" x="194.6" y="75.546912">0.10</text>
     </g>
    </g>
    <g id="text_11">
     <text style="fill:#262626;font-family:DejaVu Sans;font-size:20px;font-style:normal;font-weight:normal;text-anchor:middle;" transform="rotate(-90, 141.909375, 126.72)" x="141.909375" y="126.72">mut freq</text>
    </g>
   </g>
   <g id="LineCollection_1">
    <path clip-path="url(#pae475ebd2c)" d="M 207.9 240.325701 
L 207.9 209.93057 
" style="fill:none;stroke:#4169e1;stroke-width:3;"/>
    <path clip-path="url(#pae475ebd2c)" d="M 220.5 227.600144 
L 220.5 201.27114 
" style="fill:none;stroke:#4169e1;stroke-width:3;"/>
    <path clip-path="url(#pae475ebd2c)" d="M 233.1 238.205167 
L 233.1 212.051104 
" style="fill:none;stroke:#4169e1;stroke-width:3;"/>
    <path clip-path="url(#pae475ebd2c)" d="M 245.7 238.205167 
L 245.7 212.051104 
" style="fill:none;stroke:#4169e1;stroke-width:3;"/>
    <path clip-path="url(#pae475ebd2c)" d="M 258.3 227.58492 
L 258.3 201.430857 
" style="fill:none;stroke:#4169e1;stroke-width:3;"/>
    <path clip-path="url(#pae475ebd2c)" d="M 270.9 238.205167 
L 270.9 212.051104 
" style="fill:none;stroke:#4169e1;stroke-width:3;"/>
    <path clip-path="url(#pae475ebd2c)" d="M 283.5 122.866296 
L 283.5 51.263544 
" style="fill:none;stroke:#4169e1;stroke-width:3;"/>
    <path clip-path="url(#pae475ebd2c)" d="M 296.1 220.343486 
L 296.1 187.431796 
" style="fill:none;stroke:#4169e1;stroke-width:3;"/>
    <path clip-path="url(#pae475ebd2c)" d="M 308.7 227.428968 
L 308.7 203.056277 
" style="fill:none;stroke:#4169e1;stroke-width:3;"/>
    <path clip-path="url(#pae475ebd2c)" d="M 321.3 227.428968 
L 321.3 203.056277 
" style="fill:none;stroke:#4169e1;stroke-width:3;"/>
    <path clip-path="url(#pae475ebd2c)" d="M 333.9 220.695748 
L 333.9 190.01847 
" style="fill:none;stroke:#4169e1;stroke-width:3;"/>
    <path clip-path="url(#pae475ebd2c)" d="M 346.5 237.314481 
L 346.5 212.94179 
" style="fill:none;stroke:#4169e1;stroke-width:3;"/>
    <path clip-path="url(#pae475ebd2c)" d="M 359.1 197.830622 
L 359.1 153.570516 
" style="fill:none;stroke:#4169e1;stroke-width:3;"/>
    <path clip-path="url(#pae475ebd2c)" d="M 371.7 205.735113 
L 371.7 165.437052 
" style="fill:none;stroke:#4169e1;stroke-width:3;"/>
    <path clip-path="url(#pae475ebd2c)" d="M 384.3 220.695748 
L 384.3 190.01847 
" style="fill:none;stroke:#4169e1;stroke-width:3;"/>
    <path clip-path="url(#pae475ebd2c)" d="M 396.9 205.735113 
L 396.9 165.437052 
" style="fill:none;stroke:#4169e1;stroke-width:3;"/>
    <path clip-path="url(#pae475ebd2c)" d="M 409.5 227.428968 
L 409.5 203.056277 
" style="fill:none;stroke:#4169e1;stroke-width:3;"/>
    <path clip-path="url(#pae475ebd2c)" d="M 422.1 227.402702 
L 422.1 203.328146 
" style="fill:none;stroke:#4169e1;stroke-width:3;"/>
    <path clip-path="url(#pae475ebd2c)" d="M 434.7 213.542778 
L 434.7 178.137222 
" style="fill:none;stroke:#4169e1;stroke-width:3;"/>
    <path clip-path="url(#pae475ebd2c)" d="M 447.3 227.402702 
L 447.3 203.328146 
" style="fill:none;stroke:#4169e1;stroke-width:3;"/>
    <path clip-path="url(#pae475ebd2c)" d="M 459.9 220.75432 
L 459.9 190.451104 
" style="fill:none;stroke:#4169e1;stroke-width:3;"/>
    <path clip-path="url(#pae475ebd2c)" d="M 472.5 220.75432 
L 472.5 190.451104 
" style="fill:none;stroke:#4169e1;stroke-width:3;"/>
    <path clip-path="url(#pae475ebd2c)" d="M 485.1 237.165414 
L 485.1 213.090858 
" style="fill:none;stroke:#4169e1;stroke-width:3;"/>
    <path clip-path="url(#pae475ebd2c)" d="M 497.7 198.17744 
L 497.7 154.451712 
" style="fill:none;stroke:#4169e1;stroke-width:3;"/>
    <path clip-path="url(#pae475ebd2c)" d="M 510.3 182.054979 
L 510.3 131.523326 
" style="fill:none;stroke:#4169e1;stroke-width:3;"/>
    <path clip-path="url(#pae475ebd2c)" d="M 522.9 227.402702 
L 522.9 203.328146 
" style="fill:none;stroke:#4169e1;stroke-width:3;"/>
    <path clip-path="url(#pae475ebd2c)" d="M 535.5 213.542778 
L 535.5 178.137222 
" style="fill:none;stroke:#4169e1;stroke-width:3;"/>
    <path clip-path="url(#pae475ebd2c)" d="M 548.1 237.165414 
L 548.1 213.090858 
" style="fill:none;stroke:#4169e1;stroke-width:3;"/>
    <path clip-path="url(#pae475ebd2c)" d="M 560.7 237.165414 
L 560.7 213.090858 
" style="fill:none;stroke:#4169e1;stroke-width:3;"/>
    <path clip-path="url(#pae475ebd2c)" d="M 573.3 237.165414 
L 573.3 213.090858 
" style="fill:none;stroke:#4169e1;stroke-width:3;"/>
    <path clip-path="url(#pae475ebd2c)" d="M 585.9 96.25522 
L 585.9 22.068848 
" style="fill:none;stroke:#4169e1;stroke-width:3;"/>
    <path clip-path="url(#pae475ebd2c)" d="M 598.5 237.165414 
L 598.5 213.090858 
" style="fill:none;stroke:#4169e1;stroke-width:3;"/>
    <path clip-path="url(#pae475ebd2c)" d="M 611.1 227.402702 
L 611.1 203.328146 
" style="fill:none;stroke:#4169e1;stroke-width:3;"/>
    <path clip-path="url(#pae475ebd2c)" d="M 623.7 220.75432 
L 623.7 190.451104 
" style="fill:none;stroke:#4169e1;stroke-width:3;"/>
    <path clip-path="url(#pae475ebd2c)" d="M 636.3 237.165414 
L 636.3 213.090858 
" style="fill:none;stroke:#4169e1;stroke-width:3;"/>
    <path clip-path="url(#pae475ebd2c)" d="M 648.9 237.165414 
L 648.9 213.090858 
" style="fill:none;stroke:#4169e1;stroke-width:3;"/>
    <path clip-path="url(#pae475ebd2c)" d="M 661.5 220.75432 
L 661.5 190.451104 
" style="fill:none;stroke:#4169e1;stroke-width:3;"/>
    <path clip-path="url(#pae475ebd2c)" d="M 674.1 237.165414 
L 674.1 213.090858 
" style="fill:none;stroke:#4169e1;stroke-width:3;"/>
    <path clip-path="url(#pae475ebd2c)" d="M 686.7 220.75432 
L 686.7 190.451104 
" style="fill:none;stroke:#4169e1;stroke-width:3;"/>
    <path clip-path="url(#pae475ebd2c)" d="M 699.3 220.75432 
L 699.3 190.451104 
" style="fill:none;stroke:#4169e1;stroke-width:3;"/>
    <path clip-path="url(#pae475ebd2c)" d="M 711.9 237.165414 
L 711.9 213.090858 
" style="fill:none;stroke:#4169e1;stroke-width:3;"/>
    <path clip-path="url(#pae475ebd2c)" d="M 724.5 227.402702 
L 724.5 203.328146 
" style="fill:none;stroke:#4169e1;stroke-width:3;"/>
    <path clip-path="url(#pae475ebd2c)" d="M 737.1 87.395943 
L 737.1 11.402701 
" style="fill:none;stroke:#4169e1;stroke-width:3;"/>
    <path clip-path="url(#pae475ebd2c)" d="M 749.7 227.402702 
L 749.7 203.328146 
" style="fill:none;stroke:#4169e1;stroke-width:3;"/>
    <path clip-path="url(#pae475ebd2c)" d="M 762.3 237.165414 
L 762.3 213.090858 
" style="fill:none;stroke:#4169e1;stroke-width:3;"/>
    <path clip-path="url(#pae475ebd2c)" d="M 774.9 205.982232 
L 774.9 166.172344 
" style="fill:none;stroke:#4169e1;stroke-width:3;"/>
    <path clip-path="url(#pae475ebd2c)" d="M 787.5 237.165414 
L 787.5 213.090858 
" style="fill:none;stroke:#4169e1;stroke-width:3;"/>
    <path clip-path="url(#pae475ebd2c)" d="M 800.1 205.982232 
L 800.1 166.172344 
" style="fill:none;stroke:#4169e1;stroke-width:3;"/>
    <path clip-path="url(#pae475ebd2c)" d="M 812.7 220.75432 
L 812.7 190.451104 
" style="fill:none;stroke:#4169e1;stroke-width:3;"/>
    <path clip-path="url(#pae475ebd2c)" d="M 825.3 237.165414 
L 825.3 213.090858 
" style="fill:none;stroke:#4169e1;stroke-width:3;"/>
    <path clip-path="url(#pae475ebd2c)" d="M 837.9 227.402702 
L 837.9 203.328146 
" style="fill:none;stroke:#4169e1;stroke-width:3;"/>
    <path clip-path="url(#pae475ebd2c)" d="M 850.5 227.402702 
L 850.5 203.328146 
" style="fill:none;stroke:#4169e1;stroke-width:3;"/>
    <path clip-path="url(#pae475ebd2c)" d="M 863.1 190.188824 
L 863.1 142.914905 
" style="fill:none;stroke:#4169e1;stroke-width:3;"/>
    <path clip-path="url(#pae475ebd2c)" d="M 875.7 213.542778 
L 875.7 178.137222 
" style="fill:none;stroke:#4169e1;stroke-width:3;"/>
    <path clip-path="url(#pae475ebd2c)" d="M 888.3 227.402702 
L 888.3 203.328146 
" style="fill:none;stroke:#4169e1;stroke-width:3;"/>
    <path clip-path="url(#pae475ebd2c)" d="M 900.9 227.402702 
L 900.9 203.328146 
" style="fill:none;stroke:#4169e1;stroke-width:3;"/>
    <path clip-path="url(#pae475ebd2c)" d="M 913.5 165.449978 
L 913.5 109.077479 
" style="fill:none;stroke:#4169e1;stroke-width:3;"/>
    <path clip-path="url(#pae475ebd2c)" d="M 926.1 227.402702 
L 926.1 203.328146 
" style="fill:none;stroke:#4169e1;stroke-width:3;"/>
    <path clip-path="url(#pae475ebd2c)" d="M 938.7 205.982232 
L 938.7 166.172344 
" style="fill:none;stroke:#4169e1;stroke-width:3;"/>
    <path clip-path="url(#pae475ebd2c)" d="M 951.3 213.542778 
L 951.3 178.137222 
" style="fill:none;stroke:#4169e1;stroke-width:3;"/>
   </g>
   <g id="line2d_10">
    <path clip-path="url(#pae475ebd2c)" d="M 548.1 242.701017 
L 548.1 137.263729 
" style="fill:none;stroke:#000000;stroke-dasharray:11.1,4.8;stroke-dashoffset:0;stroke-width:3;"/>
   </g>
   <g id="line2d_11">
    <path clip-path="url(#pae475ebd2c)" d="M 207.9 225.128136 
L 220.5 214.435642 
L 233.1 225.128136 
L 245.7 225.128136 
L 258.3 214.507888 
L 270.9 225.128136 
L 283.5 87.06492 
L 296.1 203.887641 
L 308.7 215.242622 
L 321.3 215.242622 
L 333.9 205.357109 
L 346.5 225.128136 
L 359.1 175.700569 
L 371.7 185.586083 
L 384.3 205.357109 
L 396.9 185.586083 
L 409.5 215.242622 
L 422.1 215.365424 
L 434.7 195.84 
L 447.3 215.365424 
L 459.9 205.602712 
L 472.5 205.602712 
L 485.1 225.128136 
L 497.7 176.314576 
L 510.3 156.789153 
L 522.9 215.365424 
L 535.5 195.84 
L 548.1 225.128136 
L 560.7 225.128136 
L 573.3 225.128136 
L 585.9 59.162034 
L 598.5 225.128136 
L 611.1 215.365424 
L 623.7 205.602712 
L 636.3 225.128136 
L 648.9 225.128136 
L 661.5 205.602712 
L 674.1 225.128136 
L 686.7 205.602712 
L 699.3 205.602712 
L 711.9 225.128136 
L 724.5 215.365424 
L 737.1 49.399322 
L 749.7 215.365424 
L 762.3 225.128136 
L 774.9 186.077288 
L 787.5 225.128136 
L 800.1 186.077288 
L 812.7 205.602712 
L 825.3 225.128136 
L 837.9 215.365424 
L 850.5 215.365424 
L 863.1 166.551864 
L 875.7 195.84 
L 888.3 215.365424 
L 900.9 215.365424 
L 913.5 137.263729 
L 926.1 215.365424 
L 938.7 186.077288 
L 951.3 195.84 
" style="fill:none;stroke:#4169e1;stroke-linecap:round;stroke-width:3;"/>
    <defs>
     <path d="M 0 3.25 
C 0.86191 3.25 1.688635 2.907559 2.298097 2.298097 
C 2.907559 1.688635 3.25 0.86191 3.25 0 
C 3.25 -0.86191 2.907559 -1.688635 2.298097 -2.298097 
C 1.688635 -2.907559 0.86191 -3.25 0 -3.25 
C -0.86191 -3.25 -1.688635 -2.907559 -2.298097 -2.298097 
C -2.907559 -1.688635 -3.25 -0.86191 -3.25 0 
C -3.25 0.86191 -2.907559 1.688635 -2.298097 2.298097 
C -1.688635 2.907559 -0.86191 3.25 0 3.25 
z
" id="mbf15fa687a" style="stroke:#4169e1;"/>
    </defs>
    <g clip-path="url(#pae475ebd2c)">
     <use style="fill:#4169e1;stroke:#4169e1;" x="207.9" xlink:href="#mbf15fa687a" y="225.128136"/>
     <use style="fill:#4169e1;stroke:#4169e1;" x="220.5" xlink:href="#mbf15fa687a" y="214.435642"/>
     <use style="fill:#4169e1;stroke:#4169e1;" x="233.1" xlink:href="#mbf15fa687a" y="225.128136"/>
     <use style="fill:#4169e1;stroke:#4169e1;" x="245.7" xlink:href="#mbf15fa687a" y="225.128136"/>
     <use style="fill:#4169e1;stroke:#4169e1;" x="258.3" xlink:href="#mbf15fa687a" y="214.507888"/>
     <use style="fill:#4169e1;stroke:#4169e1;" x="270.9" xlink:href="#mbf15fa687a" y="225.128136"/>
     <use style="fill:#4169e1;stroke:#4169e1;" x="283.5" xlink:href="#mbf15fa687a" y="87.06492"/>
     <use style="fill:#4169e1;stroke:#4169e1;" x="296.1" xlink:href="#mbf15fa687a" y="203.887641"/>
     <use style="fill:#4169e1;stroke:#4169e1;" x="308.7" xlink:href="#mbf15fa687a" y="215.242622"/>
     <use style="fill:#4169e1;stroke:#4169e1;" x="321.3" xlink:href="#mbf15fa687a" y="215.242622"/>
     <use style="fill:#4169e1;stroke:#4169e1;" x="333.9" xlink:href="#mbf15fa687a" y="205.357109"/>
     <use style="fill:#4169e1;stroke:#4169e1;" x="346.5" xlink:href="#mbf15fa687a" y="225.128136"/>
     <use style="fill:#4169e1;stroke:#4169e1;" x="359.1" xlink:href="#mbf15fa687a" y="175.700569"/>
     <use style="fill:#4169e1;stroke:#4169e1;" x="371.7" xlink:href="#mbf15fa687a" y="185.586083"/>
     <use style="fill:#4169e1;stroke:#4169e1;" x="384.3" xlink:href="#mbf15fa687a" y="205.357109"/>
     <use style="fill:#4169e1;stroke:#4169e1;" x="396.9" xlink:href="#mbf15fa687a" y="185.586083"/>
     <use style="fill:#4169e1;stroke:#4169e1;" x="409.5" xlink:href="#mbf15fa687a" y="215.242622"/>
     <use style="fill:#4169e1;stroke:#4169e1;" x="422.1" xlink:href="#mbf15fa687a" y="215.365424"/>
     <use style="fill:#4169e1;stroke:#4169e1;" x="434.7" xlink:href="#mbf15fa687a" y="195.84"/>
     <use style="fill:#4169e1;stroke:#4169e1;" x="447.3" xlink:href="#mbf15fa687a" y="215.365424"/>
     <use style="fill:#4169e1;stroke:#4169e1;" x="459.9" xlink:href="#mbf15fa687a" y="205.602712"/>
     <use style="fill:#4169e1;stroke:#4169e1;" x="472.5" xlink:href="#mbf15fa687a" y="205.602712"/>
     <use style="fill:#4169e1;stroke:#4169e1;" x="485.1" xlink:href="#mbf15fa687a" y="225.128136"/>
     <use style="fill:#4169e1;stroke:#4169e1;" x="497.7" xlink:href="#mbf15fa687a" y="176.314576"/>
     <use style="fill:#4169e1;stroke:#4169e1;" x="510.3" xlink:href="#mbf15fa687a" y="156.789153"/>
     <use style="fill:#4169e1;stroke:#4169e1;" x="522.9" xlink:href="#mbf15fa687a" y="215.365424"/>
     <use style="fill:#4169e1;stroke:#4169e1;" x="535.5" xlink:href="#mbf15fa687a" y="195.84"/>
     <use style="fill:#4169e1;stroke:#4169e1;" x="548.1" xlink:href="#mbf15fa687a" y="225.128136"/>
     <use style="fill:#4169e1;stroke:#4169e1;" x="560.7" xlink:href="#mbf15fa687a" y="225.128136"/>
     <use style="fill:#4169e1;stroke:#4169e1;" x="573.3" xlink:href="#mbf15fa687a" y="225.128136"/>
     <use style="fill:#4169e1;stroke:#4169e1;" x="585.9" xlink:href="#mbf15fa687a" y="59.162034"/>
     <use style="fill:#4169e1;stroke:#4169e1;" x="598.5" xlink:href="#mbf15fa687a" y="225.128136"/>
     <use style="fill:#4169e1;stroke:#4169e1;" x="611.1" xlink:href="#mbf15fa687a" y="215.365424"/>
     <use style="fill:#4169e1;stroke:#4169e1;" x="623.7" xlink:href="#mbf15fa687a" y="205.602712"/>
     <use style="fill:#4169e1;stroke:#4169e1;" x="636.3" xlink:href="#mbf15fa687a" y="225.128136"/>
     <use style="fill:#4169e1;stroke:#4169e1;" x="648.9" xlink:href="#mbf15fa687a" y="225.128136"/>
     <use style="fill:#4169e1;stroke:#4169e1;" x="661.5" xlink:href="#mbf15fa687a" y="205.602712"/>
     <use style="fill:#4169e1;stroke:#4169e1;" x="674.1" xlink:href="#mbf15fa687a" y="225.128136"/>
     <use style="fill:#4169e1;stroke:#4169e1;" x="686.7" xlink:href="#mbf15fa687a" y="205.602712"/>
     <use style="fill:#4169e1;stroke:#4169e1;" x="699.3" xlink:href="#mbf15fa687a" y="205.602712"/>
     <use style="fill:#4169e1;stroke:#4169e1;" x="711.9" xlink:href="#mbf15fa687a" y="225.128136"/>
     <use style="fill:#4169e1;stroke:#4169e1;" x="724.5" xlink:href="#mbf15fa687a" y="215.365424"/>
     <use style="fill:#4169e1;stroke:#4169e1;" x="737.1" xlink:href="#mbf15fa687a" y="49.399322"/>
     <use style="fill:#4169e1;stroke:#4169e1;" x="749.7" xlink:href="#mbf15fa687a" y="215.365424"/>
     <use style="fill:#4169e1;stroke:#4169e1;" x="762.3" xlink:href="#mbf15fa687a" y="225.128136"/>
     <use style="fill:#4169e1;stroke:#4169e1;" x="774.9" xlink:href="#mbf15fa687a" y="186.077288"/>
     <use style="fill:#4169e1;stroke:#4169e1;" x="787.5" xlink:href="#mbf15fa687a" y="225.128136"/>
     <use style="fill:#4169e1;stroke:#4169e1;" x="800.1" xlink:href="#mbf15fa687a" y="186.077288"/>
     <use style="fill:#4169e1;stroke:#4169e1;" x="812.7" xlink:href="#mbf15fa687a" y="205.602712"/>
     <use style="fill:#4169e1;stroke:#4169e1;" x="825.3" xlink:href="#mbf15fa687a" y="225.128136"/>
     <use style="fill:#4169e1;stroke:#4169e1;" x="837.9" xlink:href="#mbf15fa687a" y="215.365424"/>
     <use style="fill:#4169e1;stroke:#4169e1;" x="850.5" xlink:href="#mbf15fa687a" y="215.365424"/>
     <use style="fill:#4169e1;stroke:#4169e1;" x="863.1" xlink:href="#mbf15fa687a" y="166.551864"/>
     <use style="fill:#4169e1;stroke:#4169e1;" x="875.7" xlink:href="#mbf15fa687a" y="195.84"/>
     <use style="fill:#4169e1;stroke:#4169e1;" x="888.3" xlink:href="#mbf15fa687a" y="215.365424"/>
     <use style="fill:#4169e1;stroke:#4169e1;" x="900.9" xlink:href="#mbf15fa687a" y="215.365424"/>
     <use style="fill:#4169e1;stroke:#4169e1;" x="913.5" xlink:href="#mbf15fa687a" y="137.263729"/>
     <use style="fill:#4169e1;stroke:#4169e1;" x="926.1" xlink:href="#mbf15fa687a" y="215.365424"/>
     <use style="fill:#4169e1;stroke:#4169e1;" x="938.7" xlink:href="#mbf15fa687a" y="186.077288"/>
     <use style="fill:#4169e1;stroke:#4169e1;" x="951.3" xlink:href="#mbf15fa687a" y="195.84"/>
    </g>
   </g>
   <g id="patch_3">
    <path d="M 201.6 230.4 
L 201.6 23.04 
" style="fill:none;stroke:#262626;stroke-linecap:square;stroke-linejoin:miter;stroke-width:0.8;"/>
   </g>
   <g id="patch_4">
    <path d="M 201.6 230.4 
L 957.6 230.4 
" style="fill:none;stroke:#262626;stroke-linecap:square;stroke-linejoin:miter;stroke-width:0.8;"/>
   </g>
   <g id="text_12">
    <text style="fill:#262626;font-family:DejaVu Sans;font-size:20px;font-style:normal;font-weight:bold;text-anchor:middle;" transform="rotate(-0, 579.6, 17.04)" x="579.6" y="17.04">IGHJ6*02</text>
   </g>
  </g>
 </g>
 <defs>
  <clipPath id="pae475ebd2c">
   <rect height="207.36" width="756" x="201.6" y="23.04"/>
  </clipPath>
 </defs>
</svg>
