<?xml version="1.0" encoding="utf-8" standalone="no"?>
<!DOCTYPE svg PUBLIC "-//W3C//DTD SVG 1.1//EN"
  "http://www.w3.org/Graphics/SVG/1.1/DTD/svg11.dtd">
<!-- Created with matplotlib (http://matplotlib.org/) -->
<svg height="288pt" version="1.1" viewBox="0 0 1008 288" width="1008pt" xmlns="http://www.w3.org/2000/svg" xmlns:xlink="http://www.w3.org/1999/xlink">
 <defs>
  <style type="text/css">
*{stroke-linecap:butt;stroke-linejoin:round;}
  </style>
 </defs>
 <g id="figure_1">
  <g id="patch_1">
   <path d="M 0 288 
L 1008 288 
L 1008 0 
L 0 0 
z
" style="fill:#ffffff;"/>
  </g>
  <g id="axes_1">
   <g id="patch_2">
    <path d="M 201.6 230.4 
L 957.6 230.4 
L 957.6 23.04 
L 201.6 23.04 
z
" style="fill:#ffffff;"/>
   </g>
   <g id="matplotlib.axis_1">
    <g id="xtick_1">
     <g id="line2d_1">
      <defs>
       <path d="M 0 0 
L 0 3.5 
" id="m35c85b4b42" style="stroke:#262626;stroke-width:0.8;"/>
      </defs>
      <g>
       <use style="fill:#262626;stroke:#262626;stroke-width:0.8;" x="332.742857" xlink:href="#m35c85b4b42" y="230.4"/>
      </g>
     </g>
     <g id="text_1">
      <text style="fill:#262626;font-family:DejaVu Sans;font-size:20px;font-style:normal;font-weight:normal;text-anchor:middle;" transform="rotate(-0, 332.742857, 252.596875)" x="332.742857" y="252.596875">10</text>
     </g>
    </g>
    <g id="xtick_2">
     <g id="line2d_2">
      <g>
       <use style="fill:#262626;stroke:#262626;stroke-width:0.8;" x="487.028571" xlink:href="#m35c85b4b42" y="230.4"/>
      </g>
     </g>
     <g id="text_2">
      <text style="fill:#262626;font-family:DejaVu Sans;font-size:20px;font-style:normal;font-weight:normal;text-anchor:middle;" transform="rotate(-0, 487.028571, 252.596875)" x="487.028571" y="252.596875">20</text>
     </g>
    </g>
    <g id="xtick_3">
     <g id="line2d_3">
      <g>
       <use style="fill:#262626;stroke:#262626;stroke-width:0.8;" x="641.314286" xlink:href="#m35c85b4b42" y="230.4"/>
      </g>
     </g>
     <g id="text_3">
      <text style="fill:#262626;font-family:DejaVu Sans;font-size:20px;font-style:normal;font-weight:normal;text-anchor:middle;" transform="rotate(-0, 641.314286, 252.596875)" x="641.314286" y="252.596875">30</text>
     </g>
    </g>
    <g id="xtick_4">
     <g id="line2d_4">
      <g>
       <use style="fill:#262626;stroke:#262626;stroke-width:0.8;" x="795.6" xlink:href="#m35c85b4b42" y="230.4"/>
      </g>
     </g>
     <g id="text_4">
      <text style="fill:#262626;font-family:DejaVu Sans;font-size:20px;font-style:normal;font-weight:normal;text-anchor:middle;" transform="rotate(-0, 795.6, 252.596875)" x="795.6" y="252.596875">40</text>
     </g>
    </g>
    <g id="xtick_5">
     <g id="line2d_5">
      <g>
       <use style="fill:#262626;stroke:#262626;stroke-width:0.8;" x="949.885714" xlink:href="#m35c85b4b42" y="230.4"/>
      </g>
     </g>
     <g id="text_5">
      <text style="fill:#262626;font-family:DejaVu Sans;font-size:20px;font-style:normal;font-weight:normal;text-anchor:middle;" transform="rotate(-0, 949.885714, 252.596875)" x="949.885714" y="252.596875">50</text>
     </g>
    </g>
    <g id="text_6">
     <text style="fill:#262626;font-family:DejaVu Sans;font-size:20px;font-style:normal;font-weight:normal;text-anchor:middle;" transform="rotate(-0, 579.6, 275.953125)" x="579.6" y="275.953125">position</text>
    </g>
   </g>
   <g id="matplotlib.axis_2">
    <g id="ytick_1">
     <g id="line2d_6">
      <defs>
       <path d="M 0 0 
L -3.5 0 
" id="m0c566a871d" style="stroke:#262626;stroke-width:0.8;"/>
      </defs>
      <g>
       <use style="fill:#262626;stroke:#262626;stroke-width:0.8;" x="201.6" xlink:href="#m0c566a871d" y="225.128136"/>
      </g>
     </g>
     <g id="text_7">
      <text style="fill:#262626;font-family:DejaVu Sans;font-size:20px;font-style:normal;font-weight:normal;text-anchor:end;" transform="rotate(-0, 194.6, 232.726573)" x="194.6" y="232.726573">0.00</text>
     </g>
    </g>
    <g id="ytick_2">
     <g id="line2d_7">
      <g>
       <use style="fill:#262626;stroke:#262626;stroke-width:0.8;" x="201.6" xlink:href="#m0c566a871d" y="175.095428"/>
      </g>
     </g>
     <g id="text_8">
      <text style="fill:#262626;font-family:DejaVu Sans;font-size:20px;font-style:normal;font-weight:normal;text-anchor:end;" transform="rotate(-0, 194.6, 182.693865)" x="194.6" y="182.693865">0.02</text>
     </g>
    </g>
    <g id="ytick_3">
     <g id="line2d_8">
      <g>
       <use style="fill:#262626;stroke:#262626;stroke-width:0.8;" x="201.6" xlink:href="#m0c566a871d" y="125.06272"/>
      </g>
     </g>
     <g id="text_9">
      <text style="fill:#262626;font-family:DejaVu Sans;font-size:20px;font-style:normal;font-weight:normal;text-anchor:end;" transform="rotate(-0, 194.6, 132.661158)" x="194.6" y="132.661158">0.04</text>
     </g>
    </g>
    <g id="ytick_4">
     <g id="line2d_9">
      <g>
       <use style="fill:#262626;stroke:#262626;stroke-width:0.8;" x="201.6" xlink:href="#m0c566a871d" y="75.030012"/>
      </g>
     </g>
     <g id="text_10">
      <text style="fill:#262626;font-family:DejaVu Sans;font-size:20px;font-style:normal;font-weight:normal;text-anchor:end;" transform="rotate(-0, 194.6, 82.62845)" x="194.6" y="82.62845">0.06</text>
     </g>
    </g>
    <g id="ytick_5">
     <g id="line2d_10">
      <g>
       <use style="fill:#262626;stroke:#262626;stroke-width:0.8;" x="201.6" xlink:href="#m0c566a871d" y="24.997305"/>
      </g>
     </g>
     <g id="text_11">
      <text style="fill:#262626;font-family:DejaVu Sans;font-size:20px;font-style:normal;font-weight:normal;text-anchor:end;" transform="rotate(-0, 194.6, 32.595742)" x="194.6" y="32.595742">0.08</text>
     </g>
    </g>
    <g id="text_12">
     <text style="fill:#262626;font-family:DejaVu Sans;font-size:20px;font-style:normal;font-weight:normal;text-anchor:middle;" transform="rotate(-90, 141.909375, 126.72)" x="141.909375" y="126.72">mut freq</text>
    </g>
   </g>
   <g id="LineCollection_1">
    <path clip-path="url(#p0276d4cfd9)" d="M 209.314286 225.486543 
L 209.314286 221.905807 
" style="fill:none;stroke:#4169e1;stroke-width:3;"/>
    <path clip-path="url(#p0276d4cfd9)" d="M 224.742857 218.927872 
L 224.742857 211.280949 
" style="fill:none;stroke:#4169e1;stroke-width:3;"/>
    <path clip-path="url(#p0276d4cfd9)" d="M 240.171429 201.485837 
L 240.171429 188.696858 
" style="fill:none;stroke:#4169e1;stroke-width:3;"/>
    <path clip-path="url(#p0276d4cfd9)" d="M 255.6 216.541122 
L 255.6 207.969331 
" style="fill:none;stroke:#4169e1;stroke-width:3;"/>
    <path clip-path="url(#p0276d4cfd9)" d="M 271.028571 121.469696 
L 271.028571 97.074207 
" style="fill:none;stroke:#4169e1;stroke-width:3;"/>
    <path clip-path="url(#p0276d4cfd9)" d="M 286.457143 226.916459 
L 286.457143 223.339812 
" style="fill:none;stroke:#4169e1;stroke-width:3;"/>
    <path clip-path="url(#p0276d4cfd9)" d="M 301.885714 124.187268 
L 301.885714 100.077928 
" style="fill:none;stroke:#4169e1;stroke-width:3;"/>
    <path clip-path="url(#p0276d4cfd9)" d="M 317.314286 217.753341 
L 317.314286 209.643898 
" style="fill:none;stroke:#4169e1;stroke-width:3;"/>
    <path clip-path="url(#p0276d4cfd9)" d="M 332.742857 222.39256 
L 332.742857 216.434195 
" style="fill:none;stroke:#4169e1;stroke-width:3;"/>
    <path clip-path="url(#p0276d4cfd9)" d="M 348.171429 218.942064 
L 348.171429 211.312554 
" style="fill:none;stroke:#4169e1;stroke-width:3;"/>
    <path clip-path="url(#p0276d4cfd9)" d="M 363.6 225.48573 
L 363.6 221.913162 
" style="fill:none;stroke:#4169e1;stroke-width:3;"/>
    <path clip-path="url(#p0276d4cfd9)" d="M 379.028571 168.714632 
L 379.028571 150.102201 
" style="fill:none;stroke:#4169e1;stroke-width:3;"/>
    <path clip-path="url(#p0276d4cfd9)" d="M 394.457143 122.945932 
L 394.457143 98.720013 
" style="fill:none;stroke:#4169e1;stroke-width:3;"/>
    <path clip-path="url(#p0276d4cfd9)" d="M 409.885714 221.266395 
L 409.885714 214.702981 
" style="fill:none;stroke:#4169e1;stroke-width:3;"/>
    <path clip-path="url(#p0276d4cfd9)" d="M 425.314286 140.543012 
L 425.314286 118.268861 
" style="fill:none;stroke:#4169e1;stroke-width:3;"/>
    <path clip-path="url(#p0276d4cfd9)" d="M 440.742857 226.914419 
L 440.742857 223.341852 
" style="fill:none;stroke:#4169e1;stroke-width:3;"/>
    <path clip-path="url(#p0276d4cfd9)" d="M 456.171429 226.914419 
L 456.171429 223.341852 
" style="fill:none;stroke:#4169e1;stroke-width:3;"/>
    <path clip-path="url(#p0276d4cfd9)" d="M 471.6 226.914419 
L 471.6 223.341852 
" style="fill:none;stroke:#4169e1;stroke-width:3;"/>
    <path clip-path="url(#p0276d4cfd9)" d="M 487.028571 210.39214 
L 487.028571 199.860824 
" style="fill:none;stroke:#4169e1;stroke-width:3;"/>
    <path clip-path="url(#p0276d4cfd9)" d="M 502.457143 225.48573 
L 502.457143 221.913162 
" style="fill:none;stroke:#4169e1;stroke-width:3;"/>
    <path clip-path="url(#p0276d4cfd9)" d="M 517.885714 218.942064 
L 517.885714 211.312554 
" style="fill:none;stroke:#4169e1;stroke-width:3;"/>
    <path clip-path="url(#p0276d4cfd9)" d="M 533.314286 209.138448 
L 533.314286 198.257137 
" style="fill:none;stroke:#4169e1;stroke-width:3;"/>
    <path clip-path="url(#p0276d4cfd9)" d="M 548.742857 216.550948 
L 548.742857 207.988911 
" style="fill:none;stroke:#4169e1;stroke-width:3;"/>
    <path clip-path="url(#p0276d4cfd9)" d="M 564.171429 226.914419 
L 564.171429 223.341852 
" style="fill:none;stroke:#4169e1;stroke-width:3;"/>
    <path clip-path="url(#p0276d4cfd9)" d="M 579.6 209.138448 
L 579.6 198.257137 
" style="fill:none;stroke:#4169e1;stroke-width:3;"/>
    <path clip-path="url(#p0276d4cfd9)" d="M 595.028571 216.550948 
L 595.028571 207.988911 
" style="fill:none;stroke:#4169e1;stroke-width:3;"/>
    <path clip-path="url(#p0276d4cfd9)" d="M 610.457143 225.48573 
L 610.457143 221.913162 
" style="fill:none;stroke:#4169e1;stroke-width:3;"/>
    <path clip-path="url(#p0276d4cfd9)" d="M 625.885714 226.914419 
L 625.885714 223.341852 
" style="fill:none;stroke:#4169e1;stroke-width:3;"/>
    <path clip-path="url(#p0276d4cfd9)" d="M 641.314286 148.628821 
L 641.314286 127.327326 
" style="fill:none;stroke:#4169e1;stroke-width:3;"/>
    <path clip-path="url(#p0276d4cfd9)" d="M 656.742857 218.942064 
L 656.742857 211.312554 
" style="fill:none;stroke:#4169e1;stroke-width:3;"/>
    <path clip-path="url(#p0276d4cfd9)" d="M 672.171429 64.203141 
L 672.171429 34.595503 
" style="fill:none;stroke:#4169e1;stroke-width:3;"/>
    <path clip-path="url(#p0276d4cfd9)" d="M 687.6 218.942064 
L 687.6 211.312554 
" style="fill:none;stroke:#4169e1;stroke-width:3;"/>
    <path clip-path="url(#p0276d4cfd9)" d="M 703.028571 224.525561 
L 703.028571 220.015952 
" style="fill:none;stroke:#4169e1;stroke-width:3;"/>
    <path clip-path="url(#p0276d4cfd9)" d="M 718.457143 168.714632 
L 718.457143 150.102201 
" style="fill:none;stroke:#4169e1;stroke-width:3;"/>
    <path clip-path="url(#p0276d4cfd9)" d="M 733.885714 145.936384 
L 733.885714 124.305005 
" style="fill:none;stroke:#4169e1;stroke-width:3;"/>
    <path clip-path="url(#p0276d4cfd9)" d="M 749.314286 164.714603 
L 749.314286 145.530093 
" style="fill:none;stroke:#4169e1;stroke-width:3;"/>
    <path clip-path="url(#p0276d4cfd9)" d="M 764.742857 225.48573 
L 764.742857 221.913162 
" style="fill:none;stroke:#4169e1;stroke-width:3;"/>
    <path clip-path="url(#p0276d4cfd9)" d="M 780.171429 136.49102 
L 780.171429 113.748716 
" style="fill:none;stroke:#4169e1;stroke-width:3;"/>
    <path clip-path="url(#p0276d4cfd9)" d="M 795.6 216.550948 
L 795.6 207.988911 
" style="fill:none;stroke:#4169e1;stroke-width:3;"/>
    <path clip-path="url(#p0276d4cfd9)" d="M 811.028571 224.525561 
L 811.028571 220.015952 
" style="fill:none;stroke:#4169e1;stroke-width:3;"/>
    <path clip-path="url(#p0276d4cfd9)" d="M 826.457143 226.914419 
L 826.457143 223.341852 
" style="fill:none;stroke:#4169e1;stroke-width:3;"/>
    <path clip-path="url(#p0276d4cfd9)" d="M 841.885714 225.48573 
L 841.885714 221.913162 
" style="fill:none;stroke:#4169e1;stroke-width:3;"/>
    <path clip-path="url(#p0276d4cfd9)" d="M 857.314286 222.39256 
L 857.314286 216.434195 
" style="fill:none;stroke:#4169e1;stroke-width:3;"/>
    <path clip-path="url(#p0276d4cfd9)" d="M 872.742857 226.914419 
L 872.742857 223.341852 
" style="fill:none;stroke:#4169e1;stroke-width:3;"/>
    <path clip-path="url(#p0276d4cfd9)" d="M 888.171429 221.266395 
L 888.171429 214.702981 
" style="fill:none;stroke:#4169e1;stroke-width:3;"/>
    <path clip-path="url(#p0276d4cfd9)" d="M 903.6 226.914419 
L 903.6 223.341852 
" style="fill:none;stroke:#4169e1;stroke-width:3;"/>
    <path clip-path="url(#p0276d4cfd9)" d="M 919.028571 225.48573 
L 919.028571 221.913162 
" style="fill:none;stroke:#4169e1;stroke-width:3;"/>
    <path clip-path="url(#p0276d4cfd9)" d="M 934.457143 209.138448 
L 934.457143 198.257137 
" style="fill:none;stroke:#4169e1;stroke-width:3;"/>
    <path clip-path="url(#p0276d4cfd9)" d="M 949.885714 225.48573 
L 949.885714 221.913162 
" style="fill:none;stroke:#4169e1;stroke-width:3;"/>
   </g>
   <g id="line2d_11">
    <path clip-path="url(#p0276d4cfd9)" d="M 440.742857 242.701017 
L 440.742857 137.263729 
" style="fill:none;stroke:#000000;stroke-dasharray:11.1,4.8;stroke-dashoffset:0;stroke-width:3;"/>
   </g>
   <g id="line2d_12">
    <path clip-path="url(#p0276d4cfd9)" d="M 209.314286 223.696175 
L 224.742857 215.104411 
L 240.171429 195.091347 
L 255.6 212.255226 
L 271.028571 109.271951 
L 286.457143 225.128136 
L 301.885714 112.132598 
L 317.314286 213.698619 
L 332.742857 219.413377 
L 348.171429 215.127309 
L 363.6 223.699446 
L 379.028571 159.408417 
L 394.457143 110.832972 
L 409.885714 217.984688 
L 425.314286 129.405936 
L 440.742857 225.128136 
L 456.171429 225.128136 
L 471.6 225.128136 
L 487.028571 205.126482 
L 502.457143 223.699446 
L 517.885714 215.127309 
L 533.314286 203.697792 
L 548.742857 212.26993 
L 564.171429 225.128136 
L 579.6 203.697792 
L 595.028571 212.26993 
L 610.457143 223.699446 
L 625.885714 225.128136 
L 641.314286 137.978074 
L 656.742857 215.127309 
L 672.171429 49.399322 
L 687.6 215.127309 
L 703.028571 222.270757 
L 718.457143 159.408417 
L 733.885714 135.120695 
L 749.314286 155.122348 
L 764.742857 223.699446 
L 780.171429 125.119868 
L 795.6 212.26993 
L 811.028571 222.270757 
L 826.457143 225.128136 
L 841.885714 223.699446 
L 857.314286 219.413377 
L 872.742857 225.128136 
L 888.171429 217.984688 
L 903.6 225.128136 
L 919.028571 223.699446 
L 934.457143 203.697792 
L 949.885714 223.699446 
" style="fill:none;stroke:#4169e1;stroke-linecap:round;stroke-width:3;"/>
    <defs>
     <path d="M 0 3.25 
C 0.86191 3.25 1.688635 2.907559 2.298097 2.298097 
C 2.907559 1.688635 3.25 0.86191 3.25 0 
C 3.25 -0.86191 2.907559 -1.688635 2.298097 -2.298097 
C 1.688635 -2.907559 0.86191 -3.25 0 -3.25 
C -0.86191 -3.25 -1.688635 -2.907559 -2.298097 -2.298097 
C -2.907559 -1.688635 -3.25 -0.86191 -3.25 0 
C -3.25 0.86191 -2.907559 1.688635 -2.298097 2.298097 
C -1.688635 2.907559 -0.86191 3.25 0 3.25 
z
" id="m8a68d6add5" style="stroke:#4169e1;"/>
    </defs>
    <g clip-path="url(#p0276d4cfd9)">
     <use style="fill:#4169e1;stroke:#4169e1;" x="209.314286" xlink:href="#m8a68d6add5" y="223.696175"/>
     <use style="fill:#4169e1;stroke:#4169e1;" x="224.742857" xlink:href="#m8a68d6add5" y="215.104411"/>
     <use style="fill:#4169e1;stroke:#4169e1;" x="240.171429" xlink:href="#m8a68d6add5" y="195.091347"/>
     <use style="fill:#4169e1;stroke:#4169e1;" x="255.6" xlink:href="#m8a68d6add5" y="212.255226"/>
     <use style="fill:#4169e1;stroke:#4169e1;" x="271.028571" xlink:href="#m8a68d6add5" y="109.271951"/>
     <use style="fill:#4169e1;stroke:#4169e1;" x="286.457143" xlink:href="#m8a68d6add5" y="225.128136"/>
     <use style="fill:#4169e1;stroke:#4169e1;" x="301.885714" xlink:href="#m8a68d6add5" y="112.132598"/>
     <use style="fill:#4169e1;stroke:#4169e1;" x="317.314286" xlink:href="#m8a68d6add5" y="213.698619"/>
     <use style="fill:#4169e1;stroke:#4169e1;" x="332.742857" xlink:href="#m8a68d6add5" y="219.413377"/>
     <use style="fill:#4169e1;stroke:#4169e1;" x="348.171429" xlink:href="#m8a68d6add5" y="215.127309"/>
     <use style="fill:#4169e1;stroke:#4169e1;" x="363.6" xlink:href="#m8a68d6add5" y="223.699446"/>
     <use style="fill:#4169e1;stroke:#4169e1;" x="379.028571" xlink:href="#m8a68d6add5" y="159.408417"/>
     <use style="fill:#4169e1;stroke:#4169e1;" x="394.457143" xlink:href="#m8a68d6add5" y="110.832972"/>
     <use style="fill:#4169e1;stroke:#4169e1;" x="409.885714" xlink:href="#m8a68d6add5" y="217.984688"/>
     <use style="fill:#4169e1;stroke:#4169e1;" x="425.314286" xlink:href="#m8a68d6add5" y="129.405936"/>
     <use style="fill:#4169e1;stroke:#4169e1;" x="440.742857" xlink:href="#m8a68d6add5" y="225.128136"/>
     <use style="fill:#4169e1;stroke:#4169e1;" x="456.171429" xlink:href="#m8a68d6add5" y="225.128136"/>
     <use style="fill:#4169e1;stroke:#4169e1;" x="471.6" xlink:href="#m8a68d6add5" y="225.128136"/>
     <use style="fill:#4169e1;stroke:#4169e1;" x="487.028571" xlink:href="#m8a68d6add5" y="205.126482"/>
     <use style="fill:#4169e1;stroke:#4169e1;" x="502.457143" xlink:href="#m8a68d6add5" y="223.699446"/>
     <use style="fill:#4169e1;stroke:#4169e1;" x="517.885714" xlink:href="#m8a68d6add5" y="215.127309"/>
     <use style="fill:#4169e1;stroke:#4169e1;" x="533.314286" xlink:href="#m8a68d6add5" y="203.697792"/>
     <use style="fill:#4169e1;stroke:#4169e1;" x="548.742857" xlink:href="#m8a68d6add5" y="212.26993"/>
     <use style="fill:#4169e1;stroke:#4169e1;" x="564.171429" xlink:href="#m8a68d6add5" y="225.128136"/>
     <use style="fill:#4169e1;stroke:#4169e1;" x="579.6" xlink:href="#m8a68d6add5" y="203.697792"/>
     <use style="fill:#4169e1;stroke:#4169e1;" x="595.028571" xlink:href="#m8a68d6add5" y="212.26993"/>
     <use style="fill:#4169e1;stroke:#4169e1;" x="610.457143" xlink:href="#m8a68d6add5" y="223.699446"/>
     <use style="fill:#4169e1;stroke:#4169e1;" x="625.885714" xlink:href="#m8a68d6add5" y="225.128136"/>
     <use style="fill:#4169e1;stroke:#4169e1;" x="641.314286" xlink:href="#m8a68d6add5" y="137.978074"/>
     <use style="fill:#4169e1;stroke:#4169e1;" x="656.742857" xlink:href="#m8a68d6add5" y="215.127309"/>
     <use style="fill:#4169e1;stroke:#4169e1;" x="672.171429" xlink:href="#m8a68d6add5" y="49.399322"/>
     <use style="fill:#4169e1;stroke:#4169e1;" x="687.6" xlink:href="#m8a68d6add5" y="215.127309"/>
     <use style="fill:#4169e1;stroke:#4169e1;" x="703.028571" xlink:href="#m8a68d6add5" y="222.270757"/>
     <use style="fill:#4169e1;stroke:#4169e1;" x="718.457143" xlink:href="#m8a68d6add5" y="159.408417"/>
     <use style="fill:#4169e1;stroke:#4169e1;" x="733.885714" xlink:href="#m8a68d6add5" y="135.120695"/>
     <use style="fill:#4169e1;stroke:#4169e1;" x="749.314286" xlink:href="#m8a68d6add5" y="155.122348"/>
     <use style="fill:#4169e1;stroke:#4169e1;" x="764.742857" xlink:href="#m8a68d6add5" y="223.699446"/>
     <use style="fill:#4169e1;stroke:#4169e1;" x="780.171429" xlink:href="#m8a68d6add5" y="125.119868"/>
     <use style="fill:#4169e1;stroke:#4169e1;" x="795.6" xlink:href="#m8a68d6add5" y="212.26993"/>
     <use style="fill:#4169e1;stroke:#4169e1;" x="811.028571" xlink:href="#m8a68d6add5" y="222.270757"/>
     <use style="fill:#4169e1;stroke:#4169e1;" x="826.457143" xlink:href="#m8a68d6add5" y="225.128136"/>
     <use style="fill:#4169e1;stroke:#4169e1;" x="841.885714" xlink:href="#m8a68d6add5" y="223.699446"/>
     <use style="fill:#4169e1;stroke:#4169e1;" x="857.314286" xlink:href="#m8a68d6add5" y="219.413377"/>
     <use style="fill:#4169e1;stroke:#4169e1;" x="872.742857" xlink:href="#m8a68d6add5" y="225.128136"/>
     <use style="fill:#4169e1;stroke:#4169e1;" x="888.171429" xlink:href="#m8a68d6add5" y="217.984688"/>
     <use style="fill:#4169e1;stroke:#4169e1;" x="903.6" xlink:href="#m8a68d6add5" y="225.128136"/>
     <use style="fill:#4169e1;stroke:#4169e1;" x="919.028571" xlink:href="#m8a68d6add5" y="223.699446"/>
     <use style="fill:#4169e1;stroke:#4169e1;" x="934.457143" xlink:href="#m8a68d6add5" y="203.697792"/>
     <use style="fill:#4169e1;stroke:#4169e1;" x="949.885714" xlink:href="#m8a68d6add5" y="223.699446"/>
    </g>
   </g>
   <g id="patch_3">
    <path d="M 201.6 230.4 
L 201.6 23.04 
" style="fill:none;stroke:#262626;stroke-linecap:square;stroke-linejoin:miter;stroke-width:0.8;"/>
   </g>
   <g id="patch_4">
    <path d="M 201.6 230.4 
L 957.6 230.4 
" style="fill:none;stroke:#262626;stroke-linecap:square;stroke-linejoin:miter;stroke-width:0.8;"/>
   </g>
   <g id="text_13">
    <text style="fill:#262626;font-family:DejaVu Sans;font-size:20px;font-style:normal;font-weight:bold;text-anchor:middle;" transform="rotate(-0, 579.6, 17.04)" x="579.6" y="17.04">IGHJ5*01</text>
   </g>
  </g>
 </g>
 <defs>
  <clipPath id="p0276d4cfd9">
   <rect height="207.36" width="756" x="201.6" y="23.04"/>
  </clipPath>
 </defs>
</svg>
