<?xml version="1.0" encoding="utf-8" standalone="no"?>
<!DOCTYPE svg PUBLIC "-//W3C//DTD SVG 1.1//EN"
  "http://www.w3.org/Graphics/SVG/1.1/DTD/svg11.dtd">
<!-- Created with matplotlib (http://matplotlib.org/) -->
<svg height="288pt" version="1.1" viewBox="0 0 1008 288" width="1008pt" xmlns="http://www.w3.org/2000/svg" xmlns:xlink="http://www.w3.org/1999/xlink">
 <defs>
  <style type="text/css">
*{stroke-linecap:butt;stroke-linejoin:round;}
  </style>
 </defs>
 <g id="figure_1">
  <g id="patch_1">
   <path d="M 0 288 
L 1008 288 
L 1008 0 
L 0 0 
z
" style="fill:#ffffff;"/>
  </g>
  <g id="axes_1">
   <g id="patch_2">
    <path d="M 201.6 230.4 
L 957.6 230.4 
L 957.6 23.04 
L 201.6 23.04 
z
" style="fill:#ffffff;"/>
   </g>
   <g id="matplotlib.axis_1">
    <g id="xtick_1">
     <g id="line2d_1">
      <defs>
       <path d="M 0 0 
L 0 3.5 
" id="meceb512a86" style="stroke:#262626;stroke-width:0.8;"/>
      </defs>
      <g>
       <use style="fill:#262626;stroke:#262626;stroke-width:0.8;" x="342.423529" xlink:href="#meceb512a86" y="230.4"/>
      </g>
     </g>
     <g id="text_1">
      <text style="fill:#262626;font-family:DejaVu Sans;font-size:20px;font-style:normal;font-weight:normal;text-anchor:middle;" transform="rotate(-0, 342.423529, 252.596875)" x="342.423529" y="252.596875">10</text>
     </g>
    </g>
    <g id="xtick_2">
     <g id="line2d_2">
      <g>
       <use style="fill:#262626;stroke:#262626;stroke-width:0.8;" x="490.658824" xlink:href="#meceb512a86" y="230.4"/>
      </g>
     </g>
     <g id="text_2">
      <text style="fill:#262626;font-family:DejaVu Sans;font-size:20px;font-style:normal;font-weight:normal;text-anchor:middle;" transform="rotate(-0, 490.658824, 252.596875)" x="490.658824" y="252.596875">20</text>
     </g>
    </g>
    <g id="xtick_3">
     <g id="line2d_3">
      <g>
       <use style="fill:#262626;stroke:#262626;stroke-width:0.8;" x="638.894118" xlink:href="#meceb512a86" y="230.4"/>
      </g>
     </g>
     <g id="text_3">
      <text style="fill:#262626;font-family:DejaVu Sans;font-size:20px;font-style:normal;font-weight:normal;text-anchor:middle;" transform="rotate(-0, 638.894118, 252.596875)" x="638.894118" y="252.596875">30</text>
     </g>
    </g>
    <g id="xtick_4">
     <g id="line2d_4">
      <g>
       <use style="fill:#262626;stroke:#262626;stroke-width:0.8;" x="787.129412" xlink:href="#meceb512a86" y="230.4"/>
      </g>
     </g>
     <g id="text_4">
      <text style="fill:#262626;font-family:DejaVu Sans;font-size:20px;font-style:normal;font-weight:normal;text-anchor:middle;" transform="rotate(-0, 787.129412, 252.596875)" x="787.129412" y="252.596875">40</text>
     </g>
    </g>
    <g id="xtick_5">
     <g id="line2d_5">
      <g>
       <use style="fill:#262626;stroke:#262626;stroke-width:0.8;" x="935.364706" xlink:href="#meceb512a86" y="230.4"/>
      </g>
     </g>
     <g id="text_5">
      <text style="fill:#262626;font-family:DejaVu Sans;font-size:20px;font-style:normal;font-weight:normal;text-anchor:middle;" transform="rotate(-0, 935.364706, 252.596875)" x="935.364706" y="252.596875">50</text>
     </g>
    </g>
    <g id="text_6">
     <text style="fill:#262626;font-family:DejaVu Sans;font-size:20px;font-style:normal;font-weight:normal;text-anchor:middle;" transform="rotate(-0, 579.6, 275.953125)" x="579.6" y="275.953125">position</text>
    </g>
   </g>
   <g id="matplotlib.axis_2">
    <g id="ytick_1">
     <g id="line2d_6">
      <defs>
       <path d="M 0 0 
L -3.5 0 
" id="m3a8a246414" style="stroke:#262626;stroke-width:0.8;"/>
      </defs>
      <g>
       <use style="fill:#262626;stroke:#262626;stroke-width:0.8;" x="201.6" xlink:href="#m3a8a246414" y="225.128136"/>
      </g>
     </g>
     <g id="text_7">
      <text style="fill:#262626;font-family:DejaVu Sans;font-size:20px;font-style:normal;font-weight:normal;text-anchor:end;" transform="rotate(-0, 194.6, 232.726573)" x="194.6" y="232.726573">0.00</text>
     </g>
    </g>
    <g id="ytick_2">
     <g id="line2d_7">
      <g>
       <use style="fill:#262626;stroke:#262626;stroke-width:0.8;" x="201.6" xlink:href="#m3a8a246414" y="177.681356"/>
      </g>
     </g>
     <g id="text_8">
      <text style="fill:#262626;font-family:DejaVu Sans;font-size:20px;font-style:normal;font-weight:normal;text-anchor:end;" transform="rotate(-0, 194.6, 185.279793)" x="194.6" y="185.279793">0.05</text>
     </g>
    </g>
    <g id="ytick_3">
     <g id="line2d_8">
      <g>
       <use style="fill:#262626;stroke:#262626;stroke-width:0.8;" x="201.6" xlink:href="#m3a8a246414" y="130.234576"/>
      </g>
     </g>
     <g id="text_9">
      <text style="fill:#262626;font-family:DejaVu Sans;font-size:20px;font-style:normal;font-weight:normal;text-anchor:end;" transform="rotate(-0, 194.6, 137.833014)" x="194.6" y="137.833014">0.10</text>
     </g>
    </g>
    <g id="ytick_4">
     <g id="line2d_9">
      <g>
       <use style="fill:#262626;stroke:#262626;stroke-width:0.8;" x="201.6" xlink:href="#m3a8a246414" y="82.787797"/>
      </g>
     </g>
     <g id="text_10">
      <text style="fill:#262626;font-family:DejaVu Sans;font-size:20px;font-style:normal;font-weight:normal;text-anchor:end;" transform="rotate(-0, 194.6, 90.386234)" x="194.6" y="90.386234">0.15</text>
     </g>
    </g>
    <g id="ytick_5">
     <g id="line2d_10">
      <g>
       <use style="fill:#262626;stroke:#262626;stroke-width:0.8;" x="201.6" xlink:href="#m3a8a246414" y="35.341017"/>
      </g>
     </g>
     <g id="text_11">
      <text style="fill:#262626;font-family:DejaVu Sans;font-size:20px;font-style:normal;font-weight:normal;text-anchor:end;" transform="rotate(-0, 194.6, 42.939454)" x="194.6" y="42.939454">0.20</text>
     </g>
    </g>
    <g id="text_12">
     <text style="fill:#262626;font-family:DejaVu Sans;font-size:20px;font-style:normal;font-weight:normal;text-anchor:middle;" transform="rotate(-90, 141.909375, 126.72)" x="141.909375" y="126.72">mut freq</text>
    </g>
   </g>
   <g id="LineCollection_1">
    <path clip-path="url(#p402f0fcdbb)" d="M 209.011765 289 
L 209.011765 25.662774 
" style="fill:none;stroke:#4169e1;stroke-width:3;"/>
    <path clip-path="url(#p402f0fcdbb)" d="M 223.835294 221.762217 
L 223.835294 17.619478 
" style="fill:none;stroke:#4169e1;stroke-width:3;"/>
    <path clip-path="url(#p402f0fcdbb)" d="M 238.658824 221.762217 
L 238.658824 17.619478 
" style="fill:none;stroke:#4169e1;stroke-width:3;"/>
    <path clip-path="url(#p402f0fcdbb)" d="M 253.482353 230.382155 
L 253.482353 137.357978 
" style="fill:none;stroke:#4169e1;stroke-width:3;"/>
    <path clip-path="url(#p402f0fcdbb)" d="M 268.305882 200.033637 
L 268.305882 85.190358 
" style="fill:none;stroke:#4169e1;stroke-width:3;"/>
    <path clip-path="url(#p402f0fcdbb)" d="M 283.129412 167.085179 
L 283.129412 35.622677 
" style="fill:none;stroke:#4169e1;stroke-width:3;"/>
    <path clip-path="url(#p402f0fcdbb)" d="M 297.952941 271.640224 
L 297.952941 178.616047 
" style="fill:none;stroke:#4169e1;stroke-width:3;"/>
    <path clip-path="url(#p402f0fcdbb)" d="M 312.776471 271.640224 
L 312.776471 178.616047 
" style="fill:none;stroke:#4169e1;stroke-width:3;"/>
    <path clip-path="url(#p402f0fcdbb)" d="M 327.6 265.355418 
L 327.6 184.900853 
" style="fill:none;stroke:#4169e1;stroke-width:3;"/>
    <path clip-path="url(#p402f0fcdbb)" d="M 342.423529 230.209655 
L 342.423529 149.75509 
" style="fill:none;stroke:#4169e1;stroke-width:3;"/>
    <path clip-path="url(#p402f0fcdbb)" d="M 357.247059 176.950836 
L 357.247059 62.430859 
" style="fill:none;stroke:#4169e1;stroke-width:3;"/>
    <path clip-path="url(#p402f0fcdbb)" d="M 372.070588 204.670546 
L 372.070588 105.002674 
" style="fill:none;stroke:#4169e1;stroke-width:3;"/>
    <path clip-path="url(#p402f0fcdbb)" d="M 386.894118 265.355418 
L 386.894118 184.900853 
" style="fill:none;stroke:#4169e1;stroke-width:3;"/>
    <path clip-path="url(#p402f0fcdbb)" d="M 401.717647 204.670546 
L 401.717647 105.002674 
" style="fill:none;stroke:#4169e1;stroke-width:3;"/>
    <path clip-path="url(#p402f0fcdbb)" d="M 416.541176 204.670546 
L 416.541176 105.002674 
" style="fill:none;stroke:#4169e1;stroke-width:3;"/>
    <path clip-path="url(#p402f0fcdbb)" d="M 431.364706 230.209655 
L 431.364706 149.75509 
" style="fill:none;stroke:#4169e1;stroke-width:3;"/>
    <path clip-path="url(#p402f0fcdbb)" d="M 446.188235 230.209655 
L 446.188235 149.75509 
" style="fill:none;stroke:#4169e1;stroke-width:3;"/>
    <path clip-path="url(#p402f0fcdbb)" d="M 461.011765 265.355418 
L 461.011765 184.900853 
" style="fill:none;stroke:#4169e1;stroke-width:3;"/>
    <path clip-path="url(#p402f0fcdbb)" d="M 475.835294 265.355418 
L 475.835294 184.900853 
" style="fill:none;stroke:#4169e1;stroke-width:3;"/>
    <path clip-path="url(#p402f0fcdbb)" d="M 490.658824 265.355418 
L 490.658824 184.900853 
" style="fill:none;stroke:#4169e1;stroke-width:3;"/>
    <path clip-path="url(#p402f0fcdbb)" d="M 505.482353 204.670546 
L 505.482353 105.002674 
" style="fill:none;stroke:#4169e1;stroke-width:3;"/>
    <path clip-path="url(#p402f0fcdbb)" d="M 520.305882 230.209655 
L 520.305882 149.75509 
" style="fill:none;stroke:#4169e1;stroke-width:3;"/>
    <path clip-path="url(#p402f0fcdbb)" d="M 535.129412 176.950836 
L 535.129412 62.430859 
" style="fill:none;stroke:#4169e1;stroke-width:3;"/>
    <path clip-path="url(#p402f0fcdbb)" d="M 549.952941 147.809823 
L 549.952941 21.280347 
" style="fill:none;stroke:#4169e1;stroke-width:3;"/>
    <path clip-path="url(#p402f0fcdbb)" d="M 564.776471 265.355418 
L 564.776471 184.900853 
" style="fill:none;stroke:#4169e1;stroke-width:3;"/>
    <path clip-path="url(#p402f0fcdbb)" d="M 579.6 265.355418 
L 579.6 184.900853 
" style="fill:none;stroke:#4169e1;stroke-width:3;"/>
    <path clip-path="url(#p402f0fcdbb)" d="M 594.423529 204.670546 
L 594.423529 105.002674 
" style="fill:none;stroke:#4169e1;stroke-width:3;"/>
    <path clip-path="url(#p402f0fcdbb)" d="M 609.247059 230.209655 
L 609.247059 149.75509 
" style="fill:none;stroke:#4169e1;stroke-width:3;"/>
    <path clip-path="url(#p402f0fcdbb)" d="M 624.070588 230.209655 
L 624.070588 149.75509 
" style="fill:none;stroke:#4169e1;stroke-width:3;"/>
    <path clip-path="url(#p402f0fcdbb)" d="M 638.894118 230.209655 
L 638.894118 149.75509 
" style="fill:none;stroke:#4169e1;stroke-width:3;"/>
    <path clip-path="url(#p402f0fcdbb)" d="M 653.717647 204.670546 
L 653.717647 105.002674 
" style="fill:none;stroke:#4169e1;stroke-width:3;"/>
    <path clip-path="url(#p402f0fcdbb)" d="M 668.541176 204.670546 
L 668.541176 105.002674 
" style="fill:none;stroke:#4169e1;stroke-width:3;"/>
    <path clip-path="url(#p402f0fcdbb)" d="M 683.364706 265.355418 
L 683.364706 184.900853 
" style="fill:none;stroke:#4169e1;stroke-width:3;"/>
    <path clip-path="url(#p402f0fcdbb)" d="M 698.188235 265.355418 
L 698.188235 184.900853 
" style="fill:none;stroke:#4169e1;stroke-width:3;"/>
    <path clip-path="url(#p402f0fcdbb)" d="M 713.011765 204.670546 
L 713.011765 105.002674 
" style="fill:none;stroke:#4169e1;stroke-width:3;"/>
    <path clip-path="url(#p402f0fcdbb)" d="M 727.835294 230.209655 
L 727.835294 149.75509 
" style="fill:none;stroke:#4169e1;stroke-width:3;"/>
    <path clip-path="url(#p402f0fcdbb)" d="M 742.658824 204.670546 
L 742.658824 105.002674 
" style="fill:none;stroke:#4169e1;stroke-width:3;"/>
    <path clip-path="url(#p402f0fcdbb)" d="M 757.482353 265.355418 
L 757.482353 184.900853 
" style="fill:none;stroke:#4169e1;stroke-width:3;"/>
    <path clip-path="url(#p402f0fcdbb)" d="M 772.305882 265.355418 
L 772.305882 184.900853 
" style="fill:none;stroke:#4169e1;stroke-width:3;"/>
    <path clip-path="url(#p402f0fcdbb)" d="M 787.129412 176.950836 
L 787.129412 62.430859 
" style="fill:none;stroke:#4169e1;stroke-width:3;"/>
    <path clip-path="url(#p402f0fcdbb)" d="M 801.952941 117.620227 
L 801.952941 -1 
" style="fill:none;stroke:#4169e1;stroke-width:3;"/>
    <path clip-path="url(#p402f0fcdbb)" d="M 816.776471 265.355418 
L 816.776471 184.900853 
" style="fill:none;stroke:#4169e1;stroke-width:3;"/>
    <path clip-path="url(#p402f0fcdbb)" d="M 831.6 265.355418 
L 831.6 184.900853 
" style="fill:none;stroke:#4169e1;stroke-width:3;"/>
    <path clip-path="url(#p402f0fcdbb)" d="M 846.423529 230.209655 
L 846.423529 149.75509 
" style="fill:none;stroke:#4169e1;stroke-width:3;"/>
    <path clip-path="url(#p402f0fcdbb)" d="M 861.247059 230.209655 
L 861.247059 149.75509 
" style="fill:none;stroke:#4169e1;stroke-width:3;"/>
    <path clip-path="url(#p402f0fcdbb)" d="M 876.070588 204.670546 
L 876.070588 105.002674 
" style="fill:none;stroke:#4169e1;stroke-width:3;"/>
    <path clip-path="url(#p402f0fcdbb)" d="M 890.894118 230.209655 
L 890.894118 149.75509 
" style="fill:none;stroke:#4169e1;stroke-width:3;"/>
    <path clip-path="url(#p402f0fcdbb)" d="M 905.717647 230.209655 
L 905.717647 149.75509 
" style="fill:none;stroke:#4169e1;stroke-width:3;"/>
    <path clip-path="url(#p402f0fcdbb)" d="M 920.541176 265.355418 
L 920.541176 184.900853 
" style="fill:none;stroke:#4169e1;stroke-width:3;"/>
    <path clip-path="url(#p402f0fcdbb)" d="M 935.364706 265.355418 
L 935.364706 184.900853 
" style="fill:none;stroke:#4169e1;stroke-width:3;"/>
    <path clip-path="url(#p402f0fcdbb)" d="M 950.188235 230.209655 
L 950.188235 149.75509 
" style="fill:none;stroke:#4169e1;stroke-width:3;"/>
   </g>
   <g id="line2d_11">
    <path clip-path="url(#p402f0fcdbb)" d="M 461.011765 242.701017 
L 461.011765 137.263729 
" style="fill:none;stroke:#000000;stroke-dasharray:11.1,4.8;stroke-dashoffset:0;stroke-width:3;"/>
   </g>
   <g id="line2d_12">
    <path clip-path="url(#p402f0fcdbb)" d="M 209.011765 225.128136 
L 223.835294 119.690847 
L 238.658824 119.690847 
L 253.482353 183.870066 
L 268.305882 142.611997 
L 283.129412 101.353928 
L 297.952941 225.128136 
L 312.776471 225.128136 
L 327.6 225.128136 
L 342.423529 189.982373 
L 357.247059 119.690847 
L 372.070588 154.83661 
L 386.894118 225.128136 
L 401.717647 154.83661 
L 416.541176 154.83661 
L 431.364706 189.982373 
L 446.188235 189.982373 
L 461.011765 225.128136 
L 475.835294 225.128136 
L 490.658824 225.128136 
L 505.482353 154.83661 
L 520.305882 189.982373 
L 535.129412 119.690847 
L 549.952941 84.545085 
L 564.776471 225.128136 
L 579.6 225.128136 
L 594.423529 154.83661 
L 609.247059 189.982373 
L 624.070588 189.982373 
L 638.894118 189.982373 
L 653.717647 154.83661 
L 668.541176 154.83661 
L 683.364706 225.128136 
L 698.188235 225.128136 
L 713.011765 154.83661 
L 727.835294 189.982373 
L 742.658824 154.83661 
L 757.482353 225.128136 
L 772.305882 225.128136 
L 787.129412 119.690847 
L 801.952941 49.399322 
L 816.776471 225.128136 
L 831.6 225.128136 
L 846.423529 189.982373 
L 861.247059 189.982373 
L 876.070588 154.83661 
L 890.894118 189.982373 
L 905.717647 189.982373 
L 920.541176 225.128136 
L 935.364706 225.128136 
L 950.188235 189.982373 
" style="fill:none;stroke:#4169e1;stroke-linecap:round;stroke-width:3;"/>
    <defs>
     <path d="M 0 3.25 
C 0.86191 3.25 1.688635 2.907559 2.298097 2.298097 
C 2.907559 1.688635 3.25 0.86191 3.25 0 
C 3.25 -0.86191 2.907559 -1.688635 2.298097 -2.298097 
C 1.688635 -2.907559 0.86191 -3.25 0 -3.25 
C -0.86191 -3.25 -1.688635 -2.907559 -2.298097 -2.298097 
C -2.907559 -1.688635 -3.25 -0.86191 -3.25 0 
C -3.25 0.86191 -2.907559 1.688635 -2.298097 2.298097 
C -1.688635 2.907559 -0.86191 3.25 0 3.25 
z
" id="mea6e7c5d81" style="stroke:#4169e1;"/>
    </defs>
    <g clip-path="url(#p402f0fcdbb)">
     <use style="fill:#4169e1;stroke:#4169e1;" x="209.011765" xlink:href="#mea6e7c5d81" y="225.128136"/>
     <use style="fill:#4169e1;stroke:#4169e1;" x="223.835294" xlink:href="#mea6e7c5d81" y="119.690847"/>
     <use style="fill:#4169e1;stroke:#4169e1;" x="238.658824" xlink:href="#mea6e7c5d81" y="119.690847"/>
     <use style="fill:#4169e1;stroke:#4169e1;" x="253.482353" xlink:href="#mea6e7c5d81" y="183.870066"/>
     <use style="fill:#4169e1;stroke:#4169e1;" x="268.305882" xlink:href="#mea6e7c5d81" y="142.611997"/>
     <use style="fill:#4169e1;stroke:#4169e1;" x="283.129412" xlink:href="#mea6e7c5d81" y="101.353928"/>
     <use style="fill:#4169e1;stroke:#4169e1;" x="297.952941" xlink:href="#mea6e7c5d81" y="225.128136"/>
     <use style="fill:#4169e1;stroke:#4169e1;" x="312.776471" xlink:href="#mea6e7c5d81" y="225.128136"/>
     <use style="fill:#4169e1;stroke:#4169e1;" x="327.6" xlink:href="#mea6e7c5d81" y="225.128136"/>
     <use style="fill:#4169e1;stroke:#4169e1;" x="342.423529" xlink:href="#mea6e7c5d81" y="189.982373"/>
     <use style="fill:#4169e1;stroke:#4169e1;" x="357.247059" xlink:href="#mea6e7c5d81" y="119.690847"/>
     <use style="fill:#4169e1;stroke:#4169e1;" x="372.070588" xlink:href="#mea6e7c5d81" y="154.83661"/>
     <use style="fill:#4169e1;stroke:#4169e1;" x="386.894118" xlink:href="#mea6e7c5d81" y="225.128136"/>
     <use style="fill:#4169e1;stroke:#4169e1;" x="401.717647" xlink:href="#mea6e7c5d81" y="154.83661"/>
     <use style="fill:#4169e1;stroke:#4169e1;" x="416.541176" xlink:href="#mea6e7c5d81" y="154.83661"/>
     <use style="fill:#4169e1;stroke:#4169e1;" x="431.364706" xlink:href="#mea6e7c5d81" y="189.982373"/>
     <use style="fill:#4169e1;stroke:#4169e1;" x="446.188235" xlink:href="#mea6e7c5d81" y="189.982373"/>
     <use style="fill:#4169e1;stroke:#4169e1;" x="461.011765" xlink:href="#mea6e7c5d81" y="225.128136"/>
     <use style="fill:#4169e1;stroke:#4169e1;" x="475.835294" xlink:href="#mea6e7c5d81" y="225.128136"/>
     <use style="fill:#4169e1;stroke:#4169e1;" x="490.658824" xlink:href="#mea6e7c5d81" y="225.128136"/>
     <use style="fill:#4169e1;stroke:#4169e1;" x="505.482353" xlink:href="#mea6e7c5d81" y="154.83661"/>
     <use style="fill:#4169e1;stroke:#4169e1;" x="520.305882" xlink:href="#mea6e7c5d81" y="189.982373"/>
     <use style="fill:#4169e1;stroke:#4169e1;" x="535.129412" xlink:href="#mea6e7c5d81" y="119.690847"/>
     <use style="fill:#4169e1;stroke:#4169e1;" x="549.952941" xlink:href="#mea6e7c5d81" y="84.545085"/>
     <use style="fill:#4169e1;stroke:#4169e1;" x="564.776471" xlink:href="#mea6e7c5d81" y="225.128136"/>
     <use style="fill:#4169e1;stroke:#4169e1;" x="579.6" xlink:href="#mea6e7c5d81" y="225.128136"/>
     <use style="fill:#4169e1;stroke:#4169e1;" x="594.423529" xlink:href="#mea6e7c5d81" y="154.83661"/>
     <use style="fill:#4169e1;stroke:#4169e1;" x="609.247059" xlink:href="#mea6e7c5d81" y="189.982373"/>
     <use style="fill:#4169e1;stroke:#4169e1;" x="624.070588" xlink:href="#mea6e7c5d81" y="189.982373"/>
     <use style="fill:#4169e1;stroke:#4169e1;" x="638.894118" xlink:href="#mea6e7c5d81" y="189.982373"/>
     <use style="fill:#4169e1;stroke:#4169e1;" x="653.717647" xlink:href="#mea6e7c5d81" y="154.83661"/>
     <use style="fill:#4169e1;stroke:#4169e1;" x="668.541176" xlink:href="#mea6e7c5d81" y="154.83661"/>
     <use style="fill:#4169e1;stroke:#4169e1;" x="683.364706" xlink:href="#mea6e7c5d81" y="225.128136"/>
     <use style="fill:#4169e1;stroke:#4169e1;" x="698.188235" xlink:href="#mea6e7c5d81" y="225.128136"/>
     <use style="fill:#4169e1;stroke:#4169e1;" x="713.011765" xlink:href="#mea6e7c5d81" y="154.83661"/>
     <use style="fill:#4169e1;stroke:#4169e1;" x="727.835294" xlink:href="#mea6e7c5d81" y="189.982373"/>
     <use style="fill:#4169e1;stroke:#4169e1;" x="742.658824" xlink:href="#mea6e7c5d81" y="154.83661"/>
     <use style="fill:#4169e1;stroke:#4169e1;" x="757.482353" xlink:href="#mea6e7c5d81" y="225.128136"/>
     <use style="fill:#4169e1;stroke:#4169e1;" x="772.305882" xlink:href="#mea6e7c5d81" y="225.128136"/>
     <use style="fill:#4169e1;stroke:#4169e1;" x="787.129412" xlink:href="#mea6e7c5d81" y="119.690847"/>
     <use style="fill:#4169e1;stroke:#4169e1;" x="801.952941" xlink:href="#mea6e7c5d81" y="49.399322"/>
     <use style="fill:#4169e1;stroke:#4169e1;" x="816.776471" xlink:href="#mea6e7c5d81" y="225.128136"/>
     <use style="fill:#4169e1;stroke:#4169e1;" x="831.6" xlink:href="#mea6e7c5d81" y="225.128136"/>
     <use style="fill:#4169e1;stroke:#4169e1;" x="846.423529" xlink:href="#mea6e7c5d81" y="189.982373"/>
     <use style="fill:#4169e1;stroke:#4169e1;" x="861.247059" xlink:href="#mea6e7c5d81" y="189.982373"/>
     <use style="fill:#4169e1;stroke:#4169e1;" x="876.070588" xlink:href="#mea6e7c5d81" y="154.83661"/>
     <use style="fill:#4169e1;stroke:#4169e1;" x="890.894118" xlink:href="#mea6e7c5d81" y="189.982373"/>
     <use style="fill:#4169e1;stroke:#4169e1;" x="905.717647" xlink:href="#mea6e7c5d81" y="189.982373"/>
     <use style="fill:#4169e1;stroke:#4169e1;" x="920.541176" xlink:href="#mea6e7c5d81" y="225.128136"/>
     <use style="fill:#4169e1;stroke:#4169e1;" x="935.364706" xlink:href="#mea6e7c5d81" y="225.128136"/>
     <use style="fill:#4169e1;stroke:#4169e1;" x="950.188235" xlink:href="#mea6e7c5d81" y="189.982373"/>
    </g>
   </g>
   <g id="patch_3">
    <path d="M 201.6 230.4 
L 201.6 23.04 
" style="fill:none;stroke:#262626;stroke-linecap:square;stroke-linejoin:miter;stroke-width:0.8;"/>
   </g>
   <g id="patch_4">
    <path d="M 201.6 230.4 
L 957.6 230.4 
" style="fill:none;stroke:#262626;stroke-linecap:square;stroke-linejoin:miter;stroke-width:0.8;"/>
   </g>
   <g id="text_13">
    <text style="fill:#262626;font-family:DejaVu Sans;font-size:20px;font-style:normal;font-weight:bold;text-anchor:middle;" transform="rotate(-0, 579.6, 17.04)" x="579.6" y="17.04">IGHJ1*01</text>
   </g>
  </g>
 </g>
 <defs>
  <clipPath id="p402f0fcdbb">
   <rect height="207.36" width="756" x="201.6" y="23.04"/>
  </clipPath>
 </defs>
</svg>
