<?xml version="1.0" encoding="utf-8" standalone="no"?>
<!DOCTYPE svg PUBLIC "-//W3C//DTD SVG 1.1//EN"
  "http://www.w3.org/Graphics/SVG/1.1/DTD/svg11.dtd">
<!-- Created with matplotlib (http://matplotlib.org/) -->
<svg height="288pt" version="1.1" viewBox="0 0 1008 288" width="1008pt" xmlns="http://www.w3.org/2000/svg" xmlns:xlink="http://www.w3.org/1999/xlink">
 <defs>
  <style type="text/css">
*{stroke-linecap:butt;stroke-linejoin:round;}
  </style>
 </defs>
 <g id="figure_1">
  <g id="patch_1">
   <path d="M 0 288 
L 1008 288 
L 1008 0 
L 0 0 
z
" style="fill:#ffffff;"/>
  </g>
  <g id="axes_1">
   <g id="patch_2">
    <path d="M 201.6 230.4 
L 957.6 230.4 
L 957.6 23.04 
L 201.6 23.04 
z
" style="fill:#ffffff;"/>
   </g>
   <g id="matplotlib.axis_1">
    <g id="xtick_1">
     <g id="line2d_1">
      <defs>
       <path d="M 0 0 
L 0 3.5 
" id="mebfb7506ab" style="stroke:#262626;stroke-width:0.8;"/>
      </defs>
      <g>
       <use style="fill:#262626;stroke:#262626;stroke-width:0.8;" x="339.715385" xlink:href="#mebfb7506ab" y="230.4"/>
      </g>
     </g>
     <g id="text_1">
      <text style="fill:#262626;font-family:DejaVu Sans;font-size:20px;font-style:normal;font-weight:normal;text-anchor:middle;" transform="rotate(-0, 339.715385, 252.596875)" x="339.715385" y="252.596875">10</text>
     </g>
    </g>
    <g id="xtick_2">
     <g id="line2d_2">
      <g>
       <use style="fill:#262626;stroke:#262626;stroke-width:0.8;" x="485.1" xlink:href="#mebfb7506ab" y="230.4"/>
      </g>
     </g>
     <g id="text_2">
      <text style="fill:#262626;font-family:DejaVu Sans;font-size:20px;font-style:normal;font-weight:normal;text-anchor:middle;" transform="rotate(-0, 485.1, 252.596875)" x="485.1" y="252.596875">20</text>
     </g>
    </g>
    <g id="xtick_3">
     <g id="line2d_3">
      <g>
       <use style="fill:#262626;stroke:#262626;stroke-width:0.8;" x="630.484615" xlink:href="#mebfb7506ab" y="230.4"/>
      </g>
     </g>
     <g id="text_3">
      <text style="fill:#262626;font-family:DejaVu Sans;font-size:20px;font-style:normal;font-weight:normal;text-anchor:middle;" transform="rotate(-0, 630.484615, 252.596875)" x="630.484615" y="252.596875">30</text>
     </g>
    </g>
    <g id="xtick_4">
     <g id="line2d_4">
      <g>
       <use style="fill:#262626;stroke:#262626;stroke-width:0.8;" x="775.869231" xlink:href="#mebfb7506ab" y="230.4"/>
      </g>
     </g>
     <g id="text_4">
      <text style="fill:#262626;font-family:DejaVu Sans;font-size:20px;font-style:normal;font-weight:normal;text-anchor:middle;" transform="rotate(-0, 775.869231, 252.596875)" x="775.869231" y="252.596875">40</text>
     </g>
    </g>
    <g id="xtick_5">
     <g id="line2d_5">
      <g>
       <use style="fill:#262626;stroke:#262626;stroke-width:0.8;" x="921.253846" xlink:href="#mebfb7506ab" y="230.4"/>
      </g>
     </g>
     <g id="text_5">
      <text style="fill:#262626;font-family:DejaVu Sans;font-size:20px;font-style:normal;font-weight:normal;text-anchor:middle;" transform="rotate(-0, 921.253846, 252.596875)" x="921.253846" y="252.596875">50</text>
     </g>
    </g>
    <g id="text_6">
     <text style="fill:#262626;font-family:DejaVu Sans;font-size:20px;font-style:normal;font-weight:normal;text-anchor:middle;" transform="rotate(-0, 579.6, 275.953125)" x="579.6" y="275.953125">position</text>
    </g>
   </g>
   <g id="matplotlib.axis_2">
    <g id="ytick_1">
     <g id="line2d_6">
      <defs>
       <path d="M 0 0 
L -3.5 0 
" id="mdfd9ac63dc" style="stroke:#262626;stroke-width:0.8;"/>
      </defs>
      <g>
       <use style="fill:#262626;stroke:#262626;stroke-width:0.8;" x="201.6" xlink:href="#mdfd9ac63dc" y="225.128136"/>
      </g>
     </g>
     <g id="text_7">
      <text style="fill:#262626;font-family:DejaVu Sans;font-size:20px;font-style:normal;font-weight:normal;text-anchor:end;" transform="rotate(-0, 194.6, 232.726573)" x="194.6" y="232.726573">0.00</text>
     </g>
    </g>
    <g id="ytick_2">
     <g id="line2d_7">
      <g>
       <use style="fill:#262626;stroke:#262626;stroke-width:0.8;" x="201.6" xlink:href="#mdfd9ac63dc" y="175.393566"/>
      </g>
     </g>
     <g id="text_8">
      <text style="fill:#262626;font-family:DejaVu Sans;font-size:20px;font-style:normal;font-weight:normal;text-anchor:end;" transform="rotate(-0, 194.6, 182.992003)" x="194.6" y="182.992003">0.02</text>
     </g>
    </g>
    <g id="ytick_3">
     <g id="line2d_8">
      <g>
       <use style="fill:#262626;stroke:#262626;stroke-width:0.8;" x="201.6" xlink:href="#mdfd9ac63dc" y="125.658996"/>
      </g>
     </g>
     <g id="text_9">
      <text style="fill:#262626;font-family:DejaVu Sans;font-size:20px;font-style:normal;font-weight:normal;text-anchor:end;" transform="rotate(-0, 194.6, 133.257433)" x="194.6" y="133.257433">0.04</text>
     </g>
    </g>
    <g id="ytick_4">
     <g id="line2d_9">
      <g>
       <use style="fill:#262626;stroke:#262626;stroke-width:0.8;" x="201.6" xlink:href="#mdfd9ac63dc" y="75.924426"/>
      </g>
     </g>
     <g id="text_10">
      <text style="fill:#262626;font-family:DejaVu Sans;font-size:20px;font-style:normal;font-weight:normal;text-anchor:end;" transform="rotate(-0, 194.6, 83.522863)" x="194.6" y="83.522863">0.06</text>
     </g>
    </g>
    <g id="ytick_5">
     <g id="line2d_10">
      <g>
       <use style="fill:#262626;stroke:#262626;stroke-width:0.8;" x="201.6" xlink:href="#mdfd9ac63dc" y="26.189856"/>
      </g>
     </g>
     <g id="text_11">
      <text style="fill:#262626;font-family:DejaVu Sans;font-size:20px;font-style:normal;font-weight:normal;text-anchor:end;" transform="rotate(-0, 194.6, 33.788294)" x="194.6" y="33.788294">0.08</text>
     </g>
    </g>
    <g id="text_12">
     <text style="fill:#262626;font-family:DejaVu Sans;font-size:20px;font-style:normal;font-weight:normal;text-anchor:middle;" transform="rotate(-90, 141.909375, 126.72)" x="141.909375" y="126.72">mut freq</text>
    </g>
   </g>
   <g id="LineCollection_1">
    <path clip-path="url(#p1a8fce2129)" d="M 208.869231 223.385408 
L 208.869231 210.537671 
" style="fill:none;stroke:#4169e1;stroke-width:3;"/>
    <path clip-path="url(#p1a8fce2129)" d="M 223.407692 204.011002 
L 223.407692 181.019604 
" style="fill:none;stroke:#4169e1;stroke-width:3;"/>
    <path clip-path="url(#p1a8fce2129)" d="M 237.946154 220.42451 
L 237.946154 205.45207 
" style="fill:none;stroke:#4169e1;stroke-width:3;"/>
    <path clip-path="url(#p1a8fce2129)" d="M 252.484615 165.127896 
L 252.484615 130.975548 
" style="fill:none;stroke:#4169e1;stroke-width:3;"/>
    <path clip-path="url(#p1a8fce2129)" d="M 267.023077 220.447661 
L 267.023077 205.547844 
" style="fill:none;stroke:#4169e1;stroke-width:3;"/>
    <path clip-path="url(#p1a8fce2129)" d="M 281.561538 207.615209 
L 281.561538 186.216105 
" style="fill:none;stroke:#4169e1;stroke-width:3;"/>
    <path clip-path="url(#p1a8fce2129)" d="M 296.1 200.849469 
L 296.1 176.860428 
" style="fill:none;stroke:#4169e1;stroke-width:3;"/>
    <path clip-path="url(#p1a8fce2129)" d="M 310.638462 220.462969 
L 310.638462 205.611178 
" style="fill:none;stroke:#4169e1;stroke-width:3;"/>
    <path clip-path="url(#p1a8fce2129)" d="M 325.176923 226.123816 
L 325.176923 216.071747 
" style="fill:none;stroke:#4169e1;stroke-width:3;"/>
    <path clip-path="url(#p1a8fce2129)" d="M 339.715385 216.054875 
L 339.715385 200.732641 
" style="fill:none;stroke:#4169e1;stroke-width:3;"/>
    <path clip-path="url(#p1a8fce2129)" d="M 354.253846 218.698222 
L 354.253846 204.783045 
" style="fill:none;stroke:#4169e1;stroke-width:3;"/>
    <path clip-path="url(#p1a8fce2129)" d="M 368.792308 210.598552 
L 368.792308 192.801462 
" style="fill:none;stroke:#4169e1;stroke-width:3;"/>
    <path clip-path="url(#p1a8fce2129)" d="M 383.330769 202.133996 
L 383.330769 181.184765 
" style="fill:none;stroke:#4169e1;stroke-width:3;"/>
    <path clip-path="url(#p1a8fce2129)" d="M 397.869231 207.807728 
L 397.869231 188.898535 
" style="fill:none;stroke:#4169e1;stroke-width:3;"/>
    <path clip-path="url(#p1a8fce2129)" d="M 412.407692 151.832443 
L 412.407692 118.660322 
" style="fill:none;stroke:#4169e1;stroke-width:3;"/>
    <path clip-path="url(#p1a8fce2129)" d="M 426.946154 93.782411 
L 426.946154 51.435165 
" style="fill:none;stroke:#4169e1;stroke-width:3;"/>
    <path clip-path="url(#p1a8fce2129)" d="M 441.484615 179.101016 
L 441.484615 151.792287 
" style="fill:none;stroke:#4169e1;stroke-width:3;"/>
    <path clip-path="url(#p1a8fce2129)" d="M 456.023077 216.139986 
L 456.023077 200.959905 
" style="fill:none;stroke:#4169e1;stroke-width:3;"/>
    <path clip-path="url(#p1a8fce2129)" d="M 470.561538 229.265833 
L 470.561538 220.990438 
" style="fill:none;stroke:#4169e1;stroke-width:3;"/>
    <path clip-path="url(#p1a8fce2129)" d="M 485.1 229.265833 
L 485.1 220.990438 
" style="fill:none;stroke:#4169e1;stroke-width:3;"/>
    <path clip-path="url(#p1a8fce2129)" d="M 499.638462 229.265833 
L 499.638462 220.990438 
" style="fill:none;stroke:#4169e1;stroke-width:3;"/>
    <path clip-path="url(#p1a8fce2129)" d="M 514.176923 225.950195 
L 514.176923 217.6748 
" style="fill:none;stroke:#4169e1;stroke-width:3;"/>
    <path clip-path="url(#p1a8fce2129)" d="M 528.715385 210.734771 
L 528.715385 193.102568 
" style="fill:none;stroke:#4169e1;stroke-width:3;"/>
    <path clip-path="url(#p1a8fce2129)" d="M 543.253846 103.080951 
L 543.253846 62.030453 
" style="fill:none;stroke:#4169e1;stroke-width:3;"/>
    <path clip-path="url(#p1a8fce2129)" d="M 557.792308 221.296372 
L 557.792308 209.066072 
" style="fill:none;stroke:#4169e1;stroke-width:3;"/>
    <path clip-path="url(#p1a8fce2129)" d="M 572.330769 225.950195 
L 572.330769 217.6748 
" style="fill:none;stroke:#4169e1;stroke-width:3;"/>
    <path clip-path="url(#p1a8fce2129)" d="M 586.869231 218.758579 
L 586.869231 204.972588 
" style="fill:none;stroke:#4169e1;stroke-width:3;"/>
    <path clip-path="url(#p1a8fce2129)" d="M 601.407692 216.139986 
L 601.407692 200.959905 
" style="fill:none;stroke:#4169e1;stroke-width:3;"/>
    <path clip-path="url(#p1a8fce2129)" d="M 615.946154 221.296372 
L 615.946154 209.066072 
" style="fill:none;stroke:#4169e1;stroke-width:3;"/>
    <path clip-path="url(#p1a8fce2129)" d="M 630.484615 205.173413 
L 630.484615 185.401375 
" style="fill:none;stroke:#4169e1;stroke-width:3;"/>
    <path clip-path="url(#p1a8fce2129)" d="M 645.023077 124.666135 
L 645.023077 86.8642 
" style="fill:none;stroke:#4169e1;stroke-width:3;"/>
    <path clip-path="url(#p1a8fce2129)" d="M 659.561538 213.461039 
L 659.561538 197.007576 
" style="fill:none;stroke:#4169e1;stroke-width:3;"/>
    <path clip-path="url(#p1a8fce2129)" d="M 674.1 207.970093 
L 674.1 189.235971 
" style="fill:none;stroke:#4169e1;stroke-width:3;"/>
    <path clip-path="url(#p1a8fce2129)" d="M 688.638462 202.349525 
L 688.638462 181.593986 
" style="fill:none;stroke:#4169e1;stroke-width:3;"/>
    <path clip-path="url(#p1a8fce2129)" d="M 703.176923 196.634135 
L 703.176923 174.046824 
" style="fill:none;stroke:#4169e1;stroke-width:3;"/>
    <path clip-path="url(#p1a8fce2129)" d="M 717.715385 71.992531 
L 717.715385 26.806113 
" style="fill:none;stroke:#4169e1;stroke-width:3;"/>
    <path clip-path="url(#p1a8fce2129)" d="M 732.253846 170.180409 
L 732.253846 140.819067 
" style="fill:none;stroke:#4169e1;stroke-width:3;"/>
    <path clip-path="url(#p1a8fce2129)" d="M 746.792308 112.35215 
L 746.792308 72.653081 
" style="fill:none;stroke:#4169e1;stroke-width:3;"/>
    <path clip-path="url(#p1a8fce2129)" d="M 761.330769 87.569415 
L 761.330769 44.385609 
" style="fill:none;stroke:#4169e1;stroke-width:3;"/>
    <path clip-path="url(#p1a8fce2129)" d="M 775.869231 155.152532 
L 775.869231 122.690564 
" style="fill:none;stroke:#4169e1;stroke-width:3;"/>
    <path clip-path="url(#p1a8fce2129)" d="M 790.407692 207.970093 
L 790.407692 189.235971 
" style="fill:none;stroke:#4169e1;stroke-width:3;"/>
    <path clip-path="url(#p1a8fce2129)" d="M 804.946154 229.265833 
L 804.946154 220.990438 
" style="fill:none;stroke:#4169e1;stroke-width:3;"/>
    <path clip-path="url(#p1a8fce2129)" d="M 819.484615 90.677255 
L 819.484615 47.909045 
" style="fill:none;stroke:#4169e1;stroke-width:3;"/>
    <path clip-path="url(#p1a8fce2129)" d="M 834.023077 90.677255 
L 834.023077 47.909045 
" style="fill:none;stroke:#4169e1;stroke-width:3;"/>
    <path clip-path="url(#p1a8fce2129)" d="M 848.561538 229.265833 
L 848.561538 220.990438 
" style="fill:none;stroke:#4169e1;stroke-width:3;"/>
    <path clip-path="url(#p1a8fce2129)" d="M 863.1 205.173413 
L 863.1 185.401375 
" style="fill:none;stroke:#4169e1;stroke-width:3;"/>
    <path clip-path="url(#p1a8fce2129)" d="M 877.638462 207.970093 
L 877.638462 189.235971 
" style="fill:none;stroke:#4169e1;stroke-width:3;"/>
    <path clip-path="url(#p1a8fce2129)" d="M 892.176923 136.917744 
L 892.176923 101.137696 
" style="fill:none;stroke:#4169e1;stroke-width:3;"/>
    <path clip-path="url(#p1a8fce2129)" d="M 906.715385 87.569415 
L 906.715385 44.385609 
" style="fill:none;stroke:#4169e1;stroke-width:3;"/>
    <path clip-path="url(#p1a8fce2129)" d="M 921.253846 225.950195 
L 921.253846 217.6748 
" style="fill:none;stroke:#4169e1;stroke-width:3;"/>
    <path clip-path="url(#p1a8fce2129)" d="M 935.792308 199.502125 
L 935.792308 177.81011 
" style="fill:none;stroke:#4169e1;stroke-width:3;"/>
    <path clip-path="url(#p1a8fce2129)" d="M 950.330769 182.054911 
L 950.330769 155.469669 
" style="fill:none;stroke:#4169e1;stroke-width:3;"/>
   </g>
   <g id="line2d_11">
    <path clip-path="url(#p1a8fce2129)" d="M 470.561538 242.701017 
L 470.561538 137.263729 
" style="fill:none;stroke:#000000;stroke-dasharray:11.1,4.8;stroke-dashoffset:0;stroke-width:3;"/>
   </g>
   <g id="line2d_12">
    <path clip-path="url(#p1a8fce2129)" d="M 208.869231 216.96154 
L 223.407692 192.515303 
L 237.946154 212.93829 
L 252.484615 148.051722 
L 267.023077 212.997753 
L 281.561538 196.915657 
L 296.1 188.854948 
L 310.638462 213.037073 
L 325.176923 221.097781 
L 339.715385 208.393758 
L 354.253846 211.740634 
L 368.792308 201.700007 
L 383.330769 191.659381 
L 397.869231 198.353132 
L 412.407692 135.246383 
L 426.946154 72.608788 
L 441.484615 165.446652 
L 456.023077 208.549946 
L 470.561538 225.128136 
L 485.1 225.128136 
L 499.638462 225.128136 
L 514.176923 221.812498 
L 528.715385 201.91867 
L 543.253846 82.555702 
L 557.792308 215.181222 
L 572.330769 221.812498 
L 586.869231 211.865584 
L 601.407692 208.549946 
L 615.946154 215.181222 
L 630.484615 195.287394 
L 645.023077 105.765168 
L 659.561538 205.234308 
L 674.1 198.603032 
L 688.638462 191.971756 
L 703.176923 185.34048 
L 717.715385 49.399322 
L 732.253846 155.499738 
L 746.792308 92.502616 
L 761.330769 65.977512 
L 775.869231 138.921548 
L 790.407692 198.603032 
L 804.946154 225.128136 
L 819.484615 69.29315 
L 834.023077 69.29315 
L 848.561538 225.128136 
L 863.1 195.287394 
L 877.638462 198.603032 
L 892.176923 119.02772 
L 906.715385 65.977512 
L 921.253846 221.812498 
L 935.792308 188.656118 
L 950.330769 168.76229 
" style="fill:none;stroke:#4169e1;stroke-linecap:round;stroke-width:3;"/>
    <defs>
     <path d="M 0 3.25 
C 0.86191 3.25 1.688635 2.907559 2.298097 2.298097 
C 2.907559 1.688635 3.25 0.86191 3.25 0 
C 3.25 -0.86191 2.907559 -1.688635 2.298097 -2.298097 
C 1.688635 -2.907559 0.86191 -3.25 0 -3.25 
C -0.86191 -3.25 -1.688635 -2.907559 -2.298097 -2.298097 
C -2.907559 -1.688635 -3.25 -0.86191 -3.25 0 
C -3.25 0.86191 -2.907559 1.688635 -2.298097 2.298097 
C -1.688635 2.907559 -0.86191 3.25 0 3.25 
z
" id="m3794d9143b" style="stroke:#4169e1;"/>
    </defs>
    <g clip-path="url(#p1a8fce2129)">
     <use style="fill:#4169e1;stroke:#4169e1;" x="208.869231" xlink:href="#m3794d9143b" y="216.96154"/>
     <use style="fill:#4169e1;stroke:#4169e1;" x="223.407692" xlink:href="#m3794d9143b" y="192.515303"/>
     <use style="fill:#4169e1;stroke:#4169e1;" x="237.946154" xlink:href="#m3794d9143b" y="212.93829"/>
     <use style="fill:#4169e1;stroke:#4169e1;" x="252.484615" xlink:href="#m3794d9143b" y="148.051722"/>
     <use style="fill:#4169e1;stroke:#4169e1;" x="267.023077" xlink:href="#m3794d9143b" y="212.997753"/>
     <use style="fill:#4169e1;stroke:#4169e1;" x="281.561538" xlink:href="#m3794d9143b" y="196.915657"/>
     <use style="fill:#4169e1;stroke:#4169e1;" x="296.1" xlink:href="#m3794d9143b" y="188.854948"/>
     <use style="fill:#4169e1;stroke:#4169e1;" x="310.638462" xlink:href="#m3794d9143b" y="213.037073"/>
     <use style="fill:#4169e1;stroke:#4169e1;" x="325.176923" xlink:href="#m3794d9143b" y="221.097781"/>
     <use style="fill:#4169e1;stroke:#4169e1;" x="339.715385" xlink:href="#m3794d9143b" y="208.393758"/>
     <use style="fill:#4169e1;stroke:#4169e1;" x="354.253846" xlink:href="#m3794d9143b" y="211.740634"/>
     <use style="fill:#4169e1;stroke:#4169e1;" x="368.792308" xlink:href="#m3794d9143b" y="201.700007"/>
     <use style="fill:#4169e1;stroke:#4169e1;" x="383.330769" xlink:href="#m3794d9143b" y="191.659381"/>
     <use style="fill:#4169e1;stroke:#4169e1;" x="397.869231" xlink:href="#m3794d9143b" y="198.353132"/>
     <use style="fill:#4169e1;stroke:#4169e1;" x="412.407692" xlink:href="#m3794d9143b" y="135.246383"/>
     <use style="fill:#4169e1;stroke:#4169e1;" x="426.946154" xlink:href="#m3794d9143b" y="72.608788"/>
     <use style="fill:#4169e1;stroke:#4169e1;" x="441.484615" xlink:href="#m3794d9143b" y="165.446652"/>
     <use style="fill:#4169e1;stroke:#4169e1;" x="456.023077" xlink:href="#m3794d9143b" y="208.549946"/>
     <use style="fill:#4169e1;stroke:#4169e1;" x="470.561538" xlink:href="#m3794d9143b" y="225.128136"/>
     <use style="fill:#4169e1;stroke:#4169e1;" x="485.1" xlink:href="#m3794d9143b" y="225.128136"/>
     <use style="fill:#4169e1;stroke:#4169e1;" x="499.638462" xlink:href="#m3794d9143b" y="225.128136"/>
     <use style="fill:#4169e1;stroke:#4169e1;" x="514.176923" xlink:href="#m3794d9143b" y="221.812498"/>
     <use style="fill:#4169e1;stroke:#4169e1;" x="528.715385" xlink:href="#m3794d9143b" y="201.91867"/>
     <use style="fill:#4169e1;stroke:#4169e1;" x="543.253846" xlink:href="#m3794d9143b" y="82.555702"/>
     <use style="fill:#4169e1;stroke:#4169e1;" x="557.792308" xlink:href="#m3794d9143b" y="215.181222"/>
     <use style="fill:#4169e1;stroke:#4169e1;" x="572.330769" xlink:href="#m3794d9143b" y="221.812498"/>
     <use style="fill:#4169e1;stroke:#4169e1;" x="586.869231" xlink:href="#m3794d9143b" y="211.865584"/>
     <use style="fill:#4169e1;stroke:#4169e1;" x="601.407692" xlink:href="#m3794d9143b" y="208.549946"/>
     <use style="fill:#4169e1;stroke:#4169e1;" x="615.946154" xlink:href="#m3794d9143b" y="215.181222"/>
     <use style="fill:#4169e1;stroke:#4169e1;" x="630.484615" xlink:href="#m3794d9143b" y="195.287394"/>
     <use style="fill:#4169e1;stroke:#4169e1;" x="645.023077" xlink:href="#m3794d9143b" y="105.765168"/>
     <use style="fill:#4169e1;stroke:#4169e1;" x="659.561538" xlink:href="#m3794d9143b" y="205.234308"/>
     <use style="fill:#4169e1;stroke:#4169e1;" x="674.1" xlink:href="#m3794d9143b" y="198.603032"/>
     <use style="fill:#4169e1;stroke:#4169e1;" x="688.638462" xlink:href="#m3794d9143b" y="191.971756"/>
     <use style="fill:#4169e1;stroke:#4169e1;" x="703.176923" xlink:href="#m3794d9143b" y="185.34048"/>
     <use style="fill:#4169e1;stroke:#4169e1;" x="717.715385" xlink:href="#m3794d9143b" y="49.399322"/>
     <use style="fill:#4169e1;stroke:#4169e1;" x="732.253846" xlink:href="#m3794d9143b" y="155.499738"/>
     <use style="fill:#4169e1;stroke:#4169e1;" x="746.792308" xlink:href="#m3794d9143b" y="92.502616"/>
     <use style="fill:#4169e1;stroke:#4169e1;" x="761.330769" xlink:href="#m3794d9143b" y="65.977512"/>
     <use style="fill:#4169e1;stroke:#4169e1;" x="775.869231" xlink:href="#m3794d9143b" y="138.921548"/>
     <use style="fill:#4169e1;stroke:#4169e1;" x="790.407692" xlink:href="#m3794d9143b" y="198.603032"/>
     <use style="fill:#4169e1;stroke:#4169e1;" x="804.946154" xlink:href="#m3794d9143b" y="225.128136"/>
     <use style="fill:#4169e1;stroke:#4169e1;" x="819.484615" xlink:href="#m3794d9143b" y="69.29315"/>
     <use style="fill:#4169e1;stroke:#4169e1;" x="834.023077" xlink:href="#m3794d9143b" y="69.29315"/>
     <use style="fill:#4169e1;stroke:#4169e1;" x="848.561538" xlink:href="#m3794d9143b" y="225.128136"/>
     <use style="fill:#4169e1;stroke:#4169e1;" x="863.1" xlink:href="#m3794d9143b" y="195.287394"/>
     <use style="fill:#4169e1;stroke:#4169e1;" x="877.638462" xlink:href="#m3794d9143b" y="198.603032"/>
     <use style="fill:#4169e1;stroke:#4169e1;" x="892.176923" xlink:href="#m3794d9143b" y="119.02772"/>
     <use style="fill:#4169e1;stroke:#4169e1;" x="906.715385" xlink:href="#m3794d9143b" y="65.977512"/>
     <use style="fill:#4169e1;stroke:#4169e1;" x="921.253846" xlink:href="#m3794d9143b" y="221.812498"/>
     <use style="fill:#4169e1;stroke:#4169e1;" x="935.792308" xlink:href="#m3794d9143b" y="188.656118"/>
     <use style="fill:#4169e1;stroke:#4169e1;" x="950.330769" xlink:href="#m3794d9143b" y="168.76229"/>
    </g>
   </g>
   <g id="patch_3">
    <path d="M 201.6 230.4 
L 201.6 23.04 
" style="fill:none;stroke:#262626;stroke-linecap:square;stroke-linejoin:miter;stroke-width:0.8;"/>
   </g>
   <g id="patch_4">
    <path d="M 201.6 230.4 
L 957.6 230.4 
" style="fill:none;stroke:#262626;stroke-linecap:square;stroke-linejoin:miter;stroke-width:0.8;"/>
   </g>
   <g id="text_13">
    <text style="fill:#262626;font-family:DejaVu Sans;font-size:20px;font-style:normal;font-weight:bold;text-anchor:middle;" transform="rotate(-0, 579.6, 17.04)" x="579.6" y="17.04">IGHJ2*01</text>
   </g>
  </g>
 </g>
 <defs>
  <clipPath id="p1a8fce2129">
   <rect height="207.36" width="756" x="201.6" y="23.04"/>
  </clipPath>
 </defs>
</svg>
