<?xml version="1.0" encoding="utf-8" standalone="no"?>
<!DOCTYPE svg PUBLIC "-//W3C//DTD SVG 1.1//EN"
  "http://www.w3.org/Graphics/SVG/1.1/DTD/svg11.dtd">
<!-- Created with matplotlib (http://matplotlib.org/) -->
<svg height="345.6pt" version="1.1" viewBox="0 0 460.8 345.6" width="460.8pt" xmlns="http://www.w3.org/2000/svg" xmlns:xlink="http://www.w3.org/1999/xlink">
 <defs>
  <style type="text/css">
*{stroke-linecap:butt;stroke-linejoin:round;}
  </style>
 </defs>
 <g id="figure_1">
  <g id="patch_1">
   <path d="M 0 345.6 
L 460.8 345.6 
L 460.8 0 
L 0 0 
z
" style="fill:#ffffff;"/>
  </g>
  <g id="axes_1">
   <g id="patch_2">
    <path d="M 92.16 276.48 
L 437.76 276.48 
L 437.76 27.648 
L 92.16 27.648 
z
" style="fill:#ffffff;"/>
   </g>
   <g id="matplotlib.axis_1">
    <g id="xtick_1">
     <g id="line2d_1">
      <defs>
       <path d="M 0 0 
L 0 3.5 
" id="mf535ae27b0" style="stroke:#262626;stroke-width:0.8;"/>
      </defs>
      <g>
       <use style="fill:#262626;stroke:#262626;stroke-width:0.8;" x="96.707368" xlink:href="#mf535ae27b0" y="276.48"/>
      </g>
     </g>
     <g id="text_1">
      <text style="fill:#262626;font-family:DejaVu Sans;font-size:20px;font-style:normal;font-weight:normal;text-anchor:middle;" transform="rotate(-0, 96.707368, 298.676875)" x="96.707368" y="298.676875">0</text>
     </g>
    </g>
    <g id="xtick_2">
     <g id="line2d_2">
      <g>
       <use style="fill:#262626;stroke:#262626;stroke-width:0.8;" x="187.654737" xlink:href="#mf535ae27b0" y="276.48"/>
      </g>
     </g>
     <g id="text_2">
      <text style="fill:#262626;font-family:DejaVu Sans;font-size:20px;font-style:normal;font-weight:normal;text-anchor:middle;" transform="rotate(-0, 187.654737, 298.676875)" x="187.654737" y="298.676875">10</text>
     </g>
    </g>
    <g id="xtick_3">
     <g id="line2d_3">
      <g>
       <use style="fill:#262626;stroke:#262626;stroke-width:0.8;" x="278.602105" xlink:href="#mf535ae27b0" y="276.48"/>
      </g>
     </g>
     <g id="text_3">
      <text style="fill:#262626;font-family:DejaVu Sans;font-size:20px;font-style:normal;font-weight:normal;text-anchor:middle;" transform="rotate(-0, 278.602105, 298.676875)" x="278.602105" y="298.676875">20</text>
     </g>
    </g>
    <g id="xtick_4">
     <g id="line2d_4">
      <g>
       <use style="fill:#262626;stroke:#262626;stroke-width:0.8;" x="369.549474" xlink:href="#mf535ae27b0" y="276.48"/>
      </g>
     </g>
     <g id="text_4">
      <text style="fill:#262626;font-family:DejaVu Sans;font-size:20px;font-style:normal;font-weight:normal;text-anchor:middle;" transform="rotate(-0, 369.549474, 298.676875)" x="369.549474" y="298.676875">30</text>
     </g>
    </g>
    <g id="text_5">
     <text style="fill:#262626;font-family:DejaVu Sans;font-size:20px;font-style:normal;font-weight:normal;text-anchor:middle;" transform="rotate(-0, 264.96, 322.033125)" x="264.96" y="322.033125">hamming distance</text>
    </g>
   </g>
   <g id="matplotlib.axis_2">
    <g id="ytick_1">
     <g id="line2d_5">
      <defs>
       <path d="M 0 0 
L -3.5 0 
" id="m11f2691dcd" style="stroke:#262626;stroke-width:0.8;"/>
      </defs>
      <g>
       <use style="fill:#262626;stroke:#262626;stroke-width:0.8;" x="92.16" xlink:href="#m11f2691dcd" y="270.153763"/>
      </g>
     </g>
     <g id="text_6">
      <text style="fill:#262626;font-family:DejaVu Sans;font-size:20px;font-style:normal;font-weight:normal;text-anchor:end;" transform="rotate(-0, 85.16, 277.7522)" x="85.16" y="277.7522">0</text>
     </g>
    </g>
    <g id="ytick_2">
     <g id="line2d_6">
      <g>
       <use style="fill:#262626;stroke:#262626;stroke-width:0.8;" x="92.16" xlink:href="#m11f2691dcd" y="226.367513"/>
      </g>
     </g>
     <g id="text_7">
      <text style="fill:#262626;font-family:DejaVu Sans;font-size:20px;font-style:normal;font-weight:normal;text-anchor:end;" transform="rotate(-0, 85.16, 233.965951)" x="85.16" y="233.965951">500</text>
     </g>
    </g>
    <g id="ytick_3">
     <g id="line2d_7">
      <g>
       <use style="fill:#262626;stroke:#262626;stroke-width:0.8;" x="92.16" xlink:href="#m11f2691dcd" y="182.581264"/>
      </g>
     </g>
     <g id="text_8">
      <text style="fill:#262626;font-family:DejaVu Sans;font-size:20px;font-style:normal;font-weight:normal;text-anchor:end;" transform="rotate(-0, 85.16, 190.179702)" x="85.16" y="190.179702">1000</text>
     </g>
    </g>
    <g id="ytick_4">
     <g id="line2d_8">
      <g>
       <use style="fill:#262626;stroke:#262626;stroke-width:0.8;" x="92.16" xlink:href="#m11f2691dcd" y="138.795015"/>
      </g>
     </g>
     <g id="text_9">
      <text style="fill:#262626;font-family:DejaVu Sans;font-size:20px;font-style:normal;font-weight:normal;text-anchor:end;" transform="rotate(-0, 85.16, 146.393453)" x="85.16" y="146.393453">1500</text>
     </g>
    </g>
    <g id="ytick_5">
     <g id="line2d_9">
      <g>
       <use style="fill:#262626;stroke:#262626;stroke-width:0.8;" x="92.16" xlink:href="#m11f2691dcd" y="95.008766"/>
      </g>
     </g>
     <g id="text_10">
      <text style="fill:#262626;font-family:DejaVu Sans;font-size:20px;font-style:normal;font-weight:normal;text-anchor:end;" transform="rotate(-0, 85.16, 102.607203)" x="85.16" y="102.607203">2000</text>
     </g>
    </g>
    <g id="ytick_6">
     <g id="line2d_10">
      <g>
       <use style="fill:#262626;stroke:#262626;stroke-width:0.8;" x="92.16" xlink:href="#m11f2691dcd" y="51.222517"/>
      </g>
     </g>
     <g id="text_11">
      <text style="fill:#262626;font-family:DejaVu Sans;font-size:20px;font-style:normal;font-weight:normal;text-anchor:end;" transform="rotate(-0, 85.16, 58.820954)" x="85.16" y="58.820954">2500</text>
     </g>
    </g>
    <g id="text_12">
     <text style="fill:#262626;font-family:DejaVu Sans;font-size:20px;font-style:normal;font-weight:normal;text-anchor:middle;" transform="rotate(-90, 26.100625, 152.064)" x="26.100625" y="152.064">counts</text>
    </g>
   </g>
   <g id="line2d_11">
    <path clip-path="url(#pa8216d0772)" d="M 96.707368 59.279186 
L 105.802105 233.636031 
L 114.896842 264.46155 
L 123.991579 265.687565 
L 133.086316 268.489885 
L 142.181053 269.7159 
L 151.275789 269.278038 
L 160.370526 269.190465 
L 169.465263 269.540755 
L 178.56 269.978618 
L 187.654737 270.153763 
L 196.749474 270.153763 
L 205.844211 270.153763 
L 214.938947 270.153763 
L 224.033684 270.06619 
L 233.128421 270.153763 
L 242.223158 270.153763 
L 251.317895 270.153763 
L 260.412632 270.153763 
L 269.507368 269.978618 
L 278.602105 270.153763 
L 287.696842 270.06619 
L 296.791579 270.153763 
L 305.886316 270.153763 
L 314.981053 270.153763 
L 324.075789 270.153763 
L 333.170526 270.153763 
L 342.265263 270.153763 
L 351.36 270.153763 
L 360.454737 270.153763 
L 369.549474 270.153763 
L 378.644211 270.153763 
L 387.738947 270.153763 
L 396.833684 270.153763 
L 405.928421 270.153763 
L 415.023158 270.153763 
L 424.117895 270.153763 
L 433.212632 270.06619 
" style="fill:none;stroke:#4169e1;stroke-linecap:round;stroke-width:3;"/>
    <defs>
     <path d="M 0 3.25 
C 0.86191 3.25 1.688635 2.907559 2.298097 2.298097 
C 2.907559 1.688635 3.25 0.86191 3.25 0 
C 3.25 -0.86191 2.907559 -1.688635 2.298097 -2.298097 
C 1.688635 -2.907559 0.86191 -3.25 0 -3.25 
C -0.86191 -3.25 -1.688635 -2.907559 -2.298097 -2.298097 
C -2.907559 -1.688635 -3.25 -0.86191 -3.25 0 
C -3.25 0.86191 -2.907559 1.688635 -2.298097 2.298097 
C -1.688635 2.907559 -0.86191 3.25 0 3.25 
z
" id="m4f6e83044d" style="stroke:#4169e1;"/>
    </defs>
    <g clip-path="url(#pa8216d0772)">
     <use style="fill:#4169e1;stroke:#4169e1;" x="96.707368" xlink:href="#m4f6e83044d" y="59.279186"/>
     <use style="fill:#4169e1;stroke:#4169e1;" x="105.802105" xlink:href="#m4f6e83044d" y="233.636031"/>
     <use style="fill:#4169e1;stroke:#4169e1;" x="114.896842" xlink:href="#m4f6e83044d" y="264.46155"/>
     <use style="fill:#4169e1;stroke:#4169e1;" x="123.991579" xlink:href="#m4f6e83044d" y="265.687565"/>
     <use style="fill:#4169e1;stroke:#4169e1;" x="133.086316" xlink:href="#m4f6e83044d" y="268.489885"/>
     <use style="fill:#4169e1;stroke:#4169e1;" x="142.181053" xlink:href="#m4f6e83044d" y="269.7159"/>
     <use style="fill:#4169e1;stroke:#4169e1;" x="151.275789" xlink:href="#m4f6e83044d" y="269.278038"/>
     <use style="fill:#4169e1;stroke:#4169e1;" x="160.370526" xlink:href="#m4f6e83044d" y="269.190465"/>
     <use style="fill:#4169e1;stroke:#4169e1;" x="169.465263" xlink:href="#m4f6e83044d" y="269.540755"/>
     <use style="fill:#4169e1;stroke:#4169e1;" x="178.56" xlink:href="#m4f6e83044d" y="269.978618"/>
     <use style="fill:#4169e1;stroke:#4169e1;" x="187.654737" xlink:href="#m4f6e83044d" y="270.153763"/>
     <use style="fill:#4169e1;stroke:#4169e1;" x="196.749474" xlink:href="#m4f6e83044d" y="270.153763"/>
     <use style="fill:#4169e1;stroke:#4169e1;" x="205.844211" xlink:href="#m4f6e83044d" y="270.153763"/>
     <use style="fill:#4169e1;stroke:#4169e1;" x="214.938947" xlink:href="#m4f6e83044d" y="270.153763"/>
     <use style="fill:#4169e1;stroke:#4169e1;" x="224.033684" xlink:href="#m4f6e83044d" y="270.06619"/>
     <use style="fill:#4169e1;stroke:#4169e1;" x="233.128421" xlink:href="#m4f6e83044d" y="270.153763"/>
     <use style="fill:#4169e1;stroke:#4169e1;" x="242.223158" xlink:href="#m4f6e83044d" y="270.153763"/>
     <use style="fill:#4169e1;stroke:#4169e1;" x="251.317895" xlink:href="#m4f6e83044d" y="270.153763"/>
     <use style="fill:#4169e1;stroke:#4169e1;" x="260.412632" xlink:href="#m4f6e83044d" y="270.153763"/>
     <use style="fill:#4169e1;stroke:#4169e1;" x="269.507368" xlink:href="#m4f6e83044d" y="269.978618"/>
     <use style="fill:#4169e1;stroke:#4169e1;" x="278.602105" xlink:href="#m4f6e83044d" y="270.153763"/>
     <use style="fill:#4169e1;stroke:#4169e1;" x="287.696842" xlink:href="#m4f6e83044d" y="270.06619"/>
     <use style="fill:#4169e1;stroke:#4169e1;" x="296.791579" xlink:href="#m4f6e83044d" y="270.153763"/>
     <use style="fill:#4169e1;stroke:#4169e1;" x="305.886316" xlink:href="#m4f6e83044d" y="270.153763"/>
     <use style="fill:#4169e1;stroke:#4169e1;" x="314.981053" xlink:href="#m4f6e83044d" y="270.153763"/>
     <use style="fill:#4169e1;stroke:#4169e1;" x="324.075789" xlink:href="#m4f6e83044d" y="270.153763"/>
     <use style="fill:#4169e1;stroke:#4169e1;" x="333.170526" xlink:href="#m4f6e83044d" y="270.153763"/>
     <use style="fill:#4169e1;stroke:#4169e1;" x="342.265263" xlink:href="#m4f6e83044d" y="270.153763"/>
     <use style="fill:#4169e1;stroke:#4169e1;" x="351.36" xlink:href="#m4f6e83044d" y="270.153763"/>
     <use style="fill:#4169e1;stroke:#4169e1;" x="360.454737" xlink:href="#m4f6e83044d" y="270.153763"/>
     <use style="fill:#4169e1;stroke:#4169e1;" x="369.549474" xlink:href="#m4f6e83044d" y="270.153763"/>
     <use style="fill:#4169e1;stroke:#4169e1;" x="378.644211" xlink:href="#m4f6e83044d" y="270.153763"/>
     <use style="fill:#4169e1;stroke:#4169e1;" x="387.738947" xlink:href="#m4f6e83044d" y="270.153763"/>
     <use style="fill:#4169e1;stroke:#4169e1;" x="396.833684" xlink:href="#m4f6e83044d" y="270.153763"/>
     <use style="fill:#4169e1;stroke:#4169e1;" x="405.928421" xlink:href="#m4f6e83044d" y="270.153763"/>
     <use style="fill:#4169e1;stroke:#4169e1;" x="415.023158" xlink:href="#m4f6e83044d" y="270.153763"/>
     <use style="fill:#4169e1;stroke:#4169e1;" x="424.117895" xlink:href="#m4f6e83044d" y="270.153763"/>
     <use style="fill:#4169e1;stroke:#4169e1;" x="433.212632" xlink:href="#m4f6e83044d" y="270.06619"/>
    </g>
   </g>
   <g id="patch_3">
    <path d="M 92.16 276.48 
L 92.16 27.648 
" style="fill:none;stroke:#262626;stroke-linecap:square;stroke-linejoin:miter;stroke-width:0.8;"/>
   </g>
   <g id="patch_4">
    <path d="M 92.16 276.48 
L 437.76 276.48 
" style="fill:none;stroke:#262626;stroke-linecap:square;stroke-linejoin:miter;stroke-width:0.8;"/>
   </g>
   <g id="text_13">
    <text style="fill:#262626;font-family:DejaVu Sans;font-size:15px;font-style:normal;font-weight:bold;text-anchor:middle;" transform="rotate(-0, 264.96, 21.648)" x="264.96" y="21.648">total distance to true naive</text>
   </g>
  </g>
 </g>
 <defs>
  <clipPath id="pa8216d0772">
   <rect height="248.832" width="345.6" x="92.16" y="27.648"/>
  </clipPath>
 </defs>
</svg>
