<?xml version="1.0" encoding="utf-8" standalone="no"?>
<!DOCTYPE svg PUBLIC "-//W3C//DTD SVG 1.1//EN"
  "http://www.w3.org/Graphics/SVG/1.1/DTD/svg11.dtd">
<!-- Created with matplotlib (http://matplotlib.org/) -->
<svg height="345.6pt" version="1.1" viewBox="0 0 460.8 345.6" width="460.8pt" xmlns="http://www.w3.org/2000/svg" xmlns:xlink="http://www.w3.org/1999/xlink">
 <defs>
  <style type="text/css">
*{stroke-linecap:butt;stroke-linejoin:round;}
  </style>
 </defs>
 <g id="figure_1">
  <g id="patch_1">
   <path d="M 0 345.6 
L 460.8 345.6 
L 460.8 0 
L 0 0 
z
" style="fill:#ffffff;"/>
  </g>
  <g id="axes_1">
   <g id="patch_2">
    <path d="M 92.16 276.48 
L 437.76 276.48 
L 437.76 27.648 
L 92.16 27.648 
z
" style="fill:#ffffff;"/>
   </g>
   <g id="matplotlib.axis_1">
    <g id="xtick_1">
     <g id="line2d_1">
      <defs>
       <path d="M 0 0 
L 0 3.5 
" id="mf95cb25645" style="stroke:#262626;stroke-width:0.8;"/>
      </defs>
      <g>
       <use style="fill:#262626;stroke:#262626;stroke-width:0.8;" x="153.874286" xlink:href="#mf95cb25645" y="276.48"/>
      </g>
     </g>
     <g id="text_1">
      <text style="fill:#262626;font-family:DejaVu Sans;font-size:20px;font-style:normal;font-weight:normal;text-anchor:middle;" transform="rotate(-0, 153.874286, 298.676875)" x="153.874286" y="298.676875">0</text>
     </g>
    </g>
    <g id="xtick_2">
     <g id="line2d_2">
      <g>
       <use style="fill:#262626;stroke:#262626;stroke-width:0.8;" x="277.302857" xlink:href="#mf95cb25645" y="276.48"/>
      </g>
     </g>
     <g id="text_2">
      <text style="fill:#262626;font-family:DejaVu Sans;font-size:20px;font-style:normal;font-weight:normal;text-anchor:middle;" transform="rotate(-0, 277.302857, 298.676875)" x="277.302857" y="298.676875">5</text>
     </g>
    </g>
    <g id="xtick_3">
     <g id="line2d_3">
      <g>
       <use style="fill:#262626;stroke:#262626;stroke-width:0.8;" x="400.731429" xlink:href="#mf95cb25645" y="276.48"/>
      </g>
     </g>
     <g id="text_3">
      <text style="fill:#262626;font-family:DejaVu Sans;font-size:20px;font-style:normal;font-weight:normal;text-anchor:middle;" transform="rotate(-0, 400.731429, 298.676875)" x="400.731429" y="298.676875">10</text>
     </g>
    </g>
    <g id="text_4">
     <text style="fill:#262626;font-family:DejaVu Sans;font-size:20px;font-style:normal;font-weight:normal;text-anchor:middle;" transform="rotate(-0, 264.96, 322.033125)" x="264.96" y="322.033125">inferred - true</text>
    </g>
   </g>
   <g id="matplotlib.axis_2">
    <g id="ytick_1">
     <g id="line2d_4">
      <defs>
       <path d="M 0 0 
L -3.5 0 
" id="mbb23991d25" style="stroke:#262626;stroke-width:0.8;"/>
      </defs>
      <g>
       <use style="fill:#262626;stroke:#262626;stroke-width:0.8;" x="92.16" xlink:href="#mbb23991d25" y="270.153763"/>
      </g>
     </g>
     <g id="text_5">
      <text style="fill:#262626;font-family:DejaVu Sans;font-size:20px;font-style:normal;font-weight:normal;text-anchor:end;" transform="rotate(-0, 85.16, 277.7522)" x="85.16" y="277.7522">0</text>
     </g>
    </g>
    <g id="ytick_2">
     <g id="line2d_5">
      <g>
       <use style="fill:#262626;stroke:#262626;stroke-width:0.8;" x="92.16" xlink:href="#mbb23991d25" y="194.922019"/>
      </g>
     </g>
     <g id="text_6">
      <text style="fill:#262626;font-family:DejaVu Sans;font-size:20px;font-style:normal;font-weight:normal;text-anchor:end;" transform="rotate(-0, 85.16, 202.520457)" x="85.16" y="202.520457">1000</text>
     </g>
    </g>
    <g id="ytick_3">
     <g id="line2d_6">
      <g>
       <use style="fill:#262626;stroke:#262626;stroke-width:0.8;" x="92.16" xlink:href="#mbb23991d25" y="119.690276"/>
      </g>
     </g>
     <g id="text_7">
      <text style="fill:#262626;font-family:DejaVu Sans;font-size:20px;font-style:normal;font-weight:normal;text-anchor:end;" transform="rotate(-0, 85.16, 127.288714)" x="85.16" y="127.288714">2000</text>
     </g>
    </g>
    <g id="ytick_4">
     <g id="line2d_7">
      <g>
       <use style="fill:#262626;stroke:#262626;stroke-width:0.8;" x="92.16" xlink:href="#mbb23991d25" y="44.458533"/>
      </g>
     </g>
     <g id="text_8">
      <text style="fill:#262626;font-family:DejaVu Sans;font-size:20px;font-style:normal;font-weight:normal;text-anchor:end;" transform="rotate(-0, 85.16, 52.056971)" x="85.16" y="52.056971">3000</text>
     </g>
    </g>
    <g id="text_9">
     <text style="fill:#262626;font-family:DejaVu Sans;font-size:20px;font-style:normal;font-weight:normal;text-anchor:middle;" transform="rotate(-90, 26.100625, 152.064)" x="26.100625" y="152.064">counts</text>
    </g>
   </g>
   <g id="line2d_8">
    <path clip-path="url(#p850cd01cdc)" d="M 104.502857 269.852836 
L 129.188571 267.746347 
L 153.874286 59.279186 
L 178.56 261.351649 
L 203.245714 267.595883 
L 227.931429 269.777604 
L 252.617143 269.852836 
L 277.302857 270.153763 
L 301.988571 270.153763 
L 326.674286 270.153763 
L 351.36 270.153763 
L 376.045714 270.153763 
L 400.731429 270.153763 
L 425.417143 270.078531 
" style="fill:none;stroke:#4169e1;stroke-linecap:round;stroke-width:3;"/>
    <defs>
     <path d="M 0 3.25 
C 0.86191 3.25 1.688635 2.907559 2.298097 2.298097 
C 2.907559 1.688635 3.25 0.86191 3.25 0 
C 3.25 -0.86191 2.907559 -1.688635 2.298097 -2.298097 
C 1.688635 -2.907559 0.86191 -3.25 0 -3.25 
C -0.86191 -3.25 -1.688635 -2.907559 -2.298097 -2.298097 
C -2.907559 -1.688635 -3.25 -0.86191 -3.25 0 
C -3.25 0.86191 -2.907559 1.688635 -2.298097 2.298097 
C -1.688635 2.907559 -0.86191 3.25 0 3.25 
z
" id="mcd122a19f5" style="stroke:#4169e1;"/>
    </defs>
    <g clip-path="url(#p850cd01cdc)">
     <use style="fill:#4169e1;stroke:#4169e1;" x="104.502857" xlink:href="#mcd122a19f5" y="269.852836"/>
     <use style="fill:#4169e1;stroke:#4169e1;" x="129.188571" xlink:href="#mcd122a19f5" y="267.746347"/>
     <use style="fill:#4169e1;stroke:#4169e1;" x="153.874286" xlink:href="#mcd122a19f5" y="59.279186"/>
     <use style="fill:#4169e1;stroke:#4169e1;" x="178.56" xlink:href="#mcd122a19f5" y="261.351649"/>
     <use style="fill:#4169e1;stroke:#4169e1;" x="203.245714" xlink:href="#mcd122a19f5" y="267.595883"/>
     <use style="fill:#4169e1;stroke:#4169e1;" x="227.931429" xlink:href="#mcd122a19f5" y="269.777604"/>
     <use style="fill:#4169e1;stroke:#4169e1;" x="252.617143" xlink:href="#mcd122a19f5" y="269.852836"/>
     <use style="fill:#4169e1;stroke:#4169e1;" x="277.302857" xlink:href="#mcd122a19f5" y="270.153763"/>
     <use style="fill:#4169e1;stroke:#4169e1;" x="301.988571" xlink:href="#mcd122a19f5" y="270.153763"/>
     <use style="fill:#4169e1;stroke:#4169e1;" x="326.674286" xlink:href="#mcd122a19f5" y="270.153763"/>
     <use style="fill:#4169e1;stroke:#4169e1;" x="351.36" xlink:href="#mcd122a19f5" y="270.153763"/>
     <use style="fill:#4169e1;stroke:#4169e1;" x="376.045714" xlink:href="#mcd122a19f5" y="270.153763"/>
     <use style="fill:#4169e1;stroke:#4169e1;" x="400.731429" xlink:href="#mcd122a19f5" y="270.153763"/>
     <use style="fill:#4169e1;stroke:#4169e1;" x="425.417143" xlink:href="#mcd122a19f5" y="270.078531"/>
    </g>
   </g>
   <g id="patch_3">
    <path d="M 92.16 276.48 
L 92.16 27.648 
" style="fill:none;stroke:#262626;stroke-linecap:square;stroke-linejoin:miter;stroke-width:0.8;"/>
   </g>
   <g id="patch_4">
    <path d="M 92.16 276.48 
L 437.76 276.48 
" style="fill:none;stroke:#262626;stroke-linecap:square;stroke-linejoin:miter;stroke-width:0.8;"/>
   </g>
   <g id="text_10">
    <text style="fill:#262626;font-family:DejaVu Sans;font-size:20px;font-style:normal;font-weight:bold;text-anchor:middle;" transform="rotate(-0, 264.96, 21.648)" x="264.96" y="21.648">J mutations</text>
   </g>
  </g>
 </g>
 <defs>
  <clipPath id="p850cd01cdc">
   <rect height="248.832" width="345.6" x="92.16" y="27.648"/>
  </clipPath>
 </defs>
</svg>
