<?xml version="1.0" encoding="utf-8" standalone="no"?>
<!DOCTYPE svg PUBLIC "-//W3C//DTD SVG 1.1//EN"
  "http://www.w3.org/Graphics/SVG/1.1/DTD/svg11.dtd">
<!-- Created with matplotlib (http://matplotlib.org/) -->
<svg height="345.6pt" version="1.1" viewBox="0 0 460.8 345.6" width="460.8pt" xmlns="http://www.w3.org/2000/svg" xmlns:xlink="http://www.w3.org/1999/xlink">
 <defs>
  <style type="text/css">
*{stroke-linecap:butt;stroke-linejoin:round;}
  </style>
 </defs>
 <g id="figure_1">
  <g id="patch_1">
   <path d="M 0 345.6 
L 460.8 345.6 
L 460.8 0 
L 0 0 
z
" style="fill:#ffffff;"/>
  </g>
  <g id="axes_1">
   <g id="patch_2">
    <path d="M 92.16 276.48 
L 437.76 276.48 
L 437.76 27.648 
L 92.16 27.648 
z
" style="fill:#ffffff;"/>
   </g>
   <g id="matplotlib.axis_1">
    <g id="xtick_1">
     <g id="line2d_1">
      <defs>
       <path d="M 0 0 
L 0 3.5 
" id="m93168db070" style="stroke:#262626;stroke-width:0.8;"/>
      </defs>
      <g>
       <use style="fill:#262626;stroke:#262626;stroke-width:0.8;" x="146.468571" xlink:href="#m93168db070" y="276.48"/>
      </g>
     </g>
     <g id="text_1">
      <text style="fill:#262626;font-family:DejaVu Sans;font-size:20px;font-style:normal;font-weight:normal;text-anchor:middle;" transform="rotate(-0, 146.468571, 298.676875)" x="146.468571" y="298.676875">0</text>
     </g>
    </g>
    <g id="xtick_2">
     <g id="line2d_2">
      <g>
       <use style="fill:#262626;stroke:#262626;stroke-width:0.8;" x="245.211429" xlink:href="#m93168db070" y="276.48"/>
      </g>
     </g>
     <g id="text_2">
      <text style="fill:#262626;font-family:DejaVu Sans;font-size:20px;font-style:normal;font-weight:normal;text-anchor:middle;" transform="rotate(-0, 245.211429, 298.676875)" x="245.211429" y="298.676875">10</text>
     </g>
    </g>
    <g id="xtick_3">
     <g id="line2d_3">
      <g>
       <use style="fill:#262626;stroke:#262626;stroke-width:0.8;" x="343.954286" xlink:href="#m93168db070" y="276.48"/>
      </g>
     </g>
     <g id="text_3">
      <text style="fill:#262626;font-family:DejaVu Sans;font-size:20px;font-style:normal;font-weight:normal;text-anchor:middle;" transform="rotate(-0, 343.954286, 298.676875)" x="343.954286" y="298.676875">20</text>
     </g>
    </g>
    <g id="text_4">
     <text style="fill:#262626;font-family:DejaVu Sans;font-size:20px;font-style:normal;font-weight:normal;text-anchor:middle;" transform="rotate(-0, 264.96, 322.033125)" x="264.96" y="322.033125">inferred - true</text>
    </g>
   </g>
   <g id="matplotlib.axis_2">
    <g id="ytick_1">
     <g id="line2d_4">
      <defs>
       <path d="M 0 0 
L -3.5 0 
" id="mb9d0f2f237" style="stroke:#262626;stroke-width:0.8;"/>
      </defs>
      <g>
       <use style="fill:#262626;stroke:#262626;stroke-width:0.8;" x="92.16" xlink:href="#mb9d0f2f237" y="270.153763"/>
      </g>
     </g>
     <g id="text_5">
      <text style="fill:#262626;font-family:DejaVu Sans;font-size:20px;font-style:normal;font-weight:normal;text-anchor:end;" transform="rotate(-0, 85.16, 277.7522)" x="85.16" y="277.7522">0</text>
     </g>
    </g>
    <g id="ytick_2">
     <g id="line2d_5">
      <g>
       <use style="fill:#262626;stroke:#262626;stroke-width:0.8;" x="92.16" xlink:href="#mb9d0f2f237" y="226.97715"/>
      </g>
     </g>
     <g id="text_6">
      <text style="fill:#262626;font-family:DejaVu Sans;font-size:20px;font-style:normal;font-weight:normal;text-anchor:end;" transform="rotate(-0, 85.16, 234.575588)" x="85.16" y="234.575588">500</text>
     </g>
    </g>
    <g id="ytick_3">
     <g id="line2d_6">
      <g>
       <use style="fill:#262626;stroke:#262626;stroke-width:0.8;" x="92.16" xlink:href="#mb9d0f2f237" y="183.800537"/>
      </g>
     </g>
     <g id="text_7">
      <text style="fill:#262626;font-family:DejaVu Sans;font-size:20px;font-style:normal;font-weight:normal;text-anchor:end;" transform="rotate(-0, 85.16, 191.398975)" x="85.16" y="191.398975">1000</text>
     </g>
    </g>
    <g id="ytick_4">
     <g id="line2d_7">
      <g>
       <use style="fill:#262626;stroke:#262626;stroke-width:0.8;" x="92.16" xlink:href="#mb9d0f2f237" y="140.623925"/>
      </g>
     </g>
     <g id="text_8">
      <text style="fill:#262626;font-family:DejaVu Sans;font-size:20px;font-style:normal;font-weight:normal;text-anchor:end;" transform="rotate(-0, 85.16, 148.222362)" x="85.16" y="148.222362">1500</text>
     </g>
    </g>
    <g id="ytick_5">
     <g id="line2d_8">
      <g>
       <use style="fill:#262626;stroke:#262626;stroke-width:0.8;" x="92.16" xlink:href="#mb9d0f2f237" y="97.447312"/>
      </g>
     </g>
     <g id="text_9">
      <text style="fill:#262626;font-family:DejaVu Sans;font-size:20px;font-style:normal;font-weight:normal;text-anchor:end;" transform="rotate(-0, 85.16, 105.04575)" x="85.16" y="105.04575">2000</text>
     </g>
    </g>
    <g id="ytick_6">
     <g id="line2d_9">
      <g>
       <use style="fill:#262626;stroke:#262626;stroke-width:0.8;" x="92.16" xlink:href="#mb9d0f2f237" y="54.270699"/>
      </g>
     </g>
     <g id="text_10">
      <text style="fill:#262626;font-family:DejaVu Sans;font-size:20px;font-style:normal;font-weight:normal;text-anchor:end;" transform="rotate(-0, 85.16, 61.869137)" x="85.16" y="61.869137">2500</text>
     </g>
    </g>
    <g id="text_11">
     <text style="fill:#262626;font-family:DejaVu Sans;font-size:20px;font-style:normal;font-weight:normal;text-anchor:middle;" transform="rotate(-90, 26.100625, 152.064)" x="26.100625" y="152.064">counts</text>
    </g>
   </g>
   <g id="line2d_10">
    <path clip-path="url(#p50706783ef)" d="M 97.097143 270.067409 
L 106.971429 269.635643 
L 116.845714 269.29023 
L 126.72 266.181514 
L 136.594286 243.125203 
L 146.468571 59.279186 
L 156.342857 258.323371 
L 166.217143 268.513051 
L 176.091429 269.117524 
L 185.965714 269.80835 
L 195.84 269.80835 
L 205.714286 270.067409 
L 215.588571 270.153763 
L 225.462857 270.153763 
L 235.337143 270.153763 
L 245.211429 270.153763 
L 255.085714 270.153763 
L 264.96 270.067409 
L 274.834286 270.067409 
L 284.708571 270.153763 
L 294.582857 270.067409 
L 304.457143 270.067409 
L 314.331429 270.153763 
L 324.205714 270.153763 
L 334.08 270.153763 
L 343.954286 270.153763 
L 353.828571 270.153763 
L 363.702857 270.153763 
L 373.577143 270.153763 
L 383.451429 270.153763 
L 393.325714 270.153763 
L 403.2 270.153763 
L 413.074286 270.153763 
L 422.948571 270.153763 
L 432.822857 270.067409 
" style="fill:none;stroke:#4169e1;stroke-linecap:round;stroke-width:3;"/>
    <defs>
     <path d="M 0 3.25 
C 0.86191 3.25 1.688635 2.907559 2.298097 2.298097 
C 2.907559 1.688635 3.25 0.86191 3.25 0 
C 3.25 -0.86191 2.907559 -1.688635 2.298097 -2.298097 
C 1.688635 -2.907559 0.86191 -3.25 0 -3.25 
C -0.86191 -3.25 -1.688635 -2.907559 -2.298097 -2.298097 
C -2.907559 -1.688635 -3.25 -0.86191 -3.25 0 
C -3.25 0.86191 -2.907559 1.688635 -2.298097 2.298097 
C -1.688635 2.907559 -0.86191 3.25 0 3.25 
z
" id="m52935114f4" style="stroke:#4169e1;"/>
    </defs>
    <g clip-path="url(#p50706783ef)">
     <use style="fill:#4169e1;stroke:#4169e1;" x="97.097143" xlink:href="#m52935114f4" y="270.067409"/>
     <use style="fill:#4169e1;stroke:#4169e1;" x="106.971429" xlink:href="#m52935114f4" y="269.635643"/>
     <use style="fill:#4169e1;stroke:#4169e1;" x="116.845714" xlink:href="#m52935114f4" y="269.29023"/>
     <use style="fill:#4169e1;stroke:#4169e1;" x="126.72" xlink:href="#m52935114f4" y="266.181514"/>
     <use style="fill:#4169e1;stroke:#4169e1;" x="136.594286" xlink:href="#m52935114f4" y="243.125203"/>
     <use style="fill:#4169e1;stroke:#4169e1;" x="146.468571" xlink:href="#m52935114f4" y="59.279186"/>
     <use style="fill:#4169e1;stroke:#4169e1;" x="156.342857" xlink:href="#m52935114f4" y="258.323371"/>
     <use style="fill:#4169e1;stroke:#4169e1;" x="166.217143" xlink:href="#m52935114f4" y="268.513051"/>
     <use style="fill:#4169e1;stroke:#4169e1;" x="176.091429" xlink:href="#m52935114f4" y="269.117524"/>
     <use style="fill:#4169e1;stroke:#4169e1;" x="185.965714" xlink:href="#m52935114f4" y="269.80835"/>
     <use style="fill:#4169e1;stroke:#4169e1;" x="195.84" xlink:href="#m52935114f4" y="269.80835"/>
     <use style="fill:#4169e1;stroke:#4169e1;" x="205.714286" xlink:href="#m52935114f4" y="270.067409"/>
     <use style="fill:#4169e1;stroke:#4169e1;" x="215.588571" xlink:href="#m52935114f4" y="270.153763"/>
     <use style="fill:#4169e1;stroke:#4169e1;" x="225.462857" xlink:href="#m52935114f4" y="270.153763"/>
     <use style="fill:#4169e1;stroke:#4169e1;" x="235.337143" xlink:href="#m52935114f4" y="270.153763"/>
     <use style="fill:#4169e1;stroke:#4169e1;" x="245.211429" xlink:href="#m52935114f4" y="270.153763"/>
     <use style="fill:#4169e1;stroke:#4169e1;" x="255.085714" xlink:href="#m52935114f4" y="270.153763"/>
     <use style="fill:#4169e1;stroke:#4169e1;" x="264.96" xlink:href="#m52935114f4" y="270.067409"/>
     <use style="fill:#4169e1;stroke:#4169e1;" x="274.834286" xlink:href="#m52935114f4" y="270.067409"/>
     <use style="fill:#4169e1;stroke:#4169e1;" x="284.708571" xlink:href="#m52935114f4" y="270.153763"/>
     <use style="fill:#4169e1;stroke:#4169e1;" x="294.582857" xlink:href="#m52935114f4" y="270.067409"/>
     <use style="fill:#4169e1;stroke:#4169e1;" x="304.457143" xlink:href="#m52935114f4" y="270.067409"/>
     <use style="fill:#4169e1;stroke:#4169e1;" x="314.331429" xlink:href="#m52935114f4" y="270.153763"/>
     <use style="fill:#4169e1;stroke:#4169e1;" x="324.205714" xlink:href="#m52935114f4" y="270.153763"/>
     <use style="fill:#4169e1;stroke:#4169e1;" x="334.08" xlink:href="#m52935114f4" y="270.153763"/>
     <use style="fill:#4169e1;stroke:#4169e1;" x="343.954286" xlink:href="#m52935114f4" y="270.153763"/>
     <use style="fill:#4169e1;stroke:#4169e1;" x="353.828571" xlink:href="#m52935114f4" y="270.153763"/>
     <use style="fill:#4169e1;stroke:#4169e1;" x="363.702857" xlink:href="#m52935114f4" y="270.153763"/>
     <use style="fill:#4169e1;stroke:#4169e1;" x="373.577143" xlink:href="#m52935114f4" y="270.153763"/>
     <use style="fill:#4169e1;stroke:#4169e1;" x="383.451429" xlink:href="#m52935114f4" y="270.153763"/>
     <use style="fill:#4169e1;stroke:#4169e1;" x="393.325714" xlink:href="#m52935114f4" y="270.153763"/>
     <use style="fill:#4169e1;stroke:#4169e1;" x="403.2" xlink:href="#m52935114f4" y="270.153763"/>
     <use style="fill:#4169e1;stroke:#4169e1;" x="413.074286" xlink:href="#m52935114f4" y="270.153763"/>
     <use style="fill:#4169e1;stroke:#4169e1;" x="422.948571" xlink:href="#m52935114f4" y="270.153763"/>
     <use style="fill:#4169e1;stroke:#4169e1;" x="432.822857" xlink:href="#m52935114f4" y="270.067409"/>
    </g>
   </g>
   <g id="patch_3">
    <path d="M 92.16 276.48 
L 92.16 27.648 
" style="fill:none;stroke:#262626;stroke-linecap:square;stroke-linejoin:miter;stroke-width:0.8;"/>
   </g>
   <g id="patch_4">
    <path d="M 92.16 276.48 
L 437.76 276.48 
" style="fill:none;stroke:#262626;stroke-linecap:square;stroke-linejoin:miter;stroke-width:0.8;"/>
   </g>
   <g id="text_12">
    <text style="fill:#262626;font-family:DejaVu Sans;font-size:20px;font-style:normal;font-weight:bold;text-anchor:middle;" transform="rotate(-0, 264.96, 21.648)" x="264.96" y="21.648">total mutations</text>
   </g>
  </g>
 </g>
 <defs>
  <clipPath id="p50706783ef">
   <rect height="248.832" width="345.6" x="92.16" y="27.648"/>
  </clipPath>
 </defs>
</svg>
