<?xml version="1.0" encoding="utf-8" standalone="no"?>
<!DOCTYPE svg PUBLIC "-//W3C//DTD SVG 1.1//EN"
  "http://www.w3.org/Graphics/SVG/1.1/DTD/svg11.dtd">
<!-- Created with matplotlib (http://matplotlib.org/) -->
<svg height="345.6pt" version="1.1" viewBox="0 0 460.8 345.6" width="460.8pt" xmlns="http://www.w3.org/2000/svg" xmlns:xlink="http://www.w3.org/1999/xlink">
 <defs>
  <style type="text/css">
*{stroke-linecap:butt;stroke-linejoin:round;}
  </style>
 </defs>
 <g id="figure_1">
  <g id="patch_1">
   <path d="M 0 345.6 
L 460.8 345.6 
L 460.8 0 
L 0 0 
z
" style="fill:#ffffff;"/>
  </g>
  <g id="axes_1">
   <g id="patch_2">
    <path d="M 92.16 276.48 
L 437.76 276.48 
L 437.76 27.648 
L 92.16 27.648 
z
" style="fill:#ffffff;"/>
   </g>
   <g id="matplotlib.axis_1">
    <g id="xtick_1">
     <g id="line2d_1">
      <defs>
       <path d="M 0 0 
L 0 3.5 
" id="m3867f996cb" style="stroke:#262626;stroke-width:0.8;"/>
      </defs>
      <g>
       <use style="fill:#262626;stroke:#262626;stroke-width:0.8;" x="92.16" xlink:href="#m3867f996cb" y="276.48"/>
      </g>
     </g>
     <g id="text_1">
      <text style="fill:#262626;font-family:DejaVu Sans;font-size:20px;font-style:normal;font-weight:normal;text-anchor:middle;" transform="rotate(-0, 92.16, 298.676875)" x="92.16" y="298.676875">−0.04</text>
     </g>
    </g>
    <g id="xtick_2">
     <g id="line2d_2">
      <g>
       <use style="fill:#262626;stroke:#262626;stroke-width:0.8;" x="178.56" xlink:href="#m3867f996cb" y="276.48"/>
      </g>
     </g>
     <g id="text_2">
      <text style="fill:#262626;font-family:DejaVu Sans;font-size:20px;font-style:normal;font-weight:normal;text-anchor:middle;" transform="rotate(-0, 178.56, 298.676875)" x="178.56" y="298.676875">−0.02</text>
     </g>
    </g>
    <g id="xtick_3">
     <g id="line2d_3">
      <g>
       <use style="fill:#262626;stroke:#262626;stroke-width:0.8;" x="264.96" xlink:href="#m3867f996cb" y="276.48"/>
      </g>
     </g>
     <g id="text_3">
      <text style="fill:#262626;font-family:DejaVu Sans;font-size:20px;font-style:normal;font-weight:normal;text-anchor:middle;" transform="rotate(-0, 264.96, 298.676875)" x="264.96" y="298.676875">0.00</text>
     </g>
    </g>
    <g id="xtick_4">
     <g id="line2d_4">
      <g>
       <use style="fill:#262626;stroke:#262626;stroke-width:0.8;" x="351.36" xlink:href="#m3867f996cb" y="276.48"/>
      </g>
     </g>
     <g id="text_4">
      <text style="fill:#262626;font-family:DejaVu Sans;font-size:20px;font-style:normal;font-weight:normal;text-anchor:middle;" transform="rotate(-0, 351.36, 298.676875)" x="351.36" y="298.676875">0.02</text>
     </g>
    </g>
    <g id="xtick_5">
     <g id="line2d_5">
      <g>
       <use style="fill:#262626;stroke:#262626;stroke-width:0.8;" x="437.76" xlink:href="#m3867f996cb" y="276.48"/>
      </g>
     </g>
     <g id="text_5">
      <text style="fill:#262626;font-family:DejaVu Sans;font-size:20px;font-style:normal;font-weight:normal;text-anchor:middle;" transform="rotate(-0, 437.76, 298.676875)" x="437.76" y="298.676875">0.04</text>
     </g>
    </g>
    <g id="text_6">
     <text style="fill:#262626;font-family:DejaVu Sans;font-size:20px;font-style:normal;font-weight:normal;text-anchor:middle;" transform="rotate(-0, 264.96, 322.033125)" x="264.96" y="322.033125">inferred - true</text>
    </g>
   </g>
   <g id="matplotlib.axis_2">
    <g id="ytick_1">
     <g id="line2d_6">
      <defs>
       <path d="M 0 0 
L -3.5 0 
" id="ma9a75d96fa" style="stroke:#262626;stroke-width:0.8;"/>
      </defs>
      <g>
       <use style="fill:#262626;stroke:#262626;stroke-width:0.8;" x="92.16" xlink:href="#ma9a75d96fa" y="270.153763"/>
      </g>
     </g>
     <g id="text_7">
      <text style="fill:#262626;font-family:DejaVu Sans;font-size:20px;font-style:normal;font-weight:normal;text-anchor:end;" transform="rotate(-0, 85.16, 277.7522)" x="85.16" y="277.7522">0</text>
     </g>
    </g>
    <g id="ytick_2">
     <g id="line2d_7">
      <g>
       <use style="fill:#262626;stroke:#262626;stroke-width:0.8;" x="92.16" xlink:href="#ma9a75d96fa" y="226.97715"/>
      </g>
     </g>
     <g id="text_8">
      <text style="fill:#262626;font-family:DejaVu Sans;font-size:20px;font-style:normal;font-weight:normal;text-anchor:end;" transform="rotate(-0, 85.16, 234.575588)" x="85.16" y="234.575588">500</text>
     </g>
    </g>
    <g id="ytick_3">
     <g id="line2d_8">
      <g>
       <use style="fill:#262626;stroke:#262626;stroke-width:0.8;" x="92.16" xlink:href="#ma9a75d96fa" y="183.800537"/>
      </g>
     </g>
     <g id="text_9">
      <text style="fill:#262626;font-family:DejaVu Sans;font-size:20px;font-style:normal;font-weight:normal;text-anchor:end;" transform="rotate(-0, 85.16, 191.398975)" x="85.16" y="191.398975">1000</text>
     </g>
    </g>
    <g id="ytick_4">
     <g id="line2d_9">
      <g>
       <use style="fill:#262626;stroke:#262626;stroke-width:0.8;" x="92.16" xlink:href="#ma9a75d96fa" y="140.623925"/>
      </g>
     </g>
     <g id="text_10">
      <text style="fill:#262626;font-family:DejaVu Sans;font-size:20px;font-style:normal;font-weight:normal;text-anchor:end;" transform="rotate(-0, 85.16, 148.222362)" x="85.16" y="148.222362">1500</text>
     </g>
    </g>
    <g id="ytick_5">
     <g id="line2d_10">
      <g>
       <use style="fill:#262626;stroke:#262626;stroke-width:0.8;" x="92.16" xlink:href="#ma9a75d96fa" y="97.447312"/>
      </g>
     </g>
     <g id="text_11">
      <text style="fill:#262626;font-family:DejaVu Sans;font-size:20px;font-style:normal;font-weight:normal;text-anchor:end;" transform="rotate(-0, 85.16, 105.04575)" x="85.16" y="105.04575">2000</text>
     </g>
    </g>
    <g id="ytick_6">
     <g id="line2d_11">
      <g>
       <use style="fill:#262626;stroke:#262626;stroke-width:0.8;" x="92.16" xlink:href="#ma9a75d96fa" y="54.270699"/>
      </g>
     </g>
     <g id="text_12">
      <text style="fill:#262626;font-family:DejaVu Sans;font-size:20px;font-style:normal;font-weight:normal;text-anchor:end;" transform="rotate(-0, 85.16, 61.869137)" x="85.16" y="61.869137">2500</text>
     </g>
    </g>
    <g id="text_13">
     <text style="fill:#262626;font-family:DejaVu Sans;font-size:20px;font-style:normal;font-weight:normal;text-anchor:middle;" transform="rotate(-90, 26.100625, 152.064)" x="26.100625" y="152.064">counts</text>
    </g>
   </g>
   <g id="line2d_12">
    <path clip-path="url(#p96fe8d8aba)" d="M 99.072 270.153763 
L 112.896 270.153763 
L 126.72 270.153763 
L 140.544 270.153763 
L 154.368 270.153763 
L 168.192 270.153763 
L 182.016 270.153763 
L 195.84 270.153763 
L 209.664 269.981056 
L 223.488 269.117524 
L 237.312 265.922455 
L 251.136 243.125203 
L 264.96 59.279186 
L 278.784 258.323371 
L 292.608 267.994932 
L 306.432 269.29023 
L 320.256 269.80835 
L 334.08 270.067409 
L 347.904 270.153763 
L 361.728 270.153763 
L 375.552 270.153763 
L 389.376 270.153763 
L 403.2 269.981056 
L 417.024 270.153763 
L 430.848 269.894703 
" style="fill:none;stroke:#4169e1;stroke-linecap:round;stroke-width:3;"/>
    <defs>
     <path d="M 0 3.25 
C 0.86191 3.25 1.688635 2.907559 2.298097 2.298097 
C 2.907559 1.688635 3.25 0.86191 3.25 0 
C 3.25 -0.86191 2.907559 -1.688635 2.298097 -2.298097 
C 1.688635 -2.907559 0.86191 -3.25 0 -3.25 
C -0.86191 -3.25 -1.688635 -2.907559 -2.298097 -2.298097 
C -2.907559 -1.688635 -3.25 -0.86191 -3.25 0 
C -3.25 0.86191 -2.907559 1.688635 -2.298097 2.298097 
C -1.688635 2.907559 -0.86191 3.25 0 3.25 
z
" id="m883db30ae1" style="stroke:#4169e1;"/>
    </defs>
    <g clip-path="url(#p96fe8d8aba)">
     <use style="fill:#4169e1;stroke:#4169e1;" x="99.072" xlink:href="#m883db30ae1" y="270.153763"/>
     <use style="fill:#4169e1;stroke:#4169e1;" x="112.896" xlink:href="#m883db30ae1" y="270.153763"/>
     <use style="fill:#4169e1;stroke:#4169e1;" x="126.72" xlink:href="#m883db30ae1" y="270.153763"/>
     <use style="fill:#4169e1;stroke:#4169e1;" x="140.544" xlink:href="#m883db30ae1" y="270.153763"/>
     <use style="fill:#4169e1;stroke:#4169e1;" x="154.368" xlink:href="#m883db30ae1" y="270.153763"/>
     <use style="fill:#4169e1;stroke:#4169e1;" x="168.192" xlink:href="#m883db30ae1" y="270.153763"/>
     <use style="fill:#4169e1;stroke:#4169e1;" x="182.016" xlink:href="#m883db30ae1" y="270.153763"/>
     <use style="fill:#4169e1;stroke:#4169e1;" x="195.84" xlink:href="#m883db30ae1" y="270.153763"/>
     <use style="fill:#4169e1;stroke:#4169e1;" x="209.664" xlink:href="#m883db30ae1" y="269.981056"/>
     <use style="fill:#4169e1;stroke:#4169e1;" x="223.488" xlink:href="#m883db30ae1" y="269.117524"/>
     <use style="fill:#4169e1;stroke:#4169e1;" x="237.312" xlink:href="#m883db30ae1" y="265.922455"/>
     <use style="fill:#4169e1;stroke:#4169e1;" x="251.136" xlink:href="#m883db30ae1" y="243.125203"/>
     <use style="fill:#4169e1;stroke:#4169e1;" x="264.96" xlink:href="#m883db30ae1" y="59.279186"/>
     <use style="fill:#4169e1;stroke:#4169e1;" x="278.784" xlink:href="#m883db30ae1" y="258.323371"/>
     <use style="fill:#4169e1;stroke:#4169e1;" x="292.608" xlink:href="#m883db30ae1" y="267.994932"/>
     <use style="fill:#4169e1;stroke:#4169e1;" x="306.432" xlink:href="#m883db30ae1" y="269.29023"/>
     <use style="fill:#4169e1;stroke:#4169e1;" x="320.256" xlink:href="#m883db30ae1" y="269.80835"/>
     <use style="fill:#4169e1;stroke:#4169e1;" x="334.08" xlink:href="#m883db30ae1" y="270.067409"/>
     <use style="fill:#4169e1;stroke:#4169e1;" x="347.904" xlink:href="#m883db30ae1" y="270.153763"/>
     <use style="fill:#4169e1;stroke:#4169e1;" x="361.728" xlink:href="#m883db30ae1" y="270.153763"/>
     <use style="fill:#4169e1;stroke:#4169e1;" x="375.552" xlink:href="#m883db30ae1" y="270.153763"/>
     <use style="fill:#4169e1;stroke:#4169e1;" x="389.376" xlink:href="#m883db30ae1" y="270.153763"/>
     <use style="fill:#4169e1;stroke:#4169e1;" x="403.2" xlink:href="#m883db30ae1" y="269.981056"/>
     <use style="fill:#4169e1;stroke:#4169e1;" x="417.024" xlink:href="#m883db30ae1" y="270.153763"/>
     <use style="fill:#4169e1;stroke:#4169e1;" x="430.848" xlink:href="#m883db30ae1" y="269.894703"/>
    </g>
   </g>
   <g id="patch_3">
    <path d="M 92.16 276.48 
L 92.16 27.648 
" style="fill:none;stroke:#262626;stroke-linecap:square;stroke-linejoin:miter;stroke-width:0.8;"/>
   </g>
   <g id="patch_4">
    <path d="M 92.16 276.48 
L 437.76 276.48 
" style="fill:none;stroke:#262626;stroke-linecap:square;stroke-linejoin:miter;stroke-width:0.8;"/>
   </g>
   <g id="text_14">
    <text style="fill:#262626;font-family:DejaVu Sans;font-size:20px;font-style:normal;font-weight:bold;text-anchor:middle;" transform="rotate(-0, 264.96, 21.648)" x="264.96" y="21.648">sequence mutation freq</text>
   </g>
  </g>
 </g>
 <defs>
  <clipPath id="p96fe8d8aba">
   <rect height="248.832" width="345.6" x="92.16" y="27.648"/>
  </clipPath>
 </defs>
</svg>
