<?xml version="1.0" encoding="utf-8" standalone="no"?>
<!DOCTYPE svg PUBLIC "-//W3C//DTD SVG 1.1//EN"
  "http://www.w3.org/Graphics/SVG/1.1/DTD/svg11.dtd">
<!-- Created with matplotlib (http://matplotlib.org/) -->
<svg height="345.6pt" version="1.1" viewBox="0 0 460.8 345.6" width="460.8pt" xmlns="http://www.w3.org/2000/svg" xmlns:xlink="http://www.w3.org/1999/xlink">
 <defs>
  <style type="text/css">
*{stroke-linecap:butt;stroke-linejoin:round;}
  </style>
 </defs>
 <g id="figure_1">
  <g id="patch_1">
   <path d="M 0 345.6 
L 460.8 345.6 
L 460.8 0 
L 0 0 
z
" style="fill:#ffffff;"/>
  </g>
  <g id="axes_1">
   <g id="patch_2">
    <path d="M 92.16 276.48 
L 437.76 276.48 
L 437.76 27.648 
L 92.16 27.648 
z
" style="fill:#ffffff;"/>
   </g>
   <g id="matplotlib.axis_1">
    <g id="xtick_1">
     <g id="line2d_1">
      <defs>
       <path d="M 0 0 
L 0 3.5 
" id="mab286f325f" style="stroke:#262626;stroke-width:0.8;"/>
      </defs>
      <g>
       <use style="fill:#262626;stroke:#262626;stroke-width:0.8;" x="113.76" xlink:href="#mab286f325f" y="276.48"/>
      </g>
     </g>
     <g id="text_1">
      <text style="fill:#262626;font-family:DejaVu Sans;font-size:20px;font-style:normal;font-weight:normal;text-anchor:middle;" transform="rotate(-0, 113.76, 298.676875)" x="113.76" y="298.676875">0</text>
     </g>
    </g>
    <g id="xtick_2">
     <g id="line2d_2">
      <g>
       <use style="fill:#262626;stroke:#262626;stroke-width:0.8;" x="185.76" xlink:href="#mab286f325f" y="276.48"/>
      </g>
     </g>
     <g id="text_2">
      <text style="fill:#262626;font-family:DejaVu Sans;font-size:20px;font-style:normal;font-weight:normal;text-anchor:middle;" transform="rotate(-0, 185.76, 298.676875)" x="185.76" y="298.676875">5</text>
     </g>
    </g>
    <g id="xtick_3">
     <g id="line2d_3">
      <g>
       <use style="fill:#262626;stroke:#262626;stroke-width:0.8;" x="257.76" xlink:href="#mab286f325f" y="276.48"/>
      </g>
     </g>
     <g id="text_3">
      <text style="fill:#262626;font-family:DejaVu Sans;font-size:20px;font-style:normal;font-weight:normal;text-anchor:middle;" transform="rotate(-0, 257.76, 298.676875)" x="257.76" y="298.676875">10</text>
     </g>
    </g>
    <g id="xtick_4">
     <g id="line2d_4">
      <g>
       <use style="fill:#262626;stroke:#262626;stroke-width:0.8;" x="329.76" xlink:href="#mab286f325f" y="276.48"/>
      </g>
     </g>
     <g id="text_4">
      <text style="fill:#262626;font-family:DejaVu Sans;font-size:20px;font-style:normal;font-weight:normal;text-anchor:middle;" transform="rotate(-0, 329.76, 298.676875)" x="329.76" y="298.676875">15</text>
     </g>
    </g>
    <g id="xtick_5">
     <g id="line2d_5">
      <g>
       <use style="fill:#262626;stroke:#262626;stroke-width:0.8;" x="401.76" xlink:href="#mab286f325f" y="276.48"/>
      </g>
     </g>
     <g id="text_5">
      <text style="fill:#262626;font-family:DejaVu Sans;font-size:20px;font-style:normal;font-weight:normal;text-anchor:middle;" transform="rotate(-0, 401.76, 298.676875)" x="401.76" y="298.676875">20</text>
     </g>
    </g>
    <g id="text_6">
     <text style="fill:#262626;font-family:DejaVu Sans;font-size:20px;font-style:normal;font-weight:normal;text-anchor:middle;" transform="rotate(-0, 264.96, 322.033125)" x="264.96" y="322.033125">inferred - true</text>
    </g>
   </g>
   <g id="matplotlib.axis_2">
    <g id="ytick_1">
     <g id="line2d_6">
      <defs>
       <path d="M 0 0 
L -3.5 0 
" id="mbe3071b5bb" style="stroke:#262626;stroke-width:0.8;"/>
      </defs>
      <g>
       <use style="fill:#262626;stroke:#262626;stroke-width:0.8;" x="92.16" xlink:href="#mbe3071b5bb" y="270.153763"/>
      </g>
     </g>
     <g id="text_7">
      <text style="fill:#262626;font-family:DejaVu Sans;font-size:20px;font-style:normal;font-weight:normal;text-anchor:end;" transform="rotate(-0, 85.16, 277.7522)" x="85.16" y="277.7522">0</text>
     </g>
    </g>
    <g id="ytick_2">
     <g id="line2d_7">
      <g>
       <use style="fill:#262626;stroke:#262626;stroke-width:0.8;" x="92.16" xlink:href="#mbe3071b5bb" y="198.010562"/>
      </g>
     </g>
     <g id="text_8">
      <text style="fill:#262626;font-family:DejaVu Sans;font-size:20px;font-style:normal;font-weight:normal;text-anchor:end;" transform="rotate(-0, 85.16, 205.608999)" x="85.16" y="205.608999">1000</text>
     </g>
    </g>
    <g id="ytick_3">
     <g id="line2d_8">
      <g>
       <use style="fill:#262626;stroke:#262626;stroke-width:0.8;" x="92.16" xlink:href="#mbe3071b5bb" y="125.867361"/>
      </g>
     </g>
     <g id="text_9">
      <text style="fill:#262626;font-family:DejaVu Sans;font-size:20px;font-style:normal;font-weight:normal;text-anchor:end;" transform="rotate(-0, 85.16, 133.465798)" x="85.16" y="133.465798">2000</text>
     </g>
    </g>
    <g id="ytick_4">
     <g id="line2d_9">
      <g>
       <use style="fill:#262626;stroke:#262626;stroke-width:0.8;" x="92.16" xlink:href="#mbe3071b5bb" y="53.72416"/>
      </g>
     </g>
     <g id="text_10">
      <text style="fill:#262626;font-family:DejaVu Sans;font-size:20px;font-style:normal;font-weight:normal;text-anchor:end;" transform="rotate(-0, 85.16, 61.322597)" x="85.16" y="61.322597">3000</text>
     </g>
    </g>
    <g id="text_11">
     <text style="fill:#262626;font-family:DejaVu Sans;font-size:20px;font-style:normal;font-weight:normal;text-anchor:middle;" transform="rotate(-90, 26.100625, 152.064)" x="26.100625" y="152.064">counts</text>
    </g>
   </g>
   <g id="line2d_10">
    <path clip-path="url(#p4d68139a45)" d="M 99.36 269.720904 
L 113.76 59.279186 
L 128.16 268.422326 
L 142.56 268.855185 
L 156.96 269.504474 
L 171.36 270.009476 
L 185.76 269.504474 
L 200.16 269.86519 
L 214.56 270.153763 
L 228.96 270.153763 
L 243.36 270.153763 
L 257.76 270.153763 
L 272.16 270.153763 
L 286.56 270.08162 
L 300.96 270.153763 
L 315.36 270.08162 
L 329.76 270.08162 
L 344.16 270.08162 
L 358.56 270.153763 
L 372.96 270.153763 
L 387.36 270.153763 
L 401.76 270.153763 
L 416.16 270.153763 
L 430.56 270.08162 
" style="fill:none;stroke:#4169e1;stroke-linecap:round;stroke-width:3;"/>
    <defs>
     <path d="M 0 3.25 
C 0.86191 3.25 1.688635 2.907559 2.298097 2.298097 
C 2.907559 1.688635 3.25 0.86191 3.25 0 
C 3.25 -0.86191 2.907559 -1.688635 2.298097 -2.298097 
C 1.688635 -2.907559 0.86191 -3.25 0 -3.25 
C -0.86191 -3.25 -1.688635 -2.907559 -2.298097 -2.298097 
C -2.907559 -1.688635 -3.25 -0.86191 -3.25 0 
C -3.25 0.86191 -2.907559 1.688635 -2.298097 2.298097 
C -1.688635 2.907559 -0.86191 3.25 0 3.25 
z
" id="m9e29394d34" style="stroke:#4169e1;"/>
    </defs>
    <g clip-path="url(#p4d68139a45)">
     <use style="fill:#4169e1;stroke:#4169e1;" x="99.36" xlink:href="#m9e29394d34" y="269.720904"/>
     <use style="fill:#4169e1;stroke:#4169e1;" x="113.76" xlink:href="#m9e29394d34" y="59.279186"/>
     <use style="fill:#4169e1;stroke:#4169e1;" x="128.16" xlink:href="#m9e29394d34" y="268.422326"/>
     <use style="fill:#4169e1;stroke:#4169e1;" x="142.56" xlink:href="#m9e29394d34" y="268.855185"/>
     <use style="fill:#4169e1;stroke:#4169e1;" x="156.96" xlink:href="#m9e29394d34" y="269.504474"/>
     <use style="fill:#4169e1;stroke:#4169e1;" x="171.36" xlink:href="#m9e29394d34" y="270.009476"/>
     <use style="fill:#4169e1;stroke:#4169e1;" x="185.76" xlink:href="#m9e29394d34" y="269.504474"/>
     <use style="fill:#4169e1;stroke:#4169e1;" x="200.16" xlink:href="#m9e29394d34" y="269.86519"/>
     <use style="fill:#4169e1;stroke:#4169e1;" x="214.56" xlink:href="#m9e29394d34" y="270.153763"/>
     <use style="fill:#4169e1;stroke:#4169e1;" x="228.96" xlink:href="#m9e29394d34" y="270.153763"/>
     <use style="fill:#4169e1;stroke:#4169e1;" x="243.36" xlink:href="#m9e29394d34" y="270.153763"/>
     <use style="fill:#4169e1;stroke:#4169e1;" x="257.76" xlink:href="#m9e29394d34" y="270.153763"/>
     <use style="fill:#4169e1;stroke:#4169e1;" x="272.16" xlink:href="#m9e29394d34" y="270.153763"/>
     <use style="fill:#4169e1;stroke:#4169e1;" x="286.56" xlink:href="#m9e29394d34" y="270.08162"/>
     <use style="fill:#4169e1;stroke:#4169e1;" x="300.96" xlink:href="#m9e29394d34" y="270.153763"/>
     <use style="fill:#4169e1;stroke:#4169e1;" x="315.36" xlink:href="#m9e29394d34" y="270.08162"/>
     <use style="fill:#4169e1;stroke:#4169e1;" x="329.76" xlink:href="#m9e29394d34" y="270.08162"/>
     <use style="fill:#4169e1;stroke:#4169e1;" x="344.16" xlink:href="#m9e29394d34" y="270.08162"/>
     <use style="fill:#4169e1;stroke:#4169e1;" x="358.56" xlink:href="#m9e29394d34" y="270.153763"/>
     <use style="fill:#4169e1;stroke:#4169e1;" x="372.96" xlink:href="#m9e29394d34" y="270.153763"/>
     <use style="fill:#4169e1;stroke:#4169e1;" x="387.36" xlink:href="#m9e29394d34" y="270.153763"/>
     <use style="fill:#4169e1;stroke:#4169e1;" x="401.76" xlink:href="#m9e29394d34" y="270.153763"/>
     <use style="fill:#4169e1;stroke:#4169e1;" x="416.16" xlink:href="#m9e29394d34" y="270.153763"/>
     <use style="fill:#4169e1;stroke:#4169e1;" x="430.56" xlink:href="#m9e29394d34" y="270.08162"/>
    </g>
   </g>
   <g id="patch_3">
    <path d="M 92.16 276.48 
L 92.16 27.648 
" style="fill:none;stroke:#262626;stroke-linecap:square;stroke-linejoin:miter;stroke-width:0.8;"/>
   </g>
   <g id="patch_4">
    <path d="M 92.16 276.48 
L 437.76 276.48 
" style="fill:none;stroke:#262626;stroke-linecap:square;stroke-linejoin:miter;stroke-width:0.8;"/>
   </g>
   <g id="text_12">
    <text style="fill:#262626;font-family:DejaVu Sans;font-size:20px;font-style:normal;font-weight:bold;text-anchor:middle;" transform="rotate(-0, 264.96, 21.648)" x="264.96" y="21.648">V mutations</text>
   </g>
  </g>
 </g>
 <defs>
  <clipPath id="p4d68139a45">
   <rect height="248.832" width="345.6" x="92.16" y="27.648"/>
  </clipPath>
 </defs>
</svg>
