<?xml version="1.0" encoding="utf-8" standalone="no"?>
<!DOCTYPE svg PUBLIC "-//W3C//DTD SVG 1.1//EN"
  "http://www.w3.org/Graphics/SVG/1.1/DTD/svg11.dtd">
<!-- Created with matplotlib (http://matplotlib.org/) -->
<svg height="288pt" version="1.1" viewBox="0 0 1008 288" width="1008pt" xmlns="http://www.w3.org/2000/svg" xmlns:xlink="http://www.w3.org/1999/xlink">
 <defs>
  <style type="text/css">
*{stroke-linecap:butt;stroke-linejoin:round;}
  </style>
 </defs>
 <g id="figure_1">
  <g id="patch_1">
   <path d="M 0 288 
L 1008 288 
L 1008 0 
L 0 0 
z
" style="fill:#ffffff;"/>
  </g>
  <g id="axes_1">
   <g id="patch_2">
    <path d="M 201.6 230.4 
L 957.6 230.4 
L 957.6 23.04 
L 201.6 23.04 
z
" style="fill:#ffffff;"/>
   </g>
   <g id="matplotlib.axis_1">
    <g id="xtick_1">
     <g id="line2d_1">
      <defs>
       <path d="M 0 0 
L 0 3.5 
" id="m75c47032a6" style="stroke:#262626;stroke-width:0.8;"/>
      </defs>
      <g>
       <use style="fill:#262626;stroke:#262626;stroke-width:0.8;" x="208.732075" xlink:href="#m75c47032a6" y="230.4"/>
      </g>
     </g>
     <g id="text_1">
      <text style="fill:#262626;font-family:DejaVu Sans;font-size:20px;font-style:normal;font-weight:normal;text-anchor:middle;" transform="rotate(-0, 208.732075, 252.596875)" x="208.732075" y="252.596875">0</text>
     </g>
    </g>
    <g id="xtick_2">
     <g id="line2d_2">
      <g>
       <use style="fill:#262626;stroke:#262626;stroke-width:0.8;" x="351.373585" xlink:href="#m75c47032a6" y="230.4"/>
      </g>
     </g>
     <g id="text_2">
      <text style="fill:#262626;font-family:DejaVu Sans;font-size:20px;font-style:normal;font-weight:normal;text-anchor:middle;" transform="rotate(-0, 351.373585, 252.596875)" x="351.373585" y="252.596875">10</text>
     </g>
    </g>
    <g id="xtick_3">
     <g id="line2d_3">
      <g>
       <use style="fill:#262626;stroke:#262626;stroke-width:0.8;" x="494.015094" xlink:href="#m75c47032a6" y="230.4"/>
      </g>
     </g>
     <g id="text_3">
      <text style="fill:#262626;font-family:DejaVu Sans;font-size:20px;font-style:normal;font-weight:normal;text-anchor:middle;" transform="rotate(-0, 494.015094, 252.596875)" x="494.015094" y="252.596875">20</text>
     </g>
    </g>
    <g id="xtick_4">
     <g id="line2d_4">
      <g>
       <use style="fill:#262626;stroke:#262626;stroke-width:0.8;" x="636.656604" xlink:href="#m75c47032a6" y="230.4"/>
      </g>
     </g>
     <g id="text_4">
      <text style="fill:#262626;font-family:DejaVu Sans;font-size:20px;font-style:normal;font-weight:normal;text-anchor:middle;" transform="rotate(-0, 636.656604, 252.596875)" x="636.656604" y="252.596875">30</text>
     </g>
    </g>
    <g id="xtick_5">
     <g id="line2d_5">
      <g>
       <use style="fill:#262626;stroke:#262626;stroke-width:0.8;" x="779.298113" xlink:href="#m75c47032a6" y="230.4"/>
      </g>
     </g>
     <g id="text_5">
      <text style="fill:#262626;font-family:DejaVu Sans;font-size:20px;font-style:normal;font-weight:normal;text-anchor:middle;" transform="rotate(-0, 779.298113, 252.596875)" x="779.298113" y="252.596875">40</text>
     </g>
    </g>
    <g id="xtick_6">
     <g id="line2d_6">
      <g>
       <use style="fill:#262626;stroke:#262626;stroke-width:0.8;" x="921.939623" xlink:href="#m75c47032a6" y="230.4"/>
      </g>
     </g>
     <g id="text_6">
      <text style="fill:#262626;font-family:DejaVu Sans;font-size:20px;font-style:normal;font-weight:normal;text-anchor:middle;" transform="rotate(-0, 921.939623, 252.596875)" x="921.939623" y="252.596875">50</text>
     </g>
    </g>
    <g id="text_7">
     <text style="fill:#262626;font-family:DejaVu Sans;font-size:20px;font-style:normal;font-weight:normal;text-anchor:middle;" transform="rotate(-0, 579.6, 275.953125)" x="579.6" y="275.953125">position</text>
    </g>
   </g>
   <g id="matplotlib.axis_2">
    <g id="ytick_1">
     <g id="line2d_7">
      <defs>
       <path d="M 0 0 
L -3.5 0 
" id="m8644e86809" style="stroke:#262626;stroke-width:0.8;"/>
      </defs>
      <g>
       <use style="fill:#262626;stroke:#262626;stroke-width:0.8;" x="201.6" xlink:href="#m8644e86809" y="225.128136"/>
      </g>
     </g>
     <g id="text_8">
      <text style="fill:#262626;font-family:DejaVu Sans;font-size:20px;font-style:normal;font-weight:normal;text-anchor:end;" transform="rotate(-0, 194.6, 232.726573)" x="194.6" y="232.726573">0.00</text>
     </g>
    </g>
    <g id="ytick_2">
     <g id="line2d_8">
      <g>
       <use style="fill:#262626;stroke:#262626;stroke-width:0.8;" x="201.6" xlink:href="#m8644e86809" y="147.829702"/>
      </g>
     </g>
     <g id="text_9">
      <text style="fill:#262626;font-family:DejaVu Sans;font-size:20px;font-style:normal;font-weight:normal;text-anchor:end;" transform="rotate(-0, 194.6, 155.428139)" x="194.6" y="155.428139">0.05</text>
     </g>
    </g>
    <g id="ytick_3">
     <g id="line2d_9">
      <g>
       <use style="fill:#262626;stroke:#262626;stroke-width:0.8;" x="201.6" xlink:href="#m8644e86809" y="70.531268"/>
      </g>
     </g>
     <g id="text_10">
      <text style="fill:#262626;font-family:DejaVu Sans;font-size:20px;font-style:normal;font-weight:normal;text-anchor:end;" transform="rotate(-0, 194.6, 78.129705)" x="194.6" y="78.129705">0.10</text>
     </g>
    </g>
    <g id="text_11">
     <text style="fill:#262626;font-family:DejaVu Sans;font-size:20px;font-style:normal;font-weight:normal;text-anchor:middle;" transform="rotate(-90, 141.909375, 126.72)" x="141.909375" y="126.72">mut freq</text>
    </g>
   </g>
   <g id="LineCollection_1">
    <path clip-path="url(#p46664641c8)" d="M 208.732075 289 
L 208.732075 135.33777 
" style="fill:none;stroke:#4169e1;stroke-width:3;"/>
    <path clip-path="url(#p46664641c8)" d="M 222.996226 228.325007 
L 222.996226 221.931264 
" style="fill:none;stroke:#4169e1;stroke-width:3;"/>
    <path clip-path="url(#p46664641c8)" d="M 237.260377 220.22061 
L 237.260377 209.626834 
" style="fill:none;stroke:#4169e1;stroke-width:3;"/>
    <path clip-path="url(#p46664641c8)" d="M 251.524528 228.247724 
L 251.524528 222.008547 
" style="fill:none;stroke:#4169e1;stroke-width:3;"/>
    <path clip-path="url(#p46664641c8)" d="M 265.788679 172.536221 
L 265.788679 148.266957 
" style="fill:none;stroke:#4169e1;stroke-width:3;"/>
    <path clip-path="url(#p46664641c8)" d="M 280.05283 222.389108 
L 280.05283 213.662244 
" style="fill:none;stroke:#4169e1;stroke-width:3;"/>
    <path clip-path="url(#p46664641c8)" d="M 294.316981 202.776084 
L 294.316981 186.113491 
" style="fill:none;stroke:#4169e1;stroke-width:3;"/>
    <path clip-path="url(#p46664641c8)" d="M 308.581132 134.734847 
L 308.581132 105.344414 
" style="fill:none;stroke:#4169e1;stroke-width:3;"/>
    <path clip-path="url(#p46664641c8)" d="M 322.845283 219.0957 
L 322.845283 208.916417 
" style="fill:none;stroke:#4169e1;stroke-width:3;"/>
    <path clip-path="url(#p46664641c8)" d="M 337.109434 67.43159 
L 337.109434 31.367054 
" style="fill:none;stroke:#4169e1;stroke-width:3;"/>
    <path clip-path="url(#p46664641c8)" d="M 351.373585 224.238126 
L 351.373585 217.65025 
" style="fill:none;stroke:#4169e1;stroke-width:3;"/>
    <path clip-path="url(#p46664641c8)" d="M 365.637736 222.720099 
L 365.637736 215.035078 
" style="fill:none;stroke:#4169e1;stroke-width:3;"/>
    <path clip-path="url(#p46664641c8)" d="M 379.901887 217.825935 
L 379.901887 207.528828 
" style="fill:none;stroke:#4169e1;stroke-width:3;"/>
    <path clip-path="url(#p46664641c8)" d="M 394.166038 210.890695 
L 394.166038 197.918695 
" style="fill:none;stroke:#4169e1;stroke-width:3;"/>
    <path clip-path="url(#p46664641c8)" d="M 408.430189 214.403743 
L 408.430189 202.695023 
" style="fill:none;stroke:#4169e1;stroke-width:3;"/>
    <path clip-path="url(#p46664641c8)" d="M 422.69434 175.905796 
L 422.69434 154.635944 
" style="fill:none;stroke:#4169e1;stroke-width:3;"/>
    <path clip-path="url(#p46664641c8)" d="M 436.958491 145.293779 
L 436.958491 119.198565 
" style="fill:none;stroke:#4169e1;stroke-width:3;"/>
    <path clip-path="url(#p46664641c8)" d="M 451.222642 196.513639 
L 451.222642 179.536136 
" style="fill:none;stroke:#4169e1;stroke-width:3;"/>
    <path clip-path="url(#p46664641c8)" d="M 465.486792 219.540313 
L 465.486792 210.103042 
" style="fill:none;stroke:#4169e1;stroke-width:3;"/>
    <path clip-path="url(#p46664641c8)" d="M 479.750943 227.700491 
L 479.750943 222.55578 
" style="fill:none;stroke:#4169e1;stroke-width:3;"/>
    <path clip-path="url(#p46664641c8)" d="M 494.015094 227.700491 
L 494.015094 222.55578 
" style="fill:none;stroke:#4169e1;stroke-width:3;"/>
    <path clip-path="url(#p46664641c8)" d="M 508.279245 227.700491 
L 508.279245 222.55578 
" style="fill:none;stroke:#4169e1;stroke-width:3;"/>
    <path clip-path="url(#p46664641c8)" d="M 522.543396 225.6392 
L 522.543396 220.494488 
" style="fill:none;stroke:#4169e1;stroke-width:3;"/>
    <path clip-path="url(#p46664641c8)" d="M 536.807547 216.179957 
L 536.807547 205.218232 
" style="fill:none;stroke:#4169e1;stroke-width:3;"/>
    <path clip-path="url(#p46664641c8)" d="M 551.071698 149.252894 
L 551.071698 123.732302 
" style="fill:none;stroke:#4169e1;stroke-width:3;"/>
    <path clip-path="url(#p46664641c8)" d="M 565.335849 222.745975 
L 565.335849 215.142547 
" style="fill:none;stroke:#4169e1;stroke-width:3;"/>
    <path clip-path="url(#p46664641c8)" d="M 579.6 225.6392 
L 579.6 220.494488 
" style="fill:none;stroke:#4169e1;stroke-width:3;"/>
    <path clip-path="url(#p46664641c8)" d="M 593.864151 221.16826 
L 593.864151 212.597678 
" style="fill:none;stroke:#4169e1;stroke-width:3;"/>
    <path clip-path="url(#p46664641c8)" d="M 608.128302 219.540313 
L 608.128302 210.103042 
" style="fill:none;stroke:#4169e1;stroke-width:3;"/>
    <path clip-path="url(#p46664641c8)" d="M 622.392453 222.745975 
L 622.392453 215.142547 
" style="fill:none;stroke:#4169e1;stroke-width:3;"/>
    <path clip-path="url(#p46664641c8)" d="M 636.656604 212.722528 
L 636.656604 200.430494 
" style="fill:none;stroke:#4169e1;stroke-width:3;"/>
    <path clip-path="url(#p46664641c8)" d="M 650.920755 162.672139 
L 650.920755 139.171139 
" style="fill:none;stroke:#4169e1;stroke-width:3;"/>
    <path clip-path="url(#p46664641c8)" d="M 665.184906 217.874845 
L 665.184906 207.645928 
" style="fill:none;stroke:#4169e1;stroke-width:3;"/>
    <path clip-path="url(#p46664641c8)" d="M 679.449057 214.46119 
L 679.449057 202.814416 
" style="fill:none;stroke:#4169e1;stroke-width:3;"/>
    <path clip-path="url(#p46664641c8)" d="M 693.713208 210.966952 
L 693.713208 198.063488 
" style="fill:none;stroke:#4169e1;stroke-width:3;"/>
    <path clip-path="url(#p46664641c8)" d="M 707.977358 207.413764 
L 707.977358 193.371509 
" style="fill:none;stroke:#4169e1;stroke-width:3;"/>
    <path clip-path="url(#p46664641c8)" d="M 722.241509 129.925604 
L 722.241509 101.833761 
" style="fill:none;stroke:#4169e1;stroke-width:3;"/>
    <path clip-path="url(#p46664641c8)" d="M 736.50566 190.967806 
L 736.50566 172.714219 
" style="fill:none;stroke:#4169e1;stroke-width:3;"/>
    <path clip-path="url(#p46664641c8)" d="M 750.769811 155.016686 
L 750.769811 130.33626 
" style="fill:none;stroke:#4169e1;stroke-width:3;"/>
    <path clip-path="url(#p46664641c8)" d="M 765.033962 139.609562 
L 765.033962 112.762718 
" style="fill:none;stroke:#4169e1;stroke-width:3;"/>
    <path clip-path="url(#p46664641c8)" d="M 779.298113 181.625159 
L 779.298113 161.443951 
" style="fill:none;stroke:#4169e1;stroke-width:3;"/>
    <path clip-path="url(#p46664641c8)" d="M 793.562264 214.46119 
L 793.562264 202.814416 
" style="fill:none;stroke:#4169e1;stroke-width:3;"/>
    <path clip-path="url(#p46664641c8)" d="M 807.826415 227.700491 
L 807.826415 222.55578 
" style="fill:none;stroke:#4169e1;stroke-width:3;"/>
    <path clip-path="url(#p46664641c8)" d="M 822.090566 141.541668 
L 822.090566 114.953196 
" style="fill:none;stroke:#4169e1;stroke-width:3;"/>
    <path clip-path="url(#p46664641c8)" d="M 836.354717 141.541668 
L 836.354717 114.953196 
" style="fill:none;stroke:#4169e1;stroke-width:3;"/>
    <path clip-path="url(#p46664641c8)" d="M 850.618868 227.700491 
L 850.618868 222.55578 
" style="fill:none;stroke:#4169e1;stroke-width:3;"/>
    <path clip-path="url(#p46664641c8)" d="M 864.883019 212.722528 
L 864.883019 200.430494 
" style="fill:none;stroke:#4169e1;stroke-width:3;"/>
    <path clip-path="url(#p46664641c8)" d="M 879.14717 214.46119 
L 879.14717 202.814416 
" style="fill:none;stroke:#4169e1;stroke-width:3;"/>
    <path clip-path="url(#p46664641c8)" d="M 893.411321 170.288814 
L 893.411321 148.044796 
" style="fill:none;stroke:#4169e1;stroke-width:3;"/>
    <path clip-path="url(#p46664641c8)" d="M 907.675472 139.609562 
L 907.675472 112.762718 
" style="fill:none;stroke:#4169e1;stroke-width:3;"/>
    <path clip-path="url(#p46664641c8)" d="M 921.939623 225.6392 
L 921.939623 220.494488 
" style="fill:none;stroke:#4169e1;stroke-width:3;"/>
    <path clip-path="url(#p46664641c8)" d="M 936.203774 209.196759 
L 936.203774 195.711098 
" style="fill:none;stroke:#4169e1;stroke-width:3;"/>
    <path clip-path="url(#p46664641c8)" d="M 950.467925 198.350039 
L 950.467925 181.822319 
" style="fill:none;stroke:#4169e1;stroke-width:3;"/>
   </g>
   <g id="line2d_10">
    <path clip-path="url(#p46664641c8)" d="M 479.750943 242.701017 
L 479.750943 137.263729 
" style="fill:none;stroke:#000000;stroke-dasharray:11.1,4.8;stroke-dashoffset:0;stroke-width:3;"/>
   </g>
   <g id="line2d_11">
    <path clip-path="url(#p46664641c8)" d="M 208.732075 225.128136 
L 222.996226 225.128136 
L 237.260377 214.923722 
L 251.524528 225.128136 
L 265.788679 160.401589 
L 280.05283 218.025676 
L 294.316981 194.444788 
L 308.581132 120.03963 
L 322.845283 214.006059 
L 337.109434 49.399322 
L 351.373585 220.944188 
L 365.637736 218.877588 
L 379.901887 212.677381 
L 394.166038 204.404695 
L 408.430189 208.549383 
L 422.69434 165.27087 
L 436.958491 132.246172 
L 451.222642 188.024887 
L 465.486792 214.821678 
L 479.750943 225.128136 
L 494.015094 225.128136 
L 508.279245 225.128136 
L 522.543396 223.066844 
L 536.807547 210.699095 
L 551.071698 136.492598 
L 565.335849 218.944261 
L 579.6 223.066844 
L 593.864151 216.882969 
L 608.128302 214.821678 
L 622.392453 218.944261 
L 636.656604 206.576511 
L 650.920755 150.921639 
L 665.184906 212.760386 
L 679.449057 208.637803 
L 693.713208 204.51522 
L 707.977358 200.392637 
L 722.241509 115.879682 
L 736.50566 181.841013 
L 750.769811 142.676473 
L 765.033962 126.18614 
L 779.298113 171.534555 
L 793.562264 208.637803 
L 807.826415 225.128136 
L 822.090566 128.247432 
L 836.354717 128.247432 
L 850.618868 225.128136 
L 864.883019 206.576511 
L 879.14717 208.637803 
L 893.411321 159.166805 
L 907.675472 126.18614 
L 921.939623 223.066844 
L 936.203774 202.453928 
L 950.467925 190.086179 
" style="fill:none;stroke:#4169e1;stroke-linecap:round;stroke-width:3;"/>
    <defs>
     <path d="M 0 3.25 
C 0.86191 3.25 1.688635 2.907559 2.298097 2.298097 
C 2.907559 1.688635 3.25 0.86191 3.25 0 
C 3.25 -0.86191 2.907559 -1.688635 2.298097 -2.298097 
C 1.688635 -2.907559 0.86191 -3.25 0 -3.25 
C -0.86191 -3.25 -1.688635 -2.907559 -2.298097 -2.298097 
C -2.907559 -1.688635 -3.25 -0.86191 -3.25 0 
C -3.25 0.86191 -2.907559 1.688635 -2.298097 2.298097 
C -1.688635 2.907559 -0.86191 3.25 0 3.25 
z
" id="m9727c736fa" style="stroke:#4169e1;"/>
    </defs>
    <g clip-path="url(#p46664641c8)">
     <use style="fill:#4169e1;stroke:#4169e1;" x="208.732075" xlink:href="#m9727c736fa" y="225.128136"/>
     <use style="fill:#4169e1;stroke:#4169e1;" x="222.996226" xlink:href="#m9727c736fa" y="225.128136"/>
     <use style="fill:#4169e1;stroke:#4169e1;" x="237.260377" xlink:href="#m9727c736fa" y="214.923722"/>
     <use style="fill:#4169e1;stroke:#4169e1;" x="251.524528" xlink:href="#m9727c736fa" y="225.128136"/>
     <use style="fill:#4169e1;stroke:#4169e1;" x="265.788679" xlink:href="#m9727c736fa" y="160.401589"/>
     <use style="fill:#4169e1;stroke:#4169e1;" x="280.05283" xlink:href="#m9727c736fa" y="218.025676"/>
     <use style="fill:#4169e1;stroke:#4169e1;" x="294.316981" xlink:href="#m9727c736fa" y="194.444788"/>
     <use style="fill:#4169e1;stroke:#4169e1;" x="308.581132" xlink:href="#m9727c736fa" y="120.03963"/>
     <use style="fill:#4169e1;stroke:#4169e1;" x="322.845283" xlink:href="#m9727c736fa" y="214.006059"/>
     <use style="fill:#4169e1;stroke:#4169e1;" x="337.109434" xlink:href="#m9727c736fa" y="49.399322"/>
     <use style="fill:#4169e1;stroke:#4169e1;" x="351.373585" xlink:href="#m9727c736fa" y="220.944188"/>
     <use style="fill:#4169e1;stroke:#4169e1;" x="365.637736" xlink:href="#m9727c736fa" y="218.877588"/>
     <use style="fill:#4169e1;stroke:#4169e1;" x="379.901887" xlink:href="#m9727c736fa" y="212.677381"/>
     <use style="fill:#4169e1;stroke:#4169e1;" x="394.166038" xlink:href="#m9727c736fa" y="204.404695"/>
     <use style="fill:#4169e1;stroke:#4169e1;" x="408.430189" xlink:href="#m9727c736fa" y="208.549383"/>
     <use style="fill:#4169e1;stroke:#4169e1;" x="422.69434" xlink:href="#m9727c736fa" y="165.27087"/>
     <use style="fill:#4169e1;stroke:#4169e1;" x="436.958491" xlink:href="#m9727c736fa" y="132.246172"/>
     <use style="fill:#4169e1;stroke:#4169e1;" x="451.222642" xlink:href="#m9727c736fa" y="188.024887"/>
     <use style="fill:#4169e1;stroke:#4169e1;" x="465.486792" xlink:href="#m9727c736fa" y="214.821678"/>
     <use style="fill:#4169e1;stroke:#4169e1;" x="479.750943" xlink:href="#m9727c736fa" y="225.128136"/>
     <use style="fill:#4169e1;stroke:#4169e1;" x="494.015094" xlink:href="#m9727c736fa" y="225.128136"/>
     <use style="fill:#4169e1;stroke:#4169e1;" x="508.279245" xlink:href="#m9727c736fa" y="225.128136"/>
     <use style="fill:#4169e1;stroke:#4169e1;" x="522.543396" xlink:href="#m9727c736fa" y="223.066844"/>
     <use style="fill:#4169e1;stroke:#4169e1;" x="536.807547" xlink:href="#m9727c736fa" y="210.699095"/>
     <use style="fill:#4169e1;stroke:#4169e1;" x="551.071698" xlink:href="#m9727c736fa" y="136.492598"/>
     <use style="fill:#4169e1;stroke:#4169e1;" x="565.335849" xlink:href="#m9727c736fa" y="218.944261"/>
     <use style="fill:#4169e1;stroke:#4169e1;" x="579.6" xlink:href="#m9727c736fa" y="223.066844"/>
     <use style="fill:#4169e1;stroke:#4169e1;" x="593.864151" xlink:href="#m9727c736fa" y="216.882969"/>
     <use style="fill:#4169e1;stroke:#4169e1;" x="608.128302" xlink:href="#m9727c736fa" y="214.821678"/>
     <use style="fill:#4169e1;stroke:#4169e1;" x="622.392453" xlink:href="#m9727c736fa" y="218.944261"/>
     <use style="fill:#4169e1;stroke:#4169e1;" x="636.656604" xlink:href="#m9727c736fa" y="206.576511"/>
     <use style="fill:#4169e1;stroke:#4169e1;" x="650.920755" xlink:href="#m9727c736fa" y="150.921639"/>
     <use style="fill:#4169e1;stroke:#4169e1;" x="665.184906" xlink:href="#m9727c736fa" y="212.760386"/>
     <use style="fill:#4169e1;stroke:#4169e1;" x="679.449057" xlink:href="#m9727c736fa" y="208.637803"/>
     <use style="fill:#4169e1;stroke:#4169e1;" x="693.713208" xlink:href="#m9727c736fa" y="204.51522"/>
     <use style="fill:#4169e1;stroke:#4169e1;" x="707.977358" xlink:href="#m9727c736fa" y="200.392637"/>
     <use style="fill:#4169e1;stroke:#4169e1;" x="722.241509" xlink:href="#m9727c736fa" y="115.879682"/>
     <use style="fill:#4169e1;stroke:#4169e1;" x="736.50566" xlink:href="#m9727c736fa" y="181.841013"/>
     <use style="fill:#4169e1;stroke:#4169e1;" x="750.769811" xlink:href="#m9727c736fa" y="142.676473"/>
     <use style="fill:#4169e1;stroke:#4169e1;" x="765.033962" xlink:href="#m9727c736fa" y="126.18614"/>
     <use style="fill:#4169e1;stroke:#4169e1;" x="779.298113" xlink:href="#m9727c736fa" y="171.534555"/>
     <use style="fill:#4169e1;stroke:#4169e1;" x="793.562264" xlink:href="#m9727c736fa" y="208.637803"/>
     <use style="fill:#4169e1;stroke:#4169e1;" x="807.826415" xlink:href="#m9727c736fa" y="225.128136"/>
     <use style="fill:#4169e1;stroke:#4169e1;" x="822.090566" xlink:href="#m9727c736fa" y="128.247432"/>
     <use style="fill:#4169e1;stroke:#4169e1;" x="836.354717" xlink:href="#m9727c736fa" y="128.247432"/>
     <use style="fill:#4169e1;stroke:#4169e1;" x="850.618868" xlink:href="#m9727c736fa" y="225.128136"/>
     <use style="fill:#4169e1;stroke:#4169e1;" x="864.883019" xlink:href="#m9727c736fa" y="206.576511"/>
     <use style="fill:#4169e1;stroke:#4169e1;" x="879.14717" xlink:href="#m9727c736fa" y="208.637803"/>
     <use style="fill:#4169e1;stroke:#4169e1;" x="893.411321" xlink:href="#m9727c736fa" y="159.166805"/>
     <use style="fill:#4169e1;stroke:#4169e1;" x="907.675472" xlink:href="#m9727c736fa" y="126.18614"/>
     <use style="fill:#4169e1;stroke:#4169e1;" x="921.939623" xlink:href="#m9727c736fa" y="223.066844"/>
     <use style="fill:#4169e1;stroke:#4169e1;" x="936.203774" xlink:href="#m9727c736fa" y="202.453928"/>
     <use style="fill:#4169e1;stroke:#4169e1;" x="950.467925" xlink:href="#m9727c736fa" y="190.086179"/>
    </g>
   </g>
   <g id="patch_3">
    <path d="M 201.6 230.4 
L 201.6 23.04 
" style="fill:none;stroke:#262626;stroke-linecap:square;stroke-linejoin:miter;stroke-width:0.8;"/>
   </g>
   <g id="patch_4">
    <path d="M 201.6 230.4 
L 957.6 230.4 
" style="fill:none;stroke:#262626;stroke-linecap:square;stroke-linejoin:miter;stroke-width:0.8;"/>
   </g>
   <g id="text_12">
    <text style="fill:#262626;font-family:DejaVu Sans;font-size:20px;font-style:normal;font-weight:bold;text-anchor:middle;" transform="rotate(-0, 579.6, 17.04)" x="579.6" y="17.04">IGHJ2*01</text>
   </g>
  </g>
 </g>
 <defs>
  <clipPath id="p46664641c8">
   <rect height="207.36" width="756" x="201.6" y="23.04"/>
  </clipPath>
 </defs>
</svg>
