<?xml version="1.0" encoding="utf-8" standalone="no"?>
<!DOCTYPE svg PUBLIC "-//W3C//DTD SVG 1.1//EN"
  "http://www.w3.org/Graphics/SVG/1.1/DTD/svg11.dtd">
<!-- Created with matplotlib (http://matplotlib.org/) -->
<svg height="288pt" version="1.1" viewBox="0 0 1008 288" width="1008pt" xmlns="http://www.w3.org/2000/svg" xmlns:xlink="http://www.w3.org/1999/xlink">
 <defs>
  <style type="text/css">
*{stroke-linecap:butt;stroke-linejoin:round;}
  </style>
 </defs>
 <g id="figure_1">
  <g id="patch_1">
   <path d="M 0 288 
L 1008 288 
L 1008 0 
L 0 0 
z
" style="fill:#ffffff;"/>
  </g>
  <g id="axes_1">
   <g id="patch_2">
    <path d="M 201.6 230.4 
L 957.6 230.4 
L 957.6 23.04 
L 201.6 23.04 
z
" style="fill:#ffffff;"/>
   </g>
   <g id="matplotlib.axis_1">
    <g id="xtick_1">
     <g id="line2d_1">
      <defs>
       <path d="M 0 0 
L 0 3.5 
" id="m1f483db2c6" style="stroke:#262626;stroke-width:0.8;"/>
      </defs>
      <g>
       <use style="fill:#262626;stroke:#262626;stroke-width:0.8;" x="207.696774" xlink:href="#m1f483db2c6" y="230.4"/>
      </g>
     </g>
     <g id="text_1">
      <text style="fill:#262626;font-family:DejaVu Sans;font-size:20px;font-style:normal;font-weight:normal;text-anchor:middle;" transform="rotate(-0, 207.696774, 252.596875)" x="207.696774" y="252.596875">0</text>
     </g>
    </g>
    <g id="xtick_2">
     <g id="line2d_2">
      <g>
       <use style="fill:#262626;stroke:#262626;stroke-width:0.8;" x="329.632258" xlink:href="#m1f483db2c6" y="230.4"/>
      </g>
     </g>
     <g id="text_2">
      <text style="fill:#262626;font-family:DejaVu Sans;font-size:20px;font-style:normal;font-weight:normal;text-anchor:middle;" transform="rotate(-0, 329.632258, 252.596875)" x="329.632258" y="252.596875">10</text>
     </g>
    </g>
    <g id="xtick_3">
     <g id="line2d_3">
      <g>
       <use style="fill:#262626;stroke:#262626;stroke-width:0.8;" x="451.567742" xlink:href="#m1f483db2c6" y="230.4"/>
      </g>
     </g>
     <g id="text_3">
      <text style="fill:#262626;font-family:DejaVu Sans;font-size:20px;font-style:normal;font-weight:normal;text-anchor:middle;" transform="rotate(-0, 451.567742, 252.596875)" x="451.567742" y="252.596875">20</text>
     </g>
    </g>
    <g id="xtick_4">
     <g id="line2d_4">
      <g>
       <use style="fill:#262626;stroke:#262626;stroke-width:0.8;" x="573.503226" xlink:href="#m1f483db2c6" y="230.4"/>
      </g>
     </g>
     <g id="text_4">
      <text style="fill:#262626;font-family:DejaVu Sans;font-size:20px;font-style:normal;font-weight:normal;text-anchor:middle;" transform="rotate(-0, 573.503226, 252.596875)" x="573.503226" y="252.596875">30</text>
     </g>
    </g>
    <g id="xtick_5">
     <g id="line2d_5">
      <g>
       <use style="fill:#262626;stroke:#262626;stroke-width:0.8;" x="695.43871" xlink:href="#m1f483db2c6" y="230.4"/>
      </g>
     </g>
     <g id="text_5">
      <text style="fill:#262626;font-family:DejaVu Sans;font-size:20px;font-style:normal;font-weight:normal;text-anchor:middle;" transform="rotate(-0, 695.43871, 252.596875)" x="695.43871" y="252.596875">40</text>
     </g>
    </g>
    <g id="xtick_6">
     <g id="line2d_6">
      <g>
       <use style="fill:#262626;stroke:#262626;stroke-width:0.8;" x="817.374194" xlink:href="#m1f483db2c6" y="230.4"/>
      </g>
     </g>
     <g id="text_6">
      <text style="fill:#262626;font-family:DejaVu Sans;font-size:20px;font-style:normal;font-weight:normal;text-anchor:middle;" transform="rotate(-0, 817.374194, 252.596875)" x="817.374194" y="252.596875">50</text>
     </g>
    </g>
    <g id="xtick_7">
     <g id="line2d_7">
      <g>
       <use style="fill:#262626;stroke:#262626;stroke-width:0.8;" x="939.309677" xlink:href="#m1f483db2c6" y="230.4"/>
      </g>
     </g>
     <g id="text_7">
      <text style="fill:#262626;font-family:DejaVu Sans;font-size:20px;font-style:normal;font-weight:normal;text-anchor:middle;" transform="rotate(-0, 939.309677, 252.596875)" x="939.309677" y="252.596875">60</text>
     </g>
    </g>
    <g id="text_8">
     <text style="fill:#262626;font-family:DejaVu Sans;font-size:20px;font-style:normal;font-weight:normal;text-anchor:middle;" transform="rotate(-0, 579.6, 275.953125)" x="579.6" y="275.953125">position</text>
    </g>
   </g>
   <g id="matplotlib.axis_2">
    <g id="ytick_1">
     <g id="line2d_8">
      <defs>
       <path d="M 0 0 
L -3.5 0 
" id="mdc0f5296e9" style="stroke:#262626;stroke-width:0.8;"/>
      </defs>
      <g>
       <use style="fill:#262626;stroke:#262626;stroke-width:0.8;" x="201.6" xlink:href="#mdc0f5296e9" y="225.128136"/>
      </g>
     </g>
     <g id="text_9">
      <text style="fill:#262626;font-family:DejaVu Sans;font-size:20px;font-style:normal;font-weight:normal;text-anchor:end;" transform="rotate(-0, 194.6, 232.726573)" x="194.6" y="232.726573">0.00</text>
     </g>
    </g>
    <g id="ytick_2">
     <g id="line2d_9">
      <g>
       <use style="fill:#262626;stroke:#262626;stroke-width:0.8;" x="201.6" xlink:href="#mdc0f5296e9" y="147.514576"/>
      </g>
     </g>
     <g id="text_10">
      <text style="fill:#262626;font-family:DejaVu Sans;font-size:20px;font-style:normal;font-weight:normal;text-anchor:end;" transform="rotate(-0, 194.6, 155.113014)" x="194.6" y="155.113014">0.05</text>
     </g>
    </g>
    <g id="ytick_3">
     <g id="line2d_10">
      <g>
       <use style="fill:#262626;stroke:#262626;stroke-width:0.8;" x="201.6" xlink:href="#mdc0f5296e9" y="69.901017"/>
      </g>
     </g>
     <g id="text_11">
      <text style="fill:#262626;font-family:DejaVu Sans;font-size:20px;font-style:normal;font-weight:normal;text-anchor:end;" transform="rotate(-0, 194.6, 77.499454)" x="194.6" y="77.499454">0.10</text>
     </g>
    </g>
    <g id="text_12">
     <text style="fill:#262626;font-family:DejaVu Sans;font-size:20px;font-style:normal;font-weight:normal;text-anchor:middle;" transform="rotate(-90, 141.909375, 126.72)" x="141.909375" y="126.72">mut freq</text>
    </g>
   </g>
   <g id="LineCollection_1">
    <path clip-path="url(#p855aea4123)" d="M 207.696774 289 
L 207.696774 -1 
" style="fill:none;stroke:#4169e1;stroke-width:3;"/>
    <path clip-path="url(#p855aea4123)" d="M 219.890323 289 
L 219.890323 2.215205 
" style="fill:none;stroke:#4169e1;stroke-width:3;"/>
    <path clip-path="url(#p855aea4123)" d="M 232.083871 227.894788 
L 232.083871 198.107246 
" style="fill:none;stroke:#4169e1;stroke-width:3;"/>
    <path clip-path="url(#p855aea4123)" d="M 244.277419 227.554401 
L 244.277419 201.725233 
" style="fill:none;stroke:#4169e1;stroke-width:3;"/>
    <path clip-path="url(#p855aea4123)" d="M 256.470968 237.238082 
L 256.470968 213.01819 
" style="fill:none;stroke:#4169e1;stroke-width:3;"/>
    <path clip-path="url(#p855aea4123)" d="M 268.664516 237.238082 
L 268.664516 213.01819 
" style="fill:none;stroke:#4169e1;stroke-width:3;"/>
    <path clip-path="url(#p855aea4123)" d="M 280.858065 237.238082 
L 280.858065 213.01819 
" style="fill:none;stroke:#4169e1;stroke-width:3;"/>
    <path clip-path="url(#p855aea4123)" d="M 293.051613 197.995142 
L 293.051613 154.016117 
" style="fill:none;stroke:#4169e1;stroke-width:3;"/>
    <path clip-path="url(#p855aea4123)" d="M 305.245161 130.656195 
L 305.245161 64.163045 
" style="fill:none;stroke:#4169e1;stroke-width:3;"/>
    <path clip-path="url(#p855aea4123)" d="M 317.43871 205.85162 
L 317.43871 165.808641 
" style="fill:none;stroke:#4169e1;stroke-width:3;"/>
    <path clip-path="url(#p855aea4123)" d="M 329.632258 227.41358 
L 329.632258 203.193688 
" style="fill:none;stroke:#4169e1;stroke-width:3;"/>
    <path clip-path="url(#p855aea4123)" d="M 341.825806 227.41358 
L 341.825806 203.193688 
" style="fill:none;stroke:#4169e1;stroke-width:3;"/>
    <path clip-path="url(#p855aea4123)" d="M 354.019355 227.41358 
L 354.019355 203.193688 
" style="fill:none;stroke:#4169e1;stroke-width:3;"/>
    <path clip-path="url(#p855aea4123)" d="M 366.212903 237.238082 
L 366.212903 213.01819 
" style="fill:none;stroke:#4169e1;stroke-width:3;"/>
    <path clip-path="url(#p855aea4123)" d="M 378.406452 205.85162 
L 378.406452 165.808641 
" style="fill:none;stroke:#4169e1;stroke-width:3;"/>
    <path clip-path="url(#p855aea4123)" d="M 390.6 205.85162 
L 390.6 165.808641 
" style="fill:none;stroke:#4169e1;stroke-width:3;"/>
    <path clip-path="url(#p855aea4123)" d="M 402.793548 227.41358 
L 402.793548 203.193688 
" style="fill:none;stroke:#4169e1;stroke-width:3;"/>
    <path clip-path="url(#p855aea4123)" d="M 414.987097 213.46215 
L 414.987097 177.847115 
" style="fill:none;stroke:#4169e1;stroke-width:3;"/>
    <path clip-path="url(#p855aea4123)" d="M 427.180645 237.238082 
L 427.180645 213.01819 
" style="fill:none;stroke:#4169e1;stroke-width:3;"/>
    <path clip-path="url(#p855aea4123)" d="M 439.374194 237.163098 
L 439.374194 213.093173 
" style="fill:none;stroke:#4169e1;stroke-width:3;"/>
    <path clip-path="url(#p855aea4123)" d="M 451.567742 220.750809 
L 451.567742 190.454615 
" style="fill:none;stroke:#4169e1;stroke-width:3;"/>
    <path clip-path="url(#p855aea4123)" d="M 463.76129 227.400386 
L 463.76129 203.330461 
" style="fill:none;stroke:#4169e1;stroke-width:3;"/>
    <path clip-path="url(#p855aea4123)" d="M 475.954839 227.400386 
L 475.954839 203.330461 
" style="fill:none;stroke:#4169e1;stroke-width:3;"/>
    <path clip-path="url(#p855aea4123)" d="M 488.148387 220.750809 
L 488.148387 190.454615 
" style="fill:none;stroke:#4169e1;stroke-width:3;"/>
    <path clip-path="url(#p855aea4123)" d="M 500.341935 237.163098 
L 500.341935 213.093173 
" style="fill:none;stroke:#4169e1;stroke-width:3;"/>
    <path clip-path="url(#p855aea4123)" d="M 512.535484 198.169722 
L 512.535484 154.459431 
" style="fill:none;stroke:#4169e1;stroke-width:3;"/>
    <path clip-path="url(#p855aea4123)" d="M 524.729032 182.043948 
L 524.729032 131.534357 
" style="fill:none;stroke:#4169e1;stroke-width:3;"/>
    <path clip-path="url(#p855aea4123)" d="M 536.922581 237.163098 
L 536.922581 213.093173 
" style="fill:none;stroke:#4169e1;stroke-width:3;"/>
    <path clip-path="url(#p855aea4123)" d="M 549.116129 213.53797 
L 549.116129 178.14203 
" style="fill:none;stroke:#4169e1;stroke-width:3;"/>
    <path clip-path="url(#p855aea4123)" d="M 561.309677 237.163098 
L 561.309677 213.093173 
" style="fill:none;stroke:#4169e1;stroke-width:3;"/>
    <path clip-path="url(#p855aea4123)" d="M 573.503226 237.163098 
L 573.503226 213.093173 
" style="fill:none;stroke:#4169e1;stroke-width:3;"/>
    <path clip-path="url(#p855aea4123)" d="M 585.696774 237.163098 
L 585.696774 213.093173 
" style="fill:none;stroke:#4169e1;stroke-width:3;"/>
    <path clip-path="url(#p855aea4123)" d="M 597.890323 96.222235 
L 597.890323 22.101833 
" style="fill:none;stroke:#4169e1;stroke-width:3;"/>
    <path clip-path="url(#p855aea4123)" d="M 610.083871 237.163098 
L 610.083871 213.093173 
" style="fill:none;stroke:#4169e1;stroke-width:3;"/>
    <path clip-path="url(#p855aea4123)" d="M 622.277419 227.400386 
L 622.277419 203.330461 
" style="fill:none;stroke:#4169e1;stroke-width:3;"/>
    <path clip-path="url(#p855aea4123)" d="M 634.470968 227.400386 
L 634.470968 203.330461 
" style="fill:none;stroke:#4169e1;stroke-width:3;"/>
    <path clip-path="url(#p855aea4123)" d="M 646.664516 237.163098 
L 646.664516 213.093173 
" style="fill:none;stroke:#4169e1;stroke-width:3;"/>
    <path clip-path="url(#p855aea4123)" d="M 658.858065 237.163098 
L 658.858065 213.093173 
" style="fill:none;stroke:#4169e1;stroke-width:3;"/>
    <path clip-path="url(#p855aea4123)" d="M 671.051613 220.750809 
L 671.051613 190.454615 
" style="fill:none;stroke:#4169e1;stroke-width:3;"/>
    <path clip-path="url(#p855aea4123)" d="M 683.245161 237.163098 
L 683.245161 213.093173 
" style="fill:none;stroke:#4169e1;stroke-width:3;"/>
    <path clip-path="url(#p855aea4123)" d="M 695.43871 220.750809 
L 695.43871 190.454615 
" style="fill:none;stroke:#4169e1;stroke-width:3;"/>
    <path clip-path="url(#p855aea4123)" d="M 707.632258 220.750809 
L 707.632258 190.454615 
" style="fill:none;stroke:#4169e1;stroke-width:3;"/>
    <path clip-path="url(#p855aea4123)" d="M 719.825806 237.163098 
L 719.825806 213.093173 
" style="fill:none;stroke:#4169e1;stroke-width:3;"/>
    <path clip-path="url(#p855aea4123)" d="M 732.019355 237.163098 
L 732.019355 213.093173 
" style="fill:none;stroke:#4169e1;stroke-width:3;"/>
    <path clip-path="url(#p855aea4123)" d="M 744.212903 87.360302 
L 744.212903 11.438342 
" style="fill:none;stroke:#4169e1;stroke-width:3;"/>
    <path clip-path="url(#p855aea4123)" d="M 756.406452 237.163098 
L 756.406452 213.093173 
" style="fill:none;stroke:#4169e1;stroke-width:3;"/>
    <path clip-path="url(#p855aea4123)" d="M 768.6 237.163098 
L 768.6 213.093173 
" style="fill:none;stroke:#4169e1;stroke-width:3;"/>
    <path clip-path="url(#p855aea4123)" d="M 780.793548 205.976021 
L 780.793548 166.178556 
" style="fill:none;stroke:#4169e1;stroke-width:3;"/>
    <path clip-path="url(#p855aea4123)" d="M 792.987097 237.163098 
L 792.987097 213.093173 
" style="fill:none;stroke:#4169e1;stroke-width:3;"/>
    <path clip-path="url(#p855aea4123)" d="M 805.180645 205.976021 
L 805.180645 166.178556 
" style="fill:none;stroke:#4169e1;stroke-width:3;"/>
    <path clip-path="url(#p855aea4123)" d="M 817.374194 220.750809 
L 817.374194 190.454615 
" style="fill:none;stroke:#4169e1;stroke-width:3;"/>
    <path clip-path="url(#p855aea4123)" d="M 829.567742 237.163098 
L 829.567742 213.093173 
" style="fill:none;stroke:#4169e1;stroke-width:3;"/>
    <path clip-path="url(#p855aea4123)" d="M 841.76129 227.400386 
L 841.76129 203.330461 
" style="fill:none;stroke:#4169e1;stroke-width:3;"/>
    <path clip-path="url(#p855aea4123)" d="M 853.954839 227.400386 
L 853.954839 203.330461 
" style="fill:none;stroke:#4169e1;stroke-width:3;"/>
    <path clip-path="url(#p855aea4123)" d="M 866.148387 190.179498 
L 866.148387 142.924231 
" style="fill:none;stroke:#4169e1;stroke-width:3;"/>
    <path clip-path="url(#p855aea4123)" d="M 878.341935 213.53797 
L 878.341935 178.14203 
" style="fill:none;stroke:#4169e1;stroke-width:3;"/>
    <path clip-path="url(#p855aea4123)" d="M 890.535484 227.400386 
L 890.535484 203.330461 
" style="fill:none;stroke:#4169e1;stroke-width:3;"/>
    <path clip-path="url(#p855aea4123)" d="M 902.729032 227.400386 
L 902.729032 203.330461 
" style="fill:none;stroke:#4169e1;stroke-width:3;"/>
    <path clip-path="url(#p855aea4123)" d="M 914.922581 173.789515 
L 914.922581 120.263367 
" style="fill:none;stroke:#4169e1;stroke-width:3;"/>
    <path clip-path="url(#p855aea4123)" d="M 927.116129 227.400386 
L 927.116129 203.330461 
" style="fill:none;stroke:#4169e1;stroke-width:3;"/>
    <path clip-path="url(#p855aea4123)" d="M 939.309677 205.976021 
L 939.309677 166.178556 
" style="fill:none;stroke:#4169e1;stroke-width:3;"/>
    <path clip-path="url(#p855aea4123)" d="M 951.503226 213.53797 
L 951.503226 178.14203 
" style="fill:none;stroke:#4169e1;stroke-width:3;"/>
   </g>
   <g id="line2d_11">
    <path clip-path="url(#p855aea4123)" d="M 561.309677 242.701017 
L 561.309677 137.263729 
" style="fill:none;stroke:#000000;stroke-dasharray:11.1,4.8;stroke-dashoffset:0;stroke-width:3;"/>
   </g>
   <g id="line2d_12">
    <path clip-path="url(#p855aea4123)" d="M 207.696774 225.128136 
L 219.890323 225.128136 
L 232.083871 213.001017 
L 244.277419 214.639817 
L 256.470968 225.128136 
L 268.664516 225.128136 
L 280.858065 225.128136 
L 293.051613 176.00563 
L 305.245161 97.40962 
L 317.43871 185.830131 
L 329.632258 215.303634 
L 341.825806 215.303634 
L 354.019355 215.303634 
L 366.212903 225.128136 
L 378.406452 185.830131 
L 390.6 185.830131 
L 402.793548 215.303634 
L 414.987097 195.654632 
L 427.180645 225.128136 
L 439.374194 225.128136 
L 451.567742 205.602712 
L 463.76129 215.365424 
L 475.954839 215.365424 
L 488.148387 205.602712 
L 500.341935 225.128136 
L 512.535484 176.314576 
L 524.729032 156.789153 
L 536.922581 225.128136 
L 549.116129 195.84 
L 561.309677 225.128136 
L 573.503226 225.128136 
L 585.696774 225.128136 
L 597.890323 59.162034 
L 610.083871 225.128136 
L 622.277419 215.365424 
L 634.470968 215.365424 
L 646.664516 225.128136 
L 658.858065 225.128136 
L 671.051613 205.602712 
L 683.245161 225.128136 
L 695.43871 205.602712 
L 707.632258 205.602712 
L 719.825806 225.128136 
L 732.019355 225.128136 
L 744.212903 49.399322 
L 756.406452 225.128136 
L 768.6 225.128136 
L 780.793548 186.077288 
L 792.987097 225.128136 
L 805.180645 186.077288 
L 817.374194 205.602712 
L 829.567742 225.128136 
L 841.76129 215.365424 
L 853.954839 215.365424 
L 866.148387 166.551864 
L 878.341935 195.84 
L 890.535484 215.365424 
L 902.729032 215.365424 
L 914.922581 147.026441 
L 927.116129 215.365424 
L 939.309677 186.077288 
L 951.503226 195.84 
" style="fill:none;stroke:#4169e1;stroke-linecap:round;stroke-width:3;"/>
    <defs>
     <path d="M 0 3.25 
C 0.86191 3.25 1.688635 2.907559 2.298097 2.298097 
C 2.907559 1.688635 3.25 0.86191 3.25 0 
C 3.25 -0.86191 2.907559 -1.688635 2.298097 -2.298097 
C 1.688635 -2.907559 0.86191 -3.25 0 -3.25 
C -0.86191 -3.25 -1.688635 -2.907559 -2.298097 -2.298097 
C -2.907559 -1.688635 -3.25 -0.86191 -3.25 0 
C -3.25 0.86191 -2.907559 1.688635 -2.298097 2.298097 
C -1.688635 2.907559 -0.86191 3.25 0 3.25 
z
" id="mc051b70bfd" style="stroke:#4169e1;"/>
    </defs>
    <g clip-path="url(#p855aea4123)">
     <use style="fill:#4169e1;stroke:#4169e1;" x="207.696774" xlink:href="#mc051b70bfd" y="225.128136"/>
     <use style="fill:#4169e1;stroke:#4169e1;" x="219.890323" xlink:href="#mc051b70bfd" y="225.128136"/>
     <use style="fill:#4169e1;stroke:#4169e1;" x="232.083871" xlink:href="#mc051b70bfd" y="213.001017"/>
     <use style="fill:#4169e1;stroke:#4169e1;" x="244.277419" xlink:href="#mc051b70bfd" y="214.639817"/>
     <use style="fill:#4169e1;stroke:#4169e1;" x="256.470968" xlink:href="#mc051b70bfd" y="225.128136"/>
     <use style="fill:#4169e1;stroke:#4169e1;" x="268.664516" xlink:href="#mc051b70bfd" y="225.128136"/>
     <use style="fill:#4169e1;stroke:#4169e1;" x="280.858065" xlink:href="#mc051b70bfd" y="225.128136"/>
     <use style="fill:#4169e1;stroke:#4169e1;" x="293.051613" xlink:href="#mc051b70bfd" y="176.00563"/>
     <use style="fill:#4169e1;stroke:#4169e1;" x="305.245161" xlink:href="#mc051b70bfd" y="97.40962"/>
     <use style="fill:#4169e1;stroke:#4169e1;" x="317.43871" xlink:href="#mc051b70bfd" y="185.830131"/>
     <use style="fill:#4169e1;stroke:#4169e1;" x="329.632258" xlink:href="#mc051b70bfd" y="215.303634"/>
     <use style="fill:#4169e1;stroke:#4169e1;" x="341.825806" xlink:href="#mc051b70bfd" y="215.303634"/>
     <use style="fill:#4169e1;stroke:#4169e1;" x="354.019355" xlink:href="#mc051b70bfd" y="215.303634"/>
     <use style="fill:#4169e1;stroke:#4169e1;" x="366.212903" xlink:href="#mc051b70bfd" y="225.128136"/>
     <use style="fill:#4169e1;stroke:#4169e1;" x="378.406452" xlink:href="#mc051b70bfd" y="185.830131"/>
     <use style="fill:#4169e1;stroke:#4169e1;" x="390.6" xlink:href="#mc051b70bfd" y="185.830131"/>
     <use style="fill:#4169e1;stroke:#4169e1;" x="402.793548" xlink:href="#mc051b70bfd" y="215.303634"/>
     <use style="fill:#4169e1;stroke:#4169e1;" x="414.987097" xlink:href="#mc051b70bfd" y="195.654632"/>
     <use style="fill:#4169e1;stroke:#4169e1;" x="427.180645" xlink:href="#mc051b70bfd" y="225.128136"/>
     <use style="fill:#4169e1;stroke:#4169e1;" x="439.374194" xlink:href="#mc051b70bfd" y="225.128136"/>
     <use style="fill:#4169e1;stroke:#4169e1;" x="451.567742" xlink:href="#mc051b70bfd" y="205.602712"/>
     <use style="fill:#4169e1;stroke:#4169e1;" x="463.76129" xlink:href="#mc051b70bfd" y="215.365424"/>
     <use style="fill:#4169e1;stroke:#4169e1;" x="475.954839" xlink:href="#mc051b70bfd" y="215.365424"/>
     <use style="fill:#4169e1;stroke:#4169e1;" x="488.148387" xlink:href="#mc051b70bfd" y="205.602712"/>
     <use style="fill:#4169e1;stroke:#4169e1;" x="500.341935" xlink:href="#mc051b70bfd" y="225.128136"/>
     <use style="fill:#4169e1;stroke:#4169e1;" x="512.535484" xlink:href="#mc051b70bfd" y="176.314576"/>
     <use style="fill:#4169e1;stroke:#4169e1;" x="524.729032" xlink:href="#mc051b70bfd" y="156.789153"/>
     <use style="fill:#4169e1;stroke:#4169e1;" x="536.922581" xlink:href="#mc051b70bfd" y="225.128136"/>
     <use style="fill:#4169e1;stroke:#4169e1;" x="549.116129" xlink:href="#mc051b70bfd" y="195.84"/>
     <use style="fill:#4169e1;stroke:#4169e1;" x="561.309677" xlink:href="#mc051b70bfd" y="225.128136"/>
     <use style="fill:#4169e1;stroke:#4169e1;" x="573.503226" xlink:href="#mc051b70bfd" y="225.128136"/>
     <use style="fill:#4169e1;stroke:#4169e1;" x="585.696774" xlink:href="#mc051b70bfd" y="225.128136"/>
     <use style="fill:#4169e1;stroke:#4169e1;" x="597.890323" xlink:href="#mc051b70bfd" y="59.162034"/>
     <use style="fill:#4169e1;stroke:#4169e1;" x="610.083871" xlink:href="#mc051b70bfd" y="225.128136"/>
     <use style="fill:#4169e1;stroke:#4169e1;" x="622.277419" xlink:href="#mc051b70bfd" y="215.365424"/>
     <use style="fill:#4169e1;stroke:#4169e1;" x="634.470968" xlink:href="#mc051b70bfd" y="215.365424"/>
     <use style="fill:#4169e1;stroke:#4169e1;" x="646.664516" xlink:href="#mc051b70bfd" y="225.128136"/>
     <use style="fill:#4169e1;stroke:#4169e1;" x="658.858065" xlink:href="#mc051b70bfd" y="225.128136"/>
     <use style="fill:#4169e1;stroke:#4169e1;" x="671.051613" xlink:href="#mc051b70bfd" y="205.602712"/>
     <use style="fill:#4169e1;stroke:#4169e1;" x="683.245161" xlink:href="#mc051b70bfd" y="225.128136"/>
     <use style="fill:#4169e1;stroke:#4169e1;" x="695.43871" xlink:href="#mc051b70bfd" y="205.602712"/>
     <use style="fill:#4169e1;stroke:#4169e1;" x="707.632258" xlink:href="#mc051b70bfd" y="205.602712"/>
     <use style="fill:#4169e1;stroke:#4169e1;" x="719.825806" xlink:href="#mc051b70bfd" y="225.128136"/>
     <use style="fill:#4169e1;stroke:#4169e1;" x="732.019355" xlink:href="#mc051b70bfd" y="225.128136"/>
     <use style="fill:#4169e1;stroke:#4169e1;" x="744.212903" xlink:href="#mc051b70bfd" y="49.399322"/>
     <use style="fill:#4169e1;stroke:#4169e1;" x="756.406452" xlink:href="#mc051b70bfd" y="225.128136"/>
     <use style="fill:#4169e1;stroke:#4169e1;" x="768.6" xlink:href="#mc051b70bfd" y="225.128136"/>
     <use style="fill:#4169e1;stroke:#4169e1;" x="780.793548" xlink:href="#mc051b70bfd" y="186.077288"/>
     <use style="fill:#4169e1;stroke:#4169e1;" x="792.987097" xlink:href="#mc051b70bfd" y="225.128136"/>
     <use style="fill:#4169e1;stroke:#4169e1;" x="805.180645" xlink:href="#mc051b70bfd" y="186.077288"/>
     <use style="fill:#4169e1;stroke:#4169e1;" x="817.374194" xlink:href="#mc051b70bfd" y="205.602712"/>
     <use style="fill:#4169e1;stroke:#4169e1;" x="829.567742" xlink:href="#mc051b70bfd" y="225.128136"/>
     <use style="fill:#4169e1;stroke:#4169e1;" x="841.76129" xlink:href="#mc051b70bfd" y="215.365424"/>
     <use style="fill:#4169e1;stroke:#4169e1;" x="853.954839" xlink:href="#mc051b70bfd" y="215.365424"/>
     <use style="fill:#4169e1;stroke:#4169e1;" x="866.148387" xlink:href="#mc051b70bfd" y="166.551864"/>
     <use style="fill:#4169e1;stroke:#4169e1;" x="878.341935" xlink:href="#mc051b70bfd" y="195.84"/>
     <use style="fill:#4169e1;stroke:#4169e1;" x="890.535484" xlink:href="#mc051b70bfd" y="215.365424"/>
     <use style="fill:#4169e1;stroke:#4169e1;" x="902.729032" xlink:href="#mc051b70bfd" y="215.365424"/>
     <use style="fill:#4169e1;stroke:#4169e1;" x="914.922581" xlink:href="#mc051b70bfd" y="147.026441"/>
     <use style="fill:#4169e1;stroke:#4169e1;" x="927.116129" xlink:href="#mc051b70bfd" y="215.365424"/>
     <use style="fill:#4169e1;stroke:#4169e1;" x="939.309677" xlink:href="#mc051b70bfd" y="186.077288"/>
     <use style="fill:#4169e1;stroke:#4169e1;" x="951.503226" xlink:href="#mc051b70bfd" y="195.84"/>
    </g>
   </g>
   <g id="patch_3">
    <path d="M 201.6 230.4 
L 201.6 23.04 
" style="fill:none;stroke:#262626;stroke-linecap:square;stroke-linejoin:miter;stroke-width:0.8;"/>
   </g>
   <g id="patch_4">
    <path d="M 201.6 230.4 
L 957.6 230.4 
" style="fill:none;stroke:#262626;stroke-linecap:square;stroke-linejoin:miter;stroke-width:0.8;"/>
   </g>
   <g id="text_13">
    <text style="fill:#262626;font-family:DejaVu Sans;font-size:20px;font-style:normal;font-weight:bold;text-anchor:middle;" transform="rotate(-0, 579.6, 17.04)" x="579.6" y="17.04">IGHJ6*02</text>
   </g>
  </g>
 </g>
 <defs>
  <clipPath id="p855aea4123">
   <rect height="207.36" width="756" x="201.6" y="23.04"/>
  </clipPath>
 </defs>
</svg>
