<?xml version="1.0" encoding="utf-8" standalone="no"?>
<!DOCTYPE svg PUBLIC "-//W3C//DTD SVG 1.1//EN"
  "http://www.w3.org/Graphics/SVG/1.1/DTD/svg11.dtd">
<!-- Created with matplotlib (http://matplotlib.org/) -->
<svg height="288pt" version="1.1" viewBox="0 0 1008 288" width="1008pt" xmlns="http://www.w3.org/2000/svg" xmlns:xlink="http://www.w3.org/1999/xlink">
 <defs>
  <style type="text/css">
*{stroke-linecap:butt;stroke-linejoin:round;}
  </style>
 </defs>
 <g id="figure_1">
  <g id="patch_1">
   <path d="M 0 288 
L 1008 288 
L 1008 0 
L 0 0 
z
" style="fill:#ffffff;"/>
  </g>
  <g id="axes_1">
   <g id="patch_2">
    <path d="M 201.6 230.4 
L 957.6 230.4 
L 957.6 23.04 
L 201.6 23.04 
z
" style="fill:#ffffff;"/>
   </g>
   <g id="matplotlib.axis_1">
    <g id="xtick_1">
     <g id="line2d_1">
      <defs>
       <path d="M 0 0 
L 0 3.5 
" id="m1070cbea3e" style="stroke:#262626;stroke-width:0.8;"/>
      </defs>
      <g>
       <use style="fill:#262626;stroke:#262626;stroke-width:0.8;" x="209.475" xlink:href="#m1070cbea3e" y="230.4"/>
      </g>
     </g>
     <g id="text_1">
      <text style="fill:#262626;font-family:DejaVu Sans;font-size:20px;font-style:normal;font-weight:normal;text-anchor:middle;" transform="rotate(-0, 209.475, 252.596875)" x="209.475" y="252.596875">0</text>
     </g>
    </g>
    <g id="xtick_2">
     <g id="line2d_2">
      <g>
       <use style="fill:#262626;stroke:#262626;stroke-width:0.8;" x="366.975" xlink:href="#m1070cbea3e" y="230.4"/>
      </g>
     </g>
     <g id="text_2">
      <text style="fill:#262626;font-family:DejaVu Sans;font-size:20px;font-style:normal;font-weight:normal;text-anchor:middle;" transform="rotate(-0, 366.975, 252.596875)" x="366.975" y="252.596875">10</text>
     </g>
    </g>
    <g id="xtick_3">
     <g id="line2d_3">
      <g>
       <use style="fill:#262626;stroke:#262626;stroke-width:0.8;" x="524.475" xlink:href="#m1070cbea3e" y="230.4"/>
      </g>
     </g>
     <g id="text_3">
      <text style="fill:#262626;font-family:DejaVu Sans;font-size:20px;font-style:normal;font-weight:normal;text-anchor:middle;" transform="rotate(-0, 524.475, 252.596875)" x="524.475" y="252.596875">20</text>
     </g>
    </g>
    <g id="xtick_4">
     <g id="line2d_4">
      <g>
       <use style="fill:#262626;stroke:#262626;stroke-width:0.8;" x="681.975" xlink:href="#m1070cbea3e" y="230.4"/>
      </g>
     </g>
     <g id="text_4">
      <text style="fill:#262626;font-family:DejaVu Sans;font-size:20px;font-style:normal;font-weight:normal;text-anchor:middle;" transform="rotate(-0, 681.975, 252.596875)" x="681.975" y="252.596875">30</text>
     </g>
    </g>
    <g id="xtick_5">
     <g id="line2d_5">
      <g>
       <use style="fill:#262626;stroke:#262626;stroke-width:0.8;" x="839.475" xlink:href="#m1070cbea3e" y="230.4"/>
      </g>
     </g>
     <g id="text_5">
      <text style="fill:#262626;font-family:DejaVu Sans;font-size:20px;font-style:normal;font-weight:normal;text-anchor:middle;" transform="rotate(-0, 839.475, 252.596875)" x="839.475" y="252.596875">40</text>
     </g>
    </g>
    <g id="text_6">
     <text style="fill:#262626;font-family:DejaVu Sans;font-size:20px;font-style:normal;font-weight:normal;text-anchor:middle;" transform="rotate(-0, 579.6, 275.953125)" x="579.6" y="275.953125">position</text>
    </g>
   </g>
   <g id="matplotlib.axis_2">
    <g id="ytick_1">
     <g id="line2d_6">
      <defs>
       <path d="M 0 0 
L -3.5 0 
" id="m26e3aaee49" style="stroke:#262626;stroke-width:0.8;"/>
      </defs>
      <g>
       <use style="fill:#262626;stroke:#262626;stroke-width:0.8;" x="201.6" xlink:href="#m26e3aaee49" y="225.128136"/>
      </g>
     </g>
     <g id="text_7">
      <text style="fill:#262626;font-family:DejaVu Sans;font-size:20px;font-style:normal;font-weight:normal;text-anchor:end;" transform="rotate(-0, 194.6, 232.726573)" x="194.6" y="232.726573">0.0</text>
     </g>
    </g>
    <g id="ytick_2">
     <g id="line2d_7">
      <g>
       <use style="fill:#262626;stroke:#262626;stroke-width:0.8;" x="201.6" xlink:href="#m26e3aaee49" y="160.694237"/>
      </g>
     </g>
     <g id="text_8">
      <text style="fill:#262626;font-family:DejaVu Sans;font-size:20px;font-style:normal;font-weight:normal;text-anchor:end;" transform="rotate(-0, 194.6, 168.292675)" x="194.6" y="168.292675">0.2</text>
     </g>
    </g>
    <g id="ytick_3">
     <g id="line2d_8">
      <g>
       <use style="fill:#262626;stroke:#262626;stroke-width:0.8;" x="201.6" xlink:href="#m26e3aaee49" y="96.260339"/>
      </g>
     </g>
     <g id="text_9">
      <text style="fill:#262626;font-family:DejaVu Sans;font-size:20px;font-style:normal;font-weight:normal;text-anchor:end;" transform="rotate(-0, 194.6, 103.858776)" x="194.6" y="103.858776">0.4</text>
     </g>
    </g>
    <g id="ytick_4">
     <g id="line2d_9">
      <g>
       <use style="fill:#262626;stroke:#262626;stroke-width:0.8;" x="201.6" xlink:href="#m26e3aaee49" y="31.826441"/>
      </g>
     </g>
     <g id="text_10">
      <text style="fill:#262626;font-family:DejaVu Sans;font-size:20px;font-style:normal;font-weight:normal;text-anchor:end;" transform="rotate(-0, 194.6, 39.424878)" x="194.6" y="39.424878">0.6</text>
     </g>
    </g>
    <g id="text_11">
     <text style="fill:#262626;font-family:DejaVu Sans;font-size:20px;font-style:normal;font-weight:normal;text-anchor:middle;" transform="rotate(-90, 154.634375, 126.72)" x="154.634375" y="126.72">mut freq</text>
    </g>
   </g>
   <g id="LineCollection_1">
    <path clip-path="url(#p0aa786a399)" d="M 209.475 289 
L 209.475 143.841126 
" style="fill:none;stroke:#4169e1;stroke-width:3;"/>
    <path clip-path="url(#p0aa786a399)" d="M 225.225 289 
L 225.225 143.841126 
" style="fill:none;stroke:#4169e1;stroke-width:3;"/>
    <path clip-path="url(#p0aa786a399)" d="M 240.975 289 
L 240.975 143.841126 
" style="fill:none;stroke:#4169e1;stroke-width:3;"/>
    <path clip-path="url(#p0aa786a399)" d="M 256.725 289 
L 256.725 147.533296 
" style="fill:none;stroke:#4169e1;stroke-width:3;"/>
    <path clip-path="url(#p0aa786a399)" d="M 272.475 289 
L 272.475 157.408414 
" style="fill:none;stroke:#4169e1;stroke-width:3;"/>
    <path clip-path="url(#p0aa786a399)" d="M 288.225 289 
L 288.225 157.408414 
" style="fill:none;stroke:#4169e1;stroke-width:3;"/>
    <path clip-path="url(#p0aa786a399)" d="M 303.975 254.762934 
L 303.975 195.493338 
" style="fill:none;stroke:#4169e1;stroke-width:3;"/>
    <path clip-path="url(#p0aa786a399)" d="M 319.725 254.762934 
L 319.725 195.493338 
" style="fill:none;stroke:#4169e1;stroke-width:3;"/>
    <path clip-path="url(#p0aa786a399)" d="M 335.475 254.762934 
L 335.475 195.493338 
" style="fill:none;stroke:#4169e1;stroke-width:3;"/>
    <path clip-path="url(#p0aa786a399)" d="M 351.225 225.474798 
L 351.225 166.205202 
" style="fill:none;stroke:#4169e1;stroke-width:3;"/>
    <path clip-path="url(#p0aa786a399)" d="M 366.975 225.474798 
L 366.975 166.205202 
" style="fill:none;stroke:#4169e1;stroke-width:3;"/>
    <path clip-path="url(#p0aa786a399)" d="M 382.725 176.801643 
L 382.725 97.725814 
" style="fill:none;stroke:#4169e1;stroke-width:3;"/>
    <path clip-path="url(#p0aa786a399)" d="M 398.475 254.762934 
L 398.475 195.493338 
" style="fill:none;stroke:#4169e1;stroke-width:3;"/>
    <path clip-path="url(#p0aa786a399)" d="M 414.225 254.762934 
L 414.225 195.493338 
" style="fill:none;stroke:#4169e1;stroke-width:3;"/>
    <path clip-path="url(#p0aa786a399)" d="M 429.975 254.762934 
L 429.975 195.493338 
" style="fill:none;stroke:#4169e1;stroke-width:3;"/>
    <path clip-path="url(#p0aa786a399)" d="M 445.725 254.762934 
L 445.725 195.493338 
" style="fill:none;stroke:#4169e1;stroke-width:3;"/>
    <path clip-path="url(#p0aa786a399)" d="M 461.475 254.762934 
L 461.475 195.493338 
" style="fill:none;stroke:#4169e1;stroke-width:3;"/>
    <path clip-path="url(#p0aa786a399)" d="M 477.225 225.474798 
L 477.225 166.205202 
" style="fill:none;stroke:#4169e1;stroke-width:3;"/>
    <path clip-path="url(#p0aa786a399)" d="M 492.975 225.474798 
L 492.975 166.205202 
" style="fill:none;stroke:#4169e1;stroke-width:3;"/>
    <path clip-path="url(#p0aa786a399)" d="M 508.725 254.762934 
L 508.725 195.493338 
" style="fill:none;stroke:#4169e1;stroke-width:3;"/>
    <path clip-path="url(#p0aa786a399)" d="M 524.475 225.474798 
L 524.475 166.205202 
" style="fill:none;stroke:#4169e1;stroke-width:3;"/>
    <path clip-path="url(#p0aa786a399)" d="M 540.225 202.177034 
L 540.225 130.926695 
" style="fill:none;stroke:#4169e1;stroke-width:3;"/>
    <path clip-path="url(#p0aa786a399)" d="M 555.975 254.762934 
L 555.975 195.493338 
" style="fill:none;stroke:#4169e1;stroke-width:3;"/>
    <path clip-path="url(#p0aa786a399)" d="M 571.725 176.801643 
L 571.725 97.725814 
" style="fill:none;stroke:#4169e1;stroke-width:3;"/>
    <path clip-path="url(#p0aa786a399)" d="M 587.475 225.474798 
L 587.475 166.205202 
" style="fill:none;stroke:#4169e1;stroke-width:3;"/>
    <path clip-path="url(#p0aa786a399)" d="M 603.225 202.177034 
L 603.225 130.926695 
" style="fill:none;stroke:#4169e1;stroke-width:3;"/>
    <path clip-path="url(#p0aa786a399)" d="M 618.975 254.762934 
L 618.975 195.493338 
" style="fill:none;stroke:#4169e1;stroke-width:3;"/>
    <path clip-path="url(#p0aa786a399)" d="M 634.725 254.762934 
L 634.725 195.493338 
" style="fill:none;stroke:#4169e1;stroke-width:3;"/>
    <path clip-path="url(#p0aa786a399)" d="M 650.475 254.762934 
L 650.475 195.493338 
" style="fill:none;stroke:#4169e1;stroke-width:3;"/>
    <path clip-path="url(#p0aa786a399)" d="M 666.225 225.474798 
L 666.225 166.205202 
" style="fill:none;stroke:#4169e1;stroke-width:3;"/>
    <path clip-path="url(#p0aa786a399)" d="M 681.975 202.177034 
L 681.975 130.926695 
" style="fill:none;stroke:#4169e1;stroke-width:3;"/>
    <path clip-path="url(#p0aa786a399)" d="M 697.725 254.762934 
L 697.725 195.493338 
" style="fill:none;stroke:#4169e1;stroke-width:3;"/>
    <path clip-path="url(#p0aa786a399)" d="M 713.475 92.500401 
L 713.475 6.298244 
" style="fill:none;stroke:#4169e1;stroke-width:3;"/>
    <path clip-path="url(#p0aa786a399)" d="M 729.225 202.177034 
L 729.225 130.926695 
" style="fill:none;stroke:#4169e1;stroke-width:3;"/>
    <path clip-path="url(#p0aa786a399)" d="M 744.975 254.762934 
L 744.975 195.493338 
" style="fill:none;stroke:#4169e1;stroke-width:3;"/>
    <path clip-path="url(#p0aa786a399)" d="M 760.725 254.762934 
L 760.725 195.493338 
" style="fill:none;stroke:#4169e1;stroke-width:3;"/>
    <path clip-path="url(#p0aa786a399)" d="M 776.475 254.762934 
L 776.475 195.493338 
" style="fill:none;stroke:#4169e1;stroke-width:3;"/>
    <path clip-path="url(#p0aa786a399)" d="M 792.225 225.474798 
L 792.225 166.205202 
" style="fill:none;stroke:#4169e1;stroke-width:3;"/>
    <path clip-path="url(#p0aa786a399)" d="M 807.975 254.762934 
L 807.975 195.493338 
" style="fill:none;stroke:#4169e1;stroke-width:3;"/>
    <path clip-path="url(#p0aa786a399)" d="M 823.725 225.474798 
L 823.725 166.205202 
" style="fill:none;stroke:#4169e1;stroke-width:3;"/>
    <path clip-path="url(#p0aa786a399)" d="M 839.475 202.177034 
L 839.475 130.926695 
" style="fill:none;stroke:#4169e1;stroke-width:3;"/>
    <path clip-path="url(#p0aa786a399)" d="M 855.225 254.762934 
L 855.225 195.493338 
" style="fill:none;stroke:#4169e1;stroke-width:3;"/>
    <path clip-path="url(#p0aa786a399)" d="M 870.975 254.762934 
L 870.975 195.493338 
" style="fill:none;stroke:#4169e1;stroke-width:3;"/>
    <path clip-path="url(#p0aa786a399)" d="M 886.725 254.762934 
L 886.725 195.493338 
" style="fill:none;stroke:#4169e1;stroke-width:3;"/>
    <path clip-path="url(#p0aa786a399)" d="M 902.475 254.762934 
L 902.475 195.493338 
" style="fill:none;stroke:#4169e1;stroke-width:3;"/>
    <path clip-path="url(#p0aa786a399)" d="M 918.225 254.762934 
L 918.225 195.493338 
" style="fill:none;stroke:#4169e1;stroke-width:3;"/>
    <path clip-path="url(#p0aa786a399)" d="M 933.975 254.762934 
L 933.975 195.493338 
" style="fill:none;stroke:#4169e1;stroke-width:3;"/>
    <path clip-path="url(#p0aa786a399)" d="M 949.725 202.177034 
L 949.725 130.926695 
" style="fill:none;stroke:#4169e1;stroke-width:3;"/>
   </g>
   <g id="line2d_10">
    <path clip-path="url(#p0aa786a399)" d="M 429.975 242.701017 
L 429.975 137.263729 
" style="fill:none;stroke:#000000;stroke-dasharray:11.1,4.8;stroke-dashoffset:0;stroke-width:3;"/>
   </g>
   <g id="line2d_11">
    <path clip-path="url(#p0aa786a399)" d="M 209.475 225.128136 
L 225.225 225.128136 
L 240.975 225.128136 
L 256.725 225.128136 
L 272.475 225.128136 
L 288.225 225.128136 
L 303.975 225.128136 
L 319.725 225.128136 
L 335.475 225.128136 
L 351.225 195.84 
L 366.975 195.84 
L 382.725 137.263729 
L 398.475 225.128136 
L 414.225 225.128136 
L 429.975 225.128136 
L 445.725 225.128136 
L 461.475 225.128136 
L 477.225 195.84 
L 492.975 195.84 
L 508.725 225.128136 
L 524.475 195.84 
L 540.225 166.551864 
L 555.975 225.128136 
L 571.725 137.263729 
L 587.475 195.84 
L 603.225 166.551864 
L 618.975 225.128136 
L 634.725 225.128136 
L 650.475 225.128136 
L 666.225 195.84 
L 681.975 166.551864 
L 697.725 225.128136 
L 713.475 49.399322 
L 729.225 166.551864 
L 744.975 225.128136 
L 760.725 225.128136 
L 776.475 225.128136 
L 792.225 195.84 
L 807.975 225.128136 
L 823.725 195.84 
L 839.475 166.551864 
L 855.225 225.128136 
L 870.975 225.128136 
L 886.725 225.128136 
L 902.475 225.128136 
L 918.225 225.128136 
L 933.975 225.128136 
L 949.725 166.551864 
" style="fill:none;stroke:#4169e1;stroke-linecap:round;stroke-width:3;"/>
    <defs>
     <path d="M 0 3.25 
C 0.86191 3.25 1.688635 2.907559 2.298097 2.298097 
C 2.907559 1.688635 3.25 0.86191 3.25 0 
C 3.25 -0.86191 2.907559 -1.688635 2.298097 -2.298097 
C 1.688635 -2.907559 0.86191 -3.25 0 -3.25 
C -0.86191 -3.25 -1.688635 -2.907559 -2.298097 -2.298097 
C -2.907559 -1.688635 -3.25 -0.86191 -3.25 0 
C -3.25 0.86191 -2.907559 1.688635 -2.298097 2.298097 
C -1.688635 2.907559 -0.86191 3.25 0 3.25 
z
" id="m27856d7e28" style="stroke:#4169e1;"/>
    </defs>
    <g clip-path="url(#p0aa786a399)">
     <use style="fill:#4169e1;stroke:#4169e1;" x="209.475" xlink:href="#m27856d7e28" y="225.128136"/>
     <use style="fill:#4169e1;stroke:#4169e1;" x="225.225" xlink:href="#m27856d7e28" y="225.128136"/>
     <use style="fill:#4169e1;stroke:#4169e1;" x="240.975" xlink:href="#m27856d7e28" y="225.128136"/>
     <use style="fill:#4169e1;stroke:#4169e1;" x="256.725" xlink:href="#m27856d7e28" y="225.128136"/>
     <use style="fill:#4169e1;stroke:#4169e1;" x="272.475" xlink:href="#m27856d7e28" y="225.128136"/>
     <use style="fill:#4169e1;stroke:#4169e1;" x="288.225" xlink:href="#m27856d7e28" y="225.128136"/>
     <use style="fill:#4169e1;stroke:#4169e1;" x="303.975" xlink:href="#m27856d7e28" y="225.128136"/>
     <use style="fill:#4169e1;stroke:#4169e1;" x="319.725" xlink:href="#m27856d7e28" y="225.128136"/>
     <use style="fill:#4169e1;stroke:#4169e1;" x="335.475" xlink:href="#m27856d7e28" y="225.128136"/>
     <use style="fill:#4169e1;stroke:#4169e1;" x="351.225" xlink:href="#m27856d7e28" y="195.84"/>
     <use style="fill:#4169e1;stroke:#4169e1;" x="366.975" xlink:href="#m27856d7e28" y="195.84"/>
     <use style="fill:#4169e1;stroke:#4169e1;" x="382.725" xlink:href="#m27856d7e28" y="137.263729"/>
     <use style="fill:#4169e1;stroke:#4169e1;" x="398.475" xlink:href="#m27856d7e28" y="225.128136"/>
     <use style="fill:#4169e1;stroke:#4169e1;" x="414.225" xlink:href="#m27856d7e28" y="225.128136"/>
     <use style="fill:#4169e1;stroke:#4169e1;" x="429.975" xlink:href="#m27856d7e28" y="225.128136"/>
     <use style="fill:#4169e1;stroke:#4169e1;" x="445.725" xlink:href="#m27856d7e28" y="225.128136"/>
     <use style="fill:#4169e1;stroke:#4169e1;" x="461.475" xlink:href="#m27856d7e28" y="225.128136"/>
     <use style="fill:#4169e1;stroke:#4169e1;" x="477.225" xlink:href="#m27856d7e28" y="195.84"/>
     <use style="fill:#4169e1;stroke:#4169e1;" x="492.975" xlink:href="#m27856d7e28" y="195.84"/>
     <use style="fill:#4169e1;stroke:#4169e1;" x="508.725" xlink:href="#m27856d7e28" y="225.128136"/>
     <use style="fill:#4169e1;stroke:#4169e1;" x="524.475" xlink:href="#m27856d7e28" y="195.84"/>
     <use style="fill:#4169e1;stroke:#4169e1;" x="540.225" xlink:href="#m27856d7e28" y="166.551864"/>
     <use style="fill:#4169e1;stroke:#4169e1;" x="555.975" xlink:href="#m27856d7e28" y="225.128136"/>
     <use style="fill:#4169e1;stroke:#4169e1;" x="571.725" xlink:href="#m27856d7e28" y="137.263729"/>
     <use style="fill:#4169e1;stroke:#4169e1;" x="587.475" xlink:href="#m27856d7e28" y="195.84"/>
     <use style="fill:#4169e1;stroke:#4169e1;" x="603.225" xlink:href="#m27856d7e28" y="166.551864"/>
     <use style="fill:#4169e1;stroke:#4169e1;" x="618.975" xlink:href="#m27856d7e28" y="225.128136"/>
     <use style="fill:#4169e1;stroke:#4169e1;" x="634.725" xlink:href="#m27856d7e28" y="225.128136"/>
     <use style="fill:#4169e1;stroke:#4169e1;" x="650.475" xlink:href="#m27856d7e28" y="225.128136"/>
     <use style="fill:#4169e1;stroke:#4169e1;" x="666.225" xlink:href="#m27856d7e28" y="195.84"/>
     <use style="fill:#4169e1;stroke:#4169e1;" x="681.975" xlink:href="#m27856d7e28" y="166.551864"/>
     <use style="fill:#4169e1;stroke:#4169e1;" x="697.725" xlink:href="#m27856d7e28" y="225.128136"/>
     <use style="fill:#4169e1;stroke:#4169e1;" x="713.475" xlink:href="#m27856d7e28" y="49.399322"/>
     <use style="fill:#4169e1;stroke:#4169e1;" x="729.225" xlink:href="#m27856d7e28" y="166.551864"/>
     <use style="fill:#4169e1;stroke:#4169e1;" x="744.975" xlink:href="#m27856d7e28" y="225.128136"/>
     <use style="fill:#4169e1;stroke:#4169e1;" x="760.725" xlink:href="#m27856d7e28" y="225.128136"/>
     <use style="fill:#4169e1;stroke:#4169e1;" x="776.475" xlink:href="#m27856d7e28" y="225.128136"/>
     <use style="fill:#4169e1;stroke:#4169e1;" x="792.225" xlink:href="#m27856d7e28" y="195.84"/>
     <use style="fill:#4169e1;stroke:#4169e1;" x="807.975" xlink:href="#m27856d7e28" y="225.128136"/>
     <use style="fill:#4169e1;stroke:#4169e1;" x="823.725" xlink:href="#m27856d7e28" y="195.84"/>
     <use style="fill:#4169e1;stroke:#4169e1;" x="839.475" xlink:href="#m27856d7e28" y="166.551864"/>
     <use style="fill:#4169e1;stroke:#4169e1;" x="855.225" xlink:href="#m27856d7e28" y="225.128136"/>
     <use style="fill:#4169e1;stroke:#4169e1;" x="870.975" xlink:href="#m27856d7e28" y="225.128136"/>
     <use style="fill:#4169e1;stroke:#4169e1;" x="886.725" xlink:href="#m27856d7e28" y="225.128136"/>
     <use style="fill:#4169e1;stroke:#4169e1;" x="902.475" xlink:href="#m27856d7e28" y="225.128136"/>
     <use style="fill:#4169e1;stroke:#4169e1;" x="918.225" xlink:href="#m27856d7e28" y="225.128136"/>
     <use style="fill:#4169e1;stroke:#4169e1;" x="933.975" xlink:href="#m27856d7e28" y="225.128136"/>
     <use style="fill:#4169e1;stroke:#4169e1;" x="949.725" xlink:href="#m27856d7e28" y="166.551864"/>
    </g>
   </g>
   <g id="patch_3">
    <path d="M 201.6 230.4 
L 201.6 23.04 
" style="fill:none;stroke:#262626;stroke-linecap:square;stroke-linejoin:miter;stroke-width:0.8;"/>
   </g>
   <g id="patch_4">
    <path d="M 201.6 230.4 
L 957.6 230.4 
" style="fill:none;stroke:#262626;stroke-linecap:square;stroke-linejoin:miter;stroke-width:0.8;"/>
   </g>
   <g id="text_12">
    <text style="fill:#262626;font-family:DejaVu Sans;font-size:20px;font-style:normal;font-weight:bold;text-anchor:middle;" transform="rotate(-0, 579.6, 17.04)" x="579.6" y="17.04">IGHJ4*02</text>
   </g>
  </g>
 </g>
 <defs>
  <clipPath id="p0aa786a399">
   <rect height="207.36" width="756" x="201.6" y="23.04"/>
  </clipPath>
 </defs>
</svg>
