<?xml version="1.0" encoding="utf-8" standalone="no"?>
<!DOCTYPE svg PUBLIC "-//W3C//DTD SVG 1.1//EN"
  "http://www.w3.org/Graphics/SVG/1.1/DTD/svg11.dtd">
<!-- Created with matplotlib (http://matplotlib.org/) -->
<svg height="288pt" version="1.1" viewBox="0 0 1008 288" width="1008pt" xmlns="http://www.w3.org/2000/svg" xmlns:xlink="http://www.w3.org/1999/xlink">
 <defs>
  <style type="text/css">
*{stroke-linecap:butt;stroke-linejoin:round;}
  </style>
 </defs>
 <g id="figure_1">
  <g id="patch_1">
   <path d="M 0 288 
L 1008 288 
L 1008 0 
L 0 0 
z
" style="fill:#ffffff;"/>
  </g>
  <g id="axes_1">
   <g id="patch_2">
    <path d="M 201.6 230.4 
L 957.6 230.4 
L 957.6 23.04 
L 201.6 23.04 
z
" style="fill:#ffffff;"/>
   </g>
   <g id="matplotlib.axis_1">
    <g id="xtick_1">
     <g id="line2d_1">
      <defs>
       <path d="M 0 0 
L 0 3.5 
" id="m1ee542963b" style="stroke:#262626;stroke-width:0.8;"/>
      </defs>
      <g>
       <use style="fill:#262626;stroke:#262626;stroke-width:0.8;" x="208.869231" xlink:href="#m1ee542963b" y="230.4"/>
      </g>
     </g>
     <g id="text_1">
      <text style="fill:#262626;font-family:DejaVu Sans;font-size:20px;font-style:normal;font-weight:normal;text-anchor:middle;" transform="rotate(-0, 208.869231, 252.596875)" x="208.869231" y="252.596875">0</text>
     </g>
    </g>
    <g id="xtick_2">
     <g id="line2d_2">
      <g>
       <use style="fill:#262626;stroke:#262626;stroke-width:0.8;" x="354.253846" xlink:href="#m1ee542963b" y="230.4"/>
      </g>
     </g>
     <g id="text_2">
      <text style="fill:#262626;font-family:DejaVu Sans;font-size:20px;font-style:normal;font-weight:normal;text-anchor:middle;" transform="rotate(-0, 354.253846, 252.596875)" x="354.253846" y="252.596875">10</text>
     </g>
    </g>
    <g id="xtick_3">
     <g id="line2d_3">
      <g>
       <use style="fill:#262626;stroke:#262626;stroke-width:0.8;" x="499.638462" xlink:href="#m1ee542963b" y="230.4"/>
      </g>
     </g>
     <g id="text_3">
      <text style="fill:#262626;font-family:DejaVu Sans;font-size:20px;font-style:normal;font-weight:normal;text-anchor:middle;" transform="rotate(-0, 499.638462, 252.596875)" x="499.638462" y="252.596875">20</text>
     </g>
    </g>
    <g id="xtick_4">
     <g id="line2d_4">
      <g>
       <use style="fill:#262626;stroke:#262626;stroke-width:0.8;" x="645.023077" xlink:href="#m1ee542963b" y="230.4"/>
      </g>
     </g>
     <g id="text_4">
      <text style="fill:#262626;font-family:DejaVu Sans;font-size:20px;font-style:normal;font-weight:normal;text-anchor:middle;" transform="rotate(-0, 645.023077, 252.596875)" x="645.023077" y="252.596875">30</text>
     </g>
    </g>
    <g id="xtick_5">
     <g id="line2d_5">
      <g>
       <use style="fill:#262626;stroke:#262626;stroke-width:0.8;" x="790.407692" xlink:href="#m1ee542963b" y="230.4"/>
      </g>
     </g>
     <g id="text_5">
      <text style="fill:#262626;font-family:DejaVu Sans;font-size:20px;font-style:normal;font-weight:normal;text-anchor:middle;" transform="rotate(-0, 790.407692, 252.596875)" x="790.407692" y="252.596875">40</text>
     </g>
    </g>
    <g id="xtick_6">
     <g id="line2d_6">
      <g>
       <use style="fill:#262626;stroke:#262626;stroke-width:0.8;" x="935.792308" xlink:href="#m1ee542963b" y="230.4"/>
      </g>
     </g>
     <g id="text_6">
      <text style="fill:#262626;font-family:DejaVu Sans;font-size:20px;font-style:normal;font-weight:normal;text-anchor:middle;" transform="rotate(-0, 935.792308, 252.596875)" x="935.792308" y="252.596875">50</text>
     </g>
    </g>
    <g id="text_7">
     <text style="fill:#262626;font-family:DejaVu Sans;font-size:20px;font-style:normal;font-weight:normal;text-anchor:middle;" transform="rotate(-0, 579.6, 275.953125)" x="579.6" y="275.953125">position</text>
    </g>
   </g>
   <g id="matplotlib.axis_2">
    <g id="ytick_1">
     <g id="line2d_7">
      <defs>
       <path d="M 0 0 
L -3.5 0 
" id="macc53c82ab" style="stroke:#262626;stroke-width:0.8;"/>
      </defs>
      <g>
       <use style="fill:#262626;stroke:#262626;stroke-width:0.8;" x="201.6" xlink:href="#macc53c82ab" y="225.128136"/>
      </g>
     </g>
     <g id="text_8">
      <text style="fill:#262626;font-family:DejaVu Sans;font-size:20px;font-style:normal;font-weight:normal;text-anchor:end;" transform="rotate(-0, 194.6, 232.726573)" x="194.6" y="232.726573">0.00</text>
     </g>
    </g>
    <g id="ytick_2">
     <g id="line2d_8">
      <g>
       <use style="fill:#262626;stroke:#262626;stroke-width:0.8;" x="201.6" xlink:href="#macc53c82ab" y="168.016271"/>
      </g>
     </g>
     <g id="text_9">
      <text style="fill:#262626;font-family:DejaVu Sans;font-size:20px;font-style:normal;font-weight:normal;text-anchor:end;" transform="rotate(-0, 194.6, 175.614709)" x="194.6" y="175.614709">0.05</text>
     </g>
    </g>
    <g id="ytick_3">
     <g id="line2d_9">
      <g>
       <use style="fill:#262626;stroke:#262626;stroke-width:0.8;" x="201.6" xlink:href="#macc53c82ab" y="110.904407"/>
      </g>
     </g>
     <g id="text_10">
      <text style="fill:#262626;font-family:DejaVu Sans;font-size:20px;font-style:normal;font-weight:normal;text-anchor:end;" transform="rotate(-0, 194.6, 118.502844)" x="194.6" y="118.502844">0.10</text>
     </g>
    </g>
    <g id="ytick_4">
     <g id="line2d_10">
      <g>
       <use style="fill:#262626;stroke:#262626;stroke-width:0.8;" x="201.6" xlink:href="#macc53c82ab" y="53.792542"/>
      </g>
     </g>
     <g id="text_11">
      <text style="fill:#262626;font-family:DejaVu Sans;font-size:20px;font-style:normal;font-weight:normal;text-anchor:end;" transform="rotate(-0, 194.6, 61.39098)" x="194.6" y="61.39098">0.15</text>
     </g>
    </g>
    <g id="text_12">
     <text style="fill:#262626;font-family:DejaVu Sans;font-size:20px;font-style:normal;font-weight:normal;text-anchor:middle;" transform="rotate(-90, 141.909375, 126.72)" x="141.909375" y="126.72">mut freq</text>
    </g>
   </g>
   <g id="LineCollection_1">
    <path clip-path="url(#p3613fcdef9)" d="M 208.869231 289 
L 208.869231 -1 
" style="fill:none;stroke:#4169e1;stroke-width:3;"/>
    <path clip-path="url(#p3613fcdef9)" d="M 223.407692 289 
L 223.407692 15.958621 
" style="fill:none;stroke:#4169e1;stroke-width:3;"/>
    <path clip-path="url(#p3613fcdef9)" d="M 237.946154 216.511499 
L 237.946154 -1 
" style="fill:none;stroke:#4169e1;stroke-width:3;"/>
    <path clip-path="url(#p3613fcdef9)" d="M 252.484615 289 
L 252.484615 111.843676 
" style="fill:none;stroke:#4169e1;stroke-width:3;"/>
    <path clip-path="url(#p3613fcdef9)" d="M 267.023077 283.3893 
L 267.023077 166.866971 
" style="fill:none;stroke:#4169e1;stroke-width:3;"/>
    <path clip-path="url(#p3613fcdef9)" d="M 281.561538 231.469423 
L 281.561538 114.947094 
" style="fill:none;stroke:#4169e1;stroke-width:3;"/>
    <path clip-path="url(#p3613fcdef9)" d="M 296.1 193.138399 
L 296.1 49.438365 
" style="fill:none;stroke:#4169e1;stroke-width:3;"/>
    <path clip-path="url(#p3613fcdef9)" d="M 310.638462 283.3893 
L 310.638462 166.866971 
" style="fill:none;stroke:#4169e1;stroke-width:3;"/>
    <path clip-path="url(#p3613fcdef9)" d="M 325.176923 281.114909 
L 325.176923 169.141362 
" style="fill:none;stroke:#4169e1;stroke-width:3;"/>
    <path clip-path="url(#p3613fcdef9)" d="M 339.715385 275.243223 
L 339.715385 175.013048 
" style="fill:none;stroke:#4169e1;stroke-width:3;"/>
    <path clip-path="url(#p3613fcdef9)" d="M 354.253846 231.311019 
L 354.253846 131.080845 
" style="fill:none;stroke:#4169e1;stroke-width:3;"/>
    <path clip-path="url(#p3613fcdef9)" d="M 368.792308 199.299741 
L 368.792308 75.227717 
" style="fill:none;stroke:#4169e1;stroke-width:3;"/>
    <path clip-path="url(#p3613fcdef9)" d="M 383.330769 231.311019 
L 383.330769 131.080845 
" style="fill:none;stroke:#4169e1;stroke-width:3;"/>
    <path clip-path="url(#p3613fcdef9)" d="M 397.869231 275.243223 
L 397.869231 175.013048 
" style="fill:none;stroke:#4169e1;stroke-width:3;"/>
    <path clip-path="url(#p3613fcdef9)" d="M 412.407692 231.311019 
L 412.407692 131.080845 
" style="fill:none;stroke:#4169e1;stroke-width:3;"/>
    <path clip-path="url(#p3613fcdef9)" d="M 426.946154 231.311019 
L 426.946154 131.080845 
" style="fill:none;stroke:#4169e1;stroke-width:3;"/>
    <path clip-path="url(#p3613fcdef9)" d="M 441.484615 231.311019 
L 441.484615 131.080845 
" style="fill:none;stroke:#4169e1;stroke-width:3;"/>
    <path clip-path="url(#p3613fcdef9)" d="M 456.023077 231.311019 
L 456.023077 131.080845 
" style="fill:none;stroke:#4169e1;stroke-width:3;"/>
    <path clip-path="url(#p3613fcdef9)" d="M 470.561538 275.243223 
L 470.561538 175.013048 
" style="fill:none;stroke:#4169e1;stroke-width:3;"/>
    <path clip-path="url(#p3613fcdef9)" d="M 485.1 275.243223 
L 485.1 175.013048 
" style="fill:none;stroke:#4169e1;stroke-width:3;"/>
    <path clip-path="url(#p3613fcdef9)" d="M 499.638462 275.243223 
L 499.638462 175.013048 
" style="fill:none;stroke:#4169e1;stroke-width:3;"/>
    <path clip-path="url(#p3613fcdef9)" d="M 514.176923 199.299741 
L 514.176923 75.227717 
" style="fill:none;stroke:#4169e1;stroke-width:3;"/>
    <path clip-path="url(#p3613fcdef9)" d="M 528.715385 231.311019 
L 528.715385 131.080845 
" style="fill:none;stroke:#4169e1;stroke-width:3;"/>
    <path clip-path="url(#p3613fcdef9)" d="M 543.253846 164.553353 
L 543.253846 22.109698 
" style="fill:none;stroke:#4169e1;stroke-width:3;"/>
    <path clip-path="url(#p3613fcdef9)" d="M 557.792308 164.553353 
L 557.792308 22.109698 
" style="fill:none;stroke:#4169e1;stroke-width:3;"/>
    <path clip-path="url(#p3613fcdef9)" d="M 572.330769 275.243223 
L 572.330769 175.013048 
" style="fill:none;stroke:#4169e1;stroke-width:3;"/>
    <path clip-path="url(#p3613fcdef9)" d="M 586.869231 275.243223 
L 586.869231 175.013048 
" style="fill:none;stroke:#4169e1;stroke-width:3;"/>
    <path clip-path="url(#p3613fcdef9)" d="M 601.407692 199.299741 
L 601.407692 75.227717 
" style="fill:none;stroke:#4169e1;stroke-width:3;"/>
    <path clip-path="url(#p3613fcdef9)" d="M 615.946154 275.243223 
L 615.946154 175.013048 
" style="fill:none;stroke:#4169e1;stroke-width:3;"/>
    <path clip-path="url(#p3613fcdef9)" d="M 630.484615 275.243223 
L 630.484615 175.013048 
" style="fill:none;stroke:#4169e1;stroke-width:3;"/>
    <path clip-path="url(#p3613fcdef9)" d="M 645.023077 231.311019 
L 645.023077 131.080845 
" style="fill:none;stroke:#4169e1;stroke-width:3;"/>
    <path clip-path="url(#p3613fcdef9)" d="M 659.561538 199.299741 
L 659.561538 75.227717 
" style="fill:none;stroke:#4169e1;stroke-width:3;"/>
    <path clip-path="url(#p3613fcdef9)" d="M 674.1 199.299741 
L 674.1 75.227717 
" style="fill:none;stroke:#4169e1;stroke-width:3;"/>
    <path clip-path="url(#p3613fcdef9)" d="M 688.638462 275.243223 
L 688.638462 175.013048 
" style="fill:none;stroke:#4169e1;stroke-width:3;"/>
    <path clip-path="url(#p3613fcdef9)" d="M 703.176923 275.243223 
L 703.176923 175.013048 
" style="fill:none;stroke:#4169e1;stroke-width:3;"/>
    <path clip-path="url(#p3613fcdef9)" d="M 717.715385 199.299741 
L 717.715385 75.227717 
" style="fill:none;stroke:#4169e1;stroke-width:3;"/>
    <path clip-path="url(#p3613fcdef9)" d="M 732.253846 231.311019 
L 732.253846 131.080845 
" style="fill:none;stroke:#4169e1;stroke-width:3;"/>
    <path clip-path="url(#p3613fcdef9)" d="M 746.792308 231.311019 
L 746.792308 131.080845 
" style="fill:none;stroke:#4169e1;stroke-width:3;"/>
    <path clip-path="url(#p3613fcdef9)" d="M 761.330769 275.243223 
L 761.330769 175.013048 
" style="fill:none;stroke:#4169e1;stroke-width:3;"/>
    <path clip-path="url(#p3613fcdef9)" d="M 775.869231 275.243223 
L 775.869231 175.013048 
" style="fill:none;stroke:#4169e1;stroke-width:3;"/>
    <path clip-path="url(#p3613fcdef9)" d="M 790.407692 164.553353 
L 790.407692 22.109698 
" style="fill:none;stroke:#4169e1;stroke-width:3;"/>
    <path clip-path="url(#p3613fcdef9)" d="M 804.946154 128.019807 
L 804.946154 -1 
" style="fill:none;stroke:#4169e1;stroke-width:3;"/>
    <path clip-path="url(#p3613fcdef9)" d="M 819.484615 275.243223 
L 819.484615 175.013048 
" style="fill:none;stroke:#4169e1;stroke-width:3;"/>
    <path clip-path="url(#p3613fcdef9)" d="M 834.023077 275.243223 
L 834.023077 175.013048 
" style="fill:none;stroke:#4169e1;stroke-width:3;"/>
    <path clip-path="url(#p3613fcdef9)" d="M 848.561538 231.311019 
L 848.561538 131.080845 
" style="fill:none;stroke:#4169e1;stroke-width:3;"/>
    <path clip-path="url(#p3613fcdef9)" d="M 863.1 231.311019 
L 863.1 131.080845 
" style="fill:none;stroke:#4169e1;stroke-width:3;"/>
    <path clip-path="url(#p3613fcdef9)" d="M 877.638462 199.299741 
L 877.638462 75.227717 
" style="fill:none;stroke:#4169e1;stroke-width:3;"/>
    <path clip-path="url(#p3613fcdef9)" d="M 892.176923 231.311019 
L 892.176923 131.080845 
" style="fill:none;stroke:#4169e1;stroke-width:3;"/>
    <path clip-path="url(#p3613fcdef9)" d="M 906.715385 231.311019 
L 906.715385 131.080845 
" style="fill:none;stroke:#4169e1;stroke-width:3;"/>
    <path clip-path="url(#p3613fcdef9)" d="M 921.253846 275.243223 
L 921.253846 175.013048 
" style="fill:none;stroke:#4169e1;stroke-width:3;"/>
    <path clip-path="url(#p3613fcdef9)" d="M 935.792308 275.243223 
L 935.792308 175.013048 
" style="fill:none;stroke:#4169e1;stroke-width:3;"/>
    <path clip-path="url(#p3613fcdef9)" d="M 950.330769 275.243223 
L 950.330769 175.013048 
" style="fill:none;stroke:#4169e1;stroke-width:3;"/>
   </g>
   <g id="line2d_11">
    <path clip-path="url(#p3613fcdef9)" d="M 470.561538 242.701017 
L 470.561538 137.263729 
" style="fill:none;stroke:#000000;stroke-dasharray:11.1,4.8;stroke-dashoffset:0;stroke-width:3;"/>
   </g>
   <g id="line2d_12">
    <path clip-path="url(#p3613fcdef9)" d="M 208.869231 225.128136 
L 223.407692 225.128136 
L 237.946154 82.348475 
L 252.484615 225.128136 
L 267.023077 225.128136 
L 281.561538 173.208259 
L 296.1 121.288382 
L 310.638462 225.128136 
L 325.176923 225.128136 
L 339.715385 225.128136 
L 354.253846 181.195932 
L 368.792308 137.263729 
L 383.330769 181.195932 
L 397.869231 225.128136 
L 412.407692 181.195932 
L 426.946154 181.195932 
L 441.484615 181.195932 
L 456.023077 181.195932 
L 470.561538 225.128136 
L 485.1 225.128136 
L 499.638462 225.128136 
L 514.176923 137.263729 
L 528.715385 181.195932 
L 543.253846 93.331525 
L 557.792308 93.331525 
L 572.330769 225.128136 
L 586.869231 225.128136 
L 601.407692 137.263729 
L 615.946154 225.128136 
L 630.484615 225.128136 
L 645.023077 181.195932 
L 659.561538 137.263729 
L 674.1 137.263729 
L 688.638462 225.128136 
L 703.176923 225.128136 
L 717.715385 137.263729 
L 732.253846 181.195932 
L 746.792308 181.195932 
L 761.330769 225.128136 
L 775.869231 225.128136 
L 790.407692 93.331525 
L 804.946154 49.399322 
L 819.484615 225.128136 
L 834.023077 225.128136 
L 848.561538 181.195932 
L 863.1 181.195932 
L 877.638462 137.263729 
L 892.176923 181.195932 
L 906.715385 181.195932 
L 921.253846 225.128136 
L 935.792308 225.128136 
L 950.330769 225.128136 
" style="fill:none;stroke:#4169e1;stroke-linecap:round;stroke-width:3;"/>
    <defs>
     <path d="M 0 3.25 
C 0.86191 3.25 1.688635 2.907559 2.298097 2.298097 
C 2.907559 1.688635 3.25 0.86191 3.25 0 
C 3.25 -0.86191 2.907559 -1.688635 2.298097 -2.298097 
C 1.688635 -2.907559 0.86191 -3.25 0 -3.25 
C -0.86191 -3.25 -1.688635 -2.907559 -2.298097 -2.298097 
C -2.907559 -1.688635 -3.25 -0.86191 -3.25 0 
C -3.25 0.86191 -2.907559 1.688635 -2.298097 2.298097 
C -1.688635 2.907559 -0.86191 3.25 0 3.25 
z
" id="m9516f53e60" style="stroke:#4169e1;"/>
    </defs>
    <g clip-path="url(#p3613fcdef9)">
     <use style="fill:#4169e1;stroke:#4169e1;" x="208.869231" xlink:href="#m9516f53e60" y="225.128136"/>
     <use style="fill:#4169e1;stroke:#4169e1;" x="223.407692" xlink:href="#m9516f53e60" y="225.128136"/>
     <use style="fill:#4169e1;stroke:#4169e1;" x="237.946154" xlink:href="#m9516f53e60" y="82.348475"/>
     <use style="fill:#4169e1;stroke:#4169e1;" x="252.484615" xlink:href="#m9516f53e60" y="225.128136"/>
     <use style="fill:#4169e1;stroke:#4169e1;" x="267.023077" xlink:href="#m9516f53e60" y="225.128136"/>
     <use style="fill:#4169e1;stroke:#4169e1;" x="281.561538" xlink:href="#m9516f53e60" y="173.208259"/>
     <use style="fill:#4169e1;stroke:#4169e1;" x="296.1" xlink:href="#m9516f53e60" y="121.288382"/>
     <use style="fill:#4169e1;stroke:#4169e1;" x="310.638462" xlink:href="#m9516f53e60" y="225.128136"/>
     <use style="fill:#4169e1;stroke:#4169e1;" x="325.176923" xlink:href="#m9516f53e60" y="225.128136"/>
     <use style="fill:#4169e1;stroke:#4169e1;" x="339.715385" xlink:href="#m9516f53e60" y="225.128136"/>
     <use style="fill:#4169e1;stroke:#4169e1;" x="354.253846" xlink:href="#m9516f53e60" y="181.195932"/>
     <use style="fill:#4169e1;stroke:#4169e1;" x="368.792308" xlink:href="#m9516f53e60" y="137.263729"/>
     <use style="fill:#4169e1;stroke:#4169e1;" x="383.330769" xlink:href="#m9516f53e60" y="181.195932"/>
     <use style="fill:#4169e1;stroke:#4169e1;" x="397.869231" xlink:href="#m9516f53e60" y="225.128136"/>
     <use style="fill:#4169e1;stroke:#4169e1;" x="412.407692" xlink:href="#m9516f53e60" y="181.195932"/>
     <use style="fill:#4169e1;stroke:#4169e1;" x="426.946154" xlink:href="#m9516f53e60" y="181.195932"/>
     <use style="fill:#4169e1;stroke:#4169e1;" x="441.484615" xlink:href="#m9516f53e60" y="181.195932"/>
     <use style="fill:#4169e1;stroke:#4169e1;" x="456.023077" xlink:href="#m9516f53e60" y="181.195932"/>
     <use style="fill:#4169e1;stroke:#4169e1;" x="470.561538" xlink:href="#m9516f53e60" y="225.128136"/>
     <use style="fill:#4169e1;stroke:#4169e1;" x="485.1" xlink:href="#m9516f53e60" y="225.128136"/>
     <use style="fill:#4169e1;stroke:#4169e1;" x="499.638462" xlink:href="#m9516f53e60" y="225.128136"/>
     <use style="fill:#4169e1;stroke:#4169e1;" x="514.176923" xlink:href="#m9516f53e60" y="137.263729"/>
     <use style="fill:#4169e1;stroke:#4169e1;" x="528.715385" xlink:href="#m9516f53e60" y="181.195932"/>
     <use style="fill:#4169e1;stroke:#4169e1;" x="543.253846" xlink:href="#m9516f53e60" y="93.331525"/>
     <use style="fill:#4169e1;stroke:#4169e1;" x="557.792308" xlink:href="#m9516f53e60" y="93.331525"/>
     <use style="fill:#4169e1;stroke:#4169e1;" x="572.330769" xlink:href="#m9516f53e60" y="225.128136"/>
     <use style="fill:#4169e1;stroke:#4169e1;" x="586.869231" xlink:href="#m9516f53e60" y="225.128136"/>
     <use style="fill:#4169e1;stroke:#4169e1;" x="601.407692" xlink:href="#m9516f53e60" y="137.263729"/>
     <use style="fill:#4169e1;stroke:#4169e1;" x="615.946154" xlink:href="#m9516f53e60" y="225.128136"/>
     <use style="fill:#4169e1;stroke:#4169e1;" x="630.484615" xlink:href="#m9516f53e60" y="225.128136"/>
     <use style="fill:#4169e1;stroke:#4169e1;" x="645.023077" xlink:href="#m9516f53e60" y="181.195932"/>
     <use style="fill:#4169e1;stroke:#4169e1;" x="659.561538" xlink:href="#m9516f53e60" y="137.263729"/>
     <use style="fill:#4169e1;stroke:#4169e1;" x="674.1" xlink:href="#m9516f53e60" y="137.263729"/>
     <use style="fill:#4169e1;stroke:#4169e1;" x="688.638462" xlink:href="#m9516f53e60" y="225.128136"/>
     <use style="fill:#4169e1;stroke:#4169e1;" x="703.176923" xlink:href="#m9516f53e60" y="225.128136"/>
     <use style="fill:#4169e1;stroke:#4169e1;" x="717.715385" xlink:href="#m9516f53e60" y="137.263729"/>
     <use style="fill:#4169e1;stroke:#4169e1;" x="732.253846" xlink:href="#m9516f53e60" y="181.195932"/>
     <use style="fill:#4169e1;stroke:#4169e1;" x="746.792308" xlink:href="#m9516f53e60" y="181.195932"/>
     <use style="fill:#4169e1;stroke:#4169e1;" x="761.330769" xlink:href="#m9516f53e60" y="225.128136"/>
     <use style="fill:#4169e1;stroke:#4169e1;" x="775.869231" xlink:href="#m9516f53e60" y="225.128136"/>
     <use style="fill:#4169e1;stroke:#4169e1;" x="790.407692" xlink:href="#m9516f53e60" y="93.331525"/>
     <use style="fill:#4169e1;stroke:#4169e1;" x="804.946154" xlink:href="#m9516f53e60" y="49.399322"/>
     <use style="fill:#4169e1;stroke:#4169e1;" x="819.484615" xlink:href="#m9516f53e60" y="225.128136"/>
     <use style="fill:#4169e1;stroke:#4169e1;" x="834.023077" xlink:href="#m9516f53e60" y="225.128136"/>
     <use style="fill:#4169e1;stroke:#4169e1;" x="848.561538" xlink:href="#m9516f53e60" y="181.195932"/>
     <use style="fill:#4169e1;stroke:#4169e1;" x="863.1" xlink:href="#m9516f53e60" y="181.195932"/>
     <use style="fill:#4169e1;stroke:#4169e1;" x="877.638462" xlink:href="#m9516f53e60" y="137.263729"/>
     <use style="fill:#4169e1;stroke:#4169e1;" x="892.176923" xlink:href="#m9516f53e60" y="181.195932"/>
     <use style="fill:#4169e1;stroke:#4169e1;" x="906.715385" xlink:href="#m9516f53e60" y="181.195932"/>
     <use style="fill:#4169e1;stroke:#4169e1;" x="921.253846" xlink:href="#m9516f53e60" y="225.128136"/>
     <use style="fill:#4169e1;stroke:#4169e1;" x="935.792308" xlink:href="#m9516f53e60" y="225.128136"/>
     <use style="fill:#4169e1;stroke:#4169e1;" x="950.330769" xlink:href="#m9516f53e60" y="225.128136"/>
    </g>
   </g>
   <g id="patch_3">
    <path d="M 201.6 230.4 
L 201.6 23.04 
" style="fill:none;stroke:#262626;stroke-linecap:square;stroke-linejoin:miter;stroke-width:0.8;"/>
   </g>
   <g id="patch_4">
    <path d="M 201.6 230.4 
L 957.6 230.4 
" style="fill:none;stroke:#262626;stroke-linecap:square;stroke-linejoin:miter;stroke-width:0.8;"/>
   </g>
   <g id="text_13">
    <text style="fill:#262626;font-family:DejaVu Sans;font-size:20px;font-style:normal;font-weight:bold;text-anchor:middle;" transform="rotate(-0, 579.6, 17.04)" x="579.6" y="17.04">IGHJ1*01</text>
   </g>
  </g>
 </g>
 <defs>
  <clipPath id="p3613fcdef9">
   <rect height="207.36" width="756" x="201.6" y="23.04"/>
  </clipPath>
 </defs>
</svg>
