<?xml version="1.0" encoding="utf-8" standalone="no"?>
<!DOCTYPE svg PUBLIC "-//W3C//DTD SVG 1.1//EN"
  "http://www.w3.org/Graphics/SVG/1.1/DTD/svg11.dtd">
<!-- Created with matplotlib (http://matplotlib.org/) -->
<svg height="288pt" version="1.1" viewBox="0 0 1008 288" width="1008pt" xmlns="http://www.w3.org/2000/svg" xmlns:xlink="http://www.w3.org/1999/xlink">
 <defs>
  <style type="text/css">
*{stroke-linecap:butt;stroke-linejoin:round;}
  </style>
 </defs>
 <g id="figure_1">
  <g id="patch_1">
   <path d="M 0 288 
L 1008 288 
L 1008 0 
L 0 0 
z
" style="fill:#ffffff;"/>
  </g>
  <g id="axes_1">
   <g id="patch_2">
    <path d="M 201.6 230.4 
L 957.6 230.4 
L 957.6 23.04 
L 201.6 23.04 
z
" style="fill:#ffffff;"/>
   </g>
   <g id="matplotlib.axis_1">
    <g id="xtick_1">
     <g id="line2d_1">
      <defs>
       <path d="M 0 0 
L 0 3.5 
" id="mce956c2283" style="stroke:#262626;stroke-width:0.8;"/>
      </defs>
      <g>
       <use style="fill:#262626;stroke:#262626;stroke-width:0.8;" x="209.16" xlink:href="#mce956c2283" y="230.4"/>
      </g>
     </g>
     <g id="text_1">
      <text style="fill:#262626;font-family:DejaVu Sans;font-size:20px;font-style:normal;font-weight:normal;text-anchor:middle;" transform="rotate(-0, 209.16, 252.596875)" x="209.16" y="252.596875">0</text>
     </g>
    </g>
    <g id="xtick_2">
     <g id="line2d_2">
      <g>
       <use style="fill:#262626;stroke:#262626;stroke-width:0.8;" x="360.36" xlink:href="#mce956c2283" y="230.4"/>
      </g>
     </g>
     <g id="text_2">
      <text style="fill:#262626;font-family:DejaVu Sans;font-size:20px;font-style:normal;font-weight:normal;text-anchor:middle;" transform="rotate(-0, 360.36, 252.596875)" x="360.36" y="252.596875">10</text>
     </g>
    </g>
    <g id="xtick_3">
     <g id="line2d_3">
      <g>
       <use style="fill:#262626;stroke:#262626;stroke-width:0.8;" x="511.56" xlink:href="#mce956c2283" y="230.4"/>
      </g>
     </g>
     <g id="text_3">
      <text style="fill:#262626;font-family:DejaVu Sans;font-size:20px;font-style:normal;font-weight:normal;text-anchor:middle;" transform="rotate(-0, 511.56, 252.596875)" x="511.56" y="252.596875">20</text>
     </g>
    </g>
    <g id="xtick_4">
     <g id="line2d_4">
      <g>
       <use style="fill:#262626;stroke:#262626;stroke-width:0.8;" x="662.76" xlink:href="#mce956c2283" y="230.4"/>
      </g>
     </g>
     <g id="text_4">
      <text style="fill:#262626;font-family:DejaVu Sans;font-size:20px;font-style:normal;font-weight:normal;text-anchor:middle;" transform="rotate(-0, 662.76, 252.596875)" x="662.76" y="252.596875">30</text>
     </g>
    </g>
    <g id="xtick_5">
     <g id="line2d_5">
      <g>
       <use style="fill:#262626;stroke:#262626;stroke-width:0.8;" x="813.96" xlink:href="#mce956c2283" y="230.4"/>
      </g>
     </g>
     <g id="text_5">
      <text style="fill:#262626;font-family:DejaVu Sans;font-size:20px;font-style:normal;font-weight:normal;text-anchor:middle;" transform="rotate(-0, 813.96, 252.596875)" x="813.96" y="252.596875">40</text>
     </g>
    </g>
    <g id="text_6">
     <text style="fill:#262626;font-family:DejaVu Sans;font-size:20px;font-style:normal;font-weight:normal;text-anchor:middle;" transform="rotate(-0, 579.6, 275.953125)" x="579.6" y="275.953125">position</text>
    </g>
   </g>
   <g id="matplotlib.axis_2">
    <g id="ytick_1">
     <g id="line2d_6">
      <defs>
       <path d="M 0 0 
L -3.5 0 
" id="m1f1021ae1b" style="stroke:#262626;stroke-width:0.8;"/>
      </defs>
      <g>
       <use style="fill:#262626;stroke:#262626;stroke-width:0.8;" x="201.6" xlink:href="#m1f1021ae1b" y="225.128136"/>
      </g>
     </g>
     <g id="text_7">
      <text style="fill:#262626;font-family:DejaVu Sans;font-size:20px;font-style:normal;font-weight:normal;text-anchor:end;" transform="rotate(-0, 194.6, 232.726573)" x="194.6" y="232.726573">0.000</text>
     </g>
    </g>
    <g id="ytick_2">
     <g id="line2d_7">
      <g>
       <use style="fill:#262626;stroke:#262626;stroke-width:0.8;" x="201.6" xlink:href="#m1f1021ae1b" y="178.023051"/>
      </g>
     </g>
     <g id="text_8">
      <text style="fill:#262626;font-family:DejaVu Sans;font-size:20px;font-style:normal;font-weight:normal;text-anchor:end;" transform="rotate(-0, 194.6, 185.621488)" x="194.6" y="185.621488">0.025</text>
     </g>
    </g>
    <g id="ytick_3">
     <g id="line2d_8">
      <g>
       <use style="fill:#262626;stroke:#262626;stroke-width:0.8;" x="201.6" xlink:href="#m1f1021ae1b" y="130.917966"/>
      </g>
     </g>
     <g id="text_9">
      <text style="fill:#262626;font-family:DejaVu Sans;font-size:20px;font-style:normal;font-weight:normal;text-anchor:end;" transform="rotate(-0, 194.6, 138.516404)" x="194.6" y="138.516404">0.050</text>
     </g>
    </g>
    <g id="ytick_4">
     <g id="line2d_9">
      <g>
       <use style="fill:#262626;stroke:#262626;stroke-width:0.8;" x="201.6" xlink:href="#m1f1021ae1b" y="83.812881"/>
      </g>
     </g>
     <g id="text_10">
      <text style="fill:#262626;font-family:DejaVu Sans;font-size:20px;font-style:normal;font-weight:normal;text-anchor:end;" transform="rotate(-0, 194.6, 91.411319)" x="194.6" y="91.411319">0.075</text>
     </g>
    </g>
    <g id="ytick_5">
     <g id="line2d_10">
      <g>
       <use style="fill:#262626;stroke:#262626;stroke-width:0.8;" x="201.6" xlink:href="#m1f1021ae1b" y="36.707797"/>
      </g>
     </g>
     <g id="text_11">
      <text style="fill:#262626;font-family:DejaVu Sans;font-size:20px;font-style:normal;font-weight:normal;text-anchor:end;" transform="rotate(-0, 194.6, 44.306234)" x="194.6" y="44.306234">0.100</text>
     </g>
    </g>
    <g id="text_12">
     <text style="fill:#262626;font-family:DejaVu Sans;font-size:20px;font-style:normal;font-weight:normal;text-anchor:middle;" transform="rotate(-90, 129.184375, 126.72)" x="129.184375" y="126.72">mut freq</text>
    </g>
   </g>
   <g id="LineCollection_1">
    <path clip-path="url(#p15bb2652b6)" d="M 209.16 289 
L 209.16 -1 
" style="fill:none;stroke:#4169e1;stroke-width:3;"/>
    <path clip-path="url(#p15bb2652b6)" d="M 224.28 238.884808 
L 224.28 211.371463 
" style="fill:none;stroke:#4169e1;stroke-width:3;"/>
    <path clip-path="url(#p15bb2652b6)" d="M 239.4 227.600587 
L 239.4 201.603132 
" style="fill:none;stroke:#4169e1;stroke-width:3;"/>
    <path clip-path="url(#p15bb2652b6)" d="M 254.52 220.524172 
L 254.52 188.321036 
" style="fill:none;stroke:#4169e1;stroke-width:3;"/>
    <path clip-path="url(#p15bb2652b6)" d="M 269.64 171.425696 
L 269.64 114.986802 
" style="fill:none;stroke:#4169e1;stroke-width:3;"/>
    <path clip-path="url(#p15bb2652b6)" d="M 284.76 205.438902 
L 284.76 164.209737 
" style="fill:none;stroke:#4169e1;stroke-width:3;"/>
    <path clip-path="url(#p15bb2652b6)" d="M 299.88 237.5781 
L 299.88 212.678171 
" style="fill:none;stroke:#4169e1;stroke-width:3;"/>
    <path clip-path="url(#p15bb2652b6)" d="M 315 227.502146 
L 315 202.602217 
" style="fill:none;stroke:#4169e1;stroke-width:3;"/>
    <path clip-path="url(#p15bb2652b6)" d="M 330.12 213.226007 
L 330.12 176.574541 
" style="fill:none;stroke:#4169e1;stroke-width:3;"/>
    <path clip-path="url(#p15bb2652b6)" d="M 345.24 213.355524 
L 345.24 177.084767 
" style="fill:none;stroke:#4169e1;stroke-width:3;"/>
    <path clip-path="url(#p15bb2652b6)" d="M 360.36 213.355524 
L 360.36 177.084767 
" style="fill:none;stroke:#4169e1;stroke-width:3;"/>
    <path clip-path="url(#p15bb2652b6)" d="M 375.48 205.651863 
L 375.48 164.849768 
" style="fill:none;stroke:#4169e1;stroke-width:3;"/>
    <path clip-path="url(#p15bb2652b6)" d="M 390.6 172.870548 
L 390.6 117.876442 
" style="fill:none;stroke:#4169e1;stroke-width:3;"/>
    <path clip-path="url(#p15bb2652b6)" d="M 405.72 237.320734 
L 405.72 212.935537 
" style="fill:none;stroke:#4169e1;stroke-width:3;"/>
    <path clip-path="url(#p15bb2652b6)" d="M 420.84 206.064265 
L 420.84 166.090312 
" style="fill:none;stroke:#4169e1;stroke-width:3;"/>
    <path clip-path="url(#p15bb2652b6)" d="M 435.96 237.196 
L 435.96 213.060271 
" style="fill:none;stroke:#4169e1;stroke-width:3;"/>
    <path clip-path="url(#p15bb2652b6)" d="M 451.08 237.196 
L 451.08 213.060271 
" style="fill:none;stroke:#4169e1;stroke-width:3;"/>
    <path clip-path="url(#p15bb2652b6)" d="M 466.2 237.196 
L 466.2 213.060271 
" style="fill:none;stroke:#4169e1;stroke-width:3;"/>
    <path clip-path="url(#p15bb2652b6)" d="M 481.32 237.196 
L 481.32 213.060271 
" style="fill:none;stroke:#4169e1;stroke-width:3;"/>
    <path clip-path="url(#p15bb2652b6)" d="M 496.44 227.433288 
L 496.44 203.297559 
" style="fill:none;stroke:#4169e1;stroke-width:3;"/>
    <path clip-path="url(#p15bb2652b6)" d="M 511.56 227.433288 
L 511.56 203.297559 
" style="fill:none;stroke:#4169e1;stroke-width:3;"/>
    <path clip-path="url(#p15bb2652b6)" d="M 526.68 206.064265 
L 526.68 166.090312 
" style="fill:none;stroke:#4169e1;stroke-width:3;"/>
    <path clip-path="url(#p15bb2652b6)" d="M 541.8 220.800696 
L 541.8 190.404728 
" style="fill:none;stroke:#4169e1;stroke-width:3;"/>
    <path clip-path="url(#p15bb2652b6)" d="M 556.92 206.064265 
L 556.92 166.090312 
" style="fill:none;stroke:#4169e1;stroke-width:3;"/>
    <path clip-path="url(#p15bb2652b6)" d="M 572.04 237.196 
L 572.04 213.060271 
" style="fill:none;stroke:#4169e1;stroke-width:3;"/>
    <path clip-path="url(#p15bb2652b6)" d="M 587.16 148.747471 
L 587.16 86.729139 
" style="fill:none;stroke:#4169e1;stroke-width:3;"/>
    <path clip-path="url(#p15bb2652b6)" d="M 602.28 213.60629 
L 602.28 178.07371 
" style="fill:none;stroke:#4169e1;stroke-width:3;"/>
    <path clip-path="url(#p15bb2652b6)" d="M 617.4 165.644204 
L 617.4 108.883253 
" style="fill:none;stroke:#4169e1;stroke-width:3;"/>
    <path clip-path="url(#p15bb2652b6)" d="M 632.52 148.747471 
L 632.52 86.729139 
" style="fill:none;stroke:#4169e1;stroke-width:3;"/>
    <path clip-path="url(#p15bb2652b6)" d="M 647.64 237.196 
L 647.64 213.060271 
" style="fill:none;stroke:#4169e1;stroke-width:3;"/>
    <path clip-path="url(#p15bb2652b6)" d="M 662.76 237.196 
L 662.76 213.060271 
" style="fill:none;stroke:#4169e1;stroke-width:3;"/>
    <path clip-path="url(#p15bb2652b6)" d="M 677.88 237.196 
L 677.88 213.060271 
" style="fill:none;stroke:#4169e1;stroke-width:3;"/>
    <path clip-path="url(#p15bb2652b6)" d="M 693 220.800696 
L 693 190.404728 
" style="fill:none;stroke:#4169e1;stroke-width:3;"/>
    <path clip-path="url(#p15bb2652b6)" d="M 708.12 237.196 
L 708.12 213.060271 
" style="fill:none;stroke:#4169e1;stroke-width:3;"/>
    <path clip-path="url(#p15bb2652b6)" d="M 723.24 213.60629 
L 723.24 178.07371 
" style="fill:none;stroke:#4169e1;stroke-width:3;"/>
    <path clip-path="url(#p15bb2652b6)" d="M 738.36 237.196 
L 738.36 213.060271 
" style="fill:none;stroke:#4169e1;stroke-width:3;"/>
    <path clip-path="url(#p15bb2652b6)" d="M 753.48 87.864859 
L 753.48 10.933785 
" style="fill:none;stroke:#4169e1;stroke-width:3;"/>
    <path clip-path="url(#p15bb2652b6)" d="M 768.6 227.433288 
L 768.6 203.297559 
" style="fill:none;stroke:#4169e1;stroke-width:3;"/>
    <path clip-path="url(#p15bb2652b6)" d="M 783.72 213.60629 
L 783.72 178.07371 
" style="fill:none;stroke:#4169e1;stroke-width:3;"/>
    <path clip-path="url(#p15bb2652b6)" d="M 798.84 220.800696 
L 798.84 190.404728 
" style="fill:none;stroke:#4169e1;stroke-width:3;"/>
    <path clip-path="url(#p15bb2652b6)" d="M 813.96 237.196 
L 813.96 213.060271 
" style="fill:none;stroke:#4169e1;stroke-width:3;"/>
    <path clip-path="url(#p15bb2652b6)" d="M 829.08 237.196 
L 829.08 213.060271 
" style="fill:none;stroke:#4169e1;stroke-width:3;"/>
    <path clip-path="url(#p15bb2652b6)" d="M 844.2 213.60629 
L 844.2 178.07371 
" style="fill:none;stroke:#4169e1;stroke-width:3;"/>
    <path clip-path="url(#p15bb2652b6)" d="M 859.32 237.196 
L 859.32 213.060271 
" style="fill:none;stroke:#4169e1;stroke-width:3;"/>
    <path clip-path="url(#p15bb2652b6)" d="M 874.44 213.60629 
L 874.44 178.07371 
" style="fill:none;stroke:#4169e1;stroke-width:3;"/>
    <path clip-path="url(#p15bb2652b6)" d="M 889.56 227.433288 
L 889.56 203.297559 
" style="fill:none;stroke:#4169e1;stroke-width:3;"/>
    <path clip-path="url(#p15bb2652b6)" d="M 904.68 198.279353 
L 904.68 154.3498 
" style="fill:none;stroke:#4169e1;stroke-width:3;"/>
    <path clip-path="url(#p15bb2652b6)" d="M 919.8 173.97165 
L 919.8 120.081232 
" style="fill:none;stroke:#4169e1;stroke-width:3;"/>
    <path clip-path="url(#p15bb2652b6)" d="M 934.92 213.60629 
L 934.92 178.07371 
" style="fill:none;stroke:#4169e1;stroke-width:3;"/>
    <path clip-path="url(#p15bb2652b6)" d="M 950.04 206.064265 
L 950.04 166.090312 
" style="fill:none;stroke:#4169e1;stroke-width:3;"/>
   </g>
   <g id="line2d_11">
    <path clip-path="url(#p15bb2652b6)" d="M 451.08 242.701017 
L 451.08 137.263729 
" style="fill:none;stroke:#000000;stroke-dasharray:11.1,4.8;stroke-dashoffset:0;stroke-width:3;"/>
   </g>
   <g id="line2d_12">
    <path clip-path="url(#p15bb2652b6)" d="M 209.16 225.128136 
L 224.28 225.128136 
L 239.4 214.60186 
L 254.52 204.422604 
L 269.64 143.206249 
L 284.76 184.82432 
L 299.88 225.128136 
L 315 215.052182 
L 330.12 194.900274 
L 345.24 195.220145 
L 360.36 195.220145 
L 375.48 185.250815 
L 390.6 145.373495 
L 405.72 225.128136 
L 420.84 186.077288 
L 435.96 225.128136 
L 451.08 225.128136 
L 466.2 225.128136 
L 481.32 225.128136 
L 496.44 215.365424 
L 511.56 215.365424 
L 526.68 186.077288 
L 541.8 205.602712 
L 556.92 186.077288 
L 572.04 225.128136 
L 587.16 117.738305 
L 602.28 195.84 
L 617.4 137.263729 
L 632.52 117.738305 
L 647.64 225.128136 
L 662.76 225.128136 
L 677.88 225.128136 
L 693 205.602712 
L 708.12 225.128136 
L 723.24 195.84 
L 738.36 225.128136 
L 753.48 49.399322 
L 768.6 215.365424 
L 783.72 195.84 
L 798.84 205.602712 
L 813.96 225.128136 
L 829.08 225.128136 
L 844.2 195.84 
L 859.32 225.128136 
L 874.44 195.84 
L 889.56 215.365424 
L 904.68 176.314576 
L 919.8 147.026441 
L 934.92 195.84 
L 950.04 186.077288 
" style="fill:none;stroke:#4169e1;stroke-linecap:round;stroke-width:3;"/>
    <defs>
     <path d="M 0 3.25 
C 0.86191 3.25 1.688635 2.907559 2.298097 2.298097 
C 2.907559 1.688635 3.25 0.86191 3.25 0 
C 3.25 -0.86191 2.907559 -1.688635 2.298097 -2.298097 
C 1.688635 -2.907559 0.86191 -3.25 0 -3.25 
C -0.86191 -3.25 -1.688635 -2.907559 -2.298097 -2.298097 
C -2.907559 -1.688635 -3.25 -0.86191 -3.25 0 
C -3.25 0.86191 -2.907559 1.688635 -2.298097 2.298097 
C -1.688635 2.907559 -0.86191 3.25 0 3.25 
z
" id="mf7f8cd453f" style="stroke:#4169e1;"/>
    </defs>
    <g clip-path="url(#p15bb2652b6)">
     <use style="fill:#4169e1;stroke:#4169e1;" x="209.16" xlink:href="#mf7f8cd453f" y="225.128136"/>
     <use style="fill:#4169e1;stroke:#4169e1;" x="224.28" xlink:href="#mf7f8cd453f" y="225.128136"/>
     <use style="fill:#4169e1;stroke:#4169e1;" x="239.4" xlink:href="#mf7f8cd453f" y="214.60186"/>
     <use style="fill:#4169e1;stroke:#4169e1;" x="254.52" xlink:href="#mf7f8cd453f" y="204.422604"/>
     <use style="fill:#4169e1;stroke:#4169e1;" x="269.64" xlink:href="#mf7f8cd453f" y="143.206249"/>
     <use style="fill:#4169e1;stroke:#4169e1;" x="284.76" xlink:href="#mf7f8cd453f" y="184.82432"/>
     <use style="fill:#4169e1;stroke:#4169e1;" x="299.88" xlink:href="#mf7f8cd453f" y="225.128136"/>
     <use style="fill:#4169e1;stroke:#4169e1;" x="315" xlink:href="#mf7f8cd453f" y="215.052182"/>
     <use style="fill:#4169e1;stroke:#4169e1;" x="330.12" xlink:href="#mf7f8cd453f" y="194.900274"/>
     <use style="fill:#4169e1;stroke:#4169e1;" x="345.24" xlink:href="#mf7f8cd453f" y="195.220145"/>
     <use style="fill:#4169e1;stroke:#4169e1;" x="360.36" xlink:href="#mf7f8cd453f" y="195.220145"/>
     <use style="fill:#4169e1;stroke:#4169e1;" x="375.48" xlink:href="#mf7f8cd453f" y="185.250815"/>
     <use style="fill:#4169e1;stroke:#4169e1;" x="390.6" xlink:href="#mf7f8cd453f" y="145.373495"/>
     <use style="fill:#4169e1;stroke:#4169e1;" x="405.72" xlink:href="#mf7f8cd453f" y="225.128136"/>
     <use style="fill:#4169e1;stroke:#4169e1;" x="420.84" xlink:href="#mf7f8cd453f" y="186.077288"/>
     <use style="fill:#4169e1;stroke:#4169e1;" x="435.96" xlink:href="#mf7f8cd453f" y="225.128136"/>
     <use style="fill:#4169e1;stroke:#4169e1;" x="451.08" xlink:href="#mf7f8cd453f" y="225.128136"/>
     <use style="fill:#4169e1;stroke:#4169e1;" x="466.2" xlink:href="#mf7f8cd453f" y="225.128136"/>
     <use style="fill:#4169e1;stroke:#4169e1;" x="481.32" xlink:href="#mf7f8cd453f" y="225.128136"/>
     <use style="fill:#4169e1;stroke:#4169e1;" x="496.44" xlink:href="#mf7f8cd453f" y="215.365424"/>
     <use style="fill:#4169e1;stroke:#4169e1;" x="511.56" xlink:href="#mf7f8cd453f" y="215.365424"/>
     <use style="fill:#4169e1;stroke:#4169e1;" x="526.68" xlink:href="#mf7f8cd453f" y="186.077288"/>
     <use style="fill:#4169e1;stroke:#4169e1;" x="541.8" xlink:href="#mf7f8cd453f" y="205.602712"/>
     <use style="fill:#4169e1;stroke:#4169e1;" x="556.92" xlink:href="#mf7f8cd453f" y="186.077288"/>
     <use style="fill:#4169e1;stroke:#4169e1;" x="572.04" xlink:href="#mf7f8cd453f" y="225.128136"/>
     <use style="fill:#4169e1;stroke:#4169e1;" x="587.16" xlink:href="#mf7f8cd453f" y="117.738305"/>
     <use style="fill:#4169e1;stroke:#4169e1;" x="602.28" xlink:href="#mf7f8cd453f" y="195.84"/>
     <use style="fill:#4169e1;stroke:#4169e1;" x="617.4" xlink:href="#mf7f8cd453f" y="137.263729"/>
     <use style="fill:#4169e1;stroke:#4169e1;" x="632.52" xlink:href="#mf7f8cd453f" y="117.738305"/>
     <use style="fill:#4169e1;stroke:#4169e1;" x="647.64" xlink:href="#mf7f8cd453f" y="225.128136"/>
     <use style="fill:#4169e1;stroke:#4169e1;" x="662.76" xlink:href="#mf7f8cd453f" y="225.128136"/>
     <use style="fill:#4169e1;stroke:#4169e1;" x="677.88" xlink:href="#mf7f8cd453f" y="225.128136"/>
     <use style="fill:#4169e1;stroke:#4169e1;" x="693" xlink:href="#mf7f8cd453f" y="205.602712"/>
     <use style="fill:#4169e1;stroke:#4169e1;" x="708.12" xlink:href="#mf7f8cd453f" y="225.128136"/>
     <use style="fill:#4169e1;stroke:#4169e1;" x="723.24" xlink:href="#mf7f8cd453f" y="195.84"/>
     <use style="fill:#4169e1;stroke:#4169e1;" x="738.36" xlink:href="#mf7f8cd453f" y="225.128136"/>
     <use style="fill:#4169e1;stroke:#4169e1;" x="753.48" xlink:href="#mf7f8cd453f" y="49.399322"/>
     <use style="fill:#4169e1;stroke:#4169e1;" x="768.6" xlink:href="#mf7f8cd453f" y="215.365424"/>
     <use style="fill:#4169e1;stroke:#4169e1;" x="783.72" xlink:href="#mf7f8cd453f" y="195.84"/>
     <use style="fill:#4169e1;stroke:#4169e1;" x="798.84" xlink:href="#mf7f8cd453f" y="205.602712"/>
     <use style="fill:#4169e1;stroke:#4169e1;" x="813.96" xlink:href="#mf7f8cd453f" y="225.128136"/>
     <use style="fill:#4169e1;stroke:#4169e1;" x="829.08" xlink:href="#mf7f8cd453f" y="225.128136"/>
     <use style="fill:#4169e1;stroke:#4169e1;" x="844.2" xlink:href="#mf7f8cd453f" y="195.84"/>
     <use style="fill:#4169e1;stroke:#4169e1;" x="859.32" xlink:href="#mf7f8cd453f" y="225.128136"/>
     <use style="fill:#4169e1;stroke:#4169e1;" x="874.44" xlink:href="#mf7f8cd453f" y="195.84"/>
     <use style="fill:#4169e1;stroke:#4169e1;" x="889.56" xlink:href="#mf7f8cd453f" y="215.365424"/>
     <use style="fill:#4169e1;stroke:#4169e1;" x="904.68" xlink:href="#mf7f8cd453f" y="176.314576"/>
     <use style="fill:#4169e1;stroke:#4169e1;" x="919.8" xlink:href="#mf7f8cd453f" y="147.026441"/>
     <use style="fill:#4169e1;stroke:#4169e1;" x="934.92" xlink:href="#mf7f8cd453f" y="195.84"/>
     <use style="fill:#4169e1;stroke:#4169e1;" x="950.04" xlink:href="#mf7f8cd453f" y="186.077288"/>
    </g>
   </g>
   <g id="patch_3">
    <path d="M 201.6 230.4 
L 201.6 23.04 
" style="fill:none;stroke:#262626;stroke-linecap:square;stroke-linejoin:miter;stroke-width:0.8;"/>
   </g>
   <g id="patch_4">
    <path d="M 201.6 230.4 
L 957.6 230.4 
" style="fill:none;stroke:#262626;stroke-linecap:square;stroke-linejoin:miter;stroke-width:0.8;"/>
   </g>
   <g id="text_13">
    <text style="fill:#262626;font-family:DejaVu Sans;font-size:20px;font-style:normal;font-weight:bold;text-anchor:middle;" transform="rotate(-0, 579.6, 17.04)" x="579.6" y="17.04">IGHJ3*01</text>
   </g>
  </g>
 </g>
 <defs>
  <clipPath id="p15bb2652b6">
   <rect height="207.36" width="756" x="201.6" y="23.04"/>
  </clipPath>
 </defs>
</svg>
