<?xml version="1.0" encoding="utf-8" standalone="no"?>
<!DOCTYPE svg PUBLIC "-//W3C//DTD SVG 1.1//EN"
  "http://www.w3.org/Graphics/SVG/1.1/DTD/svg11.dtd">
<!-- Created with matplotlib (http://matplotlib.org/) -->
<svg height="288pt" version="1.1" viewBox="0 0 1008 288" width="1008pt" xmlns="http://www.w3.org/2000/svg" xmlns:xlink="http://www.w3.org/1999/xlink">
 <defs>
  <style type="text/css">
*{stroke-linecap:butt;stroke-linejoin:round;}
  </style>
 </defs>
 <g id="figure_1">
  <g id="patch_1">
   <path d="M 0 288 
L 1008 288 
L 1008 0 
L 0 0 
z
" style="fill:#ffffff;"/>
  </g>
  <g id="axes_1">
   <g id="patch_2">
    <path d="M 201.6 230.4 
L 957.6 230.4 
L 957.6 23.04 
L 201.6 23.04 
z
" style="fill:#ffffff;"/>
   </g>
   <g id="matplotlib.axis_1">
    <g id="xtick_1">
     <g id="line2d_1">
      <defs>
       <path d="M 0 0 
L 0 3.5 
" id="mab3e7608d9" style="stroke:#262626;stroke-width:0.8;"/>
      </defs>
      <g>
       <use style="fill:#262626;stroke:#262626;stroke-width:0.8;" x="209.475" xlink:href="#mab3e7608d9" y="230.4"/>
      </g>
     </g>
     <g id="text_1">
      <text style="fill:#262626;font-family:DejaVu Sans;font-size:20px;font-style:normal;font-weight:normal;text-anchor:middle;" transform="rotate(-0, 209.475, 252.596875)" x="209.475" y="252.596875">0</text>
     </g>
    </g>
    <g id="xtick_2">
     <g id="line2d_2">
      <g>
       <use style="fill:#262626;stroke:#262626;stroke-width:0.8;" x="366.975" xlink:href="#mab3e7608d9" y="230.4"/>
      </g>
     </g>
     <g id="text_2">
      <text style="fill:#262626;font-family:DejaVu Sans;font-size:20px;font-style:normal;font-weight:normal;text-anchor:middle;" transform="rotate(-0, 366.975, 252.596875)" x="366.975" y="252.596875">10</text>
     </g>
    </g>
    <g id="xtick_3">
     <g id="line2d_3">
      <g>
       <use style="fill:#262626;stroke:#262626;stroke-width:0.8;" x="524.475" xlink:href="#mab3e7608d9" y="230.4"/>
      </g>
     </g>
     <g id="text_3">
      <text style="fill:#262626;font-family:DejaVu Sans;font-size:20px;font-style:normal;font-weight:normal;text-anchor:middle;" transform="rotate(-0, 524.475, 252.596875)" x="524.475" y="252.596875">20</text>
     </g>
    </g>
    <g id="xtick_4">
     <g id="line2d_4">
      <g>
       <use style="fill:#262626;stroke:#262626;stroke-width:0.8;" x="681.975" xlink:href="#mab3e7608d9" y="230.4"/>
      </g>
     </g>
     <g id="text_4">
      <text style="fill:#262626;font-family:DejaVu Sans;font-size:20px;font-style:normal;font-weight:normal;text-anchor:middle;" transform="rotate(-0, 681.975, 252.596875)" x="681.975" y="252.596875">30</text>
     </g>
    </g>
    <g id="xtick_5">
     <g id="line2d_5">
      <g>
       <use style="fill:#262626;stroke:#262626;stroke-width:0.8;" x="839.475" xlink:href="#mab3e7608d9" y="230.4"/>
      </g>
     </g>
     <g id="text_5">
      <text style="fill:#262626;font-family:DejaVu Sans;font-size:20px;font-style:normal;font-weight:normal;text-anchor:middle;" transform="rotate(-0, 839.475, 252.596875)" x="839.475" y="252.596875">40</text>
     </g>
    </g>
    <g id="text_6">
     <text style="fill:#262626;font-family:DejaVu Sans;font-size:20px;font-style:normal;font-weight:normal;text-anchor:middle;" transform="rotate(-0, 579.6, 275.953125)" x="579.6" y="275.953125">position</text>
    </g>
   </g>
   <g id="matplotlib.axis_2">
    <g id="ytick_1">
     <g id="line2d_6">
      <defs>
       <path d="M 0 0 
L -3.5 0 
" id="mf768b36704" style="stroke:#262626;stroke-width:0.8;"/>
      </defs>
      <g>
       <use style="fill:#262626;stroke:#262626;stroke-width:0.8;" x="201.6" xlink:href="#mf768b36704" y="225.128136"/>
      </g>
     </g>
     <g id="text_7">
      <text style="fill:#262626;font-family:DejaVu Sans;font-size:20px;font-style:normal;font-weight:normal;text-anchor:end;" transform="rotate(-0, 194.6, 232.726573)" x="194.6" y="232.726573">0.00</text>
     </g>
    </g>
    <g id="ytick_2">
     <g id="line2d_7">
      <g>
       <use style="fill:#262626;stroke:#262626;stroke-width:0.8;" x="201.6" xlink:href="#mf768b36704" y="174.389534"/>
      </g>
     </g>
     <g id="text_8">
      <text style="fill:#262626;font-family:DejaVu Sans;font-size:20px;font-style:normal;font-weight:normal;text-anchor:end;" transform="rotate(-0, 194.6, 181.987972)" x="194.6" y="181.987972">0.25</text>
     </g>
    </g>
    <g id="ytick_3">
     <g id="line2d_8">
      <g>
       <use style="fill:#262626;stroke:#262626;stroke-width:0.8;" x="201.6" xlink:href="#mf768b36704" y="123.650933"/>
      </g>
     </g>
     <g id="text_9">
      <text style="fill:#262626;font-family:DejaVu Sans;font-size:20px;font-style:normal;font-weight:normal;text-anchor:end;" transform="rotate(-0, 194.6, 131.249371)" x="194.6" y="131.249371">0.50</text>
     </g>
    </g>
    <g id="ytick_4">
     <g id="line2d_9">
      <g>
       <use style="fill:#262626;stroke:#262626;stroke-width:0.8;" x="201.6" xlink:href="#mf768b36704" y="72.912332"/>
      </g>
     </g>
     <g id="text_10">
      <text style="fill:#262626;font-family:DejaVu Sans;font-size:20px;font-style:normal;font-weight:normal;text-anchor:end;" transform="rotate(-0, 194.6, 80.51077)" x="194.6" y="80.51077">0.75</text>
     </g>
    </g>
    <g id="text_11">
     <text style="fill:#262626;font-family:DejaVu Sans;font-size:20px;font-style:normal;font-weight:normal;text-anchor:middle;" transform="rotate(-90, 141.909375, 126.72)" x="141.909375" y="126.72">mut freq</text>
    </g>
   </g>
   <g id="LineCollection_1">
    <path clip-path="url(#p70aa6fa97f)" d="M 209.475 228.53892 
L 209.475 221.717351 
" style="fill:none;stroke:#4169e1;stroke-width:3;"/>
    <path clip-path="url(#p70aa6fa97f)" d="M 225.225 228.365171 
L 225.225 221.8911 
" style="fill:none;stroke:#4169e1;stroke-width:3;"/>
    <path clip-path="url(#p70aa6fa97f)" d="M 240.975 56.833752 
L 240.975 41.964892 
" style="fill:none;stroke:#4169e1;stroke-width:3;"/>
    <path clip-path="url(#p70aa6fa97f)" d="M 256.725 227.936038 
L 256.725 222.320233 
" style="fill:none;stroke:#4169e1;stroke-width:3;"/>
    <path clip-path="url(#p70aa6fa97f)" d="M 272.475 227.905355 
L 272.475 222.350916 
" style="fill:none;stroke:#4169e1;stroke-width:3;"/>
    <path clip-path="url(#p70aa6fa97f)" d="M 288.225 224.05424 
L 288.225 217.080485 
" style="fill:none;stroke:#4169e1;stroke-width:3;"/>
    <path clip-path="url(#p70aa6fa97f)" d="M 303.975 227.76148 
L 303.975 222.494792 
" style="fill:none;stroke:#4169e1;stroke-width:3;"/>
    <path clip-path="url(#p70aa6fa97f)" d="M 319.725 224.117198 
L 319.725 217.502716 
" style="fill:none;stroke:#4169e1;stroke-width:3;"/>
    <path clip-path="url(#p70aa6fa97f)" d="M 335.475 219.071718 
L 335.475 209.593659 
" style="fill:none;stroke:#4169e1;stroke-width:3;"/>
    <path clip-path="url(#p70aa6fa97f)" d="M 351.225 227.76148 
L 351.225 222.494792 
" style="fill:none;stroke:#4169e1;stroke-width:3;"/>
    <path clip-path="url(#p70aa6fa97f)" d="M 366.975 225.60239 
L 366.975 220.335702 
" style="fill:none;stroke:#4169e1;stroke-width:3;"/>
    <path clip-path="url(#p70aa6fa97f)" d="M 382.725 224.117198 
L 382.725 217.502716 
" style="fill:none;stroke:#4169e1;stroke-width:3;"/>
    <path clip-path="url(#p70aa6fa97f)" d="M 398.475 219.071718 
L 398.475 209.593659 
" style="fill:none;stroke:#4169e1;stroke-width:3;"/>
    <path clip-path="url(#p70aa6fa97f)" d="M 414.225 225.60239 
L 414.225 220.335702 
" style="fill:none;stroke:#4169e1;stroke-width:3;"/>
    <path clip-path="url(#p70aa6fa97f)" d="M 429.975 227.76148 
L 429.975 222.494792 
" style="fill:none;stroke:#4169e1;stroke-width:3;"/>
    <path clip-path="url(#p70aa6fa97f)" d="M 445.725 227.76148 
L 445.725 222.494792 
" style="fill:none;stroke:#4169e1;stroke-width:3;"/>
    <path clip-path="url(#p70aa6fa97f)" d="M 461.475 227.76148 
L 461.475 222.494792 
" style="fill:none;stroke:#4169e1;stroke-width:3;"/>
    <path clip-path="url(#p70aa6fa97f)" d="M 477.225 227.76148 
L 477.225 222.494792 
" style="fill:none;stroke:#4169e1;stroke-width:3;"/>
    <path clip-path="url(#p70aa6fa97f)" d="M 492.975 225.60239 
L 492.975 220.335702 
" style="fill:none;stroke:#4169e1;stroke-width:3;"/>
    <path clip-path="url(#p70aa6fa97f)" d="M 508.725 227.76148 
L 508.725 222.494792 
" style="fill:none;stroke:#4169e1;stroke-width:3;"/>
    <path clip-path="url(#p70aa6fa97f)" d="M 524.475 224.117198 
L 524.475 217.502716 
" style="fill:none;stroke:#4169e1;stroke-width:3;"/>
    <path clip-path="url(#p70aa6fa97f)" d="M 540.225 224.117198 
L 540.225 217.502716 
" style="fill:none;stroke:#4169e1;stroke-width:3;"/>
    <path clip-path="url(#p70aa6fa97f)" d="M 555.975 227.76148 
L 555.975 222.494792 
" style="fill:none;stroke:#4169e1;stroke-width:3;"/>
    <path clip-path="url(#p70aa6fa97f)" d="M 571.725 225.60239 
L 571.725 220.335702 
" style="fill:none;stroke:#4169e1;stroke-width:3;"/>
    <path clip-path="url(#p70aa6fa97f)" d="M 587.475 227.76148 
L 587.475 222.494792 
" style="fill:none;stroke:#4169e1;stroke-width:3;"/>
    <path clip-path="url(#p70aa6fa97f)" d="M 603.225 227.76148 
L 603.225 222.494792 
" style="fill:none;stroke:#4169e1;stroke-width:3;"/>
    <path clip-path="url(#p70aa6fa97f)" d="M 618.975 225.60239 
L 618.975 220.335702 
" style="fill:none;stroke:#4169e1;stroke-width:3;"/>
    <path clip-path="url(#p70aa6fa97f)" d="M 634.725 220.816612 
L 634.725 212.166944 
" style="fill:none;stroke:#4169e1;stroke-width:3;"/>
    <path clip-path="url(#p70aa6fa97f)" d="M 650.475 222.506167 
L 650.475 214.795568 
" style="fill:none;stroke:#4169e1;stroke-width:3;"/>
    <path clip-path="url(#p70aa6fa97f)" d="M 666.225 227.76148 
L 666.225 222.494792 
" style="fill:none;stroke:#4169e1;stroke-width:3;"/>
    <path clip-path="url(#p70aa6fa97f)" d="M 681.975 225.60239 
L 681.975 220.335702 
" style="fill:none;stroke:#4169e1;stroke-width:3;"/>
    <path clip-path="url(#p70aa6fa97f)" d="M 697.725 222.506167 
L 697.725 214.795568 
" style="fill:none;stroke:#4169e1;stroke-width:3;"/>
    <path clip-path="url(#p70aa6fa97f)" d="M 713.475 227.76148 
L 713.475 222.494792 
" style="fill:none;stroke:#4169e1;stroke-width:3;"/>
    <path clip-path="url(#p70aa6fa97f)" d="M 729.225 224.117198 
L 729.225 217.502716 
" style="fill:none;stroke:#4169e1;stroke-width:3;"/>
    <path clip-path="url(#p70aa6fa97f)" d="M 744.975 225.60239 
L 744.975 220.335702 
" style="fill:none;stroke:#4169e1;stroke-width:3;"/>
    <path clip-path="url(#p70aa6fa97f)" d="M 760.725 227.76148 
L 760.725 222.494792 
" style="fill:none;stroke:#4169e1;stroke-width:3;"/>
    <path clip-path="url(#p70aa6fa97f)" d="M 776.475 225.60239 
L 776.475 220.335702 
" style="fill:none;stroke:#4169e1;stroke-width:3;"/>
    <path clip-path="url(#p70aa6fa97f)" d="M 792.225 225.60239 
L 792.225 220.335702 
" style="fill:none;stroke:#4169e1;stroke-width:3;"/>
    <path clip-path="url(#p70aa6fa97f)" d="M 807.975 227.76148 
L 807.975 222.494792 
" style="fill:none;stroke:#4169e1;stroke-width:3;"/>
    <path clip-path="url(#p70aa6fa97f)" d="M 823.725 224.117198 
L 823.725 217.502716 
" style="fill:none;stroke:#4169e1;stroke-width:3;"/>
    <path clip-path="url(#p70aa6fa97f)" d="M 839.475 225.60239 
L 839.475 220.335702 
" style="fill:none;stroke:#4169e1;stroke-width:3;"/>
    <path clip-path="url(#p70aa6fa97f)" d="M 855.225 220.816612 
L 855.225 212.166944 
" style="fill:none;stroke:#4169e1;stroke-width:3;"/>
    <path clip-path="url(#p70aa6fa97f)" d="M 870.975 227.76148 
L 870.975 222.494792 
" style="fill:none;stroke:#4169e1;stroke-width:3;"/>
    <path clip-path="url(#p70aa6fa97f)" d="M 886.725 225.60239 
L 886.725 220.335702 
" style="fill:none;stroke:#4169e1;stroke-width:3;"/>
    <path clip-path="url(#p70aa6fa97f)" d="M 902.475 227.76148 
L 902.475 222.494792 
" style="fill:none;stroke:#4169e1;stroke-width:3;"/>
    <path clip-path="url(#p70aa6fa97f)" d="M 918.225 225.60239 
L 918.225 220.335702 
" style="fill:none;stroke:#4169e1;stroke-width:3;"/>
    <path clip-path="url(#p70aa6fa97f)" d="M 933.975 215.464655 
L 933.975 204.564364 
" style="fill:none;stroke:#4169e1;stroke-width:3;"/>
    <path clip-path="url(#p70aa6fa97f)" d="M 949.725 225.60239 
L 949.725 220.335702 
" style="fill:none;stroke:#4169e1;stroke-width:3;"/>
   </g>
   <g id="line2d_10">
    <path clip-path="url(#p70aa6fa97f)" d="M 429.975 242.701017 
L 429.975 137.263729 
" style="fill:none;stroke:#000000;stroke-dasharray:11.1,4.8;stroke-dashoffset:0;stroke-width:3;"/>
   </g>
   <g id="line2d_11">
    <path clip-path="url(#p70aa6fa97f)" d="M 209.475 225.128136 
L 225.225 225.128136 
L 240.975 49.399322 
L 256.725 225.128136 
L 272.475 225.128136 
L 288.225 220.567362 
L 303.975 225.128136 
L 319.725 220.809957 
L 335.475 214.332689 
L 351.225 225.128136 
L 366.975 222.969046 
L 382.725 220.809957 
L 398.475 214.332689 
L 414.225 222.969046 
L 429.975 225.128136 
L 445.725 225.128136 
L 461.475 225.128136 
L 477.225 225.128136 
L 492.975 222.969046 
L 508.725 225.128136 
L 524.475 220.809957 
L 540.225 220.809957 
L 555.975 225.128136 
L 571.725 222.969046 
L 587.475 225.128136 
L 603.225 225.128136 
L 618.975 222.969046 
L 634.725 216.491778 
L 650.475 218.650867 
L 666.225 225.128136 
L 681.975 222.969046 
L 697.725 218.650867 
L 713.475 225.128136 
L 729.225 220.809957 
L 744.975 222.969046 
L 760.725 225.128136 
L 776.475 222.969046 
L 792.225 222.969046 
L 807.975 225.128136 
L 823.725 220.809957 
L 839.475 222.969046 
L 855.225 216.491778 
L 870.975 225.128136 
L 886.725 222.969046 
L 902.475 225.128136 
L 918.225 222.969046 
L 933.975 210.01451 
L 949.725 222.969046 
" style="fill:none;stroke:#4169e1;stroke-linecap:round;stroke-width:3;"/>
    <defs>
     <path d="M 0 3.25 
C 0.86191 3.25 1.688635 2.907559 2.298097 2.298097 
C 2.907559 1.688635 3.25 0.86191 3.25 0 
C 3.25 -0.86191 2.907559 -1.688635 2.298097 -2.298097 
C 1.688635 -2.907559 0.86191 -3.25 0 -3.25 
C -0.86191 -3.25 -1.688635 -2.907559 -2.298097 -2.298097 
C -2.907559 -1.688635 -3.25 -0.86191 -3.25 0 
C -3.25 0.86191 -2.907559 1.688635 -2.298097 2.298097 
C -1.688635 2.907559 -0.86191 3.25 0 3.25 
z
" id="md9221d5fde" style="stroke:#4169e1;"/>
    </defs>
    <g clip-path="url(#p70aa6fa97f)">
     <use style="fill:#4169e1;stroke:#4169e1;" x="209.475" xlink:href="#md9221d5fde" y="225.128136"/>
     <use style="fill:#4169e1;stroke:#4169e1;" x="225.225" xlink:href="#md9221d5fde" y="225.128136"/>
     <use style="fill:#4169e1;stroke:#4169e1;" x="240.975" xlink:href="#md9221d5fde" y="49.399322"/>
     <use style="fill:#4169e1;stroke:#4169e1;" x="256.725" xlink:href="#md9221d5fde" y="225.128136"/>
     <use style="fill:#4169e1;stroke:#4169e1;" x="272.475" xlink:href="#md9221d5fde" y="225.128136"/>
     <use style="fill:#4169e1;stroke:#4169e1;" x="288.225" xlink:href="#md9221d5fde" y="220.567362"/>
     <use style="fill:#4169e1;stroke:#4169e1;" x="303.975" xlink:href="#md9221d5fde" y="225.128136"/>
     <use style="fill:#4169e1;stroke:#4169e1;" x="319.725" xlink:href="#md9221d5fde" y="220.809957"/>
     <use style="fill:#4169e1;stroke:#4169e1;" x="335.475" xlink:href="#md9221d5fde" y="214.332689"/>
     <use style="fill:#4169e1;stroke:#4169e1;" x="351.225" xlink:href="#md9221d5fde" y="225.128136"/>
     <use style="fill:#4169e1;stroke:#4169e1;" x="366.975" xlink:href="#md9221d5fde" y="222.969046"/>
     <use style="fill:#4169e1;stroke:#4169e1;" x="382.725" xlink:href="#md9221d5fde" y="220.809957"/>
     <use style="fill:#4169e1;stroke:#4169e1;" x="398.475" xlink:href="#md9221d5fde" y="214.332689"/>
     <use style="fill:#4169e1;stroke:#4169e1;" x="414.225" xlink:href="#md9221d5fde" y="222.969046"/>
     <use style="fill:#4169e1;stroke:#4169e1;" x="429.975" xlink:href="#md9221d5fde" y="225.128136"/>
     <use style="fill:#4169e1;stroke:#4169e1;" x="445.725" xlink:href="#md9221d5fde" y="225.128136"/>
     <use style="fill:#4169e1;stroke:#4169e1;" x="461.475" xlink:href="#md9221d5fde" y="225.128136"/>
     <use style="fill:#4169e1;stroke:#4169e1;" x="477.225" xlink:href="#md9221d5fde" y="225.128136"/>
     <use style="fill:#4169e1;stroke:#4169e1;" x="492.975" xlink:href="#md9221d5fde" y="222.969046"/>
     <use style="fill:#4169e1;stroke:#4169e1;" x="508.725" xlink:href="#md9221d5fde" y="225.128136"/>
     <use style="fill:#4169e1;stroke:#4169e1;" x="524.475" xlink:href="#md9221d5fde" y="220.809957"/>
     <use style="fill:#4169e1;stroke:#4169e1;" x="540.225" xlink:href="#md9221d5fde" y="220.809957"/>
     <use style="fill:#4169e1;stroke:#4169e1;" x="555.975" xlink:href="#md9221d5fde" y="225.128136"/>
     <use style="fill:#4169e1;stroke:#4169e1;" x="571.725" xlink:href="#md9221d5fde" y="222.969046"/>
     <use style="fill:#4169e1;stroke:#4169e1;" x="587.475" xlink:href="#md9221d5fde" y="225.128136"/>
     <use style="fill:#4169e1;stroke:#4169e1;" x="603.225" xlink:href="#md9221d5fde" y="225.128136"/>
     <use style="fill:#4169e1;stroke:#4169e1;" x="618.975" xlink:href="#md9221d5fde" y="222.969046"/>
     <use style="fill:#4169e1;stroke:#4169e1;" x="634.725" xlink:href="#md9221d5fde" y="216.491778"/>
     <use style="fill:#4169e1;stroke:#4169e1;" x="650.475" xlink:href="#md9221d5fde" y="218.650867"/>
     <use style="fill:#4169e1;stroke:#4169e1;" x="666.225" xlink:href="#md9221d5fde" y="225.128136"/>
     <use style="fill:#4169e1;stroke:#4169e1;" x="681.975" xlink:href="#md9221d5fde" y="222.969046"/>
     <use style="fill:#4169e1;stroke:#4169e1;" x="697.725" xlink:href="#md9221d5fde" y="218.650867"/>
     <use style="fill:#4169e1;stroke:#4169e1;" x="713.475" xlink:href="#md9221d5fde" y="225.128136"/>
     <use style="fill:#4169e1;stroke:#4169e1;" x="729.225" xlink:href="#md9221d5fde" y="220.809957"/>
     <use style="fill:#4169e1;stroke:#4169e1;" x="744.975" xlink:href="#md9221d5fde" y="222.969046"/>
     <use style="fill:#4169e1;stroke:#4169e1;" x="760.725" xlink:href="#md9221d5fde" y="225.128136"/>
     <use style="fill:#4169e1;stroke:#4169e1;" x="776.475" xlink:href="#md9221d5fde" y="222.969046"/>
     <use style="fill:#4169e1;stroke:#4169e1;" x="792.225" xlink:href="#md9221d5fde" y="222.969046"/>
     <use style="fill:#4169e1;stroke:#4169e1;" x="807.975" xlink:href="#md9221d5fde" y="225.128136"/>
     <use style="fill:#4169e1;stroke:#4169e1;" x="823.725" xlink:href="#md9221d5fde" y="220.809957"/>
     <use style="fill:#4169e1;stroke:#4169e1;" x="839.475" xlink:href="#md9221d5fde" y="222.969046"/>
     <use style="fill:#4169e1;stroke:#4169e1;" x="855.225" xlink:href="#md9221d5fde" y="216.491778"/>
     <use style="fill:#4169e1;stroke:#4169e1;" x="870.975" xlink:href="#md9221d5fde" y="225.128136"/>
     <use style="fill:#4169e1;stroke:#4169e1;" x="886.725" xlink:href="#md9221d5fde" y="222.969046"/>
     <use style="fill:#4169e1;stroke:#4169e1;" x="902.475" xlink:href="#md9221d5fde" y="225.128136"/>
     <use style="fill:#4169e1;stroke:#4169e1;" x="918.225" xlink:href="#md9221d5fde" y="222.969046"/>
     <use style="fill:#4169e1;stroke:#4169e1;" x="933.975" xlink:href="#md9221d5fde" y="210.01451"/>
     <use style="fill:#4169e1;stroke:#4169e1;" x="949.725" xlink:href="#md9221d5fde" y="222.969046"/>
    </g>
   </g>
   <g id="patch_3">
    <path d="M 201.6 230.4 
L 201.6 23.04 
" style="fill:none;stroke:#262626;stroke-linecap:square;stroke-linejoin:miter;stroke-width:0.8;"/>
   </g>
   <g id="patch_4">
    <path d="M 201.6 230.4 
L 957.6 230.4 
" style="fill:none;stroke:#262626;stroke-linecap:square;stroke-linejoin:miter;stroke-width:0.8;"/>
   </g>
   <g id="text_12">
    <text style="fill:#262626;font-family:DejaVu Sans;font-size:20px;font-style:normal;font-weight:bold;text-anchor:middle;" transform="rotate(-0, 579.6, 17.04)" x="579.6" y="17.04">IGHJ4*01</text>
   </g>
  </g>
 </g>
 <defs>
  <clipPath id="p70aa6fa97f">
   <rect height="207.36" width="756" x="201.6" y="23.04"/>
  </clipPath>
 </defs>
</svg>
