<?xml version="1.0" encoding="utf-8" standalone="no"?>
<!DOCTYPE svg PUBLIC "-//W3C//DTD SVG 1.1//EN"
  "http://www.w3.org/Graphics/SVG/1.1/DTD/svg11.dtd">
<!-- Created with matplotlib (http://matplotlib.org/) -->
<svg height="288pt" version="1.1" viewBox="0 0 1008 288" width="1008pt" xmlns="http://www.w3.org/2000/svg" xmlns:xlink="http://www.w3.org/1999/xlink">
 <defs>
  <style type="text/css">
*{stroke-linecap:butt;stroke-linejoin:round;}
  </style>
 </defs>
 <g id="figure_1">
  <g id="patch_1">
   <path d="M 0 288 
L 1008 288 
L 1008 0 
L 0 0 
z
" style="fill:#ffffff;"/>
  </g>
  <g id="axes_1">
   <g id="patch_2">
    <path d="M 201.6 230.4 
L 957.6 230.4 
L 957.6 23.04 
L 201.6 23.04 
z
" style="fill:#ffffff;"/>
   </g>
   <g id="matplotlib.axis_1">
    <g id="xtick_1">
     <g id="line2d_1">
      <defs>
       <path d="M 0 0 
L 0 3.5 
" id="m6eca06365b" style="stroke:#262626;stroke-width:0.8;"/>
      </defs>
      <g>
       <use style="fill:#262626;stroke:#262626;stroke-width:0.8;" x="286.324138" xlink:href="#m6eca06365b" y="230.4"/>
      </g>
     </g>
     <g id="text_1">
      <text style="fill:#262626;font-family:DejaVu Sans;font-size:20px;font-style:normal;font-weight:normal;text-anchor:middle;" transform="rotate(-0, 286.324138, 252.596875)" x="286.324138" y="252.596875">10</text>
     </g>
    </g>
    <g id="xtick_2">
     <g id="line2d_2">
      <g>
       <use style="fill:#262626;stroke:#262626;stroke-width:0.8;" x="416.668966" xlink:href="#m6eca06365b" y="230.4"/>
      </g>
     </g>
     <g id="text_2">
      <text style="fill:#262626;font-family:DejaVu Sans;font-size:20px;font-style:normal;font-weight:normal;text-anchor:middle;" transform="rotate(-0, 416.668966, 252.596875)" x="416.668966" y="252.596875">20</text>
     </g>
    </g>
    <g id="xtick_3">
     <g id="line2d_3">
      <g>
       <use style="fill:#262626;stroke:#262626;stroke-width:0.8;" x="547.013793" xlink:href="#m6eca06365b" y="230.4"/>
      </g>
     </g>
     <g id="text_3">
      <text style="fill:#262626;font-family:DejaVu Sans;font-size:20px;font-style:normal;font-weight:normal;text-anchor:middle;" transform="rotate(-0, 547.013793, 252.596875)" x="547.013793" y="252.596875">30</text>
     </g>
    </g>
    <g id="xtick_4">
     <g id="line2d_4">
      <g>
       <use style="fill:#262626;stroke:#262626;stroke-width:0.8;" x="677.358621" xlink:href="#m6eca06365b" y="230.4"/>
      </g>
     </g>
     <g id="text_4">
      <text style="fill:#262626;font-family:DejaVu Sans;font-size:20px;font-style:normal;font-weight:normal;text-anchor:middle;" transform="rotate(-0, 677.358621, 252.596875)" x="677.358621" y="252.596875">40</text>
     </g>
    </g>
    <g id="xtick_5">
     <g id="line2d_5">
      <g>
       <use style="fill:#262626;stroke:#262626;stroke-width:0.8;" x="807.703448" xlink:href="#m6eca06365b" y="230.4"/>
      </g>
     </g>
     <g id="text_5">
      <text style="fill:#262626;font-family:DejaVu Sans;font-size:20px;font-style:normal;font-weight:normal;text-anchor:middle;" transform="rotate(-0, 807.703448, 252.596875)" x="807.703448" y="252.596875">50</text>
     </g>
    </g>
    <g id="xtick_6">
     <g id="line2d_6">
      <g>
       <use style="fill:#262626;stroke:#262626;stroke-width:0.8;" x="938.048276" xlink:href="#m6eca06365b" y="230.4"/>
      </g>
     </g>
     <g id="text_6">
      <text style="fill:#262626;font-family:DejaVu Sans;font-size:20px;font-style:normal;font-weight:normal;text-anchor:middle;" transform="rotate(-0, 938.048276, 252.596875)" x="938.048276" y="252.596875">60</text>
     </g>
    </g>
    <g id="text_7">
     <text style="fill:#262626;font-family:DejaVu Sans;font-size:20px;font-style:normal;font-weight:normal;text-anchor:middle;" transform="rotate(-0, 579.6, 275.953125)" x="579.6" y="275.953125">position</text>
    </g>
   </g>
   <g id="matplotlib.axis_2">
    <g id="ytick_1">
     <g id="line2d_7">
      <defs>
       <path d="M 0 0 
L -3.5 0 
" id="m7ea719a3c9" style="stroke:#262626;stroke-width:0.8;"/>
      </defs>
      <g>
       <use style="fill:#262626;stroke:#262626;stroke-width:0.8;" x="201.6" xlink:href="#m7ea719a3c9" y="225.128136"/>
      </g>
     </g>
     <g id="text_8">
      <text style="fill:#262626;font-family:DejaVu Sans;font-size:20px;font-style:normal;font-weight:normal;text-anchor:end;" transform="rotate(-0, 194.6, 232.726573)" x="194.6" y="232.726573">0.00</text>
     </g>
    </g>
    <g id="ytick_2">
     <g id="line2d_8">
      <g>
       <use style="fill:#262626;stroke:#262626;stroke-width:0.8;" x="201.6" xlink:href="#m7ea719a3c9" y="181.195932"/>
      </g>
     </g>
     <g id="text_9">
      <text style="fill:#262626;font-family:DejaVu Sans;font-size:20px;font-style:normal;font-weight:normal;text-anchor:end;" transform="rotate(-0, 194.6, 188.79437)" x="194.6" y="188.79437">0.25</text>
     </g>
    </g>
    <g id="ytick_3">
     <g id="line2d_9">
      <g>
       <use style="fill:#262626;stroke:#262626;stroke-width:0.8;" x="201.6" xlink:href="#m7ea719a3c9" y="137.263729"/>
      </g>
     </g>
     <g id="text_10">
      <text style="fill:#262626;font-family:DejaVu Sans;font-size:20px;font-style:normal;font-weight:normal;text-anchor:end;" transform="rotate(-0, 194.6, 144.862166)" x="194.6" y="144.862166">0.50</text>
     </g>
    </g>
    <g id="ytick_4">
     <g id="line2d_10">
      <g>
       <use style="fill:#262626;stroke:#262626;stroke-width:0.8;" x="201.6" xlink:href="#m7ea719a3c9" y="93.331525"/>
      </g>
     </g>
     <g id="text_11">
      <text style="fill:#262626;font-family:DejaVu Sans;font-size:20px;font-style:normal;font-weight:normal;text-anchor:end;" transform="rotate(-0, 194.6, 100.929963)" x="194.6" y="100.929963">0.75</text>
     </g>
    </g>
    <g id="ytick_5">
     <g id="line2d_11">
      <g>
       <use style="fill:#262626;stroke:#262626;stroke-width:0.8;" x="201.6" xlink:href="#m7ea719a3c9" y="49.399322"/>
      </g>
     </g>
     <g id="text_12">
      <text style="fill:#262626;font-family:DejaVu Sans;font-size:20px;font-style:normal;font-weight:normal;text-anchor:end;" transform="rotate(-0, 194.6, 56.99776)" x="194.6" y="56.99776">1.00</text>
     </g>
    </g>
    <g id="text_13">
     <text style="fill:#262626;font-family:DejaVu Sans;font-size:20px;font-style:normal;font-weight:normal;text-anchor:middle;" transform="rotate(-90, 141.909375, 126.72)" x="141.909375" y="126.72">mut freq</text>
    </g>
   </g>
   <g id="LineCollection_1">
    <path clip-path="url(#pa18869a4e3)" d="M 208.117241 269.466504 
L 208.117241 180.789767 
" style="fill:none;stroke:#4169e1;stroke-width:3;"/>
    <path clip-path="url(#pa18869a4e3)" d="M 221.151724 269.466504 
L 221.151724 180.789767 
" style="fill:none;stroke:#4169e1;stroke-width:3;"/>
    <path clip-path="url(#pa18869a4e3)" d="M 234.186207 86.53519 
L 234.186207 12.263454 
" style="fill:none;stroke:#4169e1;stroke-width:3;"/>
    <path clip-path="url(#pa18869a4e3)" d="M 247.22069 269.466504 
L 247.22069 180.789767 
" style="fill:none;stroke:#4169e1;stroke-width:3;"/>
    <path clip-path="url(#pa18869a4e3)" d="M 260.255172 269.466504 
L 260.255172 180.789767 
" style="fill:none;stroke:#4169e1;stroke-width:3;"/>
    <path clip-path="url(#pa18869a4e3)" d="M 273.289655 269.466504 
L 273.289655 180.789767 
" style="fill:none;stroke:#4169e1;stroke-width:3;"/>
    <path clip-path="url(#pa18869a4e3)" d="M 286.324138 269.466504 
L 286.324138 180.789767 
" style="fill:none;stroke:#4169e1;stroke-width:3;"/>
    <path clip-path="url(#pa18869a4e3)" d="M 299.358621 269.466504 
L 299.358621 180.789767 
" style="fill:none;stroke:#4169e1;stroke-width:3;"/>
    <path clip-path="url(#pa18869a4e3)" d="M 312.393103 86.53519 
L 312.393103 12.263454 
" style="fill:none;stroke:#4169e1;stroke-width:3;"/>
    <path clip-path="url(#pa18869a4e3)" d="M 325.427586 269.466504 
L 325.427586 180.789767 
" style="fill:none;stroke:#4169e1;stroke-width:3;"/>
    <path clip-path="url(#pa18869a4e3)" d="M 338.462069 86.53519 
L 338.462069 12.263454 
" style="fill:none;stroke:#4169e1;stroke-width:3;"/>
    <path clip-path="url(#pa18869a4e3)" d="M 351.496552 269.466504 
L 351.496552 180.789767 
" style="fill:none;stroke:#4169e1;stroke-width:3;"/>
    <path clip-path="url(#pa18869a4e3)" d="M 364.531034 86.53519 
L 364.531034 12.263454 
" style="fill:none;stroke:#4169e1;stroke-width:3;"/>
    <path clip-path="url(#pa18869a4e3)" d="M 377.565517 179.588187 
L 377.565517 94.939271 
" style="fill:none;stroke:#4169e1;stroke-width:3;"/>
    <path clip-path="url(#pa18869a4e3)" d="M 390.6 267.452593 
L 390.6 182.803678 
" style="fill:none;stroke:#4169e1;stroke-width:3;"/>
    <path clip-path="url(#pa18869a4e3)" d="M 403.634483 179.588187 
L 403.634483 94.939271 
" style="fill:none;stroke:#4169e1;stroke-width:3;"/>
    <path clip-path="url(#pa18869a4e3)" d="M 416.668966 179.588187 
L 416.668966 94.939271 
" style="fill:none;stroke:#4169e1;stroke-width:3;"/>
    <path clip-path="url(#pa18869a4e3)" d="M 429.703448 267.452593 
L 429.703448 182.803678 
" style="fill:none;stroke:#4169e1;stroke-width:3;"/>
    <path clip-path="url(#pa18869a4e3)" d="M 442.737931 179.588187 
L 442.737931 94.939271 
" style="fill:none;stroke:#4169e1;stroke-width:3;"/>
    <path clip-path="url(#pa18869a4e3)" d="M 455.772414 267.452593 
L 455.772414 182.803678 
" style="fill:none;stroke:#4169e1;stroke-width:3;"/>
    <path clip-path="url(#pa18869a4e3)" d="M 468.806897 267.452593 
L 468.806897 182.803678 
" style="fill:none;stroke:#4169e1;stroke-width:3;"/>
    <path clip-path="url(#pa18869a4e3)" d="M 481.841379 267.452593 
L 481.841379 182.803678 
" style="fill:none;stroke:#4169e1;stroke-width:3;"/>
    <path clip-path="url(#pa18869a4e3)" d="M 494.875862 267.452593 
L 494.875862 182.803678 
" style="fill:none;stroke:#4169e1;stroke-width:3;"/>
    <path clip-path="url(#pa18869a4e3)" d="M 507.910345 179.588187 
L 507.910345 94.939271 
" style="fill:none;stroke:#4169e1;stroke-width:3;"/>
    <path clip-path="url(#pa18869a4e3)" d="M 520.944828 267.452593 
L 520.944828 182.803678 
" style="fill:none;stroke:#4169e1;stroke-width:3;"/>
    <path clip-path="url(#pa18869a4e3)" d="M 533.97931 267.452593 
L 533.97931 182.803678 
" style="fill:none;stroke:#4169e1;stroke-width:3;"/>
    <path clip-path="url(#pa18869a4e3)" d="M 547.013793 267.452593 
L 547.013793 182.803678 
" style="fill:none;stroke:#4169e1;stroke-width:3;"/>
    <path clip-path="url(#pa18869a4e3)" d="M 560.048276 267.452593 
L 560.048276 182.803678 
" style="fill:none;stroke:#4169e1;stroke-width:3;"/>
    <path clip-path="url(#pa18869a4e3)" d="M 573.082759 267.452593 
L 573.082759 182.803678 
" style="fill:none;stroke:#4169e1;stroke-width:3;"/>
    <path clip-path="url(#pa18869a4e3)" d="M 586.117241 267.452593 
L 586.117241 182.803678 
" style="fill:none;stroke:#4169e1;stroke-width:3;"/>
    <path clip-path="url(#pa18869a4e3)" d="M 599.151724 267.452593 
L 599.151724 182.803678 
" style="fill:none;stroke:#4169e1;stroke-width:3;"/>
    <path clip-path="url(#pa18869a4e3)" d="M 612.186207 76.341952 
L 612.186207 22.456692 
" style="fill:none;stroke:#4169e1;stroke-width:3;"/>
    <path clip-path="url(#pa18869a4e3)" d="M 625.22069 267.452593 
L 625.22069 182.803678 
" style="fill:none;stroke:#4169e1;stroke-width:3;"/>
    <path clip-path="url(#pa18869a4e3)" d="M 638.255172 267.452593 
L 638.255172 182.803678 
" style="fill:none;stroke:#4169e1;stroke-width:3;"/>
    <path clip-path="url(#pa18869a4e3)" d="M 651.289655 267.452593 
L 651.289655 182.803678 
" style="fill:none;stroke:#4169e1;stroke-width:3;"/>
    <path clip-path="url(#pa18869a4e3)" d="M 664.324138 267.452593 
L 664.324138 182.803678 
" style="fill:none;stroke:#4169e1;stroke-width:3;"/>
    <path clip-path="url(#pa18869a4e3)" d="M 677.358621 267.452593 
L 677.358621 182.803678 
" style="fill:none;stroke:#4169e1;stroke-width:3;"/>
    <path clip-path="url(#pa18869a4e3)" d="M 690.393103 267.452593 
L 690.393103 182.803678 
" style="fill:none;stroke:#4169e1;stroke-width:3;"/>
    <path clip-path="url(#pa18869a4e3)" d="M 703.427586 267.452593 
L 703.427586 182.803678 
" style="fill:none;stroke:#4169e1;stroke-width:3;"/>
    <path clip-path="url(#pa18869a4e3)" d="M 716.462069 179.588187 
L 716.462069 94.939271 
" style="fill:none;stroke:#4169e1;stroke-width:3;"/>
    <path clip-path="url(#pa18869a4e3)" d="M 729.496552 267.452593 
L 729.496552 182.803678 
" style="fill:none;stroke:#4169e1;stroke-width:3;"/>
    <path clip-path="url(#pa18869a4e3)" d="M 742.531034 179.588187 
L 742.531034 94.939271 
" style="fill:none;stroke:#4169e1;stroke-width:3;"/>
    <path clip-path="url(#pa18869a4e3)" d="M 755.565517 267.452593 
L 755.565517 182.803678 
" style="fill:none;stroke:#4169e1;stroke-width:3;"/>
    <path clip-path="url(#pa18869a4e3)" d="M 768.6 267.452593 
L 768.6 182.803678 
" style="fill:none;stroke:#4169e1;stroke-width:3;"/>
    <path clip-path="url(#pa18869a4e3)" d="M 781.634483 267.452593 
L 781.634483 182.803678 
" style="fill:none;stroke:#4169e1;stroke-width:3;"/>
    <path clip-path="url(#pa18869a4e3)" d="M 794.668966 267.452593 
L 794.668966 182.803678 
" style="fill:none;stroke:#4169e1;stroke-width:3;"/>
    <path clip-path="url(#pa18869a4e3)" d="M 807.703448 267.452593 
L 807.703448 182.803678 
" style="fill:none;stroke:#4169e1;stroke-width:3;"/>
    <path clip-path="url(#pa18869a4e3)" d="M 820.737931 267.452593 
L 820.737931 182.803678 
" style="fill:none;stroke:#4169e1;stroke-width:3;"/>
    <path clip-path="url(#pa18869a4e3)" d="M 833.772414 267.452593 
L 833.772414 182.803678 
" style="fill:none;stroke:#4169e1;stroke-width:3;"/>
    <path clip-path="url(#pa18869a4e3)" d="M 846.806897 267.452593 
L 846.806897 182.803678 
" style="fill:none;stroke:#4169e1;stroke-width:3;"/>
    <path clip-path="url(#pa18869a4e3)" d="M 859.841379 267.452593 
L 859.841379 182.803678 
" style="fill:none;stroke:#4169e1;stroke-width:3;"/>
    <path clip-path="url(#pa18869a4e3)" d="M 872.875862 267.452593 
L 872.875862 182.803678 
" style="fill:none;stroke:#4169e1;stroke-width:3;"/>
    <path clip-path="url(#pa18869a4e3)" d="M 885.910345 267.452593 
L 885.910345 182.803678 
" style="fill:none;stroke:#4169e1;stroke-width:3;"/>
    <path clip-path="url(#pa18869a4e3)" d="M 898.944828 267.452593 
L 898.944828 182.803678 
" style="fill:none;stroke:#4169e1;stroke-width:3;"/>
    <path clip-path="url(#pa18869a4e3)" d="M 911.97931 179.588187 
L 911.97931 94.939271 
" style="fill:none;stroke:#4169e1;stroke-width:3;"/>
    <path clip-path="url(#pa18869a4e3)" d="M 925.013793 267.452593 
L 925.013793 182.803678 
" style="fill:none;stroke:#4169e1;stroke-width:3;"/>
    <path clip-path="url(#pa18869a4e3)" d="M 938.048276 267.452593 
L 938.048276 182.803678 
" style="fill:none;stroke:#4169e1;stroke-width:3;"/>
    <path clip-path="url(#pa18869a4e3)" d="M 951.082759 267.452593 
L 951.082759 182.803678 
" style="fill:none;stroke:#4169e1;stroke-width:3;"/>
   </g>
   <g id="line2d_12">
    <path clip-path="url(#pa18869a4e3)" d="M 533.97931 242.701017 
L 533.97931 137.263729 
" style="fill:none;stroke:#000000;stroke-dasharray:11.1,4.8;stroke-dashoffset:0;stroke-width:3;"/>
   </g>
   <g id="line2d_13">
    <path clip-path="url(#pa18869a4e3)" d="M 208.117241 225.128136 
L 221.151724 225.128136 
L 234.186207 49.399322 
L 247.22069 225.128136 
L 260.255172 225.128136 
L 273.289655 225.128136 
L 286.324138 225.128136 
L 299.358621 225.128136 
L 312.393103 49.399322 
L 325.427586 225.128136 
L 338.462069 49.399322 
L 351.496552 225.128136 
L 364.531034 49.399322 
L 377.565517 137.263729 
L 390.6 225.128136 
L 403.634483 137.263729 
L 416.668966 137.263729 
L 429.703448 225.128136 
L 442.737931 137.263729 
L 455.772414 225.128136 
L 468.806897 225.128136 
L 481.841379 225.128136 
L 494.875862 225.128136 
L 507.910345 137.263729 
L 520.944828 225.128136 
L 533.97931 225.128136 
L 547.013793 225.128136 
L 560.048276 225.128136 
L 573.082759 225.128136 
L 586.117241 225.128136 
L 599.151724 225.128136 
L 612.186207 49.399322 
L 625.22069 225.128136 
L 638.255172 225.128136 
L 651.289655 225.128136 
L 664.324138 225.128136 
L 677.358621 225.128136 
L 690.393103 225.128136 
L 703.427586 225.128136 
L 716.462069 137.263729 
L 729.496552 225.128136 
L 742.531034 137.263729 
L 755.565517 225.128136 
L 768.6 225.128136 
L 781.634483 225.128136 
L 794.668966 225.128136 
L 807.703448 225.128136 
L 820.737931 225.128136 
L 833.772414 225.128136 
L 846.806897 225.128136 
L 859.841379 225.128136 
L 872.875862 225.128136 
L 885.910345 225.128136 
L 898.944828 225.128136 
L 911.97931 137.263729 
L 925.013793 225.128136 
L 938.048276 225.128136 
L 951.082759 225.128136 
" style="fill:none;stroke:#4169e1;stroke-linecap:round;stroke-width:3;"/>
    <defs>
     <path d="M 0 3.25 
C 0.86191 3.25 1.688635 2.907559 2.298097 2.298097 
C 2.907559 1.688635 3.25 0.86191 3.25 0 
C 3.25 -0.86191 2.907559 -1.688635 2.298097 -2.298097 
C 1.688635 -2.907559 0.86191 -3.25 0 -3.25 
C -0.86191 -3.25 -1.688635 -2.907559 -2.298097 -2.298097 
C -2.907559 -1.688635 -3.25 -0.86191 -3.25 0 
C -3.25 0.86191 -2.907559 1.688635 -2.298097 2.298097 
C -1.688635 2.907559 -0.86191 3.25 0 3.25 
z
" id="m368a3bc096" style="stroke:#4169e1;"/>
    </defs>
    <g clip-path="url(#pa18869a4e3)">
     <use style="fill:#4169e1;stroke:#4169e1;" x="208.117241" xlink:href="#m368a3bc096" y="225.128136"/>
     <use style="fill:#4169e1;stroke:#4169e1;" x="221.151724" xlink:href="#m368a3bc096" y="225.128136"/>
     <use style="fill:#4169e1;stroke:#4169e1;" x="234.186207" xlink:href="#m368a3bc096" y="49.399322"/>
     <use style="fill:#4169e1;stroke:#4169e1;" x="247.22069" xlink:href="#m368a3bc096" y="225.128136"/>
     <use style="fill:#4169e1;stroke:#4169e1;" x="260.255172" xlink:href="#m368a3bc096" y="225.128136"/>
     <use style="fill:#4169e1;stroke:#4169e1;" x="273.289655" xlink:href="#m368a3bc096" y="225.128136"/>
     <use style="fill:#4169e1;stroke:#4169e1;" x="286.324138" xlink:href="#m368a3bc096" y="225.128136"/>
     <use style="fill:#4169e1;stroke:#4169e1;" x="299.358621" xlink:href="#m368a3bc096" y="225.128136"/>
     <use style="fill:#4169e1;stroke:#4169e1;" x="312.393103" xlink:href="#m368a3bc096" y="49.399322"/>
     <use style="fill:#4169e1;stroke:#4169e1;" x="325.427586" xlink:href="#m368a3bc096" y="225.128136"/>
     <use style="fill:#4169e1;stroke:#4169e1;" x="338.462069" xlink:href="#m368a3bc096" y="49.399322"/>
     <use style="fill:#4169e1;stroke:#4169e1;" x="351.496552" xlink:href="#m368a3bc096" y="225.128136"/>
     <use style="fill:#4169e1;stroke:#4169e1;" x="364.531034" xlink:href="#m368a3bc096" y="49.399322"/>
     <use style="fill:#4169e1;stroke:#4169e1;" x="377.565517" xlink:href="#m368a3bc096" y="137.263729"/>
     <use style="fill:#4169e1;stroke:#4169e1;" x="390.6" xlink:href="#m368a3bc096" y="225.128136"/>
     <use style="fill:#4169e1;stroke:#4169e1;" x="403.634483" xlink:href="#m368a3bc096" y="137.263729"/>
     <use style="fill:#4169e1;stroke:#4169e1;" x="416.668966" xlink:href="#m368a3bc096" y="137.263729"/>
     <use style="fill:#4169e1;stroke:#4169e1;" x="429.703448" xlink:href="#m368a3bc096" y="225.128136"/>
     <use style="fill:#4169e1;stroke:#4169e1;" x="442.737931" xlink:href="#m368a3bc096" y="137.263729"/>
     <use style="fill:#4169e1;stroke:#4169e1;" x="455.772414" xlink:href="#m368a3bc096" y="225.128136"/>
     <use style="fill:#4169e1;stroke:#4169e1;" x="468.806897" xlink:href="#m368a3bc096" y="225.128136"/>
     <use style="fill:#4169e1;stroke:#4169e1;" x="481.841379" xlink:href="#m368a3bc096" y="225.128136"/>
     <use style="fill:#4169e1;stroke:#4169e1;" x="494.875862" xlink:href="#m368a3bc096" y="225.128136"/>
     <use style="fill:#4169e1;stroke:#4169e1;" x="507.910345" xlink:href="#m368a3bc096" y="137.263729"/>
     <use style="fill:#4169e1;stroke:#4169e1;" x="520.944828" xlink:href="#m368a3bc096" y="225.128136"/>
     <use style="fill:#4169e1;stroke:#4169e1;" x="533.97931" xlink:href="#m368a3bc096" y="225.128136"/>
     <use style="fill:#4169e1;stroke:#4169e1;" x="547.013793" xlink:href="#m368a3bc096" y="225.128136"/>
     <use style="fill:#4169e1;stroke:#4169e1;" x="560.048276" xlink:href="#m368a3bc096" y="225.128136"/>
     <use style="fill:#4169e1;stroke:#4169e1;" x="573.082759" xlink:href="#m368a3bc096" y="225.128136"/>
     <use style="fill:#4169e1;stroke:#4169e1;" x="586.117241" xlink:href="#m368a3bc096" y="225.128136"/>
     <use style="fill:#4169e1;stroke:#4169e1;" x="599.151724" xlink:href="#m368a3bc096" y="225.128136"/>
     <use style="fill:#4169e1;stroke:#4169e1;" x="612.186207" xlink:href="#m368a3bc096" y="49.399322"/>
     <use style="fill:#4169e1;stroke:#4169e1;" x="625.22069" xlink:href="#m368a3bc096" y="225.128136"/>
     <use style="fill:#4169e1;stroke:#4169e1;" x="638.255172" xlink:href="#m368a3bc096" y="225.128136"/>
     <use style="fill:#4169e1;stroke:#4169e1;" x="651.289655" xlink:href="#m368a3bc096" y="225.128136"/>
     <use style="fill:#4169e1;stroke:#4169e1;" x="664.324138" xlink:href="#m368a3bc096" y="225.128136"/>
     <use style="fill:#4169e1;stroke:#4169e1;" x="677.358621" xlink:href="#m368a3bc096" y="225.128136"/>
     <use style="fill:#4169e1;stroke:#4169e1;" x="690.393103" xlink:href="#m368a3bc096" y="225.128136"/>
     <use style="fill:#4169e1;stroke:#4169e1;" x="703.427586" xlink:href="#m368a3bc096" y="225.128136"/>
     <use style="fill:#4169e1;stroke:#4169e1;" x="716.462069" xlink:href="#m368a3bc096" y="137.263729"/>
     <use style="fill:#4169e1;stroke:#4169e1;" x="729.496552" xlink:href="#m368a3bc096" y="225.128136"/>
     <use style="fill:#4169e1;stroke:#4169e1;" x="742.531034" xlink:href="#m368a3bc096" y="137.263729"/>
     <use style="fill:#4169e1;stroke:#4169e1;" x="755.565517" xlink:href="#m368a3bc096" y="225.128136"/>
     <use style="fill:#4169e1;stroke:#4169e1;" x="768.6" xlink:href="#m368a3bc096" y="225.128136"/>
     <use style="fill:#4169e1;stroke:#4169e1;" x="781.634483" xlink:href="#m368a3bc096" y="225.128136"/>
     <use style="fill:#4169e1;stroke:#4169e1;" x="794.668966" xlink:href="#m368a3bc096" y="225.128136"/>
     <use style="fill:#4169e1;stroke:#4169e1;" x="807.703448" xlink:href="#m368a3bc096" y="225.128136"/>
     <use style="fill:#4169e1;stroke:#4169e1;" x="820.737931" xlink:href="#m368a3bc096" y="225.128136"/>
     <use style="fill:#4169e1;stroke:#4169e1;" x="833.772414" xlink:href="#m368a3bc096" y="225.128136"/>
     <use style="fill:#4169e1;stroke:#4169e1;" x="846.806897" xlink:href="#m368a3bc096" y="225.128136"/>
     <use style="fill:#4169e1;stroke:#4169e1;" x="859.841379" xlink:href="#m368a3bc096" y="225.128136"/>
     <use style="fill:#4169e1;stroke:#4169e1;" x="872.875862" xlink:href="#m368a3bc096" y="225.128136"/>
     <use style="fill:#4169e1;stroke:#4169e1;" x="885.910345" xlink:href="#m368a3bc096" y="225.128136"/>
     <use style="fill:#4169e1;stroke:#4169e1;" x="898.944828" xlink:href="#m368a3bc096" y="225.128136"/>
     <use style="fill:#4169e1;stroke:#4169e1;" x="911.97931" xlink:href="#m368a3bc096" y="137.263729"/>
     <use style="fill:#4169e1;stroke:#4169e1;" x="925.013793" xlink:href="#m368a3bc096" y="225.128136"/>
     <use style="fill:#4169e1;stroke:#4169e1;" x="938.048276" xlink:href="#m368a3bc096" y="225.128136"/>
     <use style="fill:#4169e1;stroke:#4169e1;" x="951.082759" xlink:href="#m368a3bc096" y="225.128136"/>
    </g>
   </g>
   <g id="patch_3">
    <path d="M 201.6 230.4 
L 201.6 23.04 
" style="fill:none;stroke:#262626;stroke-linecap:square;stroke-linejoin:miter;stroke-width:0.8;"/>
   </g>
   <g id="patch_4">
    <path d="M 201.6 230.4 
L 957.6 230.4 
" style="fill:none;stroke:#262626;stroke-linecap:square;stroke-linejoin:miter;stroke-width:0.8;"/>
   </g>
   <g id="text_14">
    <text style="fill:#262626;font-family:DejaVu Sans;font-size:20px;font-style:normal;font-weight:bold;text-anchor:middle;" transform="rotate(-0, 579.6, 17.04)" x="579.6" y="17.04">IGHJ6*03</text>
   </g>
  </g>
 </g>
 <defs>
  <clipPath id="pa18869a4e3">
   <rect height="207.36" width="756" x="201.6" y="23.04"/>
  </clipPath>
 </defs>
</svg>
