<?xml version="1.0" encoding="utf-8" standalone="no"?>
<!DOCTYPE svg PUBLIC "-//W3C//DTD SVG 1.1//EN"
  "http://www.w3.org/Graphics/SVG/1.1/DTD/svg11.dtd">
<!-- Created with matplotlib (http://matplotlib.org/) -->
<svg height="345.6pt" version="1.1" viewBox="0 0 460.8 345.6" width="460.8pt" xmlns="http://www.w3.org/2000/svg" xmlns:xlink="http://www.w3.org/1999/xlink">
 <defs>
  <style type="text/css">
*{stroke-linecap:butt;stroke-linejoin:round;}
  </style>
 </defs>
 <g id="figure_1">
  <g id="patch_1">
   <path d="M 0 345.6 
L 460.8 345.6 
L 460.8 0 
L 0 0 
z
" style="fill:#ffffff;"/>
  </g>
  <g id="axes_1">
   <g id="patch_2">
    <path d="M 92.16 276.48 
L 437.76 276.48 
L 437.76 27.648 
L 92.16 27.648 
z
" style="fill:#ffffff;"/>
   </g>
   <g id="matplotlib.axis_1">
    <g id="xtick_1">
     <g id="line2d_1">
      <defs>
       <path d="M 0 0 
L 0 3.5 
" id="mf36aa2cd1f" style="stroke:#262626;stroke-width:0.8;"/>
      </defs>
      <g>
       <use style="fill:#262626;stroke:#262626;stroke-width:0.8;" x="105.452308" xlink:href="#mf36aa2cd1f" y="276.48"/>
      </g>
     </g>
     <g id="text_1">
      <text style="fill:#262626;font-family:DejaVu Sans;font-size:20px;font-style:normal;font-weight:normal;text-anchor:middle;" transform="rotate(-0, 105.452308, 298.676875)" x="105.452308" y="298.676875">0</text>
     </g>
    </g>
    <g id="xtick_2">
     <g id="line2d_2">
      <g>
       <use style="fill:#262626;stroke:#262626;stroke-width:0.8;" x="238.375385" xlink:href="#mf36aa2cd1f" y="276.48"/>
      </g>
     </g>
     <g id="text_2">
      <text style="fill:#262626;font-family:DejaVu Sans;font-size:20px;font-style:normal;font-weight:normal;text-anchor:middle;" transform="rotate(-0, 238.375385, 298.676875)" x="238.375385" y="298.676875">5</text>
     </g>
    </g>
    <g id="xtick_3">
     <g id="line2d_3">
      <g>
       <use style="fill:#262626;stroke:#262626;stroke-width:0.8;" x="371.298462" xlink:href="#mf36aa2cd1f" y="276.48"/>
      </g>
     </g>
     <g id="text_3">
      <text style="fill:#262626;font-family:DejaVu Sans;font-size:20px;font-style:normal;font-weight:normal;text-anchor:middle;" transform="rotate(-0, 371.298462, 298.676875)" x="371.298462" y="298.676875">10</text>
     </g>
    </g>
    <g id="text_4">
     <text style="fill:#262626;font-family:DejaVu Sans;font-size:20px;font-style:normal;font-weight:normal;text-anchor:middle;" transform="rotate(-0, 264.96, 322.033125)" x="264.96" y="322.033125">DJ N length</text>
    </g>
   </g>
   <g id="matplotlib.axis_2">
    <g id="ytick_1">
     <g id="line2d_4">
      <defs>
       <path d="M 0 0 
L -3.5 0 
" id="mf58b838a10" style="stroke:#262626;stroke-width:0.8;"/>
      </defs>
      <g>
       <use style="fill:#262626;stroke:#262626;stroke-width:0.8;" x="92.16" xlink:href="#mf58b838a10" y="270.153763"/>
      </g>
     </g>
     <g id="text_5">
      <text style="fill:#262626;font-family:DejaVu Sans;font-size:20px;font-style:normal;font-weight:normal;text-anchor:end;" transform="rotate(-0, 85.16, 277.7522)" x="85.16" y="277.7522">0</text>
     </g>
    </g>
    <g id="ytick_2">
     <g id="line2d_5">
      <g>
       <use style="fill:#262626;stroke:#262626;stroke-width:0.8;" x="92.16" xlink:href="#mf58b838a10" y="223.292746"/>
      </g>
     </g>
     <g id="text_6">
      <text style="fill:#262626;font-family:DejaVu Sans;font-size:20px;font-style:normal;font-weight:normal;text-anchor:end;" transform="rotate(-0, 85.16, 230.891183)" x="85.16" y="230.891183">2</text>
     </g>
    </g>
    <g id="ytick_3">
     <g id="line2d_6">
      <g>
       <use style="fill:#262626;stroke:#262626;stroke-width:0.8;" x="92.16" xlink:href="#mf58b838a10" y="176.431729"/>
      </g>
     </g>
     <g id="text_7">
      <text style="fill:#262626;font-family:DejaVu Sans;font-size:20px;font-style:normal;font-weight:normal;text-anchor:end;" transform="rotate(-0, 85.16, 184.030166)" x="85.16" y="184.030166">4</text>
     </g>
    </g>
    <g id="ytick_4">
     <g id="line2d_7">
      <g>
       <use style="fill:#262626;stroke:#262626;stroke-width:0.8;" x="92.16" xlink:href="#mf58b838a10" y="129.570712"/>
      </g>
     </g>
     <g id="text_8">
      <text style="fill:#262626;font-family:DejaVu Sans;font-size:20px;font-style:normal;font-weight:normal;text-anchor:end;" transform="rotate(-0, 85.16, 137.169149)" x="85.16" y="137.169149">6</text>
     </g>
    </g>
    <g id="ytick_5">
     <g id="line2d_8">
      <g>
       <use style="fill:#262626;stroke:#262626;stroke-width:0.8;" x="92.16" xlink:href="#mf58b838a10" y="82.709695"/>
      </g>
     </g>
     <g id="text_9">
      <text style="fill:#262626;font-family:DejaVu Sans;font-size:20px;font-style:normal;font-weight:normal;text-anchor:end;" transform="rotate(-0, 85.16, 90.308132)" x="85.16" y="90.308132">8</text>
     </g>
    </g>
    <g id="ytick_6">
     <g id="line2d_9">
      <g>
       <use style="fill:#262626;stroke:#262626;stroke-width:0.8;" x="92.16" xlink:href="#mf58b838a10" y="35.848678"/>
      </g>
     </g>
     <g id="text_10">
      <text style="fill:#262626;font-family:DejaVu Sans;font-size:20px;font-style:normal;font-weight:normal;text-anchor:end;" transform="rotate(-0, 85.16, 43.447115)" x="85.16" y="43.447115">10</text>
     </g>
    </g>
    <g id="text_11">
     <text style="fill:#262626;font-family:DejaVu Sans;font-size:20px;font-style:normal;font-weight:normal;text-anchor:middle;" transform="rotate(-90, 51.550625, 152.064)" x="51.550625" y="152.064">counts</text>
    </g>
   </g>
   <g id="LineCollection_1">
    <path clip-path="url(#pbd3f5cbaa8)" d="M 105.452308 270.153763 
L 105.452308 223.292746 
" style="fill:none;stroke:#4169e1;stroke-width:3;"/>
    <path clip-path="url(#pbd3f5cbaa8)" d="M 132.036923 129.570712 
L 132.036923 -1 
" style="fill:none;stroke:#4169e1;stroke-width:3;"/>
    <path clip-path="url(#pbd3f5cbaa8)" d="M 158.621538 270.153763 
L 158.621538 223.292746 
" style="fill:none;stroke:#4169e1;stroke-width:3;"/>
    <path clip-path="url(#pbd3f5cbaa8)" d="M 185.206154 256.428489 
L 185.206154 190.157003 
" style="fill:none;stroke:#4169e1;stroke-width:3;"/>
    <path clip-path="url(#pbd3f5cbaa8)" d="M 211.790769 256.428489 
L 211.790769 190.157003 
" style="fill:none;stroke:#4169e1;stroke-width:3;"/>
    <path clip-path="url(#pbd3f5cbaa8)" d="M 238.375385 270.153763 
L 238.375385 270.153763 
" style="fill:none;stroke:#4169e1;stroke-width:3;"/>
    <path clip-path="url(#pbd3f5cbaa8)" d="M 264.96 270.153763 
L 264.96 270.153763 
" style="fill:none;stroke:#4169e1;stroke-width:3;"/>
    <path clip-path="url(#pbd3f5cbaa8)" d="M 291.544615 270.153763 
L 291.544615 223.292746 
" style="fill:none;stroke:#4169e1;stroke-width:3;"/>
    <path clip-path="url(#pbd3f5cbaa8)" d="M 318.129231 270.153763 
L 318.129231 223.292746 
" style="fill:none;stroke:#4169e1;stroke-width:3;"/>
    <path clip-path="url(#pbd3f5cbaa8)" d="M 344.713846 270.153763 
L 344.713846 270.153763 
" style="fill:none;stroke:#4169e1;stroke-width:3;"/>
    <path clip-path="url(#pbd3f5cbaa8)" d="M 371.298462 270.153763 
L 371.298462 270.153763 
" style="fill:none;stroke:#4169e1;stroke-width:3;"/>
    <path clip-path="url(#pbd3f5cbaa8)" d="M 397.883077 270.153763 
L 397.883077 270.153763 
" style="fill:none;stroke:#4169e1;stroke-width:3;"/>
    <path clip-path="url(#pbd3f5cbaa8)" d="M 424.467692 270.153763 
L 424.467692 223.292746 
" style="fill:none;stroke:#4169e1;stroke-width:3;"/>
   </g>
   <g id="line2d_10">
    <path clip-path="url(#pbd3f5cbaa8)" d="M 105.452308 246.723254 
L 132.036923 59.279186 
L 158.621538 246.723254 
L 185.206154 223.292746 
L 211.790769 223.292746 
L 238.375385 270.153763 
L 264.96 270.153763 
L 291.544615 246.723254 
L 318.129231 246.723254 
L 344.713846 270.153763 
L 371.298462 270.153763 
L 397.883077 270.153763 
L 424.467692 246.723254 
" style="fill:none;stroke:#4169e1;stroke-linecap:round;stroke-width:3;"/>
    <defs>
     <path d="M 0 3.25 
C 0.86191 3.25 1.688635 2.907559 2.298097 2.298097 
C 2.907559 1.688635 3.25 0.86191 3.25 0 
C 3.25 -0.86191 2.907559 -1.688635 2.298097 -2.298097 
C 1.688635 -2.907559 0.86191 -3.25 0 -3.25 
C -0.86191 -3.25 -1.688635 -2.907559 -2.298097 -2.298097 
C -2.907559 -1.688635 -3.25 -0.86191 -3.25 0 
C -3.25 0.86191 -2.907559 1.688635 -2.298097 2.298097 
C -1.688635 2.907559 -0.86191 3.25 0 3.25 
z
" id="m86a1f199fc" style="stroke:#4169e1;"/>
    </defs>
    <g clip-path="url(#pbd3f5cbaa8)">
     <use style="fill:#4169e1;stroke:#4169e1;" x="105.452308" xlink:href="#m86a1f199fc" y="246.723254"/>
     <use style="fill:#4169e1;stroke:#4169e1;" x="132.036923" xlink:href="#m86a1f199fc" y="59.279186"/>
     <use style="fill:#4169e1;stroke:#4169e1;" x="158.621538" xlink:href="#m86a1f199fc" y="246.723254"/>
     <use style="fill:#4169e1;stroke:#4169e1;" x="185.206154" xlink:href="#m86a1f199fc" y="223.292746"/>
     <use style="fill:#4169e1;stroke:#4169e1;" x="211.790769" xlink:href="#m86a1f199fc" y="223.292746"/>
     <use style="fill:#4169e1;stroke:#4169e1;" x="238.375385" xlink:href="#m86a1f199fc" y="270.153763"/>
     <use style="fill:#4169e1;stroke:#4169e1;" x="264.96" xlink:href="#m86a1f199fc" y="270.153763"/>
     <use style="fill:#4169e1;stroke:#4169e1;" x="291.544615" xlink:href="#m86a1f199fc" y="246.723254"/>
     <use style="fill:#4169e1;stroke:#4169e1;" x="318.129231" xlink:href="#m86a1f199fc" y="246.723254"/>
     <use style="fill:#4169e1;stroke:#4169e1;" x="344.713846" xlink:href="#m86a1f199fc" y="270.153763"/>
     <use style="fill:#4169e1;stroke:#4169e1;" x="371.298462" xlink:href="#m86a1f199fc" y="270.153763"/>
     <use style="fill:#4169e1;stroke:#4169e1;" x="397.883077" xlink:href="#m86a1f199fc" y="270.153763"/>
     <use style="fill:#4169e1;stroke:#4169e1;" x="424.467692" xlink:href="#m86a1f199fc" y="246.723254"/>
    </g>
   </g>
   <g id="patch_3">
    <path d="M 92.16 276.48 
L 92.16 27.648 
" style="fill:none;stroke:#262626;stroke-linecap:square;stroke-linejoin:miter;stroke-width:0.8;"/>
   </g>
   <g id="patch_4">
    <path d="M 92.16 276.48 
L 437.76 276.48 
" style="fill:none;stroke:#262626;stroke-linecap:square;stroke-linejoin:miter;stroke-width:0.8;"/>
   </g>
   <g id="text_12">
    <text style="fill:#262626;font-family:DejaVu Sans;font-size:20px;font-style:normal;font-weight:bold;text-anchor:middle;" transform="rotate(-0, 264.96, 21.648)" x="264.96" y="21.648">IGHJ2*01</text>
   </g>
  </g>
 </g>
 <defs>
  <clipPath id="pbd3f5cbaa8">
   <rect height="248.832" width="345.6" x="92.16" y="27.648"/>
  </clipPath>
 </defs>
</svg>
