<?xml version="1.0" encoding="utf-8" standalone="no"?>
<!DOCTYPE svg PUBLIC "-//W3C//DTD SVG 1.1//EN"
  "http://www.w3.org/Graphics/SVG/1.1/DTD/svg11.dtd">
<!-- Created with matplotlib (http://matplotlib.org/) -->
<svg height="345.6pt" version="1.1" viewBox="0 0 460.8 345.6" width="460.8pt" xmlns="http://www.w3.org/2000/svg" xmlns:xlink="http://www.w3.org/1999/xlink">
 <defs>
  <style type="text/css">
*{stroke-linecap:butt;stroke-linejoin:round;}
  </style>
 </defs>
 <g id="figure_1">
  <g id="patch_1">
   <path d="M 0 345.6 
L 460.8 345.6 
L 460.8 0 
L 0 0 
z
" style="fill:#ffffff;"/>
  </g>
  <g id="axes_1">
   <g id="patch_2">
    <path d="M 92.16 276.48 
L 437.76 276.48 
L 437.76 27.648 
L 92.16 27.648 
z
" style="fill:#ffffff;"/>
   </g>
   <g id="matplotlib.axis_1">
    <g id="xtick_1">
     <g id="line2d_1">
      <defs>
       <path d="M 0 0 
L 0 3.5 
" id="mdf2bddaca5" style="stroke:#262626;stroke-width:0.8;"/>
      </defs>
      <g>
       <use style="fill:#262626;stroke:#262626;stroke-width:0.8;" x="92.16" xlink:href="#mdf2bddaca5" y="276.48"/>
      </g>
     </g>
     <g id="text_1">
      <text style="fill:#262626;font-family:DejaVu Sans;font-size:20px;font-style:normal;font-weight:normal;text-anchor:middle;" transform="rotate(-0, 92.16, 298.676875)" x="92.16" y="298.676875">0.0</text>
     </g>
    </g>
    <g id="xtick_2">
     <g id="line2d_2">
      <g>
       <use style="fill:#262626;stroke:#262626;stroke-width:0.8;" x="178.56" xlink:href="#mdf2bddaca5" y="276.48"/>
      </g>
     </g>
     <g id="text_2">
      <text style="fill:#262626;font-family:DejaVu Sans;font-size:20px;font-style:normal;font-weight:normal;text-anchor:middle;" transform="rotate(-0, 178.56, 298.676875)" x="178.56" y="298.676875">0.1</text>
     </g>
    </g>
    <g id="xtick_3">
     <g id="line2d_3">
      <g>
       <use style="fill:#262626;stroke:#262626;stroke-width:0.8;" x="264.96" xlink:href="#mdf2bddaca5" y="276.48"/>
      </g>
     </g>
     <g id="text_3">
      <text style="fill:#262626;font-family:DejaVu Sans;font-size:20px;font-style:normal;font-weight:normal;text-anchor:middle;" transform="rotate(-0, 264.96, 298.676875)" x="264.96" y="298.676875">0.2</text>
     </g>
    </g>
    <g id="xtick_4">
     <g id="line2d_4">
      <g>
       <use style="fill:#262626;stroke:#262626;stroke-width:0.8;" x="351.36" xlink:href="#mdf2bddaca5" y="276.48"/>
      </g>
     </g>
     <g id="text_4">
      <text style="fill:#262626;font-family:DejaVu Sans;font-size:20px;font-style:normal;font-weight:normal;text-anchor:middle;" transform="rotate(-0, 351.36, 298.676875)" x="351.36" y="298.676875">0.3</text>
     </g>
    </g>
    <g id="xtick_5">
     <g id="line2d_5">
      <g>
       <use style="fill:#262626;stroke:#262626;stroke-width:0.8;" x="437.76" xlink:href="#mdf2bddaca5" y="276.48"/>
      </g>
     </g>
     <g id="text_5">
      <text style="fill:#262626;font-family:DejaVu Sans;font-size:20px;font-style:normal;font-weight:normal;text-anchor:middle;" transform="rotate(-0, 437.76, 298.676875)" x="437.76" y="298.676875">0.4</text>
     </g>
    </g>
    <g id="text_6">
     <text style="fill:#262626;font-family:DejaVu Sans;font-size:20px;font-style:normal;font-weight:normal;text-anchor:middle;" transform="rotate(-0, 264.96, 322.033125)" x="264.96" y="322.033125">mut freq</text>
    </g>
   </g>
   <g id="matplotlib.axis_2">
    <g id="ytick_1">
     <g id="line2d_6">
      <defs>
       <path d="M 0 0 
L -3.5 0 
" id="madec8afa1c" style="stroke:#262626;stroke-width:0.8;"/>
      </defs>
      <g>
       <use style="fill:#262626;stroke:#262626;stroke-width:0.8;" x="92.16" xlink:href="#madec8afa1c" y="270.153763"/>
      </g>
     </g>
     <g id="text_7">
      <text style="fill:#262626;font-family:DejaVu Sans;font-size:20px;font-style:normal;font-weight:normal;text-anchor:end;" transform="rotate(-0, 85.16, 277.7522)" x="85.16" y="277.7522">0.0</text>
     </g>
    </g>
    <g id="ytick_2">
     <g id="line2d_7">
      <g>
       <use style="fill:#262626;stroke:#262626;stroke-width:0.8;" x="92.16" xlink:href="#madec8afa1c" y="227.437778"/>
      </g>
     </g>
     <g id="text_8">
      <text style="fill:#262626;font-family:DejaVu Sans;font-size:20px;font-style:normal;font-weight:normal;text-anchor:end;" transform="rotate(-0, 85.16, 235.036216)" x="85.16" y="235.036216">0.1</text>
     </g>
    </g>
    <g id="ytick_3">
     <g id="line2d_8">
      <g>
       <use style="fill:#262626;stroke:#262626;stroke-width:0.8;" x="92.16" xlink:href="#madec8afa1c" y="184.721794"/>
      </g>
     </g>
     <g id="text_9">
      <text style="fill:#262626;font-family:DejaVu Sans;font-size:20px;font-style:normal;font-weight:normal;text-anchor:end;" transform="rotate(-0, 85.16, 192.320231)" x="85.16" y="192.320231">0.2</text>
     </g>
    </g>
    <g id="ytick_4">
     <g id="line2d_9">
      <g>
       <use style="fill:#262626;stroke:#262626;stroke-width:0.8;" x="92.16" xlink:href="#madec8afa1c" y="142.00581"/>
      </g>
     </g>
     <g id="text_10">
      <text style="fill:#262626;font-family:DejaVu Sans;font-size:20px;font-style:normal;font-weight:normal;text-anchor:end;" transform="rotate(-0, 85.16, 149.604247)" x="85.16" y="149.604247">0.3</text>
     </g>
    </g>
    <g id="ytick_5">
     <g id="line2d_10">
      <g>
       <use style="fill:#262626;stroke:#262626;stroke-width:0.8;" x="92.16" xlink:href="#madec8afa1c" y="99.289825"/>
      </g>
     </g>
     <g id="text_11">
      <text style="fill:#262626;font-family:DejaVu Sans;font-size:20px;font-style:normal;font-weight:normal;text-anchor:end;" transform="rotate(-0, 85.16, 106.888263)" x="85.16" y="106.888263">0.4</text>
     </g>
    </g>
    <g id="ytick_6">
     <g id="line2d_11">
      <g>
       <use style="fill:#262626;stroke:#262626;stroke-width:0.8;" x="92.16" xlink:href="#madec8afa1c" y="56.573841"/>
      </g>
     </g>
     <g id="text_12">
      <text style="fill:#262626;font-family:DejaVu Sans;font-size:20px;font-style:normal;font-weight:normal;text-anchor:end;" transform="rotate(-0, 85.16, 64.172278)" x="85.16" y="64.172278">0.5</text>
     </g>
    </g>
    <g id="text_13">
     <text style="fill:#262626;font-family:DejaVu Sans;font-size:20px;font-style:normal;font-weight:normal;text-anchor:middle;" transform="rotate(-90, 45.194375, 152.064)" x="45.194375" y="152.064">freq (3000 total)</text>
    </g>
   </g>
   <g id="line2d_12">
    <path clip-path="url(#pbb7d492f49)" d="M 96.48 59.279186 
L 105.12 141.15149 
L 113.76 249.65009 
L 122.4 243.385079 
L 131.04 263.603978 
L 139.68 261.041019 
L 148.32 267.73319 
L 156.96 262.322499 
L 165.6 268.872283 
L 174.24 266.166938 
L 182.88 269.584216 
L 191.52 267.30603 
L 200.16 269.299443 
L 208.8 269.726603 
L 217.44 269.01467 
L 226.08 269.726603 
L 234.72 269.868989 
L 243.36 270.153763 
L 252 270.153763 
L 260.64 269.726603 
L 269.28 269.726603 
L 277.92 269.868989 
L 286.56 270.153763 
L 295.2 269.868989 
L 303.84 270.153763 
L 312.48 270.153763 
L 321.12 270.153763 
L 329.76 270.153763 
L 338.4 270.153763 
L 347.04 270.153763 
L 355.68 270.153763 
L 364.32 269.868989 
L 372.96 270.011376 
L 381.6 270.011376 
L 390.24 270.153763 
L 398.88 270.153763 
L 407.52 270.153763 
L 416.16 270.153763 
L 424.8 270.153763 
L 433.44 269.868989 
" style="fill:none;stroke:#4169e1;stroke-linecap:round;stroke-width:3;"/>
    <defs>
     <path d="M 0 3.25 
C 0.86191 3.25 1.688635 2.907559 2.298097 2.298097 
C 2.907559 1.688635 3.25 0.86191 3.25 0 
C 3.25 -0.86191 2.907559 -1.688635 2.298097 -2.298097 
C 1.688635 -2.907559 0.86191 -3.25 0 -3.25 
C -0.86191 -3.25 -1.688635 -2.907559 -2.298097 -2.298097 
C -2.907559 -1.688635 -3.25 -0.86191 -3.25 0 
C -3.25 0.86191 -2.907559 1.688635 -2.298097 2.298097 
C -1.688635 2.907559 -0.86191 3.25 0 3.25 
z
" id="m8488a2e7e5" style="stroke:#4169e1;"/>
    </defs>
    <g clip-path="url(#pbb7d492f49)">
     <use style="fill:#4169e1;stroke:#4169e1;" x="96.48" xlink:href="#m8488a2e7e5" y="59.279186"/>
     <use style="fill:#4169e1;stroke:#4169e1;" x="105.12" xlink:href="#m8488a2e7e5" y="141.15149"/>
     <use style="fill:#4169e1;stroke:#4169e1;" x="113.76" xlink:href="#m8488a2e7e5" y="249.65009"/>
     <use style="fill:#4169e1;stroke:#4169e1;" x="122.4" xlink:href="#m8488a2e7e5" y="243.385079"/>
     <use style="fill:#4169e1;stroke:#4169e1;" x="131.04" xlink:href="#m8488a2e7e5" y="263.603978"/>
     <use style="fill:#4169e1;stroke:#4169e1;" x="139.68" xlink:href="#m8488a2e7e5" y="261.041019"/>
     <use style="fill:#4169e1;stroke:#4169e1;" x="148.32" xlink:href="#m8488a2e7e5" y="267.73319"/>
     <use style="fill:#4169e1;stroke:#4169e1;" x="156.96" xlink:href="#m8488a2e7e5" y="262.322499"/>
     <use style="fill:#4169e1;stroke:#4169e1;" x="165.6" xlink:href="#m8488a2e7e5" y="268.872283"/>
     <use style="fill:#4169e1;stroke:#4169e1;" x="174.24" xlink:href="#m8488a2e7e5" y="266.166938"/>
     <use style="fill:#4169e1;stroke:#4169e1;" x="182.88" xlink:href="#m8488a2e7e5" y="269.584216"/>
     <use style="fill:#4169e1;stroke:#4169e1;" x="191.52" xlink:href="#m8488a2e7e5" y="267.30603"/>
     <use style="fill:#4169e1;stroke:#4169e1;" x="200.16" xlink:href="#m8488a2e7e5" y="269.299443"/>
     <use style="fill:#4169e1;stroke:#4169e1;" x="208.8" xlink:href="#m8488a2e7e5" y="269.726603"/>
     <use style="fill:#4169e1;stroke:#4169e1;" x="217.44" xlink:href="#m8488a2e7e5" y="269.01467"/>
     <use style="fill:#4169e1;stroke:#4169e1;" x="226.08" xlink:href="#m8488a2e7e5" y="269.726603"/>
     <use style="fill:#4169e1;stroke:#4169e1;" x="234.72" xlink:href="#m8488a2e7e5" y="269.868989"/>
     <use style="fill:#4169e1;stroke:#4169e1;" x="243.36" xlink:href="#m8488a2e7e5" y="270.153763"/>
     <use style="fill:#4169e1;stroke:#4169e1;" x="252" xlink:href="#m8488a2e7e5" y="270.153763"/>
     <use style="fill:#4169e1;stroke:#4169e1;" x="260.64" xlink:href="#m8488a2e7e5" y="269.726603"/>
     <use style="fill:#4169e1;stroke:#4169e1;" x="269.28" xlink:href="#m8488a2e7e5" y="269.726603"/>
     <use style="fill:#4169e1;stroke:#4169e1;" x="277.92" xlink:href="#m8488a2e7e5" y="269.868989"/>
     <use style="fill:#4169e1;stroke:#4169e1;" x="286.56" xlink:href="#m8488a2e7e5" y="270.153763"/>
     <use style="fill:#4169e1;stroke:#4169e1;" x="295.2" xlink:href="#m8488a2e7e5" y="269.868989"/>
     <use style="fill:#4169e1;stroke:#4169e1;" x="303.84" xlink:href="#m8488a2e7e5" y="270.153763"/>
     <use style="fill:#4169e1;stroke:#4169e1;" x="312.48" xlink:href="#m8488a2e7e5" y="270.153763"/>
     <use style="fill:#4169e1;stroke:#4169e1;" x="321.12" xlink:href="#m8488a2e7e5" y="270.153763"/>
     <use style="fill:#4169e1;stroke:#4169e1;" x="329.76" xlink:href="#m8488a2e7e5" y="270.153763"/>
     <use style="fill:#4169e1;stroke:#4169e1;" x="338.4" xlink:href="#m8488a2e7e5" y="270.153763"/>
     <use style="fill:#4169e1;stroke:#4169e1;" x="347.04" xlink:href="#m8488a2e7e5" y="270.153763"/>
     <use style="fill:#4169e1;stroke:#4169e1;" x="355.68" xlink:href="#m8488a2e7e5" y="270.153763"/>
     <use style="fill:#4169e1;stroke:#4169e1;" x="364.32" xlink:href="#m8488a2e7e5" y="269.868989"/>
     <use style="fill:#4169e1;stroke:#4169e1;" x="372.96" xlink:href="#m8488a2e7e5" y="270.011376"/>
     <use style="fill:#4169e1;stroke:#4169e1;" x="381.6" xlink:href="#m8488a2e7e5" y="270.011376"/>
     <use style="fill:#4169e1;stroke:#4169e1;" x="390.24" xlink:href="#m8488a2e7e5" y="270.153763"/>
     <use style="fill:#4169e1;stroke:#4169e1;" x="398.88" xlink:href="#m8488a2e7e5" y="270.153763"/>
     <use style="fill:#4169e1;stroke:#4169e1;" x="407.52" xlink:href="#m8488a2e7e5" y="270.153763"/>
     <use style="fill:#4169e1;stroke:#4169e1;" x="416.16" xlink:href="#m8488a2e7e5" y="270.153763"/>
     <use style="fill:#4169e1;stroke:#4169e1;" x="424.8" xlink:href="#m8488a2e7e5" y="270.153763"/>
     <use style="fill:#4169e1;stroke:#4169e1;" x="433.44" xlink:href="#m8488a2e7e5" y="269.868989"/>
    </g>
   </g>
   <g id="patch_3">
    <path d="M 92.16 276.48 
L 92.16 27.648 
" style="fill:none;stroke:#262626;stroke-linecap:square;stroke-linejoin:miter;stroke-width:0.8;"/>
   </g>
   <g id="patch_4">
    <path d="M 92.16 276.48 
L 437.76 276.48 
" style="fill:none;stroke:#262626;stroke-linecap:square;stroke-linejoin:miter;stroke-width:0.8;"/>
   </g>
   <g id="text_14">
    <text style="fill:#262626;font-family:DejaVu Sans;font-size:20px;font-style:normal;font-weight:bold;text-anchor:middle;" transform="rotate(-0, 264.96, 21.648)" x="264.96" y="21.648">CDR3 (mean 0.018)</text>
   </g>
  </g>
 </g>
 <defs>
  <clipPath id="pbb7d492f49">
   <rect height="248.832" width="345.6" x="92.16" y="27.648"/>
  </clipPath>
 </defs>
</svg>
