<?xml version="1.0" encoding="utf-8" standalone="no"?>
<!DOCTYPE svg PUBLIC "-//W3C//DTD SVG 1.1//EN"
  "http://www.w3.org/Graphics/SVG/1.1/DTD/svg11.dtd">
<!-- Created with matplotlib (http://matplotlib.org/) -->
<svg height="345.6pt" version="1.1" viewBox="0 0 460.8 345.6" width="460.8pt" xmlns="http://www.w3.org/2000/svg" xmlns:xlink="http://www.w3.org/1999/xlink">
 <defs>
  <style type="text/css">
*{stroke-linecap:butt;stroke-linejoin:round;}
  </style>
 </defs>
 <g id="figure_1">
  <g id="patch_1">
   <path d="M 0 345.6 
L 460.8 345.6 
L 460.8 0 
L 0 0 
z
" style="fill:#ffffff;"/>
  </g>
  <g id="axes_1">
   <g id="patch_2">
    <path d="M 92.16 276.48 
L 437.76 276.48 
L 437.76 27.648 
L 92.16 27.648 
z
" style="fill:#ffffff;"/>
   </g>
   <g id="matplotlib.axis_1">
    <g id="xtick_1">
     <g id="line2d_1">
      <defs>
       <path d="M 0 0 
L 0 3.5 
" id="m0dd281ae5f" style="stroke:#262626;stroke-width:0.8;"/>
      </defs>
      <g>
       <use style="fill:#262626;stroke:#262626;stroke-width:0.8;" x="100.388571" xlink:href="#m0dd281ae5f" y="276.48"/>
      </g>
     </g>
     <g id="text_1">
      <text style="fill:#262626;font-family:DejaVu Sans;font-size:20px;font-style:normal;font-weight:normal;text-anchor:middle;" transform="rotate(-0, 100.388571, 298.676875)" x="100.388571" y="298.676875">0</text>
     </g>
    </g>
    <g id="xtick_2">
     <g id="line2d_2">
      <g>
       <use style="fill:#262626;stroke:#262626;stroke-width:0.8;" x="182.674286" xlink:href="#m0dd281ae5f" y="276.48"/>
      </g>
     </g>
     <g id="text_2">
      <text style="fill:#262626;font-family:DejaVu Sans;font-size:20px;font-style:normal;font-weight:normal;text-anchor:middle;" transform="rotate(-0, 182.674286, 298.676875)" x="182.674286" y="298.676875">5</text>
     </g>
    </g>
    <g id="xtick_3">
     <g id="line2d_3">
      <g>
       <use style="fill:#262626;stroke:#262626;stroke-width:0.8;" x="264.96" xlink:href="#m0dd281ae5f" y="276.48"/>
      </g>
     </g>
     <g id="text_3">
      <text style="fill:#262626;font-family:DejaVu Sans;font-size:20px;font-style:normal;font-weight:normal;text-anchor:middle;" transform="rotate(-0, 264.96, 298.676875)" x="264.96" y="298.676875">10</text>
     </g>
    </g>
    <g id="xtick_4">
     <g id="line2d_4">
      <g>
       <use style="fill:#262626;stroke:#262626;stroke-width:0.8;" x="347.245714" xlink:href="#m0dd281ae5f" y="276.48"/>
      </g>
     </g>
     <g id="text_4">
      <text style="fill:#262626;font-family:DejaVu Sans;font-size:20px;font-style:normal;font-weight:normal;text-anchor:middle;" transform="rotate(-0, 347.245714, 298.676875)" x="347.245714" y="298.676875">15</text>
     </g>
    </g>
    <g id="xtick_5">
     <g id="line2d_5">
      <g>
       <use style="fill:#262626;stroke:#262626;stroke-width:0.8;" x="429.531429" xlink:href="#m0dd281ae5f" y="276.48"/>
      </g>
     </g>
     <g id="text_5">
      <text style="fill:#262626;font-family:DejaVu Sans;font-size:20px;font-style:normal;font-weight:normal;text-anchor:middle;" transform="rotate(-0, 429.531429, 298.676875)" x="429.531429" y="298.676875">20</text>
     </g>
    </g>
    <g id="text_6">
     <text style="fill:#262626;font-family:DejaVu Sans;font-size:20px;font-style:normal;font-weight:normal;text-anchor:middle;" transform="rotate(-0, 264.96, 322.033125)" x="264.96" y="322.033125">n mutated</text>
    </g>
   </g>
   <g id="matplotlib.axis_2">
    <g id="ytick_1">
     <g id="line2d_6">
      <defs>
       <path d="M 0 0 
L -3.5 0 
" id="m92591d4819" style="stroke:#262626;stroke-width:0.8;"/>
      </defs>
      <g>
       <use style="fill:#262626;stroke:#262626;stroke-width:0.8;" x="92.16" xlink:href="#m92591d4819" y="270.153763"/>
      </g>
     </g>
     <g id="text_7">
      <text style="fill:#262626;font-family:DejaVu Sans;font-size:20px;font-style:normal;font-weight:normal;text-anchor:end;" transform="rotate(-0, 85.16, 277.7522)" x="85.16" y="277.7522">0</text>
     </g>
    </g>
    <g id="ytick_2">
     <g id="line2d_7">
      <g>
       <use style="fill:#262626;stroke:#262626;stroke-width:0.8;" x="92.16" xlink:href="#m92591d4819" y="198.960455"/>
      </g>
     </g>
     <g id="text_8">
      <text style="fill:#262626;font-family:DejaVu Sans;font-size:20px;font-style:normal;font-weight:normal;text-anchor:end;" transform="rotate(-0, 85.16, 206.558893)" x="85.16" y="206.558893">500</text>
     </g>
    </g>
    <g id="ytick_3">
     <g id="line2d_8">
      <g>
       <use style="fill:#262626;stroke:#262626;stroke-width:0.8;" x="92.16" xlink:href="#m92591d4819" y="127.767148"/>
      </g>
     </g>
     <g id="text_9">
      <text style="fill:#262626;font-family:DejaVu Sans;font-size:20px;font-style:normal;font-weight:normal;text-anchor:end;" transform="rotate(-0, 85.16, 135.365586)" x="85.16" y="135.365586">1000</text>
     </g>
    </g>
    <g id="ytick_4">
     <g id="line2d_9">
      <g>
       <use style="fill:#262626;stroke:#262626;stroke-width:0.8;" x="92.16" xlink:href="#m92591d4819" y="56.573841"/>
      </g>
     </g>
     <g id="text_10">
      <text style="fill:#262626;font-family:DejaVu Sans;font-size:20px;font-style:normal;font-weight:normal;text-anchor:end;" transform="rotate(-0, 85.16, 64.172278)" x="85.16" y="64.172278">1500</text>
     </g>
    </g>
    <g id="text_11">
     <text style="fill:#262626;font-family:DejaVu Sans;font-size:20px;font-style:normal;font-weight:normal;text-anchor:middle;" transform="rotate(-90, 26.100625, 152.064)" x="26.100625" y="152.064">counts</text>
    </g>
   </g>
   <g id="line2d_10">
    <path clip-path="url(#pf7d5ec45b3)" d="M 100.388571 59.279186 
L 116.845714 131.04204 
L 133.302857 225.301979 
L 149.76 254.064075 
L 166.217143 264.173525 
L 182.674286 266.451711 
L 199.131429 268.445123 
L 215.588571 268.729897 
L 232.045714 269.44183 
L 248.502857 269.726603 
L 264.96 270.011376 
L 281.417143 269.726603 
L 297.874286 269.584216 
L 314.331429 270.011376 
L 330.788571 270.011376 
L 347.245714 270.153763 
L 363.702857 269.868989 
L 380.16 270.011376 
L 396.617143 270.011376 
L 413.074286 270.011376 
L 429.531429 270.011376 
" style="fill:none;stroke:#4169e1;stroke-linecap:round;stroke-width:3;"/>
    <defs>
     <path d="M 0 3.25 
C 0.86191 3.25 1.688635 2.907559 2.298097 2.298097 
C 2.907559 1.688635 3.25 0.86191 3.25 0 
C 3.25 -0.86191 2.907559 -1.688635 2.298097 -2.298097 
C 1.688635 -2.907559 0.86191 -3.25 0 -3.25 
C -0.86191 -3.25 -1.688635 -2.907559 -2.298097 -2.298097 
C -2.907559 -1.688635 -3.25 -0.86191 -3.25 0 
C -3.25 0.86191 -2.907559 1.688635 -2.298097 2.298097 
C -1.688635 2.907559 -0.86191 3.25 0 3.25 
z
" id="m2599ae1f2f" style="stroke:#4169e1;"/>
    </defs>
    <g clip-path="url(#pf7d5ec45b3)">
     <use style="fill:#4169e1;stroke:#4169e1;" x="100.388571" xlink:href="#m2599ae1f2f" y="59.279186"/>
     <use style="fill:#4169e1;stroke:#4169e1;" x="116.845714" xlink:href="#m2599ae1f2f" y="131.04204"/>
     <use style="fill:#4169e1;stroke:#4169e1;" x="133.302857" xlink:href="#m2599ae1f2f" y="225.301979"/>
     <use style="fill:#4169e1;stroke:#4169e1;" x="149.76" xlink:href="#m2599ae1f2f" y="254.064075"/>
     <use style="fill:#4169e1;stroke:#4169e1;" x="166.217143" xlink:href="#m2599ae1f2f" y="264.173525"/>
     <use style="fill:#4169e1;stroke:#4169e1;" x="182.674286" xlink:href="#m2599ae1f2f" y="266.451711"/>
     <use style="fill:#4169e1;stroke:#4169e1;" x="199.131429" xlink:href="#m2599ae1f2f" y="268.445123"/>
     <use style="fill:#4169e1;stroke:#4169e1;" x="215.588571" xlink:href="#m2599ae1f2f" y="268.729897"/>
     <use style="fill:#4169e1;stroke:#4169e1;" x="232.045714" xlink:href="#m2599ae1f2f" y="269.44183"/>
     <use style="fill:#4169e1;stroke:#4169e1;" x="248.502857" xlink:href="#m2599ae1f2f" y="269.726603"/>
     <use style="fill:#4169e1;stroke:#4169e1;" x="264.96" xlink:href="#m2599ae1f2f" y="270.011376"/>
     <use style="fill:#4169e1;stroke:#4169e1;" x="281.417143" xlink:href="#m2599ae1f2f" y="269.726603"/>
     <use style="fill:#4169e1;stroke:#4169e1;" x="297.874286" xlink:href="#m2599ae1f2f" y="269.584216"/>
     <use style="fill:#4169e1;stroke:#4169e1;" x="314.331429" xlink:href="#m2599ae1f2f" y="270.011376"/>
     <use style="fill:#4169e1;stroke:#4169e1;" x="330.788571" xlink:href="#m2599ae1f2f" y="270.011376"/>
     <use style="fill:#4169e1;stroke:#4169e1;" x="347.245714" xlink:href="#m2599ae1f2f" y="270.153763"/>
     <use style="fill:#4169e1;stroke:#4169e1;" x="363.702857" xlink:href="#m2599ae1f2f" y="269.868989"/>
     <use style="fill:#4169e1;stroke:#4169e1;" x="380.16" xlink:href="#m2599ae1f2f" y="270.011376"/>
     <use style="fill:#4169e1;stroke:#4169e1;" x="396.617143" xlink:href="#m2599ae1f2f" y="270.011376"/>
     <use style="fill:#4169e1;stroke:#4169e1;" x="413.074286" xlink:href="#m2599ae1f2f" y="270.011376"/>
     <use style="fill:#4169e1;stroke:#4169e1;" x="429.531429" xlink:href="#m2599ae1f2f" y="270.011376"/>
    </g>
   </g>
   <g id="patch_3">
    <path d="M 92.16 276.48 
L 92.16 27.648 
" style="fill:none;stroke:#262626;stroke-linecap:square;stroke-linejoin:miter;stroke-width:0.8;"/>
   </g>
   <g id="patch_4">
    <path d="M 92.16 276.48 
L 437.76 276.48 
" style="fill:none;stroke:#262626;stroke-linecap:square;stroke-linejoin:miter;stroke-width:0.8;"/>
   </g>
   <g id="text_12">
    <text style="fill:#262626;font-family:DejaVu Sans;font-size:20px;font-style:normal;font-weight:bold;text-anchor:middle;" transform="rotate(-0, 264.96, 21.648)" x="264.96" y="21.648">CDR3 (mean 0.892)</text>
   </g>
  </g>
 </g>
 <defs>
  <clipPath id="pf7d5ec45b3">
   <rect height="248.832" width="345.6" x="92.16" y="27.648"/>
  </clipPath>
 </defs>
</svg>
