<?xml version="1.0" encoding="utf-8" standalone="no"?>
<!DOCTYPE svg PUBLIC "-//W3C//DTD SVG 1.1//EN"
  "http://www.w3.org/Graphics/SVG/1.1/DTD/svg11.dtd">
<!-- Created with matplotlib (http://matplotlib.org/) -->
<svg height="345.6pt" version="1.1" viewBox="0 0 460.8 345.6" width="460.8pt" xmlns="http://www.w3.org/2000/svg" xmlns:xlink="http://www.w3.org/1999/xlink">
 <defs>
  <style type="text/css">
*{stroke-linecap:butt;stroke-linejoin:round;}
  </style>
 </defs>
 <g id="figure_1">
  <g id="patch_1">
   <path d="M 0 345.6 
L 460.8 345.6 
L 460.8 0 
L 0 0 
z
" style="fill:#ffffff;"/>
  </g>
  <g id="axes_1">
   <g id="patch_2">
    <path d="M 92.16 276.48 
L 437.76 276.48 
L 437.76 27.648 
L 92.16 27.648 
z
" style="fill:#ffffff;"/>
   </g>
   <g id="matplotlib.axis_1">
    <g id="xtick_1">
     <g id="line2d_1">
      <defs>
       <path d="M 0 0 
L 0 3.5 
" id="mf7d10078e6" style="stroke:#262626;stroke-width:0.8;"/>
      </defs>
      <g>
       <use style="fill:#262626;stroke:#262626;stroke-width:0.8;" x="92.16" xlink:href="#mf7d10078e6" y="276.48"/>
      </g>
     </g>
     <g id="text_1">
      <text style="fill:#262626;font-family:DejaVu Sans;font-size:20px;font-style:normal;font-weight:normal;text-anchor:middle;" transform="rotate(-0, 92.16, 298.676875)" x="92.16" y="298.676875">0.0</text>
     </g>
    </g>
    <g id="xtick_2">
     <g id="line2d_2">
      <g>
       <use style="fill:#262626;stroke:#262626;stroke-width:0.8;" x="207.36" xlink:href="#mf7d10078e6" y="276.48"/>
      </g>
     </g>
     <g id="text_2">
      <text style="fill:#262626;font-family:DejaVu Sans;font-size:20px;font-style:normal;font-weight:normal;text-anchor:middle;" transform="rotate(-0, 207.36, 298.676875)" x="207.36" y="298.676875">0.2</text>
     </g>
    </g>
    <g id="xtick_3">
     <g id="line2d_3">
      <g>
       <use style="fill:#262626;stroke:#262626;stroke-width:0.8;" x="322.56" xlink:href="#mf7d10078e6" y="276.48"/>
      </g>
     </g>
     <g id="text_3">
      <text style="fill:#262626;font-family:DejaVu Sans;font-size:20px;font-style:normal;font-weight:normal;text-anchor:middle;" transform="rotate(-0, 322.56, 298.676875)" x="322.56" y="298.676875">0.4</text>
     </g>
    </g>
    <g id="xtick_4">
     <g id="line2d_4">
      <g>
       <use style="fill:#262626;stroke:#262626;stroke-width:0.8;" x="437.76" xlink:href="#mf7d10078e6" y="276.48"/>
      </g>
     </g>
     <g id="text_4">
      <text style="fill:#262626;font-family:DejaVu Sans;font-size:20px;font-style:normal;font-weight:normal;text-anchor:middle;" transform="rotate(-0, 437.76, 298.676875)" x="437.76" y="298.676875">0.6</text>
     </g>
    </g>
    <g id="text_5">
     <text style="fill:#262626;font-family:DejaVu Sans;font-size:20px;font-style:normal;font-weight:normal;text-anchor:middle;" transform="rotate(-0, 264.96, 322.033125)" x="264.96" y="322.033125">mut freq</text>
    </g>
   </g>
   <g id="matplotlib.axis_2">
    <g id="ytick_1">
     <g id="line2d_5">
      <defs>
       <path d="M 0 0 
L -3.5 0 
" id="mcd1b85c9bf" style="stroke:#262626;stroke-width:0.8;"/>
      </defs>
      <g>
       <use style="fill:#262626;stroke:#262626;stroke-width:0.8;" x="92.16" xlink:href="#mcd1b85c9bf" y="270.153763"/>
      </g>
     </g>
     <g id="text_6">
      <text style="fill:#262626;font-family:DejaVu Sans;font-size:20px;font-style:normal;font-weight:normal;text-anchor:end;" transform="rotate(-0, 85.16, 277.7522)" x="85.16" y="277.7522">0.0</text>
     </g>
    </g>
    <g id="ytick_2">
     <g id="line2d_6">
      <g>
       <use style="fill:#262626;stroke:#262626;stroke-width:0.8;" x="92.16" xlink:href="#mcd1b85c9bf" y="209.903884"/>
      </g>
     </g>
     <g id="text_7">
      <text style="fill:#262626;font-family:DejaVu Sans;font-size:20px;font-style:normal;font-weight:normal;text-anchor:end;" transform="rotate(-0, 85.16, 217.502321)" x="85.16" y="217.502321">0.2</text>
     </g>
    </g>
    <g id="ytick_3">
     <g id="line2d_7">
      <g>
       <use style="fill:#262626;stroke:#262626;stroke-width:0.8;" x="92.16" xlink:href="#mcd1b85c9bf" y="149.654005"/>
      </g>
     </g>
     <g id="text_8">
      <text style="fill:#262626;font-family:DejaVu Sans;font-size:20px;font-style:normal;font-weight:normal;text-anchor:end;" transform="rotate(-0, 85.16, 157.252442)" x="85.16" y="157.252442">0.4</text>
     </g>
    </g>
    <g id="ytick_4">
     <g id="line2d_8">
      <g>
       <use style="fill:#262626;stroke:#262626;stroke-width:0.8;" x="92.16" xlink:href="#mcd1b85c9bf" y="89.404126"/>
      </g>
     </g>
     <g id="text_9">
      <text style="fill:#262626;font-family:DejaVu Sans;font-size:20px;font-style:normal;font-weight:normal;text-anchor:end;" transform="rotate(-0, 85.16, 97.002563)" x="85.16" y="97.002563">0.6</text>
     </g>
    </g>
    <g id="ytick_5">
     <g id="line2d_9">
      <g>
       <use style="fill:#262626;stroke:#262626;stroke-width:0.8;" x="92.16" xlink:href="#mcd1b85c9bf" y="29.154247"/>
      </g>
     </g>
     <g id="text_10">
      <text style="fill:#262626;font-family:DejaVu Sans;font-size:20px;font-style:normal;font-weight:normal;text-anchor:end;" transform="rotate(-0, 85.16, 36.752684)" x="85.16" y="36.752684">0.8</text>
     </g>
    </g>
    <g id="text_11">
     <text style="fill:#262626;font-family:DejaVu Sans;font-size:20px;font-style:normal;font-weight:normal;text-anchor:middle;" transform="rotate(-90, 45.194375, 152.064)" x="45.194375" y="152.064">freq (3000 total)</text>
    </g>
   </g>
   <g id="line2d_10">
    <path clip-path="url(#p512b83afb5)" d="M 95.04 59.279186 
L 100.8 270.153763 
L 106.56 270.153763 
L 112.32 251.77755 
L 118.08 266.739603 
L 123.84 228.581346 
L 129.6 266.53877 
L 135.36 268.848349 
L 141.12 269.65168 
L 146.88 269.450847 
L 152.64 264.329608 
L 158.4 265.233356 
L 164.16 269.852513 
L 169.92 269.852513 
L 175.68 269.752097 
L 181.44 269.450847 
L 187.2 269.350431 
L 192.96 267.542935 
L 198.72 269.65168 
L 204.48 270.153763 
L 210.24 269.250015 
L 216 270.053346 
L 221.76 269.95293 
L 227.52 269.450847 
L 233.28 270.153763 
L 239.04 270.053346 
L 244.8 269.852513 
L 250.56 269.752097 
L 256.32 269.65168 
L 262.08 270.053346 
L 267.84 270.153763 
L 273.6 270.153763 
L 279.36 270.153763 
L 285.12 270.053346 
L 290.88 270.153763 
L 296.64 270.053346 
L 302.4 270.153763 
L 308.16 270.053346 
L 313.92 270.153763 
L 319.68 270.153763 
" style="fill:none;stroke:#4169e1;stroke-linecap:round;stroke-width:3;"/>
    <defs>
     <path d="M 0 3.25 
C 0.86191 3.25 1.688635 2.907559 2.298097 2.298097 
C 2.907559 1.688635 3.25 0.86191 3.25 0 
C 3.25 -0.86191 2.907559 -1.688635 2.298097 -2.298097 
C 1.688635 -2.907559 0.86191 -3.25 0 -3.25 
C -0.86191 -3.25 -1.688635 -2.907559 -2.298097 -2.298097 
C -2.907559 -1.688635 -3.25 -0.86191 -3.25 0 
C -3.25 0.86191 -2.907559 1.688635 -2.298097 2.298097 
C -1.688635 2.907559 -0.86191 3.25 0 3.25 
z
" id="m2c354068f6" style="stroke:#4169e1;"/>
    </defs>
    <g clip-path="url(#p512b83afb5)">
     <use style="fill:#4169e1;stroke:#4169e1;" x="95.04" xlink:href="#m2c354068f6" y="59.279186"/>
     <use style="fill:#4169e1;stroke:#4169e1;" x="100.8" xlink:href="#m2c354068f6" y="270.153763"/>
     <use style="fill:#4169e1;stroke:#4169e1;" x="106.56" xlink:href="#m2c354068f6" y="270.153763"/>
     <use style="fill:#4169e1;stroke:#4169e1;" x="112.32" xlink:href="#m2c354068f6" y="251.77755"/>
     <use style="fill:#4169e1;stroke:#4169e1;" x="118.08" xlink:href="#m2c354068f6" y="266.739603"/>
     <use style="fill:#4169e1;stroke:#4169e1;" x="123.84" xlink:href="#m2c354068f6" y="228.581346"/>
     <use style="fill:#4169e1;stroke:#4169e1;" x="129.6" xlink:href="#m2c354068f6" y="266.53877"/>
     <use style="fill:#4169e1;stroke:#4169e1;" x="135.36" xlink:href="#m2c354068f6" y="268.848349"/>
     <use style="fill:#4169e1;stroke:#4169e1;" x="141.12" xlink:href="#m2c354068f6" y="269.65168"/>
     <use style="fill:#4169e1;stroke:#4169e1;" x="146.88" xlink:href="#m2c354068f6" y="269.450847"/>
     <use style="fill:#4169e1;stroke:#4169e1;" x="152.64" xlink:href="#m2c354068f6" y="264.329608"/>
     <use style="fill:#4169e1;stroke:#4169e1;" x="158.4" xlink:href="#m2c354068f6" y="265.233356"/>
     <use style="fill:#4169e1;stroke:#4169e1;" x="164.16" xlink:href="#m2c354068f6" y="269.852513"/>
     <use style="fill:#4169e1;stroke:#4169e1;" x="169.92" xlink:href="#m2c354068f6" y="269.852513"/>
     <use style="fill:#4169e1;stroke:#4169e1;" x="175.68" xlink:href="#m2c354068f6" y="269.752097"/>
     <use style="fill:#4169e1;stroke:#4169e1;" x="181.44" xlink:href="#m2c354068f6" y="269.450847"/>
     <use style="fill:#4169e1;stroke:#4169e1;" x="187.2" xlink:href="#m2c354068f6" y="269.350431"/>
     <use style="fill:#4169e1;stroke:#4169e1;" x="192.96" xlink:href="#m2c354068f6" y="267.542935"/>
     <use style="fill:#4169e1;stroke:#4169e1;" x="198.72" xlink:href="#m2c354068f6" y="269.65168"/>
     <use style="fill:#4169e1;stroke:#4169e1;" x="204.48" xlink:href="#m2c354068f6" y="270.153763"/>
     <use style="fill:#4169e1;stroke:#4169e1;" x="210.24" xlink:href="#m2c354068f6" y="269.250015"/>
     <use style="fill:#4169e1;stroke:#4169e1;" x="216" xlink:href="#m2c354068f6" y="270.053346"/>
     <use style="fill:#4169e1;stroke:#4169e1;" x="221.76" xlink:href="#m2c354068f6" y="269.95293"/>
     <use style="fill:#4169e1;stroke:#4169e1;" x="227.52" xlink:href="#m2c354068f6" y="269.450847"/>
     <use style="fill:#4169e1;stroke:#4169e1;" x="233.28" xlink:href="#m2c354068f6" y="270.153763"/>
     <use style="fill:#4169e1;stroke:#4169e1;" x="239.04" xlink:href="#m2c354068f6" y="270.053346"/>
     <use style="fill:#4169e1;stroke:#4169e1;" x="244.8" xlink:href="#m2c354068f6" y="269.852513"/>
     <use style="fill:#4169e1;stroke:#4169e1;" x="250.56" xlink:href="#m2c354068f6" y="269.752097"/>
     <use style="fill:#4169e1;stroke:#4169e1;" x="256.32" xlink:href="#m2c354068f6" y="269.65168"/>
     <use style="fill:#4169e1;stroke:#4169e1;" x="262.08" xlink:href="#m2c354068f6" y="270.053346"/>
     <use style="fill:#4169e1;stroke:#4169e1;" x="267.84" xlink:href="#m2c354068f6" y="270.153763"/>
     <use style="fill:#4169e1;stroke:#4169e1;" x="273.6" xlink:href="#m2c354068f6" y="270.153763"/>
     <use style="fill:#4169e1;stroke:#4169e1;" x="279.36" xlink:href="#m2c354068f6" y="270.153763"/>
     <use style="fill:#4169e1;stroke:#4169e1;" x="285.12" xlink:href="#m2c354068f6" y="270.053346"/>
     <use style="fill:#4169e1;stroke:#4169e1;" x="290.88" xlink:href="#m2c354068f6" y="270.153763"/>
     <use style="fill:#4169e1;stroke:#4169e1;" x="296.64" xlink:href="#m2c354068f6" y="270.053346"/>
     <use style="fill:#4169e1;stroke:#4169e1;" x="302.4" xlink:href="#m2c354068f6" y="270.153763"/>
     <use style="fill:#4169e1;stroke:#4169e1;" x="308.16" xlink:href="#m2c354068f6" y="270.053346"/>
     <use style="fill:#4169e1;stroke:#4169e1;" x="313.92" xlink:href="#m2c354068f6" y="270.153763"/>
     <use style="fill:#4169e1;stroke:#4169e1;" x="319.68" xlink:href="#m2c354068f6" y="270.153763"/>
    </g>
   </g>
   <g id="patch_3">
    <path d="M 92.16 276.48 
L 92.16 27.648 
" style="fill:none;stroke:#262626;stroke-linecap:square;stroke-linejoin:miter;stroke-width:0.8;"/>
   </g>
   <g id="patch_4">
    <path d="M 92.16 276.48 
L 437.76 276.48 
" style="fill:none;stroke:#262626;stroke-linecap:square;stroke-linejoin:miter;stroke-width:0.8;"/>
   </g>
   <g id="text_12">
    <text style="fill:#262626;font-family:DejaVu Sans;font-size:20px;font-style:normal;font-weight:bold;text-anchor:middle;" transform="rotate(-0, 264.96, 21.648)" x="264.96" y="21.648">D (mean 0.026)</text>
   </g>
  </g>
 </g>
 <defs>
  <clipPath id="p512b83afb5">
   <rect height="248.832" width="345.6" x="92.16" y="27.648"/>
  </clipPath>
 </defs>
</svg>
