<?xml version="1.0" encoding="utf-8" standalone="no"?>
<!DOCTYPE svg PUBLIC "-//W3C//DTD SVG 1.1//EN"
  "http://www.w3.org/Graphics/SVG/1.1/DTD/svg11.dtd">
<!-- Created with matplotlib (http://matplotlib.org/) -->
<svg height="345.6pt" version="1.1" viewBox="0 0 460.8 345.6" width="460.8pt" xmlns="http://www.w3.org/2000/svg" xmlns:xlink="http://www.w3.org/1999/xlink">
 <defs>
  <style type="text/css">
*{stroke-linecap:butt;stroke-linejoin:round;}
  </style>
 </defs>
 <g id="figure_1">
  <g id="patch_1">
   <path d="M 0 345.6 
L 460.8 345.6 
L 460.8 0 
L 0 0 
z
" style="fill:#ffffff;"/>
  </g>
  <g id="axes_1">
   <g id="patch_2">
    <path d="M 92.16 276.48 
L 437.76 276.48 
L 437.76 27.648 
L 92.16 27.648 
z
" style="fill:#ffffff;"/>
   </g>
   <g id="matplotlib.axis_1">
    <g id="xtick_1">
     <g id="line2d_1">
      <defs>
       <path d="M 0 0 
L 0 3.5 
" id="m10cefbfc6b" style="stroke:#262626;stroke-width:0.8;"/>
      </defs>
      <g>
       <use style="fill:#262626;stroke:#262626;stroke-width:0.8;" x="102.96" xlink:href="#m10cefbfc6b" y="276.48"/>
      </g>
     </g>
     <g id="text_1">
      <text style="fill:#262626;font-family:DejaVu Sans;font-size:20px;font-style:normal;font-weight:normal;text-anchor:middle;" transform="rotate(-0, 102.96, 298.676875)" x="102.96" y="298.676875">0</text>
     </g>
    </g>
    <g id="xtick_2">
     <g id="line2d_2">
      <g>
       <use style="fill:#262626;stroke:#262626;stroke-width:0.8;" x="210.96" xlink:href="#m10cefbfc6b" y="276.48"/>
      </g>
     </g>
     <g id="text_2">
      <text style="fill:#262626;font-family:DejaVu Sans;font-size:20px;font-style:normal;font-weight:normal;text-anchor:middle;" transform="rotate(-0, 210.96, 298.676875)" x="210.96" y="298.676875">5</text>
     </g>
    </g>
    <g id="xtick_3">
     <g id="line2d_3">
      <g>
       <use style="fill:#262626;stroke:#262626;stroke-width:0.8;" x="318.96" xlink:href="#m10cefbfc6b" y="276.48"/>
      </g>
     </g>
     <g id="text_3">
      <text style="fill:#262626;font-family:DejaVu Sans;font-size:20px;font-style:normal;font-weight:normal;text-anchor:middle;" transform="rotate(-0, 318.96, 298.676875)" x="318.96" y="298.676875">10</text>
     </g>
    </g>
    <g id="xtick_4">
     <g id="line2d_4">
      <g>
       <use style="fill:#262626;stroke:#262626;stroke-width:0.8;" x="426.96" xlink:href="#m10cefbfc6b" y="276.48"/>
      </g>
     </g>
     <g id="text_4">
      <text style="fill:#262626;font-family:DejaVu Sans;font-size:20px;font-style:normal;font-weight:normal;text-anchor:middle;" transform="rotate(-0, 426.96, 298.676875)" x="426.96" y="298.676875">15</text>
     </g>
    </g>
    <g id="text_5">
     <text style="fill:#262626;font-family:DejaVu Sans;font-size:20px;font-style:normal;font-weight:normal;text-anchor:middle;" transform="rotate(-0, 264.96, 322.033125)" x="264.96" y="322.033125">n mutated</text>
    </g>
   </g>
   <g id="matplotlib.axis_2">
    <g id="ytick_1">
     <g id="line2d_5">
      <defs>
       <path d="M 0 0 
L -3.5 0 
" id="m15aa2a20f8" style="stroke:#262626;stroke-width:0.8;"/>
      </defs>
      <g>
       <use style="fill:#262626;stroke:#262626;stroke-width:0.8;" x="92.16" xlink:href="#m15aa2a20f8" y="270.153763"/>
      </g>
     </g>
     <g id="text_6">
      <text style="fill:#262626;font-family:DejaVu Sans;font-size:20px;font-style:normal;font-weight:normal;text-anchor:end;" transform="rotate(-0, 85.16, 277.7522)" x="85.16" y="277.7522">0</text>
     </g>
    </g>
    <g id="ytick_2">
     <g id="line2d_6">
      <g>
       <use style="fill:#262626;stroke:#262626;stroke-width:0.8;" x="92.16" xlink:href="#m15aa2a20f8" y="205.349037"/>
      </g>
     </g>
     <g id="text_7">
      <text style="fill:#262626;font-family:DejaVu Sans;font-size:20px;font-style:normal;font-weight:normal;text-anchor:end;" transform="rotate(-0, 85.16, 212.947475)" x="85.16" y="212.947475">500</text>
     </g>
    </g>
    <g id="ytick_3">
     <g id="line2d_7">
      <g>
       <use style="fill:#262626;stroke:#262626;stroke-width:0.8;" x="92.16" xlink:href="#m15aa2a20f8" y="140.544312"/>
      </g>
     </g>
     <g id="text_8">
      <text style="fill:#262626;font-family:DejaVu Sans;font-size:20px;font-style:normal;font-weight:normal;text-anchor:end;" transform="rotate(-0, 85.16, 148.14275)" x="85.16" y="148.14275">1000</text>
     </g>
    </g>
    <g id="ytick_4">
     <g id="line2d_8">
      <g>
       <use style="fill:#262626;stroke:#262626;stroke-width:0.8;" x="92.16" xlink:href="#m15aa2a20f8" y="75.739587"/>
      </g>
     </g>
     <g id="text_9">
      <text style="fill:#262626;font-family:DejaVu Sans;font-size:20px;font-style:normal;font-weight:normal;text-anchor:end;" transform="rotate(-0, 85.16, 83.338024)" x="85.16" y="83.338024">1500</text>
     </g>
    </g>
    <g id="text_10">
     <text style="fill:#262626;font-family:DejaVu Sans;font-size:20px;font-style:normal;font-weight:normal;text-anchor:middle;" transform="rotate(-90, 26.100625, 152.064)" x="26.100625" y="152.064">counts</text>
    </g>
   </g>
   <g id="line2d_9">
    <path clip-path="url(#p41abeba7e2)" d="M 102.96 59.279186 
L 124.56 149.746583 
L 146.16 237.362572 
L 167.76 259.525788 
L 189.36 263.932509 
L 210.96 266.524698 
L 232.56 268.209621 
L 254.16 269.246497 
L 275.76 269.505715 
L 297.36 270.024153 
L 318.96 270.153763 
L 340.56 270.153763 
L 362.16 270.153763 
L 383.76 270.024153 
L 405.36 269.764934 
L 426.96 270.024153 
" style="fill:none;stroke:#4169e1;stroke-linecap:round;stroke-width:3;"/>
    <defs>
     <path d="M 0 3.25 
C 0.86191 3.25 1.688635 2.907559 2.298097 2.298097 
C 2.907559 1.688635 3.25 0.86191 3.25 0 
C 3.25 -0.86191 2.907559 -1.688635 2.298097 -2.298097 
C 1.688635 -2.907559 0.86191 -3.25 0 -3.25 
C -0.86191 -3.25 -1.688635 -2.907559 -2.298097 -2.298097 
C -2.907559 -1.688635 -3.25 -0.86191 -3.25 0 
C -3.25 0.86191 -2.907559 1.688635 -2.298097 2.298097 
C -1.688635 2.907559 -0.86191 3.25 0 3.25 
z
" id="mdfdb3d7a0f" style="stroke:#4169e1;"/>
    </defs>
    <g clip-path="url(#p41abeba7e2)">
     <use style="fill:#4169e1;stroke:#4169e1;" x="102.96" xlink:href="#mdfdb3d7a0f" y="59.279186"/>
     <use style="fill:#4169e1;stroke:#4169e1;" x="124.56" xlink:href="#mdfdb3d7a0f" y="149.746583"/>
     <use style="fill:#4169e1;stroke:#4169e1;" x="146.16" xlink:href="#mdfdb3d7a0f" y="237.362572"/>
     <use style="fill:#4169e1;stroke:#4169e1;" x="167.76" xlink:href="#mdfdb3d7a0f" y="259.525788"/>
     <use style="fill:#4169e1;stroke:#4169e1;" x="189.36" xlink:href="#mdfdb3d7a0f" y="263.932509"/>
     <use style="fill:#4169e1;stroke:#4169e1;" x="210.96" xlink:href="#mdfdb3d7a0f" y="266.524698"/>
     <use style="fill:#4169e1;stroke:#4169e1;" x="232.56" xlink:href="#mdfdb3d7a0f" y="268.209621"/>
     <use style="fill:#4169e1;stroke:#4169e1;" x="254.16" xlink:href="#mdfdb3d7a0f" y="269.246497"/>
     <use style="fill:#4169e1;stroke:#4169e1;" x="275.76" xlink:href="#mdfdb3d7a0f" y="269.505715"/>
     <use style="fill:#4169e1;stroke:#4169e1;" x="297.36" xlink:href="#mdfdb3d7a0f" y="270.024153"/>
     <use style="fill:#4169e1;stroke:#4169e1;" x="318.96" xlink:href="#mdfdb3d7a0f" y="270.153763"/>
     <use style="fill:#4169e1;stroke:#4169e1;" x="340.56" xlink:href="#mdfdb3d7a0f" y="270.153763"/>
     <use style="fill:#4169e1;stroke:#4169e1;" x="362.16" xlink:href="#mdfdb3d7a0f" y="270.153763"/>
     <use style="fill:#4169e1;stroke:#4169e1;" x="383.76" xlink:href="#mdfdb3d7a0f" y="270.024153"/>
     <use style="fill:#4169e1;stroke:#4169e1;" x="405.36" xlink:href="#mdfdb3d7a0f" y="269.764934"/>
     <use style="fill:#4169e1;stroke:#4169e1;" x="426.96" xlink:href="#mdfdb3d7a0f" y="270.024153"/>
    </g>
   </g>
   <g id="patch_3">
    <path d="M 92.16 276.48 
L 92.16 27.648 
" style="fill:none;stroke:#262626;stroke-linecap:square;stroke-linejoin:miter;stroke-width:0.8;"/>
   </g>
   <g id="patch_4">
    <path d="M 92.16 276.48 
L 437.76 276.48 
" style="fill:none;stroke:#262626;stroke-linecap:square;stroke-linejoin:miter;stroke-width:0.8;"/>
   </g>
   <g id="text_11">
    <text style="fill:#262626;font-family:DejaVu Sans;font-size:20px;font-style:normal;font-weight:bold;text-anchor:middle;" transform="rotate(-0, 264.96, 21.648)" x="264.96" y="21.648">J (mean 0.757)</text>
   </g>
  </g>
 </g>
 <defs>
  <clipPath id="p41abeba7e2">
   <rect height="248.832" width="345.6" x="92.16" y="27.648"/>
  </clipPath>
 </defs>
</svg>
