<?xml version="1.0" encoding="utf-8" standalone="no"?>
<!DOCTYPE svg PUBLIC "-//W3C//DTD SVG 1.1//EN"
  "http://www.w3.org/Graphics/SVG/1.1/DTD/svg11.dtd">
<!-- Created with matplotlib (http://matplotlib.org/) -->
<svg height="345.6pt" version="1.1" viewBox="0 0 460.8 345.6" width="460.8pt" xmlns="http://www.w3.org/2000/svg" xmlns:xlink="http://www.w3.org/1999/xlink">
 <defs>
  <style type="text/css">
*{stroke-linecap:butt;stroke-linejoin:round;}
  </style>
 </defs>
 <g id="figure_1">
  <g id="patch_1">
   <path d="M 0 345.6 
L 460.8 345.6 
L 460.8 0 
L 0 0 
z
" style="fill:#ffffff;"/>
  </g>
  <g id="axes_1">
   <g id="patch_2">
    <path d="M 92.16 276.48 
L 437.76 276.48 
L 437.76 27.648 
L 92.16 27.648 
z
" style="fill:#ffffff;"/>
   </g>
   <g id="matplotlib.axis_1">
    <g id="xtick_1">
     <g id="line2d_1">
      <defs>
       <path d="M 0 0 
L 0 3.5 
" id="m0a10b7c4d3" style="stroke:#262626;stroke-width:0.8;"/>
      </defs>
      <g>
       <use style="fill:#262626;stroke:#262626;stroke-width:0.8;" x="109.44" xlink:href="#m0a10b7c4d3" y="276.48"/>
      </g>
     </g>
     <g id="text_1">
      <text style="fill:#262626;font-family:DejaVu Sans;font-size:20px;font-style:normal;font-weight:normal;text-anchor:middle;" transform="rotate(-0, 109.44, 298.676875)" x="109.44" y="298.676875">0</text>
     </g>
    </g>
    <g id="xtick_2">
     <g id="line2d_2">
      <g>
       <use style="fill:#262626;stroke:#262626;stroke-width:0.8;" x="178.56" xlink:href="#m0a10b7c4d3" y="276.48"/>
      </g>
     </g>
     <g id="text_2">
      <text style="fill:#262626;font-family:DejaVu Sans;font-size:20px;font-style:normal;font-weight:normal;text-anchor:middle;" transform="rotate(-0, 178.56, 298.676875)" x="178.56" y="298.676875">2</text>
     </g>
    </g>
    <g id="xtick_3">
     <g id="line2d_3">
      <g>
       <use style="fill:#262626;stroke:#262626;stroke-width:0.8;" x="247.68" xlink:href="#m0a10b7c4d3" y="276.48"/>
      </g>
     </g>
     <g id="text_3">
      <text style="fill:#262626;font-family:DejaVu Sans;font-size:20px;font-style:normal;font-weight:normal;text-anchor:middle;" transform="rotate(-0, 247.68, 298.676875)" x="247.68" y="298.676875">4</text>
     </g>
    </g>
    <g id="xtick_4">
     <g id="line2d_4">
      <g>
       <use style="fill:#262626;stroke:#262626;stroke-width:0.8;" x="316.8" xlink:href="#m0a10b7c4d3" y="276.48"/>
      </g>
     </g>
     <g id="text_4">
      <text style="fill:#262626;font-family:DejaVu Sans;font-size:20px;font-style:normal;font-weight:normal;text-anchor:middle;" transform="rotate(-0, 316.8, 298.676875)" x="316.8" y="298.676875">6</text>
     </g>
    </g>
    <g id="xtick_5">
     <g id="line2d_5">
      <g>
       <use style="fill:#262626;stroke:#262626;stroke-width:0.8;" x="385.92" xlink:href="#m0a10b7c4d3" y="276.48"/>
      </g>
     </g>
     <g id="text_5">
      <text style="fill:#262626;font-family:DejaVu Sans;font-size:20px;font-style:normal;font-weight:normal;text-anchor:middle;" transform="rotate(-0, 385.92, 298.676875)" x="385.92" y="298.676875">8</text>
     </g>
    </g>
    <g id="text_6">
     <text style="fill:#262626;font-family:DejaVu Sans;font-size:20px;font-style:normal;font-weight:normal;text-anchor:middle;" transform="rotate(-0, 264.96, 322.033125)" x="264.96" y="322.033125">D 5' deletion</text>
    </g>
   </g>
   <g id="matplotlib.axis_2">
    <g id="ytick_1">
     <g id="line2d_6">
      <defs>
       <path d="M 0 0 
L -3.5 0 
" id="me44152add3" style="stroke:#262626;stroke-width:0.8;"/>
      </defs>
      <g>
       <use style="fill:#262626;stroke:#262626;stroke-width:0.8;" x="92.16" xlink:href="#me44152add3" y="270.153763"/>
      </g>
     </g>
     <g id="text_7">
      <text style="fill:#262626;font-family:DejaVu Sans;font-size:20px;font-style:normal;font-weight:normal;text-anchor:end;" transform="rotate(-0, 85.16, 277.7522)" x="85.16" y="277.7522">0</text>
     </g>
    </g>
    <g id="ytick_2">
     <g id="line2d_7">
      <g>
       <use style="fill:#262626;stroke:#262626;stroke-width:0.8;" x="92.16" xlink:href="#me44152add3" y="190.72831"/>
      </g>
     </g>
     <g id="text_8">
      <text style="fill:#262626;font-family:DejaVu Sans;font-size:20px;font-style:normal;font-weight:normal;text-anchor:end;" transform="rotate(-0, 85.16, 198.326748)" x="85.16" y="198.326748">200</text>
     </g>
    </g>
    <g id="ytick_3">
     <g id="line2d_8">
      <g>
       <use style="fill:#262626;stroke:#262626;stroke-width:0.8;" x="92.16" xlink:href="#me44152add3" y="111.302858"/>
      </g>
     </g>
     <g id="text_9">
      <text style="fill:#262626;font-family:DejaVu Sans;font-size:20px;font-style:normal;font-weight:normal;text-anchor:end;" transform="rotate(-0, 85.16, 118.901295)" x="85.16" y="118.901295">400</text>
     </g>
    </g>
    <g id="ytick_4">
     <g id="line2d_9">
      <g>
       <use style="fill:#262626;stroke:#262626;stroke-width:0.8;" x="92.16" xlink:href="#me44152add3" y="31.877405"/>
      </g>
     </g>
     <g id="text_10">
      <text style="fill:#262626;font-family:DejaVu Sans;font-size:20px;font-style:normal;font-weight:normal;text-anchor:end;" transform="rotate(-0, 85.16, 39.475843)" x="85.16" y="39.475843">600</text>
     </g>
    </g>
    <g id="text_11">
     <text style="fill:#262626;font-family:DejaVu Sans;font-size:20px;font-style:normal;font-weight:normal;text-anchor:middle;" transform="rotate(-90, 38.825625, 152.064)" x="38.825625" y="152.064">counts</text>
    </g>
   </g>
   <g id="LineCollection_1">
    <path clip-path="url(#p249ef2156a)" d="M 109.44 267.102485 
L 109.44 264.468241 
" style="fill:none;stroke:#4169e1;stroke-width:3;"/>
    <path clip-path="url(#p249ef2156a)" d="M 144 68.430364 
L 144 50.128009 
" style="fill:none;stroke:#4169e1;stroke-width:3;"/>
    <path clip-path="url(#p249ef2156a)" d="M 178.56 269.05613 
L 178.56 267.280123 
" style="fill:none;stroke:#4169e1;stroke-width:3;"/>
    <path clip-path="url(#p249ef2156a)" d="M 213.12 252.736328 
L 213.12 247.064216 
" style="fill:none;stroke:#4169e1;stroke-width:3;"/>
    <path clip-path="url(#p249ef2156a)" d="M 247.68 264.339382 
L 247.68 260.877307 
" style="fill:none;stroke:#4169e1;stroke-width:3;"/>
    <path clip-path="url(#p249ef2156a)" d="M 282.24 270.153763 
L 282.24 270.153763 
" style="fill:none;stroke:#4169e1;stroke-width:3;"/>
    <path clip-path="url(#p249ef2156a)" d="M 316.8 270.153763 
L 316.8 269.359508 
" style="fill:none;stroke:#4169e1;stroke-width:3;"/>
    <path clip-path="url(#p249ef2156a)" d="M 351.36 269.650226 
L 351.36 268.274536 
" style="fill:none;stroke:#4169e1;stroke-width:3;"/>
    <path clip-path="url(#p249ef2156a)" d="M 385.92 270.153763 
L 385.92 270.153763 
" style="fill:none;stroke:#4169e1;stroke-width:3;"/>
    <path clip-path="url(#p249ef2156a)" d="M 420.48 270.153763 
L 420.48 269.359508 
" style="fill:none;stroke:#4169e1;stroke-width:3;"/>
   </g>
   <g id="line2d_10">
    <path clip-path="url(#p249ef2156a)" d="M 109.44 265.785363 
L 144 59.279186 
L 178.56 268.168126 
L 213.12 249.900272 
L 247.68 262.608345 
L 282.24 270.153763 
L 316.8 269.756635 
L 351.36 268.962381 
L 385.92 270.153763 
L 420.48 269.756635 
" style="fill:none;stroke:#4169e1;stroke-linecap:round;stroke-width:3;"/>
    <defs>
     <path d="M 0 3.25 
C 0.86191 3.25 1.688635 2.907559 2.298097 2.298097 
C 2.907559 1.688635 3.25 0.86191 3.25 0 
C 3.25 -0.86191 2.907559 -1.688635 2.298097 -2.298097 
C 1.688635 -2.907559 0.86191 -3.25 0 -3.25 
C -0.86191 -3.25 -1.688635 -2.907559 -2.298097 -2.298097 
C -2.907559 -1.688635 -3.25 -0.86191 -3.25 0 
C -3.25 0.86191 -2.907559 1.688635 -2.298097 2.298097 
C -1.688635 2.907559 -0.86191 3.25 0 3.25 
z
" id="m344e3760ab" style="stroke:#4169e1;"/>
    </defs>
    <g clip-path="url(#p249ef2156a)">
     <use style="fill:#4169e1;stroke:#4169e1;" x="109.44" xlink:href="#m344e3760ab" y="265.785363"/>
     <use style="fill:#4169e1;stroke:#4169e1;" x="144" xlink:href="#m344e3760ab" y="59.279186"/>
     <use style="fill:#4169e1;stroke:#4169e1;" x="178.56" xlink:href="#m344e3760ab" y="268.168126"/>
     <use style="fill:#4169e1;stroke:#4169e1;" x="213.12" xlink:href="#m344e3760ab" y="249.900272"/>
     <use style="fill:#4169e1;stroke:#4169e1;" x="247.68" xlink:href="#m344e3760ab" y="262.608345"/>
     <use style="fill:#4169e1;stroke:#4169e1;" x="282.24" xlink:href="#m344e3760ab" y="270.153763"/>
     <use style="fill:#4169e1;stroke:#4169e1;" x="316.8" xlink:href="#m344e3760ab" y="269.756635"/>
     <use style="fill:#4169e1;stroke:#4169e1;" x="351.36" xlink:href="#m344e3760ab" y="268.962381"/>
     <use style="fill:#4169e1;stroke:#4169e1;" x="385.92" xlink:href="#m344e3760ab" y="270.153763"/>
     <use style="fill:#4169e1;stroke:#4169e1;" x="420.48" xlink:href="#m344e3760ab" y="269.756635"/>
    </g>
   </g>
   <g id="patch_3">
    <path d="M 92.16 276.48 
L 92.16 27.648 
" style="fill:none;stroke:#262626;stroke-linecap:square;stroke-linejoin:miter;stroke-width:0.8;"/>
   </g>
   <g id="patch_4">
    <path d="M 92.16 276.48 
L 437.76 276.48 
" style="fill:none;stroke:#262626;stroke-linecap:square;stroke-linejoin:miter;stroke-width:0.8;"/>
   </g>
   <g id="text_12">
    <text style="fill:#262626;font-family:DejaVu Sans;font-size:20px;font-style:normal;font-weight:bold;text-anchor:middle;" transform="rotate(-0, 264.96, 21.648)" x="264.96" y="21.648">IGHD2-8*02</text>
   </g>
  </g>
 </g>
 <defs>
  <clipPath id="p249ef2156a">
   <rect height="248.832" width="345.6" x="92.16" y="27.648"/>
  </clipPath>
 </defs>
</svg>
