<?xml version="1.0" encoding="utf-8" standalone="no"?>
<!DOCTYPE svg PUBLIC "-//W3C//DTD SVG 1.1//EN"
  "http://www.w3.org/Graphics/SVG/1.1/DTD/svg11.dtd">
<!-- Created with matplotlib (http://matplotlib.org/) -->
<svg height="345.6pt" version="1.1" viewBox="0 0 460.8 345.6" width="460.8pt" xmlns="http://www.w3.org/2000/svg" xmlns:xlink="http://www.w3.org/1999/xlink">
 <defs>
  <style type="text/css">
*{stroke-linecap:butt;stroke-linejoin:round;}
  </style>
 </defs>
 <g id="figure_1">
  <g id="patch_1">
   <path d="M 0 345.6 
L 460.8 345.6 
L 460.8 0 
L 0 0 
z
" style="fill:#ffffff;"/>
  </g>
  <g id="axes_1">
   <g id="patch_2">
    <path d="M 92.16 276.48 
L 437.76 276.48 
L 437.76 27.648 
L 92.16 27.648 
z
" style="fill:#ffffff;"/>
   </g>
   <g id="matplotlib.axis_1">
    <g id="xtick_1">
     <g id="line2d_1">
      <defs>
       <path d="M 0 0 
L 0 3.5 
" id="m3a395abd92" style="stroke:#262626;stroke-width:0.8;"/>
      </defs>
      <g>
       <use style="fill:#262626;stroke:#262626;stroke-width:0.8;" x="109.44" xlink:href="#m3a395abd92" y="276.48"/>
      </g>
     </g>
     <g id="text_1">
      <text style="fill:#262626;font-family:DejaVu Sans;font-size:20px;font-style:normal;font-weight:normal;text-anchor:middle;" transform="rotate(-0, 109.44, 298.676875)" x="109.44" y="298.676875">0</text>
     </g>
    </g>
    <g id="xtick_2">
     <g id="line2d_2">
      <g>
       <use style="fill:#262626;stroke:#262626;stroke-width:0.8;" x="178.56" xlink:href="#m3a395abd92" y="276.48"/>
      </g>
     </g>
     <g id="text_2">
      <text style="fill:#262626;font-family:DejaVu Sans;font-size:20px;font-style:normal;font-weight:normal;text-anchor:middle;" transform="rotate(-0, 178.56, 298.676875)" x="178.56" y="298.676875">2</text>
     </g>
    </g>
    <g id="xtick_3">
     <g id="line2d_3">
      <g>
       <use style="fill:#262626;stroke:#262626;stroke-width:0.8;" x="247.68" xlink:href="#m3a395abd92" y="276.48"/>
      </g>
     </g>
     <g id="text_3">
      <text style="fill:#262626;font-family:DejaVu Sans;font-size:20px;font-style:normal;font-weight:normal;text-anchor:middle;" transform="rotate(-0, 247.68, 298.676875)" x="247.68" y="298.676875">4</text>
     </g>
    </g>
    <g id="xtick_4">
     <g id="line2d_4">
      <g>
       <use style="fill:#262626;stroke:#262626;stroke-width:0.8;" x="316.8" xlink:href="#m3a395abd92" y="276.48"/>
      </g>
     </g>
     <g id="text_4">
      <text style="fill:#262626;font-family:DejaVu Sans;font-size:20px;font-style:normal;font-weight:normal;text-anchor:middle;" transform="rotate(-0, 316.8, 298.676875)" x="316.8" y="298.676875">6</text>
     </g>
    </g>
    <g id="xtick_5">
     <g id="line2d_5">
      <g>
       <use style="fill:#262626;stroke:#262626;stroke-width:0.8;" x="385.92" xlink:href="#m3a395abd92" y="276.48"/>
      </g>
     </g>
     <g id="text_5">
      <text style="fill:#262626;font-family:DejaVu Sans;font-size:20px;font-style:normal;font-weight:normal;text-anchor:middle;" transform="rotate(-0, 385.92, 298.676875)" x="385.92" y="298.676875">8</text>
     </g>
    </g>
    <g id="text_6">
     <text style="fill:#262626;font-family:DejaVu Sans;font-size:20px;font-style:normal;font-weight:normal;text-anchor:middle;" transform="rotate(-0, 264.96, 322.033125)" x="264.96" y="322.033125">D 5' deletion</text>
    </g>
   </g>
   <g id="matplotlib.axis_2">
    <g id="ytick_1">
     <g id="line2d_6">
      <defs>
       <path d="M 0 0 
L -3.5 0 
" id="md32eec9528" style="stroke:#262626;stroke-width:0.8;"/>
      </defs>
      <g>
       <use style="fill:#262626;stroke:#262626;stroke-width:0.8;" x="92.16" xlink:href="#md32eec9528" y="270.153763"/>
      </g>
     </g>
     <g id="text_7">
      <text style="fill:#262626;font-family:DejaVu Sans;font-size:20px;font-style:normal;font-weight:normal;text-anchor:end;" transform="rotate(-0, 85.16, 277.7522)" x="85.16" y="277.7522">0</text>
     </g>
    </g>
    <g id="ytick_2">
     <g id="line2d_7">
      <g>
       <use style="fill:#262626;stroke:#262626;stroke-width:0.8;" x="92.16" xlink:href="#md32eec9528" y="225.476946"/>
      </g>
     </g>
     <g id="text_8">
      <text style="fill:#262626;font-family:DejaVu Sans;font-size:20px;font-style:normal;font-weight:normal;text-anchor:end;" transform="rotate(-0, 85.16, 233.075383)" x="85.16" y="233.075383">25</text>
     </g>
    </g>
    <g id="ytick_3">
     <g id="line2d_8">
      <g>
       <use style="fill:#262626;stroke:#262626;stroke-width:0.8;" x="92.16" xlink:href="#md32eec9528" y="180.800129"/>
      </g>
     </g>
     <g id="text_9">
      <text style="fill:#262626;font-family:DejaVu Sans;font-size:20px;font-style:normal;font-weight:normal;text-anchor:end;" transform="rotate(-0, 85.16, 188.398566)" x="85.16" y="188.398566">50</text>
     </g>
    </g>
    <g id="ytick_4">
     <g id="line2d_9">
      <g>
       <use style="fill:#262626;stroke:#262626;stroke-width:0.8;" x="92.16" xlink:href="#md32eec9528" y="136.123312"/>
      </g>
     </g>
     <g id="text_10">
      <text style="fill:#262626;font-family:DejaVu Sans;font-size:20px;font-style:normal;font-weight:normal;text-anchor:end;" transform="rotate(-0, 85.16, 143.721749)" x="85.16" y="143.721749">75</text>
     </g>
    </g>
    <g id="ytick_5">
     <g id="line2d_10">
      <g>
       <use style="fill:#262626;stroke:#262626;stroke-width:0.8;" x="92.16" xlink:href="#md32eec9528" y="91.446495"/>
      </g>
     </g>
     <g id="text_11">
      <text style="fill:#262626;font-family:DejaVu Sans;font-size:20px;font-style:normal;font-weight:normal;text-anchor:end;" transform="rotate(-0, 85.16, 99.044932)" x="85.16" y="99.044932">100</text>
     </g>
    </g>
    <g id="ytick_6">
     <g id="line2d_11">
      <g>
       <use style="fill:#262626;stroke:#262626;stroke-width:0.8;" x="92.16" xlink:href="#md32eec9528" y="46.769678"/>
      </g>
     </g>
     <g id="text_12">
      <text style="fill:#262626;font-family:DejaVu Sans;font-size:20px;font-style:normal;font-weight:normal;text-anchor:end;" transform="rotate(-0, 85.16, 54.368115)" x="85.16" y="54.368115">125</text>
     </g>
    </g>
    <g id="text_13">
     <text style="fill:#262626;font-family:DejaVu Sans;font-size:20px;font-style:normal;font-weight:normal;text-anchor:middle;" transform="rotate(-90, 38.825625, 152.064)" x="38.825625" y="152.064">counts</text>
    </g>
   </g>
   <g id="LineCollection_1">
    <path clip-path="url(#pbf82751df4)" d="M 109.44 266.579617 
L 109.44 259.431327 
" style="fill:none;stroke:#4169e1;stroke-width:3;"/>
    <path clip-path="url(#pbf82751df4)" d="M 144 269.10692 
L 144 264.052315 
" style="fill:none;stroke:#4169e1;stroke-width:3;"/>
    <path clip-path="url(#pbf82751df4)" d="M 178.56 269.10692 
L 178.56 264.052315 
" style="fill:none;stroke:#4169e1;stroke-width:3;"/>
    <path clip-path="url(#pbf82751df4)" d="M 213.12 270.153763 
L 213.12 266.579617 
" style="fill:none;stroke:#4169e1;stroke-width:3;"/>
    <path clip-path="url(#pbf82751df4)" d="M 247.68 78.691765 
L 247.68 39.866608 
" style="fill:none;stroke:#4169e1;stroke-width:3;"/>
    <path clip-path="url(#pbf82751df4)" d="M 282.24 267.887845 
L 282.24 261.697244 
" style="fill:none;stroke:#4169e1;stroke-width:3;"/>
    <path clip-path="url(#pbf82751df4)" d="M 316.8 267.887845 
L 316.8 261.697244 
" style="fill:none;stroke:#4169e1;stroke-width:3;"/>
    <path clip-path="url(#pbf82751df4)" d="M 351.36 270.153763 
L 351.36 270.153763 
" style="fill:none;stroke:#4169e1;stroke-width:3;"/>
    <path clip-path="url(#pbf82751df4)" d="M 385.92 262.372404 
L 385.92 252.916104 
" style="fill:none;stroke:#4169e1;stroke-width:3;"/>
    <path clip-path="url(#pbf82751df4)" d="M 420.48 256.423013 
L 420.48 244.568914 
" style="fill:none;stroke:#4169e1;stroke-width:3;"/>
   </g>
   <g id="line2d_12">
    <path clip-path="url(#pbf82751df4)" d="M 109.44 263.005472 
L 144 266.579617 
L 178.56 266.579617 
L 213.12 268.36669 
L 247.68 59.279186 
L 282.24 264.792545 
L 316.8 264.792545 
L 351.36 270.153763 
L 385.92 257.644254 
L 420.48 250.495963 
" style="fill:none;stroke:#4169e1;stroke-linecap:round;stroke-width:3;"/>
    <defs>
     <path d="M 0 3.25 
C 0.86191 3.25 1.688635 2.907559 2.298097 2.298097 
C 2.907559 1.688635 3.25 0.86191 3.25 0 
C 3.25 -0.86191 2.907559 -1.688635 2.298097 -2.298097 
C 1.688635 -2.907559 0.86191 -3.25 0 -3.25 
C -0.86191 -3.25 -1.688635 -2.907559 -2.298097 -2.298097 
C -2.907559 -1.688635 -3.25 -0.86191 -3.25 0 
C -3.25 0.86191 -2.907559 1.688635 -2.298097 2.298097 
C -1.688635 2.907559 -0.86191 3.25 0 3.25 
z
" id="m0cc3287acc" style="stroke:#4169e1;"/>
    </defs>
    <g clip-path="url(#pbf82751df4)">
     <use style="fill:#4169e1;stroke:#4169e1;" x="109.44" xlink:href="#m0cc3287acc" y="263.005472"/>
     <use style="fill:#4169e1;stroke:#4169e1;" x="144" xlink:href="#m0cc3287acc" y="266.579617"/>
     <use style="fill:#4169e1;stroke:#4169e1;" x="178.56" xlink:href="#m0cc3287acc" y="266.579617"/>
     <use style="fill:#4169e1;stroke:#4169e1;" x="213.12" xlink:href="#m0cc3287acc" y="268.36669"/>
     <use style="fill:#4169e1;stroke:#4169e1;" x="247.68" xlink:href="#m0cc3287acc" y="59.279186"/>
     <use style="fill:#4169e1;stroke:#4169e1;" x="282.24" xlink:href="#m0cc3287acc" y="264.792545"/>
     <use style="fill:#4169e1;stroke:#4169e1;" x="316.8" xlink:href="#m0cc3287acc" y="264.792545"/>
     <use style="fill:#4169e1;stroke:#4169e1;" x="351.36" xlink:href="#m0cc3287acc" y="270.153763"/>
     <use style="fill:#4169e1;stroke:#4169e1;" x="385.92" xlink:href="#m0cc3287acc" y="257.644254"/>
     <use style="fill:#4169e1;stroke:#4169e1;" x="420.48" xlink:href="#m0cc3287acc" y="250.495963"/>
    </g>
   </g>
   <g id="patch_3">
    <path d="M 92.16 276.48 
L 92.16 27.648 
" style="fill:none;stroke:#262626;stroke-linecap:square;stroke-linejoin:miter;stroke-width:0.8;"/>
   </g>
   <g id="patch_4">
    <path d="M 92.16 276.48 
L 437.76 276.48 
" style="fill:none;stroke:#262626;stroke-linecap:square;stroke-linejoin:miter;stroke-width:0.8;"/>
   </g>
   <g id="text_14">
    <text style="fill:#262626;font-family:DejaVu Sans;font-size:20px;font-style:normal;font-weight:bold;text-anchor:middle;" transform="rotate(-0, 264.96, 21.648)" x="264.96" y="21.648">IGHD3-10*01</text>
   </g>
  </g>
 </g>
 <defs>
  <clipPath id="pbf82751df4">
   <rect height="248.832" width="345.6" x="92.16" y="27.648"/>
  </clipPath>
 </defs>
</svg>
