<?xml version="1.0" encoding="utf-8" standalone="no"?>
<!DOCTYPE svg PUBLIC "-//W3C//DTD SVG 1.1//EN"
  "http://www.w3.org/Graphics/SVG/1.1/DTD/svg11.dtd">
<!-- Created with matplotlib (http://matplotlib.org/) -->
<svg height="345.6pt" version="1.1" viewBox="0 0 460.8 345.6" width="460.8pt" xmlns="http://www.w3.org/2000/svg" xmlns:xlink="http://www.w3.org/1999/xlink">
 <defs>
  <style type="text/css">
*{stroke-linecap:butt;stroke-linejoin:round;}
  </style>
 </defs>
 <g id="figure_1">
  <g id="patch_1">
   <path d="M 0 345.6 
L 460.8 345.6 
L 460.8 0 
L 0 0 
z
" style="fill:#ffffff;"/>
  </g>
  <g id="axes_1">
   <g id="patch_2">
    <path d="M 92.16 276.48 
L 437.76 276.48 
L 437.76 27.648 
L 92.16 27.648 
z
" style="fill:#ffffff;"/>
   </g>
   <g id="matplotlib.axis_1">
    <g id="xtick_1">
     <g id="line2d_1">
      <defs>
       <path d="M 0 0 
L 0 3.5 
" id="me7afd2f522" style="stroke:#262626;stroke-width:0.8;"/>
      </defs>
      <g>
       <use style="fill:#262626;stroke:#262626;stroke-width:0.8;" x="121.662439" xlink:href="#me7afd2f522" y="276.48"/>
      </g>
     </g>
     <g id="text_1">
      <text style="fill:#262626;font-family:DejaVu Sans;font-size:20px;font-style:normal;font-weight:normal;text-anchor:middle;" transform="rotate(-0, 121.662439, 298.676875)" x="121.662439" y="298.676875">0</text>
     </g>
    </g>
    <g id="xtick_2">
     <g id="line2d_2">
      <g>
       <use style="fill:#262626;stroke:#262626;stroke-width:0.8;" x="205.955122" xlink:href="#me7afd2f522" y="276.48"/>
      </g>
     </g>
     <g id="text_2">
      <text style="fill:#262626;font-family:DejaVu Sans;font-size:20px;font-style:normal;font-weight:normal;text-anchor:middle;" transform="rotate(-0, 205.955122, 298.676875)" x="205.955122" y="298.676875">10</text>
     </g>
    </g>
    <g id="xtick_3">
     <g id="line2d_3">
      <g>
       <use style="fill:#262626;stroke:#262626;stroke-width:0.8;" x="290.247805" xlink:href="#me7afd2f522" y="276.48"/>
      </g>
     </g>
     <g id="text_3">
      <text style="fill:#262626;font-family:DejaVu Sans;font-size:20px;font-style:normal;font-weight:normal;text-anchor:middle;" transform="rotate(-0, 290.247805, 298.676875)" x="290.247805" y="298.676875">20</text>
     </g>
    </g>
    <g id="xtick_4">
     <g id="line2d_4">
      <g>
       <use style="fill:#262626;stroke:#262626;stroke-width:0.8;" x="374.540488" xlink:href="#me7afd2f522" y="276.48"/>
      </g>
     </g>
     <g id="text_4">
      <text style="fill:#262626;font-family:DejaVu Sans;font-size:20px;font-style:normal;font-weight:normal;text-anchor:middle;" transform="rotate(-0, 374.540488, 298.676875)" x="374.540488" y="298.676875">30</text>
     </g>
    </g>
    <g id="text_5">
     <text style="fill:#262626;font-family:DejaVu Sans;font-size:20px;font-style:normal;font-weight:normal;text-anchor:middle;" transform="rotate(-0, 264.96, 322.033125)" x="264.96" y="322.033125">inferred - true</text>
    </g>
   </g>
   <g id="matplotlib.axis_2">
    <g id="ytick_1">
     <g id="line2d_5">
      <defs>
       <path d="M 0 0 
L -3.5 0 
" id="m118a1cda3b" style="stroke:#262626;stroke-width:0.8;"/>
      </defs>
      <g>
       <use style="fill:#262626;stroke:#262626;stroke-width:0.8;" x="92.16" xlink:href="#m118a1cda3b" y="270.153763"/>
      </g>
     </g>
     <g id="text_6">
      <text style="fill:#262626;font-family:DejaVu Sans;font-size:20px;font-style:normal;font-weight:normal;text-anchor:end;" transform="rotate(-0, 85.16, 277.7522)" x="85.16" y="277.7522">0</text>
     </g>
    </g>
    <g id="ytick_2">
     <g id="line2d_6">
      <g>
       <use style="fill:#262626;stroke:#262626;stroke-width:0.8;" x="92.16" xlink:href="#m118a1cda3b" y="195.797424"/>
      </g>
     </g>
     <g id="text_7">
      <text style="fill:#262626;font-family:DejaVu Sans;font-size:20px;font-style:normal;font-weight:normal;text-anchor:end;" transform="rotate(-0, 85.16, 203.395862)" x="85.16" y="203.395862">1000</text>
     </g>
    </g>
    <g id="ytick_3">
     <g id="line2d_7">
      <g>
       <use style="fill:#262626;stroke:#262626;stroke-width:0.8;" x="92.16" xlink:href="#m118a1cda3b" y="121.441086"/>
      </g>
     </g>
     <g id="text_8">
      <text style="fill:#262626;font-family:DejaVu Sans;font-size:20px;font-style:normal;font-weight:normal;text-anchor:end;" transform="rotate(-0, 85.16, 129.039523)" x="85.16" y="129.039523">2000</text>
     </g>
    </g>
    <g id="ytick_4">
     <g id="line2d_8">
      <g>
       <use style="fill:#262626;stroke:#262626;stroke-width:0.8;" x="92.16" xlink:href="#m118a1cda3b" y="47.084747"/>
      </g>
     </g>
     <g id="text_9">
      <text style="fill:#262626;font-family:DejaVu Sans;font-size:20px;font-style:normal;font-weight:normal;text-anchor:end;" transform="rotate(-0, 85.16, 54.683184)" x="85.16" y="54.683184">3000</text>
     </g>
    </g>
    <g id="text_10">
     <text style="fill:#262626;font-family:DejaVu Sans;font-size:20px;font-style:normal;font-weight:normal;text-anchor:middle;" transform="rotate(-90, 26.100625, 152.064)" x="26.100625" y="152.064">counts</text>
    </g>
   </g>
   <g id="line2d_9">
    <path clip-path="url(#p303309f51f)" d="M 96.374634 270.00505 
L 104.803902 270.00505 
L 113.233171 269.335843 
L 121.662439 59.279186 
L 130.091707 262.718129 
L 138.520976 268.517923 
L 146.950244 269.335843 
L 155.379512 269.558912 
L 163.80878 270.153763 
L 172.238049 270.079406 
L 180.667317 270.153763 
L 189.096585 270.00505 
L 197.525854 270.153763 
L 205.955122 270.00505 
L 214.38439 270.079406 
L 222.813659 270.153763 
L 231.242927 270.153763 
L 239.672195 270.079406 
L 248.101463 270.153763 
L 256.530732 270.153763 
L 264.96 270.153763 
L 273.389268 270.153763 
L 281.818537 270.153763 
L 290.247805 270.153763 
L 298.677073 270.153763 
L 307.106341 270.153763 
L 315.53561 270.153763 
L 323.964878 270.153763 
L 332.394146 270.153763 
L 340.823415 270.153763 
L 349.252683 270.153763 
L 357.681951 270.153763 
L 366.11122 270.153763 
L 374.540488 270.153763 
L 382.969756 270.153763 
L 391.399024 270.153763 
L 399.828293 270.153763 
L 408.257561 270.153763 
L 416.686829 270.153763 
L 425.116098 270.153763 
L 433.545366 270.079406 
" style="fill:none;stroke:#4169e1;stroke-linecap:round;stroke-width:3;"/>
    <defs>
     <path d="M 0 3.25 
C 0.86191 3.25 1.688635 2.907559 2.298097 2.298097 
C 2.907559 1.688635 3.25 0.86191 3.25 0 
C 3.25 -0.86191 2.907559 -1.688635 2.298097 -2.298097 
C 1.688635 -2.907559 0.86191 -3.25 0 -3.25 
C -0.86191 -3.25 -1.688635 -2.907559 -2.298097 -2.298097 
C -2.907559 -1.688635 -3.25 -0.86191 -3.25 0 
C -3.25 0.86191 -2.907559 1.688635 -2.298097 2.298097 
C -1.688635 2.907559 -0.86191 3.25 0 3.25 
z
" id="mfebe391b21" style="stroke:#4169e1;"/>
    </defs>
    <g clip-path="url(#p303309f51f)">
     <use style="fill:#4169e1;stroke:#4169e1;" x="96.374634" xlink:href="#mfebe391b21" y="270.00505"/>
     <use style="fill:#4169e1;stroke:#4169e1;" x="104.803902" xlink:href="#mfebe391b21" y="270.00505"/>
     <use style="fill:#4169e1;stroke:#4169e1;" x="113.233171" xlink:href="#mfebe391b21" y="269.335843"/>
     <use style="fill:#4169e1;stroke:#4169e1;" x="121.662439" xlink:href="#mfebe391b21" y="59.279186"/>
     <use style="fill:#4169e1;stroke:#4169e1;" x="130.091707" xlink:href="#mfebe391b21" y="262.718129"/>
     <use style="fill:#4169e1;stroke:#4169e1;" x="138.520976" xlink:href="#mfebe391b21" y="268.517923"/>
     <use style="fill:#4169e1;stroke:#4169e1;" x="146.950244" xlink:href="#mfebe391b21" y="269.335843"/>
     <use style="fill:#4169e1;stroke:#4169e1;" x="155.379512" xlink:href="#mfebe391b21" y="269.558912"/>
     <use style="fill:#4169e1;stroke:#4169e1;" x="163.80878" xlink:href="#mfebe391b21" y="270.153763"/>
     <use style="fill:#4169e1;stroke:#4169e1;" x="172.238049" xlink:href="#mfebe391b21" y="270.079406"/>
     <use style="fill:#4169e1;stroke:#4169e1;" x="180.667317" xlink:href="#mfebe391b21" y="270.153763"/>
     <use style="fill:#4169e1;stroke:#4169e1;" x="189.096585" xlink:href="#mfebe391b21" y="270.00505"/>
     <use style="fill:#4169e1;stroke:#4169e1;" x="197.525854" xlink:href="#mfebe391b21" y="270.153763"/>
     <use style="fill:#4169e1;stroke:#4169e1;" x="205.955122" xlink:href="#mfebe391b21" y="270.00505"/>
     <use style="fill:#4169e1;stroke:#4169e1;" x="214.38439" xlink:href="#mfebe391b21" y="270.079406"/>
     <use style="fill:#4169e1;stroke:#4169e1;" x="222.813659" xlink:href="#mfebe391b21" y="270.153763"/>
     <use style="fill:#4169e1;stroke:#4169e1;" x="231.242927" xlink:href="#mfebe391b21" y="270.153763"/>
     <use style="fill:#4169e1;stroke:#4169e1;" x="239.672195" xlink:href="#mfebe391b21" y="270.079406"/>
     <use style="fill:#4169e1;stroke:#4169e1;" x="248.101463" xlink:href="#mfebe391b21" y="270.153763"/>
     <use style="fill:#4169e1;stroke:#4169e1;" x="256.530732" xlink:href="#mfebe391b21" y="270.153763"/>
     <use style="fill:#4169e1;stroke:#4169e1;" x="264.96" xlink:href="#mfebe391b21" y="270.153763"/>
     <use style="fill:#4169e1;stroke:#4169e1;" x="273.389268" xlink:href="#mfebe391b21" y="270.153763"/>
     <use style="fill:#4169e1;stroke:#4169e1;" x="281.818537" xlink:href="#mfebe391b21" y="270.153763"/>
     <use style="fill:#4169e1;stroke:#4169e1;" x="290.247805" xlink:href="#mfebe391b21" y="270.153763"/>
     <use style="fill:#4169e1;stroke:#4169e1;" x="298.677073" xlink:href="#mfebe391b21" y="270.153763"/>
     <use style="fill:#4169e1;stroke:#4169e1;" x="307.106341" xlink:href="#mfebe391b21" y="270.153763"/>
     <use style="fill:#4169e1;stroke:#4169e1;" x="315.53561" xlink:href="#mfebe391b21" y="270.153763"/>
     <use style="fill:#4169e1;stroke:#4169e1;" x="323.964878" xlink:href="#mfebe391b21" y="270.153763"/>
     <use style="fill:#4169e1;stroke:#4169e1;" x="332.394146" xlink:href="#mfebe391b21" y="270.153763"/>
     <use style="fill:#4169e1;stroke:#4169e1;" x="340.823415" xlink:href="#mfebe391b21" y="270.153763"/>
     <use style="fill:#4169e1;stroke:#4169e1;" x="349.252683" xlink:href="#mfebe391b21" y="270.153763"/>
     <use style="fill:#4169e1;stroke:#4169e1;" x="357.681951" xlink:href="#mfebe391b21" y="270.153763"/>
     <use style="fill:#4169e1;stroke:#4169e1;" x="366.11122" xlink:href="#mfebe391b21" y="270.153763"/>
     <use style="fill:#4169e1;stroke:#4169e1;" x="374.540488" xlink:href="#mfebe391b21" y="270.153763"/>
     <use style="fill:#4169e1;stroke:#4169e1;" x="382.969756" xlink:href="#mfebe391b21" y="270.153763"/>
     <use style="fill:#4169e1;stroke:#4169e1;" x="391.399024" xlink:href="#mfebe391b21" y="270.153763"/>
     <use style="fill:#4169e1;stroke:#4169e1;" x="399.828293" xlink:href="#mfebe391b21" y="270.153763"/>
     <use style="fill:#4169e1;stroke:#4169e1;" x="408.257561" xlink:href="#mfebe391b21" y="270.153763"/>
     <use style="fill:#4169e1;stroke:#4169e1;" x="416.686829" xlink:href="#mfebe391b21" y="270.153763"/>
     <use style="fill:#4169e1;stroke:#4169e1;" x="425.116098" xlink:href="#mfebe391b21" y="270.153763"/>
     <use style="fill:#4169e1;stroke:#4169e1;" x="433.545366" xlink:href="#mfebe391b21" y="270.079406"/>
    </g>
   </g>
   <g id="patch_3">
    <path d="M 92.16 276.48 
L 92.16 27.648 
" style="fill:none;stroke:#262626;stroke-linecap:square;stroke-linejoin:miter;stroke-width:0.8;"/>
   </g>
   <g id="patch_4">
    <path d="M 92.16 276.48 
L 437.76 276.48 
" style="fill:none;stroke:#262626;stroke-linecap:square;stroke-linejoin:miter;stroke-width:0.8;"/>
   </g>
   <g id="text_11">
    <text style="fill:#262626;font-family:DejaVu Sans;font-size:20px;font-style:normal;font-weight:bold;text-anchor:middle;" transform="rotate(-0, 264.96, 21.648)" x="264.96" y="21.648">CDR3 mutations</text>
   </g>
  </g>
 </g>
 <defs>
  <clipPath id="p303309f51f">
   <rect height="248.832" width="345.6" x="92.16" y="27.648"/>
  </clipPath>
 </defs>
</svg>
