<?xml version="1.0" encoding="utf-8" standalone="no"?>
<!DOCTYPE svg PUBLIC "-//W3C//DTD SVG 1.1//EN"
  "http://www.w3.org/Graphics/SVG/1.1/DTD/svg11.dtd">
<!-- Created with matplotlib (http://matplotlib.org/) -->
<svg height="345.6pt" version="1.1" viewBox="0 0 460.8 345.6" width="460.8pt" xmlns="http://www.w3.org/2000/svg" xmlns:xlink="http://www.w3.org/1999/xlink">
 <defs>
  <style type="text/css">
*{stroke-linecap:butt;stroke-linejoin:round;}
  </style>
 </defs>
 <g id="figure_1">
  <g id="patch_1">
   <path d="M 0 345.6 
L 460.8 345.6 
L 460.8 0 
L 0 0 
z
" style="fill:#ffffff;"/>
  </g>
  <g id="axes_1">
   <g id="patch_2">
    <path d="M 92.16 276.48 
L 437.76 276.48 
L 437.76 27.648 
L 92.16 27.648 
z
" style="fill:#ffffff;"/>
   </g>
   <g id="matplotlib.axis_1">
    <g id="xtick_1">
     <g id="line2d_1">
      <defs>
       <path d="M 0 0 
L 0 3.5 
" id="m814a08191b" style="stroke:#262626;stroke-width:0.8;"/>
      </defs>
      <g>
       <use style="fill:#262626;stroke:#262626;stroke-width:0.8;" x="95.616" xlink:href="#m814a08191b" y="276.48"/>
      </g>
     </g>
     <g id="text_1">
      <text style="fill:#262626;font-family:DejaVu Sans;font-size:20px;font-style:normal;font-weight:normal;text-anchor:middle;" transform="rotate(-0, 95.616, 298.676875)" x="95.616" y="298.676875">0</text>
     </g>
    </g>
    <g id="xtick_2">
     <g id="line2d_2">
      <g>
       <use style="fill:#262626;stroke:#262626;stroke-width:0.8;" x="164.736" xlink:href="#m814a08191b" y="276.48"/>
      </g>
     </g>
     <g id="text_2">
      <text style="fill:#262626;font-family:DejaVu Sans;font-size:20px;font-style:normal;font-weight:normal;text-anchor:middle;" transform="rotate(-0, 164.736, 298.676875)" x="164.736" y="298.676875">10</text>
     </g>
    </g>
    <g id="xtick_3">
     <g id="line2d_3">
      <g>
       <use style="fill:#262626;stroke:#262626;stroke-width:0.8;" x="233.856" xlink:href="#m814a08191b" y="276.48"/>
      </g>
     </g>
     <g id="text_3">
      <text style="fill:#262626;font-family:DejaVu Sans;font-size:20px;font-style:normal;font-weight:normal;text-anchor:middle;" transform="rotate(-0, 233.856, 298.676875)" x="233.856" y="298.676875">20</text>
     </g>
    </g>
    <g id="xtick_4">
     <g id="line2d_4">
      <g>
       <use style="fill:#262626;stroke:#262626;stroke-width:0.8;" x="302.976" xlink:href="#m814a08191b" y="276.48"/>
      </g>
     </g>
     <g id="text_4">
      <text style="fill:#262626;font-family:DejaVu Sans;font-size:20px;font-style:normal;font-weight:normal;text-anchor:middle;" transform="rotate(-0, 302.976, 298.676875)" x="302.976" y="298.676875">30</text>
     </g>
    </g>
    <g id="xtick_5">
     <g id="line2d_5">
      <g>
       <use style="fill:#262626;stroke:#262626;stroke-width:0.8;" x="372.096" xlink:href="#m814a08191b" y="276.48"/>
      </g>
     </g>
     <g id="text_5">
      <text style="fill:#262626;font-family:DejaVu Sans;font-size:20px;font-style:normal;font-weight:normal;text-anchor:middle;" transform="rotate(-0, 372.096, 298.676875)" x="372.096" y="298.676875">40</text>
     </g>
    </g>
    <g id="text_6">
     <text style="fill:#262626;font-family:DejaVu Sans;font-size:20px;font-style:normal;font-weight:normal;text-anchor:middle;" transform="rotate(-0, 264.96, 322.033125)" x="264.96" y="322.033125">hamming distance</text>
    </g>
   </g>
   <g id="matplotlib.axis_2">
    <g id="ytick_1">
     <g id="line2d_6">
      <defs>
       <path d="M 0 0 
L -3.5 0 
" id="m501d5172d6" style="stroke:#262626;stroke-width:0.8;"/>
      </defs>
      <g>
       <use style="fill:#262626;stroke:#262626;stroke-width:0.8;" x="92.16" xlink:href="#m501d5172d6" y="270.153763"/>
      </g>
     </g>
     <g id="text_7">
      <text style="fill:#262626;font-family:DejaVu Sans;font-size:20px;font-style:normal;font-weight:normal;text-anchor:end;" transform="rotate(-0, 85.16, 277.7522)" x="85.16" y="277.7522">0</text>
     </g>
    </g>
    <g id="ytick_2">
     <g id="line2d_7">
      <g>
       <use style="fill:#262626;stroke:#262626;stroke-width:0.8;" x="92.16" xlink:href="#m501d5172d6" y="195.481462"/>
      </g>
     </g>
     <g id="text_8">
      <text style="fill:#262626;font-family:DejaVu Sans;font-size:20px;font-style:normal;font-weight:normal;text-anchor:end;" transform="rotate(-0, 85.16, 203.0799)" x="85.16" y="203.0799">1000</text>
     </g>
    </g>
    <g id="ytick_3">
     <g id="line2d_8">
      <g>
       <use style="fill:#262626;stroke:#262626;stroke-width:0.8;" x="92.16" xlink:href="#m501d5172d6" y="120.809162"/>
      </g>
     </g>
     <g id="text_9">
      <text style="fill:#262626;font-family:DejaVu Sans;font-size:20px;font-style:normal;font-weight:normal;text-anchor:end;" transform="rotate(-0, 85.16, 128.407599)" x="85.16" y="128.407599">2000</text>
     </g>
    </g>
    <g id="ytick_4">
     <g id="line2d_9">
      <g>
       <use style="fill:#262626;stroke:#262626;stroke-width:0.8;" x="92.16" xlink:href="#m501d5172d6" y="46.136862"/>
      </g>
     </g>
     <g id="text_10">
      <text style="fill:#262626;font-family:DejaVu Sans;font-size:20px;font-style:normal;font-weight:normal;text-anchor:end;" transform="rotate(-0, 85.16, 53.735299)" x="85.16" y="53.735299">3000</text>
     </g>
    </g>
    <g id="text_11">
     <text style="fill:#262626;font-family:DejaVu Sans;font-size:20px;font-style:normal;font-weight:normal;text-anchor:middle;" transform="rotate(-90, 26.100625, 152.064)" x="26.100625" y="152.064">counts</text>
    </g>
   </g>
   <g id="line2d_10">
    <path clip-path="url(#pd5d50f1ec5)" d="M 95.616 59.279186 
L 102.528 262.462516 
L 109.44 268.137611 
L 116.352 268.510972 
L 123.264 269.481712 
L 130.176 270.07909 
L 137.088 269.855074 
L 144 269.929746 
L 150.912 270.004418 
L 157.824 270.153763 
L 164.736 270.07909 
L 171.648 270.153763 
L 178.56 270.153763 
L 185.472 270.153763 
L 192.384 270.07909 
L 199.296 270.07909 
L 206.208 270.153763 
L 213.12 270.153763 
L 220.032 270.153763 
L 226.944 270.153763 
L 233.856 270.153763 
L 240.768 270.153763 
L 247.68 270.153763 
L 254.592 270.153763 
L 261.504 270.153763 
L 268.416 270.153763 
L 275.328 270.153763 
L 282.24 270.153763 
L 289.152 270.153763 
L 296.064 270.153763 
L 302.976 270.153763 
L 309.888 270.153763 
L 316.8 270.153763 
L 323.712 270.153763 
L 330.624 270.153763 
L 337.536 270.153763 
L 344.448 270.153763 
L 351.36 270.153763 
L 358.272 270.153763 
L 365.184 270.153763 
L 372.096 270.153763 
L 379.008 270.153763 
L 385.92 270.153763 
L 392.832 270.153763 
L 399.744 270.153763 
L 406.656 270.153763 
L 413.568 270.07909 
L 420.48 270.153763 
L 427.392 270.153763 
L 434.304 270.07909 
" style="fill:none;stroke:#4169e1;stroke-linecap:round;stroke-width:3;"/>
    <defs>
     <path d="M 0 3.25 
C 0.86191 3.25 1.688635 2.907559 2.298097 2.298097 
C 2.907559 1.688635 3.25 0.86191 3.25 0 
C 3.25 -0.86191 2.907559 -1.688635 2.298097 -2.298097 
C 1.688635 -2.907559 0.86191 -3.25 0 -3.25 
C -0.86191 -3.25 -1.688635 -2.907559 -2.298097 -2.298097 
C -2.907559 -1.688635 -3.25 -0.86191 -3.25 0 
C -3.25 0.86191 -2.907559 1.688635 -2.298097 2.298097 
C -1.688635 2.907559 -0.86191 3.25 0 3.25 
z
" id="m719d783182" style="stroke:#4169e1;"/>
    </defs>
    <g clip-path="url(#pd5d50f1ec5)">
     <use style="fill:#4169e1;stroke:#4169e1;" x="95.616" xlink:href="#m719d783182" y="59.279186"/>
     <use style="fill:#4169e1;stroke:#4169e1;" x="102.528" xlink:href="#m719d783182" y="262.462516"/>
     <use style="fill:#4169e1;stroke:#4169e1;" x="109.44" xlink:href="#m719d783182" y="268.137611"/>
     <use style="fill:#4169e1;stroke:#4169e1;" x="116.352" xlink:href="#m719d783182" y="268.510972"/>
     <use style="fill:#4169e1;stroke:#4169e1;" x="123.264" xlink:href="#m719d783182" y="269.481712"/>
     <use style="fill:#4169e1;stroke:#4169e1;" x="130.176" xlink:href="#m719d783182" y="270.07909"/>
     <use style="fill:#4169e1;stroke:#4169e1;" x="137.088" xlink:href="#m719d783182" y="269.855074"/>
     <use style="fill:#4169e1;stroke:#4169e1;" x="144" xlink:href="#m719d783182" y="269.929746"/>
     <use style="fill:#4169e1;stroke:#4169e1;" x="150.912" xlink:href="#m719d783182" y="270.004418"/>
     <use style="fill:#4169e1;stroke:#4169e1;" x="157.824" xlink:href="#m719d783182" y="270.153763"/>
     <use style="fill:#4169e1;stroke:#4169e1;" x="164.736" xlink:href="#m719d783182" y="270.07909"/>
     <use style="fill:#4169e1;stroke:#4169e1;" x="171.648" xlink:href="#m719d783182" y="270.153763"/>
     <use style="fill:#4169e1;stroke:#4169e1;" x="178.56" xlink:href="#m719d783182" y="270.153763"/>
     <use style="fill:#4169e1;stroke:#4169e1;" x="185.472" xlink:href="#m719d783182" y="270.153763"/>
     <use style="fill:#4169e1;stroke:#4169e1;" x="192.384" xlink:href="#m719d783182" y="270.07909"/>
     <use style="fill:#4169e1;stroke:#4169e1;" x="199.296" xlink:href="#m719d783182" y="270.07909"/>
     <use style="fill:#4169e1;stroke:#4169e1;" x="206.208" xlink:href="#m719d783182" y="270.153763"/>
     <use style="fill:#4169e1;stroke:#4169e1;" x="213.12" xlink:href="#m719d783182" y="270.153763"/>
     <use style="fill:#4169e1;stroke:#4169e1;" x="220.032" xlink:href="#m719d783182" y="270.153763"/>
     <use style="fill:#4169e1;stroke:#4169e1;" x="226.944" xlink:href="#m719d783182" y="270.153763"/>
     <use style="fill:#4169e1;stroke:#4169e1;" x="233.856" xlink:href="#m719d783182" y="270.153763"/>
     <use style="fill:#4169e1;stroke:#4169e1;" x="240.768" xlink:href="#m719d783182" y="270.153763"/>
     <use style="fill:#4169e1;stroke:#4169e1;" x="247.68" xlink:href="#m719d783182" y="270.153763"/>
     <use style="fill:#4169e1;stroke:#4169e1;" x="254.592" xlink:href="#m719d783182" y="270.153763"/>
     <use style="fill:#4169e1;stroke:#4169e1;" x="261.504" xlink:href="#m719d783182" y="270.153763"/>
     <use style="fill:#4169e1;stroke:#4169e1;" x="268.416" xlink:href="#m719d783182" y="270.153763"/>
     <use style="fill:#4169e1;stroke:#4169e1;" x="275.328" xlink:href="#m719d783182" y="270.153763"/>
     <use style="fill:#4169e1;stroke:#4169e1;" x="282.24" xlink:href="#m719d783182" y="270.153763"/>
     <use style="fill:#4169e1;stroke:#4169e1;" x="289.152" xlink:href="#m719d783182" y="270.153763"/>
     <use style="fill:#4169e1;stroke:#4169e1;" x="296.064" xlink:href="#m719d783182" y="270.153763"/>
     <use style="fill:#4169e1;stroke:#4169e1;" x="302.976" xlink:href="#m719d783182" y="270.153763"/>
     <use style="fill:#4169e1;stroke:#4169e1;" x="309.888" xlink:href="#m719d783182" y="270.153763"/>
     <use style="fill:#4169e1;stroke:#4169e1;" x="316.8" xlink:href="#m719d783182" y="270.153763"/>
     <use style="fill:#4169e1;stroke:#4169e1;" x="323.712" xlink:href="#m719d783182" y="270.153763"/>
     <use style="fill:#4169e1;stroke:#4169e1;" x="330.624" xlink:href="#m719d783182" y="270.153763"/>
     <use style="fill:#4169e1;stroke:#4169e1;" x="337.536" xlink:href="#m719d783182" y="270.153763"/>
     <use style="fill:#4169e1;stroke:#4169e1;" x="344.448" xlink:href="#m719d783182" y="270.153763"/>
     <use style="fill:#4169e1;stroke:#4169e1;" x="351.36" xlink:href="#m719d783182" y="270.153763"/>
     <use style="fill:#4169e1;stroke:#4169e1;" x="358.272" xlink:href="#m719d783182" y="270.153763"/>
     <use style="fill:#4169e1;stroke:#4169e1;" x="365.184" xlink:href="#m719d783182" y="270.153763"/>
     <use style="fill:#4169e1;stroke:#4169e1;" x="372.096" xlink:href="#m719d783182" y="270.153763"/>
     <use style="fill:#4169e1;stroke:#4169e1;" x="379.008" xlink:href="#m719d783182" y="270.153763"/>
     <use style="fill:#4169e1;stroke:#4169e1;" x="385.92" xlink:href="#m719d783182" y="270.153763"/>
     <use style="fill:#4169e1;stroke:#4169e1;" x="392.832" xlink:href="#m719d783182" y="270.153763"/>
     <use style="fill:#4169e1;stroke:#4169e1;" x="399.744" xlink:href="#m719d783182" y="270.153763"/>
     <use style="fill:#4169e1;stroke:#4169e1;" x="406.656" xlink:href="#m719d783182" y="270.153763"/>
     <use style="fill:#4169e1;stroke:#4169e1;" x="413.568" xlink:href="#m719d783182" y="270.07909"/>
     <use style="fill:#4169e1;stroke:#4169e1;" x="420.48" xlink:href="#m719d783182" y="270.153763"/>
     <use style="fill:#4169e1;stroke:#4169e1;" x="427.392" xlink:href="#m719d783182" y="270.153763"/>
     <use style="fill:#4169e1;stroke:#4169e1;" x="434.304" xlink:href="#m719d783182" y="270.07909"/>
    </g>
   </g>
   <g id="patch_3">
    <path d="M 92.16 276.48 
L 92.16 27.648 
" style="fill:none;stroke:#262626;stroke-linecap:square;stroke-linejoin:miter;stroke-width:0.8;"/>
   </g>
   <g id="patch_4">
    <path d="M 92.16 276.48 
L 437.76 276.48 
" style="fill:none;stroke:#262626;stroke-linecap:square;stroke-linejoin:miter;stroke-width:0.8;"/>
   </g>
   <g id="text_12">
    <text style="fill:#262626;font-family:DejaVu Sans;font-size:15px;font-style:normal;font-weight:bold;text-anchor:middle;" transform="rotate(-0, 264.96, 21.648)" x="264.96" y="21.648">distance to true naive within CDR3</text>
   </g>
  </g>
 </g>
 <defs>
  <clipPath id="pd5d50f1ec5">
   <rect height="248.832" width="345.6" x="92.16" y="27.648"/>
  </clipPath>
 </defs>
</svg>
