<?xml version="1.0" encoding="utf-8" standalone="no"?>
<!DOCTYPE svg PUBLIC "-//W3C//DTD SVG 1.1//EN"
  "http://www.w3.org/Graphics/SVG/1.1/DTD/svg11.dtd">
<!-- Created with matplotlib (http://matplotlib.org/) -->
<svg height="345.6pt" version="1.1" viewBox="0 0 460.8 345.6" width="460.8pt" xmlns="http://www.w3.org/2000/svg" xmlns:xlink="http://www.w3.org/1999/xlink">
 <defs>
  <style type="text/css">
*{stroke-linecap:butt;stroke-linejoin:round;}
  </style>
 </defs>
 <g id="figure_1">
  <g id="patch_1">
   <path d="M 0 345.6 
L 460.8 345.6 
L 460.8 0 
L 0 0 
z
" style="fill:#ffffff;"/>
  </g>
  <g id="axes_1">
   <g id="patch_2">
    <path d="M 92.16 276.48 
L 437.76 276.48 
L 437.76 27.648 
L 92.16 27.648 
z
" style="fill:#ffffff;"/>
   </g>
   <g id="matplotlib.axis_1">
    <g id="xtick_1">
     <g id="line2d_1">
      <defs>
       <path d="M 0 0 
L 0 3.5 
" id="m0d82fd2f91" style="stroke:#262626;stroke-width:0.8;"/>
      </defs>
      <g>
       <use style="fill:#262626;stroke:#262626;stroke-width:0.8;" x="99.36" xlink:href="#m0d82fd2f91" y="276.48"/>
      </g>
     </g>
     <g id="text_1">
      <text style="fill:#262626;font-family:DejaVu Sans;font-size:20px;font-style:normal;font-weight:normal;text-anchor:middle;" transform="rotate(-0, 99.36, 298.676875)" x="99.36" y="298.676875">0</text>
     </g>
    </g>
    <g id="xtick_2">
     <g id="line2d_2">
      <g>
       <use style="fill:#262626;stroke:#262626;stroke-width:0.8;" x="171.36" xlink:href="#m0d82fd2f91" y="276.48"/>
      </g>
     </g>
     <g id="text_2">
      <text style="fill:#262626;font-family:DejaVu Sans;font-size:20px;font-style:normal;font-weight:normal;text-anchor:middle;" transform="rotate(-0, 171.36, 298.676875)" x="171.36" y="298.676875">5</text>
     </g>
    </g>
    <g id="xtick_3">
     <g id="line2d_3">
      <g>
       <use style="fill:#262626;stroke:#262626;stroke-width:0.8;" x="243.36" xlink:href="#m0d82fd2f91" y="276.48"/>
      </g>
     </g>
     <g id="text_3">
      <text style="fill:#262626;font-family:DejaVu Sans;font-size:20px;font-style:normal;font-weight:normal;text-anchor:middle;" transform="rotate(-0, 243.36, 298.676875)" x="243.36" y="298.676875">10</text>
     </g>
    </g>
    <g id="xtick_4">
     <g id="line2d_4">
      <g>
       <use style="fill:#262626;stroke:#262626;stroke-width:0.8;" x="315.36" xlink:href="#m0d82fd2f91" y="276.48"/>
      </g>
     </g>
     <g id="text_4">
      <text style="fill:#262626;font-family:DejaVu Sans;font-size:20px;font-style:normal;font-weight:normal;text-anchor:middle;" transform="rotate(-0, 315.36, 298.676875)" x="315.36" y="298.676875">15</text>
     </g>
    </g>
    <g id="xtick_5">
     <g id="line2d_5">
      <g>
       <use style="fill:#262626;stroke:#262626;stroke-width:0.8;" x="387.36" xlink:href="#m0d82fd2f91" y="276.48"/>
      </g>
     </g>
     <g id="text_5">
      <text style="fill:#262626;font-family:DejaVu Sans;font-size:20px;font-style:normal;font-weight:normal;text-anchor:middle;" transform="rotate(-0, 387.36, 298.676875)" x="387.36" y="298.676875">20</text>
     </g>
    </g>
    <g id="text_6">
     <text style="fill:#262626;font-family:DejaVu Sans;font-size:20px;font-style:normal;font-weight:normal;text-anchor:middle;" transform="rotate(-0, 264.96, 322.033125)" x="264.96" y="322.033125">hamming distance</text>
    </g>
   </g>
   <g id="matplotlib.axis_2">
    <g id="ytick_1">
     <g id="line2d_6">
      <defs>
       <path d="M 0 0 
L -3.5 0 
" id="m36d37507c1" style="stroke:#262626;stroke-width:0.8;"/>
      </defs>
      <g>
       <use style="fill:#262626;stroke:#262626;stroke-width:0.8;" x="92.16" xlink:href="#m36d37507c1" y="270.153763"/>
      </g>
     </g>
     <g id="text_7">
      <text style="fill:#262626;font-family:DejaVu Sans;font-size:20px;font-style:normal;font-weight:normal;text-anchor:end;" transform="rotate(-0, 85.16, 277.7522)" x="85.16" y="277.7522">0</text>
     </g>
    </g>
    <g id="ytick_2">
     <g id="line2d_7">
      <g>
       <use style="fill:#262626;stroke:#262626;stroke-width:0.8;" x="92.16" xlink:href="#m36d37507c1" y="199.080431"/>
      </g>
     </g>
     <g id="text_8">
      <text style="fill:#262626;font-family:DejaVu Sans;font-size:20px;font-style:normal;font-weight:normal;text-anchor:end;" transform="rotate(-0, 85.16, 206.678868)" x="85.16" y="206.678868">1000</text>
     </g>
    </g>
    <g id="ytick_3">
     <g id="line2d_8">
      <g>
       <use style="fill:#262626;stroke:#262626;stroke-width:0.8;" x="92.16" xlink:href="#m36d37507c1" y="128.007099"/>
      </g>
     </g>
     <g id="text_9">
      <text style="fill:#262626;font-family:DejaVu Sans;font-size:20px;font-style:normal;font-weight:normal;text-anchor:end;" transform="rotate(-0, 85.16, 135.605536)" x="85.16" y="135.605536">2000</text>
     </g>
    </g>
    <g id="ytick_4">
     <g id="line2d_9">
      <g>
       <use style="fill:#262626;stroke:#262626;stroke-width:0.8;" x="92.16" xlink:href="#m36d37507c1" y="56.933766"/>
      </g>
     </g>
     <g id="text_10">
      <text style="fill:#262626;font-family:DejaVu Sans;font-size:20px;font-style:normal;font-weight:normal;text-anchor:end;" transform="rotate(-0, 85.16, 64.532204)" x="85.16" y="64.532204">3000</text>
     </g>
    </g>
    <g id="text_11">
     <text style="fill:#262626;font-family:DejaVu Sans;font-size:20px;font-style:normal;font-weight:normal;text-anchor:middle;" transform="rotate(-90, 26.100625, 152.064)" x="26.100625" y="152.064">counts</text>
    </g>
   </g>
   <g id="line2d_10">
    <path clip-path="url(#p6997a0edff)" d="M 99.36 59.279186 
L 113.76 269.514103 
L 128.16 269.300883 
L 142.56 269.656249 
L 156.96 270.082689 
L 171.36 270.153763 
L 185.76 270.153763 
L 200.16 270.011616 
L 214.56 270.153763 
L 228.96 270.153763 
L 243.36 270.153763 
L 257.76 270.153763 
L 272.16 270.153763 
L 286.56 270.153763 
L 300.96 270.153763 
L 315.36 270.082689 
L 329.76 270.153763 
L 344.16 270.153763 
L 358.56 270.153763 
L 372.96 270.153763 
L 387.36 270.153763 
L 401.76 270.153763 
L 416.16 270.153763 
L 430.56 270.082689 
" style="fill:none;stroke:#4169e1;stroke-linecap:round;stroke-width:3;"/>
    <defs>
     <path d="M 0 3.25 
C 0.86191 3.25 1.688635 2.907559 2.298097 2.298097 
C 2.907559 1.688635 3.25 0.86191 3.25 0 
C 3.25 -0.86191 2.907559 -1.688635 2.298097 -2.298097 
C 1.688635 -2.907559 0.86191 -3.25 0 -3.25 
C -0.86191 -3.25 -1.688635 -2.907559 -2.298097 -2.298097 
C -2.907559 -1.688635 -3.25 -0.86191 -3.25 0 
C -3.25 0.86191 -2.907559 1.688635 -2.298097 2.298097 
C -1.688635 2.907559 -0.86191 3.25 0 3.25 
z
" id="m7f1ef50bd0" style="stroke:#4169e1;"/>
    </defs>
    <g clip-path="url(#p6997a0edff)">
     <use style="fill:#4169e1;stroke:#4169e1;" x="99.36" xlink:href="#m7f1ef50bd0" y="59.279186"/>
     <use style="fill:#4169e1;stroke:#4169e1;" x="113.76" xlink:href="#m7f1ef50bd0" y="269.514103"/>
     <use style="fill:#4169e1;stroke:#4169e1;" x="128.16" xlink:href="#m7f1ef50bd0" y="269.300883"/>
     <use style="fill:#4169e1;stroke:#4169e1;" x="142.56" xlink:href="#m7f1ef50bd0" y="269.656249"/>
     <use style="fill:#4169e1;stroke:#4169e1;" x="156.96" xlink:href="#m7f1ef50bd0" y="270.082689"/>
     <use style="fill:#4169e1;stroke:#4169e1;" x="171.36" xlink:href="#m7f1ef50bd0" y="270.153763"/>
     <use style="fill:#4169e1;stroke:#4169e1;" x="185.76" xlink:href="#m7f1ef50bd0" y="270.153763"/>
     <use style="fill:#4169e1;stroke:#4169e1;" x="200.16" xlink:href="#m7f1ef50bd0" y="270.011616"/>
     <use style="fill:#4169e1;stroke:#4169e1;" x="214.56" xlink:href="#m7f1ef50bd0" y="270.153763"/>
     <use style="fill:#4169e1;stroke:#4169e1;" x="228.96" xlink:href="#m7f1ef50bd0" y="270.153763"/>
     <use style="fill:#4169e1;stroke:#4169e1;" x="243.36" xlink:href="#m7f1ef50bd0" y="270.153763"/>
     <use style="fill:#4169e1;stroke:#4169e1;" x="257.76" xlink:href="#m7f1ef50bd0" y="270.153763"/>
     <use style="fill:#4169e1;stroke:#4169e1;" x="272.16" xlink:href="#m7f1ef50bd0" y="270.153763"/>
     <use style="fill:#4169e1;stroke:#4169e1;" x="286.56" xlink:href="#m7f1ef50bd0" y="270.153763"/>
     <use style="fill:#4169e1;stroke:#4169e1;" x="300.96" xlink:href="#m7f1ef50bd0" y="270.153763"/>
     <use style="fill:#4169e1;stroke:#4169e1;" x="315.36" xlink:href="#m7f1ef50bd0" y="270.082689"/>
     <use style="fill:#4169e1;stroke:#4169e1;" x="329.76" xlink:href="#m7f1ef50bd0" y="270.153763"/>
     <use style="fill:#4169e1;stroke:#4169e1;" x="344.16" xlink:href="#m7f1ef50bd0" y="270.153763"/>
     <use style="fill:#4169e1;stroke:#4169e1;" x="358.56" xlink:href="#m7f1ef50bd0" y="270.153763"/>
     <use style="fill:#4169e1;stroke:#4169e1;" x="372.96" xlink:href="#m7f1ef50bd0" y="270.153763"/>
     <use style="fill:#4169e1;stroke:#4169e1;" x="387.36" xlink:href="#m7f1ef50bd0" y="270.153763"/>
     <use style="fill:#4169e1;stroke:#4169e1;" x="401.76" xlink:href="#m7f1ef50bd0" y="270.153763"/>
     <use style="fill:#4169e1;stroke:#4169e1;" x="416.16" xlink:href="#m7f1ef50bd0" y="270.153763"/>
     <use style="fill:#4169e1;stroke:#4169e1;" x="430.56" xlink:href="#m7f1ef50bd0" y="270.082689"/>
    </g>
   </g>
   <g id="patch_3">
    <path d="M 92.16 276.48 
L 92.16 27.648 
" style="fill:none;stroke:#262626;stroke-linecap:square;stroke-linejoin:miter;stroke-width:0.8;"/>
   </g>
   <g id="patch_4">
    <path d="M 92.16 276.48 
L 437.76 276.48 
" style="fill:none;stroke:#262626;stroke-linecap:square;stroke-linejoin:miter;stroke-width:0.8;"/>
   </g>
   <g id="text_12">
    <text style="fill:#262626;font-family:DejaVu Sans;font-size:20px;font-style:normal;font-weight:bold;text-anchor:middle;" transform="rotate(-0, 264.96, 21.648)" x="264.96" y="21.648">D distance to true naive</text>
   </g>
  </g>
 </g>
 <defs>
  <clipPath id="p6997a0edff">
   <rect height="248.832" width="345.6" x="92.16" y="27.648"/>
  </clipPath>
 </defs>
</svg>
