<?xml version="1.0" encoding="utf-8" standalone="no"?>
<!DOCTYPE svg PUBLIC "-//W3C//DTD SVG 1.1//EN"
  "http://www.w3.org/Graphics/SVG/1.1/DTD/svg11.dtd">
<!-- Created with matplotlib (http://matplotlib.org/) -->
<svg height="345.6pt" version="1.1" viewBox="0 0 460.8 345.6" width="460.8pt" xmlns="http://www.w3.org/2000/svg" xmlns:xlink="http://www.w3.org/1999/xlink">
 <defs>
  <style type="text/css">
*{stroke-linecap:butt;stroke-linejoin:round;}
  </style>
 </defs>
 <g id="figure_1">
  <g id="patch_1">
   <path d="M 0 345.6 
L 460.8 345.6 
L 460.8 0 
L 0 0 
z
" style="fill:#ffffff;"/>
  </g>
  <g id="axes_1">
   <g id="patch_2">
    <path d="M 92.16 276.48 
L 437.76 276.48 
L 437.76 27.648 
L 92.16 27.648 
z
" style="fill:#ffffff;"/>
   </g>
   <g id="matplotlib.axis_1">
    <g id="xtick_1">
     <g id="line2d_1">
      <defs>
       <path d="M 0 0 
L 0 3.5 
" id="m52a3724c8f" style="stroke:#262626;stroke-width:0.8;"/>
      </defs>
      <g>
       <use style="fill:#262626;stroke:#262626;stroke-width:0.8;" x="112.896" xlink:href="#m52a3724c8f" y="276.48"/>
      </g>
     </g>
     <g id="text_1">
      <text style="fill:#262626;font-family:DejaVu Sans;font-size:20px;font-style:normal;font-weight:normal;text-anchor:middle;" transform="rotate(-0, 112.896, 298.676875)" x="112.896" y="298.676875">0</text>
     </g>
    </g>
    <g id="xtick_2">
     <g id="line2d_2">
      <g>
       <use style="fill:#262626;stroke:#262626;stroke-width:0.8;" x="182.016" xlink:href="#m52a3724c8f" y="276.48"/>
      </g>
     </g>
     <g id="text_2">
      <text style="fill:#262626;font-family:DejaVu Sans;font-size:20px;font-style:normal;font-weight:normal;text-anchor:middle;" transform="rotate(-0, 182.016, 298.676875)" x="182.016" y="298.676875">5</text>
     </g>
    </g>
    <g id="xtick_3">
     <g id="line2d_3">
      <g>
       <use style="fill:#262626;stroke:#262626;stroke-width:0.8;" x="251.136" xlink:href="#m52a3724c8f" y="276.48"/>
      </g>
     </g>
     <g id="text_3">
      <text style="fill:#262626;font-family:DejaVu Sans;font-size:20px;font-style:normal;font-weight:normal;text-anchor:middle;" transform="rotate(-0, 251.136, 298.676875)" x="251.136" y="298.676875">10</text>
     </g>
    </g>
    <g id="xtick_4">
     <g id="line2d_4">
      <g>
       <use style="fill:#262626;stroke:#262626;stroke-width:0.8;" x="320.256" xlink:href="#m52a3724c8f" y="276.48"/>
      </g>
     </g>
     <g id="text_4">
      <text style="fill:#262626;font-family:DejaVu Sans;font-size:20px;font-style:normal;font-weight:normal;text-anchor:middle;" transform="rotate(-0, 320.256, 298.676875)" x="320.256" y="298.676875">15</text>
     </g>
    </g>
    <g id="xtick_5">
     <g id="line2d_5">
      <g>
       <use style="fill:#262626;stroke:#262626;stroke-width:0.8;" x="389.376" xlink:href="#m52a3724c8f" y="276.48"/>
      </g>
     </g>
     <g id="text_5">
      <text style="fill:#262626;font-family:DejaVu Sans;font-size:20px;font-style:normal;font-weight:normal;text-anchor:middle;" transform="rotate(-0, 389.376, 298.676875)" x="389.376" y="298.676875">20</text>
     </g>
    </g>
    <g id="text_6">
     <text style="fill:#262626;font-family:DejaVu Sans;font-size:20px;font-style:normal;font-weight:normal;text-anchor:middle;" transform="rotate(-0, 264.96, 322.033125)" x="264.96" y="322.033125">inferred - true</text>
    </g>
   </g>
   <g id="matplotlib.axis_2">
    <g id="ytick_1">
     <g id="line2d_6">
      <defs>
       <path d="M 0 0 
L -3.5 0 
" id="m0d809ea109" style="stroke:#262626;stroke-width:0.8;"/>
      </defs>
      <g>
       <use style="fill:#262626;stroke:#262626;stroke-width:0.8;" x="92.16" xlink:href="#m0d809ea109" y="270.153763"/>
      </g>
     </g>
     <g id="text_7">
      <text style="fill:#262626;font-family:DejaVu Sans;font-size:20px;font-style:normal;font-weight:normal;text-anchor:end;" transform="rotate(-0, 85.16, 277.7522)" x="85.16" y="277.7522">0</text>
     </g>
    </g>
    <g id="ytick_2">
     <g id="line2d_7">
      <g>
       <use style="fill:#262626;stroke:#262626;stroke-width:0.8;" x="92.16" xlink:href="#m0d809ea109" y="197.713166"/>
      </g>
     </g>
     <g id="text_8">
      <text style="fill:#262626;font-family:DejaVu Sans;font-size:20px;font-style:normal;font-weight:normal;text-anchor:end;" transform="rotate(-0, 85.16, 205.311604)" x="85.16" y="205.311604">1000</text>
     </g>
    </g>
    <g id="ytick_3">
     <g id="line2d_8">
      <g>
       <use style="fill:#262626;stroke:#262626;stroke-width:0.8;" x="92.16" xlink:href="#m0d809ea109" y="125.27257"/>
      </g>
     </g>
     <g id="text_9">
      <text style="fill:#262626;font-family:DejaVu Sans;font-size:20px;font-style:normal;font-weight:normal;text-anchor:end;" transform="rotate(-0, 85.16, 132.871007)" x="85.16" y="132.871007">2000</text>
     </g>
    </g>
    <g id="ytick_4">
     <g id="line2d_9">
      <g>
       <use style="fill:#262626;stroke:#262626;stroke-width:0.8;" x="92.16" xlink:href="#m0d809ea109" y="52.831973"/>
      </g>
     </g>
     <g id="text_10">
      <text style="fill:#262626;font-family:DejaVu Sans;font-size:20px;font-style:normal;font-weight:normal;text-anchor:end;" transform="rotate(-0, 85.16, 60.430411)" x="85.16" y="60.430411">3000</text>
     </g>
    </g>
    <g id="text_11">
     <text style="fill:#262626;font-family:DejaVu Sans;font-size:20px;font-style:normal;font-weight:normal;text-anchor:middle;" transform="rotate(-90, 26.100625, 152.064)" x="26.100625" y="152.064">counts</text>
    </g>
   </g>
   <g id="line2d_10">
    <path clip-path="url(#pfe8935d92a)" d="M 99.072 269.646679 
L 112.896 59.279186 
L 126.72 267.40102 
L 140.544 268.197867 
L 154.368 270.008882 
L 168.192 269.79156 
L 182.016 270.081322 
L 195.84 269.79156 
L 209.664 270.153763 
L 223.488 270.081322 
L 237.312 270.153763 
L 251.136 270.081322 
L 264.96 270.153763 
L 278.784 270.153763 
L 292.608 270.153763 
L 306.432 270.081322 
L 320.256 270.153763 
L 334.08 270.153763 
L 347.904 270.153763 
L 361.728 270.153763 
L 375.552 270.153763 
L 389.376 270.153763 
L 403.2 270.153763 
L 417.024 270.153763 
L 430.848 270.081322 
" style="fill:none;stroke:#4169e1;stroke-linecap:round;stroke-width:3;"/>
    <defs>
     <path d="M 0 3.25 
C 0.86191 3.25 1.688635 2.907559 2.298097 2.298097 
C 2.907559 1.688635 3.25 0.86191 3.25 0 
C 3.25 -0.86191 2.907559 -1.688635 2.298097 -2.298097 
C 1.688635 -2.907559 0.86191 -3.25 0 -3.25 
C -0.86191 -3.25 -1.688635 -2.907559 -2.298097 -2.298097 
C -2.907559 -1.688635 -3.25 -0.86191 -3.25 0 
C -3.25 0.86191 -2.907559 1.688635 -2.298097 2.298097 
C -1.688635 2.907559 -0.86191 3.25 0 3.25 
z
" id="m49505af5fd" style="stroke:#4169e1;"/>
    </defs>
    <g clip-path="url(#pfe8935d92a)">
     <use style="fill:#4169e1;stroke:#4169e1;" x="99.072" xlink:href="#m49505af5fd" y="269.646679"/>
     <use style="fill:#4169e1;stroke:#4169e1;" x="112.896" xlink:href="#m49505af5fd" y="59.279186"/>
     <use style="fill:#4169e1;stroke:#4169e1;" x="126.72" xlink:href="#m49505af5fd" y="267.40102"/>
     <use style="fill:#4169e1;stroke:#4169e1;" x="140.544" xlink:href="#m49505af5fd" y="268.197867"/>
     <use style="fill:#4169e1;stroke:#4169e1;" x="154.368" xlink:href="#m49505af5fd" y="270.008882"/>
     <use style="fill:#4169e1;stroke:#4169e1;" x="168.192" xlink:href="#m49505af5fd" y="269.79156"/>
     <use style="fill:#4169e1;stroke:#4169e1;" x="182.016" xlink:href="#m49505af5fd" y="270.081322"/>
     <use style="fill:#4169e1;stroke:#4169e1;" x="195.84" xlink:href="#m49505af5fd" y="269.79156"/>
     <use style="fill:#4169e1;stroke:#4169e1;" x="209.664" xlink:href="#m49505af5fd" y="270.153763"/>
     <use style="fill:#4169e1;stroke:#4169e1;" x="223.488" xlink:href="#m49505af5fd" y="270.081322"/>
     <use style="fill:#4169e1;stroke:#4169e1;" x="237.312" xlink:href="#m49505af5fd" y="270.153763"/>
     <use style="fill:#4169e1;stroke:#4169e1;" x="251.136" xlink:href="#m49505af5fd" y="270.081322"/>
     <use style="fill:#4169e1;stroke:#4169e1;" x="264.96" xlink:href="#m49505af5fd" y="270.153763"/>
     <use style="fill:#4169e1;stroke:#4169e1;" x="278.784" xlink:href="#m49505af5fd" y="270.153763"/>
     <use style="fill:#4169e1;stroke:#4169e1;" x="292.608" xlink:href="#m49505af5fd" y="270.153763"/>
     <use style="fill:#4169e1;stroke:#4169e1;" x="306.432" xlink:href="#m49505af5fd" y="270.081322"/>
     <use style="fill:#4169e1;stroke:#4169e1;" x="320.256" xlink:href="#m49505af5fd" y="270.153763"/>
     <use style="fill:#4169e1;stroke:#4169e1;" x="334.08" xlink:href="#m49505af5fd" y="270.153763"/>
     <use style="fill:#4169e1;stroke:#4169e1;" x="347.904" xlink:href="#m49505af5fd" y="270.153763"/>
     <use style="fill:#4169e1;stroke:#4169e1;" x="361.728" xlink:href="#m49505af5fd" y="270.153763"/>
     <use style="fill:#4169e1;stroke:#4169e1;" x="375.552" xlink:href="#m49505af5fd" y="270.153763"/>
     <use style="fill:#4169e1;stroke:#4169e1;" x="389.376" xlink:href="#m49505af5fd" y="270.153763"/>
     <use style="fill:#4169e1;stroke:#4169e1;" x="403.2" xlink:href="#m49505af5fd" y="270.153763"/>
     <use style="fill:#4169e1;stroke:#4169e1;" x="417.024" xlink:href="#m49505af5fd" y="270.153763"/>
     <use style="fill:#4169e1;stroke:#4169e1;" x="430.848" xlink:href="#m49505af5fd" y="270.081322"/>
    </g>
   </g>
   <g id="patch_3">
    <path d="M 92.16 276.48 
L 92.16 27.648 
" style="fill:none;stroke:#262626;stroke-linecap:square;stroke-linejoin:miter;stroke-width:0.8;"/>
   </g>
   <g id="patch_4">
    <path d="M 92.16 276.48 
L 437.76 276.48 
" style="fill:none;stroke:#262626;stroke-linecap:square;stroke-linejoin:miter;stroke-width:0.8;"/>
   </g>
   <g id="text_12">
    <text style="fill:#262626;font-family:DejaVu Sans;font-size:20px;font-style:normal;font-weight:bold;text-anchor:middle;" transform="rotate(-0, 264.96, 21.648)" x="264.96" y="21.648">D mutations</text>
   </g>
  </g>
 </g>
 <defs>
  <clipPath id="pfe8935d92a">
   <rect height="248.832" width="345.6" x="92.16" y="27.648"/>
  </clipPath>
 </defs>
</svg>
