<?xml version="1.0" encoding="utf-8" standalone="no"?>
<!DOCTYPE svg PUBLIC "-//W3C//DTD SVG 1.1//EN"
  "http://www.w3.org/Graphics/SVG/1.1/DTD/svg11.dtd">
<!-- Created with matplotlib (http://matplotlib.org/) -->
<svg height="345.6pt" version="1.1" viewBox="0 0 460.8 345.6" width="460.8pt" xmlns="http://www.w3.org/2000/svg" xmlns:xlink="http://www.w3.org/1999/xlink">
 <defs>
  <style type="text/css">
*{stroke-linecap:butt;stroke-linejoin:round;}
  </style>
 </defs>
 <g id="figure_1">
  <g id="patch_1">
   <path d="M 0 345.6 
L 460.8 345.6 
L 460.8 0 
L 0 0 
z
" style="fill:#ffffff;"/>
  </g>
  <g id="axes_1">
   <g id="patch_2">
    <path d="M 92.16 276.48 
L 437.76 276.48 
L 437.76 27.648 
L 92.16 27.648 
z
" style="fill:#ffffff;"/>
   </g>
   <g id="matplotlib.axis_1">
    <g id="xtick_1">
     <g id="line2d_1">
      <defs>
       <path d="M 0 0 
L 0 3.5 
" id="m67245ecaba" style="stroke:#262626;stroke-width:0.8;"/>
      </defs>
      <g>
       <use style="fill:#262626;stroke:#262626;stroke-width:0.8;" x="94.495135" xlink:href="#m67245ecaba" y="276.48"/>
      </g>
     </g>
     <g id="text_1">
      <text style="fill:#262626;font-family:DejaVu Sans;font-size:20px;font-style:normal;font-weight:normal;text-anchor:middle;" transform="rotate(-0, 94.495135, 298.676875)" x="94.495135" y="298.676875">0</text>
     </g>
    </g>
    <g id="xtick_2">
     <g id="line2d_2">
      <g>
       <use style="fill:#262626;stroke:#262626;stroke-width:0.8;" x="187.900541" xlink:href="#m67245ecaba" y="276.48"/>
      </g>
     </g>
     <g id="text_2">
      <text style="fill:#262626;font-family:DejaVu Sans;font-size:20px;font-style:normal;font-weight:normal;text-anchor:middle;" transform="rotate(-0, 187.900541, 298.676875)" x="187.900541" y="298.676875">20</text>
     </g>
    </g>
    <g id="xtick_3">
     <g id="line2d_3">
      <g>
       <use style="fill:#262626;stroke:#262626;stroke-width:0.8;" x="281.305946" xlink:href="#m67245ecaba" y="276.48"/>
      </g>
     </g>
     <g id="text_3">
      <text style="fill:#262626;font-family:DejaVu Sans;font-size:20px;font-style:normal;font-weight:normal;text-anchor:middle;" transform="rotate(-0, 281.305946, 298.676875)" x="281.305946" y="298.676875">40</text>
     </g>
    </g>
    <g id="xtick_4">
     <g id="line2d_4">
      <g>
       <use style="fill:#262626;stroke:#262626;stroke-width:0.8;" x="374.711351" xlink:href="#m67245ecaba" y="276.48"/>
      </g>
     </g>
     <g id="text_4">
      <text style="fill:#262626;font-family:DejaVu Sans;font-size:20px;font-style:normal;font-weight:normal;text-anchor:middle;" transform="rotate(-0, 374.711351, 298.676875)" x="374.711351" y="298.676875">60</text>
     </g>
    </g>
    <g id="text_5">
     <text style="fill:#262626;font-family:DejaVu Sans;font-size:20px;font-style:normal;font-weight:normal;text-anchor:middle;" transform="rotate(-0, 264.96, 322.033125)" x="264.96" y="322.033125">hamming distance</text>
    </g>
   </g>
   <g id="matplotlib.axis_2">
    <g id="ytick_1">
     <g id="line2d_5">
      <defs>
       <path d="M 0 0 
L -3.5 0 
" id="m6775e3e265" style="stroke:#262626;stroke-width:0.8;"/>
      </defs>
      <g>
       <use style="fill:#262626;stroke:#262626;stroke-width:0.8;" x="92.16" xlink:href="#m6775e3e265" y="270.153763"/>
      </g>
     </g>
     <g id="text_6">
      <text style="fill:#262626;font-family:DejaVu Sans;font-size:20px;font-style:normal;font-weight:normal;text-anchor:end;" transform="rotate(-0, 85.16, 277.7522)" x="85.16" y="277.7522">0</text>
     </g>
    </g>
    <g id="ytick_2">
     <g id="line2d_6">
      <g>
       <use style="fill:#262626;stroke:#262626;stroke-width:0.8;" x="92.16" xlink:href="#m6775e3e265" y="194.868302"/>
      </g>
     </g>
     <g id="text_7">
      <text style="fill:#262626;font-family:DejaVu Sans;font-size:20px;font-style:normal;font-weight:normal;text-anchor:end;" transform="rotate(-0, 85.16, 202.466739)" x="85.16" y="202.466739">1000</text>
     </g>
    </g>
    <g id="ytick_3">
     <g id="line2d_7">
      <g>
       <use style="fill:#262626;stroke:#262626;stroke-width:0.8;" x="92.16" xlink:href="#m6775e3e265" y="119.582841"/>
      </g>
     </g>
     <g id="text_8">
      <text style="fill:#262626;font-family:DejaVu Sans;font-size:20px;font-style:normal;font-weight:normal;text-anchor:end;" transform="rotate(-0, 85.16, 127.181278)" x="85.16" y="127.181278">2000</text>
     </g>
    </g>
    <g id="ytick_4">
     <g id="line2d_8">
      <g>
       <use style="fill:#262626;stroke:#262626;stroke-width:0.8;" x="92.16" xlink:href="#m6775e3e265" y="44.29738"/>
      </g>
     </g>
     <g id="text_9">
      <text style="fill:#262626;font-family:DejaVu Sans;font-size:20px;font-style:normal;font-weight:normal;text-anchor:end;" transform="rotate(-0, 85.16, 51.895817)" x="85.16" y="51.895817">3000</text>
     </g>
    </g>
    <g id="text_10">
     <text style="fill:#262626;font-family:DejaVu Sans;font-size:20px;font-style:normal;font-weight:normal;text-anchor:middle;" transform="rotate(-90, 26.100625, 152.064)" x="26.100625" y="152.064">counts</text>
    </g>
   </g>
   <g id="line2d_9">
    <path clip-path="url(#pcd22024d4d)" d="M 94.495135 59.279186 
L 99.165405 262.248789 
L 103.835676 268.723339 
L 108.505946 268.87391 
L 113.176216 269.852621 
L 117.846486 269.024481 
L 122.516757 270.003192 
L 127.187027 268.497483 
L 131.857297 269.927906 
L 136.527568 270.078477 
L 141.197838 270.078477 
L 145.868108 270.003192 
L 150.538378 270.153763 
L 155.208649 270.153763 
L 159.878919 270.078477 
L 164.549189 270.153763 
L 169.219459 270.153763 
L 173.88973 270.153763 
L 178.56 270.003192 
L 183.23027 270.153763 
L 187.900541 270.078477 
L 192.570811 270.078477 
L 197.241081 270.153763 
L 201.911351 270.153763 
L 206.581622 270.153763 
L 211.251892 270.153763 
L 215.922162 270.153763 
L 220.592432 270.153763 
L 225.262703 270.153763 
L 229.932973 270.153763 
L 234.603243 270.153763 
L 239.273514 270.153763 
L 243.943784 270.153763 
L 248.614054 270.153763 
L 253.284324 270.153763 
L 257.954595 270.153763 
L 262.624865 270.153763 
L 267.295135 270.153763 
L 271.965405 270.153763 
L 276.635676 270.153763 
L 281.305946 270.078477 
L 285.976216 270.153763 
L 290.646486 270.153763 
L 295.316757 270.153763 
L 299.987027 270.153763 
L 304.657297 270.153763 
L 309.327568 270.153763 
L 313.997838 270.153763 
L 318.668108 270.153763 
L 323.338378 270.153763 
L 328.008649 270.153763 
L 332.678919 270.153763 
L 337.349189 270.153763 
L 342.019459 270.153763 
L 346.68973 270.153763 
L 351.36 270.153763 
L 356.03027 270.153763 
L 360.700541 270.153763 
L 365.370811 270.153763 
L 370.041081 270.153763 
L 374.711351 270.153763 
L 379.381622 270.153763 
L 384.051892 270.153763 
L 388.722162 270.153763 
L 393.392432 270.153763 
L 398.062703 270.153763 
L 402.732973 270.153763 
L 407.403243 270.153763 
L 412.073514 270.153763 
L 416.743784 270.078477 
L 421.414054 270.153763 
L 426.084324 270.153763 
L 430.754595 270.153763 
L 435.424865 270.078477 
" style="fill:none;stroke:#4169e1;stroke-linecap:round;stroke-width:3;"/>
    <defs>
     <path d="M 0 3.25 
C 0.86191 3.25 1.688635 2.907559 2.298097 2.298097 
C 2.907559 1.688635 3.25 0.86191 3.25 0 
C 3.25 -0.86191 2.907559 -1.688635 2.298097 -2.298097 
C 1.688635 -2.907559 0.86191 -3.25 0 -3.25 
C -0.86191 -3.25 -1.688635 -2.907559 -2.298097 -2.298097 
C -2.907559 -1.688635 -3.25 -0.86191 -3.25 0 
C -3.25 0.86191 -2.907559 1.688635 -2.298097 2.298097 
C -1.688635 2.907559 -0.86191 3.25 0 3.25 
z
" id="m1282de7921" style="stroke:#4169e1;"/>
    </defs>
    <g clip-path="url(#pcd22024d4d)">
     <use style="fill:#4169e1;stroke:#4169e1;" x="94.495135" xlink:href="#m1282de7921" y="59.279186"/>
     <use style="fill:#4169e1;stroke:#4169e1;" x="99.165405" xlink:href="#m1282de7921" y="262.248789"/>
     <use style="fill:#4169e1;stroke:#4169e1;" x="103.835676" xlink:href="#m1282de7921" y="268.723339"/>
     <use style="fill:#4169e1;stroke:#4169e1;" x="108.505946" xlink:href="#m1282de7921" y="268.87391"/>
     <use style="fill:#4169e1;stroke:#4169e1;" x="113.176216" xlink:href="#m1282de7921" y="269.852621"/>
     <use style="fill:#4169e1;stroke:#4169e1;" x="117.846486" xlink:href="#m1282de7921" y="269.024481"/>
     <use style="fill:#4169e1;stroke:#4169e1;" x="122.516757" xlink:href="#m1282de7921" y="270.003192"/>
     <use style="fill:#4169e1;stroke:#4169e1;" x="127.187027" xlink:href="#m1282de7921" y="268.497483"/>
     <use style="fill:#4169e1;stroke:#4169e1;" x="131.857297" xlink:href="#m1282de7921" y="269.927906"/>
     <use style="fill:#4169e1;stroke:#4169e1;" x="136.527568" xlink:href="#m1282de7921" y="270.078477"/>
     <use style="fill:#4169e1;stroke:#4169e1;" x="141.197838" xlink:href="#m1282de7921" y="270.078477"/>
     <use style="fill:#4169e1;stroke:#4169e1;" x="145.868108" xlink:href="#m1282de7921" y="270.003192"/>
     <use style="fill:#4169e1;stroke:#4169e1;" x="150.538378" xlink:href="#m1282de7921" y="270.153763"/>
     <use style="fill:#4169e1;stroke:#4169e1;" x="155.208649" xlink:href="#m1282de7921" y="270.153763"/>
     <use style="fill:#4169e1;stroke:#4169e1;" x="159.878919" xlink:href="#m1282de7921" y="270.078477"/>
     <use style="fill:#4169e1;stroke:#4169e1;" x="164.549189" xlink:href="#m1282de7921" y="270.153763"/>
     <use style="fill:#4169e1;stroke:#4169e1;" x="169.219459" xlink:href="#m1282de7921" y="270.153763"/>
     <use style="fill:#4169e1;stroke:#4169e1;" x="173.88973" xlink:href="#m1282de7921" y="270.153763"/>
     <use style="fill:#4169e1;stroke:#4169e1;" x="178.56" xlink:href="#m1282de7921" y="270.003192"/>
     <use style="fill:#4169e1;stroke:#4169e1;" x="183.23027" xlink:href="#m1282de7921" y="270.153763"/>
     <use style="fill:#4169e1;stroke:#4169e1;" x="187.900541" xlink:href="#m1282de7921" y="270.078477"/>
     <use style="fill:#4169e1;stroke:#4169e1;" x="192.570811" xlink:href="#m1282de7921" y="270.078477"/>
     <use style="fill:#4169e1;stroke:#4169e1;" x="197.241081" xlink:href="#m1282de7921" y="270.153763"/>
     <use style="fill:#4169e1;stroke:#4169e1;" x="201.911351" xlink:href="#m1282de7921" y="270.153763"/>
     <use style="fill:#4169e1;stroke:#4169e1;" x="206.581622" xlink:href="#m1282de7921" y="270.153763"/>
     <use style="fill:#4169e1;stroke:#4169e1;" x="211.251892" xlink:href="#m1282de7921" y="270.153763"/>
     <use style="fill:#4169e1;stroke:#4169e1;" x="215.922162" xlink:href="#m1282de7921" y="270.153763"/>
     <use style="fill:#4169e1;stroke:#4169e1;" x="220.592432" xlink:href="#m1282de7921" y="270.153763"/>
     <use style="fill:#4169e1;stroke:#4169e1;" x="225.262703" xlink:href="#m1282de7921" y="270.153763"/>
     <use style="fill:#4169e1;stroke:#4169e1;" x="229.932973" xlink:href="#m1282de7921" y="270.153763"/>
     <use style="fill:#4169e1;stroke:#4169e1;" x="234.603243" xlink:href="#m1282de7921" y="270.153763"/>
     <use style="fill:#4169e1;stroke:#4169e1;" x="239.273514" xlink:href="#m1282de7921" y="270.153763"/>
     <use style="fill:#4169e1;stroke:#4169e1;" x="243.943784" xlink:href="#m1282de7921" y="270.153763"/>
     <use style="fill:#4169e1;stroke:#4169e1;" x="248.614054" xlink:href="#m1282de7921" y="270.153763"/>
     <use style="fill:#4169e1;stroke:#4169e1;" x="253.284324" xlink:href="#m1282de7921" y="270.153763"/>
     <use style="fill:#4169e1;stroke:#4169e1;" x="257.954595" xlink:href="#m1282de7921" y="270.153763"/>
     <use style="fill:#4169e1;stroke:#4169e1;" x="262.624865" xlink:href="#m1282de7921" y="270.153763"/>
     <use style="fill:#4169e1;stroke:#4169e1;" x="267.295135" xlink:href="#m1282de7921" y="270.153763"/>
     <use style="fill:#4169e1;stroke:#4169e1;" x="271.965405" xlink:href="#m1282de7921" y="270.153763"/>
     <use style="fill:#4169e1;stroke:#4169e1;" x="276.635676" xlink:href="#m1282de7921" y="270.153763"/>
     <use style="fill:#4169e1;stroke:#4169e1;" x="281.305946" xlink:href="#m1282de7921" y="270.078477"/>
     <use style="fill:#4169e1;stroke:#4169e1;" x="285.976216" xlink:href="#m1282de7921" y="270.153763"/>
     <use style="fill:#4169e1;stroke:#4169e1;" x="290.646486" xlink:href="#m1282de7921" y="270.153763"/>
     <use style="fill:#4169e1;stroke:#4169e1;" x="295.316757" xlink:href="#m1282de7921" y="270.153763"/>
     <use style="fill:#4169e1;stroke:#4169e1;" x="299.987027" xlink:href="#m1282de7921" y="270.153763"/>
     <use style="fill:#4169e1;stroke:#4169e1;" x="304.657297" xlink:href="#m1282de7921" y="270.153763"/>
     <use style="fill:#4169e1;stroke:#4169e1;" x="309.327568" xlink:href="#m1282de7921" y="270.153763"/>
     <use style="fill:#4169e1;stroke:#4169e1;" x="313.997838" xlink:href="#m1282de7921" y="270.153763"/>
     <use style="fill:#4169e1;stroke:#4169e1;" x="318.668108" xlink:href="#m1282de7921" y="270.153763"/>
     <use style="fill:#4169e1;stroke:#4169e1;" x="323.338378" xlink:href="#m1282de7921" y="270.153763"/>
     <use style="fill:#4169e1;stroke:#4169e1;" x="328.008649" xlink:href="#m1282de7921" y="270.153763"/>
     <use style="fill:#4169e1;stroke:#4169e1;" x="332.678919" xlink:href="#m1282de7921" y="270.153763"/>
     <use style="fill:#4169e1;stroke:#4169e1;" x="337.349189" xlink:href="#m1282de7921" y="270.153763"/>
     <use style="fill:#4169e1;stroke:#4169e1;" x="342.019459" xlink:href="#m1282de7921" y="270.153763"/>
     <use style="fill:#4169e1;stroke:#4169e1;" x="346.68973" xlink:href="#m1282de7921" y="270.153763"/>
     <use style="fill:#4169e1;stroke:#4169e1;" x="351.36" xlink:href="#m1282de7921" y="270.153763"/>
     <use style="fill:#4169e1;stroke:#4169e1;" x="356.03027" xlink:href="#m1282de7921" y="270.153763"/>
     <use style="fill:#4169e1;stroke:#4169e1;" x="360.700541" xlink:href="#m1282de7921" y="270.153763"/>
     <use style="fill:#4169e1;stroke:#4169e1;" x="365.370811" xlink:href="#m1282de7921" y="270.153763"/>
     <use style="fill:#4169e1;stroke:#4169e1;" x="370.041081" xlink:href="#m1282de7921" y="270.153763"/>
     <use style="fill:#4169e1;stroke:#4169e1;" x="374.711351" xlink:href="#m1282de7921" y="270.153763"/>
     <use style="fill:#4169e1;stroke:#4169e1;" x="379.381622" xlink:href="#m1282de7921" y="270.153763"/>
     <use style="fill:#4169e1;stroke:#4169e1;" x="384.051892" xlink:href="#m1282de7921" y="270.153763"/>
     <use style="fill:#4169e1;stroke:#4169e1;" x="388.722162" xlink:href="#m1282de7921" y="270.153763"/>
     <use style="fill:#4169e1;stroke:#4169e1;" x="393.392432" xlink:href="#m1282de7921" y="270.153763"/>
     <use style="fill:#4169e1;stroke:#4169e1;" x="398.062703" xlink:href="#m1282de7921" y="270.153763"/>
     <use style="fill:#4169e1;stroke:#4169e1;" x="402.732973" xlink:href="#m1282de7921" y="270.153763"/>
     <use style="fill:#4169e1;stroke:#4169e1;" x="407.403243" xlink:href="#m1282de7921" y="270.153763"/>
     <use style="fill:#4169e1;stroke:#4169e1;" x="412.073514" xlink:href="#m1282de7921" y="270.153763"/>
     <use style="fill:#4169e1;stroke:#4169e1;" x="416.743784" xlink:href="#m1282de7921" y="270.078477"/>
     <use style="fill:#4169e1;stroke:#4169e1;" x="421.414054" xlink:href="#m1282de7921" y="270.153763"/>
     <use style="fill:#4169e1;stroke:#4169e1;" x="426.084324" xlink:href="#m1282de7921" y="270.153763"/>
     <use style="fill:#4169e1;stroke:#4169e1;" x="430.754595" xlink:href="#m1282de7921" y="270.153763"/>
     <use style="fill:#4169e1;stroke:#4169e1;" x="435.424865" xlink:href="#m1282de7921" y="270.078477"/>
    </g>
   </g>
   <g id="patch_3">
    <path d="M 92.16 276.48 
L 92.16 27.648 
" style="fill:none;stroke:#262626;stroke-linecap:square;stroke-linejoin:miter;stroke-width:0.8;"/>
   </g>
   <g id="patch_4">
    <path d="M 92.16 276.48 
L 437.76 276.48 
" style="fill:none;stroke:#262626;stroke-linecap:square;stroke-linejoin:miter;stroke-width:0.8;"/>
   </g>
   <g id="text_11">
    <text style="fill:#262626;font-family:DejaVu Sans;font-size:15px;font-style:normal;font-weight:bold;text-anchor:middle;" transform="rotate(-0, 264.96, 21.648)" x="264.96" y="21.648">total distance to true naive</text>
   </g>
  </g>
 </g>
 <defs>
  <clipPath id="pcd22024d4d">
   <rect height="248.832" width="345.6" x="92.16" y="27.648"/>
  </clipPath>
 </defs>
</svg>
