<?xml version="1.0" encoding="utf-8" standalone="no"?>
<!DOCTYPE svg PUBLIC "-//W3C//DTD SVG 1.1//EN"
  "http://www.w3.org/Graphics/SVG/1.1/DTD/svg11.dtd">
<!-- Created with matplotlib (http://matplotlib.org/) -->
<svg height="345.6pt" version="1.1" viewBox="0 0 460.8 345.6" width="460.8pt" xmlns="http://www.w3.org/2000/svg" xmlns:xlink="http://www.w3.org/1999/xlink">
 <defs>
  <style type="text/css">
*{stroke-linecap:butt;stroke-linejoin:round;}
  </style>
 </defs>
 <g id="figure_1">
  <g id="patch_1">
   <path d="M 0 345.6 
L 460.8 345.6 
L 460.8 0 
L 0 0 
z
" style="fill:#ffffff;"/>
  </g>
  <g id="axes_1">
   <g id="patch_2">
    <path d="M 92.16 276.48 
L 437.76 276.48 
L 437.76 27.648 
L 92.16 27.648 
z
" style="fill:#ffffff;"/>
   </g>
   <g id="matplotlib.axis_1">
    <g id="xtick_1">
     <g id="line2d_1">
      <defs>
       <path d="M 0 0 
L 0 3.5 
" id="m1ebf93c187" style="stroke:#262626;stroke-width:0.8;"/>
      </defs>
      <g>
       <use style="fill:#262626;stroke:#262626;stroke-width:0.8;" x="96.274286" xlink:href="#m1ebf93c187" y="276.48"/>
      </g>
     </g>
     <g id="text_1">
      <text style="fill:#262626;font-family:DejaVu Sans;font-size:20px;font-style:normal;font-weight:normal;text-anchor:middle;" transform="rotate(-0, 96.274286, 298.676875)" x="96.274286" y="298.676875">0</text>
     </g>
    </g>
    <g id="xtick_2">
     <g id="line2d_2">
      <g>
       <use style="fill:#262626;stroke:#262626;stroke-width:0.8;" x="178.56" xlink:href="#m1ebf93c187" y="276.48"/>
      </g>
     </g>
     <g id="text_2">
      <text style="fill:#262626;font-family:DejaVu Sans;font-size:20px;font-style:normal;font-weight:normal;text-anchor:middle;" transform="rotate(-0, 178.56, 298.676875)" x="178.56" y="298.676875">10</text>
     </g>
    </g>
    <g id="xtick_3">
     <g id="line2d_3">
      <g>
       <use style="fill:#262626;stroke:#262626;stroke-width:0.8;" x="260.845714" xlink:href="#m1ebf93c187" y="276.48"/>
      </g>
     </g>
     <g id="text_3">
      <text style="fill:#262626;font-family:DejaVu Sans;font-size:20px;font-style:normal;font-weight:normal;text-anchor:middle;" transform="rotate(-0, 260.845714, 298.676875)" x="260.845714" y="298.676875">20</text>
     </g>
    </g>
    <g id="xtick_4">
     <g id="line2d_4">
      <g>
       <use style="fill:#262626;stroke:#262626;stroke-width:0.8;" x="343.131429" xlink:href="#m1ebf93c187" y="276.48"/>
      </g>
     </g>
     <g id="text_4">
      <text style="fill:#262626;font-family:DejaVu Sans;font-size:20px;font-style:normal;font-weight:normal;text-anchor:middle;" transform="rotate(-0, 343.131429, 298.676875)" x="343.131429" y="298.676875">30</text>
     </g>
    </g>
    <g id="xtick_5">
     <g id="line2d_5">
      <g>
       <use style="fill:#262626;stroke:#262626;stroke-width:0.8;" x="425.417143" xlink:href="#m1ebf93c187" y="276.48"/>
      </g>
     </g>
     <g id="text_5">
      <text style="fill:#262626;font-family:DejaVu Sans;font-size:20px;font-style:normal;font-weight:normal;text-anchor:middle;" transform="rotate(-0, 425.417143, 298.676875)" x="425.417143" y="298.676875">40</text>
     </g>
    </g>
    <g id="text_6">
     <text style="fill:#262626;font-family:DejaVu Sans;font-size:20px;font-style:normal;font-weight:normal;text-anchor:middle;" transform="rotate(-0, 264.96, 322.033125)" x="264.96" y="322.033125">hamming distance</text>
    </g>
   </g>
   <g id="matplotlib.axis_2">
    <g id="ytick_1">
     <g id="line2d_6">
      <defs>
       <path d="M 0 0 
L -3.5 0 
" id="m49c234791b" style="stroke:#262626;stroke-width:0.8;"/>
      </defs>
      <g>
       <use style="fill:#262626;stroke:#262626;stroke-width:0.8;" x="92.16" xlink:href="#m49c234791b" y="270.153763"/>
      </g>
     </g>
     <g id="text_7">
      <text style="fill:#262626;font-family:DejaVu Sans;font-size:20px;font-style:normal;font-weight:normal;text-anchor:end;" transform="rotate(-0, 85.16, 277.7522)" x="85.16" y="277.7522">0</text>
     </g>
    </g>
    <g id="ytick_2">
     <g id="line2d_7">
      <g>
       <use style="fill:#262626;stroke:#262626;stroke-width:0.8;" x="92.16" xlink:href="#m49c234791b" y="199.41422"/>
      </g>
     </g>
     <g id="text_8">
      <text style="fill:#262626;font-family:DejaVu Sans;font-size:20px;font-style:normal;font-weight:normal;text-anchor:end;" transform="rotate(-0, 85.16, 207.012658)" x="85.16" y="207.012658">1000</text>
     </g>
    </g>
    <g id="ytick_3">
     <g id="line2d_8">
      <g>
       <use style="fill:#262626;stroke:#262626;stroke-width:0.8;" x="92.16" xlink:href="#m49c234791b" y="128.674678"/>
      </g>
     </g>
     <g id="text_9">
      <text style="fill:#262626;font-family:DejaVu Sans;font-size:20px;font-style:normal;font-weight:normal;text-anchor:end;" transform="rotate(-0, 85.16, 136.273115)" x="85.16" y="136.273115">2000</text>
     </g>
    </g>
    <g id="ytick_4">
     <g id="line2d_9">
      <g>
       <use style="fill:#262626;stroke:#262626;stroke-width:0.8;" x="92.16" xlink:href="#m49c234791b" y="57.935135"/>
      </g>
     </g>
     <g id="text_10">
      <text style="fill:#262626;font-family:DejaVu Sans;font-size:20px;font-style:normal;font-weight:normal;text-anchor:end;" transform="rotate(-0, 85.16, 65.533573)" x="85.16" y="65.533573">3000</text>
     </g>
    </g>
    <g id="text_11">
     <text style="fill:#262626;font-family:DejaVu Sans;font-size:20px;font-style:normal;font-weight:normal;text-anchor:middle;" transform="rotate(-90, 26.100625, 152.064)" x="26.100625" y="152.064">counts</text>
    </g>
   </g>
   <g id="line2d_10">
    <path clip-path="url(#pdfa5577b05)" d="M 96.274286 59.279186 
L 104.502857 269.09267 
L 112.731429 270.153763 
L 120.96 270.083023 
L 129.188571 270.153763 
L 137.417143 270.083023 
L 145.645714 270.153763 
L 153.874286 270.153763 
L 162.102857 270.153763 
L 170.331429 270.153763 
L 178.56 270.153763 
L 186.788571 270.153763 
L 195.017143 270.153763 
L 203.245714 270.153763 
L 211.474286 270.153763 
L 219.702857 270.153763 
L 227.931429 270.153763 
L 236.16 270.153763 
L 244.388571 270.153763 
L 252.617143 270.153763 
L 260.845714 270.153763 
L 269.074286 270.153763 
L 277.302857 270.153763 
L 285.531429 270.153763 
L 293.76 270.153763 
L 301.988571 270.153763 
L 310.217143 270.153763 
L 318.445714 270.153763 
L 326.674286 270.153763 
L 334.902857 270.153763 
L 343.131429 270.153763 
L 351.36 270.153763 
L 359.588571 270.153763 
L 367.817143 270.083023 
L 376.045714 270.153763 
L 384.274286 270.153763 
L 392.502857 270.153763 
L 400.731429 270.153763 
L 408.96 270.153763 
L 417.188571 270.153763 
L 425.417143 270.153763 
L 433.645714 270.083023 
" style="fill:none;stroke:#4169e1;stroke-linecap:round;stroke-width:3;"/>
    <defs>
     <path d="M 0 3.25 
C 0.86191 3.25 1.688635 2.907559 2.298097 2.298097 
C 2.907559 1.688635 3.25 0.86191 3.25 0 
C 3.25 -0.86191 2.907559 -1.688635 2.298097 -2.298097 
C 1.688635 -2.907559 0.86191 -3.25 0 -3.25 
C -0.86191 -3.25 -1.688635 -2.907559 -2.298097 -2.298097 
C -2.907559 -1.688635 -3.25 -0.86191 -3.25 0 
C -3.25 0.86191 -2.907559 1.688635 -2.298097 2.298097 
C -1.688635 2.907559 -0.86191 3.25 0 3.25 
z
" id="m5f120bff4f" style="stroke:#4169e1;"/>
    </defs>
    <g clip-path="url(#pdfa5577b05)">
     <use style="fill:#4169e1;stroke:#4169e1;" x="96.274286" xlink:href="#m5f120bff4f" y="59.279186"/>
     <use style="fill:#4169e1;stroke:#4169e1;" x="104.502857" xlink:href="#m5f120bff4f" y="269.09267"/>
     <use style="fill:#4169e1;stroke:#4169e1;" x="112.731429" xlink:href="#m5f120bff4f" y="270.153763"/>
     <use style="fill:#4169e1;stroke:#4169e1;" x="120.96" xlink:href="#m5f120bff4f" y="270.083023"/>
     <use style="fill:#4169e1;stroke:#4169e1;" x="129.188571" xlink:href="#m5f120bff4f" y="270.153763"/>
     <use style="fill:#4169e1;stroke:#4169e1;" x="137.417143" xlink:href="#m5f120bff4f" y="270.083023"/>
     <use style="fill:#4169e1;stroke:#4169e1;" x="145.645714" xlink:href="#m5f120bff4f" y="270.153763"/>
     <use style="fill:#4169e1;stroke:#4169e1;" x="153.874286" xlink:href="#m5f120bff4f" y="270.153763"/>
     <use style="fill:#4169e1;stroke:#4169e1;" x="162.102857" xlink:href="#m5f120bff4f" y="270.153763"/>
     <use style="fill:#4169e1;stroke:#4169e1;" x="170.331429" xlink:href="#m5f120bff4f" y="270.153763"/>
     <use style="fill:#4169e1;stroke:#4169e1;" x="178.56" xlink:href="#m5f120bff4f" y="270.153763"/>
     <use style="fill:#4169e1;stroke:#4169e1;" x="186.788571" xlink:href="#m5f120bff4f" y="270.153763"/>
     <use style="fill:#4169e1;stroke:#4169e1;" x="195.017143" xlink:href="#m5f120bff4f" y="270.153763"/>
     <use style="fill:#4169e1;stroke:#4169e1;" x="203.245714" xlink:href="#m5f120bff4f" y="270.153763"/>
     <use style="fill:#4169e1;stroke:#4169e1;" x="211.474286" xlink:href="#m5f120bff4f" y="270.153763"/>
     <use style="fill:#4169e1;stroke:#4169e1;" x="219.702857" xlink:href="#m5f120bff4f" y="270.153763"/>
     <use style="fill:#4169e1;stroke:#4169e1;" x="227.931429" xlink:href="#m5f120bff4f" y="270.153763"/>
     <use style="fill:#4169e1;stroke:#4169e1;" x="236.16" xlink:href="#m5f120bff4f" y="270.153763"/>
     <use style="fill:#4169e1;stroke:#4169e1;" x="244.388571" xlink:href="#m5f120bff4f" y="270.153763"/>
     <use style="fill:#4169e1;stroke:#4169e1;" x="252.617143" xlink:href="#m5f120bff4f" y="270.153763"/>
     <use style="fill:#4169e1;stroke:#4169e1;" x="260.845714" xlink:href="#m5f120bff4f" y="270.153763"/>
     <use style="fill:#4169e1;stroke:#4169e1;" x="269.074286" xlink:href="#m5f120bff4f" y="270.153763"/>
     <use style="fill:#4169e1;stroke:#4169e1;" x="277.302857" xlink:href="#m5f120bff4f" y="270.153763"/>
     <use style="fill:#4169e1;stroke:#4169e1;" x="285.531429" xlink:href="#m5f120bff4f" y="270.153763"/>
     <use style="fill:#4169e1;stroke:#4169e1;" x="293.76" xlink:href="#m5f120bff4f" y="270.153763"/>
     <use style="fill:#4169e1;stroke:#4169e1;" x="301.988571" xlink:href="#m5f120bff4f" y="270.153763"/>
     <use style="fill:#4169e1;stroke:#4169e1;" x="310.217143" xlink:href="#m5f120bff4f" y="270.153763"/>
     <use style="fill:#4169e1;stroke:#4169e1;" x="318.445714" xlink:href="#m5f120bff4f" y="270.153763"/>
     <use style="fill:#4169e1;stroke:#4169e1;" x="326.674286" xlink:href="#m5f120bff4f" y="270.153763"/>
     <use style="fill:#4169e1;stroke:#4169e1;" x="334.902857" xlink:href="#m5f120bff4f" y="270.153763"/>
     <use style="fill:#4169e1;stroke:#4169e1;" x="343.131429" xlink:href="#m5f120bff4f" y="270.153763"/>
     <use style="fill:#4169e1;stroke:#4169e1;" x="351.36" xlink:href="#m5f120bff4f" y="270.153763"/>
     <use style="fill:#4169e1;stroke:#4169e1;" x="359.588571" xlink:href="#m5f120bff4f" y="270.153763"/>
     <use style="fill:#4169e1;stroke:#4169e1;" x="367.817143" xlink:href="#m5f120bff4f" y="270.083023"/>
     <use style="fill:#4169e1;stroke:#4169e1;" x="376.045714" xlink:href="#m5f120bff4f" y="270.153763"/>
     <use style="fill:#4169e1;stroke:#4169e1;" x="384.274286" xlink:href="#m5f120bff4f" y="270.153763"/>
     <use style="fill:#4169e1;stroke:#4169e1;" x="392.502857" xlink:href="#m5f120bff4f" y="270.153763"/>
     <use style="fill:#4169e1;stroke:#4169e1;" x="400.731429" xlink:href="#m5f120bff4f" y="270.153763"/>
     <use style="fill:#4169e1;stroke:#4169e1;" x="408.96" xlink:href="#m5f120bff4f" y="270.153763"/>
     <use style="fill:#4169e1;stroke:#4169e1;" x="417.188571" xlink:href="#m5f120bff4f" y="270.153763"/>
     <use style="fill:#4169e1;stroke:#4169e1;" x="425.417143" xlink:href="#m5f120bff4f" y="270.153763"/>
     <use style="fill:#4169e1;stroke:#4169e1;" x="433.645714" xlink:href="#m5f120bff4f" y="270.083023"/>
    </g>
   </g>
   <g id="patch_3">
    <path d="M 92.16 276.48 
L 92.16 27.648 
" style="fill:none;stroke:#262626;stroke-linecap:square;stroke-linejoin:miter;stroke-width:0.8;"/>
   </g>
   <g id="patch_4">
    <path d="M 92.16 276.48 
L 437.76 276.48 
" style="fill:none;stroke:#262626;stroke-linecap:square;stroke-linejoin:miter;stroke-width:0.8;"/>
   </g>
   <g id="text_12">
    <text style="fill:#262626;font-family:DejaVu Sans;font-size:20px;font-style:normal;font-weight:bold;text-anchor:middle;" transform="rotate(-0, 264.96, 21.648)" x="264.96" y="21.648">J distance to true naive</text>
   </g>
  </g>
 </g>
 <defs>
  <clipPath id="pdfa5577b05">
   <rect height="248.832" width="345.6" x="92.16" y="27.648"/>
  </clipPath>
 </defs>
</svg>
