<?xml version="1.0" encoding="utf-8" standalone="no"?>
<!DOCTYPE svg PUBLIC "-//W3C//DTD SVG 1.1//EN"
  "http://www.w3.org/Graphics/SVG/1.1/DTD/svg11.dtd">
<!-- Created with matplotlib (http://matplotlib.org/) -->
<svg height="345.6pt" version="1.1" viewBox="0 0 460.8 345.6" width="460.8pt" xmlns="http://www.w3.org/2000/svg" xmlns:xlink="http://www.w3.org/1999/xlink">
 <defs>
  <style type="text/css">
*{stroke-linecap:butt;stroke-linejoin:round;}
  </style>
 </defs>
 <g id="figure_1">
  <g id="patch_1">
   <path d="M 0 345.6 
L 460.8 345.6 
L 460.8 0 
L 0 0 
z
" style="fill:#ffffff;"/>
  </g>
  <g id="axes_1">
   <g id="patch_2">
    <path d="M 92.16 276.48 
L 437.76 276.48 
L 437.76 27.648 
L 92.16 27.648 
z
" style="fill:#ffffff;"/>
   </g>
   <g id="matplotlib.axis_1">
    <g id="xtick_1">
     <g id="line2d_1">
      <defs>
       <path d="M 0 0 
L 0 3.5 
" id="m09c92db210" style="stroke:#262626;stroke-width:0.8;"/>
      </defs>
      <g>
       <use style="fill:#262626;stroke:#262626;stroke-width:0.8;" x="149.76" xlink:href="#m09c92db210" y="276.48"/>
      </g>
     </g>
     <g id="text_1">
      <text style="fill:#262626;font-family:DejaVu Sans;font-size:20px;font-style:normal;font-weight:normal;text-anchor:middle;" transform="rotate(-0, 149.76, 298.676875)" x="149.76" y="298.676875">0</text>
     </g>
    </g>
    <g id="xtick_2">
     <g id="line2d_2">
      <g>
       <use style="fill:#262626;stroke:#262626;stroke-width:0.8;" x="264.96" xlink:href="#m09c92db210" y="276.48"/>
      </g>
     </g>
     <g id="text_2">
      <text style="fill:#262626;font-family:DejaVu Sans;font-size:20px;font-style:normal;font-weight:normal;text-anchor:middle;" transform="rotate(-0, 264.96, 298.676875)" x="264.96" y="298.676875">5</text>
     </g>
    </g>
    <g id="xtick_3">
     <g id="line2d_3">
      <g>
       <use style="fill:#262626;stroke:#262626;stroke-width:0.8;" x="380.16" xlink:href="#m09c92db210" y="276.48"/>
      </g>
     </g>
     <g id="text_3">
      <text style="fill:#262626;font-family:DejaVu Sans;font-size:20px;font-style:normal;font-weight:normal;text-anchor:middle;" transform="rotate(-0, 380.16, 298.676875)" x="380.16" y="298.676875">10</text>
     </g>
    </g>
    <g id="text_4">
     <text style="fill:#262626;font-family:DejaVu Sans;font-size:20px;font-style:normal;font-weight:normal;text-anchor:middle;" transform="rotate(-0, 264.96, 322.033125)" x="264.96" y="322.033125">inferred - true</text>
    </g>
   </g>
   <g id="matplotlib.axis_2">
    <g id="ytick_1">
     <g id="line2d_4">
      <defs>
       <path d="M 0 0 
L -3.5 0 
" id="md41e8d2e21" style="stroke:#262626;stroke-width:0.8;"/>
      </defs>
      <g>
       <use style="fill:#262626;stroke:#262626;stroke-width:0.8;" x="92.16" xlink:href="#md41e8d2e21" y="270.153763"/>
      </g>
     </g>
     <g id="text_5">
      <text style="fill:#262626;font-family:DejaVu Sans;font-size:20px;font-style:normal;font-weight:normal;text-anchor:end;" transform="rotate(-0, 85.16, 277.7522)" x="85.16" y="277.7522">0</text>
     </g>
    </g>
    <g id="ytick_2">
     <g id="line2d_5">
      <g>
       <use style="fill:#262626;stroke:#262626;stroke-width:0.8;" x="92.16" xlink:href="#md41e8d2e21" y="197.212021"/>
      </g>
     </g>
     <g id="text_6">
      <text style="fill:#262626;font-family:DejaVu Sans;font-size:20px;font-style:normal;font-weight:normal;text-anchor:end;" transform="rotate(-0, 85.16, 204.810458)" x="85.16" y="204.810458">1000</text>
     </g>
    </g>
    <g id="ytick_3">
     <g id="line2d_6">
      <g>
       <use style="fill:#262626;stroke:#262626;stroke-width:0.8;" x="92.16" xlink:href="#md41e8d2e21" y="124.270279"/>
      </g>
     </g>
     <g id="text_7">
      <text style="fill:#262626;font-family:DejaVu Sans;font-size:20px;font-style:normal;font-weight:normal;text-anchor:end;" transform="rotate(-0, 85.16, 131.868716)" x="85.16" y="131.868716">2000</text>
     </g>
    </g>
    <g id="ytick_4">
     <g id="line2d_7">
      <g>
       <use style="fill:#262626;stroke:#262626;stroke-width:0.8;" x="92.16" xlink:href="#md41e8d2e21" y="51.328537"/>
      </g>
     </g>
     <g id="text_8">
      <text style="fill:#262626;font-family:DejaVu Sans;font-size:20px;font-style:normal;font-weight:normal;text-anchor:end;" transform="rotate(-0, 85.16, 58.926974)" x="85.16" y="58.926974">3000</text>
     </g>
    </g>
    <g id="text_9">
     <text style="fill:#262626;font-family:DejaVu Sans;font-size:20px;font-style:normal;font-weight:normal;text-anchor:middle;" transform="rotate(-90, 26.100625, 152.064)" x="26.100625" y="152.064">counts</text>
    </g>
   </g>
   <g id="line2d_8">
    <path clip-path="url(#p13bd1f95ce)" d="M 103.68 270.007879 
L 126.72 269.570229 
L 149.76 59.279186 
L 172.8 263.661948 
L 195.84 269.716112 
L 218.88 270.080821 
L 241.92 270.080821 
L 264.96 270.153763 
L 288 270.153763 
L 311.04 270.153763 
L 334.08 270.080821 
L 357.12 270.153763 
L 380.16 270.153763 
L 403.2 270.153763 
L 426.24 270.080821 
" style="fill:none;stroke:#4169e1;stroke-linecap:round;stroke-width:3;"/>
    <defs>
     <path d="M 0 3.25 
C 0.86191 3.25 1.688635 2.907559 2.298097 2.298097 
C 2.907559 1.688635 3.25 0.86191 3.25 0 
C 3.25 -0.86191 2.907559 -1.688635 2.298097 -2.298097 
C 1.688635 -2.907559 0.86191 -3.25 0 -3.25 
C -0.86191 -3.25 -1.688635 -2.907559 -2.298097 -2.298097 
C -2.907559 -1.688635 -3.25 -0.86191 -3.25 0 
C -3.25 0.86191 -2.907559 1.688635 -2.298097 2.298097 
C -1.688635 2.907559 -0.86191 3.25 0 3.25 
z
" id="mb01c8e31fc" style="stroke:#4169e1;"/>
    </defs>
    <g clip-path="url(#p13bd1f95ce)">
     <use style="fill:#4169e1;stroke:#4169e1;" x="103.68" xlink:href="#mb01c8e31fc" y="270.007879"/>
     <use style="fill:#4169e1;stroke:#4169e1;" x="126.72" xlink:href="#mb01c8e31fc" y="269.570229"/>
     <use style="fill:#4169e1;stroke:#4169e1;" x="149.76" xlink:href="#mb01c8e31fc" y="59.279186"/>
     <use style="fill:#4169e1;stroke:#4169e1;" x="172.8" xlink:href="#mb01c8e31fc" y="263.661948"/>
     <use style="fill:#4169e1;stroke:#4169e1;" x="195.84" xlink:href="#mb01c8e31fc" y="269.716112"/>
     <use style="fill:#4169e1;stroke:#4169e1;" x="218.88" xlink:href="#mb01c8e31fc" y="270.080821"/>
     <use style="fill:#4169e1;stroke:#4169e1;" x="241.92" xlink:href="#mb01c8e31fc" y="270.080821"/>
     <use style="fill:#4169e1;stroke:#4169e1;" x="264.96" xlink:href="#mb01c8e31fc" y="270.153763"/>
     <use style="fill:#4169e1;stroke:#4169e1;" x="288" xlink:href="#mb01c8e31fc" y="270.153763"/>
     <use style="fill:#4169e1;stroke:#4169e1;" x="311.04" xlink:href="#mb01c8e31fc" y="270.153763"/>
     <use style="fill:#4169e1;stroke:#4169e1;" x="334.08" xlink:href="#mb01c8e31fc" y="270.080821"/>
     <use style="fill:#4169e1;stroke:#4169e1;" x="357.12" xlink:href="#mb01c8e31fc" y="270.153763"/>
     <use style="fill:#4169e1;stroke:#4169e1;" x="380.16" xlink:href="#mb01c8e31fc" y="270.153763"/>
     <use style="fill:#4169e1;stroke:#4169e1;" x="403.2" xlink:href="#mb01c8e31fc" y="270.153763"/>
     <use style="fill:#4169e1;stroke:#4169e1;" x="426.24" xlink:href="#mb01c8e31fc" y="270.080821"/>
    </g>
   </g>
   <g id="patch_3">
    <path d="M 92.16 276.48 
L 92.16 27.648 
" style="fill:none;stroke:#262626;stroke-linecap:square;stroke-linejoin:miter;stroke-width:0.8;"/>
   </g>
   <g id="patch_4">
    <path d="M 92.16 276.48 
L 437.76 276.48 
" style="fill:none;stroke:#262626;stroke-linecap:square;stroke-linejoin:miter;stroke-width:0.8;"/>
   </g>
   <g id="text_10">
    <text style="fill:#262626;font-family:DejaVu Sans;font-size:20px;font-style:normal;font-weight:bold;text-anchor:middle;" transform="rotate(-0, 264.96, 21.648)" x="264.96" y="21.648">J mutations</text>
   </g>
  </g>
 </g>
 <defs>
  <clipPath id="p13bd1f95ce">
   <rect height="248.832" width="345.6" x="92.16" y="27.648"/>
  </clipPath>
 </defs>
</svg>
