<?xml version="1.0" encoding="utf-8" standalone="no"?>
<!DOCTYPE svg PUBLIC "-//W3C//DTD SVG 1.1//EN"
  "http://www.w3.org/Graphics/SVG/1.1/DTD/svg11.dtd">
<!-- Created with matplotlib (http://matplotlib.org/) -->
<svg height="345.6pt" version="1.1" viewBox="0 0 460.8 345.6" width="460.8pt" xmlns="http://www.w3.org/2000/svg" xmlns:xlink="http://www.w3.org/1999/xlink">
 <defs>
  <style type="text/css">
*{stroke-linecap:butt;stroke-linejoin:round;}
  </style>
 </defs>
 <g id="figure_1">
  <g id="patch_1">
   <path d="M 0 345.6 
L 460.8 345.6 
L 460.8 0 
L 0 0 
z
" style="fill:#ffffff;"/>
  </g>
  <g id="axes_1">
   <g id="patch_2">
    <path d="M 92.16 276.48 
L 437.76 276.48 
L 437.76 27.648 
L 92.16 27.648 
z
" style="fill:#ffffff;"/>
   </g>
   <g id="matplotlib.axis_1">
    <g id="xtick_1">
     <g id="line2d_1">
      <defs>
       <path d="M 0 0 
L 0 3.5 
" id="m077b922598" style="stroke:#262626;stroke-width:0.8;"/>
      </defs>
      <g>
       <use style="fill:#262626;stroke:#262626;stroke-width:0.8;" x="92.16" xlink:href="#m077b922598" y="276.48"/>
      </g>
     </g>
     <g id="text_1">
      <text style="fill:#262626;font-family:DejaVu Sans;font-size:20px;font-style:normal;font-weight:normal;text-anchor:middle;" transform="rotate(-0, 92.16, 298.676875)" x="92.16" y="298.676875">−0.04</text>
     </g>
    </g>
    <g id="xtick_2">
     <g id="line2d_2">
      <g>
       <use style="fill:#262626;stroke:#262626;stroke-width:0.8;" x="178.56" xlink:href="#m077b922598" y="276.48"/>
      </g>
     </g>
     <g id="text_2">
      <text style="fill:#262626;font-family:DejaVu Sans;font-size:20px;font-style:normal;font-weight:normal;text-anchor:middle;" transform="rotate(-0, 178.56, 298.676875)" x="178.56" y="298.676875">−0.02</text>
     </g>
    </g>
    <g id="xtick_3">
     <g id="line2d_3">
      <g>
       <use style="fill:#262626;stroke:#262626;stroke-width:0.8;" x="264.96" xlink:href="#m077b922598" y="276.48"/>
      </g>
     </g>
     <g id="text_3">
      <text style="fill:#262626;font-family:DejaVu Sans;font-size:20px;font-style:normal;font-weight:normal;text-anchor:middle;" transform="rotate(-0, 264.96, 298.676875)" x="264.96" y="298.676875">0.00</text>
     </g>
    </g>
    <g id="xtick_4">
     <g id="line2d_4">
      <g>
       <use style="fill:#262626;stroke:#262626;stroke-width:0.8;" x="351.36" xlink:href="#m077b922598" y="276.48"/>
      </g>
     </g>
     <g id="text_4">
      <text style="fill:#262626;font-family:DejaVu Sans;font-size:20px;font-style:normal;font-weight:normal;text-anchor:middle;" transform="rotate(-0, 351.36, 298.676875)" x="351.36" y="298.676875">0.02</text>
     </g>
    </g>
    <g id="xtick_5">
     <g id="line2d_5">
      <g>
       <use style="fill:#262626;stroke:#262626;stroke-width:0.8;" x="437.76" xlink:href="#m077b922598" y="276.48"/>
      </g>
     </g>
     <g id="text_5">
      <text style="fill:#262626;font-family:DejaVu Sans;font-size:20px;font-style:normal;font-weight:normal;text-anchor:middle;" transform="rotate(-0, 437.76, 298.676875)" x="437.76" y="298.676875">0.04</text>
     </g>
    </g>
    <g id="text_6">
     <text style="fill:#262626;font-family:DejaVu Sans;font-size:20px;font-style:normal;font-weight:normal;text-anchor:middle;" transform="rotate(-0, 264.96, 322.033125)" x="264.96" y="322.033125">inferred - true</text>
    </g>
   </g>
   <g id="matplotlib.axis_2">
    <g id="ytick_1">
     <g id="line2d_6">
      <defs>
       <path d="M 0 0 
L -3.5 0 
" id="mfbaee99120" style="stroke:#262626;stroke-width:0.8;"/>
      </defs>
      <g>
       <use style="fill:#262626;stroke:#262626;stroke-width:0.8;" x="92.16" xlink:href="#mfbaee99120" y="270.153763"/>
      </g>
     </g>
     <g id="text_7">
      <text style="fill:#262626;font-family:DejaVu Sans;font-size:20px;font-style:normal;font-weight:normal;text-anchor:end;" transform="rotate(-0, 85.16, 277.7522)" x="85.16" y="277.7522">0</text>
     </g>
    </g>
    <g id="ytick_2">
     <g id="line2d_7">
      <g>
       <use style="fill:#262626;stroke:#262626;stroke-width:0.8;" x="92.16" xlink:href="#mfbaee99120" y="195.002453"/>
      </g>
     </g>
     <g id="text_8">
      <text style="fill:#262626;font-family:DejaVu Sans;font-size:20px;font-style:normal;font-weight:normal;text-anchor:end;" transform="rotate(-0, 85.16, 202.60089)" x="85.16" y="202.60089">1000</text>
     </g>
    </g>
    <g id="ytick_3">
     <g id="line2d_8">
      <g>
       <use style="fill:#262626;stroke:#262626;stroke-width:0.8;" x="92.16" xlink:href="#mfbaee99120" y="119.851142"/>
      </g>
     </g>
     <g id="text_9">
      <text style="fill:#262626;font-family:DejaVu Sans;font-size:20px;font-style:normal;font-weight:normal;text-anchor:end;" transform="rotate(-0, 85.16, 127.44958)" x="85.16" y="127.44958">2000</text>
     </g>
    </g>
    <g id="ytick_4">
     <g id="line2d_9">
      <g>
       <use style="fill:#262626;stroke:#262626;stroke-width:0.8;" x="92.16" xlink:href="#mfbaee99120" y="44.699832"/>
      </g>
     </g>
     <g id="text_10">
      <text style="fill:#262626;font-family:DejaVu Sans;font-size:20px;font-style:normal;font-weight:normal;text-anchor:end;" transform="rotate(-0, 85.16, 52.29827)" x="85.16" y="52.29827">3000</text>
     </g>
    </g>
    <g id="text_11">
     <text style="fill:#262626;font-family:DejaVu Sans;font-size:20px;font-style:normal;font-weight:normal;text-anchor:middle;" transform="rotate(-90, 26.100625, 152.064)" x="26.100625" y="152.064">counts</text>
    </g>
   </g>
   <g id="line2d_10">
    <path clip-path="url(#p616f6d3ff6)" d="M 99.072 270.153763 
L 112.896 270.153763 
L 126.72 270.153763 
L 140.544 270.153763 
L 154.368 270.153763 
L 168.192 270.153763 
L 182.016 270.153763 
L 195.84 270.153763 
L 209.664 270.153763 
L 223.488 270.153763 
L 237.312 269.853157 
L 251.136 269.552552 
L 264.96 59.279186 
L 278.784 262.713783 
L 292.608 268.500434 
L 306.432 268.27498 
L 320.256 269.101644 
L 334.08 269.627704 
L 347.904 269.928309 
L 361.728 270.00346 
L 375.552 270.078611 
L 389.376 270.078611 
L 403.2 270.153763 
L 417.024 270.153763 
L 430.848 269.552552 
" style="fill:none;stroke:#4169e1;stroke-linecap:round;stroke-width:3;"/>
    <defs>
     <path d="M 0 3.25 
C 0.86191 3.25 1.688635 2.907559 2.298097 2.298097 
C 2.907559 1.688635 3.25 0.86191 3.25 0 
C 3.25 -0.86191 2.907559 -1.688635 2.298097 -2.298097 
C 1.688635 -2.907559 0.86191 -3.25 0 -3.25 
C -0.86191 -3.25 -1.688635 -2.907559 -2.298097 -2.298097 
C -2.907559 -1.688635 -3.25 -0.86191 -3.25 0 
C -3.25 0.86191 -2.907559 1.688635 -2.298097 2.298097 
C -1.688635 2.907559 -0.86191 3.25 0 3.25 
z
" id="mc6f78e35a8" style="stroke:#4169e1;"/>
    </defs>
    <g clip-path="url(#p616f6d3ff6)">
     <use style="fill:#4169e1;stroke:#4169e1;" x="99.072" xlink:href="#mc6f78e35a8" y="270.153763"/>
     <use style="fill:#4169e1;stroke:#4169e1;" x="112.896" xlink:href="#mc6f78e35a8" y="270.153763"/>
     <use style="fill:#4169e1;stroke:#4169e1;" x="126.72" xlink:href="#mc6f78e35a8" y="270.153763"/>
     <use style="fill:#4169e1;stroke:#4169e1;" x="140.544" xlink:href="#mc6f78e35a8" y="270.153763"/>
     <use style="fill:#4169e1;stroke:#4169e1;" x="154.368" xlink:href="#mc6f78e35a8" y="270.153763"/>
     <use style="fill:#4169e1;stroke:#4169e1;" x="168.192" xlink:href="#mc6f78e35a8" y="270.153763"/>
     <use style="fill:#4169e1;stroke:#4169e1;" x="182.016" xlink:href="#mc6f78e35a8" y="270.153763"/>
     <use style="fill:#4169e1;stroke:#4169e1;" x="195.84" xlink:href="#mc6f78e35a8" y="270.153763"/>
     <use style="fill:#4169e1;stroke:#4169e1;" x="209.664" xlink:href="#mc6f78e35a8" y="270.153763"/>
     <use style="fill:#4169e1;stroke:#4169e1;" x="223.488" xlink:href="#mc6f78e35a8" y="270.153763"/>
     <use style="fill:#4169e1;stroke:#4169e1;" x="237.312" xlink:href="#mc6f78e35a8" y="269.853157"/>
     <use style="fill:#4169e1;stroke:#4169e1;" x="251.136" xlink:href="#mc6f78e35a8" y="269.552552"/>
     <use style="fill:#4169e1;stroke:#4169e1;" x="264.96" xlink:href="#mc6f78e35a8" y="59.279186"/>
     <use style="fill:#4169e1;stroke:#4169e1;" x="278.784" xlink:href="#mc6f78e35a8" y="262.713783"/>
     <use style="fill:#4169e1;stroke:#4169e1;" x="292.608" xlink:href="#mc6f78e35a8" y="268.500434"/>
     <use style="fill:#4169e1;stroke:#4169e1;" x="306.432" xlink:href="#mc6f78e35a8" y="268.27498"/>
     <use style="fill:#4169e1;stroke:#4169e1;" x="320.256" xlink:href="#mc6f78e35a8" y="269.101644"/>
     <use style="fill:#4169e1;stroke:#4169e1;" x="334.08" xlink:href="#mc6f78e35a8" y="269.627704"/>
     <use style="fill:#4169e1;stroke:#4169e1;" x="347.904" xlink:href="#mc6f78e35a8" y="269.928309"/>
     <use style="fill:#4169e1;stroke:#4169e1;" x="361.728" xlink:href="#mc6f78e35a8" y="270.00346"/>
     <use style="fill:#4169e1;stroke:#4169e1;" x="375.552" xlink:href="#mc6f78e35a8" y="270.078611"/>
     <use style="fill:#4169e1;stroke:#4169e1;" x="389.376" xlink:href="#mc6f78e35a8" y="270.078611"/>
     <use style="fill:#4169e1;stroke:#4169e1;" x="403.2" xlink:href="#mc6f78e35a8" y="270.153763"/>
     <use style="fill:#4169e1;stroke:#4169e1;" x="417.024" xlink:href="#mc6f78e35a8" y="270.153763"/>
     <use style="fill:#4169e1;stroke:#4169e1;" x="430.848" xlink:href="#mc6f78e35a8" y="269.552552"/>
    </g>
   </g>
   <g id="patch_3">
    <path d="M 92.16 276.48 
L 92.16 27.648 
" style="fill:none;stroke:#262626;stroke-linecap:square;stroke-linejoin:miter;stroke-width:0.8;"/>
   </g>
   <g id="patch_4">
    <path d="M 92.16 276.48 
L 437.76 276.48 
" style="fill:none;stroke:#262626;stroke-linecap:square;stroke-linejoin:miter;stroke-width:0.8;"/>
   </g>
   <g id="text_12">
    <text style="fill:#262626;font-family:DejaVu Sans;font-size:20px;font-style:normal;font-weight:bold;text-anchor:middle;" transform="rotate(-0, 264.96, 21.648)" x="264.96" y="21.648">sequence mutation freq</text>
   </g>
  </g>
 </g>
 <defs>
  <clipPath id="p616f6d3ff6">
   <rect height="248.832" width="345.6" x="92.16" y="27.648"/>
  </clipPath>
 </defs>
</svg>
