<?xml version="1.0" encoding="utf-8" standalone="no"?>
<!DOCTYPE svg PUBLIC "-//W3C//DTD SVG 1.1//EN"
  "http://www.w3.org/Graphics/SVG/1.1/DTD/svg11.dtd">
<!-- Created with matplotlib (http://matplotlib.org/) -->
<svg height="345.6pt" version="1.1" viewBox="0 0 460.8 345.6" width="460.8pt" xmlns="http://www.w3.org/2000/svg" xmlns:xlink="http://www.w3.org/1999/xlink">
 <defs>
  <style type="text/css">
*{stroke-linecap:butt;stroke-linejoin:round;}
  </style>
 </defs>
 <g id="figure_1">
  <g id="patch_1">
   <path d="M 0 345.6 
L 460.8 345.6 
L 460.8 0 
L 0 0 
z
" style="fill:#ffffff;"/>
  </g>
  <g id="axes_1">
   <g id="patch_2">
    <path d="M 92.16 276.48 
L 437.76 276.48 
L 437.76 27.648 
L 92.16 27.648 
z
" style="fill:#ffffff;"/>
   </g>
   <g id="matplotlib.axis_1">
    <g id="xtick_1">
     <g id="line2d_1">
      <defs>
       <path d="M 0 0 
L 0 3.5 
" id="m39bda44fc4" style="stroke:#262626;stroke-width:0.8;"/>
      </defs>
      <g>
       <use style="fill:#262626;stroke:#262626;stroke-width:0.8;" x="99.673043" xlink:href="#m39bda44fc4" y="276.48"/>
      </g>
     </g>
     <g id="text_1">
      <text style="fill:#262626;font-family:DejaVu Sans;font-size:20px;font-style:normal;font-weight:normal;text-anchor:middle;" transform="rotate(-0, 99.673043, 298.676875)" x="99.673043" y="298.676875">0</text>
     </g>
    </g>
    <g id="xtick_2">
     <g id="line2d_2">
      <g>
       <use style="fill:#262626;stroke:#262626;stroke-width:0.8;" x="174.803478" xlink:href="#m39bda44fc4" y="276.48"/>
      </g>
     </g>
     <g id="text_2">
      <text style="fill:#262626;font-family:DejaVu Sans;font-size:20px;font-style:normal;font-weight:normal;text-anchor:middle;" transform="rotate(-0, 174.803478, 298.676875)" x="174.803478" y="298.676875">5</text>
     </g>
    </g>
    <g id="xtick_3">
     <g id="line2d_3">
      <g>
       <use style="fill:#262626;stroke:#262626;stroke-width:0.8;" x="249.933913" xlink:href="#m39bda44fc4" y="276.48"/>
      </g>
     </g>
     <g id="text_3">
      <text style="fill:#262626;font-family:DejaVu Sans;font-size:20px;font-style:normal;font-weight:normal;text-anchor:middle;" transform="rotate(-0, 249.933913, 298.676875)" x="249.933913" y="298.676875">10</text>
     </g>
    </g>
    <g id="xtick_4">
     <g id="line2d_4">
      <g>
       <use style="fill:#262626;stroke:#262626;stroke-width:0.8;" x="325.064348" xlink:href="#m39bda44fc4" y="276.48"/>
      </g>
     </g>
     <g id="text_4">
      <text style="fill:#262626;font-family:DejaVu Sans;font-size:20px;font-style:normal;font-weight:normal;text-anchor:middle;" transform="rotate(-0, 325.064348, 298.676875)" x="325.064348" y="298.676875">15</text>
     </g>
    </g>
    <g id="xtick_5">
     <g id="line2d_5">
      <g>
       <use style="fill:#262626;stroke:#262626;stroke-width:0.8;" x="400.194783" xlink:href="#m39bda44fc4" y="276.48"/>
      </g>
     </g>
     <g id="text_5">
      <text style="fill:#262626;font-family:DejaVu Sans;font-size:20px;font-style:normal;font-weight:normal;text-anchor:middle;" transform="rotate(-0, 400.194783, 298.676875)" x="400.194783" y="298.676875">20</text>
     </g>
    </g>
    <g id="text_6">
     <text style="fill:#262626;font-family:DejaVu Sans;font-size:20px;font-style:normal;font-weight:normal;text-anchor:middle;" transform="rotate(-0, 264.96, 322.033125)" x="264.96" y="322.033125">hamming distance</text>
    </g>
   </g>
   <g id="matplotlib.axis_2">
    <g id="ytick_1">
     <g id="line2d_6">
      <defs>
       <path d="M 0 0 
L -3.5 0 
" id="m2dba925ad1" style="stroke:#262626;stroke-width:0.8;"/>
      </defs>
      <g>
       <use style="fill:#262626;stroke:#262626;stroke-width:0.8;" x="92.16" xlink:href="#m2dba925ad1" y="270.153763"/>
      </g>
     </g>
     <g id="text_7">
      <text style="fill:#262626;font-family:DejaVu Sans;font-size:20px;font-style:normal;font-weight:normal;text-anchor:end;" transform="rotate(-0, 85.16, 277.7522)" x="85.16" y="277.7522">0</text>
     </g>
    </g>
    <g id="ytick_2">
     <g id="line2d_7">
      <g>
       <use style="fill:#262626;stroke:#262626;stroke-width:0.8;" x="92.16" xlink:href="#m2dba925ad1" y="198.08453"/>
      </g>
     </g>
     <g id="text_8">
      <text style="fill:#262626;font-family:DejaVu Sans;font-size:20px;font-style:normal;font-weight:normal;text-anchor:end;" transform="rotate(-0, 85.16, 205.682967)" x="85.16" y="205.682967">1000</text>
     </g>
    </g>
    <g id="ytick_3">
     <g id="line2d_8">
      <g>
       <use style="fill:#262626;stroke:#262626;stroke-width:0.8;" x="92.16" xlink:href="#m2dba925ad1" y="126.015296"/>
      </g>
     </g>
     <g id="text_9">
      <text style="fill:#262626;font-family:DejaVu Sans;font-size:20px;font-style:normal;font-weight:normal;text-anchor:end;" transform="rotate(-0, 85.16, 133.613734)" x="85.16" y="133.613734">2000</text>
     </g>
    </g>
    <g id="ytick_4">
     <g id="line2d_9">
      <g>
       <use style="fill:#262626;stroke:#262626;stroke-width:0.8;" x="92.16" xlink:href="#m2dba925ad1" y="53.946063"/>
      </g>
     </g>
     <g id="text_10">
      <text style="fill:#262626;font-family:DejaVu Sans;font-size:20px;font-style:normal;font-weight:normal;text-anchor:end;" transform="rotate(-0, 85.16, 61.544501)" x="85.16" y="61.544501">3000</text>
     </g>
    </g>
    <g id="text_11">
     <text style="fill:#262626;font-family:DejaVu Sans;font-size:20px;font-style:normal;font-weight:normal;text-anchor:middle;" transform="rotate(-90, 26.100625, 152.064)" x="26.100625" y="152.064">counts</text>
    </g>
   </g>
   <g id="line2d_10">
    <path clip-path="url(#pdd627951c4)" d="M 99.673043 59.279186 
L 114.69913 268.424101 
L 129.725217 268.784447 
L 144.751304 269.865486 
L 159.777391 270.009624 
L 174.803478 269.649278 
L 189.829565 269.288932 
L 204.855652 270.153763 
L 219.881739 270.081693 
L 234.907826 270.153763 
L 249.933913 270.153763 
L 264.96 270.153763 
L 279.986087 270.153763 
L 295.012174 270.153763 
L 310.038261 270.081693 
L 325.064348 270.153763 
L 340.090435 269.937555 
L 355.116522 270.153763 
L 370.142609 270.153763 
L 385.168696 270.153763 
L 400.194783 270.153763 
L 415.22087 270.153763 
L 430.246957 270.081693 
" style="fill:none;stroke:#4169e1;stroke-linecap:round;stroke-width:3;"/>
    <defs>
     <path d="M 0 3.25 
C 0.86191 3.25 1.688635 2.907559 2.298097 2.298097 
C 2.907559 1.688635 3.25 0.86191 3.25 0 
C 3.25 -0.86191 2.907559 -1.688635 2.298097 -2.298097 
C 1.688635 -2.907559 0.86191 -3.25 0 -3.25 
C -0.86191 -3.25 -1.688635 -2.907559 -2.298097 -2.298097 
C -2.907559 -1.688635 -3.25 -0.86191 -3.25 0 
C -3.25 0.86191 -2.907559 1.688635 -2.298097 2.298097 
C -1.688635 2.907559 -0.86191 3.25 0 3.25 
z
" id="me2b7a39d63" style="stroke:#4169e1;"/>
    </defs>
    <g clip-path="url(#pdd627951c4)">
     <use style="fill:#4169e1;stroke:#4169e1;" x="99.673043" xlink:href="#me2b7a39d63" y="59.279186"/>
     <use style="fill:#4169e1;stroke:#4169e1;" x="114.69913" xlink:href="#me2b7a39d63" y="268.424101"/>
     <use style="fill:#4169e1;stroke:#4169e1;" x="129.725217" xlink:href="#me2b7a39d63" y="268.784447"/>
     <use style="fill:#4169e1;stroke:#4169e1;" x="144.751304" xlink:href="#me2b7a39d63" y="269.865486"/>
     <use style="fill:#4169e1;stroke:#4169e1;" x="159.777391" xlink:href="#me2b7a39d63" y="270.009624"/>
     <use style="fill:#4169e1;stroke:#4169e1;" x="174.803478" xlink:href="#me2b7a39d63" y="269.649278"/>
     <use style="fill:#4169e1;stroke:#4169e1;" x="189.829565" xlink:href="#me2b7a39d63" y="269.288932"/>
     <use style="fill:#4169e1;stroke:#4169e1;" x="204.855652" xlink:href="#me2b7a39d63" y="270.153763"/>
     <use style="fill:#4169e1;stroke:#4169e1;" x="219.881739" xlink:href="#me2b7a39d63" y="270.081693"/>
     <use style="fill:#4169e1;stroke:#4169e1;" x="234.907826" xlink:href="#me2b7a39d63" y="270.153763"/>
     <use style="fill:#4169e1;stroke:#4169e1;" x="249.933913" xlink:href="#me2b7a39d63" y="270.153763"/>
     <use style="fill:#4169e1;stroke:#4169e1;" x="264.96" xlink:href="#me2b7a39d63" y="270.153763"/>
     <use style="fill:#4169e1;stroke:#4169e1;" x="279.986087" xlink:href="#me2b7a39d63" y="270.153763"/>
     <use style="fill:#4169e1;stroke:#4169e1;" x="295.012174" xlink:href="#me2b7a39d63" y="270.153763"/>
     <use style="fill:#4169e1;stroke:#4169e1;" x="310.038261" xlink:href="#me2b7a39d63" y="270.081693"/>
     <use style="fill:#4169e1;stroke:#4169e1;" x="325.064348" xlink:href="#me2b7a39d63" y="270.153763"/>
     <use style="fill:#4169e1;stroke:#4169e1;" x="340.090435" xlink:href="#me2b7a39d63" y="269.937555"/>
     <use style="fill:#4169e1;stroke:#4169e1;" x="355.116522" xlink:href="#me2b7a39d63" y="270.153763"/>
     <use style="fill:#4169e1;stroke:#4169e1;" x="370.142609" xlink:href="#me2b7a39d63" y="270.153763"/>
     <use style="fill:#4169e1;stroke:#4169e1;" x="385.168696" xlink:href="#me2b7a39d63" y="270.153763"/>
     <use style="fill:#4169e1;stroke:#4169e1;" x="400.194783" xlink:href="#me2b7a39d63" y="270.153763"/>
     <use style="fill:#4169e1;stroke:#4169e1;" x="415.22087" xlink:href="#me2b7a39d63" y="270.153763"/>
     <use style="fill:#4169e1;stroke:#4169e1;" x="430.246957" xlink:href="#me2b7a39d63" y="270.081693"/>
    </g>
   </g>
   <g id="patch_3">
    <path d="M 92.16 276.48 
L 92.16 27.648 
" style="fill:none;stroke:#262626;stroke-linecap:square;stroke-linejoin:miter;stroke-width:0.8;"/>
   </g>
   <g id="patch_4">
    <path d="M 92.16 276.48 
L 437.76 276.48 
" style="fill:none;stroke:#262626;stroke-linecap:square;stroke-linejoin:miter;stroke-width:0.8;"/>
   </g>
   <g id="text_12">
    <text style="fill:#262626;font-family:DejaVu Sans;font-size:20px;font-style:normal;font-weight:bold;text-anchor:middle;" transform="rotate(-0, 264.96, 21.648)" x="264.96" y="21.648">V distance to true naive</text>
   </g>
  </g>
 </g>
 <defs>
  <clipPath id="pdd627951c4">
   <rect height="248.832" width="345.6" x="92.16" y="27.648"/>
  </clipPath>
 </defs>
</svg>
