<?xml version="1.0" encoding="utf-8" standalone="no"?>
<!DOCTYPE svg PUBLIC "-//W3C//DTD SVG 1.1//EN"
  "http://www.w3.org/Graphics/SVG/1.1/DTD/svg11.dtd">
<!-- Created with matplotlib (http://matplotlib.org/) -->
<svg height="345.6pt" version="1.1" viewBox="0 0 460.8 345.6" width="460.8pt" xmlns="http://www.w3.org/2000/svg" xmlns:xlink="http://www.w3.org/1999/xlink">
 <defs>
  <style type="text/css">
*{stroke-linecap:butt;stroke-linejoin:round;}
  </style>
 </defs>
 <g id="figure_1">
  <g id="patch_1">
   <path d="M 0 345.6 
L 460.8 345.6 
L 460.8 0 
L 0 0 
z
" style="fill:#ffffff;"/>
  </g>
  <g id="axes_1">
   <g id="patch_2">
    <path d="M 82.944 276.48 
L 437.76 276.48 
L 437.76 27.648 
L 82.944 27.648 
z
" style="fill:#ffffff;"/>
   </g>
   <g id="matplotlib.axis_1">
    <g id="xtick_1">
     <g id="line2d_1">
      <defs>
       <path d="M 0 0 
L 0 3.5 
" id="mf4707d3c3f" style="stroke:#262626;stroke-width:0.8;"/>
      </defs>
      <g>
       <use style="fill:#262626;stroke:#262626;stroke-width:0.8;" x="82.944" xlink:href="#mf4707d3c3f" y="276.48"/>
      </g>
     </g>
     <g id="text_1">
      <text style="fill:#262626;font-family:DejaVu Sans;font-size:20px;font-style:normal;font-weight:normal;text-anchor:middle;" transform="rotate(-0, 82.944, 298.676875)" x="82.944" y="298.676875">0.0</text>
     </g>
    </g>
    <g id="xtick_2">
     <g id="line2d_2">
      <g>
       <use style="fill:#262626;stroke:#262626;stroke-width:0.8;" x="153.9072" xlink:href="#mf4707d3c3f" y="276.48"/>
      </g>
     </g>
     <g id="text_2">
      <text style="fill:#262626;font-family:DejaVu Sans;font-size:20px;font-style:normal;font-weight:normal;text-anchor:middle;" transform="rotate(-0, 153.9072, 298.676875)" x="153.9072" y="298.676875">0.1</text>
     </g>
    </g>
    <g id="xtick_3">
     <g id="line2d_3">
      <g>
       <use style="fill:#262626;stroke:#262626;stroke-width:0.8;" x="224.8704" xlink:href="#mf4707d3c3f" y="276.48"/>
      </g>
     </g>
     <g id="text_3">
      <text style="fill:#262626;font-family:DejaVu Sans;font-size:20px;font-style:normal;font-weight:normal;text-anchor:middle;" transform="rotate(-0, 224.8704, 298.676875)" x="224.8704" y="298.676875">0.2</text>
     </g>
    </g>
    <g id="xtick_4">
     <g id="line2d_4">
      <g>
       <use style="fill:#262626;stroke:#262626;stroke-width:0.8;" x="295.8336" xlink:href="#mf4707d3c3f" y="276.48"/>
      </g>
     </g>
     <g id="text_4">
      <text style="fill:#262626;font-family:DejaVu Sans;font-size:20px;font-style:normal;font-weight:normal;text-anchor:middle;" transform="rotate(-0, 295.8336, 298.676875)" x="295.8336" y="298.676875">0.3</text>
     </g>
    </g>
    <g id="xtick_5">
     <g id="line2d_5">
      <g>
       <use style="fill:#262626;stroke:#262626;stroke-width:0.8;" x="366.7968" xlink:href="#mf4707d3c3f" y="276.48"/>
      </g>
     </g>
     <g id="text_5">
      <text style="fill:#262626;font-family:DejaVu Sans;font-size:20px;font-style:normal;font-weight:normal;text-anchor:middle;" transform="rotate(-0, 366.7968, 298.676875)" x="366.7968" y="298.676875">0.4</text>
     </g>
    </g>
    <g id="xtick_6">
     <g id="line2d_6">
      <g>
       <use style="fill:#262626;stroke:#262626;stroke-width:0.8;" x="437.76" xlink:href="#mf4707d3c3f" y="276.48"/>
      </g>
     </g>
     <g id="text_6">
      <text style="fill:#262626;font-family:DejaVu Sans;font-size:20px;font-style:normal;font-weight:normal;text-anchor:middle;" transform="rotate(-0, 437.76, 298.676875)" x="437.76" y="298.676875">0.5</text>
     </g>
    </g>
    <g id="text_7">
     <text style="fill:#262626;font-family:DejaVu Sans;font-size:20px;font-style:normal;font-weight:normal;text-anchor:middle;" transform="rotate(-0, 260.352, 322.033125)" x="260.352" y="322.033125">mut freq</text>
    </g>
   </g>
   <g id="matplotlib.axis_2">
    <g id="ytick_1">
     <g id="line2d_7">
      <defs>
       <path d="M 0 0 
L -3.5 0 
" id="me87b704cc3" style="stroke:#262626;stroke-width:0.8;"/>
      </defs>
      <g>
       <use style="fill:#262626;stroke:#262626;stroke-width:0.8;" x="82.944" xlink:href="#me87b704cc3" y="255.744"/>
      </g>
     </g>
     <g id="text_8">
      <text style="fill:#262626;font-family:DejaVu Sans;font-size:20px;font-style:normal;font-weight:normal;text-anchor:end;" transform="rotate(-0, 75.944, 263.342437)" x="75.944" y="263.342437">0.00</text>
     </g>
    </g>
    <g id="ytick_2">
     <g id="line2d_8">
      <g>
       <use style="fill:#262626;stroke:#262626;stroke-width:0.8;" x="82.944" xlink:href="#me87b704cc3" y="203.904"/>
      </g>
     </g>
     <g id="text_9">
      <text style="fill:#262626;font-family:DejaVu Sans;font-size:20px;font-style:normal;font-weight:normal;text-anchor:end;" transform="rotate(-0, 75.944, 211.502437)" x="75.944" y="211.502437">0.25</text>
     </g>
    </g>
    <g id="ytick_3">
     <g id="line2d_9">
      <g>
       <use style="fill:#262626;stroke:#262626;stroke-width:0.8;" x="82.944" xlink:href="#me87b704cc3" y="152.064"/>
      </g>
     </g>
     <g id="text_10">
      <text style="fill:#262626;font-family:DejaVu Sans;font-size:20px;font-style:normal;font-weight:normal;text-anchor:end;" transform="rotate(-0, 75.944, 159.662437)" x="75.944" y="159.662437">0.50</text>
     </g>
    </g>
    <g id="ytick_4">
     <g id="line2d_10">
      <g>
       <use style="fill:#262626;stroke:#262626;stroke-width:0.8;" x="82.944" xlink:href="#me87b704cc3" y="100.224"/>
      </g>
     </g>
     <g id="text_11">
      <text style="fill:#262626;font-family:DejaVu Sans;font-size:20px;font-style:normal;font-weight:normal;text-anchor:end;" transform="rotate(-0, 75.944, 107.822437)" x="75.944" y="107.822437">0.75</text>
     </g>
    </g>
    <g id="ytick_5">
     <g id="line2d_11">
      <g>
       <use style="fill:#262626;stroke:#262626;stroke-width:0.8;" x="82.944" xlink:href="#me87b704cc3" y="48.384"/>
      </g>
     </g>
     <g id="text_12">
      <text style="fill:#262626;font-family:DejaVu Sans;font-size:20px;font-style:normal;font-weight:normal;text-anchor:end;" transform="rotate(-0, 75.944, 55.982437)" x="75.944" y="55.982437">1.00</text>
     </g>
    </g>
    <g id="text_13">
     <text style="fill:#262626;font-family:DejaVu Sans;font-size:20px;font-style:normal;font-weight:normal;text-anchor:middle;" transform="rotate(-90, 23.253375, 152.064)" x="23.253375" y="152.064">fraction correct up to allele</text>
    </g>
   </g>
   <g id="LineCollection_1">
    <path clip-path="url(#pb1fc8d1d8d)" d="M 88.621056 48.497363 
L 88.621056 48.270637 
" style="fill:none;stroke:#1f77b4;"/>
    <path clip-path="url(#pb1fc8d1d8d)" d="M 99.975168 48.682354 
L 99.975168 48.085646 
" style="fill:none;stroke:#1f77b4;"/>
    <path clip-path="url(#pb1fc8d1d8d)" d="M 111.32928 69.90305 
L 111.32928 39.82495 
" style="fill:none;stroke:#1f77b4;"/>
    <path clip-path="url(#pb1fc8d1d8d)" d="M 122.683392 84.104009 
L 122.683392 46.289937 
" style="fill:none;stroke:#1f77b4;"/>
    <path clip-path="url(#pb1fc8d1d8d)" d="M 134.037504 89.839795 
L 134.037504 41.488205 
" style="fill:none;stroke:#1f77b4;"/>
    <path clip-path="url(#pb1fc8d1d8d)" d="M 145.391616 51.807071 
L 145.391616 44.960929 
" style="fill:none;stroke:#1f77b4;"/>
    <path clip-path="url(#pb1fc8d1d8d)" d="M 156.745728 53.866517 
L 156.745728 42.901483 
" style="fill:none;stroke:#1f77b4;"/>
    <path clip-path="url(#pb1fc8d1d8d)" d="M 168.09984 81.775063 
L 168.09984 35.728937 
" style="fill:none;stroke:#1f77b4;"/>
    <path clip-path="url(#pb1fc8d1d8d)" d="M 179.453952 72.212121 
L 179.453952 24.555879 
" style="fill:none;stroke:#1f77b4;"/>
    <path clip-path="url(#pb1fc8d1d8d)" d="M 202.162176 136.024648 
L 202.162176 -1 
" style="fill:none;stroke:#1f77b4;"/>
    <path clip-path="url(#pb1fc8d1d8d)" d="M 213.516288 204.67775 
L 213.516288 30.33025 
" style="fill:none;stroke:#1f77b4;"/>
   </g>
   <g id="line2d_12">
    <path clip-path="url(#pb1fc8d1d8d)" d="M 88.621056 48.384 
L 99.975168 48.384 
L 111.32928 54.864 
L 122.683392 65.196973 
L 134.037504 65.664 
L 145.391616 48.384 
L 156.745728 48.384 
L 168.09984 58.752 
L 179.453952 48.384 
L 202.162176 48.384 
L 213.516288 117.504 
" style="fill:none;stroke:#1f77b4;stroke-linecap:round;"/>
    <defs>
     <path d="M 0 2.5 
C 0.663008 2.5 1.29895 2.236584 1.767767 1.767767 
C 2.236584 1.29895 2.5 0.663008 2.5 0 
C 2.5 -0.663008 2.236584 -1.29895 1.767767 -1.767767 
C 1.29895 -2.236584 0.663008 -2.5 0 -2.5 
C -0.663008 -2.5 -1.29895 -2.236584 -1.767767 -1.767767 
C -2.236584 -1.29895 -2.5 -0.663008 -2.5 0 
C -2.5 0.663008 -2.236584 1.29895 -1.767767 1.767767 
C -1.29895 2.236584 -0.663008 2.5 0 2.5 
z
" id="m28795dbd01" style="stroke:#1f77b4;"/>
    </defs>
    <g clip-path="url(#pb1fc8d1d8d)">
     <use style="fill:#1f77b4;stroke:#1f77b4;" x="88.621056" xlink:href="#m28795dbd01" y="48.384"/>
     <use style="fill:#1f77b4;stroke:#1f77b4;" x="99.975168" xlink:href="#m28795dbd01" y="48.384"/>
     <use style="fill:#1f77b4;stroke:#1f77b4;" x="111.32928" xlink:href="#m28795dbd01" y="54.864"/>
     <use style="fill:#1f77b4;stroke:#1f77b4;" x="122.683392" xlink:href="#m28795dbd01" y="65.196973"/>
     <use style="fill:#1f77b4;stroke:#1f77b4;" x="134.037504" xlink:href="#m28795dbd01" y="65.664"/>
     <use style="fill:#1f77b4;stroke:#1f77b4;" x="145.391616" xlink:href="#m28795dbd01" y="48.384"/>
     <use style="fill:#1f77b4;stroke:#1f77b4;" x="156.745728" xlink:href="#m28795dbd01" y="48.384"/>
     <use style="fill:#1f77b4;stroke:#1f77b4;" x="168.09984" xlink:href="#m28795dbd01" y="58.752"/>
     <use style="fill:#1f77b4;stroke:#1f77b4;" x="179.453952" xlink:href="#m28795dbd01" y="48.384"/>
     <use style="fill:#1f77b4;stroke:#1f77b4;" x="202.162176" xlink:href="#m28795dbd01" y="48.384"/>
     <use style="fill:#1f77b4;stroke:#1f77b4;" x="213.516288" xlink:href="#m28795dbd01" y="117.504"/>
    </g>
   </g>
   <g id="patch_3">
    <path d="M 82.944 276.48 
L 82.944 27.648 
" style="fill:none;stroke:#262626;stroke-linecap:square;stroke-linejoin:miter;stroke-width:0.8;"/>
   </g>
   <g id="patch_4">
    <path d="M 82.944 276.48 
L 437.76 276.48 
" style="fill:none;stroke:#262626;stroke-linecap:square;stroke-linejoin:miter;stroke-width:0.8;"/>
   </g>
   <g id="text_14">
    <text style="fill:#262626;font-family:DejaVu Sans;font-size:20px;font-style:normal;font-weight:bold;text-anchor:middle;" transform="rotate(-0, 260.352, 21.648)" x="260.352" y="21.648">D gene</text>
   </g>
  </g>
 </g>
 <defs>
  <clipPath id="pb1fc8d1d8d">
   <rect height="248.832" width="354.816" x="82.944" y="27.648"/>
  </clipPath>
 </defs>
</svg>
