<?xml version="1.0" encoding="utf-8" standalone="no"?>
<!DOCTYPE svg PUBLIC "-//W3C//DTD SVG 1.1//EN"
  "http://www.w3.org/Graphics/SVG/1.1/DTD/svg11.dtd">
<!-- Created with matplotlib (http://matplotlib.org/) -->
<svg height="345.6pt" version="1.1" viewBox="0 0 460.8 345.6" width="460.8pt" xmlns="http://www.w3.org/2000/svg" xmlns:xlink="http://www.w3.org/1999/xlink">
 <defs>
  <style type="text/css">
*{stroke-linecap:butt;stroke-linejoin:round;}
  </style>
 </defs>
 <g id="figure_1">
  <g id="patch_1">
   <path d="M 0 345.6 
L 460.8 345.6 
L 460.8 0 
L 0 0 
z
" style="fill:#ffffff;"/>
  </g>
  <g id="axes_1">
   <g id="patch_2">
    <path d="M 101.653125 280.292969 
L 426.15 280.292969 
L 426.15 38.744531 
L 101.653125 38.744531 
z
" style="fill:#ffffff;"/>
   </g>
   <g id="matplotlib.axis_1">
    <g id="xtick_1">
     <g id="line2d_1">
      <defs>
       <path d="M 0 0 
L 0 3.5 
" id="m55d186ec1a" style="stroke:#262626;stroke-width:0.8;"/>
      </defs>
      <g>
       <use style="fill:#262626;stroke:#262626;stroke-width:0.8;" x="101.653125" xlink:href="#m55d186ec1a" y="280.292969"/>
      </g>
     </g>
     <g id="text_1">
      <text style="fill:#262626;font-family:Lato;font-size:15px;font-style:normal;font-weight:600;text-anchor:middle;" transform="rotate(-0, 101.653125, 298.4375)" x="101.653125" y="298.4375">90</text>
     </g>
    </g>
    <g id="xtick_2">
     <g id="line2d_2">
      <g>
       <use style="fill:#262626;stroke:#262626;stroke-width:0.8;" x="166.5525" xlink:href="#m55d186ec1a" y="280.292969"/>
      </g>
     </g>
     <g id="text_2">
      <text style="fill:#262626;font-family:Lato;font-size:15px;font-style:normal;font-weight:600;text-anchor:middle;" transform="rotate(-0, 166.5525, 298.4375)" x="166.5525" y="298.4375">92</text>
     </g>
    </g>
    <g id="xtick_3">
     <g id="line2d_3">
      <g>
       <use style="fill:#262626;stroke:#262626;stroke-width:0.8;" x="231.451875" xlink:href="#m55d186ec1a" y="280.292969"/>
      </g>
     </g>
     <g id="text_3">
      <text style="fill:#262626;font-family:Lato;font-size:15px;font-style:normal;font-weight:600;text-anchor:middle;" transform="rotate(-0, 231.451875, 298.4375)" x="231.451875" y="298.4375">94</text>
     </g>
    </g>
    <g id="xtick_4">
     <g id="line2d_4">
      <g>
       <use style="fill:#262626;stroke:#262626;stroke-width:0.8;" x="296.35125" xlink:href="#m55d186ec1a" y="280.292969"/>
      </g>
     </g>
     <g id="text_4">
      <text style="fill:#262626;font-family:Lato;font-size:15px;font-style:normal;font-weight:600;text-anchor:middle;" transform="rotate(-0, 296.35125, 298.4375)" x="296.35125" y="298.4375">96</text>
     </g>
    </g>
    <g id="xtick_5">
     <g id="line2d_5">
      <g>
       <use style="fill:#262626;stroke:#262626;stroke-width:0.8;" x="361.250625" xlink:href="#m55d186ec1a" y="280.292969"/>
      </g>
     </g>
     <g id="text_5">
      <text style="fill:#262626;font-family:Lato;font-size:15px;font-style:normal;font-weight:600;text-anchor:middle;" transform="rotate(-0, 361.250625, 298.4375)" x="361.250625" y="298.4375">98</text>
     </g>
    </g>
    <g id="xtick_6">
     <g id="line2d_6">
      <g>
       <use style="fill:#262626;stroke:#262626;stroke-width:0.8;" x="426.15" xlink:href="#m55d186ec1a" y="280.292969"/>
      </g>
     </g>
     <g id="text_6">
      <text style="fill:#262626;font-family:Lato;font-size:15px;font-style:normal;font-weight:600;text-anchor:middle;" transform="rotate(-0, 426.15, 298.4375)" x="426.15" y="298.4375">100</text>
     </g>
    </g>
    <g id="text_7">
     <text style="fill:#262626;font-family:Lato;font-size:20px;font-style:normal;font-weight:600;text-anchor:middle;" transform="rotate(-0, 263.901563, 320.65)" x="263.901563" y="320.65">AA lb ratio threshold (percentile)</text>
    </g>
   </g>
   <g id="matplotlib.axis_2">
    <g id="ytick_1">
     <g id="line2d_7">
      <defs>
       <path d="M 0 0 
L -3.5 0 
" id="m450d8a6bff" style="stroke:#262626;stroke-width:0.8;"/>
      </defs>
      <g>
       <use style="fill:#262626;stroke:#262626;stroke-width:0.8;" x="101.653125" xlink:href="#m450d8a6bff" y="275.979604"/>
      </g>
     </g>
     <g id="text_8">
      <text style="fill:#262626;font-family:Lato;font-size:15px;font-style:normal;font-weight:600;text-anchor:end;" transform="rotate(-0, 94.653125, 281.551869)" x="94.653125" y="281.551869">0.00</text>
     </g>
    </g>
    <g id="ytick_2">
     <g id="line2d_8">
      <g>
       <use style="fill:#262626;stroke:#262626;stroke-width:0.8;" x="101.653125" xlink:href="#m450d8a6bff" y="245.542553"/>
      </g>
     </g>
     <g id="text_9">
      <text style="fill:#262626;font-family:Lato;font-size:15px;font-style:normal;font-weight:600;text-anchor:end;" transform="rotate(-0, 94.653125, 251.114818)" x="94.653125" y="251.114818">0.25</text>
     </g>
    </g>
    <g id="ytick_3">
     <g id="line2d_9">
      <g>
       <use style="fill:#262626;stroke:#262626;stroke-width:0.8;" x="101.653125" xlink:href="#m450d8a6bff" y="215.105502"/>
      </g>
     </g>
     <g id="text_10">
      <text style="fill:#262626;font-family:Lato;font-size:15px;font-style:normal;font-weight:600;text-anchor:end;" transform="rotate(-0, 94.653125, 220.677767)" x="94.653125" y="220.677767">0.50</text>
     </g>
    </g>
    <g id="ytick_4">
     <g id="line2d_10">
      <g>
       <use style="fill:#262626;stroke:#262626;stroke-width:0.8;" x="101.653125" xlink:href="#m450d8a6bff" y="184.668451"/>
      </g>
     </g>
     <g id="text_11">
      <text style="fill:#262626;font-family:Lato;font-size:15px;font-style:normal;font-weight:600;text-anchor:end;" transform="rotate(-0, 94.653125, 190.240716)" x="94.653125" y="190.240716">0.75</text>
     </g>
    </g>
    <g id="ytick_5">
     <g id="line2d_11">
      <g>
       <use style="fill:#262626;stroke:#262626;stroke-width:0.8;" x="101.653125" xlink:href="#m450d8a6bff" y="154.231399"/>
      </g>
     </g>
     <g id="text_12">
      <text style="fill:#262626;font-family:Lato;font-size:15px;font-style:normal;font-weight:600;text-anchor:end;" transform="rotate(-0, 94.653125, 159.803665)" x="94.653125" y="159.803665">1.00</text>
     </g>
    </g>
    <g id="ytick_6">
     <g id="line2d_12">
      <g>
       <use style="fill:#262626;stroke:#262626;stroke-width:0.8;" x="101.653125" xlink:href="#m450d8a6bff" y="123.794348"/>
      </g>
     </g>
     <g id="text_13">
      <text style="fill:#262626;font-family:Lato;font-size:15px;font-style:normal;font-weight:600;text-anchor:end;" transform="rotate(-0, 94.653125, 129.366614)" x="94.653125" y="129.366614">1.25</text>
     </g>
    </g>
    <g id="ytick_7">
     <g id="line2d_13">
      <g>
       <use style="fill:#262626;stroke:#262626;stroke-width:0.8;" x="101.653125" xlink:href="#m450d8a6bff" y="93.357297"/>
      </g>
     </g>
     <g id="text_14">
      <text style="fill:#262626;font-family:Lato;font-size:15px;font-style:normal;font-weight:600;text-anchor:end;" transform="rotate(-0, 94.653125, 98.929563)" x="94.653125" y="98.929563">1.50</text>
     </g>
    </g>
    <g id="ytick_8">
     <g id="line2d_14">
      <g>
       <use style="fill:#262626;stroke:#262626;stroke-width:0.8;" x="101.653125" xlink:href="#m450d8a6bff" y="62.920246"/>
      </g>
     </g>
     <g id="text_15">
      <text style="fill:#262626;font-family:Lato;font-size:15px;font-style:normal;font-weight:600;text-anchor:end;" transform="rotate(-0, 94.653125, 68.492512)" x="94.653125" y="68.492512">1.75</text>
     </g>
    </g>
    <g id="text_16">
     <text style="fill:#262626;font-family:Lato;font-size:20px;font-style:normal;font-weight:600;" transform="translate(36.459375 239.376562)rotate(-90)">mean N ancestors</text>
     <text style="fill:#262626;font-family:Lato;font-size:20px;font-style:normal;font-weight:600;" transform="translate(57.640625 255.954687)rotate(-90)">since affinity increase</text>
    </g>
   </g>
   <g id="line2d_15">
    <path clip-path="url(#pf23f6a49eb)" d="M 101.653125 123.794348 
L 108.143063 123.794348 
L 114.633 123.794348 
L 121.122938 123.794348 
L 127.612875 123.794348 
L 134.102813 123.794348 
L 140.59275 123.794348 
L 147.082688 123.794348 
L 153.572625 123.794348 
L 160.062563 123.794348 
L 166.5525 123.794348 
L 173.042438 123.794348 
L 179.532375 123.794348 
L 186.022313 123.794348 
L 192.51225 194.814134 
L 199.002188 194.814134 
L 205.492125 194.814134 
L 211.982063 194.814134 
L 218.472 194.814134 
L 224.961938 194.814134 
L 231.451875 194.814134 
L 237.941813 194.814134 
L 244.43175 194.814134 
L 250.921688 194.814134 
L 257.411625 194.814134 
L 263.901563 194.814134 
L 270.3915 194.814134 
L 276.881438 194.814134 
L 283.371375 154.231399 
L 289.861313 154.231399 
L 296.35125 154.231399 
L 302.841188 154.231399 
L 309.331125 154.231399 
L 315.821063 154.231399 
L 322.311 154.231399 
L 328.800938 154.231399 
L 335.290875 154.231399 
L 341.780813 154.231399 
L 348.27075 154.231399 
L 354.760688 154.231399 
L 361.250625 154.231399 
L 367.740563 154.231399 
L 374.2305 154.231399 
L 380.720438 154.231399 
L 387.210375 154.231399 
L 393.700313 154.231399 
L 400.19025 154.231399 
L 406.680188 154.231399 
L 413.170125 154.231399 
L 419.660063 154.231399 
" style="fill:none;stroke:#1f77b4;stroke-linecap:round;stroke-opacity:0.7;stroke-width:3;"/>
   </g>
   <g id="line2d_16">
    <path clip-path="url(#pf23f6a49eb)" d="M 85.752778 60.311356 
L 435.560409 60.311356 
" style="fill:none;stroke:#8b0000;stroke-dasharray:11.1,4.8;stroke-dashoffset:0;stroke-opacity:0.7;stroke-width:3;"/>
   </g>
   <g id="line2d_17">
    <path clip-path="url(#pf23f6a49eb)" d="M 101.653125 275.979604 
L 108.143063 275.979604 
L 114.633 275.979604 
L 121.122938 275.979604 
L 127.612875 275.979604 
L 134.102813 275.979604 
L 140.59275 275.979604 
L 147.082688 275.979604 
L 153.572625 275.979604 
L 160.062563 275.979604 
L 166.5525 275.979604 
L 173.042438 275.979604 
L 179.532375 275.979604 
L 186.022313 275.979604 
L 192.51225 275.979604 
L 199.002188 275.979604 
L 205.492125 275.979604 
L 211.982063 275.979604 
L 218.472 275.979604 
L 224.961938 275.979604 
L 231.451875 275.979604 
L 237.941813 275.979604 
L 244.43175 275.979604 
L 250.921688 275.979604 
L 257.411625 275.979604 
L 263.901563 275.979604 
L 270.3915 275.979604 
L 276.881438 275.979604 
L 283.371375 275.979604 
L 289.861313 275.979604 
L 296.35125 275.979604 
L 302.841188 275.979604 
L 309.331125 275.979604 
L 315.821063 275.979604 
L 322.311 275.979604 
L 328.800938 275.979604 
L 335.290875 275.979604 
L 341.780813 275.979604 
L 348.27075 275.979604 
L 354.760688 275.979604 
L 361.250625 275.979604 
L 367.740563 275.979604 
L 374.2305 275.979604 
L 380.720438 275.979604 
L 387.210375 275.979604 
L 393.700313 275.979604 
L 400.19025 275.979604 
L 406.680188 275.979604 
L 413.170125 275.979604 
L 419.660063 275.979604 
" style="fill:none;stroke:#006400;stroke-dasharray:11.1,4.8;stroke-dashoffset:0;stroke-opacity:0.7;stroke-width:3;"/>
   </g>
   <g id="patch_3">
    <path d="M 101.653125 280.292969 
L 101.653125 38.744531 
" style="fill:none;stroke:#262626;stroke-linecap:square;stroke-linejoin:miter;stroke-width:0.8;"/>
   </g>
   <g id="patch_4">
    <path d="M 101.653125 280.292969 
L 426.15 280.292969 
" style="fill:none;stroke:#262626;stroke-linecap:square;stroke-linejoin:miter;stroke-width:0.8;"/>
   </g>
   <g id="text_17">
    <text style="fill:#262626;font-family:Lato;font-size:15px;font-style:normal;font-weight:bold;text-anchor:middle;" transform="rotate(-0, 263.901563, 32.744531)" x="263.901563" y="32.744531">affinity change, iclust 0</text>
   </g>
   <g id="legend_1">
    <g id="patch_5">
     <path d="M 266.701563 135.363906 
L 428.00125 135.363906 
Q 430.80125 135.363906 430.80125 132.563906 
L 430.80125 94.470781 
Q 430.80125 91.670781 428.00125 91.670781 
L 266.701563 91.670781 
Q 263.901563 91.670781 263.901563 94.470781 
L 263.901563 132.563906 
Q 263.901563 135.363906 266.701563 135.363906 
z
" style="fill:#ffffff;opacity:0.8;stroke:#cccccc;stroke-linejoin:miter;"/>
    </g>
    <g id="line2d_18">
     <path d="M 269.501563 102.772344 
L 297.501563 102.772344 
" style="fill:none;stroke:#8b0000;stroke-dasharray:11.1,4.8;stroke-dashoffset:0;stroke-opacity:0.7;stroke-width:3;"/>
    </g>
    <g id="line2d_19"/>
    <g id="text_18">
     <text style="fill:#262626;font-family:Lato;font-size:14px;font-style:normal;font-weight:600;text-anchor:start;" transform="rotate(-0, 308.701563, 107.672344)" x="308.701563" y="107.672344">no correlation</text>
    </g>
    <g id="line2d_20">
     <path d="M 269.501563 122.518906 
L 297.501563 122.518906 
" style="fill:none;stroke:#006400;stroke-dasharray:11.1,4.8;stroke-dashoffset:0;stroke-opacity:0.7;stroke-width:3;"/>
    </g>
    <g id="line2d_21"/>
    <g id="text_19">
     <text style="fill:#262626;font-family:Lato;font-size:14px;font-style:normal;font-weight:600;text-anchor:start;" transform="rotate(-0, 308.701563, 127.418906)" x="308.701563" y="127.418906">perfect correlation</text>
    </g>
   </g>
  </g>
 </g>
 <defs>
  <clipPath id="pf23f6a49eb">
   <rect height="241.548437" width="324.496875" x="101.653125" y="38.744531"/>
  </clipPath>
 </defs>
</svg>
