<?xml version="1.0" encoding="utf-8" standalone="no"?>
<!DOCTYPE svg PUBLIC "-//W3C//DTD SVG 1.1//EN"
  "http://www.w3.org/Graphics/SVG/1.1/DTD/svg11.dtd">
<!-- Created with matplotlib (http://matplotlib.org/) -->
<svg height="345.6pt" version="1.1" viewBox="0 0 460.8 345.6" width="460.8pt" xmlns="http://www.w3.org/2000/svg" xmlns:xlink="http://www.w3.org/1999/xlink">
 <defs>
  <style type="text/css">
*{stroke-linecap:butt;stroke-linejoin:round;}
  </style>
 </defs>
 <g id="figure_1">
  <g id="patch_1">
   <path d="M 0 345.6 
L 460.8 345.6 
L 460.8 0 
L 0 0 
z
" style="fill:#ffffff;"/>
  </g>
  <g id="axes_1">
   <g id="patch_2">
    <path d="M 92.16 276.48 
L 437.76 276.48 
L 437.76 27.648 
L 92.16 27.648 
z
" style="fill:#ffffff;"/>
   </g>
   <g id="matplotlib.axis_1">
    <g id="xtick_1">
     <g id="line2d_1">
      <defs>
       <path d="M 0 0 
L 0 3.5 
" id="m123e5618a3" style="stroke:#262626;stroke-width:0.8;"/>
      </defs>
      <g>
       <use style="fill:#262626;stroke:#262626;stroke-width:0.8;" x="99.673043" xlink:href="#m123e5618a3" y="276.48"/>
      </g>
     </g>
     <g id="text_1">
      <text style="fill:#262626;font-family:DejaVu Sans;font-size:20px;font-style:normal;font-weight:normal;text-anchor:middle;" transform="rotate(-0, 99.673043, 298.676875)" x="99.673043" y="298.676875">−10</text>
     </g>
    </g>
    <g id="xtick_2">
     <g id="line2d_2">
      <g>
       <use style="fill:#262626;stroke:#262626;stroke-width:0.8;" x="174.803478" xlink:href="#m123e5618a3" y="276.48"/>
      </g>
     </g>
     <g id="text_2">
      <text style="fill:#262626;font-family:DejaVu Sans;font-size:20px;font-style:normal;font-weight:normal;text-anchor:middle;" transform="rotate(-0, 174.803478, 298.676875)" x="174.803478" y="298.676875">−5</text>
     </g>
    </g>
    <g id="xtick_3">
     <g id="line2d_3">
      <g>
       <use style="fill:#262626;stroke:#262626;stroke-width:0.8;" x="249.933913" xlink:href="#m123e5618a3" y="276.48"/>
      </g>
     </g>
     <g id="text_3">
      <text style="fill:#262626;font-family:DejaVu Sans;font-size:20px;font-style:normal;font-weight:normal;text-anchor:middle;" transform="rotate(-0, 249.933913, 298.676875)" x="249.933913" y="298.676875">0</text>
     </g>
    </g>
    <g id="xtick_4">
     <g id="line2d_4">
      <g>
       <use style="fill:#262626;stroke:#262626;stroke-width:0.8;" x="325.064348" xlink:href="#m123e5618a3" y="276.48"/>
      </g>
     </g>
     <g id="text_4">
      <text style="fill:#262626;font-family:DejaVu Sans;font-size:20px;font-style:normal;font-weight:normal;text-anchor:middle;" transform="rotate(-0, 325.064348, 298.676875)" x="325.064348" y="298.676875">5</text>
     </g>
    </g>
    <g id="xtick_5">
     <g id="line2d_5">
      <g>
       <use style="fill:#262626;stroke:#262626;stroke-width:0.8;" x="400.194783" xlink:href="#m123e5618a3" y="276.48"/>
      </g>
     </g>
     <g id="text_5">
      <text style="fill:#262626;font-family:DejaVu Sans;font-size:20px;font-style:normal;font-weight:normal;text-anchor:middle;" transform="rotate(-0, 400.194783, 298.676875)" x="400.194783" y="298.676875">10</text>
     </g>
    </g>
    <g id="text_6">
     <text style="fill:#262626;font-family:DejaVu Sans;font-size:20px;font-style:normal;font-weight:normal;text-anchor:middle;" transform="rotate(-0, 264.96, 322.033125)" x="264.96" y="322.033125">inferred - true</text>
    </g>
   </g>
   <g id="matplotlib.axis_2">
    <g id="ytick_1">
     <g id="line2d_6">
      <defs>
       <path d="M 0 0 
L -3.5 0 
" id="m0aaf4742b8" style="stroke:#262626;stroke-width:0.8;"/>
      </defs>
      <g>
       <use style="fill:#262626;stroke:#262626;stroke-width:0.8;" x="92.16" xlink:href="#m0aaf4742b8" y="270.153763"/>
      </g>
     </g>
     <g id="text_7">
      <text style="fill:#262626;font-family:DejaVu Sans;font-size:20px;font-style:normal;font-weight:normal;text-anchor:end;" transform="rotate(-0, 85.16, 277.7522)" x="85.16" y="277.7522">0.0</text>
     </g>
    </g>
    <g id="ytick_2">
     <g id="line2d_7">
      <g>
       <use style="fill:#262626;stroke:#262626;stroke-width:0.8;" x="92.16" xlink:href="#m0aaf4742b8" y="224.228265"/>
      </g>
     </g>
     <g id="text_8">
      <text style="fill:#262626;font-family:DejaVu Sans;font-size:20px;font-style:normal;font-weight:normal;text-anchor:end;" transform="rotate(-0, 85.16, 231.826703)" x="85.16" y="231.826703">0.2</text>
     </g>
    </g>
    <g id="ytick_3">
     <g id="line2d_8">
      <g>
       <use style="fill:#262626;stroke:#262626;stroke-width:0.8;" x="92.16" xlink:href="#m0aaf4742b8" y="178.302768"/>
      </g>
     </g>
     <g id="text_9">
      <text style="fill:#262626;font-family:DejaVu Sans;font-size:20px;font-style:normal;font-weight:normal;text-anchor:end;" transform="rotate(-0, 85.16, 185.901205)" x="85.16" y="185.901205">0.4</text>
     </g>
    </g>
    <g id="ytick_4">
     <g id="line2d_9">
      <g>
       <use style="fill:#262626;stroke:#262626;stroke-width:0.8;" x="92.16" xlink:href="#m0aaf4742b8" y="132.37727"/>
      </g>
     </g>
     <g id="text_10">
      <text style="fill:#262626;font-family:DejaVu Sans;font-size:20px;font-style:normal;font-weight:normal;text-anchor:end;" transform="rotate(-0, 85.16, 139.975708)" x="85.16" y="139.975708">0.6</text>
     </g>
    </g>
    <g id="ytick_5">
     <g id="line2d_10">
      <g>
       <use style="fill:#262626;stroke:#262626;stroke-width:0.8;" x="92.16" xlink:href="#m0aaf4742b8" y="86.451772"/>
      </g>
     </g>
     <g id="text_11">
      <text style="fill:#262626;font-family:DejaVu Sans;font-size:20px;font-style:normal;font-weight:normal;text-anchor:end;" transform="rotate(-0, 85.16, 94.05021)" x="85.16" y="94.05021">0.8</text>
     </g>
    </g>
    <g id="ytick_6">
     <g id="line2d_11">
      <g>
       <use style="fill:#262626;stroke:#262626;stroke-width:0.8;" x="92.16" xlink:href="#m0aaf4742b8" y="40.526275"/>
      </g>
     </g>
     <g id="text_12">
      <text style="fill:#262626;font-family:DejaVu Sans;font-size:20px;font-style:normal;font-weight:normal;text-anchor:end;" transform="rotate(-0, 85.16, 48.124712)" x="85.16" y="48.124712">1.0</text>
     </g>
    </g>
    <g id="text_13">
     <text style="fill:#262626;font-family:DejaVu Sans;font-size:20px;font-style:normal;font-weight:normal;text-anchor:middle;" transform="rotate(-90, 45.194375, 152.064)" x="45.194375" y="152.064">frequency</text>
    </g>
   </g>
   <g id="LineCollection_1">
    <path clip-path="url(#pd18a0cf10c)" d="M 69.62087 270.153763 
L 69.62087 270.153763 
" style="fill:none;stroke:#006600;stroke-opacity:0.6;stroke-width:5;"/>
    <path clip-path="url(#pd18a0cf10c)" d="M 84.646957 270.153763 
L 84.646957 270.153763 
" style="fill:none;stroke:#006600;stroke-opacity:0.6;stroke-width:5;"/>
    <path clip-path="url(#pd18a0cf10c)" d="M 99.673043 270.153763 
L 99.673043 270.000678 
" style="fill:none;stroke:#006600;stroke-opacity:0.6;stroke-width:5;"/>
    <path clip-path="url(#pd18a0cf10c)" d="M 114.69913 270.153763 
L 114.69913 270.153763 
" style="fill:none;stroke:#006600;stroke-opacity:0.6;stroke-width:5;"/>
    <path clip-path="url(#pd18a0cf10c)" d="M 129.725217 270.153763 
L 129.725217 270.153763 
" style="fill:none;stroke:#006600;stroke-opacity:0.6;stroke-width:5;"/>
    <path clip-path="url(#pd18a0cf10c)" d="M 144.751304 269.820478 
L 144.751304 269.415453 
" style="fill:none;stroke:#006600;stroke-opacity:0.6;stroke-width:5;"/>
    <path clip-path="url(#pd18a0cf10c)" d="M 159.777391 270.153763 
L 159.777391 270.000678 
" style="fill:none;stroke:#006600;stroke-opacity:0.6;stroke-width:5;"/>
    <path clip-path="url(#pd18a0cf10c)" d="M 174.803478 268.137393 
L 174.803478 267.271413 
" style="fill:none;stroke:#006600;stroke-opacity:0.6;stroke-width:5;"/>
    <path clip-path="url(#pd18a0cf10c)" d="M 189.829565 269.630386 
L 189.829565 269.146289 
" style="fill:none;stroke:#006600;stroke-opacity:0.6;stroke-width:5;"/>
    <path clip-path="url(#pd18a0cf10c)" d="M 204.855652 264.78723 
L 204.855652 263.426581 
" style="fill:none;stroke:#006600;stroke-opacity:0.6;stroke-width:5;"/>
    <path clip-path="url(#pd18a0cf10c)" d="M 219.881739 267.927607 
L 219.881739 267.021944 
" style="fill:none;stroke:#006600;stroke-opacity:0.6;stroke-width:5;"/>
    <path clip-path="url(#pd18a0cf10c)" d="M 234.907826 262.463971 
L 234.907826 260.85112 
" style="fill:none;stroke:#006600;stroke-opacity:0.6;stroke-width:5;"/>
    <path clip-path="url(#pd18a0cf10c)" d="M 249.933913 68.37595 
L 249.933913 60.439117 
" style="fill:none;stroke:#006600;stroke-opacity:0.6;stroke-width:5;"/>
    <path clip-path="url(#pd18a0cf10c)" d="M 264.96 269.10074 
L 264.96 268.451255 
" style="fill:none;stroke:#006600;stroke-opacity:0.6;stroke-width:5;"/>
    <path clip-path="url(#pd18a0cf10c)" d="M 279.986087 269.368564 
L 279.986087 268.795772 
" style="fill:none;stroke:#006600;stroke-opacity:0.6;stroke-width:5;"/>
    <path clip-path="url(#pd18a0cf10c)" d="M 295.012174 270.056711 
L 295.012174 269.79156 
" style="fill:none;stroke:#006600;stroke-opacity:0.6;stroke-width:5;"/>
    <path clip-path="url(#pd18a0cf10c)" d="M 310.038261 270.153763 
L 310.038261 270.000678 
" style="fill:none;stroke:#006600;stroke-opacity:0.6;stroke-width:5;"/>
   </g>
   <g id="LineCollection_2">
    <path clip-path="url(#pd18a0cf10c)" d="M 69.62087 270.153763 
L 69.62087 270.153763 
" style="fill:none;stroke:#990012;stroke-opacity:0.6;stroke-width:3;"/>
    <path clip-path="url(#pd18a0cf10c)" d="M 84.646957 270.153763 
L 84.646957 270.153763 
" style="fill:none;stroke:#990012;stroke-opacity:0.6;stroke-width:3;"/>
    <path clip-path="url(#pd18a0cf10c)" d="M 99.673043 270.153763 
L 99.673043 270.000678 
" style="fill:none;stroke:#990012;stroke-opacity:0.6;stroke-width:3;"/>
    <path clip-path="url(#pd18a0cf10c)" d="M 114.69913 270.153763 
L 114.69913 270.153763 
" style="fill:none;stroke:#990012;stroke-opacity:0.6;stroke-width:3;"/>
    <path clip-path="url(#pd18a0cf10c)" d="M 129.725217 270.153763 
L 129.725217 270.000678 
" style="fill:none;stroke:#990012;stroke-opacity:0.6;stroke-width:3;"/>
    <path clip-path="url(#pd18a0cf10c)" d="M 144.751304 270.153763 
L 144.751304 270.153763 
" style="fill:none;stroke:#990012;stroke-opacity:0.6;stroke-width:3;"/>
    <path clip-path="url(#pd18a0cf10c)" d="M 159.777391 270.153763 
L 159.777391 270.153763 
" style="fill:none;stroke:#990012;stroke-opacity:0.6;stroke-width:3;"/>
    <path clip-path="url(#pd18a0cf10c)" d="M 174.803478 270.153763 
L 174.803478 270.153763 
" style="fill:none;stroke:#990012;stroke-opacity:0.6;stroke-width:3;"/>
    <path clip-path="url(#pd18a0cf10c)" d="M 189.829565 269.881998 
L 189.829565 269.507018 
" style="fill:none;stroke:#990012;stroke-opacity:0.6;stroke-width:3;"/>
    <path clip-path="url(#pd18a0cf10c)" d="M 204.855652 265.148061 
L 204.855652 263.831175 
" style="fill:none;stroke:#990012;stroke-opacity:0.6;stroke-width:3;"/>
    <path clip-path="url(#pd18a0cf10c)" d="M 219.881739 270.056711 
L 219.881739 269.79156 
" style="fill:none;stroke:#990012;stroke-opacity:0.6;stroke-width:3;"/>
    <path clip-path="url(#pd18a0cf10c)" d="M 234.907826 262.172203 
L 234.907826 260.530549 
" style="fill:none;stroke:#990012;stroke-opacity:0.6;stroke-width:3;"/>
    <path clip-path="url(#pd18a0cf10c)" d="M 249.933913 63.296756 
L 249.933913 55.261617 
" style="fill:none;stroke:#990012;stroke-opacity:0.6;stroke-width:3;"/>
    <path clip-path="url(#pd18a0cf10c)" d="M 264.96 268.137393 
L 264.96 267.271413 
" style="fill:none;stroke:#990012;stroke-opacity:0.6;stroke-width:3;"/>
    <path clip-path="url(#pd18a0cf10c)" d="M 279.986087 270.108925 
L 279.986087 269.89243 
" style="fill:none;stroke:#990012;stroke-opacity:0.6;stroke-width:3;"/>
    <path clip-path="url(#pd18a0cf10c)" d="M 295.012174 270.153763 
L 295.012174 270.153763 
" style="fill:none;stroke:#990012;stroke-opacity:0.6;stroke-width:3;"/>
    <path clip-path="url(#pd18a0cf10c)" d="M 310.038261 270.153763 
L 310.038261 270.153763 
" style="fill:none;stroke:#990012;stroke-opacity:0.6;stroke-width:3;"/>
    <path clip-path="url(#pd18a0cf10c)" d="M 325.064348 270.153763 
L 325.064348 270.153763 
" style="fill:none;stroke:#990012;stroke-opacity:0.6;stroke-width:3;"/>
    <path clip-path="url(#pd18a0cf10c)" d="M 340.090435 269.565658 
L 340.090435 269.057933 
" style="fill:none;stroke:#990012;stroke-opacity:0.6;stroke-width:3;"/>
   </g>
   <g id="line2d_12">
    <path clip-path="url(#pd18a0cf10c)" d="M 69.62087 270.153763 
L 84.646957 270.153763 
L 99.673043 270.07722 
L 114.69913 270.153763 
L 129.725217 270.153763 
L 144.751304 269.617965 
L 159.777391 270.07722 
L 174.803478 267.704403 
L 189.829565 269.388338 
L 204.855652 264.106906 
L 219.881739 267.474775 
L 234.907826 261.657546 
L 249.933913 64.407534 
L 264.96 268.775998 
L 279.986087 269.082168 
L 295.012174 269.924135 
L 310.038261 270.07722 
" style="fill:none;stroke:#006600;stroke-linecap:round;stroke-opacity:0.6;stroke-width:5;"/>
    <defs>
     <path d="M 0 3.25 
C 0.86191 3.25 1.688635 2.907559 2.298097 2.298097 
C 2.907559 1.688635 3.25 0.86191 3.25 0 
C 3.25 -0.86191 2.907559 -1.688635 2.298097 -2.298097 
C 1.688635 -2.907559 0.86191 -3.25 0 -3.25 
C -0.86191 -3.25 -1.688635 -2.907559 -2.298097 -2.298097 
C -2.907559 -1.688635 -3.25 -0.86191 -3.25 0 
C -3.25 0.86191 -2.907559 1.688635 -2.298097 2.298097 
C -1.688635 2.907559 -0.86191 3.25 0 3.25 
z
" id="m46ada81bf2" style="stroke:#006600;stroke-opacity:0.6;"/>
    </defs>
    <g clip-path="url(#pd18a0cf10c)">
     <use style="fill:#006600;fill-opacity:0.6;stroke:#006600;stroke-opacity:0.6;" x="69.62087" xlink:href="#m46ada81bf2" y="270.153763"/>
     <use style="fill:#006600;fill-opacity:0.6;stroke:#006600;stroke-opacity:0.6;" x="84.646957" xlink:href="#m46ada81bf2" y="270.153763"/>
     <use style="fill:#006600;fill-opacity:0.6;stroke:#006600;stroke-opacity:0.6;" x="99.673043" xlink:href="#m46ada81bf2" y="270.07722"/>
     <use style="fill:#006600;fill-opacity:0.6;stroke:#006600;stroke-opacity:0.6;" x="114.69913" xlink:href="#m46ada81bf2" y="270.153763"/>
     <use style="fill:#006600;fill-opacity:0.6;stroke:#006600;stroke-opacity:0.6;" x="129.725217" xlink:href="#m46ada81bf2" y="270.153763"/>
     <use style="fill:#006600;fill-opacity:0.6;stroke:#006600;stroke-opacity:0.6;" x="144.751304" xlink:href="#m46ada81bf2" y="269.617965"/>
     <use style="fill:#006600;fill-opacity:0.6;stroke:#006600;stroke-opacity:0.6;" x="159.777391" xlink:href="#m46ada81bf2" y="270.07722"/>
     <use style="fill:#006600;fill-opacity:0.6;stroke:#006600;stroke-opacity:0.6;" x="174.803478" xlink:href="#m46ada81bf2" y="267.704403"/>
     <use style="fill:#006600;fill-opacity:0.6;stroke:#006600;stroke-opacity:0.6;" x="189.829565" xlink:href="#m46ada81bf2" y="269.388338"/>
     <use style="fill:#006600;fill-opacity:0.6;stroke:#006600;stroke-opacity:0.6;" x="204.855652" xlink:href="#m46ada81bf2" y="264.106906"/>
     <use style="fill:#006600;fill-opacity:0.6;stroke:#006600;stroke-opacity:0.6;" x="219.881739" xlink:href="#m46ada81bf2" y="267.474775"/>
     <use style="fill:#006600;fill-opacity:0.6;stroke:#006600;stroke-opacity:0.6;" x="234.907826" xlink:href="#m46ada81bf2" y="261.657546"/>
     <use style="fill:#006600;fill-opacity:0.6;stroke:#006600;stroke-opacity:0.6;" x="249.933913" xlink:href="#m46ada81bf2" y="64.407534"/>
     <use style="fill:#006600;fill-opacity:0.6;stroke:#006600;stroke-opacity:0.6;" x="264.96" xlink:href="#m46ada81bf2" y="268.775998"/>
     <use style="fill:#006600;fill-opacity:0.6;stroke:#006600;stroke-opacity:0.6;" x="279.986087" xlink:href="#m46ada81bf2" y="269.082168"/>
     <use style="fill:#006600;fill-opacity:0.6;stroke:#006600;stroke-opacity:0.6;" x="295.012174" xlink:href="#m46ada81bf2" y="269.924135"/>
     <use style="fill:#006600;fill-opacity:0.6;stroke:#006600;stroke-opacity:0.6;" x="310.038261" xlink:href="#m46ada81bf2" y="270.07722"/>
    </g>
   </g>
   <g id="line2d_13">
    <path clip-path="url(#pd18a0cf10c)" d="M 69.62087 270.153763 
L 84.646957 270.153763 
L 99.673043 270.07722 
L 114.69913 270.153763 
L 129.725217 270.07722 
L 144.751304 270.153763 
L 159.777391 270.153763 
L 174.803478 270.153763 
L 189.829565 269.694508 
L 204.855652 264.489618 
L 219.881739 269.924135 
L 234.907826 261.351376 
L 249.933913 59.279186 
L 264.96 267.704403 
L 279.986087 270.000678 
L 295.012174 270.153763 
L 310.038261 270.153763 
L 325.064348 270.153763 
L 340.090435 269.311795 
" style="fill:none;stroke:#990012;stroke-linecap:round;stroke-opacity:0.6;stroke-width:3;"/>
    <defs>
     <path d="M 0 3.25 
C 0.86191 3.25 1.688635 2.907559 2.298097 2.298097 
C 2.907559 1.688635 3.25 0.86191 3.25 0 
C 3.25 -0.86191 2.907559 -1.688635 2.298097 -2.298097 
C 1.688635 -2.907559 0.86191 -3.25 0 -3.25 
C -0.86191 -3.25 -1.688635 -2.907559 -2.298097 -2.298097 
C -2.907559 -1.688635 -3.25 -0.86191 -3.25 0 
C -3.25 0.86191 -2.907559 1.688635 -2.298097 2.298097 
C -1.688635 2.907559 -0.86191 3.25 0 3.25 
z
" id="m0ea79bb5e2" style="stroke:#990012;stroke-opacity:0.6;"/>
    </defs>
    <g clip-path="url(#pd18a0cf10c)">
     <use style="fill:#990012;fill-opacity:0.6;stroke:#990012;stroke-opacity:0.6;" x="69.62087" xlink:href="#m0ea79bb5e2" y="270.153763"/>
     <use style="fill:#990012;fill-opacity:0.6;stroke:#990012;stroke-opacity:0.6;" x="84.646957" xlink:href="#m0ea79bb5e2" y="270.153763"/>
     <use style="fill:#990012;fill-opacity:0.6;stroke:#990012;stroke-opacity:0.6;" x="99.673043" xlink:href="#m0ea79bb5e2" y="270.07722"/>
     <use style="fill:#990012;fill-opacity:0.6;stroke:#990012;stroke-opacity:0.6;" x="114.69913" xlink:href="#m0ea79bb5e2" y="270.153763"/>
     <use style="fill:#990012;fill-opacity:0.6;stroke:#990012;stroke-opacity:0.6;" x="129.725217" xlink:href="#m0ea79bb5e2" y="270.07722"/>
     <use style="fill:#990012;fill-opacity:0.6;stroke:#990012;stroke-opacity:0.6;" x="144.751304" xlink:href="#m0ea79bb5e2" y="270.153763"/>
     <use style="fill:#990012;fill-opacity:0.6;stroke:#990012;stroke-opacity:0.6;" x="159.777391" xlink:href="#m0ea79bb5e2" y="270.153763"/>
     <use style="fill:#990012;fill-opacity:0.6;stroke:#990012;stroke-opacity:0.6;" x="174.803478" xlink:href="#m0ea79bb5e2" y="270.153763"/>
     <use style="fill:#990012;fill-opacity:0.6;stroke:#990012;stroke-opacity:0.6;" x="189.829565" xlink:href="#m0ea79bb5e2" y="269.694508"/>
     <use style="fill:#990012;fill-opacity:0.6;stroke:#990012;stroke-opacity:0.6;" x="204.855652" xlink:href="#m0ea79bb5e2" y="264.489618"/>
     <use style="fill:#990012;fill-opacity:0.6;stroke:#990012;stroke-opacity:0.6;" x="219.881739" xlink:href="#m0ea79bb5e2" y="269.924135"/>
     <use style="fill:#990012;fill-opacity:0.6;stroke:#990012;stroke-opacity:0.6;" x="234.907826" xlink:href="#m0ea79bb5e2" y="261.351376"/>
     <use style="fill:#990012;fill-opacity:0.6;stroke:#990012;stroke-opacity:0.6;" x="249.933913" xlink:href="#m0ea79bb5e2" y="59.279186"/>
     <use style="fill:#990012;fill-opacity:0.6;stroke:#990012;stroke-opacity:0.6;" x="264.96" xlink:href="#m0ea79bb5e2" y="267.704403"/>
     <use style="fill:#990012;fill-opacity:0.6;stroke:#990012;stroke-opacity:0.6;" x="279.986087" xlink:href="#m0ea79bb5e2" y="270.000678"/>
     <use style="fill:#990012;fill-opacity:0.6;stroke:#990012;stroke-opacity:0.6;" x="295.012174" xlink:href="#m0ea79bb5e2" y="270.153763"/>
     <use style="fill:#990012;fill-opacity:0.6;stroke:#990012;stroke-opacity:0.6;" x="310.038261" xlink:href="#m0ea79bb5e2" y="270.153763"/>
     <use style="fill:#990012;fill-opacity:0.6;stroke:#990012;stroke-opacity:0.6;" x="325.064348" xlink:href="#m0ea79bb5e2" y="270.153763"/>
     <use style="fill:#990012;fill-opacity:0.6;stroke:#990012;stroke-opacity:0.6;" x="340.090435" xlink:href="#m0ea79bb5e2" y="269.311795"/>
    </g>
   </g>
   <g id="patch_3">
    <path d="M 92.16 276.48 
L 92.16 27.648 
" style="fill:none;stroke:#262626;stroke-linecap:square;stroke-linejoin:miter;stroke-width:0.8;"/>
   </g>
   <g id="patch_4">
    <path d="M 92.16 276.48 
L 437.76 276.48 
" style="fill:none;stroke:#262626;stroke-linecap:square;stroke-linejoin:miter;stroke-width:0.8;"/>
   </g>
   <g id="text_14">
    <text style="fill:#262626;font-family:DejaVu Sans;font-size:20px;font-style:normal;font-weight:bold;text-anchor:middle;" transform="rotate(-0, 264.96, 21.648)" x="264.96" y="21.648">J 5' deletion</text>
   </g>
   <g id="legend_1">
    <g id="patch_5">
     <path d="M 343.992 152.064 
L 474.463875 152.064 
Q 477.463875 152.064 477.463875 149.064 
L 477.463875 106.529625 
Q 477.463875 103.529625 474.463875 103.529625 
L 343.992 103.529625 
Q 340.992 103.529625 340.992 106.529625 
L 340.992 149.064 
Q 340.992 152.064 343.992 152.064 
z
" style="fill:#ffffff;opacity:0.8;stroke:#cccccc;stroke-linejoin:miter;"/>
    </g>
    <g id="LineCollection_3">
     <path d="M 361.992 123.177281 
L 361.992 108.177281 
" style="fill:none;stroke:#006600;stroke-opacity:0.6;stroke-width:5;"/>
    </g>
    <g id="line2d_14">
     <path d="M 346.992 115.677281 
L 376.992 115.677281 
" style="fill:none;stroke:#006600;stroke-linecap:round;stroke-opacity:0.6;stroke-width:5;"/>
    </g>
    <g id="line2d_15">
     <g>
      <use style="fill:#006600;fill-opacity:0.6;stroke:#006600;stroke-opacity:0.6;" x="361.992" xlink:href="#m46ada81bf2" y="115.677281"/>
     </g>
    </g>
    <g id="text_15">
     <text style="fill:#262626;font-family:DejaVu Sans;font-size:15px;font-style:normal;font-weight:normal;text-anchor:start;" transform="rotate(-0, 388.992, 120.927281)" x="388.992" y="120.927281">sw</text>
    </g>
    <g id="LineCollection_4">
     <path d="M 361.992 145.194469 
L 361.992 130.194469 
" style="fill:none;stroke:#990012;stroke-opacity:0.6;stroke-width:3;"/>
    </g>
    <g id="line2d_16">
     <path d="M 346.992 137.694469 
L 376.992 137.694469 
" style="fill:none;stroke:#990012;stroke-linecap:round;stroke-opacity:0.6;stroke-width:3;"/>
    </g>
    <g id="line2d_17">
     <g>
      <use style="fill:#990012;fill-opacity:0.6;stroke:#990012;stroke-opacity:0.6;" x="361.992" xlink:href="#m0ea79bb5e2" y="137.694469"/>
     </g>
    </g>
    <g id="text_16">
     <text style="fill:#262626;font-family:DejaVu Sans;font-size:15px;font-style:normal;font-weight:normal;text-anchor:start;" transform="rotate(-0, 388.992, 142.944469)" x="388.992" y="142.944469">multi-hmm</text>
    </g>
   </g>
  </g>
 </g>
 <defs>
  <clipPath id="pd18a0cf10c">
   <rect height="248.832" width="345.6" x="92.16" y="27.648"/>
  </clipPath>
 </defs>
</svg>
