<?xml version="1.0" encoding="utf-8" standalone="no"?>
<!DOCTYPE svg PUBLIC "-//W3C//DTD SVG 1.1//EN"
  "http://www.w3.org/Graphics/SVG/1.1/DTD/svg11.dtd">
<!-- Created with matplotlib (http://matplotlib.org/) -->
<svg height="504pt" version="1.1" viewBox="0 0 432 504" width="432pt" xmlns="http://www.w3.org/2000/svg" xmlns:xlink="http://www.w3.org/1999/xlink">
 <defs>
  <style type="text/css">
*{stroke-linecap:butt;stroke-linejoin:round;}
  </style>
 </defs>
 <g id="figure_1">
  <g id="patch_1">
   <path d="M 0 504 
L 432 504 
L 432 0 
L 0 0 
z
" style="fill:#ffffff;"/>
  </g>
  <g id="axes_1">
   <g id="patch_2">
    <path d="M 82.295313 439.533594 
L 406.9 439.533594 
L 406.9 43.3 
L 82.295313 43.3 
z
" style="fill:#ffffff;"/>
   </g>
   <g id="matplotlib.axis_1">
    <g id="xtick_1">
     <g id="line2d_1">
      <defs>
       <path d="M 0 0 
L 0 3.5 
" id="md0c5b45f66" style="stroke:#262626;stroke-width:0.8;"/>
      </defs>
      <g>
       <use style="fill:#262626;stroke:#262626;stroke-width:0.8;" x="88.53771" xlink:href="#md0c5b45f66" y="439.533594"/>
      </g>
     </g>
     <g id="text_1">
      <text style="fill:#262626;font-family:Lato;font-size:15px;font-style:normal;font-weight:600;text-anchor:middle;" transform="rotate(-0, 88.53771, 457.678125)" x="88.53771" y="457.678125">0</text>
     </g>
    </g>
    <g id="xtick_2">
     <g id="line2d_2">
      <g>
       <use style="fill:#262626;stroke:#262626;stroke-width:0.8;" x="136.556155" xlink:href="#md0c5b45f66" y="439.533594"/>
      </g>
     </g>
     <g id="text_2">
      <text style="fill:#262626;font-family:Lato;font-size:15px;font-style:normal;font-weight:600;text-anchor:middle;" transform="rotate(-0, 136.556155, 457.678125)" x="136.556155" y="457.678125">10</text>
     </g>
    </g>
    <g id="xtick_3">
     <g id="line2d_3">
      <g>
       <use style="fill:#262626;stroke:#262626;stroke-width:0.8;" x="184.5746" xlink:href="#md0c5b45f66" y="439.533594"/>
      </g>
     </g>
     <g id="text_3">
      <text style="fill:#262626;font-family:Lato;font-size:15px;font-style:normal;font-weight:600;text-anchor:middle;" transform="rotate(-0, 184.5746, 457.678125)" x="184.5746" y="457.678125">20</text>
     </g>
    </g>
    <g id="xtick_4">
     <g id="line2d_4">
      <g>
       <use style="fill:#262626;stroke:#262626;stroke-width:0.8;" x="232.593045" xlink:href="#md0c5b45f66" y="439.533594"/>
      </g>
     </g>
     <g id="text_4">
      <text style="fill:#262626;font-family:Lato;font-size:15px;font-style:normal;font-weight:600;text-anchor:middle;" transform="rotate(-0, 232.593045, 457.678125)" x="232.593045" y="457.678125">30</text>
     </g>
    </g>
    <g id="xtick_5">
     <g id="line2d_5">
      <g>
       <use style="fill:#262626;stroke:#262626;stroke-width:0.8;" x="280.61149" xlink:href="#md0c5b45f66" y="439.533594"/>
      </g>
     </g>
     <g id="text_5">
      <text style="fill:#262626;font-family:Lato;font-size:15px;font-style:normal;font-weight:600;text-anchor:middle;" transform="rotate(-0, 280.61149, 457.678125)" x="280.61149" y="457.678125">40</text>
     </g>
    </g>
    <g id="xtick_6">
     <g id="line2d_6">
      <g>
       <use style="fill:#262626;stroke:#262626;stroke-width:0.8;" x="328.629935" xlink:href="#md0c5b45f66" y="439.533594"/>
      </g>
     </g>
     <g id="text_6">
      <text style="fill:#262626;font-family:Lato;font-size:15px;font-style:normal;font-weight:600;text-anchor:middle;" transform="rotate(-0, 328.629935, 457.678125)" x="328.629935" y="457.678125">50</text>
     </g>
    </g>
    <g id="xtick_7">
     <g id="line2d_7">
      <g>
       <use style="fill:#262626;stroke:#262626;stroke-width:0.8;" x="376.64838" xlink:href="#md0c5b45f66" y="439.533594"/>
      </g>
     </g>
     <g id="text_7">
      <text style="fill:#262626;font-family:Lato;font-size:15px;font-style:normal;font-weight:600;text-anchor:middle;" transform="rotate(-0, 376.64838, 457.678125)" x="376.64838" y="457.678125">60</text>
     </g>
    </g>
    <g id="text_8">
     <text style="fill:#262626;font-family:Lato;font-size:20px;font-style:normal;font-weight:600;text-anchor:middle;" transform="rotate(-0, 244.597656, 479.05)" x="244.597656" y="479.05">N mutations</text>
    </g>
   </g>
   <g id="matplotlib.axis_2">
    <g id="ytick_1">
     <g id="line2d_8">
      <defs>
       <path d="M 0 0 
L -3.5 0 
" id="mce7c8cfd92" style="stroke:#262626;stroke-width:0.8;"/>
      </defs>
      <g>
       <use style="fill:#262626;stroke:#262626;stroke-width:0.8;" x="82.295313" xlink:href="#mce7c8cfd92" y="54.514158"/>
      </g>
     </g>
     <g id="text_9">
      <text style="fill:#262626;font-family:Lato;font-size:11px;font-style:normal;font-weight:600;text-anchor:end;" transform="rotate(-0, 75.295313, 58.600486)" x="75.295313" y="58.600486">1/513</text>
     </g>
    </g>
    <g id="ytick_2">
     <g id="line2d_9">
      <g>
       <use style="fill:#262626;stroke:#262626;stroke-width:0.8;" x="82.295313" xlink:href="#mce7c8cfd92" y="144.227425"/>
      </g>
     </g>
     <g id="text_10">
      <text style="fill:#262626;font-family:Lato;font-size:11px;font-style:normal;font-weight:600;text-anchor:end;" transform="rotate(-0, 75.295313, 148.313753)" x="75.295313" y="148.313753">1/513</text>
     </g>
    </g>
    <g id="ytick_3">
     <g id="line2d_10">
      <g>
       <use style="fill:#262626;stroke:#262626;stroke-width:0.8;" x="82.295313" xlink:href="#mce7c8cfd92" y="233.940691"/>
      </g>
     </g>
     <g id="text_11">
      <text style="fill:#262626;font-family:Lato;font-size:11px;font-style:normal;font-weight:600;text-anchor:end;" transform="rotate(-0, 75.295313, 238.027019)" x="75.295313" y="238.027019">1/513</text>
     </g>
    </g>
    <g id="ytick_4">
     <g id="line2d_11">
      <g>
       <use style="fill:#262626;stroke:#262626;stroke-width:0.8;" x="82.295313" xlink:href="#mce7c8cfd92" y="323.653958"/>
      </g>
     </g>
     <g id="text_12">
      <text style="fill:#262626;font-family:Lato;font-size:11px;font-style:normal;font-weight:600;text-anchor:end;" transform="rotate(-0, 75.295313, 327.740286)" x="75.295313" y="327.740286">1/513</text>
     </g>
    </g>
    <g id="ytick_5">
     <g id="line2d_12">
      <g>
       <use style="fill:#262626;stroke:#262626;stroke-width:0.8;" x="82.295313" xlink:href="#mce7c8cfd92" y="413.367224"/>
      </g>
     </g>
     <g id="text_13">
      <text style="fill:#262626;font-family:Lato;font-size:11px;font-style:normal;font-weight:600;text-anchor:end;" transform="rotate(-0, 75.295313, 417.453552)" x="75.295313" y="417.453552">1e-03</text>
     </g>
    </g>
    <g id="text_14">
     <text style="fill:#262626;font-family:Lato;font-size:20px;font-style:normal;font-weight:600;text-anchor:middle;" transform="rotate(-90, 37.3, 241.416797)" x="37.3" y="241.416797">family size (frac. of 1026)</text>
    </g>
   </g>
   <g id="PolyCollection_1">
    <defs>
     <path d="M 86.136788 -458.457168 
L 86.136788 -440.514515 
L 90.938633 -440.514515 
L 90.938633 -458.457168 
L 90.938633 -458.457168 
L 86.136788 -458.457168 
z
" id="mf8bbde43ed" style="stroke:#ff7f0e;stroke-opacity:0.55;"/>
    </defs>
    <g clip-path="url(#pe863c02714)">
     <use style="fill:#ff7f0e;fill-opacity:0.55;stroke:#ff7f0e;stroke-opacity:0.55;" x="0" xlink:href="#mf8bbde43ed" y="504"/>
    </g>
   </g>
   <g id="PolyCollection_2">
    <defs>
     <path d="M 86.136788 -443.504957 
L 86.136788 -425.562304 
L 90.938633 -425.562304 
L 90.938633 -443.504957 
L 90.938633 -443.504957 
L 86.136788 -443.504957 
z
" id="m992f98db6d" style="stroke:#ff7f0e;stroke-opacity:0.55;"/>
    </defs>
    <g clip-path="url(#pe863c02714)">
     <use style="fill:#ff7f0e;fill-opacity:0.55;stroke:#ff7f0e;stroke-opacity:0.55;" x="0" xlink:href="#m992f98db6d" y="504"/>
    </g>
   </g>
   <g id="PolyCollection_3">
    <defs>
     <path d="M 86.136788 -419.58142 
L 86.136788 -410.610093 
L 90.938633 -410.610093 
L 90.938633 -419.58142 
L 90.938633 -419.58142 
L 86.136788 -419.58142 
z
" id="m172d732e44" style="stroke:#1f77b4;stroke-opacity:0.55;"/>
    </defs>
    <g clip-path="url(#pe863c02714)">
     <use style="fill:#1f77b4;fill-opacity:0.55;stroke:#1f77b4;stroke-opacity:0.55;" x="0" xlink:href="#m172d732e44" y="504"/>
    </g>
   </g>
   <g id="PolyCollection_4">
    <defs>
     <path d="M 86.136788 -428.552746 
L 86.136788 -419.58142 
L 90.938633 -419.58142 
L 90.938633 -428.552746 
L 90.938633 -428.552746 
L 86.136788 -428.552746 
z
" id="m0924c383da" style="stroke:#ff7f0e;stroke-opacity:0.55;"/>
    </defs>
    <g clip-path="url(#pe863c02714)">
     <use style="fill:#ff7f0e;fill-opacity:0.55;stroke:#ff7f0e;stroke-opacity:0.55;" x="0" xlink:href="#m0924c383da" y="504"/>
    </g>
   </g>
   <g id="PolyCollection_5">
    <defs>
     <path d="M 86.136788 -413.600535 
L 86.136788 -395.657882 
L 90.938633 -395.657882 
L 90.938633 -413.600535 
L 90.938633 -413.600535 
L 86.136788 -413.600535 
z
" id="m3c2ac4b1f7" style="stroke:#ff7f0e;stroke-opacity:0.55;"/>
    </defs>
    <g clip-path="url(#pe863c02714)">
     <use style="fill:#ff7f0e;fill-opacity:0.55;stroke:#ff7f0e;stroke-opacity:0.55;" x="0" xlink:href="#m3c2ac4b1f7" y="504"/>
    </g>
   </g>
   <g id="PolyCollection_6">
    <defs>
     <path d="M 86.136788 -398.648324 
L 86.136788 -380.705671 
L 90.938633 -380.705671 
L 90.938633 -398.648324 
L 90.938633 -398.648324 
L 86.136788 -398.648324 
z
" id="me5deee330d" style="stroke:#ff7f0e;stroke-opacity:0.55;"/>
    </defs>
    <g clip-path="url(#pe863c02714)">
     <use style="fill:#ff7f0e;fill-opacity:0.55;stroke:#ff7f0e;stroke-opacity:0.55;" x="0" xlink:href="#me5deee330d" y="504"/>
    </g>
   </g>
   <g id="PolyCollection_7">
    <defs>
     <path d="M 90.938633 -398.648324 
L 90.938633 -380.705671 
L 95.740477 -380.705671 
L 95.740477 -398.648324 
L 95.740477 -398.648324 
L 90.938633 -398.648324 
z
" id="m407c5f1595" style="stroke:#ff7f0e;stroke-opacity:0.55;"/>
    </defs>
    <g clip-path="url(#pe863c02714)">
     <use style="fill:#ff7f0e;fill-opacity:0.55;stroke:#ff7f0e;stroke-opacity:0.55;" x="0" xlink:href="#m407c5f1595" y="504"/>
    </g>
   </g>
   <g id="PolyCollection_8">
    <defs>
     <path d="M 86.136788 -383.696113 
L 86.136788 -365.75346 
L 90.938633 -365.75346 
L 90.938633 -383.696113 
L 90.938633 -383.696113 
L 86.136788 -383.696113 
z
" id="med9aa7dd8a" style="stroke:#ff7f0e;stroke-opacity:0.55;"/>
    </defs>
    <g clip-path="url(#pe863c02714)">
     <use style="fill:#ff7f0e;fill-opacity:0.55;stroke:#ff7f0e;stroke-opacity:0.55;" x="0" xlink:href="#med9aa7dd8a" y="504"/>
    </g>
   </g>
   <g id="PolyCollection_9">
    <defs>
     <path d="M 90.938633 -383.696113 
L 90.938633 -365.75346 
L 95.740477 -365.75346 
L 95.740477 -383.696113 
L 95.740477 -383.696113 
L 90.938633 -383.696113 
z
" id="me95be61d8c" style="stroke:#ff7f0e;stroke-opacity:0.55;"/>
    </defs>
    <g clip-path="url(#pe863c02714)">
     <use style="fill:#ff7f0e;fill-opacity:0.55;stroke:#ff7f0e;stroke-opacity:0.55;" x="0" xlink:href="#me95be61d8c" y="504"/>
    </g>
   </g>
   <g id="PolyCollection_10">
    <defs>
     <path d="M 95.740477 -368.743902 
L 95.740477 -350.801249 
L 100.542322 -350.801249 
L 100.542322 -368.743902 
L 100.542322 -368.743902 
L 95.740477 -368.743902 
z
" id="m564e528589" style="stroke:#1f77b4;stroke-opacity:0.55;"/>
    </defs>
    <g clip-path="url(#pe863c02714)">
     <use style="fill:#1f77b4;fill-opacity:0.55;stroke:#1f77b4;stroke-opacity:0.55;" x="0" xlink:href="#m564e528589" y="504"/>
    </g>
   </g>
   <g id="PolyCollection_11">
    <defs>
     <path d="M 100.542322 -368.743902 
L 100.542322 -350.801249 
L 105.344166 -350.801249 
L 105.344166 -368.743902 
L 105.344166 -368.743902 
L 100.542322 -368.743902 
z
" id="mca02eeae53" style="stroke:#ff7f0e;stroke-opacity:0.55;"/>
    </defs>
    <g clip-path="url(#pe863c02714)">
     <use style="fill:#ff7f0e;fill-opacity:0.55;stroke:#ff7f0e;stroke-opacity:0.55;" x="0" xlink:href="#mca02eeae53" y="504"/>
    </g>
   </g>
   <g id="PolyCollection_12">
    <defs>
     <path d="M 105.344166 -353.791691 
L 105.344166 -335.849037 
L 110.146011 -335.849037 
L 110.146011 -353.791691 
L 110.146011 -353.791691 
L 105.344166 -353.791691 
z
" id="m8cbbbce1df" style="stroke:#ff7f0e;stroke-opacity:0.55;"/>
    </defs>
    <g clip-path="url(#pe863c02714)">
     <use style="fill:#ff7f0e;fill-opacity:0.55;stroke:#ff7f0e;stroke-opacity:0.55;" x="0" xlink:href="#m8cbbbce1df" y="504"/>
    </g>
   </g>
   <g id="PolyCollection_13">
    <defs>
     <path d="M 110.146011 -344.954934 
L 110.146011 -344.685794 
L 114.947855 -344.685794 
L 114.947855 -344.954934 
L 114.947855 -344.954934 
L 110.146011 -344.954934 
z
" id="m7c0ed1144d" style="stroke:#808080;stroke-opacity:0.4;"/>
    </defs>
    <g clip-path="url(#pe863c02714)">
     <use style="fill:#808080;fill-opacity:0.4;stroke:#808080;stroke-opacity:0.4;" x="0" xlink:href="#m7c0ed1144d" y="504"/>
    </g>
   </g>
   <g id="PolyCollection_14">
    <defs>
     <path d="M 114.947855 -344.954934 
L 114.947855 -344.685794 
L 119.7497 -344.685794 
L 119.7497 -344.954934 
L 119.7497 -344.954934 
L 114.947855 -344.954934 
z
" id="mdb341beee4" style="stroke:#808080;stroke-opacity:0.4;"/>
    </defs>
    <g clip-path="url(#pe863c02714)">
     <use style="fill:#808080;fill-opacity:0.4;stroke:#808080;stroke-opacity:0.4;" x="0" xlink:href="#mdb341beee4" y="504"/>
    </g>
   </g>
   <g id="PolyCollection_15">
    <defs>
     <path d="M 119.7497 -353.791691 
L 119.7497 -335.849037 
L 124.551544 -335.849037 
L 124.551544 -353.791691 
L 124.551544 -353.791691 
L 119.7497 -353.791691 
z
" id="m4205126b5f" style="stroke:#ff7f0e;stroke-opacity:0.55;"/>
    </defs>
    <g clip-path="url(#pe863c02714)">
     <use style="fill:#ff7f0e;fill-opacity:0.55;stroke:#ff7f0e;stroke-opacity:0.55;" x="0" xlink:href="#m4205126b5f" y="504"/>
    </g>
   </g>
   <g id="PolyCollection_16">
    <defs>
     <path d="M 105.344166 -338.83948 
L 105.344166 -320.896826 
L 110.146011 -320.896826 
L 110.146011 -338.83948 
L 110.146011 -338.83948 
L 105.344166 -338.83948 
z
" id="m1db748e527" style="stroke:#ff7f0e;stroke-opacity:0.55;"/>
    </defs>
    <g clip-path="url(#pe863c02714)">
     <use style="fill:#ff7f0e;fill-opacity:0.55;stroke:#ff7f0e;stroke-opacity:0.55;" x="0" xlink:href="#m1db748e527" y="504"/>
    </g>
   </g>
   <g id="PolyCollection_17">
    <defs>
     <path d="M 110.146011 -330.002723 
L 110.146011 -329.733583 
L 114.947855 -329.733583 
L 114.947855 -330.002723 
L 114.947855 -330.002723 
L 110.146011 -330.002723 
z
" id="maf220f4f46" style="stroke:#808080;stroke-opacity:0.4;"/>
    </defs>
    <g clip-path="url(#pe863c02714)">
     <use style="fill:#808080;fill-opacity:0.4;stroke:#808080;stroke-opacity:0.4;" x="0" xlink:href="#maf220f4f46" y="504"/>
    </g>
   </g>
   <g id="PolyCollection_18">
    <defs>
     <path d="M 114.947855 -330.002723 
L 114.947855 -329.733583 
L 119.7497 -329.733583 
L 119.7497 -330.002723 
L 119.7497 -330.002723 
L 114.947855 -330.002723 
z
" id="m2eead07f2f" style="stroke:#808080;stroke-opacity:0.4;"/>
    </defs>
    <g clip-path="url(#pe863c02714)">
     <use style="fill:#808080;fill-opacity:0.4;stroke:#808080;stroke-opacity:0.4;" x="0" xlink:href="#m2eead07f2f" y="504"/>
    </g>
   </g>
   <g id="PolyCollection_19">
    <defs>
     <path d="M 119.7497 -338.83948 
L 119.7497 -320.896826 
L 124.551544 -320.896826 
L 124.551544 -338.83948 
L 124.551544 -338.83948 
L 119.7497 -338.83948 
z
" id="mb3ea33b65b" style="stroke:#ff7f0e;stroke-opacity:0.55;"/>
    </defs>
    <g clip-path="url(#pe863c02714)">
     <use style="fill:#ff7f0e;fill-opacity:0.55;stroke:#ff7f0e;stroke-opacity:0.55;" x="0" xlink:href="#mb3ea33b65b" y="504"/>
    </g>
   </g>
   <g id="PolyCollection_20">
    <defs>
     <path d="M 110.146011 -323.887269 
L 110.146011 -305.944615 
L 114.947855 -305.944615 
L 114.947855 -323.887269 
L 114.947855 -323.887269 
L 110.146011 -323.887269 
z
" id="mc4444966f0" style="stroke:#ff7f0e;stroke-opacity:0.55;"/>
    </defs>
    <g clip-path="url(#pe863c02714)">
     <use style="fill:#ff7f0e;fill-opacity:0.55;stroke:#ff7f0e;stroke-opacity:0.55;" x="0" xlink:href="#mc4444966f0" y="504"/>
    </g>
   </g>
   <g id="PolyCollection_21">
    <defs>
     <path d="M 114.947855 -315.050512 
L 114.947855 -314.781372 
L 119.7497 -314.781372 
L 119.7497 -315.050512 
L 119.7497 -315.050512 
L 114.947855 -315.050512 
z
" id="m5ce91d7833" style="stroke:#808080;stroke-opacity:0.4;"/>
    </defs>
    <g clip-path="url(#pe863c02714)">
     <use style="fill:#808080;fill-opacity:0.4;stroke:#808080;stroke-opacity:0.4;" x="0" xlink:href="#m5ce91d7833" y="504"/>
    </g>
   </g>
   <g id="PolyCollection_22">
    <defs>
     <path d="M 119.7497 -323.887269 
L 119.7497 -305.944615 
L 124.551544 -305.944615 
L 124.551544 -323.887269 
L 124.551544 -323.887269 
L 119.7497 -323.887269 
z
" id="m4fa60b1c14" style="stroke:#ff7f0e;stroke-opacity:0.55;"/>
    </defs>
    <g clip-path="url(#pe863c02714)">
     <use style="fill:#ff7f0e;fill-opacity:0.55;stroke:#ff7f0e;stroke-opacity:0.55;" x="0" xlink:href="#m4fa60b1c14" y="504"/>
    </g>
   </g>
   <g id="PolyCollection_23">
    <defs>
     <path d="M 114.947855 -308.935057 
L 114.947855 -290.992404 
L 119.7497 -290.992404 
L 119.7497 -308.935057 
L 119.7497 -308.935057 
L 114.947855 -308.935057 
z
" id="me309d0f622" style="stroke:#ff7f0e;stroke-opacity:0.55;"/>
    </defs>
    <g clip-path="url(#pe863c02714)">
     <use style="fill:#ff7f0e;fill-opacity:0.55;stroke:#ff7f0e;stroke-opacity:0.55;" x="0" xlink:href="#me309d0f622" y="504"/>
    </g>
   </g>
   <g id="PolyCollection_24">
    <defs>
     <path d="M 124.551544 -293.982846 
L 124.551544 -276.040193 
L 129.353388 -276.040193 
L 129.353388 -293.982846 
L 129.353388 -293.982846 
L 124.551544 -293.982846 
z
" id="mdaa0dc594d" style="stroke:#ff7f0e;stroke-opacity:0.55;"/>
    </defs>
    <g clip-path="url(#pe863c02714)">
     <use style="fill:#ff7f0e;fill-opacity:0.55;stroke:#ff7f0e;stroke-opacity:0.55;" x="0" xlink:href="#mdaa0dc594d" y="504"/>
    </g>
   </g>
   <g id="PolyCollection_25">
    <defs>
     <path d="M 129.353388 -293.982846 
L 129.353388 -276.040193 
L 134.155233 -276.040193 
L 134.155233 -293.982846 
L 134.155233 -293.982846 
L 129.353388 -293.982846 
z
" id="ma7f544f681" style="stroke:#ff7f0e;stroke-opacity:0.55;"/>
    </defs>
    <g clip-path="url(#pe863c02714)">
     <use style="fill:#ff7f0e;fill-opacity:0.55;stroke:#ff7f0e;stroke-opacity:0.55;" x="0" xlink:href="#ma7f544f681" y="504"/>
    </g>
   </g>
   <g id="PolyCollection_26">
    <defs>
     <path d="M 129.353388 -279.030635 
L 129.353388 -261.087982 
L 134.155233 -261.087982 
L 134.155233 -279.030635 
L 134.155233 -279.030635 
L 129.353388 -279.030635 
z
" id="m660af20da4" style="stroke:#ff7f0e;stroke-opacity:0.55;"/>
    </defs>
    <g clip-path="url(#pe863c02714)">
     <use style="fill:#ff7f0e;fill-opacity:0.55;stroke:#ff7f0e;stroke-opacity:0.55;" x="0" xlink:href="#m660af20da4" y="504"/>
    </g>
   </g>
   <g id="PolyCollection_27">
    <defs>
     <path d="M 138.957077 -264.078424 
L 138.957077 -246.135771 
L 143.758922 -246.135771 
L 143.758922 -264.078424 
L 143.758922 -264.078424 
L 138.957077 -264.078424 
z
" id="m60fe6bea56" style="stroke:#ff7f0e;stroke-opacity:0.55;"/>
    </defs>
    <g clip-path="url(#pe863c02714)">
     <use style="fill:#ff7f0e;fill-opacity:0.55;stroke:#ff7f0e;stroke-opacity:0.55;" x="0" xlink:href="#m60fe6bea56" y="504"/>
    </g>
   </g>
   <g id="PolyCollection_28">
    <defs>
     <path d="M 143.758922 -255.241667 
L 143.758922 -254.972528 
L 148.560766 -254.972528 
L 148.560766 -255.241667 
L 148.560766 -255.241667 
L 143.758922 -255.241667 
z
" id="m16c725312f" style="stroke:#808080;stroke-opacity:0.4;"/>
    </defs>
    <g clip-path="url(#pe863c02714)">
     <use style="fill:#808080;fill-opacity:0.4;stroke:#808080;stroke-opacity:0.4;" x="0" xlink:href="#m16c725312f" y="504"/>
    </g>
   </g>
   <g id="PolyCollection_29">
    <defs>
     <path d="M 148.560766 -264.078424 
L 148.560766 -246.135771 
L 153.362611 -246.135771 
L 153.362611 -264.078424 
L 153.362611 -264.078424 
L 148.560766 -264.078424 
z
" id="m6e2d0d60be" style="stroke:#ff7f0e;stroke-opacity:0.55;"/>
    </defs>
    <g clip-path="url(#pe863c02714)">
     <use style="fill:#ff7f0e;fill-opacity:0.55;stroke:#ff7f0e;stroke-opacity:0.55;" x="0" xlink:href="#m6e2d0d60be" y="504"/>
    </g>
   </g>
   <g id="PolyCollection_30">
    <defs>
     <path d="M 143.758922 -249.126213 
L 143.758922 -231.18356 
L 148.560766 -231.18356 
L 148.560766 -249.126213 
L 148.560766 -249.126213 
L 143.758922 -249.126213 
z
" id="md185dc03e2" style="stroke:#ff7f0e;stroke-opacity:0.55;"/>
    </defs>
    <g clip-path="url(#pe863c02714)">
     <use style="fill:#ff7f0e;fill-opacity:0.55;stroke:#ff7f0e;stroke-opacity:0.55;" x="0" xlink:href="#md185dc03e2" y="504"/>
    </g>
   </g>
   <g id="PolyCollection_31">
    <defs>
     <path d="M 148.560766 -249.126213 
L 148.560766 -231.18356 
L 153.362611 -231.18356 
L 153.362611 -249.126213 
L 153.362611 -249.126213 
L 148.560766 -249.126213 
z
" id="m0bd9af6c6a" style="stroke:#ff7f0e;stroke-opacity:0.55;"/>
    </defs>
    <g clip-path="url(#pe863c02714)">
     <use style="fill:#ff7f0e;fill-opacity:0.55;stroke:#ff7f0e;stroke-opacity:0.55;" x="0" xlink:href="#m0bd9af6c6a" y="504"/>
    </g>
   </g>
   <g id="PolyCollection_32">
    <defs>
     <path d="M 138.957077 -234.174002 
L 138.957077 -216.231349 
L 143.758922 -216.231349 
L 143.758922 -234.174002 
L 143.758922 -234.174002 
L 138.957077 -234.174002 
z
" id="m946f54fba1" style="stroke:#ff7f0e;stroke-opacity:0.55;"/>
    </defs>
    <g clip-path="url(#pe863c02714)">
     <use style="fill:#ff7f0e;fill-opacity:0.55;stroke:#ff7f0e;stroke-opacity:0.55;" x="0" xlink:href="#m946f54fba1" y="504"/>
    </g>
   </g>
   <g id="PolyCollection_33">
    <defs>
     <path d="M 143.758922 -225.337245 
L 143.758922 -225.068106 
L 148.560766 -225.068106 
L 148.560766 -225.337245 
L 148.560766 -225.337245 
L 143.758922 -225.337245 
z
" id="m307b5d9628" style="stroke:#808080;stroke-opacity:0.4;"/>
    </defs>
    <g clip-path="url(#pe863c02714)">
     <use style="fill:#808080;fill-opacity:0.4;stroke:#808080;stroke-opacity:0.4;" x="0" xlink:href="#m307b5d9628" y="504"/>
    </g>
   </g>
   <g id="PolyCollection_34">
    <defs>
     <path d="M 148.560766 -225.337245 
L 148.560766 -225.068106 
L 153.362611 -225.068106 
L 153.362611 -225.337245 
L 153.362611 -225.337245 
L 148.560766 -225.337245 
z
" id="mf67a54698c" style="stroke:#808080;stroke-opacity:0.4;"/>
    </defs>
    <g clip-path="url(#pe863c02714)">
     <use style="fill:#808080;fill-opacity:0.4;stroke:#808080;stroke-opacity:0.4;" x="0" xlink:href="#mf67a54698c" y="504"/>
    </g>
   </g>
   <g id="PolyCollection_35">
    <defs>
     <path d="M 153.362611 -225.337245 
L 153.362611 -225.068106 
L 158.164455 -225.068106 
L 158.164455 -225.337245 
L 158.164455 -225.337245 
L 153.362611 -225.337245 
z
" id="me9d9673cbd" style="stroke:#808080;stroke-opacity:0.4;"/>
    </defs>
    <g clip-path="url(#pe863c02714)">
     <use style="fill:#808080;fill-opacity:0.4;stroke:#808080;stroke-opacity:0.4;" x="0" xlink:href="#me9d9673cbd" y="504"/>
    </g>
   </g>
   <g id="PolyCollection_36">
    <defs>
     <path d="M 158.164455 -234.174002 
L 158.164455 -216.231349 
L 162.9663 -216.231349 
L 162.9663 -234.174002 
L 162.9663 -234.174002 
L 158.164455 -234.174002 
z
" id="m063d969bef" style="stroke:#1f77b4;stroke-opacity:0.55;"/>
    </defs>
    <g clip-path="url(#pe863c02714)">
     <use style="fill:#1f77b4;fill-opacity:0.55;stroke:#1f77b4;stroke-opacity:0.55;" x="0" xlink:href="#m063d969bef" y="504"/>
    </g>
   </g>
   <g id="PolyCollection_37">
    <defs>
     <path d="M 162.9663 -219.221791 
L 162.9663 -201.279138 
L 167.768144 -201.279138 
L 167.768144 -219.221791 
L 167.768144 -219.221791 
L 162.9663 -219.221791 
z
" id="m6f446ff7f6" style="stroke:#ff7f0e;stroke-opacity:0.55;"/>
    </defs>
    <g clip-path="url(#pe863c02714)">
     <use style="fill:#ff7f0e;fill-opacity:0.55;stroke:#ff7f0e;stroke-opacity:0.55;" x="0" xlink:href="#m6f446ff7f6" y="504"/>
    </g>
   </g>
   <g id="PolyCollection_38">
    <defs>
     <path d="M 167.768144 -210.385034 
L 167.768144 -210.115894 
L 172.569989 -210.115894 
L 172.569989 -210.385034 
L 172.569989 -210.385034 
L 167.768144 -210.385034 
z
" id="m3841c467f1" style="stroke:#808080;stroke-opacity:0.4;"/>
    </defs>
    <g clip-path="url(#pe863c02714)">
     <use style="fill:#808080;fill-opacity:0.4;stroke:#808080;stroke-opacity:0.4;" x="0" xlink:href="#m3841c467f1" y="504"/>
    </g>
   </g>
   <g id="PolyCollection_39">
    <defs>
     <path d="M 172.569989 -210.385034 
L 172.569989 -210.115894 
L 177.371833 -210.115894 
L 177.371833 -210.385034 
L 177.371833 -210.385034 
L 172.569989 -210.385034 
z
" id="m5f11c8ae10" style="stroke:#808080;stroke-opacity:0.4;"/>
    </defs>
    <g clip-path="url(#pe863c02714)">
     <use style="fill:#808080;fill-opacity:0.4;stroke:#808080;stroke-opacity:0.4;" x="0" xlink:href="#m5f11c8ae10" y="504"/>
    </g>
   </g>
   <g id="PolyCollection_40">
    <defs>
     <path d="M 177.371833 -210.385034 
L 177.371833 -210.115894 
L 182.173678 -210.115894 
L 182.173678 -210.385034 
L 182.173678 -210.385034 
L 177.371833 -210.385034 
z
" id="m292ecdb67b" style="stroke:#808080;stroke-opacity:0.4;"/>
    </defs>
    <g clip-path="url(#pe863c02714)">
     <use style="fill:#808080;fill-opacity:0.4;stroke:#808080;stroke-opacity:0.4;" x="0" xlink:href="#m292ecdb67b" y="504"/>
    </g>
   </g>
   <g id="PolyCollection_41">
    <defs>
     <path d="M 182.173678 -219.221791 
L 182.173678 -201.279138 
L 186.975522 -201.279138 
L 186.975522 -219.221791 
L 186.975522 -219.221791 
L 182.173678 -219.221791 
z
" id="m5c06728874" style="stroke:#ff7f0e;stroke-opacity:0.55;"/>
    </defs>
    <g clip-path="url(#pe863c02714)">
     <use style="fill:#ff7f0e;fill-opacity:0.55;stroke:#ff7f0e;stroke-opacity:0.55;" x="0" xlink:href="#m5c06728874" y="504"/>
    </g>
   </g>
   <g id="PolyCollection_42">
    <defs>
     <path d="M 196.579211 -204.26958 
L 196.579211 -186.326927 
L 201.381056 -186.326927 
L 201.381056 -204.26958 
L 201.381056 -204.26958 
L 196.579211 -204.26958 
z
" id="m4f12aab7ca" style="stroke:#ff7f0e;stroke-opacity:0.55;"/>
    </defs>
    <g clip-path="url(#pe863c02714)">
     <use style="fill:#ff7f0e;fill-opacity:0.55;stroke:#ff7f0e;stroke-opacity:0.55;" x="0" xlink:href="#m4f12aab7ca" y="504"/>
    </g>
   </g>
   <g id="PolyCollection_43">
    <defs>
     <path d="M 201.381056 -204.26958 
L 201.381056 -186.326927 
L 206.1829 -186.326927 
L 206.1829 -204.26958 
L 206.1829 -204.26958 
L 201.381056 -204.26958 
z
" id="m1405a4245c" style="stroke:#ff7f0e;stroke-opacity:0.55;"/>
    </defs>
    <g clip-path="url(#pe863c02714)">
     <use style="fill:#ff7f0e;fill-opacity:0.55;stroke:#ff7f0e;stroke-opacity:0.55;" x="0" xlink:href="#m1405a4245c" y="504"/>
    </g>
   </g>
   <g id="PolyCollection_44">
    <defs>
     <path d="M 206.1829 -189.317369 
L 206.1829 -171.374716 
L 210.984745 -171.374716 
L 210.984745 -189.317369 
L 210.984745 -189.317369 
L 206.1829 -189.317369 
z
" id="m17f271e23f" style="stroke:#1f77b4;stroke-opacity:0.55;"/>
    </defs>
    <g clip-path="url(#pe863c02714)">
     <use style="fill:#1f77b4;fill-opacity:0.55;stroke:#1f77b4;stroke-opacity:0.55;" x="0" xlink:href="#m17f271e23f" y="504"/>
    </g>
   </g>
   <g id="PolyCollection_45">
    <defs>
     <path d="M 210.984745 -180.480612 
L 210.984745 -180.211472 
L 215.786589 -180.211472 
L 215.786589 -180.480612 
L 215.786589 -180.480612 
L 210.984745 -180.480612 
z
" id="m343e7a6635" style="stroke:#808080;stroke-opacity:0.4;"/>
    </defs>
    <g clip-path="url(#pe863c02714)">
     <use style="fill:#808080;fill-opacity:0.4;stroke:#808080;stroke-opacity:0.4;" x="0" xlink:href="#m343e7a6635" y="504"/>
    </g>
   </g>
   <g id="PolyCollection_46">
    <defs>
     <path d="M 215.786589 -180.480612 
L 215.786589 -180.211472 
L 220.588434 -180.211472 
L 220.588434 -180.480612 
L 220.588434 -180.480612 
L 215.786589 -180.480612 
z
" id="m07fc1af1b8" style="stroke:#808080;stroke-opacity:0.4;"/>
    </defs>
    <g clip-path="url(#pe863c02714)">
     <use style="fill:#808080;fill-opacity:0.4;stroke:#808080;stroke-opacity:0.4;" x="0" xlink:href="#m07fc1af1b8" y="504"/>
    </g>
   </g>
   <g id="PolyCollection_47">
    <defs>
     <path d="M 220.588434 -189.317369 
L 220.588434 -171.374716 
L 225.390278 -171.374716 
L 225.390278 -189.317369 
L 225.390278 -189.317369 
L 220.588434 -189.317369 
z
" id="m9c1128a063" style="stroke:#ff7f0e;stroke-opacity:0.55;"/>
    </defs>
    <g clip-path="url(#pe863c02714)">
     <use style="fill:#ff7f0e;fill-opacity:0.55;stroke:#ff7f0e;stroke-opacity:0.55;" x="0" xlink:href="#m9c1128a063" y="504"/>
    </g>
   </g>
   <g id="PolyCollection_48">
    <defs>
     <path d="M 326.229013 -174.365158 
L 326.229013 -156.422504 
L 331.030857 -156.422504 
L 331.030857 -174.365158 
L 331.030857 -174.365158 
L 326.229013 -174.365158 
z
" id="mb9ecb1202d" style="stroke:#ff7f0e;stroke-opacity:0.55;"/>
    </defs>
    <g clip-path="url(#pe863c02714)">
     <use style="fill:#ff7f0e;fill-opacity:0.55;stroke:#ff7f0e;stroke-opacity:0.55;" x="0" xlink:href="#mb9ecb1202d" y="504"/>
    </g>
   </g>
   <g id="PolyCollection_49">
    <defs>
     <path d="M 335.832702 -159.412947 
L 335.832702 -141.470293 
L 340.634546 -141.470293 
L 340.634546 -159.412947 
L 340.634546 -159.412947 
L 335.832702 -159.412947 
z
" id="mabeb8c237c" style="stroke:#ff7f0e;stroke-opacity:0.55;"/>
    </defs>
    <g clip-path="url(#pe863c02714)">
     <use style="fill:#ff7f0e;fill-opacity:0.55;stroke:#ff7f0e;stroke-opacity:0.55;" x="0" xlink:href="#mabeb8c237c" y="504"/>
    </g>
   </g>
   <g id="PolyCollection_50">
    <defs>
     <path d="M 340.634546 -150.57619 
L 340.634546 -150.30705 
L 345.436391 -150.30705 
L 345.436391 -150.57619 
L 345.436391 -150.57619 
L 340.634546 -150.57619 
z
" id="m82cb113033" style="stroke:#808080;stroke-opacity:0.4;"/>
    </defs>
    <g clip-path="url(#pe863c02714)">
     <use style="fill:#808080;fill-opacity:0.4;stroke:#808080;stroke-opacity:0.4;" x="0" xlink:href="#m82cb113033" y="504"/>
    </g>
   </g>
   <g id="PolyCollection_51">
    <defs>
     <path d="M 345.436391 -150.57619 
L 345.436391 -150.30705 
L 350.238235 -150.30705 
L 350.238235 -150.57619 
L 350.238235 -150.57619 
L 345.436391 -150.57619 
z
" id="mdefa071718" style="stroke:#808080;stroke-opacity:0.4;"/>
    </defs>
    <g clip-path="url(#pe863c02714)">
     <use style="fill:#808080;fill-opacity:0.4;stroke:#808080;stroke-opacity:0.4;" x="0" xlink:href="#mdefa071718" y="504"/>
    </g>
   </g>
   <g id="PolyCollection_52">
    <defs>
     <path d="M 350.238235 -159.412947 
L 350.238235 -141.470293 
L 355.04008 -141.470293 
L 355.04008 -159.412947 
L 355.04008 -159.412947 
L 350.238235 -159.412947 
z
" id="m4798119bcb" style="stroke:#ff7f0e;stroke-opacity:0.55;"/>
    </defs>
    <g clip-path="url(#pe863c02714)">
     <use style="fill:#ff7f0e;fill-opacity:0.55;stroke:#ff7f0e;stroke-opacity:0.55;" x="0" xlink:href="#m4798119bcb" y="504"/>
    </g>
   </g>
   <g id="PolyCollection_53">
    <defs>
     <path d="M 345.436391 -144.460736 
L 345.436391 -126.518082 
L 350.238235 -126.518082 
L 350.238235 -144.460736 
L 350.238235 -144.460736 
L 345.436391 -144.460736 
z
" id="m8e69f1afaa" style="stroke:#ff7f0e;stroke-opacity:0.55;"/>
    </defs>
    <g clip-path="url(#pe863c02714)">
     <use style="fill:#ff7f0e;fill-opacity:0.55;stroke:#ff7f0e;stroke-opacity:0.55;" x="0" xlink:href="#m8e69f1afaa" y="504"/>
    </g>
   </g>
   <g id="PolyCollection_54">
    <defs>
     <path d="M 100.542322 -129.508524 
L 100.542322 -111.565871 
L 105.344166 -111.565871 
L 105.344166 -129.508524 
L 105.344166 -129.508524 
L 100.542322 -129.508524 
z
" id="m2c792c33ea" style="stroke:#ff7f0e;stroke-opacity:0.55;"/>
    </defs>
    <g clip-path="url(#pe863c02714)">
     <use style="fill:#ff7f0e;fill-opacity:0.55;stroke:#ff7f0e;stroke-opacity:0.55;" x="0" xlink:href="#m2c792c33ea" y="504"/>
    </g>
   </g>
   <g id="PolyCollection_55">
    <defs>
     <path d="M 105.344166 -114.556313 
L 105.344166 -96.61366 
L 110.146011 -96.61366 
L 110.146011 -114.556313 
L 110.146011 -114.556313 
L 105.344166 -114.556313 
z
" id="me6ce0f9ced" style="stroke:#1f77b4;stroke-opacity:0.55;"/>
    </defs>
    <g clip-path="url(#pe863c02714)">
     <use style="fill:#1f77b4;fill-opacity:0.55;stroke:#1f77b4;stroke-opacity:0.55;" x="0" xlink:href="#me6ce0f9ced" y="504"/>
    </g>
   </g>
   <g id="PolyCollection_56">
    <defs>
     <path d="M 105.344166 -99.604102 
L 105.344166 -81.661449 
L 110.146011 -81.661449 
L 110.146011 -99.604102 
L 110.146011 -99.604102 
L 105.344166 -99.604102 
z
" id="m7b18347f4a" style="stroke:#1f77b4;stroke-opacity:0.55;"/>
    </defs>
    <g clip-path="url(#pe863c02714)">
     <use style="fill:#1f77b4;fill-opacity:0.55;stroke:#1f77b4;stroke-opacity:0.55;" x="0" xlink:href="#m7b18347f4a" y="504"/>
    </g>
   </g>
   <g id="PolyCollection_57">
    <defs>
     <path d="M 311.823479 -84.651891 
L 311.823479 -66.709238 
L 316.625324 -66.709238 
L 316.625324 -84.651891 
L 316.625324 -84.651891 
L 311.823479 -84.651891 
z
" id="mc1683d61b4" style="stroke:#ff7f0e;stroke-opacity:0.55;"/>
    </defs>
    <g clip-path="url(#pe863c02714)">
     <use style="fill:#ff7f0e;fill-opacity:0.55;stroke:#ff7f0e;stroke-opacity:0.55;" x="0" xlink:href="#mc1683d61b4" y="504"/>
    </g>
   </g>
   <g id="patch_3">
    <path d="M 82.295313 439.533594 
L 82.295313 43.3 
" style="fill:none;stroke:#262626;stroke-linecap:square;stroke-linejoin:miter;stroke-width:0.8;"/>
   </g>
   <g id="patch_4">
    <path d="M 82.295313 439.533594 
L 406.9 439.533594 
" style="fill:none;stroke:#262626;stroke-linecap:square;stroke-linejoin:miter;stroke-width:0.8;"/>
   </g>
   <g id="text_15">
    <text style="font-family:Lato;font-size:6px;font-style:normal;font-weight:bold;opacity:0.55;text-anchor:start;" transform="rotate(-0, 387.45253, 46.290442)" x="387.45253" y="46.290442">index</text>
   </g>
   <g id="text_16">
    <text style="font-family:Lato;font-size:6px;font-style:normal;font-weight:bold;opacity:0.55;text-anchor:start;" transform="rotate(-0, 414.102767, 46.290442)" x="414.102767" y="46.290442">size</text>
   </g>
   <g id="text_17">
    <text style="font-family:Lato;font-size:6px;font-style:normal;font-weight:bold;opacity:0.55;text-anchor:start;" transform="rotate(-0, 401.858063, 54.514158)" x="401.858063" y="54.514158">135</text>
   </g>
   <g id="text_18">
    <text style="font-family:Lato;font-size:6px;font-style:normal;font-weight:bold;opacity:0.55;text-anchor:start;" transform="rotate(-0, 417.464058, 54.514158)" x="417.464058" y="54.514158">2</text>
   </g>
   <g id="text_19">
    <text style="font-family:Lato;font-size:6px;font-style:normal;font-weight:bold;opacity:0.55;text-anchor:start;" transform="rotate(-0, 401.858063, 69.466369)" x="401.858063" y="69.466369">136</text>
   </g>
   <g id="text_20">
    <text style="font-family:Lato;font-size:6px;font-style:normal;font-weight:bold;opacity:0.55;text-anchor:start;" transform="rotate(-0, 417.464058, 69.466369)" x="417.464058" y="69.466369">2</text>
   </g>
   <g id="text_21">
    <text style="font-family:Lato;font-size:6px;font-style:normal;font-weight:bold;opacity:0.55;text-anchor:start;" transform="rotate(-0, 401.858063, 84.41858)" x="401.858063" y="84.41858">138</text>
   </g>
   <g id="text_22">
    <text style="font-family:Lato;font-size:6px;font-style:normal;font-weight:bold;opacity:0.55;text-anchor:start;" transform="rotate(-0, 417.464058, 84.41858)" x="417.464058" y="84.41858">2</text>
   </g>
   <g id="text_23">
    <text style="font-family:Lato;font-size:6px;font-style:normal;font-weight:bold;opacity:0.55;text-anchor:start;" transform="rotate(-0, 401.858063, 99.370792)" x="401.858063" y="99.370792">145</text>
   </g>
   <g id="text_24">
    <text style="font-family:Lato;font-size:6px;font-style:normal;font-weight:bold;opacity:0.55;text-anchor:start;" transform="rotate(-0, 417.464058, 99.370792)" x="417.464058" y="99.370792">2</text>
   </g>
   <g id="text_25">
    <text style="font-family:Lato;font-size:6px;font-style:normal;font-weight:bold;opacity:0.55;text-anchor:start;" transform="rotate(-0, 401.858063, 114.323003)" x="401.858063" y="114.323003">128</text>
   </g>
   <g id="text_26">
    <text style="font-family:Lato;font-size:6px;font-style:normal;font-weight:bold;opacity:0.55;text-anchor:start;" transform="rotate(-0, 417.464058, 114.323003)" x="417.464058" y="114.323003">2</text>
   </g>
   <g id="text_27">
    <text style="font-family:Lato;font-size:6px;font-style:normal;font-weight:bold;opacity:0.55;text-anchor:start;" transform="rotate(-0, 401.858063, 129.275214)" x="401.858063" y="129.275214">134</text>
   </g>
   <g id="text_28">
    <text style="font-family:Lato;font-size:6px;font-style:normal;font-weight:bold;opacity:0.55;text-anchor:start;" transform="rotate(-0, 417.464058, 129.275214)" x="417.464058" y="129.275214">2</text>
   </g>
   <g id="text_29">
    <text style="font-family:Lato;font-size:6px;font-style:normal;font-weight:bold;opacity:0.55;text-anchor:start;" transform="rotate(-0, 401.858063, 144.227425)" x="401.858063" y="144.227425">144</text>
   </g>
   <g id="text_30">
    <text style="font-family:Lato;font-size:6px;font-style:normal;font-weight:bold;opacity:0.55;text-anchor:start;" transform="rotate(-0, 417.464058, 144.227425)" x="417.464058" y="144.227425">2</text>
   </g>
   <g id="text_31">
    <text style="font-family:Lato;font-size:6px;font-style:normal;font-weight:bold;opacity:0.55;text-anchor:start;" transform="rotate(-0, 401.858063, 159.179636)" x="401.858063" y="159.179636">127</text>
   </g>
   <g id="text_32">
    <text style="font-family:Lato;font-size:6px;font-style:normal;font-weight:bold;opacity:0.55;text-anchor:start;" transform="rotate(-0, 417.464058, 159.179636)" x="417.464058" y="159.179636">2</text>
   </g>
   <g id="text_33">
    <text style="font-family:Lato;font-size:6px;font-style:normal;font-weight:bold;opacity:0.55;text-anchor:start;" transform="rotate(-0, 401.858063, 174.131847)" x="401.858063" y="174.131847">137</text>
   </g>
   <g id="text_34">
    <text style="font-family:Lato;font-size:6px;font-style:normal;font-weight:bold;opacity:0.55;text-anchor:start;" transform="rotate(-0, 417.464058, 174.131847)" x="417.464058" y="174.131847">2</text>
   </g>
   <g id="text_35">
    <text style="font-family:Lato;font-size:6px;font-style:normal;font-weight:bold;opacity:0.55;text-anchor:start;" transform="rotate(-0, 401.858063, 189.084058)" x="401.858063" y="189.084058">141</text>
   </g>
   <g id="text_36">
    <text style="font-family:Lato;font-size:6px;font-style:normal;font-weight:bold;opacity:0.55;text-anchor:start;" transform="rotate(-0, 417.464058, 189.084058)" x="417.464058" y="189.084058">2</text>
   </g>
   <g id="text_37">
    <text style="font-family:Lato;font-size:6px;font-style:normal;font-weight:bold;opacity:0.55;text-anchor:start;" transform="rotate(-0, 401.858063, 204.036269)" x="401.858063" y="204.036269">142</text>
   </g>
   <g id="text_38">
    <text style="font-family:Lato;font-size:6px;font-style:normal;font-weight:bold;opacity:0.55;text-anchor:start;" transform="rotate(-0, 417.464058, 204.036269)" x="417.464058" y="204.036269">2</text>
   </g>
   <g id="text_39">
    <text style="font-family:Lato;font-size:6px;font-style:normal;font-weight:bold;opacity:0.55;text-anchor:start;" transform="rotate(-0, 401.858063, 218.98848)" x="401.858063" y="218.98848">139</text>
   </g>
   <g id="text_40">
    <text style="font-family:Lato;font-size:6px;font-style:normal;font-weight:bold;opacity:0.55;text-anchor:start;" transform="rotate(-0, 417.464058, 218.98848)" x="417.464058" y="218.98848">2</text>
   </g>
   <g id="text_41">
    <text style="font-family:Lato;font-size:6px;font-style:normal;font-weight:bold;opacity:0.55;text-anchor:start;" transform="rotate(-0, 401.858063, 233.940691)" x="401.858063" y="233.940691">132</text>
   </g>
   <g id="text_42">
    <text style="font-family:Lato;font-size:6px;font-style:normal;font-weight:bold;opacity:0.55;text-anchor:start;" transform="rotate(-0, 417.464058, 233.940691)" x="417.464058" y="233.940691">2</text>
   </g>
   <g id="text_43">
    <text style="font-family:Lato;font-size:6px;font-style:normal;font-weight:bold;opacity:0.55;text-anchor:start;" transform="rotate(-0, 401.858063, 248.892902)" x="401.858063" y="248.892902">123</text>
   </g>
   <g id="text_44">
    <text style="font-family:Lato;font-size:6px;font-style:normal;font-weight:bold;opacity:0.55;text-anchor:start;" transform="rotate(-0, 417.464058, 248.892902)" x="417.464058" y="248.892902">2</text>
   </g>
   <g id="text_45">
    <text style="font-family:Lato;font-size:6px;font-style:normal;font-weight:bold;opacity:0.55;text-anchor:start;" transform="rotate(-0, 401.858063, 263.845114)" x="401.858063" y="263.845114">130</text>
   </g>
   <g id="text_46">
    <text style="font-family:Lato;font-size:6px;font-style:normal;font-weight:bold;opacity:0.55;text-anchor:start;" transform="rotate(-0, 417.464058, 263.845114)" x="417.464058" y="263.845114">2</text>
   </g>
   <g id="text_47">
    <text style="font-family:Lato;font-size:6px;font-style:normal;font-weight:bold;opacity:0.55;text-anchor:start;" transform="rotate(-0, 401.858063, 278.797325)" x="401.858063" y="278.797325">129</text>
   </g>
   <g id="text_48">
    <text style="font-family:Lato;font-size:6px;font-style:normal;font-weight:bold;opacity:0.55;text-anchor:start;" transform="rotate(-0, 417.464058, 278.797325)" x="417.464058" y="278.797325">2</text>
   </g>
   <g id="text_49">
    <text style="font-family:Lato;font-size:6px;font-style:normal;font-weight:bold;opacity:0.55;text-anchor:start;" transform="rotate(-0, 401.858063, 293.749536)" x="401.858063" y="293.749536">122</text>
   </g>
   <g id="text_50">
    <text style="font-family:Lato;font-size:6px;font-style:normal;font-weight:bold;opacity:0.55;text-anchor:start;" transform="rotate(-0, 417.464058, 293.749536)" x="417.464058" y="293.749536">2</text>
   </g>
   <g id="text_51">
    <text style="font-family:Lato;font-size:6px;font-style:normal;font-weight:bold;opacity:0.55;text-anchor:start;" transform="rotate(-0, 401.858063, 308.701747)" x="401.858063" y="308.701747">143</text>
   </g>
   <g id="text_52">
    <text style="font-family:Lato;font-size:6px;font-style:normal;font-weight:bold;opacity:0.55;text-anchor:start;" transform="rotate(-0, 417.464058, 308.701747)" x="417.464058" y="308.701747">2</text>
   </g>
   <g id="text_53">
    <text style="font-family:Lato;font-size:6px;font-style:normal;font-weight:bold;opacity:0.55;text-anchor:start;" transform="rotate(-0, 401.858063, 323.653958)" x="401.858063" y="323.653958">124</text>
   </g>
   <g id="text_54">
    <text style="font-family:Lato;font-size:6px;font-style:normal;font-weight:bold;opacity:0.55;text-anchor:start;" transform="rotate(-0, 417.464058, 323.653958)" x="417.464058" y="323.653958">2</text>
   </g>
   <g id="text_55">
    <text style="font-family:Lato;font-size:6px;font-style:normal;font-weight:bold;opacity:0.55;text-anchor:start;" transform="rotate(-0, 401.858063, 338.606169)" x="401.858063" y="338.606169">131</text>
   </g>
   <g id="text_56">
    <text style="font-family:Lato;font-size:6px;font-style:normal;font-weight:bold;opacity:0.55;text-anchor:start;" transform="rotate(-0, 417.464058, 338.606169)" x="417.464058" y="338.606169">2</text>
   </g>
   <g id="text_57">
    <text style="font-family:Lato;font-size:6px;font-style:normal;font-weight:bold;opacity:0.55;text-anchor:start;" transform="rotate(-0, 401.858063, 353.55838)" x="401.858063" y="353.55838">126</text>
   </g>
   <g id="text_58">
    <text style="font-family:Lato;font-size:6px;font-style:normal;font-weight:bold;opacity:0.55;text-anchor:start;" transform="rotate(-0, 417.464058, 353.55838)" x="417.464058" y="353.55838">2</text>
   </g>
   <g id="text_59">
    <text style="font-family:Lato;font-size:6px;font-style:normal;font-weight:bold;opacity:0.55;text-anchor:start;" transform="rotate(-0, 401.858063, 368.510591)" x="401.858063" y="368.510591">120</text>
   </g>
   <g id="text_60">
    <text style="font-family:Lato;font-size:6px;font-style:normal;font-weight:bold;opacity:0.55;text-anchor:start;" transform="rotate(-0, 417.464058, 368.510591)" x="417.464058" y="368.510591">2</text>
   </g>
   <g id="text_61">
    <text style="font-family:Lato;font-size:6px;font-style:normal;font-weight:bold;opacity:0.55;text-anchor:start;" transform="rotate(-0, 401.858063, 383.462802)" x="401.858063" y="383.462802">146</text>
   </g>
   <g id="text_62">
    <text style="font-family:Lato;font-size:6px;font-style:normal;font-weight:bold;opacity:0.55;text-anchor:start;" transform="rotate(-0, 417.464058, 383.462802)" x="417.464058" y="383.462802">1</text>
   </g>
   <g id="text_63">
    <text style="font-family:Lato;font-size:6px;font-style:normal;font-weight:bold;opacity:0.55;text-anchor:start;" transform="rotate(-0, 401.858063, 398.415013)" x="401.858063" y="398.415013">147</text>
   </g>
   <g id="text_64">
    <text style="font-family:Lato;font-size:6px;font-style:normal;font-weight:bold;opacity:0.55;text-anchor:start;" transform="rotate(-0, 417.464058, 398.415013)" x="417.464058" y="398.415013">1</text>
   </g>
   <g id="text_65">
    <text style="font-family:Lato;font-size:6px;font-style:normal;font-weight:bold;opacity:0.55;text-anchor:start;" transform="rotate(-0, 401.858063, 413.367224)" x="401.858063" y="413.367224">149</text>
   </g>
   <g id="text_66">
    <text style="font-family:Lato;font-size:6px;font-style:normal;font-weight:bold;opacity:0.55;text-anchor:start;" transform="rotate(-0, 417.464058, 413.367224)" x="417.464058" y="413.367224">1</text>
   </g>
   <g id="text_67">
    <text style="font-family:Lato;font-size:6px;font-style:normal;font-weight:bold;opacity:0.55;text-anchor:start;" transform="rotate(-0, 401.858063, 428.319435)" x="401.858063" y="428.319435">148</text>
   </g>
   <g id="text_68">
    <text style="font-family:Lato;font-size:6px;font-style:normal;font-weight:bold;opacity:0.55;text-anchor:start;" transform="rotate(-0, 417.464058, 428.319435)" x="417.464058" y="428.319435">1</text>
   </g>
   <g id="text_69">
    <text style="fill:#262626;font-family:Lato;font-size:20px;font-style:normal;font-weight:bold;text-anchor:middle;" transform="rotate(-0, 244.597656, 37.3)" x="244.597656" y="37.3">per-family SHM (5 / 8)</text>
   </g>
  </g>
 </g>
 <defs>
  <clipPath id="pe863c02714">
   <rect height="396.233594" width="324.604688" x="82.295313" y="43.3"/>
  </clipPath>
 </defs>
</svg>
