<?xml version="1.0" encoding="utf-8" standalone="no"?>
<!DOCTYPE svg PUBLIC "-//W3C//DTD SVG 1.1//EN"
  "http://www.w3.org/Graphics/SVG/1.1/DTD/svg11.dtd">
<!-- Created with matplotlib (http://matplotlib.org/) -->
<svg height="345.6pt" version="1.1" viewBox="0 0 460.8 345.6" width="460.8pt" xmlns="http://www.w3.org/2000/svg" xmlns:xlink="http://www.w3.org/1999/xlink">
 <defs>
  <style type="text/css">
*{stroke-linecap:butt;stroke-linejoin:round;}
  </style>
 </defs>
 <g id="figure_1">
  <g id="patch_1">
   <path d="M 0 345.6 
L 460.8 345.6 
L 460.8 0 
L 0 0 
z
" style="fill:#ffffff;"/>
  </g>
  <g id="axes_1">
   <g id="patch_2">
    <path d="M 92.16 276.48 
L 437.76 276.48 
L 437.76 27.648 
L 92.16 27.648 
z
" style="fill:#ffffff;"/>
   </g>
   <g id="matplotlib.axis_1">
    <g id="xtick_1">
     <g id="line2d_1">
      <defs>
       <path d="M 0 0 
L 0 3.5 
" id="m7f1f3469d3" style="stroke:#262626;stroke-width:0.8;"/>
      </defs>
      <g>
       <use style="fill:#262626;stroke:#262626;stroke-width:0.8;" x="101.76" xlink:href="#m7f1f3469d3" y="276.48"/>
      </g>
     </g>
     <g id="text_1">
      <text style="fill:#262626;font-family:DejaVu Sans;font-size:20px;font-style:normal;font-weight:normal;text-anchor:middle;" transform="rotate(-0, 101.76, 298.676875)" x="101.76" y="298.676875">0</text>
     </g>
    </g>
    <g id="xtick_2">
     <g id="line2d_2">
      <g>
       <use style="fill:#262626;stroke:#262626;stroke-width:0.8;" x="197.76" xlink:href="#m7f1f3469d3" y="276.48"/>
      </g>
     </g>
     <g id="text_2">
      <text style="fill:#262626;font-family:DejaVu Sans;font-size:20px;font-style:normal;font-weight:normal;text-anchor:middle;" transform="rotate(-0, 197.76, 298.676875)" x="197.76" y="298.676875">5</text>
     </g>
    </g>
    <g id="xtick_3">
     <g id="line2d_3">
      <g>
       <use style="fill:#262626;stroke:#262626;stroke-width:0.8;" x="293.76" xlink:href="#m7f1f3469d3" y="276.48"/>
      </g>
     </g>
     <g id="text_3">
      <text style="fill:#262626;font-family:DejaVu Sans;font-size:20px;font-style:normal;font-weight:normal;text-anchor:middle;" transform="rotate(-0, 293.76, 298.676875)" x="293.76" y="298.676875">10</text>
     </g>
    </g>
    <g id="xtick_4">
     <g id="line2d_4">
      <g>
       <use style="fill:#262626;stroke:#262626;stroke-width:0.8;" x="389.76" xlink:href="#m7f1f3469d3" y="276.48"/>
      </g>
     </g>
     <g id="text_4">
      <text style="fill:#262626;font-family:DejaVu Sans;font-size:20px;font-style:normal;font-weight:normal;text-anchor:middle;" transform="rotate(-0, 389.76, 298.676875)" x="389.76" y="298.676875">15</text>
     </g>
    </g>
    <g id="text_5">
     <text style="fill:#262626;font-family:DejaVu Sans;font-size:20px;font-style:normal;font-weight:normal;text-anchor:middle;" transform="rotate(-0, 264.96, 322.033125)" x="264.96" y="322.033125">bases</text>
    </g>
   </g>
   <g id="matplotlib.axis_2">
    <g id="ytick_1">
     <g id="line2d_5">
      <defs>
       <path d="M 0 0 
L -3.5 0 
" id="maf3236a6d5" style="stroke:#262626;stroke-width:0.8;"/>
      </defs>
      <g>
       <use style="fill:#262626;stroke:#262626;stroke-width:0.8;" x="92.16" xlink:href="#maf3236a6d5" y="270.153763"/>
      </g>
     </g>
     <g id="text_6">
      <text style="fill:#262626;font-family:DejaVu Sans;font-size:20px;font-style:normal;font-weight:normal;text-anchor:end;" transform="rotate(-0, 85.16, 277.7522)" x="85.16" y="277.7522">0.0</text>
     </g>
    </g>
    <g id="ytick_2">
     <g id="line2d_6">
      <g>
       <use style="fill:#262626;stroke:#262626;stroke-width:0.8;" x="92.16" xlink:href="#maf3236a6d5" y="197.186781"/>
      </g>
     </g>
     <g id="text_7">
      <text style="fill:#262626;font-family:DejaVu Sans;font-size:20px;font-style:normal;font-weight:normal;text-anchor:end;" transform="rotate(-0, 85.16, 204.785219)" x="85.16" y="204.785219">0.2</text>
     </g>
    </g>
    <g id="ytick_3">
     <g id="line2d_7">
      <g>
       <use style="fill:#262626;stroke:#262626;stroke-width:0.8;" x="92.16" xlink:href="#maf3236a6d5" y="124.2198"/>
      </g>
     </g>
     <g id="text_8">
      <text style="fill:#262626;font-family:DejaVu Sans;font-size:20px;font-style:normal;font-weight:normal;text-anchor:end;" transform="rotate(-0, 85.16, 131.818237)" x="85.16" y="131.818237">0.4</text>
     </g>
    </g>
    <g id="ytick_4">
     <g id="line2d_8">
      <g>
       <use style="fill:#262626;stroke:#262626;stroke-width:0.8;" x="92.16" xlink:href="#maf3236a6d5" y="51.252818"/>
      </g>
     </g>
     <g id="text_9">
      <text style="fill:#262626;font-family:DejaVu Sans;font-size:20px;font-style:normal;font-weight:normal;text-anchor:end;" transform="rotate(-0, 85.16, 58.851256)" x="85.16" y="58.851256">0.6</text>
     </g>
    </g>
    <g id="text_10">
     <text style="fill:#262626;font-family:DejaVu Sans;font-size:20px;font-style:normal;font-weight:normal;text-anchor:middle;" transform="rotate(-90, 45.194375, 152.064)" x="45.194375" y="152.064">freq (3000 total)</text>
    </g>
   </g>
   <g id="LineCollection_1">
    <path clip-path="url(#pab219d0852)" d="M 101.76 192.77585 
L 101.76 186.51787 
" style="fill:none;stroke:#4169e1;stroke-width:3;"/>
    <path clip-path="url(#pab219d0852)" d="M 120.96 256.892555 
L 120.96 254.228178 
" style="fill:none;stroke:#4169e1;stroke-width:3;"/>
    <path clip-path="url(#pab219d0852)" d="M 140.16 259.55517 
L 140.16 257.159698 
" style="fill:none;stroke:#4169e1;stroke-width:3;"/>
    <path clip-path="url(#pab219d0852)" d="M 159.36 261.167932 
L 159.36 258.952062 
" style="fill:none;stroke:#4169e1;stroke-width:3;"/>
    <path clip-path="url(#pab219d0852)" d="M 178.56 255.847104 
L 178.56 253.084619 
" style="fill:none;stroke:#4169e1;stroke-width:3;"/>
    <path clip-path="url(#pab219d0852)" d="M 197.76 269.322216 
L 197.76 268.553077 
" style="fill:none;stroke:#4169e1;stroke-width:3;"/>
    <path clip-path="url(#pab219d0852)" d="M 216.96 270.153763 
L 216.96 269.910539 
" style="fill:none;stroke:#4169e1;stroke-width:3;"/>
    <path clip-path="url(#pab219d0852)" d="M 236.16 270.082524 
L 236.16 269.738555 
" style="fill:none;stroke:#4169e1;stroke-width:3;"/>
    <path clip-path="url(#pab219d0852)" d="M 255.36 269.624235 
L 255.36 268.980727 
" style="fill:none;stroke:#4169e1;stroke-width:3;"/>
    <path clip-path="url(#pab219d0852)" d="M 274.56 270.082524 
L 274.56 269.738555 
" style="fill:none;stroke:#4169e1;stroke-width:3;"/>
    <path clip-path="url(#pab219d0852)" d="M 293.76 260.592757 
L 293.76 258.311121 
" style="fill:none;stroke:#4169e1;stroke-width:3;"/>
    <path clip-path="url(#pab219d0852)" d="M 312.96 270.153763 
L 312.96 269.910539 
" style="fill:none;stroke:#4169e1;stroke-width:3;"/>
    <path clip-path="url(#pab219d0852)" d="M 332.16 268.694423 
L 332.16 267.72153 
" style="fill:none;stroke:#4169e1;stroke-width:3;"/>
    <path clip-path="url(#pab219d0852)" d="M 351.36 268.587783 
L 351.36 267.584947 
" style="fill:none;stroke:#4169e1;stroke-width:3;"/>
    <path clip-path="url(#pab219d0852)" d="M 370.56 268.265394 
L 370.56 267.177666 
" style="fill:none;stroke:#4169e1;stroke-width:3;"/>
    <path clip-path="url(#pab219d0852)" d="M 389.76 64.343256 
L 389.76 54.215117 
" style="fill:none;stroke:#4169e1;stroke-width:3;"/>
    <path clip-path="url(#pab219d0852)" d="M 408.96 269.322216 
L 408.96 268.553077 
" style="fill:none;stroke:#4169e1;stroke-width:3;"/>
    <path clip-path="url(#pab219d0852)" d="M 428.16 270.153763 
L 428.16 269.910539 
" style="fill:none;stroke:#4169e1;stroke-width:3;"/>
   </g>
   <g id="line2d_9">
    <path clip-path="url(#pab219d0852)" d="M 101.76 189.64686 
L 120.96 255.560366 
L 140.16 258.357434 
L 159.36 260.059997 
L 178.56 254.465862 
L 197.76 268.937646 
L 216.96 270.032151 
L 236.16 269.910539 
L 255.36 269.302481 
L 274.56 269.910539 
L 293.76 259.451939 
L 312.96 270.032151 
L 332.16 268.207977 
L 351.36 268.086365 
L 370.56 267.72153 
L 389.76 59.279186 
L 408.96 268.937646 
L 428.16 270.032151 
" style="fill:none;stroke:#4169e1;stroke-linecap:round;stroke-width:3;"/>
    <defs>
     <path d="M 0 3.25 
C 0.86191 3.25 1.688635 2.907559 2.298097 2.298097 
C 2.907559 1.688635 3.25 0.86191 3.25 0 
C 3.25 -0.86191 2.907559 -1.688635 2.298097 -2.298097 
C 1.688635 -2.907559 0.86191 -3.25 0 -3.25 
C -0.86191 -3.25 -1.688635 -2.907559 -2.298097 -2.298097 
C -2.907559 -1.688635 -3.25 -0.86191 -3.25 0 
C -3.25 0.86191 -2.907559 1.688635 -2.298097 2.298097 
C -1.688635 2.907559 -0.86191 3.25 0 3.25 
z
" id="mf6a5b10897" style="stroke:#4169e1;"/>
    </defs>
    <g clip-path="url(#pab219d0852)">
     <use style="fill:#4169e1;stroke:#4169e1;" x="101.76" xlink:href="#mf6a5b10897" y="189.64686"/>
     <use style="fill:#4169e1;stroke:#4169e1;" x="120.96" xlink:href="#mf6a5b10897" y="255.560366"/>
     <use style="fill:#4169e1;stroke:#4169e1;" x="140.16" xlink:href="#mf6a5b10897" y="258.357434"/>
     <use style="fill:#4169e1;stroke:#4169e1;" x="159.36" xlink:href="#mf6a5b10897" y="260.059997"/>
     <use style="fill:#4169e1;stroke:#4169e1;" x="178.56" xlink:href="#mf6a5b10897" y="254.465862"/>
     <use style="fill:#4169e1;stroke:#4169e1;" x="197.76" xlink:href="#mf6a5b10897" y="268.937646"/>
     <use style="fill:#4169e1;stroke:#4169e1;" x="216.96" xlink:href="#mf6a5b10897" y="270.032151"/>
     <use style="fill:#4169e1;stroke:#4169e1;" x="236.16" xlink:href="#mf6a5b10897" y="269.910539"/>
     <use style="fill:#4169e1;stroke:#4169e1;" x="255.36" xlink:href="#mf6a5b10897" y="269.302481"/>
     <use style="fill:#4169e1;stroke:#4169e1;" x="274.56" xlink:href="#mf6a5b10897" y="269.910539"/>
     <use style="fill:#4169e1;stroke:#4169e1;" x="293.76" xlink:href="#mf6a5b10897" y="259.451939"/>
     <use style="fill:#4169e1;stroke:#4169e1;" x="312.96" xlink:href="#mf6a5b10897" y="270.032151"/>
     <use style="fill:#4169e1;stroke:#4169e1;" x="332.16" xlink:href="#mf6a5b10897" y="268.207977"/>
     <use style="fill:#4169e1;stroke:#4169e1;" x="351.36" xlink:href="#mf6a5b10897" y="268.086365"/>
     <use style="fill:#4169e1;stroke:#4169e1;" x="370.56" xlink:href="#mf6a5b10897" y="267.72153"/>
     <use style="fill:#4169e1;stroke:#4169e1;" x="389.76" xlink:href="#mf6a5b10897" y="59.279186"/>
     <use style="fill:#4169e1;stroke:#4169e1;" x="408.96" xlink:href="#mf6a5b10897" y="268.937646"/>
     <use style="fill:#4169e1;stroke:#4169e1;" x="428.16" xlink:href="#mf6a5b10897" y="270.032151"/>
    </g>
   </g>
   <g id="patch_3">
    <path d="M 92.16 276.48 
L 92.16 27.648 
" style="fill:none;stroke:#262626;stroke-linecap:square;stroke-linejoin:miter;stroke-width:0.8;"/>
   </g>
   <g id="patch_4">
    <path d="M 92.16 276.48 
L 437.76 276.48 
" style="fill:none;stroke:#262626;stroke-linecap:square;stroke-linejoin:miter;stroke-width:0.8;"/>
   </g>
   <g id="text_11">
    <text style="fill:#262626;font-family:DejaVu Sans;font-size:20px;font-style:normal;font-weight:bold;text-anchor:middle;" transform="rotate(-0, 264.96, 21.648)" x="264.96" y="21.648">D 3' deletion</text>
   </g>
  </g>
 </g>
 <defs>
  <clipPath id="pab219d0852">
   <rect height="248.832" width="345.6" x="92.16" y="27.648"/>
  </clipPath>
 </defs>
</svg>
