<?xml version="1.0" encoding="utf-8" standalone="no"?>
<!DOCTYPE svg PUBLIC "-//W3C//DTD SVG 1.1//EN"
  "http://www.w3.org/Graphics/SVG/1.1/DTD/svg11.dtd">
<!-- Created with matplotlib (http://matplotlib.org/) -->
<svg height="345.6pt" version="1.1" viewBox="0 0 460.8 345.6" width="460.8pt" xmlns="http://www.w3.org/2000/svg" xmlns:xlink="http://www.w3.org/1999/xlink">
 <defs>
  <style type="text/css">
*{stroke-linecap:butt;stroke-linejoin:round;}
  </style>
 </defs>
 <g id="figure_1">
  <g id="patch_1">
   <path d="M 0 345.6 
L 460.8 345.6 
L 460.8 0 
L 0 0 
z
" style="fill:#ffffff;"/>
  </g>
  <g id="axes_1">
   <g id="patch_2">
    <path d="M 92.16 276.48 
L 437.76 276.48 
L 437.76 27.648 
L 92.16 27.648 
z
" style="fill:#ffffff;"/>
   </g>
   <g id="matplotlib.axis_1">
    <g id="xtick_1">
     <g id="line2d_1">
      <defs>
       <path d="M 0 0 
L 0 3.5 
" id="m1a3ff78848" style="stroke:#262626;stroke-width:0.8;"/>
      </defs>
      <g>
       <use style="fill:#262626;stroke:#262626;stroke-width:0.8;" x="107.869091" xlink:href="#m1a3ff78848" y="276.48"/>
      </g>
     </g>
     <g id="text_1">
      <text style="fill:#262626;font-family:DejaVu Sans;font-size:20px;font-style:normal;font-weight:normal;text-anchor:middle;" transform="rotate(-0, 107.869091, 298.676875)" x="107.869091" y="298.676875">0.0</text>
     </g>
    </g>
    <g id="xtick_2">
     <g id="line2d_2">
      <g>
       <use style="fill:#262626;stroke:#262626;stroke-width:0.8;" x="186.414545" xlink:href="#m1a3ff78848" y="276.48"/>
      </g>
     </g>
     <g id="text_2">
      <text style="fill:#262626;font-family:DejaVu Sans;font-size:20px;font-style:normal;font-weight:normal;text-anchor:middle;" transform="rotate(-0, 186.414545, 298.676875)" x="186.414545" y="298.676875">2.5</text>
     </g>
    </g>
    <g id="xtick_3">
     <g id="line2d_3">
      <g>
       <use style="fill:#262626;stroke:#262626;stroke-width:0.8;" x="264.96" xlink:href="#m1a3ff78848" y="276.48"/>
      </g>
     </g>
     <g id="text_3">
      <text style="fill:#262626;font-family:DejaVu Sans;font-size:20px;font-style:normal;font-weight:normal;text-anchor:middle;" transform="rotate(-0, 264.96, 298.676875)" x="264.96" y="298.676875">5.0</text>
     </g>
    </g>
    <g id="xtick_4">
     <g id="line2d_4">
      <g>
       <use style="fill:#262626;stroke:#262626;stroke-width:0.8;" x="343.505455" xlink:href="#m1a3ff78848" y="276.48"/>
      </g>
     </g>
     <g id="text_4">
      <text style="fill:#262626;font-family:DejaVu Sans;font-size:20px;font-style:normal;font-weight:normal;text-anchor:middle;" transform="rotate(-0, 343.505455, 298.676875)" x="343.505455" y="298.676875">7.5</text>
     </g>
    </g>
    <g id="xtick_5">
     <g id="line2d_5">
      <g>
       <use style="fill:#262626;stroke:#262626;stroke-width:0.8;" x="422.050909" xlink:href="#m1a3ff78848" y="276.48"/>
      </g>
     </g>
     <g id="text_5">
      <text style="fill:#262626;font-family:DejaVu Sans;font-size:20px;font-style:normal;font-weight:normal;text-anchor:middle;" transform="rotate(-0, 422.050909, 298.676875)" x="422.050909" y="298.676875">10.0</text>
     </g>
    </g>
    <g id="text_6">
     <text style="fill:#262626;font-family:DejaVu Sans;font-size:20px;font-style:normal;font-weight:normal;text-anchor:middle;" transform="rotate(-0, 264.96, 322.033125)" x="264.96" y="322.033125">bases</text>
    </g>
   </g>
   <g id="matplotlib.axis_2">
    <g id="ytick_1">
     <g id="line2d_6">
      <defs>
       <path d="M 0 0 
L -3.5 0 
" id="m2b5219e062" style="stroke:#262626;stroke-width:0.8;"/>
      </defs>
      <g>
       <use style="fill:#262626;stroke:#262626;stroke-width:0.8;" x="92.16" xlink:href="#m2b5219e062" y="270.153763"/>
      </g>
     </g>
     <g id="text_7">
      <text style="fill:#262626;font-family:DejaVu Sans;font-size:20px;font-style:normal;font-weight:normal;text-anchor:end;" transform="rotate(-0, 85.16, 277.7522)" x="85.16" y="277.7522">0.0</text>
     </g>
    </g>
    <g id="ytick_2">
     <g id="line2d_7">
      <g>
       <use style="fill:#262626;stroke:#262626;stroke-width:0.8;" x="92.16" xlink:href="#m2b5219e062" y="198.589992"/>
      </g>
     </g>
     <g id="text_8">
      <text style="fill:#262626;font-family:DejaVu Sans;font-size:20px;font-style:normal;font-weight:normal;text-anchor:end;" transform="rotate(-0, 85.16, 206.18843)" x="85.16" y="206.18843">0.2</text>
     </g>
    </g>
    <g id="ytick_3">
     <g id="line2d_8">
      <g>
       <use style="fill:#262626;stroke:#262626;stroke-width:0.8;" x="92.16" xlink:href="#m2b5219e062" y="127.026222"/>
      </g>
     </g>
     <g id="text_9">
      <text style="fill:#262626;font-family:DejaVu Sans;font-size:20px;font-style:normal;font-weight:normal;text-anchor:end;" transform="rotate(-0, 85.16, 134.62466)" x="85.16" y="134.62466">0.4</text>
     </g>
    </g>
    <g id="ytick_4">
     <g id="line2d_9">
      <g>
       <use style="fill:#262626;stroke:#262626;stroke-width:0.8;" x="92.16" xlink:href="#m2b5219e062" y="55.462452"/>
      </g>
     </g>
     <g id="text_10">
      <text style="fill:#262626;font-family:DejaVu Sans;font-size:20px;font-style:normal;font-weight:normal;text-anchor:end;" transform="rotate(-0, 85.16, 63.06089)" x="85.16" y="63.06089">0.6</text>
     </g>
    </g>
    <g id="text_11">
     <text style="fill:#262626;font-family:DejaVu Sans;font-size:20px;font-style:normal;font-weight:normal;text-anchor:middle;" transform="rotate(-90, 45.194375, 152.064)" x="45.194375" y="152.064">freq (3000 total)</text>
    </g>
   </g>
   <g id="LineCollection_1">
    <path clip-path="url(#pb0ddb5d85f)" d="M 107.869091 270.002531 
L 107.869091 269.589357 
" style="fill:none;stroke:#4169e1;stroke-width:3;"/>
    <path clip-path="url(#pb0ddb5d85f)" d="M 139.287273 270.153763 
L 139.287273 270.153763 
" style="fill:none;stroke:#4169e1;stroke-width:3;"/>
    <path clip-path="url(#pb0ddb5d85f)" d="M 170.705455 270.153763 
L 170.705455 270.153763 
" style="fill:none;stroke:#4169e1;stroke-width:3;"/>
    <path clip-path="url(#pb0ddb5d85f)" d="M 202.123636 64.294327 
L 202.123636 54.264046 
" style="fill:none;stroke:#4169e1;stroke-width:3;"/>
    <path clip-path="url(#pb0ddb5d85f)" d="M 233.541818 270.153763 
L 233.541818 269.915217 
" style="fill:none;stroke:#4169e1;stroke-width:3;"/>
    <path clip-path="url(#pb0ddb5d85f)" d="M 264.96 270.153763 
L 264.96 270.153763 
" style="fill:none;stroke:#4169e1;stroke-width:3;"/>
    <path clip-path="url(#pb0ddb5d85f)" d="M 296.378182 149.369202 
L 296.378182 141.657857 
" style="fill:none;stroke:#4169e1;stroke-width:3;"/>
    <path clip-path="url(#pb0ddb5d85f)" d="M 327.796364 270.153763 
L 327.796364 270.153763 
" style="fill:none;stroke:#4169e1;stroke-width:3;"/>
    <path clip-path="url(#pb0ddb5d85f)" d="M 359.214545 270.153763 
L 359.214545 270.153763 
" style="fill:none;stroke:#4169e1;stroke-width:3;"/>
    <path clip-path="url(#pb0ddb5d85f)" d="M 390.632727 250.055166 
L 390.632727 246.837006 
" style="fill:none;stroke:#4169e1;stroke-width:3;"/>
    <path clip-path="url(#pb0ddb5d85f)" d="M 422.050909 270.153763 
L 422.050909 269.915217 
" style="fill:none;stroke:#4169e1;stroke-width:3;"/>
   </g>
   <g id="line2d_10">
    <path clip-path="url(#pb0ddb5d85f)" d="M 107.869091 269.795944 
L 139.287273 270.153763 
L 170.705455 270.153763 
L 202.123636 59.279186 
L 233.541818 270.03449 
L 264.96 270.153763 
L 296.378182 145.51353 
L 327.796364 270.153763 
L 359.214545 270.153763 
L 390.632727 248.446086 
L 422.050909 270.03449 
" style="fill:none;stroke:#4169e1;stroke-linecap:round;stroke-width:3;"/>
    <defs>
     <path d="M 0 3.25 
C 0.86191 3.25 1.688635 2.907559 2.298097 2.298097 
C 2.907559 1.688635 3.25 0.86191 3.25 0 
C 3.25 -0.86191 2.907559 -1.688635 2.298097 -2.298097 
C 1.688635 -2.907559 0.86191 -3.25 0 -3.25 
C -0.86191 -3.25 -1.688635 -2.907559 -2.298097 -2.298097 
C -2.907559 -1.688635 -3.25 -0.86191 -3.25 0 
C -3.25 0.86191 -2.907559 1.688635 -2.298097 2.298097 
C -1.688635 2.907559 -0.86191 3.25 0 3.25 
z
" id="m3819f93dbd" style="stroke:#4169e1;"/>
    </defs>
    <g clip-path="url(#pb0ddb5d85f)">
     <use style="fill:#4169e1;stroke:#4169e1;" x="107.869091" xlink:href="#m3819f93dbd" y="269.795944"/>
     <use style="fill:#4169e1;stroke:#4169e1;" x="139.287273" xlink:href="#m3819f93dbd" y="270.153763"/>
     <use style="fill:#4169e1;stroke:#4169e1;" x="170.705455" xlink:href="#m3819f93dbd" y="270.153763"/>
     <use style="fill:#4169e1;stroke:#4169e1;" x="202.123636" xlink:href="#m3819f93dbd" y="59.279186"/>
     <use style="fill:#4169e1;stroke:#4169e1;" x="233.541818" xlink:href="#m3819f93dbd" y="270.03449"/>
     <use style="fill:#4169e1;stroke:#4169e1;" x="264.96" xlink:href="#m3819f93dbd" y="270.153763"/>
     <use style="fill:#4169e1;stroke:#4169e1;" x="296.378182" xlink:href="#m3819f93dbd" y="145.51353"/>
     <use style="fill:#4169e1;stroke:#4169e1;" x="327.796364" xlink:href="#m3819f93dbd" y="270.153763"/>
     <use style="fill:#4169e1;stroke:#4169e1;" x="359.214545" xlink:href="#m3819f93dbd" y="270.153763"/>
     <use style="fill:#4169e1;stroke:#4169e1;" x="390.632727" xlink:href="#m3819f93dbd" y="248.446086"/>
     <use style="fill:#4169e1;stroke:#4169e1;" x="422.050909" xlink:href="#m3819f93dbd" y="270.03449"/>
    </g>
   </g>
   <g id="patch_3">
    <path d="M 92.16 276.48 
L 92.16 27.648 
" style="fill:none;stroke:#262626;stroke-linecap:square;stroke-linejoin:miter;stroke-width:0.8;"/>
   </g>
   <g id="patch_4">
    <path d="M 92.16 276.48 
L 437.76 276.48 
" style="fill:none;stroke:#262626;stroke-linecap:square;stroke-linejoin:miter;stroke-width:0.8;"/>
   </g>
   <g id="text_12">
    <text style="fill:#262626;font-family:DejaVu Sans;font-size:20px;font-style:normal;font-weight:bold;text-anchor:middle;" transform="rotate(-0, 264.96, 21.648)" x="264.96" y="21.648">FV N length</text>
   </g>
  </g>
 </g>
 <defs>
  <clipPath id="pb0ddb5d85f">
   <rect height="248.832" width="345.6" x="92.16" y="27.648"/>
  </clipPath>
 </defs>
</svg>
