<?xml version="1.0" encoding="utf-8" standalone="no"?>
<!DOCTYPE svg PUBLIC "-//W3C//DTD SVG 1.1//EN"
  "http://www.w3.org/Graphics/SVG/1.1/DTD/svg11.dtd">
<!-- Created with matplotlib (http://matplotlib.org/) -->
<svg height="345.6pt" version="1.1" viewBox="0 0 460.8 345.6" width="460.8pt" xmlns="http://www.w3.org/2000/svg" xmlns:xlink="http://www.w3.org/1999/xlink">
 <defs>
  <style type="text/css">
*{stroke-linecap:butt;stroke-linejoin:round;}
  </style>
 </defs>
 <g id="figure_1">
  <g id="patch_1">
   <path d="M 0 345.6 
L 460.8 345.6 
L 460.8 0 
L 0 0 
z
" style="fill:#ffffff;"/>
  </g>
  <g id="axes_1">
   <g id="patch_2">
    <path d="M 92.16 276.48 
L 437.76 276.48 
L 437.76 27.648 
L 92.16 27.648 
z
" style="fill:#ffffff;"/>
   </g>
   <g id="matplotlib.axis_1">
    <g id="xtick_1">
     <g id="line2d_1">
      <defs>
       <path d="M 0 0 
L 0 3.5 
" id="m2b6c567a20" style="stroke:#262626;stroke-width:0.8;"/>
      </defs>
      <g>
       <use style="fill:#262626;stroke:#262626;stroke-width:0.8;" x="100.8" xlink:href="#m2b6c567a20" y="276.48"/>
      </g>
     </g>
     <g id="text_1">
      <text style="fill:#262626;font-family:DejaVu Sans;font-size:20px;font-style:normal;font-weight:normal;text-anchor:middle;" transform="rotate(-0, 100.8, 298.676875)" x="100.8" y="298.676875">0</text>
     </g>
    </g>
    <g id="xtick_2">
     <g id="line2d_2">
      <g>
       <use style="fill:#262626;stroke:#262626;stroke-width:0.8;" x="187.2" xlink:href="#m2b6c567a20" y="276.48"/>
      </g>
     </g>
     <g id="text_2">
      <text style="fill:#262626;font-family:DejaVu Sans;font-size:20px;font-style:normal;font-weight:normal;text-anchor:middle;" transform="rotate(-0, 187.2, 298.676875)" x="187.2" y="298.676875">5</text>
     </g>
    </g>
    <g id="xtick_3">
     <g id="line2d_3">
      <g>
       <use style="fill:#262626;stroke:#262626;stroke-width:0.8;" x="273.6" xlink:href="#m2b6c567a20" y="276.48"/>
      </g>
     </g>
     <g id="text_3">
      <text style="fill:#262626;font-family:DejaVu Sans;font-size:20px;font-style:normal;font-weight:normal;text-anchor:middle;" transform="rotate(-0, 273.6, 298.676875)" x="273.6" y="298.676875">10</text>
     </g>
    </g>
    <g id="xtick_4">
     <g id="line2d_4">
      <g>
       <use style="fill:#262626;stroke:#262626;stroke-width:0.8;" x="360" xlink:href="#m2b6c567a20" y="276.48"/>
      </g>
     </g>
     <g id="text_4">
      <text style="fill:#262626;font-family:DejaVu Sans;font-size:20px;font-style:normal;font-weight:normal;text-anchor:middle;" transform="rotate(-0, 360, 298.676875)" x="360" y="298.676875">15</text>
     </g>
    </g>
    <g id="text_5">
     <text style="fill:#262626;font-family:DejaVu Sans;font-size:20px;font-style:normal;font-weight:normal;text-anchor:middle;" transform="rotate(-0, 264.96, 322.033125)" x="264.96" y="322.033125">bases</text>
    </g>
   </g>
   <g id="matplotlib.axis_2">
    <g id="ytick_1">
     <g id="line2d_5">
      <defs>
       <path d="M 0 0 
L -3.5 0 
" id="m480584f0cd" style="stroke:#262626;stroke-width:0.8;"/>
      </defs>
      <g>
       <use style="fill:#262626;stroke:#262626;stroke-width:0.8;" x="92.16" xlink:href="#m480584f0cd" y="270.153763"/>
      </g>
     </g>
     <g id="text_6">
      <text style="fill:#262626;font-family:DejaVu Sans;font-size:20px;font-style:normal;font-weight:normal;text-anchor:end;" transform="rotate(-0, 85.16, 277.7522)" x="85.16" y="277.7522">0.0</text>
     </g>
    </g>
    <g id="ytick_2">
     <g id="line2d_6">
      <g>
       <use style="fill:#262626;stroke:#262626;stroke-width:0.8;" x="92.16" xlink:href="#m480584f0cd" y="203.421302"/>
      </g>
     </g>
     <g id="text_7">
      <text style="fill:#262626;font-family:DejaVu Sans;font-size:20px;font-style:normal;font-weight:normal;text-anchor:end;" transform="rotate(-0, 85.16, 211.019739)" x="85.16" y="211.019739">0.2</text>
     </g>
    </g>
    <g id="ytick_3">
     <g id="line2d_7">
      <g>
       <use style="fill:#262626;stroke:#262626;stroke-width:0.8;" x="92.16" xlink:href="#m480584f0cd" y="136.688841"/>
      </g>
     </g>
     <g id="text_8">
      <text style="fill:#262626;font-family:DejaVu Sans;font-size:20px;font-style:normal;font-weight:normal;text-anchor:end;" transform="rotate(-0, 85.16, 144.287279)" x="85.16" y="144.287279">0.4</text>
     </g>
    </g>
    <g id="ytick_4">
     <g id="line2d_8">
      <g>
       <use style="fill:#262626;stroke:#262626;stroke-width:0.8;" x="92.16" xlink:href="#m480584f0cd" y="69.95638"/>
      </g>
     </g>
     <g id="text_9">
      <text style="fill:#262626;font-family:DejaVu Sans;font-size:20px;font-style:normal;font-weight:normal;text-anchor:end;" transform="rotate(-0, 85.16, 77.554818)" x="85.16" y="77.554818">0.6</text>
     </g>
    </g>
    <g id="text_10">
     <text style="fill:#262626;font-family:DejaVu Sans;font-size:20px;font-style:normal;font-weight:normal;text-anchor:middle;" transform="rotate(-90, 45.194375, 152.064)" x="45.194375" y="152.064">freq (3000 total)</text>
    </g>
   </g>
   <g id="LineCollection_1">
    <path clip-path="url(#pbd238fd2fe)" d="M 100.8 261.409678 
L 100.8 259.322992 
" style="fill:none;stroke:#4169e1;stroke-width:3;"/>
    <path clip-path="url(#pbd238fd2fe)" d="M 118.08 184.978452 
L 118.08 178.710493 
" style="fill:none;stroke:#4169e1;stroke-width:3;"/>
    <path clip-path="url(#pbd238fd2fe)" d="M 135.36 64.122081 
L 135.36 54.436291 
" style="fill:none;stroke:#4169e1;stroke-width:3;"/>
    <path clip-path="url(#pbd238fd2fe)" d="M 152.64 267.527303 
L 152.64 266.329418 
" style="fill:none;stroke:#4169e1;stroke-width:3;"/>
    <path clip-path="url(#pbd238fd2fe)" d="M 169.92 267.527303 
L 169.92 266.329418 
" style="fill:none;stroke:#4169e1;stroke-width:3;"/>
    <path clip-path="url(#pbd238fd2fe)" d="M 187.2 267.32517 
L 187.2 266.086668 
" style="fill:none;stroke:#4169e1;stroke-width:3;"/>
    <path clip-path="url(#pbd238fd2fe)" d="M 204.48 269.486438 
L 204.48 268.819113 
" style="fill:none;stroke:#4169e1;stroke-width:3;"/>
    <path clip-path="url(#pbd238fd2fe)" d="M 221.76 270.01274 
L 221.76 269.62746 
" style="fill:none;stroke:#4169e1;stroke-width:3;"/>
    <path clip-path="url(#pbd238fd2fe)" d="M 239.04 268.721585 
L 239.04 267.804435 
" style="fill:none;stroke:#4169e1;stroke-width:3;"/>
    <path clip-path="url(#pbd238fd2fe)" d="M 256.32 269.66948 
L 256.32 269.080955 
" style="fill:none;stroke:#4169e1;stroke-width:3;"/>
    <path clip-path="url(#pbd238fd2fe)" d="M 273.6 261.830573 
L 273.6 259.791863 
" style="fill:none;stroke:#4169e1;stroke-width:3;"/>
    <path clip-path="url(#pbd238fd2fe)" d="M 290.88 270.153763 
L 290.88 270.153763 
" style="fill:none;stroke:#4169e1;stroke-width:3;"/>
    <path clip-path="url(#pbd238fd2fe)" d="M 308.16 270.153763 
L 308.16 270.153763 
" style="fill:none;stroke:#4169e1;stroke-width:3;"/>
    <path clip-path="url(#pbd238fd2fe)" d="M 325.44 270.088611 
L 325.44 269.774031 
" style="fill:none;stroke:#4169e1;stroke-width:3;"/>
    <path clip-path="url(#pbd238fd2fe)" d="M 342.72 270.088611 
L 342.72 269.774031 
" style="fill:none;stroke:#4169e1;stroke-width:3;"/>
    <path clip-path="url(#pbd238fd2fe)" d="M 360 270.01274 
L 360 269.62746 
" style="fill:none;stroke:#4169e1;stroke-width:3;"/>
    <path clip-path="url(#pbd238fd2fe)" d="M 377.28 270.01274 
L 377.28 269.62746 
" style="fill:none;stroke:#4169e1;stroke-width:3;"/>
    <path clip-path="url(#pbd238fd2fe)" d="M 394.56 270.153763 
L 394.56 269.931321 
" style="fill:none;stroke:#4169e1;stroke-width:3;"/>
    <path clip-path="url(#pbd238fd2fe)" d="M 411.84 270.153763 
L 411.84 270.153763 
" style="fill:none;stroke:#4169e1;stroke-width:3;"/>
    <path clip-path="url(#pbd238fd2fe)" d="M 429.12 270.088611 
L 429.12 269.774031 
" style="fill:none;stroke:#4169e1;stroke-width:3;"/>
   </g>
   <g id="line2d_9">
    <path clip-path="url(#pbd238fd2fe)" d="M 100.8 260.366335 
L 118.08 181.844473 
L 135.36 59.279186 
L 152.64 266.92836 
L 169.92 266.92836 
L 187.2 266.705919 
L 204.48 269.152776 
L 221.76 269.8201 
L 239.04 268.26301 
L 256.32 269.375217 
L 273.6 260.811218 
L 290.88 270.153763 
L 308.16 270.153763 
L 325.44 269.931321 
L 342.72 269.931321 
L 360 269.8201 
L 377.28 269.8201 
L 394.56 270.042542 
L 411.84 270.153763 
L 429.12 269.931321 
" style="fill:none;stroke:#4169e1;stroke-linecap:round;stroke-width:3;"/>
    <defs>
     <path d="M 0 3.25 
C 0.86191 3.25 1.688635 2.907559 2.298097 2.298097 
C 2.907559 1.688635 3.25 0.86191 3.25 0 
C 3.25 -0.86191 2.907559 -1.688635 2.298097 -2.298097 
C 1.688635 -2.907559 0.86191 -3.25 0 -3.25 
C -0.86191 -3.25 -1.688635 -2.907559 -2.298097 -2.298097 
C -2.907559 -1.688635 -3.25 -0.86191 -3.25 0 
C -3.25 0.86191 -2.907559 1.688635 -2.298097 2.298097 
C -1.688635 2.907559 -0.86191 3.25 0 3.25 
z
" id="m8a7eb9971d" style="stroke:#4169e1;"/>
    </defs>
    <g clip-path="url(#pbd238fd2fe)">
     <use style="fill:#4169e1;stroke:#4169e1;" x="100.8" xlink:href="#m8a7eb9971d" y="260.366335"/>
     <use style="fill:#4169e1;stroke:#4169e1;" x="118.08" xlink:href="#m8a7eb9971d" y="181.844473"/>
     <use style="fill:#4169e1;stroke:#4169e1;" x="135.36" xlink:href="#m8a7eb9971d" y="59.279186"/>
     <use style="fill:#4169e1;stroke:#4169e1;" x="152.64" xlink:href="#m8a7eb9971d" y="266.92836"/>
     <use style="fill:#4169e1;stroke:#4169e1;" x="169.92" xlink:href="#m8a7eb9971d" y="266.92836"/>
     <use style="fill:#4169e1;stroke:#4169e1;" x="187.2" xlink:href="#m8a7eb9971d" y="266.705919"/>
     <use style="fill:#4169e1;stroke:#4169e1;" x="204.48" xlink:href="#m8a7eb9971d" y="269.152776"/>
     <use style="fill:#4169e1;stroke:#4169e1;" x="221.76" xlink:href="#m8a7eb9971d" y="269.8201"/>
     <use style="fill:#4169e1;stroke:#4169e1;" x="239.04" xlink:href="#m8a7eb9971d" y="268.26301"/>
     <use style="fill:#4169e1;stroke:#4169e1;" x="256.32" xlink:href="#m8a7eb9971d" y="269.375217"/>
     <use style="fill:#4169e1;stroke:#4169e1;" x="273.6" xlink:href="#m8a7eb9971d" y="260.811218"/>
     <use style="fill:#4169e1;stroke:#4169e1;" x="290.88" xlink:href="#m8a7eb9971d" y="270.153763"/>
     <use style="fill:#4169e1;stroke:#4169e1;" x="308.16" xlink:href="#m8a7eb9971d" y="270.153763"/>
     <use style="fill:#4169e1;stroke:#4169e1;" x="325.44" xlink:href="#m8a7eb9971d" y="269.931321"/>
     <use style="fill:#4169e1;stroke:#4169e1;" x="342.72" xlink:href="#m8a7eb9971d" y="269.931321"/>
     <use style="fill:#4169e1;stroke:#4169e1;" x="360" xlink:href="#m8a7eb9971d" y="269.8201"/>
     <use style="fill:#4169e1;stroke:#4169e1;" x="377.28" xlink:href="#m8a7eb9971d" y="269.8201"/>
     <use style="fill:#4169e1;stroke:#4169e1;" x="394.56" xlink:href="#m8a7eb9971d" y="270.042542"/>
     <use style="fill:#4169e1;stroke:#4169e1;" x="411.84" xlink:href="#m8a7eb9971d" y="270.153763"/>
     <use style="fill:#4169e1;stroke:#4169e1;" x="429.12" xlink:href="#m8a7eb9971d" y="269.931321"/>
    </g>
   </g>
   <g id="patch_3">
    <path d="M 92.16 276.48 
L 92.16 27.648 
" style="fill:none;stroke:#262626;stroke-linecap:square;stroke-linejoin:miter;stroke-width:0.8;"/>
   </g>
   <g id="patch_4">
    <path d="M 92.16 276.48 
L 437.76 276.48 
" style="fill:none;stroke:#262626;stroke-linecap:square;stroke-linejoin:miter;stroke-width:0.8;"/>
   </g>
   <g id="text_11">
    <text style="fill:#262626;font-family:DejaVu Sans;font-size:20px;font-style:normal;font-weight:bold;text-anchor:middle;" transform="rotate(-0, 264.96, 21.648)" x="264.96" y="21.648">J 5' deletion</text>
   </g>
  </g>
 </g>
 <defs>
  <clipPath id="pbd238fd2fe">
   <rect height="248.832" width="345.6" x="92.16" y="27.648"/>
  </clipPath>
 </defs>
</svg>
