<?xml version="1.0" encoding="utf-8" standalone="no"?>
<!DOCTYPE svg PUBLIC "-//W3C//DTD SVG 1.1//EN"
  "http://www.w3.org/Graphics/SVG/1.1/DTD/svg11.dtd">
<!-- Created with matplotlib (http://matplotlib.org/) -->
<svg height="345.6pt" version="1.1" viewBox="0 0 460.8 345.6" width="460.8pt" xmlns="http://www.w3.org/2000/svg" xmlns:xlink="http://www.w3.org/1999/xlink">
 <defs>
  <style type="text/css">
*{stroke-linecap:butt;stroke-linejoin:round;}
  </style>
 </defs>
 <g id="figure_1">
  <g id="patch_1">
   <path d="M 0 345.6 
L 460.8 345.6 
L 460.8 0 
L 0 0 
z
" style="fill:#ffffff;"/>
  </g>
  <g id="axes_1">
   <g id="patch_2">
    <path d="M 92.16 276.48 
L 437.76 276.48 
L 437.76 27.648 
L 92.16 27.648 
z
" style="fill:#ffffff;"/>
   </g>
   <g id="matplotlib.axis_1">
    <g id="xtick_1">
     <g id="line2d_1">
      <defs>
       <path d="M 0 0 
L 0 3.5 
" id="m2d24e0f1d0" style="stroke:#262626;stroke-width:0.8;"/>
      </defs>
      <g>
       <use style="fill:#262626;stroke:#262626;stroke-width:0.8;" x="167.76" xlink:href="#m2d24e0f1d0" y="276.48"/>
      </g>
     </g>
     <g id="text_1">
      <text style="fill:#262626;font-family:DejaVu Sans;font-size:20px;font-style:normal;font-weight:normal;text-anchor:middle;" transform="rotate(-0, 167.76, 298.676875)" x="167.76" y="298.676875">−10</text>
     </g>
    </g>
    <g id="xtick_2">
     <g id="line2d_2">
      <g>
       <use style="fill:#262626;stroke:#262626;stroke-width:0.8;" x="275.76" xlink:href="#m2d24e0f1d0" y="276.48"/>
      </g>
     </g>
     <g id="text_2">
      <text style="fill:#262626;font-family:DejaVu Sans;font-size:20px;font-style:normal;font-weight:normal;text-anchor:middle;" transform="rotate(-0, 275.76, 298.676875)" x="275.76" y="298.676875">−5</text>
     </g>
    </g>
    <g id="xtick_3">
     <g id="line2d_3">
      <g>
       <use style="fill:#262626;stroke:#262626;stroke-width:0.8;" x="383.76" xlink:href="#m2d24e0f1d0" y="276.48"/>
      </g>
     </g>
     <g id="text_3">
      <text style="fill:#262626;font-family:DejaVu Sans;font-size:20px;font-style:normal;font-weight:normal;text-anchor:middle;" transform="rotate(-0, 383.76, 298.676875)" x="383.76" y="298.676875">0</text>
     </g>
    </g>
    <g id="text_4">
     <text style="fill:#262626;font-family:DejaVu Sans;font-size:20px;font-style:normal;font-weight:normal;text-anchor:middle;" transform="rotate(-0, 264.96, 322.033125)" x="264.96" y="322.033125">inferred - true</text>
    </g>
   </g>
   <g id="matplotlib.axis_2">
    <g id="ytick_1">
     <g id="line2d_4">
      <defs>
       <path d="M 0 0 
L -3.5 0 
" id="m6b2fbf4424" style="stroke:#262626;stroke-width:0.8;"/>
      </defs>
      <g>
       <use style="fill:#262626;stroke:#262626;stroke-width:0.8;" x="92.16" xlink:href="#m6b2fbf4424" y="270.153763"/>
      </g>
     </g>
     <g id="text_5">
      <text style="fill:#262626;font-family:DejaVu Sans;font-size:20px;font-style:normal;font-weight:normal;text-anchor:end;" transform="rotate(-0, 85.16, 277.7522)" x="85.16" y="277.7522">0</text>
     </g>
    </g>
    <g id="ytick_2">
     <g id="line2d_5">
      <g>
       <use style="fill:#262626;stroke:#262626;stroke-width:0.8;" x="92.16" xlink:href="#m6b2fbf4424" y="218.595187"/>
      </g>
     </g>
     <g id="text_6">
      <text style="fill:#262626;font-family:DejaVu Sans;font-size:20px;font-style:normal;font-weight:normal;text-anchor:end;" transform="rotate(-0, 85.16, 226.193624)" x="85.16" y="226.193624">500</text>
     </g>
    </g>
    <g id="ytick_3">
     <g id="line2d_6">
      <g>
       <use style="fill:#262626;stroke:#262626;stroke-width:0.8;" x="92.16" xlink:href="#m6b2fbf4424" y="167.036611"/>
      </g>
     </g>
     <g id="text_7">
      <text style="fill:#262626;font-family:DejaVu Sans;font-size:20px;font-style:normal;font-weight:normal;text-anchor:end;" transform="rotate(-0, 85.16, 174.635048)" x="85.16" y="174.635048">1000</text>
     </g>
    </g>
    <g id="ytick_4">
     <g id="line2d_7">
      <g>
       <use style="fill:#262626;stroke:#262626;stroke-width:0.8;" x="92.16" xlink:href="#m6b2fbf4424" y="115.478034"/>
      </g>
     </g>
     <g id="text_8">
      <text style="fill:#262626;font-family:DejaVu Sans;font-size:20px;font-style:normal;font-weight:normal;text-anchor:end;" transform="rotate(-0, 85.16, 123.076472)" x="85.16" y="123.076472">1500</text>
     </g>
    </g>
    <g id="ytick_5">
     <g id="line2d_8">
      <g>
       <use style="fill:#262626;stroke:#262626;stroke-width:0.8;" x="92.16" xlink:href="#m6b2fbf4424" y="63.919458"/>
      </g>
     </g>
     <g id="text_9">
      <text style="fill:#262626;font-family:DejaVu Sans;font-size:20px;font-style:normal;font-weight:normal;text-anchor:end;" transform="rotate(-0, 85.16, 71.517896)" x="85.16" y="71.517896">2000</text>
     </g>
    </g>
    <g id="text_10">
     <text style="fill:#262626;font-family:DejaVu Sans;font-size:20px;font-style:normal;font-weight:normal;text-anchor:middle;" transform="rotate(-90, 26.100625, 152.064)" x="26.100625" y="152.064">counts</text>
    </g>
   </g>
   <g id="line2d_9">
    <path clip-path="url(#p24078afd23)" d="M 102.96 270.050646 
L 124.56 270.153763 
L 146.16 270.153763 
L 167.76 270.153763 
L 189.36 270.153763 
L 210.96 269.328825 
L 232.56 269.947528 
L 254.16 270.050646 
L 275.76 269.741294 
L 297.36 269.53506 
L 318.96 269.122591 
L 340.56 268.194537 
L 362.16 59.279186 
L 383.76 180.029372 
L 405.36 267.163365 
L 426.96 270.050646 
" style="fill:none;stroke:#4169e1;stroke-linecap:round;stroke-width:3;"/>
    <defs>
     <path d="M 0 3.25 
C 0.86191 3.25 1.688635 2.907559 2.298097 2.298097 
C 2.907559 1.688635 3.25 0.86191 3.25 0 
C 3.25 -0.86191 2.907559 -1.688635 2.298097 -2.298097 
C 1.688635 -2.907559 0.86191 -3.25 0 -3.25 
C -0.86191 -3.25 -1.688635 -2.907559 -2.298097 -2.298097 
C -2.907559 -1.688635 -3.25 -0.86191 -3.25 0 
C -3.25 0.86191 -2.907559 1.688635 -2.298097 2.298097 
C -1.688635 2.907559 -0.86191 3.25 0 3.25 
z
" id="m2fca080e88" style="stroke:#4169e1;"/>
    </defs>
    <g clip-path="url(#p24078afd23)">
     <use style="fill:#4169e1;stroke:#4169e1;" x="102.96" xlink:href="#m2fca080e88" y="270.050646"/>
     <use style="fill:#4169e1;stroke:#4169e1;" x="124.56" xlink:href="#m2fca080e88" y="270.153763"/>
     <use style="fill:#4169e1;stroke:#4169e1;" x="146.16" xlink:href="#m2fca080e88" y="270.153763"/>
     <use style="fill:#4169e1;stroke:#4169e1;" x="167.76" xlink:href="#m2fca080e88" y="270.153763"/>
     <use style="fill:#4169e1;stroke:#4169e1;" x="189.36" xlink:href="#m2fca080e88" y="270.153763"/>
     <use style="fill:#4169e1;stroke:#4169e1;" x="210.96" xlink:href="#m2fca080e88" y="269.328825"/>
     <use style="fill:#4169e1;stroke:#4169e1;" x="232.56" xlink:href="#m2fca080e88" y="269.947528"/>
     <use style="fill:#4169e1;stroke:#4169e1;" x="254.16" xlink:href="#m2fca080e88" y="270.050646"/>
     <use style="fill:#4169e1;stroke:#4169e1;" x="275.76" xlink:href="#m2fca080e88" y="269.741294"/>
     <use style="fill:#4169e1;stroke:#4169e1;" x="297.36" xlink:href="#m2fca080e88" y="269.53506"/>
     <use style="fill:#4169e1;stroke:#4169e1;" x="318.96" xlink:href="#m2fca080e88" y="269.122591"/>
     <use style="fill:#4169e1;stroke:#4169e1;" x="340.56" xlink:href="#m2fca080e88" y="268.194537"/>
     <use style="fill:#4169e1;stroke:#4169e1;" x="362.16" xlink:href="#m2fca080e88" y="59.279186"/>
     <use style="fill:#4169e1;stroke:#4169e1;" x="383.76" xlink:href="#m2fca080e88" y="180.029372"/>
     <use style="fill:#4169e1;stroke:#4169e1;" x="405.36" xlink:href="#m2fca080e88" y="267.163365"/>
     <use style="fill:#4169e1;stroke:#4169e1;" x="426.96" xlink:href="#m2fca080e88" y="270.050646"/>
    </g>
   </g>
   <g id="patch_3">
    <path d="M 92.16 276.48 
L 92.16 27.648 
" style="fill:none;stroke:#262626;stroke-linecap:square;stroke-linejoin:miter;stroke-width:0.8;"/>
   </g>
   <g id="patch_4">
    <path d="M 92.16 276.48 
L 437.76 276.48 
" style="fill:none;stroke:#262626;stroke-linecap:square;stroke-linejoin:miter;stroke-width:0.8;"/>
   </g>
   <g id="text_11">
    <text style="fill:#262626;font-family:DejaVu Sans;font-size:20px;font-style:normal;font-weight:bold;text-anchor:middle;" transform="rotate(-0, 264.96, 21.648)" x="264.96" y="21.648">DJ N length</text>
   </g>
  </g>
 </g>
 <defs>
  <clipPath id="p24078afd23">
   <rect height="248.832" width="345.6" x="92.16" y="27.648"/>
  </clipPath>
 </defs>
</svg>
