<?xml version="1.0" encoding="utf-8" standalone="no"?>
<!DOCTYPE svg PUBLIC "-//W3C//DTD SVG 1.1//EN"
  "http://www.w3.org/Graphics/SVG/1.1/DTD/svg11.dtd">
<!-- Created with matplotlib (http://matplotlib.org/) -->
<svg height="234pt" version="1.1" viewBox="0 0 252 234" width="252pt" xmlns="http://www.w3.org/2000/svg" xmlns:xlink="http://www.w3.org/1999/xlink">
 <defs>
  <style type="text/css">
*{stroke-linecap:butt;stroke-linejoin:round;}
  </style>
 </defs>
 <g id="figure_1">
  <g id="patch_1">
   <path d="M 0 234 
L 252 234 
L 252 0 
L 0 0 
z
" style="fill:#ffffff;"/>
  </g>
  <g id="legend_1">
   <g id="patch_2">
    <path d="M 68.425 204.628125 
L 183.575 204.628125 
Q 187.575 204.628125 187.575 200.628125 
L 187.575 33.371875 
Q 187.575 29.371875 183.575 29.371875 
L 68.425 29.371875 
Q 64.425 29.371875 64.425 33.371875 
L 64.425 200.628125 
Q 64.425 204.628125 68.425 204.628125 
z
" style="fill:#ffffff;opacity:0.8;stroke:#cccccc;stroke-linejoin:miter;"/>
   </g>
   <g id="text_1">
    <text style="fill:#262626;font-family:Lato;font-size:20px;font-style:normal;font-weight:600;text-anchor:start;" transform="rotate(-0, 75.203125, 52.23125)" x="75.203125" y="52.23125">N nuc muts</text>
   </g>
   <g id="line2d_1">
    <path d="M 72.425 73.440625 
L 112.425 73.440625 
" style="fill:none;stroke:#443982;stroke-linecap:round;stroke-opacity:0.6;stroke-width:5;"/>
   </g>
   <g id="line2d_2"/>
   <g id="text_2">
    <text style="fill:#262626;font-family:Lato;font-size:20px;font-style:normal;font-weight:600;text-anchor:start;" transform="rotate(-0, 128.425, 80.440625)" x="128.425" y="80.440625">0.0</text>
   </g>
   <g id="line2d_3">
    <path d="M 72.425 101.65 
L 112.425 101.65 
" style="fill:none;stroke:#2c728e;stroke-linecap:round;stroke-opacity:0.6;stroke-width:5;"/>
   </g>
   <g id="line2d_4"/>
   <g id="text_3">
    <text style="fill:#262626;font-family:Lato;font-size:20px;font-style:normal;font-weight:600;text-anchor:start;" transform="rotate(-0, 128.425, 108.65)" x="128.425" y="108.65">29.0</text>
   </g>
   <g id="line2d_5">
    <path d="M 72.425 129.859375 
L 112.425 129.859375 
" style="fill:none;stroke:#20a485;stroke-linecap:round;stroke-opacity:0.6;stroke-width:5;"/>
   </g>
   <g id="line2d_6"/>
   <g id="text_4">
    <text style="fill:#262626;font-family:Lato;font-size:20px;font-style:normal;font-weight:600;text-anchor:start;" transform="rotate(-0, 128.425, 136.859375)" x="128.425" y="136.859375">58.0</text>
   </g>
   <g id="line2d_7">
    <path d="M 72.425 158.06875 
L 112.425 158.06875 
" style="fill:none;stroke:#74d054;stroke-linecap:round;stroke-opacity:0.6;stroke-width:5;"/>
   </g>
   <g id="line2d_8"/>
   <g id="text_5">
    <text style="fill:#262626;font-family:Lato;font-size:20px;font-style:normal;font-weight:600;text-anchor:start;" transform="rotate(-0, 128.425, 165.06875)" x="128.425" y="165.06875">87.0</text>
   </g>
   <g id="line2d_9">
    <path d="M 72.425 186.278125 
L 112.425 186.278125 
" style="fill:none;stroke:#fde724;stroke-linecap:round;stroke-opacity:0.6;stroke-width:5;"/>
   </g>
   <g id="line2d_10"/>
   <g id="text_6">
    <text style="fill:#262626;font-family:Lato;font-size:20px;font-style:normal;font-weight:600;text-anchor:start;" transform="rotate(-0, 128.425, 193.278125)" x="128.425" y="193.278125">120.0</text>
   </g>
  </g>
 </g>
</svg>
