<?xml version="1.0" encoding="utf-8" standalone="no"?>
<!DOCTYPE svg PUBLIC "-//W3C//DTD SVG 1.1//EN"
  "http://www.w3.org/Graphics/SVG/1.1/DTD/svg11.dtd">
<!-- Created with matplotlib (http://matplotlib.org/) -->
<svg height="345.6pt" version="1.1" viewBox="0 0 460.8 345.6" width="460.8pt" xmlns="http://www.w3.org/2000/svg" xmlns:xlink="http://www.w3.org/1999/xlink">
 <defs>
  <style type="text/css">
*{stroke-linecap:butt;stroke-linejoin:round;}
  </style>
 </defs>
 <g id="figure_1">
  <g id="patch_1">
   <path d="M 0 345.6 
L 460.8 345.6 
L 460.8 0 
L 0 0 
z
" style="fill:#ffffff;"/>
  </g>
  <g id="axes_1">
   <g id="patch_2">
    <path d="M 136.971875 280.292969 
L 426.15 280.292969 
L 426.15 38.744531 
L 136.971875 38.744531 
z
" style="fill:#ffffff;"/>
   </g>
   <g id="matplotlib.axis_1">
    <g id="xtick_1">
     <g id="line2d_1">
      <defs>
       <path d="M 0 0 
L 0 3.5 
" id="mb0884a6609" style="stroke:#262626;stroke-width:0.8;"/>
      </defs>
      <g>
       <use style="fill:#262626;stroke:#262626;stroke-width:0.8;" x="136.971875" xlink:href="#mb0884a6609" y="280.292969"/>
      </g>
     </g>
     <g id="text_1">
      <text style="fill:#262626;font-family:Lato;font-size:15px;font-style:normal;font-weight:600;text-anchor:middle;" transform="rotate(-0, 136.971875, 298.4375)" x="136.971875" y="298.4375">90</text>
     </g>
    </g>
    <g id="xtick_2">
     <g id="line2d_2">
      <g>
       <use style="fill:#262626;stroke:#262626;stroke-width:0.8;" x="194.8075" xlink:href="#mb0884a6609" y="280.292969"/>
      </g>
     </g>
     <g id="text_2">
      <text style="fill:#262626;font-family:Lato;font-size:15px;font-style:normal;font-weight:600;text-anchor:middle;" transform="rotate(-0, 194.8075, 298.4375)" x="194.8075" y="298.4375">92</text>
     </g>
    </g>
    <g id="xtick_3">
     <g id="line2d_3">
      <g>
       <use style="fill:#262626;stroke:#262626;stroke-width:0.8;" x="252.643125" xlink:href="#mb0884a6609" y="280.292969"/>
      </g>
     </g>
     <g id="text_3">
      <text style="fill:#262626;font-family:Lato;font-size:15px;font-style:normal;font-weight:600;text-anchor:middle;" transform="rotate(-0, 252.643125, 298.4375)" x="252.643125" y="298.4375">94</text>
     </g>
    </g>
    <g id="xtick_4">
     <g id="line2d_4">
      <g>
       <use style="fill:#262626;stroke:#262626;stroke-width:0.8;" x="310.47875" xlink:href="#mb0884a6609" y="280.292969"/>
      </g>
     </g>
     <g id="text_4">
      <text style="fill:#262626;font-family:Lato;font-size:15px;font-style:normal;font-weight:600;text-anchor:middle;" transform="rotate(-0, 310.47875, 298.4375)" x="310.47875" y="298.4375">96</text>
     </g>
    </g>
    <g id="xtick_5">
     <g id="line2d_5">
      <g>
       <use style="fill:#262626;stroke:#262626;stroke-width:0.8;" x="368.314375" xlink:href="#mb0884a6609" y="280.292969"/>
      </g>
     </g>
     <g id="text_5">
      <text style="fill:#262626;font-family:Lato;font-size:15px;font-style:normal;font-weight:600;text-anchor:middle;" transform="rotate(-0, 368.314375, 298.4375)" x="368.314375" y="298.4375">98</text>
     </g>
    </g>
    <g id="xtick_6">
     <g id="line2d_6">
      <g>
       <use style="fill:#262626;stroke:#262626;stroke-width:0.8;" x="426.15" xlink:href="#mb0884a6609" y="280.292969"/>
      </g>
     </g>
     <g id="text_6">
      <text style="fill:#262626;font-family:Lato;font-size:15px;font-style:normal;font-weight:600;text-anchor:middle;" transform="rotate(-0, 426.15, 298.4375)" x="426.15" y="298.4375">100</text>
     </g>
    </g>
    <g id="text_7">
     <text style="fill:#262626;font-family:Lato;font-size:20px;font-style:normal;font-weight:600;text-anchor:middle;" transform="rotate(-0, 281.560938, 320.65)" x="281.560938" y="320.65">lb ratio threshold (percentile)</text>
    </g>
   </g>
   <g id="matplotlib.axis_2">
    <g id="ytick_1">
     <g id="line2d_7">
      <defs>
       <path d="M 0 0 
L -3.5 0 
" id="m5fda9e700a" style="stroke:#262626;stroke-width:0.8;"/>
      </defs>
      <g>
       <use style="fill:#262626;stroke:#262626;stroke-width:0.8;" x="136.971875" xlink:href="#m5fda9e700a" y="264.576954"/>
      </g>
     </g>
     <g id="text_8">
      <text style="fill:#262626;font-family:Lato;font-size:15px;font-style:normal;font-weight:600;text-anchor:end;" transform="rotate(-0, 129.971875, 270.149219)" x="129.971875" y="270.149219">−0.00050</text>
     </g>
    </g>
    <g id="ytick_2">
     <g id="line2d_8">
      <g>
       <use style="fill:#262626;stroke:#262626;stroke-width:0.8;" x="136.971875" xlink:href="#m5fda9e700a" y="233.561295"/>
      </g>
     </g>
     <g id="text_9">
      <text style="fill:#262626;font-family:Lato;font-size:15px;font-style:normal;font-weight:600;text-anchor:end;" transform="rotate(-0, 129.971875, 239.133561)" x="129.971875" y="239.133561">−0.00025</text>
     </g>
    </g>
    <g id="ytick_3">
     <g id="line2d_9">
      <g>
       <use style="fill:#262626;stroke:#262626;stroke-width:0.8;" x="136.971875" xlink:href="#m5fda9e700a" y="202.545637"/>
      </g>
     </g>
     <g id="text_10">
      <text style="fill:#262626;font-family:Lato;font-size:15px;font-style:normal;font-weight:600;text-anchor:end;" transform="rotate(-0, 129.971875, 208.117902)" x="129.971875" y="208.117902">0.00000</text>
     </g>
    </g>
    <g id="ytick_4">
     <g id="line2d_10">
      <g>
       <use style="fill:#262626;stroke:#262626;stroke-width:0.8;" x="136.971875" xlink:href="#m5fda9e700a" y="171.529978"/>
      </g>
     </g>
     <g id="text_11">
      <text style="fill:#262626;font-family:Lato;font-size:15px;font-style:normal;font-weight:600;text-anchor:end;" transform="rotate(-0, 129.971875, 177.102244)" x="129.971875" y="177.102244">0.00025</text>
     </g>
    </g>
    <g id="ytick_5">
     <g id="line2d_11">
      <g>
       <use style="fill:#262626;stroke:#262626;stroke-width:0.8;" x="136.971875" xlink:href="#m5fda9e700a" y="140.51432"/>
      </g>
     </g>
     <g id="text_12">
      <text style="fill:#262626;font-family:Lato;font-size:15px;font-style:normal;font-weight:600;text-anchor:end;" transform="rotate(-0, 129.971875, 146.086585)" x="129.971875" y="146.086585">0.00050</text>
     </g>
    </g>
    <g id="ytick_6">
     <g id="line2d_12">
      <g>
       <use style="fill:#262626;stroke:#262626;stroke-width:0.8;" x="136.971875" xlink:href="#m5fda9e700a" y="109.498661"/>
      </g>
     </g>
     <g id="text_13">
      <text style="fill:#262626;font-family:Lato;font-size:15px;font-style:normal;font-weight:600;text-anchor:end;" transform="rotate(-0, 129.971875, 115.070927)" x="129.971875" y="115.070927">0.00075</text>
     </g>
    </g>
    <g id="ytick_7">
     <g id="line2d_13">
      <g>
       <use style="fill:#262626;stroke:#262626;stroke-width:0.8;" x="136.971875" xlink:href="#m5fda9e700a" y="78.483003"/>
      </g>
     </g>
     <g id="text_14">
      <text style="fill:#262626;font-family:Lato;font-size:15px;font-style:normal;font-weight:600;text-anchor:end;" transform="rotate(-0, 129.971875, 84.055268)" x="129.971875" y="84.055268">0.00100</text>
     </g>
    </g>
    <g id="ytick_8">
     <g id="line2d_14">
      <g>
       <use style="fill:#262626;stroke:#262626;stroke-width:0.8;" x="136.971875" xlink:href="#m5fda9e700a" y="47.467344"/>
      </g>
     </g>
     <g id="text_15">
      <text style="fill:#262626;font-family:Lato;font-size:15px;font-style:normal;font-weight:600;text-anchor:end;" transform="rotate(-0, 129.971875, 53.03961)" x="129.971875" y="53.03961">0.00125</text>
     </g>
    </g>
    <g id="text_16">
     <text style="fill:#262626;font-family:Lato;font-size:20px;font-style:normal;font-weight:600;" transform="translate(36.71875 252.564062)rotate(-90)">mean affinity change</text>
     <text style="fill:#262626;font-family:Lato;font-size:20px;font-style:normal;font-weight:600;" transform="translate(58.159375 212.565625)rotate(-90)">from parent</text>
    </g>
   </g>
   <g id="line2d_15">
    <path clip-path="url(#pec03eb4ea5)" d="M 136.971875 165.318113 
L 142.755438 165.318113 
L 148.539 165.318113 
L 154.322563 165.318113 
L 160.106125 165.318113 
L 165.889688 165.318113 
L 171.67325 165.318113 
L 177.456813 165.318113 
L 183.240375 165.318113 
L 189.023938 165.318113 
L 194.8075 165.318113 
L 200.591063 165.318113 
L 206.374625 165.318113 
L 212.158188 165.318113 
L 217.94175 152.908938 
L 223.725313 152.908938 
L 229.508875 152.908938 
L 235.292438 152.908938 
L 241.076 152.908938 
L 246.859563 152.908938 
L 252.643125 152.908938 
L 258.426688 152.908938 
L 264.21025 152.908938 
L 269.993813 152.908938 
L 275.777375 152.908938 
L 281.560938 152.908938 
L 287.3445 152.908938 
L 293.128063 152.908938 
L 298.911625 128.090589 
L 304.695188 128.090589 
L 310.47875 128.090589 
L 316.262313 128.090589 
L 322.045875 128.090589 
L 327.829438 128.090589 
L 333.613 128.090589 
L 339.396563 128.090589 
L 345.180125 128.090589 
L 350.963688 128.090589 
L 356.74725 128.090589 
L 362.530813 128.090589 
L 368.314375 128.090589 
L 374.097938 128.090589 
L 379.8815 128.090589 
L 385.665063 53.635541 
L 391.448625 53.635541 
L 397.232188 53.635541 
L 403.01575 53.635541 
L 408.799313 53.635541 
L 414.582875 53.635541 
L 420.366438 53.635541 
" style="fill:none;stroke:#1f77b4;stroke-linecap:round;stroke-opacity:0.7;stroke-width:3;"/>
   </g>
   <g id="line2d_16">
    <path clip-path="url(#pec03eb4ea5)" d="M 122.802147 269.499758 
L 434.536166 269.499758 
" style="fill:none;stroke:#8b0000;stroke-dasharray:11.1,4.8;stroke-dashoffset:0;stroke-opacity:0.7;stroke-width:3;"/>
   </g>
   <g id="line2d_17">
    <path clip-path="url(#pec03eb4ea5)" d="M 136.971875 59.941327 
L 142.755438 59.941327 
L 148.539 59.941327 
L 154.322563 59.941327 
L 160.106125 59.941327 
L 165.889688 59.941327 
L 171.67325 59.941327 
L 177.456813 59.941327 
L 183.240375 59.941327 
L 189.023938 59.941327 
L 194.8075 59.941327 
L 200.591063 59.941327 
L 206.374625 59.941327 
L 212.158188 59.941327 
L 217.94175 53.635541 
L 223.725313 53.635541 
L 229.508875 53.635541 
L 235.292438 53.635541 
L 241.076 53.635541 
L 246.859563 53.635541 
L 252.643125 53.635541 
L 258.426688 53.635541 
L 264.21025 53.635541 
L 269.993813 53.635541 
L 275.777375 53.635541 
L 281.560938 53.635541 
L 287.3445 53.635541 
L 293.128063 53.635541 
L 298.911625 53.635541 
L 304.695188 53.635541 
L 310.47875 53.635541 
L 316.262313 53.635541 
L 322.045875 53.635541 
L 327.829438 53.635541 
L 333.613 53.635541 
L 339.396563 53.635541 
L 345.180125 53.635541 
L 350.963688 53.635541 
L 356.74725 53.635541 
L 362.530813 53.635541 
L 368.314375 53.635541 
L 374.097938 53.635541 
L 379.8815 53.635541 
L 385.665063 53.635541 
L 391.448625 53.635541 
L 397.232188 53.635541 
L 403.01575 53.635541 
L 408.799313 53.635541 
L 414.582875 53.635541 
L 420.366438 53.635541 
" style="fill:none;stroke:#006400;stroke-dasharray:11.1,4.8;stroke-dashoffset:0;stroke-opacity:0.7;stroke-width:3;"/>
   </g>
   <g id="line2d_18">
    <path clip-path="url(#pec03eb4ea5)" d="M 122.802147 202.545637 
L 434.536166 202.545637 
" style="fill:none;stroke:#808080;stroke-dasharray:5.55,2.4;stroke-dashoffset:0;stroke-opacity:0.7;stroke-width:1.5;"/>
   </g>
   <g id="patch_3">
    <path d="M 136.971875 280.292969 
L 136.971875 38.744531 
" style="fill:none;stroke:#262626;stroke-linecap:square;stroke-linejoin:miter;stroke-width:0.8;"/>
   </g>
   <g id="patch_4">
    <path d="M 136.971875 280.292969 
L 426.15 280.292969 
" style="fill:none;stroke:#262626;stroke-linecap:square;stroke-linejoin:miter;stroke-width:0.8;"/>
   </g>
   <g id="text_17">
    <text style="fill:#262626;font-family:Lato;font-size:15px;font-style:normal;font-weight:bold;text-anchor:middle;" transform="rotate(-0, 281.560938, 32.744531)" x="281.560938" y="32.744531">affinity change, iclust 0</text>
   </g>
   <g id="legend_1">
    <g id="patch_5">
     <path d="M 154.230781 130.532938 
L 315.530469 130.532938 
Q 318.330469 130.532938 318.330469 127.732937 
L 318.330469 69.89325 
Q 318.330469 67.09325 315.530469 67.09325 
L 154.230781 67.09325 
Q 151.430781 67.09325 151.430781 69.89325 
L 151.430781 127.732937 
Q 151.430781 130.532938 154.230781 130.532938 
z
" style="fill:#ffffff;opacity:0.8;stroke:#cccccc;stroke-linejoin:miter;"/>
    </g>
    <g id="line2d_19">
     <path d="M 157.030781 78.194812 
L 185.030781 78.194812 
" style="fill:none;stroke:#8b0000;stroke-dasharray:11.1,4.8;stroke-dashoffset:0;stroke-opacity:0.7;stroke-width:3;"/>
    </g>
    <g id="line2d_20"/>
    <g id="text_18">
     <text style="fill:#262626;font-family:Lato;font-size:14px;font-style:normal;font-weight:600;text-anchor:start;" transform="rotate(-0, 196.230781, 83.094812)" x="196.230781" y="83.094812">no correlation</text>
    </g>
    <g id="line2d_21">
     <path d="M 157.030781 97.941375 
L 185.030781 97.941375 
" style="fill:none;stroke:#006400;stroke-dasharray:11.1,4.8;stroke-dashoffset:0;stroke-opacity:0.7;stroke-width:3;"/>
    </g>
    <g id="line2d_22"/>
    <g id="text_19">
     <text style="fill:#262626;font-family:Lato;font-size:14px;font-style:normal;font-weight:600;text-anchor:start;" transform="rotate(-0, 196.230781, 102.841375)" x="196.230781" y="102.841375">perfect correlation</text>
    </g>
    <g id="line2d_23">
     <path d="M 157.030781 117.687937 
L 185.030781 117.687937 
" style="fill:none;stroke:#808080;stroke-dasharray:5.55,2.4;stroke-dashoffset:0;stroke-opacity:0.7;stroke-width:1.5;"/>
    </g>
    <g id="line2d_24"/>
    <g id="text_20">
     <text style="fill:#262626;font-family:Lato;font-size:14px;font-style:normal;font-weight:600;text-anchor:start;" transform="rotate(-0, 196.230781, 122.587937)" x="196.230781" y="122.587937">zero</text>
    </g>
   </g>
  </g>
 </g>
 <defs>
  <clipPath id="pec03eb4ea5">
   <rect height="241.548437" width="289.178125" x="136.971875" y="38.744531"/>
  </clipPath>
 </defs>
</svg>
