<?xml version="1.0" encoding="utf-8" standalone="no"?>
<!DOCTYPE svg PUBLIC "-//W3C//DTD SVG 1.1//EN"
  "http://www.w3.org/Graphics/SVG/1.1/DTD/svg11.dtd">
<!-- Created with matplotlib (http://matplotlib.org/) -->
<svg height="345.6pt" version="1.1" viewBox="0 0 460.8 345.6" width="460.8pt" xmlns="http://www.w3.org/2000/svg" xmlns:xlink="http://www.w3.org/1999/xlink">
 <defs>
  <style type="text/css">
*{stroke-linecap:butt;stroke-linejoin:round;}
  </style>
 </defs>
 <g id="figure_1">
  <g id="patch_1">
   <path d="M 0 345.6 
L 460.8 345.6 
L 460.8 0 
L 0 0 
z
" style="fill:#ffffff;"/>
  </g>
  <g id="axes_1">
   <g id="patch_2">
    <path d="M 92.16 276.48 
L 437.76 276.48 
L 437.76 27.648 
L 92.16 27.648 
z
" style="fill:#ffffff;"/>
   </g>
   <g id="matplotlib.axis_1">
    <g id="xtick_1">
     <g id="line2d_1">
      <defs>
       <path d="M 0 0 
L 0 3.5 
" id="m1b600c8525" style="stroke:#262626;stroke-width:0.8;"/>
      </defs>
      <g>
       <use style="fill:#262626;stroke:#262626;stroke-width:0.8;" x="113.76" xlink:href="#m1b600c8525" y="276.48"/>
      </g>
     </g>
     <g id="text_1">
      <text style="fill:#262626;font-family:DejaVu Sans;font-size:20px;font-style:normal;font-weight:normal;text-anchor:middle;" transform="rotate(-0, 113.76, 298.676875)" x="113.76" y="298.676875">0</text>
     </g>
    </g>
    <g id="xtick_2">
     <g id="line2d_2">
      <g>
       <use style="fill:#262626;stroke:#262626;stroke-width:0.8;" x="200.16" xlink:href="#m1b600c8525" y="276.48"/>
      </g>
     </g>
     <g id="text_2">
      <text style="fill:#262626;font-family:DejaVu Sans;font-size:20px;font-style:normal;font-weight:normal;text-anchor:middle;" transform="rotate(-0, 200.16, 298.676875)" x="200.16" y="298.676875">2</text>
     </g>
    </g>
    <g id="xtick_3">
     <g id="line2d_3">
      <g>
       <use style="fill:#262626;stroke:#262626;stroke-width:0.8;" x="286.56" xlink:href="#m1b600c8525" y="276.48"/>
      </g>
     </g>
     <g id="text_3">
      <text style="fill:#262626;font-family:DejaVu Sans;font-size:20px;font-style:normal;font-weight:normal;text-anchor:middle;" transform="rotate(-0, 286.56, 298.676875)" x="286.56" y="298.676875">4</text>
     </g>
    </g>
    <g id="xtick_4">
     <g id="line2d_4">
      <g>
       <use style="fill:#262626;stroke:#262626;stroke-width:0.8;" x="372.96" xlink:href="#m1b600c8525" y="276.48"/>
      </g>
     </g>
     <g id="text_4">
      <text style="fill:#262626;font-family:DejaVu Sans;font-size:20px;font-style:normal;font-weight:normal;text-anchor:middle;" transform="rotate(-0, 372.96, 298.676875)" x="372.96" y="298.676875">6</text>
     </g>
    </g>
    <g id="text_5">
     <text style="fill:#262626;font-family:DejaVu Sans;font-size:20px;font-style:normal;font-weight:normal;text-anchor:middle;" transform="rotate(-0, 264.96, 322.033125)" x="264.96" y="322.033125">DJ N length</text>
    </g>
   </g>
   <g id="matplotlib.axis_2">
    <g id="ytick_1">
     <g id="line2d_5">
      <defs>
       <path d="M 0 0 
L -3.5 0 
" id="m65eaae277e" style="stroke:#262626;stroke-width:0.8;"/>
      </defs>
      <g>
       <use style="fill:#262626;stroke:#262626;stroke-width:0.8;" x="92.16" xlink:href="#m65eaae277e" y="270.153763"/>
      </g>
     </g>
     <g id="text_6">
      <text style="fill:#262626;font-family:DejaVu Sans;font-size:20px;font-style:normal;font-weight:normal;text-anchor:end;" transform="rotate(-0, 85.16, 277.7522)" x="85.16" y="277.7522">0</text>
     </g>
    </g>
    <g id="ytick_2">
     <g id="line2d_6">
      <g>
       <use style="fill:#262626;stroke:#262626;stroke-width:0.8;" x="92.16" xlink:href="#m65eaae277e" y="226.941759"/>
      </g>
     </g>
     <g id="text_7">
      <text style="fill:#262626;font-family:DejaVu Sans;font-size:20px;font-style:normal;font-weight:normal;text-anchor:end;" transform="rotate(-0, 85.16, 234.540197)" x="85.16" y="234.540197">25</text>
     </g>
    </g>
    <g id="ytick_3">
     <g id="line2d_7">
      <g>
       <use style="fill:#262626;stroke:#262626;stroke-width:0.8;" x="92.16" xlink:href="#m65eaae277e" y="183.729756"/>
      </g>
     </g>
     <g id="text_8">
      <text style="fill:#262626;font-family:DejaVu Sans;font-size:20px;font-style:normal;font-weight:normal;text-anchor:end;" transform="rotate(-0, 85.16, 191.328194)" x="85.16" y="191.328194">50</text>
     </g>
    </g>
    <g id="ytick_4">
     <g id="line2d_8">
      <g>
       <use style="fill:#262626;stroke:#262626;stroke-width:0.8;" x="92.16" xlink:href="#m65eaae277e" y="140.517753"/>
      </g>
     </g>
     <g id="text_9">
      <text style="fill:#262626;font-family:DejaVu Sans;font-size:20px;font-style:normal;font-weight:normal;text-anchor:end;" transform="rotate(-0, 85.16, 148.11619)" x="85.16" y="148.11619">75</text>
     </g>
    </g>
    <g id="ytick_5">
     <g id="line2d_9">
      <g>
       <use style="fill:#262626;stroke:#262626;stroke-width:0.8;" x="92.16" xlink:href="#m65eaae277e" y="97.305749"/>
      </g>
     </g>
     <g id="text_10">
      <text style="fill:#262626;font-family:DejaVu Sans;font-size:20px;font-style:normal;font-weight:normal;text-anchor:end;" transform="rotate(-0, 85.16, 104.904187)" x="85.16" y="104.904187">100</text>
     </g>
    </g>
    <g id="ytick_6">
     <g id="line2d_10">
      <g>
       <use style="fill:#262626;stroke:#262626;stroke-width:0.8;" x="92.16" xlink:href="#m65eaae277e" y="54.093746"/>
      </g>
     </g>
     <g id="text_11">
      <text style="fill:#262626;font-family:DejaVu Sans;font-size:20px;font-style:normal;font-weight:normal;text-anchor:end;" transform="rotate(-0, 85.16, 61.692184)" x="85.16" y="61.692184">125</text>
     </g>
    </g>
    <g id="text_12">
     <text style="fill:#262626;font-family:DejaVu Sans;font-size:20px;font-style:normal;font-weight:normal;text-anchor:middle;" transform="rotate(-90, 38.825625, 152.064)" x="38.825625" y="152.064">counts</text>
    </g>
   </g>
   <g id="LineCollection_1">
    <path clip-path="url(#p6e1d24543c)" d="M 113.76 262.62753 
L 113.76 253.481273 
" style="fill:none;stroke:#4169e1;stroke-width:3;"/>
    <path clip-path="url(#p6e1d24543c)" d="M 156.96 229.335989 
L 156.96 210.719688 
" style="fill:none;stroke:#4169e1;stroke-width:3;"/>
    <path clip-path="url(#p6e1d24543c)" d="M 200.16 270.153763 
L 200.16 270.153763 
" style="fill:none;stroke:#4169e1;stroke-width:3;"/>
    <path clip-path="url(#p6e1d24543c)" d="M 243.36 270.153763 
L 243.36 266.696802 
" style="fill:none;stroke:#4169e1;stroke-width:3;"/>
    <path clip-path="url(#p6e1d24543c)" d="M 286.56 270.153763 
L 286.56 270.153763 
" style="fill:none;stroke:#4169e1;stroke-width:3;"/>
    <path clip-path="url(#p6e1d24543c)" d="M 329.76 270.153763 
L 329.76 270.153763 
" style="fill:none;stroke:#4169e1;stroke-width:3;"/>
    <path clip-path="url(#p6e1d24543c)" d="M 372.96 270.153763 
L 372.96 270.153763 
" style="fill:none;stroke:#4169e1;stroke-width:3;"/>
    <path clip-path="url(#p6e1d24543c)" d="M 416.16 78.370874 
L 416.16 40.187499 
" style="fill:none;stroke:#4169e1;stroke-width:3;"/>
   </g>
   <g id="line2d_11">
    <path clip-path="url(#p6e1d24543c)" d="M 113.76 258.054402 
L 156.96 220.027839 
L 200.16 270.153763 
L 243.36 268.425283 
L 286.56 270.153763 
L 329.76 270.153763 
L 372.96 270.153763 
L 416.16 59.279186 
" style="fill:none;stroke:#4169e1;stroke-linecap:round;stroke-width:3;"/>
    <defs>
     <path d="M 0 3.25 
C 0.86191 3.25 1.688635 2.907559 2.298097 2.298097 
C 2.907559 1.688635 3.25 0.86191 3.25 0 
C 3.25 -0.86191 2.907559 -1.688635 2.298097 -2.298097 
C 1.688635 -2.907559 0.86191 -3.25 0 -3.25 
C -0.86191 -3.25 -1.688635 -2.907559 -2.298097 -2.298097 
C -2.907559 -1.688635 -3.25 -0.86191 -3.25 0 
C -3.25 0.86191 -2.907559 1.688635 -2.298097 2.298097 
C -1.688635 2.907559 -0.86191 3.25 0 3.25 
z
" id="m981f8cad79" style="stroke:#4169e1;"/>
    </defs>
    <g clip-path="url(#p6e1d24543c)">
     <use style="fill:#4169e1;stroke:#4169e1;" x="113.76" xlink:href="#m981f8cad79" y="258.054402"/>
     <use style="fill:#4169e1;stroke:#4169e1;" x="156.96" xlink:href="#m981f8cad79" y="220.027839"/>
     <use style="fill:#4169e1;stroke:#4169e1;" x="200.16" xlink:href="#m981f8cad79" y="270.153763"/>
     <use style="fill:#4169e1;stroke:#4169e1;" x="243.36" xlink:href="#m981f8cad79" y="268.425283"/>
     <use style="fill:#4169e1;stroke:#4169e1;" x="286.56" xlink:href="#m981f8cad79" y="270.153763"/>
     <use style="fill:#4169e1;stroke:#4169e1;" x="329.76" xlink:href="#m981f8cad79" y="270.153763"/>
     <use style="fill:#4169e1;stroke:#4169e1;" x="372.96" xlink:href="#m981f8cad79" y="270.153763"/>
     <use style="fill:#4169e1;stroke:#4169e1;" x="416.16" xlink:href="#m981f8cad79" y="59.279186"/>
    </g>
   </g>
   <g id="patch_3">
    <path d="M 92.16 276.48 
L 92.16 27.648 
" style="fill:none;stroke:#262626;stroke-linecap:square;stroke-linejoin:miter;stroke-width:0.8;"/>
   </g>
   <g id="patch_4">
    <path d="M 92.16 276.48 
L 437.76 276.48 
" style="fill:none;stroke:#262626;stroke-linecap:square;stroke-linejoin:miter;stroke-width:0.8;"/>
   </g>
   <g id="text_13">
    <text style="fill:#262626;font-family:DejaVu Sans;font-size:20px;font-style:normal;font-weight:bold;text-anchor:middle;" transform="rotate(-0, 264.96, 21.648)" x="264.96" y="21.648">IGHJ6*02</text>
   </g>
  </g>
 </g>
 <defs>
  <clipPath id="p6e1d24543c">
   <rect height="248.832" width="345.6" x="92.16" y="27.648"/>
  </clipPath>
 </defs>
</svg>
