<?xml version="1.0" encoding="utf-8" standalone="no"?>
<!DOCTYPE svg PUBLIC "-//W3C//DTD SVG 1.1//EN"
  "http://www.w3.org/Graphics/SVG/1.1/DTD/svg11.dtd">
<!-- Created with matplotlib (http://matplotlib.org/) -->
<svg height="345.6pt" version="1.1" viewBox="0 0 460.8 345.6" width="460.8pt" xmlns="http://www.w3.org/2000/svg" xmlns:xlink="http://www.w3.org/1999/xlink">
 <defs>
  <style type="text/css">
*{stroke-linecap:butt;stroke-linejoin:round;}
  </style>
 </defs>
 <g id="figure_1">
  <g id="patch_1">
   <path d="M 0 345.6 
L 460.8 345.6 
L 460.8 0 
L 0 0 
z
" style="fill:#ffffff;"/>
  </g>
  <g id="axes_1">
   <g id="patch_2">
    <path d="M 92.16 276.48 
L 437.76 276.48 
L 437.76 27.648 
L 92.16 27.648 
z
" style="fill:#ffffff;"/>
   </g>
   <g id="matplotlib.axis_1">
    <g id="xtick_1">
     <g id="line2d_1">
      <defs>
       <path d="M 0 0 
L 0 3.5 
" id="m3c6681160a" style="stroke:#262626;stroke-width:0.8;"/>
      </defs>
      <g>
       <use style="fill:#262626;stroke:#262626;stroke-width:0.8;" x="211.790769" xlink:href="#m3c6681160a" y="276.48"/>
      </g>
     </g>
     <g id="text_1">
      <text style="fill:#262626;font-family:DejaVu Sans;font-size:20px;font-style:normal;font-weight:normal;text-anchor:middle;" transform="rotate(-0, 211.790769, 298.676875)" x="211.790769" y="298.676875">5</text>
     </g>
    </g>
    <g id="xtick_2">
     <g id="line2d_2">
      <g>
       <use style="fill:#262626;stroke:#262626;stroke-width:0.8;" x="344.713846" xlink:href="#m3c6681160a" y="276.48"/>
      </g>
     </g>
     <g id="text_2">
      <text style="fill:#262626;font-family:DejaVu Sans;font-size:20px;font-style:normal;font-weight:normal;text-anchor:middle;" transform="rotate(-0, 344.713846, 298.676875)" x="344.713846" y="298.676875">10</text>
     </g>
    </g>
    <g id="text_3">
     <text style="fill:#262626;font-family:DejaVu Sans;font-size:20px;font-style:normal;font-weight:normal;text-anchor:middle;" transform="rotate(-0, 264.96, 322.033125)" x="264.96" y="322.033125">DJ N length</text>
    </g>
   </g>
   <g id="matplotlib.axis_2">
    <g id="ytick_1">
     <g id="line2d_3">
      <defs>
       <path d="M 0 0 
L -3.5 0 
" id="m0563469308" style="stroke:#262626;stroke-width:0.8;"/>
      </defs>
      <g>
       <use style="fill:#262626;stroke:#262626;stroke-width:0.8;" x="92.16" xlink:href="#m0563469308" y="270.153763"/>
      </g>
     </g>
     <g id="text_4">
      <text style="fill:#262626;font-family:DejaVu Sans;font-size:20px;font-style:normal;font-weight:normal;text-anchor:end;" transform="rotate(-0, 85.16, 277.7522)" x="85.16" y="277.7522">0</text>
     </g>
    </g>
    <g id="ytick_2">
     <g id="line2d_4">
      <g>
       <use style="fill:#262626;stroke:#262626;stroke-width:0.8;" x="92.16" xlink:href="#m0563469308" y="205.388844"/>
      </g>
     </g>
     <g id="text_5">
      <text style="fill:#262626;font-family:DejaVu Sans;font-size:20px;font-style:normal;font-weight:normal;text-anchor:end;" transform="rotate(-0, 85.16, 212.987281)" x="85.16" y="212.987281">500</text>
     </g>
    </g>
    <g id="ytick_3">
     <g id="line2d_5">
      <g>
       <use style="fill:#262626;stroke:#262626;stroke-width:0.8;" x="92.16" xlink:href="#m0563469308" y="140.623925"/>
      </g>
     </g>
     <g id="text_6">
      <text style="fill:#262626;font-family:DejaVu Sans;font-size:20px;font-style:normal;font-weight:normal;text-anchor:end;" transform="rotate(-0, 85.16, 148.222362)" x="85.16" y="148.222362">1000</text>
     </g>
    </g>
    <g id="ytick_4">
     <g id="line2d_6">
      <g>
       <use style="fill:#262626;stroke:#262626;stroke-width:0.8;" x="92.16" xlink:href="#m0563469308" y="75.859006"/>
      </g>
     </g>
     <g id="text_7">
      <text style="fill:#262626;font-family:DejaVu Sans;font-size:20px;font-style:normal;font-weight:normal;text-anchor:end;" transform="rotate(-0, 85.16, 83.457443)" x="85.16" y="83.457443">1500</text>
     </g>
    </g>
    <g id="text_8">
     <text style="fill:#262626;font-family:DejaVu Sans;font-size:20px;font-style:normal;font-weight:normal;text-anchor:middle;" transform="rotate(-90, 26.100625, 152.064)" x="26.100625" y="152.064">counts</text>
    </g>
   </g>
   <g id="LineCollection_1">
    <path clip-path="url(#pa945571731)" d="M 105.452308 64.505519 
L 105.452308 54.052854 
" style="fill:none;stroke:#4169e1;stroke-width:3;"/>
    <path clip-path="url(#pa945571731)" d="M 132.036923 269.048109 
L 132.036923 268.1507 
" style="fill:none;stroke:#4169e1;stroke-width:3;"/>
    <path clip-path="url(#pa945571731)" d="M 158.621538 258.742119 
L 158.621538 256.177559 
" style="fill:none;stroke:#4169e1;stroke-width:3;"/>
    <path clip-path="url(#pa945571731)" d="M 185.206154 269.589758 
L 185.206154 268.90435 
" style="fill:none;stroke:#4169e1;stroke-width:3;"/>
    <path clip-path="url(#pa945571731)" d="M 211.790769 270.077886 
L 211.790769 269.71152 
" style="fill:none;stroke:#4169e1;stroke-width:3;"/>
    <path clip-path="url(#pa945571731)" d="M 238.375385 270.153763 
L 238.375385 270.153763 
" style="fill:none;stroke:#4169e1;stroke-width:3;"/>
    <path clip-path="url(#pa945571731)" d="M 264.96 270.153763 
L 264.96 270.153763 
" style="fill:none;stroke:#4169e1;stroke-width:3;"/>
    <path clip-path="url(#pa945571731)" d="M 291.544615 270.153763 
L 291.544615 270.153763 
" style="fill:none;stroke:#4169e1;stroke-width:3;"/>
    <path clip-path="url(#pa945571731)" d="M 318.129231 270.153763 
L 318.129231 270.153763 
" style="fill:none;stroke:#4169e1;stroke-width:3;"/>
    <path clip-path="url(#pa945571731)" d="M 344.713846 270.153763 
L 344.713846 270.153763 
" style="fill:none;stroke:#4169e1;stroke-width:3;"/>
    <path clip-path="url(#pa945571731)" d="M 371.298462 270.153763 
L 371.298462 270.153763 
" style="fill:none;stroke:#4169e1;stroke-width:3;"/>
    <path clip-path="url(#pa945571731)" d="M 397.883077 269.989525 
L 397.883077 269.540821 
" style="fill:none;stroke:#4169e1;stroke-width:3;"/>
    <path clip-path="url(#pa945571731)" d="M 424.467692 270.153763 
L 424.467692 269.894703 
" style="fill:none;stroke:#4169e1;stroke-width:3;"/>
   </g>
   <g id="line2d_7">
    <path clip-path="url(#pa945571731)" d="M 105.452308 59.279186 
L 132.036923 268.599405 
L 158.621538 257.459839 
L 185.206154 269.247054 
L 211.790769 269.894703 
L 238.375385 270.153763 
L 264.96 270.153763 
L 291.544615 270.153763 
L 318.129231 270.153763 
L 344.713846 270.153763 
L 371.298462 270.153763 
L 397.883077 269.765173 
L 424.467692 270.024233 
" style="fill:none;stroke:#4169e1;stroke-linecap:round;stroke-width:3;"/>
    <defs>
     <path d="M 0 3.25 
C 0.86191 3.25 1.688635 2.907559 2.298097 2.298097 
C 2.907559 1.688635 3.25 0.86191 3.25 0 
C 3.25 -0.86191 2.907559 -1.688635 2.298097 -2.298097 
C 1.688635 -2.907559 0.86191 -3.25 0 -3.25 
C -0.86191 -3.25 -1.688635 -2.907559 -2.298097 -2.298097 
C -2.907559 -1.688635 -3.25 -0.86191 -3.25 0 
C -3.25 0.86191 -2.907559 1.688635 -2.298097 2.298097 
C -1.688635 2.907559 -0.86191 3.25 0 3.25 
z
" id="m1596b4fc47" style="stroke:#4169e1;"/>
    </defs>
    <g clip-path="url(#pa945571731)">
     <use style="fill:#4169e1;stroke:#4169e1;" x="105.452308" xlink:href="#m1596b4fc47" y="59.279186"/>
     <use style="fill:#4169e1;stroke:#4169e1;" x="132.036923" xlink:href="#m1596b4fc47" y="268.599405"/>
     <use style="fill:#4169e1;stroke:#4169e1;" x="158.621538" xlink:href="#m1596b4fc47" y="257.459839"/>
     <use style="fill:#4169e1;stroke:#4169e1;" x="185.206154" xlink:href="#m1596b4fc47" y="269.247054"/>
     <use style="fill:#4169e1;stroke:#4169e1;" x="211.790769" xlink:href="#m1596b4fc47" y="269.894703"/>
     <use style="fill:#4169e1;stroke:#4169e1;" x="238.375385" xlink:href="#m1596b4fc47" y="270.153763"/>
     <use style="fill:#4169e1;stroke:#4169e1;" x="264.96" xlink:href="#m1596b4fc47" y="270.153763"/>
     <use style="fill:#4169e1;stroke:#4169e1;" x="291.544615" xlink:href="#m1596b4fc47" y="270.153763"/>
     <use style="fill:#4169e1;stroke:#4169e1;" x="318.129231" xlink:href="#m1596b4fc47" y="270.153763"/>
     <use style="fill:#4169e1;stroke:#4169e1;" x="344.713846" xlink:href="#m1596b4fc47" y="270.153763"/>
     <use style="fill:#4169e1;stroke:#4169e1;" x="371.298462" xlink:href="#m1596b4fc47" y="270.153763"/>
     <use style="fill:#4169e1;stroke:#4169e1;" x="397.883077" xlink:href="#m1596b4fc47" y="269.765173"/>
     <use style="fill:#4169e1;stroke:#4169e1;" x="424.467692" xlink:href="#m1596b4fc47" y="270.024233"/>
    </g>
   </g>
   <g id="patch_3">
    <path d="M 92.16 276.48 
L 92.16 27.648 
" style="fill:none;stroke:#262626;stroke-linecap:square;stroke-linejoin:miter;stroke-width:0.8;"/>
   </g>
   <g id="patch_4">
    <path d="M 92.16 276.48 
L 437.76 276.48 
" style="fill:none;stroke:#262626;stroke-linecap:square;stroke-linejoin:miter;stroke-width:0.8;"/>
   </g>
   <g id="text_9">
    <text style="fill:#262626;font-family:DejaVu Sans;font-size:20px;font-style:normal;font-weight:bold;text-anchor:middle;" transform="rotate(-0, 264.96, 21.648)" x="264.96" y="21.648">IGHJ5*01</text>
   </g>
  </g>
 </g>
 <defs>
  <clipPath id="pa945571731">
   <rect height="248.832" width="345.6" x="92.16" y="27.648"/>
  </clipPath>
 </defs>
</svg>
