<?xml version="1.0" encoding="utf-8" standalone="no"?>
<!DOCTYPE svg PUBLIC "-//W3C//DTD SVG 1.1//EN"
  "http://www.w3.org/Graphics/SVG/1.1/DTD/svg11.dtd">
<!-- Created with matplotlib (http://matplotlib.org/) -->
<svg height="345.6pt" version="1.1" viewBox="0 0 460.8 345.6" width="460.8pt" xmlns="http://www.w3.org/2000/svg" xmlns:xlink="http://www.w3.org/1999/xlink">
 <defs>
  <style type="text/css">
*{stroke-linecap:butt;stroke-linejoin:round;}
  </style>
 </defs>
 <g id="figure_1">
  <g id="patch_1">
   <path d="M 0 345.6 
L 460.8 345.6 
L 460.8 0 
L 0 0 
z
" style="fill:#ffffff;"/>
  </g>
  <g id="axes_1">
   <g id="patch_2">
    <path d="M 0 345.6 
L 460.8 345.6 
L 460.8 0 
L 0 0 
z
" style="fill:#ffffff;"/>
   </g>
   <g id="PathCollection_1">
    <defs>
     <path d="M 0 3 
C 0.795609 3 1.55874 2.683901 2.12132 2.12132 
C 2.683901 1.55874 3 0.795609 3 0 
C 3 -0.795609 2.683901 -1.55874 2.12132 -2.12132 
C 1.55874 -2.683901 0.795609 -3 0 -3 
C -0.795609 -3 -1.55874 -2.683901 -2.12132 -2.12132 
C -2.683901 -1.55874 -3 -0.795609 -3 0 
C -3 0.795609 -2.683901 1.55874 -2.12132 2.12132 
C -1.55874 2.683901 -0.795609 3 0 3 
z
" id="m5614668c86" style="stroke:#9dcae1;"/>
    </defs>
    <g clip-path="url(#pca88a22762)">
     <use style="fill:#9dcae1;stroke:#9dcae1;" x="168.952708" xlink:href="#m5614668c86" y="131.106585"/>
    </g>
   </g>
   <g id="PathCollection_2">
    <defs>
     <path d="M 0 3 
C 0.795609 3 1.55874 2.683901 2.12132 2.12132 
C 2.683901 1.55874 3 0.795609 3 0 
C 3 -0.795609 2.683901 -1.55874 2.12132 -2.12132 
C 1.55874 -2.683901 0.795609 -3 0 -3 
C -0.795609 -3 -1.55874 -2.683901 -2.12132 -2.12132 
C -2.683901 -1.55874 -3 -0.795609 -3 0 
C -3 0.795609 -2.683901 1.55874 -2.12132 2.12132 
C -1.55874 2.683901 -0.795609 3 0 3 
z
" id="mbf52f9d396" style="stroke:#3181bd;"/>
    </defs>
    <g clip-path="url(#pca88a22762)">
     <use style="fill:#3181bd;stroke:#3181bd;" x="60.315087" xlink:href="#mbf52f9d396" y="271.076185"/>
    </g>
   </g>
   <g id="PathCollection_3">
    <g clip-path="url(#pca88a22762)">
     <use style="fill:#3181bd;stroke:#3181bd;" x="54.972253" xlink:href="#mbf52f9d396" y="253.358514"/>
    </g>
   </g>
   <g id="PathCollection_4">
    <defs>
     <path d="M 0 3 
C 0.795609 3 1.55874 2.683901 2.12132 2.12132 
C 2.683901 1.55874 3 0.795609 3 0 
C 3 -0.795609 2.683901 -1.55874 2.12132 -2.12132 
C 1.55874 -2.683901 0.795609 -3 0 -3 
C -0.795609 -3 -1.55874 -2.683901 -2.12132 -2.12132 
C -2.683901 -1.55874 -3 -0.795609 -3 0 
C -3 0.795609 -2.683901 1.55874 -2.12132 2.12132 
C -1.55874 2.683901 -0.795609 3 0 3 
z
" id="m3c52faa828" style="stroke:#1966ad;"/>
    </defs>
    <g clip-path="url(#pca88a22762)">
     <use style="fill:#1966ad;stroke:#1966ad;" x="31.819973" xlink:href="#m3c52faa828" y="315.370363"/>
    </g>
   </g>
   <g id="PathCollection_5">
    <defs>
     <path d="M 0 3 
C 0.795609 3 1.55874 2.683901 2.12132 2.12132 
C 2.683901 1.55874 3 0.795609 3 0 
C 3 -0.795609 2.683901 -1.55874 2.12132 -2.12132 
C 1.55874 -2.683901 0.795609 -3 0 -3 
C -0.795609 -3 -1.55874 -2.683901 -2.12132 -2.12132 
C -2.683901 -1.55874 -3 -0.795609 -3 0 
C -3 0.795609 -2.683901 1.55874 -2.12132 2.12132 
C -1.55874 2.683901 -0.795609 3 0 3 
z
" id="mba917fc35c" style="stroke:#084b93;"/>
    </defs>
    <g clip-path="url(#pca88a22762)">
     <use style="fill:#084b93;stroke:#084b93;" x="404.037395" xlink:href="#mba917fc35c" y="297.652692"/>
    </g>
   </g>
   <g id="PathCollection_6">
    <g clip-path="url(#pca88a22762)">
     <use style="fill:#3181bd;stroke:#3181bd;" x="298.961664" xlink:href="#mbf52f9d396" y="161.226625"/>
    </g>
   </g>
   <g id="PathCollection_7">
    <g clip-path="url(#pca88a22762)">
     <use style="fill:#084b93;stroke:#084b93;" x="24.696195" xlink:href="#mba917fc35c" y="322.457431"/>
    </g>
   </g>
   <g id="PathCollection_8">
    <g clip-path="url(#pca88a22762)">
     <use style="fill:#3181bd;stroke:#3181bd;" x="168.952708" xlink:href="#mbf52f9d396" y="33.659395"/>
    </g>
   </g>
   <g id="PathCollection_9">
    <defs>
     <path d="M 0 3 
C 0.795609 3 1.55874 2.683901 2.12132 2.12132 
C 2.683901 1.55874 3 0.795609 3 0 
C 3 -0.795609 2.683901 -1.55874 2.12132 -2.12132 
C 1.55874 -2.683901 0.795609 -3 0 -3 
C -0.795609 -3 -1.55874 -2.683901 -2.12132 -2.12132 
C -2.683901 -1.55874 -3 -0.795609 -3 0 
C -3 0.795609 -2.683901 1.55874 -2.12132 2.12132 
C -1.55874 2.683901 -0.795609 3 0 3 
z
" id="md80edda318" style="stroke:#4f9bcb;"/>
    </defs>
    <g clip-path="url(#pca88a22762)">
     <use style="fill:#4f9bcb;stroke:#4f9bcb;" x="97.714924" xlink:href="#md80edda318" y="302.967993"/>
    </g>
   </g>
   <g id="PathCollection_10">
    <g clip-path="url(#pca88a22762)">
     <use style="fill:#3181bd;stroke:#3181bd;" x="318.552054" xlink:href="#mbf52f9d396" y="164.77016"/>
    </g>
   </g>
   <g id="PathCollection_11">
    <g clip-path="url(#pca88a22762)">
     <use style="fill:#4f9bcb;stroke:#4f9bcb;" x="257.999938" xlink:href="#md80edda318" y="263.989117"/>
    </g>
   </g>
   <g id="PathCollection_12">
    <defs>
     <path d="M 0 3 
C 0.795609 3 1.55874 2.683901 2.12132 2.12132 
C 2.683901 1.55874 3 0.795609 3 0 
C 3 -0.795609 2.683901 -1.55874 2.12132 -2.12132 
C 1.55874 -2.683901 0.795609 -3 0 -3 
C -0.795609 -3 -1.55874 -2.683901 -2.12132 -2.12132 
C -2.683901 -1.55874 -3 -0.795609 -3 0 
C -3 0.795609 -2.683901 1.55874 -2.12132 2.12132 
C -1.55874 2.683901 -0.795609 3 0 3 
z
" id="m905befb027" style="stroke:#74b3d8;"/>
    </defs>
    <g clip-path="url(#pca88a22762)">
     <use style="fill:#74b3d8;stroke:#74b3d8;" x="156.486096" xlink:href="#m905befb027" y="99.214777"/>
    </g>
   </g>
   <g id="PathCollection_13">
    <g clip-path="url(#pca88a22762)">
     <use style="fill:#4f9bcb;stroke:#4f9bcb;" x="168.952708" xlink:href="#md80edda318" y="56.692367"/>
    </g>
   </g>
   <g id="PathCollection_14">
    <g clip-path="url(#pca88a22762)">
     <use style="fill:#74b3d8;stroke:#74b3d8;" x="174.295542" xlink:href="#m905befb027" y="77.953572"/>
    </g>
   </g>
   <g id="PathCollection_15">
    <g clip-path="url(#pca88a22762)">
     <use style="fill:#4f9bcb;stroke:#4f9bcb;" x="140.457594" xlink:href="#md80edda318" y="150.596023"/>
    </g>
   </g>
   <g id="PathCollection_16">
    <g clip-path="url(#pca88a22762)">
     <use style="fill:#1966ad;stroke:#1966ad;" x="138.67665" xlink:href="#m3c52faa828" y="47.833531"/>
    </g>
   </g>
   <g id="PathCollection_17">
    <g clip-path="url(#pca88a22762)">
     <use style="fill:#74b3d8;stroke:#74b3d8;" x="259.780883" xlink:href="#m905befb027" y="180.716064"/>
    </g>
   </g>
   <g id="PathCollection_18">
    <g clip-path="url(#pca88a22762)">
     <use style="fill:#4f9bcb;stroke:#4f9bcb;" x="277.590329" xlink:href="#md80edda318" y="136.421886"/>
    </g>
   </g>
   <g id="PathCollection_19">
    <g clip-path="url(#pca88a22762)">
     <use style="fill:#3181bd;stroke:#3181bd;" x="167.171763" xlink:href="#mbf52f9d396" y="111.617147"/>
    </g>
   </g>
   <g id="PathCollection_20">
    <g clip-path="url(#pca88a22762)">
     <use style="fill:#74b3d8;stroke:#74b3d8;" x="147.581373" xlink:href="#m905befb027" y="97.44301"/>
    </g>
   </g>
   <g id="PathCollection_21">
    <g clip-path="url(#pca88a22762)">
     <use style="fill:#1966ad;stroke:#1966ad;" x="172.514597" xlink:href="#m3c52faa828" y="17.713491"/>
    </g>
   </g>
   <g id="PathCollection_22">
    <g clip-path="url(#pca88a22762)">
     <use style="fill:#1966ad;stroke:#1966ad;" x="179.638375" xlink:href="#m3c52faa828" y="77.953572"/>
    </g>
   </g>
   <g id="PathCollection_23">
    <g clip-path="url(#pca88a22762)">
     <use style="fill:#3181bd;stroke:#3181bd;" x="151.143262" xlink:href="#mbf52f9d396" y="104.530078"/>
    </g>
   </g>
   <g id="PathCollection_24">
    <g clip-path="url(#pca88a22762)">
     <use style="fill:#084b93;stroke:#084b93;" x="177.857431" xlink:href="#mba917fc35c" y="115.160681"/>
    </g>
   </g>
   <g id="PathCollection_25">
    <g clip-path="url(#pca88a22762)">
     <use style="fill:#74b3d8;stroke:#74b3d8;" x="172.514597" xlink:href="#m905befb027" y="76.181805"/>
    </g>
   </g>
   <g id="PathCollection_26">
    <g clip-path="url(#pca88a22762)">
     <use style="fill:#3181bd;stroke:#3181bd;" x="176.076486" xlink:href="#mbf52f9d396" y="108.073613"/>
    </g>
   </g>
   <g id="PathCollection_27">
    <g clip-path="url(#pca88a22762)">
     <use style="fill:#3181bd;stroke:#3181bd;" x="284.714107" xlink:href="#mbf52f9d396" y="154.139557"/>
    </g>
   </g>
   <g id="PathCollection_28">
    <g clip-path="url(#pca88a22762)">
     <use style="fill:#4f9bcb;stroke:#4f9bcb;" x="172.514597" xlink:href="#md80edda318" y="106.301846"/>
    </g>
   </g>
   <g id="PathCollection_29">
    <g clip-path="url(#pca88a22762)">
     <use style="fill:#9dcae1;stroke:#9dcae1;" x="252.657104" xlink:href="#m5614668c86" y="161.226625"/>
    </g>
   </g>
   <g id="PathCollection_30">
    <defs>
     <path d="M 0 3 
C 0.795609 3 1.55874 2.683901 2.12132 2.12132 
C 2.683901 1.55874 3 0.795609 3 0 
C 3 -0.795609 2.683901 -1.55874 2.12132 -2.12132 
C 1.55874 -2.683901 0.795609 -3 0 -3 
C -0.795609 -3 -1.55874 -2.683901 -2.12132 -2.12132 
C -2.683901 -1.55874 -3 -0.795609 -3 0 
C -3 0.795609 -2.683901 1.55874 -2.12132 2.12132 
C -1.55874 2.683901 -0.795609 3 0 3 
z
" id="mba772a387c" style="stroke:#d6e6f4;"/>
    </defs>
    <g clip-path="url(#pca88a22762)">
     <use style="fill:#d6e6f4;stroke:#d6e6f4;" x="184.981209" xlink:href="#mba772a387c" y="152.36779"/>
    </g>
   </g>
   <g id="PathCollection_31">
    <g clip-path="url(#pca88a22762)">
     <use style="fill:#74b3d8;stroke:#74b3d8;" x="188.543098" xlink:href="#m905befb027" y="92.127709"/>
    </g>
   </g>
   <g id="PathCollection_32">
    <g clip-path="url(#pca88a22762)">
     <use style="fill:#4f9bcb;stroke:#4f9bcb;" x="170.733652" xlink:href="#md80edda318" y="58.464134"/>
    </g>
   </g>
   <g id="PathCollection_33">
    <g clip-path="url(#pca88a22762)">
     <use style="fill:#3181bd;stroke:#3181bd;" x="156.486096" xlink:href="#mbf52f9d396" y="74.410038"/>
    </g>
   </g>
   <g id="PathCollection_34">
    <g clip-path="url(#pca88a22762)">
     <use style="fill:#4f9bcb;stroke:#4f9bcb;" x="111.962481" xlink:href="#md80edda318" y="184.259598"/>
    </g>
   </g>
   <g id="PathCollection_35">
    <g clip-path="url(#pca88a22762)">
     <use style="fill:#74b3d8;stroke:#74b3d8;" x="136.895705" xlink:href="#m905befb027" y="196.661967"/>
    </g>
   </g>
   <g id="PathCollection_36">
    <defs>
     <path d="M 0 3 
C 0.795609 3 1.55874 2.683901 2.12132 2.12132 
C 2.683901 1.55874 3 0.795609 3 0 
C 3 -0.795609 2.683901 -1.55874 2.12132 -2.12132 
C 1.55874 -2.683901 0.795609 -3 0 -3 
C -0.795609 -3 -1.55874 -2.683901 -2.12132 -2.12132 
C -2.683901 -1.55874 -3 -0.795609 -3 0 
C -3 0.795609 -2.683901 1.55874 -2.12132 2.12132 
C -1.55874 2.683901 -0.795609 3 0 3 
z
" id="meaf08a13ea" style="stroke:#08306b;"/>
    </defs>
    <g clip-path="url(#pca88a22762)">
     <use style="fill:#08306b;stroke:#08306b;" x="22.91525" xlink:href="#meaf08a13ea" y="184.259598"/>
    </g>
   </g>
   <g id="PathCollection_37">
    <g clip-path="url(#pca88a22762)">
     <use style="fill:#4f9bcb;stroke:#4f9bcb;" x="79.905478" xlink:href="#md80edda318" y="255.130281"/>
    </g>
   </g>
   <g id="PathCollection_38">
    <g clip-path="url(#pca88a22762)">
     <use style="fill:#084b93;stroke:#084b93;" x="318.552054" xlink:href="#mba917fc35c" y="253.358514"/>
    </g>
   </g>
   <g id="PathCollection_39">
    <g clip-path="url(#pca88a22762)">
     <use style="fill:#1966ad;stroke:#1966ad;" x="156.486096" xlink:href="#m3c52faa828" y="79.725339"/>
    </g>
   </g>
   <g id="PathCollection_40">
    <g clip-path="url(#pca88a22762)">
     <use style="fill:#084b93;stroke:#084b93;" x="151.143262" xlink:href="#mba917fc35c" y="46.061764"/>
    </g>
   </g>
   <g id="PathCollection_41">
    <g clip-path="url(#pca88a22762)">
     <use style="fill:#9dcae1;stroke:#9dcae1;" x="174.295542" xlink:href="#m5614668c86" y="131.106585"/>
    </g>
   </g>
   <g id="PathCollection_42">
    <g clip-path="url(#pca88a22762)">
     <use style="fill:#9dcae1;stroke:#9dcae1;" x="163.609874" xlink:href="#m5614668c86" y="111.617147"/>
    </g>
   </g>
   <g id="PathCollection_43">
    <g clip-path="url(#pca88a22762)">
     <use style="fill:#1966ad;stroke:#1966ad;" x="336.361501" xlink:href="#m3c52faa828" y="164.77016"/>
    </g>
   </g>
   <g id="PathCollection_44">
    <g clip-path="url(#pca88a22762)">
     <use style="fill:#084b93;stroke:#084b93;" x="95.933979" xlink:href="#mba917fc35c" y="162.998393"/>
    </g>
   </g>
   <g id="PathCollection_45">
    <g clip-path="url(#pca88a22762)">
     <use style="fill:#4f9bcb;stroke:#4f9bcb;" x="152.924206" xlink:href="#md80edda318" y="131.106585"/>
    </g>
   </g>
   <g id="PathCollection_46">
    <defs>
     <path d="M 0 3 
C 0.795609 3 1.55874 2.683901 2.12132 2.12132 
C 2.683901 1.55874 3 0.795609 3 0 
C 3 -0.795609 2.683901 -1.55874 2.12132 -2.12132 
C 1.55874 -2.683901 0.795609 -3 0 -3 
C -0.795609 -3 -1.55874 -2.683901 -2.12132 -2.12132 
C -2.683901 -1.55874 -3 -0.795609 -3 0 
C -3 0.795609 -2.683901 1.55874 -2.12132 2.12132 
C -1.55874 2.683901 -0.795609 3 0 3 
z
" id="m2a7787566c" style="stroke:#bfd8ed;"/>
    </defs>
    <g clip-path="url(#pca88a22762)">
     <use style="fill:#bfd8ed;stroke:#bfd8ed;" x="184.981209" xlink:href="#m2a7787566c" y="148.824256"/>
    </g>
   </g>
   <g id="PathCollection_47">
    <g clip-path="url(#pca88a22762)">
     <use style="fill:#4f9bcb;stroke:#4f9bcb;" x="168.952708" xlink:href="#md80edda318" y="115.160681"/>
    </g>
   </g>
   <g id="PathCollection_48">
    <g clip-path="url(#pca88a22762)">
     <use style="fill:#9dcae1;stroke:#9dcae1;" x="179.638375" xlink:href="#m5614668c86" y="127.563051"/>
    </g>
   </g>
   <g id="PathCollection_49">
    <g clip-path="url(#pca88a22762)">
     <use style="fill:#4f9bcb;stroke:#4f9bcb;" x="277.590329" xlink:href="#md80edda318" y="132.878352"/>
    </g>
   </g>
   <g id="PathCollection_50">
    <g clip-path="url(#pca88a22762)">
     <use style="fill:#4f9bcb;stroke:#4f9bcb;" x="142.238539" xlink:href="#md80edda318" y="83.268873"/>
    </g>
   </g>
   <g id="PathCollection_51">
    <g clip-path="url(#pca88a22762)">
     <use style="fill:#3181bd;stroke:#3181bd;" x="79.905478" xlink:href="#mbf52f9d396" y="327.772732"/>
    </g>
   </g>
   <g id="PathCollection_52">
    <g clip-path="url(#pca88a22762)">
     <use style="fill:#3181bd;stroke:#3181bd;" x="163.609874" xlink:href="#mbf52f9d396" y="124.019516"/>
    </g>
   </g>
   <g id="PathCollection_53">
    <g clip-path="url(#pca88a22762)">
     <use style="fill:#4f9bcb;stroke:#4f9bcb;" x="174.295542" xlink:href="#md80edda318" y="124.019516"/>
    </g>
   </g>
   <g id="PathCollection_54">
    <g clip-path="url(#pca88a22762)">
     <use style="fill:#4f9bcb;stroke:#4f9bcb;" x="188.543098" xlink:href="#md80edda318" y="132.878352"/>
    </g>
   </g>
   <g id="PathCollection_55">
    <g clip-path="url(#pca88a22762)">
     <use style="fill:#4f9bcb;stroke:#4f9bcb;" x="174.295542" xlink:href="#md80edda318" y="124.019516"/>
    </g>
   </g>
   <g id="PathCollection_56">
    <g clip-path="url(#pca88a22762)">
     <use style="fill:#4f9bcb;stroke:#4f9bcb;" x="151.143262" xlink:href="#md80edda318" y="77.953572"/>
    </g>
   </g>
   <g id="PathCollection_57">
    <g clip-path="url(#pca88a22762)">
     <use style="fill:#4f9bcb;stroke:#4f9bcb;" x="190.324043" xlink:href="#md80edda318" y="124.019516"/>
    </g>
   </g>
   <g id="PathCollection_58">
    <g clip-path="url(#pca88a22762)">
     <use style="fill:#08306b;stroke:#08306b;" x="437.875343" xlink:href="#meaf08a13ea" y="308.283294"/>
    </g>
   </g>
   <g id="PathCollection_59">
    <g clip-path="url(#pca88a22762)">
     <use style="fill:#4f9bcb;stroke:#4f9bcb;" x="222.381046" xlink:href="#md80edda318" y="152.36779"/>
    </g>
   </g>
   <g id="matplotlib.axis_1">
    <g id="xtick_1">
     <g id="line2d_1">
      <defs>
       <path d="M 0 0 
L 0 3.5 
" id="m3351fc2f76" style="stroke:#000000;stroke-width:0.8;"/>
      </defs>
      <g>
       <use style="stroke:#000000;stroke-width:0.8;" x="1.543915" xlink:href="#m3351fc2f76" y="345.6"/>
      </g>
     </g>
     <g id="text_1">
      <text style="font-family:DejaVu Sans;font-size:10px;font-style:normal;font-weight:normal;text-anchor:middle;" transform="rotate(-0, 1.543915, 360.198437)" x="1.543915" y="360.198437">−0.10</text>
     </g>
    </g>
    <g id="xtick_2">
     <g id="line2d_2">
      <g>
       <use style="stroke:#000000;stroke-width:0.8;" x="90.591145" xlink:href="#m3351fc2f76" y="345.6"/>
      </g>
     </g>
     <g id="text_2">
      <text style="font-family:DejaVu Sans;font-size:10px;font-style:normal;font-weight:normal;text-anchor:middle;" transform="rotate(-0, 90.591145, 360.198437)" x="90.591145" y="360.198437">−0.05</text>
     </g>
    </g>
    <g id="xtick_3">
     <g id="line2d_3">
      <g>
       <use style="stroke:#000000;stroke-width:0.8;" x="179.638375" xlink:href="#m3351fc2f76" y="345.6"/>
      </g>
     </g>
     <g id="text_3">
      <text style="font-family:DejaVu Sans;font-size:10px;font-style:normal;font-weight:normal;text-anchor:middle;" transform="rotate(-0, 179.638375, 360.198437)" x="179.638375" y="360.198437">0.00</text>
     </g>
    </g>
    <g id="xtick_4">
     <g id="line2d_4">
      <g>
       <use style="stroke:#000000;stroke-width:0.8;" x="268.685606" xlink:href="#m3351fc2f76" y="345.6"/>
      </g>
     </g>
     <g id="text_4">
      <text style="font-family:DejaVu Sans;font-size:10px;font-style:normal;font-weight:normal;text-anchor:middle;" transform="rotate(-0, 268.685606, 360.198437)" x="268.685606" y="360.198437">0.05</text>
     </g>
    </g>
    <g id="xtick_5">
     <g id="line2d_5">
      <g>
       <use style="stroke:#000000;stroke-width:0.8;" x="357.732836" xlink:href="#m3351fc2f76" y="345.6"/>
      </g>
     </g>
     <g id="text_5">
      <text style="font-family:DejaVu Sans;font-size:10px;font-style:normal;font-weight:normal;text-anchor:middle;" transform="rotate(-0, 357.732836, 360.198437)" x="357.732836" y="360.198437">0.10</text>
     </g>
    </g>
    <g id="xtick_6">
     <g id="line2d_6">
      <g>
       <use style="stroke:#000000;stroke-width:0.8;" x="446.780066" xlink:href="#m3351fc2f76" y="345.6"/>
      </g>
     </g>
     <g id="text_6">
      <text style="font-family:DejaVu Sans;font-size:10px;font-style:normal;font-weight:normal;text-anchor:middle;" transform="rotate(-0, 446.780066, 360.198437)" x="446.780066" y="360.198437">0.15</text>
     </g>
    </g>
   </g>
   <g id="matplotlib.axis_2">
    <g id="ytick_1">
     <g id="line2d_7">
      <defs>
       <path d="M 0 0 
L -3.5 0 
" id="m4278f416e0" style="stroke:#000000;stroke-width:0.8;"/>
      </defs>
      <g>
       <use style="stroke:#000000;stroke-width:0.8;" x="0" xlink:href="#m4278f416e0" y="326.000965"/>
      </g>
     </g>
     <g id="text_7">
      <text style="font-family:DejaVu Sans;font-size:10px;font-style:normal;font-weight:normal;text-anchor:end;" transform="rotate(-0, -7, 329.800184)" x="-7" y="329.800184">−0.100</text>
     </g>
    </g>
    <g id="ytick_2">
     <g id="line2d_8">
      <g>
       <use style="stroke:#000000;stroke-width:0.8;" x="0" xlink:href="#m4278f416e0" y="281.706788"/>
      </g>
     </g>
     <g id="text_8">
      <text style="font-family:DejaVu Sans;font-size:10px;font-style:normal;font-weight:normal;text-anchor:end;" transform="rotate(-0, -7, 285.506007)" x="-7" y="285.506007">−0.075</text>
     </g>
    </g>
    <g id="ytick_3">
     <g id="line2d_9">
      <g>
       <use style="stroke:#000000;stroke-width:0.8;" x="0" xlink:href="#m4278f416e0" y="237.412611"/>
      </g>
     </g>
     <g id="text_9">
      <text style="font-family:DejaVu Sans;font-size:10px;font-style:normal;font-weight:normal;text-anchor:end;" transform="rotate(-0, -7, 241.211829)" x="-7" y="241.211829">−0.050</text>
     </g>
    </g>
    <g id="ytick_4">
     <g id="line2d_10">
      <g>
       <use style="stroke:#000000;stroke-width:0.8;" x="0" xlink:href="#m4278f416e0" y="193.118433"/>
      </g>
     </g>
     <g id="text_10">
      <text style="font-family:DejaVu Sans;font-size:10px;font-style:normal;font-weight:normal;text-anchor:end;" transform="rotate(-0, -7, 196.917652)" x="-7" y="196.917652">−0.025</text>
     </g>
    </g>
    <g id="ytick_5">
     <g id="line2d_11">
      <g>
       <use style="stroke:#000000;stroke-width:0.8;" x="0" xlink:href="#m4278f416e0" y="148.824256"/>
      </g>
     </g>
     <g id="text_11">
      <text style="font-family:DejaVu Sans;font-size:10px;font-style:normal;font-weight:normal;text-anchor:end;" transform="rotate(-0, -7, 152.623475)" x="-7" y="152.623475">0.000</text>
     </g>
    </g>
    <g id="ytick_6">
     <g id="line2d_12">
      <g>
       <use style="stroke:#000000;stroke-width:0.8;" x="0" xlink:href="#m4278f416e0" y="104.530078"/>
      </g>
     </g>
     <g id="text_12">
      <text style="font-family:DejaVu Sans;font-size:10px;font-style:normal;font-weight:normal;text-anchor:end;" transform="rotate(-0, -7, 108.329297)" x="-7" y="108.329297">0.025</text>
     </g>
    </g>
    <g id="ytick_7">
     <g id="line2d_13">
      <g>
       <use style="stroke:#000000;stroke-width:0.8;" x="0" xlink:href="#m4278f416e0" y="60.235901"/>
      </g>
     </g>
     <g id="text_13">
      <text style="font-family:DejaVu Sans;font-size:10px;font-style:normal;font-weight:normal;text-anchor:end;" transform="rotate(-0, -7, 64.03512)" x="-7" y="64.03512">0.050</text>
     </g>
    </g>
    <g id="ytick_8">
     <g id="line2d_14">
      <g>
       <use style="stroke:#000000;stroke-width:0.8;" x="0" xlink:href="#m4278f416e0" y="15.941724"/>
      </g>
     </g>
     <g id="text_14">
      <text style="font-family:DejaVu Sans;font-size:10px;font-style:normal;font-weight:normal;text-anchor:end;" transform="rotate(-0, -7, 19.740942)" x="-7" y="19.740942">0.075</text>
     </g>
    </g>
   </g>
   <g id="line2d_15">
    <path clip-path="url(#pca88a22762)" d="M 184.981209 152.36779 
" style="fill:none;stroke:#ff0000;stroke-linecap:square;stroke-width:1.5;"/>
    <defs>
     <path d="M 0 2.5 
C 0.663008 2.5 1.29895 2.236584 1.767767 1.767767 
C 2.236584 1.29895 2.5 0.663008 2.5 0 
C 2.5 -0.663008 2.236584 -1.29895 1.767767 -1.767767 
C 1.29895 -2.236584 0.663008 -2.5 0 -2.5 
C -0.663008 -2.5 -1.29895 -2.236584 -1.767767 -1.767767 
C -2.236584 -1.29895 -2.5 -0.663008 -2.5 0 
C -2.5 0.663008 -2.236584 1.29895 -1.767767 1.767767 
C -1.29895 2.236584 -0.663008 2.5 0 2.5 
z
" id="mcfbdd32263" style="stroke:#ff0000;"/>
    </defs>
    <g clip-path="url(#pca88a22762)">
     <use style="fill:#ff0000;stroke:#ff0000;" x="184.981209" xlink:href="#mcfbdd32263" y="152.36779"/>
    </g>
   </g>
   <g id="patch_3">
    <path d="M 0 345.6 
L 0 0 
" style="fill:none;stroke:#000000;stroke-linecap:square;stroke-linejoin:miter;stroke-width:0.8;"/>
   </g>
   <g id="patch_4">
    <path d="M 460.8 345.6 
L 460.8 0 
" style="fill:none;stroke:#000000;stroke-linecap:square;stroke-linejoin:miter;stroke-width:0.8;"/>
   </g>
   <g id="patch_5">
    <path d="M 0 345.6 
L 460.8 345.6 
" style="fill:none;stroke:#000000;stroke-linecap:square;stroke-linejoin:miter;stroke-width:0.8;"/>
   </g>
   <g id="patch_6">
    <path d="M 0 0 
L 460.8 0 
" style="fill:none;stroke:#000000;stroke-linecap:square;stroke-linejoin:miter;stroke-width:0.8;"/>
   </g>
   <g id="text_15">
    <text style="fill:#ff0000;font-family:DejaVu Sans;font-size:8px;font-style:normal;font-weight:normal;text-anchor:start;" transform="rotate(-0, 184.981209, 152.36779)" x="184.981209" y="152.36779">_consensus</text>
   </g>
  </g>
  <g id="text_16">
   <text style="font-family:DejaVu Sans;font-size:15px;font-style:normal;font-weight:normal;text-anchor:start;" transform="rotate(-0, 184.32, 34.56)" x="184.32" y="34.56">MDS comp. (index 6 size 71)</text>
  </g>
 </g>
 <defs>
  <clipPath id="pca88a22762">
   <rect height="345.6" width="460.8" x="0" y="0"/>
  </clipPath>
 </defs>
</svg>
