<?xml version="1.0" encoding="utf-8" standalone="no"?>
<!DOCTYPE svg PUBLIC "-//W3C//DTD SVG 1.1//EN"
  "http://www.w3.org/Graphics/SVG/1.1/DTD/svg11.dtd">
<!-- Created with matplotlib (http://matplotlib.org/) -->
<svg height="345.6pt" version="1.1" viewBox="0 0 460.8 345.6" width="460.8pt" xmlns="http://www.w3.org/2000/svg" xmlns:xlink="http://www.w3.org/1999/xlink">
 <defs>
  <style type="text/css">
*{stroke-linecap:butt;stroke-linejoin:round;}
  </style>
 </defs>
 <g id="figure_1">
  <g id="patch_1">
   <path d="M 0 345.6 
L 460.8 345.6 
L 460.8 0 
L 0 0 
z
" style="fill:#ffffff;"/>
  </g>
  <g id="axes_1">
   <g id="patch_2">
    <path d="M 0 345.6 
L 460.8 345.6 
L 460.8 0 
L 0 0 
z
" style="fill:#ffffff;"/>
   </g>
   <g id="PathCollection_1">
    <defs>
     <path d="M 0 3 
C 0.795609 3 1.55874 2.683901 2.12132 2.12132 
C 2.683901 1.55874 3 0.795609 3 0 
C 3 -0.795609 2.683901 -1.55874 2.12132 -2.12132 
C 1.55874 -2.683901 0.795609 -3 0 -3 
C -0.795609 -3 -1.55874 -2.683901 -2.12132 -2.12132 
C -2.683901 -1.55874 -3 -0.795609 -3 0 
C -3 0.795609 -2.683901 1.55874 -2.12132 2.12132 
C -1.55874 2.683901 -0.795609 3 0 3 
z
" id="m93365f476b" style="stroke:#4292c6;"/>
    </defs>
    <g clip-path="url(#pf78bcf4b67)">
     <use style="fill:#4292c6;stroke:#4292c6;" x="202.135295" xlink:href="#m93365f476b" y="157.374756"/>
    </g>
   </g>
   <g id="PathCollection_2">
    <g clip-path="url(#pf78bcf4b67)">
     <use style="fill:#4292c6;stroke:#4292c6;" x="222.670523" xlink:href="#m93365f476b" y="153.190686"/>
    </g>
   </g>
   <g id="PathCollection_3">
    <defs>
     <path d="M 0 3 
C 0.795609 3 1.55874 2.683901 2.12132 2.12132 
C 2.683901 1.55874 3 0.795609 3 0 
C 3 -0.795609 2.683901 -1.55874 2.12132 -2.12132 
C 1.55874 -2.683901 0.795609 -3 0 -3 
C -0.795609 -3 -1.55874 -2.683901 -2.12132 -2.12132 
C -2.683901 -1.55874 -3 -0.795609 -3 0 
C -3 0.795609 -2.683901 1.55874 -2.12132 2.12132 
C -1.55874 2.683901 -0.795609 3 0 3 
z
" id="m93d08768e8" style="stroke:#2f7fbc;"/>
    </defs>
    <g clip-path="url(#pf78bcf4b67)">
     <use style="fill:#2f7fbc;stroke:#2f7fbc;" x="187.304296" xlink:href="#m93d08768e8" y="92.521657"/>
    </g>
   </g>
   <g id="PathCollection_4">
    <g clip-path="url(#pf78bcf4b67)">
     <use style="fill:#4292c6;stroke:#4292c6;" x="183.881758" xlink:href="#m93365f476b" y="96.705728"/>
    </g>
   </g>
   <g id="PathCollection_5">
    <defs>
     <path d="M 0 3 
C 0.795609 3 1.55874 2.683901 2.12132 2.12132 
C 2.683901 1.55874 3 0.795609 3 0 
C 3 -0.795609 2.683901 -1.55874 2.12132 -2.12132 
C 1.55874 -2.683901 0.795609 -3 0 -3 
C -0.795609 -3 -1.55874 -2.683901 -2.12132 -2.12132 
C -2.683901 -1.55874 -3 -0.795609 -3 0 
C -3 0.795609 -2.683901 1.55874 -2.12132 2.12132 
C -1.55874 2.683901 -0.795609 3 0 3 
z
" id="m48fe0849de" style="stroke:#77b5d9;"/>
    </defs>
    <g clip-path="url(#pf78bcf4b67)">
     <use style="fill:#77b5d9;stroke:#77b5d9;" x="187.304296" xlink:href="#m48fe0849de" y="121.810154"/>
    </g>
   </g>
   <g id="PathCollection_6">
    <defs>
     <path d="M 0 3 
C 0.795609 3 1.55874 2.683901 2.12132 2.12132 
C 2.683901 1.55874 3 0.795609 3 0 
C 3 -0.795609 2.683901 -1.55874 2.12132 -2.12132 
C 1.55874 -2.683901 0.795609 -3 0 -3 
C -0.795609 -3 -1.55874 -2.683901 -2.12132 -2.12132 
C -2.683901 -1.55874 -3 -0.795609 -3 0 
C -3 0.795609 -2.683901 1.55874 -2.12132 2.12132 
C -1.55874 2.683901 -0.795609 3 0 3 
z
" id="mefbd774022" style="stroke:#5ca4d0;"/>
    </defs>
    <g clip-path="url(#pf78bcf4b67)">
     <use style="fill:#5ca4d0;stroke:#5ca4d0;" x="215.825447" xlink:href="#mefbd774022" y="196.077412"/>
    </g>
   </g>
   <g id="PathCollection_7">
    <g clip-path="url(#pf78bcf4b67)">
     <use style="fill:#77b5d9;stroke:#77b5d9;" x="196.431065" xlink:href="#m48fe0849de" y="168.880951"/>
    </g>
   </g>
   <g id="PathCollection_8">
    <g clip-path="url(#pf78bcf4b67)">
     <use style="fill:#4292c6;stroke:#4292c6;" x="182.740912" xlink:href="#m93365f476b" y="91.47564"/>
    </g>
   </g>
   <g id="PathCollection_9">
    <defs>
     <path d="M 0 3 
C 0.795609 3 1.55874 2.683901 2.12132 2.12132 
C 2.683901 1.55874 3 0.795609 3 0 
C 3 -0.795609 2.683901 -1.55874 2.12132 -2.12132 
C 1.55874 -2.683901 0.795609 -3 0 -3 
C -0.795609 -3 -1.55874 -2.683901 -2.12132 -2.12132 
C -2.683901 -1.55874 -3 -0.795609 -3 0 
C -3 0.795609 -2.683901 1.55874 -2.12132 2.12132 
C -1.55874 2.683901 -0.795609 3 0 3 
z
" id="mb2947e2b47" style="stroke:#1c6bb0;"/>
    </defs>
    <g clip-path="url(#pf78bcf4b67)">
     <use style="fill:#1c6bb0;stroke:#1c6bb0;" x="340.177663" xlink:href="#mb2947e2b47" y="211.767678"/>
    </g>
   </g>
   <g id="PathCollection_10">
    <defs>
     <path d="M 0 3 
C 0.795609 3 1.55874 2.683901 2.12132 2.12132 
C 2.683901 1.55874 3 0.795609 3 0 
C 3 -0.795609 2.683901 -1.55874 2.12132 -2.12132 
C 1.55874 -2.683901 0.795609 -3 0 -3 
C -0.795609 -3 -1.55874 -2.683901 -2.12132 -2.12132 
C -2.683901 -1.55874 -3 -0.795609 -3 0 
C -3 0.795609 -2.683901 1.55874 -2.12132 2.12132 
C -1.55874 2.683901 -0.795609 3 0 3 
z
" id="m81c7dc582a" style="stroke:#97c6df;"/>
    </defs>
    <g clip-path="url(#pf78bcf4b67)">
     <use style="fill:#97c6df;stroke:#97c6df;" x="194.149373" xlink:href="#m81c7dc582a" y="173.065022"/>
    </g>
   </g>
   <g id="PathCollection_11">
    <g clip-path="url(#pf78bcf4b67)">
     <use style="fill:#77b5d9;stroke:#77b5d9;" x="187.304296" xlink:href="#m48fe0849de" y="121.810154"/>
    </g>
   </g>
   <g id="PathCollection_12">
    <defs>
     <path d="M 0 3 
C 0.795609 3 1.55874 2.683901 2.12132 2.12132 
C 2.683901 1.55874 3 0.795609 3 0 
C 3 -0.795609 2.683901 -1.55874 2.12132 -2.12132 
C 1.55874 -2.683901 0.795609 -3 0 -3 
C -0.795609 -3 -1.55874 -2.683901 -2.12132 -2.12132 
C -2.683901 -1.55874 -3 -0.795609 -3 0 
C -3 0.795609 -2.683901 1.55874 -2.12132 2.12132 
C -1.55874 2.683901 -0.795609 3 0 3 
z
" id="mac54627a55" style="stroke:#0d57a1;"/>
    </defs>
    <g clip-path="url(#pf78bcf4b67)">
     <use style="fill:#0d57a1;stroke:#0d57a1;" x="37.853468" xlink:href="#mac54627a55" y="308.001309"/>
    </g>
   </g>
   <g id="PathCollection_13">
    <defs>
     <path d="M 0 3 
C 0.795609 3 1.55874 2.683901 2.12132 2.12132 
C 2.683901 1.55874 3 0.795609 3 0 
C 3 -0.795609 2.683901 -1.55874 2.12132 -2.12132 
C 1.55874 -2.683901 0.795609 -3 0 -3 
C -0.795609 -3 -1.55874 -2.683901 -2.12132 -2.12132 
C -2.683901 -1.55874 -3 -0.795609 -3 0 
C -3 0.795609 -2.683901 1.55874 -2.12132 2.12132 
C -1.55874 2.683901 -0.795609 3 0 3 
z
" id="m747d510342" style="stroke:#08306b;"/>
    </defs>
    <g clip-path="url(#pf78bcf4b67)">
     <use style="fill:#08306b;stroke:#08306b;" x="438.290421" xlink:href="#m747d510342" y="243.14821"/>
    </g>
   </g>
   <g id="PathCollection_14">
    <g clip-path="url(#pf78bcf4b67)">
     <use style="fill:#2f7fbc;stroke:#2f7fbc;" x="223.811369" xlink:href="#m93d08768e8" y="192.939359"/>
    </g>
   </g>
   <g id="PathCollection_15">
    <g clip-path="url(#pf78bcf4b67)">
     <use style="fill:#5ca4d0;stroke:#5ca4d0;" x="297.966361" xlink:href="#mefbd774022" y="212.813696"/>
    </g>
   </g>
   <g id="PathCollection_16">
    <g clip-path="url(#pf78bcf4b67)">
     <use style="fill:#2f7fbc;stroke:#2f7fbc;" x="246.62829" xlink:href="#m93d08768e8" y="175.157058"/>
    </g>
   </g>
   <g id="PathCollection_17">
    <g clip-path="url(#pf78bcf4b67)">
     <use style="fill:#97c6df;stroke:#97c6df;" x="210.121217" xlink:href="#m81c7dc582a" y="173.065022"/>
    </g>
   </g>
   <g id="PathCollection_18">
    <g clip-path="url(#pf78bcf4b67)">
     <use style="fill:#5ca4d0;stroke:#5ca4d0;" x="181.600066" xlink:href="#mefbd774022" y="114.48803"/>
    </g>
   </g>
   <g id="PathCollection_19">
    <g clip-path="url(#pf78bcf4b67)">
     <use style="fill:#1c6bb0;stroke:#1c6bb0;" x="73.219694" xlink:href="#mb2947e2b47" y="242.102192"/>
    </g>
   </g>
   <g id="PathCollection_20">
    <g clip-path="url(#pf78bcf4b67)">
     <use style="fill:#77b5d9;stroke:#77b5d9;" x="194.149373" xlink:href="#m48fe0849de" y="159.466792"/>
    </g>
   </g>
   <g id="PathCollection_21">
    <g clip-path="url(#pf78bcf4b67)">
     <use style="fill:#5ca4d0;stroke:#5ca4d0;" x="183.881758" xlink:href="#mefbd774022" y="106.119888"/>
    </g>
   </g>
   <g id="PathCollection_22">
    <g clip-path="url(#pf78bcf4b67)">
     <use style="fill:#4292c6;stroke:#4292c6;" x="196.431065" xlink:href="#m93365f476b" y="163.650863"/>
    </g>
   </g>
   <g id="PathCollection_23">
    <g clip-path="url(#pf78bcf4b67)">
     <use style="fill:#5ca4d0;stroke:#5ca4d0;" x="218.107139" xlink:href="#mefbd774022" y="193.985377"/>
    </g>
   </g>
   <g id="PathCollection_24">
    <g clip-path="url(#pf78bcf4b67)">
     <use style="fill:#2f7fbc;stroke:#2f7fbc;" x="333.332587" xlink:href="#m93d08768e8" y="206.53759"/>
    </g>
   </g>
   <g id="PathCollection_25">
    <g clip-path="url(#pf78bcf4b67)">
     <use style="fill:#0d57a1;stroke:#0d57a1;" x="159.923992" xlink:href="#mac54627a55" y="17.208381"/>
    </g>
   </g>
   <g id="PathCollection_26">
    <defs>
     <path d="M 0 3 
C 0.795609 3 1.55874 2.683901 2.12132 2.12132 
C 2.683901 1.55874 3 0.795609 3 0 
C 3 -0.795609 2.683901 -1.55874 2.12132 -2.12132 
C 1.55874 -2.683901 0.795609 -3 0 -3 
C -0.795609 -3 -1.55874 -2.683901 -2.12132 -2.12132 
C -2.683901 -1.55874 -3 -0.795609 -3 0 
C -3 0.795609 -2.683901 1.55874 -2.12132 2.12132 
C -1.55874 2.683901 -0.795609 3 0 3 
z
" id="m8821f80828" style="stroke:#084488;"/>
    </defs>
    <g clip-path="url(#pf78bcf4b67)">
     <use style="fill:#084488;stroke:#084488;" x="23.022469" xlink:href="#m8821f80828" y="327.875646"/>
    </g>
   </g>
   <g id="PathCollection_27">
    <g clip-path="url(#pf78bcf4b67)">
     <use style="fill:#5ca4d0;stroke:#5ca4d0;" x="251.191674" xlink:href="#mefbd774022" y="183.5252"/>
    </g>
   </g>
   <g id="PathCollection_28">
    <g clip-path="url(#pf78bcf4b67)">
     <use style="fill:#1c6bb0;stroke:#1c6bb0;" x="62.95208" xlink:href="#mb2947e2b47" y="282.896884"/>
    </g>
   </g>
   <g id="PathCollection_29">
    <g clip-path="url(#pf78bcf4b67)">
     <use style="fill:#2f7fbc;stroke:#2f7fbc;" x="196.431065" xlink:href="#m93d08768e8" y="91.47564"/>
    </g>
   </g>
   <g id="PathCollection_30">
    <g clip-path="url(#pf78bcf4b67)">
     <use style="fill:#5ca4d0;stroke:#5ca4d0;" x="214.684601" xlink:href="#mefbd774022" y="201.307501"/>
    </g>
   </g>
   <g id="PathCollection_31">
    <g clip-path="url(#pf78bcf4b67)">
     <use style="fill:#4292c6;stroke:#4292c6;" x="213.543755" xlink:href="#m93365f476b" y="152.144668"/>
    </g>
   </g>
   <g id="PathCollection_32">
    <g clip-path="url(#pf78bcf4b67)">
     <use style="fill:#1c6bb0;stroke:#1c6bb0;" x="349.304432" xlink:href="#mb2947e2b47" y="219.089802"/>
    </g>
   </g>
   <g id="PathCollection_33">
    <g clip-path="url(#pf78bcf4b67)">
     <use style="fill:#5ca4d0;stroke:#5ca4d0;" x="307.093129" xlink:href="#mefbd774022" y="210.721661"/>
    </g>
   </g>
   <g id="PathCollection_34">
    <g clip-path="url(#pf78bcf4b67)">
     <use style="fill:#1c6bb0;stroke:#1c6bb0;" x="162.205684" xlink:href="#mb2947e2b47" y="37.082718"/>
    </g>
   </g>
   <g id="PathCollection_35">
    <defs>
     <path d="M 0 3 
C 0.795609 3 1.55874 2.683901 2.12132 2.12132 
C 2.683901 1.55874 3 0.795609 3 0 
C 3 -0.795609 2.683901 -1.55874 2.12132 -2.12132 
C 1.55874 -2.683901 0.795609 -3 0 -3 
C -0.795609 -3 -1.55874 -2.683901 -2.12132 -2.12132 
C -2.683901 -1.55874 -3 -0.795609 -3 0 
C -3 0.795609 -2.683901 1.55874 -2.12132 2.12132 
C -1.55874 2.683901 -0.795609 3 0 3 
z
" id="mce61db265a" style="stroke:#d6e6f4;"/>
    </defs>
    <g clip-path="url(#pf78bcf4b67)">
     <use style="fill:#d6e6f4;stroke:#d6e6f4;" x="199.853603" xlink:href="#mce61db265a" y="175.157058"/>
    </g>
   </g>
   <g id="PathCollection_36">
    <g clip-path="url(#pf78bcf4b67)">
     <use style="fill:#77b5d9;stroke:#77b5d9;" x="198.712757" xlink:href="#m48fe0849de" y="166.788916"/>
    </g>
   </g>
   <g id="PathCollection_37">
    <g clip-path="url(#pf78bcf4b67)">
     <use style="fill:#77b5d9;stroke:#77b5d9;" x="191.86768" xlink:href="#m48fe0849de" y="129.132278"/>
    </g>
   </g>
   <g id="PathCollection_38">
    <g clip-path="url(#pf78bcf4b67)">
     <use style="fill:#4292c6;stroke:#4292c6;" x="180.45922" xlink:href="#m93365f476b" y="102.981835"/>
    </g>
   </g>
   <g id="PathCollection_39">
    <g clip-path="url(#pf78bcf4b67)">
     <use style="fill:#5ca4d0;stroke:#5ca4d0;" x="299.107207" xlink:href="#mefbd774022" y="207.583607"/>
    </g>
   </g>
   <g id="PathCollection_40">
    <g clip-path="url(#pf78bcf4b67)">
     <use style="fill:#5ca4d0;stroke:#5ca4d0;" x="219.247985" xlink:href="#mefbd774022" y="197.12343"/>
    </g>
   </g>
   <g id="PathCollection_41">
    <g clip-path="url(#pf78bcf4b67)">
     <use style="fill:#2f7fbc;stroke:#2f7fbc;" x="193.008527" xlink:href="#m93d08768e8" y="89.383604"/>
    </g>
   </g>
   <g id="PathCollection_42">
    <g clip-path="url(#pf78bcf4b67)">
     <use style="fill:#1c6bb0;stroke:#1c6bb0;" x="179.318374" xlink:href="#mb2947e2b47" y="50.680948"/>
    </g>
   </g>
   <g id="PathCollection_43">
    <g clip-path="url(#pf78bcf4b67)">
     <use style="fill:#0d57a1;stroke:#0d57a1;" x="291.121284" xlink:href="#mac54627a55" y="189.801306"/>
    </g>
   </g>
   <g id="PathCollection_44">
    <g clip-path="url(#pf78bcf4b67)">
     <use style="fill:#1c6bb0;stroke:#1c6bb0;" x="206.698679" xlink:href="#mb2947e2b47" y="150.052632"/>
    </g>
   </g>
   <g id="PathCollection_45">
    <g clip-path="url(#pf78bcf4b67)">
     <use style="fill:#2f7fbc;stroke:#2f7fbc;" x="222.670523" xlink:href="#m93d08768e8" y="175.157058"/>
    </g>
   </g>
   <g id="PathCollection_46">
    <g clip-path="url(#pf78bcf4b67)">
     <use style="fill:#4292c6;stroke:#4292c6;" x="171.332452" xlink:href="#m93365f476b" y="68.46325"/>
    </g>
   </g>
   <g id="PathCollection_47">
    <g clip-path="url(#pf78bcf4b67)">
     <use style="fill:#97c6df;stroke:#97c6df;" x="188.445142" xlink:href="#m81c7dc582a" y="170.972987"/>
    </g>
   </g>
   <g id="PathCollection_48">
    <g clip-path="url(#pf78bcf4b67)">
     <use style="fill:#5ca4d0;stroke:#5ca4d0;" x="204.416987" xlink:href="#mefbd774022" y="146.914579"/>
    </g>
   </g>
   <g id="PathCollection_49">
    <g clip-path="url(#pf78bcf4b67)">
     <use style="fill:#5ca4d0;stroke:#5ca4d0;" x="196.431065" xlink:href="#mefbd774022" y="168.880951"/>
    </g>
   </g>
   <g id="PathCollection_50">
    <g clip-path="url(#pf78bcf4b67)">
     <use style="fill:#77b5d9;stroke:#77b5d9;" x="200.994449" xlink:href="#m48fe0849de" y="170.972987"/>
    </g>
   </g>
   <g id="PathCollection_51">
    <g clip-path="url(#pf78bcf4b67)">
     <use style="fill:#77b5d9;stroke:#77b5d9;" x="196.431065" xlink:href="#m48fe0849de" y="167.834934"/>
    </g>
   </g>
   <g id="PathCollection_52">
    <g clip-path="url(#pf78bcf4b67)">
     <use style="fill:#084488;stroke:#084488;" x="53.825312" xlink:href="#m8821f80828" y="288.126973"/>
    </g>
   </g>
   <g id="PathCollection_53">
    <g clip-path="url(#pf78bcf4b67)">
     <use style="fill:#77b5d9;stroke:#77b5d9;" x="200.994449" xlink:href="#m48fe0849de" y="173.065022"/>
    </g>
   </g>
   <g id="PathCollection_54">
    <g clip-path="url(#pf78bcf4b67)">
     <use style="fill:#2f7fbc;stroke:#2f7fbc;" x="187.304296" xlink:href="#m93d08768e8" y="167.834934"/>
    </g>
   </g>
   <g id="PathCollection_55">
    <g clip-path="url(#pf78bcf4b67)">
     <use style="fill:#5ca4d0;stroke:#5ca4d0;" x="197.571911" xlink:href="#mefbd774022" y="142.730508"/>
    </g>
   </g>
   <g id="PathCollection_56">
    <g clip-path="url(#pf78bcf4b67)">
     <use style="fill:#4292c6;stroke:#4292c6;" x="190.726834" xlink:href="#m93365f476b" y="102.981835"/>
    </g>
   </g>
   <g id="PathCollection_57">
    <g clip-path="url(#pf78bcf4b67)">
     <use style="fill:#77b5d9;stroke:#77b5d9;" x="213.543755" xlink:href="#m48fe0849de" y="159.466792"/>
    </g>
   </g>
   <g id="PathCollection_58">
    <g clip-path="url(#pf78bcf4b67)">
     <use style="fill:#1c6bb0;stroke:#1c6bb0;" x="359.572046" xlink:href="#mb2947e2b47" y="224.319891"/>
    </g>
   </g>
   <g id="PathCollection_59">
    <g clip-path="url(#pf78bcf4b67)">
     <use style="fill:#2f7fbc;stroke:#2f7fbc;" x="182.740912" xlink:href="#m93d08768e8" y="62.187143"/>
    </g>
   </g>
   <g id="PathCollection_60">
    <g clip-path="url(#pf78bcf4b67)">
     <use style="fill:#d6e6f4;stroke:#d6e6f4;" x="202.135295" xlink:href="#mce61db265a" y="170.972987"/>
    </g>
   </g>
   <g id="matplotlib.axis_1">
    <g id="xtick_1">
     <g id="line2d_1">
      <defs>
       <path d="M 0 0 
L 0 3.5 
" id="mdb52d7e7aa" style="stroke:#000000;stroke-width:0.8;"/>
      </defs>
      <g>
       <use style="stroke:#000000;stroke-width:0.8;" x="35.571775" xlink:href="#mdb52d7e7aa" y="345.6"/>
      </g>
     </g>
     <g id="text_1">
      <text style="font-family:DejaVu Sans;font-size:10px;font-style:normal;font-weight:normal;text-anchor:middle;" transform="rotate(-0, 35.571775, 360.198437)" x="35.571775" y="360.198437">−0.15</text>
     </g>
    </g>
    <g id="xtick_2">
     <g id="line2d_2">
      <g>
       <use style="stroke:#000000;stroke-width:0.8;" x="92.614077" xlink:href="#mdb52d7e7aa" y="345.6"/>
      </g>
     </g>
     <g id="text_2">
      <text style="font-family:DejaVu Sans;font-size:10px;font-style:normal;font-weight:normal;text-anchor:middle;" transform="rotate(-0, 92.614077, 360.198437)" x="92.614077" y="360.198437">−0.10</text>
     </g>
    </g>
    <g id="xtick_3">
     <g id="line2d_3">
      <g>
       <use style="stroke:#000000;stroke-width:0.8;" x="149.656378" xlink:href="#mdb52d7e7aa" y="345.6"/>
      </g>
     </g>
     <g id="text_3">
      <text style="font-family:DejaVu Sans;font-size:10px;font-style:normal;font-weight:normal;text-anchor:middle;" transform="rotate(-0, 149.656378, 360.198437)" x="149.656378" y="360.198437">−0.05</text>
     </g>
    </g>
    <g id="xtick_4">
     <g id="line2d_4">
      <g>
       <use style="stroke:#000000;stroke-width:0.8;" x="206.698679" xlink:href="#mdb52d7e7aa" y="345.6"/>
      </g>
     </g>
     <g id="text_4">
      <text style="font-family:DejaVu Sans;font-size:10px;font-style:normal;font-weight:normal;text-anchor:middle;" transform="rotate(-0, 206.698679, 360.198437)" x="206.698679" y="360.198437">0.00</text>
     </g>
    </g>
    <g id="xtick_5">
     <g id="line2d_5">
      <g>
       <use style="stroke:#000000;stroke-width:0.8;" x="263.74098" xlink:href="#mdb52d7e7aa" y="345.6"/>
      </g>
     </g>
     <g id="text_5">
      <text style="font-family:DejaVu Sans;font-size:10px;font-style:normal;font-weight:normal;text-anchor:middle;" transform="rotate(-0, 263.74098, 360.198437)" x="263.74098" y="360.198437">0.05</text>
     </g>
    </g>
    <g id="xtick_6">
     <g id="line2d_6">
      <g>
       <use style="stroke:#000000;stroke-width:0.8;" x="320.783281" xlink:href="#mdb52d7e7aa" y="345.6"/>
      </g>
     </g>
     <g id="text_6">
      <text style="font-family:DejaVu Sans;font-size:10px;font-style:normal;font-weight:normal;text-anchor:middle;" transform="rotate(-0, 320.783281, 360.198437)" x="320.783281" y="360.198437">0.10</text>
     </g>
    </g>
    <g id="xtick_7">
     <g id="line2d_7">
      <g>
       <use style="stroke:#000000;stroke-width:0.8;" x="377.825582" xlink:href="#mdb52d7e7aa" y="345.6"/>
      </g>
     </g>
     <g id="text_7">
      <text style="font-family:DejaVu Sans;font-size:10px;font-style:normal;font-weight:normal;text-anchor:middle;" transform="rotate(-0, 377.825582, 360.198437)" x="377.825582" y="360.198437">0.15</text>
     </g>
    </g>
    <g id="xtick_8">
     <g id="line2d_8">
      <g>
       <use style="stroke:#000000;stroke-width:0.8;" x="434.867883" xlink:href="#mdb52d7e7aa" y="345.6"/>
      </g>
     </g>
     <g id="text_8">
      <text style="font-family:DejaVu Sans;font-size:10px;font-style:normal;font-weight:normal;text-anchor:middle;" transform="rotate(-0, 434.867883, 360.198437)" x="434.867883" y="360.198437">0.20</text>
     </g>
    </g>
   </g>
   <g id="matplotlib.axis_2">
    <g id="ytick_1">
     <g id="line2d_9">
      <defs>
       <path d="M 0 0 
L -3.5 0 
" id="md3534b5451" style="stroke:#000000;stroke-width:0.8;"/>
      </defs>
      <g>
       <use style="stroke:#000000;stroke-width:0.8;" x="0" xlink:href="#md3534b5451" y="320.553522"/>
      </g>
     </g>
     <g id="text_9">
      <text style="font-family:DejaVu Sans;font-size:10px;font-style:normal;font-weight:normal;text-anchor:end;" transform="rotate(-0, -7, 324.352741)" x="-7" y="324.352741">−0.15</text>
     </g>
    </g>
    <g id="ytick_2">
     <g id="line2d_10">
      <g>
       <use style="stroke:#000000;stroke-width:0.8;" x="0" xlink:href="#md3534b5451" y="268.252636"/>
      </g>
     </g>
     <g id="text_10">
      <text style="font-family:DejaVu Sans;font-size:10px;font-style:normal;font-weight:normal;text-anchor:end;" transform="rotate(-0, -7, 272.051854)" x="-7" y="272.051854">−0.10</text>
     </g>
    </g>
    <g id="ytick_3">
     <g id="line2d_11">
      <g>
       <use style="stroke:#000000;stroke-width:0.8;" x="0" xlink:href="#md3534b5451" y="215.951749"/>
      </g>
     </g>
     <g id="text_11">
      <text style="font-family:DejaVu Sans;font-size:10px;font-style:normal;font-weight:normal;text-anchor:end;" transform="rotate(-0, -7, 219.750968)" x="-7" y="219.750968">−0.05</text>
     </g>
    </g>
    <g id="ytick_4">
     <g id="line2d_12">
      <g>
       <use style="stroke:#000000;stroke-width:0.8;" x="0" xlink:href="#md3534b5451" y="163.650863"/>
      </g>
     </g>
     <g id="text_12">
      <text style="font-family:DejaVu Sans;font-size:10px;font-style:normal;font-weight:normal;text-anchor:end;" transform="rotate(-0, -7, 167.450082)" x="-7" y="167.450082">0.00</text>
     </g>
    </g>
    <g id="ytick_5">
     <g id="line2d_13">
      <g>
       <use style="stroke:#000000;stroke-width:0.8;" x="0" xlink:href="#md3534b5451" y="111.349976"/>
      </g>
     </g>
     <g id="text_13">
      <text style="font-family:DejaVu Sans;font-size:10px;font-style:normal;font-weight:normal;text-anchor:end;" transform="rotate(-0, -7, 115.149195)" x="-7" y="115.149195">0.05</text>
     </g>
    </g>
    <g id="ytick_6">
     <g id="line2d_14">
      <g>
       <use style="stroke:#000000;stroke-width:0.8;" x="0" xlink:href="#md3534b5451" y="59.04909"/>
      </g>
     </g>
     <g id="text_14">
      <text style="font-family:DejaVu Sans;font-size:10px;font-style:normal;font-weight:normal;text-anchor:end;" transform="rotate(-0, -7, 62.848309)" x="-7" y="62.848309">0.10</text>
     </g>
    </g>
    <g id="ytick_7">
     <g id="line2d_15">
      <g>
       <use style="stroke:#000000;stroke-width:0.8;" x="0" xlink:href="#md3534b5451" y="6.748204"/>
      </g>
     </g>
     <g id="text_15">
      <text style="font-family:DejaVu Sans;font-size:10px;font-style:normal;font-weight:normal;text-anchor:end;" transform="rotate(-0, -7, 10.547422)" x="-7" y="10.547422">0.15</text>
     </g>
    </g>
   </g>
   <g id="line2d_16">
    <path clip-path="url(#pf78bcf4b67)" d="M 202.135295 170.972987 
" style="fill:none;stroke:#ff0000;stroke-linecap:square;stroke-width:1.5;"/>
    <defs>
     <path d="M 0 2.5 
C 0.663008 2.5 1.29895 2.236584 1.767767 1.767767 
C 2.236584 1.29895 2.5 0.663008 2.5 0 
C 2.5 -0.663008 2.236584 -1.29895 1.767767 -1.767767 
C 1.29895 -2.236584 0.663008 -2.5 0 -2.5 
C -0.663008 -2.5 -1.29895 -2.236584 -1.767767 -1.767767 
C -2.236584 -1.29895 -2.5 -0.663008 -2.5 0 
C -2.5 0.663008 -2.236584 1.29895 -1.767767 1.767767 
C -1.29895 2.236584 -0.663008 2.5 0 2.5 
z
" id="m0856a94302" style="stroke:#ff0000;"/>
    </defs>
    <g clip-path="url(#pf78bcf4b67)">
     <use style="fill:#ff0000;stroke:#ff0000;" x="202.135295" xlink:href="#m0856a94302" y="170.972987"/>
    </g>
   </g>
   <g id="line2d_17">
    <path clip-path="url(#pf78bcf4b67)" d="M 199.853603 175.157058 
" style="fill:none;stroke:#ff0000;stroke-linecap:square;stroke-width:1.5;"/>
    <g clip-path="url(#pf78bcf4b67)">
     <use style="fill:#ff0000;stroke:#ff0000;" x="199.853603" xlink:href="#m0856a94302" y="175.157058"/>
    </g>
   </g>
   <g id="patch_3">
    <path d="M 0 345.6 
L 0 0 
" style="fill:none;stroke:#000000;stroke-linecap:square;stroke-linejoin:miter;stroke-width:0.8;"/>
   </g>
   <g id="patch_4">
    <path d="M 460.8 345.6 
L 460.8 0 
" style="fill:none;stroke:#000000;stroke-linecap:square;stroke-linejoin:miter;stroke-width:0.8;"/>
   </g>
   <g id="patch_5">
    <path d="M 0 345.6 
L 460.8 345.6 
" style="fill:none;stroke:#000000;stroke-linecap:square;stroke-linejoin:miter;stroke-width:0.8;"/>
   </g>
   <g id="patch_6">
    <path d="M 0 0 
L 460.8 0 
" style="fill:none;stroke:#000000;stroke-linecap:square;stroke-linejoin:miter;stroke-width:0.8;"/>
   </g>
   <g id="text_16">
    <text style="fill:#ff0000;font-family:DejaVu Sans;font-size:8px;font-style:normal;font-weight:normal;text-anchor:start;" transform="rotate(-0, 202.135295, 170.972987)" x="202.135295" y="170.972987">_naive</text>
   </g>
   <g id="text_17">
    <text style="fill:#ff0000;font-family:DejaVu Sans;font-size:8px;font-style:normal;font-weight:normal;text-anchor:start;" transform="rotate(-0, 199.853603, 175.157058)" x="199.853603" y="175.157058">_consensus</text>
   </g>
  </g>
  <g id="text_18">
   <text style="font-family:DejaVu Sans;font-size:15px;font-style:normal;font-weight:normal;text-anchor:start;" transform="rotate(-0, 184.32, 34.56)" x="184.32" y="34.56">MDS comp. (index 4 size 71)</text>
  </g>
 </g>
 <defs>
  <clipPath id="pf78bcf4b67">
   <rect height="345.6" width="460.8" x="0" y="0"/>
  </clipPath>
 </defs>
</svg>
