<?xml version="1.0" encoding="utf-8" standalone="no"?>
<!DOCTYPE svg PUBLIC "-//W3C//DTD SVG 1.1//EN"
  "http://www.w3.org/Graphics/SVG/1.1/DTD/svg11.dtd">
<!-- Created with matplotlib (http://matplotlib.org/) -->
<svg height="345.6pt" version="1.1" viewBox="0 0 460.8 345.6" width="460.8pt" xmlns="http://www.w3.org/2000/svg" xmlns:xlink="http://www.w3.org/1999/xlink">
 <defs>
  <style type="text/css">
*{stroke-linecap:butt;stroke-linejoin:round;}
  </style>
 </defs>
 <g id="figure_1">
  <g id="patch_1">
   <path d="M 0 345.6 
L 460.8 345.6 
L 460.8 0 
L 0 0 
z
" style="fill:#ffffff;"/>
  </g>
  <g id="axes_1">
   <g id="patch_2">
    <path d="M 0 345.6 
L 460.8 345.6 
L 460.8 0 
L 0 0 
z
" style="fill:#ffffff;"/>
   </g>
   <g id="PathCollection_1">
    <defs>
     <path d="M 0 3 
C 0.795609 3 1.55874 2.683901 2.12132 2.12132 
C 2.683901 1.55874 3 0.795609 3 0 
C 3 -0.795609 2.683901 -1.55874 2.12132 -2.12132 
C 1.55874 -2.683901 0.795609 -3 0 -3 
C -0.795609 -3 -1.55874 -2.683901 -2.12132 -2.12132 
C -2.683901 -1.55874 -3 -0.795609 -3 0 
C -3 0.795609 -2.683901 1.55874 -2.12132 2.12132 
C -1.55874 2.683901 -0.795609 3 0 3 
z
" id="ma9e4cd5c92" style="stroke:#8dc1dd;"/>
    </defs>
    <g clip-path="url(#p2e5e7953c2)">
     <use style="fill:#8dc1dd;stroke:#8dc1dd;" x="206.41855" xlink:href="#ma9e4cd5c92" y="183.393163"/>
    </g>
   </g>
   <g id="PathCollection_2">
    <defs>
     <path d="M 0 3 
C 0.795609 3 1.55874 2.683901 2.12132 2.12132 
C 2.683901 1.55874 3 0.795609 3 0 
C 3 -0.795609 2.683901 -1.55874 2.12132 -2.12132 
C 1.55874 -2.683901 0.795609 -3 0 -3 
C -0.795609 -3 -1.55874 -2.683901 -2.12132 -2.12132 
C -2.683901 -1.55874 -3 -0.795609 -3 0 
C -3 0.795609 -2.683901 1.55874 -2.12132 2.12132 
C -1.55874 2.683901 -0.795609 3 0 3 
z
" id="m71cb2b5441" style="stroke:#105ba4;"/>
    </defs>
    <g clip-path="url(#p2e5e7953c2)">
     <use style="fill:#105ba4;stroke:#105ba4;" x="99.002586" xlink:href="#m71cb2b5441" y="31.950754"/>
    </g>
   </g>
   <g id="PathCollection_3">
    <g clip-path="url(#p2e5e7953c2)">
     <use style="fill:#105ba4;stroke:#105ba4;" x="387.832179" xlink:href="#m71cb2b5441" y="221.253765"/>
    </g>
   </g>
   <g id="PathCollection_4">
    <g clip-path="url(#p2e5e7953c2)">
     <use style="fill:#105ba4;stroke:#105ba4;" x="368.736008" xlink:href="#m71cb2b5441" y="216.521189"/>
    </g>
   </g>
   <g id="PathCollection_5">
    <defs>
     <path d="M 0 3 
C 0.795609 3 1.55874 2.683901 2.12132 2.12132 
C 2.683901 1.55874 3 0.795609 3 0 
C 3 -0.795609 2.683901 -1.55874 2.12132 -2.12132 
C 1.55874 -2.683901 0.795609 -3 0 -3 
C -0.795609 -3 -1.55874 -2.683901 -2.12132 -2.12132 
C -2.683901 -1.55874 -3 -0.795609 -3 0 
C -3 0.795609 -2.683901 1.55874 -2.12132 2.12132 
C -1.55874 2.683901 -0.795609 3 0 3 
z
" id="md1e05333d2" style="stroke:#abd0e6;"/>
    </defs>
    <g clip-path="url(#p2e5e7953c2)">
     <use style="fill:#abd0e6;stroke:#abd0e6;" x="204.031529" xlink:href="#md1e05333d2" y="188.125738"/>
    </g>
   </g>
   <g id="PathCollection_6">
    <g clip-path="url(#p2e5e7953c2)">
     <use style="fill:#8dc1dd;stroke:#8dc1dd;" x="175.387272" xlink:href="#ma9e4cd5c92" y="140.799985"/>
    </g>
   </g>
   <g id="PathCollection_7">
    <defs>
     <path d="M 0 3 
C 0.795609 3 1.55874 2.683901 2.12132 2.12132 
C 2.683901 1.55874 3 0.795609 3 0 
C 3 -0.795609 2.683901 -1.55874 2.12132 -2.12132 
C 1.55874 -2.683901 0.795609 -3 0 -3 
C -0.795609 -3 -1.55874 -2.683901 -2.12132 -2.12132 
C -2.683901 -1.55874 -3 -0.795609 -3 0 
C -3 0.795609 -2.683901 1.55874 -2.12132 2.12132 
C -1.55874 2.683901 -0.795609 3 0 3 
z
" id="ma71af45cf6" style="stroke:#4f9bcb;"/>
    </defs>
    <g clip-path="url(#p2e5e7953c2)">
     <use style="fill:#4f9bcb;stroke:#4f9bcb;" x="165.839186" xlink:href="#ma71af45cf6" y="114.770821"/>
    </g>
   </g>
   <g id="PathCollection_8">
    <defs>
     <path d="M 0 3 
C 0.795609 3 1.55874 2.683901 2.12132 2.12132 
C 2.683901 1.55874 3 0.795609 3 0 
C 3 -0.795609 2.683901 -1.55874 2.12132 -2.12132 
C 1.55874 -2.683901 0.795609 -3 0 -3 
C -0.795609 -3 -1.55874 -2.683901 -2.12132 -2.12132 
C -2.683901 -1.55874 -3 -0.795609 -3 0 
C -3 0.795609 -2.683901 1.55874 -2.12132 2.12132 
C -1.55874 2.683901 -0.795609 3 0 3 
z
" id="m6ecc2462ec" style="stroke:#3787c0;"/>
    </defs>
    <g clip-path="url(#p2e5e7953c2)">
     <use style="fill:#3787c0;stroke:#3787c0;" x="65.584286" xlink:href="#m6ecc2462ec" y="327.736708"/>
    </g>
   </g>
   <g id="PathCollection_9">
    <g clip-path="url(#p2e5e7953c2)">
     <use style="fill:#4f9bcb;stroke:#4f9bcb;" x="149.130036" xlink:href="#ma71af45cf6" y="105.305671"/>
    </g>
   </g>
   <g id="PathCollection_10">
    <g clip-path="url(#p2e5e7953c2)">
     <use style="fill:#105ba4;stroke:#105ba4;" x="108.550672" xlink:href="#m71cb2b5441" y="17.753029"/>
    </g>
   </g>
   <g id="PathCollection_11">
    <g clip-path="url(#p2e5e7953c2)">
     <use style="fill:#abd0e6;stroke:#abd0e6;" x="204.031529" xlink:href="#md1e05333d2" y="188.125738"/>
    </g>
   </g>
   <g id="PathCollection_12">
    <defs>
     <path d="M 0 3 
C 0.795609 3 1.55874 2.683901 2.12132 2.12132 
C 2.683901 1.55874 3 0.795609 3 0 
C 3 -0.795609 2.683901 -1.55874 2.12132 -2.12132 
C 1.55874 -2.683901 0.795609 -3 0 -3 
C -0.795609 -3 -1.55874 -2.683901 -2.12132 -2.12132 
C -2.683901 -1.55874 -3 -0.795609 -3 0 
C -3 0.795609 -2.683901 1.55874 -2.12132 2.12132 
C -1.55874 2.683901 -0.795609 3 0 3 
z
" id="m964d2347fb" style="stroke:#2070b4;"/>
    </defs>
    <g clip-path="url(#p2e5e7953c2)">
     <use style="fill:#2070b4;stroke:#2070b4;" x="22.6179" xlink:href="#m964d2347fb" y="294.608681"/>
    </g>
   </g>
   <g id="PathCollection_13">
    <defs>
     <path d="M 0 3 
C 0.795609 3 1.55874 2.683901 2.12132 2.12132 
C 2.683901 1.55874 3 0.795609 3 0 
C 3 -0.795609 2.683901 -1.55874 2.12132 -2.12132 
C 1.55874 -2.683901 0.795609 -3 0 -3 
C -0.795609 -3 -1.55874 -2.683901 -2.12132 -2.12132 
C -2.683901 -1.55874 -3 -0.795609 -3 0 
C -3 0.795609 -2.683901 1.55874 -2.12132 2.12132 
C -1.55874 2.683901 -0.795609 3 0 3 
z
" id="m4986e95a56" style="stroke:#08306b;"/>
    </defs>
    <g clip-path="url(#p2e5e7953c2)">
     <use style="fill:#08306b;stroke:#08306b;" x="437.959629" xlink:href="#m4986e95a56" y="225.98634"/>
    </g>
   </g>
   <g id="PathCollection_14">
    <defs>
     <path d="M 0 3 
C 0.795609 3 1.55874 2.683901 2.12132 2.12132 
C 2.683901 1.55874 3 0.795609 3 0 
C 3 -0.795609 2.683901 -1.55874 2.12132 -2.12132 
C 1.55874 -2.683901 0.795609 -3 0 -3 
C -0.795609 -3 -1.55874 -2.683901 -2.12132 -2.12132 
C -2.683901 -1.55874 -3 -0.795609 -3 0 
C -3 0.795609 -2.683901 1.55874 -2.12132 2.12132 
C -1.55874 2.683901 -0.795609 3 0 3 
z
" id="mc2fd4e906e" style="stroke:#d6e6f4;"/>
    </defs>
    <g clip-path="url(#p2e5e7953c2)">
     <use style="fill:#d6e6f4;stroke:#d6e6f4;" x="182.548336" xlink:href="#mc2fd4e906e" y="221.253765"/>
    </g>
   </g>
   <g id="PathCollection_15">
    <g clip-path="url(#p2e5e7953c2)">
     <use style="fill:#3787c0;stroke:#3787c0;" x="56.0362" xlink:href="#m6ecc2462ec" y="327.736708"/>
    </g>
   </g>
   <g id="PathCollection_16">
    <g clip-path="url(#p2e5e7953c2)">
     <use style="fill:#d6e6f4;stroke:#d6e6f4;" x="206.41855" xlink:href="#mc2fd4e906e" y="190.492026"/>
    </g>
   </g>
   <g id="PathCollection_17">
    <g clip-path="url(#p2e5e7953c2)">
     <use style="fill:#3787c0;stroke:#3787c0;" x="227.901743" xlink:href="#m6ecc2462ec" y="166.829149"/>
    </g>
   </g>
   <g id="matplotlib.axis_1">
    <g id="xtick_1">
     <g id="line2d_1">
      <defs>
       <path d="M 0 0 
L 0 3.5 
" id="m436bc321c0" style="stroke:#000000;stroke-width:0.8;"/>
      </defs>
      <g>
       <use style="stroke:#000000;stroke-width:0.8;" x="13.069814" xlink:href="#m436bc321c0" y="345.6"/>
      </g>
     </g>
     <g id="text_1">
      <text style="font-family:DejaVu Sans;font-size:10px;font-style:normal;font-weight:normal;text-anchor:middle;" transform="rotate(-0, 13.069814, 360.198437)" x="13.069814" y="360.198437">−0.075</text>
     </g>
    </g>
    <g id="xtick_2">
     <g id="line2d_2">
      <g>
       <use style="stroke:#000000;stroke-width:0.8;" x="72.74535" xlink:href="#m436bc321c0" y="345.6"/>
      </g>
     </g>
     <g id="text_2">
      <text style="font-family:DejaVu Sans;font-size:10px;font-style:normal;font-weight:normal;text-anchor:middle;" transform="rotate(-0, 72.74535, 360.198437)" x="72.74535" y="360.198437">−0.050</text>
     </g>
    </g>
    <g id="xtick_3">
     <g id="line2d_3">
      <g>
       <use style="stroke:#000000;stroke-width:0.8;" x="132.420886" xlink:href="#m436bc321c0" y="345.6"/>
      </g>
     </g>
     <g id="text_3">
      <text style="font-family:DejaVu Sans;font-size:10px;font-style:normal;font-weight:normal;text-anchor:middle;" transform="rotate(-0, 132.420886, 360.198437)" x="132.420886" y="360.198437">−0.025</text>
     </g>
    </g>
    <g id="xtick_4">
     <g id="line2d_4">
      <g>
       <use style="stroke:#000000;stroke-width:0.8;" x="192.096422" xlink:href="#m436bc321c0" y="345.6"/>
      </g>
     </g>
     <g id="text_4">
      <text style="font-family:DejaVu Sans;font-size:10px;font-style:normal;font-weight:normal;text-anchor:middle;" transform="rotate(-0, 192.096422, 360.198437)" x="192.096422" y="360.198437">0.000</text>
     </g>
    </g>
    <g id="xtick_5">
     <g id="line2d_5">
      <g>
       <use style="stroke:#000000;stroke-width:0.8;" x="251.771958" xlink:href="#m436bc321c0" y="345.6"/>
      </g>
     </g>
     <g id="text_5">
      <text style="font-family:DejaVu Sans;font-size:10px;font-style:normal;font-weight:normal;text-anchor:middle;" transform="rotate(-0, 251.771958, 360.198437)" x="251.771958" y="360.198437">0.025</text>
     </g>
    </g>
    <g id="xtick_6">
     <g id="line2d_6">
      <g>
       <use style="stroke:#000000;stroke-width:0.8;" x="311.447493" xlink:href="#m436bc321c0" y="345.6"/>
      </g>
     </g>
     <g id="text_6">
      <text style="font-family:DejaVu Sans;font-size:10px;font-style:normal;font-weight:normal;text-anchor:middle;" transform="rotate(-0, 311.447493, 360.198437)" x="311.447493" y="360.198437">0.050</text>
     </g>
    </g>
    <g id="xtick_7">
     <g id="line2d_7">
      <g>
       <use style="stroke:#000000;stroke-width:0.8;" x="371.123029" xlink:href="#m436bc321c0" y="345.6"/>
      </g>
     </g>
     <g id="text_7">
      <text style="font-family:DejaVu Sans;font-size:10px;font-style:normal;font-weight:normal;text-anchor:middle;" transform="rotate(-0, 371.123029, 360.198437)" x="371.123029" y="360.198437">0.075</text>
     </g>
    </g>
    <g id="xtick_8">
     <g id="line2d_8">
      <g>
       <use style="stroke:#000000;stroke-width:0.8;" x="430.798565" xlink:href="#m436bc321c0" y="345.6"/>
      </g>
     </g>
     <g id="text_8">
      <text style="font-family:DejaVu Sans;font-size:10px;font-style:normal;font-weight:normal;text-anchor:middle;" transform="rotate(-0, 430.798565, 360.198437)" x="430.798565" y="360.198437">0.100</text>
     </g>
    </g>
   </g>
   <g id="matplotlib.axis_2">
    <g id="ytick_1">
     <g id="line2d_9">
      <defs>
       <path d="M 0 0 
L -3.5 0 
" id="m8bc9921c12" style="stroke:#000000;stroke-width:0.8;"/>
      </defs>
      <g>
       <use style="stroke:#000000;stroke-width:0.8;" x="0" xlink:href="#m8bc9921c12" y="327.736708"/>
      </g>
     </g>
     <g id="text_9">
      <text style="font-family:DejaVu Sans;font-size:10px;font-style:normal;font-weight:normal;text-anchor:end;" transform="rotate(-0, -7, 331.535927)" x="-7" y="331.535927">−0.06</text>
     </g>
    </g>
    <g id="ytick_2">
     <g id="line2d_10">
      <g>
       <use style="stroke:#000000;stroke-width:0.8;" x="0" xlink:href="#m8bc9921c12" y="280.410955"/>
      </g>
     </g>
     <g id="text_10">
      <text style="font-family:DejaVu Sans;font-size:10px;font-style:normal;font-weight:normal;text-anchor:end;" transform="rotate(-0, -7, 284.210174)" x="-7" y="284.210174">−0.04</text>
     </g>
    </g>
    <g id="ytick_3">
     <g id="line2d_11">
      <g>
       <use style="stroke:#000000;stroke-width:0.8;" x="0" xlink:href="#m8bc9921c12" y="233.085203"/>
      </g>
     </g>
     <g id="text_11">
      <text style="font-family:DejaVu Sans;font-size:10px;font-style:normal;font-weight:normal;text-anchor:end;" transform="rotate(-0, -7, 236.884422)" x="-7" y="236.884422">−0.02</text>
     </g>
    </g>
    <g id="ytick_4">
     <g id="line2d_12">
      <g>
       <use style="stroke:#000000;stroke-width:0.8;" x="0" xlink:href="#m8bc9921c12" y="185.75945"/>
      </g>
     </g>
     <g id="text_12">
      <text style="font-family:DejaVu Sans;font-size:10px;font-style:normal;font-weight:normal;text-anchor:end;" transform="rotate(-0, -7, 189.558669)" x="-7" y="189.558669">0.00</text>
     </g>
    </g>
    <g id="ytick_5">
     <g id="line2d_13">
      <g>
       <use style="stroke:#000000;stroke-width:0.8;" x="0" xlink:href="#m8bc9921c12" y="138.433698"/>
      </g>
     </g>
     <g id="text_13">
      <text style="font-family:DejaVu Sans;font-size:10px;font-style:normal;font-weight:normal;text-anchor:end;" transform="rotate(-0, -7, 142.232916)" x="-7" y="142.232916">0.02</text>
     </g>
    </g>
    <g id="ytick_6">
     <g id="line2d_14">
      <g>
       <use style="stroke:#000000;stroke-width:0.8;" x="0" xlink:href="#m8bc9921c12" y="91.107945"/>
      </g>
     </g>
     <g id="text_14">
      <text style="font-family:DejaVu Sans;font-size:10px;font-style:normal;font-weight:normal;text-anchor:end;" transform="rotate(-0, -7, 94.907164)" x="-7" y="94.907164">0.04</text>
     </g>
    </g>
    <g id="ytick_7">
     <g id="line2d_15">
      <g>
       <use style="stroke:#000000;stroke-width:0.8;" x="0" xlink:href="#m8bc9921c12" y="43.782193"/>
      </g>
     </g>
     <g id="text_15">
      <text style="font-family:DejaVu Sans;font-size:10px;font-style:normal;font-weight:normal;text-anchor:end;" transform="rotate(-0, -7, 47.581411)" x="-7" y="47.581411">0.06</text>
     </g>
    </g>
   </g>
   <g id="line2d_16">
    <path clip-path="url(#p2e5e7953c2)" d="M 182.548336 221.253765 
" style="fill:none;stroke:#ff0000;stroke-linecap:square;stroke-width:1.5;"/>
    <defs>
     <path d="M 0 2.5 
C 0.663008 2.5 1.29895 2.236584 1.767767 1.767767 
C 2.236584 1.29895 2.5 0.663008 2.5 0 
C 2.5 -0.663008 2.236584 -1.29895 1.767767 -1.767767 
C 1.29895 -2.236584 0.663008 -2.5 0 -2.5 
C -0.663008 -2.5 -1.29895 -2.236584 -1.767767 -1.767767 
C -2.236584 -1.29895 -2.5 -0.663008 -2.5 0 
C -2.5 0.663008 -2.236584 1.29895 -1.767767 1.767767 
C -1.29895 2.236584 -0.663008 2.5 0 2.5 
z
" id="m03dbe67727" style="stroke:#ff0000;"/>
    </defs>
    <g clip-path="url(#p2e5e7953c2)">
     <use style="fill:#ff0000;stroke:#ff0000;" x="182.548336" xlink:href="#m03dbe67727" y="221.253765"/>
    </g>
   </g>
   <g id="line2d_17">
    <path clip-path="url(#p2e5e7953c2)" d="M 206.41855 190.492026 
" style="fill:none;stroke:#ff0000;stroke-linecap:square;stroke-width:1.5;"/>
    <g clip-path="url(#p2e5e7953c2)">
     <use style="fill:#ff0000;stroke:#ff0000;" x="206.41855" xlink:href="#m03dbe67727" y="190.492026"/>
    </g>
   </g>
   <g id="patch_3">
    <path d="M 0 345.6 
L 0 -0 
" style="fill:none;stroke:#000000;stroke-linecap:square;stroke-linejoin:miter;stroke-width:0.8;"/>
   </g>
   <g id="patch_4">
    <path d="M 460.8 345.6 
L 460.8 -0 
" style="fill:none;stroke:#000000;stroke-linecap:square;stroke-linejoin:miter;stroke-width:0.8;"/>
   </g>
   <g id="patch_5">
    <path d="M 0 345.6 
L 460.8 345.6 
" style="fill:none;stroke:#000000;stroke-linecap:square;stroke-linejoin:miter;stroke-width:0.8;"/>
   </g>
   <g id="patch_6">
    <path d="M 0 0 
L 460.8 0 
" style="fill:none;stroke:#000000;stroke-linecap:square;stroke-linejoin:miter;stroke-width:0.8;"/>
   </g>
   <g id="text_16">
    <text style="fill:#ff0000;font-family:DejaVu Sans;font-size:8px;font-style:normal;font-weight:normal;text-anchor:start;" transform="rotate(-0, 182.548336, 221.253765)" x="182.548336" y="221.253765">_naive</text>
   </g>
   <g id="text_17">
    <text style="fill:#ff0000;font-family:DejaVu Sans;font-size:8px;font-style:normal;font-weight:normal;text-anchor:start;" transform="rotate(-0, 206.41855, 190.492026)" x="206.41855" y="190.492026">_consensus</text>
   </g>
  </g>
  <g id="text_18">
   <text style="font-family:DejaVu Sans;font-size:15px;font-style:normal;font-weight:normal;text-anchor:start;" transform="rotate(-0, 184.32, 34.56)" x="184.32" y="34.56">MDS comp. (index 7 size 19)</text>
  </g>
 </g>
 <defs>
  <clipPath id="p2e5e7953c2">
   <rect height="345.6" width="460.8" x="0" y="0"/>
  </clipPath>
 </defs>
</svg>
