<?xml version="1.0" encoding="utf-8" standalone="no"?>
<!DOCTYPE svg PUBLIC "-//W3C//DTD SVG 1.1//EN"
  "http://www.w3.org/Graphics/SVG/1.1/DTD/svg11.dtd">
<!-- Created with matplotlib (http://matplotlib.org/) -->
<svg height="345.6pt" version="1.1" viewBox="0 0 460.8 345.6" width="460.8pt" xmlns="http://www.w3.org/2000/svg" xmlns:xlink="http://www.w3.org/1999/xlink">
 <defs>
  <style type="text/css">
*{stroke-linecap:butt;stroke-linejoin:round;}
  </style>
 </defs>
 <g id="figure_1">
  <g id="patch_1">
   <path d="M 0 345.6 
L 460.8 345.6 
L 460.8 0 
L 0 0 
z
" style="fill:#ffffff;"/>
  </g>
  <g id="axes_1">
   <g id="patch_2">
    <path d="M 0 345.6 
L 460.8 345.6 
L 460.8 0 
L 0 0 
z
" style="fill:#ffffff;"/>
   </g>
   <g id="PathCollection_1">
    <defs>
     <path d="M 0 3 
C 0.795609 3 1.55874 2.683901 2.12132 2.12132 
C 2.683901 1.55874 3 0.795609 3 0 
C 3 -0.795609 2.683901 -1.55874 2.12132 -2.12132 
C 1.55874 -2.683901 0.795609 -3 0 -3 
C -0.795609 -3 -1.55874 -2.683901 -2.12132 -2.12132 
C -2.683901 -1.55874 -3 -0.795609 -3 0 
C -3 0.795609 -2.683901 1.55874 -2.12132 2.12132 
C -1.55874 2.683901 -0.795609 3 0 3 
z
" id="m1db7cfe972" style="stroke:#4090c5;"/>
    </defs>
    <g clip-path="url(#p6617702a38)">
     <use style="fill:#4090c5;stroke:#4090c5;" x="97.938227" xlink:href="#m1db7cfe972" y="35.542336"/>
    </g>
   </g>
   <g id="PathCollection_2">
    <defs>
     <path d="M 0 3 
C 0.795609 3 1.55874 2.683901 2.12132 2.12132 
C 2.683901 1.55874 3 0.795609 3 0 
C 3 -0.795609 2.683901 -1.55874 2.12132 -2.12132 
C 1.55874 -2.683901 0.795609 -3 0 -3 
C -0.795609 -3 -1.55874 -2.683901 -2.12132 -2.12132 
C -2.683901 -1.55874 -3 -0.795609 -3 0 
C -3 0.795609 -2.683901 1.55874 -2.12132 2.12132 
C -1.55874 2.683901 -0.795609 3 0 3 
z
" id="ma2d2a3d02e" style="stroke:#5fa6d1;"/>
    </defs>
    <g clip-path="url(#p6617702a38)">
     <use style="fill:#5fa6d1;stroke:#5fa6d1;" x="80.207296" xlink:href="#ma2d2a3d02e" y="159.828073"/>
    </g>
   </g>
   <g id="PathCollection_3">
    <g clip-path="url(#p6617702a38)">
     <use style="fill:#5fa6d1;stroke:#5fa6d1;" x="117.63926" xlink:href="#ma2d2a3d02e" y="173.778512"/>
    </g>
   </g>
   <g id="PathCollection_4">
    <defs>
     <path d="M 0 3 
C 0.795609 3 1.55874 2.683901 2.12132 2.12132 
C 2.683901 1.55874 3 0.795609 3 0 
C 3 -0.795609 2.683901 -1.55874 2.12132 -2.12132 
C 1.55874 -2.683901 0.795609 -3 0 -3 
C -0.795609 -3 -1.55874 -2.683901 -2.12132 -2.12132 
C -2.683901 -1.55874 -3 -0.795609 -3 0 
C -3 0.795609 -2.683901 1.55874 -2.12132 2.12132 
C -1.55874 2.683901 -0.795609 3 0 3 
z
" id="m03a3918cfc" style="stroke:#a5cde3;"/>
    </defs>
    <g clip-path="url(#p6617702a38)">
     <use style="fill:#a5cde3;stroke:#a5cde3;" x="113.699054" xlink:href="#m03a3918cfc" y="172.510291"/>
    </g>
   </g>
   <g id="PathCollection_5">
    <g clip-path="url(#p6617702a38)">
     <use style="fill:#5fa6d1;stroke:#5fa6d1;" x="291.008357" xlink:href="#ma2d2a3d02e" y="144.609411"/>
    </g>
   </g>
   <g id="PathCollection_6">
    <defs>
     <path d="M 0 3 
C 0.795609 3 1.55874 2.683901 2.12132 2.12132 
C 2.683901 1.55874 3 0.795609 3 0 
C 3 -0.795609 2.683901 -1.55874 2.12132 -2.12132 
C 1.55874 -2.683901 0.795609 -3 0 -3 
C -0.795609 -3 -1.55874 -2.683901 -2.12132 -2.12132 
C -2.683901 -1.55874 -3 -0.795609 -3 0 
C -3 0.795609 -2.683901 1.55874 -2.12132 2.12132 
C -1.55874 2.683901 -0.795609 3 0 3 
z
" id="m9159e75c5c" style="stroke:#c3daee;"/>
    </defs>
    <g clip-path="url(#p6617702a38)">
     <use style="fill:#c3daee;stroke:#c3daee;" x="123.549571" xlink:href="#m9159e75c5c" y="178.8514"/>
    </g>
   </g>
   <g id="PathCollection_7">
    <defs>
     <path d="M 0 3 
C 0.795609 3 1.55874 2.683901 2.12132 2.12132 
C 2.683901 1.55874 3 0.795609 3 0 
C 3 -0.795609 2.683901 -1.55874 2.12132 -2.12132 
C 1.55874 -2.683901 0.795609 -3 0 -3 
C -0.795609 -3 -1.55874 -2.683901 -2.12132 -2.12132 
C -2.683901 -1.55874 -3 -0.795609 -3 0 
C -3 0.795609 -2.683901 1.55874 -2.12132 2.12132 
C -1.55874 2.683901 -0.795609 3 0 3 
z
" id="m0542fd3c23" style="stroke:#82bbdb;"/>
    </defs>
    <g clip-path="url(#p6617702a38)">
     <use style="fill:#82bbdb;stroke:#82bbdb;" x="111.72895" xlink:href="#m0542fd3c23" y="164.90096"/>
    </g>
   </g>
   <g id="PathCollection_8">
    <g clip-path="url(#p6617702a38)">
     <use style="fill:#a5cde3;stroke:#a5cde3;" x="141.280501" xlink:href="#m03a3918cfc" y="117.976753"/>
    </g>
   </g>
   <g id="PathCollection_9">
    <defs>
     <path d="M 0 3 
C 0.795609 3 1.55874 2.683901 2.12132 2.12132 
C 2.683901 1.55874 3 0.795609 3 0 
C 3 -0.795609 2.683901 -1.55874 2.12132 -2.12132 
C 1.55874 -2.683901 0.795609 -3 0 -3 
C -0.795609 -3 -1.55874 -2.683901 -2.12132 -2.12132 
C -2.683901 -1.55874 -3 -0.795609 -3 0 
C -3 0.795609 -2.683901 1.55874 -2.12132 2.12132 
C -1.55874 2.683901 -0.795609 3 0 3 
z
" id="m5eb57c59a9" style="stroke:#08306b;"/>
    </defs>
    <g clip-path="url(#p6617702a38)">
     <use style="fill:#08306b;stroke:#08306b;" x="438.76611" xlink:href="#m5eb57c59a9" y="140.804746"/>
    </g>
   </g>
   <g id="PathCollection_10">
    <g clip-path="url(#p6617702a38)">
     <use style="fill:#4090c5;stroke:#4090c5;" x="54.595953" xlink:href="#m1db7cfe972" y="158.559851"/>
    </g>
   </g>
   <g id="PathCollection_11">
    <g clip-path="url(#p6617702a38)">
     <use style="fill:#a5cde3;stroke:#a5cde3;" x="105.81864" xlink:href="#m03a3918cfc" y="177.583178"/>
    </g>
   </g>
   <g id="PathCollection_12">
    <g clip-path="url(#p6617702a38)">
     <use style="fill:#82bbdb;stroke:#82bbdb;" x="95.968123" xlink:href="#m0542fd3c23" y="187.728952"/>
    </g>
   </g>
   <g id="PathCollection_13">
    <g clip-path="url(#p6617702a38)">
     <use style="fill:#c3daee;stroke:#c3daee;" x="127.489777" xlink:href="#m9159e75c5c" y="166.169182"/>
    </g>
   </g>
   <g id="PathCollection_14">
    <g clip-path="url(#p6617702a38)">
     <use style="fill:#a5cde3;stroke:#a5cde3;" x="115.669157" xlink:href="#m03a3918cfc" y="163.632738"/>
    </g>
   </g>
   <g id="PathCollection_15">
    <g clip-path="url(#p6617702a38)">
     <use style="fill:#5fa6d1;stroke:#5fa6d1;" x="166.891845" xlink:href="#ma2d2a3d02e" y="206.752279"/>
    </g>
   </g>
   <g id="PathCollection_16">
    <g clip-path="url(#p6617702a38)">
     <use style="fill:#a5cde3;stroke:#a5cde3;" x="123.549571" xlink:href="#m03a3918cfc" y="181.387843"/>
    </g>
   </g>
   <g id="PathCollection_17">
    <g clip-path="url(#p6617702a38)">
     <use style="fill:#5fa6d1;stroke:#5fa6d1;" x="147.190811" xlink:href="#ma2d2a3d02e" y="76.125434"/>
    </g>
   </g>
   <g id="PathCollection_18">
    <g clip-path="url(#p6617702a38)">
     <use style="fill:#82bbdb;stroke:#82bbdb;" x="97.938227" xlink:href="#m0542fd3c23" y="190.265396"/>
    </g>
   </g>
   <g id="PathCollection_19">
    <g clip-path="url(#p6617702a38)">
     <use style="fill:#a5cde3;stroke:#a5cde3;" x="141.280501" xlink:href="#m03a3918cfc" y="158.559851"/>
    </g>
   </g>
   <g id="PathCollection_20">
    <g clip-path="url(#p6617702a38)">
     <use style="fill:#4090c5;stroke:#4090c5;" x="60.506263" xlink:href="#m1db7cfe972" y="135.731858"/>
    </g>
   </g>
   <g id="PathCollection_21">
    <g clip-path="url(#p6617702a38)">
     <use style="fill:#4090c5;stroke:#4090c5;" x="56.566056" xlink:href="#m1db7cfe972" y="192.801839"/>
    </g>
   </g>
   <g id="PathCollection_22">
    <g clip-path="url(#p6617702a38)">
     <use style="fill:#a5cde3;stroke:#a5cde3;" x="105.81864" xlink:href="#m03a3918cfc" y="183.924287"/>
    </g>
   </g>
   <g id="PathCollection_23">
    <g clip-path="url(#p6617702a38)">
     <use style="fill:#c3daee;stroke:#c3daee;" x="129.459881" xlink:href="#m9159e75c5c" y="164.90096"/>
    </g>
   </g>
   <g id="PathCollection_24">
    <g clip-path="url(#p6617702a38)">
     <use style="fill:#5fa6d1;stroke:#5fa6d1;" x="86.117606" xlink:href="#ma2d2a3d02e" y="178.8514"/>
    </g>
   </g>
   <g id="PathCollection_25">
    <g clip-path="url(#p6617702a38)">
     <use style="fill:#a5cde3;stroke:#a5cde3;" x="113.699054" xlink:href="#m03a3918cfc" y="166.169182"/>
    </g>
   </g>
   <g id="PathCollection_26">
    <g clip-path="url(#p6617702a38)">
     <use style="fill:#5fa6d1;stroke:#5fa6d1;" x="80.207296" xlink:href="#ma2d2a3d02e" y="190.265396"/>
    </g>
   </g>
   <g id="PathCollection_27">
    <g clip-path="url(#p6617702a38)">
     <use style="fill:#a5cde3;stroke:#a5cde3;" x="109.758847" xlink:href="#m03a3918cfc" y="154.755185"/>
    </g>
   </g>
   <g id="PathCollection_28">
    <g clip-path="url(#p6617702a38)">
     <use style="fill:#c3daee;stroke:#c3daee;" x="125.519674" xlink:href="#m9159e75c5c" y="162.364516"/>
    </g>
   </g>
   <g id="PathCollection_29">
    <g clip-path="url(#p6617702a38)">
     <use style="fill:#c3daee;stroke:#c3daee;" x="139.310398" xlink:href="#m9159e75c5c" y="128.122528"/>
    </g>
   </g>
   <g id="PathCollection_30">
    <g clip-path="url(#p6617702a38)">
     <use style="fill:#82bbdb;stroke:#82bbdb;" x="107.788744" xlink:href="#m0542fd3c23" y="162.364516"/>
    </g>
   </g>
   <g id="PathCollection_31">
    <g clip-path="url(#p6617702a38)">
     <use style="fill:#5fa6d1;stroke:#5fa6d1;" x="70.35678" xlink:href="#ma2d2a3d02e" y="185.192509"/>
    </g>
   </g>
   <g id="PathCollection_32">
    <g clip-path="url(#p6617702a38)">
     <use style="fill:#5fa6d1;stroke:#5fa6d1;" x="78.237193" xlink:href="#ma2d2a3d02e" y="139.536524"/>
    </g>
   </g>
   <g id="PathCollection_33">
    <g clip-path="url(#p6617702a38)">
     <use style="fill:#4090c5;stroke:#4090c5;" x="54.595953" xlink:href="#m1db7cfe972" y="194.070061"/>
    </g>
   </g>
   <g id="PathCollection_34">
    <g clip-path="url(#p6617702a38)">
     <use style="fill:#a5cde3;stroke:#a5cde3;" x="113.699054" xlink:href="#m03a3918cfc" y="148.414076"/>
    </g>
   </g>
   <g id="PathCollection_35">
    <g clip-path="url(#p6617702a38)">
     <use style="fill:#82bbdb;stroke:#82bbdb;" x="95.968123" xlink:href="#m0542fd3c23" y="138.268302"/>
    </g>
   </g>
   <g id="PathCollection_36">
    <g clip-path="url(#p6617702a38)">
     <use style="fill:#82bbdb;stroke:#82bbdb;" x="82.1774" xlink:href="#m0542fd3c23" y="139.536524"/>
    </g>
   </g>
   <g id="PathCollection_37">
    <defs>
     <path d="M 0 3 
C 0.795609 3 1.55874 2.683901 2.12132 2.12132 
C 2.683901 1.55874 3 0.795609 3 0 
C 3 -0.795609 2.683901 -1.55874 2.12132 -2.12132 
C 1.55874 -2.683901 0.795609 -3 0 -3 
C -0.795609 -3 -1.55874 -2.683901 -2.12132 -2.12132 
C -2.683901 -1.55874 -3 -0.795609 -3 0 
C -3 0.795609 -2.683901 1.55874 -2.12132 2.12132 
C -1.55874 2.683901 -0.795609 3 0 3 
z
" id="mfc2a5a7b0c" style="stroke:#d6e6f4;"/>
    </defs>
    <g clip-path="url(#p6617702a38)">
     <use style="fill:#d6e6f4;stroke:#d6e6f4;" x="141.280501" xlink:href="#mfc2a5a7b0c" y="162.364516"/>
    </g>
   </g>
   <g id="PathCollection_38">
    <g clip-path="url(#p6617702a38)">
     <use style="fill:#a5cde3;stroke:#a5cde3;" x="109.758847" xlink:href="#m03a3918cfc" y="182.656065"/>
    </g>
   </g>
   <g id="PathCollection_39">
    <defs>
     <path d="M 0 3 
C 0.795609 3 1.55874 2.683901 2.12132 2.12132 
C 2.683901 1.55874 3 0.795609 3 0 
C 3 -0.795609 2.683901 -1.55874 2.12132 -2.12132 
C 1.55874 -2.683901 0.795609 -3 0 -3 
C -0.795609 -3 -1.55874 -2.683901 -2.12132 -2.12132 
C -2.683901 -1.55874 -3 -0.795609 -3 0 
C -3 0.795609 -2.683901 1.55874 -2.12132 2.12132 
C -1.55874 2.683901 -0.795609 3 0 3 
z
" id="m008712411c" style="stroke:#2979b9;"/>
    </defs>
    <g clip-path="url(#p6617702a38)">
     <use style="fill:#2979b9;stroke:#2979b9;" x="344.201148" xlink:href="#m008712411c" y="228.31205"/>
    </g>
   </g>
   <g id="PathCollection_40">
    <g clip-path="url(#p6617702a38)">
     <use style="fill:#5fa6d1;stroke:#5fa6d1;" x="84.147503" xlink:href="#ma2d2a3d02e" y="164.90096"/>
    </g>
   </g>
   <g id="PathCollection_41">
    <g clip-path="url(#p6617702a38)">
     <use style="fill:#a5cde3;stroke:#a5cde3;" x="117.63926" xlink:href="#m03a3918cfc" y="164.90096"/>
    </g>
   </g>
   <g id="PathCollection_42">
    <defs>
     <path d="M 0 3 
C 0.795609 3 1.55874 2.683901 2.12132 2.12132 
C 2.683901 1.55874 3 0.795609 3 0 
C 3 -0.795609 2.683901 -1.55874 2.12132 -2.12132 
C 1.55874 -2.683901 0.795609 -3 0 -3 
C -0.795609 -3 -1.55874 -2.683901 -2.12132 -2.12132 
C -2.683901 -1.55874 -3 -0.795609 -3 0 
C -3 0.795609 -2.683901 1.55874 -2.12132 2.12132 
C -1.55874 2.683901 -0.795609 3 0 3 
z
" id="m242b59637a" style="stroke:#1460a8;"/>
    </defs>
    <g clip-path="url(#p6617702a38)">
     <use style="fill:#1460a8;stroke:#1460a8;" x="389.513526" xlink:href="#m242b59637a" y="228.31205"/>
    </g>
   </g>
   <g id="PathCollection_43">
    <g clip-path="url(#p6617702a38)">
     <use style="fill:#a5cde3;stroke:#a5cde3;" x="113.699054" xlink:href="#m03a3918cfc" y="162.364516"/>
    </g>
   </g>
   <g id="PathCollection_44">
    <defs>
     <path d="M 0 3 
C 0.795609 3 1.55874 2.683901 2.12132 2.12132 
C 2.683901 1.55874 3 0.795609 3 0 
C 3 -0.795609 2.683901 -1.55874 2.12132 -2.12132 
C 1.55874 -2.683901 0.795609 -3 0 -3 
C -0.795609 -3 -1.55874 -2.683901 -2.12132 -2.12132 
C -2.683901 -1.55874 -3 -0.795609 -3 0 
C -3 0.795609 -2.683901 1.55874 -2.12132 2.12132 
C -1.55874 2.683901 -0.795609 3 0 3 
z
" id="m1d6000be96" style="stroke:#08488e;"/>
    </defs>
    <g clip-path="url(#p6617702a38)">
     <use style="fill:#08488e;stroke:#08488e;" x="88.08771" xlink:href="#m1d6000be96" y="148.414076"/>
    </g>
   </g>
   <g id="PathCollection_45">
    <g clip-path="url(#p6617702a38)">
     <use style="fill:#a5cde3;stroke:#a5cde3;" x="109.758847" xlink:href="#m03a3918cfc" y="161.096294"/>
    </g>
   </g>
   <g id="PathCollection_46">
    <g clip-path="url(#p6617702a38)">
     <use style="fill:#5fa6d1;stroke:#5fa6d1;" x="86.117606" xlink:href="#ma2d2a3d02e" y="204.215836"/>
    </g>
   </g>
   <g id="PathCollection_47">
    <g clip-path="url(#p6617702a38)">
     <use style="fill:#4090c5;stroke:#4090c5;" x="54.595953" xlink:href="#m1db7cfe972" y="228.31205"/>
    </g>
   </g>
   <g id="PathCollection_48">
    <g clip-path="url(#p6617702a38)">
     <use style="fill:#08488e;stroke:#08488e;" x="28.984609" xlink:href="#m1d6000be96" y="328.501572"/>
    </g>
   </g>
   <g id="PathCollection_49">
    <g clip-path="url(#p6617702a38)">
     <use style="fill:#4090c5;stroke:#4090c5;" x="36.865022" xlink:href="#m1db7cfe972" y="131.927193"/>
    </g>
   </g>
   <g id="PathCollection_50">
    <g clip-path="url(#p6617702a38)">
     <use style="fill:#82bbdb;stroke:#82bbdb;" x="101.878433" xlink:href="#m0542fd3c23" y="124.317862"/>
    </g>
   </g>
   <g id="PathCollection_51">
    <g clip-path="url(#p6617702a38)">
     <use style="fill:#2979b9;stroke:#2979b9;" x="95.968123" xlink:href="#m008712411c" y="17.787231"/>
    </g>
   </g>
   <g id="PathCollection_52">
    <g clip-path="url(#p6617702a38)">
     <use style="fill:#5fa6d1;stroke:#5fa6d1;" x="115.669157" xlink:href="#ma2d2a3d02e" y="64.711438"/>
    </g>
   </g>
   <g id="PathCollection_53">
    <g clip-path="url(#p6617702a38)">
     <use style="fill:#a5cde3;stroke:#a5cde3;" x="125.519674" xlink:href="#m03a3918cfc" y="154.755185"/>
    </g>
   </g>
   <g id="PathCollection_54">
    <g clip-path="url(#p6617702a38)">
     <use style="fill:#a5cde3;stroke:#a5cde3;" x="115.669157" xlink:href="#m03a3918cfc" y="166.169182"/>
    </g>
   </g>
   <g id="PathCollection_55">
    <g clip-path="url(#p6617702a38)">
     <use style="fill:#2979b9;stroke:#2979b9;" x="385.573319" xlink:href="#m008712411c" y="134.463637"/>
    </g>
   </g>
   <g id="PathCollection_56">
    <g clip-path="url(#p6617702a38)">
     <use style="fill:#5fa6d1;stroke:#5fa6d1;" x="68.386676" xlink:href="#ma2d2a3d02e" y="178.8514"/>
    </g>
   </g>
   <g id="PathCollection_57">
    <g clip-path="url(#p6617702a38)">
     <use style="fill:#5fa6d1;stroke:#5fa6d1;" x="64.446469" xlink:href="#ma2d2a3d02e" y="172.510291"/>
    </g>
   </g>
   <g id="PathCollection_58">
    <g clip-path="url(#p6617702a38)">
     <use style="fill:#5fa6d1;stroke:#5fa6d1;" x="48.685642" xlink:href="#ma2d2a3d02e" y="135.731858"/>
    </g>
   </g>
   <g id="PathCollection_59">
    <g clip-path="url(#p6617702a38)">
     <use style="fill:#1460a8;stroke:#1460a8;" x="23.074299" xlink:href="#m242b59637a" y="29.201227"/>
    </g>
   </g>
   <g id="PathCollection_60">
    <g clip-path="url(#p6617702a38)">
     <use style="fill:#5fa6d1;stroke:#5fa6d1;" x="60.506263" xlink:href="#ma2d2a3d02e" y="191.533618"/>
    </g>
   </g>
   <g id="PathCollection_61">
    <g clip-path="url(#p6617702a38)">
     <use style="fill:#5fa6d1;stroke:#5fa6d1;" x="105.81864" xlink:href="#ma2d2a3d02e" y="85.002987"/>
    </g>
   </g>
   <g id="PathCollection_62">
    <g clip-path="url(#p6617702a38)">
     <use style="fill:#a5cde3;stroke:#a5cde3;" x="107.788744" xlink:href="#m03a3918cfc" y="183.924287"/>
    </g>
   </g>
   <g id="PathCollection_63">
    <g clip-path="url(#p6617702a38)">
     <use style="fill:#1460a8;stroke:#1460a8;" x="413.154766" xlink:href="#m242b59637a" y="130.658971"/>
    </g>
   </g>
   <g id="PathCollection_64">
    <g clip-path="url(#p6617702a38)">
     <use style="fill:#82bbdb;stroke:#82bbdb;" x="92.027917" xlink:href="#m0542fd3c23" y="199.142948"/>
    </g>
   </g>
   <g id="PathCollection_65">
    <g clip-path="url(#p6617702a38)">
     <use style="fill:#82bbdb;stroke:#82bbdb;" x="92.027917" xlink:href="#m0542fd3c23" y="197.874727"/>
    </g>
   </g>
   <g id="matplotlib.axis_1">
    <g id="xtick_1">
     <g id="line2d_1">
      <defs>
       <path d="M 0 0 
L 0 3.5 
" id="m500a1a23d5" style="stroke:#000000;stroke-width:0.8;"/>
      </defs>
      <g>
       <use style="stroke:#000000;stroke-width:0.8;" x="25.044402" xlink:href="#m500a1a23d5" y="345.6"/>
      </g>
     </g>
     <g id="text_1">
      <text style="font-family:DejaVu Sans;font-size:10px;font-style:normal;font-weight:normal;text-anchor:middle;" transform="rotate(-0, 25.044402, 360.198437)" x="25.044402" y="360.198437">−0.05</text>
     </g>
    </g>
    <g id="xtick_2">
     <g id="line2d_2">
      <g>
       <use style="stroke:#000000;stroke-width:0.8;" x="123.549571" xlink:href="#m500a1a23d5" y="345.6"/>
      </g>
     </g>
     <g id="text_2">
      <text style="font-family:DejaVu Sans;font-size:10px;font-style:normal;font-weight:normal;text-anchor:middle;" transform="rotate(-0, 123.549571, 360.198437)" x="123.549571" y="360.198437">0.00</text>
     </g>
    </g>
    <g id="xtick_3">
     <g id="line2d_3">
      <g>
       <use style="stroke:#000000;stroke-width:0.8;" x="222.054739" xlink:href="#m500a1a23d5" y="345.6"/>
      </g>
     </g>
     <g id="text_3">
      <text style="font-family:DejaVu Sans;font-size:10px;font-style:normal;font-weight:normal;text-anchor:middle;" transform="rotate(-0, 222.054739, 360.198437)" x="222.054739" y="360.198437">0.05</text>
     </g>
    </g>
    <g id="xtick_4">
     <g id="line2d_4">
      <g>
       <use style="stroke:#000000;stroke-width:0.8;" x="320.559908" xlink:href="#m500a1a23d5" y="345.6"/>
      </g>
     </g>
     <g id="text_4">
      <text style="font-family:DejaVu Sans;font-size:10px;font-style:normal;font-weight:normal;text-anchor:middle;" transform="rotate(-0, 320.559908, 360.198437)" x="320.559908" y="360.198437">0.10</text>
     </g>
    </g>
    <g id="xtick_5">
     <g id="line2d_5">
      <g>
       <use style="stroke:#000000;stroke-width:0.8;" x="419.065076" xlink:href="#m500a1a23d5" y="345.6"/>
      </g>
     </g>
     <g id="text_5">
      <text style="font-family:DejaVu Sans;font-size:10px;font-style:normal;font-weight:normal;text-anchor:middle;" transform="rotate(-0, 419.065076, 360.198437)" x="419.065076" y="360.198437">0.15</text>
     </g>
    </g>
   </g>
   <g id="matplotlib.axis_2">
    <g id="ytick_1">
     <g id="line2d_6">
      <defs>
       <path d="M 0 0 
L -3.5 0 
" id="m8cf08e3bc2" style="stroke:#000000;stroke-width:0.8;"/>
      </defs>
      <g>
       <use style="stroke:#000000;stroke-width:0.8;" x="0" xlink:href="#m8cf08e3bc2" y="286.650252"/>
      </g>
     </g>
     <g id="text_6">
      <text style="font-family:DejaVu Sans;font-size:10px;font-style:normal;font-weight:normal;text-anchor:end;" transform="rotate(-0, -7, 290.449471)" x="-7" y="290.449471">−0.10</text>
     </g>
    </g>
    <g id="ytick_2">
     <g id="line2d_7">
      <g>
       <use style="stroke:#000000;stroke-width:0.8;" x="0" xlink:href="#m8cf08e3bc2" y="223.239163"/>
      </g>
     </g>
     <g id="text_7">
      <text style="font-family:DejaVu Sans;font-size:10px;font-style:normal;font-weight:normal;text-anchor:end;" transform="rotate(-0, -7, 227.038381)" x="-7" y="227.038381">−0.05</text>
     </g>
    </g>
    <g id="ytick_3">
     <g id="line2d_8">
      <g>
       <use style="stroke:#000000;stroke-width:0.8;" x="0" xlink:href="#m8cf08e3bc2" y="159.828073"/>
      </g>
     </g>
     <g id="text_8">
      <text style="font-family:DejaVu Sans;font-size:10px;font-style:normal;font-weight:normal;text-anchor:end;" transform="rotate(-0, -7, 163.627291)" x="-7" y="163.627291">0.00</text>
     </g>
    </g>
    <g id="ytick_4">
     <g id="line2d_9">
      <g>
       <use style="stroke:#000000;stroke-width:0.8;" x="0" xlink:href="#m8cf08e3bc2" y="96.416983"/>
      </g>
     </g>
     <g id="text_9">
      <text style="font-family:DejaVu Sans;font-size:10px;font-style:normal;font-weight:normal;text-anchor:end;" transform="rotate(-0, -7, 100.216201)" x="-7" y="100.216201">0.05</text>
     </g>
    </g>
    <g id="ytick_5">
     <g id="line2d_10">
      <g>
       <use style="stroke:#000000;stroke-width:0.8;" x="0" xlink:href="#m8cf08e3bc2" y="33.005893"/>
      </g>
     </g>
     <g id="text_10">
      <text style="font-family:DejaVu Sans;font-size:10px;font-style:normal;font-weight:normal;text-anchor:end;" transform="rotate(-0, -7, 36.805112)" x="-7" y="36.805112">0.10</text>
     </g>
    </g>
   </g>
   <g id="line2d_11">
    <path clip-path="url(#p6617702a38)" d="M 141.280501 162.364516 
" style="fill:none;stroke:#ff0000;stroke-linecap:square;stroke-width:1.5;"/>
    <defs>
     <path d="M 0 2.5 
C 0.663008 2.5 1.29895 2.236584 1.767767 1.767767 
C 2.236584 1.29895 2.5 0.663008 2.5 0 
C 2.5 -0.663008 2.236584 -1.29895 1.767767 -1.767767 
C 1.29895 -2.236584 0.663008 -2.5 0 -2.5 
C -0.663008 -2.5 -1.29895 -2.236584 -1.767767 -1.767767 
C -2.236584 -1.29895 -2.5 -0.663008 -2.5 0 
C -2.5 0.663008 -2.236584 1.29895 -1.767767 1.767767 
C -1.29895 2.236584 -0.663008 2.5 0 2.5 
z
" id="mf15aeae752" style="stroke:#ff0000;"/>
    </defs>
    <g clip-path="url(#p6617702a38)">
     <use style="fill:#ff0000;stroke:#ff0000;" x="141.280501" xlink:href="#mf15aeae752" y="162.364516"/>
    </g>
   </g>
   <g id="patch_3">
    <path d="M 0 345.6 
L 0 0 
" style="fill:none;stroke:#000000;stroke-linecap:square;stroke-linejoin:miter;stroke-width:0.8;"/>
   </g>
   <g id="patch_4">
    <path d="M 460.8 345.6 
L 460.8 0 
" style="fill:none;stroke:#000000;stroke-linecap:square;stroke-linejoin:miter;stroke-width:0.8;"/>
   </g>
   <g id="patch_5">
    <path d="M -0 345.6 
L 460.8 345.6 
" style="fill:none;stroke:#000000;stroke-linecap:square;stroke-linejoin:miter;stroke-width:0.8;"/>
   </g>
   <g id="patch_6">
    <path d="M -0 0 
L 460.8 0 
" style="fill:none;stroke:#000000;stroke-linecap:square;stroke-linejoin:miter;stroke-width:0.8;"/>
   </g>
   <g id="text_11">
    <text style="fill:#ff0000;font-family:DejaVu Sans;font-size:8px;font-style:normal;font-weight:normal;text-anchor:start;" transform="rotate(-0, 141.280501, 162.364516)" x="141.280501" y="162.364516">_consensus</text>
   </g>
  </g>
  <g id="text_12">
   <text style="font-family:DejaVu Sans;font-size:15px;font-style:normal;font-weight:normal;text-anchor:start;" transform="rotate(-0, 184.32, 34.56)" x="184.32" y="34.56">MDS comp. (index 5 size 71)</text>
  </g>
 </g>
 <defs>
  <clipPath id="p6617702a38">
   <rect height="345.6" width="460.8" x="0" y="0"/>
  </clipPath>
 </defs>
</svg>
