<?xml version="1.0" encoding="utf-8" standalone="no"?>
<!DOCTYPE svg PUBLIC "-//W3C//DTD SVG 1.1//EN"
  "http://www.w3.org/Graphics/SVG/1.1/DTD/svg11.dtd">
<!-- Created with matplotlib (http://matplotlib.org/) -->
<svg height="345.6pt" version="1.1" viewBox="0 0 460.8 345.6" width="460.8pt" xmlns="http://www.w3.org/2000/svg" xmlns:xlink="http://www.w3.org/1999/xlink">
 <defs>
  <style type="text/css">
*{stroke-linecap:butt;stroke-linejoin:round;}
  </style>
 </defs>
 <g id="figure_1">
  <g id="patch_1">
   <path d="M 0 345.6 
L 460.8 345.6 
L 460.8 0 
L 0 0 
z
" style="fill:#ffffff;"/>
  </g>
  <g id="axes_1">
   <g id="patch_2">
    <path d="M 0 345.6 
L 460.8 345.6 
L 460.8 0 
L 0 0 
z
" style="fill:#ffffff;"/>
   </g>
   <g id="PathCollection_1">
    <defs>
     <path d="M 0 3 
C 0.795609 3 1.55874 2.683901 2.12132 2.12132 
C 2.683901 1.55874 3 0.795609 3 0 
C 3 -0.795609 2.683901 -1.55874 2.12132 -2.12132 
C 1.55874 -2.683901 0.795609 -3 0 -3 
C -0.795609 -3 -1.55874 -2.683901 -2.12132 -2.12132 
C -2.683901 -1.55874 -3 -0.795609 -3 0 
C -3 0.795609 -2.683901 1.55874 -2.12132 2.12132 
C -1.55874 2.683901 -0.795609 3 0 3 
z
" id="mffd9c025ce" style="stroke:#1e6db2;"/>
    </defs>
    <g clip-path="url(#p56ebdefd62)">
     <use style="fill:#1e6db2;stroke:#1e6db2;" x="116.552826" xlink:href="#mffd9c025ce" y="59.550824"/>
    </g>
   </g>
   <g id="PathCollection_2">
    <defs>
     <path d="M 0 3 
C 0.795609 3 1.55874 2.683901 2.12132 2.12132 
C 2.683901 1.55874 3 0.795609 3 0 
C 3 -0.795609 2.683901 -1.55874 2.12132 -2.12132 
C 1.55874 -2.683901 0.795609 -3 0 -3 
C -0.795609 -3 -1.55874 -2.683901 -2.12132 -2.12132 
C -2.683901 -1.55874 -3 -0.795609 -3 0 
C -3 0.795609 -2.683901 1.55874 -2.12132 2.12132 
C -1.55874 2.683901 -0.795609 3 0 3 
z
" id="ma70679d304" style="stroke:#2272b6;"/>
    </defs>
    <g clip-path="url(#p56ebdefd62)">
     <use style="fill:#2272b6;stroke:#2272b6;" x="104.789686" xlink:href="#ma70679d304" y="163.87182"/>
    </g>
   </g>
   <g id="PathCollection_3">
    <defs>
     <path d="M 0 3 
C 0.795609 3 1.55874 2.683901 2.12132 2.12132 
C 2.683901 1.55874 3 0.795609 3 0 
C 3 -0.795609 2.683901 -1.55874 2.12132 -2.12132 
C 1.55874 -2.683901 0.795609 -3 0 -3 
C -0.795609 -3 -1.55874 -2.683901 -2.12132 -2.12132 
C -2.683901 -1.55874 -3 -0.795609 -3 0 
C -3 0.795609 -2.683901 1.55874 -2.12132 2.12132 
C -1.55874 2.683901 -0.795609 3 0 3 
z
" id="m246acbaa73" style="stroke:#084b93;"/>
    </defs>
    <g clip-path="url(#p56ebdefd62)">
     <use style="fill:#084b93;stroke:#084b93;" x="34.512465" xlink:href="#m246acbaa73" y="102.253135"/>
    </g>
   </g>
   <g id="PathCollection_4">
    <g clip-path="url(#p56ebdefd62)">
     <use style="fill:#2272b6;stroke:#2272b6;" x="356.641529" xlink:href="#ma70679d304" y="203.952059"/>
    </g>
   </g>
   <g id="PathCollection_5">
    <defs>
     <path d="M 0 3 
C 0.795609 3 1.55874 2.683901 2.12132 2.12132 
C 2.683901 1.55874 3 0.795609 3 0 
C 3 -0.795609 2.683901 -1.55874 2.12132 -2.12132 
C 1.55874 -2.683901 0.795609 -3 0 -3 
C -0.795609 -3 -1.55874 -2.683901 -2.12132 -2.12132 
C -2.683901 -1.55874 -3 -0.795609 -3 0 
C -3 0.795609 -2.683901 1.55874 -2.12132 2.12132 
C -1.55874 2.683901 -0.795609 3 0 3 
z
" id="ma791a28cdd" style="stroke:#0a539e;"/>
    </defs>
    <g clip-path="url(#p56ebdefd62)">
     <use style="fill:#0a539e;stroke:#0a539e;" x="58.038745" xlink:href="#ma791a28cdd" y="126.226362"/>
    </g>
   </g>
   <g id="PathCollection_6">
    <defs>
     <path d="M 0 3 
C 0.795609 3 1.55874 2.683901 2.12132 2.12132 
C 2.683901 1.55874 3 0.795609 3 0 
C 3 -0.795609 2.683901 -1.55874 2.12132 -2.12132 
C 1.55874 -2.683901 0.795609 -3 0 -3 
C -0.795609 -3 -1.55874 -2.683901 -2.12132 -2.12132 
C -2.683901 -1.55874 -3 -0.795609 -3 0 
C -3 0.795609 -2.683901 1.55874 -2.12132 2.12132 
C -1.55874 2.683901 -0.795609 3 0 3 
z
" id="m304b0724b6" style="stroke:#529dcc;"/>
    </defs>
    <g clip-path="url(#p56ebdefd62)">
     <use style="fill:#529dcc;stroke:#529dcc;" x="143.396915" xlink:href="#m304b0724b6" y="173.610943"/>
    </g>
   </g>
   <g id="PathCollection_7">
    <defs>
     <path d="M 0 3 
C 0.795609 3 1.55874 2.683901 2.12132 2.12132 
C 2.683901 1.55874 3 0.795609 3 0 
C 3 -0.795609 2.683901 -1.55874 2.12132 -2.12132 
C 1.55874 -2.683901 0.795609 -3 0 -3 
C -0.795609 -3 -1.55874 -2.683901 -2.12132 -2.12132 
C -2.683901 -1.55874 -3 -0.795609 -3 0 
C -3 0.795609 -2.683901 1.55874 -2.12132 2.12132 
C -1.55874 2.683901 -0.795609 3 0 3 
z
" id="m2cc110d323" style="stroke:#3080bd;"/>
    </defs>
    <g clip-path="url(#p56ebdefd62)">
     <use style="fill:#3080bd;stroke:#3080bd;" x="182.004143" xlink:href="#m2cc110d323" y="190.65441"/>
    </g>
   </g>
   <g id="PathCollection_8">
    <defs>
     <path d="M 0 3 
C 0.795609 3 1.55874 2.683901 2.12132 2.12132 
C 2.683901 1.55874 3 0.795609 3 0 
C 3 -0.795609 2.683901 -1.55874 2.12132 -2.12132 
C 1.55874 -2.683901 0.795609 -3 0 -3 
C -0.795609 -3 -1.55874 -2.683901 -2.12132 -2.12132 
C -2.683901 -1.55874 -3 -0.795609 -3 0 
C -3 0.795609 -2.683901 1.55874 -2.12132 2.12132 
C -1.55874 2.683901 -0.795609 3 0 3 
z
" id="me893467c5b" style="stroke:#0e58a2;"/>
    </defs>
    <g clip-path="url(#p56ebdefd62)">
     <use style="fill:#0e58a2;stroke:#0e58a2;" x="113.235017" xlink:href="#me893467c5b" y="128.473852"/>
    </g>
   </g>
   <g id="PathCollection_9">
    <defs>
     <path d="M 0 3 
C 0.795609 3 1.55874 2.683901 2.12132 2.12132 
C 2.683901 1.55874 3 0.795609 3 0 
C 3 -0.795609 2.683901 -1.55874 2.12132 -2.12132 
C 1.55874 -2.683901 0.795609 -3 0 -3 
C -0.795609 -3 -1.55874 -2.683901 -2.12132 -2.12132 
C -2.683901 -1.55874 -3 -0.795609 -3 0 
C -3 0.795609 -2.683901 1.55874 -2.12132 2.12132 
C -1.55874 2.683901 -0.795609 3 0 3 
z
" id="m51c2a12e16" style="stroke:#1b69af;"/>
    </defs>
    <g clip-path="url(#p56ebdefd62)">
     <use style="fill:#1b69af;stroke:#1b69af;" x="278.823834" xlink:href="#m51c2a12e16" y="206.948712"/>
    </g>
   </g>
   <g id="PathCollection_10">
    <defs>
     <path d="M 0 3 
C 0.795609 3 1.55874 2.683901 2.12132 2.12132 
C 2.683901 1.55874 3 0.795609 3 0 
C 3 -0.795609 2.683901 -1.55874 2.12132 -2.12132 
C 1.55874 -2.683901 0.795609 -3 0 -3 
C -0.795609 -3 -1.55874 -2.683901 -2.12132 -2.12132 
C -2.683901 -1.55874 -3 -0.795609 -3 0 
C -3 0.795609 -2.683901 1.55874 -2.12132 2.12132 
C -1.55874 2.683901 -0.795609 3 0 3 
z
" id="m2a3662b4eb" style="stroke:#1460a8;"/>
    </defs>
    <g clip-path="url(#p56ebdefd62)">
     <use style="fill:#1460a8;stroke:#1460a8;" x="196.481854" xlink:href="#m2a3662b4eb" y="53.182936"/>
    </g>
   </g>
   <g id="PathCollection_11">
    <defs>
     <path d="M 0 3 
C 0.795609 3 1.55874 2.683901 2.12132 2.12132 
C 2.683901 1.55874 3 0.795609 3 0 
C 3 -0.795609 2.683901 -1.55874 2.12132 -2.12132 
C 1.55874 -2.683901 0.795609 -3 0 -3 
C -0.795609 -3 -1.55874 -2.683901 -2.12132 -2.12132 
C -2.683901 -1.55874 -3 -0.795609 -3 0 
C -3 0.795609 -2.683901 1.55874 -2.12132 2.12132 
C -1.55874 2.683901 -0.795609 3 0 3 
z
" id="m5526224320" style="stroke:#4191c6;"/>
    </defs>
    <g clip-path="url(#p56ebdefd62)">
     <use style="fill:#4191c6;stroke:#4191c6;" x="161.192434" xlink:href="#m5526224320" y="180.727995"/>
    </g>
   </g>
   <g id="PathCollection_12">
    <g clip-path="url(#p56ebdefd62)">
     <use style="fill:#1460a8;stroke:#1460a8;" x="174.16205" xlink:href="#m2a3662b4eb" y="303.778075"/>
    </g>
   </g>
   <g id="PathCollection_13">
    <g clip-path="url(#p56ebdefd62)">
     <use style="fill:#1e6db2;stroke:#1e6db2;" x="143.396915" xlink:href="#mffd9c025ce" y="250.962059"/>
    </g>
   </g>
   <g id="PathCollection_14">
    <defs>
     <path d="M 0 3 
C 0.795609 3 1.55874 2.683901 2.12132 2.12132 
C 2.683901 1.55874 3 0.795609 3 0 
C 3 -0.795609 2.683901 -1.55874 2.12132 -2.12132 
C 1.55874 -2.683901 0.795609 -3 0 -3 
C -0.795609 -3 -1.55874 -2.683901 -2.12132 -2.12132 
C -2.683901 -1.55874 -3 -0.795609 -3 0 
C -3 0.795609 -2.683901 1.55874 -2.12132 2.12132 
C -1.55874 2.683901 -0.795609 3 0 3 
z
" id="mebd5d51043" style="stroke:#58a1cf;"/>
    </defs>
    <g clip-path="url(#p56ebdefd62)">
     <use style="fill:#58a1cf;stroke:#58a1cf;" x="193.767283" xlink:href="#mebd5d51043" y="182.600904"/>
    </g>
   </g>
   <g id="PathCollection_15">
    <defs>
     <path d="M 0 3 
C 0.795609 3 1.55874 2.683901 2.12132 2.12132 
C 2.683901 1.55874 3 0.795609 3 0 
C 3 -0.795609 2.683901 -1.55874 2.12132 -2.12132 
C 1.55874 -2.683901 0.795609 -3 0 -3 
C -0.795609 -3 -1.55874 -2.683901 -2.12132 -2.12132 
C -2.683901 -1.55874 -3 -0.795609 -3 0 
C -3 0.795609 -2.683901 1.55874 -2.12132 2.12132 
C -1.55874 2.683901 -0.795609 3 0 3 
z
" id="m525c11c5d7" style="stroke:#115ca5;"/>
    </defs>
    <g clip-path="url(#p56ebdefd62)">
     <use style="fill:#115ca5;stroke:#115ca5;" x="118.060921" xlink:href="#m525c11c5d7" y="148.888553"/>
    </g>
   </g>
   <g id="PathCollection_16">
    <defs>
     <path d="M 0 3 
C 0.795609 3 1.55874 2.683901 2.12132 2.12132 
C 2.683901 1.55874 3 0.795609 3 0 
C 3 -0.795609 2.683901 -1.55874 2.12132 -2.12132 
C 1.55874 -2.683901 0.795609 -3 0 -3 
C -0.795609 -3 -1.55874 -2.683901 -2.12132 -2.12132 
C -2.683901 -1.55874 -3 -0.795609 -3 0 
C -3 0.795609 -2.683901 1.55874 -2.12132 2.12132 
C -1.55874 2.683901 -0.795609 3 0 3 
z
" id="m37339d2ca4" style="stroke:#084285;"/>
    </defs>
    <g clip-path="url(#p56ebdefd62)">
     <use style="fill:#084285;stroke:#084285;" x="90.613594" xlink:href="#m37339d2ca4" y="210.694529"/>
    </g>
   </g>
   <g id="PathCollection_17">
    <g clip-path="url(#p56ebdefd62)">
     <use style="fill:#529dcc;stroke:#529dcc;" x="242.931176" xlink:href="#m304b0724b6" y="181.477159"/>
    </g>
   </g>
   <g id="PathCollection_18">
    <defs>
     <path d="M 0 3 
C 0.795609 3 1.55874 2.683901 2.12132 2.12132 
C 2.683901 1.55874 3 0.795609 3 0 
C 3 -0.795609 2.683901 -1.55874 2.12132 -2.12132 
C 1.55874 -2.683901 0.795609 -3 0 -3 
C -0.795609 -3 -1.55874 -2.683901 -2.12132 -2.12132 
C -2.683901 -1.55874 -3 -0.795609 -3 0 
C -3 0.795609 -2.683901 1.55874 -2.12132 2.12132 
C -1.55874 2.683901 -0.795609 3 0 3 
z
" id="m0291f78948" style="stroke:#2676b8;"/>
    </defs>
    <g clip-path="url(#p56ebdefd62)">
     <use style="fill:#2676b8;stroke:#2676b8;" x="221.21461" xlink:href="#m0291f78948" y="182.413613"/>
    </g>
   </g>
   <g id="PathCollection_19">
    <defs>
     <path d="M 0 3 
C 0.795609 3 1.55874 2.683901 2.12132 2.12132 
C 2.683901 1.55874 3 0.795609 3 0 
C 3 -0.795609 2.683901 -1.55874 2.12132 -2.12132 
C 1.55874 -2.683901 0.795609 -3 0 -3 
C -0.795609 -3 -1.55874 -2.683901 -2.12132 -2.12132 
C -2.683901 -1.55874 -3 -0.795609 -3 0 
C -3 0.795609 -2.683901 1.55874 -2.12132 2.12132 
C -1.55874 2.683901 -0.795609 3 0 3 
z
" id="m04089e4c95" style="stroke:#2c7cba;"/>
    </defs>
    <g clip-path="url(#p56ebdefd62)">
     <use style="fill:#2c7cba;stroke:#2c7cba;" x="146.111485" xlink:href="#m04089e4c95" y="171.738035"/>
    </g>
   </g>
   <g id="PathCollection_20">
    <defs>
     <path d="M 0 3 
C 0.795609 3 1.55874 2.683901 2.12132 2.12132 
C 2.683901 1.55874 3 0.795609 3 0 
C 3 -0.795609 2.683901 -1.55874 2.12132 -2.12132 
C 1.55874 -2.683901 0.795609 -3 0 -3 
C -0.795609 -3 -1.55874 -2.683901 -2.12132 -2.12132 
C -2.683901 -1.55874 -3 -0.795609 -3 0 
C -3 0.795609 -2.683901 1.55874 -2.12132 2.12132 
C -1.55874 2.683901 -0.795609 3 0 3 
z
" id="m98fbf10542" style="stroke:#1865ac;"/>
    </defs>
    <g clip-path="url(#p56ebdefd62)">
     <use style="fill:#1865ac;stroke:#1865ac;" x="105.996162" xlink:href="#m98fbf10542" y="164.433692"/>
    </g>
   </g>
   <g id="PathCollection_21">
    <g clip-path="url(#p56ebdefd62)">
     <use style="fill:#2272b6;stroke:#2272b6;" x="258.615363" xlink:href="#ma70679d304" y="209.196202"/>
    </g>
   </g>
   <g id="PathCollection_22">
    <g clip-path="url(#p56ebdefd62)">
     <use style="fill:#529dcc;stroke:#529dcc;" x="157.874625" xlink:href="#m304b0724b6" y="237.102537"/>
    </g>
   </g>
   <g id="PathCollection_23">
    <g clip-path="url(#p56ebdefd62)">
     <use style="fill:#2676b8;stroke:#2676b8;" x="419.076657" xlink:href="#m0291f78948" y="193.463772"/>
    </g>
   </g>
   <g id="PathCollection_24">
    <g clip-path="url(#p56ebdefd62)">
     <use style="fill:#1460a8;stroke:#1460a8;" x="83.977977" xlink:href="#m2a3662b4eb" y="296.848314"/>
    </g>
   </g>
   <g id="PathCollection_25">
    <g clip-path="url(#p56ebdefd62)">
     <use style="fill:#3080bd;stroke:#3080bd;" x="122.585205" xlink:href="#m2cc110d323" y="174.921979"/>
    </g>
   </g>
   <g id="PathCollection_26">
    <g clip-path="url(#p56ebdefd62)">
     <use style="fill:#2c7cba;stroke:#2c7cba;" x="263.742885" xlink:href="#m04089e4c95" y="181.477159"/>
    </g>
   </g>
   <g id="PathCollection_27">
    <g clip-path="url(#p56ebdefd62)">
     <use style="fill:#0a539e;stroke:#0a539e;" x="145.508247" xlink:href="#ma791a28cdd" y="311.64429"/>
    </g>
   </g>
   <g id="PathCollection_28">
    <g clip-path="url(#p56ebdefd62)">
     <use style="fill:#0e58a2;stroke:#0e58a2;" x="112.028541" xlink:href="#me893467c5b" y="156.567477"/>
    </g>
   </g>
   <g id="PathCollection_29">
    <g clip-path="url(#p56ebdefd62)">
     <use style="fill:#0e58a2;stroke:#0e58a2;" x="48.688557" xlink:href="#me893467c5b" y="26.774928"/>
    </g>
   </g>
   <g id="PathCollection_30">
    <g clip-path="url(#p56ebdefd62)">
     <use style="fill:#1b69af;stroke:#1b69af;" x="362.975528" xlink:href="#m51c2a12e16" y="210.694529"/>
    </g>
   </g>
   <g id="PathCollection_31">
    <defs>
     <path d="M 0 3 
C 0.795609 3 1.55874 2.683901 2.12132 2.12132 
C 2.683901 1.55874 3 0.795609 3 0 
C 3 -0.795609 2.683901 -1.55874 2.12132 -2.12132 
C 1.55874 -2.683901 0.795609 -3 0 -3 
C -0.795609 -3 -1.55874 -2.683901 -2.12132 -2.12132 
C -2.683901 -1.55874 -3 -0.795609 -3 0 
C -3 0.795609 -2.683901 1.55874 -2.12132 2.12132 
C -1.55874 2.683901 -0.795609 3 0 3 
z
" id="mdc464bc97f" style="stroke:#083877;"/>
    </defs>
    <g clip-path="url(#p56ebdefd62)">
     <use style="fill:#083877;stroke:#083877;" x="56.53065" xlink:href="#mdc464bc97f" y="197.771461"/>
    </g>
   </g>
   <g id="PathCollection_32">
    <g clip-path="url(#p56ebdefd62)">
     <use style="fill:#115ca5;stroke:#115ca5;" x="298.429067" xlink:href="#m525c11c5d7" y="174.921979"/>
    </g>
   </g>
   <g id="PathCollection_33">
    <g clip-path="url(#p56ebdefd62)">
     <use style="fill:#2c7cba;stroke:#2c7cba;" x="209.45147" xlink:href="#m04089e4c95" y="164.995565"/>
    </g>
   </g>
   <g id="PathCollection_34">
    <g clip-path="url(#p56ebdefd62)">
     <use style="fill:#2272b6;stroke:#2272b6;" x="435.364081" xlink:href="#ma70679d304" y="205.824967"/>
    </g>
   </g>
   <g id="PathCollection_35">
    <g clip-path="url(#p56ebdefd62)">
     <use style="fill:#1460a8;stroke:#1460a8;" x="273.696311" xlink:href="#m2a3662b4eb" y="224.36676"/>
    </g>
   </g>
   <g id="PathCollection_36">
    <g clip-path="url(#p56ebdefd62)">
     <use style="fill:#2c7cba;stroke:#2c7cba;" x="182.909" xlink:href="#m04089e4c95" y="180.353414"/>
    </g>
   </g>
   <g id="PathCollection_37">
    <defs>
     <path d="M 0 3 
C 0.795609 3 1.55874 2.683901 2.12132 2.12132 
C 2.683901 1.55874 3 0.795609 3 0 
C 3 -0.795609 2.683901 -1.55874 2.12132 -2.12132 
C 1.55874 -2.683901 0.795609 -3 0 -3 
C -0.795609 -3 -1.55874 -2.683901 -2.12132 -2.12132 
C -2.683901 -1.55874 -3 -0.795609 -3 0 
C -3 0.795609 -2.683901 1.55874 -2.12132 2.12132 
C -1.55874 2.683901 -0.795609 3 0 3 
z
" id="m402bea4fd2" style="stroke:#08468b;"/>
    </defs>
    <g clip-path="url(#p56ebdefd62)">
     <use style="fill:#08468b;stroke:#08468b;" x="86.994166" xlink:href="#m402bea4fd2" y="252.647676"/>
    </g>
   </g>
   <g id="PathCollection_38">
    <g clip-path="url(#p56ebdefd62)">
     <use style="fill:#1460a8;stroke:#1460a8;" x="320.748871" xlink:href="#m2a3662b4eb" y="164.059111"/>
    </g>
   </g>
   <g id="PathCollection_39">
    <g clip-path="url(#p56ebdefd62)">
     <use style="fill:#2272b6;stroke:#2272b6;" x="216.388706" xlink:href="#ma70679d304" y="236.353374"/>
    </g>
   </g>
   <g id="PathCollection_40">
    <g clip-path="url(#p56ebdefd62)">
     <use style="fill:#1460a8;stroke:#1460a8;" x="252.281364" xlink:href="#m2a3662b4eb" y="225.115923"/>
    </g>
   </g>
   <g id="PathCollection_41">
    <g clip-path="url(#p56ebdefd62)">
     <use style="fill:#2272b6;stroke:#2272b6;" x="437.777033" xlink:href="#ma70679d304" y="208.447039"/>
    </g>
   </g>
   <g id="PathCollection_42">
    <g clip-path="url(#p56ebdefd62)">
     <use style="fill:#1460a8;stroke:#1460a8;" x="78.247216" xlink:href="#m2a3662b4eb" y="191.216282"/>
    </g>
   </g>
   <g id="PathCollection_43">
    <g clip-path="url(#p56ebdefd62)">
     <use style="fill:#08468b;stroke:#08468b;" x="236.295559" xlink:href="#m402bea4fd2" y="201.89186"/>
    </g>
   </g>
   <g id="PathCollection_44">
    <g clip-path="url(#p56ebdefd62)">
     <use style="fill:#3080bd;stroke:#3080bd;" x="158.779482" xlink:href="#m2cc110d323" y="255.64433"/>
    </g>
   </g>
   <g id="PathCollection_45">
    <g clip-path="url(#p56ebdefd62)">
     <use style="fill:#2c7cba;stroke:#2c7cba;" x="170.241003" xlink:href="#m04089e4c95" y="142.520665"/>
    </g>
   </g>
   <g id="PathCollection_46">
    <g clip-path="url(#p56ebdefd62)">
     <use style="fill:#1e6db2;stroke:#1e6db2;" x="154.255198" xlink:href="#mffd9c025ce" y="139.711302"/>
    </g>
   </g>
   <g id="PathCollection_47">
    <defs>
     <path d="M 0 3 
C 0.795609 3 1.55874 2.683901 2.12132 2.12132 
C 2.683901 1.55874 3 0.795609 3 0 
C 3 -0.795609 2.683901 -1.55874 2.12132 -2.12132 
C 1.55874 -2.683901 0.795609 -3 0 -3 
C -0.795609 -3 -1.55874 -2.683901 -2.12132 -2.12132 
C -2.683901 -1.55874 -3 -0.795609 -3 0 
C -3 0.795609 -2.683901 1.55874 -2.12132 2.12132 
C -1.55874 2.683901 -0.795609 3 0 3 
z
" id="m8609c7595b" style="stroke:#3484bf;"/>
    </defs>
    <g clip-path="url(#p56ebdefd62)">
     <use style="fill:#3484bf;stroke:#3484bf;" x="356.038291" xlink:href="#m8609c7595b" y="208.259748"/>
    </g>
   </g>
   <g id="PathCollection_48">
    <g clip-path="url(#p56ebdefd62)">
     <use style="fill:#1e6db2;stroke:#1e6db2;" x="54.419317" xlink:href="#mffd9c025ce" y="324.941939"/>
    </g>
   </g>
   <g id="PathCollection_49">
    <g clip-path="url(#p56ebdefd62)">
     <use style="fill:#1865ac;stroke:#1865ac;" x="137.666154" xlink:href="#m98fbf10542" y="154.694569"/>
    </g>
   </g>
   <g id="PathCollection_50">
    <defs>
     <path d="M 0 3 
C 0.795609 3 1.55874 2.683901 2.12132 2.12132 
C 2.683901 1.55874 3 0.795609 3 0 
C 3 -0.795609 2.683901 -1.55874 2.12132 -2.12132 
C 1.55874 -2.683901 0.795609 -3 0 -3 
C -0.795609 -3 -1.55874 -2.683901 -2.12132 -2.12132 
C -2.683901 -1.55874 -3 -0.795609 -3 0 
C -3 0.795609 -2.683901 1.55874 -2.12132 2.12132 
C -1.55874 2.683901 -0.795609 3 0 3 
z
" id="m813d1e65b2" style="stroke:#d6e6f4;"/>
    </defs>
    <g clip-path="url(#p56ebdefd62)">
     <use style="fill:#d6e6f4;stroke:#d6e6f4;" x="171.749098" xlink:href="#m813d1e65b2" y="198.146043"/>
    </g>
   </g>
   <g id="PathCollection_51">
    <g clip-path="url(#p56ebdefd62)">
     <use style="fill:#2676b8;stroke:#2676b8;" x="250.47165" xlink:href="#m0291f78948" y="242.721262"/>
    </g>
   </g>
   <g id="PathCollection_52">
    <g clip-path="url(#p56ebdefd62)">
     <use style="fill:#1b69af;stroke:#1b69af;" x="96.645974" xlink:href="#m51c2a12e16" y="153.570824"/>
    </g>
   </g>
   <g id="PathCollection_53">
    <g clip-path="url(#p56ebdefd62)">
     <use style="fill:#1e6db2;stroke:#1e6db2;" x="331.908773" xlink:href="#mffd9c025ce" y="141.958792"/>
    </g>
   </g>
   <g id="PathCollection_54">
    <g clip-path="url(#p56ebdefd62)">
     <use style="fill:#1b69af;stroke:#1b69af;" x="84.279596" xlink:href="#m51c2a12e16" y="171.925326"/>
    </g>
   </g>
   <g id="PathCollection_55">
    <g clip-path="url(#p56ebdefd62)">
     <use style="fill:#3484bf;stroke:#3484bf;" x="33.607608" xlink:href="#m8609c7595b" y="285.985445"/>
    </g>
   </g>
   <g id="PathCollection_56">
    <g clip-path="url(#p56ebdefd62)">
     <use style="fill:#3080bd;stroke:#3080bd;" x="160.589196" xlink:href="#m2cc110d323" y="173.985525"/>
    </g>
   </g>
   <g id="PathCollection_57">
    <defs>
     <path d="M 0 3 
C 0.795609 3 1.55874 2.683901 2.12132 2.12132 
C 2.683901 1.55874 3 0.795609 3 0 
C 3 -0.795609 2.683901 -1.55874 2.12132 -2.12132 
C 1.55874 -2.683901 0.795609 -3 0 -3 
C -0.795609 -3 -1.55874 -2.683901 -2.12132 -2.12132 
C -2.683901 -1.55874 -3 -0.795609 -3 0 
C -3 0.795609 -2.683901 1.55874 -2.12132 2.12132 
C -1.55874 2.683901 -0.795609 3 0 3 
z
" id="m695f43d2a5" style="stroke:#084f99;"/>
    </defs>
    <g clip-path="url(#p56ebdefd62)">
     <use style="fill:#084f99;stroke:#084f99;" x="235.089083" xlink:href="#m695f43d2a5" y="187.283175"/>
    </g>
   </g>
   <g id="PathCollection_58">
    <g clip-path="url(#p56ebdefd62)">
     <use style="fill:#3484bf;stroke:#3484bf;" x="216.690325" xlink:href="#m8609c7595b" y="177.731342"/>
    </g>
   </g>
   <g id="PathCollection_59">
    <g clip-path="url(#p56ebdefd62)">
     <use style="fill:#115ca5;stroke:#115ca5;" x="42.957796" xlink:href="#m525c11c5d7" y="309.771381"/>
    </g>
   </g>
   <g id="PathCollection_60">
    <g clip-path="url(#p56ebdefd62)">
     <use style="fill:#2676b8;stroke:#2676b8;" x="121.378729" xlink:href="#m0291f78948" y="173.985525"/>
    </g>
   </g>
   <g id="PathCollection_61">
    <g clip-path="url(#p56ebdefd62)">
     <use style="fill:#0a539e;stroke:#0a539e;" x="256.50403" xlink:href="#ma791a28cdd" y="175.10927"/>
    </g>
   </g>
   <g id="PathCollection_62">
    <g clip-path="url(#p56ebdefd62)">
     <use style="fill:#3484bf;stroke:#3484bf;" x="92.121689" xlink:href="#m8609c7595b" y="196.647716"/>
    </g>
   </g>
   <g id="PathCollection_63">
    <g clip-path="url(#p56ebdefd62)">
     <use style="fill:#3080bd;stroke:#3080bd;" x="420.886371" xlink:href="#m2cc110d323" y="206.012258"/>
    </g>
   </g>
   <g id="PathCollection_64">
    <g clip-path="url(#p56ebdefd62)">
     <use style="fill:#1460a8;stroke:#1460a8;" x="44.164272" xlink:href="#m2a3662b4eb" y="171.176163"/>
    </g>
   </g>
   <g id="PathCollection_65">
    <g clip-path="url(#p56ebdefd62)">
     <use style="fill:#115ca5;stroke:#115ca5;" x="273.093073" xlink:href="#m525c11c5d7" y="160.313294"/>
    </g>
   </g>
   <g id="PathCollection_66">
    <g clip-path="url(#p56ebdefd62)">
     <use style="fill:#1460a8;stroke:#1460a8;" x="211.261184" xlink:href="#m2a3662b4eb" y="222.306561"/>
    </g>
   </g>
   <g id="PathCollection_67">
    <g clip-path="url(#p56ebdefd62)">
     <use style="fill:#115ca5;stroke:#115ca5;" x="90.613594" xlink:href="#m525c11c5d7" y="123.416999"/>
    </g>
   </g>
   <g id="PathCollection_68">
    <g clip-path="url(#p56ebdefd62)">
     <use style="fill:#0a539e;stroke:#0a539e;" x="270.981741" xlink:href="#ma791a28cdd" y="177.35676"/>
    </g>
   </g>
   <g id="PathCollection_69">
    <g clip-path="url(#p56ebdefd62)">
     <use style="fill:#2272b6;stroke:#2272b6;" x="329.194203" xlink:href="#ma70679d304" y="182.975485"/>
    </g>
   </g>
   <g id="PathCollection_70">
    <g clip-path="url(#p56ebdefd62)">
     <use style="fill:#1865ac;stroke:#1865ac;" x="145.206628" xlink:href="#m98fbf10542" y="187.845047"/>
    </g>
   </g>
   <g id="PathCollection_71">
    <g clip-path="url(#p56ebdefd62)">
     <use style="fill:#2c7cba;stroke:#2c7cba;" x="23.050944" xlink:href="#m04089e4c95" y="284.487119"/>
    </g>
   </g>
   <g id="PathCollection_72">
    <g clip-path="url(#p56ebdefd62)">
     <use style="fill:#2272b6;stroke:#2272b6;" x="206.43528" xlink:href="#ma70679d304" y="107.122697"/>
    </g>
   </g>
   <g id="PathCollection_73">
    <defs>
     <path d="M 0 3 
C 0.795609 3 1.55874 2.683901 2.12132 2.12132 
C 2.683901 1.55874 3 0.795609 3 0 
C 3 -0.795609 2.683901 -1.55874 2.12132 -2.12132 
C 1.55874 -2.683901 0.795609 -3 0 -3 
C -0.795609 -3 -1.55874 -2.683901 -2.12132 -2.12132 
C -2.683901 -1.55874 -3 -0.795609 -3 0 
C -3 0.795609 -2.683901 1.55874 -2.12132 2.12132 
C -1.55874 2.683901 -0.795609 3 0 3 
z
" id="m5885a1999a" style="stroke:#083d7f;"/>
    </defs>
    <g clip-path="url(#p56ebdefd62)">
     <use style="fill:#083d7f;stroke:#083d7f;" x="69.198647" xlink:href="#m5885a1999a" y="219.122617"/>
    </g>
   </g>
   <g id="PathCollection_74">
    <defs>
     <path d="M 0 3 
C 0.795609 3 1.55874 2.683901 2.12132 2.12132 
C 2.683901 1.55874 3 0.795609 3 0 
C 3 -0.795609 2.683901 -1.55874 2.12132 -2.12132 
C 1.55874 -2.683901 0.795609 -3 0 -3 
C -0.795609 -3 -1.55874 -2.683901 -2.12132 -2.12132 
C -2.683901 -1.55874 -3 -0.795609 -3 0 
C -3 0.795609 -2.683901 1.55874 -2.12132 2.12132 
C -1.55874 2.683901 -0.795609 3 0 3 
z
" id="m843215d042" style="stroke:#08306b;"/>
    </defs>
    <g clip-path="url(#p56ebdefd62)">
     <use style="fill:#08306b;stroke:#08306b;" x="169.336146" xlink:href="#m843215d042" y="204.888513"/>
    </g>
   </g>
   <g id="PathCollection_75">
    <defs>
     <path d="M 0 3 
C 0.795609 3 1.55874 2.683901 2.12132 2.12132 
C 2.683901 1.55874 3 0.795609 3 0 
C 3 -0.795609 2.683901 -1.55874 2.12132 -2.12132 
C 1.55874 -2.683901 0.795609 -3 0 -3 
C -0.795609 -3 -1.55874 -2.683901 -2.12132 -2.12132 
C -2.683901 -1.55874 -3 -0.795609 -3 0 
C -3 0.795609 -2.683901 1.55874 -2.12132 2.12132 
C -1.55874 2.683901 -0.795609 3 0 3 
z
" id="m352b52c6b1" style="stroke:#4896c8;"/>
    </defs>
    <g clip-path="url(#p56ebdefd62)">
     <use style="fill:#4896c8;stroke:#4896c8;" x="266.759075" xlink:href="#m352b52c6b1" y="230.172776"/>
    </g>
   </g>
   <g id="PathCollection_76">
    <g clip-path="url(#p56ebdefd62)">
     <use style="fill:#1865ac;stroke:#1865ac;" x="139.777487" xlink:href="#m98fbf10542" y="61.985605"/>
    </g>
   </g>
   <g id="PathCollection_77">
    <g clip-path="url(#p56ebdefd62)">
     <use style="fill:#2c7cba;stroke:#2c7cba;" x="121.981967" xlink:href="#m04089e4c95" y="162.935366"/>
    </g>
   </g>
   <g id="PathCollection_78">
    <g clip-path="url(#p56ebdefd62)">
     <use style="fill:#1e6db2;stroke:#1e6db2;" x="239.010129" xlink:href="#mffd9c025ce" y="182.413613"/>
    </g>
   </g>
   <g id="PathCollection_79">
    <g clip-path="url(#p56ebdefd62)">
     <use style="fill:#3484bf;stroke:#3484bf;" x="180.496048" xlink:href="#m8609c7595b" y="169.490545"/>
    </g>
   </g>
   <g id="PathCollection_80">
    <g clip-path="url(#p56ebdefd62)">
     <use style="fill:#3484bf;stroke:#3484bf;" x="214.277373" xlink:href="#m8609c7595b" y="214.627637"/>
    </g>
   </g>
   <g id="PathCollection_81">
    <g clip-path="url(#p56ebdefd62)">
     <use style="fill:#2272b6;stroke:#2272b6;" x="181.702524" xlink:href="#ma70679d304" y="203.390186"/>
    </g>
   </g>
   <g id="PathCollection_82">
    <g clip-path="url(#p56ebdefd62)">
     <use style="fill:#1e6db2;stroke:#1e6db2;" x="84.882834" xlink:href="#mffd9c025ce" y="197.209589"/>
    </g>
   </g>
   <g id="PathCollection_83">
    <defs>
     <path d="M 0 3 
C 0.795609 3 1.55874 2.683901 2.12132 2.12132 
C 2.683901 1.55874 3 0.795609 3 0 
C 3 -0.795609 2.683901 -1.55874 2.12132 -2.12132 
C 1.55874 -2.683901 0.795609 -3 0 -3 
C -0.795609 -3 -1.55874 -2.683901 -2.12132 -2.12132 
C -2.683901 -1.55874 -3 -0.795609 -3 0 
C -3 0.795609 -2.683901 1.55874 -2.12132 2.12132 
C -1.55874 2.683901 -0.795609 3 0 3 
z
" id="ma8d147a073" style="stroke:#3989c1;"/>
    </defs>
    <g clip-path="url(#p56ebdefd62)">
     <use style="fill:#3989c1;stroke:#3989c1;" x="285.157832" xlink:href="#ma8d147a073" y="214.440346"/>
    </g>
   </g>
   <g id="PathCollection_84">
    <g clip-path="url(#p56ebdefd62)">
     <use style="fill:#0e58a2;stroke:#0e58a2;" x="93.026546" xlink:href="#me893467c5b" y="191.028991"/>
    </g>
   </g>
   <g id="PathCollection_85">
    <g clip-path="url(#p56ebdefd62)">
     <use style="fill:#3080bd;stroke:#3080bd;" x="194.67214" xlink:href="#m2cc110d323" y="148.513971"/>
    </g>
   </g>
   <g id="PathCollection_86">
    <g clip-path="url(#p56ebdefd62)">
     <use style="fill:#2c7cba;stroke:#2c7cba;" x="190.449474" xlink:href="#m04089e4c95" y="200.955406"/>
    </g>
   </g>
   <g id="PathCollection_87">
    <g clip-path="url(#p56ebdefd62)">
     <use style="fill:#08468b;stroke:#08468b;" x="101.170258" xlink:href="#m402bea4fd2" y="190.467119"/>
    </g>
   </g>
   <g id="PathCollection_88">
    <g clip-path="url(#p56ebdefd62)">
     <use style="fill:#3080bd;stroke:#3080bd;" x="412.742658" xlink:href="#m2cc110d323" y="195.14939"/>
    </g>
   </g>
   <g id="PathCollection_89">
    <g clip-path="url(#p56ebdefd62)">
     <use style="fill:#3989c1;stroke:#3989c1;" x="269.473646" xlink:href="#ma8d147a073" y="211.818274"/>
    </g>
   </g>
   <g id="PathCollection_90">
    <g clip-path="url(#p56ebdefd62)">
     <use style="fill:#1b69af;stroke:#1b69af;" x="150.63577" xlink:href="#m51c2a12e16" y="137.276521"/>
    </g>
   </g>
   <g id="PathCollection_91">
    <g clip-path="url(#p56ebdefd62)">
     <use style="fill:#2c7cba;stroke:#2c7cba;" x="64.975981" xlink:href="#m04089e4c95" y="304.152656"/>
    </g>
   </g>
   <g id="PathCollection_92">
    <g clip-path="url(#p56ebdefd62)">
     <use style="fill:#2272b6;stroke:#2272b6;" x="134.649964" xlink:href="#ma70679d304" y="176.607597"/>
    </g>
   </g>
   <g id="PathCollection_93">
    <g clip-path="url(#p56ebdefd62)">
     <use style="fill:#2676b8;stroke:#2676b8;" x="159.684339" xlink:href="#m0291f78948" y="66.106003"/>
    </g>
   </g>
   <g id="PathCollection_94">
    <g clip-path="url(#p56ebdefd62)">
     <use style="fill:#1e6db2;stroke:#1e6db2;" x="89.407118" xlink:href="#mffd9c025ce" y="279.804848"/>
    </g>
   </g>
   <g id="PathCollection_95">
    <g clip-path="url(#p56ebdefd62)">
     <use style="fill:#3080bd;stroke:#3080bd;" x="230.564798" xlink:href="#m2cc110d323" y="161.811621"/>
    </g>
   </g>
   <g id="PathCollection_96">
    <g clip-path="url(#p56ebdefd62)">
     <use style="fill:#083877;stroke:#083877;" x="278.220596" xlink:href="#mdc464bc97f" y="187.095884"/>
    </g>
   </g>
   <g id="PathCollection_97">
    <g clip-path="url(#p56ebdefd62)">
     <use style="fill:#2676b8;stroke:#2676b8;" x="246.852223" xlink:href="#m0291f78948" y="172.487198"/>
    </g>
   </g>
   <g id="PathCollection_98">
    <g clip-path="url(#p56ebdefd62)">
     <use style="fill:#0e58a2;stroke:#0e58a2;" x="280.03031" xlink:href="#me893467c5b" y="150.574171"/>
    </g>
   </g>
   <g id="PathCollection_99">
    <g clip-path="url(#p56ebdefd62)">
     <use style="fill:#2c7cba;stroke:#2c7cba;" x="58.943602" xlink:href="#m04089e4c95" y="304.339947"/>
    </g>
   </g>
   <g id="PathCollection_100">
    <g clip-path="url(#p56ebdefd62)">
     <use style="fill:#4191c6;stroke:#4191c6;" x="152.445484" xlink:href="#m5526224320" y="188.968792"/>
    </g>
   </g>
   <g id="PathCollection_101">
    <g clip-path="url(#p56ebdefd62)">
     <use style="fill:#2272b6;stroke:#2272b6;" x="206.736899" xlink:href="#ma70679d304" y="171.550744"/>
    </g>
   </g>
   <g id="PathCollection_102">
    <g clip-path="url(#p56ebdefd62)">
     <use style="fill:#2c7cba;stroke:#2c7cba;" x="378.358095" xlink:href="#m04089e4c95" y="205.450386"/>
    </g>
   </g>
   <g id="PathCollection_103">
    <g clip-path="url(#p56ebdefd62)">
     <use style="fill:#2676b8;stroke:#2676b8;" x="89.708737" xlink:href="#m0291f78948" y="267.630943"/>
    </g>
   </g>
   <g id="PathCollection_104">
    <g clip-path="url(#p56ebdefd62)">
     <use style="fill:#084f99;stroke:#084f99;" x="44.164272" xlink:href="#m695f43d2a5" y="17.784968"/>
    </g>
   </g>
   <g id="PathCollection_105">
    <g clip-path="url(#p56ebdefd62)">
     <use style="fill:#1e6db2;stroke:#1e6db2;" x="79.453692" xlink:href="#mffd9c025ce" y="151.510625"/>
    </g>
   </g>
   <g id="PathCollection_106">
    <g clip-path="url(#p56ebdefd62)">
     <use style="fill:#2272b6;stroke:#2272b6;" x="359.3561" xlink:href="#ma70679d304" y="217.062417"/>
    </g>
   </g>
   <g id="PathCollection_107">
    <g clip-path="url(#p56ebdefd62)">
     <use style="fill:#2272b6;stroke:#2272b6;" x="45.973986" xlink:href="#ma70679d304" y="317.450306"/>
    </g>
   </g>
   <g id="PathCollection_108">
    <g clip-path="url(#p56ebdefd62)">
     <use style="fill:#1460a8;stroke:#1460a8;" x="111.123684" xlink:href="#m2a3662b4eb" y="43.818394"/>
    </g>
   </g>
   <g id="PathCollection_109">
    <g clip-path="url(#p56ebdefd62)">
     <use style="fill:#0a539e;stroke:#0a539e;" x="253.186221" xlink:href="#ma791a28cdd" y="213.503892"/>
    </g>
   </g>
   <g id="PathCollection_110">
    <defs>
     <path d="M 0 3 
C 0.795609 3 1.55874 2.683901 2.12132 2.12132 
C 2.683901 1.55874 3 0.795609 3 0 
C 3 -0.795609 2.683901 -1.55874 2.12132 -2.12132 
C 1.55874 -2.683901 0.795609 -3 0 -3 
C -0.795609 -3 -1.55874 -2.683901 -2.12132 -2.12132 
C -2.683901 -1.55874 -3 -0.795609 -3 0 
C -3 0.795609 -2.683901 1.55874 -2.12132 2.12132 
C -1.55874 2.683901 -0.795609 3 0 3 
z
" id="m4e70504c74" style="stroke:#3d8dc4;"/>
    </defs>
    <g clip-path="url(#p56ebdefd62)">
     <use style="fill:#3d8dc4;stroke:#3d8dc4;" x="168.732908" xlink:href="#m4e70504c74" y="254.333294"/>
    </g>
   </g>
   <g id="PathCollection_111">
    <g clip-path="url(#p56ebdefd62)">
     <use style="fill:#d6e6f4;stroke:#d6e6f4;" x="183.210619" xlink:href="#m813d1e65b2" y="193.08919"/>
    </g>
   </g>
   <g id="PathCollection_112">
    <g clip-path="url(#p56ebdefd62)">
     <use style="fill:#1b69af;stroke:#1b69af;" x="189.544618" xlink:href="#m51c2a12e16" y="191.403573"/>
    </g>
   </g>
   <g id="PathCollection_113">
    <g clip-path="url(#p56ebdefd62)">
     <use style="fill:#3d8dc4;stroke:#3d8dc4;" x="265.552599" xlink:href="#m4e70504c74" y="215.564091"/>
    </g>
   </g>
   <g id="PathCollection_114">
    <g clip-path="url(#p56ebdefd62)">
     <use style="fill:#0e58a2;stroke:#0e58a2;" x="220.309753" xlink:href="#me893467c5b" y="203.202896"/>
    </g>
   </g>
   <g id="PathCollection_115">
    <g clip-path="url(#p56ebdefd62)">
     <use style="fill:#1e6db2;stroke:#1e6db2;" x="140.380725" xlink:href="#mffd9c025ce" y="202.079151"/>
    </g>
   </g>
   <g id="PathCollection_116">
    <g clip-path="url(#p56ebdefd62)">
     <use style="fill:#2676b8;stroke:#2676b8;" x="215.18223" xlink:href="#m0291f78948" y="224.741342"/>
    </g>
   </g>
   <g id="PathCollection_117">
    <g clip-path="url(#p56ebdefd62)">
     <use style="fill:#2c7cba;stroke:#2c7cba;" x="151.239008" xlink:href="#m04089e4c95" y="203.202896"/>
    </g>
   </g>
   <g id="PathCollection_118">
    <g clip-path="url(#p56ebdefd62)">
     <use style="fill:#115ca5;stroke:#115ca5;" x="416.362086" xlink:href="#m525c11c5d7" y="237.8517"/>
    </g>
   </g>
   <g id="PathCollection_119">
    <g clip-path="url(#p56ebdefd62)">
     <use style="fill:#3484bf;stroke:#3484bf;" x="74.32617" xlink:href="#m8609c7595b" y="240.661063"/>
    </g>
   </g>
   <g id="PathCollection_120">
    <g clip-path="url(#p56ebdefd62)">
     <use style="fill:#2c7cba;stroke:#2c7cba;" x="136.459678" xlink:href="#m04089e4c95" y="146.828354"/>
    </g>
   </g>
   <g id="PathCollection_121">
    <g clip-path="url(#p56ebdefd62)">
     <use style="fill:#3484bf;stroke:#3484bf;" x="225.437275" xlink:href="#m8609c7595b" y="236.540664"/>
    </g>
   </g>
   <g id="PathCollection_122">
    <g clip-path="url(#p56ebdefd62)">
     <use style="fill:#1b69af;stroke:#1b69af;" x="67.690552" xlink:href="#m51c2a12e16" y="327.751302"/>
    </g>
   </g>
   <g id="PathCollection_123">
    <defs>
     <path d="M 0 3 
C 0.795609 3 1.55874 2.683901 2.12132 2.12132 
C 2.683901 1.55874 3 0.795609 3 0 
C 3 -0.795609 2.683901 -1.55874 2.12132 -2.12132 
C 1.55874 -2.683901 0.795609 -3 0 -3 
C -0.795609 -3 -1.55874 -2.683901 -2.12132 -2.12132 
C -2.683901 -1.55874 -3 -0.795609 -3 0 
C -3 0.795609 -2.683901 1.55874 -2.12132 2.12132 
C -1.55874 2.683901 -0.795609 3 0 3 
z
" id="m7097117680" style="stroke:#5da5d1;"/>
    </defs>
    <g clip-path="url(#p56ebdefd62)">
     <use style="fill:#5da5d1;stroke:#5da5d1;" x="179.591191" xlink:href="#m7097117680" y="190.467119"/>
    </g>
   </g>
   <g id="PathCollection_124">
    <g clip-path="url(#p56ebdefd62)">
     <use style="fill:#1e6db2;stroke:#1e6db2;" x="264.346123" xlink:href="#mffd9c025ce" y="229.423613"/>
    </g>
   </g>
   <g id="PathCollection_125">
    <g clip-path="url(#p56ebdefd62)">
     <use style="fill:#5da5d1;stroke:#5da5d1;" x="157.874625" xlink:href="#m7097117680" y="184.286521"/>
    </g>
   </g>
   <g id="PathCollection_126">
    <g clip-path="url(#p56ebdefd62)">
     <use style="fill:#0a539e;stroke:#0a539e;" x="323.161823" xlink:href="#ma791a28cdd" y="192.9019"/>
    </g>
   </g>
   <g id="matplotlib.axis_1">
    <g id="xtick_1">
     <g id="line2d_1">
      <defs>
       <path d="M 0 0 
L 0 3.5 
" id="ma17c03320e" style="stroke:#000000;stroke-width:0.8;"/>
      </defs>
      <g>
       <use style="stroke:#000000;stroke-width:0.8;" x="4.652187" xlink:href="#ma17c03320e" y="345.6"/>
      </g>
     </g>
     <g id="text_1">
      <text style="font-family:DejaVu Sans;font-size:10px;font-style:normal;font-weight:normal;text-anchor:middle;" transform="rotate(-0, 4.652187, 360.198437)" x="4.652187" y="360.198437">−0.6</text>
     </g>
    </g>
    <g id="xtick_2">
     <g id="line2d_2">
      <g>
       <use style="stroke:#000000;stroke-width:0.8;" x="64.975981" xlink:href="#ma17c03320e" y="345.6"/>
      </g>
     </g>
     <g id="text_2">
      <text style="font-family:DejaVu Sans;font-size:10px;font-style:normal;font-weight:normal;text-anchor:middle;" transform="rotate(-0, 64.975981, 360.198437)" x="64.975981" y="360.198437">−0.4</text>
     </g>
    </g>
    <g id="xtick_3">
     <g id="line2d_3">
      <g>
       <use style="stroke:#000000;stroke-width:0.8;" x="125.299776" xlink:href="#ma17c03320e" y="345.6"/>
      </g>
     </g>
     <g id="text_3">
      <text style="font-family:DejaVu Sans;font-size:10px;font-style:normal;font-weight:normal;text-anchor:middle;" transform="rotate(-0, 125.299776, 360.198437)" x="125.299776" y="360.198437">−0.2</text>
     </g>
    </g>
    <g id="xtick_4">
     <g id="line2d_4">
      <g>
       <use style="stroke:#000000;stroke-width:0.8;" x="185.623571" xlink:href="#ma17c03320e" y="345.6"/>
      </g>
     </g>
     <g id="text_4">
      <text style="font-family:DejaVu Sans;font-size:10px;font-style:normal;font-weight:normal;text-anchor:middle;" transform="rotate(-0, 185.623571, 360.198437)" x="185.623571" y="360.198437">0.0</text>
     </g>
    </g>
    <g id="xtick_5">
     <g id="line2d_5">
      <g>
       <use style="stroke:#000000;stroke-width:0.8;" x="245.947366" xlink:href="#ma17c03320e" y="345.6"/>
      </g>
     </g>
     <g id="text_5">
      <text style="font-family:DejaVu Sans;font-size:10px;font-style:normal;font-weight:normal;text-anchor:middle;" transform="rotate(-0, 245.947366, 360.198437)" x="245.947366" y="360.198437">0.2</text>
     </g>
    </g>
    <g id="xtick_6">
     <g id="line2d_6">
      <g>
       <use style="stroke:#000000;stroke-width:0.8;" x="306.271161" xlink:href="#ma17c03320e" y="345.6"/>
      </g>
     </g>
     <g id="text_6">
      <text style="font-family:DejaVu Sans;font-size:10px;font-style:normal;font-weight:normal;text-anchor:middle;" transform="rotate(-0, 306.271161, 360.198437)" x="306.271161" y="360.198437">0.4</text>
     </g>
    </g>
    <g id="xtick_7">
     <g id="line2d_7">
      <g>
       <use style="stroke:#000000;stroke-width:0.8;" x="366.594955" xlink:href="#ma17c03320e" y="345.6"/>
      </g>
     </g>
     <g id="text_7">
      <text style="font-family:DejaVu Sans;font-size:10px;font-style:normal;font-weight:normal;text-anchor:middle;" transform="rotate(-0, 366.594955, 360.198437)" x="366.594955" y="360.198437">0.6</text>
     </g>
    </g>
    <g id="xtick_8">
     <g id="line2d_8">
      <g>
       <use style="stroke:#000000;stroke-width:0.8;" x="426.91875" xlink:href="#ma17c03320e" y="345.6"/>
      </g>
     </g>
     <g id="text_8">
      <text style="font-family:DejaVu Sans;font-size:10px;font-style:normal;font-weight:normal;text-anchor:middle;" transform="rotate(-0, 426.91875, 360.198437)" x="426.91875" y="360.198437">0.8</text>
     </g>
    </g>
   </g>
   <g id="matplotlib.axis_2">
    <g id="ytick_1">
     <g id="line2d_9">
      <defs>
       <path d="M 0 0 
L -3.5 0 
" id="m096adbebd6" style="stroke:#000000;stroke-width:0.8;"/>
      </defs>
      <g>
       <use style="stroke:#000000;stroke-width:0.8;" x="0" xlink:href="#m096adbebd6" y="332.995445"/>
      </g>
     </g>
     <g id="text_9">
      <text style="font-family:DejaVu Sans;font-size:10px;font-style:normal;font-weight:normal;text-anchor:end;" transform="rotate(-0, -7, 336.794664)" x="-7" y="336.794664">−0.75</text>
     </g>
    </g>
    <g id="ytick_2">
     <g id="line2d_10">
      <g>
       <use style="stroke:#000000;stroke-width:0.8;" x="0" xlink:href="#m096adbebd6" y="286.172736"/>
      </g>
     </g>
     <g id="text_10">
      <text style="font-family:DejaVu Sans;font-size:10px;font-style:normal;font-weight:normal;text-anchor:end;" transform="rotate(-0, -7, 289.971955)" x="-7" y="289.971955">−0.50</text>
     </g>
    </g>
    <g id="ytick_3">
     <g id="line2d_11">
      <g>
       <use style="stroke:#000000;stroke-width:0.8;" x="0" xlink:href="#m096adbebd6" y="239.350027"/>
      </g>
     </g>
     <g id="text_11">
      <text style="font-family:DejaVu Sans;font-size:10px;font-style:normal;font-weight:normal;text-anchor:end;" transform="rotate(-0, -7, 243.149246)" x="-7" y="243.149246">−0.25</text>
     </g>
    </g>
    <g id="ytick_4">
     <g id="line2d_12">
      <g>
       <use style="stroke:#000000;stroke-width:0.8;" x="0" xlink:href="#m096adbebd6" y="192.527318"/>
      </g>
     </g>
     <g id="text_12">
      <text style="font-family:DejaVu Sans;font-size:10px;font-style:normal;font-weight:normal;text-anchor:end;" transform="rotate(-0, -7, 196.326537)" x="-7" y="196.326537">0.00</text>
     </g>
    </g>
    <g id="ytick_5">
     <g id="line2d_13">
      <g>
       <use style="stroke:#000000;stroke-width:0.8;" x="0" xlink:href="#m096adbebd6" y="145.704609"/>
      </g>
     </g>
     <g id="text_13">
      <text style="font-family:DejaVu Sans;font-size:10px;font-style:normal;font-weight:normal;text-anchor:end;" transform="rotate(-0, -7, 149.503828)" x="-7" y="149.503828">0.25</text>
     </g>
    </g>
    <g id="ytick_6">
     <g id="line2d_14">
      <g>
       <use style="stroke:#000000;stroke-width:0.8;" x="0" xlink:href="#m096adbebd6" y="98.8819"/>
      </g>
     </g>
     <g id="text_14">
      <text style="font-family:DejaVu Sans;font-size:10px;font-style:normal;font-weight:normal;text-anchor:end;" transform="rotate(-0, -7, 102.681119)" x="-7" y="102.681119">0.50</text>
     </g>
    </g>
    <g id="ytick_7">
     <g id="line2d_15">
      <g>
       <use style="stroke:#000000;stroke-width:0.8;" x="0" xlink:href="#m096adbebd6" y="52.059191"/>
      </g>
     </g>
     <g id="text_15">
      <text style="font-family:DejaVu Sans;font-size:10px;font-style:normal;font-weight:normal;text-anchor:end;" transform="rotate(-0, -7, 55.858409)" x="-7" y="55.858409">0.75</text>
     </g>
    </g>
    <g id="ytick_8">
     <g id="line2d_16">
      <g>
       <use style="stroke:#000000;stroke-width:0.8;" x="0" xlink:href="#m096adbebd6" y="5.236482"/>
      </g>
     </g>
     <g id="text_16">
      <text style="font-family:DejaVu Sans;font-size:10px;font-style:normal;font-weight:normal;text-anchor:end;" transform="rotate(-0, -7, 9.0357)" x="-7" y="9.0357">1.00</text>
     </g>
    </g>
   </g>
   <g id="line2d_17">
    <path clip-path="url(#p56ebdefd62)" d="M 171.749098 198.146043 
" style="fill:none;stroke:#ff0000;stroke-linecap:square;stroke-width:1.5;"/>
    <defs>
     <path d="M 0 2.5 
C 0.663008 2.5 1.29895 2.236584 1.767767 1.767767 
C 2.236584 1.29895 2.5 0.663008 2.5 0 
C 2.5 -0.663008 2.236584 -1.29895 1.767767 -1.767767 
C 1.29895 -2.236584 0.663008 -2.5 0 -2.5 
C -0.663008 -2.5 -1.29895 -2.236584 -1.767767 -1.767767 
C -2.236584 -1.29895 -2.5 -0.663008 -2.5 0 
C -2.5 0.663008 -2.236584 1.29895 -1.767767 1.767767 
C -1.29895 2.236584 -0.663008 2.5 0 2.5 
z
" id="m488d13176d" style="stroke:#ff0000;"/>
    </defs>
    <g clip-path="url(#p56ebdefd62)">
     <use style="fill:#ff0000;stroke:#ff0000;" x="171.749098" xlink:href="#m488d13176d" y="198.146043"/>
    </g>
   </g>
   <g id="line2d_18">
    <path clip-path="url(#p56ebdefd62)" d="M 183.210619 193.08919 
" style="fill:none;stroke:#ff0000;stroke-linecap:square;stroke-width:1.5;"/>
    <g clip-path="url(#p56ebdefd62)">
     <use style="fill:#ff0000;stroke:#ff0000;" x="183.210619" xlink:href="#m488d13176d" y="193.08919"/>
    </g>
   </g>
   <g id="patch_3">
    <path d="M 0 345.6 
L 0 0 
" style="fill:none;stroke:#000000;stroke-linecap:square;stroke-linejoin:miter;stroke-width:0.8;"/>
   </g>
   <g id="patch_4">
    <path d="M 460.8 345.6 
L 460.8 0 
" style="fill:none;stroke:#000000;stroke-linecap:square;stroke-linejoin:miter;stroke-width:0.8;"/>
   </g>
   <g id="patch_5">
    <path d="M 0 345.6 
L 460.8 345.6 
" style="fill:none;stroke:#000000;stroke-linecap:square;stroke-linejoin:miter;stroke-width:0.8;"/>
   </g>
   <g id="patch_6">
    <path d="M 0 0 
L 460.8 0 
" style="fill:none;stroke:#000000;stroke-linecap:square;stroke-linejoin:miter;stroke-width:0.8;"/>
   </g>
   <g id="text_17">
    <text style="fill:#ff0000;font-family:DejaVu Sans;font-size:8px;font-style:normal;font-weight:normal;text-anchor:start;" transform="rotate(-0, 171.749098, 198.146043)" x="171.749098" y="198.146043">_naive</text>
   </g>
   <g id="text_18">
    <text style="fill:#ff0000;font-family:DejaVu Sans;font-size:8px;font-style:normal;font-weight:normal;text-anchor:start;" transform="rotate(-0, 183.210619, 193.08919)" x="183.210619" y="193.08919">_consensus</text>
   </g>
  </g>
  <g id="text_19">
   <text style="font-family:DejaVu Sans;font-size:15px;font-style:normal;font-weight:normal;text-anchor:start;" transform="rotate(-0, 184.32, 34.56)" x="184.32" y="34.56">MDS comp. (index 2 size 126)</text>
  </g>
 </g>
 <defs>
  <clipPath id="p56ebdefd62">
   <rect height="345.6" width="460.8" x="0" y="0"/>
  </clipPath>
 </defs>
</svg>
