<?xml version="1.0" encoding="utf-8" standalone="no"?>
<!DOCTYPE svg PUBLIC "-//W3C//DTD SVG 1.1//EN"
  "http://www.w3.org/Graphics/SVG/1.1/DTD/svg11.dtd">
<!-- Created with matplotlib (http://matplotlib.org/) -->
<svg height="345.6pt" version="1.1" viewBox="0 0 460.8 345.6" width="460.8pt" xmlns="http://www.w3.org/2000/svg" xmlns:xlink="http://www.w3.org/1999/xlink">
 <defs>
  <style type="text/css">
*{stroke-linecap:butt;stroke-linejoin:round;}
  </style>
 </defs>
 <g id="figure_1">
  <g id="patch_1">
   <path d="M 0 345.6 
L 460.8 345.6 
L 460.8 0 
L 0 0 
z
" style="fill:#ffffff;"/>
  </g>
  <g id="axes_1">
   <g id="patch_2">
    <path d="M 0 345.6 
L 460.8 345.6 
L 460.8 0 
L 0 0 
z
" style="fill:#ffffff;"/>
   </g>
   <g id="PathCollection_1">
    <defs>
     <path d="M 0 3 
C 0.795609 3 1.55874 2.683901 2.12132 2.12132 
C 2.683901 1.55874 3 0.795609 3 0 
C 3 -0.795609 2.683901 -1.55874 2.12132 -2.12132 
C 1.55874 -2.683901 0.795609 -3 0 -3 
C -0.795609 -3 -1.55874 -2.683901 -2.12132 -2.12132 
C -2.683901 -1.55874 -3 -0.795609 -3 0 
C -3 0.795609 -2.683901 1.55874 -2.12132 2.12132 
C -1.55874 2.683901 -0.795609 3 0 3 
z
" id="m3370a8e1b9" style="stroke:#2979b9;"/>
    </defs>
    <g clip-path="url(#p4e5cfeb31a)">
     <use style="fill:#2979b9;stroke:#2979b9;" x="76.757816" xlink:href="#m3370a8e1b9" y="260.362623"/>
    </g>
   </g>
   <g id="PathCollection_2">
    <defs>
     <path d="M 0 3 
C 0.795609 3 1.55874 2.683901 2.12132 2.12132 
C 2.683901 1.55874 3 0.795609 3 0 
C 3 -0.795609 2.683901 -1.55874 2.12132 -2.12132 
C 1.55874 -2.683901 0.795609 -3 0 -3 
C -0.795609 -3 -1.55874 -2.683901 -2.12132 -2.12132 
C -2.683901 -1.55874 -3 -0.795609 -3 0 
C -3 0.795609 -2.683901 1.55874 -2.12132 2.12132 
C -1.55874 2.683901 -0.795609 3 0 3 
z
" id="ma68bc6a720" style="stroke:#82bbdb;"/>
    </defs>
    <g clip-path="url(#p4e5cfeb31a)">
     <use style="fill:#82bbdb;stroke:#82bbdb;" x="157.587415" xlink:href="#ma68bc6a720" y="125.562045"/>
    </g>
   </g>
   <g id="PathCollection_3">
    <defs>
     <path d="M 0 3 
C 0.795609 3 1.55874 2.683901 2.12132 2.12132 
C 2.683901 1.55874 3 0.795609 3 0 
C 3 -0.795609 2.683901 -1.55874 2.12132 -2.12132 
C 1.55874 -2.683901 0.795609 -3 0 -3 
C -0.795609 -3 -1.55874 -2.683901 -2.12132 -2.12132 
C -2.683901 -1.55874 -3 -0.795609 -3 0 
C -3 0.795609 -2.683901 1.55874 -2.12132 2.12132 
C -1.55874 2.683901 -0.795609 3 0 3 
z
" id="m819abbed50" style="stroke:#66abd4;"/>
    </defs>
    <g clip-path="url(#p4e5cfeb31a)">
     <use style="fill:#66abd4;stroke:#66abd4;" x="186.907956" xlink:href="#m819abbed50" y="106.897349"/>
    </g>
   </g>
   <g id="PathCollection_4">
    <g clip-path="url(#p4e5cfeb31a)">
     <use style="fill:#66abd4;stroke:#66abd4;" x="210.681368" xlink:href="#m819abbed50" y="142.152885"/>
    </g>
   </g>
   <g id="PathCollection_5">
    <g clip-path="url(#p4e5cfeb31a)">
     <use style="fill:#82bbdb;stroke:#82bbdb;" x="134.606451" xlink:href="#ma68bc6a720" y="181.556131"/>
    </g>
   </g>
   <g id="PathCollection_6">
    <defs>
     <path d="M 0 3 
C 0.795609 3 1.55874 2.683901 2.12132 2.12132 
C 2.683901 1.55874 3 0.795609 3 0 
C 3 -0.795609 2.683901 -1.55874 2.12132 -2.12132 
C 1.55874 -2.683901 0.795609 -3 0 -3 
C -0.795609 -3 -1.55874 -2.683901 -2.12132 -2.12132 
C -2.683901 -1.55874 -3 -0.795609 -3 0 
C -3 0.795609 -2.683901 1.55874 -2.12132 2.12132 
C -1.55874 2.683901 -0.795609 3 0 3 
z
" id="m1ccfd16fdf" style="stroke:#0a549e;"/>
    </defs>
    <g clip-path="url(#p4e5cfeb31a)">
     <use style="fill:#0a549e;stroke:#0a549e;" x="403.246001" xlink:href="#m1ccfd16fdf" y="297.692014"/>
    </g>
   </g>
   <g id="PathCollection_7">
    <defs>
     <path d="M 0 3 
C 0.795609 3 1.55874 2.683901 2.12132 2.12132 
C 2.683901 1.55874 3 0.795609 3 0 
C 3 -0.795609 2.683901 -1.55874 2.12132 -2.12132 
C 1.55874 -2.683901 0.795609 -3 0 -3 
C -0.795609 -3 -1.55874 -2.683901 -2.12132 -2.12132 
C -2.683901 -1.55874 -3 -0.795609 -3 0 
C -3 0.795609 -2.683901 1.55874 -2.12132 2.12132 
C -1.55874 2.683901 -0.795609 3 0 3 
z
" id="m129a249d25" style="stroke:#b4d3e9;"/>
    </defs>
    <g clip-path="url(#p4e5cfeb31a)">
     <use style="fill:#b4d3e9;stroke:#b4d3e9;" x="192.455085" xlink:href="#m129a249d25" y="140.07903"/>
    </g>
   </g>
   <g id="PathCollection_8">
    <g clip-path="url(#p4e5cfeb31a)">
     <use style="fill:#66abd4;stroke:#66abd4;" x="194.832427" xlink:href="#m819abbed50" y="64.383321"/>
    </g>
   </g>
   <g id="PathCollection_9">
    <g clip-path="url(#p4e5cfeb31a)">
     <use style="fill:#82bbdb;stroke:#82bbdb;" x="174.228803" xlink:href="#ma68bc6a720" y="93.417291"/>
    </g>
   </g>
   <g id="PathCollection_10">
    <g clip-path="url(#p4e5cfeb31a)">
     <use style="fill:#b4d3e9;stroke:#b4d3e9;" x="186.907956" xlink:href="#m129a249d25" y="129.709755"/>
    </g>
   </g>
   <g id="PathCollection_11">
    <g clip-path="url(#p4e5cfeb31a)">
     <use style="fill:#66abd4;stroke:#66abd4;" x="180.56838" xlink:href="#m819abbed50" y="77.863378"/>
    </g>
   </g>
   <g id="PathCollection_12">
    <defs>
     <path d="M 0 3 
C 0.795609 3 1.55874 2.683901 2.12132 2.12132 
C 2.683901 1.55874 3 0.795609 3 0 
C 3 -0.795609 2.683901 -1.55874 2.12132 -2.12132 
C 1.55874 -2.683901 0.795609 -3 0 -3 
C -0.795609 -3 -1.55874 -2.683901 -2.12132 -2.12132 
C -2.683901 -1.55874 -3 -0.795609 -3 0 
C -3 0.795609 -2.683901 1.55874 -2.12132 2.12132 
C -1.55874 2.683901 -0.795609 3 0 3 
z
" id="mac8e9fca61" style="stroke:#9dcae1;"/>
    </defs>
    <g clip-path="url(#p4e5cfeb31a)">
     <use style="fill:#9dcae1;stroke:#9dcae1;" x="188.49285" xlink:href="#mac8e9fca61" y="99.638857"/>
    </g>
   </g>
   <g id="PathCollection_13">
    <defs>
     <path d="M 0 3 
C 0.795609 3 1.55874 2.683901 2.12132 2.12132 
C 2.683901 1.55874 3 0.795609 3 0 
C 3 -0.795609 2.683901 -1.55874 2.12132 -2.12132 
C 1.55874 -2.683901 0.795609 -3 0 -3 
C -0.795609 -3 -1.55874 -2.683901 -2.12132 -2.12132 
C -2.683901 -1.55874 -3 -0.795609 -3 0 
C -3 0.795609 -2.683901 1.55874 -2.12132 2.12132 
C -1.55874 2.683901 -0.795609 3 0 3 
z
" id="m702b41e3e6" style="stroke:#3a8ac2;"/>
    </defs>
    <g clip-path="url(#p4e5cfeb31a)">
     <use style="fill:#3a8ac2;stroke:#3a8ac2;" x="143.323368" xlink:href="#m702b41e3e6" y="323.615202"/>
    </g>
   </g>
   <g id="PathCollection_14">
    <g clip-path="url(#p4e5cfeb31a)">
     <use style="fill:#b4d3e9;stroke:#b4d3e9;" x="189.285297" xlink:href="#m129a249d25" y="126.598972"/>
    </g>
   </g>
   <g id="PathCollection_15">
    <g clip-path="url(#p4e5cfeb31a)">
     <use style="fill:#66abd4;stroke:#66abd4;" x="158.379862" xlink:href="#m819abbed50" y="220.959377"/>
    </g>
   </g>
   <g id="PathCollection_16">
    <g clip-path="url(#p4e5cfeb31a)">
     <use style="fill:#82bbdb;stroke:#82bbdb;" x="186.907956" xlink:href="#ma68bc6a720" y="79.937234"/>
    </g>
   </g>
   <g id="PathCollection_17">
    <g clip-path="url(#p4e5cfeb31a)">
     <use style="fill:#9dcae1;stroke:#9dcae1;" x="198.002215" xlink:href="#mac8e9fca61" y="113.118914"/>
    </g>
   </g>
   <g id="PathCollection_18">
    <g clip-path="url(#p4e5cfeb31a)">
     <use style="fill:#66abd4;stroke:#66abd4;" x="177.398592" xlink:href="#m819abbed50" y="98.601929"/>
    </g>
   </g>
   <g id="PathCollection_19">
    <g clip-path="url(#p4e5cfeb31a)">
     <use style="fill:#3a8ac2;stroke:#3a8ac2;" x="103.701016" xlink:href="#m702b41e3e6" y="169.113001"/>
    </g>
   </g>
   <g id="PathCollection_20">
    <g clip-path="url(#p4e5cfeb31a)">
     <use style="fill:#2979b9;stroke:#2979b9;" x="88.644522" xlink:href="#m3370a8e1b9" y="180.519204"/>
    </g>
   </g>
   <g id="PathCollection_21">
    <g clip-path="url(#p4e5cfeb31a)">
     <use style="fill:#3a8ac2;stroke:#3a8ac2;" x="68.040899" xlink:href="#m702b41e3e6" y="255.177985"/>
    </g>
   </g>
   <g id="PathCollection_22">
    <defs>
     <path d="M 0 3 
C 0.795609 3 1.55874 2.683901 2.12132 2.12132 
C 2.683901 1.55874 3 0.795609 3 0 
C 3 -0.795609 2.683901 -1.55874 2.12132 -2.12132 
C 1.55874 -2.683901 0.795609 -3 0 -3 
C -0.795609 -3 -1.55874 -2.683901 -2.12132 -2.12132 
C -2.683901 -1.55874 -3 -0.795609 -3 0 
C -3 0.795609 -2.683901 1.55874 -2.12132 2.12132 
C -1.55874 2.683901 -0.795609 3 0 3 
z
" id="m3097d13855" style="stroke:#c9ddf0;"/>
    </defs>
    <g clip-path="url(#p4e5cfeb31a)">
     <use style="fill:#c9ddf0;stroke:#c9ddf0;" x="192.455085" xlink:href="#m3097d13855" y="136.968247"/>
    </g>
   </g>
   <g id="PathCollection_23">
    <g clip-path="url(#p4e5cfeb31a)">
     <use style="fill:#82bbdb;stroke:#82bbdb;" x="180.56838" xlink:href="#ma68bc6a720" y="91.343436"/>
    </g>
   </g>
   <g id="PathCollection_24">
    <g clip-path="url(#p4e5cfeb31a)">
     <use style="fill:#82bbdb;stroke:#82bbdb;" x="186.907956" xlink:href="#ma68bc6a720" y="115.192769"/>
    </g>
   </g>
   <g id="PathCollection_25">
    <defs>
     <path d="M 0 3 
C 0.795609 3 1.55874 2.683901 2.12132 2.12132 
C 2.683901 1.55874 3 0.795609 3 0 
C 3 -0.795609 2.683901 -1.55874 2.12132 -2.12132 
C 1.55874 -2.683901 0.795609 -3 0 -3 
C -0.795609 -3 -1.55874 -2.683901 -2.12132 -2.12132 
C -2.683901 -1.55874 -3 -0.795609 -3 0 
C -3 0.795609 -2.683901 1.55874 -2.12132 2.12132 
C -1.55874 2.683901 -0.795609 3 0 3 
z
" id="mdb4a9e18c2" style="stroke:#4f9bcb;"/>
    </defs>
    <g clip-path="url(#p4e5cfeb31a)">
     <use style="fill:#4f9bcb;stroke:#4f9bcb;" x="170.266568" xlink:href="#mdb4a9e18c2" y="34.312422"/>
    </g>
   </g>
   <g id="PathCollection_26">
    <g clip-path="url(#p4e5cfeb31a)">
     <use style="fill:#c9ddf0;stroke:#c9ddf0;" x="198.794662" xlink:href="#m3097d13855" y="147.337523"/>
    </g>
   </g>
   <g id="PathCollection_27">
    <g clip-path="url(#p4e5cfeb31a)">
     <use style="fill:#66abd4;stroke:#66abd4;" x="204.341791" xlink:href="#m819abbed50" y="93.417291"/>
    </g>
   </g>
   <g id="PathCollection_28">
    <g clip-path="url(#p4e5cfeb31a)">
     <use style="fill:#82bbdb;stroke:#82bbdb;" x="170.266568" xlink:href="#ma68bc6a720" y="96.528074"/>
    </g>
   </g>
   <g id="PathCollection_29">
    <g clip-path="url(#p4e5cfeb31a)">
     <use style="fill:#82bbdb;stroke:#82bbdb;" x="178.191039" xlink:href="#ma68bc6a720" y="64.383321"/>
    </g>
   </g>
   <g id="PathCollection_30">
    <g clip-path="url(#p4e5cfeb31a)">
     <use style="fill:#4f9bcb;stroke:#4f9bcb;" x="198.002215" xlink:href="#mdb4a9e18c2" y="86.158799"/>
    </g>
   </g>
   <g id="PathCollection_31">
    <g clip-path="url(#p4e5cfeb31a)">
     <use style="fill:#9dcae1;stroke:#9dcae1;" x="154.417627" xlink:href="#mac8e9fca61" y="161.854508"/>
    </g>
   </g>
   <g id="PathCollection_32">
    <g clip-path="url(#p4e5cfeb31a)">
     <use style="fill:#82bbdb;stroke:#82bbdb;" x="129.851768" xlink:href="#ma68bc6a720" y="181.556131"/>
    </g>
   </g>
   <g id="PathCollection_33">
    <g clip-path="url(#p4e5cfeb31a)">
     <use style="fill:#82bbdb;stroke:#82bbdb;" x="180.56838" xlink:href="#ma68bc6a720" y="79.937234"/>
    </g>
   </g>
   <g id="PathCollection_34">
    <g clip-path="url(#p4e5cfeb31a)">
     <use style="fill:#9dcae1;stroke:#9dcae1;" x="192.455085" xlink:href="#mac8e9fca61" y="106.897349"/>
    </g>
   </g>
   <g id="PathCollection_35">
    <g clip-path="url(#p4e5cfeb31a)">
     <use style="fill:#c9ddf0;stroke:#c9ddf0;" x="194.832427" xlink:href="#m3097d13855" y="129.709755"/>
    </g>
   </g>
   <g id="PathCollection_36">
    <g clip-path="url(#p4e5cfeb31a)">
     <use style="fill:#3a8ac2;stroke:#3a8ac2;" x="192.455085" xlink:href="#m702b41e3e6" y="17.721582"/>
    </g>
   </g>
   <g id="PathCollection_37">
    <g clip-path="url(#p4e5cfeb31a)">
     <use style="fill:#82bbdb;stroke:#82bbdb;" x="169.474121" xlink:href="#ma68bc6a720" y="97.565001"/>
    </g>
   </g>
   <g id="PathCollection_38">
    <g clip-path="url(#p4e5cfeb31a)">
     <use style="fill:#66abd4;stroke:#66abd4;" x="178.191039" xlink:href="#m819abbed50" y="101.712712"/>
    </g>
   </g>
   <g id="PathCollection_39">
    <g clip-path="url(#p4e5cfeb31a)">
     <use style="fill:#9dcae1;stroke:#9dcae1;" x="189.285297" xlink:href="#mac8e9fca61" y="92.380364"/>
    </g>
   </g>
   <g id="PathCollection_40">
    <g clip-path="url(#p4e5cfeb31a)">
     <use style="fill:#9dcae1;stroke:#9dcae1;" x="189.285297" xlink:href="#mac8e9fca61" y="106.897349"/>
    </g>
   </g>
   <g id="PathCollection_41">
    <g clip-path="url(#p4e5cfeb31a)">
     <use style="fill:#82bbdb;stroke:#82bbdb;" x="186.907956" xlink:href="#ma68bc6a720" y="90.306509"/>
    </g>
   </g>
   <g id="PathCollection_42">
    <g clip-path="url(#p4e5cfeb31a)">
     <use style="fill:#82bbdb;stroke:#82bbdb;" x="193.247533" xlink:href="#ma68bc6a720" y="177.408421"/>
    </g>
   </g>
   <g id="PathCollection_43">
    <g clip-path="url(#p4e5cfeb31a)">
     <use style="fill:#4f9bcb;stroke:#4f9bcb;" x="125.889533" xlink:href="#mdb4a9e18c2" y="136.968247"/>
    </g>
   </g>
   <g id="PathCollection_44">
    <g clip-path="url(#p4e5cfeb31a)">
     <use style="fill:#c9ddf0;stroke:#c9ddf0;" x="190.870191" xlink:href="#m3097d13855" y="127.6359"/>
    </g>
   </g>
   <g id="PathCollection_45">
    <g clip-path="url(#p4e5cfeb31a)">
     <use style="fill:#4f9bcb;stroke:#4f9bcb;" x="77.550263" xlink:href="#mdb4a9e18c2" y="243.771783"/>
    </g>
   </g>
   <g id="PathCollection_46">
    <defs>
     <path d="M 0 3 
C 0.795609 3 1.55874 2.683901 2.12132 2.12132 
C 2.683901 1.55874 3 0.795609 3 0 
C 3 -0.795609 2.683901 -1.55874 2.12132 -2.12132 
C 1.55874 -2.683901 0.795609 -3 0 -3 
C -0.795609 -3 -1.55874 -2.683901 -2.12132 -2.12132 
C -2.683901 -1.55874 -3 -0.795609 -3 0 
C -3 0.795609 -2.683901 1.55874 -2.12132 2.12132 
C -1.55874 2.683901 -0.795609 3 0 3 
z
" id="m102099c550" style="stroke:#1966ad;"/>
    </defs>
    <g clip-path="url(#p4e5cfeb31a)">
     <use style="fill:#1966ad;stroke:#1966ad;" x="380.265036" xlink:href="#m102099c550" y="275.916536"/>
    </g>
   </g>
   <g id="PathCollection_47">
    <g clip-path="url(#p4e5cfeb31a)">
     <use style="fill:#9dcae1;stroke:#9dcae1;" x="143.323368" xlink:href="#mac8e9fca61" y="186.740769"/>
    </g>
   </g>
   <g id="PathCollection_48">
    <g clip-path="url(#p4e5cfeb31a)">
     <use style="fill:#9dcae1;stroke:#9dcae1;" x="219.398285" xlink:href="#mac8e9fca61" y="134.894392"/>
    </g>
   </g>
   <g id="PathCollection_49">
    <g clip-path="url(#p4e5cfeb31a)">
     <use style="fill:#66abd4;stroke:#66abd4;" x="249.511273" xlink:href="#m819abbed50" y="142.152885"/>
    </g>
   </g>
   <g id="PathCollection_50">
    <g clip-path="url(#p4e5cfeb31a)">
     <use style="fill:#9dcae1;stroke:#9dcae1;" x="180.56838" xlink:href="#mac8e9fca61" y="107.934277"/>
    </g>
   </g>
   <g id="PathCollection_51">
    <g clip-path="url(#p4e5cfeb31a)">
     <use style="fill:#b4d3e9;stroke:#b4d3e9;" x="185.323062" xlink:href="#m129a249d25" y="134.894392"/>
    </g>
   </g>
   <g id="PathCollection_52">
    <g clip-path="url(#p4e5cfeb31a)">
     <use style="fill:#66abd4;stroke:#66abd4;" x="105.28591" xlink:href="#m819abbed50" y="220.959377"/>
    </g>
   </g>
   <g id="PathCollection_53">
    <g clip-path="url(#p4e5cfeb31a)">
     <use style="fill:#82bbdb;stroke:#82bbdb;" x="178.983486" xlink:href="#ma68bc6a720" y="95.491146"/>
    </g>
   </g>
   <g id="PathCollection_54">
    <g clip-path="url(#p4e5cfeb31a)">
     <use style="fill:#82bbdb;stroke:#82bbdb;" x="173.436356" xlink:href="#ma68bc6a720" y="118.303552"/>
    </g>
   </g>
   <g id="PathCollection_55">
    <g clip-path="url(#p4e5cfeb31a)">
     <use style="fill:#9dcae1;stroke:#9dcae1;" x="188.49285" xlink:href="#mac8e9fca61" y="101.712712"/>
    </g>
   </g>
   <g id="PathCollection_56">
    <g clip-path="url(#p4e5cfeb31a)">
     <use style="fill:#82bbdb;stroke:#82bbdb;" x="186.115509" xlink:href="#ma68bc6a720" y="118.303552"/>
    </g>
   </g>
   <g id="PathCollection_57">
    <g clip-path="url(#p4e5cfeb31a)">
     <use style="fill:#66abd4;stroke:#66abd4;" x="217.020944" xlink:href="#m819abbed50" y="116.229697"/>
    </g>
   </g>
   <g id="PathCollection_58">
    <g clip-path="url(#p4e5cfeb31a)">
     <use style="fill:#3a8ac2;stroke:#3a8ac2;" x="174.228803" xlink:href="#m702b41e3e6" y="44.681698"/>
    </g>
   </g>
   <g id="PathCollection_59">
    <g clip-path="url(#p4e5cfeb31a)">
     <use style="fill:#9dcae1;stroke:#9dcae1;" x="183.738168" xlink:href="#mac8e9fca61" y="117.266624"/>
    </g>
   </g>
   <g id="PathCollection_60">
    <g clip-path="url(#p4e5cfeb31a)">
     <use style="fill:#82bbdb;stroke:#82bbdb;" x="219.398285" xlink:href="#ma68bc6a720" y="122.451262"/>
    </g>
   </g>
   <g id="PathCollection_61">
    <defs>
     <path d="M 0 3 
C 0.795609 3 1.55874 2.683901 2.12132 2.12132 
C 2.683901 1.55874 3 0.795609 3 0 
C 3 -0.795609 2.683901 -1.55874 2.12132 -2.12132 
C 1.55874 -2.683901 0.795609 -3 0 -3 
C -0.795609 -3 -1.55874 -2.683901 -2.12132 -2.12132 
C -2.683901 -1.55874 -3 -0.795609 -3 0 
C -3 0.795609 -2.683901 1.55874 -2.12132 2.12132 
C -1.55874 2.683901 -0.795609 3 0 3 
z
" id="mdb5423fdd1" style="stroke:#084285;"/>
    </defs>
    <g clip-path="url(#p4e5cfeb31a)">
     <use style="fill:#084285;stroke:#084285;" x="244.756591" xlink:href="#mdb5423fdd1" y="27.05393"/>
    </g>
   </g>
   <g id="PathCollection_62">
    <g clip-path="url(#p4e5cfeb31a)">
     <use style="fill:#3a8ac2;stroke:#3a8ac2;" x="117.172616" xlink:href="#m702b41e3e6" y="280.064246"/>
    </g>
   </g>
   <g id="PathCollection_63">
    <g clip-path="url(#p4e5cfeb31a)">
     <use style="fill:#3a8ac2;stroke:#3a8ac2;" x="151.247839" xlink:href="#m702b41e3e6" y="227.180942"/>
    </g>
   </g>
   <g id="PathCollection_64">
    <g clip-path="url(#p4e5cfeb31a)">
     <use style="fill:#82bbdb;stroke:#82bbdb;" x="182.153274" xlink:href="#ma68bc6a720" y="108.971204"/>
    </g>
   </g>
   <g id="PathCollection_65">
    <g clip-path="url(#p4e5cfeb31a)">
     <use style="fill:#9dcae1;stroke:#9dcae1;" x="154.417627" xlink:href="#mac8e9fca61" y="169.113001"/>
    </g>
   </g>
   <g id="PathCollection_66">
    <g clip-path="url(#p4e5cfeb31a)">
     <use style="fill:#66abd4;stroke:#66abd4;" x="251.888614" xlink:href="#m819abbed50" y="139.042102"/>
    </g>
   </g>
   <g id="PathCollection_67">
    <g clip-path="url(#p4e5cfeb31a)">
     <use style="fill:#82bbdb;stroke:#82bbdb;" x="176.606144" xlink:href="#ma68bc6a720" y="101.712712"/>
    </g>
   </g>
   <g id="PathCollection_68">
    <g clip-path="url(#p4e5cfeb31a)">
     <use style="fill:#b4d3e9;stroke:#b4d3e9;" x="186.115509" xlink:href="#m129a249d25" y="131.78361"/>
    </g>
   </g>
   <g id="PathCollection_69">
    <g clip-path="url(#p4e5cfeb31a)">
     <use style="fill:#82bbdb;stroke:#82bbdb;" x="178.983486" xlink:href="#ma68bc6a720" y="104.823494"/>
    </g>
   </g>
   <g id="PathCollection_70">
    <g clip-path="url(#p4e5cfeb31a)">
     <use style="fill:#9dcae1;stroke:#9dcae1;" x="190.870191" xlink:href="#mac8e9fca61" y="131.78361"/>
    </g>
   </g>
   <g id="PathCollection_71">
    <g clip-path="url(#p4e5cfeb31a)">
     <use style="fill:#b4d3e9;stroke:#b4d3e9;" x="187.700403" xlink:href="#m129a249d25" y="127.6359"/>
    </g>
   </g>
   <g id="PathCollection_72">
    <g clip-path="url(#p4e5cfeb31a)">
     <use style="fill:#9dcae1;stroke:#9dcae1;" x="185.323062" xlink:href="#mac8e9fca61" y="111.045059"/>
    </g>
   </g>
   <g id="PathCollection_73">
    <defs>
     <path d="M 0 3 
C 0.795609 3 1.55874 2.683901 2.12132 2.12132 
C 2.683901 1.55874 3 0.795609 3 0 
C 3 -0.795609 2.683901 -1.55874 2.12132 -2.12132 
C 1.55874 -2.683901 0.795609 -3 0 -3 
C -0.795609 -3 -1.55874 -2.683901 -2.12132 -2.12132 
C -2.683901 -1.55874 -3 -0.795609 -3 0 
C -3 0.795609 -2.683901 1.55874 -2.12132 2.12132 
C -1.55874 2.683901 -0.795609 3 0 3 
z
" id="mbc7d715949" style="stroke:#08306b;"/>
    </defs>
    <g clip-path="url(#p4e5cfeb31a)">
     <use style="fill:#08306b;stroke:#08306b;" x="438.113671" xlink:href="#mbc7d715949" y="327.762912"/>
    </g>
   </g>
   <g id="PathCollection_74">
    <g clip-path="url(#p4e5cfeb31a)">
     <use style="fill:#66abd4;stroke:#66abd4;" x="178.983486" xlink:href="#m819abbed50" y="75.789523"/>
    </g>
   </g>
   <g id="PathCollection_75">
    <g clip-path="url(#p4e5cfeb31a)">
     <use style="fill:#82bbdb;stroke:#82bbdb;" x="167.889227" xlink:href="#ma68bc6a720" y="205.405464"/>
    </g>
   </g>
   <g id="PathCollection_76">
    <g clip-path="url(#p4e5cfeb31a)">
     <use style="fill:#66abd4;stroke:#66abd4;" x="175.02125" xlink:href="#m819abbed50" y="74.752596"/>
    </g>
   </g>
   <g id="PathCollection_77">
    <g clip-path="url(#p4e5cfeb31a)">
     <use style="fill:#66abd4;stroke:#66abd4;" x="176.606144" xlink:href="#m819abbed50" y="92.380364"/>
    </g>
   </g>
   <g id="PathCollection_78">
    <g clip-path="url(#p4e5cfeb31a)">
     <use style="fill:#0a549e;stroke:#0a549e;" x="389.774401" xlink:href="#m1ccfd16fdf" y="268.658043"/>
    </g>
   </g>
   <g id="PathCollection_79">
    <g clip-path="url(#p4e5cfeb31a)">
     <use style="fill:#82bbdb;stroke:#82bbdb;" x="119.549957" xlink:href="#ma68bc6a720" y="210.590102"/>
    </g>
   </g>
   <g id="PathCollection_80">
    <g clip-path="url(#p4e5cfeb31a)">
     <use style="fill:#9dcae1;stroke:#9dcae1;" x="189.285297" xlink:href="#mac8e9fca61" y="116.229697"/>
    </g>
   </g>
   <g id="PathCollection_81">
    <g clip-path="url(#p4e5cfeb31a)">
     <use style="fill:#66abd4;stroke:#66abd4;" x="136.983792" xlink:href="#m819abbed50" y="263.473406"/>
    </g>
   </g>
   <g id="PathCollection_82">
    <g clip-path="url(#p4e5cfeb31a)">
     <use style="fill:#0a549e;stroke:#0a549e;" x="22.871417" xlink:href="#m1ccfd16fdf" y="283.175029"/>
    </g>
   </g>
   <g id="PathCollection_83">
    <g clip-path="url(#p4e5cfeb31a)">
     <use style="fill:#b4d3e9;stroke:#b4d3e9;" x="182.945721" xlink:href="#m129a249d25" y="133.857465"/>
    </g>
   </g>
   <g id="PathCollection_84">
    <g clip-path="url(#p4e5cfeb31a)">
     <use style="fill:#b4d3e9;stroke:#b4d3e9;" x="201.172003" xlink:href="#m129a249d25" y="140.07903"/>
    </g>
   </g>
   <g id="PathCollection_85">
    <g clip-path="url(#p4e5cfeb31a)">
     <use style="fill:#82bbdb;stroke:#82bbdb;" x="181.360827" xlink:href="#ma68bc6a720" y="90.306509"/>
    </g>
   </g>
   <g id="PathCollection_86">
    <g clip-path="url(#p4e5cfeb31a)">
     <use style="fill:#82bbdb;stroke:#82bbdb;" x="152.040286" xlink:href="#ma68bc6a720" y="176.371493"/>
    </g>
   </g>
   <g id="PathCollection_87">
    <g clip-path="url(#p4e5cfeb31a)">
     <use style="fill:#66abd4;stroke:#66abd4;" x="205.134238" xlink:href="#m819abbed50" y="151.485233"/>
    </g>
   </g>
   <g id="PathCollection_88">
    <g clip-path="url(#p4e5cfeb31a)">
     <use style="fill:#9dcae1;stroke:#9dcae1;" x="190.870191" xlink:href="#mac8e9fca61" y="128.672827"/>
    </g>
   </g>
   <g id="PathCollection_89">
    <g clip-path="url(#p4e5cfeb31a)">
     <use style="fill:#82bbdb;stroke:#82bbdb;" x="114.795275" xlink:href="#ma68bc6a720" y="217.848594"/>
    </g>
   </g>
   <g id="PathCollection_90">
    <g clip-path="url(#p4e5cfeb31a)">
     <use style="fill:#66abd4;stroke:#66abd4;" x="217.813391" xlink:href="#m819abbed50" y="116.229697"/>
    </g>
   </g>
   <g id="PathCollection_91">
    <g clip-path="url(#p4e5cfeb31a)">
     <use style="fill:#82bbdb;stroke:#82bbdb;" x="171.851462" xlink:href="#ma68bc6a720" y="111.045059"/>
    </g>
   </g>
   <g id="PathCollection_92">
    <g clip-path="url(#p4e5cfeb31a)">
     <use style="fill:#66abd4;stroke:#66abd4;" x="236.039673" xlink:href="#m819abbed50" y="128.672827"/>
    </g>
   </g>
   <g id="PathCollection_93">
    <g clip-path="url(#p4e5cfeb31a)">
     <use style="fill:#66abd4;stroke:#66abd4;" x="131.436663" xlink:href="#m819abbed50" y="172.223783"/>
    </g>
   </g>
   <g id="PathCollection_94">
    <g clip-path="url(#p4e5cfeb31a)">
     <use style="fill:#82bbdb;stroke:#82bbdb;" x="182.153274" xlink:href="#ma68bc6a720" y="85.121871"/>
    </g>
   </g>
   <g id="PathCollection_95">
    <g clip-path="url(#p4e5cfeb31a)">
     <use style="fill:#4f9bcb;stroke:#4f9bcb;" x="175.813697" xlink:href="#mdb4a9e18c2" y="52.977118"/>
    </g>
   </g>
   <g id="PathCollection_96">
    <g clip-path="url(#p4e5cfeb31a)">
     <use style="fill:#66abd4;stroke:#66abd4;" x="183.738168" xlink:href="#m819abbed50" y="100.675784"/>
    </g>
   </g>
   <g id="PathCollection_97">
    <g clip-path="url(#p4e5cfeb31a)">
     <use style="fill:#9dcae1;stroke:#9dcae1;" x="192.455085" xlink:href="#mac8e9fca61" y="127.6359"/>
    </g>
   </g>
   <g id="PathCollection_98">
    <g clip-path="url(#p4e5cfeb31a)">
     <use style="fill:#4f9bcb;stroke:#4f9bcb;" x="195.624874" xlink:href="#mdb4a9e18c2" y="45.718625"/>
    </g>
   </g>
   <g id="PathCollection_99">
    <g clip-path="url(#p4e5cfeb31a)">
     <use style="fill:#66abd4;stroke:#66abd4;" x="137.776239" xlink:href="#m819abbed50" y="157.706798"/>
    </g>
   </g>
   <g id="PathCollection_100">
    <defs>
     <path d="M 0 3 
C 0.795609 3 1.55874 2.683901 2.12132 2.12132 
C 2.683901 1.55874 3 0.795609 3 0 
C 3 -0.795609 2.683901 -1.55874 2.12132 -2.12132 
C 1.55874 -2.683901 0.795609 -3 0 -3 
C -0.795609 -3 -1.55874 -2.683901 -2.12132 -2.12132 
C -2.683901 -1.55874 -3 -0.795609 -3 0 
C -3 0.795609 -2.683901 1.55874 -2.12132 2.12132 
C -1.55874 2.683901 -0.795609 3 0 3 
z
" id="mfdc15bddf6" style="stroke:#d6e6f4;"/>
    </defs>
    <g clip-path="url(#p4e5cfeb31a)">
     <use style="fill:#d6e6f4;stroke:#d6e6f4;" x="195.624874" xlink:href="#mfdc15bddf6" y="147.337523"/>
    </g>
   </g>
   <g id="PathCollection_101">
    <g clip-path="url(#p4e5cfeb31a)">
     <use style="fill:#66abd4;stroke:#66abd4;" x="179.775933" xlink:href="#m819abbed50" y="78.900306"/>
    </g>
   </g>
   <g id="PathCollection_102">
    <g clip-path="url(#p4e5cfeb31a)">
     <use style="fill:#4f9bcb;stroke:#4f9bcb;" x="108.455698" xlink:href="#mdb4a9e18c2" y="192.962334"/>
    </g>
   </g>
   <g id="PathCollection_103">
    <g clip-path="url(#p4e5cfeb31a)">
     <use style="fill:#b4d3e9;stroke:#b4d3e9;" x="185.323062" xlink:href="#m129a249d25" y="134.894392"/>
    </g>
   </g>
   <g id="PathCollection_104">
    <g clip-path="url(#p4e5cfeb31a)">
     <use style="fill:#9dcae1;stroke:#9dcae1;" x="130.644216" xlink:href="#mac8e9fca61" y="216.811667"/>
    </g>
   </g>
   <g id="PathCollection_105">
    <g clip-path="url(#p4e5cfeb31a)">
     <use style="fill:#82bbdb;stroke:#82bbdb;" x="175.813697" xlink:href="#ma68bc6a720" y="108.971204"/>
    </g>
   </g>
   <g id="PathCollection_106">
    <g clip-path="url(#p4e5cfeb31a)">
     <use style="fill:#9dcae1;stroke:#9dcae1;" x="192.455085" xlink:href="#mac8e9fca61" y="185.703841"/>
    </g>
   </g>
   <g id="PathCollection_107">
    <g clip-path="url(#p4e5cfeb31a)">
     <use style="fill:#9dcae1;stroke:#9dcae1;" x="192.455085" xlink:href="#mac8e9fca61" y="111.045059"/>
    </g>
   </g>
   <g id="PathCollection_108">
    <g clip-path="url(#p4e5cfeb31a)">
     <use style="fill:#4f9bcb;stroke:#4f9bcb;" x="159.172309" xlink:href="#mdb4a9e18c2" y="77.863378"/>
    </g>
   </g>
   <g id="matplotlib.axis_1">
    <g id="xtick_1">
     <g id="line2d_1">
      <defs>
       <path d="M 0 0 
L 0 3.5 
" id="ma66607ab14" style="stroke:#000000;stroke-width:0.8;"/>
      </defs>
      <g>
       <use style="stroke:#000000;stroke-width:0.8;" x="22.871417" xlink:href="#ma66607ab14" y="345.6"/>
      </g>
     </g>
     <g id="text_1">
      <text style="font-family:DejaVu Sans;font-size:10px;font-style:normal;font-weight:normal;text-anchor:middle;" transform="rotate(-0, 22.871417, 360.198437)" x="22.871417" y="360.198437">−0.2</text>
     </g>
    </g>
    <g id="xtick_2">
     <g id="line2d_2">
      <g>
       <use style="stroke:#000000;stroke-width:0.8;" x="102.116122" xlink:href="#ma66607ab14" y="345.6"/>
      </g>
     </g>
     <g id="text_2">
      <text style="font-family:DejaVu Sans;font-size:10px;font-style:normal;font-weight:normal;text-anchor:middle;" transform="rotate(-0, 102.116122, 360.198437)" x="102.116122" y="360.198437">−0.1</text>
     </g>
    </g>
    <g id="xtick_3">
     <g id="line2d_3">
      <g>
       <use style="stroke:#000000;stroke-width:0.8;" x="181.360827" xlink:href="#ma66607ab14" y="345.6"/>
      </g>
     </g>
     <g id="text_3">
      <text style="font-family:DejaVu Sans;font-size:10px;font-style:normal;font-weight:normal;text-anchor:middle;" transform="rotate(-0, 181.360827, 360.198437)" x="181.360827" y="360.198437">0.0</text>
     </g>
    </g>
    <g id="xtick_4">
     <g id="line2d_4">
      <g>
       <use style="stroke:#000000;stroke-width:0.8;" x="260.605532" xlink:href="#ma66607ab14" y="345.6"/>
      </g>
     </g>
     <g id="text_4">
      <text style="font-family:DejaVu Sans;font-size:10px;font-style:normal;font-weight:normal;text-anchor:middle;" transform="rotate(-0, 260.605532, 360.198437)" x="260.605532" y="360.198437">0.1</text>
     </g>
    </g>
    <g id="xtick_5">
     <g id="line2d_5">
      <g>
       <use style="stroke:#000000;stroke-width:0.8;" x="339.850237" xlink:href="#ma66607ab14" y="345.6"/>
      </g>
     </g>
     <g id="text_5">
      <text style="font-family:DejaVu Sans;font-size:10px;font-style:normal;font-weight:normal;text-anchor:middle;" transform="rotate(-0, 339.850237, 360.198437)" x="339.850237" y="360.198437">0.2</text>
     </g>
    </g>
    <g id="xtick_6">
     <g id="line2d_6">
      <g>
       <use style="stroke:#000000;stroke-width:0.8;" x="419.094942" xlink:href="#ma66607ab14" y="345.6"/>
      </g>
     </g>
     <g id="text_6">
      <text style="font-family:DejaVu Sans;font-size:10px;font-style:normal;font-weight:normal;text-anchor:middle;" transform="rotate(-0, 419.094942, 360.198437)" x="419.094942" y="360.198437">0.3</text>
     </g>
    </g>
   </g>
   <g id="matplotlib.axis_2">
    <g id="ytick_1">
     <g id="line2d_7">
      <defs>
       <path d="M 0 0 
L -3.5 0 
" id="m65ad1a4e12" style="stroke:#000000;stroke-width:0.8;"/>
      </defs>
      <g>
       <use style="stroke:#000000;stroke-width:0.8;" x="0" xlink:href="#m65ad1a4e12" y="294.581231"/>
      </g>
     </g>
     <g id="text_7">
      <text style="font-family:DejaVu Sans;font-size:10px;font-style:normal;font-weight:normal;text-anchor:end;" transform="rotate(-0, -7, 298.38045)" x="-7" y="298.38045">−0.15</text>
     </g>
    </g>
    <g id="ytick_2">
     <g id="line2d_8">
      <g>
       <use style="stroke:#000000;stroke-width:0.8;" x="0" xlink:href="#m65ad1a4e12" y="242.734855"/>
      </g>
     </g>
     <g id="text_8">
      <text style="font-family:DejaVu Sans;font-size:10px;font-style:normal;font-weight:normal;text-anchor:end;" transform="rotate(-0, -7, 246.534074)" x="-7" y="246.534074">−0.10</text>
     </g>
    </g>
    <g id="ytick_3">
     <g id="line2d_9">
      <g>
       <use style="stroke:#000000;stroke-width:0.8;" x="0" xlink:href="#m65ad1a4e12" y="190.888479"/>
      </g>
     </g>
     <g id="text_9">
      <text style="font-family:DejaVu Sans;font-size:10px;font-style:normal;font-weight:normal;text-anchor:end;" transform="rotate(-0, -7, 194.687698)" x="-7" y="194.687698">−0.05</text>
     </g>
    </g>
    <g id="ytick_4">
     <g id="line2d_10">
      <g>
       <use style="stroke:#000000;stroke-width:0.8;" x="0" xlink:href="#m65ad1a4e12" y="139.042102"/>
      </g>
     </g>
     <g id="text_10">
      <text style="font-family:DejaVu Sans;font-size:10px;font-style:normal;font-weight:normal;text-anchor:end;" transform="rotate(-0, -7, 142.841321)" x="-7" y="142.841321">0.00</text>
     </g>
    </g>
    <g id="ytick_5">
     <g id="line2d_11">
      <g>
       <use style="stroke:#000000;stroke-width:0.8;" x="0" xlink:href="#m65ad1a4e12" y="87.195726"/>
      </g>
     </g>
     <g id="text_11">
      <text style="font-family:DejaVu Sans;font-size:10px;font-style:normal;font-weight:normal;text-anchor:end;" transform="rotate(-0, -7, 90.994945)" x="-7" y="90.994945">0.05</text>
     </g>
    </g>
    <g id="ytick_6">
     <g id="line2d_12">
      <g>
       <use style="stroke:#000000;stroke-width:0.8;" x="0" xlink:href="#m65ad1a4e12" y="35.34935"/>
      </g>
     </g>
     <g id="text_12">
      <text style="font-family:DejaVu Sans;font-size:10px;font-style:normal;font-weight:normal;text-anchor:end;" transform="rotate(-0, -7, 39.148569)" x="-7" y="39.148569">0.10</text>
     </g>
    </g>
   </g>
   <g id="line2d_13">
    <path clip-path="url(#p4e5cfeb31a)" d="M 195.624874 147.337523 
" style="fill:none;stroke:#ff0000;stroke-linecap:square;stroke-width:1.5;"/>
    <defs>
     <path d="M 0 2.5 
C 0.663008 2.5 1.29895 2.236584 1.767767 1.767767 
C 2.236584 1.29895 2.5 0.663008 2.5 0 
C 2.5 -0.663008 2.236584 -1.29895 1.767767 -1.767767 
C 1.29895 -2.236584 0.663008 -2.5 0 -2.5 
C -0.663008 -2.5 -1.29895 -2.236584 -1.767767 -1.767767 
C -2.236584 -1.29895 -2.5 -0.663008 -2.5 0 
C -2.5 0.663008 -2.236584 1.29895 -1.767767 1.767767 
C -1.29895 2.236584 -0.663008 2.5 0 2.5 
z
" id="m39281dba65" style="stroke:#ff0000;"/>
    </defs>
    <g clip-path="url(#p4e5cfeb31a)">
     <use style="fill:#ff0000;stroke:#ff0000;" x="195.624874" xlink:href="#m39281dba65" y="147.337523"/>
    </g>
   </g>
   <g id="patch_3">
    <path d="M 0 345.6 
L 0 0 
" style="fill:none;stroke:#000000;stroke-linecap:square;stroke-linejoin:miter;stroke-width:0.8;"/>
   </g>
   <g id="patch_4">
    <path d="M 460.8 345.6 
L 460.8 0 
" style="fill:none;stroke:#000000;stroke-linecap:square;stroke-linejoin:miter;stroke-width:0.8;"/>
   </g>
   <g id="patch_5">
    <path d="M 0 345.6 
L 460.8 345.6 
" style="fill:none;stroke:#000000;stroke-linecap:square;stroke-linejoin:miter;stroke-width:0.8;"/>
   </g>
   <g id="patch_6">
    <path d="M 0 0 
L 460.8 0 
" style="fill:none;stroke:#000000;stroke-linecap:square;stroke-linejoin:miter;stroke-width:0.8;"/>
   </g>
   <g id="text_13">
    <text style="fill:#ff0000;font-family:DejaVu Sans;font-size:8px;font-style:normal;font-weight:normal;text-anchor:start;" transform="rotate(-0, 195.624874, 147.337523)" x="195.624874" y="147.337523">_consensus</text>
   </g>
  </g>
  <g id="text_14">
   <text style="font-family:DejaVu Sans;font-size:15px;font-style:normal;font-weight:normal;text-anchor:start;" transform="rotate(-0, 184.32, 34.56)" x="184.32" y="34.56">MDS comp. (index 3 size 122)</text>
  </g>
 </g>
 <defs>
  <clipPath id="p4e5cfeb31a">
   <rect height="345.6" width="460.8" x="0" y="0"/>
  </clipPath>
 </defs>
</svg>
