<?xml version="1.0" encoding="utf-8" standalone="no"?>
<!DOCTYPE svg PUBLIC "-//W3C//DTD SVG 1.1//EN"
  "http://www.w3.org/Graphics/SVG/1.1/DTD/svg11.dtd">
<!-- Created with matplotlib (http://matplotlib.org/) -->
<svg height="345.6pt" version="1.1" viewBox="0 0 460.8 345.6" width="460.8pt" xmlns="http://www.w3.org/2000/svg" xmlns:xlink="http://www.w3.org/1999/xlink">
 <defs>
  <style type="text/css">
*{stroke-linecap:butt;stroke-linejoin:round;}
  </style>
 </defs>
 <g id="figure_1">
  <g id="patch_1">
   <path d="M 0 345.6 
L 460.8 345.6 
L 460.8 0 
L 0 0 
z
" style="fill:#ffffff;"/>
  </g>
  <g id="axes_1">
   <g id="patch_2">
    <path d="M 92.16 276.48 
L 437.76 276.48 
L 437.76 27.648 
L 92.16 27.648 
z
" style="fill:#ffffff;"/>
   </g>
   <g id="matplotlib.axis_1">
    <g id="xtick_1">
     <g id="line2d_1">
      <defs>
       <path d="M 0 0 
L 0 3.5 
" id="m9e1c41788f" style="stroke:#262626;stroke-width:0.8;"/>
      </defs>
      <g>
       <use style="fill:#262626;stroke:#262626;stroke-width:0.8;" x="92.16" xlink:href="#m9e1c41788f" y="276.48"/>
      </g>
     </g>
     <g id="text_1">
      <text style="fill:#262626;font-family:DejaVu Sans;font-size:20px;font-style:normal;font-weight:normal;text-anchor:middle;" transform="rotate(-0, 92.16, 298.676875)" x="92.16" y="298.676875">0.0</text>
     </g>
    </g>
    <g id="xtick_2">
     <g id="line2d_2">
      <g>
       <use style="fill:#262626;stroke:#262626;stroke-width:0.8;" x="195.84" xlink:href="#m9e1c41788f" y="276.48"/>
      </g>
     </g>
     <g id="text_2">
      <text style="fill:#262626;font-family:DejaVu Sans;font-size:20px;font-style:normal;font-weight:normal;text-anchor:middle;" transform="rotate(-0, 195.84, 298.676875)" x="195.84" y="298.676875">0.1</text>
     </g>
    </g>
    <g id="xtick_3">
     <g id="line2d_3">
      <g>
       <use style="fill:#262626;stroke:#262626;stroke-width:0.8;" x="299.52" xlink:href="#m9e1c41788f" y="276.48"/>
      </g>
     </g>
     <g id="text_3">
      <text style="fill:#262626;font-family:DejaVu Sans;font-size:20px;font-style:normal;font-weight:normal;text-anchor:middle;" transform="rotate(-0, 299.52, 298.676875)" x="299.52" y="298.676875">0.2</text>
     </g>
    </g>
    <g id="xtick_4">
     <g id="line2d_4">
      <g>
       <use style="fill:#262626;stroke:#262626;stroke-width:0.8;" x="403.2" xlink:href="#m9e1c41788f" y="276.48"/>
      </g>
     </g>
     <g id="text_4">
      <text style="fill:#262626;font-family:DejaVu Sans;font-size:20px;font-style:normal;font-weight:normal;text-anchor:middle;" transform="rotate(-0, 403.2, 298.676875)" x="403.2" y="298.676875">0.3</text>
     </g>
    </g>
    <g id="text_5">
     <text style="fill:#262626;font-family:DejaVu Sans;font-size:20px;font-style:normal;font-weight:normal;text-anchor:middle;" transform="rotate(-0, 264.96, 322.033125)" x="264.96" y="322.033125">mutation freq</text>
    </g>
   </g>
   <g id="matplotlib.axis_2">
    <g id="ytick_1">
     <g id="line2d_5">
      <defs>
       <path d="M 0 0 
L -3.5 0 
" id="mc054473bf7" style="stroke:#262626;stroke-width:0.8;"/>
      </defs>
      <g>
       <use style="fill:#262626;stroke:#262626;stroke-width:0.8;" x="92.16" xlink:href="#mc054473bf7" y="270.153763"/>
      </g>
     </g>
     <g id="text_6">
      <text style="fill:#262626;font-family:DejaVu Sans;font-size:20px;font-style:normal;font-weight:normal;text-anchor:end;" transform="rotate(-0, 85.16, 277.7522)" x="85.16" y="277.7522">0.0</text>
     </g>
    </g>
    <g id="ytick_2">
     <g id="line2d_6">
      <g>
       <use style="fill:#262626;stroke:#262626;stroke-width:0.8;" x="92.16" xlink:href="#mc054473bf7" y="227.978847"/>
      </g>
     </g>
     <g id="text_7">
      <text style="fill:#262626;font-family:DejaVu Sans;font-size:20px;font-style:normal;font-weight:normal;text-anchor:end;" transform="rotate(-0, 85.16, 235.577285)" x="85.16" y="235.577285">0.2</text>
     </g>
    </g>
    <g id="ytick_3">
     <g id="line2d_7">
      <g>
       <use style="fill:#262626;stroke:#262626;stroke-width:0.8;" x="92.16" xlink:href="#mc054473bf7" y="185.803932"/>
      </g>
     </g>
     <g id="text_8">
      <text style="fill:#262626;font-family:DejaVu Sans;font-size:20px;font-style:normal;font-weight:normal;text-anchor:end;" transform="rotate(-0, 85.16, 193.40237)" x="85.16" y="193.40237">0.4</text>
     </g>
    </g>
    <g id="ytick_4">
     <g id="line2d_8">
      <g>
       <use style="fill:#262626;stroke:#262626;stroke-width:0.8;" x="92.16" xlink:href="#mc054473bf7" y="143.629017"/>
      </g>
     </g>
     <g id="text_9">
      <text style="fill:#262626;font-family:DejaVu Sans;font-size:20px;font-style:normal;font-weight:normal;text-anchor:end;" transform="rotate(-0, 85.16, 151.227454)" x="85.16" y="151.227454">0.6</text>
     </g>
    </g>
    <g id="ytick_5">
     <g id="line2d_9">
      <g>
       <use style="fill:#262626;stroke:#262626;stroke-width:0.8;" x="92.16" xlink:href="#mc054473bf7" y="101.454102"/>
      </g>
     </g>
     <g id="text_10">
      <text style="fill:#262626;font-family:DejaVu Sans;font-size:20px;font-style:normal;font-weight:normal;text-anchor:end;" transform="rotate(-0, 85.16, 109.052539)" x="85.16" y="109.052539">0.8</text>
     </g>
    </g>
    <g id="ytick_6">
     <g id="line2d_10">
      <g>
       <use style="fill:#262626;stroke:#262626;stroke-width:0.8;" x="92.16" xlink:href="#mc054473bf7" y="59.279186"/>
      </g>
     </g>
     <g id="text_11">
      <text style="fill:#262626;font-family:DejaVu Sans;font-size:20px;font-style:normal;font-weight:normal;text-anchor:end;" transform="rotate(-0, 85.16, 66.877624)" x="85.16" y="66.877624">1.0</text>
     </g>
    </g>
    <g id="text_12">
     <text style="fill:#262626;font-family:DejaVu Sans;font-size:20px;font-style:normal;font-weight:normal;text-anchor:middle;" transform="rotate(-90, 45.194375, 152.064)" x="45.194375" y="152.064">fraction correct</text>
    </g>
   </g>
   <g id="LineCollection_1">
    <path clip-path="url(#p764e911754)" d="M 100.4544 59.394471 
L 100.4544 59.163902 
" style="fill:none;stroke:#006600;stroke-opacity:0.6;stroke-width:5;"/>
    <path clip-path="url(#p764e911754)" d="M 117.0432 59.582598 
L 117.0432 58.975775 
" style="fill:none;stroke:#006600;stroke-opacity:0.6;stroke-width:5;"/>
    <path clip-path="url(#p764e911754)" d="M 133.632 66.1839 
L 133.632 52.374473 
" style="fill:none;stroke:#006600;stroke-opacity:0.6;stroke-width:5;"/>
    <path clip-path="url(#p764e911754)" d="M 150.2208 78.339861 
L 150.2208 51.617137 
" style="fill:none;stroke:#006600;stroke-opacity:0.6;stroke-width:5;"/>
    <path clip-path="url(#p764e911754)" d="M 166.8096 68.345301 
L 166.8096 50.213072 
" style="fill:none;stroke:#006600;stroke-opacity:0.6;stroke-width:5;"/>
    <path clip-path="url(#p764e911754)" d="M 183.3984 62.760276 
L 183.3984 55.798097 
" style="fill:none;stroke:#006600;stroke-opacity:0.6;stroke-width:5;"/>
    <path clip-path="url(#p764e911754)" d="M 199.9872 64.854628 
L 199.9872 53.703745 
" style="fill:none;stroke:#006600;stroke-opacity:0.6;stroke-width:5;"/>
    <path clip-path="url(#p764e911754)" d="M 216.576 70.027464 
L 216.576 48.530909 
" style="fill:none;stroke:#006600;stroke-opacity:0.6;stroke-width:5;"/>
    <path clip-path="url(#p764e911754)" d="M 233.1648 83.511174 
L 233.1648 35.047199 
" style="fill:none;stroke:#006600;stroke-opacity:0.6;stroke-width:5;"/>
    <path clip-path="url(#p764e911754)" d="M 249.7536 270.153763 
L 249.7536 270.153763 
" style="fill:none;stroke:#006600;stroke-opacity:0.6;stroke-width:5;"/>
    <path clip-path="url(#p764e911754)" d="M 266.3424 148.405269 
L 266.3424 -1 
" style="fill:none;stroke:#006600;stroke-opacity:0.6;stroke-width:5;"/>
    <path clip-path="url(#p764e911754)" d="M 282.9312 109.923734 
L 282.9312 8.634638 
" style="fill:none;stroke:#006600;stroke-opacity:0.6;stroke-width:5;"/>
    <path clip-path="url(#p764e911754)" d="M 299.52 270.153763 
L 299.52 270.153763 
" style="fill:none;stroke:#006600;stroke-opacity:0.6;stroke-width:5;"/>
    <path clip-path="url(#p764e911754)" d="M 316.1088 270.153763 
L 316.1088 270.153763 
" style="fill:none;stroke:#006600;stroke-opacity:0.6;stroke-width:5;"/>
    <path clip-path="url(#p764e911754)" d="M 332.6976 270.153763 
L 332.6976 270.153763 
" style="fill:none;stroke:#006600;stroke-opacity:0.6;stroke-width:5;"/>
    <path clip-path="url(#p764e911754)" d="M 349.2864 270.153763 
L 349.2864 270.153763 
" style="fill:none;stroke:#006600;stroke-opacity:0.6;stroke-width:5;"/>
    <path clip-path="url(#p764e911754)" d="M 365.8752 270.153763 
L 365.8752 270.153763 
" style="fill:none;stroke:#006600;stroke-opacity:0.6;stroke-width:5;"/>
    <path clip-path="url(#p764e911754)" d="M 382.464 270.153763 
L 382.464 270.153763 
" style="fill:none;stroke:#006600;stroke-opacity:0.6;stroke-width:5;"/>
    <path clip-path="url(#p764e911754)" d="M 399.0528 270.153763 
L 399.0528 270.153763 
" style="fill:none;stroke:#006600;stroke-opacity:0.6;stroke-width:5;"/>
    <path clip-path="url(#p764e911754)" d="M 415.6416 270.153763 
L 415.6416 270.153763 
" style="fill:none;stroke:#006600;stroke-opacity:0.6;stroke-width:5;"/>
    <path clip-path="url(#p764e911754)" d="M 432.2304 270.153763 
L 432.2304 270.153763 
" style="fill:none;stroke:#006600;stroke-opacity:0.6;stroke-width:5;"/>
    <path clip-path="url(#p764e911754)" d="M 448.8192 270.153763 
L 448.8192 270.153763 
" style="fill:none;stroke:#006600;stroke-opacity:0.6;stroke-width:5;"/>
    <path clip-path="url(#p764e911754)" style="fill:none;stroke:#006600;stroke-opacity:0.6;stroke-width:5;"/>
    <path clip-path="url(#p764e911754)" style="fill:none;stroke:#006600;stroke-opacity:0.6;stroke-width:5;"/>
    <path clip-path="url(#p764e911754)" style="fill:none;stroke:#006600;stroke-opacity:0.6;stroke-width:5;"/>
   </g>
   <g id="LineCollection_2">
    <path clip-path="url(#p764e911754)" d="M 100.4544 59.394471 
L 100.4544 59.163902 
" style="fill:none;stroke:#990012;stroke-opacity:0.6;stroke-width:3;"/>
    <path clip-path="url(#p764e911754)" d="M 117.0432 59.582598 
L 117.0432 58.975775 
" style="fill:none;stroke:#990012;stroke-opacity:0.6;stroke-width:3;"/>
    <path clip-path="url(#p764e911754)" d="M 133.632 66.1839 
L 133.632 52.374473 
" style="fill:none;stroke:#990012;stroke-opacity:0.6;stroke-width:3;"/>
    <path clip-path="url(#p764e911754)" d="M 150.2208 78.339861 
L 150.2208 51.617137 
" style="fill:none;stroke:#990012;stroke-opacity:0.6;stroke-width:3;"/>
    <path clip-path="url(#p764e911754)" d="M 166.8096 68.345301 
L 166.8096 50.213072 
" style="fill:none;stroke:#990012;stroke-opacity:0.6;stroke-width:3;"/>
    <path clip-path="url(#p764e911754)" d="M 183.3984 70.345941 
L 183.3984 54.700881 
" style="fill:none;stroke:#990012;stroke-opacity:0.6;stroke-width:3;"/>
    <path clip-path="url(#p764e911754)" d="M 199.9872 64.854628 
L 199.9872 53.703745 
" style="fill:none;stroke:#990012;stroke-opacity:0.6;stroke-width:3;"/>
    <path clip-path="url(#p764e911754)" d="M 216.576 70.027464 
L 216.576 48.530909 
" style="fill:none;stroke:#990012;stroke-opacity:0.6;stroke-width:3;"/>
    <path clip-path="url(#p764e911754)" d="M 233.1648 83.511174 
L 233.1648 35.047199 
" style="fill:none;stroke:#990012;stroke-opacity:0.6;stroke-width:3;"/>
    <path clip-path="url(#p764e911754)" d="M 249.7536 270.153763 
L 249.7536 270.153763 
" style="fill:none;stroke:#990012;stroke-opacity:0.6;stroke-width:3;"/>
    <path clip-path="url(#p764e911754)" d="M 266.3424 148.405269 
L 266.3424 -1 
" style="fill:none;stroke:#990012;stroke-opacity:0.6;stroke-width:3;"/>
    <path clip-path="url(#p764e911754)" d="M 282.9312 109.923734 
L 282.9312 8.634638 
" style="fill:none;stroke:#990012;stroke-opacity:0.6;stroke-width:3;"/>
    <path clip-path="url(#p764e911754)" d="M 299.52 270.153763 
L 299.52 270.153763 
" style="fill:none;stroke:#990012;stroke-opacity:0.6;stroke-width:3;"/>
    <path clip-path="url(#p764e911754)" d="M 316.1088 270.153763 
L 316.1088 270.153763 
" style="fill:none;stroke:#990012;stroke-opacity:0.6;stroke-width:3;"/>
    <path clip-path="url(#p764e911754)" d="M 332.6976 270.153763 
L 332.6976 270.153763 
" style="fill:none;stroke:#990012;stroke-opacity:0.6;stroke-width:3;"/>
    <path clip-path="url(#p764e911754)" d="M 349.2864 270.153763 
L 349.2864 270.153763 
" style="fill:none;stroke:#990012;stroke-opacity:0.6;stroke-width:3;"/>
    <path clip-path="url(#p764e911754)" d="M 365.8752 270.153763 
L 365.8752 270.153763 
" style="fill:none;stroke:#990012;stroke-opacity:0.6;stroke-width:3;"/>
    <path clip-path="url(#p764e911754)" d="M 382.464 270.153763 
L 382.464 270.153763 
" style="fill:none;stroke:#990012;stroke-opacity:0.6;stroke-width:3;"/>
    <path clip-path="url(#p764e911754)" d="M 399.0528 270.153763 
L 399.0528 270.153763 
" style="fill:none;stroke:#990012;stroke-opacity:0.6;stroke-width:3;"/>
    <path clip-path="url(#p764e911754)" d="M 415.6416 270.153763 
L 415.6416 270.153763 
" style="fill:none;stroke:#990012;stroke-opacity:0.6;stroke-width:3;"/>
    <path clip-path="url(#p764e911754)" d="M 432.2304 270.153763 
L 432.2304 270.153763 
" style="fill:none;stroke:#990012;stroke-opacity:0.6;stroke-width:3;"/>
    <path clip-path="url(#p764e911754)" d="M 448.8192 270.153763 
L 448.8192 270.153763 
" style="fill:none;stroke:#990012;stroke-opacity:0.6;stroke-width:3;"/>
    <path clip-path="url(#p764e911754)" style="fill:none;stroke:#990012;stroke-opacity:0.6;stroke-width:3;"/>
    <path clip-path="url(#p764e911754)" style="fill:none;stroke:#990012;stroke-opacity:0.6;stroke-width:3;"/>
    <path clip-path="url(#p764e911754)" style="fill:none;stroke:#990012;stroke-opacity:0.6;stroke-width:3;"/>
   </g>
   <g id="line2d_11">
    <path clip-path="url(#p764e911754)" d="M 100.4544 59.279186 
L 117.0432 59.279186 
L 133.632 59.279186 
L 150.2208 64.978499 
L 166.8096 59.279186 
L 183.3984 59.279186 
L 199.9872 59.279186 
L 216.576 59.279186 
L 233.1648 59.279186 
L 249.7536 270.153763 
L 266.3424 59.279186 
L 282.9312 59.279186 
L 299.52 270.153763 
L 316.1088 270.153763 
L 332.6976 270.153763 
L 349.2864 270.153763 
L 365.8752 270.153763 
L 382.464 270.153763 
L 399.0528 270.153763 
L 415.6416 270.153763 
L 432.2304 270.153763 
L 448.8192 270.153763 
L 461.8 270.153763 
" style="fill:none;stroke:#006600;stroke-linecap:round;stroke-opacity:0.6;stroke-width:5;"/>
    <defs>
     <path d="M 0 3.25 
C 0.86191 3.25 1.688635 2.907559 2.298097 2.298097 
C 2.907559 1.688635 3.25 0.86191 3.25 0 
C 3.25 -0.86191 2.907559 -1.688635 2.298097 -2.298097 
C 1.688635 -2.907559 0.86191 -3.25 0 -3.25 
C -0.86191 -3.25 -1.688635 -2.907559 -2.298097 -2.298097 
C -2.907559 -1.688635 -3.25 -0.86191 -3.25 0 
C -3.25 0.86191 -2.907559 1.688635 -2.298097 2.298097 
C -1.688635 2.907559 -0.86191 3.25 0 3.25 
z
" id="m468adc87c7" style="stroke:#006600;stroke-opacity:0.6;"/>
    </defs>
    <g clip-path="url(#p764e911754)">
     <use style="fill:#006600;fill-opacity:0.6;stroke:#006600;stroke-opacity:0.6;" x="100.4544" xlink:href="#m468adc87c7" y="59.279186"/>
     <use style="fill:#006600;fill-opacity:0.6;stroke:#006600;stroke-opacity:0.6;" x="117.0432" xlink:href="#m468adc87c7" y="59.279186"/>
     <use style="fill:#006600;fill-opacity:0.6;stroke:#006600;stroke-opacity:0.6;" x="133.632" xlink:href="#m468adc87c7" y="59.279186"/>
     <use style="fill:#006600;fill-opacity:0.6;stroke:#006600;stroke-opacity:0.6;" x="150.2208" xlink:href="#m468adc87c7" y="64.978499"/>
     <use style="fill:#006600;fill-opacity:0.6;stroke:#006600;stroke-opacity:0.6;" x="166.8096" xlink:href="#m468adc87c7" y="59.279186"/>
     <use style="fill:#006600;fill-opacity:0.6;stroke:#006600;stroke-opacity:0.6;" x="183.3984" xlink:href="#m468adc87c7" y="59.279186"/>
     <use style="fill:#006600;fill-opacity:0.6;stroke:#006600;stroke-opacity:0.6;" x="199.9872" xlink:href="#m468adc87c7" y="59.279186"/>
     <use style="fill:#006600;fill-opacity:0.6;stroke:#006600;stroke-opacity:0.6;" x="216.576" xlink:href="#m468adc87c7" y="59.279186"/>
     <use style="fill:#006600;fill-opacity:0.6;stroke:#006600;stroke-opacity:0.6;" x="233.1648" xlink:href="#m468adc87c7" y="59.279186"/>
     <use style="fill:#006600;fill-opacity:0.6;stroke:#006600;stroke-opacity:0.6;" x="249.7536" xlink:href="#m468adc87c7" y="270.153763"/>
     <use style="fill:#006600;fill-opacity:0.6;stroke:#006600;stroke-opacity:0.6;" x="266.3424" xlink:href="#m468adc87c7" y="59.279186"/>
     <use style="fill:#006600;fill-opacity:0.6;stroke:#006600;stroke-opacity:0.6;" x="282.9312" xlink:href="#m468adc87c7" y="59.279186"/>
     <use style="fill:#006600;fill-opacity:0.6;stroke:#006600;stroke-opacity:0.6;" x="299.52" xlink:href="#m468adc87c7" y="270.153763"/>
     <use style="fill:#006600;fill-opacity:0.6;stroke:#006600;stroke-opacity:0.6;" x="316.1088" xlink:href="#m468adc87c7" y="270.153763"/>
     <use style="fill:#006600;fill-opacity:0.6;stroke:#006600;stroke-opacity:0.6;" x="332.6976" xlink:href="#m468adc87c7" y="270.153763"/>
     <use style="fill:#006600;fill-opacity:0.6;stroke:#006600;stroke-opacity:0.6;" x="349.2864" xlink:href="#m468adc87c7" y="270.153763"/>
     <use style="fill:#006600;fill-opacity:0.6;stroke:#006600;stroke-opacity:0.6;" x="365.8752" xlink:href="#m468adc87c7" y="270.153763"/>
     <use style="fill:#006600;fill-opacity:0.6;stroke:#006600;stroke-opacity:0.6;" x="382.464" xlink:href="#m468adc87c7" y="270.153763"/>
     <use style="fill:#006600;fill-opacity:0.6;stroke:#006600;stroke-opacity:0.6;" x="399.0528" xlink:href="#m468adc87c7" y="270.153763"/>
     <use style="fill:#006600;fill-opacity:0.6;stroke:#006600;stroke-opacity:0.6;" x="415.6416" xlink:href="#m468adc87c7" y="270.153763"/>
     <use style="fill:#006600;fill-opacity:0.6;stroke:#006600;stroke-opacity:0.6;" x="432.2304" xlink:href="#m468adc87c7" y="270.153763"/>
     <use style="fill:#006600;fill-opacity:0.6;stroke:#006600;stroke-opacity:0.6;" x="448.8192" xlink:href="#m468adc87c7" y="270.153763"/>
     <use style="fill:#006600;fill-opacity:0.6;stroke:#006600;stroke-opacity:0.6;" x="465.408" xlink:href="#m468adc87c7" y="270.153763"/>
     <use style="fill:#006600;fill-opacity:0.6;stroke:#006600;stroke-opacity:0.6;" x="481.9968" xlink:href="#m468adc87c7" y="270.153763"/>
     <use style="fill:#006600;fill-opacity:0.6;stroke:#006600;stroke-opacity:0.6;" x="498.5856" xlink:href="#m468adc87c7" y="270.153763"/>
    </g>
   </g>
   <g id="line2d_12">
    <path clip-path="url(#p764e911754)" d="M 100.4544 59.279186 
L 117.0432 59.279186 
L 133.632 59.279186 
L 150.2208 64.978499 
L 166.8096 59.279186 
L 183.3984 62.523411 
L 199.9872 59.279186 
L 216.576 59.279186 
L 233.1648 59.279186 
L 249.7536 270.153763 
L 266.3424 59.279186 
L 282.9312 59.279186 
L 299.52 270.153763 
L 316.1088 270.153763 
L 332.6976 270.153763 
L 349.2864 270.153763 
L 365.8752 270.153763 
L 382.464 270.153763 
L 399.0528 270.153763 
L 415.6416 270.153763 
L 432.2304 270.153763 
L 448.8192 270.153763 
L 461.8 270.153763 
" style="fill:none;stroke:#990012;stroke-linecap:round;stroke-opacity:0.6;stroke-width:3;"/>
    <defs>
     <path d="M 0 3.25 
C 0.86191 3.25 1.688635 2.907559 2.298097 2.298097 
C 2.907559 1.688635 3.25 0.86191 3.25 0 
C 3.25 -0.86191 2.907559 -1.688635 2.298097 -2.298097 
C 1.688635 -2.907559 0.86191 -3.25 0 -3.25 
C -0.86191 -3.25 -1.688635 -2.907559 -2.298097 -2.298097 
C -2.907559 -1.688635 -3.25 -0.86191 -3.25 0 
C -3.25 0.86191 -2.907559 1.688635 -2.298097 2.298097 
C -1.688635 2.907559 -0.86191 3.25 0 3.25 
z
" id="m456b566d26" style="stroke:#990012;stroke-opacity:0.6;"/>
    </defs>
    <g clip-path="url(#p764e911754)">
     <use style="fill:#990012;fill-opacity:0.6;stroke:#990012;stroke-opacity:0.6;" x="100.4544" xlink:href="#m456b566d26" y="59.279186"/>
     <use style="fill:#990012;fill-opacity:0.6;stroke:#990012;stroke-opacity:0.6;" x="117.0432" xlink:href="#m456b566d26" y="59.279186"/>
     <use style="fill:#990012;fill-opacity:0.6;stroke:#990012;stroke-opacity:0.6;" x="133.632" xlink:href="#m456b566d26" y="59.279186"/>
     <use style="fill:#990012;fill-opacity:0.6;stroke:#990012;stroke-opacity:0.6;" x="150.2208" xlink:href="#m456b566d26" y="64.978499"/>
     <use style="fill:#990012;fill-opacity:0.6;stroke:#990012;stroke-opacity:0.6;" x="166.8096" xlink:href="#m456b566d26" y="59.279186"/>
     <use style="fill:#990012;fill-opacity:0.6;stroke:#990012;stroke-opacity:0.6;" x="183.3984" xlink:href="#m456b566d26" y="62.523411"/>
     <use style="fill:#990012;fill-opacity:0.6;stroke:#990012;stroke-opacity:0.6;" x="199.9872" xlink:href="#m456b566d26" y="59.279186"/>
     <use style="fill:#990012;fill-opacity:0.6;stroke:#990012;stroke-opacity:0.6;" x="216.576" xlink:href="#m456b566d26" y="59.279186"/>
     <use style="fill:#990012;fill-opacity:0.6;stroke:#990012;stroke-opacity:0.6;" x="233.1648" xlink:href="#m456b566d26" y="59.279186"/>
     <use style="fill:#990012;fill-opacity:0.6;stroke:#990012;stroke-opacity:0.6;" x="249.7536" xlink:href="#m456b566d26" y="270.153763"/>
     <use style="fill:#990012;fill-opacity:0.6;stroke:#990012;stroke-opacity:0.6;" x="266.3424" xlink:href="#m456b566d26" y="59.279186"/>
     <use style="fill:#990012;fill-opacity:0.6;stroke:#990012;stroke-opacity:0.6;" x="282.9312" xlink:href="#m456b566d26" y="59.279186"/>
     <use style="fill:#990012;fill-opacity:0.6;stroke:#990012;stroke-opacity:0.6;" x="299.52" xlink:href="#m456b566d26" y="270.153763"/>
     <use style="fill:#990012;fill-opacity:0.6;stroke:#990012;stroke-opacity:0.6;" x="316.1088" xlink:href="#m456b566d26" y="270.153763"/>
     <use style="fill:#990012;fill-opacity:0.6;stroke:#990012;stroke-opacity:0.6;" x="332.6976" xlink:href="#m456b566d26" y="270.153763"/>
     <use style="fill:#990012;fill-opacity:0.6;stroke:#990012;stroke-opacity:0.6;" x="349.2864" xlink:href="#m456b566d26" y="270.153763"/>
     <use style="fill:#990012;fill-opacity:0.6;stroke:#990012;stroke-opacity:0.6;" x="365.8752" xlink:href="#m456b566d26" y="270.153763"/>
     <use style="fill:#990012;fill-opacity:0.6;stroke:#990012;stroke-opacity:0.6;" x="382.464" xlink:href="#m456b566d26" y="270.153763"/>
     <use style="fill:#990012;fill-opacity:0.6;stroke:#990012;stroke-opacity:0.6;" x="399.0528" xlink:href="#m456b566d26" y="270.153763"/>
     <use style="fill:#990012;fill-opacity:0.6;stroke:#990012;stroke-opacity:0.6;" x="415.6416" xlink:href="#m456b566d26" y="270.153763"/>
     <use style="fill:#990012;fill-opacity:0.6;stroke:#990012;stroke-opacity:0.6;" x="432.2304" xlink:href="#m456b566d26" y="270.153763"/>
     <use style="fill:#990012;fill-opacity:0.6;stroke:#990012;stroke-opacity:0.6;" x="448.8192" xlink:href="#m456b566d26" y="270.153763"/>
     <use style="fill:#990012;fill-opacity:0.6;stroke:#990012;stroke-opacity:0.6;" x="465.408" xlink:href="#m456b566d26" y="270.153763"/>
     <use style="fill:#990012;fill-opacity:0.6;stroke:#990012;stroke-opacity:0.6;" x="481.9968" xlink:href="#m456b566d26" y="270.153763"/>
     <use style="fill:#990012;fill-opacity:0.6;stroke:#990012;stroke-opacity:0.6;" x="498.5856" xlink:href="#m456b566d26" y="270.153763"/>
    </g>
   </g>
   <g id="patch_3">
    <path d="M 92.16 276.48 
L 92.16 27.648 
" style="fill:none;stroke:#262626;stroke-linecap:square;stroke-linejoin:miter;stroke-width:0.8;"/>
   </g>
   <g id="patch_4">
    <path d="M 92.16 276.48 
L 437.76 276.48 
" style="fill:none;stroke:#262626;stroke-linecap:square;stroke-linejoin:miter;stroke-width:0.8;"/>
   </g>
   <g id="text_13">
    <text style="fill:#262626;font-family:DejaVu Sans;font-size:20px;font-style:normal;font-weight:bold;text-anchor:middle;" transform="rotate(-0, 264.96, 21.648)" x="264.96" y="21.648">J gene</text>
   </g>
   <g id="legend_1">
    <g id="patch_5">
     <path d="M 205.752 201.8304 
L 336.223875 201.8304 
Q 339.223875 201.8304 339.223875 198.8304 
L 339.223875 156.296025 
Q 339.223875 153.296025 336.223875 153.296025 
L 205.752 153.296025 
Q 202.752 153.296025 202.752 156.296025 
L 202.752 198.8304 
Q 202.752 201.8304 205.752 201.8304 
z
" style="fill:#ffffff;opacity:0.8;stroke:#cccccc;stroke-linejoin:miter;"/>
    </g>
    <g id="LineCollection_3">
     <path d="M 223.752 172.943681 
L 223.752 157.943681 
" style="fill:none;stroke:#006600;stroke-opacity:0.6;stroke-width:5;"/>
    </g>
    <g id="line2d_13">
     <path d="M 208.752 165.443681 
L 238.752 165.443681 
" style="fill:none;stroke:#006600;stroke-linecap:round;stroke-opacity:0.6;stroke-width:5;"/>
    </g>
    <g id="line2d_14">
     <g>
      <use style="fill:#006600;fill-opacity:0.6;stroke:#006600;stroke-opacity:0.6;" x="223.752" xlink:href="#m468adc87c7" y="165.443681"/>
     </g>
    </g>
    <g id="text_14">
     <text style="fill:#262626;font-family:DejaVu Sans;font-size:15px;font-style:normal;font-weight:normal;text-anchor:start;" transform="rotate(-0, 250.752, 170.693681)" x="250.752" y="170.693681">sw</text>
    </g>
    <g id="LineCollection_4">
     <path d="M 223.752 194.960869 
L 223.752 179.960869 
" style="fill:none;stroke:#990012;stroke-opacity:0.6;stroke-width:3;"/>
    </g>
    <g id="line2d_15">
     <path d="M 208.752 187.460869 
L 238.752 187.460869 
" style="fill:none;stroke:#990012;stroke-linecap:round;stroke-opacity:0.6;stroke-width:3;"/>
    </g>
    <g id="line2d_16">
     <g>
      <use style="fill:#990012;fill-opacity:0.6;stroke:#990012;stroke-opacity:0.6;" x="223.752" xlink:href="#m456b566d26" y="187.460869"/>
     </g>
    </g>
    <g id="text_15">
     <text style="fill:#262626;font-family:DejaVu Sans;font-size:15px;font-style:normal;font-weight:normal;text-anchor:start;" transform="rotate(-0, 250.752, 192.710869)" x="250.752" y="192.710869">multi-hmm</text>
    </g>
   </g>
  </g>
 </g>
 <defs>
  <clipPath id="p764e911754">
   <rect height="248.832" width="345.6" x="92.16" y="27.648"/>
  </clipPath>
 </defs>
</svg>
